<?xml version="1.0" encoding="utf-8"?>
<!-- Generator: Adobe Illustrator 21.1.0, SVG Export Plug-In . SVG Version: 6.00 Build 0)  -->
<svg version="1.1" id="graphNineCyber" xmlns="http://www.w3.org/2000/svg" xmlns:xlink="http://www.w3.org/1999/xlink" x="0px"
	 y="0px" viewBox="0 0 1500 1053" style="enable-background:new 0 0 1500 1053;" xml:space="preserve">
<style type="text/css">
	.st0{fill:#F6F6F8;}
	.st1{fill:#37C0AA;}
	.st2{opacity:0.1;}
	.st3{fill:#999999;}
	.st4{fill:#FFC940;}
	.st5{opacity:0.9;}
	.st6{fill:#1A1A1A;}
</style>
<rect x="-26.1" y="-18.3" class="st0" width="1552.1" height="1089.6"/>
<rect x="1647.9" y="-18.3" class="st1" width="1552.1" height="1089.6"/>
<rect x="-26.1" y="1150.2" class="st0" width="1552.1" height="1089.6"/>
<g>
	<g class="st2">
		<rect x="863.4" y="956.9" width="76.1" height="45.9"/>
	</g>
	<g>
		<path class="st3" d="M878.2,933.9c0-1.8,1.3-3.4,3.5-4.1c-2.1-0.6-3.1-2.4-3.1-3.9c0-2.9,3.1-4.5,5.5-4.5c2.6,0,5.6,1.5,5.6,4.5
			c0,1.6-1.1,3.3-3.2,3.9c2.3,0.7,3.5,2.3,3.5,4.1c0,3.1-3,4.8-6,4.8C881.2,938.7,878.2,937.1,878.2,933.9z M888.3,933.9
			c0-2.2-2.3-3.3-4.2-3.3c-1.8,0-4.2,1-4.2,3.2c0,2.3,2.3,3.2,4.2,3.2C885.9,937.1,888.3,936.1,888.3,933.9z M880.4,926
			c0,2.1,2.3,3.1,3.8,3.1c1.4,0,3.8-1,3.8-3.1c0-2-2.2-3-3.8-3C882.5,923,880.4,924,880.4,926z"/>
		<path class="st3" d="M894.1,930.7c-1.2,0-2.2-1-2.2-2.2c0-1.2,1-2.2,2.2-2.2c1.2,0,2.2,1,2.2,2.2
			C896.3,929.7,895.3,930.7,894.1,930.7z M894.1,927.1c-0.8,0-1.4,0.6-1.4,1.4c0,0.8,0.6,1.4,1.4,1.4c0.8,0,1.4-0.6,1.4-1.4
			C895.5,927.7,894.9,927.1,894.1,927.1z M899.5,926.4h1l-6.4,9.9h-1L899.5,926.4z M899.6,936.3c-1.2,0-2.2-1-2.2-2.2
			c0-1.2,1-2.2,2.2-2.2c1.2,0,2.2,1,2.2,2.2C901.8,935.3,900.8,936.3,899.6,936.3z M899.6,932.7c-0.8,0-1.4,0.6-1.4,1.4
			c0,0.8,0.6,1.4,1.4,1.4c0.8,0,1.4-0.6,1.4-1.4C901,933.3,900.3,932.7,899.6,932.7z"/>
	</g>
	<g class="st2">
		<rect x="863.4" y="381.3" width="76.1" height="217.9"/>
	</g>
	<g>
		<path class="st3" d="M883.8,363c-3,0-5.5-1.8-5.8-4.6l1.7-0.4c0.3,1.9,1.8,3.4,4.1,3.4c2.3,0,4.1-1.3,4.1-3.2s-1.5-3.1-4.1-3.1
			h-1.7v-1.6h1.6c2.3,0,3.8-1.4,3.8-3.1c0-1.7-1.3-3-3.7-3c-2.3,0-3.7,1.4-4,3.2l-1.7-0.4c0.3-2.4,2.5-4.4,5.7-4.4
			c3.7,0,5.5,2.3,5.5,4.5c0,1.9-1.1,3.2-2.7,3.9v0c1.9,0.5,3.1,2.1,3.1,4C889.6,360.8,887.3,363,883.8,363z"/>
		<path class="st3" d="M892.2,358.2c0-1.8,1.3-3.4,3.5-4.1c-2.1-0.6-3.1-2.4-3.1-3.9c0-2.9,3.1-4.5,5.5-4.5c2.6,0,5.6,1.5,5.6,4.5
			c0,1.6-1.1,3.3-3.2,3.9c2.3,0.7,3.5,2.3,3.5,4.1c0,3.1-3,4.8-6,4.8C895.3,363,892.2,361.5,892.2,358.2z M902.3,358.2
			c0-2.2-2.3-3.3-4.2-3.3c-1.8,0-4.2,1-4.2,3.2c0,2.3,2.3,3.2,4.2,3.2C899.9,361.4,902.3,360.5,902.3,358.2z M894.4,350.3
			c0,2.1,2.3,3.1,3.8,3.1c1.4,0,3.8-1,3.8-3.1c0-2-2.2-3-3.8-3C896.6,347.3,894.4,348.3,894.4,350.3z"/>
		<path class="st3" d="M908.1,355.1c-1.2,0-2.2-1-2.2-2.2c0-1.2,1-2.2,2.2-2.2c1.2,0,2.2,1,2.2,2.2
			C910.4,354.1,909.4,355.1,908.1,355.1z M908.1,351.5c-0.8,0-1.4,0.6-1.4,1.4c0,0.8,0.6,1.4,1.4,1.4c0.8,0,1.4-0.6,1.4-1.4
			C909.5,352.1,908.9,351.5,908.1,351.5z M913.6,350.7h1l-6.4,9.9h-1L913.6,350.7z M913.6,360.7c-1.2,0-2.2-1-2.2-2.2
			c0-1.2,1-2.2,2.2-2.2c1.2,0,2.2,1,2.2,2.2C915.8,359.7,914.8,360.7,913.6,360.7z M913.6,357.1c-0.8,0-1.4,0.6-1.4,1.4
			c0,0.8,0.6,1.4,1.4,1.4c0.8,0,1.4-0.6,1.4-1.4C915,357.7,914.4,357.1,913.6,357.1z"/>
	</g>
	<g class="st2">
		<rect x="367.1" y="553.3" width="76.1" height="45.9"/>
	</g>
	<g>
		<path class="st3" d="M381.9,530.2c0-1.8,1.3-3.4,3.5-4.1c-2.1-0.6-3.1-2.4-3.1-3.9c0-2.9,3.1-4.5,5.5-4.5c2.6,0,5.6,1.5,5.6,4.5
			c0,1.6-1.1,3.3-3.2,3.9c2.3,0.7,3.6,2.3,3.6,4.1c0,3.1-3,4.8-6,4.8C385,535,381.9,533.5,381.9,530.2z M392,530.2
			c0-2.2-2.3-3.3-4.2-3.3c-1.8,0-4.2,1-4.2,3.2c0,2.3,2.3,3.2,4.2,3.2C389.6,533.4,392,532.5,392,530.2z M384.1,522.3
			c0,2.1,2.3,3.1,3.8,3.1c1.4,0,3.8-1,3.8-3.1c0-2-2.2-3-3.8-3C386.3,519.4,384.1,520.3,384.1,522.3z"/>
		<path class="st3" d="M397.8,527.1c-1.2,0-2.2-1-2.2-2.2c0-1.2,1-2.2,2.2-2.2c1.2,0,2.2,1,2.2,2.2
			C400.1,526.1,399.1,527.1,397.8,527.1z M397.8,523.5c-0.8,0-1.4,0.6-1.4,1.4c0,0.8,0.6,1.4,1.4,1.4c0.8,0,1.4-0.6,1.4-1.4
			C399.2,524.1,398.6,523.5,397.8,523.5z M403.3,522.7h1l-6.4,9.9h-1L403.3,522.7z M403.3,532.7c-1.2,0-2.2-1-2.2-2.2
			c0-1.2,1-2.2,2.2-2.2c1.2,0,2.2,1,2.2,2.2C405.5,531.7,404.5,532.7,403.3,532.7z M403.3,529.1c-0.8,0-1.4,0.6-1.4,1.4
			c0,0.8,0.6,1.4,1.4,1.4s1.4-0.6,1.4-1.4C404.7,529.7,404.1,529.1,403.3,529.1z"/>
	</g>
	<g class="st2">
		<rect x="367.1" y="830.8" width="76.1" height="172"/>
	</g>
	<g>
		<path class="st3" d="M387.5,812.5c-3,0-5.5-1.8-5.8-4.6l1.7-0.4c0.3,1.9,1.8,3.4,4.1,3.4c2.3,0,4.1-1.3,4.1-3.2s-1.4-3.1-4.1-3.1
			h-1.7v-1.6h1.6c2.3,0,3.8-1.4,3.8-3.1c0-1.7-1.3-3-3.7-3c-2.3,0-3.7,1.4-4,3.2l-1.7-0.4c0.3-2.4,2.5-4.4,5.7-4.4
			c3.7,0,5.5,2.3,5.5,4.5c0,1.9-1.1,3.2-2.7,3.9v0c1.9,0.5,3.1,2.1,3.1,4C393.4,810.3,391,812.5,387.5,812.5z"/>
		<path class="st3" d="M395.9,804c0-4.2,2.4-8.7,7.1-8.7c4.7,0,7,4.4,7,8.6c0,4.2-2.4,8.7-7.1,8.7
			C398.2,812.5,395.9,808.2,395.9,804z M397.7,803.9c0,3.1,1.5,7.1,5.2,7.1c3.7,0,5.2-3.9,5.2-7s-1.6-7.1-5.2-7.1
			S397.7,800.8,397.7,803.9z"/>
		<path class="st3" d="M414,804.6c-1.2,0-2.2-1-2.2-2.2c0-1.2,1-2.2,2.2-2.2c1.2,0,2.2,1,2.2,2.2C416.2,803.6,415.2,804.6,414,804.6
			z M414,801c-0.8,0-1.4,0.6-1.4,1.4c0,0.8,0.6,1.4,1.4,1.4c0.8,0,1.4-0.6,1.4-1.4C415.4,801.6,414.7,801,414,801z M419.4,800.2h1
			l-6.4,9.9h-1L419.4,800.2z M419.4,810.2c-1.2,0-2.2-1-2.2-2.2c0-1.2,1-2.2,2.2-2.2c1.2,0,2.2,1,2.2,2.2
			C421.7,809.2,420.7,810.2,419.4,810.2z M419.4,806.6c-0.8,0-1.4,0.6-1.4,1.4c0,0.8,0.6,1.4,1.4,1.4s1.4-0.6,1.4-1.4
			C420.8,807.2,420.2,806.6,419.4,806.6z"/>
	</g>
	<g>
		<g>
			<path d="M421.9,233.4l-1.6,3.8h-1.6l6.4-14.8h1.8l6.4,14.8h-1.6l-1.6-3.8H421.9z M422.4,232h6.9l-3.4-8L422.4,232z"/>
			<path d="M437.4,221.8v15.4h-1.5v-15.4H437.4z"/>
			<path d="M443.1,221.8v15.4h-1.5v-15.4H443.1z"/>
			<path d="M459,237.4c-1.9,0-3.1-0.9-3.9-2.3v2.1h-1.5v-15.4h1.5v7.5c0.8-1.3,2-2.3,3.9-2.3c2.9,0,4.8,2.6,4.8,5.2
				C463.8,234.9,461.9,237.4,459,237.4z M462.3,232.2c0-2.1-1.3-3.9-3.5-3.9c-2.1,0-3.6,1.9-3.6,3.9c0,2.1,1.5,3.9,3.6,3.9
				C461,236.1,462.3,234.3,462.3,232.2z"/>
			<path d="M468.7,233c0,1.8,0.9,3.1,2.8,3.1c1.8,0,3-1.4,3-3.2v-5.8h1.5v10.1h-1.4v-1.9c-0.8,1.4-2,2-3.5,2c-2.5,0-3.8-1.7-3.8-4.1
				v-6.3h1.5V233z"/>
			<path d="M483.3,237.4c-2.7,0-3.7-1.9-3.8-3l1.4-0.3c0.2,0.9,0.9,2,2.5,2c1.1,0,2.1-0.6,2.1-1.6c0-1.2-1.3-1.5-2.4-1.7
				c-1.7-0.2-3.3-0.9-3.3-2.8c0-1.9,1.7-3,3.4-3c2.7,0,3.5,1.8,3.7,2.7l-1.3,0.3c-0.2-0.7-0.7-1.8-2.3-1.8c-1.1,0-1.9,0.7-1.9,1.6
				c0,1.3,1.4,1.5,2.4,1.6c1.6,0.2,3.3,1.1,3.3,2.9C486.9,236.2,485.3,237.4,483.3,237.4z"/>
			<path d="M491.2,222.4c0.6,0,1.1,0.5,1.1,1.1c0,0.6-0.5,1.1-1.1,1.1c-0.6,0-1.1-0.5-1.1-1.1C490.1,222.9,490.6,222.4,491.2,222.4z
				 M492,227.1v10.1h-1.5v-10.1H492z"/>
			<path d="M503.5,231.3c0-1.8-0.9-3.1-2.8-3.1c-1.8,0-3,1.4-3,3.2v5.8h-1.5v-10.1h1.5v1.9c0.8-1.4,2-2,3.5-2c2.5,0,3.8,1.7,3.8,4.1
				v6.3h-1.5V231.3z"/>
			<path d="M509.9,232.6c0.1,2,1.6,3.5,3.6,3.5c1.5,0,2.7-0.7,3.1-2.2l1.3,0.4c-0.6,2-2.4,3-4.4,3c-2.9,0-5.1-2.3-5.1-5.2
				c0-2.7,2.1-5.2,4.9-5.2c3.1,0,4.8,2.2,4.8,5.2c0,0.2,0,0.3,0,0.5H509.9z M516.6,231.4c-0.2-1.8-1.3-3.1-3.3-3.1
				c-1.8,0-3.2,1.5-3.4,3.1H516.6z"/>
			<path d="M524.7,237.4c-2.7,0-3.7-1.9-3.8-3l1.4-0.3c0.2,0.9,0.9,2,2.5,2c1.1,0,2.1-0.6,2.1-1.6c0-1.2-1.3-1.5-2.4-1.7
				c-1.7-0.2-3.3-0.9-3.3-2.8c0-1.9,1.7-3,3.4-3c2.7,0,3.5,1.8,3.7,2.7l-1.3,0.3c-0.2-0.7-0.7-1.8-2.3-1.8c-1.1,0-1.9,0.7-1.9,1.6
				c0,1.3,1.4,1.5,2.4,1.6c1.6,0.2,3.3,1.1,3.3,2.9C528.3,236.2,526.6,237.4,524.7,237.4z"/>
			<path d="M534.9,237.4c-2.7,0-3.7-1.9-3.8-3l1.4-0.3c0.2,0.9,0.9,2,2.5,2c1.1,0,2.1-0.6,2.1-1.6c0-1.2-1.3-1.5-2.4-1.7
				c-1.7-0.2-3.3-0.9-3.3-2.8c0-1.9,1.7-3,3.4-3c2.7,0,3.5,1.8,3.7,2.7L537,230c-0.2-0.7-0.7-1.8-2.3-1.8c-1.1,0-1.9,0.7-1.9,1.6
				c0,1.3,1.4,1.5,2.4,1.6c1.6,0.2,3.3,1.1,3.3,2.9C538.5,236.2,536.9,237.4,534.9,237.4z"/>
			<path d="M551.4,237.4c-2.7,0-3.7-1.9-3.8-3l1.4-0.3c0.2,0.9,0.9,2,2.5,2c1.1,0,2.1-0.6,2.1-1.6c0-1.2-1.3-1.5-2.4-1.7
				c-1.7-0.2-3.3-0.9-3.3-2.8c0-1.9,1.7-3,3.4-3c2.7,0,3.5,1.8,3.7,2.7l-1.3,0.3c-0.2-0.7-0.7-1.8-2.3-1.8c-1.1,0-1.9,0.7-1.9,1.6
				c0,1.3,1.4,1.5,2.4,1.6c1.6,0.2,3.3,1.1,3.3,2.9C555,236.2,553.4,237.4,551.4,237.4z"/>
			<path d="M559.3,222.4c0.6,0,1.1,0.5,1.1,1.1c0,0.6-0.5,1.1-1.1,1.1c-0.6,0-1.1-0.5-1.1-1.1C558.2,222.9,558.7,222.4,559.3,222.4z
				 M560.1,227.1v10.1h-1.5v-10.1H560.1z"/>
			<path d="M571.5,237.2h-8.1V236l6.3-7.6h-6.2v-1.3h7.9v1.3l-6.3,7.6h6.3V237.2z"/>
			<path d="M575.6,232.6c0.1,2,1.6,3.5,3.6,3.5c1.5,0,2.7-0.7,3.1-2.2l1.3,0.4c-0.6,2-2.4,3-4.4,3c-2.9,0-5.1-2.3-5.1-5.2
				c0-2.7,2.1-5.2,4.9-5.2c3.1,0,4.8,2.2,4.8,5.2c0,0.2,0,0.3,0,0.5H575.6z M582.3,231.4c-0.2-1.8-1.3-3.1-3.3-3.1
				c-1.8,0-3.2,1.5-3.4,3.1H582.3z"/>
			<path d="M590.3,237.4c-2.7,0-3.7-1.9-3.8-3l1.4-0.3c0.2,0.9,0.9,2,2.5,2c1.1,0,2.1-0.6,2.1-1.6c0-1.2-1.3-1.5-2.4-1.7
				c-1.7-0.2-3.3-0.9-3.3-2.8c0-1.9,1.7-3,3.4-3c2.7,0,3.5,1.8,3.7,2.7l-1.3,0.3c-0.2-0.7-0.7-1.8-2.3-1.8c-1.1,0-1.9,0.7-1.9,1.6
				c0,1.3,1.4,1.5,2.4,1.6c1.6,0.2,3.3,1.1,3.3,2.9C593.9,236.2,592.3,237.4,590.3,237.4z"/>
		</g>
	</g>
	<g class="st2">
		<circle cx="385.1" cy="232.2" r="18"/>
	</g>
	<circle class="st4" cx="385.1" cy="284.5" r="18"/>
	<g>
		<g>
			<path d="M419.5,285.5l1.5-0.4c0.3,1.7,2,3.1,3.8,3.1c1.7,0,3.3-0.9,3.3-2.7c0-1.8-1.6-2.4-2.7-2.6l-2-0.4
				c-0.7-0.1-1.7-0.5-2.5-1.3c-0.6-0.6-1-1.4-1-2.6c0-2.5,2.2-4.1,4.7-4.1c3.2,0,4.6,2,4.9,3.6l-1.4,0.4c-0.3-1-1.2-2.6-3.5-2.6
				c-1.6,0-3.1,1-3.1,2.6c0,1.1,0.7,2,2.2,2.3l1.9,0.4c1,0.2,2,0.5,2.9,1.3c1,0.9,1.3,2.1,1.3,2.7c0,2.7-2.1,4.4-4.9,4.4
				C421.8,289.7,419.7,287.6,419.5,285.5z"/>
			<path d="M440.2,283.6c0-1.7-0.8-3-2.6-3c-1.8,0-2.8,1.6-2.8,3.2v5.8h-1.5v-10.1h1.5v1.8c0.8-1.2,1.7-2,3.3-2c1.5,0,2.6,0.7,3.2,2
				c0.9-1.3,2-2,3.6-2c2.4,0,3.7,1.7,3.7,4v6.3h-1.5v-5.9c0-1.7-0.8-3-2.6-3c-1.8,0-2.8,1.4-2.8,3.1v5.8h-1.5V283.6z"/>
			<path d="M458.8,283c0-1.6-0.9-2.5-2.6-2.5c-1.7,0-2.5,1.1-2.7,2.1l-1.4-0.3c0.1-0.9,1.2-3.1,4.1-3.1c2.1,0,3.2,1,3.7,2.1
				c0.2,0.5,0.3,1.3,0.3,1.7v6.5h-1.4v-1.8h0c-0.8,1.2-1.9,2-3.4,2c-2,0-3.4-1.3-3.4-3v-0.1c0-2.2,2.2-2.9,4-2.9h2.8V283z
				 M456,284.9c-1.1,0-2.5,0.3-2.5,1.7c0,1.1,1,1.8,2.2,1.8c1.8,0,3.1-1.3,3.1-3.1v-0.4H456z"/>
			<path d="M465.9,274.1v15.4h-1.5v-15.4H465.9z"/>
			<path d="M471.7,274.1v15.4h-1.5v-15.4H471.7z"/>
		</g>
	</g>
	<g class="st5">
		<circle class="st6" cx="634.8" cy="232.2" r="18"/>
	</g>
	<g>
		<g>
			<path d="M685.8,237.2h-1.5v-12.7h0l-5.5,12.7h-1.4l-5.5-12.6v12.6h-1.5v-14.8h2.2l5.6,12.7l5.5-12.7h2.2V237.2z"/>
			<path d="M691.3,232.6c0.1,2,1.6,3.5,3.6,3.5c1.5,0,2.7-0.7,3.1-2.2l1.3,0.4c-0.6,2-2.4,3-4.4,3c-2.9,0-5.1-2.3-5.1-5.2
				c0-2.7,2.1-5.2,4.9-5.2c3.1,0,4.8,2.2,4.8,5.2c0,0.2,0,0.3,0,0.5H691.3z M698,231.4c-0.2-1.8-1.3-3.1-3.3-3.1
				c-1.8,0-3.2,1.5-3.4,3.1H698z"/>
			<path d="M707,226.9c2,0,3.1,1.1,3.9,2.3v-7.4h1.5v15.4h-1.4v-2.2c-0.8,1.3-2,2.3-3.9,2.3c-2.9,0-4.7-2.5-4.7-5.2
				C702.2,229.5,704.1,226.9,707,226.9z M710.9,232.1c0-2-1.5-3.9-3.6-3.9c-2.2,0-3.5,1.8-3.5,3.9c0,2.1,1.3,3.9,3.5,3.9
				C709.4,236.1,710.9,234.2,710.9,232.1z"/>
			<path d="M717.4,222.4c0.6,0,1.1,0.5,1.1,1.1c0,0.6-0.5,1.1-1.1,1.1c-0.6,0-1.1-0.5-1.1-1.1C716.3,222.9,716.8,222.4,717.4,222.4z
				 M718.1,227.1v10.1h-1.5v-10.1H718.1z"/>
			<path d="M723.7,233c0,1.8,0.9,3.1,2.8,3.1c1.8,0,3-1.4,3-3.2v-5.8h1.5v10.1h-1.4v-1.9c-0.8,1.4-2,2-3.5,2c-2.5,0-3.8-1.7-3.8-4.1
				v-6.3h1.5V233z"/>
			<path d="M742.2,231.3c0-1.7-0.8-3-2.6-3c-1.8,0-2.8,1.6-2.8,3.2v5.8h-1.5v-10.1h1.5v1.8c0.8-1.2,1.7-2,3.3-2c1.5,0,2.6,0.7,3.2,2
				c0.9-1.3,2-2,3.6-2c2.4,0,3.7,1.7,3.7,4v6.3h-1.5v-5.9c0-1.7-0.8-3-2.6-3c-1.8,0-2.8,1.4-2.8,3.1v5.8h-1.5V231.3z"/>
		</g>
	</g>
	<g>
		<g>
			<path d="M671.9,274.7v13.4h7v1.5h-8.6v-14.8H671.9z"/>
			<path d="M688,283c0-1.6-0.9-2.5-2.6-2.5c-1.7,0-2.5,1.1-2.7,2.1l-1.4-0.3c0.1-0.9,1.2-3.1,4.1-3.1c2.1,0,3.2,1,3.7,2.1
				c0.2,0.5,0.3,1.3,0.3,1.7v6.5h-1.4v-1.8h0c-0.8,1.2-1.9,2-3.4,2c-2,0-3.4-1.3-3.4-3v-0.1c0-2.2,2.2-2.9,4-2.9h2.8V283z
				 M685.2,284.9c-1.1,0-2.5,0.3-2.5,1.7c0,1.1,1,1.8,2.2,1.8c1.8,0,3.1-1.3,3.1-3.1v-0.4H685.2z"/>
			<path d="M695.1,281.4c0.8-1.6,2.1-2.2,3.3-2.2c0.1,0,0.4,0,0.5,0v1.6c-0.2,0-0.4,0-0.6,0c-2.4,0-3.2,2-3.2,3.8v4.9h-1.5v-10.1
				h1.5V281.4z"/>
			<path d="M709.4,287.3c-0.8,1.3-2,2.3-3.9,2.3c-2.9,0-4.7-2.4-4.7-5.2c0-2.6,1.9-5.2,4.7-5.2c2,0,3.1,1.1,3.9,2.3v-2.1h1.5v10.2
				c0,3.3-2,5-5.1,5c-2.6,0-4.5-1.3-5-3.5l1.4-0.5c0.3,1.2,1.3,2.6,3.6,2.6c2,0,3.6-1,3.6-3.7V287.3z M709.4,284.4
				c0-2-1.5-3.8-3.6-3.8c-2.2,0-3.5,1.7-3.5,3.9c0,2.1,1.3,3.8,3.5,3.8C707.9,288.3,709.4,286.5,709.4,284.4z"/>
			<path d="M715.9,284.9c0.1,2,1.6,3.5,3.6,3.5c1.5,0,2.7-0.7,3.1-2.2l1.3,0.4c-0.6,2-2.4,3-4.4,3c-2.9,0-5.1-2.3-5.1-5.2
				c0-2.7,2.1-5.2,4.9-5.2c3.1,0,4.8,2.2,4.8,5.2c0,0.2,0,0.3,0,0.5H715.9z M722.6,283.7c-0.2-1.8-1.3-3.1-3.3-3.1
				c-1.8,0-3.2,1.5-3.4,3.1H722.6z"/>
		</g>
	</g>
	<g>
		<circle class="st1" cx="634.8" cy="284.5" r="18"/>
	</g>
	<g>
		<g>
			<path d="M333,595.5h13.4v-7h1.5v8.6H333V595.5z"/>
			<path d="M343.3,584.6c2-0.1,3.5-1.6,3.5-3.6c0-1.5-0.7-2.7-2.2-3.1l0.4-1.3c2,0.6,3,2.4,3,4.4c0,2.9-2.3,5.1-5.2,5.1
				c-2.7,0-5.2-2.1-5.2-4.9c0-3.1,2.2-4.8,5.2-4.8c0.2,0,0.3,0,0.5,0V584.6z M342,577.9c-1.8,0.2-3.1,1.3-3.1,3.3
				c0,1.8,1.5,3.2,3.1,3.4V577.9z"/>
			<path d="M348,569.4c0,2.7-1.9,3.7-3,3.8l-0.3-1.4c0.9-0.2,2-0.9,2-2.5c0-1.1-0.6-2.1-1.6-2.1c-1.2,0-1.5,1.3-1.7,2.4
				c-0.2,1.7-0.9,3.3-2.8,3.3c-1.9,0-3-1.7-3-3.4c0-2.7,1.8-3.5,2.7-3.7l0.3,1.3c-0.7,0.2-1.8,0.7-1.8,2.3c0,1.1,0.7,1.9,1.6,1.9
				c1.3,0,1.5-1.4,1.6-2.4c0.2-1.6,1.1-3.3,2.9-3.3C346.8,565.9,348,567.5,348,569.4z"/>
			<path d="M348,558.8c0,2.7-1.9,3.7-3,3.8l-0.3-1.4c0.9-0.2,2-0.9,2-2.5c0-1.1-0.6-2.1-1.6-2.1c-1.2,0-1.5,1.3-1.7,2.4
				c-0.2,1.7-0.9,3.3-2.8,3.3c-1.9,0-3-1.7-3-3.4c0-2.7,1.8-3.5,2.7-3.7l0.3,1.3c-0.7,0.2-1.8,0.7-1.8,2.3c0,1.1,0.7,1.9,1.6,1.9
				c1.3,0,1.5-1.4,1.6-2.4c0.2-1.6,1.1-3.3,2.9-3.3C346.8,555.2,348,556.9,348,558.8z"/>
			<path d="M345.3,544h-6.2v1.9h-1.3V544h-2.9v-1.5h2.9V540h1.3v2.6h6.2c0.9,0,1.4-0.5,1.4-1.6c0-0.3,0-0.7-0.1-0.9h1.2
				c0.1,0.3,0.2,0.9,0.2,1.2C347.9,543.3,346.7,544,345.3,544z"/>
			<path d="M342,528.9c-1.8,0-3.1,0.9-3.1,2.8c0,1.8,1.4,3,3.2,3h5.8v1.5h-15.4v-1.5h7.1c-1.3-0.8-2-2-2-3.5c0-2.5,1.7-3.8,4.1-3.8
				h6.3v1.5H342z"/>
			<path d="M341.4,516.8c-1.6,0-2.5,0.9-2.5,2.6c0,1.7,1.1,2.5,2.1,2.7l-0.3,1.4c-0.9-0.1-3.1-1.2-3.1-4.1c0-2.1,1-3.2,2.1-3.7
				c0.5-0.2,1.3-0.3,1.7-0.3h6.5v1.4h-1.8v0c1.2,0.8,2,1.9,2,3.4c0,2-1.3,3.4-3,3.4H345c-2.2,0-2.9-2.2-2.9-4v-2.8H341.4z
				 M343.2,519.6c0,1.1,0.3,2.5,1.7,2.5c1.1,0,1.8-1,1.8-2.2c0-1.8-1.3-3.1-3.1-3.1h-0.4V519.6z"/>
			<path d="M342,503.5c-1.8,0-3.1,0.9-3.1,2.8c0,1.8,1.4,3,3.2,3h5.8v1.5h-10.1v-1.5h1.9c-1.4-0.8-2-2-2-3.5c0-2.5,1.7-3.8,4.1-3.8
				h6.3v1.5H342z"/>
			<path d="M334.7,488l2.1,3.6l-1.2,0.7L333,488v-1.5h14.8v1.6H334.7z"/>
			<path d="M342,467.5c-1.8,0-3.1,0.9-3.1,2.8c0,1.8,1.4,3,3.2,3h5.8v1.5h-15.4v-1.5h7.1c-1.3-0.8-2-2-2-3.5c0-2.5,1.7-3.8,4.1-3.8
				h6.3v1.5H342z"/>
			<path d="M342.8,462.3c-3,0-5.3-2.3-5.3-5.2c0-2.9,2.3-5.2,5.2-5.2c3,0,5.3,2.3,5.3,5.2C348,460,345.7,462.3,342.8,462.3z
				 M342.8,453.3c-2.1,0-4,1.5-4,3.7c0,2.2,1.8,3.7,3.9,3.7c2.1,0,4-1.5,4-3.7C346.7,454.9,345,453.3,342.8,453.3z"/>
			<path d="M343.6,446.6c1.8,0,3.1-0.9,3.1-2.8c0-1.8-1.4-3-3.2-3h-5.8v-1.5h10.1v1.4H346c1.4,0.8,2,2,2,3.5c0,2.5-1.7,3.8-4.1,3.8
				h-6.3v-1.5H343.6z"/>
			<path d="M339.8,433.2c-1.6-0.8-2.2-2.1-2.2-3.3c0-0.1,0-0.4,0-0.5h1.6c0,0.2,0,0.4,0,0.6c0,2.4,2,3.2,3.8,3.2h4.9v1.5h-10.1v-1.5
				H339.8z"/>
		</g>
	</g>
	<rect x="443.1" y="547.5" class="st4" width="76.1" height="51.6"/>
	<g>
		<path class="st4" d="M468.2,520.7c-1.1,1.8-3.4,2.6-4.8,2.6c-3.6,0-5.6-2.7-5.6-5.5c0-3.9,3-5.8,6-5.8c1.9,0,4,1.1,5,2.9
			c0.8,1.5,1.1,2.8,1.1,4.8c0,5.5-2.7,9.7-7.9,9.7c-0.9,0-2.8-0.3-3.9-1l0.6-1.6c1.1,0.7,2.5,0.9,3.2,0.9
			C465.8,527.6,467.9,524.6,468.2,520.7z M466.6,520.7c0.8-0.7,1.3-1.8,1.3-3c0-2.5-2.1-4-4.2-4c-2.1,0-4.2,1.4-4.2,4.1
			c0,2.1,1.5,4,4.1,4C464.7,521.7,465.8,521.3,466.6,520.7z"/>
		<path class="st4" d="M474,521.3c-1.2,0-2.2-1-2.2-2.2c0-1.2,1-2.2,2.2-2.2c1.2,0,2.2,1,2.2,2.2C476.2,520.3,475.2,521.3,474,521.3
			z M474,517.7c-0.8,0-1.4,0.6-1.4,1.4c0,0.8,0.6,1.4,1.4,1.4s1.4-0.6,1.4-1.4C475.4,518.3,474.7,517.7,474,517.7z M479.4,517h1
			l-6.4,9.9h-1L479.4,517z M479.4,526.9c-1.2,0-2.2-1-2.2-2.2c0-1.2,1-2.2,2.2-2.2s2.2,1,2.2,2.2
			C481.7,525.9,480.7,526.9,479.4,526.9z M479.4,523.3c-0.8,0-1.4,0.6-1.4,1.4c0,0.8,0.6,1.4,1.4,1.4s1.4-0.6,1.4-1.4
			C480.8,523.9,480.2,523.3,479.4,523.3z"/>
	</g>
	<g>
		<path d="M534,530.2c0-1.8,1.3-3.4,3.5-4.1c-2.1-0.6-3.1-2.4-3.1-3.9c0-2.9,3.1-4.5,5.5-4.5c2.6,0,5.6,1.5,5.6,4.5
			c0,1.6-1.1,3.3-3.2,3.9c2.3,0.7,3.6,2.3,3.6,4.1c0,3.1-3,4.8-6,4.8C537.1,535,534,533.5,534,530.2z M544.1,530.2
			c0-2.2-2.3-3.3-4.2-3.3c-1.8,0-4.2,1-4.2,3.2c0,2.3,2.3,3.2,4.2,3.2C541.8,533.4,544.1,532.5,544.1,530.2z M536.2,522.3
			c0,2.1,2.3,3.1,3.8,3.1c1.4,0,3.8-1,3.8-3.1c0-2-2.2-3-3.8-3C538.4,519.4,536.2,520.3,536.2,522.3z"/>
		<path d="M549.9,527.1c-1.2,0-2.2-1-2.2-2.2c0-1.2,1-2.2,2.2-2.2c1.2,0,2.2,1,2.2,2.2C552.2,526.1,551.2,527.1,549.9,527.1z
			 M549.9,523.5c-0.8,0-1.4,0.6-1.4,1.4c0,0.8,0.6,1.4,1.4,1.4s1.4-0.6,1.4-1.4C551.3,524.1,550.7,523.5,549.9,523.5z M555.4,522.7
			h1l-6.4,9.9h-1L555.4,522.7z M555.4,532.7c-1.2,0-2.2-1-2.2-2.2c0-1.2,1-2.2,2.2-2.2c1.2,0,2.2,1,2.2,2.2
			C557.7,531.7,556.7,532.7,555.4,532.7z M555.4,529.1c-0.8,0-1.4,0.6-1.4,1.4c0,0.8,0.6,1.4,1.4,1.4c0.8,0,1.4-0.6,1.4-1.4
			C556.8,529.7,556.2,529.1,555.4,529.1z"/>
	</g>
	<g>
		<path class="st1" d="M610,530.2c0-1.8,1.3-3.4,3.5-4.1c-2.1-0.6-3.1-2.4-3.1-3.9c0-2.9,3.1-4.5,5.5-4.5c2.6,0,5.6,1.5,5.6,4.5
			c0,1.6-1.1,3.3-3.2,3.9c2.3,0.7,3.5,2.3,3.5,4.1c0,3.1-3,4.8-6,4.8C613.1,535,610,533.5,610,530.2z M620.2,530.2
			c0-2.2-2.3-3.3-4.2-3.3c-1.8,0-4.2,1-4.2,3.2c0,2.3,2.3,3.2,4.2,3.2C617.8,533.4,620.2,532.5,620.2,530.2z M612.2,522.3
			c0,2.1,2.3,3.1,3.8,3.1c1.5,0,3.8-1,3.8-3.1c0-2-2.2-3-3.8-3C614.4,519.4,612.2,520.3,612.2,522.3z"/>
		<path class="st1" d="M626,527.1c-1.2,0-2.2-1-2.2-2.2c0-1.2,1-2.2,2.2-2.2c1.2,0,2.2,1,2.2,2.2C628.2,526.1,627.2,527.1,626,527.1
			z M626,523.5c-0.8,0-1.4,0.6-1.4,1.4c0,0.8,0.6,1.4,1.4,1.4c0.8,0,1.4-0.6,1.4-1.4C627.4,524.1,626.7,523.5,626,523.5z
			 M631.4,522.7h1l-6.4,9.9h-1L631.4,522.7z M631.4,532.7c-1.2,0-2.2-1-2.2-2.2c0-1.2,1-2.2,2.2-2.2c1.2,0,2.2,1,2.2,2.2
			C633.7,531.7,632.7,532.7,631.4,532.7z M631.4,529.1c-0.8,0-1.4,0.6-1.4,1.4c0,0.8,0.6,1.4,1.4,1.4c0.8,0,1.4-0.6,1.4-1.4
			C632.8,529.7,632.2,529.1,631.4,529.1z"/>
	</g>
	<g>
		<rect x="519.2" y="553.3" width="76.1" height="45.9"/>
	</g>
	<g>
		<rect x="595.2" y="553.3" class="st1" width="76.1" height="45.9"/>
	</g>
	<rect x="939.4" y="438.6" class="st4" width="76.1" height="160.5"/>
	<g>
		<path class="st4" d="M954.1,419.7c0-2,0.9-4.1,3.9-6l2.6-1.6c1.6-1,3-2,3-4c0-1.7-1.5-3.4-3.7-3.4c-1.9,0-3,1.1-3.5,2.2
			c-0.3,0.7-0.3,1.4-0.3,1.7l-1.8-0.3c0-2.4,2-5.2,5.6-5.2c3.1,0,5.5,2.4,5.5,5c0,2.4-1.3,3.8-3.6,5.2l-2.7,1.7
			c-1.5,0.9-2.8,2.1-2.9,3.6h9.3v1.6h-11.4V419.7z"/>
		<path class="st4" d="M968,415.6c0-1.8,1.3-3.4,3.5-4.1c-2.1-0.6-3.1-2.4-3.1-3.9c0-2.9,3.1-4.5,5.5-4.5c2.6,0,5.6,1.5,5.6,4.5
			c0,1.6-1.1,3.3-3.2,3.9c2.3,0.7,3.5,2.3,3.5,4.1c0,3.1-3,4.8-6,4.8C971.1,420.4,968,418.8,968,415.6z M978.2,415.6
			c0-2.2-2.3-3.3-4.2-3.3c-1.8,0-4.2,1-4.2,3.2c0,2.3,2.3,3.2,4.2,3.2C975.8,418.8,978.2,417.8,978.2,415.6z M970.2,407.6
			c0,2.1,2.3,3.1,3.8,3.1c1.5,0,3.8-1,3.8-3.1c0-2-2.2-3-3.8-3C972.4,404.7,970.2,405.7,970.2,407.6z"/>
		<path class="st4" d="M984,412.4c-1.2,0-2.2-1-2.2-2.2c0-1.2,1-2.2,2.2-2.2c1.2,0,2.2,1,2.2,2.2C986.2,411.4,985.2,412.4,984,412.4
			z M984,408.8c-0.8,0-1.4,0.6-1.4,1.4c0,0.8,0.6,1.4,1.4,1.4c0.8,0,1.4-0.6,1.4-1.4C985.4,409.4,984.7,408.8,984,408.8z
			 M989.4,408.1h1l-6.4,9.9h-1L989.4,408.1z M989.4,418c-1.2,0-2.2-1-2.2-2.2c0-1.2,1-2.2,2.2-2.2c1.2,0,2.2,1,2.2,2.2
			C991.7,417,990.7,418,989.4,418z M989.4,414.4c-0.8,0-1.4,0.6-1.4,1.4c0,0.8,0.6,1.4,1.4,1.4c0.8,0,1.4-0.6,1.4-1.4
			C990.8,415,990.2,414.4,989.4,414.4z"/>
	</g>
	<g>
		<rect x="1015.5" y="295.3" width="76.1" height="303.9"/>
	</g>
	<g>
		<path d="M1033.4,261.6l-1,5.8c1.1-1.1,2.9-1.3,3.7-1.3c3.2,0,5.6,2.1,5.6,5.5c0,3.7-3,5.5-5.9,5.5c-2.8,0-5.5-1.8-5.8-4.6l1.7-0.4
			c0.3,1.9,1.9,3.4,4.1,3.4c1.7,0,4.1-1.1,4.1-3.9s-2.1-3.9-4.1-3.9c-1.2,0-2.7,0.6-3.6,1.7l-1.6-0.6l1.4-8.7h8.9v1.7H1033.4z"/>
		<path d="M1049.6,277c-3,0-5.5-1.8-5.8-4.6l1.7-0.4c0.3,1.9,1.8,3.4,4.1,3.4c2.3,0,4.1-1.3,4.1-3.2c0-1.9-1.4-3.1-4.1-3.1h-1.7
			v-1.6h1.6c2.3,0,3.8-1.4,3.8-3.1c0-1.7-1.3-3-3.7-3c-2.3,0-3.7,1.4-4,3.2l-1.7-0.4c0.3-2.4,2.5-4.4,5.7-4.4c3.7,0,5.5,2.3,5.5,4.5
			c0,1.9-1.1,3.2-2.7,3.9v0c1.9,0.5,3.1,2.1,3.1,4C1055.5,274.8,1053.2,277,1049.6,277z"/>
		<path d="M1059.5,269.1c-1.2,0-2.2-1-2.2-2.2c0-1.2,1-2.2,2.2-2.2c1.2,0,2.2,1,2.2,2.2C1061.7,268.1,1060.7,269.1,1059.5,269.1z
			 M1059.5,265.5c-0.8,0-1.4,0.6-1.4,1.4c0,0.8,0.6,1.4,1.4,1.4c0.8,0,1.4-0.6,1.4-1.4C1060.9,266.1,1060.3,265.5,1059.5,265.5z
			 M1064.9,264.7h1l-6.4,9.9h-1L1064.9,264.7z M1065,274.7c-1.2,0-2.2-1-2.2-2.2c0-1.2,1-2.2,2.2-2.2c1.2,0,2.2,1,2.2,2.2
			C1067.2,273.7,1066.2,274.7,1065,274.7z M1065,271.1c-0.8,0-1.4,0.6-1.4,1.4c0,0.8,0.6,1.4,1.4,1.4c0.8,0,1.4-0.6,1.4-1.4
			C1066.4,271.7,1065.7,271.1,1065,271.1z"/>
	</g>
	<g>
		<g>
			<path d="M829.3,595.5h13.4v-7h1.5v8.6h-14.8V595.5z"/>
			<path d="M839.5,584.6c2-0.1,3.5-1.6,3.5-3.6c0-1.5-0.7-2.7-2.2-3.1l0.4-1.3c2,0.6,3,2.4,3,4.4c0,2.9-2.3,5.1-5.2,5.1
				c-2.7,0-5.2-2.1-5.2-4.9c0-3.1,2.2-4.8,5.2-4.8c0.2,0,0.3,0,0.5,0V584.6z M838.3,577.9c-1.8,0.2-3.1,1.3-3.1,3.3
				c0,1.8,1.5,3.2,3.1,3.4V577.9z"/>
			<path d="M844.3,569.4c0,2.7-1.9,3.7-3,3.8l-0.3-1.4c0.9-0.2,2-0.9,2-2.5c0-1.1-0.6-2.1-1.6-2.1c-1.2,0-1.5,1.3-1.7,2.4
				c-0.2,1.7-0.9,3.3-2.8,3.3c-1.9,0-3-1.7-3-3.4c0-2.7,1.8-3.5,2.7-3.7l0.3,1.3c-0.7,0.2-1.8,0.7-1.8,2.3c0,1.1,0.7,1.9,1.6,1.9
				c1.3,0,1.5-1.4,1.6-2.4c0.2-1.6,1.1-3.3,2.9-3.3C843.1,565.9,844.3,567.5,844.3,569.4z"/>
			<path d="M844.3,558.8c0,2.7-1.9,3.7-3,3.8l-0.3-1.4c0.9-0.2,2-0.9,2-2.5c0-1.1-0.6-2.1-1.6-2.1c-1.2,0-1.5,1.3-1.7,2.4
				c-0.2,1.7-0.9,3.3-2.8,3.3c-1.9,0-3-1.7-3-3.4c0-2.7,1.8-3.5,2.7-3.7l0.3,1.3c-0.7,0.2-1.8,0.7-1.8,2.3c0,1.1,0.7,1.9,1.6,1.9
				c1.3,0,1.5-1.4,1.6-2.4c0.2-1.6,1.1-3.3,2.9-3.3C843.1,555.2,844.3,556.9,844.3,558.8z"/>
			<path d="M841.5,544h-6.2v1.9H834V544h-2.9v-1.5h2.9V540h1.3v2.6h6.2c0.9,0,1.4-0.5,1.4-1.6c0-0.3,0-0.7-0.1-0.9h1.2
				c0.1,0.3,0.2,0.9,0.2,1.2C844.2,543.3,843,544,841.5,544z"/>
			<path d="M838.3,528.9c-1.8,0-3.1,0.9-3.1,2.8c0,1.8,1.4,3,3.2,3h5.8v1.5h-15.4v-1.5h7.1c-1.3-0.8-2-2-2-3.5
				c0-2.5,1.7-3.8,4.1-3.8h6.3v1.5H838.3z"/>
			<path d="M837.6,516.8c-1.6,0-2.5,0.9-2.5,2.6c0,1.7,1.1,2.5,2.1,2.7l-0.3,1.4c-0.9-0.1-3.1-1.2-3.1-4.1c0-2.1,1-3.2,2.1-3.7
				c0.5-0.2,1.3-0.3,1.7-0.3h6.5v1.4h-1.8v0c1.2,0.8,2,1.9,2,3.4c0,2-1.3,3.4-3,3.4h-0.1c-2.2,0-2.9-2.2-2.9-4v-2.8H837.6z
				 M839.5,519.6c0,1.1,0.3,2.5,1.7,2.5c1.1,0,1.8-1,1.8-2.2c0-1.8-1.3-3.1-3.1-3.1h-0.4V519.6z"/>
			<path d="M838.3,503.5c-1.8,0-3.1,0.9-3.1,2.8c0,1.8,1.4,3,3.2,3h5.8v1.5H834v-1.5h1.9c-1.4-0.8-2-2-2-3.5c0-2.5,1.7-3.8,4.1-3.8
				h6.3v1.5H838.3z"/>
			<path d="M831,488l2.1,3.6l-1.2,0.7l-2.6-4.3v-1.5h14.8v1.6H831z"/>
			<path d="M833.9,470.8c0-2,1.1-3.1,2.3-3.9h-7.4v-1.5h15.4v1.4H842c1.3,0.8,2.3,2,2.3,3.9c0,2.9-2.5,4.7-5.2,4.7
				C836.4,475.6,833.9,473.7,833.9,470.8z M839.1,466.9c-2,0-3.9,1.5-3.9,3.6c0,2.2,1.8,3.5,3.9,3.5c2.1,0,3.9-1.3,3.9-3.5
				C843,468.4,841.1,466.9,839.1,466.9z"/>
			<path d="M837.6,454.7c-1.6,0-2.5,0.9-2.5,2.6c0,1.7,1.1,2.5,2.1,2.7l-0.3,1.4c-0.9-0.1-3.1-1.2-3.1-4.1c0-2.1,1-3.2,2.1-3.7
				c0.5-0.2,1.3-0.3,1.7-0.3h6.5v1.4h-1.8v0c1.2,0.8,2,1.9,2,3.4c0,2-1.3,3.4-3,3.4h-0.1c-2.2,0-2.9-2.2-2.9-4v-2.8H837.6z
				 M839.5,457.5c0,1.1,0.3,2.5,1.7,2.5c1.1,0,1.8-1,1.8-2.2c0-1.8-1.3-3.1-3.1-3.1h-0.4V457.5z"/>
			<path d="M843.5,445.7l-9.4,4.6v-1.7l7.8-3.7l-7.8-3.5v-1.6l15.1,6.9v1.6L843.5,445.7z"/>
		</g>
	</g>
	<g>
		<rect x="1091.5" y="352.6" class="st1" width="76.1" height="246.5"/>
	</g>
	<g>
		<path class="st1" d="M1114.5,334.2v-4.1h-8.8v-1.9l8.3-10.9h2.2v11.3h2.8v1.5h-2.8v4.1H1114.5z M1114.5,328.6v-9.5l-7.2,9.5
			H1114.5z"/>
		<path class="st1" d="M1126.6,334.3c-3,0-5.5-1.8-5.8-4.6l1.7-0.4c0.3,1.9,1.8,3.4,4.1,3.4c2.3,0,4.1-1.3,4.1-3.2
			c0-1.9-1.4-3.1-4.1-3.1h-1.7v-1.6h1.6c2.3,0,3.8-1.4,3.8-3.1c0-1.7-1.3-3-3.7-3c-2.3,0-3.7,1.4-4,3.2l-1.7-0.4
			c0.3-2.4,2.5-4.4,5.7-4.4c3.7,0,5.5,2.3,5.5,4.5c0,1.9-1.1,3.2-2.7,3.9v0c1.9,0.5,3.1,2.1,3.1,4
			C1132.5,332.1,1130.2,334.3,1126.6,334.3z"/>
		<path class="st1" d="M1136.5,326.4c-1.2,0-2.2-1-2.2-2.2c0-1.2,1-2.2,2.2-2.2c1.2,0,2.2,1,2.2,2.2
			C1138.7,325.4,1137.7,326.4,1136.5,326.4z M1136.5,322.8c-0.8,0-1.4,0.6-1.4,1.4c0,0.8,0.6,1.4,1.4,1.4c0.8,0,1.4-0.6,1.4-1.4
			C1137.9,323.4,1137.3,322.8,1136.5,322.8z M1141.9,322.1h1l-6.4,9.9h-1L1141.9,322.1z M1142,332c-1.2,0-2.2-1-2.2-2.2
			c0-1.2,1-2.2,2.2-2.2c1.2,0,2.2,1,2.2,2.2C1144.2,331,1143.2,332,1142,332z M1142,328.4c-0.8,0-1.4,0.6-1.4,1.4
			c0,0.8,0.6,1.4,1.4,1.4c0.8,0,1.4-0.6,1.4-1.4C1143.4,329,1142.7,328.4,1142,328.4z"/>
	</g>
	<rect x="939.4" y="916.8" class="st4" width="76.1" height="86"/>
	<g>
		<path class="st4" d="M958,883.3l-4.1,2.4l-0.8-1.3l4.9-3h1.7v16.9H958V883.3z"/>
		<path class="st4" d="M966.5,883.1l-1,5.8c1.1-1.1,2.9-1.3,3.7-1.3c3.2,0,5.6,2.1,5.6,5.5c0,3.7-3,5.5-5.9,5.5
			c-2.8,0-5.5-1.8-5.8-4.6l1.7-0.4c0.3,1.9,1.9,3.4,4.1,3.4c1.7,0,4.1-1.1,4.1-3.9c0-2.8-2.1-3.9-4.1-3.9c-1.2,0-2.7,0.6-3.6,1.7
			l-1.6-0.6l1.5-8.7h8.9v1.7H966.5z"/>
		<path class="st4" d="M978.6,890.6c-1.2,0-2.2-1-2.2-2.2c0-1.2,1-2.2,2.2-2.2c1.2,0,2.2,1,2.2,2.2
			C980.9,889.6,979.9,890.6,978.6,890.6z M978.6,887c-0.8,0-1.4,0.6-1.4,1.4c0,0.8,0.6,1.4,1.4,1.4c0.8,0,1.4-0.6,1.4-1.4
			C980,887.6,979.4,887,978.6,887z M984.1,886.2h1l-6.4,9.9h-1L984.1,886.2z M984.1,896.2c-1.2,0-2.2-1-2.2-2.2c0-1.2,1-2.2,2.2-2.2
			c1.2,0,2.2,1,2.2,2.2C986.3,895.2,985.3,896.2,984.1,896.2z M984.1,892.6c-0.8,0-1.4,0.6-1.4,1.4c0,0.8,0.6,1.4,1.4,1.4
			c0.8,0,1.4-0.6,1.4-1.4C985.5,893.2,984.9,892.6,984.1,892.6z"/>
	</g>
	<g>
		<g>
			<path d="M829.3,999.2h13.4v-7h1.5v8.6h-14.8V999.2z"/>
			<path d="M839.5,988.2c2-0.1,3.5-1.6,3.5-3.6c0-1.5-0.7-2.7-2.2-3.1l0.4-1.3c2,0.6,3,2.4,3,4.4c0,2.9-2.3,5.1-5.2,5.1
				c-2.7,0-5.2-2.1-5.2-4.9c0-3.1,2.2-4.8,5.2-4.8c0.2,0,0.3,0,0.5,0V988.2z M838.3,981.5c-1.8,0.2-3.1,1.3-3.1,3.3
				c0,1.8,1.5,3.2,3.1,3.4V981.5z"/>
			<path d="M844.3,973.1c0,2.7-1.9,3.7-3,3.8l-0.3-1.4c0.9-0.2,2-0.9,2-2.5c0-1.1-0.6-2.1-1.6-2.1c-1.2,0-1.5,1.3-1.7,2.4
				c-0.2,1.7-0.9,3.3-2.8,3.3c-1.9,0-3-1.7-3-3.4c0-2.7,1.8-3.5,2.7-3.7l0.3,1.3c-0.7,0.2-1.8,0.7-1.8,2.3c0,1.1,0.7,1.9,1.6,1.9
				c1.3,0,1.5-1.4,1.6-2.4c0.2-1.6,1.1-3.3,2.9-3.3C843.1,969.5,844.3,971.1,844.3,973.1z"/>
			<path d="M844.3,962.5c0,2.7-1.9,3.7-3,3.8l-0.3-1.4c0.9-0.2,2-0.9,2-2.5c0-1.1-0.6-2.1-1.6-2.1c-1.2,0-1.5,1.3-1.7,2.4
				c-0.2,1.7-0.9,3.3-2.8,3.3c-1.9,0-3-1.7-3-3.4c0-2.7,1.8-3.5,2.7-3.7l0.3,1.3c-0.7,0.2-1.8,0.7-1.8,2.3c0,1.1,0.7,1.9,1.6,1.9
				c1.3,0,1.5-1.4,1.6-2.4c0.2-1.6,1.1-3.3,2.9-3.3C843.1,958.9,844.3,960.5,844.3,962.5z"/>
			<path d="M841.5,947.6h-6.2v1.9H834v-1.9h-2.9v-1.5h2.9v-2.6h1.3v2.6h6.2c0.9,0,1.4-0.5,1.4-1.6c0-0.3,0-0.7-0.1-0.9h1.2
				c0.1,0.3,0.2,0.9,0.2,1.2C844.2,947,843,947.6,841.5,947.6z"/>
			<path d="M838.3,932.5c-1.8,0-3.1,0.9-3.1,2.8c0,1.8,1.4,3,3.2,3h5.8v1.5h-15.4v-1.5h7.1c-1.3-0.8-2-2-2-3.5
				c0-2.5,1.7-3.8,4.1-3.8h6.3v1.5H838.3z"/>
			<path d="M837.6,920.4c-1.6,0-2.5,0.9-2.5,2.6c0,1.7,1.1,2.5,2.1,2.7l-0.3,1.4c-0.9-0.1-3.1-1.2-3.1-4.1c0-2.1,1-3.2,2.1-3.7
				c0.5-0.2,1.3-0.3,1.7-0.3h6.5v1.4h-1.8v0c1.2,0.8,2,1.9,2,3.4c0,2-1.3,3.4-3,3.4h-0.1c-2.2,0-2.9-2.2-2.9-4v-2.8H837.6z
				 M839.5,923.2c0,1.1,0.3,2.5,1.7,2.5c1.1,0,1.8-1,1.8-2.2c0-1.8-1.3-3.1-3.1-3.1h-0.4V923.2z"/>
			<path d="M838.3,907.1c-1.8,0-3.1,0.9-3.1,2.8c0,1.8,1.4,3,3.2,3h5.8v1.5H834V913h1.9c-1.4-0.8-2-2-2-3.5c0-2.5,1.7-3.8,4.1-3.8
				h6.3v1.5H838.3z"/>
			<path d="M831,891.7l2.1,3.6l-1.2,0.7l-2.6-4.3v-1.5h14.8v1.6H831z"/>
			<path d="M838.2,871.6c-1.7,0-3,0.8-3,2.6c0,1.8,1.6,2.8,3.2,2.8h5.8v1.5H834V877h1.8c-1.2-0.8-2-1.7-2-3.3c0-1.5,0.7-2.6,2-3.2
				c-1.3-0.9-2-2-2-3.6c0-2.4,1.7-3.7,4-3.7h6.3v1.5h-5.9c-1.7,0-3,0.8-3,2.6c0,1.8,1.4,2.8,3.1,2.8h5.8v1.5H838.2z"/>
			<path d="M839.1,859.4c-3,0-5.3-2.3-5.3-5.2c0-2.9,2.3-5.2,5.2-5.2c3,0,5.3,2.3,5.3,5.2C844.3,857.2,842,859.4,839.1,859.4z
				 M839.1,850.5c-2.1,0-4,1.5-4,3.7c0,2.2,1.8,3.7,3.9,3.7c2.1,0,4-1.5,4-3.7C843,852,841.2,850.5,839.1,850.5z"/>
			<path d="M838.3,837.8c-1.8,0-3.1,0.9-3.1,2.8c0,1.8,1.4,3,3.2,3h5.8v1.5H834v-1.5h1.9c-1.4-0.8-2-2-2-3.5c0-2.5,1.7-3.8,4.1-3.8
				h6.3v1.5H838.3z"/>
			<path d="M841.5,831.2h-6.2v1.9H834v-1.9h-2.9v-1.5h2.9v-2.6h1.3v2.6h6.2c0.9,0,1.4-0.5,1.4-1.6c0-0.3,0-0.7-0.1-0.9h1.2
				c0.1,0.3,0.2,0.9,0.2,1.2C844.2,830.5,843,831.2,841.5,831.2z"/>
			<path d="M838.3,816.1c-1.8,0-3.1,0.9-3.1,2.8c0,1.8,1.4,3,3.2,3h5.8v1.5h-15.4v-1.5h7.1c-1.3-0.8-2-2-2-3.5
				c0-2.5,1.7-3.8,4.1-3.8h6.3v1.5H838.3z"/>
		</g>
	</g>
	<g>
		<rect x="1015.5" y="974.1" width="76.1" height="28.7"/>
	</g>
	<g>
		<path d="M1033.4,940.4l-1,5.8c1.1-1.1,2.9-1.3,3.7-1.3c3.2,0,5.6,2.1,5.6,5.5c0,3.7-3,5.5-5.9,5.5c-2.8,0-5.5-1.8-5.8-4.6l1.7-0.4
			c0.3,1.9,1.9,3.4,4.1,3.4c1.7,0,4.1-1.1,4.1-3.9c0-2.8-2.1-3.9-4.1-3.9c-1.2,0-2.7,0.6-3.6,1.7l-1.6-0.6l1.4-8.7h8.9v1.7H1033.4z"
			/>
		<path d="M1045.5,947.9c-1.2,0-2.2-1-2.2-2.2c0-1.2,1-2.2,2.2-2.2c1.2,0,2.2,1,2.2,2.2C1047.7,946.9,1046.7,947.9,1045.5,947.9z
			 M1045.5,944.3c-0.8,0-1.4,0.6-1.4,1.4c0,0.8,0.6,1.4,1.4,1.4c0.8,0,1.4-0.6,1.4-1.4C1046.9,944.9,1046.2,944.3,1045.5,944.3z
			 M1050.9,943.6h1l-6.4,9.9h-1L1050.9,943.6z M1050.9,953.5c-1.2,0-2.2-1-2.2-2.2c0-1.2,1-2.2,2.2-2.2c1.2,0,2.2,1,2.2,2.2
			C1053.2,952.5,1052.2,953.5,1050.9,953.5z M1050.9,949.9c-0.8,0-1.4,0.6-1.4,1.4c0,0.8,0.6,1.4,1.4,1.4c0.8,0,1.4-0.6,1.4-1.4
			C1052.3,950.5,1051.7,949.9,1050.9,949.9z"/>
	</g>
	<g>
		<rect x="1091.5" y="968.4" class="st1" width="76.1" height="34.4"/>
	</g>
	<g>
		<path class="st1" d="M1108.1,941.4c1.1-1.8,3.2-2.4,4.7-2.4c3.6,0,5.7,2.5,5.7,5.4c0,3.9-3.1,5.8-6,5.8c-1.9,0-4.1-1.1-5.1-2.9
			c-0.8-1.5-1.1-2.6-1.1-4.7c0-5.3,2.9-9.8,8.3-9.8c1,0,2.3,0.1,3.5,0.8l-0.6,1.6c-0.9-0.6-2.1-0.7-2.8-0.7
			C1110.7,934.5,1108.5,937.6,1108.1,941.4z M1109.7,941.5c-0.8,0.7-1.3,1.8-1.3,2.9c0,2.5,2.1,4,4.2,4c2.1,0,4.2-1.4,4.2-4
			c0-2.1-1.6-3.9-4.2-3.9C1111.5,940.5,1110.4,940.9,1109.7,941.5z"/>
		<path class="st1" d="M1122.3,942.2c-1.2,0-2.2-1-2.2-2.2c0-1.2,1-2.2,2.2-2.2c1.2,0,2.2,1,2.2,2.2
			C1124.6,941.2,1123.6,942.2,1122.3,942.2z M1122.3,938.6c-0.8,0-1.4,0.6-1.4,1.4c0,0.8,0.6,1.4,1.4,1.4c0.8,0,1.4-0.6,1.4-1.4
			C1123.7,939.2,1123.1,938.6,1122.3,938.6z M1127.8,937.8h1l-6.4,9.9h-1L1127.8,937.8z M1127.8,947.8c-1.2,0-2.2-1-2.2-2.2
			c0-1.2,1-2.2,2.2-2.2c1.2,0,2.2,1,2.2,2.2C1130,946.8,1129,947.8,1127.8,947.8z M1127.8,944.2c-0.8,0-1.4,0.6-1.4,1.4
			c0,0.8,0.6,1.4,1.4,1.4c0.8,0,1.4-0.6,1.4-1.4C1129.2,944.8,1128.6,944.2,1127.8,944.2z"/>
	</g>
	<rect x="443.1" y="813.6" class="st4" width="76.1" height="189.2"/>
	<g>
		<path class="st4" d="M463.5,795.3c-3,0-5.5-1.8-5.8-4.6l1.7-0.4c0.3,1.9,1.8,3.4,4.1,3.4c2.3,0,4.1-1.3,4.1-3.2
			c0-1.9-1.4-3.1-4.1-3.1h-1.7v-1.6h1.6c2.3,0,3.8-1.4,3.8-3.1c0-1.7-1.3-3-3.7-3c-2.3,0-3.7,1.4-4,3.2l-1.7-0.4
			c0.3-2.4,2.5-4.4,5.7-4.4c3.7,0,5.5,2.3,5.5,4.5c0,1.9-1.1,3.2-2.7,3.9v0c1.9,0.5,3.1,2.1,3.1,4
			C469.4,793.1,467.1,795.3,463.5,795.3z"/>
		<path class="st4" d="M477.5,795.3c-3,0-5.5-1.8-5.8-4.6l1.7-0.4c0.3,1.9,1.8,3.4,4.1,3.4c2.3,0,4.1-1.3,4.1-3.2
			c0-1.9-1.4-3.1-4.1-3.1h-1.7v-1.6h1.6c2.3,0,3.8-1.4,3.8-3.1c0-1.7-1.3-3-3.7-3c-2.3,0-3.7,1.4-4,3.2l-1.7-0.4
			c0.3-2.4,2.5-4.4,5.7-4.4c3.7,0,5.5,2.3,5.5,4.5c0,1.9-1.1,3.2-2.7,3.9v0c1.9,0.5,3.1,2.1,3.1,4
			C483.4,793.1,481.1,795.3,477.5,795.3z"/>
		<path class="st4" d="M487.4,787.4c-1.2,0-2.2-1-2.2-2.2c0-1.2,1-2.2,2.2-2.2c1.2,0,2.2,1,2.2,2.2
			C489.6,786.4,488.6,787.4,487.4,787.4z M487.4,783.8c-0.8,0-1.4,0.6-1.4,1.4c0,0.8,0.6,1.4,1.4,1.4c0.8,0,1.4-0.6,1.4-1.4
			C488.8,784.4,488.1,783.8,487.4,783.8z M492.8,783h1l-6.4,9.9h-1L492.8,783z M492.8,793c-1.2,0-2.2-1-2.2-2.2c0-1.2,1-2.2,2.2-2.2
			c1.2,0,2.2,1,2.2,2.2C495.1,792,494.1,793,492.8,793z M492.8,789.4c-0.8,0-1.4,0.6-1.4,1.4c0,0.8,0.6,1.4,1.4,1.4s1.4-0.6,1.4-1.4
			C494.2,790,493.6,789.4,492.8,789.4z"/>
	</g>
	<g>
		<rect x="519.2" y="876.6" width="76.1" height="126.1"/>
	</g>
	<g>
		<path d="M533.9,857.7c0-2,0.9-4.1,3.9-6l2.6-1.6c1.6-1,3-2,3-4c0-1.7-1.5-3.4-3.7-3.4c-1.9,0-3,1.1-3.5,2.2
			c-0.3,0.7-0.3,1.4-0.3,1.7l-1.8-0.3c0-2.4,2-5.2,5.6-5.2c3.1,0,5.5,2.4,5.5,5c0,2.4-1.3,3.8-3.6,5.2L539,853
			c-1.4,0.9-2.8,2.1-2.9,3.6h9.3v1.6h-11.4V857.7z"/>
		<path d="M547.8,857.7c0-2,0.9-4.1,3.9-6l2.6-1.6c1.6-1,3-2,3-4c0-1.7-1.5-3.4-3.7-3.4c-1.9,0-3,1.1-3.5,2.2
			c-0.3,0.7-0.3,1.4-0.3,1.7l-1.8-0.3c0-2.4,2-5.2,5.6-5.2c3.1,0,5.5,2.4,5.5,5c0,2.4-1.3,3.8-3.6,5.2l-2.7,1.7
			c-1.4,0.9-2.8,2.1-2.9,3.6h9.3v1.6h-11.5V857.7z"/>
		<path d="M563.1,850.5c-1.2,0-2.2-1-2.2-2.2c0-1.2,1-2.2,2.2-2.2c1.2,0,2.2,1,2.2,2.2C565.4,849.5,564.4,850.5,563.1,850.5z
			 M563.1,846.8c-0.8,0-1.4,0.6-1.4,1.4c0,0.8,0.6,1.4,1.4,1.4c0.8,0,1.4-0.6,1.4-1.4C564.5,847.5,563.9,846.8,563.1,846.8z
			 M568.6,846.1h1l-6.4,9.9h-1L568.6,846.1z M568.6,856.1c-1.2,0-2.2-1-2.2-2.2c0-1.2,1-2.2,2.2-2.2c1.2,0,2.2,1,2.2,2.2
			C570.9,855.1,569.9,856.1,568.6,856.1z M568.6,852.4c-0.8,0-1.4,0.6-1.4,1.4c0,0.8,0.6,1.4,1.4,1.4c0.8,0,1.4-0.6,1.4-1.4
			C570,853.1,569.4,852.4,568.6,852.4z"/>
	</g>
	<g>
		<g>
			<path d="M333,999.2h13.4v-7h1.5v8.6H333V999.2z"/>
			<path d="M343.3,988.2c2-0.1,3.5-1.6,3.5-3.6c0-1.5-0.7-2.7-2.2-3.1l0.4-1.3c2,0.6,3,2.4,3,4.4c0,2.9-2.3,5.1-5.2,5.1
				c-2.7,0-5.2-2.1-5.2-4.9c0-3.1,2.2-4.8,5.2-4.8c0.2,0,0.3,0,0.5,0V988.2z M342,981.5c-1.8,0.2-3.1,1.3-3.1,3.3
				c0,1.8,1.5,3.2,3.1,3.4V981.5z"/>
			<path d="M348,973.1c0,2.7-1.9,3.7-3,3.8l-0.3-1.4c0.9-0.2,2-0.9,2-2.5c0-1.1-0.6-2.1-1.6-2.1c-1.2,0-1.5,1.3-1.7,2.4
				c-0.2,1.7-0.9,3.3-2.8,3.3c-1.9,0-3-1.7-3-3.4c0-2.7,1.8-3.5,2.7-3.7l0.3,1.3c-0.7,0.2-1.8,0.7-1.8,2.3c0,1.1,0.7,1.9,1.6,1.9
				c1.3,0,1.5-1.4,1.6-2.4c0.2-1.6,1.1-3.3,2.9-3.3C346.8,969.5,348,971.1,348,973.1z"/>
			<path d="M348,962.5c0,2.7-1.9,3.7-3,3.8l-0.3-1.4c0.9-0.2,2-0.9,2-2.5c0-1.1-0.6-2.1-1.6-2.1c-1.2,0-1.5,1.3-1.7,2.4
				c-0.2,1.7-0.9,3.3-2.8,3.3c-1.9,0-3-1.7-3-3.4c0-2.7,1.8-3.5,2.7-3.7l0.3,1.3c-0.7,0.2-1.8,0.7-1.8,2.3c0,1.1,0.7,1.9,1.6,1.9
				c1.3,0,1.5-1.4,1.6-2.4c0.2-1.6,1.1-3.3,2.9-3.3C346.8,958.9,348,960.5,348,962.5z"/>
			<path d="M345.3,947.6h-6.2v1.9h-1.3v-1.9h-2.9v-1.5h2.9v-2.6h1.3v2.6h6.2c0.9,0,1.4-0.5,1.4-1.6c0-0.3,0-0.7-0.1-0.9h1.2
				c0.1,0.3,0.2,0.9,0.2,1.2C347.9,947,346.7,947.6,345.3,947.6z"/>
			<path d="M342,932.5c-1.8,0-3.1,0.9-3.1,2.8c0,1.8,1.4,3,3.2,3h5.8v1.5h-15.4v-1.5h7.1c-1.3-0.8-2-2-2-3.5c0-2.5,1.7-3.8,4.1-3.8
				h6.3v1.5H342z"/>
			<path d="M341.4,920.4c-1.6,0-2.5,0.9-2.5,2.6c0,1.7,1.1,2.5,2.1,2.7l-0.3,1.4c-0.9-0.1-3.1-1.2-3.1-4.1c0-2.1,1-3.2,2.1-3.7
				c0.5-0.2,1.3-0.3,1.7-0.3h6.5v1.4h-1.8v0c1.2,0.8,2,1.9,2,3.4c0,2-1.3,3.4-3,3.4H345c-2.2,0-2.9-2.2-2.9-4v-2.8H341.4z
				 M343.2,923.2c0,1.1,0.3,2.5,1.7,2.5c1.1,0,1.8-1,1.8-2.2c0-1.8-1.3-3.1-3.1-3.1h-0.4V923.2z"/>
			<path d="M342,907.1c-1.8,0-3.1,0.9-3.1,2.8c0,1.8,1.4,3,3.2,3h5.8v1.5h-10.1V913h1.9c-1.4-0.8-2-2-2-3.5c0-2.5,1.7-3.8,4.1-3.8
				h6.3v1.5H342z"/>
			<path d="M334.7,891.7l2.1,3.6l-1.2,0.7l-2.6-4.3v-1.5h14.8v1.6H334.7z"/>
			<path d="M347.9,876.3l-10.1,3.4v-1.6l8.4-2.7v0l-8.4-2.7v-1.5l8.4-2.8v0l-8.4-2.7v-1.5l10.1,3.4v1.6l-8.2,2.7v0l8.2,2.7V876.3z"
				/>
			<path d="M343.3,860.2c2-0.1,3.5-1.6,3.5-3.6c0-1.5-0.7-2.7-2.2-3.1l0.4-1.3c2,0.6,3,2.4,3,4.4c0,2.9-2.3,5.1-5.2,5.1
				c-2.7,0-5.2-2.1-5.2-4.9c0-3.1,2.2-4.8,5.2-4.8c0.2,0,0.3,0,0.5,0V860.2z M342,853.5c-1.8,0.2-3.1,1.3-3.1,3.3
				c0,1.8,1.5,3.2,3.1,3.4V853.5z"/>
			<path d="M343.3,847.4c2-0.1,3.5-1.6,3.5-3.6c0-1.5-0.7-2.7-2.2-3.1l0.4-1.3c2,0.6,3,2.4,3,4.4c0,2.9-2.3,5.1-5.2,5.1
				c-2.7,0-5.2-2.1-5.2-4.9c0-3.1,2.2-4.8,5.2-4.8c0.2,0,0.3,0,0.5,0V847.4z M342,840.7c-1.8,0.2-3.1,1.3-3.1,3.3
				c0,1.8,1.5,3.2,3.1,3.4V840.7z"/>
			<path d="M347.9,833.9v1.5h-15.4v-1.5h9.4l-4.1-4.8V827l4.5,5.3l5.6-5.6v2.1l-5.1,5v0.1H347.9z"/>
		</g>
	</g>
	<g>
		<rect x="595.2" y="825" class="st1" width="76.1" height="177.7"/>
	</g>
	<g>
		<path class="st1" d="M615.6,806.8c-3,0-5.5-1.8-5.8-4.6l1.7-0.4c0.3,1.9,1.8,3.4,4.1,3.4c2.3,0,4.1-1.3,4.1-3.2s-1.5-3.1-4.1-3.1
			h-1.7v-1.6h1.6c2.3,0,3.8-1.4,3.8-3.1c0-1.7-1.3-3-3.7-3c-2.3,0-3.7,1.4-4,3.2l-1.7-0.4c0.3-2.4,2.5-4.4,5.7-4.4
			c3.7,0,5.5,2.3,5.5,4.5c0,1.9-1.1,3.2-2.7,3.9v0c1.9,0.5,3.1,2.1,3.1,4C621.5,804.6,619.2,806.8,615.6,806.8z"/>
		<path class="st1" d="M627.9,791.6l-4.1,2.4l-0.8-1.3l4.9-3h1.7v16.9h-1.8V791.6z"/>
		<path class="st1" d="M634.8,798.9c-1.2,0-2.2-1-2.2-2.2c0-1.2,1-2.2,2.2-2.2c1.2,0,2.2,1,2.2,2.2C637,797.9,636,798.9,634.8,798.9
			z M634.8,795.2c-0.8,0-1.4,0.6-1.4,1.4c0,0.8,0.6,1.4,1.4,1.4c0.8,0,1.4-0.6,1.4-1.4C636.2,795.9,635.5,795.2,634.8,795.2z
			 M640.2,794.5h1l-6.4,9.9h-1L640.2,794.5z M640.2,804.5c-1.2,0-2.2-1-2.2-2.2c0-1.2,1-2.2,2.2-2.2c1.2,0,2.2,1,2.2,2.2
			C642.5,803.5,641.5,804.5,640.2,804.5z M640.2,800.8c-0.8,0-1.4,0.6-1.4,1.4c0,0.8,0.6,1.4,1.4,1.4c0.8,0,1.4-0.6,1.4-1.4
			C641.6,801.5,641,800.8,640.2,800.8z"/>
	</g>
	<g>
		<g>
			<path d="M371.6,52.7l-3.6,2.1l-0.7-1.2l4.3-2.6h1.5v14.8h-1.6V52.7z"/>
			<path d="M376.3,58.5c0-3.7,2.1-7.6,6.2-7.6c4.1,0,6.1,3.9,6.1,7.5c0,3.7-2.1,7.6-6.2,7.6C378.4,66,376.3,62.2,376.3,58.5z
				 M377.9,58.4c0,2.7,1.3,6.2,4.6,6.2c3.2,0,4.6-3.4,4.6-6.1c0-2.6-1.4-6.2-4.6-6.2S377.9,55.8,377.9,58.4z"/>
			<path d="M395.9,51.3h2.8l6.7,21.6h0.1l6.7-21.6h3l6.8,21.7h0.1l6.7-21.7h2.7l-8,25.4h-3l-6.8-21.8l-6.8,21.8h-2.9L395.9,51.3z"/>
			<path d="M447.6,66.6c0-3.1-1.6-5.3-4.8-5.3c-3,0-5.2,2.4-5.2,5.5v9.9h-2.5V50.2h2.5v12.2c1.4-2.3,3.4-3.4,5.9-3.4
				c4.3,0,6.6,2.9,6.6,6.9v10.7h-2.5V66.6z"/>
			<path d="M466.1,65.5c0-2.8-1.5-4.2-4.4-4.2c-2.9,0-4.3,1.9-4.5,3.5l-2.4-0.5c0.1-1.5,2.1-5.3,7-5.3c3.7,0,5.5,1.7,6.3,3.6
				c0.4,0.9,0.5,2.3,0.5,2.9v11.2h-2.5v-3.1h0c-1.4,2.1-3.2,3.3-5.8,3.3c-3.5,0-5.8-2.2-5.8-5.1v-0.2c0-3.8,3.8-5,6.8-5h4.8V65.5z
				 M461.2,68.8c-1.9,0-4.3,0.6-4.3,2.9c0,1.9,1.7,3.1,3.7,3.1c3.1,0,5.4-2.2,5.4-5.4v-0.6H461.2z"/>
			<path d="M475,72.2V61.6h-3.2v-2.2h3.2v-5h2.5v5h4.4v2.2h-4.4v10.5c0,1.6,0.9,2.4,2.8,2.4c0.6,0,1.2,0,1.6-0.1v2.1
				c-0.5,0.2-1.5,0.3-2,0.3C476.2,76.8,475,74.7,475,72.2z"/>
			<path d="M496.5,51.2c1.1,0,1.9,0.8,1.9,1.9c0,1-0.8,1.9-1.9,1.9c-1,0-1.9-0.8-1.9-1.9C494.6,52.1,495.5,51.2,496.5,51.2z
				 M497.8,59.3v17.3h-2.6V59.3H497.8z"/>
			<path d="M508.8,77c-4.7,0-6.3-3.2-6.6-5.1l2.3-0.6c0.4,1.6,1.5,3.4,4.2,3.4c1.9,0,3.6-1,3.6-2.8c0-2.1-2.3-2.6-4.1-2.9
				c-2.9-0.4-5.7-1.5-5.7-4.8c0-3.2,3-5.2,5.8-5.2c4.6,0,6,3.1,6.3,4.7l-2.3,0.6c-0.3-1.2-1.2-3.1-4-3.1c-1.9,0-3.3,1.3-3.3,2.8
				c0,2.2,2.3,2.5,4.1,2.7c2.8,0.4,5.7,1.9,5.7,5C515,74.9,512.2,77,508.8,77z"/>
			<path d="M533.5,75.5l-7.9-16.2h2.9l6.4,13.4l6-13.4h2.7l-11.9,25.9H529L533.5,75.5z"/>
			<path d="M545.2,68.1c0-5.1,3.9-9,9-9c5,0,8.9,3.9,8.9,8.9c0,5.1-3.9,9-9,9C549.1,77,545.2,73,545.2,68.1z M560.5,68.1
				c0-3.6-2.6-6.8-6.4-6.8c-3.8,0-6.3,3.1-6.3,6.7c0,3.6,2.6,6.8,6.4,6.8C557.9,74.7,560.5,71.7,560.5,68.1z"/>
			<path d="M569.8,69.4c0,3.1,1.6,5.3,4.8,5.3c3,0,5.2-2.4,5.2-5.5v-9.9h2.5v17.3h-2.5v-3.2c-1.4,2.4-3.4,3.5-5.9,3.5
				c-4.3,0-6.6-2.9-6.6-6.9V59.3h2.5V69.4z"/>
			<path d="M590.6,62.8c1.3-2.7,3.6-3.7,5.6-3.7c0.2,0,0.6,0,0.8,0v2.7c-0.3,0-0.6-0.1-1-0.1c-4.1,0-5.4,3.4-5.4,6.5v8.5h-2.5V59.3
				h2.5V62.8z"/>
			<path d="M635.7,76.7H633V54.9h0l-9.4,21.8h-2.4l-9.4-21.6v21.6h-2.6V51.3h3.8l9.5,21.8l9.4-21.8h3.8V76.7z"/>
			<path d="M652.5,65.5c0-2.8-1.5-4.2-4.4-4.2c-2.9,0-4.3,1.9-4.5,3.5l-2.4-0.5c0.1-1.5,2.1-5.3,7-5.3c3.7,0,5.5,1.7,6.3,3.6
				c0.4,0.9,0.5,2.3,0.5,2.9v11.2h-2.5v-3.1h0c-1.4,2.1-3.2,3.3-5.8,3.3c-3.5,0-5.8-2.2-5.8-5.1v-0.2c0-3.8,3.8-5,6.8-5h4.8V65.5z
				 M647.7,68.8c-1.9,0-4.3,0.6-4.3,2.9c0,1.9,1.7,3.1,3.7,3.1c3.1,0,5.4-2.2,5.4-5.4v-0.6H647.7z"/>
			<path d="M661.2,76.7h-2.9l6.8-8.8l-6.6-8.5h3l5.1,6.7l5.1-6.7h2.9l-6.6,8.5l6.8,8.8h-3l-5.4-7L661.2,76.7z"/>
			<path d="M679.6,51.2c1.1,0,1.9,0.8,1.9,1.9c0,1-0.8,1.9-1.9,1.9c-1,0-1.9-0.8-1.9-1.9C677.8,52.1,678.6,51.2,679.6,51.2z
				 M680.9,59.3v17.3h-2.6V59.3H680.9z"/>
			<path d="M698.5,66.5c0-2.9-1.4-5.2-4.5-5.2c-3,0-4.8,2.7-4.8,5.5v9.9h-2.5V59.3h2.5v3c1.4-2.1,3-3.3,5.6-3.3
				c2.5,0,4.5,1.2,5.5,3.5c1.5-2.2,3.4-3.4,6.1-3.4c4.2,0,6.4,2.9,6.4,6.9v10.7h-2.5V66.6c0-2.9-1.3-5.2-4.5-5.2
				c-3.1,0-4.8,2.5-4.8,5.4v10h-2.5V66.5z"/>
			<path d="M720.6,69.4c0,3.1,1.6,5.3,4.8,5.3c3,0,5.2-2.4,5.2-5.5v-9.9h2.5v17.3h-2.5v-3.2c-1.4,2.4-3.4,3.5-5.9,3.5
				c-4.3,0-6.6-2.9-6.6-6.9V59.3h2.5V69.4z"/>
			<path d="M750.6,66.5c0-2.9-1.4-5.2-4.5-5.2c-3,0-4.8,2.7-4.8,5.5v9.9h-2.5V59.3h2.5v3c1.4-2.1,3-3.3,5.6-3.3
				c2.5,0,4.5,1.2,5.5,3.5c1.5-2.2,3.4-3.4,6.1-3.4c4.2,0,6.4,2.9,6.4,6.9v10.7h-2.5V66.6c0-2.9-1.3-5.2-4.5-5.2
				c-3.1,0-4.8,2.5-4.8,5.4v10h-2.5V66.5z"/>
			<path d="M784.7,76.7V53.8h-8.5v-2.5h19.7v2.5h-8.5v22.9H784.7z"/>
			<path d="M794.8,68.1c0-5.1,3.9-9,9-9c5,0,8.9,3.9,8.9,8.9c0,5.1-3.9,9-9,9C798.7,77,794.8,73,794.8,68.1z M810.1,68.1
				c0-3.6-2.6-6.8-6.4-6.8c-3.8,0-6.3,3.1-6.3,6.7c0,3.6,2.6,6.8,6.4,6.8C807.5,74.7,810.1,71.7,810.1,68.1z"/>
			<path d="M819.7,50.2v26.5h-2.6V50.2H819.7z"/>
			<path d="M826.7,68.8c0.2,3.4,2.8,5.9,6.2,5.9c2.6,0,4.5-1.3,5.4-3.7l2.3,0.7c-1,3.3-4.2,5.2-7.6,5.2c-5,0-8.8-4-8.8-9
				c0-4.7,3.6-8.9,8.4-8.9c5.4,0,8.2,3.8,8.2,8.9c0,0.3,0,0.6,0,0.8H826.7z M838.2,66.6c-0.3-3.1-2.3-5.4-5.6-5.4
				c-3,0-5.4,2.5-5.8,5.4H838.2z"/>
			<path d="M847.6,62.8c1.3-2.7,3.6-3.7,5.6-3.7c0.2,0,0.6,0,0.8,0v2.7c-0.3,0-0.6-0.1-1-0.1c-4.1,0-5.4,3.4-5.4,6.5v8.5h-2.5V59.3
				h2.5V62.8z"/>
			<path d="M867.5,65.5c0-2.8-1.5-4.2-4.4-4.2c-2.9,0-4.3,1.9-4.5,3.5l-2.4-0.5c0.1-1.5,2.1-5.3,7-5.3c3.7,0,5.5,1.7,6.3,3.6
				c0.4,0.9,0.5,2.3,0.5,2.9v11.2h-2.5v-3.1h0c-1.4,2.1-3.2,3.3-5.8,3.3c-3.5,0-5.8-2.2-5.8-5.1v-0.2c0-3.8,3.8-5,6.8-5h4.8V65.5z
				 M862.6,68.8c-1.9,0-4.3,0.6-4.3,2.9c0,1.9,1.7,3.1,3.7,3.1c3.1,0,5.4-2.2,5.4-5.4v-0.6H862.6z"/>
			<path d="M884.7,76.9c-3.3,0-5.3-1.6-6.7-3.9v3.6h-2.5V50.2h2.5v12.8c1.4-2.2,3.4-4,6.7-4c4.9,0,8.1,4.4,8.1,8.9
				C892.8,72.6,889.6,76.9,884.7,76.9z M890.2,68c0-3.6-2.2-6.8-6.1-6.8c-3.6,0-6.2,3.2-6.2,6.7c0,3.6,2.5,6.8,6.2,6.8
				C888,74.7,890.2,71.7,890.2,68z"/>
			<path d="M899.9,50.2v26.5h-2.6V50.2H899.9z"/>
			<path d="M906.9,68.8c0.2,3.4,2.8,5.9,6.2,5.9c2.6,0,4.5-1.3,5.4-3.7l2.3,0.7c-1,3.3-4.2,5.2-7.6,5.2c-5,0-8.8-4-8.8-9
				c0-4.7,3.6-8.9,8.4-8.9c5.4,0,8.2,3.8,8.2,8.9c0,0.3,0,0.6,0,0.8H906.9z M918.4,66.6c-0.3-3.1-2.3-5.4-5.6-5.4
				c-3,0-5.4,2.5-5.8,5.4H918.4z"/>
			<path d="M397.6,115.6H395V90.2h8.5c6.2,0,8.9,3.7,8.9,7.6c0,4.3-3.2,7.9-9.4,7.9h-5.4V115.6z M397.6,103.2h5.5
				c4.7,0,6.6-2.7,6.6-5.3c0-2.5-1.4-5.2-6.4-5.2h-5.6V103.2z"/>
			<path d="M417.1,107.7c0.2,3.4,2.8,5.9,6.2,5.9c2.6,0,4.5-1.3,5.4-3.7l2.3,0.7c-1,3.3-4.2,5.2-7.6,5.2c-5,0-8.8-4-8.8-9
				c0-4.7,3.6-8.9,8.4-8.9c5.4,0,8.2,3.8,8.2,8.9c0,0.3,0,0.6,0,0.8H417.1z M428.6,105.6c-0.3-3.1-2.3-5.4-5.6-5.4
				c-3,0-5.4,2.5-5.8,5.4H428.6z"/>
			<path d="M438,101.7c1.3-2.7,3.6-3.7,5.6-3.7c0.2,0,0.6,0,0.8,0v2.7c-0.3,0-0.6-0.1-1-0.1c-4.1,0-5.4,3.4-5.4,6.5v8.5h-2.5V98.3
				h2.5V101.7z"/>
			<path d="M449.1,90.2c1.1,0,1.9,0.8,1.9,1.9c0,1-0.8,1.9-1.9,1.9c-1,0-1.9-0.8-1.9-1.9C447.2,91,448,90.2,449.1,90.2z M450.4,98.3
				v17.3h-2.6V98.3H450.4z"/>
			<path d="M454.8,107c0-5.1,3.9-9,9-9c5,0,8.9,3.9,8.9,8.9c0,5.1-3.9,9-9,9C458.7,115.9,454.8,111.9,454.8,107z M470.1,107
				c0-3.6-2.6-6.8-6.4-6.8c-3.8,0-6.3,3.1-6.3,6.7c0,3.6,2.6,6.8,6.4,6.8C467.5,113.7,470.1,110.6,470.1,107z"/>
			<path d="M484.1,98c3.3,0,5.3,1.9,6.7,3.9V89.2h2.5v26.4h-2.5v-3.7c-1.3,2.2-3.4,4-6.8,4c-5,0-8.1-4.2-8.1-9
				C475.9,102.4,479.2,98,484.1,98z M490.8,106.9c0-3.4-2.6-6.7-6.2-6.7c-3.8,0-6.1,3-6.1,6.8c0,3.6,2.3,6.7,6.1,6.7
				C488.2,113.6,490.8,110.5,490.8,106.9z"/>
			<path d="M506.8,107c0-5.1,3.9-9,9-9c5,0,8.9,3.9,8.9,8.9c0,5.1-3.9,9-9,9C510.7,115.9,506.8,111.9,506.8,107z M522.1,107
				c0-3.6-2.6-6.8-6.4-6.8c-3.8,0-6.3,3.1-6.3,6.7c0,3.6,2.6,6.8,6.4,6.8C519.5,113.7,522.1,110.6,522.1,107z"/>
			<path d="M532.6,95v3.3h4.5v2.2h-4.5v15.1h-2.5v-15.1h-3.3v-2.2h3.3v-3.2c0-4,2.2-6,5.3-6c0.5,0,1.2,0.1,1.9,0.3v2.1
				c-0.7-0.2-1.4-0.2-1.8-0.2C534.3,91.3,532.6,92.1,532.6,95z"/>
			<path d="M557.1,90.2c7.9,0,13.4,5.5,13.4,12.7c0,7.6-6,12.8-13.4,12.8h-7.6V90.2H557.1z M557,113.1c6.4,0,10.7-4.3,10.7-10.2
				c0-5.8-4.2-10.2-10.8-10.2h-4.8v20.4H557z"/>
			<path d="M576.4,90.2c1.1,0,1.9,0.8,1.9,1.9c0,1-0.8,1.9-1.9,1.9c-1,0-1.9-0.8-1.9-1.9C574.5,91,575.4,90.2,576.4,90.2z
				 M577.7,98.3v17.3h-2.6V98.3H577.7z"/>
			<path d="M588.7,115.9c-4.7,0-6.3-3.2-6.6-5.1l2.3-0.6c0.4,1.6,1.5,3.4,4.2,3.4c1.9,0,3.6-1,3.6-2.8c0-2.1-2.3-2.6-4.1-2.9
				c-2.9-0.4-5.7-1.5-5.7-4.8c0-3.2,3-5.2,5.8-5.2c4.6,0,6,3.1,6.3,4.7l-2.3,0.6c-0.3-1.2-1.2-3.1-4-3.1c-1.9,0-3.3,1.3-3.3,2.8
				c0,2.2,2.3,2.5,4.1,2.7c2.8,0.4,5.7,1.9,5.7,5C594.9,113.9,592.1,115.9,588.7,115.9z"/>
			<path d="M601.9,101.7c1.3-2.7,3.6-3.7,5.6-3.7c0.2,0,0.6,0,0.8,0v2.7c-0.3,0-0.6-0.1-1-0.1c-4.1,0-5.4,3.4-5.4,6.5v8.5h-2.5V98.3
				h2.5V101.7z"/>
			<path d="M614,108.4c0,3.1,1.6,5.3,4.8,5.3c3,0,5.2-2.4,5.2-5.5v-9.9h2.5v17.3H624v-3.2c-1.4,2.4-3.4,3.5-5.9,3.5
				c-4.3,0-6.6-2.9-6.6-6.9V98.3h2.5V108.4z"/>
			<path d="M641.4,115.9c-3.2,0-5.3-1.6-6.7-3.8v12.1h-2.5V98.3h2.5v3.8c1.4-2.2,3.4-4.1,6.7-4.1c4.9,0,8.1,4.4,8.1,8.9
				C649.6,111.6,646.4,115.9,641.4,115.9z M647,107c0-3.6-2.2-6.8-6.1-6.8c-3.6,0-6.2,3.2-6.2,6.7c0,3.6,2.5,6.8,6.2,6.8
				C644.7,113.6,647,110.6,647,107z"/>
			<path d="M655,111.1v-10.6h-3.2v-2.2h3.2v-5h2.5v5h4.4v2.2h-4.4v10.5c0,1.6,0.9,2.4,2.8,2.4c0.6,0,1.2,0,1.6-0.1v2.1
				c-0.5,0.2-1.5,0.3-2,0.3C656.1,115.7,655,113.7,655,111.1z"/>
			<path d="M667.4,90.2c1.1,0,1.9,0.8,1.9,1.9c0,1-0.8,1.9-1.9,1.9c-1,0-1.9-0.8-1.9-1.9C665.5,91,666.3,90.2,667.4,90.2z
				 M668.7,98.3v17.3h-2.6V98.3H668.7z"/>
			<path d="M673.1,107c0-5.1,3.9-9,9-9c5,0,8.9,3.9,8.9,8.9c0,5.1-3.9,9-9,9C677,115.9,673.1,111.9,673.1,107z M688.4,107
				c0-3.6-2.6-6.8-6.4-6.8c-3.8,0-6.3,3.1-6.3,6.7c0,3.6,2.6,6.8,6.4,6.8C685.8,113.7,688.4,110.6,688.4,107z"/>
			<path d="M708,105.5c0-3.1-1.6-5.3-4.8-5.3c-3,0-5.2,2.4-5.2,5.5v9.9h-2.5V98.3h2.5v3.2c1.4-2.3,3.4-3.5,6-3.5
				c4.3,0,6.6,2.9,6.6,6.9v10.7H708V105.5z"/>
			<path d="M719.5,108.2c0-0.2,0-0.4,0-0.6c0-3,1.9-4.5,3.2-5.9c1.5-1.6,3.2-2.9,3.2-5.2c0-2.1-1.4-4.2-4.7-4.2
				c-3.3,0-5.1,2.4-4.9,5.5l-2.6-0.1c0-0.3,0-0.5,0-0.7c0-4.2,3.5-7.1,7.5-7.1c4.5,0,7.5,3.1,7.5,6.7c0,2.5-1.5,4.2-3.8,6.4
				c-1.7,1.7-2.8,2.7-2.9,5.3H719.5z M720.6,115.9c1.1,0,1.9-0.8,1.9-1.9c0-1-0.8-1.9-1.9-1.9c-1,0-1.9,0.8-1.9,1.9
				C718.7,115.1,719.6,115.9,720.6,115.9z"/>
		</g>
	</g>
</g>
</svg>
