<?xml version="1.0" encoding="utf-8"?>
<!-- Generator: Adobe Illustrator 21.1.0, SVG Export Plug-In . SVG Version: 6.00 Build 0)  -->
<svg version="1.1" id="graphNineCyber" xmlns="http://www.w3.org/2000/svg" xmlns:xlink="http://www.w3.org/1999/xlink" x="0px"
	 y="0px" viewBox="0 0 1500 1053" style="enable-background:new 0 0 1500 1053;" xml:space="preserve">
<style type="text/css">
	.st0{fill:#8EFFDE;}
	.st1{fill:none;stroke:#000000;stroke-miterlimit:10;}
	.st2{opacity:0.9;}
	.st3{fill:#FFFFFF;}
	.st4{fill:#FF8F4E;}
	.st5{fill:none;stroke:#FF8F4E;stroke-miterlimit:10;}
</style>
<g>
	<g>
		<g>
			<g>
				<g>
					<circle class="st0" cx="836.9" cy="608.5" r="218"/>
				</g>
				<g>
					<path d="M805.1,624.4c-6.8,0-12.6-4.1-13.4-10.6l3.9-0.8c0.7,4.5,4.1,7.7,9.5,7.7c5.2,0,9.4-2.9,9.4-7.3c0-4.4-3.3-7.2-9.4-7.2
						h-3.9v-3.8h3.8c5.3,0,8.6-3.3,8.6-7c0-4-3-6.9-8.6-6.9c-5.3,0-8.4,3.2-9.1,7.3L792,595c0.7-5.4,5.8-10.2,13-10.2
						c8.4,0,12.6,5.2,12.6,10.3c0,4.4-2.5,7.2-6.2,8.9l0,0c4.4,1.2,7.1,4.7,7.1,9.3C818.5,619.3,813.2,624.4,805.1,624.4z"/>
					<path d="M824.3,604.7c0-9.6,5.5-19.9,16.2-19.9c10.6,0,16,10.1,16,19.7c0,9.6-5.4,19.9-16.2,19.9
						C829.7,624.4,824.3,614.4,824.3,604.7z M828.6,604.5c0,7,3.5,16.1,11.9,16.1s11.9-9,11.9-15.9s-3.6-16.1-12-16.1
						S828.6,597.6,828.6,604.5z"/>
					<path d="M865.7,610.5c-2.8,0-5.1-2.3-5.1-5.1s2.3-5.1,5.1-5.1s5.1,2.3,5.1,5.1S868.6,610.5,865.7,610.5z M865.7,602.2
						c-1.8,0-3.2,1.4-3.2,3.2s1.4,3.2,3.2,3.2s3.2-1.4,3.2-3.2C868.9,603.6,867.5,602.2,865.7,602.2z M878.2,600.6h2.3l-14.8,22.6
						h-2.3L878.2,600.6z M878.3,623.3c-2.8,0-5.1-2.3-5.1-5.1s2.3-5.1,5.1-5.1s5.1,2.3,5.1,5.1C883.4,621.1,881.1,623.3,878.3,623.3
						z M878.3,615.1c-1.8,0-3.2,1.4-3.2,3.2s1.4,3.2,3.2,3.2s3.2-1.4,3.2-3.2S880,615.1,878.3,615.1z"/>
				</g>
			</g>
			<g>
				<path d="M990.4,961.5v11.6H989l-7-9.9v9.9h-1.2v-11.6h1.4l6.9,9.7v-9.7H990.4z"/>
				<path d="M993.5,969.2c0-2.3,1.8-4.1,4.1-4.1s4.1,1.8,4.1,4.1s-1.8,4.1-4.1,4.1C995.2,973.2,993.5,971.4,993.5,969.2z
					 M1000.5,969.2c0-1.7-1.2-3.1-2.9-3.1s-2.9,1.4-2.9,3.1c0,1.7,1.2,3.1,2.9,3.1C999.3,972.2,1000.5,970.8,1000.5,969.2z"/>
				<path d="M1004.2,974.8c0.7-0.5,1.2-1.1,1.3-1.8c-0.1,0-0.2,0.1-0.4,0.1c-0.6,0-1-0.4-1-1s0.5-1.1,1-1.1c0.7,0,1.2,0.6,1.2,1.5
					v0.1c0,1-0.5,2-1.6,2.8L1004.2,974.8z"/>
				<path d="M1018.1,968c0-1.3-0.7-1.9-2-1.9s-1.9,0.9-2.1,1.6l-1.1-0.2c0.1-0.7,1-2.4,3.2-2.4c1.7,0,2.5,0.8,2.9,1.6
					c0.2,0.4,0.2,1.1,0.2,1.3v5.1h-1.1v-1.4l0,0c-0.6,1-1.5,1.5-2.7,1.5c-1.6,0-2.7-1-2.7-2.3v-0.1c0-1.7,1.7-2.3,3.1-2.3h2.2
					L1018.1,968L1018.1,968z M1015.9,969.5c-0.8,0-2,0.3-2,1.3c0,0.9,0.8,1.4,1.7,1.4c1.4,0,2.5-1,2.5-2.5v-0.3L1015.9,969.5
					L1015.9,969.5z"/>
				<path d="M1028.2,968.5c0-1.4-0.7-2.4-2.2-2.4c-1.4,0-2.4,1.1-2.4,2.5v4.5h-1.2v-7.9h1.1v1.5c0.6-1.1,1.6-1.6,2.7-1.6
					c1.9,0,3,1.3,3,3.2v4.9h-1.2v-4.7H1028.2z"/>
				<path d="M1035.8,965c1.5,0,2.4,0.9,3.1,1.8V961h1.1v12.1h-1.1v-1.7c-0.6,1-1.6,1.8-3.1,1.8c-2.3,0-3.7-1.9-3.7-4.1
					C1032.1,967.1,1033.6,965,1035.8,965z M1038.9,969.1c0-1.6-1.2-3-2.9-3c-1.7,0-2.8,1.4-2.8,3.1c0,1.6,1,3,2.8,3
					C1037.7,972.2,1038.9,970.7,1038.9,969.1z"/>
				<path d="M1050,973.1l-2.7-7.9h1.2l2.1,6.6l0,0l2.2-6.6h1.2l2.2,6.6l0,0l2.1-6.6h1.2l-2.7,7.9h-1.3l-2.1-6.4l0,0l-2.1,6.4H1050z"
					/>
				<path d="M1062.3,969.5c0.1,1.5,1.3,2.7,2.8,2.7c1.2,0,2.1-0.6,2.5-1.7l1,0.3c-0.5,1.5-1.9,2.4-3.5,2.4c-2.3,0-4-1.8-4-4.1
					c0-2.2,1.6-4.1,3.9-4.1c2.5,0,3.7,1.8,3.7,4.1c0,0.1,0,0.3,0,0.4L1062.3,969.5L1062.3,969.5z M1067.6,968.5
					c-0.1-1.4-1.1-2.5-2.6-2.5c-1.4,0-2.5,1.1-2.7,2.5H1067.6z"/>
				<path d="M1081.2,968c0-1.3-0.7-1.9-2-1.9s-1.9,0.9-2.1,1.6l-1.1-0.2c0.1-0.7,1-2.4,3.2-2.4c1.7,0,2.5,0.8,2.9,1.6
					c0.2,0.4,0.2,1.1,0.2,1.3v5.1h-1.1v-1.4l0,0c-0.6,1-1.5,1.5-2.7,1.5c-1.6,0-2.7-1-2.7-2.3v-0.1c0-1.7,1.7-2.3,3.1-2.3h2.2
					L1081.2,968L1081.2,968z M1079,969.5c-0.8,0-2,0.3-2,1.3c0,0.9,0.8,1.4,1.7,1.4c1.4,0,2.5-1,2.5-2.5v-0.3L1079,969.5L1079,969.5
					z"/>
				<path d="M1086.7,966.7c0.6-1.2,1.6-1.7,2.6-1.7c0.1,0,0.3,0,0.4,0v1.2c-0.1,0-0.3,0-0.4,0c-1.9,0-2.5,1.5-2.5,3v3.9h-1.2v-7.9
					h1.1V966.7z"/>
				<path d="M1092.3,969.5c0.1,1.5,1.3,2.7,2.8,2.7c1.2,0,2.1-0.6,2.5-1.7l1,0.3c-0.5,1.5-1.9,2.4-3.5,2.4c-2.3,0-4-1.8-4-4.1
					c0-2.2,1.6-4.1,3.9-4.1c2.5,0,3.7,1.8,3.7,4.1c0,0.1,0,0.3,0,0.4L1092.3,969.5L1092.3,969.5z M1097.5,968.5
					c-0.1-1.4-1.1-2.5-2.6-2.5c-1.4,0-2.5,1.1-2.7,2.5H1097.5z"/>
				<path d="M1107.2,968.5c0-1.4-0.7-2.4-2.2-2.4c-1.4,0-2.4,1.1-2.4,2.5v4.5h-1.2v-7.9h1.1v1.5c0.6-1.1,1.6-1.6,2.7-1.6
					c1.9,0,3,1.3,3,3.2v4.9h-1.2v-4.7H1107.2z"/>
				<path d="M1110.9,965.1c0.7-0.5,1.2-1.1,1.3-1.8c-0.1,0-0.2,0.1-0.4,0.1c-0.6,0-1-0.4-1-1s0.5-1.1,1-1.1c0.7,0,1.2,0.6,1.2,1.5
					v0.1c0,1-0.5,2-1.6,2.8L1110.9,965.1z"/>
				<path d="M1116.5,971.1v-4.9h-1.5v-1h1.5v-2.3h1.1v2.3h2v1h-2v4.8c0,0.7,0.4,1.1,1.3,1.1c0.3,0,0.5,0,0.7-0.1v1
					c-0.2,0.1-0.7,0.1-0.9,0.1C1117,973.2,1116.5,972.2,1116.5,971.1z"/>
				<path d="M1131.5,973.2c-1.5,0-2.4-0.7-3.1-1.8v5.5h-1.2v-11.8h1.1v1.7c0.6-1,1.6-1.9,3.1-1.9c2.3,0,3.7,2,3.7,4.1
					C1135.2,971.3,1133.7,973.2,1131.5,973.2z M1134,969.2c0-1.6-1-3.1-2.8-3.1c-1.6,0-2.8,1.5-2.8,3c0,1.6,1.2,3.1,2.8,3.1
					C1133,972.2,1134,970.8,1134,969.2z"/>
				<path d="M1139.2,961v12.1h-1.2V961H1139.2z"/>
				<path d="M1147.3,968c0-1.3-0.7-1.9-2-1.9s-1.9,0.9-2.1,1.6l-1.1-0.2c0.1-0.7,1-2.4,3.2-2.4c1.7,0,2.5,0.8,2.9,1.6
					c0.2,0.4,0.2,1.1,0.2,1.3v5.1h-1.1v-1.4l0,0c-0.6,1-1.5,1.5-2.7,1.5c-1.6,0-2.7-1-2.7-2.3v-0.1c0-1.7,1.7-2.3,3.1-2.3h2.2
					L1147.3,968L1147.3,968z M1145.1,969.5c-0.8,0-2,0.3-2,1.3c0,0.9,0.8,1.4,1.7,1.4c1.4,0,2.5-1,2.5-2.5v-0.3L1145.1,969.5
					L1145.1,969.5z"/>
				<path d="M1157.4,968.5c0-1.4-0.7-2.4-2.2-2.4c-1.4,0-2.4,1.1-2.4,2.5v4.5h-1.2v-7.9h1.1v1.5c0.6-1.1,1.6-1.6,2.7-1.6
					c1.9,0,3,1.3,3,3.2v4.9h-1.2v-4.7H1157.4z"/>
				<path d="M1167.6,968.5c0-1.4-0.7-2.4-2.2-2.4c-1.4,0-2.4,1.1-2.4,2.5v4.5h-1.2v-7.9h1.1v1.5c0.6-1.1,1.6-1.6,2.7-1.6
					c1.9,0,3,1.3,3,3.2v4.9h-1.2v-4.7H1167.6z"/>
				<path d="M1172.6,961.5c0.5,0,0.9,0.4,0.9,0.9s-0.4,0.9-0.9,0.9s-0.9-0.4-0.9-0.9C1171.7,961.8,1172.1,961.5,1172.6,961.5z
					 M1173.2,965.2v7.9h-1.2v-7.9H1173.2z"/>
				<path d="M1182.3,968.5c0-1.4-0.7-2.4-2.2-2.4c-1.4,0-2.4,1.1-2.4,2.5v4.5h-1.2v-7.9h1.1v1.5c0.6-1.1,1.6-1.6,2.7-1.6
					c1.9,0,3,1.3,3,3.2v4.9h-1.2v-4.7H1182.3z"/>
				<path d="M1192.9,971.3c-0.6,1-1.6,1.8-3.1,1.8c-2.3,0-3.7-1.9-3.7-4s1.5-4.1,3.7-4.1c1.5,0,2.5,0.9,3.1,1.8v-1.7h1.1v8
					c0,2.6-1.6,3.9-4,3.9c-2,0-3.5-1-3.9-2.7l1.1-0.4c0.2,0.9,1,2.1,2.9,2.1c1.5,0,2.8-0.8,2.8-2.9V971.3z M1192.9,969.1
					c0-1.6-1.2-3-2.9-3c-1.7,0-2.8,1.3-2.8,3.1c0,1.6,1,3,2.8,3C1191.7,972.1,1192.9,970.7,1192.9,969.1z"/>
				<path d="M981.1,988.9V984h-1.5v-1h1.5v-2.3h1.1v2.3h2v1h-2v4.8c0,0.7,0.4,1.1,1.3,1.1c0.3,0,0.5,0,0.7-0.1v1
					c-0.2,0.1-0.7,0.1-0.9,0.1C981.6,991,981.1,990.1,981.1,988.9z"/>
				<path d="M986.2,987c0-2.3,1.8-4.1,4.1-4.1s4.1,1.8,4.1,4.1s-1.8,4.1-4.1,4.1S986.2,989.3,986.2,987z M993.2,987
					c0-1.7-1.2-3.1-2.9-3.1s-2.9,1.4-2.9,3.1c0,1.7,1.2,3.1,2.9,3.1S993.2,988.7,993.2,987z"/>
				<path d="M1001.5,987c0-2.3,1.8-4.1,4.1-4.1s4.1,1.8,4.1,4.1s-1.8,4.1-4.1,4.1S1001.5,989.3,1001.5,987z M1008.5,987
					c0-1.7-1.2-3.1-2.9-3.1s-2.9,1.4-2.9,3.1c0,1.7,1.2,3.1,2.9,3.1S1008.5,988.7,1008.5,987z"/>
				<path d="M1011.2,983h1.3l2.7,6.7l2.8-6.7h1.2l-3.4,7.9h-1.2L1011.2,983z"/>
				<path d="M1021.9,987.3c0.1,1.5,1.3,2.7,2.8,2.7c1.2,0,2.1-0.6,2.5-1.7l1,0.3c-0.5,1.5-1.9,2.4-3.5,2.4c-2.3,0-4-1.8-4-4.1
					c0-2.2,1.6-4.1,3.9-4.1c2.5,0,3.7,1.8,3.7,4.1c0,0.1,0,0.3,0,0.4L1021.9,987.3L1021.9,987.3z M1027.2,986.4
					c-0.1-1.4-1.1-2.5-2.6-2.5c-1.4,0-2.5,1.1-2.7,2.5H1027.2z"/>
				<path d="M1032.3,984.6c0.6-1.2,1.6-1.7,2.6-1.7c0.1,0,0.3,0,0.4,0v1.2c-0.1,0-0.3,0-0.4,0c-1.9,0-2.5,1.5-2.5,3v3.9h-1.2v-8h1.1
					V984.6z"/>
				<path d="M1042.5,988.9V984h-1.5v-1h1.5v-2.3h1.1v2.3h2v1h-2v4.8c0,0.7,0.4,1.1,1.3,1.1c0.3,0,0.5,0,0.7-0.1v1
					c-0.2,0.1-0.7,0.1-0.9,0.1C1043,991,1042.5,990.1,1042.5,988.9z"/>
				<path d="M1054.1,986.3c0-1.4-0.7-2.4-2.2-2.4c-1.4,0-2.4,1.1-2.4,2.5v4.5h-1.2v-12.1h1.2v5.6c0.6-1,1.5-1.6,2.7-1.6
					c1.9,0,3,1.3,3,3.2v4.9h-1.2L1054.1,986.3L1054.1,986.3z"/>
				<path d="M1059.1,987.3c0.1,1.5,1.3,2.7,2.8,2.7c1.2,0,2.1-0.6,2.5-1.7l1,0.3c-0.5,1.5-1.9,2.4-3.5,2.4c-2.3,0-4-1.8-4-4.1
					c0-2.2,1.6-4.1,3.9-4.1c2.5,0,3.7,1.8,3.7,4.1c0,0.1,0,0.3,0,0.4L1059.1,987.3L1059.1,987.3z M1064.3,986.4
					c-0.1-1.4-1.1-2.5-2.6-2.5c-1.4,0-2.5,1.1-2.7,2.5H1064.3z"/>
				<path d="M1078.8,986.3c0-1.4-0.7-2.4-2.2-2.4c-1.4,0-2.4,1.1-2.4,2.5v4.5h-1.2V983h1.1v1.5c0.6-1.1,1.6-1.6,2.7-1.6
					c1.9,0,3,1.3,3,3.2v4.9h-1.2v-4.7H1078.8z"/>
				<path d="M1083.9,987.3c0.1,1.5,1.3,2.7,2.8,2.7c1.2,0,2.1-0.6,2.5-1.7l1,0.3c-0.5,1.5-1.9,2.4-3.5,2.4c-2.3,0-4-1.8-4-4.1
					c0-2.2,1.6-4.1,3.9-4.1c2.5,0,3.7,1.8,3.7,4.1c0,0.1,0,0.3,0,0.4L1083.9,987.3L1083.9,987.3z M1089.1,986.4
					c-0.1-1.4-1.1-2.5-2.6-2.5c-1.4,0-2.5,1.1-2.7,2.5H1089.1z"/>
				<path d="M1093.1,990.9h-1.3l3.1-4l-3-3.9h1.4l2.3,3.1l2.3-3.1h1.3l-3,3.9l3.1,4h-1.4l-2.5-3.2L1093.1,990.9z"/>
				<path d="M1102.3,988.9V984h-1.5v-1h1.5v-2.3h1.1v2.3h2v1h-2v4.8c0,0.7,0.4,1.1,1.3,1.1c0.3,0,0.5,0,0.7-0.1v1
					c-0.2,0.1-0.7,0.1-0.9,0.1C1102.8,991,1102.3,990.1,1102.3,988.9z"/>
				<path d="M1115.2,980.6l-2.8,1.7l-0.6-0.9l3.4-2h1.2V991h-1.2V980.6z"/>
				<path d="M1119.6,990.6c0-1.4,0.6-2.8,2.7-4.1l1.8-1.1c1.1-0.7,2-1.4,2-2.8c0-1.2-1.1-2.3-2.6-2.3c-1.3,0-2.1,0.8-2.4,1.5
					c-0.2,0.5-0.2,1-0.2,1.1l-1.2-0.2c0-1.6,1.4-3.6,3.9-3.6c2.2,0,3.8,1.6,3.8,3.4c0,1.6-0.9,2.6-2.5,3.6l-1.8,1.1
					c-1,0.6-1.9,1.4-2,2.5h6.4v1.1h-7.9L1119.6,990.6L1119.6,990.6z"/>
				<path d="M1140.7,986.3c0-1.3-0.6-2.4-2.1-2.4c-1.4,0-2.2,1.2-2.2,2.5v4.5h-1.2V983h1.1v1.4c0.6-1,1.4-1.5,2.6-1.5
					s2.1,0.5,2.5,1.6c0.7-1,1.5-1.6,2.8-1.6c1.9,0,2.9,1.3,2.9,3.2v4.9h-1.2v-4.6c0-1.3-0.6-2.4-2.1-2.4c-1.4,0-2.2,1.1-2.2,2.5v4.6
					h-1.1v-4.8H1140.7z"/>
				<path d="M1149.9,987c0-2.3,1.8-4.1,4.1-4.1c2.3,0,4.1,1.8,4.1,4.1s-1.8,4.1-4.1,4.1C1151.7,991.1,1149.9,989.3,1149.9,987z
					 M1156.9,987c0-1.7-1.2-3.1-2.9-3.1c-1.7,0-2.9,1.4-2.9,3.1c0,1.7,1.2,3.1,2.9,3.1C1155.7,990.1,1156.9,988.7,1156.9,987z"/>
				<path d="M1166.6,986.3c0-1.4-0.7-2.4-2.2-2.4c-1.4,0-2.4,1.1-2.4,2.5v4.5h-1.2V983h1.1v1.5c0.6-1.1,1.6-1.6,2.7-1.6
					c1.9,0,3,1.3,3,3.2v4.9h-1.2v-4.7H1166.6z"/>
				<path d="M1171.5,988.9V984h-1.5v-1h1.5v-2.3h1.1v2.3h2v1h-2v4.8c0,0.7,0.4,1.1,1.3,1.1c0.3,0,0.5,0,0.7-0.1v1
					c-0.2,0.1-0.7,0.1-0.9,0.1C1172,991,1171.5,990.1,1171.5,988.9z"/>
				<path d="M1183.1,986.3c0-1.4-0.7-2.4-2.2-2.4c-1.4,0-2.4,1.1-2.4,2.5v4.5h-1.2v-12.1h1.2v5.6c0.6-1,1.5-1.6,2.7-1.6
					c1.9,0,3,1.3,3,3.2v4.9h-1.2L1183.1,986.3L1183.1,986.3z"/>
				<path d="M1189.9,991.1c-2.2,0-2.9-1.5-3-2.3l1.1-0.3c0.2,0.7,0.7,1.6,1.9,1.6c0.9,0,1.6-0.5,1.6-1.3c0-1-1-1.2-1.9-1.3
					c-1.3-0.2-2.6-0.7-2.6-2.2s1.4-2.4,2.7-2.4c2.1,0,2.8,1.4,2.9,2.2l-1.1,0.3c-0.1-0.5-0.6-1.4-1.8-1.4c-0.9,0-1.5,0.6-1.5,1.3
					c0,1,1.1,1.1,1.9,1.2c1.3,0.2,2.6,0.8,2.6,2.3C1192.7,990.1,1191.4,991.1,1189.9,991.1z"/>
			</g>
			<g>
				<g>
					<path class="st1" d="M836.9,845.2c0,71.2,56.3,129.2,126.9,132"/>
					<g>
						<polygon points="963.1,971.1 962.8,983.2 969,977.3 						"/>
					</g>
				</g>
			</g>
		</g>
		<g>
			<g>
				<g class="st2">
					<circle cx="495.1" cy="557.7" r="218"/>
				</g>
				<g>
					<path class="st3" d="M463.3,573c-6.8,0-12.6-4.1-13.4-10.6l3.9-0.8c0.7,4.5,4.1,7.7,9.5,7.7c5.2,0,9.4-2.9,9.4-7.3
						s-3.3-7.2-9.4-7.2h-3.9V551h3.8c5.3,0,8.6-3.3,8.6-7c0-4-3-6.9-8.6-6.9c-5.3,0-8.4,3.2-9.1,7.3l-3.9-0.8
						c0.7-5.4,5.8-10.2,13-10.2c8.4,0,12.6,5.2,12.6,10.3c0,4.4-2.5,7.2-6.2,8.9l0,0c4.4,1.2,7.1,4.7,7.1,9.3
						C476.7,568,471.4,573,463.3,573z"/>
					<path class="st3" d="M482.5,553.4c0-9.6,5.5-19.9,16.2-19.9c10.6,0,16,10.1,16,19.7c0,9.6-5.4,19.9-16.2,19.9
						C487.9,573.1,482.5,563,482.5,553.4z M486.7,553.2c0,7,3.5,16.1,11.9,16.1s11.9-9,11.9-15.9s-3.6-16.1-12-16.1
						C490.2,537.3,486.7,546.2,486.7,553.2z"/>
					<path class="st3" d="M523.9,559.2c-2.8,0-5.1-2.3-5.1-5.1s2.3-5.1,5.1-5.1s5.1,2.3,5.1,5.1S526.7,559.2,523.9,559.2z
						 M523.9,550.9c-1.8,0-3.2,1.4-3.2,3.2s1.4,3.2,3.2,3.2s3.2-1.4,3.2-3.2C527.1,552.3,525.7,550.9,523.9,550.9z M536.4,549.2h2.3
						l-14.8,22.6h-2.3L536.4,549.2z M536.4,572c-2.8,0-5.1-2.3-5.1-5.1s2.3-5.1,5.1-5.1s5.1,2.3,5.1,5.1S539.3,572,536.4,572z
						 M536.4,563.7c-1.8,0-3.2,1.4-3.2,3.2s1.4,3.2,3.2,3.2s3.2-1.4,3.2-3.2C539.6,565.1,538.2,563.7,536.4,563.7z"/>
				</g>
			</g>
			<g>
				<g>
					<path d="M97.5,186.1v11.6h-1.3l-7-9.9v9.9H88v-11.6h1.4l6.9,9.7v-9.7H97.5z"/>
					<path d="M100.6,193.8c0-2.3,1.8-4.1,4.1-4.1c2.3,0,4.1,1.8,4.1,4.1s-1.8,4.1-4.1,4.1C102.4,197.9,100.6,196.1,100.6,193.8z
						 M107.6,193.8c0-1.7-1.2-3.1-2.9-3.1c-1.7,0-2.9,1.4-2.9,3.1c0,1.7,1.2,3.1,2.9,3.1C106.4,196.9,107.6,195.5,107.6,193.8z"/>
					<path d="M111.3,199.5c0.7-0.5,1.2-1.1,1.3-1.8c-0.1,0-0.2,0.1-0.4,0.1c-0.6,0-1-0.4-1-1s0.5-1.1,1-1.1c0.7,0,1.2,0.6,1.2,1.5
						v0.1c0,1-0.5,2-1.6,2.8L111.3,199.5z"/>
					<path d="M124.7,197.9c-1.5,0-2.4-0.7-3.1-1.8v1.7h-1.1v-12.1h1.2v5.9c0.7-1,1.6-1.8,3.1-1.8c2.3,0,3.7,2,3.7,4.1
						C128.4,195.9,127,197.9,124.7,197.9z M127.2,193.8c0-1.6-1-3.1-2.8-3.1c-1.6,0-2.8,1.5-2.8,3c0,1.6,1.2,3.1,2.8,3.1
						C126.2,196.8,127.2,195.5,127.2,193.8z"/>
					<path d="M132.3,194.4c0,1.4,0.7,2.4,2.2,2.4c1.4,0,2.4-1.1,2.4-2.5v-4.5h1.1v7.9h-1.1v-1.5c-0.6,1.1-1.6,1.6-2.7,1.6
						c-1.9,0-3-1.3-3-3.2v-4.9h1.1V194.4z"/>
					<path d="M141.9,195.7v-4.9h-1.5v-1h1.5v-2.3h1.1v2.3h2v1h-2v4.8c0,0.7,0.4,1.1,1.3,1.1c0.3,0,0.5,0,0.7-0.1v1
						c-0.2,0.1-0.7,0.1-0.9,0.1C142.4,197.8,141.9,196.9,141.9,195.7z"/>
					<path d="M154.4,197.7l-2.7-7.9h1.2l2.1,6.6l0,0l2.2-6.6h1.2l2.2,6.6l0,0l2.1-6.6h1.2l-2.7,7.9h-1.3l-2.1-6.4l0,0l-2.1,6.4
						H154.4z"/>
					<path d="M166.7,194.1c0.1,1.5,1.3,2.7,2.8,2.7c1.2,0,2.1-0.6,2.5-1.7l1,0.3c-0.5,1.5-1.9,2.4-3.5,2.4c-2.3,0-4-1.8-4-4.1
						c0-2.2,1.6-4.1,3.9-4.1c2.5,0,3.7,1.8,3.7,4.1c0,0.1,0,0.3,0,0.4L166.7,194.1L166.7,194.1z M171.9,193.2
						c-0.1-1.4-1.1-2.5-2.6-2.5c-1.4,0-2.5,1.1-2.7,2.5H171.9z"/>
					<path d="M175.1,189.8c0.7-0.5,1.2-1.1,1.3-1.8c-0.1,0-0.2,0.1-0.4,0.1c-0.6,0-1-0.4-1-1s0.5-1.1,1-1.1c0.7,0,1.2,0.6,1.2,1.5
						v0.1c0,1-0.5,2-1.6,2.8L175.1,189.8z"/>
					<path d="M181,191.4c0.6-1.2,1.6-1.7,2.6-1.7c0.1,0,0.3,0,0.4,0v1.2c-0.1,0-0.3,0-0.4,0c-1.9,0-2.5,1.5-2.5,3v3.9h-1.2v-7.9h1.1
						L181,191.4L181,191.4z"/>
					<path d="M186.6,194.1c0.1,1.5,1.3,2.7,2.8,2.7c1.2,0,2.1-0.6,2.5-1.7l1,0.3c-0.5,1.5-1.9,2.4-3.5,2.4c-2.3,0-4-1.8-4-4.1
						c0-2.2,1.6-4.1,3.9-4.1c2.5,0,3.7,1.8,3.7,4.1c0,0.1,0,0.3,0,0.4L186.6,194.1L186.6,194.1z M191.8,193.2
						c-0.1-1.4-1.1-2.5-2.6-2.5c-1.4,0-2.5,1.1-2.7,2.5H191.8z"/>
					<path d="M204.9,197.9c-1.5,0-2.4-0.7-3.1-1.8v5.5h-1.2v-11.8h1.1v1.7c0.6-1,1.6-1.9,3.1-1.9c2.3,0,3.7,2,3.7,4.1
						C208.6,195.9,207.1,197.9,204.9,197.9z M207.4,193.8c0-1.6-1-3.1-2.8-3.1c-1.6,0-2.8,1.5-2.8,3c0,1.6,1.2,3.1,2.8,3.1
						C206.4,196.8,207.4,195.5,207.4,193.8z"/>
					<path d="M212.6,185.6v12.1h-1.2v-12.1H212.6z"/>
					<path d="M220.7,192.6c0-1.3-0.7-1.9-2-1.9s-1.9,0.9-2.1,1.6l-1.1-0.2c0.1-0.7,1-2.4,3.2-2.4c1.7,0,2.5,0.8,2.9,1.6
						c0.2,0.4,0.2,1.1,0.2,1.3v5.1h-1.1v-1.4l0,0c-0.6,1-1.5,1.5-2.7,1.5c-1.6,0-2.7-1-2.7-2.3v-0.1c0-1.7,1.7-2.3,3.1-2.3h2.2v-0.5
						H220.7z M218.5,194.1c-0.8,0-2,0.3-2,1.3c0,0.9,0.8,1.4,1.7,1.4c1.4,0,2.5-1,2.5-2.5V194h-2.2V194.1z"/>
					<path d="M230.8,193.1c0-1.4-0.7-2.4-2.2-2.4c-1.4,0-2.4,1.1-2.4,2.5v4.5H225v-7.9h1.1v1.5c0.6-1.1,1.6-1.6,2.7-1.6
						c1.9,0,3,1.3,3,3.2v4.9h-1.2v-4.7H230.8z"/>
					<path d="M241,193.1c0-1.4-0.7-2.4-2.2-2.4c-1.4,0-2.4,1.1-2.4,2.5v4.5h-1.2v-7.9h1.1v1.5c0.6-1.1,1.6-1.6,2.7-1.6
						c1.9,0,3,1.3,3,3.2v4.9h-1V193.1z"/>
					<path d="M246,186.1c0.5,0,0.9,0.4,0.9,0.9s-0.4,0.9-0.9,0.9s-0.9-0.4-0.9-0.9S245.5,186.1,246,186.1z M246.6,189.8v7.9h-1.2
						v-7.9H246.6z"/>
					<path d="M255.6,193.1c0-1.4-0.7-2.4-2.2-2.4c-1.4,0-2.4,1.1-2.4,2.5v4.5h-1.2v-7.9h1.1v1.5c0.6-1.1,1.6-1.6,2.7-1.6
						c1.9,0,3,1.3,3,3.2v4.9h-1.2v-4.7H255.6z"/>
					<path d="M266.3,196c-0.6,1-1.6,1.8-3.1,1.8c-2.3,0-3.7-1.9-3.7-4s1.5-4.1,3.7-4.1c1.5,0,2.5,0.9,3.1,1.8v-1.7h1.1v8
						c0,2.6-1.6,3.9-4,3.9c-2,0-3.5-1-3.9-2.7l1.1-0.4c0.2,0.9,1,2.1,2.9,2.1c1.5,0,2.8-0.8,2.8-2.9V196z M266.3,193.7
						c0-1.6-1.2-3-2.9-3c-1.7,0-2.8,1.3-2.8,3.1c0,1.6,1,3,2.8,3C265.1,196.8,266.3,195.3,266.3,193.7z"/>
					<path d="M276.2,195.7v-4.9h-1.5v-1h1.5v-2.3h1.1v2.3h2v1h-2v4.8c0,0.7,0.4,1.1,1.3,1.1c0.3,0,0.5,0,0.7-0.1v1
						c-0.2,0.1-0.7,0.1-0.9,0.1C276.7,197.8,276.2,196.9,276.2,195.7z"/>
					<path d="M281.3,193.8c0-2.3,1.8-4.1,4.1-4.1c2.3,0,4.1,1.8,4.1,4.1s-1.8,4.1-4.1,4.1C283.1,197.9,281.3,196.1,281.3,193.8z
						 M288.3,193.8c0-1.7-1.2-3.1-2.9-3.1c-1.7,0-2.9,1.4-2.9,3.1c0,1.7,1.2,3.1,2.9,3.1C287.1,196.9,288.3,195.5,288.3,193.8z"/>
					<path d="M98.3,211.6c0-2.3,1.8-4.1,4.1-4.1c2.3,0,4.1,1.8,4.1,4.1s-1.8,4.1-4.1,4.1C100.1,215.7,98.3,213.9,98.3,211.6z
						 M105.3,211.6c0-1.7-1.2-3.1-2.9-3.1c-1.7,0-2.9,1.4-2.9,3.1c0,1.7,1.2,3.1,2.9,3.1C104.1,214.7,105.3,213.3,105.3,211.6z"/>
					<path d="M108,207.7h1.3l2.7,6.7l2.8-6.7h1.2l-3.4,7.9h-1.2L108,207.7z"/>
					<path d="M118.7,212c0.1,1.5,1.3,2.7,2.8,2.7c1.2,0,2.1-0.6,2.5-1.7l1,0.3c-0.5,1.5-1.9,2.4-3.5,2.4c-2.3,0-4-1.8-4-4.1
						c0-2.2,1.6-4.1,3.9-4.1c2.5,0,3.7,1.8,3.7,4.1c0,0.1,0,0.3,0,0.4L118.7,212L118.7,212z M124,211c-0.1-1.4-1.1-2.5-2.6-2.5
						c-1.4,0-2.5,1.1-2.7,2.5H124z"/>
					<path d="M129,209.2c0.6-1.2,1.6-1.7,2.6-1.7c0.1,0,0.3,0,0.4,0v1.2c-0.1,0-0.3,0-0.4,0c-1.9,0-2.5,1.5-2.5,3v3.9h-1.2v-7.9h1.1
						L129,209.2L129,209.2z"/>
					<path d="M139.3,213.5v-4.9h-1.5v-1h1.5v-2.3h1.1v2.3h2v1h-2v4.8c0,0.7,0.4,1.1,1.3,1.1c0.3,0,0.5,0,0.7-0.1v1
						c-0.2,0.1-0.7,0.1-0.9,0.1C139.8,215.6,139.3,214.7,139.3,213.5z"/>
					<path d="M150.8,211c0-1.4-0.7-2.4-2.2-2.4c-1.4,0-2.4,1.1-2.4,2.5v4.5H145v-12.1h1.2v5.6c0.6-1,1.5-1.6,2.7-1.6
						c1.9,0,3,1.3,3,3.2v4.9h-1.2L150.8,211L150.8,211z"/>
					<path d="M155.9,212c0.1,1.5,1.3,2.7,2.8,2.7c1.2,0,2.1-0.6,2.5-1.7l1,0.3c-0.5,1.5-1.9,2.4-3.5,2.4c-2.3,0-4-1.8-4-4.1
						c0-2.2,1.6-4.1,3.9-4.1c2.5,0,3.7,1.8,3.7,4.1c0,0.1,0,0.3,0,0.4L155.9,212L155.9,212z M161.1,211c-0.1-1.4-1.1-2.5-2.6-2.5
						c-1.4,0-2.5,1.1-2.7,2.5H161.1z"/>
					<path d="M175.6,211c0-1.4-0.7-2.4-2.2-2.4c-1.4,0-2.4,1.1-2.4,2.5v4.5h-1.2v-7.9h1.1v1.5c0.6-1.1,1.6-1.6,2.7-1.6
						c1.9,0,3,1.3,3,3.2v4.9h-1.2V211H175.6z"/>
					<path d="M180.6,212c0.1,1.5,1.3,2.7,2.8,2.7c1.2,0,2.1-0.6,2.5-1.7l1,0.3c-0.5,1.5-1.9,2.4-3.5,2.4c-2.3,0-4-1.8-4-4.1
						c0-2.2,1.6-4.1,3.9-4.1c2.5,0,3.7,1.8,3.7,4.1c0,0.1,0,0.3,0,0.4L180.6,212L180.6,212z M185.9,211c-0.1-1.4-1.1-2.5-2.6-2.5
						c-1.4,0-2.5,1.1-2.7,2.5H185.9z"/>
					<path d="M189.9,215.6h-1.3l3.1-4l-3-3.9h1.4l2.3,3.1l2.3-3.1h1.3l-3,3.9l3.1,4h-1.4l-2.5-3.2L189.9,215.6z"/>
					<path d="M199,213.5v-4.9h-1.5v-1h1.5v-2.3h1.1v2.3h2v1h-2v4.8c0,0.7,0.4,1.1,1.3,1.1c0.3,0,0.5,0,0.7-0.1v1
						c-0.2,0.1-0.7,0.1-0.9,0.1C199.6,215.6,199,214.7,199,213.5z"/>
					<path d="M212,205.2l-2.8,1.7l-0.5-0.9l3.4-2h1.2v11.6H212V205.2z"/>
					<path d="M216.4,215.2c0-1.4,0.6-2.8,2.7-4.1l1.8-1.1c1.1-0.7,2-1.4,2-2.8c0-1.2-1.1-2.3-2.6-2.3c-1.3,0-2.1,0.8-2.4,1.5
						c-0.2,0.5-0.2,1-0.2,1.1l-1.2-0.2c0-1.6,1.4-3.6,3.9-3.6c2.2,0,3.8,1.6,3.8,3.4c0,1.6-0.9,2.6-2.5,3.6l-1.8,1.1
						c-1,0.6-1.9,1.4-2,2.5h6.4v1.1h-7.9V215.2z"/>
					<path d="M237.5,210.9c0-1.3-0.6-2.4-2-2.4s-2.2,1.2-2.2,2.5v4.5h-1.2v-7.9h1.1v1.4c0.6-1,1.4-1.5,2.6-1.5
						c1.2,0,2.1,0.5,2.5,1.6c0.7-1,1.5-1.6,2.8-1.6c1.9,0,2.9,1.3,2.9,3.2v4.9h-1.2V211c0-1.3-0.6-2.4-2-2.4s-2.2,1.1-2.2,2.5v4.6
						h-1.1L237.5,210.9L237.5,210.9z"/>
					<path d="M246.7,211.6c0-2.3,1.8-4.1,4.1-4.1s4.1,1.8,4.1,4.1s-1.8,4.1-4.1,4.1C248.5,215.7,246.7,213.9,246.7,211.6z
						 M253.7,211.6c0-1.7-1.2-3.1-2.9-3.1s-2.9,1.4-2.9,3.1c0,1.7,1.2,3.1,2.9,3.1C252.5,214.7,253.7,213.3,253.7,211.6z"/>
					<path d="M263.4,211c0-1.4-0.7-2.4-2.2-2.4c-1.4,0-2.4,1.1-2.4,2.5v4.5h-1.2v-7.9h1.1v1.5c0.6-1.1,1.6-1.6,2.7-1.6
						c1.9,0,3,1.3,3,3.2v4.9h-1.2V211H263.4z"/>
					<path d="M268.3,213.5v-4.9h-1.5v-1h1.5v-2.3h1.1v2.3h2v1h-2v4.8c0,0.7,0.4,1.1,1.3,1.1c0.3,0,0.5,0,0.7-0.1v1
						c-0.2,0.1-0.7,0.1-0.9,0.1C268.8,215.6,268.3,214.7,268.3,213.5z"/>
					<path d="M279.9,211c0-1.4-0.7-2.4-2.2-2.4c-1.4,0-2.4,1.1-2.4,2.5v4.5h-1.2v-12.1h1.2v5.6c0.6-1,1.5-1.6,2.7-1.6
						c1.9,0,3,1.3,3,3.2v4.9h-1.2V211H279.9z"/>
					<path d="M286.7,215.7c-2.2,0-2.9-1.5-3-2.3l1.1-0.3c0.2,0.7,0.7,1.6,1.9,1.6c0.9,0,1.6-0.5,1.6-1.3c0-1-1-1.2-1.9-1.3
						c-1.3-0.2-2.6-0.7-2.6-2.2s1.4-2.4,2.7-2.4c2.1,0,2.8,1.4,2.9,2.2l-1.1,0.3c-0.1-0.5-0.6-1.4-1.8-1.4c-0.9,0-1.5,0.6-1.5,1.3
						c0,1,1.1,1.1,1.9,1.2c1.3,0.2,2.6,0.8,2.6,2.3C289.5,214.8,288.2,215.7,286.7,215.7z"/>
				</g>
				<g>
					<g>
						<path class="st1" d="M435.7,332.7c0-71.2-56.3-129.2-126.9-132"/>
						<g>
							<polygon points="309.5,206.8 309.8,194.7 303.6,200.6 							"/>
						</g>
					</g>
				</g>
			</g>
		</g>
		<g>
			<g>
				<circle class="st4" cx="687.1" cy="350.9" r="130.8"/>
			</g>
			<g>
				<path class="st3" d="M659.7,331.4l-9.3,5.5l-1.8-3.1l11.2-6.8h4v38.8h-4.1L659.7,331.4L659.7,331.4z"/>
				<path class="st3" d="M684.9,366.2c-6.8,0-12.6-4.1-13.4-10.6l3.9-0.8c0.7,4.5,4.1,7.7,9.5,7.7c5.2,0,9.4-2.9,9.4-7.3
					s-3.3-7.2-9.4-7.2H681v-3.8h3.8c5.3,0,8.6-3.3,8.6-7c0-4-3-6.9-8.6-6.9c-5.3,0-8.4,3.2-9.1,7.3l-3.9-0.8
					c0.7-5.4,5.8-10.2,13-10.2c8.4,0,12.6,5.2,12.6,10.3c0,4.4-2.5,7.2-6.2,8.9l0,0c4.4,1.2,7.1,4.7,7.1,9.3
					C698.3,361.2,693,366.2,684.9,366.2z"/>
				<path class="st3" d="M707.5,352.4c-2.8,0-5.1-2.3-5.1-5.1c0-2.8,2.3-5.1,5.1-5.1s5.1,2.3,5.1,5.1S710.3,352.4,707.5,352.4z
					 M707.5,344.1c-1.8,0-3.2,1.4-3.2,3.2c0,1.8,1.4,3.2,3.2,3.2s3.2-1.4,3.2-3.2S709.2,344.1,707.5,344.1z M719.9,342.4h2.3
					L707.5,365h-2.3L719.9,342.4z M720,365.2c-2.8,0-5.1-2.3-5.1-5.1c0-2.8,2.3-5.1,5.1-5.1s5.1,2.3,5.1,5.1
					C725.1,362.9,722.8,365.2,720,365.2z M720,356.9c-1.8,0-3.2,1.4-3.2,3.2c0,1.8,1.4,3.2,3.2,3.2s3.2-1.4,3.2-3.2
					S721.8,356.9,720,356.9z"/>
			</g>
			<g>
				<path class="st4" d="M356.6,59.8l-4.5,6.7v4.9h-1.2v-4.9l-4.5-6.7h1.5l3.7,5.6l3.7-5.6C355.3,59.8,356.6,59.8,356.6,59.8z"/>
				<path class="st4" d="M357.8,67.8c0.1,1.5,1.3,2.7,2.8,2.7c1.2,0,2.1-0.6,2.5-1.7l1,0.3c-0.5,1.5-1.9,2.4-3.5,2.4
					c-2.3,0-4-1.8-4-4.1c0-2.2,1.6-4.1,3.9-4.1c2.5,0,3.7,1.8,3.7,4.1c0,0.1,0,0.3,0,0.4C364.2,67.8,357.8,67.8,357.8,67.8z
					 M363.1,66.8c-0.1-1.4-1.1-2.5-2.6-2.5c-1.4,0-2.5,1.1-2.7,2.5H363.1z"/>
				<path class="st4" d="M369.4,71.6c-2.2,0-2.9-1.5-3-2.3l1.1-0.3c0.2,0.7,0.7,1.6,1.9,1.6c0.9,0,1.6-0.5,1.6-1.3
					c0-1-1-1.2-1.9-1.3c-1.3-0.2-2.6-0.7-2.6-2.2s1.4-2.4,2.7-2.4c2.1,0,2.8,1.4,2.9,2.2l-1.1,0.3c-0.1-0.5-0.6-1.4-1.8-1.4
					c-0.9,0-1.5,0.6-1.5,1.3c0,1,1.1,1.1,1.9,1.2c1.3,0.2,2.6,0.8,2.6,2.3C372.2,70.6,371,71.6,369.4,71.6z"/>
				<path class="st4" d="M374.8,73.2c0.7-0.5,1.2-1.1,1.3-1.8c-0.1,0-0.2,0.1-0.4,0.1c-0.6,0-1-0.4-1-1s0.5-1.1,1-1.1
					c0.7,0,1.2,0.6,1.2,1.5V71c0,1-0.5,2-1.6,2.8L374.8,73.2z"/>
				<path class="st4" d="M385.7,71.4l-2.7-7.9h1.2l2.1,6.6l0,0l2.2-6.6h1.2l2.2,6.6l0,0l2.1-6.6h1.2l-2.7,7.9h-1.3l-2.1-6.4l0,0
					l-2.1,6.4H385.7z"/>
				<path class="st4" d="M398,67.8c0.1,1.5,1.3,2.7,2.8,2.7c1.2,0,2.1-0.6,2.5-1.7l1,0.3c-0.5,1.5-1.9,2.4-3.5,2.4
					c-2.3,0-4-1.8-4-4.1c0-2.2,1.6-4.1,3.9-4.1c2.5,0,3.7,1.8,3.7,4.1c0,0.1,0,0.3,0,0.4C404.4,67.8,398,67.8,398,67.8z M403.3,66.8
					c-0.1-1.4-1.1-2.5-2.6-2.5c-1.4,0-2.5,1.1-2.7,2.5H403.3z"/>
				<path class="st4" d="M417.8,66.8c0-1.4-0.7-2.4-2.2-2.4c-1.4,0-2.4,1.1-2.4,2.5v4.5H412V59.3h1.2v5.6c0.6-1,1.5-1.6,2.7-1.6
					c1.9,0,3,1.3,3,3.2v4.9h-1.2v-4.6H417.8z"/>
				<path class="st4" d="M427,66.3c0-1.3-0.7-1.9-2-1.9s-1.9,0.9-2.1,1.6l-1.1-0.2c0.1-0.7,1-2.4,3.2-2.4c1.7,0,2.5,0.8,2.9,1.6
					c0.2,0.4,0.2,1.1,0.2,1.3v5.1H427V70l0,0c-0.6,1-1.5,1.5-2.7,1.5c-1.6,0-2.7-1-2.7-2.3v-0.1c0-1.7,1.7-2.3,3.1-2.3h2.2v-0.5H427
					z M424.8,67.8c-0.8,0-2,0.3-2,1.3c0,0.9,0.8,1.4,1.7,1.4c1.4,0,2.5-1,2.5-2.5v-0.3L424.8,67.8L424.8,67.8z"/>
				<path class="st4" d="M430.2,63.5h1.3l2.7,6.7l2.8-6.7h1.2l-3.4,7.9h-1.2L430.2,63.5z"/>
				<path class="st4" d="M440.9,67.8c0.1,1.5,1.3,2.7,2.8,2.7c1.2,0,2.1-0.6,2.5-1.7l1,0.3c-0.5,1.5-1.9,2.4-3.5,2.4
					c-2.3,0-4-1.8-4-4.1c0-2.2,1.6-4.1,3.9-4.1c2.5,0,3.7,1.8,3.7,4.1c0,0.1,0,0.3,0,0.4C447.3,67.8,440.9,67.8,440.9,67.8z
					 M446.2,66.8c-0.1-1.4-1.1-2.5-2.6-2.5c-1.4,0-2.5,1.1-2.7,2.5H446.2z"/>
				<path class="st4" d="M455.5,59.8c0.5,0,0.9,0.4,0.9,0.9s-0.4,0.9-0.9,0.9s-0.9-0.4-0.9-0.9C454.7,60.2,455.1,59.8,455.5,59.8z
					 M456.1,63.5v7.9H455v-7.9H456.1z"/>
				<path class="st4" d="M465.2,66.8c0-1.4-0.7-2.4-2.2-2.4c-1.4,0-2.4,1.1-2.4,2.5v4.5h-1.2v-7.9h1.1V65c0.6-1.1,1.6-1.6,2.7-1.6
					c1.9,0,3,1.3,3,3.2v4.9H465v-4.7H465.2z"/>
				<path class="st4" d="M470.1,69.4v-4.9h-1.5v-1h1.5v-2.3h1.1v2.3h2v1h-2v4.8c0,0.7,0.4,1.1,1.3,1.1c0.3,0,0.5,0,0.7-0.1v1
					c-0.2,0.1-0.7,0.1-0.9,0.1C470.6,71.5,470.1,70.5,470.1,69.4z"/>
				<path class="st4" d="M477.1,65.1c0.6-1.2,1.6-1.7,2.6-1.7c0.1,0,0.3,0,0.4,0v1.2c-0.1,0-0.3,0-0.4,0c-1.9,0-2.5,1.5-2.5,3v3.9
					H476v-7.9h1.1V65.1z"/>
				<path class="st4" d="M481.5,67.5c0-2.3,1.8-4.1,4.1-4.1c2.3,0,4.1,1.8,4.1,4.1c0,2.3-1.8,4.1-4.1,4.1S481.5,69.7,481.5,67.5z
					 M488.5,67.5c0-1.7-1.2-3.1-2.9-3.1c-1.7,0-2.9,1.4-2.9,3.1s1.2,3.1,2.9,3.1C487.3,70.5,488.5,69.1,488.5,67.5z"/>
				<path class="st4" d="M495.6,63.4c1.5,0,2.4,0.9,3.1,1.8v-5.8h1.1v12.1h-1.1v-1.7c-0.6,1-1.6,1.8-3.1,1.8c-2.3,0-3.7-1.9-3.7-4.1
					C491.9,65.4,493.4,63.4,495.6,63.4z M498.7,67.4c0-1.6-1.2-3-2.9-3c-1.7,0-2.8,1.4-2.8,3.1c0,1.6,1,3,2.8,3
					C497.5,70.5,498.7,69.1,498.7,67.4z"/>
				<path class="st4" d="M504.3,68.1c0,1.4,0.7,2.4,2.2,2.4c1.4,0,2.4-1.1,2.4-2.5v-4.5h1.1v7.9h-1.1V70c-0.6,1.1-1.6,1.6-2.7,1.6
					c-1.9,0-3-1.3-3-3.2v-4.9h1.1V68.1z"/>
				<path class="st4" d="M516.8,70.5c1.8,0,2.4-1.3,2.6-1.9l1.1,0.4c-0.4,1.2-1.7,2.6-3.7,2.6c-2.3,0-4-1.7-4-4.1s1.9-4.1,4.1-4.1
					c1.8,0,3.3,1.2,3.6,2.5l-1.1,0.3c-0.2-0.6-1-1.8-2.6-1.8c-1.7,0-2.9,1.4-2.9,3S515,70.5,516.8,70.5z"/>
				<path class="st4" d="M523.8,67.8c0.1,1.5,1.3,2.7,2.8,2.7c1.2,0,2.1-0.6,2.5-1.7l1,0.3c-0.5,1.5-1.9,2.4-3.5,2.4
					c-2.3,0-4-1.8-4-4.1c0-2.2,1.6-4.1,3.9-4.1c2.5,0,3.7,1.8,3.7,4.1c0,0.1,0,0.3,0,0.4C530.2,67.8,523.8,67.8,523.8,67.8z
					 M529.1,66.8c-0.1-1.4-1.1-2.5-2.6-2.5c-1.4,0-2.5,1.1-2.7,2.5H529.1z"/>
				<path class="st4" d="M536.1,63.4c1.5,0,2.4,0.9,3.1,1.8v-5.8h1.1v12.1h-1.1v-1.7c-0.6,1-1.6,1.8-3.1,1.8c-2.3,0-3.7-1.9-3.7-4.1
					C532.4,65.4,533.9,63.4,536.1,63.4z M539.2,67.4c0-1.6-1.2-3-2.9-3s-2.8,1.4-2.8,3.1c0,1.6,1,3,2.8,3S539.2,69.1,539.2,67.4z"/>
				<path class="st4" d="M435,84.6c0-1.4-0.7-2.4-2.2-2.4c-1.4,0-2.4,1.1-2.4,2.5v4.5h-1.2v-7.9h1.1v1.5c0.6-1.1,1.6-1.6,2.7-1.6
					c1.9,0,3,1.3,3,3.2v4.9h-1V84.6z"/>
				<path class="st4" d="M440,85.6c0.1,1.5,1.3,2.7,2.8,2.7c1.2,0,2.1-0.6,2.5-1.7l1,0.3c-0.5,1.5-1.9,2.4-3.5,2.4
					c-2.3,0-4-1.8-4-4.1c0-2.2,1.6-4.1,3.9-4.1c2.5,0,3.7,1.8,3.7,4.1c0,0.1,0,0.3,0,0.4C446.4,85.6,440,85.6,440,85.6z M445.2,84.7
					c-0.1-1.4-1.1-2.5-2.6-2.5c-1.4,0-2.5,1.1-2.7,2.5H445.2z"/>
				<path class="st4" d="M450.7,89.3l-2.7-7.9h1.2l2.1,6.6l0,0l2.2-6.6h1.2l2.2,6.6l0,0l2.1-6.6h1.2l-2.7,7.9h-1.3l-2.1-6.4l0,0
					l-2.1,6.4H450.7z"/>
				<path class="st4" d="M472.9,84.6c0-1.3-0.6-2.4-2-2.4s-2.2,1.2-2.2,2.5v4.5h-1.2v-7.9h1.1v1.4c0.6-1,1.4-1.5,2.6-1.5
					s2.1,0.5,2.5,1.6c0.7-1,1.5-1.6,2.8-1.6c1.9,0,2.9,1.3,2.9,3.2v4.9h-1.2v-4.6c0-1.3-0.6-2.4-2-2.4s-2.2,1.1-2.2,2.5v4.6h-1.1
					L472.9,84.6L472.9,84.6z"/>
				<path class="st4" d="M483.3,85.6c0.1,1.5,1.3,2.7,2.8,2.7c1.2,0,2.1-0.6,2.5-1.7l1,0.3c-0.5,1.5-1.9,2.4-3.5,2.4
					c-2.3,0-4-1.8-4-4.1c0-2.2,1.6-4.1,3.9-4.1c2.5,0,3.7,1.8,3.7,4.1c0,0.1,0,0.3,0,0.4C489.7,85.6,483.3,85.6,483.3,85.6z
					 M488.6,84.7c-0.1-1.4-1.1-2.5-2.6-2.5c-1.4,0-2.5,1.1-2.7,2.5H488.6z"/>
				<path class="st4" d="M497.2,84.1c0-1.3-0.7-1.9-2-1.9s-1.9,0.9-2.1,1.6l-1.1-0.2c0.1-0.7,1-2.4,3.2-2.4c1.7,0,2.5,0.8,2.9,1.6
					c0.2,0.4,0.2,1.1,0.2,1.3v5.1h-1.1v-1.4l0,0c-0.6,1-1.5,1.5-2.7,1.5c-1.6,0-2.7-1-2.7-2.3v0c0-1.7,1.7-2.3,3.1-2.3h2.2v-0.6
					H497.2z M495,85.6c-0.8,0-2,0.3-2,1.3c0,0.9,0.8,1.4,1.7,1.4c1.4,0,2.5-1,2.5-2.5v-0.3L495,85.6L495,85.6z"/>
				<path class="st4" d="M504.1,89.4c-2.2,0-2.9-1.5-3-2.3l1.1-0.3c0.2,0.7,0.7,1.6,1.9,1.6c0.9,0,1.6-0.5,1.6-1.3
					c0-1-1-1.2-1.9-1.3c-1.3-0.2-2.6-0.7-2.6-2.2s1.4-2.4,2.7-2.4c2.1,0,2.8,1.4,2.9,2.2l-1.1,0.3c-0.1-0.5-0.6-1.4-1.8-1.4
					c-0.9,0-1.5,0.6-1.5,1.3c0,1,1.1,1.1,1.9,1.2c1.3,0.2,2.6,0.8,2.6,2.3C506.9,88.5,505.6,89.4,504.1,89.4z"/>
				<path class="st4" d="M510.7,85.9c0,1.4,0.7,2.4,2.2,2.4c1.4,0,2.4-1.1,2.4-2.5v-4.5h1.1v7.9h-1.1v-1.5c-0.6,1.1-1.6,1.6-2.7,1.6
					c-1.9,0-3-1.3-3-3.2v-4.9h1.1L510.7,85.9L510.7,85.9z"/>
				<path class="st4" d="M521,82.9c0.6-1.2,1.6-1.7,2.6-1.7c0.1,0,0.3,0,0.4,0v1.2c-0.1,0-0.3,0-0.4,0c-1.9,0-2.5,1.5-2.5,3v3.9
					h-1.2v-7.9h1.1L521,82.9L521,82.9z"/>
				<path class="st4" d="M526.5,85.6c0.1,1.5,1.3,2.7,2.8,2.7c1.2,0,2.1-0.6,2.5-1.7l1,0.3c-0.5,1.5-1.9,2.4-3.5,2.4
					c-2.3,0-4-1.8-4-4.1c0-2.2,1.6-4.1,3.9-4.1c2.5,0,3.7,1.8,3.7,4.1c0,0.1,0,0.3,0,0.4C532.9,85.6,526.5,85.6,526.5,85.6z
					 M531.8,84.7c-0.1-1.4-1.1-2.5-2.6-2.5c-1.4,0-2.5,1.1-2.7,2.5H531.8z"/>
				<path class="st4" d="M538.1,89.4c-2.2,0-2.9-1.5-3-2.3l1.1-0.3c0.2,0.7,0.7,1.6,1.9,1.6c0.9,0,1.6-0.5,1.6-1.3
					c0-1-1-1.2-1.9-1.3c-1.3-0.2-2.6-0.7-2.6-2.2s1.4-2.4,2.7-2.4c2.1,0,2.8,1.4,2.9,2.2l-1.1,0.3c-0.1-0.5-0.6-1.4-1.8-1.4
					c-0.9,0-1.5,0.6-1.5,1.3c0,1,1.1,1.1,1.9,1.2c1.3,0.2,2.6,0.8,2.6,2.3C540.9,88.5,539.6,89.4,538.1,89.4z"/>
			</g>
			<g>
				<g>
					<path class="st5" d="M688.3,207.6c0-71.2-56.3-129.2-126.9-132"/>
					<g>
						<polygon class="st4" points="562.1,81.7 562.5,69.6 556.2,75.5 						"/>
					</g>
				</g>
			</g>
		</g>
	</g>
</g>
<g>
	<path d="M832.5,116.4l-3.3,1.9l-0.6-1.1l3.9-2.4h1.4v13.6h-1.4V116.4z"/>
	<path d="M845.1,121.8c-0.9,1.5-2.7,2.1-3.9,2.1c-2.9,0-4.5-2.2-4.5-4.4c0-3.1,2.4-4.7,4.8-4.7c1.5,0,3.2,0.9,4,2.3
		c0.7,1.2,0.9,2.3,0.9,3.8c0,4.4-2.2,7.7-6.4,7.7c-0.7,0-2.2-0.2-3.1-0.8l0.5-1.3c0.9,0.6,2,0.7,2.6,0.7
		C843.2,127.3,844.9,124.9,845.1,121.8z M843.8,121.7c0.7-0.5,1.1-1.5,1.1-2.4c0-2-1.7-3.2-3.4-3.2c-1.7,0-3.4,1.1-3.4,3.3
		c0,1.7,1.2,3.2,3.3,3.2C842.3,122.6,843.2,122.3,843.8,121.7z"/>
	<path d="M857,127.8v10.7h-2.4v-23.3h2.4v10.3h13.3v-10.3h2.4v23.3h-2.4v-10.7H857z"/>
	<path d="M888.2,128.2c0-2.6-1.4-3.9-4.1-3.9c-2.7,0-3.9,1.7-4.2,3.2l-2.2-0.5c0.1-1.3,1.9-4.8,6.5-4.8c3.4,0,5,1.5,5.8,3.3
		c0.4,0.9,0.5,2.1,0.5,2.6v10.3h-2.3v-2.8h0c-1.3,2-3,3.1-5.4,3.1c-3.2,0-5.3-2-5.3-4.7v-0.2c0-3.5,3.5-4.6,6.3-4.6h4.4V128.2z
		 M883.8,131.2c-1.7,0-3.9,0.5-3.9,2.7c0,1.8,1.5,2.8,3.4,2.8c2.8,0,4.9-2,4.9-4.9v-0.6H883.8z"/>
	<path d="M893.2,122.5h2.6l5.5,13.4l5.5-13.4h2.5l-6.8,15.9H900L893.2,122.5z"/>
	<path d="M913.2,131.2c0.2,3.1,2.6,5.5,5.7,5.5c2.4,0,4.2-1.2,4.9-3.4l2.1,0.7c-1,3.1-3.8,4.8-7,4.8c-4.6,0-8.1-3.7-8.1-8.3
		c0-4.3,3.3-8.2,7.7-8.2c4.9,0,7.5,3.5,7.5,8.2c0,0.3,0,0.5,0,0.8H913.2z M923.7,129.2c-0.3-2.9-2.1-4.9-5.2-4.9
		c-2.8,0-5,2.3-5.4,4.9H923.7z"/>
	<path d="M943,137.4l-7.2-14.8h2.7l5.8,12.3l5.5-12.3h2.5l-10.9,23.8h-2.5L943,137.4z"/>
	<path d="M953.7,130.6c0-4.7,3.5-8.3,8.3-8.3c4.6,0,8.2,3.6,8.2,8.2c0,4.7-3.6,8.3-8.3,8.3C957.3,138.7,953.7,135.1,953.7,130.6z
		 M967.8,130.6c0-3.3-2.4-6.3-5.9-6.3c-3.5,0-5.8,2.8-5.8,6.1c0,3.3,2.4,6.2,5.9,6.2C965.4,136.7,967.8,133.9,967.8,130.6z"/>
	<path d="M976.4,131.8c0,2.8,1.5,4.8,4.4,4.8c2.8,0,4.7-2.2,4.7-5v-9.1h2.3v15.9h-2.3v-2.9c-1.3,2.2-3.1,3.2-5.5,3.2
		c-3.9,0-6-2.7-6-6.4v-9.8h2.3V131.8z"/>
	<path d="M1009.9,138.7c-2.9,0-4.9-1.5-6.1-3.5v11.1h-2.3v-23.8h2.3v3.5c1.3-2,3.2-3.7,6.2-3.7c4.5,0,7.5,4.1,7.5,8.2
		C1017.3,134.8,1014.4,138.7,1009.9,138.7z M1015,130.5c0-3.3-2.1-6.2-5.6-6.2c-3.3,0-5.7,2.9-5.7,6.1c0,3.3,2.3,6.2,5.7,6.2
		C1012.9,136.6,1015,133.9,1015,130.5z"/>
	<path d="M1023.6,131.8c0,2.8,1.5,4.8,4.4,4.8c2.8,0,4.7-2.2,4.7-5v-9.1h2.3v15.9h-2.3v-2.9c-1.3,2.2-3.1,3.2-5.5,3.2
		c-3.9,0-6-2.7-6-6.4v-9.8h2.3V131.8z"/>
	<path d="M1041.4,134.3v-9.7h-3v-2.1h3v-4.6h2.3v4.6h4v2.1h-4v9.7c0,1.4,0.8,2.2,2.6,2.2c0.5,0,1.1,0,1.4-0.1v1.9
		c-0.5,0.1-1.4,0.2-1.8,0.2C1042.4,138.6,1041.4,136.7,1041.4,134.3z"/>
	<path d="M1069.5,128.2c0-2.6-1.4-3.9-4.1-3.9c-2.7,0-3.9,1.7-4.2,3.2l-2.2-0.5c0.1-1.3,1.9-4.8,6.5-4.8c3.4,0,5,1.5,5.8,3.3
		c0.4,0.9,0.5,2.1,0.5,2.6v10.3h-2.3v-2.8h0c-1.3,2-3,3.1-5.4,3.1c-3.2,0-5.3-2-5.3-4.7v-0.2c0-3.5,3.5-4.6,6.3-4.6h4.4V128.2z
		 M1065.1,131.2c-1.7,0-3.9,0.5-3.9,2.7c0,1.8,1.5,2.8,3.4,2.8c2.8,0,4.9-2,4.9-4.9v-0.6H1065.1z"/>
	<path d="M1088.3,129.2c0-2.8-1.5-4.8-4.4-4.8c-2.8,0-4.7,2.2-4.7,5v9.1h-2.3v-15.9h2.3v2.9c1.3-2.1,3.1-3.2,5.5-3.2
		c3.9,0,6,2.7,6,6.4v9.8h-2.3V129.2z"/>
	<path d="M1100.4,137.4l-7.2-14.8h2.7l5.8,12.3l5.5-12.3h2.5l-10.9,23.8h-2.5L1100.4,137.4z"/>
	<path d="M1130.2,128.2c0-2.6-1.4-3.9-4.1-3.9c-2.7,0-3.9,1.7-4.2,3.2l-2.2-0.5c0.1-1.3,1.9-4.8,6.5-4.8c3.4,0,5,1.5,5.8,3.3
		c0.4,0.9,0.5,2.1,0.5,2.6v10.3h-2.3v-2.8h0c-1.3,2-3,3.1-5.4,3.1c-3.2,0-5.3-2-5.3-4.7v-0.2c0-3.5,3.5-4.6,6.3-4.6h4.4V128.2z
		 M1125.7,131.2c-1.7,0-3.9,0.5-3.9,2.7c0,1.8,1.5,2.8,3.4,2.8c2.8,0,4.9-2,4.9-4.9v-0.6H1125.7z"/>
	<path d="M1143.8,122.3c3.1,0,4.9,1.7,6.2,3.6v-11.7h2.3v24.3h-2.3v-3.4c-1.2,2-3.1,3.6-6.2,3.6c-4.6,0-7.5-3.9-7.5-8.2
		C1136.4,126.3,1139.3,122.3,1143.8,122.3z M1150,130.4c0-3.2-2.4-6.1-5.7-6.1c-3.5,0-5.6,2.8-5.6,6.2c0,3.3,2.1,6.1,5.6,6.1
		C1147.7,136.6,1150,133.7,1150,130.4z"/>
	<path d="M1163.9,122.3c3.1,0,4.9,1.7,6.2,3.6v-11.7h2.3v24.3h-2.3v-3.4c-1.2,2-3.1,3.6-6.2,3.6c-4.6,0-7.5-3.9-7.5-8.2
		C1156.4,126.3,1159.4,122.3,1163.9,122.3z M1170.1,130.4c0-3.2-2.4-6.1-5.7-6.1c-3.5,0-5.6,2.8-5.6,6.2c0,3.3,2.1,6.1,5.6,6.1
		C1167.7,136.6,1170.1,133.7,1170.1,130.4z"/>
	<path d="M1178.8,115.1c1,0,1.8,0.8,1.8,1.8c0,1-0.8,1.7-1.8,1.7c-1,0-1.7-0.8-1.7-1.7C1177.1,115.9,1177.8,115.1,1178.8,115.1z
		 M1180,122.5v15.9h-2.4v-15.9H1180z"/>
	<path d="M1186.3,134.3v-9.7h-3v-2.1h3v-4.6h2.3v4.6h4v2.1h-4v9.7c0,1.4,0.8,2.2,2.6,2.2c0.5,0,1.1,0,1.4-0.1v1.9
		c-0.5,0.1-1.4,0.2-1.8,0.2C1187.3,138.6,1186.3,136.7,1186.3,134.3z"/>
	<path d="M1197.7,115.1c1,0,1.8,0.8,1.8,1.8c0,1-0.8,1.7-1.8,1.7c-1,0-1.7-0.8-1.7-1.7C1196,115.9,1196.8,115.1,1197.7,115.1z
		 M1198.9,122.5v15.9h-2.4v-15.9H1198.9z"/>
	<path d="M1203,130.6c0-4.7,3.5-8.3,8.3-8.3c4.6,0,8.2,3.6,8.2,8.2c0,4.7-3.6,8.3-8.3,8.3C1206.6,138.7,1203,135.1,1203,130.6z
		 M1217.1,130.6c0-3.3-2.4-6.3-5.9-6.3c-3.5,0-5.8,2.8-5.8,6.1c0,3.3,2.4,6.2,5.9,6.2C1214.6,136.7,1217.1,133.9,1217.1,130.6z"/>
	<path d="M1235,129.2c0-2.8-1.5-4.8-4.4-4.8c-2.8,0-4.7,2.2-4.7,5v9.1h-2.3v-15.9h2.3v2.9c1.3-2.1,3.1-3.2,5.5-3.2
		c3.9,0,6,2.7,6,6.4v9.8h-2.3V129.2z"/>
	<path d="M1252,128.2c0-2.6-1.4-3.9-4.1-3.9c-2.7,0-3.9,1.7-4.2,3.2l-2.2-0.5c0.1-1.3,1.9-4.8,6.5-4.8c3.4,0,5,1.5,5.8,3.3
		c0.4,0.9,0.5,2.1,0.5,2.6v10.3h-2.3v-2.8h0c-1.3,2-3,3.1-5.4,3.1c-3.2,0-5.3-2-5.3-4.7v-0.2c0-3.5,3.5-4.6,6.3-4.6h4.4V128.2z
		 M1247.5,131.2c-1.7,0-3.9,0.5-3.9,2.7c0,1.8,1.5,2.8,3.4,2.8c2.8,0,4.9-2,4.9-4.9v-0.6H1247.5z"/>
	<path d="M1261.6,114.2v24.3h-2.4v-24.3H1261.6z"/>
	<path d="M1286.1,129.1c0-2.6-1.3-4.8-4.1-4.8c-2.8,0-4.4,2.4-4.4,5v9.1h-2.3v-15.9h2.3v2.8c1.3-1.9,2.7-3.1,5.1-3.1
		c2.3,0,4.1,1.1,5.1,3.2c1.3-2.1,3.1-3.2,5.6-3.2c3.8,0,5.9,2.7,5.9,6.3v9.8h-2.3v-9.3c0-2.7-1.2-4.8-4.1-4.8
		c-2.8,0-4.4,2.3-4.4,4.9v9.2h-2.3V129.1z"/>
	<path d="M1305.5,131.2c0.2,3.1,2.6,5.5,5.7,5.5c2.4,0,4.2-1.2,4.9-3.4l2.1,0.7c-1,3.1-3.8,4.8-7,4.8c-4.6,0-8.1-3.7-8.1-8.3
		c0-4.3,3.3-8.2,7.8-8.2c4.9,0,7.5,3.5,7.5,8.2c0,0.3,0,0.5,0,0.8H1305.5z M1316,129.2c-0.3-2.9-2.1-4.9-5.2-4.9
		c-2.8,0-5,2.3-5.4,4.9H1316z"/>
	<path d="M1332,128.2c0-2.6-1.4-3.9-4.1-3.9c-2.7,0-3.9,1.7-4.2,3.2l-2.2-0.5c0.1-1.3,1.9-4.8,6.5-4.8c3.4,0,5,1.5,5.8,3.3
		c0.4,0.9,0.5,2.1,0.5,2.6v10.3h-2.3v-2.8h0c-1.3,2-3,3.1-5.4,3.1c-3.2,0-5.3-2-5.3-4.7v-0.2c0-3.5,3.5-4.6,6.3-4.6h4.4V128.2z
		 M1327.5,131.2c-1.7,0-3.9,0.5-3.9,2.7c0,1.8,1.5,2.8,3.4,2.8c2.8,0,4.9-2,4.9-4.9v-0.6H1327.5z"/>
	<path d="M1344.1,138.7c-4.3,0-5.8-2.9-6.1-4.7l2.1-0.5c0.3,1.4,1.4,3.2,3.9,3.2c1.7,0,3.3-0.9,3.3-2.6c0-1.9-2.1-2.4-3.7-2.6
		c-2.7-0.4-5.2-1.3-5.2-4.4c0-3,2.7-4.7,5.3-4.7c4.2,0,5.5,2.8,5.8,4.3l-2.1,0.5c-0.3-1.1-1.1-2.8-3.7-2.8c-1.7,0-3,1.2-3,2.5
		c0,2,2.1,2.3,3.8,2.5c2.6,0.3,5.2,1.7,5.2,4.6C1349.8,136.8,1347.2,138.7,1344.1,138.7z"/>
	<path d="M1356,131.8c0,2.8,1.5,4.8,4.4,4.8c2.8,0,4.7-2.2,4.7-5v-9.1h2.3v15.9h-2.3v-2.9c-1.3,2.2-3.1,3.2-5.5,3.2
		c-3.9,0-6-2.7-6-6.4v-9.8h2.3V131.8z"/>
	<path d="M1375.1,125.7c1.2-2.5,3.3-3.4,5.1-3.4c0.1,0,0.6,0,0.8,0v2.5c-0.3,0-0.6-0.1-0.9-0.1c-3.8,0-5,3.1-5,5.9v7.8h-2.3v-15.9
		h2.3V125.7z"/>
	<path d="M1384.7,131.2c0.2,3.1,2.6,5.5,5.7,5.5c2.4,0,4.2-1.2,4.9-3.4l2.1,0.7c-1,3.1-3.8,4.8-7,4.8c-4.6,0-8.1-3.7-8.1-8.3
		c0-4.3,3.3-8.2,7.8-8.2c4.9,0,7.5,3.5,7.5,8.2c0,0.3,0,0.5,0,0.8H1384.7z M1395.3,129.2c-0.3-2.9-2.1-4.9-5.2-4.9
		c-2.8,0-5,2.3-5.4,4.9H1395.3z"/>
	<path d="M1406.5,138.7c-4.3,0-5.8-2.9-6.1-4.7l2.1-0.5c0.3,1.4,1.4,3.2,3.9,3.2c1.7,0,3.3-0.9,3.3-2.6c0-1.9-2.1-2.4-3.7-2.6
		c-2.7-0.4-5.2-1.3-5.2-4.4c0-3,2.7-4.7,5.3-4.7c4.2,0,5.5,2.8,5.8,4.3l-2.1,0.5c-0.3-1.1-1.1-2.8-3.7-2.8c-1.7,0-3,1.2-3,2.5
		c0,2,2.1,2.3,3.8,2.5c2.6,0.3,5.2,1.7,5.2,4.6C1412.1,136.8,1409.5,138.7,1406.5,138.7z"/>
	<path d="M859.4,150.9c1,0,1.8,0.8,1.8,1.8c0,1-0.8,1.7-1.8,1.7c-1,0-1.7-0.8-1.7-1.7C857.7,151.6,858.5,150.9,859.4,150.9z
		 M860.6,158.3v15.9h-2.4v-15.9H860.6z"/>
	<path d="M877.4,165c0-2.8-1.5-4.8-4.4-4.8c-2.8,0-4.7,2.2-4.7,5v9.1h-2.3v-15.9h2.3v2.9c1.3-2.1,3.1-3.2,5.5-3.2c3.9,0,6,2.7,6,6.4
		v9.8h-2.3V165z"/>
	<path d="M901.5,174.5c-3,0-4.9-1.5-6.1-3.5v11.1H893v-23.8h2.3v3.5c1.3-2,3.2-3.7,6.2-3.7c4.5,0,7.5,4.1,7.5,8.2
		C909,170.5,906,174.5,901.5,174.5z M906.6,166.3c0-3.3-2.1-6.2-5.6-6.2c-3.3,0-5.7,2.9-5.7,6.1c0,3.3,2.3,6.2,5.7,6.2
		C904.5,172.4,906.6,169.7,906.6,166.3z"/>
	<path d="M915.5,149.9v24.3h-2.4v-24.3H915.5z"/>
	<path d="M930.3,164c0-2.6-1.4-3.9-4.1-3.9c-2.7,0-3.9,1.7-4.2,3.2l-2.2-0.5c0.1-1.3,1.9-4.8,6.5-4.8c3.4,0,5,1.5,5.8,3.3
		c0.4,0.9,0.5,2.1,0.5,2.6v10.3h-2.3v-2.8h0c-1.3,2-3,3.1-5.4,3.1c-3.2,0-5.3-2-5.3-4.7v-0.2c0-3.5,3.5-4.6,6.3-4.6h4.4V164z
		 M925.9,166.9c-1.7,0-3.9,0.5-3.9,2.7c0,1.8,1.5,2.8,3.4,2.8c2.8,0,4.9-2,4.9-4.9v-0.6H925.9z"/>
	<path d="M944.6,172.4c3.5,0,4.9-2.6,5.3-3.8l2.2,0.7c-0.7,2.4-3.3,5.2-7.5,5.2c-4.6,0-8.1-3.4-8.1-8.2c0-4.8,3.7-8.3,8.2-8.3
		c3.7,0,6.6,2.4,7.3,5.1l-2.1,0.7c-0.4-1.2-1.9-3.7-5.2-3.7c-3.4,0-5.8,2.8-5.8,6.1C938.8,169.5,941,172.4,944.6,172.4z"/>
	<path d="M957.1,167c0.2,3.1,2.6,5.5,5.7,5.5c2.4,0,4.2-1.2,4.9-3.4l2.1,0.7c-1,3.1-3.8,4.8-7,4.8c-4.6,0-8.1-3.7-8.1-8.3
		c0-4.3,3.3-8.2,7.7-8.2c4.9,0,7.5,3.5,7.5,8.2c0,0.3,0,0.5,0,0.8H957.1z M967.7,165c-0.3-2.9-2.1-4.9-5.2-4.9c-2.8,0-5,2.3-5.4,4.9
		H967.7z"/>
	<path d="M992,164c0-2.6-1.4-3.9-4.1-3.9c-2.7,0-3.9,1.7-4.2,3.2l-2.2-0.5c0.1-1.3,1.9-4.8,6.5-4.8c3.4,0,5,1.5,5.8,3.3
		c0.4,0.9,0.5,2.1,0.5,2.6v10.3H992v-2.8h0c-1.3,2-3,3.1-5.4,3.1c-3.2,0-5.3-2-5.3-4.7v-0.2c0-3.5,3.5-4.6,6.3-4.6h4.4V164z
		 M987.5,166.9c-1.7,0-3.9,0.5-3.9,2.7c0,1.8,1.5,2.8,3.4,2.8c2.8,0,4.9-2,4.9-4.9v-0.6H987.5z"/>
	<path d="M1010.8,165c0-2.8-1.5-4.8-4.4-4.8c-2.8,0-4.7,2.2-4.7,5v9.1h-2.3V150h2.3v11.2c1.3-2.1,3.1-3.2,5.5-3.2c3.9,0,6,2.7,6,6.4
		v9.8h-2.3V165z"/>
	<path d="M1019.3,167c0.2,3.1,2.6,5.5,5.7,5.5c2.4,0,4.2-1.2,4.9-3.4l2.1,0.7c-1,3.1-3.8,4.8-7,4.8c-4.6,0-8.1-3.7-8.1-8.3
		c0-4.3,3.3-8.2,7.7-8.2c4.9,0,7.5,3.5,7.5,8.2c0,0.3,0,0.5,0,0.8H1019.3z M1029.9,165c-0.3-2.9-2.1-4.9-5.2-4.9
		c-2.8,0-5,2.3-5.4,4.9H1029.9z"/>
	<path d="M1045.8,164c0-2.6-1.4-3.9-4.1-3.9c-2.7,0-3.9,1.7-4.2,3.2l-2.2-0.5c0.1-1.3,1.9-4.8,6.5-4.8c3.4,0,5,1.5,5.8,3.3
		c0.4,0.9,0.5,2.1,0.5,2.6v10.3h-2.3v-2.8h0c-1.3,2-3,3.1-5.4,3.1c-3.2,0-5.3-2-5.3-4.7v-0.2c0-3.5,3.5-4.6,6.3-4.6h4.4V164z
		 M1041.4,166.9c-1.7,0-3.9,0.5-3.9,2.7c0,1.8,1.5,2.8,3.4,2.8c2.8,0,4.9-2,4.9-4.9v-0.6H1041.4z"/>
	<path d="M1059.5,158c3.1,0,4.9,1.7,6.2,3.6V150h2.3v24.3h-2.3v-3.4c-1.2,2-3.1,3.6-6.2,3.6c-4.6,0-7.5-3.9-7.5-8.2
		C1052,162.1,1055,158,1059.5,158z M1065.7,166.2c0-3.2-2.4-6.1-5.7-6.1c-3.5,0-5.6,2.8-5.6,6.2c0,3.3,2.1,6.1,5.6,6.1
		C1063.3,172.4,1065.7,169.5,1065.7,166.2z"/>
	<path d="M1080.4,166.3c0-4.7,3.5-8.3,8.3-8.3c4.6,0,8.2,3.6,8.2,8.2c0,4.7-3.6,8.3-8.3,8.3C1083.9,174.5,1080.4,170.9,1080.4,166.3
		z M1094.4,166.3c0-3.3-2.4-6.3-5.9-6.3c-3.5,0-5.8,2.8-5.8,6.1c0,3.3,2.4,6.2,5.9,6.2C1092,172.4,1094.4,169.6,1094.4,166.3z"/>
	<path d="M1104.1,155.3v3h4.2v2h-4.2v13.9h-2.3v-13.9h-3v-2h3v-3c0-3.7,2.1-5.5,4.9-5.5c0.4,0,1.1,0.1,1.8,0.3v2
		c-0.6-0.2-1.3-0.2-1.7-0.2C1105.6,151.9,1104.1,152.6,1104.1,155.3z"/>
	<path d="M1120.1,170.1v-9.7h-3v-2.1h3v-4.6h2.3v4.6h4v2.1h-4v9.7c0,1.4,0.8,2.2,2.6,2.2c0.5,0,1.1,0,1.4-0.1v1.9
		c-0.5,0.1-1.4,0.2-1.8,0.2C1121.1,174.3,1120.1,172.4,1120.1,170.1z"/>
	<path d="M1141.8,165c0-2.8-1.5-4.8-4.4-4.8c-2.8,0-4.7,2.2-4.7,5v9.1h-2.3V150h2.3v11.2c1.3-2.1,3.1-3.2,5.5-3.2c3.9,0,6,2.7,6,6.4
		v9.8h-2.3V165z"/>
	<path d="M1150.4,167c0.2,3.1,2.6,5.5,5.7,5.5c2.4,0,4.2-1.2,4.9-3.4l2.1,0.7c-1,3.1-3.8,4.8-7,4.8c-4.6,0-8.1-3.7-8.1-8.3
		c0-4.3,3.3-8.2,7.7-8.2c4.9,0,7.5,3.5,7.5,8.2c0,0.3,0,0.5,0,0.8H1150.4z M1160.9,165c-0.3-2.9-2.1-4.9-5.2-4.9
		c-2.8,0-5,2.3-5.4,4.9H1160.9z"/>
	<path d="M1176.8,150.9c1,0,1.8,0.8,1.8,1.8c0,1-0.8,1.7-1.8,1.7c-1,0-1.7-0.8-1.7-1.7C1175,151.6,1175.8,150.9,1176.8,150.9z
		 M1177.9,158.3v15.9h-2.4v-15.9H1177.9z"/>
	<path d="M1194.7,165c0-2.8-1.5-4.8-4.4-4.8c-2.8,0-4.7,2.2-4.7,5v9.1h-2.3v-15.9h2.3v2.9c1.3-2.1,3.1-3.2,5.5-3.2
		c3.9,0,6,2.7,6,6.4v9.8h-2.3V165z"/>
	<path d="M1203,170.1v-9.7h-3v-2.1h3v-4.6h2.3v4.6h4v2.1h-4v9.7c0,1.4,0.8,2.2,2.6,2.2c0.5,0,1.1,0,1.4-0.1v1.9
		c-0.5,0.1-1.4,0.2-1.8,0.2C1204,174.3,1203,172.4,1203,170.1z"/>
	<path d="M1215.5,161.5c1.2-2.5,3.3-3.4,5.1-3.4c0.1,0,0.6,0,0.8,0v2.5c-0.3,0-0.6-0.1-0.9-0.1c-3.8,0-5,3.1-5,5.9v7.8h-2.3v-15.9
		h2.3V161.5z"/>
	<path d="M1222.8,166.3c0-4.7,3.5-8.3,8.3-8.3c4.6,0,8.2,3.6,8.2,8.2c0,4.7-3.6,8.3-8.3,8.3C1226.4,174.5,1222.8,170.9,1222.8,166.3
		z M1236.9,166.3c0-3.3-2.4-6.3-5.9-6.3s-5.8,2.8-5.8,6.1c0,3.3,2.4,6.2,5.9,6.2C1234.5,172.4,1236.9,169.6,1236.9,166.3z"/>
	<path d="M1249.7,158c3.1,0,4.9,1.7,6.2,3.6V150h2.3v24.3h-2.3v-3.4c-1.2,2-3.1,3.6-6.2,3.6c-4.6,0-7.5-3.9-7.5-8.2
		C1242.2,162.1,1245.2,158,1249.7,158z M1255.9,166.2c0-3.2-2.4-6.1-5.7-6.1c-3.5,0-5.6,2.8-5.6,6.2c0,3.3,2.1,6.1,5.6,6.1
		C1253.5,172.4,1255.9,169.5,1255.9,166.2z"/>
	<path d="M1265.5,167.6c0,2.8,1.5,4.8,4.4,4.8c2.8,0,4.7-2.2,4.7-5v-9.1h2.3v15.9h-2.3v-2.9c-1.3,2.2-3.1,3.2-5.5,3.2
		c-3.9,0-6-2.7-6-6.4v-9.8h2.3V167.6z"/>
	<path d="M1289.2,172.4c3.5,0,4.9-2.6,5.3-3.8l2.2,0.7c-0.7,2.4-3.3,5.2-7.5,5.2c-4.6,0-8.1-3.4-8.1-8.2c0-4.8,3.7-8.3,8.2-8.3
		c3.7,0,6.6,2.4,7.3,5.1l-2.1,0.7c-0.4-1.2-1.9-3.7-5.2-3.7c-3.4,0-5.8,2.8-5.8,6.1C1283.5,169.5,1285.6,172.4,1289.2,172.4z"/>
	<path d="M1301.5,170.1v-9.7h-3v-2.1h3v-4.6h2.3v4.6h4v2.1h-4v9.7c0,1.4,0.8,2.2,2.6,2.2c0.5,0,1.1,0,1.4-0.1v1.9
		c-0.5,0.1-1.4,0.2-1.8,0.2C1302.5,174.3,1301.5,172.4,1301.5,170.1z"/>
	<path d="M1312.9,150.9c1,0,1.8,0.8,1.8,1.8c0,1-0.8,1.7-1.8,1.7c-1,0-1.7-0.8-1.7-1.7C1311.1,151.6,1311.9,150.9,1312.9,150.9z
		 M1314.1,158.3v15.9h-2.4v-15.9H1314.1z"/>
	<path d="M1318.1,166.3c0-4.7,3.5-8.3,8.3-8.3c4.6,0,8.2,3.6,8.2,8.2c0,4.7-3.6,8.3-8.3,8.3C1321.7,174.5,1318.1,170.9,1318.1,166.3
		z M1332.2,166.3c0-3.3-2.4-6.3-5.9-6.3s-5.8,2.8-5.8,6.1c0,3.3,2.4,6.2,5.9,6.2C1329.8,172.4,1332.2,169.6,1332.2,166.3z"/>
	<path d="M1350.2,165c0-2.8-1.5-4.8-4.4-4.8c-2.8,0-4.7,2.2-4.7,5v9.1h-2.3v-15.9h2.3v2.9c1.3-2.1,3.1-3.2,5.5-3.2
		c3.9,0,6,2.7,6,6.4v9.8h-2.3V165z"/>
	<path d="M857.1,202.1c0-4.7,3.5-8.3,8.3-8.3c4.6,0,8.2,3.6,8.2,8.2c0,4.7-3.6,8.3-8.3,8.3C860.7,210.3,857.1,206.6,857.1,202.1z
		 M871.2,202.1c0-3.3-2.4-6.3-5.9-6.3c-3.5,0-5.8,2.8-5.8,6.1c0,3.3,2.4,6.2,5.9,6.2C868.8,208.2,871.2,205.4,871.2,202.1z"/>
	<path d="M880.8,191.1v3h4.2v2h-4.2V210h-2.3v-13.9h-3v-2h3v-3c0-3.7,2.1-5.5,4.9-5.5c0.4,0,1.1,0.1,1.8,0.3v2
		c-0.6-0.2-1.3-0.2-1.7-0.2C882.3,187.7,880.8,188.3,880.8,191.1z"/>
	<path d="M896.9,205.9v-9.7h-3v-2.1h3v-4.6h2.3v4.6h4v2.1h-4v9.7c0,1.4,0.8,2.2,2.6,2.2c0.5,0,1.1,0,1.4-0.1v1.9
		c-0.5,0.1-1.4,0.2-1.8,0.2C897.9,210.1,896.9,208.2,896.9,205.9z"/>
	<path d="M918.6,200.7c0-2.8-1.5-4.8-4.4-4.8c-2.8,0-4.7,2.2-4.7,5v9.1h-2.3v-24.3h2.3v11.2c1.3-2.1,3.1-3.2,5.5-3.2
		c3.9,0,6,2.7,6,6.4v9.8h-2.3V200.7z"/>
	<path d="M927.1,202.7c0.2,3.1,2.6,5.5,5.7,5.5c2.4,0,4.2-1.2,4.9-3.4l2.1,0.7c-1,3.1-3.8,4.8-7,4.8c-4.6,0-8.1-3.7-8.1-8.3
		c0-4.3,3.3-8.2,7.7-8.2c4.9,0,7.5,3.5,7.5,8.2c0,0.3,0,0.5,0,0.8H927.1z M937.7,200.8c-0.3-2.9-2.1-4.9-5.2-4.9
		c-2.8,0-5,2.3-5.4,4.9H937.7z"/>
	<path d="M971,194.2c-0.6-1.9-2.8-5.5-8-5.5c-5.3,0-9.1,4.5-9.1,9.6c0,5.3,3.5,9.7,9.2,9.7c4.1,0,8-2.5,8.2-7h-9.7v-2.3h12.4v0.9
		c0,5.9-4.1,10.6-10.9,10.6c-7.1,0-11.7-5.2-11.7-11.8c0-6.7,5-12,11.7-12c5.7,0,9.1,3.3,10.3,6.9L971,194.2z"/>
	<path d="M985.5,186.6c7.3,0,12.3,5,12.3,11.6c0,6.9-5.5,11.7-12.3,11.7h-6.9v-23.3H985.5z M985.4,207.7c5.9,0,9.9-3.9,9.9-9.4
		c0-5.4-3.8-9.4-9.9-9.4H981v18.7H985.4z"/>
	<path d="M1005.1,210h-2.4v-23.3h7.8c5.7,0,8.2,3.4,8.2,7c0,4-3,7.2-8.6,7.2h-4.9V210z M1005.1,198.6h5c4.3,0,6-2.5,6-4.9
		c0-2.3-1.3-4.8-5.9-4.8h-5.2V198.6z"/>
	<path d="M1030.1,200.5h-4.8v9.4h-2.4v-23.3h8.1c5.7,0,8.2,3.2,8.2,6.8c0,4-2.9,6.2-6.4,6.7l7.2,9.9h-3L1030.1,200.5z M1030.8,198.3
		c4.2,0,5.9-2.4,5.9-4.8c0-2.3-1.4-4.6-5.9-4.6h-5.5v9.4H1030.8z"/>
	<path d="M1053.2,186.6c1,0,1.8,0.8,1.8,1.8c0,1-0.8,1.7-1.8,1.7c-1,0-1.7-0.8-1.7-1.7C1051.5,187.4,1052.3,186.6,1053.2,186.6z
		 M1054.4,194.1V210h-2.4v-15.9H1054.4z"/>
	<path d="M1071.2,200.7c0-2.8-1.5-4.8-4.4-4.8c-2.8,0-4.7,2.2-4.7,5v9.1h-2.3v-15.9h2.3v2.9c1.3-2.1,3.1-3.2,5.5-3.2
		c3.9,0,6,2.7,6,6.4v9.8h-2.3V200.7z"/>
	<path d="M1111.8,210h-2.4v-20h0l-8.7,20h-2.2l-8.6-19.9V210h-2.4v-23.3h3.5l8.7,20l8.6-20h3.5V210z"/>
	<path d="M1127.3,199.7c0-2.6-1.4-3.9-4.1-3.9c-2.7,0-3.9,1.7-4.2,3.2l-2.2-0.5c0.1-1.3,1.9-4.8,6.5-4.8c3.4,0,5,1.5,5.8,3.3
		c0.4,0.9,0.5,2.1,0.5,2.6V210h-2.3v-2.8h0c-1.3,2-3,3.1-5.4,3.1c-3.2,0-5.3-2-5.3-4.7v-0.2c0-3.5,3.5-4.6,6.3-4.6h4.4V199.7z
		 M1122.8,202.7c-1.7,0-3.9,0.5-3.9,2.7c0,1.8,1.5,2.8,3.4,2.8c2.8,0,4.9-2,4.9-4.9v-0.6H1122.8z"/>
	<path d="M1139.3,208.9l-7.2-14.8h2.7l5.8,12.3l5.5-12.3h2.5l-10.9,23.8h-2.5L1139.3,208.9z"/>
	<path d="M1158.5,209.3c0-2.7,1.3-5.7,5.4-8.2l3.5-2.2c2.2-1.4,4.1-2.8,4.1-5.5c0-2.4-2.1-4.6-5.1-4.6c-2.6,0-4.2,1.5-4.8,3
		c-0.4,1-0.4,1.9-0.5,2.3l-2.4-0.4c0-3.3,2.8-7.2,7.8-7.2c4.3,0,7.6,3.3,7.6,6.9c0,3.3-1.8,5.3-4.9,7.2l-3.7,2.3c-2,1.3-3.9,2.9-4,5
		h12.8v2.3h-15.8V209.3z"/>
	<path d="M1177.7,198.4c0-5.8,3.3-12,9.8-12c6.4,0,9.6,6.1,9.6,11.9c0,5.8-3.3,12-9.7,12C1181,210.2,1177.7,204.2,1177.7,198.4z
		 M1180.2,198.3c0,4.2,2.1,9.7,7.2,9.7c5,0,7.2-5.4,7.2-9.6c0-4.2-2.2-9.7-7.2-9.7C1182.4,188.7,1180.2,194.1,1180.2,198.3z"/>
	<path d="M1206,189.2l-5.6,3.3l-1.1-1.8l6.8-4.1h2.4V210h-2.4V189.2z"/>
	<path d="M1213.4,203.6c0-2.4,1.7-4.6,4.9-5.7c-2.9-0.8-4.3-3.3-4.3-5.3c0-4.1,4.2-6.2,7.6-6.2c3.5,0,7.7,2.1,7.7,6.2
		c0,2.2-1.6,4.5-4.4,5.3c3.2,0.9,4.9,3.2,4.9,5.7c0,4.3-4.1,6.6-8.2,6.6C1217.6,210.2,1213.4,208.1,1213.4,203.6z M1227.4,203.6
		c0-3.1-3.2-4.5-5.7-4.5c-2.4,0-5.7,1.4-5.7,4.5c0,3.2,3.2,4.5,5.7,4.5C1224.1,208,1227.4,206.7,1227.4,203.6z M1216.4,192.7
		c0,3,3.2,4.3,5.2,4.3c2,0,5.2-1.4,5.2-4.3c0-2.7-3-4.1-5.2-4.1C1219.4,188.6,1216.4,190,1216.4,192.7z"/>
	<path d="M1238.2,203.2c0-0.2,0-0.4,0-0.5c0-2.8,1.7-4.1,3-5.5c1.3-1.4,3-2.7,3-4.7c0-1.9-1.3-3.8-4.4-3.8c-3,0-4.7,2.2-4.5,5.1
		l-2.4-0.1c0-0.2,0-0.4,0-0.7c0-3.8,3.2-6.6,6.9-6.6c4.2,0,6.9,2.9,6.9,6.1c0,2.3-1.4,3.8-3.5,5.9c-1.5,1.5-2.6,2.5-2.7,4.8H1238.2z
		 M1239.2,210.3c1,0,1.7-0.8,1.7-1.8c0-1-0.7-1.7-1.7-1.7c-1,0-1.8,0.8-1.8,1.7C1237.4,209.5,1238.2,210.3,1239.2,210.3z"/>
</g>
</svg>
