<?xml version="1.0" encoding="utf-8"?>
<svg version="1.1" id="Layer_1" xmlns="http://www.w3.org/2000/svg" xmlns:xlink="http://www.w3.org/1999/xlink" x="0px" y="0px"
	 viewBox="0 0 1500 1053" style="enable-background:new 0 0 1500 1053;" xml:space="preserve">
<style type="text/css">
	.st0{fill:none;}
	.st1-dr1{fill:none;stroke:#F6F6F8;stroke-width:2;stroke-linecap:round;stroke-miterlimit:10;}
	.st2-dr1{fill:none;stroke:#F6F6F8;stroke-width:2;stroke-linecap:round;stroke-miterlimit:10;stroke-dasharray:0,10;}
	.st3-dr1{fill:#37C0AA;}
	.st4-dr1{fill:#FFC940;}
	.st5-dr1{opacity:0.73;}
	.st6-dr1{fill:url(#SVGID_1_);}
	.st7-dr1{opacity:0.2;}
	.st8-dr1{fill:url(#SVGID_2_);}
	.st9-dr1{fill:url(#SVGID_3_);}
	.st10-dr1{fill:url(#SVGID_4_);}
	.st11-dr1{fill:url(#SVGID_5_);}
	.st12-dr1{fill:url(#SVGID_6_);}
</style>
<pattern  y="1053" width="240" height="240" patternUnits="userSpaceOnUse" id="white_2" viewBox="1 -241 240 240" style="overflow:visible;">
	<g>
		<rect x="1" y="-241" class="st0" width="240" height="240"/>
		<g>
			<g>
				<line class="st1-dr1" x1="241" y1="-1" x2="241" y2="-1"/>
			</g>
		</g>
		<g>
			<g>
				<line class="st1-dr1" x1="1" y1="-1" x2="1" y2="-1"/>
				<line class="st2-dr1" x1="11" y1="-1" x2="236" y2="-1"/>
				<line class="st1-dr1" x1="241" y1="-1" x2="241" y2="-1"/>
			</g>
		</g>
		<g>
			<g>
				<line class="st1-dr1" x1="1" y1="-1" x2="1" y2="-1"/>
			</g>
		</g>
		<g>
			<g>
				<line class="st1-dr1" x1="241" y1="-241" x2="241" y2="-241"/>
			</g>
			<g>
				<line class="st1-dr1" x1="241" y1="-231" x2="241" y2="-231"/>
			</g>
			<g>
				<line class="st1-dr1" x1="241" y1="-221" x2="241" y2="-221"/>
			</g>
			<g>
				<line class="st1-dr1" x1="241" y1="-211" x2="241" y2="-211"/>
			</g>
			<g>
				<line class="st1-dr1" x1="241" y1="-201" x2="241" y2="-201"/>
			</g>
			<g>
				<line class="st1-dr1" x1="241" y1="-191" x2="241" y2="-191"/>
			</g>
			<g>
				<line class="st1-dr1" x1="241" y1="-181" x2="241" y2="-181"/>
			</g>
			<g>
				<line class="st1-dr1" x1="241" y1="-171" x2="241" y2="-171"/>
			</g>
			<g>
				<line class="st1-dr1" x1="241" y1="-161" x2="241" y2="-161"/>
			</g>
			<g>
				<line class="st1-dr1" x1="241" y1="-151" x2="241" y2="-151"/>
			</g>
			<g>
				<line class="st1-dr1" x1="241" y1="-141" x2="241" y2="-141"/>
			</g>
			<g>
				<line class="st1-dr1" x1="241" y1="-131" x2="241" y2="-131"/>
			</g>
			<g>
				<line class="st1-dr1" x1="241" y1="-121" x2="241" y2="-121"/>
			</g>
			<g>
				<line class="st1-dr1" x1="241" y1="-111" x2="241" y2="-111"/>
			</g>
			<g>
				<line class="st1-dr1" x1="241" y1="-101" x2="241" y2="-101"/>
			</g>
			<g>
				<line class="st1-dr1" x1="241" y1="-91" x2="241" y2="-91"/>
			</g>
			<g>
				<line class="st1-dr1" x1="241" y1="-81" x2="241" y2="-81"/>
			</g>
			<g>
				<line class="st1-dr1" x1="241" y1="-71" x2="241" y2="-71"/>
			</g>
			<g>
				<line class="st1-dr1" x1="241" y1="-61" x2="241" y2="-61"/>
			</g>
			<g>
				<line class="st1-dr1" x1="241" y1="-51" x2="241" y2="-51"/>
			</g>
			<g>
				<line class="st1-dr1" x1="241" y1="-41" x2="241" y2="-41"/>
			</g>
			<g>
				<line class="st1-dr1" x1="241" y1="-31" x2="241" y2="-31"/>
			</g>
			<g>
				<line class="st1-dr1" x1="241" y1="-21" x2="241" y2="-21"/>
			</g>
			<g>
				<line class="st1-dr1" x1="241" y1="-11" x2="241" y2="-11"/>
			</g>
			<g>
				<line class="st1-dr1" x1="241" y1="-1" x2="241" y2="-1"/>
			</g>
		</g>
		<g>
			<g>
				<line class="st1-dr1" x1="1" y1="-241" x2="1" y2="-241"/>
				<line class="st2-dr1" x1="11" y1="-241" x2="236" y2="-241"/>
				<line class="st1-dr1" x1="241" y1="-241" x2="241" y2="-241"/>
			</g>
			<g>
				<line class="st1-dr1" x1="1" y1="-231" x2="1" y2="-231"/>
				<line class="st2-dr1" x1="11" y1="-231" x2="236" y2="-231"/>
				<line class="st1-dr1" x1="241" y1="-231" x2="241" y2="-231"/>
			</g>
			<g>
				<line class="st1-dr1" x1="1" y1="-221" x2="1" y2="-221"/>
				<line class="st2-dr1" x1="11" y1="-221" x2="236" y2="-221"/>
				<line class="st1-dr1" x1="241" y1="-221" x2="241" y2="-221"/>
			</g>
			<g>
				<line class="st1-dr1" x1="1" y1="-211" x2="1" y2="-211"/>
				<line class="st2-dr1" x1="11" y1="-211" x2="236" y2="-211"/>
				<line class="st1-dr1" x1="241" y1="-211" x2="241" y2="-211"/>
			</g>
			<g>
				<line class="st1-dr1" x1="1" y1="-201" x2="1" y2="-201"/>
				<line class="st2-dr1" x1="11" y1="-201" x2="236" y2="-201"/>
				<line class="st1-dr1" x1="241" y1="-201" x2="241" y2="-201"/>
			</g>
			<g>
				<line class="st1-dr1" x1="1" y1="-191" x2="1" y2="-191"/>
				<line class="st2-dr1" x1="11" y1="-191" x2="236" y2="-191"/>
				<line class="st1-dr1" x1="241" y1="-191" x2="241" y2="-191"/>
			</g>
			<g>
				<line class="st1-dr1" x1="1" y1="-181" x2="1" y2="-181"/>
				<line class="st2-dr1" x1="11" y1="-181" x2="236" y2="-181"/>
				<line class="st1-dr1" x1="241" y1="-181" x2="241" y2="-181"/>
			</g>
			<g>
				<line class="st1-dr1" x1="1" y1="-171" x2="1" y2="-171"/>
				<line class="st2-dr1" x1="11" y1="-171" x2="236" y2="-171"/>
				<line class="st1-dr1" x1="241" y1="-171" x2="241" y2="-171"/>
			</g>
			<g>
				<line class="st1-dr1" x1="1" y1="-161" x2="1" y2="-161"/>
				<line class="st2-dr1" x1="11" y1="-161" x2="236" y2="-161"/>
				<line class="st1-dr1" x1="241" y1="-161" x2="241" y2="-161"/>
			</g>
			<g>
				<line class="st1-dr1" x1="1" y1="-151" x2="1" y2="-151"/>
				<line class="st2-dr1" x1="11" y1="-151" x2="236" y2="-151"/>
				<line class="st1-dr1" x1="241" y1="-151" x2="241" y2="-151"/>
			</g>
			<g>
				<line class="st1-dr1" x1="1" y1="-141" x2="1" y2="-141"/>
				<line class="st2-dr1" x1="11" y1="-141" x2="236" y2="-141"/>
				<line class="st1-dr1" x1="241" y1="-141" x2="241" y2="-141"/>
			</g>
			<g>
				<line class="st1-dr1" x1="1" y1="-131" x2="1" y2="-131"/>
				<line class="st2-dr1" x1="11" y1="-131" x2="236" y2="-131"/>
				<line class="st1-dr1" x1="241" y1="-131" x2="241" y2="-131"/>
			</g>
			<g>
				<line class="st1-dr1" x1="1" y1="-121" x2="1" y2="-121"/>
				<line class="st2-dr1" x1="11" y1="-121" x2="236" y2="-121"/>
				<line class="st1-dr1" x1="241" y1="-121" x2="241" y2="-121"/>
			</g>
			<g>
				<line class="st1-dr1" x1="1" y1="-111" x2="1" y2="-111"/>
				<line class="st2-dr1" x1="11" y1="-111" x2="236" y2="-111"/>
				<line class="st1-dr1" x1="241" y1="-111" x2="241" y2="-111"/>
			</g>
			<g>
				<line class="st1-dr1" x1="1" y1="-101" x2="1" y2="-101"/>
				<line class="st2-dr1" x1="11" y1="-101" x2="236" y2="-101"/>
				<line class="st1-dr1" x1="241" y1="-101" x2="241" y2="-101"/>
			</g>
			<g>
				<line class="st1-dr1" x1="1" y1="-91" x2="1" y2="-91"/>
				<line class="st2-dr1" x1="11" y1="-91" x2="236" y2="-91"/>
				<line class="st1-dr1" x1="241" y1="-91" x2="241" y2="-91"/>
			</g>
			<g>
				<line class="st1-dr1" x1="1" y1="-81" x2="1" y2="-81"/>
				<line class="st2-dr1" x1="11" y1="-81" x2="236" y2="-81"/>
				<line class="st1-dr1" x1="241" y1="-81" x2="241" y2="-81"/>
			</g>
			<g>
				<line class="st1-dr1" x1="1" y1="-71" x2="1" y2="-71"/>
				<line class="st2-dr1" x1="11" y1="-71" x2="236" y2="-71"/>
				<line class="st1-dr1" x1="241" y1="-71" x2="241" y2="-71"/>
			</g>
			<g>
				<line class="st1-dr1" x1="1" y1="-61" x2="1" y2="-61"/>
				<line class="st2-dr1" x1="11" y1="-61" x2="236" y2="-61"/>
				<line class="st1-dr1" x1="241" y1="-61" x2="241" y2="-61"/>
			</g>
			<g>
				<line class="st1-dr1" x1="1" y1="-51" x2="1" y2="-51"/>
				<line class="st2-dr1" x1="11" y1="-51" x2="236" y2="-51"/>
				<line class="st1-dr1" x1="241" y1="-51" x2="241" y2="-51"/>
			</g>
			<g>
				<line class="st1-dr1" x1="1" y1="-41" x2="1" y2="-41"/>
				<line class="st2-dr1" x1="11" y1="-41" x2="236" y2="-41"/>
				<line class="st1-dr1" x1="241" y1="-41" x2="241" y2="-41"/>
			</g>
			<g>
				<line class="st1-dr1" x1="1" y1="-31" x2="1" y2="-31"/>
				<line class="st2-dr1" x1="11" y1="-31" x2="236" y2="-31"/>
				<line class="st1-dr1" x1="241" y1="-31" x2="241" y2="-31"/>
			</g>
			<g>
				<line class="st1-dr1" x1="1" y1="-21" x2="1" y2="-21"/>
				<line class="st2-dr1" x1="11" y1="-21" x2="236" y2="-21"/>
				<line class="st1-dr1" x1="241" y1="-21" x2="241" y2="-21"/>
			</g>
			<g>
				<line class="st1-dr1" x1="1" y1="-11" x2="1" y2="-11"/>
				<line class="st2-dr1" x1="11" y1="-11" x2="236" y2="-11"/>
				<line class="st1-dr1" x1="241" y1="-11" x2="241" y2="-11"/>
			</g>
			<g>
				<line class="st1-dr1" x1="1" y1="-1" x2="1" y2="-1"/>
				<line class="st2-dr1" x1="11" y1="-1" x2="236" y2="-1"/>
				<line class="st1-dr1" x1="241" y1="-1" x2="241" y2="-1"/>
			</g>
		</g>
		<g>
			<g>
				<line class="st1-dr1" x1="1" y1="-241" x2="1" y2="-241"/>
			</g>
			<g>
				<line class="st1-dr1" x1="1" y1="-231" x2="1" y2="-231"/>
			</g>
			<g>
				<line class="st1-dr1" x1="1" y1="-221" x2="1" y2="-221"/>
			</g>
			<g>
				<line class="st1-dr1" x1="1" y1="-211" x2="1" y2="-211"/>
			</g>
			<g>
				<line class="st1-dr1" x1="1" y1="-201" x2="1" y2="-201"/>
			</g>
			<g>
				<line class="st1-dr1" x1="1" y1="-191" x2="1" y2="-191"/>
			</g>
			<g>
				<line class="st1-dr1" x1="1" y1="-181" x2="1" y2="-181"/>
			</g>
			<g>
				<line class="st1-dr1" x1="1" y1="-171" x2="1" y2="-171"/>
			</g>
			<g>
				<line class="st1-dr1" x1="1" y1="-161" x2="1" y2="-161"/>
			</g>
			<g>
				<line class="st1-dr1" x1="1" y1="-151" x2="1" y2="-151"/>
			</g>
			<g>
				<line class="st1-dr1" x1="1" y1="-141" x2="1" y2="-141"/>
			</g>
			<g>
				<line class="st1-dr1" x1="1" y1="-131" x2="1" y2="-131"/>
			</g>
			<g>
				<line class="st1-dr1" x1="1" y1="-121" x2="1" y2="-121"/>
			</g>
			<g>
				<line class="st1-dr1" x1="1" y1="-111" x2="1" y2="-111"/>
			</g>
			<g>
				<line class="st1-dr1" x1="1" y1="-101" x2="1" y2="-101"/>
			</g>
			<g>
				<line class="st1-dr1" x1="1" y1="-91" x2="1" y2="-91"/>
			</g>
			<g>
				<line class="st1-dr1" x1="1" y1="-81" x2="1" y2="-81"/>
			</g>
			<g>
				<line class="st1-dr1" x1="1" y1="-71" x2="1" y2="-71"/>
			</g>
			<g>
				<line class="st1-dr1" x1="1" y1="-61" x2="1" y2="-61"/>
			</g>
			<g>
				<line class="st1-dr1" x1="1" y1="-51" x2="1" y2="-51"/>
			</g>
			<g>
				<line class="st1-dr1" x1="1" y1="-41" x2="1" y2="-41"/>
			</g>
			<g>
				<line class="st1-dr1" x1="1" y1="-31" x2="1" y2="-31"/>
			</g>
			<g>
				<line class="st1-dr1" x1="1" y1="-21" x2="1" y2="-21"/>
			</g>
			<g>
				<line class="st1-dr1" x1="1" y1="-11" x2="1" y2="-11"/>
			</g>
			<g>
				<line class="st1-dr1" x1="1" y1="-1" x2="1" y2="-1"/>
			</g>
		</g>
		<g>
			<g>
				<line class="st1-dr1" x1="241" y1="-241" x2="241" y2="-241"/>
			</g>
		</g>
		<g>
			<g>
				<line class="st1-dr1" x1="1" y1="-241" x2="1" y2="-241"/>
				<line class="st2-dr1" x1="11" y1="-241" x2="236" y2="-241"/>
				<line class="st1-dr1" x1="241" y1="-241" x2="241" y2="-241"/>
			</g>
		</g>
		<g>
			<g>
				<line class="st1-dr1" x1="1" y1="-241" x2="1" y2="-241"/>
			</g>
		</g>
	</g>
</pattern>
<g id="greenCircleDR1">
	<g>
		<g>
			<path d="M1208,974c0-1.5,0.7-3.2,3-4.6l2-1.2c1.2-0.8,2.3-1.6,2.3-3.1c0-1.3-1.2-2.6-2.9-2.6c-1.4,0-2.3,0.8-2.7,1.7
				c-0.2,0.5-0.3,1.1-0.3,1.3l-1.4-0.2c0-1.8,1.6-4,4.3-4c2.4,0,4.2,1.8,4.2,3.8c0,1.8-1,2.9-2.7,4l-2,1.3c-1.1,0.7-2.2,1.6-2.2,2.8
				h7.2v1.3h-8.8V974z"/>
			<path d="M1219.5,967.9c0-3.2,1.8-6.7,5.5-6.7c3.6,0,5.4,3.4,5.4,6.6s-1.8,6.7-5.4,6.7C1221.3,974.5,1219.5,971.2,1219.5,967.9z
				 M1220.9,967.9c0,2.3,1.2,5.4,4,5.4c2.8,0,4-3,4-5.4c0-2.3-1.2-5.4-4-5.4S1220.9,965.5,1220.9,967.9z"/>
			<path d="M1236.1,962.8l-3.1,1.9l-0.6-1l3.8-2.3h1.3v13h-1.4V962.8z"/>
			<path d="M1240.6,962.6v-1.3h8.9v1.3l-6,11.8h-1.5l6.1-11.8H1240.6z"/>
		</g>
	</g>
	<g>
		<circle class="st3-dr1" cx="1177.7" cy="970" r="15.8"/>
	</g>
</g>
<g id="yellowCircleDR1_2_">
	<g>
		<circle class="st4-dr1" cx="1177.7" cy="924" r="15.8"/>
	</g>
	<g id="yellowCircleDR1">
		<g>
			<g>
				<path d="M1208,928.1c0-1.5,0.7-3.2,3-4.6l2-1.2c1.2-0.8,2.3-1.6,2.3-3.1c0-1.3-1.2-2.6-2.9-2.6c-1.4,0-2.3,0.8-2.7,1.7
					c-0.2,0.5-0.3,1.1-0.3,1.3l-1.4-0.2c0-1.8,1.6-4,4.3-4c2.4,0,4.2,1.8,4.2,3.8c0,1.8-1,2.9-2.7,4l-2,1.3
					c-1.1,0.7-2.2,1.6-2.2,2.8h7.2v1.3h-8.8V928.1z"/>
				<path d="M1219.5,922c0-3.2,1.8-6.7,5.5-6.7c3.6,0,5.4,3.4,5.4,6.6s-1.8,6.7-5.4,6.7C1221.3,928.6,1219.5,925.2,1219.5,922z
					 M1220.9,921.9c0,2.3,1.2,5.4,4,5.4c2.8,0,4-3,4-5.4c0-2.3-1.2-5.4-4-5.4S1220.9,919.6,1220.9,921.9z"/>
				<path d="M1236.1,916.9l-3.1,1.9l-0.6-1l3.8-2.3h1.3v13h-1.4V916.9z"/>
				<path d="M1242.5,921.9c0.9-1.4,2.5-1.9,3.6-1.9c2.7,0,4.4,1.9,4.4,4.2c0,3-2.4,4.4-4.6,4.4c-1.4,0-3.1-0.8-3.9-2.2
					c-0.6-1.1-0.8-2-0.8-3.6c0-4.1,2.2-7.5,6.4-7.5c0.7,0,1.8,0.1,2.7,0.6l-0.5,1.2c-0.7-0.4-1.6-0.5-2.2-0.5
					C1244.5,916.6,1242.8,919,1242.5,921.9z M1243.7,922c-0.6,0.5-1,1.4-1,2.3c0,1.9,1.6,3.1,3.2,3.1c1.6,0,3.2-1.1,3.2-3.1
					c0-1.6-1.2-3-3.2-3C1245.1,921.2,1244.3,921.5,1243.7,922z"/>
			</g>
		</g>
		<g>
			<g class="st5-dr1">
				<pattern  id="SVGID_1_" xlink:href="#white_2" patternTransform="matrix(1.1883 0 0 1.1883 7035.3604 5320.5264)"  class="st5-dr1">
				</pattern>
				<circle class="st6-dr1" cx="1177.7" cy="924" r="15.8"/>
			</g>
			<g class="st7-dr1">
				<pattern  id="SVGID_2_" xlink:href="#white_2" patternTransform="matrix(1.1883 0 0 1.1883 7035.3604 5320.5264)"  class="st7-dr1">
				</pattern>
				<circle class="st8-dr1" cx="1177.7" cy="924" r="15.8"/>
			</g>
		</g>
	</g>
</g>
<g id="yellowChartDR1">
	<g>
		<g>
			<path class="st4-dr1" d="M1275.4,239.4v-3.6h-7.7v-1.7l7.3-9.6h2v10h2.5v1.3h-2.5v3.6H1275.4z M1275.4,234.4v-8.3l-6.4,8.3H1275.4z"
				/>
			<path class="st4-dr1" d="M1283.8,225.9l-0.9,5.1c0.9-0.9,2.5-1.2,3.2-1.2c2.8,0,4.9,1.8,4.9,4.8c0,3.2-2.7,4.9-5.2,4.9
				c-2.5,0-4.8-1.6-5.1-4.1l1.5-0.3c0.2,1.7,1.7,3,3.6,3c1.5,0,3.6-1,3.6-3.4s-1.8-3.5-3.6-3.5c-1.1,0-2.4,0.6-3.1,1.5l-1.4-0.6
				l1.3-7.7h7.8v1.5H1283.8z"/>
			<path class="st4-dr1" d="M1294.5,232.5c-1.1,0-2-0.9-2-1.9c0-1.1,0.9-2,2-2c1.1,0,2,0.9,2,2C1296.4,231.6,1295.5,232.5,1294.5,232.5z
				 M1294.5,229.3c-0.7,0-1.2,0.5-1.2,1.2c0,0.7,0.6,1.2,1.2,1.2s1.2-0.5,1.2-1.2C1295.7,229.9,1295.1,229.3,1294.5,229.3z
				 M1299.2,228.7h0.9l-5.7,8.7h-0.9L1299.2,228.7z M1299.3,237.4c-1.1,0-2-0.9-2-2c0-1.1,0.9-2,2-2s2,0.9,2,2
				C1301.2,236.6,1300.3,237.4,1299.3,237.4z M1299.3,234.3c-0.7,0-1.2,0.5-1.2,1.2c0,0.7,0.5,1.2,1.2,1.2s1.2-0.5,1.2-1.2
				C1300.5,234.8,1299.9,234.3,1299.3,234.3z"/>
		</g>
	</g>
	<g>
		
			<rect x="754.4" y="-200.7" transform="matrix(-1.836970e-16 1 -1 -1.836970e-16 1039.9606 -533.5075)" class="st4-dr1" width="64.6" height="907.9"/>
		<g>
			<pattern  id="SVGID_3_" xlink:href="#white_2" patternTransform="matrix(0 1.1883 -1.1407 0 -19367.3086 688.6743)">
			</pattern>
			<rect x="332.8" y="220.9" class="st9-dr1" width="907.9" height="64.6"/>
		</g>
	</g>
	<g>
		<g>
			<path class="st4-dr1" d="M688.7,438.8l-3.6,2.1l-0.7-1.2l4.3-2.6h1.5V452h-1.6V438.8z"/>
			<path class="st4-dr1" d="M693.4,448c0-1.6,1.1-3,3.1-3.6c-1.8-0.5-2.8-2.1-2.8-3.4c0-2.6,2.7-4,4.9-4c2.2,0,4.9,1.3,4.9,4
				c0,1.4-1,2.9-2.8,3.4c2.1,0.6,3.1,2.1,3.1,3.6c0,2.7-2.6,4.2-5.2,4.2C696.1,452.2,693.4,450.8,693.4,448z M702.3,448
				c0-2-2.1-2.9-3.7-2.9c-1.6,0-3.7,0.9-3.7,2.9c0,2,2,2.9,3.7,2.9C700.2,450.8,702.3,449.9,702.3,448z M695.3,441
				c0,1.9,2.1,2.7,3.3,2.7c1.3,0,3.3-0.9,3.3-2.7c0-1.7-1.9-2.6-3.3-2.6C697.3,438.4,695.3,439.3,695.3,441z"/>
			<path class="st4-dr1" d="M707.4,445.2c-1.1,0-2-0.9-2-1.9c0-1.1,0.9-2,2-2c1.1,0,2,0.9,2,2C709.4,444.3,708.5,445.2,707.4,445.2z
				 M707.4,442c-0.7,0-1.2,0.5-1.2,1.2c0,0.7,0.6,1.2,1.2,1.2s1.2-0.5,1.2-1.2C708.6,442.6,708.1,442,707.4,442z M712.2,441.4h0.9
				l-5.7,8.7h-0.9L712.2,441.4z M712.2,450.1c-1.1,0-2-0.9-2-2c0-1.1,0.9-2,2-2s2,0.9,2,2C714.2,449.2,713.3,450.1,712.2,450.1z
				 M712.2,446.9c-0.7,0-1.2,0.5-1.2,1.2c0,0.7,0.5,1.2,1.2,1.2s1.2-0.5,1.2-1.2C713.4,447.5,712.9,446.9,712.2,446.9z"/>
		</g>
	</g>
	<g>
		<g>
			<path class="st4-dr1" d="M794.1,663.1c0-1.7,0.8-3.6,3.4-5.2l2.3-1.4c1.4-0.9,2.6-1.8,2.6-3.5c0-1.5-1.3-3-3.3-3
				c-1.6,0-2.7,1-3.1,1.9c-0.3,0.6-0.3,1.2-0.3,1.5l-1.6-0.2c0-2.1,1.8-4.6,5-4.6c2.8,0,4.8,2.1,4.8,4.4c0,2.1-1.2,3.4-3.1,4.6
				l-2.3,1.5c-1.3,0.8-2.5,1.8-2.6,3.2h8.2v1.4h-10.1V663.1z"/>
			<path class="st4-dr1" d="M813.3,663.5V660h-7.7v-1.7l7.3-9.6h2v10h2.5v1.3h-2.5v3.6H813.3z M813.3,658.6v-8.3l-6.4,8.3H813.3z"/>
			<path class="st4-dr1" d="M820.3,656.7c-1.1,0-2-0.9-2-1.9c0-1.1,0.9-2,2-2c1.1,0,2,0.9,2,2C822.3,655.8,821.4,656.7,820.3,656.7z
				 M820.3,653.5c-0.7,0-1.2,0.5-1.2,1.2c0,0.7,0.6,1.2,1.2,1.2s1.2-0.5,1.2-1.2C821.5,654.1,821,653.5,820.3,653.5z M825.1,652.9
				h0.9l-5.7,8.7h-0.9L825.1,652.9z M825.1,661.6c-1.1,0-2-0.9-2-1.9c0-1.1,0.9-2,2-2s2,0.9,2,2
				C827.1,660.7,826.2,661.6,825.1,661.6z M825.1,658.4c-0.7,0-1.2,0.5-1.2,1.2c0,0.7,0.5,1.2,1.2,1.2s1.2-0.5,1.2-1.2
				C826.3,659,825.8,658.4,825.1,658.4z"/>
		</g>
	</g>
	<g>
		<g>
			<path class="st4-dr1" d="M599.9,864.2l-3.6,2.1l-0.7-1.2l4.3-2.6h1.5v14.9h-1.6V864.2z"/>
			<path class="st4-dr1" d="M609.6,877.5c-2.6,0-4.8-1.6-5.1-4.1l1.5-0.3c0.3,1.7,1.6,3,3.6,3c2,0,3.6-1.1,3.6-2.8
				c0-1.7-1.3-2.8-3.6-2.8h-1.5v-1.4h1.4c2,0,3.3-1.3,3.3-2.7c0-1.5-1.1-2.6-3.3-2.6c-2,0-3.2,1.2-3.5,2.8l-1.5-0.3
				c0.3-2.1,2.2-3.9,5-3.9c3.2,0,4.8,2,4.8,3.9c0,1.7-1,2.8-2.4,3.4v0c1.7,0.5,2.7,1.8,2.7,3.6C614.8,875.6,612.7,877.5,609.6,877.5
				z"/>
			<path class="st4-dr1" d="M618.3,870.6c-1.1,0-1.9-0.9-1.9-1.9c0-1.1,0.9-2,1.9-2c1.1,0,2,0.9,2,2
				C620.2,869.7,619.4,870.6,618.3,870.6z M618.3,867.4c-0.7,0-1.2,0.5-1.2,1.2c0,0.7,0.6,1.2,1.2,1.2s1.2-0.5,1.2-1.2
				C619.5,867.9,619,867.4,618.3,867.4z M623.1,866.7h0.9l-5.7,8.7h-0.9L623.1,866.7z M623.1,875.5c-1.1,0-2-0.9-2-1.9
				c0-1.1,0.9-2,2-2c1.1,0,2,0.9,2,2C625,874.6,624.2,875.5,623.1,875.5z M623.1,872.3c-0.7,0-1.2,0.5-1.2,1.2
				c0,0.7,0.5,1.2,1.2,1.2s1.2-0.5,1.2-1.2C624.3,872.9,623.8,872.3,623.1,872.3z"/>
		</g>
	</g>
	<g>
		
			<rect x="518.4" y="459.5" transform="matrix(-1.836970e-16 1 -1 -1.836970e-16 1228.0952 126.7174)" class="st4-dr1" width="64.6" height="435.8"/>
		<g>
			<pattern  id="SVGID_4_" xlink:href="#white_2" patternTransform="matrix(0 1.1883 -1.1407 0 -19367.3086 827.6525)">
			</pattern>
			<rect x="332.8" y="645.1" class="st10-dr1" width="435.8" height="64.6"/>
		</g>
	</g>
	<g>
		
			<rect x="463.9" y="302.5" transform="matrix(-1.836970e-16 1 -1 -1.836970e-16 962.1216 -30.3123)" class="st4-dr1" width="64.6" height="326.8"/>
		<g>
			<pattern  id="SVGID_5_" xlink:href="#white_2" patternTransform="matrix(0 1.1883 -1.1407 0 -19367.3086 735.0004)">
			</pattern>
			<rect x="332.8" y="433.6" class="st11-dr1" width="326.8" height="64.6"/>
		</g>
	</g>
	<g>
		
			<rect x="418.5" y="773.3" transform="matrix(-1.836970e-16 1 -1 -1.836970e-16 1342.1028 440.4554)" class="st4-dr1" width="64.6" height="236"/>
		<g>
			<pattern  id="SVGID_6_" xlink:href="#white_2" patternTransform="matrix(0 1.1883 -1.1407 0 -19367.3086 827.6525)">
			</pattern>
			<rect x="332.8" y="859" class="st12-dr1" width="236" height="64.6"/>
		</g>
	</g>
</g>
<g id="greenChartDR1">
	<g>
		<g>
			<path class="st3-dr1" d="M1239.8,348.7v-3.6h-7.7v-1.7l7.3-9.6h2v10h2.5v1.4h-2.5v3.6H1239.8z M1239.8,343.7v-8.3l-6.4,8.3H1239.8z"
				/>
			<path class="st3-dr1" d="M1250.5,348.8c-2.6,0-4.8-1.6-5.1-4.1l1.5-0.3c0.3,1.7,1.6,3,3.6,3c2,0,3.6-1.1,3.6-2.8s-1.3-2.8-3.6-2.8
				h-1.5v-1.4h1.4c2,0,3.3-1.3,3.3-2.7c0-1.5-1.1-2.6-3.3-2.6c-2,0-3.2,1.2-3.5,2.8l-1.5-0.3c0.3-2.1,2.2-3.9,5-3.9
				c3.2,0,4.8,2,4.8,3.9c0,1.7-1,2.8-2.4,3.4v0c1.7,0.5,2.7,1.8,2.7,3.6C1255.6,346.9,1253.6,348.8,1250.5,348.8z"/>
			<path class="st3-dr1" d="M1259.1,341.8c-1.1,0-2-0.9-2-2c0-1.1,0.9-2,2-2c1.1,0,2,0.9,2,2C1261.1,340.9,1260.2,341.8,1259.1,341.8z
				 M1259.1,338.6c-0.7,0-1.2,0.5-1.2,1.2c0,0.7,0.6,1.2,1.2,1.2s1.2-0.5,1.2-1.2C1260.4,339.2,1259.8,338.6,1259.1,338.6z
				 M1263.9,338h0.9l-5.7,8.7h-0.9L1263.9,338z M1264,346.7c-1.1,0-2-0.9-2-1.9c0-1.1,0.9-2,2-2s2,0.9,2,2
				C1265.9,345.9,1265,346.7,1264,346.7z M1264,343.6c-0.7,0-1.2,0.5-1.2,1.2c0,0.7,0.5,1.2,1.2,1.2s1.2-0.5,1.2-1.2
				C1265.2,344.1,1264.6,343.6,1264,343.6z"/>
		</g>
	</g>
	
		<rect x="736.3" y="-117.9" transform="matrix(-1.836970e-16 1 -1 -1.836970e-16 1086.4126 -450.7408)" class="st3-dr1" width="64.6" height="871.6"/>
	<g>
		<g>
			<path class="st3-dr1" d="M815.3,558.8c0-1.7,0.8-3.6,3.4-5.2l2.3-1.4c1.4-0.9,2.6-1.8,2.6-3.5c0-1.5-1.3-3-3.3-3
				c-1.6,0-2.7,1-3.1,1.9c-0.3,0.6-0.3,1.2-0.3,1.5l-1.6-0.2c0-2.1,1.8-4.6,5-4.6c2.8,0,4.8,2.1,4.8,4.4c0,2.1-1.2,3.4-3.1,4.6
				l-2.3,1.5c-1.3,0.8-2.5,1.8-2.6,3.2h8.2v1.4h-10.1V558.8z"/>
			<path class="st3-dr1" d="M830.2,545.9l-0.9,5.1c0.9-0.9,2.5-1.2,3.2-1.2c2.8,0,4.9,1.8,4.9,4.8c0,3.2-2.7,4.9-5.2,4.9
				c-2.5,0-4.8-1.6-5.1-4.1l1.5-0.3c0.2,1.7,1.7,3,3.6,3c1.5,0,3.6-1,3.6-3.4s-1.8-3.5-3.6-3.5c-1.1,0-2.4,0.6-3.1,1.5l-1.4-0.6
				l1.3-7.7h7.8v1.5H830.2z"/>
			<path class="st3-dr1" d="M840.8,552.5c-1.1,0-2-0.9-2-1.9c0-1.1,0.9-2,2-2c1.1,0,2,0.9,2,2C842.8,551.6,841.9,552.5,840.8,552.5z
				 M840.8,549.3c-0.7,0-1.2,0.5-1.2,1.2c0,0.7,0.6,1.2,1.2,1.2s1.2-0.5,1.2-1.2C842.1,549.8,841.5,549.3,840.8,549.3z M845.6,548.6
				h0.9l-5.7,8.7H840L845.6,548.6z M845.7,557.4c-1.1,0-2-0.9-2-1.9c0-1.1,0.9-2,2-2s2,0.9,2,2C847.6,556.5,846.7,557.4,845.7,557.4
				z M845.7,554.2c-0.7,0-1.2,0.5-1.2,1.2c0,0.7,0.5,1.2,1.2,1.2s1.2-0.5,1.2-1.2C846.9,554.7,846.3,554.2,845.7,554.2z"/>
		</g>
	</g>
	<g>
		<g>
			<path class="st3-dr1" d="M745.5,770.4c0-1.7,0.8-3.6,3.4-5.2l2.3-1.4c1.4-0.9,2.6-1.8,2.6-3.5c0-1.5-1.3-3-3.3-3
				c-1.6,0-2.7,1-3.1,1.9c-0.3,0.6-0.3,1.2-0.3,1.5l-1.6-0.2c0-2.1,1.8-4.6,5-4.6c2.8,0,4.8,2.1,4.8,4.4c0,2.1-1.2,3.4-3.1,4.6
				l-2.3,1.5c-1.3,0.8-2.5,1.8-2.6,3.2h8.2v1.4h-10.1V770.4z"/>
			<path class="st3-dr1" d="M761.2,757.6l-3.6,2.1l-0.7-1.2l4.3-2.6h1.5v14.9h-1.6V757.6z"/>
			<path class="st3-dr1" d="M767.2,764c-1.1,0-2-0.9-2-1.9c0-1.1,0.9-2,2-2c1.1,0,2,0.9,2,2C769.1,763.1,768.3,764,767.2,764z
				 M767.2,760.8c-0.7,0-1.2,0.5-1.2,1.2c0,0.7,0.6,1.2,1.2,1.2s1.2-0.5,1.2-1.2C768.4,761.3,767.8,760.8,767.2,760.8z M772,760.1
				h0.9l-5.7,8.7h-0.9L772,760.1z M772,768.9c-1.1,0-2-0.9-2-1.9c0-1.1,0.9-2,2-2s2,0.9,2,2C773.9,768,773.1,768.9,772,768.9z
				 M772,765.7c-0.7,0-1.2,0.5-1.2,1.2c0,0.7,0.5,1.2,1.2,1.2s1.2-0.5,1.2-1.2C773.2,766.3,772.7,765.7,772,765.7z"/>
		</g>
	</g>
	<g>
		<g>
			<path class="st3-dr1" d="M562.9,971.4l-3.6,2.1l-0.7-1.2l4.3-2.6h1.5v14.9h-1.6V971.4z"/>
			<path class="st3-dr1" d="M571,971.4l-3.6,2.1l-0.7-1.2l4.3-2.6h1.5v14.9H571V971.4z"/>
			<path class="st3-dr1" d="M577,977.8c-1.1,0-1.9-0.9-1.9-1.9c0-1.1,0.9-2,1.9-2c1.1,0,2,0.9,2,2C579,977,578.1,977.8,577,977.8z
				 M577,974.7c-0.7,0-1.2,0.5-1.2,1.2c0,0.7,0.6,1.2,1.2,1.2s1.2-0.5,1.2-1.2C578.3,975.2,577.7,974.7,577,974.7z M581.8,974h0.9
				l-5.7,8.7h-0.9L581.8,974z M581.8,982.8c-1.1,0-2-0.9-2-1.9c0-1.1,0.9-2,2-2c1.1,0,2,0.9,2,2
				C583.8,981.9,582.9,982.8,581.8,982.8z M581.8,979.6c-0.7,0-1.2,0.5-1.2,1.2c0,0.7,0.5,1.2,1.2,1.2s1.2-0.5,1.2-1.2
				C583.1,980.1,582.5,979.6,581.8,979.6z"/>
		</g>
	</g>
	
		<rect x="491.1" y="551.4" transform="matrix(-1.836970e-16 1 -1 -1.836970e-16 1265.4686 218.5627)" class="st3-dr1" width="64.6" height="381.3"/>
	
		<rect x="527.3" y="303.8" transform="matrix(-1.836970e-16 1 -1 -1.836970e-16 1090.079 -29.0509)" class="st3-dr1" width="64.6" height="453.5"/>
	
		<rect x="400.4" y="856" transform="matrix(-1.836970e-16 1 -1 -1.836970e-16 1388.5548 523.222)" class="st3-dr1" width="64.6" height="199.7"/>
</g>
<g id="chartTitlesDR1">
	<g>
		<g>
			<path d="M341.9,88v-3.1h-6.8v-1.5l6.4-8.4h1.7v8.7h2.2v1.2h-2.2V88H341.9z M341.9,83.7v-7.3l-5.6,7.3H341.9z"/>
			<path d="M352,87.3v10.2h-2.3V75.2h2.3V85h12.7v-9.9h2.3v22.3h-2.3V87.3H352z"/>
			<path d="M381.9,87.7c0-2.5-1.3-3.7-3.9-3.7c-2.6,0-3.7,1.7-4,3.1l-2.1-0.5c0.1-1.3,1.8-4.6,6.2-4.6c3.2,0,4.8,1.5,5.6,3.1
				c0.3,0.8,0.5,2,0.5,2.5v9.8h-2.2v-2.7h0c-1.2,1.9-2.9,2.9-5.1,2.9c-3.1,0-5.1-1.9-5.1-4.5v-0.2c0-3.3,3.3-4.4,6-4.4h4.2V87.7z
				 M377.6,90.5c-1.6,0-3.8,0.5-3.8,2.6c0,1.7,1.5,2.7,3.3,2.7c2.7,0,4.7-1.9,4.7-4.7v-0.5H377.6z"/>
			<path d="M386.6,82.3h2.5l5.2,12.8l5.3-12.8h2.4l-6.5,15.2h-2.4L386.6,82.3z"/>
			<path d="M405.7,90.5c0.2,3,2.5,5.2,5.4,5.2c2.3,0,4-1.1,4.7-3.3l2,0.6c-0.9,2.9-3.7,4.6-6.7,4.6c-4.4,0-7.7-3.5-7.7-7.9
				c0-4.1,3.1-7.8,7.4-7.8c4.7,0,7.2,3.4,7.2,7.8c0,0.3,0,0.5,0,0.7H405.7z M415.8,88.7c-0.3-2.8-2-4.7-4.9-4.7
				c-2.7,0-4.8,2.2-5.1,4.7H415.8z"/>
			<path d="M434.2,96.5l-6.9-14.2h2.6l5.6,11.8l5.3-11.8h2.4L432.7,105h-2.4L434.2,96.5z"/>
			<path d="M444.5,89.9c0-4.5,3.4-7.9,7.9-7.9c4.4,0,7.8,3.5,7.8,7.8c0,4.5-3.5,7.9-7.9,7.9C447.9,97.7,444.5,94.3,444.5,89.9z
				 M458,89.9c0-3.2-2.3-6-5.6-6c-3.3,0-5.6,2.7-5.6,5.9s2.3,6,5.6,6C455.7,95.8,458,93.1,458,89.9z"/>
			<path d="M466.2,91.1c0,2.7,1.4,4.6,4.2,4.6c2.7,0,4.5-2.1,4.5-4.8v-8.7h2.2v15.2H475v-2.8c-1.2,2.1-3,3.1-5.2,3.1
				c-3.7,0-5.8-2.5-5.8-6.1v-9.4h2.2V91.1z"/>
			<path d="M491.2,93.5v-9.3h-2.8v-2h2.8v-4.4h2.2v4.4h3.8v2h-3.8v9.3c0,1.4,0.8,2.1,2.5,2.1c0.5,0,1,0,1.4-0.1v1.9
				c-0.5,0.1-1.3,0.2-1.7,0.2C492.2,97.6,491.2,95.8,491.2,93.5z"/>
			<path d="M501.8,90.5c0.2,3,2.5,5.2,5.4,5.2c2.3,0,4-1.1,4.7-3.3l2,0.6c-0.9,2.9-3.7,4.6-6.7,4.6c-4.4,0-7.7-3.5-7.7-7.9
				c0-4.1,3.1-7.8,7.4-7.8c4.7,0,7.2,3.4,7.2,7.8c0,0.3,0,0.5,0,0.7H501.8z M511.9,88.7c-0.3-2.8-2-4.7-4.9-4.7
				c-2.7,0-4.8,2.2-5.1,4.7H511.9z"/>
			<path d="M522.6,97.7c-4.1,0-5.5-2.8-5.8-4.5l2.1-0.5c0.3,1.4,1.3,3,3.7,3c1.7,0,3.2-0.9,3.2-2.5c0-1.9-2-2.3-3.6-2.5
				c-2.5-0.4-5-1.3-5-4.2c0-2.9,2.6-4.5,5.1-4.5c4,0,5.3,2.7,5.5,4.1l-2,0.5c-0.3-1-1.1-2.7-3.5-2.7c-1.7,0-2.9,1.1-2.9,2.4
				c0,1.9,2.1,2.2,3.6,2.4c2.5,0.3,5,1.6,5,4.4C528,95.9,525.6,97.7,522.6,97.7z"/>
			<path d="M532.8,93.5v-9.3H530v-2h2.8v-4.4h2.2v4.4h3.9v2H535v9.3c0,1.4,0.8,2.1,2.5,2.1c0.5,0,1,0,1.4-0.1v1.9
				c-0.5,0.1-1.3,0.2-1.7,0.2C533.8,97.6,532.8,95.8,532.8,93.5z"/>
			<path d="M543.4,90.5c0.2,3,2.5,5.2,5.4,5.2c2.3,0,4-1.1,4.7-3.3l2,0.6c-0.9,2.9-3.7,4.6-6.7,4.6c-4.4,0-7.7-3.5-7.7-7.9
				c0-4.1,3.1-7.8,7.4-7.8c4.7,0,7.2,3.4,7.2,7.8c0,0.3,0,0.5,0,0.7H543.4z M553.5,88.7c-0.3-2.8-2-4.7-4.9-4.7
				c-2.7,0-4.8,2.2-5.1,4.7H553.5z"/>
			<path d="M565.7,82c2.9,0,4.7,1.7,5.9,3.5V74.3h2.2v23.2h-2.2v-3.3c-1.2,1.9-3,3.5-5.9,3.5c-4.4,0-7.1-3.7-7.1-7.9
				C558.5,85.9,561.3,82,565.7,82z M571.6,89.8c0-3-2.3-5.8-5.5-5.8c-3.3,0-5.3,2.7-5.3,5.9c0,3.1,2,5.8,5.3,5.8
				C569.3,95.7,571.6,92.9,571.6,89.8z"/>
			<path d="M591.1,96.5l-6.9-14.2h2.6l5.6,11.8l5.3-11.8h2.4L589.6,105h-2.4L591.1,96.5z"/>
			<path d="M601.4,89.9c0-4.5,3.4-7.9,7.9-7.9c4.4,0,7.8,3.5,7.8,7.8c0,4.5-3.5,7.9-7.9,7.9C604.8,97.7,601.4,94.3,601.4,89.9z
				 M614.8,89.9c0-3.2-2.3-6-5.6-6c-3.3,0-5.6,2.7-5.6,5.9s2.3,6,5.6,6C612.5,95.8,614.8,93.1,614.8,89.9z"/>
			<path d="M623.1,91.1c0,2.7,1.4,4.6,4.2,4.6c2.7,0,4.5-2.1,4.5-4.8v-8.7h2.2v15.2h-2.2v-2.8c-1.2,2.1-3,3.1-5.2,3.1
				c-3.7,0-5.8-2.5-5.8-6.1v-9.4h2.2V91.1z"/>
			<path d="M641.3,85.3c1.1-2.4,3.2-3.3,4.9-3.3c0.1,0,0.6,0,0.7,0v2.4c-0.3,0-0.6-0.1-0.9-0.1c-3.6,0-4.8,3-4.8,5.7v7.4h-2.2V82.3
				h2.2V85.3z"/>
			<path d="M663,82c2.9,0,4.7,1.7,5.9,3.5V74.3h2.2v23.2H669v-3.3c-1.2,1.9-3,3.5-5.9,3.5c-4.4,0-7.1-3.7-7.1-7.9
				C655.9,85.9,658.7,82,663,82z M669,89.8c0-3-2.3-5.8-5.5-5.8c-3.3,0-5.3,2.7-5.3,5.9c0,3.1,2,5.8,5.3,5.8
				C666.7,95.7,669,92.9,669,89.8z"/>
			<path d="M677.3,75.1c0.9,0,1.7,0.7,1.7,1.7c0,0.9-0.7,1.7-1.7,1.7c-0.9,0-1.7-0.7-1.7-1.7C675.6,75.9,676.4,75.1,677.3,75.1z
				 M678.4,82.3v15.2h-2.3V82.3H678.4z"/>
			<path d="M688.1,97.7c-4.1,0-5.5-2.8-5.8-4.5l2.1-0.5c0.3,1.4,1.3,3,3.7,3c1.7,0,3.2-0.9,3.2-2.5c0-1.9-2-2.3-3.6-2.5
				c-2.5-0.4-5-1.3-5-4.2c0-2.9,2.6-4.5,5.1-4.5c4,0,5.3,2.7,5.5,4.1l-2,0.5c-0.3-1-1.1-2.7-3.5-2.7c-1.7,0-2.9,1.1-2.9,2.4
				c0,1.9,2.1,2.2,3.6,2.4c2.5,0.3,5,1.6,5,4.4C693.5,95.9,691,97.7,688.1,97.7z"/>
			<path d="M706.6,87.7c0-2.5-1.3-3.7-3.9-3.7c-2.6,0-3.7,1.7-4,3.1l-2.1-0.5c0.1-1.3,1.8-4.6,6.2-4.6c3.2,0,4.8,1.5,5.6,3.1
				c0.3,0.8,0.5,2,0.5,2.5v9.8h-2.2v-2.7h0c-1.2,1.9-2.9,2.9-5.1,2.9c-3.1,0-5.1-1.9-5.1-4.5v-0.2c0-3.3,3.3-4.4,6-4.4h4.2V87.7z
				 M702.4,90.5c-1.6,0-3.8,0.5-3.8,2.6c0,1.7,1.5,2.7,3.3,2.7c2.7,0,4.7-1.9,4.7-4.7v-0.5H702.4z"/>
			<path d="M718.3,97.7c-4.1,0-5.5-2.8-5.8-4.5l2.1-0.5c0.3,1.4,1.3,3,3.7,3c1.7,0,3.2-0.9,3.2-2.5c0-1.9-2-2.3-3.6-2.5
				c-2.5-0.4-5-1.3-5-4.2c0-2.9,2.6-4.5,5.1-4.5c4,0,5.3,2.7,5.5,4.1l-2,0.5c-0.3-1-1.1-2.7-3.5-2.7c-1.7,0-2.9,1.1-2.9,2.4
				c0,1.9,2.1,2.2,3.6,2.4c2.5,0.3,5,1.6,5,4.4C723.7,95.9,721.2,97.7,718.3,97.7z"/>
			<path d="M728.5,93.5v-9.3h-2.8v-2h2.8v-4.4h2.2v4.4h3.8v2h-3.8v9.3c0,1.4,0.8,2.1,2.5,2.1c0.5,0,1,0,1.4-0.1v1.9
				c-0.5,0.1-1.3,0.2-1.7,0.2C729.5,97.6,728.5,95.8,728.5,93.5z"/>
			<path d="M739.1,90.5c0.2,3,2.5,5.2,5.4,5.2c2.3,0,4-1.1,4.7-3.3l2,0.6c-0.9,2.9-3.7,4.6-6.7,4.6c-4.4,0-7.7-3.5-7.7-7.9
				c0-4.1,3.1-7.8,7.4-7.8c4.7,0,7.2,3.4,7.2,7.8c0,0.3,0,0.5,0,0.7H739.1z M749.2,88.7c-0.3-2.8-2-4.7-4.9-4.7
				c-2.7,0-4.8,2.2-5.1,4.7H749.2z"/>
			<path d="M757.5,85.3c1.1-2.4,3.2-3.3,4.9-3.3c0.1,0,0.6,0,0.7,0v2.4c-0.3,0-0.6-0.1-0.9-0.1c-3.6,0-4.8,3-4.8,5.7v7.4h-2.2V82.3
				h2.2V85.3z"/>
			<path d="M775.4,85.3c1.1-2.4,3.2-3.3,4.9-3.3c0.1,0,0.6,0,0.7,0v2.4c-0.3,0-0.6-0.1-0.9-0.1c-3.6,0-4.8,3-4.8,5.7v7.4h-2.2V82.3
				h2.2V85.3z"/>
			<path d="M784.7,90.5c0.2,3,2.5,5.2,5.4,5.2c2.3,0,4-1.1,4.7-3.3l2,0.6c-0.9,2.9-3.7,4.6-6.7,4.6c-4.4,0-7.7-3.5-7.7-7.9
				c0-4.1,3.1-7.8,7.4-7.8c4.7,0,7.2,3.4,7.2,7.8c0,0.3,0,0.5,0,0.7H784.7z M794.8,88.7c-0.3-2.8-2-4.7-4.9-4.7
				c-2.7,0-4.8,2.2-5.1,4.7H794.8z"/>
			<path d="M807.5,95.8c3.4,0,4.6-2.5,5.1-3.7l2.1,0.7c-0.7,2.3-3.2,4.9-7.2,4.9c-4.4,0-7.8-3.3-7.8-7.8c0-4.6,3.6-7.9,7.9-7.9
				c3.5,0,6.4,2.3,7,4.8l-2.1,0.7c-0.3-1.2-1.9-3.5-5-3.5c-3.3,0-5.5,2.7-5.5,5.8C802,92.9,804.1,95.8,807.5,95.8z"/>
			<path d="M817.3,89.9c0-4.5,3.4-7.9,7.9-7.9c4.4,0,7.8,3.5,7.8,7.8c0,4.5-3.5,7.9-7.9,7.9C820.7,97.7,817.3,94.3,817.3,89.9z
				 M830.7,89.9c0-3.2-2.3-6-5.6-6c-3.3,0-5.6,2.7-5.6,5.9s2.3,6,5.6,6C828.4,95.8,830.7,93.1,830.7,89.9z"/>
			<path d="M834.5,82.3h2.5l5.2,12.8l5.3-12.8h2.4l-6.5,15.2H841L834.5,82.3z"/>
			<path d="M853.6,90.5c0.2,3,2.5,5.2,5.4,5.2c2.3,0,4-1.1,4.7-3.3l2,0.6c-0.9,2.9-3.7,4.6-6.7,4.6c-4.4,0-7.7-3.5-7.7-7.9
				c0-4.1,3.1-7.8,7.4-7.8c4.7,0,7.2,3.4,7.2,7.8c0,0.3,0,0.5,0,0.7H853.6z M863.7,88.7c-0.3-2.8-2-4.7-4.9-4.7
				c-2.7,0-4.8,2.2-5.1,4.7H863.7z"/>
			<path d="M872,85.3c1.1-2.4,3.2-3.3,4.9-3.3c0.1,0,0.6,0,0.7,0v2.4c-0.3,0-0.6-0.1-0.9-0.1c-3.6,0-4.8,3-4.8,5.7v7.4h-2.2V82.3
				h2.2V85.3z"/>
			<path d="M885.7,96.5l-6.9-14.2h2.6l5.6,11.8l5.3-11.8h2.4L884.1,105h-2.4L885.7,96.5z"/>
			<path d="M357.7,131.9c-2.8,0-4.6-1.4-5.9-3.4v10.6h-2.2v-22.7h2.2v3.3c1.2-1.9,3-3.6,5.9-3.6c4.3,0,7.2,3.9,7.2,7.8
				C364.8,128.2,362,131.9,357.7,131.9z M362.5,124.1c0-3.2-2-5.9-5.3-5.9c-3.1,0-5.4,2.8-5.4,5.8c0,3.1,2.2,5.9,5.4,5.9
				C360.6,130,362.5,127.3,362.5,124.1z"/>
			<path d="M371,119.5c1.1-2.4,3.2-3.3,4.9-3.3c0.1,0,0.6,0,0.7,0v2.4c-0.3,0-0.6-0.1-0.9-0.1c-3.6,0-4.8,3-4.8,5.7v7.4h-2.2v-15.2
				h2.2V119.5z"/>
			<path d="M377.9,124.1c0-4.5,3.4-7.9,7.9-7.9c4.4,0,7.8,3.5,7.8,7.8c0,4.5-3.5,7.9-7.9,7.9C381.4,132,377.9,128.5,377.9,124.1z
				 M391.4,124.1c0-3.2-2.3-6-5.6-6c-3.3,0-5.6,2.7-5.6,5.9c0,3.2,2.3,6,5.6,6C389.1,130,391.4,127.3,391.4,124.1z"/>
			<path d="M404.3,130c3.4,0,4.6-2.5,5.1-3.7l2.1,0.7c-0.7,2.3-3.2,4.9-7.2,4.9c-4.4,0-7.8-3.3-7.8-7.8c0-4.6,3.6-7.9,7.9-7.9
				c3.5,0,6.4,2.3,7,4.8l-2.1,0.7c-0.3-1.2-1.9-3.5-5-3.5c-3.3,0-5.5,2.7-5.5,5.8C398.8,127.2,400.8,130,404.3,130z"/>
			<path d="M416.3,124.8c0.2,3,2.5,5.2,5.4,5.2c2.3,0,4-1.1,4.7-3.3l2,0.6c-0.9,2.9-3.7,4.6-6.7,4.6c-4.4,0-7.7-3.5-7.7-7.9
				c0-4.1,3.1-7.8,7.4-7.8c4.7,0,7.2,3.4,7.2,7.8c0,0.3,0,0.5,0,0.7H416.3z M426.4,122.9c-0.3-2.8-2-4.7-4.9-4.7
				c-2.7,0-4.8,2.2-5.1,4.7H426.4z"/>
			<path d="M437.1,132c-4.1,0-5.5-2.8-5.8-4.5l2.1-0.5c0.3,1.4,1.3,3,3.7,3c1.7,0,3.2-0.9,3.2-2.5c0-1.9-2-2.3-3.6-2.5
				c-2.5-0.4-5-1.3-5-4.3c0-2.9,2.6-4.5,5.1-4.5c4,0,5.3,2.7,5.5,4.1l-2,0.5c-0.3-1-1.1-2.7-3.5-2.7c-1.7,0-2.9,1.1-2.9,2.4
				c0,1.9,2.1,2.2,3.6,2.4c2.5,0.3,5,1.6,5,4.4C442.5,130.2,440,132,437.1,132z"/>
			<path d="M451.1,132c-4.1,0-5.5-2.8-5.8-4.5l2.1-0.5c0.3,1.4,1.3,3,3.7,3c1.7,0,3.2-0.9,3.2-2.5c0-1.9-2-2.3-3.6-2.5
				c-2.5-0.4-5-1.3-5-4.3c0-2.9,2.6-4.5,5.1-4.5c4,0,5.3,2.7,5.5,4.1l-2,0.5c-0.3-1-1.1-2.7-3.5-2.7c-1.7,0-2.9,1.1-2.9,2.4
				c0,1.9,2.1,2.2,3.6,2.4c2.5,0.3,5,1.6,5,4.4C456.5,130.2,454,132,451.1,132z"/>
			<path d="M461.6,124.8c0.2,3,2.5,5.2,5.4,5.2c2.3,0,4-1.1,4.7-3.3l2,0.6c-0.9,2.9-3.7,4.6-6.7,4.6c-4.4,0-7.7-3.5-7.7-7.9
				c0-4.1,3.1-7.8,7.4-7.8c4.7,0,7.2,3.4,7.2,7.8c0,0.3,0,0.5,0,0.7H461.6z M471.7,122.9c-0.3-2.8-2-4.7-4.9-4.7
				c-2.7,0-4.8,2.2-5.1,4.7H471.7z"/>
			<path d="M482.4,132c-4.1,0-5.5-2.8-5.8-4.5l2.1-0.5c0.3,1.4,1.3,3,3.7,3c1.7,0,3.2-0.9,3.2-2.5c0-1.9-2-2.3-3.6-2.5
				c-2.5-0.4-5-1.3-5-4.3c0-2.9,2.6-4.5,5.1-4.5c4,0,5.3,2.7,5.5,4.1l-2,0.5c-0.3-1-1.1-2.7-3.5-2.7c-1.7,0-2.9,1.1-2.9,2.4
				c0,1.9,2.1,2.2,3.6,2.4c2.5,0.3,5,1.6,5,4.4C487.8,130.2,485.3,132,482.4,132z"/>
			<path d="M500.8,109.3c0.9,0,1.7,0.7,1.7,1.7c0,0.9-0.7,1.7-1.7,1.7c-0.9,0-1.7-0.7-1.7-1.7C499.2,110.1,499.9,109.3,500.8,109.3z
				 M502,116.5v15.2h-2.3v-15.2H502z"/>
			<path d="M518,122.8c0-2.7-1.4-4.6-4.2-4.6c-2.7,0-4.5,2.1-4.5,4.8v8.7H507v-15.2h2.2v2.8c1.2-2.1,3-3.1,5.2-3.1
				c3.7,0,5.8,2.5,5.8,6.1v9.4H518V122.8z"/>
			<path d="M534,127.8v-9.3h-2.8v-2h2.8v-4.4h2.2v4.4h3.8v2h-3.8v9.3c0,1.4,0.8,2.1,2.5,2.1c0.5,0,1,0,1.4-0.1v1.9
				c-0.5,0.1-1.3,0.2-1.7,0.2C535,131.8,534,130,534,127.8z"/>
			<path d="M554.8,122.8c0-2.7-1.4-4.6-4.2-4.6c-2.7,0-4.5,2.1-4.5,4.8v8.7h-2.2v-23.2h2.2v10.7c1.2-2,3-3,5.2-3
				c3.7,0,5.8,2.5,5.8,6.1v9.4h-2.2V122.8z"/>
			<path d="M563,124.8c0.2,3,2.5,5.2,5.4,5.2c2.3,0,4-1.1,4.7-3.3l2,0.6c-0.9,2.9-3.7,4.6-6.7,4.6c-4.4,0-7.7-3.5-7.7-7.9
				c0-4.1,3.1-7.8,7.4-7.8c4.7,0,7.2,3.4,7.2,7.8c0,0.3,0,0.5,0,0.7H563z M573.1,122.9c-0.3-2.8-2-4.7-4.9-4.7
				c-2.7,0-4.8,2.2-5.1,4.7H573.1z"/>
			<path d="M589.4,108.5v23.2h-2.3v-23.2H589.4z"/>
			<path d="M603.6,121.9c0-2.5-1.3-3.7-3.9-3.7c-2.6,0-3.7,1.7-4,3.1l-2.1-0.5c0.1-1.3,1.8-4.6,6.2-4.6c3.2,0,4.8,1.5,5.6,3.1
				c0.3,0.8,0.5,2,0.5,2.5v9.8h-2.2V129h0c-1.2,1.9-2.9,2.9-5.1,2.9c-3.1,0-5.1-1.9-5.1-4.5v-0.2c0-3.3,3.3-4.4,6-4.4h4.2V121.9z
				 M599.3,124.7c-1.6,0-3.8,0.5-3.8,2.6c0,1.7,1.5,2.7,3.3,2.7c2.7,0,4.7-1.9,4.7-4.7v-0.5H599.3z"/>
			<path d="M615.2,132c-4.1,0-5.5-2.8-5.8-4.5l2.1-0.5c0.3,1.4,1.3,3,3.7,3c1.7,0,3.2-0.9,3.2-2.5c0-1.9-2-2.3-3.6-2.5
				c-2.5-0.4-5-1.3-5-4.3c0-2.9,2.6-4.5,5.1-4.5c4,0,5.3,2.7,5.5,4.1l-2,0.5c-0.3-1-1.1-2.7-3.5-2.7c-1.7,0-2.9,1.1-2.9,2.4
				c0,1.9,2.1,2.2,3.6,2.4c2.5,0.3,5,1.6,5,4.4C620.6,130.2,618.2,132,615.2,132z"/>
			<path d="M625.4,127.8v-9.3h-2.8v-2h2.8v-4.4h2.2v4.4h3.9v2h-3.9v9.3c0,1.4,0.8,2.1,2.5,2.1c0.5,0,1,0,1.4-0.1v1.9
				c-0.5,0.1-1.3,0.2-1.7,0.2C626.4,131.8,625.4,130,625.4,127.8z"/>
			<path d="M647.5,130.7l-6.9-14.2h2.6l5.6,11.8l5.3-11.8h2.4L646,139.2h-2.4L647.5,130.7z"/>
			<path d="M660,124.8c0.2,3,2.5,5.2,5.4,5.2c2.3,0,4-1.1,4.7-3.3l2,0.6c-0.9,2.9-3.7,4.6-6.7,4.6c-4.4,0-7.7-3.5-7.7-7.9
				c0-4.1,3.1-7.8,7.4-7.8c4.7,0,7.2,3.4,7.2,7.8c0,0.3,0,0.5,0,0.7H660z M670.1,122.9c-0.3-2.8-2-4.7-4.9-4.7
				c-2.7,0-4.8,2.2-5.1,4.7H670.1z"/>
			<path d="M685.4,121.9c0-2.5-1.3-3.7-3.9-3.7c-2.6,0-3.7,1.7-4,3.1l-2.1-0.5c0.1-1.3,1.8-4.6,6.2-4.6c3.2,0,4.8,1.5,5.6,3.1
				c0.3,0.8,0.5,2,0.5,2.5v9.8h-2.2V129h0c-1.2,1.9-2.9,2.9-5.1,2.9c-3.1,0-5.1-1.9-5.1-4.5v-0.2c0-3.3,3.3-4.4,6-4.4h4.2V121.9z
				 M681.2,124.7c-1.6,0-3.8,0.5-3.8,2.6c0,1.7,1.5,2.7,3.3,2.7c2.7,0,4.7-1.9,4.7-4.7v-0.5H681.2z"/>
			<path d="M694.6,119.5c1.1-2.4,3.2-3.3,4.9-3.3c0.1,0,0.6,0,0.7,0v2.4c-0.3,0-0.6-0.1-0.9-0.1c-3.6,0-4.8,3-4.8,5.7v7.4h-2.2
				v-15.2h2.2V119.5z"/>
			<path d="M707,125.2c0-0.2,0-0.3,0-0.5c0-2.7,1.6-3.9,2.9-5.2c1.3-1.4,2.8-2.6,2.8-4.5c0-1.9-1.3-3.7-4.2-3.7
				c-2.9,0-4.4,2.1-4.3,4.8l-2.3-0.1c0-0.2,0-0.4,0-0.7c0-3.7,3.1-6.3,6.6-6.3c4,0,6.6,2.8,6.6,5.8c0,2.2-1.3,3.7-3.3,5.6
				c-1.5,1.5-2.5,2.4-2.5,4.6H707z M708,132c0.9,0,1.7-0.7,1.7-1.7c0-0.9-0.7-1.7-1.7-1.7c-0.9,0-1.7,0.7-1.7,1.7
				C706.3,131.2,707.1,132,708,132z"/>
		</g>
	</g>
	<g>
		<g>
			<path d="M290.9,222.2l-5.1,7.5v5.5h-1.4v-5.5l-5-7.5h1.6l4.1,6.2l4.2-6.2H290.9z"/>
			<path d="M292.4,231.2c0.1,1.7,1.4,3,3.2,3c1.3,0,2.3-0.6,2.7-1.9l1.2,0.4c-0.5,1.7-2.1,2.7-3.9,2.7c-2.6,0-4.5-2-4.5-4.6
				c0-2.4,1.8-4.6,4.3-4.6c2.7,0,4.2,2,4.2,4.6c0,0.2,0,0.3,0,0.4H292.4z M298.2,230.1c-0.2-1.6-1.2-2.8-2.9-2.8
				c-1.5,0-2.8,1.3-3,2.8H298.2z"/>
			<path d="M305.3,235.4c-2.4,0-3.2-1.6-3.4-2.6l1.2-0.3c0.2,0.8,0.8,1.8,2.2,1.8c1,0,1.8-0.5,1.8-1.4c0-1.1-1.2-1.3-2.1-1.5
				c-1.5-0.2-2.9-0.7-2.9-2.5c0-1.7,1.5-2.6,3-2.6c2.3,0,3.1,1.6,3.2,2.4l-1.2,0.3c-0.2-0.6-0.6-1.6-2-1.6c-1,0-1.7,0.6-1.7,1.4
				c0,1.1,1.2,1.3,2.1,1.4c1.4,0.2,2.9,0.9,2.9,2.6C308.5,234.3,307,235.4,305.3,235.4z"/>
		</g>
	</g>
	<g>
		<g>
			<path d="M201.5,860.2v13h-1.4v-13H201.5z"/>
			<path d="M214.6,864.2c1.7,0,2.7,1,3.4,2v-6.5h1.3v13.5h-1.3v-1.9c-0.7,1.1-1.7,2-3.5,2c-2.5,0-4.2-2.2-4.2-4.6
				C210.5,866.5,212.1,864.2,214.6,864.2z M218.1,868.8c0-1.8-1.3-3.4-3.2-3.4c-1.9,0-3.1,1.5-3.1,3.5c0,1.8,1.2,3.4,3.1,3.4
				C216.8,872.2,218.1,870.6,218.1,868.8z"/>
			<path d="M222.5,868.9c0-2.6,2-4.6,4.6-4.6c2.6,0,4.6,2,4.6,4.6c0,2.6-2,4.6-4.6,4.6C224.5,873.4,222.5,871.4,222.5,868.9z
				 M230.3,868.9c0-1.9-1.3-3.5-3.3-3.5s-3.2,1.6-3.2,3.4c0,1.9,1.3,3.5,3.3,3.5C229,872.3,230.3,870.7,230.3,868.9z"/>
			<path d="M241.2,868.1c0-1.6-0.8-2.7-2.5-2.7c-1.5,0-2.6,1.2-2.6,2.8v5.1h-1.3v-8.9h1.3v1.6c0.7-1.2,1.7-1.8,3.1-1.8
				c2.2,0,3.4,1.5,3.4,3.6v5.5h-1.3V868.1z"/>
			<path d="M245.4,864.3c0.7-0.6,1.3-1.2,1.4-2c-0.1,0-0.3,0.1-0.4,0.1c-0.6,0-1.1-0.4-1.1-1.1c0-0.7,0.5-1.2,1.2-1.2
				c0.8,0,1.3,0.6,1.3,1.6v0.1c0,1.2-0.6,2.3-1.8,3.1L245.4,864.3z"/>
			<path d="M251.7,871v-5.4H250v-1.1h1.6v-2.6h1.3v2.6h2.2v1.1h-2.2v5.4c0,0.8,0.5,1.2,1.4,1.2c0.3,0,0.6,0,0.8-0.1v1.1
				c-0.3,0.1-0.8,0.1-1,0.1C252.2,873.3,251.7,872.3,251.7,871z"/>
			<path d="M265,873.3h-1.3v-13.6h1.3v8.3l4.2-3.6h1.8l-4.7,4l4.9,4.9h-1.8l-4.4-4.4h0V873.3z"/>
			<path d="M280,868.1c0-1.6-0.8-2.7-2.5-2.7c-1.5,0-2.6,1.2-2.6,2.8v5.1h-1.3v-8.9h1.3v1.6c0.7-1.2,1.7-1.8,3.1-1.8
				c2.2,0,3.4,1.5,3.4,3.6v5.5H280V868.1z"/>
			<path d="M284.3,868.9c0-2.6,2-4.6,4.6-4.6c2.6,0,4.6,2,4.6,4.6c0,2.6-2,4.6-4.6,4.6C286.3,873.4,284.3,871.4,284.3,868.9z
				 M292.1,868.9c0-1.9-1.3-3.5-3.3-3.5c-1.9,0-3.2,1.6-3.2,3.4c0,1.9,1.3,3.5,3.3,3.5C290.8,872.3,292.1,870.7,292.1,868.9z"/>
			<path d="M298.3,873.3l-3-8.9h1.4l2.3,7.4h0l2.4-7.4h1.3l2.4,7.4h0l2.3-7.4h1.3l-3,8.9h-1.4l-2.3-7.2h0l-2.4,7.2H298.3z"/>
		</g>
	</g>
	<g>
		<g>
			<path d="M255.4,434.9v13h-1.5l-7.8-11.1v11.1h-1.3v-13h1.6l7.7,10.9v-10.9H255.4z"/>
			<path d="M258.8,443.5c0-2.6,2-4.6,4.6-4.6c2.6,0,4.6,2,4.6,4.6c0,2.6-2,4.6-4.6,4.6C260.8,448,258.8,446,258.8,443.5z
				 M266.7,443.5c0-1.9-1.3-3.5-3.3-3.5c-1.9,0-3.2,1.6-3.2,3.4c0,1.9,1.3,3.5,3.3,3.5C265.3,446.9,266.7,445.3,266.7,443.5z"/>
			<path d="M270.9,449.8c0.7-0.6,1.3-1.2,1.4-2c-0.1,0-0.3,0.1-0.4,0.1c-0.6,0-1.1-0.4-1.1-1.1c0-0.7,0.5-1.2,1.2-1.2
				c0.8,0,1.3,0.6,1.3,1.6v0.1c0,1.2-0.6,2.3-1.8,3.1L270.9,449.8z"/>
			<path d="M285.8,448c-1.7,0-2.7-0.8-3.4-2v1.9h-1.3v-13.5h1.3v6.6c0.7-1.1,1.8-2.1,3.4-2.1c2.5,0,4.2,2.3,4.2,4.6
				C290,445.8,288.4,448,285.8,448z M288.7,443.5c0-1.8-1.1-3.5-3.1-3.5c-1.8,0-3.2,1.6-3.2,3.4c0,1.8,1.3,3.5,3.2,3.5
				C287.5,446.9,288.7,445.3,288.7,443.5z"/>
			<path d="M294.3,444.2c0,1.6,0.8,2.7,2.5,2.7c1.5,0,2.6-1.2,2.6-2.8V439h1.3v8.9h-1.3v-1.6c-0.7,1.2-1.7,1.8-3,1.8
				c-2.2,0-3.4-1.5-3.4-3.6V439h1.3V444.2z"/>
			<path d="M305.1,445.6v-5.4h-1.6V439h1.6v-2.6h1.3v2.6h2.2v1.1h-2.2v5.4c0,0.8,0.5,1.2,1.4,1.2c0.3,0,0.6,0,0.8-0.1v1.1
				c-0.3,0.1-0.8,0.1-1,0.1C305.7,448,305.1,446.9,305.1,445.6z"/>
			<path d="M251.6,467.8l-3-8.9h1.4l2.3,7.4h0l2.4-7.4h1.3l2.4,7.4h0l2.3-7.4h1.3l-3,8.9h-1.4l-2.3-7.2h0l-2.4,7.2H251.6z"/>
			<path d="M265.4,463.8c0.1,1.7,1.4,3,3.2,3c1.3,0,2.3-0.6,2.7-1.9l1.2,0.4c-0.5,1.7-2.1,2.7-3.9,2.7c-2.6,0-4.5-2-4.5-4.6
				c0-2.4,1.8-4.6,4.3-4.6c2.7,0,4.2,2,4.2,4.6c0,0.2,0,0.3,0,0.4H265.4z M271.3,462.7c-0.2-1.6-1.2-2.8-2.9-2.8
				c-1.5,0-2.8,1.3-3,2.8H271.3z"/>
			<path d="M283.1,467.8l-3-8.9h1.4l2.3,7.4h0l2.4-7.4h1.3l2.4,7.4h0l2.3-7.4h1.3l-3,8.9h-1.4l-2.3-7.2h0l-2.4,7.2H283.1z"/>
			<path d="M297.1,454.8c0.5,0,1,0.4,1,1c0,0.5-0.4,1-1,1c-0.5,0-1-0.4-1-1C296.1,455.2,296.5,454.8,297.1,454.8z M297.7,459v8.9
				h-1.3V459H297.7z"/>
			<path d="M302.8,454.3v13.6h-1.3v-13.6H302.8z"/>
			<path d="M307.9,454.3v13.6h-1.3v-13.6H307.9z"/>
			<path d="M236.8,474.8c0.5,0,1,0.4,1,1c0,0.5-0.4,1-1,1c-0.5,0-1-0.4-1-1C235.8,475.2,236.2,474.8,236.8,474.8z M237.4,478.9v8.9
				h-1.3v-8.9H237.4z"/>
			<path d="M247.6,482.6c0-1.6-0.8-2.7-2.5-2.7c-1.5,0-2.6,1.2-2.6,2.8v5.1h-1.3v-8.9h1.3v1.6c0.7-1.2,1.7-1.8,3.1-1.8
				c2.2,0,3.4,1.5,3.4,3.6v5.5h-1.3V482.6z"/>
			<path d="M263.3,482.1c0-1.4-0.8-2.2-2.3-2.2c-1.5,0-2.2,1-2.3,1.8l-1.2-0.3c0.1-0.7,1.1-2.7,3.6-2.7c1.9,0,2.8,0.8,3.2,1.8
				c0.2,0.5,0.3,1.2,0.3,1.5v5.7h-1.3v-1.6h0c-0.7,1.1-1.7,1.7-3,1.7c-1.8,0-3-1.1-3-2.6v-0.1c0-1.9,1.9-2.6,3.5-2.6h2.5V482.1z
				 M260.9,483.8c-0.9,0-2.2,0.3-2.2,1.5c0,1,0.8,1.6,1.9,1.6c1.6,0,2.8-1.1,2.8-2.7v-0.3H260.9z"/>
			<path d="M276.3,487.2l-4-8.3h1.5l3.3,6.9l3.1-6.9h1.4l-6.1,13.3H274L276.3,487.2z"/>
			<path d="M284.4,483.8c0.1,1.7,1.4,3,3.2,3c1.3,0,2.3-0.6,2.7-1.9l1.2,0.4c-0.5,1.7-2.1,2.7-3.9,2.7c-2.6,0-4.5-2-4.5-4.6
				c0-2.4,1.8-4.6,4.3-4.6c2.7,0,4.2,2,4.2,4.6c0,0.2,0,0.3,0,0.4H284.4z M290.3,482.7c-0.2-1.6-1.2-2.8-2.9-2.8
				c-1.5,0-2.8,1.3-3,2.8H290.3z"/>
			<path d="M300,482.1c0-1.4-0.8-2.2-2.3-2.2c-1.5,0-2.2,1-2.3,1.8l-1.2-0.3c0.1-0.7,1.1-2.7,3.6-2.7c1.9,0,2.8,0.8,3.2,1.8
				c0.2,0.5,0.3,1.2,0.3,1.5v5.7h-1.3v-1.6h0c-0.7,1.1-1.7,1.7-3,1.7c-1.8,0-3-1.1-3-2.6v-0.1c0-1.9,1.9-2.6,3.5-2.6h2.5V482.1z
				 M297.6,483.8c-0.9,0-2.2,0.3-2.2,1.5c0,1,0.8,1.6,1.9,1.6c1.6,0,2.8-1.1,2.8-2.7v-0.3H297.6z"/>
			<path d="M306.3,480.7c0.7-1.4,1.8-1.9,2.9-1.9c0.1,0,0.3,0,0.4,0v1.4c-0.2,0-0.3,0-0.5,0c-2.1,0-2.8,1.7-2.8,3.3v4.3H305v-8.9
				h1.3V480.7z"/>
		</g>
	</g>
	<g>
		<g>
			<path d="M252.3,646.4v13h-1.5l-7.8-11.1v11.1h-1.3v-13h1.6l7.7,10.9v-10.9H252.3z"/>
			<path d="M255.7,655c0-2.6,2-4.6,4.6-4.6c2.6,0,4.6,2,4.6,4.6c0,2.6-2,4.6-4.6,4.6C257.7,659.5,255.7,657.5,255.7,655z M263.6,655
				c0-1.9-1.3-3.5-3.3-3.5s-3.2,1.6-3.2,3.4c0,1.9,1.3,3.5,3.3,3.5C262.2,658.4,263.6,656.8,263.6,655z"/>
			<path d="M267.7,661.3c0.7-0.6,1.3-1.2,1.4-2c-0.1,0-0.3,0.1-0.4,0.1c-0.6,0-1.1-0.4-1.1-1.1c0-0.7,0.5-1.2,1.2-1.2
				c0.8,0,1.3,0.6,1.3,1.6v0.1c0,1.2-0.6,2.3-1.8,3.1L267.7,661.3z"/>
			<path d="M283.3,653.7c0-1.4-0.8-2.2-2.3-2.2c-1.5,0-2.2,1-2.3,1.8l-1.2-0.3c0.1-0.7,1.1-2.7,3.6-2.7c1.9,0,2.8,0.8,3.2,1.8
				c0.2,0.5,0.3,1.2,0.3,1.5v5.7h-1.3v-1.6h0c-0.7,1.1-1.7,1.7-3,1.7c-1.8,0-3-1.1-3-2.6v-0.1c0-1.9,1.9-2.6,3.5-2.6h2.5V653.7z
				 M280.8,655.3c-0.9,0-2.2,0.3-2.2,1.5c0,1,0.8,1.6,1.9,1.6c1.6,0,2.8-1.1,2.8-2.7v-0.3H280.8z"/>
			<path d="M294.7,654.2c0-1.6-0.8-2.7-2.5-2.7c-1.5,0-2.6,1.2-2.6,2.8v5.1h-1.3v-8.9h1.3v1.6c0.7-1.2,1.7-1.8,3.1-1.8
				c2.2,0,3.4,1.5,3.4,3.6v5.5h-1.3V654.2z"/>
			<path d="M303.1,650.4c1.7,0,2.7,1,3.4,2v-6.5h1.3v13.5h-1.3v-1.9c-0.7,1.1-1.7,2-3.5,2c-2.5,0-4.2-2.2-4.2-4.6
				C299,652.6,300.6,650.4,303.1,650.4z M306.6,654.9c0-1.8-1.3-3.4-3.2-3.4c-1.9,0-3.1,1.5-3.1,3.5c0,1.8,1.2,3.4,3.1,3.4
				C305.3,658.4,306.6,656.7,306.6,654.9z"/>
			<path d="M229.8,679.3l-3-8.9h1.4l2.3,7.4h0l2.4-7.4h1.3l2.4,7.4h0l2.3-7.4h1.3l-3,8.9H236l-2.3-7.2h0l-2.4,7.2H229.8z"/>
			<path d="M243.6,675.3c0.1,1.7,1.4,3,3.2,3c1.3,0,2.3-0.6,2.7-1.9l1.2,0.4c-0.5,1.7-2.1,2.7-3.9,2.7c-2.6,0-4.5-2-4.5-4.6
				c0-2.4,1.8-4.6,4.3-4.6c2.7,0,4.2,2,4.2,4.6c0,0.1,0,0.3,0,0.4H243.6z M249.5,674.2c-0.2-1.6-1.2-2.8-2.9-2.8
				c-1.5,0-2.8,1.3-3,2.8H249.5z"/>
			<path d="M253,670.4c0.7-0.6,1.3-1.2,1.4-2c-0.1,0-0.3,0.1-0.4,0.1c-0.6,0-1.1-0.4-1.1-1.1c0-0.7,0.5-1.2,1.2-1.2
				c0.8,0,1.3,0.6,1.3,1.6v0.1c0,1.2-0.6,2.3-1.8,3.1L253,670.4z"/>
			<path d="M259.7,672.2c0.7-1.4,1.8-1.9,2.9-1.9c0.1,0,0.3,0,0.4,0v1.4c-0.2,0-0.3,0-0.5,0c-2.1,0-2.8,1.7-2.8,3.3v4.3h-1.3v-8.9
				h1.3V672.2z"/>
			<path d="M265.9,675.3c0.1,1.7,1.4,3,3.2,3c1.3,0,2.3-0.6,2.7-1.9l1.2,0.4c-0.5,1.7-2.1,2.7-3.9,2.7c-2.6,0-4.5-2-4.5-4.6
				c0-2.4,1.8-4.6,4.3-4.6c2.7,0,4.2,2,4.2,4.6c0,0.1,0,0.3,0,0.4H265.9z M271.8,674.2c-0.2-1.6-1.2-2.8-2.9-2.8
				c-1.5,0-2.8,1.3-3,2.8H271.8z"/>
			<path d="M288,674.2c0-1.6-0.8-2.7-2.5-2.7c-1.5,0-2.6,1.2-2.6,2.8v5.1h-1.3v-8.9h1.3v1.6c0.7-1.2,1.7-1.8,3.1-1.8
				c2.2,0,3.4,1.5,3.4,3.6v5.5H288V674.2z"/>
			<path d="M292.3,674.9c0-2.6,2-4.6,4.6-4.6c2.6,0,4.6,2,4.6,4.6c0,2.6-2,4.6-4.6,4.6C294.3,679.5,292.3,677.5,292.3,674.9z
				 M300.2,674.9c0-1.9-1.3-3.5-3.3-3.5c-1.9,0-3.2,1.6-3.2,3.4c0,1.9,1.3,3.5,3.3,3.5C298.8,678.4,300.2,676.8,300.2,674.9z"/>
			<path d="M305.1,677.1v-5.4h-1.6v-1.1h1.6v-2.6h1.3v2.6h2.2v1.1h-2.2v5.4c0,0.8,0.5,1.2,1.4,1.2c0.3,0,0.6,0,0.8-0.1v1.1
				c-0.3,0.1-0.8,0.1-1,0.1C305.7,679.4,305.1,678.4,305.1,677.1z"/>
			<path d="M213.7,699.4c-1.6,0-2.7-0.8-3.4-2v6.2H209v-13.3h1.3v1.9c0.7-1.1,1.8-2.1,3.4-2.1c2.5,0,4.2,2.3,4.2,4.6
				C217.9,697.2,216.3,699.4,213.7,699.4z M216.6,694.9c0-1.8-1.1-3.5-3.1-3.5c-1.8,0-3.2,1.6-3.2,3.4c0,1.8,1.3,3.5,3.2,3.5
				C215.4,698.3,216.6,696.8,216.6,694.9z"/>
			<path d="M222.4,685.8v13.6H221v-13.6H222.4z"/>
			<path d="M231.5,693.6c0-1.4-0.8-2.2-2.3-2.2c-1.5,0-2.2,1-2.3,1.8l-1.2-0.3c0.1-0.7,1.1-2.7,3.6-2.7c1.9,0,2.8,0.8,3.2,1.8
				c0.2,0.5,0.3,1.2,0.3,1.5v5.7h-1.3v-1.6h0c-0.7,1.1-1.7,1.7-3,1.7c-1.8,0-3-1.1-3-2.6v-0.1c0-1.9,1.9-2.6,3.5-2.6h2.5V693.6z
				 M229,695.3c-0.9,0-2.2,0.3-2.2,1.5c0,1,0.8,1.6,1.9,1.6c1.6,0,2.8-1.1,2.8-2.7v-0.3H229z"/>
			<path d="M242.8,694.1c0-1.6-0.8-2.7-2.5-2.7c-1.5,0-2.6,1.2-2.6,2.8v5.1h-1.3v-8.9h1.3v1.6c0.7-1.2,1.7-1.8,3.1-1.8
				c2.2,0,3.4,1.5,3.4,3.6v5.5h-1.3V694.1z"/>
			<path d="M254.1,694.1c0-1.6-0.8-2.7-2.5-2.7c-1.5,0-2.6,1.2-2.6,2.8v5.1h-1.3v-8.9h1.3v1.6c0.7-1.2,1.7-1.8,3.1-1.8
				c2.2,0,3.4,1.5,3.4,3.6v5.5h-1.3V694.1z"/>
			<path d="M259.7,686.3c0.5,0,1,0.4,1,1c0,0.5-0.4,1-1,1c-0.5,0-1-0.4-1-1C258.8,686.7,259.2,686.3,259.7,686.3z M260.4,690.4v8.9
				h-1.3v-8.9H260.4z"/>
			<path d="M270.6,694.1c0-1.6-0.8-2.7-2.5-2.7c-1.5,0-2.6,1.2-2.6,2.8v5.1h-1.3v-8.9h1.3v1.6c0.7-1.2,1.7-1.8,3.1-1.8
				c2.2,0,3.4,1.5,3.4,3.6v5.5h-1.3V694.1z"/>
			<path d="M282.5,697.3c-0.7,1.1-1.8,2-3.4,2c-2.5,0-4.2-2.1-4.2-4.5c0-2.3,1.6-4.5,4.2-4.5c1.7,0,2.8,1,3.5,2v-1.9h1.3v8.9
				c0,2.9-1.8,4.4-4.5,4.4c-2.3,0-3.9-1.2-4.4-3l1.2-0.4c0.3,1,1.1,2.3,3.2,2.3c1.7,0,3.2-0.9,3.2-3.2V697.3z M282.5,694.8
				c0-1.7-1.3-3.4-3.2-3.4c-1.9,0-3.1,1.5-3.1,3.4c0,1.8,1.1,3.4,3.1,3.4C281.2,698.2,282.5,696.6,282.5,694.8z"/>
			<path d="M293.6,697v-5.4H292v-1.1h1.6v-2.6h1.3v2.6h2.2v1.1h-2.2v5.4c0,0.8,0.5,1.2,1.4,1.2c0.3,0,0.6,0,0.8-0.1v1.1
				c-0.3,0.1-0.8,0.1-1,0.1C294.2,699.4,293.6,698.3,293.6,697z"/>
			<path d="M299.3,694.9c0-2.6,2-4.6,4.6-4.6c2.6,0,4.6,2,4.6,4.6c0,2.6-2,4.6-4.6,4.6C301.3,699.5,299.3,697.4,299.3,694.9z
				 M307.2,694.9c0-1.9-1.3-3.5-3.3-3.5s-3.2,1.6-3.2,3.4c0,1.9,1.3,3.5,3.3,3.5C305.8,698.3,307.2,696.8,307.2,694.9z"/>
		</g>
	</g>
</g>
</svg>
