<?xml version="1.0" encoding="utf-8"?>
<!-- Generator: Adobe Illustrator 21.1.0, SVG Export Plug-In . SVG Version: 6.00 Build 0)  -->
<svg version="1.1" id="Layer_1" xmlns="http://www.w3.org/2000/svg" xmlns:xlink="http://www.w3.org/1999/xlink" x="0px" y="0px"
	 viewBox="0 0 1500 1053" style="enable-background:new 0 0 1500 1053;" xml:space="preserve">
<style type="text/css">
	.st0{fill:none;}
	.st1{fill:none;stroke:#8EFFDE;stroke-width:2;stroke-linecap:round;stroke-miterlimit:10;}
	.st2{fill:none;stroke:#8EFFDE;stroke-width:2;stroke-linecap:round;stroke-miterlimit:10;stroke-dasharray:0,10;}
	.st3{fill:none;stroke:#FF8F4E;stroke-width:2;stroke-linecap:round;stroke-miterlimit:10;}
	.st4{fill:none;stroke:#FF8F4E;stroke-width:2;stroke-linecap:round;stroke-miterlimit:10;stroke-dasharray:0,10;}
	.st5{fill:#8EFFDE;}
	.st6{fill:url(#SVGID_1_);}
	.st7{fill:#F6F6F8;}
	.st8{fill:#FF8F4E;}
	.st9{fill:url(#SVGID_2_);}
	.st10{opacity:0.9;}
</style>
<pattern  y="1053" width="240" height="240" patternUnits="userSpaceOnUse" id="bright_green" viewBox="1 -241 240 240" style="overflow:visible;">
	<g>
		<rect x="1" y="-241" class="st0" width="240" height="240"/>
		<g>
			<g>
				<line class="st1" x1="241" y1="-1" x2="241" y2="-1"/>
			</g>
		</g>
		<g>
			<g>
				<line class="st1" x1="1" y1="-1" x2="1" y2="-1"/>
				<line class="st2" x1="11" y1="-1" x2="236" y2="-1"/>
				<line class="st1" x1="241" y1="-1" x2="241" y2="-1"/>
			</g>
		</g>
		<g>
			<g>
				<line class="st1" x1="1" y1="-1" x2="1" y2="-1"/>
			</g>
		</g>
		<g>
			<g>
				<line class="st1" x1="241" y1="-241" x2="241" y2="-241"/>
			</g>
			<g>
				<line class="st1" x1="241" y1="-231" x2="241" y2="-231"/>
			</g>
			<g>
				<line class="st1" x1="241" y1="-221" x2="241" y2="-221"/>
			</g>
			<g>
				<line class="st1" x1="241" y1="-211" x2="241" y2="-211"/>
			</g>
			<g>
				<line class="st1" x1="241" y1="-201" x2="241" y2="-201"/>
			</g>
			<g>
				<line class="st1" x1="241" y1="-191" x2="241" y2="-191"/>
			</g>
			<g>
				<line class="st1" x1="241" y1="-181" x2="241" y2="-181"/>
			</g>
			<g>
				<line class="st1" x1="241" y1="-171" x2="241" y2="-171"/>
			</g>
			<g>
				<line class="st1" x1="241" y1="-161" x2="241" y2="-161"/>
			</g>
			<g>
				<line class="st1" x1="241" y1="-151" x2="241" y2="-151"/>
			</g>
			<g>
				<line class="st1" x1="241" y1="-141" x2="241" y2="-141"/>
			</g>
			<g>
				<line class="st1" x1="241" y1="-131" x2="241" y2="-131"/>
			</g>
			<g>
				<line class="st1" x1="241" y1="-121" x2="241" y2="-121"/>
			</g>
			<g>
				<line class="st1" x1="241" y1="-111" x2="241" y2="-111"/>
			</g>
			<g>
				<line class="st1" x1="241" y1="-101" x2="241" y2="-101"/>
			</g>
			<g>
				<line class="st1" x1="241" y1="-91" x2="241" y2="-91"/>
			</g>
			<g>
				<line class="st1" x1="241" y1="-81" x2="241" y2="-81"/>
			</g>
			<g>
				<line class="st1" x1="241" y1="-71" x2="241" y2="-71"/>
			</g>
			<g>
				<line class="st1" x1="241" y1="-61" x2="241" y2="-61"/>
			</g>
			<g>
				<line class="st1" x1="241" y1="-51" x2="241" y2="-51"/>
			</g>
			<g>
				<line class="st1" x1="241" y1="-41" x2="241" y2="-41"/>
			</g>
			<g>
				<line class="st1" x1="241" y1="-31" x2="241" y2="-31"/>
			</g>
			<g>
				<line class="st1" x1="241" y1="-21" x2="241" y2="-21"/>
			</g>
			<g>
				<line class="st1" x1="241" y1="-11" x2="241" y2="-11"/>
			</g>
			<g>
				<line class="st1" x1="241" y1="-1" x2="241" y2="-1"/>
			</g>
		</g>
		<g>
			<g>
				<line class="st1" x1="1" y1="-241" x2="1" y2="-241"/>
				<line class="st2" x1="11" y1="-241" x2="236" y2="-241"/>
				<line class="st1" x1="241" y1="-241" x2="241" y2="-241"/>
			</g>
			<g>
				<line class="st1" x1="1" y1="-231" x2="1" y2="-231"/>
				<line class="st2" x1="11" y1="-231" x2="236" y2="-231"/>
				<line class="st1" x1="241" y1="-231" x2="241" y2="-231"/>
			</g>
			<g>
				<line class="st1" x1="1" y1="-221" x2="1" y2="-221"/>
				<line class="st2" x1="11" y1="-221" x2="236" y2="-221"/>
				<line class="st1" x1="241" y1="-221" x2="241" y2="-221"/>
			</g>
			<g>
				<line class="st1" x1="1" y1="-211" x2="1" y2="-211"/>
				<line class="st2" x1="11" y1="-211" x2="236" y2="-211"/>
				<line class="st1" x1="241" y1="-211" x2="241" y2="-211"/>
			</g>
			<g>
				<line class="st1" x1="1" y1="-201" x2="1" y2="-201"/>
				<line class="st2" x1="11" y1="-201" x2="236" y2="-201"/>
				<line class="st1" x1="241" y1="-201" x2="241" y2="-201"/>
			</g>
			<g>
				<line class="st1" x1="1" y1="-191" x2="1" y2="-191"/>
				<line class="st2" x1="11" y1="-191" x2="236" y2="-191"/>
				<line class="st1" x1="241" y1="-191" x2="241" y2="-191"/>
			</g>
			<g>
				<line class="st1" x1="1" y1="-181" x2="1" y2="-181"/>
				<line class="st2" x1="11" y1="-181" x2="236" y2="-181"/>
				<line class="st1" x1="241" y1="-181" x2="241" y2="-181"/>
			</g>
			<g>
				<line class="st1" x1="1" y1="-171" x2="1" y2="-171"/>
				<line class="st2" x1="11" y1="-171" x2="236" y2="-171"/>
				<line class="st1" x1="241" y1="-171" x2="241" y2="-171"/>
			</g>
			<g>
				<line class="st1" x1="1" y1="-161" x2="1" y2="-161"/>
				<line class="st2" x1="11" y1="-161" x2="236" y2="-161"/>
				<line class="st1" x1="241" y1="-161" x2="241" y2="-161"/>
			</g>
			<g>
				<line class="st1" x1="1" y1="-151" x2="1" y2="-151"/>
				<line class="st2" x1="11" y1="-151" x2="236" y2="-151"/>
				<line class="st1" x1="241" y1="-151" x2="241" y2="-151"/>
			</g>
			<g>
				<line class="st1" x1="1" y1="-141" x2="1" y2="-141"/>
				<line class="st2" x1="11" y1="-141" x2="236" y2="-141"/>
				<line class="st1" x1="241" y1="-141" x2="241" y2="-141"/>
			</g>
			<g>
				<line class="st1" x1="1" y1="-131" x2="1" y2="-131"/>
				<line class="st2" x1="11" y1="-131" x2="236" y2="-131"/>
				<line class="st1" x1="241" y1="-131" x2="241" y2="-131"/>
			</g>
			<g>
				<line class="st1" x1="1" y1="-121" x2="1" y2="-121"/>
				<line class="st2" x1="11" y1="-121" x2="236" y2="-121"/>
				<line class="st1" x1="241" y1="-121" x2="241" y2="-121"/>
			</g>
			<g>
				<line class="st1" x1="1" y1="-111" x2="1" y2="-111"/>
				<line class="st2" x1="11" y1="-111" x2="236" y2="-111"/>
				<line class="st1" x1="241" y1="-111" x2="241" y2="-111"/>
			</g>
			<g>
				<line class="st1" x1="1" y1="-101" x2="1" y2="-101"/>
				<line class="st2" x1="11" y1="-101" x2="236" y2="-101"/>
				<line class="st1" x1="241" y1="-101" x2="241" y2="-101"/>
			</g>
			<g>
				<line class="st1" x1="1" y1="-91" x2="1" y2="-91"/>
				<line class="st2" x1="11" y1="-91" x2="236" y2="-91"/>
				<line class="st1" x1="241" y1="-91" x2="241" y2="-91"/>
			</g>
			<g>
				<line class="st1" x1="1" y1="-81" x2="1" y2="-81"/>
				<line class="st2" x1="11" y1="-81" x2="236" y2="-81"/>
				<line class="st1" x1="241" y1="-81" x2="241" y2="-81"/>
			</g>
			<g>
				<line class="st1" x1="1" y1="-71" x2="1" y2="-71"/>
				<line class="st2" x1="11" y1="-71" x2="236" y2="-71"/>
				<line class="st1" x1="241" y1="-71" x2="241" y2="-71"/>
			</g>
			<g>
				<line class="st1" x1="1" y1="-61" x2="1" y2="-61"/>
				<line class="st2" x1="11" y1="-61" x2="236" y2="-61"/>
				<line class="st1" x1="241" y1="-61" x2="241" y2="-61"/>
			</g>
			<g>
				<line class="st1" x1="1" y1="-51" x2="1" y2="-51"/>
				<line class="st2" x1="11" y1="-51" x2="236" y2="-51"/>
				<line class="st1" x1="241" y1="-51" x2="241" y2="-51"/>
			</g>
			<g>
				<line class="st1" x1="1" y1="-41" x2="1" y2="-41"/>
				<line class="st2" x1="11" y1="-41" x2="236" y2="-41"/>
				<line class="st1" x1="241" y1="-41" x2="241" y2="-41"/>
			</g>
			<g>
				<line class="st1" x1="1" y1="-31" x2="1" y2="-31"/>
				<line class="st2" x1="11" y1="-31" x2="236" y2="-31"/>
				<line class="st1" x1="241" y1="-31" x2="241" y2="-31"/>
			</g>
			<g>
				<line class="st1" x1="1" y1="-21" x2="1" y2="-21"/>
				<line class="st2" x1="11" y1="-21" x2="236" y2="-21"/>
				<line class="st1" x1="241" y1="-21" x2="241" y2="-21"/>
			</g>
			<g>
				<line class="st1" x1="1" y1="-11" x2="1" y2="-11"/>
				<line class="st2" x1="11" y1="-11" x2="236" y2="-11"/>
				<line class="st1" x1="241" y1="-11" x2="241" y2="-11"/>
			</g>
			<g>
				<line class="st1" x1="1" y1="-1" x2="1" y2="-1"/>
				<line class="st2" x1="11" y1="-1" x2="236" y2="-1"/>
				<line class="st1" x1="241" y1="-1" x2="241" y2="-1"/>
			</g>
		</g>
		<g>
			<g>
				<line class="st1" x1="1" y1="-241" x2="1" y2="-241"/>
			</g>
			<g>
				<line class="st1" x1="1" y1="-231" x2="1" y2="-231"/>
			</g>
			<g>
				<line class="st1" x1="1" y1="-221" x2="1" y2="-221"/>
			</g>
			<g>
				<line class="st1" x1="1" y1="-211" x2="1" y2="-211"/>
			</g>
			<g>
				<line class="st1" x1="1" y1="-201" x2="1" y2="-201"/>
			</g>
			<g>
				<line class="st1" x1="1" y1="-191" x2="1" y2="-191"/>
			</g>
			<g>
				<line class="st1" x1="1" y1="-181" x2="1" y2="-181"/>
			</g>
			<g>
				<line class="st1" x1="1" y1="-171" x2="1" y2="-171"/>
			</g>
			<g>
				<line class="st1" x1="1" y1="-161" x2="1" y2="-161"/>
			</g>
			<g>
				<line class="st1" x1="1" y1="-151" x2="1" y2="-151"/>
			</g>
			<g>
				<line class="st1" x1="1" y1="-141" x2="1" y2="-141"/>
			</g>
			<g>
				<line class="st1" x1="1" y1="-131" x2="1" y2="-131"/>
			</g>
			<g>
				<line class="st1" x1="1" y1="-121" x2="1" y2="-121"/>
			</g>
			<g>
				<line class="st1" x1="1" y1="-111" x2="1" y2="-111"/>
			</g>
			<g>
				<line class="st1" x1="1" y1="-101" x2="1" y2="-101"/>
			</g>
			<g>
				<line class="st1" x1="1" y1="-91" x2="1" y2="-91"/>
			</g>
			<g>
				<line class="st1" x1="1" y1="-81" x2="1" y2="-81"/>
			</g>
			<g>
				<line class="st1" x1="1" y1="-71" x2="1" y2="-71"/>
			</g>
			<g>
				<line class="st1" x1="1" y1="-61" x2="1" y2="-61"/>
			</g>
			<g>
				<line class="st1" x1="1" y1="-51" x2="1" y2="-51"/>
			</g>
			<g>
				<line class="st1" x1="1" y1="-41" x2="1" y2="-41"/>
			</g>
			<g>
				<line class="st1" x1="1" y1="-31" x2="1" y2="-31"/>
			</g>
			<g>
				<line class="st1" x1="1" y1="-21" x2="1" y2="-21"/>
			</g>
			<g>
				<line class="st1" x1="1" y1="-11" x2="1" y2="-11"/>
			</g>
			<g>
				<line class="st1" x1="1" y1="-1" x2="1" y2="-1"/>
			</g>
		</g>
		<g>
			<g>
				<line class="st1" x1="241" y1="-241" x2="241" y2="-241"/>
			</g>
		</g>
		<g>
			<g>
				<line class="st1" x1="1" y1="-241" x2="1" y2="-241"/>
				<line class="st2" x1="11" y1="-241" x2="236" y2="-241"/>
				<line class="st1" x1="241" y1="-241" x2="241" y2="-241"/>
			</g>
		</g>
		<g>
			<g>
				<line class="st1" x1="1" y1="-241" x2="1" y2="-241"/>
			</g>
		</g>
	</g>
</pattern>
<pattern  y="1053" width="240" height="240" patternUnits="userSpaceOnUse" id="orange" viewBox="1 -241 240 240" style="overflow:visible;">
	<g>
		<rect x="1" y="-241" class="st0" width="240" height="240"/>
		<g>
			<g>
				<line class="st3" x1="241" y1="-1" x2="241" y2="-1"/>
			</g>
		</g>
		<g>
			<g>
				<line class="st3" x1="1" y1="-1" x2="1" y2="-1"/>
				<line class="st4" x1="11" y1="-1" x2="236" y2="-1"/>
				<line class="st3" x1="241" y1="-1" x2="241" y2="-1"/>
			</g>
		</g>
		<g>
			<g>
				<line class="st3" x1="1" y1="-1" x2="1" y2="-1"/>
			</g>
		</g>
		<g>
			<g>
				<line class="st3" x1="241" y1="-241" x2="241" y2="-241"/>
			</g>
			<g>
				<line class="st3" x1="241" y1="-231" x2="241" y2="-231"/>
			</g>
			<g>
				<line class="st3" x1="241" y1="-221" x2="241" y2="-221"/>
			</g>
			<g>
				<line class="st3" x1="241" y1="-211" x2="241" y2="-211"/>
			</g>
			<g>
				<line class="st3" x1="241" y1="-201" x2="241" y2="-201"/>
			</g>
			<g>
				<line class="st3" x1="241" y1="-191" x2="241" y2="-191"/>
			</g>
			<g>
				<line class="st3" x1="241" y1="-181" x2="241" y2="-181"/>
			</g>
			<g>
				<line class="st3" x1="241" y1="-171" x2="241" y2="-171"/>
			</g>
			<g>
				<line class="st3" x1="241" y1="-161" x2="241" y2="-161"/>
			</g>
			<g>
				<line class="st3" x1="241" y1="-151" x2="241" y2="-151"/>
			</g>
			<g>
				<line class="st3" x1="241" y1="-141" x2="241" y2="-141"/>
			</g>
			<g>
				<line class="st3" x1="241" y1="-131" x2="241" y2="-131"/>
			</g>
			<g>
				<line class="st3" x1="241" y1="-121" x2="241" y2="-121"/>
			</g>
			<g>
				<line class="st3" x1="241" y1="-111" x2="241" y2="-111"/>
			</g>
			<g>
				<line class="st3" x1="241" y1="-101" x2="241" y2="-101"/>
			</g>
			<g>
				<line class="st3" x1="241" y1="-91" x2="241" y2="-91"/>
			</g>
			<g>
				<line class="st3" x1="241" y1="-81" x2="241" y2="-81"/>
			</g>
			<g>
				<line class="st3" x1="241" y1="-71" x2="241" y2="-71"/>
			</g>
			<g>
				<line class="st3" x1="241" y1="-61" x2="241" y2="-61"/>
			</g>
			<g>
				<line class="st3" x1="241" y1="-51" x2="241" y2="-51"/>
			</g>
			<g>
				<line class="st3" x1="241" y1="-41" x2="241" y2="-41"/>
			</g>
			<g>
				<line class="st3" x1="241" y1="-31" x2="241" y2="-31"/>
			</g>
			<g>
				<line class="st3" x1="241" y1="-21" x2="241" y2="-21"/>
			</g>
			<g>
				<line class="st3" x1="241" y1="-11" x2="241" y2="-11"/>
			</g>
			<g>
				<line class="st3" x1="241" y1="-1" x2="241" y2="-1"/>
			</g>
		</g>
		<g>
			<g>
				<line class="st3" x1="1" y1="-241" x2="1" y2="-241"/>
				<line class="st4" x1="11" y1="-241" x2="236" y2="-241"/>
				<line class="st3" x1="241" y1="-241" x2="241" y2="-241"/>
			</g>
			<g>
				<line class="st3" x1="1" y1="-231" x2="1" y2="-231"/>
				<line class="st4" x1="11" y1="-231" x2="236" y2="-231"/>
				<line class="st3" x1="241" y1="-231" x2="241" y2="-231"/>
			</g>
			<g>
				<line class="st3" x1="1" y1="-221" x2="1" y2="-221"/>
				<line class="st4" x1="11" y1="-221" x2="236" y2="-221"/>
				<line class="st3" x1="241" y1="-221" x2="241" y2="-221"/>
			</g>
			<g>
				<line class="st3" x1="1" y1="-211" x2="1" y2="-211"/>
				<line class="st4" x1="11" y1="-211" x2="236" y2="-211"/>
				<line class="st3" x1="241" y1="-211" x2="241" y2="-211"/>
			</g>
			<g>
				<line class="st3" x1="1" y1="-201" x2="1" y2="-201"/>
				<line class="st4" x1="11" y1="-201" x2="236" y2="-201"/>
				<line class="st3" x1="241" y1="-201" x2="241" y2="-201"/>
			</g>
			<g>
				<line class="st3" x1="1" y1="-191" x2="1" y2="-191"/>
				<line class="st4" x1="11" y1="-191" x2="236" y2="-191"/>
				<line class="st3" x1="241" y1="-191" x2="241" y2="-191"/>
			</g>
			<g>
				<line class="st3" x1="1" y1="-181" x2="1" y2="-181"/>
				<line class="st4" x1="11" y1="-181" x2="236" y2="-181"/>
				<line class="st3" x1="241" y1="-181" x2="241" y2="-181"/>
			</g>
			<g>
				<line class="st3" x1="1" y1="-171" x2="1" y2="-171"/>
				<line class="st4" x1="11" y1="-171" x2="236" y2="-171"/>
				<line class="st3" x1="241" y1="-171" x2="241" y2="-171"/>
			</g>
			<g>
				<line class="st3" x1="1" y1="-161" x2="1" y2="-161"/>
				<line class="st4" x1="11" y1="-161" x2="236" y2="-161"/>
				<line class="st3" x1="241" y1="-161" x2="241" y2="-161"/>
			</g>
			<g>
				<line class="st3" x1="1" y1="-151" x2="1" y2="-151"/>
				<line class="st4" x1="11" y1="-151" x2="236" y2="-151"/>
				<line class="st3" x1="241" y1="-151" x2="241" y2="-151"/>
			</g>
			<g>
				<line class="st3" x1="1" y1="-141" x2="1" y2="-141"/>
				<line class="st4" x1="11" y1="-141" x2="236" y2="-141"/>
				<line class="st3" x1="241" y1="-141" x2="241" y2="-141"/>
			</g>
			<g>
				<line class="st3" x1="1" y1="-131" x2="1" y2="-131"/>
				<line class="st4" x1="11" y1="-131" x2="236" y2="-131"/>
				<line class="st3" x1="241" y1="-131" x2="241" y2="-131"/>
			</g>
			<g>
				<line class="st3" x1="1" y1="-121" x2="1" y2="-121"/>
				<line class="st4" x1="11" y1="-121" x2="236" y2="-121"/>
				<line class="st3" x1="241" y1="-121" x2="241" y2="-121"/>
			</g>
			<g>
				<line class="st3" x1="1" y1="-111" x2="1" y2="-111"/>
				<line class="st4" x1="11" y1="-111" x2="236" y2="-111"/>
				<line class="st3" x1="241" y1="-111" x2="241" y2="-111"/>
			</g>
			<g>
				<line class="st3" x1="1" y1="-101" x2="1" y2="-101"/>
				<line class="st4" x1="11" y1="-101" x2="236" y2="-101"/>
				<line class="st3" x1="241" y1="-101" x2="241" y2="-101"/>
			</g>
			<g>
				<line class="st3" x1="1" y1="-91" x2="1" y2="-91"/>
				<line class="st4" x1="11" y1="-91" x2="236" y2="-91"/>
				<line class="st3" x1="241" y1="-91" x2="241" y2="-91"/>
			</g>
			<g>
				<line class="st3" x1="1" y1="-81" x2="1" y2="-81"/>
				<line class="st4" x1="11" y1="-81" x2="236" y2="-81"/>
				<line class="st3" x1="241" y1="-81" x2="241" y2="-81"/>
			</g>
			<g>
				<line class="st3" x1="1" y1="-71" x2="1" y2="-71"/>
				<line class="st4" x1="11" y1="-71" x2="236" y2="-71"/>
				<line class="st3" x1="241" y1="-71" x2="241" y2="-71"/>
			</g>
			<g>
				<line class="st3" x1="1" y1="-61" x2="1" y2="-61"/>
				<line class="st4" x1="11" y1="-61" x2="236" y2="-61"/>
				<line class="st3" x1="241" y1="-61" x2="241" y2="-61"/>
			</g>
			<g>
				<line class="st3" x1="1" y1="-51" x2="1" y2="-51"/>
				<line class="st4" x1="11" y1="-51" x2="236" y2="-51"/>
				<line class="st3" x1="241" y1="-51" x2="241" y2="-51"/>
			</g>
			<g>
				<line class="st3" x1="1" y1="-41" x2="1" y2="-41"/>
				<line class="st4" x1="11" y1="-41" x2="236" y2="-41"/>
				<line class="st3" x1="241" y1="-41" x2="241" y2="-41"/>
			</g>
			<g>
				<line class="st3" x1="1" y1="-31" x2="1" y2="-31"/>
				<line class="st4" x1="11" y1="-31" x2="236" y2="-31"/>
				<line class="st3" x1="241" y1="-31" x2="241" y2="-31"/>
			</g>
			<g>
				<line class="st3" x1="1" y1="-21" x2="1" y2="-21"/>
				<line class="st4" x1="11" y1="-21" x2="236" y2="-21"/>
				<line class="st3" x1="241" y1="-21" x2="241" y2="-21"/>
			</g>
			<g>
				<line class="st3" x1="1" y1="-11" x2="1" y2="-11"/>
				<line class="st4" x1="11" y1="-11" x2="236" y2="-11"/>
				<line class="st3" x1="241" y1="-11" x2="241" y2="-11"/>
			</g>
			<g>
				<line class="st3" x1="1" y1="-1" x2="1" y2="-1"/>
				<line class="st4" x1="11" y1="-1" x2="236" y2="-1"/>
				<line class="st3" x1="241" y1="-1" x2="241" y2="-1"/>
			</g>
		</g>
		<g>
			<g>
				<line class="st3" x1="1" y1="-241" x2="1" y2="-241"/>
			</g>
			<g>
				<line class="st3" x1="1" y1="-231" x2="1" y2="-231"/>
			</g>
			<g>
				<line class="st3" x1="1" y1="-221" x2="1" y2="-221"/>
			</g>
			<g>
				<line class="st3" x1="1" y1="-211" x2="1" y2="-211"/>
			</g>
			<g>
				<line class="st3" x1="1" y1="-201" x2="1" y2="-201"/>
			</g>
			<g>
				<line class="st3" x1="1" y1="-191" x2="1" y2="-191"/>
			</g>
			<g>
				<line class="st3" x1="1" y1="-181" x2="1" y2="-181"/>
			</g>
			<g>
				<line class="st3" x1="1" y1="-171" x2="1" y2="-171"/>
			</g>
			<g>
				<line class="st3" x1="1" y1="-161" x2="1" y2="-161"/>
			</g>
			<g>
				<line class="st3" x1="1" y1="-151" x2="1" y2="-151"/>
			</g>
			<g>
				<line class="st3" x1="1" y1="-141" x2="1" y2="-141"/>
			</g>
			<g>
				<line class="st3" x1="1" y1="-131" x2="1" y2="-131"/>
			</g>
			<g>
				<line class="st3" x1="1" y1="-121" x2="1" y2="-121"/>
			</g>
			<g>
				<line class="st3" x1="1" y1="-111" x2="1" y2="-111"/>
			</g>
			<g>
				<line class="st3" x1="1" y1="-101" x2="1" y2="-101"/>
			</g>
			<g>
				<line class="st3" x1="1" y1="-91" x2="1" y2="-91"/>
			</g>
			<g>
				<line class="st3" x1="1" y1="-81" x2="1" y2="-81"/>
			</g>
			<g>
				<line class="st3" x1="1" y1="-71" x2="1" y2="-71"/>
			</g>
			<g>
				<line class="st3" x1="1" y1="-61" x2="1" y2="-61"/>
			</g>
			<g>
				<line class="st3" x1="1" y1="-51" x2="1" y2="-51"/>
			</g>
			<g>
				<line class="st3" x1="1" y1="-41" x2="1" y2="-41"/>
			</g>
			<g>
				<line class="st3" x1="1" y1="-31" x2="1" y2="-31"/>
			</g>
			<g>
				<line class="st3" x1="1" y1="-21" x2="1" y2="-21"/>
			</g>
			<g>
				<line class="st3" x1="1" y1="-11" x2="1" y2="-11"/>
			</g>
			<g>
				<line class="st3" x1="1" y1="-1" x2="1" y2="-1"/>
			</g>
		</g>
		<g>
			<g>
				<line class="st3" x1="241" y1="-241" x2="241" y2="-241"/>
			</g>
		</g>
		<g>
			<g>
				<line class="st3" x1="1" y1="-241" x2="1" y2="-241"/>
				<line class="st4" x1="11" y1="-241" x2="236" y2="-241"/>
				<line class="st3" x1="241" y1="-241" x2="241" y2="-241"/>
			</g>
		</g>
		<g>
			<g>
				<line class="st3" x1="1" y1="-241" x2="1" y2="-241"/>
			</g>
		</g>
	</g>
</pattern>
<g>
	<g>
		<path d="M1097.2,799.2l-4.8,7.1v5.2h-1.3v-5.2l-4.7-7.1h1.5l3.9,5.9l3.9-5.9H1097.2z"/>
		<path d="M1098.5,807.7c0.1,1.6,1.4,2.9,3,2.9c1.2,0,2.2-0.6,2.6-1.8l1.1,0.3c-0.5,1.6-2,2.5-3.7,2.5c-2.4,0-4.2-1.9-4.2-4.3
			c0-2.3,1.7-4.3,4.1-4.3c2.6,0,3.9,1.8,3.9,4.3c0,0.1,0,0.3,0,0.4H1098.5z M1104,806.7c-0.2-1.5-1.1-2.6-2.7-2.6
			c-1.5,0-2.6,1.2-2.8,2.6H1104z"/>
		<path d="M1110.7,811.6c-2.3,0-3-1.5-3.2-2.5l1.1-0.3c0.2,0.8,0.7,1.7,2,1.7c0.9,0,1.7-0.5,1.7-1.4c0-1-1.1-1.3-2-1.4
			c-1.4-0.2-2.8-0.7-2.8-2.3c0-1.6,1.4-2.5,2.8-2.5c2.2,0,2.9,1.5,3,2.3l-1.1,0.3c-0.1-0.6-0.6-1.5-1.9-1.5c-0.9,0-1.6,0.6-1.6,1.3
			c0,1,1.1,1.2,2,1.3c1.4,0.2,2.7,0.9,2.7,2.4C1113.7,810.7,1112.3,811.6,1110.7,811.6z"/>
		<path d="M1116.4,813.3c0.7-0.5,1.3-1.2,1.4-1.9c-0.1,0-0.3,0.1-0.4,0.1c-0.6,0-1-0.4-1-1c0-0.6,0.5-1.1,1.1-1.1
			c0.7,0,1.2,0.6,1.2,1.5v0.1c0,1.1-0.6,2.1-1.7,2.9L1116.4,813.3z"/>
		<path d="M1127.6,799.2v12.3h-1.3v-12.3H1127.6z"/>
		<path d="M1142.7,806.6c0-1.5-0.8-2.5-2.3-2.5c-1.5,0-2.5,1.2-2.5,2.6v4.8h-1.2v-12.7h1.2v5.9c0.7-1.1,1.6-1.7,2.9-1.7
			c2.1,0,3.2,1.4,3.2,3.4v5.2h-1.2V806.6z"/>
		<path d="M1152.3,806.1c0-1.3-0.7-2-2.1-2c-1.4,0-2.1,0.9-2.2,1.7l-1.2-0.3c0.1-0.7,1-2.5,3.4-2.5c1.8,0,2.6,0.8,3.1,1.7
			c0.2,0.5,0.3,1.1,0.3,1.4v5.4h-1.2V810h0c-0.7,1-1.6,1.6-2.8,1.6c-1.7,0-2.8-1-2.8-2.5v-0.1c0-1.8,1.8-2.4,3.3-2.4h2.3V806.1z
			 M1150,807.7c-0.9,0-2.1,0.3-2.1,1.4c0,0.9,0.8,1.5,1.8,1.5c1.5,0,2.6-1,2.6-2.6v-0.3H1150z"/>
		<path d="M1155.7,803.1h1.3l2.9,7l2.9-7h1.3l-3.6,8.4h-1.3L1155.7,803.1z"/>
		<path d="M1167,807.7c0.1,1.6,1.4,2.9,3,2.9c1.2,0,2.2-0.6,2.6-1.8l1.1,0.3c-0.5,1.6-2,2.5-3.7,2.5c-2.4,0-4.2-1.9-4.2-4.3
			c0-2.3,1.7-4.3,4.1-4.3c2.6,0,3.9,1.8,3.9,4.3c0,0.1,0,0.3,0,0.4H1167z M1172.5,806.7c-0.2-1.5-1.1-2.6-2.7-2.6
			c-1.5,0-2.6,1.2-2.8,2.6H1172.5z"/>
		<path d="M1185.5,810.6c1.8,0,2.6-1.4,2.8-2l1.1,0.4c-0.4,1.3-1.8,2.7-3.9,2.7c-2.4,0-4.3-1.8-4.3-4.3c0-2.5,2-4.4,4.3-4.4
			c1.9,0,3.5,1.3,3.8,2.7l-1.1,0.4c-0.2-0.6-1-1.9-2.8-1.9c-1.8,0-3,1.5-3,3.2C1182.4,809,1183.6,810.6,1185.5,810.6z"/>
		<path d="M1191.6,807.4c0-2.5,1.9-4.4,4.3-4.4c2.4,0,4.3,1.9,4.3,4.3c0,2.5-1.9,4.4-4.3,4.4
			C1193.5,811.6,1191.6,809.7,1191.6,807.4z M1199,807.4c0-1.8-1.3-3.3-3.1-3.3c-1.8,0-3.1,1.5-3.1,3.2c0,1.8,1.3,3.3,3.1,3.3
			C1197.7,810.6,1199,809.1,1199,807.4z"/>
		<path d="M1209.2,806.6c0-1.5-0.8-2.5-2.3-2.5c-1.5,0-2.5,1.2-2.5,2.6v4.8h-1.2v-8.4h1.2v1.5c0.7-1.1,1.6-1.7,2.9-1.7
			c2.1,0,3.2,1.4,3.2,3.4v5.2h-1.2V806.6z"/>
		<path d="M1217.5,810.6c1.8,0,2.6-1.4,2.8-2l1.1,0.4c-0.4,1.3-1.8,2.7-3.9,2.7c-2.4,0-4.3-1.8-4.3-4.3c0-2.5,2-4.4,4.3-4.4
			c1.9,0,3.5,1.3,3.8,2.7l-1.1,0.4c-0.2-0.6-1-1.9-2.8-1.9c-1.8,0-3,1.5-3,3.2C1214.5,809,1215.6,810.6,1217.5,810.6z"/>
		<path d="M1224.9,807.7c0.1,1.6,1.4,2.9,3,2.9c1.2,0,2.2-0.6,2.6-1.8l1.1,0.3c-0.5,1.6-2,2.5-3.7,2.5c-2.4,0-4.2-1.9-4.2-4.3
			c0-2.3,1.7-4.3,4.1-4.3c2.6,0,3.9,1.8,3.9,4.3c0,0.1,0,0.3,0,0.4H1224.9z M1230.4,806.7c-0.2-1.5-1.1-2.6-2.7-2.6
			c-1.5,0-2.6,1.2-2.8,2.6H1230.4z"/>
		<path d="M1235.7,804.8c0.6-1.3,1.7-1.8,2.7-1.8c0.1,0,0.3,0,0.4,0v1.3c-0.2,0-0.3,0-0.5,0c-2,0-2.6,1.6-2.6,3.1v4.1h-1.2v-8.4h1.2
			V804.8z"/>
		<path d="M1247.3,806.6c0-1.5-0.8-2.5-2.3-2.5c-1.5,0-2.5,1.2-2.5,2.6v4.8h-1.2v-8.4h1.2v1.5c0.7-1.1,1.6-1.7,2.9-1.7
			c2.1,0,3.2,1.4,3.2,3.4v5.2h-1.2V806.6z"/>
		<path d="M1254.5,811.6c-2.3,0-3-1.5-3.2-2.5l1.1-0.3c0.2,0.8,0.7,1.7,2,1.7c0.9,0,1.7-0.5,1.7-1.4c0-1-1.1-1.3-2-1.4
			c-1.4-0.2-2.8-0.7-2.8-2.3c0-1.6,1.4-2.5,2.8-2.5c2.2,0,2.9,1.5,3,2.3l-1.1,0.3c-0.1-0.6-0.6-1.5-1.9-1.5c-0.9,0-1.6,0.6-1.6,1.3
			c0,1,1.1,1.2,2,1.3c1.4,0.2,2.7,0.9,2.7,2.4C1257.4,810.7,1256.1,811.6,1254.5,811.6z"/>
	</g>
</g>
<circle class="st5" cx="1058.3" cy="807.3" r="14.9"/>
<g>
	<g>
		<path d="M1097.7,853.6v12.3h-1.4l-7.3-10.4v10.4h-1.3v-12.3h1.5l7.2,10.2v-10.2H1097.7z"/>
		<path d="M1100.9,861.8c0-2.5,1.9-4.4,4.3-4.4c2.4,0,4.3,1.9,4.3,4.3c0,2.5-1.9,4.4-4.3,4.4C1102.8,866,1100.9,864.1,1100.9,861.8z
			 M1108.3,861.8c0-1.8-1.3-3.3-3.1-3.3c-1.8,0-3.1,1.5-3.1,3.2c0,1.8,1.3,3.3,3.1,3.3C1107,865,1108.3,863.5,1108.3,861.8z"/>
		<path d="M1112.2,867.7c0.7-0.5,1.3-1.2,1.4-1.9c-0.1,0-0.3,0.1-0.4,0.1c-0.6,0-1-0.4-1-1c0-0.6,0.5-1.1,1.1-1.1
			c0.7,0,1.2,0.6,1.2,1.5v0.1c0,1.1-0.6,2.1-1.7,2.9L1112.2,867.7z"/>
		<path d="M1123.5,853.6v12.3h-1.3v-12.3H1123.5z"/>
		<path d="M1135.8,857.4c1.6,0,2.6,0.9,3.2,1.9v-6.1h1.2v12.7h-1.2v-1.8c-0.6,1.1-1.6,1.9-3.3,1.9c-2.4,0-3.9-2-3.9-4.3
			C1131.9,859.5,1133.4,857.4,1135.8,857.4z M1139.1,861.7c0-1.7-1.3-3.2-3-3.2c-1.8,0-2.9,1.5-2.9,3.3c0,1.7,1.1,3.2,2.9,3.2
			C1137.8,865,1139.1,863.4,1139.1,861.7z"/>
		<path d="M1143.2,861.8c0-2.5,1.9-4.4,4.3-4.4c2.4,0,4.3,1.9,4.3,4.3c0,2.5-1.9,4.4-4.3,4.4C1145.1,866,1143.2,864.1,1143.2,861.8z
			 M1150.6,861.8c0-1.8-1.3-3.3-3.1-3.3s-3.1,1.5-3.1,3.2c0,1.8,1.3,3.3,3.1,3.3C1149.3,865,1150.6,863.5,1150.6,861.8z"/>
		<path d="M1165.9,861c0-1.5-0.8-2.5-2.3-2.5c-1.5,0-2.5,1.2-2.5,2.6v4.8h-1.2v-8.4h1.2v1.5c0.7-1.1,1.6-1.7,2.9-1.7
			c2.1,0,3.2,1.4,3.2,3.4v5.2h-1.2V861z"/>
		<path d="M1170,861.8c0-2.5,1.9-4.4,4.3-4.4c2.4,0,4.3,1.9,4.3,4.3c0,2.5-1.9,4.4-4.3,4.4C1171.8,866,1170,864.1,1170,861.8z
			 M1177.3,861.8c0-1.8-1.3-3.3-3.1-3.3c-1.8,0-3.1,1.5-3.1,3.2c0,1.8,1.3,3.3,3.1,3.3C1176.1,865,1177.3,863.5,1177.3,861.8z"/>
		<path d="M1182,863.7v-5.1h-1.5v-1.1h1.5v-2.4h1.2v2.4h2.1v1.1h-2.1v5.1c0,0.8,0.4,1.2,1.4,1.2c0.3,0,0.6,0,0.8-0.1v1
			c-0.3,0.1-0.7,0.1-1,0.1C1182.5,866,1182,865,1182,863.7z"/>
		<path d="M1199.3,861c0-1.5-0.8-2.5-2.3-2.5c-1.5,0-2.5,1.2-2.5,2.6v4.8h-1.2v-12.7h1.2v5.9c0.7-1.1,1.6-1.7,2.9-1.7
			c2.1,0,3.2,1.4,3.2,3.4v5.2h-1.2V861z"/>
		<path d="M1209,860.5c0-1.3-0.7-2-2.1-2c-1.4,0-2.1,0.9-2.2,1.7l-1.2-0.3c0.1-0.7,1-2.5,3.4-2.5c1.8,0,2.6,0.8,3.1,1.7
			c0.2,0.5,0.3,1.1,0.3,1.4v5.4h-1.2v-1.5h0c-0.7,1-1.6,1.6-2.8,1.6c-1.7,0-2.8-1-2.8-2.5v-0.1c0-1.8,1.8-2.4,3.3-2.4h2.3V860.5z
			 M1206.7,862.1c-0.9,0-2.1,0.3-2.1,1.4c0,0.9,0.8,1.5,1.8,1.5c1.5,0,2.6-1,2.6-2.6v-0.3H1206.7z"/>
		<path d="M1212.4,857.5h1.3l2.9,7l2.9-7h1.3l-3.6,8.4h-1.3L1212.4,857.5z"/>
		<path d="M1223.7,862.1c0.1,1.6,1.4,2.9,3,2.9c1.2,0,2.2-0.6,2.6-1.8l1.1,0.3c-0.5,1.6-2,2.5-3.7,2.5c-2.4,0-4.2-1.9-4.2-4.3
			c0-2.3,1.7-4.3,4.1-4.3c2.6,0,3.9,1.8,3.9,4.3c0,0.1,0,0.3,0,0.4H1223.7z M1229.2,861.1c-0.2-1.5-1.1-2.6-2.7-2.6
			c-1.5,0-2.6,1.2-2.8,2.6H1229.2z"/>
		<path d="M1242.1,865c1.8,0,2.6-1.4,2.8-2l1.1,0.4c-0.4,1.3-1.8,2.7-3.9,2.7c-2.4,0-4.3-1.8-4.3-4.3c0-2.5,2-4.4,4.3-4.4
			c1.9,0,3.5,1.3,3.8,2.7l-1.1,0.4c-0.2-0.6-1-1.9-2.8-1.9c-1.8,0-3,1.5-3,3.2C1239.1,863.4,1240.2,865,1242.1,865z"/>
		<path d="M1248.3,861.8c0-2.5,1.9-4.4,4.3-4.4c2.4,0,4.3,1.9,4.3,4.3c0,2.5-1.9,4.4-4.3,4.4C1250.1,866,1248.3,864.1,1248.3,861.8z
			 M1255.6,861.8c0-1.8-1.3-3.3-3.1-3.3s-3.1,1.5-3.1,3.2c0,1.8,1.3,3.3,3.1,3.3C1254.4,865,1255.6,863.5,1255.6,861.8z"/>
		<path d="M1265.8,861c0-1.5-0.8-2.5-2.3-2.5c-1.5,0-2.5,1.2-2.5,2.6v4.8h-1.2v-8.4h1.2v1.5c0.7-1.1,1.6-1.7,2.9-1.7
			c2.1,0,3.2,1.4,3.2,3.4v5.2h-1.2V861z"/>
		<path d="M1274.2,865c1.8,0,2.6-1.4,2.8-2l1.1,0.4c-0.4,1.3-1.8,2.7-3.9,2.7c-2.4,0-4.3-1.8-4.3-4.3c0-2.5,2-4.4,4.3-4.4
			c1.9,0,3.5,1.3,3.8,2.7l-1.1,0.4c-0.2-0.6-1-1.9-2.8-1.9c-1.8,0-3,1.5-3,3.2C1271.1,863.4,1272.3,865,1274.2,865z"/>
		<path d="M1281.5,862.1c0.1,1.6,1.4,2.9,3,2.9c1.2,0,2.2-0.6,2.6-1.8l1.1,0.3c-0.5,1.6-2,2.5-3.7,2.5c-2.4,0-4.2-1.9-4.2-4.3
			c0-2.3,1.7-4.3,4.1-4.3c2.6,0,3.9,1.8,3.9,4.3c0,0.1,0,0.3,0,0.4H1281.5z M1287.1,861.1c-0.2-1.5-1.1-2.6-2.7-2.6
			c-1.5,0-2.6,1.2-2.8,2.6H1287.1z"/>
		<path d="M1292.4,859.2c0.6-1.3,1.7-1.8,2.7-1.8c0.1,0,0.3,0,0.4,0v1.3c-0.2,0-0.3,0-0.5,0c-2,0-2.6,1.6-2.6,3.1v4.1h-1.2v-8.4h1.2
			V859.2z"/>
		<path d="M1303.9,861c0-1.5-0.8-2.5-2.3-2.5c-1.5,0-2.5,1.2-2.5,2.6v4.8h-1.2v-8.4h1.2v1.5c0.7-1.1,1.6-1.7,2.9-1.7
			c2.1,0,3.2,1.4,3.2,3.4v5.2h-1.2V861z"/>
		<path d="M1311.1,866c-2.3,0-3-1.5-3.2-2.5l1.1-0.3c0.2,0.8,0.7,1.7,2,1.7c0.9,0,1.7-0.5,1.7-1.4c0-1-1.1-1.3-2-1.4
			c-1.4-0.2-2.8-0.7-2.8-2.3c0-1.6,1.4-2.5,2.8-2.5c2.2,0,2.9,1.5,3,2.3l-1.1,0.3c-0.1-0.6-0.6-1.5-1.9-1.5c-0.9,0-1.6,0.6-1.6,1.3
			c0,1,1.1,1.2,2,1.3c1.4,0.2,2.7,0.9,2.7,2.4C1314.1,865.1,1312.8,866,1311.1,866z"/>
	</g>
</g>
<g>
	<pattern  id="SVGID_1_" xlink:href="#bright_green" patternTransform="matrix(0 1.1179 -1.0731 0 -21549.3555 -133.6807)">
	</pattern>
	<circle class="st6" cx="1058.3" cy="861.7" r="14.9"/>
</g>
<g>
	<g>
		<path d="M1089,899.1v12.3h-1.3v-12.3H1089z"/>
		<path d="M1101.3,902.9c1.6,0,2.6,0.9,3.2,1.9v-6.1h1.2v12.7h-1.2v-1.8c-0.6,1.1-1.6,1.9-3.3,1.9c-2.4,0-3.9-2-3.9-4.3
			C1097.4,905,1098.9,902.9,1101.3,902.9z M1104.5,907.2c0-1.7-1.3-3.2-3-3.2c-1.8,0-2.9,1.5-2.9,3.3c0,1.7,1.1,3.2,2.9,3.2
			C1103.3,910.4,1104.5,908.9,1104.5,907.2z"/>
		<path d="M1108.7,907.2c0-2.5,1.9-4.4,4.3-4.4c2.4,0,4.3,1.9,4.3,4.3c0,2.5-1.9,4.4-4.3,4.4
			C1110.6,911.5,1108.7,909.6,1108.7,907.2z M1116.1,907.2c0-1.8-1.3-3.3-3.1-3.3c-1.8,0-3.1,1.5-3.1,3.2c0,1.8,1.3,3.3,3.1,3.3
			C1114.8,910.4,1116.1,909,1116.1,907.2z"/>
		<path d="M1126.3,906.5c0-1.5-0.8-2.5-2.3-2.5c-1.5,0-2.5,1.2-2.5,2.6v4.8h-1.2V903h1.2v1.5c0.7-1.1,1.6-1.7,2.9-1.7
			c2.1,0,3.2,1.4,3.2,3.4v5.2h-1.2V906.5z"/>
		<path d="M1130.2,903c0.7-0.5,1.3-1.2,1.4-1.9c-0.1,0-0.3,0.1-0.4,0.1c-0.6,0-1-0.4-1-1c0-0.6,0.5-1.1,1.1-1.1
			c0.7,0,1.2,0.6,1.2,1.5v0.1c0,1.1-0.6,2.1-1.7,2.9L1130.2,903z"/>
		<path d="M1136.1,909.2v-5.1h-1.5V903h1.5v-2.4h1.2v2.4h2.1v1.1h-2.1v5.1c0,0.8,0.4,1.2,1.4,1.2c0.3,0,0.6,0,0.8-0.1v1
			c-0.3,0.1-0.7,0.1-1,0.1C1136.7,911.4,1136.1,910.4,1136.1,909.2z"/>
		<path d="M1148.6,911.4h-1.2v-12.8h1.2v7.8l4-3.4h1.7l-4.4,3.8l4.6,4.6h-1.7l-4.2-4.2h0V911.4z"/>
		<path d="M1162.8,906.5c0-1.5-0.8-2.5-2.3-2.5c-1.5,0-2.5,1.2-2.5,2.6v4.8h-1.2V903h1.2v1.5c0.7-1.1,1.6-1.7,2.9-1.7
			c2.1,0,3.2,1.4,3.2,3.4v5.2h-1.2V906.5z"/>
		<path d="M1166.8,907.2c0-2.5,1.9-4.4,4.3-4.4c2.4,0,4.3,1.9,4.3,4.3c0,2.5-1.9,4.4-4.3,4.4
			C1168.7,911.5,1166.8,909.6,1166.8,907.2z M1174.2,907.2c0-1.8-1.3-3.3-3.1-3.3s-3.1,1.5-3.1,3.2c0,1.8,1.3,3.3,3.1,3.3
			C1172.9,910.4,1174.2,909,1174.2,907.2z"/>
		<path d="M1180,911.4l-2.8-8.4h1.3l2.2,6.9h0l2.3-6.9h1.2l2.3,7h0l2.2-7h1.3l-2.8,8.4h-1.4l-2.2-6.8h0l-2.2,6.8H1180z"/>
		<path d="M1203.7,906.5c0-1.5-0.8-2.5-2.3-2.5c-1.5,0-2.5,1.2-2.5,2.6v4.8h-1.2v-12.7h1.2v5.9c0.7-1.1,1.6-1.7,2.9-1.7
			c2.1,0,3.2,1.4,3.2,3.4v5.2h-1.2V906.5z"/>
		<path d="M1207.7,907.2c0-2.5,1.9-4.4,4.3-4.4c2.4,0,4.3,1.9,4.3,4.3c0,2.5-1.9,4.4-4.3,4.4
			C1209.6,911.5,1207.7,909.6,1207.7,907.2z M1215.1,907.2c0-1.8-1.3-3.3-3.1-3.3c-1.8,0-3.1,1.5-3.1,3.2c0,1.8,1.3,3.3,3.1,3.3
			C1213.9,910.4,1215.1,909,1215.1,907.2z"/>
		<path d="M1220.9,911.4l-2.8-8.4h1.3l2.2,6.9h0l2.3-6.9h1.2l2.3,7h0l2.2-7h1.3l-2.8,8.4h-1.4l-2.2-6.8h0l-2.2,6.8H1220.9z"/>
		<path d="M1239.2,909.2v-5.1h-1.5V903h1.5v-2.4h1.2v2.4h2.1v1.1h-2.1v5.1c0,0.8,0.4,1.2,1.4,1.2c0.3,0,0.6,0,0.8-0.1v1
			c-0.3,0.1-0.7,0.1-1,0.1C1239.7,911.4,1239.2,910.4,1239.2,909.2z"/>
		<path d="M1251.4,906.5c0-1.5-0.8-2.5-2.3-2.5c-1.5,0-2.5,1.2-2.5,2.6v4.8h-1.2v-12.7h1.2v5.9c0.7-1.1,1.6-1.7,2.9-1.7
			c2.1,0,3.2,1.4,3.2,3.4v5.2h-1.2V906.5z"/>
		<path d="M1256.6,907.6c0.1,1.6,1.4,2.9,3,2.9c1.2,0,2.2-0.6,2.6-1.8l1.1,0.3c-0.5,1.6-2,2.5-3.7,2.5c-2.4,0-4.2-1.9-4.2-4.3
			c0-2.3,1.7-4.3,4.1-4.3c2.6,0,3.9,1.8,3.9,4.3c0,0.1,0,0.3,0,0.4H1256.6z M1262.2,906.5c-0.2-1.5-1.1-2.6-2.7-2.6
			c-1.5,0-2.6,1.2-2.8,2.6H1262.2z"/>
		<path d="M1275.1,910.4c1.8,0,2.6-1.4,2.8-2l1.1,0.4c-0.4,1.3-1.8,2.7-3.9,2.7c-2.4,0-4.3-1.8-4.3-4.3c0-2.5,2-4.4,4.3-4.4
			c1.9,0,3.5,1.3,3.8,2.7l-1.1,0.4c-0.2-0.6-1-1.9-2.8-1.9c-1.8,0-3,1.5-3,3.2C1272.1,908.9,1273.2,910.4,1275.1,910.4z"/>
		<path d="M1287.9,906.5c0-1.5-0.8-2.5-2.3-2.5c-1.5,0-2.5,1.2-2.5,2.6v4.8h-1.2v-12.7h1.2v5.9c0.7-1.1,1.6-1.7,2.9-1.7
			c2.1,0,3.2,1.4,3.2,3.4v5.2h-1.2V906.5z"/>
		<path d="M1297.6,906c0-1.3-0.7-2-2.1-2c-1.4,0-2.1,0.9-2.2,1.7l-1.2-0.3c0.1-0.7,1-2.5,3.4-2.5c1.8,0,2.6,0.8,3.1,1.7
			c0.2,0.5,0.3,1.1,0.3,1.4v5.4h-1.2v-1.5h0c-0.7,1-1.6,1.6-2.8,1.6c-1.7,0-2.8-1-2.8-2.5V909c0-1.8,1.8-2.4,3.3-2.4h2.3V906z
			 M1295.2,907.5c-0.9,0-2.1,0.3-2.1,1.4c0,0.9,0.8,1.5,1.8,1.5c1.5,0,2.6-1,2.6-2.6v-0.3H1295.2z"/>
		<path d="M1308.2,906.5c0-1.5-0.8-2.5-2.3-2.5c-1.5,0-2.5,1.2-2.5,2.6v4.8h-1.2V903h1.2v1.5c0.7-1.1,1.6-1.7,2.9-1.7
			c2.1,0,3.2,1.4,3.2,3.4v5.2h-1.2V906.5z"/>
		<path d="M1319.4,909.5c-0.6,1.1-1.7,1.9-3.2,1.9c-2.4,0-3.9-2-3.9-4.3c0-2.2,1.5-4.3,3.9-4.3c1.6,0,2.6,0.9,3.3,1.9V903h1.2v8.4
			c0,2.7-1.7,4.1-4.2,4.1c-2.2,0-3.7-1.1-4.1-2.9l1.1-0.4c0.3,1,1.1,2.2,3,2.2c1.6,0,3-0.9,3-3V909.5z M1319.5,907.1
			c0-1.6-1.3-3.2-3-3.2c-1.8,0-2.9,1.4-2.9,3.2c0,1.7,1.1,3.2,2.9,3.2C1318.2,910.3,1319.5,908.8,1319.5,907.1z"/>
		<path d="M1324.8,907.6c0.1,1.6,1.4,2.9,3,2.9c1.2,0,2.2-0.6,2.6-1.8l1.1,0.3c-0.5,1.6-2,2.5-3.7,2.5c-2.4,0-4.2-1.9-4.2-4.3
			c0-2.3,1.7-4.3,4.1-4.3c2.6,0,3.9,1.8,3.9,4.3c0,0.1,0,0.3,0,0.4H1324.8z M1330.4,906.5c-0.2-1.5-1.1-2.6-2.7-2.6
			c-1.5,0-2.6,1.2-2.8,2.6H1330.4z"/>
		<path d="M1337,911.5c-2.3,0-3-1.5-3.2-2.5l1.1-0.3c0.2,0.8,0.7,1.7,2,1.7c0.9,0,1.7-0.5,1.7-1.4c0-1-1.1-1.3-2-1.4
			c-1.4-0.2-2.8-0.7-2.8-2.3c0-1.6,1.4-2.5,2.8-2.5c2.2,0,2.9,1.5,3,2.3l-1.1,0.3c-0.1-0.6-0.6-1.5-1.9-1.5c-0.9,0-1.6,0.6-1.6,1.3
			c0,1,1.1,1.2,2,1.3c1.4,0.2,2.7,0.9,2.7,2.4C1340,910.5,1338.6,911.5,1337,911.5z"/>
		<path d="M1089.2,930.1l-2.8-8.4h1.3l2.2,6.9h0l2.3-6.9h1.2l2.3,7h0l2.2-7h1.3l-2.8,8.4h-1.4l-2.2-6.8h0l-2.2,6.8H1089.2z"/>
		<path d="M1102.3,917.9c0.5,0,0.9,0.4,0.9,0.9c0,0.5-0.4,0.9-0.9,0.9c-0.5,0-0.9-0.4-0.9-0.9
			C1101.4,918.3,1101.8,917.9,1102.3,917.9z M1102.9,921.8v8.4h-1.2v-8.4H1102.9z"/>
		<path d="M1107.7,917.4v12.8h-1.2v-12.8H1107.7z"/>
		<path d="M1112.5,917.4v12.8h-1.2v-12.8H1112.5z"/>
		<path d="M1126.2,924.8c0-1.3-0.7-2-2.1-2c-1.4,0-2.1,0.9-2.2,1.7l-1.2-0.3c0.1-0.7,1-2.5,3.4-2.5c1.8,0,2.6,0.8,3.1,1.7
			c0.2,0.5,0.3,1.1,0.3,1.4v5.4h-1.2v-1.5h0c-0.7,1-1.6,1.6-2.8,1.6c-1.7,0-2.8-1-2.8-2.5v-0.1c0-1.8,1.8-2.4,3.3-2.4h2.3V924.8z
			 M1123.9,926.3c-0.9,0-2.1,0.3-2.1,1.4c0,0.9,0.8,1.5,1.8,1.5c1.5,0,2.6-1,2.6-2.6v-0.3H1123.9z"/>
		<path d="M1137.6,920.2v1.6h2.2v1.1h-2.2v7.3h-1.2v-7.3h-3.9v7.3h-1.2v-7.3h-1.6v-1.1h1.6v-1.5c0-1.9,1.1-2.9,2.6-2.9
			c0.2,0,0.6,0,0.9,0.2v1c-0.3-0.1-0.7-0.1-0.9-0.1c-0.6,0-1.4,0.3-1.4,1.8v1.6h3.9v-1.5c0-1.9,1.1-2.9,2.6-2.9c0.2,0,0.6,0,0.9,0.2
			v1c-0.3-0.1-0.7-0.1-0.9-0.1C1138.4,918.4,1137.6,918.8,1137.6,920.2z"/>
		<path d="M1142.7,926.3c0.1,1.6,1.4,2.9,3,2.9c1.2,0,2.2-0.6,2.6-1.8l1.1,0.3c-0.5,1.6-2,2.5-3.7,2.5c-2.4,0-4.2-1.9-4.2-4.3
			c0-2.3,1.7-4.3,4.1-4.3c2.6,0,3.9,1.8,3.9,4.3c0,0.1,0,0.3,0,0.4H1142.7z M1148.2,925.3c-0.2-1.5-1.1-2.6-2.7-2.6
			c-1.5,0-2.6,1.2-2.8,2.6H1148.2z"/>
		<path d="M1156,929.2c1.8,0,2.6-1.4,2.8-2l1.1,0.4c-0.4,1.3-1.8,2.7-3.9,2.7c-2.4,0-4.3-1.8-4.3-4.3c0-2.5,2-4.4,4.3-4.4
			c1.9,0,3.5,1.3,3.8,2.7l-1.1,0.4c-0.2-0.6-1-1.9-2.8-1.9c-1.8,0-3,1.5-3,3.2C1152.9,927.7,1154.1,929.2,1156,929.2z"/>
		<path d="M1163.2,928v-5.1h-1.5v-1.1h1.5v-2.4h1.2v2.4h2.1v1.1h-2.1v5.1c0,0.8,0.4,1.2,1.4,1.2c0.3,0,0.6,0,0.8-0.1v1
			c-0.3,0.1-0.7,0.1-1,0.1C1163.7,930.2,1163.2,929.2,1163.2,928z"/>
		<path d="M1180.2,925.2c0-1.4-0.7-2.5-2.2-2.5c-1.5,0-2.3,1.3-2.3,2.6v4.8h-1.2v-8.4h1.2v1.5c0.7-1,1.4-1.6,2.7-1.6
			c1.2,0,2.2,0.6,2.7,1.7c0.7-1.1,1.6-1.7,2.9-1.7c2,0,3.1,1.4,3.1,3.3v5.2h-1.2v-4.9c0-1.4-0.6-2.5-2.2-2.5c-1.5,0-2.3,1.2-2.3,2.6
			v4.8h-1.2V925.2z"/>
		<path d="M1193,929.6l-3.8-7.8h1.4l3.1,6.5l2.9-6.5h1.3l-5.7,12.5h-1.3L1193,929.6z"/>
		<path d="M1204.6,926c0-2.5,1.9-4.4,4.3-4.4c2.4,0,4.3,1.9,4.3,4.3c0,2.5-1.9,4.4-4.3,4.4C1206.4,930.3,1204.6,928.4,1204.6,926z
			 M1212,926c0-1.8-1.3-3.3-3.1-3.3s-3.1,1.5-3.1,3.2c0,1.8,1.3,3.3,3.1,3.3C1210.7,929.2,1212,927.7,1212,926z"/>
		<path d="M1217.3,923.4c0.6-1.3,1.7-1.8,2.7-1.8c0.1,0,0.3,0,0.4,0v1.3c-0.2,0-0.3,0-0.5,0c-2,0-2.6,1.6-2.6,3.1v4.1h-1.2v-8.4h1.2
			V923.4z"/>
		<path d="M1229.1,928.3c-0.6,1.1-1.7,1.9-3.2,1.9c-2.4,0-3.9-2-3.9-4.3c0-2.2,1.5-4.3,3.9-4.3c1.6,0,2.6,0.9,3.3,1.9v-1.8h1.2v8.4
			c0,2.7-1.7,4.1-4.2,4.1c-2.2,0-3.7-1.1-4.1-2.9l1.1-0.4c0.3,1,1.1,2.2,3,2.2c1.6,0,3-0.9,3-3V928.3z M1229.1,925.9
			c0-1.6-1.3-3.2-3-3.2c-1.8,0-2.9,1.4-2.9,3.2c0,1.7,1.1,3.2,2.9,3.2C1227.9,929.1,1229.1,927.6,1229.1,925.9z"/>
		<path d="M1238.9,924.8c0-1.3-0.7-2-2.1-2c-1.4,0-2.1,0.9-2.2,1.7l-1.2-0.3c0.1-0.7,1-2.5,3.4-2.5c1.8,0,2.6,0.8,3.1,1.7
			c0.2,0.5,0.3,1.1,0.3,1.4v5.4h-1.2v-1.5h0c-0.7,1-1.6,1.6-2.8,1.6c-1.7,0-2.8-1-2.8-2.5v-0.1c0-1.8,1.8-2.4,3.3-2.4h2.3V924.8z
			 M1236.6,926.3c-0.9,0-2.1,0.3-2.1,1.4c0,0.9,0.8,1.5,1.8,1.5c1.5,0,2.6-1,2.6-2.6v-0.3H1236.6z"/>
		<path d="M1249.6,925.3c0-1.5-0.8-2.5-2.3-2.5c-1.5,0-2.5,1.2-2.5,2.6v4.8h-1.2v-8.4h1.2v1.5c0.7-1.1,1.6-1.7,2.9-1.7
			c2.1,0,3.2,1.4,3.2,3.4v5.2h-1.2V925.3z"/>
		<path d="M1254.8,917.9c0.5,0,0.9,0.4,0.9,0.9c0,0.5-0.4,0.9-0.9,0.9c-0.5,0-0.9-0.4-0.9-0.9
			C1253.9,918.3,1254.3,917.9,1254.8,917.9z M1255.5,921.8v8.4h-1.2v-8.4H1255.5z"/>
		<path d="M1261.5,930.3c-2.3,0-3-1.5-3.2-2.5l1.1-0.3c0.2,0.8,0.7,1.7,2,1.7c0.9,0,1.7-0.5,1.7-1.4c0-1-1.1-1.3-2-1.4
			c-1.4-0.2-2.8-0.7-2.8-2.3c0-1.6,1.4-2.5,2.8-2.5c2.2,0,2.9,1.5,3,2.3l-1.1,0.3c-0.1-0.6-0.6-1.5-1.9-1.5c-0.9,0-1.6,0.6-1.6,1.3
			c0,1,1.1,1.2,2,1.3c1.4,0.2,2.7,0.9,2.7,2.4C1264.5,929.3,1263.2,930.3,1261.5,930.3z"/>
		<path d="M1272.5,924.8c0-1.3-0.7-2-2.1-2c-1.4,0-2.1,0.9-2.2,1.7l-1.2-0.3c0.1-0.7,1-2.5,3.4-2.5c1.8,0,2.6,0.8,3.1,1.7
			c0.2,0.5,0.3,1.1,0.3,1.4v5.4h-1.2v-1.5h0c-0.7,1-1.6,1.6-2.8,1.6c-1.7,0-2.8-1-2.8-2.5v-0.1c0-1.8,1.8-2.4,3.3-2.4h2.3V924.8z
			 M1270.2,926.3c-0.9,0-2.1,0.3-2.1,1.4c0,0.9,0.8,1.5,1.8,1.5c1.5,0,2.6-1,2.6-2.6v-0.3H1270.2z"/>
		<path d="M1277.6,928v-5.1h-1.5v-1.1h1.5v-2.4h1.2v2.4h2.1v1.1h-2.1v5.1c0,0.8,0.4,1.2,1.4,1.2c0.3,0,0.6,0,0.8-0.1v1
			c-0.3,0.1-0.7,0.1-1,0.1C1278.2,930.2,1277.6,929.2,1277.6,928z"/>
		<path d="M1284.4,917.9c0.5,0,0.9,0.4,0.9,0.9c0,0.5-0.4,0.9-0.9,0.9c-0.5,0-0.9-0.4-0.9-0.9
			C1283.5,918.3,1283.9,917.9,1284.4,917.9z M1285,921.8v8.4h-1.2v-8.4H1285z"/>
		<path d="M1287.9,926c0-2.5,1.9-4.4,4.3-4.4c2.4,0,4.3,1.9,4.3,4.3c0,2.5-1.9,4.4-4.3,4.4C1289.8,930.3,1287.9,928.4,1287.9,926z
			 M1295.3,926c0-1.8-1.3-3.3-3.1-3.3c-1.8,0-3.1,1.5-3.1,3.2c0,1.8,1.3,3.3,3.1,3.3C1294.1,929.2,1295.3,927.7,1295.3,926z"/>
		<path d="M1305.5,925.3c0-1.5-0.8-2.5-2.3-2.5c-1.5,0-2.5,1.2-2.5,2.6v4.8h-1.2v-8.4h1.2v1.5c0.7-1.1,1.6-1.7,2.9-1.7
			c2.1,0,3.2,1.4,3.2,3.4v5.2h-1.2V925.3z"/>
	</g>
</g>
<g>
	<circle class="st7" cx="1058.3" cy="916.1" r="14.9"/>
</g>
<g>
	<g>
		<path d="M1090.4,965.8v-11.1h-4.1v-1.2h9.5v1.2h-4.1v11.1H1090.4z"/>
		<path d="M1104.3,960.9c0-1.5-0.8-2.5-2.3-2.5c-1.5,0-2.5,1.2-2.5,2.6v4.8h-1.2V953h1.2v5.9c0.7-1.1,1.6-1.7,2.9-1.7
			c2.1,0,3.2,1.4,3.2,3.4v5.2h-1.2V960.9z"/>
		<path d="M1109.6,962c0.1,1.6,1.4,2.9,3,2.9c1.2,0,2.2-0.6,2.6-1.8l1.1,0.3c-0.5,1.6-2,2.5-3.7,2.5c-2.4,0-4.2-1.9-4.2-4.3
			c0-2.3,1.7-4.3,4.1-4.3c2.6,0,3.9,1.8,3.9,4.3c0,0.1,0,0.3,0,0.4H1109.6z M1115.1,960.9c-0.2-1.5-1.1-2.6-2.7-2.6
			c-1.5,0-2.6,1.2-2.8,2.6H1115.1z"/>
		<path d="M1128,964.8c1.8,0,2.6-1.4,2.8-2l1.1,0.4c-0.4,1.3-1.8,2.7-3.9,2.7c-2.4,0-4.3-1.8-4.3-4.3c0-2.5,2-4.4,4.3-4.4
			c1.9,0,3.5,1.3,3.8,2.7l-1.1,0.4c-0.2-0.6-1-1.9-2.8-1.9c-1.8,0-3,1.5-3,3.2C1125,963.3,1126.1,964.8,1128,964.8z"/>
		<path d="M1140.8,960.9c0-1.5-0.8-2.5-2.3-2.5c-1.5,0-2.5,1.2-2.5,2.6v4.8h-1.2V953h1.2v5.9c0.7-1.1,1.6-1.7,2.9-1.7
			c2.1,0,3.2,1.4,3.2,3.4v5.2h-1.2V960.9z"/>
		<path d="M1150.5,960.4c0-1.3-0.7-2-2.1-2c-1.4,0-2.1,0.9-2.2,1.7l-1.2-0.3c0.1-0.7,1-2.5,3.4-2.5c1.8,0,2.6,0.8,3.1,1.7
			c0.2,0.5,0.3,1.1,0.3,1.4v5.4h-1.2v-1.5h0c-0.7,1-1.6,1.6-2.8,1.6c-1.7,0-2.8-1-2.8-2.5v-0.1c0-1.8,1.8-2.4,3.3-2.4h2.3V960.4z
			 M1148.2,961.9c-0.9,0-2.1,0.3-2.1,1.4c0,0.9,0.8,1.5,1.8,1.5c1.5,0,2.6-1,2.6-2.6v-0.3H1148.2z"/>
		<path d="M1161.2,960.9c0-1.5-0.8-2.5-2.3-2.5c-1.5,0-2.5,1.2-2.5,2.6v4.8h-1.2v-8.4h1.2v1.5c0.7-1.1,1.6-1.7,2.9-1.7
			c2.1,0,3.2,1.4,3.2,3.4v5.2h-1.2V960.9z"/>
		<path d="M1172.4,963.9c-0.6,1.1-1.7,1.9-3.2,1.9c-2.4,0-3.9-2-3.9-4.3c0-2.2,1.5-4.3,3.9-4.3c1.6,0,2.6,0.9,3.3,1.9v-1.8h1.2v8.4
			c0,2.7-1.7,4.1-4.2,4.1c-2.2,0-3.7-1.1-4.1-2.9l1.1-0.4c0.3,1,1.1,2.2,3,2.2c1.6,0,3-0.9,3-3V963.9z M1172.4,961.5
			c0-1.6-1.3-3.2-3-3.2c-1.8,0-2.9,1.4-2.9,3.2c0,1.7,1.1,3.2,2.9,3.2C1171.1,964.7,1172.4,963.2,1172.4,961.5z"/>
		<path d="M1177.7,962c0.1,1.6,1.4,2.9,3,2.9c1.2,0,2.2-0.6,2.6-1.8l1.1,0.3c-0.5,1.6-2,2.5-3.7,2.5c-2.4,0-4.2-1.9-4.2-4.3
			c0-2.3,1.7-4.3,4.1-4.3c2.6,0,3.9,1.8,3.9,4.3c0,0.1,0,0.3,0,0.4H1177.7z M1183.3,960.9c-0.2-1.5-1.1-2.6-2.7-2.6
			c-1.5,0-2.6,1.2-2.8,2.6H1183.3z"/>
		<path d="M1189.9,965.9c-2.3,0-3-1.5-3.2-2.5l1.1-0.3c0.2,0.8,0.7,1.7,2,1.7c0.9,0,1.7-0.5,1.7-1.4c0-1-1.1-1.3-2-1.4
			c-1.4-0.2-2.8-0.7-2.8-2.3c0-1.6,1.4-2.5,2.8-2.5c2.2,0,2.9,1.5,3,2.3l-1.1,0.3c-0.1-0.6-0.6-1.5-1.9-1.5c-0.9,0-1.6,0.6-1.6,1.3
			c0,1,1.1,1.2,2,1.3c1.4,0.2,2.7,0.9,2.7,2.4C1192.9,964.9,1191.6,965.9,1189.9,965.9z"/>
		<path d="M1202.8,965.8l-2.8-8.4h1.3l2.2,6.9h0l2.3-6.9h1.2l2.3,7h0l2.2-7h1.3l-2.8,8.4h-1.4l-2.2-6.8h0l-2.2,6.8H1202.8z"/>
		<path d="M1216,953.5c0.5,0,0.9,0.4,0.9,0.9c0,0.5-0.4,0.9-0.9,0.9c-0.5,0-0.9-0.4-0.9-0.9C1215,953.9,1215.5,953.5,1216,953.5z
			 M1216.6,957.4v8.4h-1.2v-8.4H1216.6z"/>
		<path d="M1221.4,953v12.8h-1.2V953H1221.4z"/>
		<path d="M1226.1,953v12.8h-1.2V953H1226.1z"/>
		<path d="M1240.8,960.9c0-1.5-0.8-2.5-2.3-2.5c-1.5,0-2.5,1.2-2.5,2.6v4.8h-1.2v-8.4h1.2v1.5c0.7-1.1,1.6-1.7,2.9-1.7
			c2.1,0,3.2,1.4,3.2,3.4v5.2h-1.2V960.9z"/>
		<path d="M1244.9,961.6c0-2.5,1.9-4.4,4.3-4.4c2.4,0,4.3,1.9,4.3,4.3c0,2.5-1.9,4.4-4.3,4.4C1246.8,965.9,1244.9,964,1244.9,961.6z
			 M1252.3,961.6c0-1.8-1.3-3.3-3.1-3.3c-1.8,0-3.1,1.5-3.1,3.2c0,1.8,1.3,3.3,3.1,3.3C1251,964.8,1252.3,963.4,1252.3,961.6z"/>
		<path d="M1256.9,963.6v-5.1h-1.5v-1.1h1.5V955h1.2v2.4h2.1v1.1h-2.1v5.1c0,0.8,0.4,1.2,1.4,1.2c0.3,0,0.6,0,0.8-0.1v1
			c-0.3,0.1-0.7,0.1-1,0.1C1257.4,965.8,1256.9,964.8,1256.9,963.6z"/>
		<path d="M1273.2,960.4c0-1.3-0.7-2-2.1-2c-1.4,0-2.1,0.9-2.2,1.7l-1.2-0.3c0.1-0.7,1-2.5,3.4-2.5c1.8,0,2.6,0.8,3.1,1.7
			c0.2,0.5,0.3,1.1,0.3,1.4v5.4h-1.2v-1.5h0c-0.7,1-1.6,1.6-2.8,1.6c-1.7,0-2.8-1-2.8-2.5v-0.1c0-1.8,1.8-2.4,3.3-2.4h2.3V960.4z
			 M1270.9,961.9c-0.9,0-2.1,0.3-2.1,1.4c0,0.9,0.8,1.5,1.8,1.5c1.5,0,2.6-1,2.6-2.6v-0.3H1270.9z"/>
		<path d="M1284.7,955.8v1.6h2.2v1.1h-2.2v7.3h-1.2v-7.3h-3.9v7.3h-1.2v-7.3h-1.6v-1.1h1.6v-1.5c0-1.9,1.1-2.9,2.6-2.9
			c0.2,0,0.6,0,0.9,0.2v1c-0.3-0.1-0.7-0.1-0.9-0.1c-0.6,0-1.4,0.3-1.4,1.8v1.6h3.9v-1.5c0-1.9,1.1-2.9,2.6-2.9c0.2,0,0.6,0,0.9,0.2
			v1c-0.3-0.1-0.7-0.1-0.9-0.1C1285.5,954.1,1284.7,954.4,1284.7,955.8z"/>
		<path d="M1289.7,962c0.1,1.6,1.4,2.9,3,2.9c1.2,0,2.2-0.6,2.6-1.8l1.1,0.3c-0.5,1.6-2,2.5-3.7,2.5c-2.4,0-4.2-1.9-4.2-4.3
			c0-2.3,1.7-4.3,4.1-4.3c2.6,0,3.9,1.8,3.9,4.3c0,0.1,0,0.3,0,0.4H1289.7z M1295.2,960.9c-0.2-1.5-1.1-2.6-2.7-2.6
			c-1.5,0-2.6,1.2-2.8,2.6H1295.2z"/>
		<path d="M1303,964.8c1.8,0,2.6-1.4,2.8-2l1.1,0.4c-0.4,1.3-1.8,2.7-3.9,2.7c-2.4,0-4.3-1.8-4.3-4.3c0-2.5,2-4.4,4.3-4.4
			c1.9,0,3.5,1.3,3.8,2.7l-1.1,0.4c-0.2-0.6-1-1.9-2.8-1.9c-1.8,0-3,1.5-3,3.2C1300,963.3,1301.1,964.8,1303,964.8z"/>
		<path d="M1310.2,963.6v-5.1h-1.5v-1.1h1.5V955h1.2v2.4h2.1v1.1h-2.1v5.1c0,0.8,0.4,1.2,1.4,1.2c0.3,0,0.6,0,0.8-0.1v1
			c-0.3,0.1-0.7,0.1-1,0.1C1310.8,965.8,1310.2,964.8,1310.2,963.6z"/>
		<path d="M1093,979.6c0-1.4-0.7-2.5-2.2-2.5c-1.5,0-2.3,1.3-2.3,2.6v4.8h-1.2v-8.4h1.2v1.5c0.7-1,1.4-1.6,2.7-1.6
			c1.2,0,2.2,0.6,2.7,1.7c0.7-1.1,1.6-1.7,2.9-1.7c2,0,3.1,1.4,3.1,3.3v5.2h-1.2v-4.9c0-1.4-0.6-2.5-2.2-2.5c-1.5,0-2.3,1.2-2.3,2.6
			v4.8h-1.2V979.6z"/>
		<path d="M1105.9,984l-3.8-7.8h1.4l3.1,6.5l2.9-6.5h1.3l-5.7,12.5h-1.3L1105.9,984z"/>
		<path d="M1117.4,980.4c0-2.5,1.9-4.4,4.3-4.4c2.4,0,4.3,1.9,4.3,4.3c0,2.5-1.9,4.4-4.3,4.4
			C1119.3,984.7,1117.4,982.8,1117.4,980.4z M1124.8,980.4c0-1.8-1.3-3.3-3.1-3.3s-3.1,1.5-3.1,3.2c0,1.8,1.3,3.3,3.1,3.3
			C1123.5,983.6,1124.8,982.1,1124.8,980.4z"/>
		<path d="M1130.2,977.8c0.6-1.3,1.7-1.8,2.7-1.8c0.1,0,0.3,0,0.4,0v1.3c-0.2,0-0.3,0-0.5,0c-2,0-2.6,1.6-2.6,3.1v4.1h-1.2v-8.4h1.2
			V977.8z"/>
		<path d="M1142,982.7c-0.6,1.1-1.7,1.9-3.2,1.9c-2.4,0-3.9-2-3.9-4.3c0-2.2,1.5-4.3,3.9-4.3c1.6,0,2.6,0.9,3.3,1.9v-1.8h1.2v8.4
			c0,2.7-1.7,4.1-4.2,4.1c-2.2,0-3.7-1.1-4.1-2.9l1.1-0.4c0.3,1,1.1,2.2,3,2.2c1.6,0,3-0.9,3-3V982.7z M1142,980.3
			c0-1.6-1.3-3.2-3-3.2c-1.8,0-2.9,1.4-2.9,3.2c0,1.7,1.1,3.2,2.9,3.2C1140.7,983.5,1142,982,1142,980.3z"/>
		<path d="M1151.8,979.2c0-1.3-0.7-2-2.1-2c-1.4,0-2.1,0.9-2.2,1.7l-1.2-0.3c0.1-0.7,1-2.5,3.4-2.5c1.8,0,2.6,0.8,3.1,1.7
			c0.2,0.5,0.3,1.1,0.3,1.4v5.4h-1.2v-1.5h0c-0.7,1-1.6,1.6-2.8,1.6c-1.7,0-2.8-1-2.8-2.5v-0.1c0-1.8,1.8-2.4,3.3-2.4h2.3V979.2z
			 M1149.4,980.7c-0.9,0-2.1,0.3-2.1,1.4c0,0.9,0.8,1.5,1.8,1.5c1.5,0,2.6-1,2.6-2.6v-0.3H1149.4z"/>
		<path d="M1162.4,979.7c0-1.5-0.8-2.5-2.3-2.5c-1.5,0-2.5,1.2-2.5,2.6v4.8h-1.2v-8.4h1.2v1.5c0.7-1.1,1.6-1.7,2.9-1.7
			c2.1,0,3.2,1.4,3.2,3.4v5.2h-1.2V979.7z"/>
		<path d="M1167.7,972.3c0.5,0,0.9,0.4,0.9,0.9c0,0.5-0.4,0.9-0.9,0.9c-0.5,0-0.9-0.4-0.9-0.9
			C1166.8,972.7,1167.2,972.3,1167.7,972.3z M1168.3,976.2v8.4h-1.2v-8.4H1168.3z"/>
		<path d="M1174.4,984.7c-2.3,0-3-1.5-3.2-2.5l1.1-0.3c0.2,0.8,0.7,1.7,2,1.7c0.9,0,1.7-0.5,1.7-1.4c0-1-1.1-1.3-2-1.4
			c-1.4-0.2-2.8-0.7-2.8-2.3c0-1.6,1.4-2.5,2.8-2.5c2.2,0,2.9,1.5,3,2.3l-1.1,0.3c-0.1-0.6-0.6-1.5-1.9-1.5c-0.9,0-1.6,0.6-1.6,1.3
			c0,1,1.1,1.2,2,1.3c1.4,0.2,2.7,0.9,2.7,2.4C1177.3,983.7,1176,984.7,1174.4,984.7z"/>
		<path d="M1185.3,979.2c0-1.3-0.7-2-2.1-2c-1.4,0-2.1,0.9-2.2,1.7l-1.2-0.3c0.1-0.7,1-2.5,3.4-2.5c1.8,0,2.6,0.8,3.1,1.7
			c0.2,0.5,0.3,1.1,0.3,1.4v5.4h-1.2v-1.5h0c-0.7,1-1.6,1.6-2.8,1.6c-1.7,0-2.8-1-2.8-2.5v-0.1c0-1.8,1.8-2.4,3.3-2.4h2.3V979.2z
			 M1183,980.7c-0.9,0-2.1,0.3-2.1,1.4c0,0.9,0.8,1.5,1.8,1.5c1.5,0,2.6-1,2.6-2.6v-0.3H1183z"/>
		<path d="M1190.5,982.4v-5.1h-1.5v-1.1h1.5v-2.4h1.2v2.4h2.1v1.1h-2.1v5.1c0,0.8,0.4,1.2,1.4,1.2c0.3,0,0.6,0,0.8-0.1v1
			c-0.3,0.1-0.7,0.1-1,0.1C1191,984.6,1190.5,983.6,1190.5,982.4z"/>
		<path d="M1197.2,972.3c0.5,0,0.9,0.4,0.9,0.9c0,0.5-0.4,0.9-0.9,0.9c-0.5,0-0.9-0.4-0.9-0.9
			C1196.3,972.7,1196.7,972.3,1197.2,972.3z M1197.9,976.2v8.4h-1.2v-8.4H1197.9z"/>
		<path d="M1200.8,980.4c0-2.5,1.9-4.4,4.3-4.4c2.4,0,4.3,1.9,4.3,4.3c0,2.5-1.9,4.4-4.3,4.4
			C1202.7,984.7,1200.8,982.8,1200.8,980.4z M1208.2,980.4c0-1.8-1.3-3.3-3.1-3.3s-3.1,1.5-3.1,3.2c0,1.8,1.3,3.3,3.1,3.3
			C1206.9,983.6,1208.2,982.1,1208.2,980.4z"/>
		<path d="M1218.4,979.7c0-1.5-0.8-2.5-2.3-2.5c-1.5,0-2.5,1.2-2.5,2.6v4.8h-1.2v-8.4h1.2v1.5c0.7-1.1,1.6-1.7,2.9-1.7
			c2.1,0,3.2,1.4,3.2,3.4v5.2h-1.2V979.7z"/>
	</g>
</g>
<circle class="st8" cx="1058.3" cy="970.6" r="14.9"/>
<g>
	<g>
		<path d="M162.2,76.7l-2.9,1.8l-0.6-1l3.6-2.1h1.3v12.2h-1.3V76.7z"/>
		<path d="M168.3,76.6l-0.7,4.2c0.8-0.8,2.1-1,2.7-1c2.3,0,4,1.5,4,4c0,2.7-2.2,4-4.3,4c-2,0-3.9-1.3-4.2-3.3l1.3-0.3
			c0.2,1.4,1.4,2.4,3,2.4c1.2,0,3-0.8,3-2.8s-1.5-2.8-3-2.8c-0.9,0-1.9,0.5-2.6,1.2l-1.2-0.5l1-6.3h6.4v1.2H168.3z"/>
		<path d="M187.8,75.6c6.5,0,11.1,4.5,11.1,10.5c0,6.3-4.9,10.5-11.1,10.5h-6.3v-21H187.8z M187.7,94.5c5.3,0,8.9-3.5,8.9-8.4
			c0-4.8-3.4-8.4-8.9-8.4h-3.9v16.9H187.7z"/>
		<path d="M201.6,89.5c0-4.2,3.2-7.5,7.4-7.5c4.1,0,7.4,3.2,7.4,7.4c0,4.2-3.2,7.5-7.4,7.5C204.8,96.8,201.6,93.5,201.6,89.5z
			 M214.3,89.5c0-3-2.2-5.6-5.3-5.6c-3.1,0-5.2,2.5-5.2,5.5s2.1,5.6,5.3,5.6C212.1,95,214.3,92.4,214.3,89.5z"/>
		<path d="M231.7,95.6l-6.5-13.4h2.4l5.3,11.1l5-11.1h2.3l-9.8,21.4H228L231.7,95.6z"/>
		<path d="M241.3,89.5c0-4.2,3.2-7.5,7.4-7.5c4.1,0,7.4,3.2,7.4,7.4c0,4.2-3.2,7.5-7.4,7.5C244.6,96.8,241.3,93.5,241.3,89.5z
			 M254,89.5c0-3-2.2-5.6-5.3-5.6c-3.1,0-5.2,2.5-5.2,5.5s2.1,5.6,5.3,5.6C251.8,95,254,92.4,254,89.5z"/>
		<path d="M261.7,90.6c0,2.5,1.3,4.3,4,4.3c2.5,0,4.3-2,4.3-4.5v-8.2h2.1v14.3h-2v-2.6c-1.1,2-2.8,2.9-4.9,2.9
			c-3.5,0-5.4-2.4-5.4-5.7v-8.9h2.1V90.6z"/>
		<path d="M294.6,88.2c0-2.5-1.3-4.3-4-4.3c-2.5,0-4.3,2-4.3,4.5v8.2h-2.1V74.7h2.1v10.1c1.1-1.9,2.8-2.8,4.9-2.8
			c3.5,0,5.4,2.4,5.4,5.7v8.9h-2.1V88.2z"/>
		<path d="M309.9,87.3c0-2.3-1.3-3.5-3.6-3.5c-2.4,0-3.5,1.6-3.8,2.9l-2-0.4c0.1-1.2,1.7-4.3,5.8-4.3c3,0,4.5,1.4,5.2,3
			c0.3,0.8,0.4,1.9,0.4,2.4v9.3h-2V94h0c-1.1,1.8-2.7,2.8-4.8,2.8c-2.9,0-4.8-1.8-4.8-4.2v-0.2c0-3.1,3.1-4.1,5.7-4.1h4V87.3z
			 M305.9,90c-1.5,0-3.5,0.5-3.5,2.4c0,1.6,1.4,2.5,3.1,2.5c2.5,0,4.5-1.8,4.5-4.4V90H305.9z"/>
		<path d="M314.3,82.2h2.3l4.9,12l5-12h2.2l-6.1,14.3h-2.2L314.3,82.2z"/>
		<path d="M332.3,90c0.2,2.8,2.3,4.9,5.1,4.9c2.1,0,3.8-1,4.4-3.1l1.9,0.6c-0.9,2.8-3.4,4.3-6.3,4.3c-4.2,0-7.3-3.3-7.3-7.4
			c0-3.9,3-7.4,7-7.4c4.4,0,6.8,3.2,6.8,7.4c0,0.2,0,0.5,0,0.7H332.3z M341.8,88.3c-0.3-2.6-1.9-4.5-4.6-4.5c-2.5,0-4.5,2.1-4.8,4.5
			H341.8z"/>
		<path d="M363.6,87.3c0-2.3-1.3-3.5-3.6-3.5c-2.4,0-3.5,1.6-3.8,2.9l-2-0.4c0.1-1.2,1.7-4.3,5.8-4.3c3,0,4.5,1.4,5.2,3
			c0.3,0.8,0.4,1.9,0.4,2.4v9.3h-2V94h0c-1.1,1.8-2.7,2.8-4.8,2.8c-2.9,0-4.8-1.8-4.8-4.2v-0.2c0-3.1,3.1-4.1,5.7-4.1h4V87.3z
			 M359.6,90c-1.5,0-3.5,0.5-3.5,2.4c0,1.6,1.4,2.5,3.1,2.5c2.5,0,4.5-1.8,4.5-4.4V90H359.6z"/>
		<path d="M380.6,88.2c0-2.5-1.3-4.3-4-4.3c-2.5,0-4.3,2-4.3,4.5v8.2h-2.1V82.2h2.1v2.6c1.1-1.9,2.8-2.9,4.9-2.9
			c3.5,0,5.4,2.4,5.4,5.7v8.9h-2.1V88.2z"/>
		<path d="M391.4,95.6l-6.5-13.4h2.4l5.3,11.1l5-11.1h2.3l-9.8,21.4h-2.3L391.4,95.6z"/>
		<path d="M415.9,95c3.2,0,4.4-2.4,4.8-3.4l2,0.6c-0.6,2.1-3,4.6-6.8,4.6c-4.1,0-7.3-3.1-7.3-7.3c0-4.3,3.4-7.5,7.4-7.5
			c3.3,0,6,2.1,6.6,4.6l-1.9,0.6c-0.3-1.1-1.7-3.3-4.7-3.3c-3.1,0-5.2,2.5-5.2,5.5S412.6,95,415.9,95z"/>
		<path d="M425.1,89.5c0-4.2,3.2-7.5,7.4-7.5c4.1,0,7.4,3.2,7.4,7.4c0,4.2-3.2,7.5-7.4,7.5C428.3,96.8,425.1,93.5,425.1,89.5z
			 M437.7,89.5c0-3-2.2-5.6-5.3-5.6c-3.1,0-5.2,2.5-5.2,5.5s2.1,5.6,5.3,5.6C435.5,95,437.7,92.4,437.7,89.5z"/>
		<path d="M453.9,88.2c0-2.5-1.3-4.3-4-4.3c-2.5,0-4.3,2-4.3,4.5v8.2h-2.1V82.2h2.1v2.6c1.1-1.9,2.8-2.9,4.9-2.9
			c3.5,0,5.4,2.4,5.4,5.7v8.9h-2.1V88.2z"/>
		<path d="M466.8,95c3.2,0,4.4-2.4,4.8-3.4l2,0.6c-0.6,2.1-3,4.6-6.8,4.6c-4.1,0-7.3-3.1-7.3-7.3c0-4.3,3.4-7.5,7.4-7.5
			c3.3,0,6,2.1,6.6,4.6l-1.9,0.6c-0.3-1.1-1.7-3.3-4.7-3.3c-3.1,0-5.2,2.5-5.2,5.5S463.5,95,466.8,95z"/>
		<path d="M478.1,90c0.2,2.8,2.3,4.9,5.1,4.9c2.1,0,3.8-1,4.4-3.1l1.9,0.6c-0.9,2.8-3.4,4.3-6.3,4.3c-4.2,0-7.3-3.3-7.3-7.4
			c0-3.9,3-7.4,7-7.4c4.4,0,6.8,3.2,6.8,7.4c0,0.2,0,0.5,0,0.7H478.1z M487.6,88.3c-0.3-2.6-1.9-4.5-4.6-4.5c-2.5,0-4.5,2.1-4.8,4.5
			H487.6z"/>
		<path d="M495.3,85.1c1.1-2.2,3-3.1,4.6-3.1c0.1,0,0.5,0,0.7,0v2.2c-0.3,0-0.5-0.1-0.8-0.1c-3.4,0-4.5,2.8-4.5,5.3v7h-2.1V82.2h2.1
			V85.1z"/>
		<path d="M513.8,88.2c0-2.5-1.3-4.3-4-4.3c-2.5,0-4.3,2-4.3,4.5v8.2h-2.1V82.2h2.1v2.6c1.1-1.9,2.8-2.9,4.9-2.9
			c3.5,0,5.4,2.4,5.4,5.7v8.9h-2.1V88.2z"/>
		<path d="M524.8,96.8c-3.9,0-5.2-2.6-5.4-4.2l1.9-0.5c0.3,1.3,1.3,2.8,3.5,2.8c1.6,0,3-0.8,3-2.3c0-1.7-1.9-2.1-3.4-2.4
			c-2.4-0.3-4.7-1.2-4.7-4c0-2.7,2.4-4.3,4.8-4.3c3.8,0,5,2.5,5.2,3.9l-1.9,0.5c-0.2-1-1-2.5-3.3-2.5c-1.6,0-2.7,1-2.7,2.3
			c0,1.8,1.9,2.1,3.4,2.3c2.3,0.3,4.7,1.5,4.7,4.1C529.9,95.1,527.6,96.8,524.8,96.8z"/>
		<path d="M549.7,87.3c0-2.3-1.3-3.5-3.6-3.5c-2.4,0-3.5,1.6-3.8,2.9l-2-0.4c0.1-1.2,1.7-4.3,5.8-4.3c3,0,4.5,1.4,5.2,3
			c0.3,0.8,0.4,1.9,0.4,2.4v9.3h-2V94h0c-1.1,1.8-2.7,2.8-4.8,2.8c-2.9,0-4.8-1.8-4.8-4.2v-0.2c0-3.1,3.1-4.1,5.7-4.1h4V87.3z
			 M545.7,90c-1.5,0-3.5,0.5-3.5,2.4c0,1.6,1.4,2.5,3.1,2.5c2.5,0,4.5-1.8,4.5-4.4V90H545.7z"/>
		<path d="M558.4,85.1c1.1-2.2,3-3.1,4.6-3.1c0.1,0,0.5,0,0.7,0v2.2c-0.3,0-0.5-0.1-0.8-0.1c-3.4,0-4.5,2.8-4.5,5.3v7h-2.1V82.2h2.1
			V85.1z"/>
		<path d="M565,89.5c0-4.2,3.2-7.5,7.4-7.5c4.1,0,7.4,3.2,7.4,7.4c0,4.2-3.2,7.5-7.4,7.5C568.2,96.8,565,93.5,565,89.5z M577.6,89.5
			c0-3-2.2-5.6-5.3-5.6c-3.1,0-5.2,2.5-5.2,5.5s2.1,5.6,5.3,5.6C575.5,95,577.6,92.4,577.6,89.5z"/>
		<path d="M585.4,90.6c0,2.5,1.3,4.3,4,4.3c2.5,0,4.3-2,4.3-4.5v-8.2h2.1v14.3h-2v-2.6c-1.1,2-2.8,2.9-4.9,2.9
			c-3.5,0-5.4-2.4-5.4-5.7v-8.9h2.1V90.6z"/>
		<path d="M610.7,88.2c0-2.5-1.3-4.3-4-4.3c-2.5,0-4.3,2-4.3,4.5v8.2h-2.1V82.2h2.1v2.6c1.1-1.9,2.8-2.9,4.9-2.9
			c3.5,0,5.4,2.4,5.4,5.7v8.9h-2.1V88.2z"/>
		<path d="M623,82c2.8,0,4.4,1.6,5.6,3.2V74.7h2.1v21.8h-2v-3.1c-1.1,1.8-2.8,3.3-5.6,3.3c-4.1,0-6.7-3.5-6.7-7.4
			C616.3,85.6,619,82,623,82z M628.6,89.3c0-2.8-2.2-5.5-5.2-5.5c-3.1,0-5,2.5-5,5.6c0,3,1.9,5.5,5,5.5
			C626.5,94.9,628.6,92.3,628.6,89.3z"/>
		<path d="M653.2,88.2c0-2.5-1.3-4.3-4-4.3c-2.5,0-4.3,2-4.3,4.5v8.2h-2.1V74.7h2.1v10.1c1.1-1.9,2.8-2.8,4.9-2.8
			c3.5,0,5.4,2.4,5.4,5.7v8.9h-2.1V88.2z"/>
		<path d="M658.8,89.5c0-4.2,3.2-7.5,7.4-7.5c4.1,0,7.4,3.2,7.4,7.4c0,4.2-3.2,7.5-7.4,7.5C662,96.8,658.8,93.5,658.8,89.5z
			 M671.5,89.5c0-3-2.2-5.6-5.3-5.6s-5.2,2.5-5.2,5.5s2.1,5.6,5.3,5.6C669.3,95,671.5,92.4,671.5,89.5z"/>
		<path d="M680.1,96.6l-4.8-14.3h2.2l3.8,11.9h0l3.9-11.9h2.1l3.9,11.9h0l3.8-11.9h2.2l-4.8,14.3H690l-3.8-11.6h0l-3.8,11.6H680.1z"
			/>
		<path d="M198.9,114.5c-0.5-1.7-2.5-5-7.2-5c-4.8,0-8.2,4-8.2,8.6c0,4.8,3.1,8.7,8.3,8.7c3.7,0,7.2-2.3,7.4-6.3h-8.8v-2h11.1v0.8
			c0,5.3-3.7,9.6-9.8,9.6c-6.4,0-10.5-4.6-10.5-10.6c0-6.1,4.5-10.8,10.6-10.8c5.2,0,8.2,3,9.3,6.3L198.9,114.5z"/>
		<path d="M211.8,107.8c6.5,0,11.1,4.5,11.1,10.5c0,6.3-4.9,10.5-11.1,10.5h-6.3v-21H211.8z M211.8,126.7c5.3,0,8.9-3.5,8.9-8.4
			c0-4.8-3.4-8.4-8.9-8.4h-3.9v16.9H211.8z"/>
		<path d="M229.5,128.8h-2.2v-21h7c5.1,0,7.4,3,7.4,6.3c0,3.6-2.7,6.5-7.8,6.5h-4.5V128.8z M229.5,118.5h4.5c3.9,0,5.4-2.3,5.4-4.4
			c0-2.1-1.2-4.3-5.3-4.3h-4.6V118.5z"/>
		<path d="M252.1,120.3h-4.3v8.5h-2.2v-21h7.3c5.1,0,7.4,2.8,7.4,6.1c0,3.6-2.6,5.6-5.8,6l6.5,8.9h-2.7L252.1,120.3z M252.6,118.2
			c3.8,0,5.3-2.2,5.3-4.3c0-2.1-1.3-4.1-5.3-4.1h-4.9v8.4H252.6z"/>
		<path d="M274.9,128.8l-4.8-14.3h2.2l3.8,11.9h0l3.9-11.9h2.1l3.9,11.9h0l3.8-11.9h2.2l-4.8,14.3h-2.3l-3.8-11.6h0l-3.8,11.6H274.9
			z"/>
		<path d="M296.1,107.7c0.9,0,1.6,0.7,1.6,1.6c0,0.9-0.7,1.6-1.6,1.6c-0.9,0-1.6-0.7-1.6-1.6C294.5,108.4,295.2,107.7,296.1,107.7z
			 M297.2,114.4v14.3H295v-14.3H297.2z"/>
		<path d="M304,106.9v21.9h-2.1v-21.9H304z"/>
		<path d="M310.8,106.9v21.9h-2.1v-21.9H310.8z"/>
		<path d="M324.1,107.7c0.9,0,1.6,0.7,1.6,1.6c0,0.9-0.7,1.6-1.6,1.6c-0.9,0-1.6-0.7-1.6-1.6C322.5,108.4,323.2,107.7,324.1,107.7z
			 M325.2,114.4v14.3H323v-14.3H325.2z"/>
		<path d="M339.7,120.4c0-2.4-1.1-4.3-3.7-4.3c-2.5,0-4,2.2-4,4.5v8.2h-2.1v-14.3h2.1v2.5c1.2-1.7,2.5-2.8,4.6-2.8
			c2.1,0,3.7,1,4.6,2.9c1.2-1.9,2.8-2.8,5-2.8c3.5,0,5.3,2.4,5.3,5.7v8.9h-2.1v-8.3c0-2.4-1.1-4.3-3.7-4.3c-2.5,0-4,2-4,4.4v8.2
			h-2.1V120.4z"/>
		<path d="M363.7,129c-2.7,0-4.4-1.3-5.5-3.2v10H356v-21.4h2.1v3.1c1.2-1.8,2.8-3.4,5.6-3.4c4.1,0,6.7,3.6,6.7,7.4
			C370.4,125.4,367.7,129,363.7,129z M368.3,121.6c0-3-1.9-5.6-5-5.6c-3,0-5.1,2.6-5.1,5.5c0,3,2.1,5.6,5.1,5.6
			C366.4,127.1,368.3,124.7,368.3,121.6z"/>
		<path d="M382.7,119.5c0-2.3-1.3-3.5-3.6-3.5c-2.4,0-3.5,1.6-3.8,2.9l-2-0.4c0.1-1.2,1.7-4.3,5.8-4.3c3,0,4.5,1.4,5.2,3
			c0.3,0.8,0.4,1.9,0.4,2.4v9.3h-2v-2.5h0c-1.1,1.8-2.7,2.8-4.8,2.8c-2.9,0-4.8-1.8-4.8-4.2v-0.2c0-3.1,3.1-4.1,5.7-4.1h4V119.5z
			 M378.7,122.2c-1.5,0-3.5,0.5-3.5,2.4c0,1.6,1.4,2.5,3.1,2.5c2.5,0,4.5-1.8,4.5-4.4v-0.5H378.7z"/>
		<path d="M395.6,127.1c3.2,0,4.4-2.4,4.8-3.4l2,0.6c-0.6,2.1-3,4.6-6.8,4.6c-4.1,0-7.3-3.1-7.3-7.3c0-4.3,3.4-7.5,7.4-7.5
			c3.3,0,6,2.1,6.6,4.6l-1.9,0.6c-0.3-1.1-1.7-3.3-4.7-3.3c-3.1,0-5.2,2.5-5.2,5.5S392.4,127.1,395.6,127.1z"/>
		<path d="M406.6,125.1v-8.8H404v-1.9h2.7v-4.1h2.1v4.1h3.6v1.9h-3.6v8.7c0,1.3,0.8,2,2.3,2c0.5,0,1,0,1.3-0.1v1.7
			c-0.4,0.1-1.3,0.2-1.6,0.2C407.6,128.9,406.6,127.1,406.6,125.1z"/>
		<path d="M427.5,127.8l-6.5-13.4h2.4l5.3,11.1l5-11.1h2.3l-9.8,21.4h-2.3L427.5,127.8z"/>
		<path d="M437.1,121.6c0-4.2,3.2-7.5,7.4-7.5c4.1,0,7.4,3.2,7.4,7.4c0,4.2-3.2,7.5-7.4,7.5C440.3,129,437.1,125.7,437.1,121.6z
			 M449.8,121.6c0-3-2.2-5.6-5.3-5.6s-5.2,2.5-5.2,5.5s2.1,5.6,5.3,5.6C447.6,127.1,449.8,124.6,449.8,121.6z"/>
		<path d="M457.5,122.8c0,2.5,1.3,4.3,4,4.3c2.5,0,4.3-2,4.3-4.5v-8.2h2.1v14.3h-2v-2.6c-1.1,2-2.8,2.9-4.9,2.9
			c-3.5,0-5.4-2.4-5.4-5.7v-8.9h2.1V122.8z"/>
		<path d="M474.6,117.3c1.1-2.2,3-3.1,4.6-3.1c0.1,0,0.5,0,0.7,0v2.2c-0.3,0-0.5-0.1-0.8-0.1c-3.4,0-4.5,2.8-4.5,5.3v7h-2.1v-14.3
			h2.1V117.3z"/>
		<path d="M492.2,107.8v21H490v-21H492.2z"/>
		<path d="M502.7,128.8v-18.9h-7v-2.1h16.3v2.1h-7v18.9H502.7z"/>
		<path d="M520.3,121.6c0-4.2,3.2-7.5,7.4-7.5c4.1,0,7.4,3.2,7.4,7.4c0,4.2-3.2,7.5-7.4,7.5C523.6,129,520.3,125.7,520.3,121.6z
			 M533,121.6c0-3-2.2-5.6-5.3-5.6s-5.2,2.5-5.2,5.5s2.1,5.6,5.3,5.6C530.8,127.1,533,124.6,533,121.6z"/>
		<path d="M546.4,129c-2.7,0-4.4-1.3-5.5-3.2v10h-2.1v-21.4h2.1v3.1c1.2-1.8,2.8-3.4,5.6-3.4c4.1,0,6.7,3.6,6.7,7.4
			C553.2,125.4,550.5,129,546.4,129z M551,121.6c0-3-1.9-5.6-5-5.6c-3,0-5.1,2.6-5.1,5.5c0,3,2.1,5.6,5.1,5.6
			C549.2,127.1,551,124.7,551,121.6z"/>
		<path d="M558,122.2c0.2,2.8,2.3,4.9,5.1,4.9c2.1,0,3.8-1,4.4-3.1l1.9,0.6c-0.9,2.8-3.4,4.3-6.3,4.3c-4.2,0-7.3-3.3-7.3-7.4
			c0-3.9,3-7.4,7-7.4c4.4,0,6.8,3.2,6.8,7.4c0,0.2,0,0.5,0,0.7H558z M567.5,120.5c-0.3-2.6-1.9-4.5-4.6-4.5c-2.5,0-4.5,2.1-4.8,4.5
			H567.5z"/>
		<path d="M575.2,117.3c1.1-2.2,3-3.1,4.6-3.1c0.1,0,0.5,0,0.7,0v2.2c-0.3,0-0.5-0.1-0.8-0.1c-3.4,0-4.5,2.8-4.5,5.3v7h-2.1v-14.3
			h2.1V117.3z"/>
		<path d="M591.7,119.5c0-2.3-1.3-3.5-3.6-3.5c-2.4,0-3.5,1.6-3.8,2.9l-2-0.4c0.1-1.2,1.7-4.3,5.8-4.3c3,0,4.5,1.4,5.2,3
			c0.3,0.8,0.4,1.9,0.4,2.4v9.3h-2v-2.5h0c-1.1,1.8-2.7,2.8-4.8,2.8c-2.9,0-4.8-1.8-4.8-4.2v-0.2c0-3.1,3.1-4.1,5.7-4.1h4V119.5z
			 M587.7,122.2c-1.5,0-3.5,0.5-3.5,2.4c0,1.6,1.4,2.5,3.1,2.5c2.5,0,4.5-1.8,4.5-4.4v-0.5H587.7z"/>
		<path d="M599.1,125.1v-8.8h-2.7v-1.9h2.7v-4.1h2.1v4.1h3.6v1.9h-3.6v8.7c0,1.3,0.8,2,2.3,2c0.5,0,1,0,1.3-0.1v1.7
			c-0.4,0.1-1.3,0.2-1.6,0.2C600,128.9,599.1,127.1,599.1,125.1z"/>
		<path d="M609.4,107.7c0.9,0,1.6,0.7,1.6,1.6c0,0.9-0.7,1.6-1.6,1.6c-0.9,0-1.6-0.7-1.6-1.6C607.8,108.4,608.5,107.7,609.4,107.7z
			 M610.4,114.4v14.3h-2.1v-14.3H610.4z"/>
		<path d="M614.1,121.6c0-4.2,3.2-7.5,7.4-7.5c4.1,0,7.4,3.2,7.4,7.4c0,4.2-3.2,7.5-7.4,7.5C617.3,129,614.1,125.7,614.1,121.6z
			 M626.8,121.6c0-3-2.2-5.6-5.3-5.6c-3.1,0-5.2,2.5-5.2,5.5s2.1,5.6,5.3,5.6C624.6,127.1,626.8,124.6,626.8,121.6z"/>
		<path d="M642.9,120.4c0-2.5-1.3-4.3-4-4.3c-2.5,0-4.3,2-4.3,4.5v8.2h-2.1v-14.3h2.1v2.6c1.1-1.9,2.8-2.9,4.9-2.9
			c3.5,0,5.4,2.4,5.4,5.7v8.9h-2.1V120.4z"/>
		<path d="M653.9,129c-3.9,0-5.2-2.6-5.4-4.2l1.9-0.5c0.3,1.3,1.3,2.8,3.5,2.8c1.6,0,3-0.8,3-2.3c0-1.7-1.9-2.1-3.4-2.4
			c-2.4-0.3-4.7-1.2-4.7-4c0-2.7,2.4-4.3,4.8-4.3c3.8,0,5,2.5,5.2,3.9l-1.9,0.5c-0.2-1-1-2.5-3.3-2.5c-1.6,0-2.7,1-2.7,2.3
			c0,1.8,1.9,2.1,3.4,2.3c2.3,0.3,4.7,1.5,4.7,4.1C659,127.3,656.7,129,653.9,129z"/>
		<path d="M666.2,122.7c0-0.2,0-0.3,0-0.5c0-2.5,1.5-3.7,2.7-4.9c1.2-1.3,2.7-2.4,2.7-4.3c0-1.7-1.2-3.4-3.9-3.4c-2.7,0-4.2,2-4,4.6
			l-2.1-0.1c0-0.2,0-0.4,0-0.6c0-3.5,2.9-5.9,6.2-5.9c3.8,0,6.2,2.6,6.2,5.5c0,2.1-1.3,3.4-3.1,5.3c-1.4,1.4-2.3,2.2-2.4,4.3H666.2z
			 M667.2,129c0.9,0,1.6-0.7,1.6-1.6c0-0.9-0.7-1.6-1.6-1.6c-0.9,0-1.6,0.7-1.6,1.6C665.6,128.3,666.3,129,667.2,129z"/>
	</g>
</g>
<path class="st5" d="M727.8,305c102,0,187.8,69.2,213.1,163.2l116.8-31.3c-41-153.1-171.5-253.2-330-253.2L727.8,305
	C727.8,305,727.8,305,727.8,305z"/>
<g>
	<pattern  id="SVGID_2_" xlink:href="#orange" patternTransform="matrix(1.1179 0 0 1.1179 503.0332 897.6296)">
	</pattern>
	<path class="st9" d="M1057.7,436.9l-116.8,31.3c4.9,18.3,7.6,37.6,7.6,57.5c0,121.9-98.8,220.7-220.7,220.7
		c-43,0-83.2-12.3-117.1-33.6L546.7,815c83.2,52,174.7,65.7,269.4,40.3C998.4,806.5,1106.5,619.2,1057.7,436.9z"/>
</g>
<path class="st8" d="M507.1,525.7c0-83.1,46-155.5,113.8-193.1l-58.8-106c-52.8,29.3-92.1,66.6-124.1,117.7
	c-100,160-51.3,370.7,108.7,470.7l63.9-102.3C548.4,673.7,507.1,604.6,507.1,525.7z"/>
<g>
	<path class="st7" d="M727.8,305V183.7c-60.4,0-112.8,13.6-165.6,42.8l58.8,106C652.6,315,689,305,727.8,305z"/>
</g>
<g class="st10">
	<path d="M883,306.6c0-1.6,0.8-3.4,3.2-4.9l2.1-1.3c1.3-0.8,2.4-1.7,2.4-3.3c0-1.4-1.3-2.8-3.1-2.8c-1.5,0-2.5,0.9-2.9,1.8
		c-0.3,0.6-0.3,1.2-0.3,1.4l-1.5-0.2c0-2,1.7-4.3,4.7-4.3c2.6,0,4.6,2,4.6,4.1c0,2-1.1,3.2-3,4.3l-2.2,1.4c-1.2,0.8-2.3,1.7-2.4,3
		h7.7v1.4H883V306.6z"/>
	<path d="M897.7,294.6l-3.4,2l-0.7-1.1l4.1-2.4h1.4v14h-1.5V294.6z"/>
	<path d="M903.4,301.7c-1,0-1.8-0.8-1.8-1.8c0-1,0.8-1.8,1.8-1.8c1,0,1.8,0.8,1.8,1.8C905.2,300.9,904.4,301.7,903.4,301.7z
		 M903.4,298.7c-0.6,0-1.2,0.5-1.2,1.2c0,0.6,0.5,1.1,1.2,1.1s1.2-0.5,1.2-1.1C904.5,299.2,904,298.7,903.4,298.7z M907.9,298.1h0.8
		l-5.3,8.2h-0.8L907.9,298.1z M907.9,306.3c-1,0-1.8-0.8-1.8-1.8c0-1,0.8-1.8,1.8-1.8s1.8,0.8,1.8,1.8
		C909.8,305.5,908.9,306.3,907.9,306.3z M907.9,303.3c-0.6,0-1.1,0.5-1.1,1.2c0,0.6,0.5,1.1,1.1,1.1s1.2-0.5,1.2-1.1
		C909.1,303.9,908.5,303.3,907.9,303.3z"/>
</g>
<g class="st10">
	<path d="M440.8,528.5c-2.5,0-4.5-1.5-4.8-3.8l1.4-0.3c0.3,1.6,1.5,2.8,3.4,2.8c1.9,0,3.4-1,3.4-2.6c0-1.6-1.2-2.6-3.4-2.6h-1.4
		v-1.4h1.4c1.9,0,3.1-1.2,3.1-2.5c0-1.4-1.1-2.5-3.1-2.5c-1.9,0-3,1.1-3.3,2.6l-1.4-0.3c0.3-1.9,2.1-3.7,4.7-3.7
		c3,0,4.5,1.9,4.5,3.7c0,1.6-0.9,2.6-2.2,3.2v0c1.6,0.4,2.6,1.7,2.6,3.3C445.6,526.7,443.7,528.5,440.8,528.5z"/>
	<path d="M452.4,528.5c-2.5,0-4.5-1.5-4.8-3.8l1.4-0.3c0.3,1.6,1.5,2.8,3.4,2.8c1.9,0,3.4-1,3.4-2.6c0-1.6-1.2-2.6-3.4-2.6H451v-1.4
		h1.4c1.9,0,3.1-1.2,3.1-2.5c0-1.4-1.1-2.5-3.1-2.5c-1.9,0-3,1.1-3.3,2.6l-1.4-0.3c0.3-1.9,2.1-3.7,4.7-3.7c3,0,4.5,1.9,4.5,3.7
		c0,1.6-0.9,2.6-2.2,3.2v0c1.6,0.4,2.6,1.7,2.6,3.3C457.2,526.7,455.3,528.5,452.4,528.5z"/>
	<path d="M460.5,523c-1,0-1.8-0.8-1.8-1.8c0-1,0.8-1.8,1.8-1.8c1,0,1.8,0.8,1.8,1.8C462.4,522.2,461.5,523,460.5,523z M460.5,520.1
		c-0.6,0-1.2,0.5-1.2,1.2c0,0.6,0.5,1.1,1.2,1.1s1.2-0.5,1.2-1.1C461.7,520.6,461.1,520.1,460.5,520.1z M465,519.5h0.8l-5.3,8.2
		h-0.8L465,519.5z M465,527.7c-1,0-1.8-0.8-1.8-1.8c0-1,0.8-1.8,1.8-1.8s1.8,0.8,1.8,1.8C466.9,526.9,466.1,527.7,465,527.7z
		 M465,524.7c-0.6,0-1.1,0.5-1.1,1.2c0,0.6,0.5,1.1,1.1,1.1s1.2-0.5,1.2-1.1C466.2,525.2,465.7,524.7,465,524.7z"/>
</g>
<g class="st10">
	<path d="M872.1,757.7c-2.4,0-4.5-1.5-4.8-3.8l1.4-0.3c0.3,1.6,1.5,2.8,3.4,2.8c1.9,0,3.4-1,3.4-2.6s-1.2-2.6-3.4-2.6h-1.4v-1.4h1.4
		c1.9,0,3.1-1.2,3.1-2.5c0-1.4-1.1-2.5-3.1-2.5c-1.9,0-3,1.1-3.3,2.6l-1.4-0.3c0.3-1.9,2.1-3.7,4.7-3.7c3,0,4.5,1.9,4.5,3.7
		c0,1.6-0.9,2.6-2.2,3.2v0c1.6,0.4,2.6,1.7,2.6,3.3C876.9,755.8,875,757.7,872.1,757.7z"/>
	<path d="M879,753.7c0-1.5,1-2.8,2.9-3.4c-1.7-0.5-2.6-2-2.6-3.2c0-2.4,2.5-3.7,4.6-3.7c2.1,0,4.6,1.2,4.6,3.7
		c0,1.3-0.9,2.7-2.6,3.2c1.9,0.6,2.9,1.9,2.9,3.4c0,2.6-2.5,4-4.9,4C881.6,757.7,879,756.4,879,753.7z M887.4,753.7
		c0-1.8-1.9-2.7-3.4-2.7c-1.5,0-3.4,0.9-3.4,2.7c0,1.9,1.9,2.7,3.4,2.7C885.4,756.3,887.4,755.5,887.4,753.7z M880.8,747.2
		c0,1.8,1.9,2.6,3.1,2.6s3.1-0.8,3.1-2.6c0-1.6-1.8-2.5-3.1-2.5C882.6,744.7,880.8,745.5,880.8,747.2z"/>
	<path d="M892.2,752.2c-1,0-1.8-0.8-1.8-1.8c0-1,0.8-1.8,1.8-1.8c1,0,1.8,0.8,1.8,1.8C894,751.4,893.2,752.2,892.2,752.2z
		 M892.2,749.2c-0.6,0-1.2,0.5-1.2,1.2c0,0.6,0.5,1.1,1.2,1.1s1.2-0.5,1.2-1.1C893.4,749.7,892.8,749.2,892.2,749.2z M896.7,748.6
		h0.8l-5.3,8.2h-0.8L896.7,748.6z M896.7,756.8c-1,0-1.8-0.8-1.8-1.8c0-1,0.8-1.8,1.8-1.8s1.8,0.8,1.8,1.8
		C898.6,756,897.7,756.8,896.7,756.8z M896.7,753.8c-0.6,0-1.1,0.5-1.1,1.2c0,0.6,0.5,1.1,1.1,1.1s1.2-0.5,1.2-1.1
		C897.9,754.4,897.4,753.8,896.7,753.8z"/>
</g>
<g class="st10">
	<path d="M648.6,258.5c0-1.5,1-2.8,2.9-3.4c-1.7-0.5-2.6-2-2.6-3.2c0-2.4,2.5-3.7,4.6-3.7c2.1,0,4.6,1.2,4.6,3.7
		c0,1.3-0.9,2.7-2.6,3.2c1.9,0.6,2.9,1.9,2.9,3.4c0,2.6-2.5,4-4.9,4C651.1,262.5,648.6,261.2,648.6,258.5z M656.9,258.5
		c0-1.8-1.9-2.7-3.4-2.7c-1.5,0-3.4,0.9-3.4,2.7c0,1.9,1.9,2.7,3.4,2.7C654.9,261.1,656.9,260.3,656.9,258.5z M650.4,251.9
		c0,1.8,1.9,2.6,3.1,2.6c1.2,0,3.1-0.8,3.1-2.6c0-1.6-1.8-2.5-3.1-2.5C652.2,249.5,650.4,250.3,650.4,251.9z"/>
	<path d="M661.7,257c-1,0-1.8-0.8-1.8-1.8c0-1,0.8-1.8,1.8-1.8c1,0,1.8,0.8,1.8,1.8C663.6,256.2,662.7,257,661.7,257z M661.7,254
		c-0.6,0-1.2,0.5-1.2,1.2c0,0.6,0.5,1.1,1.2,1.1s1.2-0.5,1.2-1.1C662.9,254.5,662.4,254,661.7,254z M666.2,253.4h0.8l-5.3,8.2h-0.8
		L666.2,253.4z M666.2,261.6c-1,0-1.8-0.8-1.8-1.8c0-1,0.8-1.8,1.8-1.8s1.8,0.8,1.8,1.8C668.1,260.8,667.3,261.6,666.2,261.6z
		 M666.2,258.6c-0.6,0-1.1,0.5-1.1,1.2c0,0.6,0.5,1.1,1.1,1.1s1.2-0.5,1.2-1.1C667.4,259.1,666.9,258.6,666.2,258.6z"/>
</g>
</svg>
