<?xml version="1.0" encoding="utf-8"?>
<!-- Generator: Adobe Illustrator 21.1.0, SVG Export Plug-In . SVG Version: 6.00 Build 0)  -->
<svg version="1.1" id="graphNineCyber" xmlns="http://www.w3.org/2000/svg" xmlns:xlink="http://www.w3.org/1999/xlink" x="0px"
	 y="0px" viewBox="0 0 1500 1053" style="enable-background:new 0 0 1500 1053;" xml:space="preserve">
<style type="text/css">
	.st0{fill:none;}
	.st1{fill:none;stroke:#000000;stroke-width:2;stroke-linecap:round;stroke-miterlimit:10;}
	.st2{fill:none;stroke:#000000;stroke-width:2;stroke-linecap:round;stroke-miterlimit:10;stroke-dasharray:0,10;}
	.st3{fill:#F6F6F8;}
	.st4{fill:#37C0AA;}
	.st5{opacity:0.2;}
	.st6{fill:url(#SVGID_1_);}
	.st7{fill:url(#SVGID_2_);}
	.st8{opacity:0.1;}
	.st9{fill:url(#SVGID_3_);}
	.st10{fill:url(#SVGID_4_);}
	.st11{fill:url(#SVGID_5_);}
	.st12{opacity:0.9;}
	.st13{fill:url(#SVGID_6_);}
	.st14{fill:url(#SVGID_7_);}
	.st15{fill:#FFC940;}
	.st16{fill:url(#SVGID_8_);}
	.st17{fill:url(#SVGID_9_);}
	.st18{fill:url(#SVGID_10_);}
	.st19{fill:url(#SVGID_11_);}
	.st20{fill:url(#SVGID_12_);}
	.st21{fill:#999999;}
</style>
<pattern  y="1053" width="240" height="240" patternUnits="userSpaceOnUse" id="Unnamed_Pattern_4" viewBox="1 -241 240 240" style="overflow:visible;">
	<g>
		<rect x="1" y="-241" class="st0" width="240" height="240"/>
		<g>
			<g>
				<line class="st1" x1="241" y1="-1" x2="241" y2="-1"/>
			</g>
		</g>
		<g>
			<g>
				<line class="st1" x1="1" y1="-1" x2="1" y2="-1"/>
				<line class="st2" x1="11" y1="-1" x2="236" y2="-1"/>
				<line class="st1" x1="241" y1="-1" x2="241" y2="-1"/>
			</g>
		</g>
		<g>
			<g>
				<line class="st1" x1="1" y1="-1" x2="1" y2="-1"/>
			</g>
		</g>
		<g>
			<g>
				<line class="st1" x1="241" y1="-241" x2="241" y2="-241"/>
			</g>
			<g>
				<line class="st1" x1="241" y1="-231" x2="241" y2="-231"/>
			</g>
			<g>
				<line class="st1" x1="241" y1="-221" x2="241" y2="-221"/>
			</g>
			<g>
				<line class="st1" x1="241" y1="-211" x2="241" y2="-211"/>
			</g>
			<g>
				<line class="st1" x1="241" y1="-201" x2="241" y2="-201"/>
			</g>
			<g>
				<line class="st1" x1="241" y1="-191" x2="241" y2="-191"/>
			</g>
			<g>
				<line class="st1" x1="241" y1="-181" x2="241" y2="-181"/>
			</g>
			<g>
				<line class="st1" x1="241" y1="-171" x2="241" y2="-171"/>
			</g>
			<g>
				<line class="st1" x1="241" y1="-161" x2="241" y2="-161"/>
			</g>
			<g>
				<line class="st1" x1="241" y1="-151" x2="241" y2="-151"/>
			</g>
			<g>
				<line class="st1" x1="241" y1="-141" x2="241" y2="-141"/>
			</g>
			<g>
				<line class="st1" x1="241" y1="-131" x2="241" y2="-131"/>
			</g>
			<g>
				<line class="st1" x1="241" y1="-121" x2="241" y2="-121"/>
			</g>
			<g>
				<line class="st1" x1="241" y1="-111" x2="241" y2="-111"/>
			</g>
			<g>
				<line class="st1" x1="241" y1="-101" x2="241" y2="-101"/>
			</g>
			<g>
				<line class="st1" x1="241" y1="-91" x2="241" y2="-91"/>
			</g>
			<g>
				<line class="st1" x1="241" y1="-81" x2="241" y2="-81"/>
			</g>
			<g>
				<line class="st1" x1="241" y1="-71" x2="241" y2="-71"/>
			</g>
			<g>
				<line class="st1" x1="241" y1="-61" x2="241" y2="-61"/>
			</g>
			<g>
				<line class="st1" x1="241" y1="-51" x2="241" y2="-51"/>
			</g>
			<g>
				<line class="st1" x1="241" y1="-41" x2="241" y2="-41"/>
			</g>
			<g>
				<line class="st1" x1="241" y1="-31" x2="241" y2="-31"/>
			</g>
			<g>
				<line class="st1" x1="241" y1="-21" x2="241" y2="-21"/>
			</g>
			<g>
				<line class="st1" x1="241" y1="-11" x2="241" y2="-11"/>
			</g>
			<g>
				<line class="st1" x1="241" y1="-1" x2="241" y2="-1"/>
			</g>
		</g>
		<g>
			<g>
				<line class="st1" x1="1" y1="-241" x2="1" y2="-241"/>
				<line class="st2" x1="11" y1="-241" x2="236" y2="-241"/>
				<line class="st1" x1="241" y1="-241" x2="241" y2="-241"/>
			</g>
			<g>
				<line class="st1" x1="1" y1="-231" x2="1" y2="-231"/>
				<line class="st2" x1="11" y1="-231" x2="236" y2="-231"/>
				<line class="st1" x1="241" y1="-231" x2="241" y2="-231"/>
			</g>
			<g>
				<line class="st1" x1="1" y1="-221" x2="1" y2="-221"/>
				<line class="st2" x1="11" y1="-221" x2="236" y2="-221"/>
				<line class="st1" x1="241" y1="-221" x2="241" y2="-221"/>
			</g>
			<g>
				<line class="st1" x1="1" y1="-211" x2="1" y2="-211"/>
				<line class="st2" x1="11" y1="-211" x2="236" y2="-211"/>
				<line class="st1" x1="241" y1="-211" x2="241" y2="-211"/>
			</g>
			<g>
				<line class="st1" x1="1" y1="-201" x2="1" y2="-201"/>
				<line class="st2" x1="11" y1="-201" x2="236" y2="-201"/>
				<line class="st1" x1="241" y1="-201" x2="241" y2="-201"/>
			</g>
			<g>
				<line class="st1" x1="1" y1="-191" x2="1" y2="-191"/>
				<line class="st2" x1="11" y1="-191" x2="236" y2="-191"/>
				<line class="st1" x1="241" y1="-191" x2="241" y2="-191"/>
			</g>
			<g>
				<line class="st1" x1="1" y1="-181" x2="1" y2="-181"/>
				<line class="st2" x1="11" y1="-181" x2="236" y2="-181"/>
				<line class="st1" x1="241" y1="-181" x2="241" y2="-181"/>
			</g>
			<g>
				<line class="st1" x1="1" y1="-171" x2="1" y2="-171"/>
				<line class="st2" x1="11" y1="-171" x2="236" y2="-171"/>
				<line class="st1" x1="241" y1="-171" x2="241" y2="-171"/>
			</g>
			<g>
				<line class="st1" x1="1" y1="-161" x2="1" y2="-161"/>
				<line class="st2" x1="11" y1="-161" x2="236" y2="-161"/>
				<line class="st1" x1="241" y1="-161" x2="241" y2="-161"/>
			</g>
			<g>
				<line class="st1" x1="1" y1="-151" x2="1" y2="-151"/>
				<line class="st2" x1="11" y1="-151" x2="236" y2="-151"/>
				<line class="st1" x1="241" y1="-151" x2="241" y2="-151"/>
			</g>
			<g>
				<line class="st1" x1="1" y1="-141" x2="1" y2="-141"/>
				<line class="st2" x1="11" y1="-141" x2="236" y2="-141"/>
				<line class="st1" x1="241" y1="-141" x2="241" y2="-141"/>
			</g>
			<g>
				<line class="st1" x1="1" y1="-131" x2="1" y2="-131"/>
				<line class="st2" x1="11" y1="-131" x2="236" y2="-131"/>
				<line class="st1" x1="241" y1="-131" x2="241" y2="-131"/>
			</g>
			<g>
				<line class="st1" x1="1" y1="-121" x2="1" y2="-121"/>
				<line class="st2" x1="11" y1="-121" x2="236" y2="-121"/>
				<line class="st1" x1="241" y1="-121" x2="241" y2="-121"/>
			</g>
			<g>
				<line class="st1" x1="1" y1="-111" x2="1" y2="-111"/>
				<line class="st2" x1="11" y1="-111" x2="236" y2="-111"/>
				<line class="st1" x1="241" y1="-111" x2="241" y2="-111"/>
			</g>
			<g>
				<line class="st1" x1="1" y1="-101" x2="1" y2="-101"/>
				<line class="st2" x1="11" y1="-101" x2="236" y2="-101"/>
				<line class="st1" x1="241" y1="-101" x2="241" y2="-101"/>
			</g>
			<g>
				<line class="st1" x1="1" y1="-91" x2="1" y2="-91"/>
				<line class="st2" x1="11" y1="-91" x2="236" y2="-91"/>
				<line class="st1" x1="241" y1="-91" x2="241" y2="-91"/>
			</g>
			<g>
				<line class="st1" x1="1" y1="-81" x2="1" y2="-81"/>
				<line class="st2" x1="11" y1="-81" x2="236" y2="-81"/>
				<line class="st1" x1="241" y1="-81" x2="241" y2="-81"/>
			</g>
			<g>
				<line class="st1" x1="1" y1="-71" x2="1" y2="-71"/>
				<line class="st2" x1="11" y1="-71" x2="236" y2="-71"/>
				<line class="st1" x1="241" y1="-71" x2="241" y2="-71"/>
			</g>
			<g>
				<line class="st1" x1="1" y1="-61" x2="1" y2="-61"/>
				<line class="st2" x1="11" y1="-61" x2="236" y2="-61"/>
				<line class="st1" x1="241" y1="-61" x2="241" y2="-61"/>
			</g>
			<g>
				<line class="st1" x1="1" y1="-51" x2="1" y2="-51"/>
				<line class="st2" x1="11" y1="-51" x2="236" y2="-51"/>
				<line class="st1" x1="241" y1="-51" x2="241" y2="-51"/>
			</g>
			<g>
				<line class="st1" x1="1" y1="-41" x2="1" y2="-41"/>
				<line class="st2" x1="11" y1="-41" x2="236" y2="-41"/>
				<line class="st1" x1="241" y1="-41" x2="241" y2="-41"/>
			</g>
			<g>
				<line class="st1" x1="1" y1="-31" x2="1" y2="-31"/>
				<line class="st2" x1="11" y1="-31" x2="236" y2="-31"/>
				<line class="st1" x1="241" y1="-31" x2="241" y2="-31"/>
			</g>
			<g>
				<line class="st1" x1="1" y1="-21" x2="1" y2="-21"/>
				<line class="st2" x1="11" y1="-21" x2="236" y2="-21"/>
				<line class="st1" x1="241" y1="-21" x2="241" y2="-21"/>
			</g>
			<g>
				<line class="st1" x1="1" y1="-11" x2="1" y2="-11"/>
				<line class="st2" x1="11" y1="-11" x2="236" y2="-11"/>
				<line class="st1" x1="241" y1="-11" x2="241" y2="-11"/>
			</g>
			<g>
				<line class="st1" x1="1" y1="-1" x2="1" y2="-1"/>
				<line class="st2" x1="11" y1="-1" x2="236" y2="-1"/>
				<line class="st1" x1="241" y1="-1" x2="241" y2="-1"/>
			</g>
		</g>
		<g>
			<g>
				<line class="st1" x1="1" y1="-241" x2="1" y2="-241"/>
			</g>
			<g>
				<line class="st1" x1="1" y1="-231" x2="1" y2="-231"/>
			</g>
			<g>
				<line class="st1" x1="1" y1="-221" x2="1" y2="-221"/>
			</g>
			<g>
				<line class="st1" x1="1" y1="-211" x2="1" y2="-211"/>
			</g>
			<g>
				<line class="st1" x1="1" y1="-201" x2="1" y2="-201"/>
			</g>
			<g>
				<line class="st1" x1="1" y1="-191" x2="1" y2="-191"/>
			</g>
			<g>
				<line class="st1" x1="1" y1="-181" x2="1" y2="-181"/>
			</g>
			<g>
				<line class="st1" x1="1" y1="-171" x2="1" y2="-171"/>
			</g>
			<g>
				<line class="st1" x1="1" y1="-161" x2="1" y2="-161"/>
			</g>
			<g>
				<line class="st1" x1="1" y1="-151" x2="1" y2="-151"/>
			</g>
			<g>
				<line class="st1" x1="1" y1="-141" x2="1" y2="-141"/>
			</g>
			<g>
				<line class="st1" x1="1" y1="-131" x2="1" y2="-131"/>
			</g>
			<g>
				<line class="st1" x1="1" y1="-121" x2="1" y2="-121"/>
			</g>
			<g>
				<line class="st1" x1="1" y1="-111" x2="1" y2="-111"/>
			</g>
			<g>
				<line class="st1" x1="1" y1="-101" x2="1" y2="-101"/>
			</g>
			<g>
				<line class="st1" x1="1" y1="-91" x2="1" y2="-91"/>
			</g>
			<g>
				<line class="st1" x1="1" y1="-81" x2="1" y2="-81"/>
			</g>
			<g>
				<line class="st1" x1="1" y1="-71" x2="1" y2="-71"/>
			</g>
			<g>
				<line class="st1" x1="1" y1="-61" x2="1" y2="-61"/>
			</g>
			<g>
				<line class="st1" x1="1" y1="-51" x2="1" y2="-51"/>
			</g>
			<g>
				<line class="st1" x1="1" y1="-41" x2="1" y2="-41"/>
			</g>
			<g>
				<line class="st1" x1="1" y1="-31" x2="1" y2="-31"/>
			</g>
			<g>
				<line class="st1" x1="1" y1="-21" x2="1" y2="-21"/>
			</g>
			<g>
				<line class="st1" x1="1" y1="-11" x2="1" y2="-11"/>
			</g>
			<g>
				<line class="st1" x1="1" y1="-1" x2="1" y2="-1"/>
			</g>
		</g>
		<g>
			<g>
				<line class="st1" x1="241" y1="-241" x2="241" y2="-241"/>
			</g>
		</g>
		<g>
			<g>
				<line class="st1" x1="1" y1="-241" x2="1" y2="-241"/>
				<line class="st2" x1="11" y1="-241" x2="236" y2="-241"/>
				<line class="st1" x1="241" y1="-241" x2="241" y2="-241"/>
			</g>
		</g>
		<g>
			<g>
				<line class="st1" x1="1" y1="-241" x2="1" y2="-241"/>
			</g>
		</g>
	</g>
</pattern>
<rect x="-26.1" y="-18.3" class="st3" width="1552.1" height="1089.6"/>
<rect x="1647.9" y="-18.3" class="st4" width="1552.1" height="1089.6"/>
<rect x="-26.1" y="1150.2" class="st3" width="1552.1" height="1089.6"/>
<g>
	<g class="st5">
		
			<pattern  id="SVGID_1_" xlink:href="#Unnamed_Pattern_4" patternTransform="matrix(0 1.4423 -1.3846 0 -28144.0859 3377.5986)"  class="st5">
		</pattern>
		<polygon class="st6" points="817.2,537.5 628.1,537.5 628.1,578.6 817.2,578.6 870.6,578.6 870.6,537.5 		"/>
	</g>
	<g class="st5">
		
			<pattern  id="SVGID_2_" xlink:href="#Unnamed_Pattern_4" patternTransform="matrix(0 1.4423 -1.3846 0 -28144.0859 3377.5986)"  class="st5">
		</pattern>
		<polygon class="st7" points="433.7,537.5 395,537.5 395,578.6 433.7,578.6 584.1,578.6 584.1,537.5 		"/>
	</g>
	<g class="st8">
		<polygon points="361.9,537.5 341.6,537.5 341.6,578.6 361.9,578.6 395,578.6 395,537.5 		"/>
	</g>
	<g class="st5">
		
			<pattern  id="SVGID_3_" xlink:href="#Unnamed_Pattern_4" patternTransform="matrix(0 1.4423 -1.3846 0 -28144.0859 3377.5986)"  class="st5">
		</pattern>
		<polygon class="st9" points="424.1,616.8 424.1,657.9 448.3,657.9 584.1,657.9 584.1,616.8 448.3,616.8 		"/>
	</g>
	<g class="st8">
		<polygon points="377.9,616.8 341.6,616.8 341.6,657.9 377.9,657.9 424.1,657.9 424.1,616.8 		"/>
	</g>
	<g class="st5">
		
			<pattern  id="SVGID_4_" xlink:href="#Unnamed_Pattern_4" patternTransform="matrix(0 1.4423 -1.3846 0 -28144.0859 3377.5986)"  class="st5">
		</pattern>
		<rect x="399.8" y="696.2" class="st10" width="184.2" height="41.1"/>
	</g>
	<g class="st8">
		<polygon points="375.6,696.2 349.8,696.2 341.6,696.2 341.6,737.3 349.8,737.3 375.6,737.3 399.8,737.3 399.8,696.2 		"/>
	</g>
	<g>
		<g>
			<path d="M228.9,337.9c0-1.7,1.2-3.1,3.3-3.8c-2-0.6-2.9-2.3-2.9-3.6c0-2.7,2.8-4.2,5.2-4.2c2.4,0,5.2,1.4,5.2,4.2
				c0,1.5-1.1,3-2.9,3.6c2.2,0.6,3.3,2.2,3.3,3.8c0,2.9-2.8,4.5-5.5,4.5C231.8,342.4,228.9,341,228.9,337.9z M238.3,337.9
				c0-2.1-2.2-3.1-3.9-3.1c-1.7,0-3.9,1-3.9,3c0,2.1,2.2,3,3.9,3C236.1,340.9,238.3,340,238.3,337.9z M230.9,330.6
				c0,2,2.2,2.9,3.5,2.9c1.4,0,3.6-0.9,3.6-2.9c0-1.8-2-2.8-3.6-2.8C233,327.8,230.9,328.7,230.9,330.6z"/>
			<path d="M247.8,326.7h3l7.1,23h0.1l7.2-23h3.2l7.2,23.1h0.1l7.1-23.1h2.9l-8.5,27.1h-3.2l-7.2-23.3l-7.3,23.3h-3.1L247.8,326.7z"
				/>
			<path d="M302.9,343c0-3.3-1.7-5.6-5.1-5.6c-3.2,0-5.5,2.6-5.5,5.8v10.5h-2.7v-28.2h2.7v13c1.5-2.4,3.6-3.7,6.3-3.7
				c4.5,0,7,3.1,7,7.4v11.4h-2.7V343z"/>
			<path d="M322.6,341.9c0-3-1.6-4.5-4.7-4.5c-3.1,0-4.5,2-4.8,3.8l-2.6-0.6c0.1-1.6,2.2-5.6,7.5-5.6c3.9,0,5.9,1.8,6.8,3.8
				c0.4,1,0.6,2.5,0.6,3v11.9h-2.6v-3.3h0c-1.5,2.3-3.5,3.6-6.2,3.6c-3.7,0-6.2-2.3-6.2-5.4v-0.2c0-4,4-5.3,7.3-5.3h5.1V341.9z
				 M317.5,345.3c-2,0-4.6,0.6-4.6,3.1c0,2.1,1.8,3.3,4,3.3c3.3,0,5.7-2.3,5.7-5.7v-0.7H317.5z"/>
			<path d="M332.2,349v-11.3h-3.4v-2.4h3.4V330h2.7v5.3h4.7v2.4h-4.7v11.3c0,1.7,1,2.6,3,2.6c0.6,0,1.2,0,1.7-0.1v2.3
				c-0.6,0.2-1.6,0.3-2.1,0.3C333.4,353.9,332.2,351.7,332.2,349z"/>
			<path d="M361.9,351.7c4.1,0,5.6-3,6.2-4.4l2.5,0.8c-0.8,2.8-3.9,6-8.7,6c-5.3,0-9.4-3.9-9.4-9.5c0-5.6,4.3-9.6,9.6-9.6
				c4.3,0,7.7,2.8,8.5,5.9l-2.5,0.8c-0.4-1.4-2.3-4.3-6.1-4.3c-3.9,0-6.7,3.2-6.7,7.1S357.7,351.7,361.9,351.7z"/>
			<path d="M388.4,343c0-3.3-1.7-5.6-5.1-5.6c-3.2,0-5.5,2.6-5.5,5.8v10.5h-2.7v-28.2h2.7v13c1.5-2.4,3.6-3.7,6.3-3.7
				c4.5,0,7,3.1,7,7.4v11.4h-2.7V343z"/>
			<path d="M408.1,341.9c0-3-1.6-4.5-4.7-4.5c-3.1,0-4.5,2-4.8,3.8l-2.6-0.6c0.1-1.6,2.2-5.6,7.5-5.6c3.9,0,5.9,1.8,6.8,3.8
				c0.4,1,0.6,2.5,0.6,3v11.9h-2.6v-3.3h0c-1.5,2.3-3.5,3.6-6.2,3.6c-3.7,0-6.2-2.3-6.2-5.4v-0.2c0-4,4-5.3,7.3-5.3h5.1V341.9z
				 M402.9,345.3c-2,0-4.6,0.6-4.6,3.1c0,2.1,1.8,3.3,4,3.3c3.3,0,5.7-2.3,5.7-5.7v-0.7H402.9z"/>
			<path d="M419.3,325.6v28.2h-2.7v-28.2H419.3z"/>
			<path d="M428.2,325.6v28.2h-2.7v-28.2H428.2z"/>
			<path d="M435.6,345.4c0.2,3.6,3,6.3,6.6,6.3c2.7,0,4.8-1.3,5.7-3.9l2.4,0.8c-1.1,3.6-4.4,5.6-8.1,5.6c-5.4,0-9.4-4.3-9.4-9.6
				c0-5,3.8-9.5,9-9.5c5.7,0,8.7,4.1,8.7,9.5c0,0.3,0,0.6,0,0.9H435.6z M447.9,343.1c-0.3-3.4-2.5-5.7-6-5.7c-3.2,0-5.8,2.7-6.2,5.7
				H447.9z"/>
			<path d="M468.6,343c0-3.3-1.7-5.6-5.1-5.6c-3.2,0-5.5,2.6-5.5,5.8v10.5h-2.7v-18.5h2.7v3.4c1.5-2.5,3.6-3.7,6.4-3.7
				c4.5,0,7,3.1,7,7.4v11.4h-2.7V343z"/>
			<path d="M491.6,349.7c-1.4,2.4-3.7,4.2-7.2,4.2c-5.3,0-8.7-4.4-8.7-9.4c0-4.8,3.4-9.5,8.7-9.5c3.6,0,5.7,2,7.2,4.2v-3.9h2.7v18.6
				c0,6-3.7,9.2-9.3,9.2c-4.8,0-8.2-2.4-9.2-6.3l2.5-0.8c0.6,2.1,2.4,4.8,6.6,4.8c3.6,0,6.6-1.9,6.6-6.7V349.7z M491.7,344.4
				c0-3.6-2.8-7-6.6-7c-4.1,0-6.4,3.1-6.4,7.1c0,3.8,2.4,7,6.4,7C488.9,351.5,491.7,348.2,491.7,344.4z"/>
			<path d="M501.8,345.4c0.2,3.6,3,6.3,6.6,6.3c2.7,0,4.8-1.3,5.7-3.9l2.4,0.8c-1.1,3.6-4.4,5.6-8.1,5.6c-5.4,0-9.4-4.3-9.4-9.6
				c0-5,3.8-9.5,9-9.5c5.7,0,8.7,4.1,8.7,9.5c0,0.3,0,0.6,0,0.9H501.8z M514.1,343.1c-0.3-3.4-2.5-5.7-6-5.7c-3.2,0-5.8,2.7-6.2,5.7
				H514.1z"/>
			<path d="M527.1,354.1c-5,0-6.7-3.4-7-5.5l2.5-0.6c0.4,1.7,1.6,3.7,4.5,3.7c2,0,3.8-1.1,3.8-3c0-2.3-2.4-2.8-4.3-3
				c-3.1-0.4-6.1-1.6-6.1-5.2c0-3.5,3.2-5.5,6.2-5.5c4.9,0,6.4,3.3,6.7,5l-2.5,0.6c-0.3-1.2-1.3-3.3-4.3-3.3c-2,0-3.5,1.4-3.5,2.9
				c0,2.3,2.5,2.7,4.4,2.9c3,0.4,6.1,2,6.1,5.3C533.6,351.9,530.7,354.1,527.1,354.1z"/>
			<path d="M549.5,326.6c1.1,0,2,0.9,2,2c0,1.1-0.9,2-2,2c-1.1,0-2-0.9-2-2C547.4,327.5,548.3,326.6,549.5,326.6z M550.8,335.3v18.5
				h-2.7v-18.5H550.8z"/>
			<path d="M569.5,343c0-3-1.5-5.5-4.8-5.5c-3.2,0-5.1,2.8-5.1,5.8v10.5h-2.7v-18.5h2.7v3.2c1.5-2.3,3.2-3.6,6-3.6
				c2.7,0,4.8,1.3,5.9,3.7c1.6-2.4,3.6-3.7,6.5-3.7c4.5,0,6.8,3.1,6.8,7.4v11.4h-2.7V343c0-3.1-1.4-5.6-4.8-5.6
				c-3.3,0-5.1,2.6-5.1,5.7v10.6h-2.7V343z"/>
			<path d="M600.5,354.1c-3.4,0-5.6-1.7-7.1-4.1v12.9h-2.7v-27.6h2.7v4c1.5-2.3,3.7-4.3,7.2-4.3c5.3,0,8.7,4.7,8.7,9.5
				C609.2,349.5,605.8,354.1,600.5,354.1z M606.4,344.6c0-3.8-2.4-7.2-6.5-7.2c-3.8,0-6.6,3.4-6.6,7.1c0,3.8,2.7,7.2,6.6,7.2
				C604,351.7,606.4,348.5,606.4,344.6z"/>
			<path d="M615.4,345.4c0.2,3.6,3,6.3,6.6,6.3c2.7,0,4.8-1.3,5.7-3.9l2.4,0.8c-1.1,3.6-4.4,5.6-8.1,5.6c-5.4,0-9.4-4.3-9.4-9.6
				c0-5,3.8-9.5,9-9.5c5.7,0,8.7,4.1,8.7,9.5c0,0.3,0,0.6,0,0.9H615.4z M627.6,343.1c-0.3-3.4-2.5-5.7-6-5.7c-3.2,0-5.8,2.7-6.2,5.7
				H627.6z"/>
			<path d="M642.3,335c3.6,0,5.7,2,7.2,4.2v-13.6h2.7v28.2h-2.6v-3.9c-1.4,2.4-3.6,4.2-7.2,4.2c-5.3,0-8.7-4.5-8.7-9.6
				C633.7,339.7,637.1,335,642.3,335z M649.5,344.5c0-3.7-2.8-7.1-6.6-7.1c-4.1,0-6.5,3.2-6.5,7.2c0,3.8,2.4,7.1,6.5,7.1
				C646.8,351.7,649.5,348.3,649.5,344.5z"/>
			<path d="M659.7,345.4c0.2,3.6,3,6.3,6.6,6.3c2.7,0,4.8-1.3,5.7-3.9l2.4,0.8c-1.1,3.6-4.4,5.6-8.1,5.6c-5.4,0-9.4-4.3-9.4-9.6
				c0-5,3.8-9.5,9-9.5c5.7,0,8.7,4.1,8.7,9.5c0,0.3,0,0.6,0,0.9H659.7z M671.9,343.1c-0.3-3.4-2.5-5.7-6-5.7c-3.2,0-5.8,2.7-6.2,5.7
				H671.9z"/>
			<path d="M690.3,326.6c1.1,0,2,0.9,2,2c0,1.1-0.9,2-2,2c-1.1,0-2-0.9-2-2C688.3,327.5,689.2,326.6,690.3,326.6z M691.7,335.3v18.5
				h-2.7v-18.5H691.7z"/>
			<path d="M710.4,343c0-3-1.5-5.5-4.8-5.5c-3.2,0-5.1,2.8-5.1,5.8v10.5h-2.7v-18.5h2.7v3.2c1.5-2.3,3.2-3.6,6-3.6
				c2.7,0,4.8,1.3,5.9,3.7c1.6-2.4,3.6-3.7,6.5-3.7c4.5,0,6.8,3.1,6.8,7.4v11.4h-2.7V343c0-3.1-1.4-5.6-4.8-5.6
				c-3.3,0-5.1,2.6-5.1,5.7v10.6h-2.7V343z"/>
			<path d="M741.4,354.1c-3.4,0-5.6-1.7-7.1-4.1v12.9h-2.7v-27.6h2.7v4c1.5-2.3,3.7-4.3,7.2-4.3c5.3,0,8.7,4.7,8.7,9.5
				C750,349.5,746.6,354.1,741.4,354.1z M747.3,344.6c0-3.8-2.4-7.2-6.5-7.2c-3.8,0-6.6,3.4-6.6,7.1c0,3.8,2.7,7.2,6.6,7.2
				C744.9,351.7,747.3,348.5,747.3,344.6z"/>
			<path d="M757.5,339c1.4-2.9,3.8-3.9,6-3.9c0.2,0,0.7,0,0.9,0v2.9c-0.3,0-0.7-0.1-1-0.1c-4.4,0-5.8,3.6-5.8,6.9v9h-2.7v-18.5h2.7
				V339z"/>
			<path d="M766,344.6c0-5.5,4.1-9.6,9.6-9.6c5.3,0,9.5,4.2,9.5,9.5c0,5.5-4.2,9.6-9.6,9.6C770.1,354.1,766,349.9,766,344.6z
				 M782.3,344.6c0-3.9-2.8-7.3-6.8-7.3s-6.7,3.3-6.7,7.1c0,3.9,2.8,7.2,6.8,7.2C779.5,351.7,782.3,348.5,782.3,344.6z"/>
			<path d="M786.9,335.3h3l6.3,15.5l6.4-15.5h2.9l-7.9,18.5h-2.9L786.9,335.3z"/>
			<path d="M810.1,345.4c0.2,3.6,3,6.3,6.6,6.3c2.7,0,4.8-1.3,5.7-3.9l2.4,0.8c-1.1,3.6-4.4,5.6-8.1,5.6c-5.4,0-9.4-4.3-9.4-9.6
				c0-5,3.8-9.5,9-9.5c5.7,0,8.7,4.1,8.7,9.5c0,0.3,0,0.6,0,0.9H810.1z M822.4,343.1c-0.3-3.4-2.5-5.7-6-5.7c-3.2,0-5.8,2.7-6.2,5.7
				H822.4z"/>
			<path d="M842.3,343c0-3-1.5-5.5-4.8-5.5c-3.2,0-5.1,2.8-5.1,5.8v10.5h-2.7v-18.5h2.7v3.2c1.5-2.3,3.2-3.6,6-3.6
				c2.7,0,4.8,1.3,5.9,3.7c1.6-2.4,3.6-3.7,6.5-3.7c4.5,0,6.8,3.1,6.8,7.4v11.4h-2.7V343c0-3.1-1.4-5.6-4.8-5.6
				c-3.3,0-5.1,2.6-5.1,5.7v10.6h-2.7V343z"/>
			<path d="M864.9,345.4c0.2,3.6,3,6.3,6.6,6.3c2.7,0,4.8-1.3,5.7-3.9l2.4,0.8c-1.1,3.6-4.4,5.6-8.1,5.6c-5.4,0-9.4-4.3-9.4-9.6
				c0-5,3.8-9.5,9-9.5c5.7,0,8.7,4.1,8.7,9.5c0,0.3,0,0.6,0,0.9H864.9z M877.1,343.1c-0.3-3.4-2.5-5.7-6-5.7c-3.2,0-5.8,2.7-6.2,5.7
				H877.1z"/>
			<path d="M897.8,343c0-3.3-1.7-5.6-5.1-5.6c-3.2,0-5.5,2.6-5.5,5.8v10.5h-2.7v-18.5h2.7v3.4c1.5-2.5,3.6-3.7,6.4-3.7
				c4.5,0,7,3.1,7,7.4v11.4h-2.7V343z"/>
			<path d="M907.4,349v-11.3H904v-2.4h3.4V330h2.7v5.3h4.7v2.4h-4.7v11.3c0,1.7,1,2.6,3,2.6c0.6,0,1.2,0,1.7-0.1v2.3
				c-0.6,0.2-1.6,0.3-2.1,0.3C908.6,353.9,907.4,351.7,907.4,349z"/>
			<path d="M925,354.1c-5,0-6.7-3.4-7-5.5l2.5-0.6c0.4,1.7,1.6,3.7,4.5,3.7c2,0,3.8-1.1,3.8-3c0-2.3-2.4-2.8-4.3-3
				c-3.1-0.4-6.1-1.6-6.1-5.2c0-3.5,3.1-5.5,6.2-5.5c4.9,0,6.4,3.3,6.7,5l-2.5,0.6c-0.3-1.2-1.3-3.3-4.3-3.3c-2,0-3.5,1.4-3.5,2.9
				c0,2.3,2.5,2.7,4.4,2.9c3,0.4,6.1,2,6.1,5.3C931.5,351.9,928.5,354.1,925,354.1z"/>
			<path d="M947.2,349v-11.3h-3.4v-2.4h3.4V330h2.7v5.3h4.7v2.4h-4.7v11.3c0,1.7,1,2.6,3,2.6c0.6,0,1.2,0,1.7-0.1v2.3
				c-0.6,0.2-1.6,0.3-2.1,0.3C948.5,353.9,947.2,351.7,947.2,349z"/>
			<path d="M957.4,344.6c0-5.5,4.1-9.6,9.6-9.6c5.3,0,9.5,4.2,9.5,9.5c0,5.5-4.2,9.6-9.6,9.6C961.6,354.1,957.4,349.9,957.4,344.6z
				 M973.8,344.6c0-3.9-2.8-7.3-6.8-7.3c-4,0-6.7,3.3-6.7,7.1c0,3.9,2.8,7.2,6.8,7.2C971,351.7,973.8,348.5,973.8,344.6z"/>
			<path d="M993.6,339c1.4-2.9,3.8-3.9,6-3.9c0.2,0,0.7,0,0.9,0v2.9c-0.3,0-0.7-0.1-1-0.1c-4.4,0-5.8,3.6-5.8,6.9v9h-2.7v-18.5h2.7
				V339z"/>
			<path d="M1004.8,345.4c0.2,3.6,3,6.3,6.6,6.3c2.7,0,4.8-1.3,5.7-3.9l2.4,0.8c-1.1,3.6-4.4,5.6-8.1,5.6c-5.4,0-9.4-4.3-9.4-9.6
				c0-5,3.8-9.5,9-9.5c5.7,0,8.7,4.1,8.7,9.5c0,0.3,0,0.6,0,0.9H1004.8z M1017.1,343.1c-0.3-3.4-2.5-5.7-6-5.7
				c-3.2,0-5.8,2.7-6.2,5.7H1017.1z"/>
			<path d="M1032.5,351.7c4.1,0,5.6-3,6.2-4.4l2.5,0.8c-0.8,2.8-3.9,6-8.7,6c-5.3,0-9.4-3.9-9.4-9.5c0-5.6,4.3-9.6,9.6-9.6
				c4.3,0,7.7,2.8,8.5,5.9l-2.5,0.8c-0.4-1.4-2.3-4.3-6.1-4.3c-3.9,0-6.7,3.2-6.7,7.1S1028.3,351.7,1032.5,351.7z"/>
			<path d="M1044.4,344.6c0-5.5,4.1-9.6,9.6-9.6c5.3,0,9.5,4.2,9.5,9.5c0,5.5-4.2,9.6-9.6,9.6
				C1048.5,354.1,1044.4,349.9,1044.4,344.6z M1060.7,344.6c0-3.9-2.8-7.3-6.8-7.3c-4,0-6.7,3.3-6.7,7.1c0,3.9,2.8,7.2,6.8,7.2
				C1057.9,351.7,1060.7,348.5,1060.7,344.6z"/>
			<path d="M1065.3,335.3h3l6.3,15.5l6.4-15.5h2.9l-7.9,18.5h-2.9L1065.3,335.3z"/>
			<path d="M1088.5,345.4c0.2,3.6,3,6.3,6.6,6.3c2.7,0,4.8-1.3,5.7-3.9l2.4,0.8c-1.1,3.6-4.4,5.6-8.1,5.6c-5.4,0-9.4-4.3-9.4-9.6
				c0-5,3.8-9.5,9-9.5c5.7,0,8.7,4.1,8.7,9.5c0,0.3,0,0.6,0,0.9H1088.5z M1100.8,343.1c-0.3-3.4-2.5-5.7-6-5.7
				c-3.2,0-5.8,2.7-6.2,5.7H1100.8z"/>
			<path d="M1110.8,339c1.4-2.9,3.8-3.9,6-3.9c0.2,0,0.7,0,0.9,0v2.9c-0.3,0-0.7-0.1-1-0.1c-4.4,0-5.8,3.6-5.8,6.9v9h-2.7v-18.5h2.7
				V339z"/>
			<path d="M1127.4,352.5l-8.4-17.2h3.1l6.8,14.3l6.4-14.3h2.9l-12.7,27.6h-2.9L1127.4,352.5z"/>
			<path d="M1156.4,354.1c-5,0-6.7-3.4-7-5.5l2.5-0.6c0.4,1.7,1.6,3.7,4.5,3.7c2,0,3.8-1.1,3.8-3c0-2.3-2.4-2.8-4.3-3
				c-3.1-0.4-6.1-1.6-6.1-5.2c0-3.5,3.1-5.5,6.2-5.5c4.9,0,6.4,3.3,6.7,5l-2.5,0.6c-0.3-1.2-1.3-3.3-4.3-3.3c-2,0-3.5,1.4-3.5,2.9
				c0,2.3,2.5,2.7,4.4,2.9c3,0.4,6.1,2,6.1,5.3C1163,351.9,1160,354.1,1156.4,354.1z"/>
			<path d="M1177.6,354.1c-3.4,0-5.6-1.7-7.1-4.1v12.9h-2.7v-27.6h2.7v4c1.5-2.3,3.7-4.3,7.2-4.3c5.3,0,8.7,4.7,8.7,9.5
				C1186.3,349.5,1182.9,354.1,1177.6,354.1z M1183.6,344.6c0-3.8-2.4-7.2-6.5-7.2c-3.8,0-6.6,3.4-6.6,7.1c0,3.8,2.7,7.2,6.6,7.2
				C1181.2,351.7,1183.6,348.5,1183.6,344.6z"/>
			<path d="M1192.5,345.4c0.2,3.6,3,6.3,6.6,6.3c2.7,0,4.8-1.3,5.7-3.9l2.4,0.8c-1.1,3.6-4.4,5.6-8.1,5.6c-5.4,0-9.4-4.3-9.4-9.6
				c0-5,3.8-9.5,9-9.5c5.7,0,8.7,4.1,8.7,9.5c0,0.3,0,0.6,0,0.9H1192.5z M1204.7,343.1c-0.3-3.4-2.5-5.7-6-5.7
				c-3.2,0-5.8,2.7-6.2,5.7H1204.7z"/>
			<path d="M1213.5,345.4c0.2,3.6,3,6.3,6.6,6.3c2.7,0,4.8-1.3,5.7-3.9l2.4,0.8c-1.1,3.6-4.4,5.6-8.1,5.6c-5.4,0-9.4-4.3-9.4-9.6
				c0-5,3.8-9.5,9-9.5c5.7,0,8.7,4.1,8.7,9.5c0,0.3,0,0.6,0,0.9H1213.5z M1225.7,343.1c-0.3-3.4-2.5-5.7-6-5.7
				c-3.2,0-5.8,2.7-6.2,5.7H1225.7z"/>
			<path d="M1240.5,335c3.6,0,5.7,2,7.2,4.2v-13.6h2.7v28.2h-2.6v-3.9c-1.4,2.4-3.6,4.2-7.2,4.2c-5.3,0-8.7-4.5-8.7-9.6
				C1231.8,339.7,1235.2,335,1240.5,335z M1247.7,344.5c0-3.7-2.8-7.1-6.6-7.1c-4.1,0-6.5,3.2-6.5,7.2c0,3.8,2.4,7.1,6.5,7.1
				C1244.9,351.7,1247.7,348.3,1247.7,344.5z"/>
			<path d="M1260.9,345.9c0-0.2,0-0.4,0-0.6c0-3.2,2-4.8,3.5-6.3c1.6-1.7,3.4-3.1,3.4-5.5c0-2.3-1.5-4.4-5.1-4.4
				c-3.5,0-5.4,2.6-5.2,5.9l-2.8-0.1c0-0.3,0-0.5,0-0.8c0-4.5,3.7-7.6,8-7.6c4.8,0,8,3.4,8,7.1c0,2.7-1.6,4.4-4.1,6.9
				c-1.8,1.8-3,2.9-3.1,5.6H1260.9z M1262.2,354.1c1.1,0,2-0.9,2-2c0-1.1-0.9-2-2-2c-1.1,0-2,0.9-2,2
				C1260.1,353.2,1261.1,354.1,1262.2,354.1z"/>
		</g>
	</g>
	<g>
		<g>
			<path d="M181.3,548.4v14.3h7.5v1.6h-9.2v-15.8H181.3z"/>
			<path d="M198.5,557.3c0-1.7-0.9-2.6-2.7-2.6c-1.8,0-2.6,1.2-2.8,2.2l-1.5-0.3c0.1-0.9,1.3-3.3,4.4-3.3c2.3,0,3.4,1,3.9,2.2
				c0.2,0.6,0.3,1.4,0.3,1.8v7h-1.5v-1.9h0c-0.8,1.3-2,2.1-3.6,2.1c-2.2,0-3.6-1.4-3.6-3.2v-0.1c0-2.3,2.3-3.1,4.3-3.1h3V557.3z
				 M195.5,559.3c-1.2,0-2.7,0.4-2.7,1.8c0,1.2,1,1.9,2.3,1.9c1.9,0,3.4-1.4,3.4-3.3v-0.4H195.5z"/>
			<path d="M209.2,563c2.4,0,3.3-1.8,3.6-2.6l1.5,0.5c-0.5,1.6-2.3,3.5-5.1,3.5c-3.1,0-5.5-2.3-5.5-5.5c0-3.3,2.5-5.6,5.6-5.6
				c2.5,0,4.5,1.6,5,3.4l-1.5,0.5c-0.2-0.8-1.3-2.5-3.6-2.5c-2.3,0-3.9,1.9-3.9,4.1S206.7,563,209.2,563z"/>
			<path d="M219.4,564.2h-1.6v-16.5h1.6v10.1l5.1-4.4h2.2l-5.7,4.8l5.9,5.9h-2.2l-5.4-5.4h-0.1V564.2z"/>
			<path d="M235.7,558.9c0-3.2,2.4-5.6,5.6-5.6c3.1,0,5.6,2.4,5.6,5.5c0,3.2-2.4,5.6-5.6,5.6C238.2,564.4,235.7,561.9,235.7,558.9z
				 M245.3,558.9c0-2.3-1.6-4.2-4-4.2c-2.3,0-3.9,1.9-3.9,4.2c0,2.3,1.6,4.2,4,4.2C243.6,563,245.3,561.1,245.3,558.9z"/>
			<path d="M252.8,551.4v2h2.8v1.4h-2.8v9.4h-1.6v-9.4h-2.1v-1.4h2.1v-2c0-2.5,1.4-3.7,3.3-3.7c0.3,0,0.8,0.1,1.2,0.2v1.3
				c-0.4-0.1-0.9-0.1-1.1-0.1C253.8,549.1,252.8,549.6,252.8,551.4z"/>
			<path d="M265.7,561.4v-6.6h-2v-1.4h2v-3.1h1.6v3.1h2.7v1.4h-2.7v6.6c0,1,0.6,1.5,1.8,1.5c0.3,0,0.7,0,1-0.1v1.3
				c-0.3,0.1-0.9,0.2-1.2,0.2C266.4,564.3,265.7,563,265.7,561.4z"/>
			<path d="M274.4,548.4c0.7,0,1.2,0.5,1.2,1.2c0,0.6-0.5,1.2-1.2,1.2c-0.6,0-1.2-0.5-1.2-1.2C273.3,548.9,273.8,548.4,274.4,548.4z
				 M275.2,553.4v10.8h-1.6v-10.8H275.2z"/>
			<path d="M287.2,557.9c0-1.8-0.8-3.2-2.8-3.2c-1.9,0-3,1.7-3,3.4v6.1h-1.6v-10.8h1.6v1.9c0.9-1.3,1.9-2.1,3.5-2.1
				c1.6,0,2.8,0.7,3.5,2.2c0.9-1.4,2.1-2.1,3.8-2.1c2.6,0,4,1.8,4,4.3v6.7h-1.6v-6.3c0-1.8-0.8-3.3-2.8-3.3c-1.9,0-3,1.5-3,3.3v6.2
				h-1.6V557.9z"/>
			<path d="M301.3,559.3c0.1,2.1,1.8,3.7,3.9,3.7c1.6,0,2.8-0.8,3.3-2.3l1.4,0.4c-0.6,2.1-2.6,3.3-4.7,3.3c-3.1,0-5.5-2.5-5.5-5.6
				c0-2.9,2.2-5.6,5.3-5.6c3.3,0,5.1,2.4,5.1,5.5c0,0.2,0,0.4,0,0.5H301.3z M308.5,558c-0.2-2-1.4-3.4-3.5-3.4
				c-1.9,0-3.4,1.6-3.6,3.4H308.5z"/>
		</g>
	</g>
	<g>
		<g>
			<path d="M372,497.7l-1.7,4h-1.7l6.8-15.8h1.9l6.8,15.8h-1.8l-1.7-4H372z M372.6,496.2h7.4l-3.7-8.5L372.6,496.2z"/>
			<path d="M388.5,485.3v16.5h-1.6v-16.5H388.5z"/>
			<path d="M394.7,485.3v16.5h-1.6v-16.5H394.7z"/>
			<path d="M411.6,501.9c-2,0-3.3-1-4.2-2.4v2.3h-1.6v-16.4h1.6v8c0.9-1.4,2.1-2.5,4.2-2.5c3.1,0,5.1,2.7,5.1,5.6
				C416.7,499.2,414.7,501.9,411.6,501.9z M415.1,496.4c0-2.2-1.4-4.2-3.8-4.2c-2.2,0-3.9,2-3.9,4.1c0,2.2,1.6,4.2,3.9,4.2
				C413.7,500.5,415.1,498.6,415.1,496.4z"/>
			<path d="M421.9,497.2c0,1.9,1,3.3,3,3.3c1.9,0,3.2-1.5,3.2-3.4v-6.2h1.6v10.8h-1.5v-2c-0.8,1.5-2.1,2.2-3.7,2.2
				c-2.6,0-4.1-1.8-4.1-4.3v-6.7h1.6V497.2z"/>
			<path d="M437.6,501.9c-2.9,0-3.9-2-4.1-3.2l1.5-0.3c0.2,1,0.9,2.1,2.6,2.1c1.2,0,2.2-0.6,2.2-1.8c0-1.3-1.4-1.6-2.5-1.8
				c-1.8-0.3-3.6-0.9-3.6-3c0-2,1.8-3.2,3.6-3.2c2.8,0,3.8,1.9,3.9,2.9l-1.4,0.3c-0.2-0.7-0.8-1.9-2.5-1.9c-1.2,0-2,0.8-2,1.7
				c0,1.4,1.5,1.6,2.6,1.7c1.8,0.2,3.5,1.2,3.5,3.1C441.4,500.6,439.7,501.9,437.6,501.9z"/>
			<path d="M446,485.9c0.7,0,1.2,0.5,1.2,1.2c0,0.6-0.5,1.2-1.2,1.2c-0.6,0-1.2-0.5-1.2-1.2C444.8,486.4,445.3,485.9,446,485.9z
				 M446.8,490.9v10.8h-1.6v-10.8H446.8z"/>
			<path d="M459.1,495.4c0-1.9-1-3.3-3-3.3c-1.9,0-3.2,1.5-3.2,3.4v6.1h-1.6v-10.8h1.6v2c0.8-1.5,2.1-2.2,3.7-2.2
				c2.6,0,4.1,1.8,4.1,4.3v6.7h-1.6V495.4z"/>
			<path d="M465.9,496.8c0.1,2.1,1.8,3.7,3.9,3.7c1.6,0,2.8-0.8,3.3-2.3l1.4,0.4c-0.6,2.1-2.6,3.3-4.7,3.3c-3.1,0-5.5-2.5-5.5-5.6
				c0-2.9,2.2-5.6,5.3-5.6c3.3,0,5.1,2.4,5.1,5.5c0,0.2,0,0.4,0,0.5H465.9z M473.1,495.5c-0.2-2-1.4-3.4-3.5-3.4
				c-1.9,0-3.4,1.6-3.6,3.4H473.1z"/>
			<path d="M481.7,501.9c-2.9,0-3.9-2-4.1-3.2l1.5-0.3c0.2,1,1,2.1,2.6,2.1c1.2,0,2.2-0.6,2.2-1.8c0-1.3-1.4-1.6-2.5-1.8
				c-1.8-0.3-3.6-0.9-3.6-3c0-2,1.8-3.2,3.6-3.2c2.8,0,3.8,1.9,3.9,2.9l-1.4,0.3c-0.2-0.7-0.8-1.9-2.5-1.9c-1.2,0-2,0.8-2,1.7
				c0,1.4,1.5,1.6,2.6,1.7c1.8,0.2,3.5,1.2,3.5,3.1C485.5,500.6,483.8,501.9,481.7,501.9z"/>
			<path d="M492.6,501.9c-2.9,0-3.9-2-4.1-3.2l1.5-0.3c0.2,1,1,2.1,2.6,2.1c1.2,0,2.2-0.6,2.2-1.8c0-1.3-1.4-1.6-2.5-1.8
				c-1.8-0.3-3.6-0.9-3.6-3c0-2,1.8-3.2,3.6-3.2c2.8,0,3.8,1.9,3.9,2.9l-1.4,0.3c-0.2-0.7-0.8-1.9-2.5-1.9c-1.2,0-2,0.8-2,1.7
				c0,1.4,1.5,1.6,2.6,1.7c1.8,0.2,3.5,1.2,3.5,3.1C496.4,500.6,494.7,501.9,492.6,501.9z"/>
			<path d="M510.2,501.9c-2.9,0-3.9-2-4.1-3.2l1.5-0.3c0.2,1,1,2.1,2.6,2.1c1.2,0,2.2-0.6,2.2-1.8c0-1.3-1.4-1.6-2.5-1.8
				c-1.8-0.3-3.6-0.9-3.6-3c0-2,1.8-3.2,3.6-3.2c2.8,0,3.8,1.9,3.9,2.9l-1.4,0.3c-0.2-0.7-0.8-1.9-2.5-1.9c-1.2,0-2,0.8-2,1.7
				c0,1.4,1.5,1.6,2.6,1.7c1.8,0.2,3.5,1.2,3.5,3.1C514,500.6,512.3,501.9,510.2,501.9z"/>
			<path d="M518.6,485.9c0.7,0,1.2,0.5,1.2,1.2c0,0.6-0.5,1.2-1.2,1.2c-0.6,0-1.2-0.5-1.2-1.2C517.4,486.4,518,485.9,518.6,485.9z
				 M519.4,490.9v10.8h-1.6v-10.8H519.4z"/>
			<path d="M531.7,501.7H523v-1.4l6.7-8.1h-6.6v-1.4h8.5v1.3l-6.7,8.1h6.7V501.7z"/>
			<path d="M536,496.8c0.1,2.1,1.8,3.7,3.9,3.7c1.6,0,2.8-0.8,3.3-2.3l1.4,0.4c-0.6,2.1-2.6,3.3-4.7,3.3c-3.1,0-5.5-2.5-5.5-5.6
				c0-2.9,2.2-5.6,5.3-5.6c3.3,0,5.1,2.4,5.1,5.5c0,0.2,0,0.4,0,0.5H536z M543.1,495.5c-0.2-2-1.4-3.4-3.5-3.4
				c-1.9,0-3.4,1.6-3.6,3.4H543.1z"/>
			<path d="M551.7,501.9c-2.9,0-3.9-2-4.1-3.2l1.5-0.3c0.2,1,1,2.1,2.6,2.1c1.2,0,2.2-0.6,2.2-1.8c0-1.3-1.4-1.6-2.5-1.8
				c-1.8-0.3-3.6-0.9-3.6-3c0-2,1.8-3.2,3.6-3.2c2.8,0,3.8,1.9,3.9,2.9L554,494c-0.2-0.7-0.8-1.9-2.5-1.9c-1.2,0-2,0.8-2,1.7
				c0,1.4,1.5,1.6,2.6,1.7c1.8,0.2,3.5,1.2,3.5,3.1C555.5,500.6,553.8,501.9,551.7,501.9z"/>
		</g>
	</g>
	<g>
		<g>
			<path d="M720.8,497.4l1.6-0.4c0.3,1.8,2.1,3.4,4,3.4c1.8,0,3.6-0.9,3.6-2.9c0-1.9-1.7-2.6-2.8-2.8l-2.1-0.4
				c-0.7-0.1-1.8-0.5-2.7-1.3c-0.7-0.6-1.1-1.5-1.1-2.7c0-2.7,2.4-4.4,5-4.4c3.4,0,4.9,2.1,5.2,3.8L730,490
				c-0.3-1.1-1.3-2.7-3.8-2.7c-1.7,0-3.3,1.1-3.3,2.8c0,1.2,0.7,2.2,2.3,2.5l2,0.4c1.1,0.2,2.2,0.6,3.1,1.4c1.1,1,1.4,2.2,1.4,2.9
				c0,2.8-2.3,4.6-5.3,4.6C723.3,501.9,721,499.6,720.8,497.4z"/>
			<path d="M742.9,495.4c0-1.8-0.8-3.2-2.8-3.2c-1.9,0-3,1.7-3,3.4v6.1h-1.6v-10.8h1.6v1.9c0.9-1.3,1.9-2.1,3.5-2.1
				c1.6,0,2.8,0.7,3.5,2.2c0.9-1.4,2.1-2.1,3.8-2.1c2.6,0,4,1.8,4,4.3v6.7h-1.6v-6.3c0-1.8-0.8-3.3-2.8-3.3c-1.9,0-3,1.5-3,3.3v6.2
				h-1.6V495.4z"/>
			<path d="M762.8,494.8c0-1.7-0.9-2.6-2.7-2.6c-1.8,0-2.6,1.2-2.8,2.2l-1.5-0.3c0.1-0.9,1.3-3.3,4.4-3.3c2.3,0,3.4,1,3.9,2.2
				c0.2,0.6,0.3,1.4,0.3,1.8v7h-1.5v-1.9h0c-0.8,1.3-2,2.1-3.6,2.1c-2.2,0-3.6-1.4-3.6-3.2v-0.1c0-2.3,2.3-3.1,4.3-3.1h3V494.8z
				 M759.7,496.8c-1.2,0-2.7,0.4-2.7,1.8c0,1.2,1,1.9,2.3,1.9c1.9,0,3.4-1.4,3.4-3.3v-0.4H759.7z"/>
			<path d="M770.3,485.3v16.5h-1.6v-16.5H770.3z"/>
			<path d="M776.5,485.3v16.5h-1.6v-16.5H776.5z"/>
		</g>
	</g>
	<g>
		<g>
			<path d="M1009.6,501.7h-1.6v-13.6h0l-5.9,13.6h-1.5l-5.8-13.5v13.5H993v-15.8h2.3l5.9,13.6l5.9-13.6h2.4V501.7z"/>
			<path d="M1015.3,496.8c0.1,2.1,1.8,3.7,3.9,3.7c1.6,0,2.8-0.8,3.3-2.3l1.4,0.4c-0.6,2.1-2.6,3.3-4.7,3.3c-3.1,0-5.5-2.5-5.5-5.6
				c0-2.9,2.2-5.6,5.3-5.6c3.3,0,5.1,2.4,5.1,5.5c0,0.2,0,0.4,0,0.5H1015.3z M1022.5,495.5c-0.2-2-1.4-3.4-3.5-3.4
				c-1.9,0-3.4,1.6-3.6,3.4H1022.5z"/>
			<path d="M1032.1,490.8c2.1,0,3.3,1.2,4.2,2.4v-7.9h1.6v16.4h-1.5v-2.3c-0.8,1.4-2.1,2.5-4.2,2.5c-3.1,0-5.1-2.6-5.1-5.6
				C1027,493.5,1029,490.8,1032.1,490.8z M1036.3,496.3c0-2.1-1.6-4.1-3.9-4.1c-2.4,0-3.8,1.9-3.8,4.2c0,2.2,1.4,4.1,3.8,4.1
				C1034.7,500.5,1036.3,498.5,1036.3,496.3z"/>
			<path d="M1043.2,485.9c0.7,0,1.2,0.5,1.2,1.2c0,0.6-0.5,1.2-1.2,1.2c-0.6,0-1.2-0.5-1.2-1.2
				C1042,486.4,1042.5,485.9,1043.2,485.9z M1044,490.9v10.8h-1.6v-10.8H1044z"/>
			<path d="M1050,497.2c0,1.9,1,3.3,3,3.3c1.9,0,3.2-1.5,3.2-3.4v-6.2h1.6v10.8h-1.5v-2c-0.8,1.5-2.1,2.2-3.7,2.2
				c-2.6,0-4.1-1.8-4.1-4.3v-6.7h1.6V497.2z"/>
			<path d="M1069.7,495.4c0-1.8-0.8-3.2-2.8-3.2c-1.9,0-3,1.7-3,3.4v6.1h-1.6v-10.8h1.6v1.9c0.9-1.3,1.9-2.1,3.5-2.1
				c1.6,0,2.8,0.7,3.5,2.2c0.9-1.4,2.1-2.1,3.8-2.1c2.6,0,4,1.8,4,4.3v6.7h-1.6v-6.3c0-1.8-0.8-3.3-2.8-3.3c-1.9,0-3,1.5-3,3.3v6.2
				h-1.6V495.4z"/>
		</g>
	</g>
	<g>
		<g>
			<path d="M1295.7,485.9v14.3h7.5v1.6h-9.2v-15.8H1295.7z"/>
			<path d="M1312.9,494.8c0-1.7-0.9-2.6-2.7-2.6c-1.8,0-2.6,1.2-2.8,2.2l-1.5-0.3c0.1-0.9,1.3-3.3,4.4-3.3c2.3,0,3.4,1,3.9,2.2
				c0.2,0.6,0.3,1.4,0.3,1.8v7h-1.5v-1.9h0c-0.8,1.3-2,2.1-3.6,2.1c-2.2,0-3.6-1.4-3.6-3.2v-0.1c0-2.3,2.3-3.1,4.3-3.1h3V494.8z
				 M1309.9,496.8c-1.2,0-2.7,0.4-2.7,1.8c0,1.2,1,1.9,2.3,1.9c1.9,0,3.4-1.4,3.4-3.3v-0.4H1309.9z"/>
			<path d="M1320.4,493.1c0.8-1.7,2.2-2.3,3.5-2.3c0.1,0,0.4,0,0.5,0v1.7c-0.2,0-0.4,0-0.6,0c-2.5,0-3.4,2.1-3.4,4v5.3h-1.6v-10.8
				h1.6V493.1z"/>
			<path d="M1335.6,499.3c-0.8,1.4-2.1,2.4-4.2,2.4c-3.1,0-5.1-2.5-5.1-5.5c0-2.8,2-5.5,5.1-5.5c2.1,0,3.4,1.2,4.2,2.4v-2.3h1.6
				v10.8c0,3.5-2.1,5.4-5.4,5.4c-2.8,0-4.8-1.4-5.4-3.7l1.5-0.5c0.3,1.3,1.4,2.8,3.9,2.8c2.1,0,3.9-1.1,3.9-3.9V499.3z
				 M1335.7,496.3c0-2.1-1.6-4.1-3.9-4.1c-2.4,0-3.8,1.8-3.8,4.2c0,2.2,1.4,4.1,3.8,4.1C1334.1,500.4,1335.7,498.5,1335.7,496.3z"/>
			<path d="M1342.6,496.8c0.1,2.1,1.8,3.7,3.9,3.7c1.6,0,2.8-0.8,3.3-2.3l1.4,0.4c-0.6,2.1-2.6,3.3-4.7,3.3c-3.1,0-5.5-2.5-5.5-5.6
				c0-2.9,2.2-5.6,5.3-5.6c3.3,0,5.1,2.4,5.1,5.5c0,0.2,0,0.4,0,0.5H1342.6z M1349.7,495.5c-0.2-2-1.4-3.4-3.5-3.4
				c-1.9,0-3.4,1.6-3.6,3.4H1349.7z"/>
		</g>
	</g>
	<g>
		<g>
			<path d="M97.3,635v1.5h-7.5v7.1h-1.7v-15.8H98v1.6h-8.1v5.7H97.3z"/>
			<path d="M102.4,627.7c0.7,0,1.2,0.5,1.2,1.2c0,0.6-0.5,1.2-1.2,1.2c-0.6,0-1.2-0.5-1.2-1.2C101.2,628.2,101.7,627.7,102.4,627.7z
				 M103.2,632.8v10.8h-1.6v-10.8H103.2z"/>
			<path d="M115.5,637.3c0-1.9-1-3.3-3-3.3c-1.9,0-3.2,1.5-3.2,3.4v6.1h-1.6v-10.8h1.6v2c0.8-1.5,2.1-2.2,3.7-2.2
				c2.6,0,4.1,1.8,4.1,4.3v6.7h-1.6V637.3z"/>
			<path d="M128,636.6c0-1.7-0.9-2.6-2.7-2.6c-1.8,0-2.6,1.2-2.8,2.2l-1.5-0.3c0.1-0.9,1.3-3.3,4.4-3.3c2.3,0,3.4,1,3.9,2.2
				c0.2,0.6,0.3,1.4,0.3,1.8v7H128v-1.9h0c-0.8,1.3-2,2.1-3.6,2.1c-2.2,0-3.6-1.4-3.6-3.2v-0.1c0-2.3,2.3-3.1,4.3-3.1h3V636.6z
				 M125,638.6c-1.2,0-2.7,0.4-2.7,1.8c0,1.2,1,1.9,2.3,1.9c1.9,0,3.4-1.4,3.4-3.3v-0.4H125z"/>
			<path d="M141.8,637.3c0-1.9-1-3.3-3-3.3c-1.9,0-3.2,1.5-3.2,3.4v6.1H134v-10.8h1.6v2c0.8-1.5,2.1-2.2,3.7-2.2
				c2.6,0,4.1,1.8,4.1,4.3v6.7h-1.6V637.3z"/>
			<path d="M152.5,642.3c2.4,0,3.3-1.8,3.6-2.6l1.5,0.5c-0.5,1.6-2.3,3.5-5.1,3.5c-3.1,0-5.5-2.3-5.5-5.5c0-3.3,2.5-5.6,5.6-5.6
				c2.5,0,4.5,1.6,5,3.4l-1.5,0.5c-0.2-0.8-1.3-2.5-3.6-2.5c-2.3,0-3.9,1.9-3.9,4.1C148.6,640.3,150,642.3,152.5,642.3z"/>
			<path d="M162,627.7c0.7,0,1.2,0.5,1.2,1.2c0,0.6-0.5,1.2-1.2,1.2c-0.6,0-1.2-0.5-1.2-1.2C160.8,628.2,161.3,627.7,162,627.7z
				 M162.8,632.8v10.8h-1.6v-10.8H162.8z"/>
			<path d="M173.9,636.6c0-1.7-0.9-2.6-2.7-2.6c-1.8,0-2.6,1.2-2.8,2.2l-1.5-0.3c0.1-0.9,1.3-3.3,4.4-3.3c2.3,0,3.4,1,3.9,2.2
				c0.2,0.6,0.3,1.4,0.3,1.8v7h-1.5v-1.9h0c-0.8,1.3-2,2.1-3.6,2.1c-2.2,0-3.6-1.4-3.6-3.2v-0.1c0-2.3,2.3-3.1,4.3-3.1h3V636.6z
				 M170.8,638.6c-1.2,0-2.7,0.4-2.7,1.8c0,1.2,1,1.9,2.3,1.9c1.9,0,3.4-1.4,3.4-3.3v-0.4H170.8z"/>
			<path d="M181.4,627.1v16.5h-1.6v-16.5H181.4z"/>
			<path d="M197.4,642.3c2.4,0,3.3-1.8,3.6-2.6l1.5,0.5c-0.5,1.6-2.3,3.5-5.1,3.5c-3.1,0-5.5-2.3-5.5-5.5c0-3.3,2.5-5.6,5.6-5.6
				c2.5,0,4.5,1.6,5,3.4l-1.5,0.5c-0.2-0.8-1.3-2.5-3.6-2.5c-2.3,0-3.9,1.9-3.9,4.1C193.5,640.3,194.9,642.3,197.4,642.3z"/>
			<path d="M205.3,638.2c0-3.2,2.4-5.6,5.6-5.6c3.1,0,5.6,2.4,5.6,5.5c0,3.2-2.4,5.6-5.6,5.6C207.7,643.7,205.3,641.3,205.3,638.2z
				 M214.8,638.2c0-2.3-1.6-4.2-4-4.2c-2.3,0-3.9,1.9-3.9,4.2c0,2.3,1.6,4.2,4,4.2C213.2,642.3,214.8,640.4,214.8,638.2z"/>
			<path d="M228,637.3c0-1.9-1-3.3-3-3.3c-1.9,0-3.2,1.5-3.2,3.4v6.1h-1.6v-10.8h1.6v2c0.8-1.5,2.1-2.2,3.7-2.2
				c2.6,0,4.1,1.8,4.1,4.3v6.7H228V637.3z"/>
			<path d="M237.3,643.7c-2.9,0-3.9-2-4.1-3.2l1.5-0.3c0.2,1,0.9,2.1,2.6,2.1c1.2,0,2.2-0.6,2.2-1.8c0-1.3-1.4-1.6-2.5-1.8
				c-1.8-0.3-3.6-0.9-3.6-3c0-2,1.8-3.2,3.6-3.2c2.8,0,3.8,1.9,3.9,2.9l-1.4,0.3c-0.2-0.7-0.8-1.9-2.5-1.9c-1.2,0-2,0.8-2,1.7
				c0,1.4,1.5,1.6,2.6,1.7c1.8,0.2,3.5,1.2,3.5,3.1C241.1,642.5,239.3,643.7,237.3,643.7z"/>
			<path d="M245.5,640.8v-6.6h-2v-1.4h2v-3.1h1.6v3.1h2.7v1.4H247v6.6c0,1,0.6,1.5,1.8,1.5c0.3,0,0.7,0,1-0.1v1.3
				c-0.3,0.1-0.9,0.2-1.2,0.2C246.2,643.6,245.5,642.3,245.5,640.8z"/>
			<path d="M255,634.9c0.8-1.7,2.2-2.3,3.5-2.3c0.1,0,0.4,0,0.5,0v1.7c-0.2,0-0.4,0-0.6,0c-2.5,0-3.4,2.1-3.4,4v5.3h-1.6v-10.8h1.6
				V634.9z"/>
			<path d="M268.4,636.6c0-1.7-0.9-2.6-2.7-2.6c-1.8,0-2.6,1.2-2.8,2.2l-1.5-0.3c0.1-0.9,1.3-3.3,4.4-3.3c2.3,0,3.4,1,3.9,2.2
				c0.2,0.6,0.3,1.4,0.3,1.8v7h-1.5v-1.9h0c-0.8,1.3-2,2.1-3.6,2.1c-2.2,0-3.6-1.4-3.6-3.2v-0.1c0-2.3,2.3-3.1,4.3-3.1h3V636.6z
				 M265.3,638.6c-1.2,0-2.7,0.4-2.7,1.8c0,1.2,1,1.9,2.3,1.9c1.9,0,3.4-1.4,3.4-3.3v-0.4H265.3z"/>
			<path d="M275.1,627.7c0.7,0,1.2,0.5,1.2,1.2c0,0.6-0.5,1.2-1.2,1.2c-0.6,0-1.2-0.5-1.2-1.2C273.9,628.2,274.5,627.7,275.1,627.7z
				 M275.9,632.8v10.8h-1.6v-10.8H275.9z"/>
			<path d="M288.3,637.3c0-1.9-1-3.3-3-3.3c-1.9,0-3.2,1.5-3.2,3.4v6.1h-1.6v-10.8h1.6v2c0.8-1.5,2.1-2.2,3.7-2.2
				c2.6,0,4.1,1.8,4.1,4.3v6.7h-1.6V637.3z"/>
			<path d="M294.9,640.8v-6.6h-2v-1.4h2v-3.1h1.6v3.1h2.7v1.4h-2.7v6.6c0,1,0.6,1.5,1.8,1.5c0.3,0,0.7,0,1-0.1v1.3
				c-0.3,0.1-0.9,0.2-1.2,0.2C295.6,643.6,294.9,642.3,294.9,640.8z"/>
			<path d="M306.1,643.7c-2.9,0-3.9-2-4.1-3.2l1.5-0.3c0.2,1,1,2.1,2.6,2.1c1.2,0,2.2-0.6,2.2-1.8c0-1.3-1.4-1.6-2.5-1.8
				c-1.8-0.3-3.6-0.9-3.6-3c0-2,1.8-3.2,3.6-3.2c2.8,0,3.8,1.9,3.9,2.9l-1.4,0.3c-0.2-0.7-0.8-1.9-2.5-1.9c-1.2,0-2,0.8-2,1.7
				c0,1.4,1.5,1.6,2.6,1.7c1.8,0.2,3.5,1.2,3.5,3.1C309.9,642.5,308.2,643.7,306.1,643.7z"/>
		</g>
	</g>
	<g class="st5">
		
			<pattern  id="SVGID_5_" xlink:href="#Unnamed_Pattern_4" patternTransform="matrix(0 1.4423 -1.3846 0 -28144.0859 3377.5986)"  class="st5">
		</pattern>
		<polygon class="st11" points="999.9,537.5 965.5,537.5 965.5,578.6 999.9,578.6 1157.1,578.6 1157.1,537.5 		"/>
	</g>
	<g class="st12">
		<polygon points="932.5,537.5 917.5,537.5 915.2,537.5 914.6,537.5 914.6,578.6 915.2,578.6 917.5,578.6 932.5,578.6 965.5,578.6 
			965.5,537.5 		"/>
	</g>
	<g class="st5">
		
			<pattern  id="SVGID_6_" xlink:href="#Unnamed_Pattern_4" patternTransform="matrix(0 1.4423 -1.3846 0 -28144.0859 3377.5986)"  class="st5">
		</pattern>
		<rect x="994.6" y="696.2" class="st13" width="162.4" height="41.1"/>
	</g>
	<g class="st12">
		<polygon points="985.4,696.2 938,696.2 917.5,696.2 915.6,696.2 914.6,696.2 914.6,737.3 915.6,737.3 917.5,737.3 938,737.3 
			985.4,737.3 994.6,737.3 994.6,696.2 		"/>
	</g>
	<g class="st5">
		
			<pattern  id="SVGID_7_" xlink:href="#Unnamed_Pattern_4" patternTransform="matrix(0 1.4423 -1.3846 0 -28144.0859 3377.5986)"  class="st5">
		</pattern>
		<polygon class="st14" points="975.2,616.8 975.2,657.9 985.4,657.9 1157.1,657.9 1157.1,616.8 985.4,616.8 		"/>
	</g>
	<g class="st12">
		<polygon points="932.3,616.8 917.5,616.8 915.4,616.8 914.6,616.8 914.6,657.9 915.4,657.9 917.5,657.9 932.3,657.9 975.2,657.9 
			975.2,616.8 		"/>
	</g>
	<g>
		<g>
			<path d="M62,722.9v-14.3h-5.3v-1.6H69v1.6h-5.3v14.3H62z"/>
			<path d="M70.9,718c0.1,2.1,1.8,3.7,3.9,3.7c1.6,0,2.8-0.8,3.3-2.3l1.4,0.4c-0.6,2.1-2.6,3.3-4.7,3.3c-3.1,0-5.5-2.5-5.5-5.6
				c0-2.9,2.2-5.6,5.3-5.6c3.3,0,5.1,2.4,5.1,5.5c0,0.2,0,0.4,0,0.5H70.9z M78.1,716.6c-0.2-2-1.4-3.4-3.5-3.4
				c-1.9,0-3.4,1.6-3.6,3.4H78.1z"/>
			<path d="M88.1,721.7c2.4,0,3.3-1.8,3.6-2.6l1.5,0.5c-0.5,1.6-2.3,3.5-5.1,3.5c-3.1,0-5.5-2.3-5.5-5.5c0-3.3,2.5-5.6,5.6-5.6
				c2.5,0,4.5,1.6,5,3.4l-1.5,0.5c-0.2-0.8-1.3-2.5-3.6-2.5c-2.3,0-3.9,1.9-3.9,4.1C84.2,719.7,85.7,721.7,88.1,721.7z"/>
			<path d="M104.6,716.6c0-1.9-1-3.3-3-3.3c-1.9,0-3.2,1.5-3.2,3.4v6.1h-1.6v-16.4h1.6v7.6c0.8-1.4,2.1-2.1,3.7-2.1
				c2.6,0,4.1,1.8,4.1,4.3v6.7h-1.6V716.6z"/>
			<path d="M118.4,716.6c0-1.9-1-3.3-3-3.3c-1.9,0-3.2,1.5-3.2,3.4v6.1h-1.6v-10.8h1.6v2c0.8-1.5,2.1-2.2,3.7-2.2
				c2.6,0,4.1,1.8,4.1,4.3v6.7h-1.6V716.6z"/>
			<path d="M123.6,717.5c0-3.2,2.4-5.6,5.6-5.6c3.1,0,5.6,2.4,5.6,5.5c0,3.2-2.4,5.6-5.6,5.6C126,723.1,123.6,720.6,123.6,717.5z
				 M133.1,717.5c0-2.3-1.6-4.2-4-4.2c-2.3,0-3.9,1.9-3.9,4.2c0,2.3,1.6,4.2,4,4.2C131.5,721.7,133.1,719.8,133.1,717.5z"/>
			<path d="M140.1,706.4v16.5h-1.6v-16.5H140.1z"/>
			<path d="M143.9,717.5c0-3.2,2.4-5.6,5.6-5.6c3.1,0,5.6,2.4,5.6,5.5c0,3.2-2.4,5.6-5.6,5.6C146.3,723.1,143.9,720.6,143.9,717.5z
				 M153.4,717.5c0-2.3-1.6-4.2-4-4.2c-2.3,0-3.9,1.9-3.9,4.2c0,2.3,1.6,4.2,4,4.2C151.8,721.7,153.4,719.8,153.4,717.5z"/>
			<path d="M167.3,720.5c-0.8,1.4-2.1,2.4-4.2,2.4c-3.1,0-5.1-2.5-5.1-5.5c0-2.8,2-5.5,5.1-5.5c2.1,0,3.4,1.2,4.2,2.4v-2.3h1.6v10.8
				c0,3.5-2.1,5.4-5.4,5.4c-2.8,0-4.8-1.4-5.4-3.7l1.5-0.5c0.3,1.3,1.4,2.8,3.9,2.8c2.1,0,3.9-1.1,3.9-3.9V720.5z M167.3,717.4
				c0-2.1-1.6-4.1-3.9-4.1c-2.4,0-3.8,1.8-3.8,4.2c0,2.2,1.4,4.1,3.8,4.1C165.7,721.5,167.3,719.6,167.3,717.4z"/>
			<path d="M176.9,722.1l-4.9-10.1h1.8l4,8.3l3.7-8.3h1.7l-7.4,16.1h-1.7L176.9,722.1z"/>
			<path d="M197.4,721.7c2.4,0,3.3-1.8,3.6-2.6l1.5,0.5c-0.5,1.6-2.3,3.5-5.1,3.5c-3.1,0-5.5-2.3-5.5-5.5c0-3.3,2.5-5.6,5.6-5.6
				c2.5,0,4.5,1.6,5,3.4l-1.5,0.5c-0.2-0.8-1.3-2.5-3.6-2.5c-2.3,0-3.9,1.9-3.9,4.1C193.5,719.7,194.9,721.7,197.4,721.7z"/>
			<path d="M205.3,717.5c0-3.2,2.4-5.6,5.6-5.6c3.1,0,5.6,2.4,5.6,5.5c0,3.2-2.4,5.6-5.6,5.6C207.7,723.1,205.3,720.6,205.3,717.5z
				 M214.8,717.5c0-2.3-1.6-4.2-4-4.2c-2.3,0-3.9,1.9-3.9,4.2c0,2.3,1.6,4.2,4,4.2C213.2,721.7,214.8,719.8,214.8,717.5z"/>
			<path d="M228,716.6c0-1.9-1-3.3-3-3.3c-1.9,0-3.2,1.5-3.2,3.4v6.1h-1.6v-10.8h1.6v2c0.8-1.5,2.1-2.2,3.7-2.2
				c2.6,0,4.1,1.8,4.1,4.3v6.7H228V716.6z"/>
			<path d="M237.3,723.1c-2.9,0-3.9-2-4.1-3.2l1.5-0.3c0.2,1,1,2.1,2.6,2.1c1.2,0,2.2-0.6,2.2-1.8c0-1.3-1.4-1.6-2.5-1.8
				c-1.8-0.3-3.6-0.9-3.6-3c0-2,1.8-3.2,3.6-3.2c2.8,0,3.8,1.9,3.9,2.9l-1.4,0.3c-0.2-0.7-0.8-1.9-2.5-1.9c-1.2,0-2,0.8-2,1.7
				c0,1.4,1.5,1.6,2.6,1.7c1.8,0.2,3.5,1.2,3.5,3.1C241.1,721.8,239.3,723.1,237.3,723.1z"/>
			<path d="M245.5,720.1v-6.6h-2v-1.4h2V709h1.6v3.1h2.7v1.4H247v6.6c0,1,0.6,1.5,1.8,1.5c0.3,0,0.7,0,1-0.1v1.3
				c-0.3,0.1-0.9,0.2-1.2,0.2C246.2,723,245.5,721.7,245.5,720.1z"/>
			<path d="M255,714.2c0.8-1.7,2.2-2.3,3.5-2.3c0.1,0,0.4,0,0.5,0v1.7c-0.2,0-0.4,0-0.6,0c-2.5,0-3.4,2.1-3.4,4v5.3h-1.6v-10.8h1.6
				V714.2z"/>
			<path d="M268.4,715.9c0-1.7-0.9-2.6-2.7-2.6c-1.8,0-2.6,1.2-2.8,2.2l-1.5-0.3c0.1-0.9,1.3-3.3,4.4-3.3c2.3,0,3.4,1,3.9,2.2
				c0.2,0.6,0.3,1.4,0.3,1.8v7h-1.5V721h0c-0.8,1.3-2,2.1-3.6,2.1c-2.2,0-3.6-1.4-3.6-3.2v-0.1c0-2.3,2.3-3.1,4.3-3.1h3V715.9z
				 M265.3,717.9c-1.2,0-2.7,0.4-2.7,1.8c0,1.2,1,1.9,2.3,1.9c1.9,0,3.4-1.4,3.4-3.3v-0.4H265.3z"/>
			<path d="M275.1,707c0.7,0,1.2,0.5,1.2,1.2c0,0.6-0.5,1.2-1.2,1.2c-0.6,0-1.2-0.5-1.2-1.2C273.9,707.6,274.5,707,275.1,707z
				 M275.9,712.1v10.8h-1.6v-10.8H275.9z"/>
			<path d="M288.3,716.6c0-1.9-1-3.3-3-3.3c-1.9,0-3.2,1.5-3.2,3.4v6.1h-1.6v-10.8h1.6v2c0.8-1.5,2.1-2.2,3.7-2.2
				c2.6,0,4.1,1.8,4.1,4.3v6.7h-1.6V716.6z"/>
			<path d="M294.9,720.1v-6.6h-2v-1.4h2V709h1.6v3.1h2.7v1.4h-2.7v6.6c0,1,0.6,1.5,1.8,1.5c0.3,0,0.7,0,1-0.1v1.3
				c-0.3,0.1-0.9,0.2-1.2,0.2C295.6,723,294.9,721.7,294.9,720.1z"/>
			<path d="M306.1,723.1c-2.9,0-3.9-2-4.1-3.2l1.5-0.3c0.2,1,1,2.1,2.6,2.1c1.2,0,2.2-0.6,2.2-1.8c0-1.3-1.4-1.6-2.5-1.8
				c-1.8-0.3-3.6-0.9-3.6-3c0-2,1.8-3.2,3.6-3.2c2.8,0,3.8,1.9,3.9,2.9l-1.4,0.3c-0.2-0.7-0.8-1.9-2.5-1.9c-1.2,0-2,0.8-2,1.7
				c0,1.4,1.5,1.6,2.6,1.7c1.8,0.2,3.5,1.2,3.5,3.1C309.9,721.8,308.2,723.1,306.1,723.1z"/>
		</g>
	</g>
	<g>
		<polygon class="st15" points="671.6,537.5 628.1,537.5 628.1,578.6 671.6,578.6 683.9,578.6 683.9,537.5 		"/>
	</g>
	<g class="st5">
		
			<pattern  id="SVGID_8_" xlink:href="#Unnamed_Pattern_4" patternTransform="matrix(0 1.4423 -1.3846 0 -28144.0859 3377.5986)"  class="st5">
		</pattern>
		<polygon class="st16" points="628.1,616.8 628.1,657.9 826.9,657.9 870.6,657.9 870.6,616.8 826.9,616.8 		"/>
	</g>
	<g>
		<polygon class="st15" points="628.1,616.8 628.1,657.9 693.7,657.9 708.1,657.9 708.1,616.8 693.7,616.8 		"/>
	</g>
	<g class="st5">
		
			<pattern  id="SVGID_9_" xlink:href="#Unnamed_Pattern_4" patternTransform="matrix(0 1.4423 -1.3846 0 -28144.0859 3377.5986)"  class="st5">
		</pattern>
		<polygon class="st17" points="628.1,696.2 628.1,737.3 637.8,737.3 870.6,737.3 870.6,696.2 637.8,696.2 		"/>
	</g>
	<g>
		<polygon class="st15" points="628.1,696.2 628.1,737.3 629.1,737.3 652.4,737.3 652.4,696.2 629.1,696.2 		"/>
	</g>
	<g class="st5">
		
			<pattern  id="SVGID_10_" xlink:href="#Unnamed_Pattern_4" patternTransform="matrix(0 1.4423 -1.3846 0 -28144.0859 3377.5986)"  class="st5">
		</pattern>
		<polygon class="st18" points="1239.9,696.2 1201.1,696.2 1201.1,737.3 1239.9,737.3 1443.6,737.3 1443.6,696.2 		"/>
	</g>
	<g>
		<polygon class="st4" points="1213.9,696.2 1201.1,696.2 1201.1,737.3 1213.9,737.3 1281.1,737.3 1281.1,696.2 		"/>
	</g>
	<g class="st5">
		
			<pattern  id="SVGID_11_" xlink:href="#Unnamed_Pattern_4" patternTransform="matrix(0 1.4423 -1.3846 0 -28144.0859 3377.5986)"  class="st5">
		</pattern>
		<polygon class="st19" points="1220.5,537.5 1201.1,537.5 1201.1,578.6 1220.5,578.6 1443.6,578.6 1443.6,537.5 		"/>
	</g>
	<g>
		<polygon class="st4" points="1205.2,537.5 1201.1,537.5 1201.1,578.6 1205.2,578.6 1252,578.6 1252,537.5 		"/>
	</g>
	<g class="st5">
		
			<pattern  id="SVGID_12_" xlink:href="#Unnamed_Pattern_4" patternTransform="matrix(0 1.4423 -1.3846 0 -28144.0859 3377.5986)"  class="st5">
		</pattern>
		<polygon class="st20" points="1201.1,616.8 1201.1,657.9 1249.6,657.9 1443.6,657.9 1443.6,616.8 1249.6,616.8 		"/>
	</g>
	<g>
		<polygon class="st4" points="1201.1,616.8 1201.1,657.9 1219.6,657.9 1293.3,657.9 1293.3,616.8 1219.6,616.8 		"/>
	</g>
	<g>
		<g>
			<path class="st21" d="M406.9,564.8c0-2.1,1-4.4,4.2-6.3l2.7-1.7c1.7-1.1,3.2-2.2,3.2-4.3c0-1.8-1.6-3.6-4-3.6
				c-2,0-3.2,1.2-3.7,2.3c-0.3,0.8-0.3,1.5-0.4,1.8l-1.9-0.3c0-2.6,2.2-5.6,6-5.6c3.3,0,5.9,2.5,5.9,5.3c0,2.6-1.4,4.1-3.8,5.6
				l-2.8,1.8c-1.5,1-3,2.2-3.1,3.9h9.9v1.8h-12.2V564.8z"/>
			<path class="st21" d="M421.7,564.8c0-2.1,1-4.4,4.2-6.3l2.7-1.7c1.7-1.1,3.2-2.2,3.2-4.3c0-1.8-1.6-3.6-4-3.6
				c-2,0-3.2,1.2-3.7,2.3c-0.3,0.8-0.3,1.5-0.4,1.8l-1.9-0.3c0-2.6,2.2-5.6,6-5.6c3.3,0,5.9,2.5,5.9,5.3c0,2.6-1.4,4.1-3.8,5.6
				l-2.8,1.8c-1.5,1-3,2.2-3.1,3.9h9.9v1.8h-12.2V564.8z"/>
			<path class="st21" d="M438.1,558.5c-1.3,0-2.4-1.1-2.4-2.4c0-1.3,1.1-2.4,2.4-2.4c1.3,0,2.4,1.1,2.4,2.4
				C440.5,557.4,439.4,558.5,438.1,558.5z M438.1,554.6c-0.8,0-1.5,0.7-1.5,1.5c0,0.8,0.7,1.5,1.5,1.5s1.5-0.7,1.5-1.5
				C439.6,555.3,438.9,554.6,438.1,554.6z M443.9,553.8h1.1l-6.9,10.5H437L443.9,553.8z M443.9,564.4c-1.3,0-2.4-1.1-2.4-2.4
				c0-1.3,1.1-2.4,2.4-2.4s2.4,1.1,2.4,2.4C446.3,563.4,445.2,564.4,443.9,564.4z M443.9,560.6c-0.8,0-1.5,0.7-1.5,1.5
				c0,0.8,0.7,1.5,1.5,1.5s1.5-0.7,1.5-1.5C445.4,561.2,444.7,560.6,443.9,560.6z"/>
		</g>
	</g>
	<g>
		<g>
			<path class="st21" d="M442.2,644.8c-3.2,0-5.9-1.9-6.2-4.9l1.8-0.4c0.3,2.1,1.9,3.6,4.4,3.6c2.4,0,4.4-1.3,4.4-3.4
				s-1.5-3.3-4.4-3.3h-1.8v-1.8h1.8c2.5,0,4-1.5,4-3.3c0-1.8-1.4-3.2-4-3.2c-2.5,0-3.9,1.5-4.2,3.4l-1.8-0.4c0.3-2.5,2.7-4.7,6-4.7
				c3.9,0,5.9,2.4,5.9,4.8c0,2.1-1.2,3.4-2.9,4.2v0c2.1,0.6,3.3,2.2,3.3,4.3C448.4,642.5,445.9,644.8,442.2,644.8z"/>
			<path class="st21" d="M459.9,644.7v-4.3h-9.4v-2.1l8.9-11.7h2.4v12.1h3v1.6h-3v4.3H459.9z M459.9,638.7v-10.1l-7.7,10.1H459.9z"
				/>
			<path class="st21" d="M468.4,637.8c-1.3,0-2.4-1.1-2.4-2.4c0-1.3,1.1-2.4,2.4-2.4c1.3,0,2.4,1.1,2.4,2.4
				C470.8,636.7,469.7,637.8,468.4,637.8z M468.4,633.9c-0.8,0-1.5,0.7-1.5,1.5c0,0.8,0.7,1.5,1.5,1.5s1.5-0.7,1.5-1.5
				C469.9,634.6,469.2,633.9,468.4,633.9z M474.2,633.2h1.1l-6.9,10.5h-1.1L474.2,633.2z M474.2,643.8c-1.3,0-2.4-1.1-2.4-2.4
				c0-1.3,1.1-2.4,2.4-2.4c1.3,0,2.4,1.1,2.4,2.4C476.6,642.7,475.5,643.8,474.2,643.8z M474.2,639.9c-0.8,0-1.5,0.7-1.5,1.5
				c0,0.8,0.7,1.5,1.5,1.5c0.8,0,1.5-0.7,1.5-1.5C475.7,640.6,475,639.9,474.2,639.9z"/>
		</g>
	</g>
	<g>
		<g>
			<path class="st15" d="M695.9,564.8c0-2.1,1-4.4,4.2-6.3l2.7-1.7c1.7-1.1,3.2-2.2,3.2-4.3c0-1.8-1.6-3.6-4-3.6
				c-2,0-3.2,1.2-3.7,2.3c-0.3,0.8-0.3,1.5-0.4,1.8l-1.9-0.3c0-2.6,2.2-5.6,6-5.6c3.3,0,5.9,2.5,5.9,5.3c0,2.6-1.4,4.1-3.8,5.6
				l-2.8,1.8c-1.5,1-3,2.2-3.1,3.9h9.9v1.8h-12.2V564.8z"/>
			<path class="st15" d="M716.8,565.5c-3.2,0-5.9-1.9-6.2-4.9l1.8-0.4c0.3,2.1,1.9,3.6,4.4,3.6c2.4,0,4.4-1.3,4.4-3.4
				c0-2.1-1.5-3.3-4.4-3.3H715v-1.8h1.8c2.5,0,4-1.5,4-3.3c0-1.8-1.4-3.2-4-3.2c-2.5,0-3.9,1.5-4.2,3.4l-1.8-0.4
				c0.3-2.5,2.7-4.7,6-4.7c3.9,0,5.9,2.4,5.9,4.8c0,2.1-1.2,3.4-2.9,4.2v0c2.1,0.6,3.3,2.2,3.3,4.3
				C723,563.1,720.6,565.5,716.8,565.5z"/>
			<path class="st15" d="M727.3,558.5c-1.3,0-2.4-1.1-2.4-2.4c0-1.3,1.1-2.4,2.4-2.4c1.3,0,2.4,1.1,2.4,2.4
				C729.6,557.4,728.6,558.5,727.3,558.5z M727.3,554.6c-0.8,0-1.5,0.7-1.5,1.5c0,0.8,0.7,1.5,1.5,1.5s1.5-0.7,1.5-1.5
				C728.8,555.3,728.1,554.6,727.3,554.6z M733.1,553.8h1.1l-6.9,10.5h-1.1L733.1,553.8z M733.1,564.4c-1.3,0-2.4-1.1-2.4-2.4
				c0-1.3,1.1-2.4,2.4-2.4s2.4,1.1,2.4,2.4C735.5,563.4,734.4,564.4,733.1,564.4z M733.1,560.6c-0.8,0-1.5,0.7-1.5,1.5
				c0,0.8,0.7,1.5,1.5,1.5s1.5-0.7,1.5-1.5C734.6,561.2,733.9,560.6,733.1,560.6z"/>
		</g>
	</g>
	<g>
		<g>
			<path class="st15" d="M725.6,644.8c-3.2,0-5.9-1.9-6.2-4.9l1.8-0.4c0.3,2.1,1.9,3.6,4.4,3.6c2.4,0,4.4-1.3,4.4-3.4
				s-1.5-3.3-4.4-3.3h-1.8v-1.8h1.8c2.5,0,4-1.5,4-3.3c0-1.8-1.4-3.2-4-3.2c-2.5,0-3.9,1.5-4.2,3.4l-1.8-0.4c0.3-2.5,2.7-4.7,6-4.7
				c3.9,0,5.9,2.4,5.9,4.8c0,2.1-1.2,3.4-2.9,4.2v0c2.1,0.6,3.3,2.2,3.3,4.3C731.9,642.5,729.4,644.8,725.6,644.8z"/>
			<path class="st15" d="M740.6,644.8c-3.2,0-5.9-1.9-6.2-4.9l1.8-0.4c0.3,2.1,1.9,3.6,4.4,3.6c2.4,0,4.4-1.3,4.4-3.4
				s-1.5-3.3-4.4-3.3h-1.8v-1.8h1.8c2.5,0,4-1.5,4-3.3c0-1.8-1.4-3.2-4-3.2c-2.5,0-3.9,1.5-4.2,3.4l-1.8-0.4c0.3-2.5,2.7-4.7,6-4.7
				c3.9,0,5.9,2.4,5.9,4.8c0,2.1-1.2,3.4-2.9,4.2v0c2.1,0.6,3.3,2.2,3.3,4.3C746.8,642.5,744.3,644.8,740.6,644.8z"/>
			<path class="st15" d="M751.1,637.8c-1.3,0-2.4-1.1-2.4-2.4c0-1.3,1.1-2.4,2.4-2.4c1.3,0,2.4,1.1,2.4,2.4
				C753.4,636.7,752.4,637.8,751.1,637.8z M751.1,633.9c-0.8,0-1.5,0.7-1.5,1.5c0,0.8,0.7,1.5,1.5,1.5c0.8,0,1.5-0.7,1.5-1.5
				C752.6,634.6,751.9,633.9,751.1,633.9z M756.9,633.2h1.1l-6.9,10.5H750L756.9,633.2z M756.9,643.8c-1.3,0-2.4-1.1-2.4-2.4
				c0-1.3,1.1-2.4,2.4-2.4c1.3,0,2.4,1.1,2.4,2.4C759.3,642.7,758.2,643.8,756.9,643.8z M756.9,639.9c-0.8,0-1.5,0.7-1.5,1.5
				c0,0.8,0.7,1.5,1.5,1.5c0.8,0,1.5-0.7,1.5-1.5C758.4,640.6,757.7,639.9,756.9,639.9z"/>
		</g>
	</g>
	<g>
		<g>
			<path class="st15" d="M670.5,707.9l-4.3,2.6l-0.9-1.4l5.2-3.2h1.8V724h-1.9V707.9z"/>
			<path class="st15" d="M676.3,715c0-4.5,2.6-9.3,7.6-9.3c5,0,7.5,4.7,7.5,9.2c0,4.5-2.5,9.3-7.5,9.3
				C678.8,724.2,676.3,719.5,676.3,715z M678.2,714.9c0,3.3,1.6,7.5,5.6,7.5c3.9,0,5.6-4.2,5.6-7.4c0-3.2-1.7-7.5-5.6-7.5
				C679.9,707.5,678.2,711.7,678.2,714.9z"/>
			<path class="st15" d="M695.5,717.1c-1.3,0-2.4-1.1-2.4-2.4c0-1.3,1.1-2.4,2.4-2.4c1.3,0,2.4,1.1,2.4,2.4
				C697.9,716.1,696.8,717.1,695.5,717.1z M695.5,713.3c-0.8,0-1.5,0.7-1.5,1.5c0,0.8,0.7,1.5,1.5,1.5s1.5-0.7,1.5-1.5
				C697,713.9,696.3,713.3,695.5,713.3z M701.3,712.5h1.1l-6.9,10.5h-1.1L701.3,712.5z M701.4,723.1c-1.3,0-2.4-1.1-2.4-2.4
				c0-1.3,1.1-2.4,2.4-2.4s2.4,1.1,2.4,2.4C703.7,722,702.7,723.1,701.4,723.1z M701.4,719.2c-0.8,0-1.5,0.7-1.5,1.5
				c0,0.8,0.7,1.5,1.5,1.5s1.5-0.7,1.5-1.5C702.9,719.9,702.2,719.2,701.4,719.2z"/>
		</g>
	</g>
	<g>
		<g>
			<path class="st21" d="M412.1,723.4c0-2.1,1-4.4,4.2-6.3l2.7-1.7c1.7-1.1,3.2-2.2,3.2-4.3c0-1.8-1.6-3.6-4-3.6
				c-2,0-3.2,1.2-3.7,2.3c-0.3,0.8-0.3,1.5-0.4,1.8l-1.9-0.3c0-2.6,2.2-5.6,6-5.6c3.3,0,5.9,2.5,5.9,5.3c0,2.6-1.4,4.1-3.8,5.6
				l-2.8,1.8c-1.5,1-3,2.2-3.1,3.9h9.9v1.8h-12.2V723.4z"/>
			<path class="st21" d="M435.3,724v-4.3h-9.4v-2.1l8.9-11.7h2.4V718h3v1.6h-3v4.3H435.3z M435.3,718v-10.1l-7.7,10.1H435.3z"/>
			<path class="st21" d="M443.9,717.1c-1.3,0-2.4-1.1-2.4-2.4c0-1.3,1.1-2.4,2.4-2.4c1.3,0,2.4,1.1,2.4,2.4
				C446.2,716.1,445.2,717.1,443.9,717.1z M443.9,713.3c-0.8,0-1.5,0.7-1.5,1.5c0,0.8,0.7,1.5,1.5,1.5s1.5-0.7,1.5-1.5
				C445.3,713.9,444.7,713.3,443.9,713.3z M449.7,712.5h1.1l-6.9,10.5h-1.1L449.7,712.5z M449.7,723.1c-1.3,0-2.4-1.1-2.4-2.4
				c0-1.3,1.1-2.4,2.4-2.4s2.4,1.1,2.4,2.4C452.1,722,451,723.1,449.7,723.1z M449.7,719.2c-0.8,0-1.5,0.7-1.5,1.5
				c0,0.8,0.7,1.5,1.5,1.5s1.5-0.7,1.5-1.5C451.2,719.9,450.5,719.2,449.7,719.2z"/>
		</g>
	</g>
	<g>
		<g>
			<path d="M977.1,564.8c0-2.1,1-4.4,4.2-6.3l2.7-1.7c1.7-1.1,3.2-2.2,3.2-4.3c0-1.8-1.6-3.6-4-3.6c-2,0-3.2,1.2-3.7,2.3
				c-0.3,0.8-0.3,1.5-0.4,1.8l-1.9-0.3c0-2.6,2.2-5.6,6-5.6c3.3,0,5.9,2.5,5.9,5.3c0,2.6-1.4,4.1-3.8,5.6l-2.8,1.8
				c-1.5,1-3,2.2-3.1,3.9h9.9v1.8h-12.2V564.8z"/>
			<path d="M996.2,549.3l-4.3,2.6l-0.9-1.4l5.2-3.2h1.8v18.1h-1.9V549.3z"/>
			<path d="M1003.5,558.5c-1.3,0-2.4-1.1-2.4-2.4c0-1.3,1.1-2.4,2.4-2.4c1.3,0,2.4,1.1,2.4,2.4
				C1005.8,557.4,1004.8,558.5,1003.5,558.5z M1003.5,554.6c-0.8,0-1.5,0.7-1.5,1.5c0,0.8,0.7,1.5,1.5,1.5c0.8,0,1.5-0.7,1.5-1.5
				C1005,555.3,1004.3,554.6,1003.5,554.6z M1009.3,553.8h1.1l-6.9,10.5h-1.1L1009.3,553.8z M1009.3,564.4c-1.3,0-2.4-1.1-2.4-2.4
				c0-1.3,1.1-2.4,2.4-2.4c1.3,0,2.4,1.1,2.4,2.4C1011.7,563.4,1010.6,564.4,1009.3,564.4z M1009.3,560.6c-0.8,0-1.5,0.7-1.5,1.5
				c0,0.8,0.7,1.5,1.5,1.5c0.8,0,1.5-0.7,1.5-1.5C1010.8,561.2,1010.1,560.6,1009.3,560.6z"/>
		</g>
	</g>
	<g>
		<g>
			<path d="M988.3,644.1c0-2.1,1-4.4,4.2-6.3l2.7-1.7c1.7-1.1,3.2-2.2,3.2-4.3c0-1.8-1.6-3.6-4-3.6c-2,0-3.2,1.2-3.7,2.3
				c-0.3,0.8-0.3,1.5-0.4,1.8l-1.9-0.3c0-2.6,2.2-5.6,6-5.6c3.3,0,5.9,2.5,5.9,5.3c0,2.6-1.4,4.1-3.8,5.6l-2.8,1.8
				c-1.5,1-3,2.2-3.1,3.9h9.9v1.8h-12.2V644.1z"/>
			<path d="M1006.4,628.4l-1,6.1c1.1-1.1,3.1-1.4,3.9-1.4c3.4,0,5.9,2.2,5.9,5.8c0,3.9-3.2,5.9-6.3,5.9c-3,0-5.8-1.9-6.2-4.9
				l1.8-0.4c0.3,2.1,2.1,3.6,4.4,3.6c1.8,0,4.4-1.2,4.4-4.1s-2.2-4.2-4.4-4.2c-1.3,0-2.9,0.7-3.8,1.8l-1.8-0.7l1.5-9.3h9.5v1.8
				H1006.4z"/>
			<path d="M1019.3,637.8c-1.3,0-2.4-1.1-2.4-2.4c0-1.3,1.1-2.4,2.4-2.4c1.3,0,2.4,1.1,2.4,2.4
				C1021.7,636.7,1020.6,637.8,1019.3,637.8z M1019.3,633.9c-0.8,0-1.5,0.7-1.5,1.5c0,0.8,0.7,1.5,1.5,1.5c0.8,0,1.5-0.7,1.5-1.5
				C1020.8,634.6,1020.1,633.9,1019.3,633.9z M1025.1,633.2h1.1l-6.9,10.5h-1.1L1025.1,633.2z M1025.2,643.8c-1.3,0-2.4-1.1-2.4-2.4
				c0-1.3,1.1-2.4,2.4-2.4c1.3,0,2.4,1.1,2.4,2.4C1027.5,642.7,1026.5,643.8,1025.2,643.8z M1025.2,639.9c-0.8,0-1.5,0.7-1.5,1.5
				c0,0.8,0.7,1.5,1.5,1.5c0.8,0,1.5-0.7,1.5-1.5C1026.7,640.6,1026,639.9,1025.2,639.9z"/>
		</g>
	</g>
	<g>
		<g>
			<path class="st4" d="M1262,564.8c0-2.1,1-4.4,4.2-6.3l2.7-1.7c1.7-1.1,3.2-2.2,3.2-4.3c0-1.8-1.6-3.6-4-3.6c-2,0-3.2,1.2-3.7,2.3
				c-0.3,0.8-0.3,1.5-0.4,1.8l-1.9-0.3c0-2.6,2.2-5.6,6-5.6c3.3,0,5.9,2.5,5.9,5.3c0,2.6-1.4,4.1-3.8,5.6l-2.8,1.8
				c-1.5,1-3,2.2-3.1,3.9h9.9v1.8H1262V564.8z"/>
			<path class="st4" d="M1281,549.3l-4.3,2.6l-0.9-1.4l5.2-3.2h1.8v18.1h-1.9V549.3z"/>
			<path class="st4" d="M1288.3,558.5c-1.3,0-2.4-1.1-2.4-2.4c0-1.3,1.1-2.4,2.4-2.4c1.3,0,2.4,1.1,2.4,2.4
				C1290.7,557.4,1289.6,558.5,1288.3,558.5z M1288.3,554.6c-0.8,0-1.5,0.7-1.5,1.5c0,0.8,0.7,1.5,1.5,1.5c0.8,0,1.5-0.7,1.5-1.5
				C1289.8,555.3,1289.1,554.6,1288.3,554.6z M1294.1,553.8h1.1l-6.9,10.5h-1.1L1294.1,553.8z M1294.2,564.4c-1.3,0-2.4-1.1-2.4-2.4
				c0-1.3,1.1-2.4,2.4-2.4c1.3,0,2.4,1.1,2.4,2.4C1296.5,563.4,1295.5,564.4,1294.2,564.4z M1294.2,560.6c-0.8,0-1.5,0.7-1.5,1.5
				c0,0.8,0.7,1.5,1.5,1.5c0.8,0,1.5-0.7,1.5-1.5C1295.6,561.2,1295,560.6,1294.2,560.6z"/>
		</g>
	</g>
	<g>
		<g>
			<path class="st4" d="M1310.7,644.8c-3.2,0-5.9-1.9-6.2-4.9l1.8-0.4c0.3,2.1,1.9,3.6,4.4,3.6c2.4,0,4.4-1.3,4.4-3.4
				s-1.5-3.3-4.4-3.3h-1.8v-1.8h1.8c2.5,0,4-1.5,4-3.3c0-1.8-1.4-3.2-4-3.2c-2.5,0-3.9,1.5-4.2,3.4l-1.8-0.4c0.3-2.5,2.7-4.7,6-4.7
				c3.9,0,5.9,2.4,5.9,4.8c0,2.1-1.2,3.4-2.9,4.2v0c2.1,0.6,3.3,2.2,3.3,4.3C1316.9,642.5,1314.4,644.8,1310.7,644.8z"/>
			<path class="st4" d="M1319.7,639.7c0-1.9,1.3-3.6,3.8-4.4c-2.2-0.6-3.3-2.6-3.3-4.1c0-3.1,3.3-4.8,5.9-4.8c2.7,0,5.9,1.6,5.9,4.8
				c0,1.7-1.2,3.5-3.4,4.1c2.5,0.7,3.8,2.5,3.8,4.4c0,3.3-3.2,5.1-6.3,5.1C1322.9,644.8,1319.7,643.2,1319.7,639.7z M1330.4,639.7
				c0-2.4-2.5-3.5-4.4-3.5c-1.9,0-4.4,1.1-4.4,3.5c0,2.4,2.5,3.5,4.4,3.5C1327.9,643.1,1330.4,642.1,1330.4,639.7z M1322,631.3
				c0,2.3,2.5,3.3,4,3.3s4.1-1.1,4.1-3.3c0-2.1-2.3-3.2-4.1-3.2C1324.3,628.1,1322,629.2,1322,631.3z"/>
			<path class="st4" d="M1336.6,637.8c-1.3,0-2.4-1.1-2.4-2.4c0-1.3,1.1-2.4,2.4-2.4c1.3,0,2.4,1.1,2.4,2.4
				C1339,636.7,1337.9,637.8,1336.6,637.8z M1336.6,633.9c-0.8,0-1.5,0.7-1.5,1.5c0,0.8,0.7,1.5,1.5,1.5c0.8,0,1.5-0.7,1.5-1.5
				C1338.1,634.6,1337.4,633.9,1336.6,633.9z M1342.4,633.2h1.1l-6.9,10.5h-1.1L1342.4,633.2z M1342.5,643.8c-1.3,0-2.4-1.1-2.4-2.4
				c0-1.3,1.1-2.4,2.4-2.4c1.3,0,2.4,1.1,2.4,2.4C1344.8,642.7,1343.8,643.8,1342.5,643.8z M1342.5,639.9c-0.8,0-1.5,0.7-1.5,1.5
				c0,0.8,0.7,1.5,1.5,1.5c0.8,0,1.5-0.7,1.5-1.5C1344,640.6,1343.3,639.9,1342.5,639.9z"/>
		</g>
	</g>
	<g>
		<g>
			<path class="st4" d="M1298.9,724.1c-3.2,0-5.9-1.9-6.2-4.9l1.8-0.4c0.3,2.1,1.9,3.6,4.4,3.6c2.4,0,4.4-1.3,4.4-3.4
				c0-2.1-1.5-3.3-4.4-3.3h-1.8v-1.8h1.8c2.5,0,4-1.5,4-3.3c0-1.8-1.4-3.2-4-3.2c-2.5,0-3.9,1.5-4.2,3.4l-1.8-0.4
				c0.3-2.5,2.7-4.7,6-4.7c3.9,0,5.9,2.4,5.9,4.8c0,2.1-1.2,3.4-2.9,4.2v0c2.1,0.6,3.3,2.2,3.3,4.3
				C1305.2,721.8,1302.7,724.1,1298.9,724.1z"/>
			<path class="st4" d="M1313.9,724.1c-3.2,0-5.9-1.9-6.2-4.9l1.8-0.4c0.3,2.1,1.9,3.6,4.4,3.6c2.4,0,4.4-1.3,4.4-3.4
				c0-2.1-1.5-3.3-4.4-3.3h-1.8v-1.8h1.8c2.5,0,4-1.5,4-3.3c0-1.8-1.4-3.2-4-3.2c-2.5,0-3.9,1.5-4.2,3.4l-1.8-0.4
				c0.3-2.5,2.7-4.7,6-4.7c3.9,0,5.9,2.4,5.9,4.8c0,2.1-1.2,3.4-2.9,4.2v0c2.1,0.6,3.3,2.2,3.3,4.3
				C1320.1,721.8,1317.6,724.1,1313.9,724.1z"/>
			<path class="st4" d="M1324.4,717.1c-1.3,0-2.4-1.1-2.4-2.4c0-1.3,1.1-2.4,2.4-2.4c1.3,0,2.4,1.1,2.4,2.4
				C1326.7,716.1,1325.7,717.1,1324.4,717.1z M1324.4,713.3c-0.8,0-1.5,0.7-1.5,1.5c0,0.8,0.7,1.5,1.5,1.5c0.8,0,1.5-0.7,1.5-1.5
				C1325.9,713.9,1325.2,713.3,1324.4,713.3z M1330.2,712.5h1.1l-6.9,10.5h-1.1L1330.2,712.5z M1330.2,723.1c-1.3,0-2.4-1.1-2.4-2.4
				c0-1.3,1.1-2.4,2.4-2.4c1.3,0,2.4,1.1,2.4,2.4C1332.6,722,1331.5,723.1,1330.2,723.1z M1330.2,719.2c-0.8,0-1.5,0.7-1.5,1.5
				c0,0.8,0.7,1.5,1.5,1.5c0.8,0,1.5-0.7,1.5-1.5C1331.7,719.9,1331,719.2,1330.2,719.2z"/>
		</g>
	</g>
	<g>
		<g>
			<path d="M1011.2,724.1c-3.2,0-5.9-1.9-6.2-4.9l1.8-0.4c0.3,2.1,1.9,3.6,4.4,3.6c2.4,0,4.4-1.3,4.4-3.4c0-2.1-1.5-3.3-4.4-3.3
				h-1.8v-1.8h1.8c2.5,0,4-1.5,4-3.3c0-1.8-1.4-3.2-4-3.2c-2.5,0-3.9,1.5-4.2,3.4l-1.8-0.4c0.3-2.5,2.7-4.7,6-4.7
				c3.9,0,5.9,2.4,5.9,4.8c0,2.1-1.2,3.4-2.9,4.2v0c2.1,0.6,3.3,2.2,3.3,4.3C1017.4,721.8,1015,724.1,1011.2,724.1z"/>
			<path d="M1026.1,724.1c-3.2,0-5.9-1.9-6.2-4.9l1.8-0.4c0.3,2.1,1.9,3.6,4.4,3.6c2.4,0,4.4-1.3,4.4-3.4c0-2.1-1.5-3.3-4.4-3.3
				h-1.8v-1.8h1.8c2.5,0,4-1.5,4-3.3c0-1.8-1.4-3.2-4-3.2c-2.5,0-3.9,1.5-4.2,3.4l-1.8-0.4c0.3-2.5,2.7-4.7,6-4.7
				c3.9,0,5.9,2.4,5.9,4.8c0,2.1-1.2,3.4-2.9,4.2v0c2.1,0.6,3.3,2.2,3.3,4.3C1032.4,721.8,1029.9,724.1,1026.1,724.1z"/>
			<path d="M1036.6,717.1c-1.3,0-2.4-1.1-2.4-2.4c0-1.3,1.1-2.4,2.4-2.4c1.3,0,2.4,1.1,2.4,2.4
				C1039,716.1,1037.9,717.1,1036.6,717.1z M1036.6,713.3c-0.8,0-1.5,0.7-1.5,1.5c0,0.8,0.7,1.5,1.5,1.5c0.8,0,1.5-0.7,1.5-1.5
				C1038.1,713.9,1037.4,713.3,1036.6,713.3z M1042.4,712.5h1.1l-6.9,10.5h-1.1L1042.4,712.5z M1042.5,723.1c-1.3,0-2.4-1.1-2.4-2.4
				c0-1.3,1.1-2.4,2.4-2.4c1.3,0,2.4,1.1,2.4,2.4C1044.8,722,1043.8,723.1,1042.5,723.1z M1042.5,719.2c-0.8,0-1.5,0.7-1.5,1.5
				c0,0.8,0.7,1.5,1.5,1.5c0.8,0,1.5-0.7,1.5-1.5C1044,719.9,1043.3,719.2,1042.5,719.2z"/>
		</g>
	</g>
</g>
</svg>
