<?xml version="1.0" encoding="utf-8"?>
<!-- Generator: Adobe Illustrator 21.1.0, SVG Export Plug-In . SVG Version: 6.00 Build 0)  -->
<svg version="1.1" id="Layer_1" xmlns="http://www.w3.org/2000/svg" xmlns:xlink="http://www.w3.org/1999/xlink" x="0px" y="0px"
	 viewBox="0 0 1500 1053" style="enable-background:new 0 0 1500 1053;" xml:space="preserve">
<style type="text/css">
	.st0{fill:none;}
	.st1{fill:none;stroke:#F76C6C;stroke-width:2;stroke-linecap:round;stroke-miterlimit:10;}
	.st2{fill:none;stroke:#F76C6C;stroke-width:2;stroke-linecap:round;stroke-miterlimit:10;stroke-dasharray:0,10;}
	.st3{opacity:0.9;}
	.st4{fill:#F6F6F8;}
	.st5{fill:url(#SVGID_2_);}
	.st6{fill:#F76C6C;}
	.st7{fill:#FFFFFF;}
	.st8{fill:#0000FF;}
	.st9{fill:none;stroke:#F6F6F8;stroke-miterlimit:10;}
</style>
<pattern  y="1053" width="240" height="240" patternUnits="userSpaceOnUse" id="SVGID_1_" viewBox="1 -241 240 240" style="overflow:visible;">
	<g>
		<rect x="1" y="-241" class="st0" width="240" height="240"/>
		<g>
			<rect x="1" y="-241" class="st0" width="240" height="240"/>
			<g>
				<g>
					<line class="st1" x1="241" y1="-241" x2="241" y2="-241"/>
				</g>
			</g>
			<g>
				<g>
					<line class="st1" x1="1" y1="-241" x2="1" y2="-241"/>
					<line class="st2" x1="11" y1="-241" x2="236" y2="-241"/>
					<line class="st1" x1="241" y1="-241" x2="241" y2="-241"/>
				</g>
			</g>
			<g>
				<g>
					<line class="st1" x1="1" y1="-241" x2="1" y2="-241"/>
				</g>
			</g>
			<g>
				<g>
					<line class="st1" x1="241" y1="-1" x2="241" y2="-1"/>
				</g>
				<g>
					<line class="st1" x1="241" y1="-11" x2="241" y2="-11"/>
				</g>
				<g>
					<line class="st1" x1="241" y1="-21" x2="241" y2="-21"/>
				</g>
				<g>
					<line class="st1" x1="241" y1="-31" x2="241" y2="-31"/>
				</g>
				<g>
					<line class="st1" x1="241" y1="-41" x2="241" y2="-41"/>
				</g>
				<g>
					<line class="st1" x1="241" y1="-51" x2="241" y2="-51"/>
				</g>
				<g>
					<line class="st1" x1="241" y1="-61" x2="241" y2="-61"/>
				</g>
				<g>
					<line class="st1" x1="241" y1="-71" x2="241" y2="-71"/>
				</g>
				<g>
					<line class="st1" x1="241" y1="-81" x2="241" y2="-81"/>
				</g>
				<g>
					<line class="st1" x1="241" y1="-91" x2="241" y2="-91"/>
				</g>
				<g>
					<line class="st1" x1="241" y1="-101" x2="241" y2="-101"/>
				</g>
				<g>
					<line class="st1" x1="241" y1="-111" x2="241" y2="-111"/>
				</g>
				<g>
					<line class="st1" x1="241" y1="-121" x2="241" y2="-121"/>
				</g>
				<g>
					<line class="st1" x1="241" y1="-131" x2="241" y2="-131"/>
				</g>
				<g>
					<line class="st1" x1="241" y1="-141" x2="241" y2="-141"/>
				</g>
				<g>
					<line class="st1" x1="241" y1="-151" x2="241" y2="-151"/>
				</g>
				<g>
					<line class="st1" x1="241" y1="-161" x2="241" y2="-161"/>
				</g>
				<g>
					<line class="st1" x1="241" y1="-171" x2="241" y2="-171"/>
				</g>
				<g>
					<line class="st1" x1="241" y1="-181" x2="241" y2="-181"/>
				</g>
				<g>
					<line class="st1" x1="241" y1="-191" x2="241" y2="-191"/>
				</g>
				<g>
					<line class="st1" x1="241" y1="-201" x2="241" y2="-201"/>
				</g>
				<g>
					<line class="st1" x1="241" y1="-211" x2="241" y2="-211"/>
				</g>
				<g>
					<line class="st1" x1="241" y1="-221" x2="241" y2="-221"/>
				</g>
				<g>
					<line class="st1" x1="241" y1="-231" x2="241" y2="-231"/>
				</g>
				<g>
					<line class="st1" x1="241" y1="-241" x2="241" y2="-241"/>
				</g>
			</g>
			<g>
				<g>
					<line class="st1" x1="1" y1="-1" x2="1" y2="-1"/>
					<line class="st2" x1="11" y1="-1" x2="236" y2="-1"/>
					<line class="st1" x1="241" y1="-1" x2="241" y2="-1"/>
				</g>
				<g>
					<line class="st1" x1="1" y1="-11" x2="1" y2="-11"/>
					<line class="st2" x1="11" y1="-11" x2="236" y2="-11"/>
					<line class="st1" x1="241" y1="-11" x2="241" y2="-11"/>
				</g>
				<g>
					<line class="st1" x1="1" y1="-21" x2="1" y2="-21"/>
					<line class="st2" x1="11" y1="-21" x2="236" y2="-21"/>
					<line class="st1" x1="241" y1="-21" x2="241" y2="-21"/>
				</g>
				<g>
					<line class="st1" x1="1" y1="-31" x2="1" y2="-31"/>
					<line class="st2" x1="11" y1="-31" x2="236" y2="-31"/>
					<line class="st1" x1="241" y1="-31" x2="241" y2="-31"/>
				</g>
				<g>
					<line class="st1" x1="1" y1="-41" x2="1" y2="-41"/>
					<line class="st2" x1="11" y1="-41" x2="236" y2="-41"/>
					<line class="st1" x1="241" y1="-41" x2="241" y2="-41"/>
				</g>
				<g>
					<line class="st1" x1="1" y1="-51" x2="1" y2="-51"/>
					<line class="st2" x1="11" y1="-51" x2="236" y2="-51"/>
					<line class="st1" x1="241" y1="-51" x2="241" y2="-51"/>
				</g>
				<g>
					<line class="st1" x1="1" y1="-61" x2="1" y2="-61"/>
					<line class="st2" x1="11" y1="-61" x2="236" y2="-61"/>
					<line class="st1" x1="241" y1="-61" x2="241" y2="-61"/>
				</g>
				<g>
					<line class="st1" x1="1" y1="-71" x2="1" y2="-71"/>
					<line class="st2" x1="11" y1="-71" x2="236" y2="-71"/>
					<line class="st1" x1="241" y1="-71" x2="241" y2="-71"/>
				</g>
				<g>
					<line class="st1" x1="1" y1="-81" x2="1" y2="-81"/>
					<line class="st2" x1="11" y1="-81" x2="236" y2="-81"/>
					<line class="st1" x1="241" y1="-81" x2="241" y2="-81"/>
				</g>
				<g>
					<line class="st1" x1="1" y1="-91" x2="1" y2="-91"/>
					<line class="st2" x1="11" y1="-91" x2="236" y2="-91"/>
					<line class="st1" x1="241" y1="-91" x2="241" y2="-91"/>
				</g>
				<g>
					<line class="st1" x1="1" y1="-101" x2="1" y2="-101"/>
					<line class="st2" x1="11" y1="-101" x2="236" y2="-101"/>
					<line class="st1" x1="241" y1="-101" x2="241" y2="-101"/>
				</g>
				<g>
					<line class="st1" x1="1" y1="-111" x2="1" y2="-111"/>
					<line class="st2" x1="11" y1="-111" x2="236" y2="-111"/>
					<line class="st1" x1="241" y1="-111" x2="241" y2="-111"/>
				</g>
				<g>
					<line class="st1" x1="1" y1="-121" x2="1" y2="-121"/>
					<line class="st2" x1="11" y1="-121" x2="236" y2="-121"/>
					<line class="st1" x1="241" y1="-121" x2="241" y2="-121"/>
				</g>
				<g>
					<line class="st1" x1="1" y1="-131" x2="1" y2="-131"/>
					<line class="st2" x1="11" y1="-131" x2="236" y2="-131"/>
					<line class="st1" x1="241" y1="-131" x2="241" y2="-131"/>
				</g>
				<g>
					<line class="st1" x1="1" y1="-141" x2="1" y2="-141"/>
					<line class="st2" x1="11" y1="-141" x2="236" y2="-141"/>
					<line class="st1" x1="241" y1="-141" x2="241" y2="-141"/>
				</g>
				<g>
					<line class="st1" x1="1" y1="-151" x2="1" y2="-151"/>
					<line class="st2" x1="11" y1="-151" x2="236" y2="-151"/>
					<line class="st1" x1="241" y1="-151" x2="241" y2="-151"/>
				</g>
				<g>
					<line class="st1" x1="1" y1="-161" x2="1" y2="-161"/>
					<line class="st2" x1="11" y1="-161" x2="236" y2="-161"/>
					<line class="st1" x1="241" y1="-161" x2="241" y2="-161"/>
				</g>
				<g>
					<line class="st1" x1="1" y1="-171" x2="1" y2="-171"/>
					<line class="st2" x1="11" y1="-171" x2="236" y2="-171"/>
					<line class="st1" x1="241" y1="-171" x2="241" y2="-171"/>
				</g>
				<g>
					<line class="st1" x1="1" y1="-181" x2="1" y2="-181"/>
					<line class="st2" x1="11" y1="-181" x2="236" y2="-181"/>
					<line class="st1" x1="241" y1="-181" x2="241" y2="-181"/>
				</g>
				<g>
					<line class="st1" x1="1" y1="-191" x2="1" y2="-191"/>
					<line class="st2" x1="11" y1="-191" x2="236" y2="-191"/>
					<line class="st1" x1="241" y1="-191" x2="241" y2="-191"/>
				</g>
				<g>
					<line class="st1" x1="1" y1="-201" x2="1" y2="-201"/>
					<line class="st2" x1="11" y1="-201" x2="236" y2="-201"/>
					<line class="st1" x1="241" y1="-201" x2="241" y2="-201"/>
				</g>
				<g>
					<line class="st1" x1="1" y1="-211" x2="1" y2="-211"/>
					<line class="st2" x1="11" y1="-211" x2="236" y2="-211"/>
					<line class="st1" x1="241" y1="-211" x2="241" y2="-211"/>
				</g>
				<g>
					<line class="st1" x1="1" y1="-221" x2="1" y2="-221"/>
					<line class="st2" x1="11" y1="-221" x2="236" y2="-221"/>
					<line class="st1" x1="241" y1="-221" x2="241" y2="-221"/>
				</g>
				<g>
					<line class="st1" x1="1" y1="-231" x2="1" y2="-231"/>
					<line class="st2" x1="11" y1="-231" x2="236" y2="-231"/>
					<line class="st1" x1="241" y1="-231" x2="241" y2="-231"/>
				</g>
				<g>
					<line class="st1" x1="1" y1="-241" x2="1" y2="-241"/>
					<line class="st2" x1="11" y1="-241" x2="236" y2="-241"/>
					<line class="st1" x1="241" y1="-241" x2="241" y2="-241"/>
				</g>
			</g>
			<g>
				<g>
					<line class="st1" x1="1" y1="-1" x2="1" y2="-1"/>
				</g>
				<g>
					<line class="st1" x1="1" y1="-11" x2="1" y2="-11"/>
				</g>
				<g>
					<line class="st1" x1="1" y1="-21" x2="1" y2="-21"/>
				</g>
				<g>
					<line class="st1" x1="1" y1="-31" x2="1" y2="-31"/>
				</g>
				<g>
					<line class="st1" x1="1" y1="-41" x2="1" y2="-41"/>
				</g>
				<g>
					<line class="st1" x1="1" y1="-51" x2="1" y2="-51"/>
				</g>
				<g>
					<line class="st1" x1="1" y1="-61" x2="1" y2="-61"/>
				</g>
				<g>
					<line class="st1" x1="1" y1="-71" x2="1" y2="-71"/>
				</g>
				<g>
					<line class="st1" x1="1" y1="-81" x2="1" y2="-81"/>
				</g>
				<g>
					<line class="st1" x1="1" y1="-91" x2="1" y2="-91"/>
				</g>
				<g>
					<line class="st1" x1="1" y1="-101" x2="1" y2="-101"/>
				</g>
				<g>
					<line class="st1" x1="1" y1="-111" x2="1" y2="-111"/>
				</g>
				<g>
					<line class="st1" x1="1" y1="-121" x2="1" y2="-121"/>
				</g>
				<g>
					<line class="st1" x1="1" y1="-131" x2="1" y2="-131"/>
				</g>
				<g>
					<line class="st1" x1="1" y1="-141" x2="1" y2="-141"/>
				</g>
				<g>
					<line class="st1" x1="1" y1="-151" x2="1" y2="-151"/>
				</g>
				<g>
					<line class="st1" x1="1" y1="-161" x2="1" y2="-161"/>
				</g>
				<g>
					<line class="st1" x1="1" y1="-171" x2="1" y2="-171"/>
				</g>
				<g>
					<line class="st1" x1="1" y1="-181" x2="1" y2="-181"/>
				</g>
				<g>
					<line class="st1" x1="1" y1="-191" x2="1" y2="-191"/>
				</g>
				<g>
					<line class="st1" x1="1" y1="-201" x2="1" y2="-201"/>
				</g>
				<g>
					<line class="st1" x1="1" y1="-211" x2="1" y2="-211"/>
				</g>
				<g>
					<line class="st1" x1="1" y1="-221" x2="1" y2="-221"/>
				</g>
				<g>
					<line class="st1" x1="1" y1="-231" x2="1" y2="-231"/>
				</g>
				<g>
					<line class="st1" x1="1" y1="-241" x2="1" y2="-241"/>
				</g>
			</g>
			<g>
				<g>
					<line class="st1" x1="241" y1="-1" x2="241" y2="-1"/>
				</g>
			</g>
			<g>
				<g>
					<line class="st1" x1="1" y1="-1" x2="1" y2="-1"/>
					<line class="st2" x1="11" y1="-1" x2="236" y2="-1"/>
					<line class="st1" x1="241" y1="-1" x2="241" y2="-1"/>
				</g>
			</g>
			<g>
				<g>
					<line class="st1" x1="1" y1="-1" x2="1" y2="-1"/>
				</g>
			</g>
		</g>
	</g>
</pattern>
<g class="st3">
	<circle class="st4" cx="519.3" cy="505.1" r="253.3"/>
</g>
<pattern  id="SVGID_2_" xlink:href="#SVGID_1_" patternTransform="matrix(1.6355 0 0 -1.6355 9426.7393 -29975.6367)">
</pattern>
<circle class="st5" cx="519.3" cy="505.1" r="253.3"/>
<g>
	<circle class="st6" cx="946.2" cy="505.1" r="287.8"/>
</g>
<g>
	<path class="st7" d="M901.3,479.4l-2.9,17.4c3.2-3.2,8.7-4.1,11.1-4.1c9.6,0,16.8,6.3,16.8,16.5c0,11.1-9.2,16.7-17.9,16.7
		c-8.5,0-16.5-5.4-17.5-14l5.2-1.1c0.9,5.9,5.8,10.2,12.4,10.2c5.1,0,12.4-3.3,12.4-11.7s-6.2-11.9-12.4-11.9
		c-3.7,0-8.1,1.9-10.8,5.2l-5-1.9l4.4-26.4H924v5h-22.7V479.4z"/>
	<path class="st7" d="M942.8,479.4l-2.9,17.4c3.2-3.2,8.7-4.1,11.1-4.1c9.6,0,16.8,6.3,16.8,16.5c0,11.1-9.2,16.7-17.9,16.7
		c-8.5,0-16.5-5.4-17.5-14l5.2-1.1c0.9,5.9,5.8,10.2,12.4,10.2c5.1,0,12.4-3.3,12.4-11.7s-6.2-11.9-12.4-11.9
		c-3.7,0-8.1,1.9-10.8,5.2l-5-1.9l4.4-26.4h26.9v5h-22.7V479.4z"/>
	<path class="st7" d="M979.4,507.8c-3.7,0-6.7-3-6.7-6.7s3-6.7,6.7-6.7s6.7,3,6.7,6.7C986.2,504.8,983.2,507.8,979.4,507.8z
		 M979.4,496.8c-2.3,0-4.2,1.9-4.2,4.2c0,2.3,1.9,4.2,4.2,4.2s4.2-1.9,4.2-4.2C983.6,498.7,981.7,496.8,979.4,496.8z M995.9,494.6
		h3.1l-19.5,29.9h-3L995.9,494.6z M996,524.7c-3.7,0-6.7-3-6.7-6.7s3-6.7,6.7-6.7s6.8,3,6.8,6.7C1002.7,521.7,999.7,524.7,996,524.7
		z M996,513.8c-2.3,0-4.2,1.9-4.2,4.2s1.9,4.2,4.2,4.2s4.2-1.9,4.2-4.2C1000.2,515.6,998.3,513.8,996,513.8z"/>
</g>
<g>
	<path class="st8" d="M487.9,525.6v-12.3h-26.6v-5.9l25.1-33h6.7v34.3h8.6v4.6h-8.6v12.3H487.9z M487.9,508.7V480l-21.8,28.7H487.9z
		"/>
	<path class="st8" d="M524.7,526.1c-9,0-16.6-5.4-17.7-14l5.2-1.1c0.9,5.9,5.4,10.2,12.5,10.2c6.9,0,12.4-3.8,12.4-9.6
		s-4.4-9.5-12.4-9.5h-5.1v-5h5c7,0,11.4-4.3,11.4-9.2c0-5.2-3.9-9.1-11.3-9.1c-7,0-11.1,4.2-12,9.6l-5.2-1.1
		c0.9-7.1,7.7-13.4,17.1-13.4c11.1,0,16.6,6.8,16.6,13.5c0,5.8-3.3,9.6-8.2,11.8v0.1c5.8,1.6,9.4,6.2,9.4,12.2
		C542.4,519.4,535.4,526.1,524.7,526.1z"/>
	<path class="st8" d="M554.5,507.8c-3.7,0-6.7-3-6.7-6.7s3-6.7,6.7-6.7s6.7,3,6.7,6.7S558.2,507.8,554.5,507.8z M554.5,496.8
		c-2.3,0-4.2,1.9-4.2,4.2c0,2.3,1.9,4.2,4.2,4.2s4.2-1.9,4.2-4.2C558.7,498.7,556.8,496.8,554.5,496.8z M571,494.6h3.1l-19.5,29.9
		h-3L571,494.6z M571,524.7c-3.7,0-6.7-3-6.7-6.7s3-6.7,6.7-6.7s6.7,3,6.7,6.7C577.8,521.7,574.8,524.7,571,524.7z M571,513.8
		c-2.3,0-4.2,1.9-4.2,4.2s1.9,4.2,4.2,4.2s4.2-1.9,4.2-4.2C575.3,515.6,573.4,513.8,571,513.8z"/>
</g>
<g>
	<path class="st4" d="M284.2,60.4c0-1.8,0.8-3.7,3.6-5.4l2.3-1.5c1.5-0.9,2.7-1.8,2.7-3.6c0-1.6-1.4-3.1-3.4-3.1c-1.7,0-2.7,1-3.2,2
		c-0.3,0.6-0.3,1.3-0.3,1.5l-1.6-0.2c0-2.2,1.8-4.7,5.1-4.7c2.8,0,5,2.2,5,4.5c0,2.2-1.2,3.5-3.2,4.7l-2.4,1.5
		c-1.3,0.8-2.6,1.9-2.6,3.3h8.4v1.5h-10.4V60.4z"/>
	<path class="st4" d="M297.6,53.2c0-3.8,2.2-7.9,6.4-7.9c4.2,0,6.3,4,6.3,7.8s-2.2,7.9-6.4,7.9S297.6,57,297.6,53.2z M299.2,53.1
		c0,2.8,1.4,6.4,4.7,6.4c3.3,0,4.7-3.6,4.7-6.3s-1.4-6.4-4.7-6.4S299.2,50.4,299.2,53.1z"/>
	<path class="st4" d="M317.1,47.2l-3.7,2.2l-0.7-1.2l4.5-2.7h1.6v15.4h-1.6L317.1,47.2L317.1,47.2z"/>
	<path class="st4" d="M324.2,53.1c1-1.6,2.9-2.2,4.2-2.2c3.2,0,5.2,2.3,5.2,4.9c0,3.5-2.8,5.2-5.5,5.2c-1.7,0-3.7-1-4.6-2.6
		c-0.7-1.3-1-2.3-1-4.2c0-4.8,2.6-8.8,7.5-8.8c0.9,0,2.1,0.1,3.2,0.7l-0.6,1.5c-0.8-0.5-1.9-0.6-2.6-0.6
		C326.5,46.9,324.5,49.7,324.2,53.1z M325.6,53.2c-0.7,0.6-1.2,1.6-1.2,2.7c0,2.3,1.9,3.6,3.8,3.6s3.8-1.3,3.8-3.7
		c0-1.9-1.4-3.6-3.8-3.6C327.2,52.3,326.3,52.6,325.6,53.2z"/>
</g>
<g>
	<g>
		<path class="st9" d="M519.4,227.6c0-94.6-75.3-171.6-169.2-174.4"/>
		<g>
			<polygon class="st4" points="350.8,59.4 351.1,47.2 344.9,53.1 			"/>
		</g>
	</g>
</g>
<g>
	<path class="st4" d="M1135.2,999.2c0-1.8,0.8-3.7,3.6-5.4l2.3-1.5c1.5-0.9,2.7-1.8,2.7-3.6c0-1.6-1.4-3.1-3.4-3.1
		c-1.7,0-2.7,1-3.2,2c-0.3,0.6-0.3,1.3-0.3,1.5l-1.6-0.2c0-2.2,1.8-4.7,5.1-4.7c2.8,0,5,2.2,5,4.5c0,2.2-1.2,3.5-3.2,4.7l-2.4,1.5
		c-1.3,0.8-2.6,1.9-2.6,3.3h8.4v1.5h-10.4V999.2z"/>
	<path class="st4" d="M1148.1,992c0-3.8,2.2-7.9,6.4-7.9c4.2,0,6.3,4,6.3,7.8s-2.2,7.9-6.4,7.9S1148.1,995.8,1148.1,992z
		 M1149.8,991.9c0,2.8,1.4,6.4,4.7,6.4c3.3,0,4.7-3.6,4.7-6.3s-1.4-6.4-4.7-6.4S1149.8,989.2,1149.8,991.9z"/>
	<path class="st4" d="M1167.3,986l-3.7,2.2l-0.7-1.2l4.5-2.7h1.6v15.4h-1.6V986H1167.3z"/>
	<path class="st4" d="M1172.7,985.8v-1.5h10.5v1.5l-7.1,13.9h-1.8l7.1-13.9H1172.7z"/>
</g>
<g>
	<g>
		<path class="st9" d="M946.2,817.7c0,94.6,75.3,171.6,169.2,174.4"/>
		<g>
			<polygon class="st4" points="1114.7,985.9 1114.4,998.1 1120.6,992.1 			"/>
		</g>
	</g>
</g>
<g>
	<path class="st4" d="M274.7,933.9H272v-15l-3.7,2.2l-1.2-2l5.2-3.1h2.5L274.7,933.9L274.7,933.9z"/>
	<path class="st4" d="M292.9,938.2h-6.3v12.4h-3.2v-30.7H294c7.5,0,10.8,4.2,10.8,8.9c0,5.3-3.8,8.2-8.4,8.8l9.5,13H302L292.9,938.2
		z M293.7,935.3c5.6,0,7.8-3.2,7.8-6.3c0-3-1.9-6-7.7-6h-7.2v12.3H293.7z"/>
	<path class="st4" d="M311.8,941.1c0.2,4.1,3.4,7.2,7.5,7.2c3.1,0,5.5-1.5,6.5-4.5l2.7,0.9c-1.3,4-5,6.3-9.2,6.3
		c-6.1,0-10.6-4.8-10.6-10.9c0-5.7,4.3-10.8,10.2-10.8c6.5,0,9.9,4.6,9.9,10.8c0,0.4,0,0.7,0,1H311.8z M325.7,938.5
		c-0.4-3.8-2.8-6.5-6.8-6.5c-3.6,0-6.6,3-7.1,6.5H325.7z"/>
	<path class="st4" d="M340.5,951c-5.7,0-7.6-3.8-8-6.2l2.8-0.7c0.4,1.9,1.8,4.2,5.1,4.2c2.3,0,4.4-1.2,4.4-3.4
		c0-2.6-2.7-3.1-4.9-3.5c-3.5-0.5-6.9-1.8-6.9-5.8c0-3.9,3.6-6.2,7-6.2c5.5,0,7.3,3.7,7.6,5.7l-2.8,0.7c-0.4-1.4-1.5-3.7-4.8-3.7
		c-2.3,0-4,1.5-4,3.3c0,2.6,2.8,3,5,3.3c3.4,0.4,6.9,2.2,6.9,6C347.9,948.5,344.5,951,340.5,951z"/>
	<path class="st4" d="M364.5,951c-3.9,0-6.4-2-8.1-4.6V961h-3.1v-31.3h3v4.6c1.7-2.6,4.2-4.9,8.1-4.9c6,0,9.9,5.3,9.9,10.8
		C374.4,945.8,370.5,951,364.5,951z M371.2,940.2c0-4.4-2.7-8.2-7.3-8.2c-4.3,0-7.5,3.8-7.5,8c0,4.3,3.1,8.2,7.5,8.2
		C368.5,948.3,371.2,944.6,371.2,940.2z"/>
	<path class="st4" d="M378.3,940.2c0-6.2,4.7-10.9,10.9-10.9c6,0,10.8,4.7,10.8,10.8c0,6.2-4.7,10.9-10.9,10.9
		C383,951,378.3,946.2,378.3,940.2z M396.8,940.2c0-4.4-3.2-8.2-7.7-8.2c-4.6,0-7.7,3.7-7.7,8.1s3.1,8.2,7.7,8.2
		C393.6,948.3,396.8,944.6,396.8,940.2z"/>
	<path class="st4" d="M420.4,938.4c0-3.7-1.9-6.4-5.8-6.4c-3.6,0-6.2,2.9-6.2,6.6v11.9h-3.1v-21h3v3.8c1.6-2.8,4.1-4.2,7.2-4.2
		c5.1,0,7.9,3.5,7.9,8.4v13h-3.1v-12.1H420.4z"/>
	<path class="st4" d="M438.4,929.3c4,0,6.4,2.3,8.1,4.7v-15.4h3v31.9h-3V946c-1.6,2.7-4.1,4.8-8.2,4.8c-6,0-9.8-5.1-9.8-10.8
		C428.6,934.7,432.5,929.3,438.4,929.3z M446.6,940.1c0-4.2-3.2-8-7.5-8c-4.6,0-7.3,3.7-7.3,8.2c0,4.3,2.7,8,7.3,8
		C443.5,948.3,446.6,944.4,446.6,940.1z"/>
	<path class="st4" d="M458.1,941.1c0.2,4.1,3.4,7.2,7.5,7.2c3.1,0,5.5-1.5,6.5-4.5l2.7,0.9c-1.3,4-5,6.3-9.2,6.3
		c-6.1,0-10.6-4.8-10.6-10.9c0-5.7,4.3-10.8,10.2-10.8c6.5,0,9.9,4.6,9.9,10.8c0,0.4,0,0.7,0,1H458.1z M472,938.5
		c-0.4-3.8-2.8-6.5-6.8-6.5c-3.6,0-6.6,3-7.1,6.5H472z"/>
	<path class="st4" d="M495.5,938.4c0-3.7-1.9-6.4-5.8-6.4c-3.6,0-6.2,2.9-6.2,6.6v11.9h-3.1v-21h3v3.8c1.6-2.8,4.1-4.2,7.2-4.2
		c5.1,0,7.9,3.5,7.9,8.4v13h-3.1v-12.1H495.5z"/>
	<path class="st4" d="M506.4,945.2v-12.8h-3.9v-2.7h3.9v-6h3v6h5.3v2.7h-5.3v12.8c0,1.9,1.1,2.9,3.4,2.9c0.7,0,1.4,0,1.9-0.2v2.6
		c-0.6,0.2-1.8,0.3-2.4,0.3C507.7,950.8,506.4,948.3,506.4,945.2z"/>
	<path class="st4" d="M526.3,951c-5.7,0-7.6-3.8-8-6.2l2.8-0.7c0.4,1.9,1.8,4.2,5.1,4.2c2.3,0,4.4-1.2,4.4-3.4
		c0-2.6-2.7-3.1-4.9-3.5c-3.5-0.5-6.9-1.8-6.9-5.8c0-3.9,3.6-6.2,7-6.2c5.5,0,7.3,3.7,7.6,5.7l-2.8,0.7c-0.4-1.4-1.5-3.7-4.8-3.7
		c-2.3,0-4,1.5-4,3.3c0,2.6,2.8,3,5,3.3c3.4,0.4,6.9,2.2,6.9,6C533.7,948.5,530.3,951,526.3,951z"/>
	<path class="st4" d="M553.1,933.9c1.6-3.3,4.4-4.5,6.8-4.5c0.2,0,0.8,0,1,0v3.3c-0.4,0-0.8-0.1-1.2-0.1c-4.9,0-6.6,4.1-6.6,7.8
		v10.2H550v-21h3L553.1,933.9L553.1,933.9z"/>
	<path class="st4" d="M565.8,941.1c0.2,4.1,3.4,7.2,7.5,7.2c3.1,0,5.5-1.5,6.5-4.5l2.7,0.9c-1.3,4-5,6.3-9.2,6.3
		c-6.1,0-10.6-4.8-10.6-10.9c0-5.7,4.3-10.8,10.2-10.8c6.5,0,9.9,4.6,9.9,10.8c0,0.4,0,0.7,0,1H565.8z M579.7,938.5
		c-0.4-3.8-2.8-6.5-6.8-6.5c-3.6,0-6.6,3-7.1,6.5H579.7z"/>
	<path class="st4" d="M599.2,951c-3.9,0-6.4-2-8.1-4.6V961H588v-31.3h3v4.6c1.7-2.6,4.2-4.9,8.1-4.9c6,0,9.9,5.3,9.9,10.8
		C609.1,945.8,605.2,951,599.2,951z M605.9,940.2c0-4.4-2.7-8.2-7.3-8.2c-4.3,0-7.5,3.8-7.5,8c0,4.3,3.1,8.2,7.5,8.2
		C603.2,948.3,605.9,944.6,605.9,940.2z"/>
	<path class="st4" d="M613,940.2c0-6.2,4.7-10.9,10.9-10.9c6,0,10.8,4.7,10.8,10.8c0,6.2-4.7,10.9-10.9,10.9
		C617.7,951,613,946.2,613,940.2z M631.5,940.2c0-4.4-3.2-8.2-7.7-8.2c-4.6,0-7.7,3.7-7.7,8.1s3.1,8.2,7.7,8.2
		C628.3,948.3,631.5,944.6,631.5,940.2z"/>
	<path class="st4" d="M643,933.9c1.6-3.3,4.4-4.5,6.8-4.5c0.2,0,0.8,0,1,0v3.3c-0.4,0-0.8-0.1-1.2-0.1c-4.9,0-6.6,4.1-6.6,7.8v10.2
		h-3v-21h3V933.9z"/>
	<path class="st4" d="M656.3,945.2v-12.8h-3.9v-2.7h3.9v-6h3v6h5.3v2.7h-5.3v12.8c0,1.9,1.1,2.9,3.4,2.9c0.7,0,1.4,0,1.9-0.2v2.6
		c-0.6,0.2-1.8,0.3-2.4,0.3C657.7,950.8,656.3,948.3,656.3,945.2z"/>
	<path class="st4" d="M671.4,919.9c1.3,0,2.3,1,2.3,2.3s-1,2.3-2.3,2.3s-2.3-1-2.3-2.3C669.1,920.9,670.1,919.9,671.4,919.9z
		 M672.9,929.7v21h-3.1v-21H672.9z"/>
	<path class="st4" d="M695,938.4c0-3.7-1.9-6.4-5.8-6.4c-3.6,0-6.2,2.9-6.2,6.6v11.9h-3.1v-21h3v3.8c1.6-2.8,4.1-4.2,7.2-4.2
		c5.1,0,7.9,3.5,7.9,8.4v13h-3V938.4z"/>
	<path class="st4" d="M721.1,946c-1.6,2.7-4.2,4.7-8.1,4.7c-6,0-9.8-4.9-9.8-10.7c0-5.5,3.9-10.7,9.8-10.7c4.1,0,6.5,2.3,8.2,4.7
		v-4.4h3v21c0,6.8-4.2,10.4-10.5,10.4c-5.4,0-9.3-2.7-10.4-7.2l2.8-0.9c0.6,2.4,2.7,5.5,7.5,5.5c4,0,7.5-2.2,7.5-7.6V946z
		 M721.1,940c0-4.1-3.2-8-7.5-8c-4.6,0-7.3,3.5-7.3,8.1c0,4.3,2.7,7.9,7.3,7.9C718,948.1,721.1,944.3,721.1,940z"/>
	<path class="st4" d="M291.4,998.1c-5.7,0-7.6-3.8-8-6.2l2.8-0.7c0.4,1.9,1.8,4.2,5.1,4.2c2.3,0,4.4-1.2,4.4-3.4
		c0-2.6-2.7-3.1-4.9-3.5c-3.5-0.5-6.9-1.8-6.9-5.8c0-3.9,3.6-6.2,7-6.2c5.5,0,7.3,3.7,7.6,5.7l-2.8,0.7c-0.4-1.4-1.5-3.7-4.8-3.7
		c-2.3,0-4,1.5-4,3.3c0,2.6,2.8,3,5,3.3c3.4,0.4,6.9,2.2,6.9,6C298.8,995.6,295.4,998.1,291.4,998.1z"/>
	<path class="st4" d="M302.7,987.3c0-6.2,4.7-10.9,10.9-10.9c6,0,10.8,4.7,10.8,10.8c0,6.2-4.7,10.9-10.9,10.9
		C307.4,998.1,302.7,993.3,302.7,987.3z M321.3,987.3c0-4.4-3.2-8.2-7.7-8.2c-4.6,0-7.7,3.7-7.7,8.1s3.1,8.2,7.7,8.2
		C318.1,995.4,321.3,991.7,321.3,987.3z"/>
	<path class="st4" d="M344.1,985.5c0-3.5-1.6-6.3-5.4-6.3c-3.6,0-5.8,3.2-5.8,6.6v11.9h-3.1v-21h3v3.6c1.7-2.6,3.6-4,6.8-4
		c3.1,0,5.5,1.5,6.7,4.2c1.8-2.7,4.1-4.2,7.4-4.2c5.1,0,7.7,3.5,7.7,8.4v13h-3.1v-12.2c0-3.5-1.6-6.3-5.4-6.3c-3.7,0-5.8,3-5.8,6.5
		v12h-3L344.1,985.5L344.1,985.5z"/>
	<path class="st4" d="M369.6,988.2c0.2,4.1,3.4,7.2,7.5,7.2c3.1,0,5.5-1.5,6.5-4.5l2.7,0.9c-1.3,4-5,6.3-9.2,6.3
		c-6.1,0-10.6-4.8-10.6-10.9c0-5.7,4.3-10.8,10.2-10.8c6.5,0,9.9,4.6,9.9,10.8c0,0.4,0,0.7,0,1H369.6z M383.5,985.6
		c-0.4-3.8-2.8-6.5-6.8-6.5c-3.6,0-6.6,3-7.1,6.5H383.5z"/>
	<path class="st4" d="M407.4,972.8v4h5.5v2.7h-5.5v18.3h-3.1v-18.3h-4v-2.7h4v-3.9c0-4.9,2.7-7.2,6.4-7.2c0.5,0,1.5,0.1,2.3,0.4v2.6
		c-0.8-0.3-1.7-0.3-2.2-0.3C409.4,968.4,407.4,969.3,407.4,972.8z"/>
	<path class="st4" d="M414.9,987.3c0-6.2,4.7-10.9,10.9-10.9c6,0,10.8,4.7,10.8,10.8c0,6.2-4.7,10.9-10.9,10.9
		C419.7,998.1,414.9,993.3,414.9,987.3z M433.5,987.3c0-4.4-3.2-8.2-7.7-8.2c-4.6,0-7.7,3.7-7.7,8.1s3.1,8.2,7.7,8.2
		C430.3,995.4,433.5,991.7,433.5,987.3z"/>
	<path class="st4" d="M445,981c1.6-3.3,4.4-4.5,6.8-4.5c0.2,0,0.8,0,1,0v3.3c-0.4,0-0.8-0.1-1.2-0.1c-4.9,0-6.6,4.1-6.6,7.8v10.2h-3
		v-21h3V981z"/>
	<path class="st4" d="M471.2,985.5c0-3.5-1.6-6.3-5.4-6.3c-3.6,0-5.8,3.2-5.8,6.6v11.9h-3.1v-21h3v3.6c1.7-2.6,3.6-4,6.8-4
		c3.1,0,5.5,1.5,6.7,4.2c1.8-2.7,4.1-4.2,7.4-4.2c5.1,0,7.7,3.5,7.7,8.4v13h-3.1v-12.2c0-3.5-1.6-6.3-5.4-6.3c-3.7,0-5.8,3-5.8,6.5
		v12h-3L471.2,985.5L471.2,985.5z"/>
	<path class="st4" d="M504.6,987.3c0-6.2,4.7-10.9,10.9-10.9c6,0,10.8,4.7,10.8,10.8c0,6.2-4.7,10.9-10.9,10.9
		C509.3,998.1,504.6,993.3,504.6,987.3z M523.1,987.3c0-4.4-3.2-8.2-7.7-8.2c-4.6,0-7.7,3.7-7.7,8.1s3.1,8.2,7.7,8.2
		C519.9,995.4,523.1,991.7,523.1,987.3z"/>
	<path class="st4" d="M535.8,972.8v4h5.5v2.7h-5.5v18.3h-3.1v-18.3h-4v-2.7h4v-3.9c0-4.9,2.7-7.2,6.4-7.2c0.5,0,1.5,0.1,2.3,0.4v2.6
		c-0.8-0.3-1.7-0.3-2.2-0.3C537.8,968.4,535.8,969.3,535.8,972.8z"/>
	<path class="st4" d="M563.8,976.4c4,0,6.4,2.3,8.1,4.7v-15.4h3v31.9h-3v-4.5c-1.6,2.7-4.1,4.8-8.2,4.8c-6,0-9.8-5.1-9.8-10.8
		C554,981.8,557.9,976.4,563.8,976.4z M572,987.2c0-4.2-3.2-8-7.5-8c-4.6,0-7.3,3.7-7.3,8.2c0,4.3,2.7,8,7.3,8
		C568.9,995.4,572,991.5,572,987.2z"/>
	<path class="st4" d="M594.6,984.3c0-3.4-1.8-5.1-5.3-5.1s-5.1,2.3-5.5,4.3l-2.9-0.6c0.2-1.8,2.5-6.4,8.5-6.4c4.4,0,6.6,2,7.7,4.3
		c0.5,1.1,0.6,2.8,0.6,3.5v13.5h-3v-3.7l0,0c-1.6,2.6-3.9,4-7.1,4c-4.2,0-7-2.6-7-6.2v-0.2c0-4.6,4.6-6,8.3-6h5.8L594.6,984.3
		L594.6,984.3z M588.7,988.2c-2.2,0-5.2,0.7-5.2,3.5c0,2.4,2,3.7,4.5,3.7c3.7,0,6.5-2.6,6.5-6.5v-0.7H588.7z"/>
	<path class="st4" d="M605.4,992.3v-12.8h-3.9v-2.7h3.9v-6h3v6h5.3v2.7h-5.3v12.8c0,1.9,1.1,2.9,3.4,2.9c0.7,0,1.4,0,1.9-0.2v2.6
		c-0.6,0.2-1.8,0.3-2.4,0.3C606.8,997.9,605.4,995.4,605.4,992.3z"/>
	<path class="st4" d="M631.6,984.3c0-3.4-1.8-5.1-5.3-5.1s-5.1,2.3-5.5,4.3l-2.9-0.6c0.2-1.8,2.5-6.4,8.5-6.4c4.4,0,6.6,2,7.7,4.3
		c0.5,1.1,0.6,2.8,0.6,3.5v13.5h-3v-3.7l0,0c-1.6,2.6-3.9,4-7.1,4c-4.2,0-7-2.6-7-6.2v-0.2c0-4.6,4.6-6,8.3-6h5.8L631.6,984.3
		L631.6,984.3z M625.7,988.2c-2.2,0-5.2,0.7-5.2,3.5c0,2.4,2,3.7,4.5,3.7c3.7,0,6.5-2.6,6.5-6.5v-0.7H625.7z"/>
	<path class="st4" d="M655.3,965.8v32h-3.1v-32H655.3z"/>
	<path class="st4" d="M660.7,987.3c0-6.2,4.7-10.9,10.9-10.9c6,0,10.8,4.7,10.8,10.8c0,6.2-4.7,10.9-10.9,10.9
		C665.4,998.1,660.7,993.3,660.7,987.3z M679.2,987.3c0-4.4-3.2-8.2-7.7-8.2c-4.6,0-7.7,3.7-7.7,8.1s3.1,8.2,7.7,8.2
		C676,995.4,679.2,991.7,679.2,987.3z"/>
	<path class="st4" d="M694.1,998.1c-5.7,0-7.6-3.8-8-6.2l2.8-0.7c0.4,1.9,1.8,4.2,5.1,4.2c2.3,0,4.4-1.2,4.4-3.4
		c0-2.6-2.7-3.1-4.9-3.5c-3.5-0.5-6.9-1.8-6.9-5.8c0-3.9,3.6-6.2,7-6.2c5.5,0,7.3,3.7,7.6,5.7l-2.8,0.7c-0.4-1.4-1.5-3.7-4.8-3.7
		c-2.3,0-4,1.5-4,3.3c0,2.6,2.8,3,5,3.3c3.4,0.4,6.9,2.2,6.9,6C701.5,995.6,698.1,998.1,694.1,998.1z"/>
	<path class="st4" d="M713.4,998.1c-5.7,0-7.6-3.8-8-6.2l2.8-0.7c0.4,1.9,1.8,4.2,5.1,4.2c2.3,0,4.4-1.2,4.4-3.4
		c0-2.6-2.7-3.1-4.9-3.5c-3.5-0.5-6.9-1.8-6.9-5.8c0-3.9,3.6-6.2,7-6.2c5.5,0,7.3,3.7,7.6,5.7l-2.8,0.7c-0.4-1.4-1.5-3.7-4.8-3.7
		c-2.3,0-4,1.5-4,3.3c0,2.6,2.8,3,5,3.3c3.4,0.4,6.9,2.2,6.9,6C720.8,995.6,717.4,998.1,713.4,998.1z"/>
</g>
</svg>
