<?xml version="1.0" encoding="utf-8"?>
<!-- Generator: Adobe Illustrator 21.1.0, SVG Export Plug-In . SVG Version: 6.00 Build 0)  -->
<svg version="1.1" id="graphFiveDR" xmlns="http://www.w3.org/2000/svg" xmlns:xlink="http://www.w3.org/1999/xlink" x="0px"
	 y="0px" viewBox="0 0 1500 1053" style="enable-background:new 0 0 1500 1053;" xml:space="preserve">
<style type="text/css">
	.st0-dr5{opacity:0.1;}
	.st1-dr5{fill:#999999;}
	.st2-dr5{fill:#FFC940;}
	.st3-dr5{fill:#37C0AA;}
	.st4-dr5{opacity:0.9;}
	.st5-dr5{fill:#1A1A1A;}
</style>
<g id="greyChartDR5">
	<g class="st0-dr5">
		<rect x="862.9" y="959.1" width="75.3" height="45.4"/>
	</g>
	<g>
		<path class="st1-dr5" d="M877.6,936.3c0-1.8,1.2-3.3,3.5-4.1c-2.1-0.6-3.1-2.4-3.1-3.8c0-2.9,3-4.5,5.5-4.5s5.5,1.5,5.5,4.5
			c0,1.6-1.1,3.2-3.1,3.8c2.3,0.7,3.5,2.3,3.5,4.1c0,3.1-3,4.8-5.9,4.8C880.6,941,877.6,939.5,877.6,936.3z M887.6,936.3
			c0-2.2-2.3-3.3-4.1-3.3s-4.1,1-4.1,3.2c0,2.3,2.3,3.2,4.1,3.2C885.2,939.4,887.6,938.5,887.6,936.3z M879.7,928.4
			c0,2.1,2.3,3.1,3.7,3.1s3.8-1,3.8-3.1c0-1.9-2.1-3-3.8-3C881.9,925.5,879.7,926.5,879.7,928.4z"/>
		<path class="st1-dr5" d="M893.3,933.2c-1.2,0-2.2-1-2.2-2.2s1-2.2,2.2-2.2s2.2,1,2.2,2.2S894.6,933.2,893.3,933.2z M893.3,929.6
			c-0.8,0-1.4,0.6-1.4,1.4c0,0.8,0.6,1.4,1.4,1.4s1.4-0.6,1.4-1.4C894.7,930.2,894.1,929.6,893.3,929.6z M898.7,928.8h1l-6.4,9.8h-1
			L898.7,928.8z M898.8,938.7c-1.2,0-2.2-1-2.2-2.2s1-2.2,2.2-2.2s2.2,1,2.2,2.2S900,938.7,898.8,938.7z M898.8,935.1
			c-0.8,0-1.4,0.6-1.4,1.4c0,0.8,0.6,1.4,1.4,1.4s1.4-0.6,1.4-1.4C900.1,935.7,899.5,935.1,898.8,935.1z"/>
	</g>
	<g class="st0-dr5">
		<rect x="862.9" y="389.3" width="75.3" height="215.6"/>
	</g>
	<g>
		<path class="st1-dr5" d="M883.1,371.3c-2.9,0-5.4-1.8-5.8-4.6l1.7-0.4c0.3,1.9,1.8,3.3,4.1,3.3c2.2,0,4-1.2,4-3.1s-1.4-3.1-4-3.1h-1.7
			v-1.6h1.6c2.3,0,3.7-1.4,3.7-3c0-1.7-1.3-3-3.7-3c-2.3,0-3.6,1.4-3.9,3.1l-1.7-0.4c0.3-2.3,2.5-4.4,5.6-4.4c3.6,0,5.4,2.2,5.4,4.4
			c0,1.9-1.1,3.1-2.7,3.9l0,0c1.9,0.5,3.1,2,3.1,4C888.9,369.1,886.6,371.3,883.1,371.3z"/>
		<path class="st1-dr5" d="M891.5,366.5c0-1.8,1.2-3.3,3.5-4.1c-2.1-0.6-3.1-2.4-3.1-3.8c0-2.9,3-4.5,5.5-4.5s5.5,1.5,5.5,4.5
			c0,1.6-1.1,3.2-3.1,3.8c2.3,0.7,3.5,2.3,3.5,4.1c0,3.1-3,4.8-5.9,4.8S891.5,369.7,891.5,366.5z M901.5,366.5
			c0-2.2-2.3-3.3-4.1-3.3s-4.1,1-4.1,3.2c0,2.3,2.3,3.2,4.1,3.2C899.1,369.7,901.5,368.7,901.5,366.5z M893.6,358.7
			c0,2.1,2.3,3.1,3.7,3.1s3.8-1,3.8-3.1c0-1.9-2.1-3-3.8-3C895.8,355.8,893.6,356.7,893.6,358.7z"/>
		<path class="st1-dr5" d="M907.2,363.4c-1.2,0-2.2-1-2.2-2.2s1-2.2,2.2-2.2s2.2,1,2.2,2.2S908.4,363.4,907.2,363.4z M907.2,359.8
			c-0.8,0-1.4,0.6-1.4,1.4s0.6,1.4,1.4,1.4s1.4-0.6,1.4-1.4C908.6,360.4,908,359.8,907.2,359.8z M912.6,359.1h1l-6.4,9.8h-1
			L912.6,359.1z M912.6,368.9c-1.2,0-2.2-1-2.2-2.2s1-2.2,2.2-2.2s2.2,1,2.2,2.2C914.8,368,913.9,368.9,912.6,368.9z M912.6,365.4
			c-0.8,0-1.4,0.6-1.4,1.4s0.6,1.4,1.4,1.4s1.4-0.6,1.4-1.4S913.4,365.4,912.6,365.4z"/>
	</g>
	<g class="st0-dr5">
		<rect x="371.7" y="559.6" width="75.3" height="45.4"/>
	</g>
	<g>
		<path class="st1-dr5" d="M386.4,536.8c0-1.8,1.2-3.3,3.5-4.1c-2.1-0.6-3.1-2.4-3.1-3.8c0-2.9,3-4.5,5.5-4.5s5.5,1.5,5.5,4.5
			c0,1.6-1.1,3.2-3.1,3.8c2.3,0.7,3.5,2.3,3.5,4.1c0,3.1-3,4.8-5.9,4.8C389.4,541.5,386.4,540,386.4,536.8z M396.4,536.8
			c0-2.2-2.3-3.3-4.1-3.3c-1.8,0-4.1,1-4.1,3.2c0,2.3,2.3,3.2,4.1,3.2C394,539.9,396.4,539,396.4,536.8z M388.5,528.9
			c0,2.1,2.3,3.1,3.7,3.1c1.4,0,3.8-1,3.8-3.1c0-1.9-2.1-3-3.8-3C390.7,526,388.5,527,388.5,528.9z"/>
		<path class="st1-dr5" d="M402.1,533.7c-1.2,0-2.2-1-2.2-2.2s1-2.2,2.2-2.2s2.2,1,2.2,2.2C404.4,532.7,403.4,533.7,402.1,533.7z
			 M402.1,530.1c-0.8,0-1.4,0.6-1.4,1.4c0,0.8,0.6,1.4,1.4,1.4s1.4-0.6,1.4-1.4C403.5,530.7,402.9,530.1,402.1,530.1z M407.5,529.3
			h1l-6.4,9.8h-1L407.5,529.3z M407.6,539.2c-1.2,0-2.2-1-2.2-2.2s1-2.2,2.2-2.2s2.2,1,2.2,2.2C409.8,538.2,408.8,539.2,407.6,539.2
			z M407.6,535.6c-0.8,0-1.4,0.6-1.4,1.4c0,0.8,0.6,1.4,1.4,1.4s1.4-0.6,1.4-1.4C408.9,536.2,408.3,535.6,407.6,535.6z"/>
	</g>
	<g class="st0-dr5">
		<rect x="371.7" y="834.2" width="75.3" height="170.2"/>
	</g>
	<g>
		<path class="st1-dr5" d="M391.9,816.2c-2.9,0-5.4-1.8-5.8-4.6l1.7-0.4c0.3,1.9,1.8,3.3,4.1,3.3c2.2,0,4-1.2,4-3.1s-1.4-3.1-4-3.1h-1.7
			v-1.6h1.6c2.3,0,3.7-1.4,3.7-3c0-1.7-1.3-3-3.7-3c-2.3,0-3.6,1.4-3.9,3.1l-1.7-0.4c0.3-2.3,2.5-4.4,5.6-4.4c3.6,0,5.4,2.2,5.4,4.4
			c0,1.9-1.1,3.1-2.7,3.9l0,0c1.9,0.5,3.1,2,3.1,4C397.7,814,395.4,816.2,391.9,816.2z"/>
		<path class="st1-dr5" d="M400.2,807.7c0-4.2,2.4-8.6,7-8.6s6.9,4.4,6.9,8.5s-2.4,8.6-7,8.6C402.6,816.2,400.2,811.8,400.2,807.7z
			 M402.1,807.6c0,3,1.5,7,5.2,7c3.6,0,5.2-3.9,5.2-6.9s-1.6-7-5.2-7C403.6,800.7,402.1,804.6,402.1,807.6z"/>
		<path class="st1-dr5" d="M418.1,808.3c-1.2,0-2.2-1-2.2-2.2s1-2.2,2.2-2.2s2.2,1,2.2,2.2C420.3,807.3,419.3,808.3,418.1,808.3z
			 M418.1,804.7c-0.8,0-1.4,0.6-1.4,1.4c0,0.8,0.6,1.4,1.4,1.4s1.4-0.6,1.4-1.4S418.9,804.7,418.1,804.7z M423.5,804h1l-6.4,9.8h-1
			L423.5,804z M423.5,813.8c-1.2,0-2.2-1-2.2-2.2s1-2.2,2.2-2.2s2.2,1,2.2,2.2C425.7,812.9,424.8,813.8,423.5,813.8z M423.5,810.3
			c-0.8,0-1.4,0.6-1.4,1.4c0,0.8,0.6,1.4,1.4,1.4s1.4-0.6,1.4-1.4C424.9,810.9,424.3,810.3,423.5,810.3z"/>
	</g>
</g>
<g id="yellowChartDR5">
	<rect x="447" y="553.9" class="st2-dr5" width="75.3" height="51.1"/>
	<g>
		<path class="st2-dr5" d="M471.8,527.3c-1.1,1.8-3.3,2.5-4.8,2.5c-3.6,0-5.6-2.7-5.6-5.4c0-3.8,3-5.8,6-5.8c1.8,0,3.9,1,4.9,2.8
			c0.8,1.5,1.1,2.8,1.1,4.7c0,5.5-2.7,9.5-7.8,9.5c-0.9,0-2.8-0.3-3.9-1l0.6-1.6c1.1,0.7,2.5,0.9,3.2,0.9
			C469.4,534.1,471.5,531.2,471.8,527.3z M470.2,527.3c0.8-0.7,1.3-1.8,1.3-3c0-2.5-2.1-4-4.1-4c-2.1,0-4.1,1.4-4.1,4
			c0,2.1,1.5,3.9,4.1,3.9C468.4,528.3,469.4,527.9,470.2,527.3z"/>
		<path class="st2-dr5" d="M477.5,528c-1.2,0-2.2-1-2.2-2.2s1-2.2,2.2-2.2s2.2,1,2.2,2.2S478.7,528,477.5,528z M477.5,524.4
			c-0.8,0-1.4,0.6-1.4,1.4c0,0.8,0.6,1.4,1.4,1.4s1.4-0.6,1.4-1.4S478.3,524.4,477.5,524.4z M482.9,523.7h1l-6.4,9.8h-1L482.9,523.7
			z M482.9,533.5c-1.2,0-2.2-1-2.2-2.2s1-2.2,2.2-2.2s2.2,1,2.2,2.2S484.1,533.5,482.9,533.5z M482.9,529.9c-0.8,0-1.4,0.6-1.4,1.4
			c0,0.8,0.6,1.4,1.4,1.4s1.4-0.6,1.4-1.4S483.7,529.9,482.9,529.9z"/>
	</g>
	<rect x="938.1" y="446.1" class="st2-dr5" width="75.3" height="158.9"/>
	<g>
		<path class="st2-dr5" d="M952.7,427.3c0-1.9,0.9-4.1,3.9-5.9l2.5-1.6c1.6-1,2.9-2,2.9-4c0-1.7-1.5-3.3-3.7-3.3c-1.8,0-3,1.1-3.4,2.1
			c-0.3,0.7-0.3,1.4-0.3,1.6l-1.8-0.3c0-2.4,2-5.2,5.6-5.2c3.1,0,5.5,2.4,5.5,4.9c0,2.4-1.3,3.8-3.5,5.2l-2.6,1.6
			c-1.4,0.9-2.8,2.1-2.9,3.6h9.2v1.6h-11.3v-0.3H952.7z"/>
		<path class="st2-dr5" d="M966.5,423.3c0-1.8,1.2-3.3,3.5-4.1c-2.1-0.6-3.1-2.4-3.1-3.8c0-2.9,3-4.5,5.5-4.5s5.5,1.5,5.5,4.5
			c0,1.6-1.1,3.2-3.1,3.8c2.3,0.7,3.5,2.3,3.5,4.1c0,3.1-3,4.8-5.9,4.8C969.5,428,966.5,426.5,966.5,423.3z M976.5,423.3
			c0-2.2-2.3-3.3-4.1-3.3s-4.1,1-4.1,3.2c0,2.3,2.3,3.2,4.1,3.2C974.2,426.4,976.5,425.5,976.5,423.3z M968.7,415.4
			c0,2.1,2.3,3.1,3.7,3.1s3.8-1,3.8-3.1c0-1.9-2.1-3-3.8-3C970.8,412.5,968.7,413.5,968.7,415.4z"/>
		<path class="st2-dr5" d="M982.3,420.1c-1.2,0-2.2-1-2.2-2.2s1-2.2,2.2-2.2s2.2,1,2.2,2.2C984.5,419.2,983.5,420.1,982.3,420.1z
			 M982.3,416.6c-0.8,0-1.4,0.6-1.4,1.4s0.6,1.4,1.4,1.4s1.4-0.6,1.4-1.4S983,416.6,982.3,416.6z M987.7,415.8h1l-6.4,9.8h-1
			L987.7,415.8z M987.7,425.7c-1.2,0-2.2-1-2.2-2.2s1-2.2,2.2-2.2s2.2,1,2.2,2.2S988.9,425.7,987.7,425.7z M987.7,422.1
			c-0.8,0-1.4,0.6-1.4,1.4s0.6,1.4,1.4,1.4s1.4-0.6,1.4-1.4C989.1,422.7,988.4,422.1,987.7,422.1z"/>
	</g>
	<rect x="938.1" y="919.3" class="st2-dr5" width="75.3" height="85.1"/>
	<g>
		<path class="st2-dr5" d="M956.6,886.2l-4,2.4l-0.8-1.3l4.9-2.9h1.7v16.8h-1.8L956.6,886.2L956.6,886.2z"/>
		<path class="st2-dr5" d="M965,886l-1,5.7c1-1,2.8-1.3,3.6-1.3c3.1,0,5.5,2.1,5.5,5.4c0,3.6-3,5.5-5.9,5.5c-2.8,0-5.4-1.8-5.7-4.6
			l1.7-0.4c0.3,1.9,1.9,3.3,4.1,3.3c1.7,0,4-1.1,4-3.8s-2-3.9-4-3.9c-1.2,0-2.7,0.6-3.5,1.7l-1.6-0.6l1.4-8.6h8.8v1.6L965,886
			L965,886z"/>
		<path class="st2-dr5" d="M977,893.4c-1.2,0-2.2-1-2.2-2.2s1-2.2,2.2-2.2s2.2,1,2.2,2.2S978.2,893.4,977,893.4z M977,889.8
			c-0.8,0-1.4,0.6-1.4,1.4c0,0.8,0.6,1.4,1.4,1.4s1.4-0.6,1.4-1.4C978.4,890.4,977.8,889.8,977,889.8z M982.4,889.1h1l-6.4,9.8h-1
			L982.4,889.1z M982.4,899c-1.2,0-2.2-1-2.2-2.2s1-2.2,2.2-2.2s2.2,1,2.2,2.2C984.6,898,983.6,899,982.4,899z M982.4,895.4
			c-0.8,0-1.4,0.6-1.4,1.4c0,0.8,0.6,1.4,1.4,1.4s1.4-0.6,1.4-1.4C983.8,896,983.2,895.4,982.4,895.4z"/>
	</g>
	<rect x="447" y="817.2" class="st2-dr5" width="75.3" height="187.3"/>
	<g>
		<path class="st2-dr5" d="M467.1,799.1c-2.9,0-5.4-1.8-5.8-4.6l1.7-0.4c0.3,1.9,1.8,3.3,4.1,3.3c2.2,0,4-1.2,4-3.1s-1.4-3.1-4-3.1h-1.7
			v-1.6h1.6c2.3,0,3.7-1.4,3.7-3c0-1.7-1.3-3-3.7-3c-2.3,0-3.6,1.4-3.9,3.1l-1.7-0.4c0.3-2.3,2.5-4.4,5.6-4.4c3.6,0,5.4,2.2,5.4,4.4
			c0,1.9-1.1,3.1-2.7,3.9l0,0c1.9,0.5,3.1,2,3.1,4C472.9,796.9,470.7,799.1,467.1,799.1z"/>
		<path class="st2-dr5" d="M481,799.1c-2.9,0-5.4-1.8-5.8-4.6l1.7-0.4c0.3,1.9,1.8,3.3,4.1,3.3c2.2,0,4-1.2,4-3.1s-1.4-3.1-4-3.1h-1.7
			v-1.6h1.6c2.3,0,3.7-1.4,3.7-3c0-1.7-1.3-3-3.7-3c-2.3,0-3.6,1.4-3.9,3.1l-1.7-0.4c0.3-2.3,2.5-4.4,5.6-4.4c3.6,0,5.4,2.2,5.4,4.4
			c0,1.9-1.1,3.1-2.7,3.9l0,0c1.9,0.5,3.1,2,3.1,4C486.8,796.9,484.5,799.1,481,799.1z"/>
		<path class="st2-dr5" d="M490.8,791.3c-1.2,0-2.2-1-2.2-2.2s1-2.2,2.2-2.2s2.2,1,2.2,2.2S492,791.3,490.8,791.3z M490.8,787.7
			c-0.8,0-1.4,0.6-1.4,1.4c0,0.8,0.6,1.4,1.4,1.4s1.4-0.6,1.4-1.4C492.2,788.3,491.5,787.7,490.8,787.7z M496.2,787h1l-6.4,9.8h-1
			L496.2,787z M496.2,796.8c-1.2,0-2.2-1-2.2-2.2s1-2.2,2.2-2.2s2.2,1,2.2,2.2C498.4,795.8,497.4,796.8,496.2,796.8z M496.2,793.2
			c-0.8,0-1.4,0.6-1.4,1.4c0,0.8,0.6,1.4,1.4,1.4s1.4-0.6,1.4-1.4S497,793.2,496.2,793.2z"/>
	</g>
</g>
<g id="blackChartDR5">
	<g>
		<path d="M537,536.8c0-1.8,1.2-3.3,3.5-4.1c-2.1-0.6-3.1-2.4-3.1-3.8c0-2.9,3-4.5,5.5-4.5s5.5,1.5,5.5,4.5c0,1.6-1.1,3.2-3.1,3.8
			c2.3,0.7,3.5,2.3,3.5,4.1c0,3.1-3,4.8-5.9,4.8C540,541.5,537,540,537,536.8z M547,536.8c0-2.2-2.3-3.3-4.1-3.3s-4.1,1-4.1,3.2
			c0,2.3,2.3,3.2,4.1,3.2C544.6,539.9,547,539,547,536.8z M539.1,528.9c0,2.1,2.3,3.1,3.7,3.1s3.8-1,3.8-3.1c0-1.9-2.1-3-3.8-3
			C541.3,526,539.1,527,539.1,528.9z"/>
		<path d="M552.7,533.7c-1.2,0-2.2-1-2.2-2.2s1-2.2,2.2-2.2s2.2,1,2.2,2.2S553.9,533.7,552.7,533.7z M552.7,530.1
			c-0.8,0-1.4,0.6-1.4,1.4c0,0.8,0.6,1.4,1.4,1.4s1.4-0.6,1.4-1.4C554.1,530.7,553.5,530.1,552.7,530.1z M558.1,529.3h1l-6.4,9.8h-1
			L558.1,529.3z M558.1,539.2c-1.2,0-2.2-1-2.2-2.2s1-2.2,2.2-2.2s2.2,1,2.2,2.2S559.4,539.2,558.1,539.2z M558.1,535.6
			c-0.8,0-1.4,0.6-1.4,1.4c0,0.8,0.6,1.4,1.4,1.4s1.4-0.6,1.4-1.4C559.5,536.2,558.9,535.6,558.1,535.6z"/>
	</g>
	<g>
		<rect x="522.3" y="559.6" width="75.3" height="45.4"/>
	</g>
	<g>
		<rect x="1013.5" y="304.2" width="75.3" height="300.8"/>
	</g>
	<g>
		<path d="M1031.2,270.9l-1,5.7c1-1,2.8-1.3,3.6-1.3c3.1,0,5.5,2.1,5.5,5.4c0,3.6-3,5.5-5.9,5.5c-2.8,0-5.4-1.8-5.7-4.6l1.7-0.4
			c0.3,1.9,1.9,3.3,4.1,3.3c1.7,0,4-1.1,4-3.8s-2-3.9-4-3.9c-1.2,0-2.7,0.6-3.5,1.7l-1.6-0.6l1.4-8.6h8.8v1.6L1031.2,270.9
			L1031.2,270.9z"/>
		<path d="M1047.3,286.1c-2.9,0-5.4-1.8-5.8-4.6l1.7-0.4c0.3,1.9,1.8,3.3,4.1,3.3c2.2,0,4-1.2,4-3.1s-1.4-3.1-4-3.1h-1.7v-1.6h1.6
			c2.3,0,3.7-1.4,3.7-3c0-1.7-1.3-3-3.7-3c-2.3,0-3.6,1.4-3.9,3.1l-1.7-0.4c0.3-2.3,2.5-4.4,5.6-4.4c3.6,0,5.4,2.2,5.4,4.4
			c0,1.9-1.1,3.1-2.7,3.9l0,0c1.9,0.5,3.1,2,3.1,4C1053.1,284,1050.8,286.1,1047.3,286.1z"/>
		<path d="M1057,278.3c-1.2,0-2.2-1-2.2-2.2s1-2.2,2.2-2.2s2.2,1,2.2,2.2S1058.3,278.3,1057,278.3z M1057,274.7
			c-0.8,0-1.4,0.6-1.4,1.4s0.6,1.4,1.4,1.4s1.4-0.6,1.4-1.4C1058.4,275.3,1057.8,274.7,1057,274.7z M1062.4,274h1l-6.4,9.8h-1
			L1062.4,274z M1062.4,283.8c-1.2,0-2.2-1-2.2-2.2s1-2.2,2.2-2.2s2.2,1,2.2,2.2C1064.7,282.8,1063.7,283.8,1062.4,283.8z
			 M1062.4,280.2c-0.8,0-1.4,0.6-1.4,1.4s0.6,1.4,1.4,1.4s1.4-0.6,1.4-1.4C1063.8,280.9,1063.2,280.2,1062.4,280.2z"/>
	</g>
	<g>
		<rect x="1013.5" y="976.1" width="75.3" height="28.4"/>
	</g>
	<g>
		<path d="M1031.2,942.8l-1,5.7c1-1,2.8-1.3,3.6-1.3c3.1,0,5.5,2.1,5.5,5.4c0,3.6-3,5.5-5.9,5.5c-2.8,0-5.4-1.8-5.7-4.6l1.7-0.4
			c0.3,1.9,1.9,3.3,4.1,3.3c1.7,0,4-1.1,4-3.8s-2-3.9-4-3.9c-1.2,0-2.7,0.6-3.5,1.7l-1.6-0.6l1.4-8.6h8.8v1.6L1031.2,942.8
			L1031.2,942.8z"/>
		<path d="M1043.2,950.2c-1.2,0-2.2-1-2.2-2.2s1-2.2,2.2-2.2s2.2,1,2.2,2.2C1045.4,949.2,1044.4,950.2,1043.2,950.2z M1043.2,946.6
			c-0.8,0-1.4,0.6-1.4,1.4c0,0.8,0.6,1.4,1.4,1.4s1.4-0.6,1.4-1.4C1044.5,947.2,1043.9,946.6,1043.2,946.6z M1048.5,945.9h1
			l-6.4,9.8h-1L1048.5,945.9z M1048.6,955.7c-1.2,0-2.2-1-2.2-2.2s1-2.2,2.2-2.2s2.2,1,2.2,2.2
			C1050.8,954.7,1049.8,955.7,1048.6,955.7z M1048.6,952.1c-0.8,0-1.4,0.6-1.4,1.4c0,0.8,0.6,1.4,1.4,1.4s1.4-0.6,1.4-1.4
			C1050,952.7,1049.3,952.1,1048.6,952.1z"/>
	</g>
	<g>
		<rect x="522.3" y="879.6" width="75.3" height="124.8"/>
	</g>
	<g>
		<path d="M536.8,860.9c0-1.9,0.9-4.1,3.9-5.9l2.5-1.6c1.6-1,2.9-2,2.9-4c0-1.7-1.5-3.3-3.7-3.3c-1.8,0-3,1.1-3.4,2.1
			c-0.3,0.7-0.3,1.4-0.3,1.6l-1.8-0.3c0-2.4,2-5.2,5.6-5.2c3.1,0,5.5,2.4,5.5,4.9c0,2.4-1.3,3.8-3.5,5.2l-2.6,1.6
			c-1.4,0.9-2.8,2.1-2.9,3.6h9.2v1.6h-11.3v-0.3H536.8z"/>
		<path d="M550.5,860.9c0-1.9,0.9-4.1,3.9-5.9l2.5-1.6c1.6-1,2.9-2,2.9-4c0-1.7-1.5-3.3-3.7-3.3c-1.8,0-3,1.1-3.4,2.1
			c-0.3,0.7-0.3,1.4-0.3,1.6l-1.8-0.3c0-2.4,2-5.2,5.6-5.2c3.1,0,5.5,2.4,5.5,4.9c0,2.4-1.3,3.8-3.5,5.2l-2.6,1.6
			c-1.4,0.9-2.8,2.1-2.9,3.6h9.2v1.6h-11.3v-0.3H550.5z"/>
		<path d="M565.8,853.7c-1.2,0-2.2-1-2.2-2.2s1-2.2,2.2-2.2s2.2,1,2.2,2.2S567,853.7,565.8,853.7z M565.8,850.1
			c-0.8,0-1.4,0.6-1.4,1.4c0,0.8,0.6,1.4,1.4,1.4s1.4-0.6,1.4-1.4C567.2,850.7,566.5,850.1,565.8,850.1z M571.2,849.4h1l-6.4,9.8h-1
			L571.2,849.4z M571.2,859.2c-1.2,0-2.2-1-2.2-2.2s1-2.2,2.2-2.2s2.2,1,2.2,2.2C573.4,858.3,572.4,859.2,571.2,859.2z M571.2,855.7
			c-0.8,0-1.4,0.6-1.4,1.4c0,0.8,0.6,1.4,1.4,1.4s1.4-0.6,1.4-1.4C572.6,856.3,572,855.7,571.2,855.7z"/>
	</g>
</g>
<g id="greenChartDR5">
	<g>
		<path class="st3-dr5" d="M612.2,536.8c0-1.8,1.2-3.3,3.5-4.1c-2.1-0.6-3.1-2.4-3.1-3.8c0-2.9,3-4.5,5.5-4.5s5.5,1.5,5.5,4.5
			c0,1.6-1.1,3.2-3.1,3.8c2.3,0.7,3.5,2.3,3.5,4.1c0,3.1-3,4.8-5.9,4.8C615.2,541.5,612.2,540,612.2,536.8z M622.2,536.8
			c0-2.2-2.3-3.3-4.1-3.3s-4.1,1-4.1,3.2c0,2.3,2.3,3.2,4.1,3.2C619.8,539.9,622.2,539,622.2,536.8z M614.3,528.9
			c0,2.1,2.3,3.1,3.7,3.1s3.8-1,3.8-3.1c0-1.9-2.1-3-3.8-3C616.5,526,614.3,527,614.3,528.9z"/>
		<path class="st3-dr5" d="M627.9,533.7c-1.2,0-2.2-1-2.2-2.2s1-2.2,2.2-2.2s2.2,1,2.2,2.2C630.1,532.7,629.2,533.7,627.9,533.7z
			 M627.9,530.1c-0.8,0-1.4,0.6-1.4,1.4c0,0.8,0.6,1.4,1.4,1.4s1.4-0.6,1.4-1.4C629.3,530.7,628.7,530.1,627.9,530.1z M633.3,529.3
			h1l-6.4,9.8h-1L633.3,529.3z M633.4,539.2c-1.2,0-2.2-1-2.2-2.2s1-2.2,2.2-2.2s2.2,1,2.2,2.2C635.6,538.2,634.6,539.2,633.4,539.2
			z M633.4,535.6c-0.8,0-1.4,0.6-1.4,1.4c0,0.8,0.6,1.4,1.4,1.4s1.4-0.6,1.4-1.4C634.7,536.2,634.1,535.6,633.4,535.6z"/>
	</g>
	<g>
		<rect x="597.5" y="559.6" class="st3-dr5" width="75.3" height="45.4"/>
	</g>
	<g>
		<rect x="1088.7" y="361" class="st3-dr5" width="75.3" height="244"/>
	</g>
	<g>
		<path class="st3-dr5" d="M1111.5,342.7v-4h-8.7v-1.9l8.2-10.8h2.2v11.2h2.8v1.5h-2.8v4L1111.5,342.7L1111.5,342.7z M1111.5,337.2v-9.4
			l-7.2,9.4H1111.5z"/>
		<path class="st3-dr5" d="M1123.5,342.9c-2.9,0-5.4-1.8-5.8-4.6l1.7-0.4c0.3,1.9,1.8,3.3,4.1,3.3c2.2,0,4-1.2,4-3.1s-1.4-3.1-4-3.1
			h-1.7v-1.6h1.6c2.3,0,3.7-1.4,3.7-3c0-1.7-1.3-3-3.7-3c-2.3,0-3.6,1.4-3.9,3.1l-1.7-0.4c0.3-2.3,2.5-4.4,5.6-4.4
			c3.6,0,5.4,2.2,5.4,4.4c0,1.9-1.1,3.1-2.7,3.9l0,0c1.9,0.5,3.1,2,3.1,4C1129.3,340.7,1127,342.9,1123.5,342.9z"/>
		<path class="st3-dr5" d="M1133.2,335c-1.2,0-2.2-1-2.2-2.2s1-2.2,2.2-2.2s2.2,1,2.2,2.2C1135.5,334,1134.5,335,1133.2,335z
			 M1133.2,331.5c-0.8,0-1.4,0.6-1.4,1.4s0.6,1.4,1.4,1.4s1.4-0.6,1.4-1.4S1134,331.5,1133.2,331.5z M1138.6,330.7h1l-6.4,9.8h-1
			L1138.6,330.7z M1138.7,340.6c-1.2,0-2.2-1-2.2-2.2s1-2.2,2.2-2.2s2.2,1,2.2,2.2C1140.9,339.6,1139.9,340.6,1138.7,340.6z
			 M1138.7,337c-0.8,0-1.4,0.6-1.4,1.4s0.6,1.4,1.4,1.4s1.4-0.6,1.4-1.4C1140,337.6,1139.4,337,1138.7,337z"/>
	</g>
	<g>
		<rect x="1088.7" y="970.4" class="st3-dr5" width="75.3" height="34"/>
	</g>
	<g>
		<path class="st3-dr5" d="M1105.1,943.7c1.1-1.8,3.2-2.4,4.6-2.4c3.5,0,5.6,2.5,5.6,5.4c0,3.8-3,5.7-6,5.7c-1.8,0-4-1.1-5-2.8
			c-0.8-1.5-1-2.5-1-4.6c0-5.3,2.8-9.7,8.2-9.7c0.9,0,2.3,0.1,3.4,0.8l-0.6,1.6c-0.9-0.6-2.1-0.7-2.8-0.7
			C1107.7,936.9,1105.5,940,1105.1,943.7z M1106.7,943.9c-0.8,0.7-1.3,1.8-1.3,2.9c0,2.5,2.1,4,4.2,4s4.2-1.4,4.2-4
			c0-2.1-1.6-3.9-4.2-3.9C1108.5,942.8,1107.5,943.2,1106.7,943.9z"/>
		<path class="st3-dr5" d="M1119.2,944.5c-1.2,0-2.2-1-2.2-2.2s1-2.2,2.2-2.2s2.2,1,2.2,2.2C1121.4,943.5,1120.4,944.5,1119.2,944.5z
			 M1119.2,940.9c-0.8,0-1.4,0.6-1.4,1.4c0,0.8,0.6,1.4,1.4,1.4s1.4-0.6,1.4-1.4S1120,940.9,1119.2,940.9z M1124.6,940.2h1l-6.4,9.8
			h-1L1124.6,940.2z M1124.6,950c-1.2,0-2.2-1-2.2-2.2s1-2.2,2.2-2.2s2.2,1,2.2,2.2C1126.8,949.1,1125.9,950,1124.6,950z
			 M1124.6,946.5c-0.8,0-1.4,0.6-1.4,1.4c0,0.8,0.6,1.4,1.4,1.4s1.4-0.6,1.4-1.4S1125.4,946.5,1124.6,946.5z"/>
	</g>
	<g>
		<rect x="597.5" y="828.6" class="st3-dr5" width="75.3" height="175.9"/>
	</g>
	<g>
		<path class="st3-dr5" d="M617.7,810.5c-2.9,0-5.4-1.8-5.8-4.6l1.7-0.4c0.3,1.9,1.8,3.3,4.1,3.3c2.2,0,4-1.2,4-3.1s-1.4-3.1-4-3.1H616
			V801h1.6c2.3,0,3.7-1.4,3.7-3c0-1.7-1.3-3-3.7-3c-2.3,0-3.6,1.4-3.9,3.1l-1.7-0.4c0.3-2.3,2.5-4.4,5.6-4.4c3.6,0,5.4,2.2,5.4,4.4
			c0,1.9-1.1,3.1-2.7,3.9l0,0c1.9,0.5,3.1,2,3.1,4C623.5,808.3,621.2,810.5,617.7,810.5z"/>
		<path class="st3-dr5" d="M629.9,795.4l-4,2.4l-0.8-1.3l4.9-2.9h1.7v16.8h-1.8L629.9,795.4L629.9,795.4z"/>
		<path class="st3-dr5" d="M636.7,802.6c-1.2,0-2.2-1-2.2-2.2s1-2.2,2.2-2.2s2.2,1,2.2,2.2S637.9,802.6,636.7,802.6z M636.7,799
			c-0.8,0-1.4,0.6-1.4,1.4c0,0.8,0.6,1.4,1.4,1.4s1.4-0.6,1.4-1.4C638,799.7,637.4,799,636.7,799z M642,798.3h1l-6.4,9.8h-1
			L642,798.3z M642.1,808.2c-1.2,0-2.2-1-2.2-2.2s1-2.2,2.2-2.2s2.2,1,2.2,2.2S643.3,808.2,642.1,808.2z M642.1,804.6
			c-0.8,0-1.4,0.6-1.4,1.4c0,0.8,0.6,1.4,1.4,1.4s1.4-0.6,1.4-1.4C643.5,805.2,642.8,804.6,642.1,804.6z"/>
	</g>
</g>
<g id="greyCircleDR5" class="st0-dr5">
	<circle cx="389.6" cy="241.8" r="17.8"/>
</g>
<circle id="yellowCircleDR5" class="st2-dr5" cx="389.6" cy="293.5" r="17.8"/>
<g id="blackCircleDR5" class="st4-dr5">
	<circle class="st5-dr5" cx="636.7" cy="241.8" r="17.8"/>
</g>
<g id="greenCircleDR5">
	<circle class="st3-dr5" cx="636.7" cy="293.5" r="17.8"/>
</g>
<g id="chartTitlesDR5">
	<g>
		<g>
			<path d="M425.9,243l-1.6,3.7h-1.6L429,232h1.7l6.3,14.7h-1.6l-1.6-3.7H425.9z M426.5,241.6h6.8l-3.4-7.9L426.5,241.6z"/>
			<path d="M441.3,231.5v15.3h-1.5v-15.3H441.3z"/>
			<path d="M447,231.5v15.3h-1.5v-15.3H447z"/>
			<path d="M462.7,246.9c-1.9,0-3.1-0.9-3.9-2.2v2.1h-1.4v-15.3h1.5v7.4c0.8-1.3,2-2.3,3.9-2.3c2.8,0,4.7,2.5,4.7,5.2
				C467.4,244.4,465.6,246.9,462.7,246.9z M465.9,241.8c0-2.1-1.3-3.9-3.5-3.9c-2.1,0-3.6,1.8-3.6,3.8c0,2.1,1.5,3.9,3.6,3.9
				C464.6,245.6,465.9,243.9,465.9,241.8z"/>
			<path d="M472.3,242.6c0,1.8,0.9,3,2.8,3c1.7,0,3-1.4,3-3.1v-5.7h1.4v10H478V245c-0.8,1.4-2,2-3.4,2c-2.5,0-3.8-1.7-3.8-4v-6.2
				h1.4L472.3,242.6L472.3,242.6z"/>
			<path d="M486.8,246.9c-2.7,0-3.6-1.8-3.8-3l1.3-0.3c0.2,0.9,0.9,2,2.4,2c1.1,0,2.1-0.6,2.1-1.6c0-1.2-1.3-1.5-2.3-1.6
				c-1.7-0.2-3.3-0.8-3.3-2.8c0-1.9,1.7-3,3.4-3c2.6,0,3.5,1.8,3.6,2.7l-1.3,0.3c-0.2-0.7-0.7-1.8-2.3-1.8c-1.1,0-1.9,0.7-1.9,1.6
				c0,1.3,1.3,1.4,2.4,1.6c1.6,0.2,3.3,1.1,3.3,2.9C490.3,245.8,488.7,246.9,486.8,246.9z"/>
			<path d="M494.6,232.1c0.6,0,1.1,0.5,1.1,1.1s-0.5,1.1-1.1,1.1s-1.1-0.5-1.1-1.1S494,232.1,494.6,232.1z M495.3,236.8v10h-1.5v-10
				H495.3z"/>
			<path d="M506.8,240.9c0-1.8-0.9-3-2.8-3c-1.7,0-3,1.4-3,3.2v5.7h-1.5v-10h1.4v1.8c0.8-1.3,2-2,3.4-2c2.5,0,3.8,1.7,3.8,4v6.2
				h-1.5v-5.9H506.8z"/>
			<path d="M513.1,242.2c0.1,1.9,1.6,3.4,3.6,3.4c1.5,0,2.6-0.7,3.1-2.1l1.3,0.4c-0.6,1.9-2.4,3-4.4,3c-2.9,0-5.1-2.3-5.1-5.2
				c0-2.7,2.1-5.2,4.9-5.2c3.1,0,4.7,2.2,4.7,5.1c0,0.2,0,0.3,0,0.5h-8.1V242.2z M519.7,241c-0.2-1.8-1.3-3.1-3.2-3.1
				c-1.7,0-3.1,1.4-3.4,3.1H519.7z"/>
			<path d="M527.7,246.9c-2.7,0-3.6-1.8-3.8-3l1.3-0.3c0.2,0.9,0.9,2,2.4,2c1.1,0,2.1-0.6,2.1-1.6c0-1.2-1.3-1.5-2.3-1.6
				c-1.7-0.2-3.3-0.8-3.3-2.8c0-1.9,1.7-3,3.4-3c2.6,0,3.5,1.8,3.6,2.7l-1.3,0.3c-0.2-0.7-0.7-1.8-2.3-1.8c-1.1,0-1.9,0.7-1.9,1.6
				c0,1.3,1.3,1.4,2.4,1.6c1.6,0.2,3.3,1.1,3.3,2.9C531.3,245.8,529.6,246.9,527.7,246.9z"/>
			<path d="M537.8,246.9c-2.7,0-3.6-1.8-3.8-3l1.3-0.3c0.2,0.9,0.9,2,2.4,2c1.1,0,2.1-0.6,2.1-1.6c0-1.2-1.3-1.5-2.3-1.6
				c-1.7-0.2-3.3-0.8-3.3-2.8c0-1.9,1.7-3,3.4-3c2.6,0,3.5,1.8,3.6,2.7l-1.3,0.3c-0.2-0.7-0.7-1.8-2.3-1.8c-1.1,0-1.9,0.7-1.9,1.6
				c0,1.3,1.3,1.4,2.4,1.6c1.6,0.2,3.3,1.1,3.3,2.9C541.4,245.8,539.8,246.9,537.8,246.9z"/>
			<path d="M554.1,246.9c-2.7,0-3.6-1.8-3.8-3l1.3-0.3c0.2,0.9,0.9,2,2.4,2c1.1,0,2.1-0.6,2.1-1.6c0-1.2-1.3-1.5-2.3-1.6
				c-1.7-0.2-3.3-0.8-3.3-2.8c0-1.9,1.7-3,3.4-3c2.6,0,3.5,1.8,3.6,2.7l-1.3,0.3c-0.2-0.7-0.7-1.8-2.3-1.8c-1.1,0-1.9,0.7-1.9,1.6
				c0,1.3,1.3,1.4,2.4,1.6c1.6,0.2,3.3,1.1,3.3,2.9C557.7,245.8,556.1,246.9,554.1,246.9z"/>
			<path d="M562,232.1c0.6,0,1.1,0.5,1.1,1.1s-0.5,1.1-1.1,1.1s-1.1-0.5-1.1-1.1S561.4,232.1,562,232.1z M562.7,236.8v10h-1.5v-10
				H562.7z"/>
			<path d="M574.1,246.8h-8v-1.3l6.2-7.5h-6.1v-1.3h7.9v1.2l-6.2,7.5h6.3v1.4H574.1z"/>
			<path d="M578.1,242.2c0.1,1.9,1.6,3.4,3.6,3.4c1.5,0,2.6-0.7,3.1-2.1l1.3,0.4c-0.6,1.9-2.4,3-4.4,3c-2.9,0-5.1-2.3-5.1-5.2
				c0-2.7,2.1-5.2,4.9-5.2c3.1,0,4.7,2.2,4.7,5.1c0,0.2,0,0.3,0,0.5h-8.1V242.2z M584.7,241c-0.2-1.8-1.3-3.1-3.2-3.1
				c-1.7,0-3.1,1.4-3.4,3.1H584.7z"/>
			<path d="M592.7,246.9c-2.7,0-3.6-1.8-3.8-3l1.3-0.3c0.2,0.9,0.9,2,2.4,2c1.1,0,2.1-0.6,2.1-1.6c0-1.2-1.3-1.5-2.3-1.6
				c-1.7-0.2-3.3-0.8-3.3-2.8c0-1.9,1.7-3,3.4-3c2.6,0,3.5,1.8,3.6,2.7l-1.3,0.3c-0.2-0.7-0.7-1.8-2.3-1.8c-1.1,0-1.9,0.7-1.9,1.6
				c0,1.3,1.3,1.4,2.4,1.6c1.6,0.2,3.3,1.1,3.3,2.9C596.2,245.8,594.6,246.9,592.7,246.9z"/>
		</g>
	</g>
	<g>
		<g>
			<path d="M423.6,294.5l1.4-0.4c0.3,1.7,1.9,3.1,3.7,3.1c1.7,0,3.3-0.9,3.3-2.7c0-1.7-1.6-2.4-2.6-2.6l-1.9-0.4
				c-0.7-0.1-1.7-0.5-2.5-1.2c-0.6-0.6-1-1.4-1-2.5c0-2.5,2.2-4.1,4.6-4.1c3.2,0,4.6,1.9,4.9,3.5l-1.4,0.4c-0.3-1-1.2-2.5-3.5-2.5
				c-1.6,0-3.1,1-3.1,2.6c0,1.1,0.7,2,2.1,2.3l1.9,0.4c1,0.2,2,0.5,2.8,1.3c1,0.9,1.3,2.1,1.3,2.7c0,2.6-2.1,4.3-4.9,4.3
				C425.9,298.7,423.8,296.6,423.6,294.5z"/>
			<path d="M444.1,292.7c0-1.6-0.8-3-2.6-3c-1.7,0-2.8,1.5-2.8,3.2v5.7h-1.5v-10h1.4v1.7c0.8-1.2,1.7-1.9,3.2-1.9s2.6,0.7,3.2,2
				c0.8-1.3,1.9-2,3.5-2c2.4,0,3.7,1.7,3.7,4v6.2h-1.5v-5.8c0-1.7-0.7-3-2.6-3c-1.8,0-2.8,1.4-2.8,3.1v5.8h-1.4v-6H444.1z"/>
			<path d="M462.5,292.1c0-1.6-0.9-2.4-2.5-2.4c-1.7,0-2.5,1.1-2.6,2l-1.4-0.3c0.1-0.8,1.2-3,4.1-3c2.1,0,3.2,1,3.7,2.1
				c0.2,0.5,0.3,1.3,0.3,1.6v6.5h-1.4v-1.8l0,0c-0.8,1.2-1.9,1.9-3.4,1.9c-2,0-3.4-1.3-3.4-2.9v-0.1c0-2.2,2.2-2.9,4-2.9h2.8v-0.7
				H462.5z M459.7,294c-1.1,0-2.5,0.3-2.5,1.7c0,1.1,1,1.8,2.2,1.8c1.8,0,3.1-1.3,3.1-3.1V294H459.7z"/>
			<path d="M469.6,283.3v15.3h-1.5v-15.3H469.6z"/>
			<path d="M475.3,283.3v15.3h-1.5v-15.3H475.3z"/>
		</g>
	</g>
	<g>
		<g>
			<path d="M687.2,246.8h-1.5v-12.6l0,0l-5.5,12.6h-1.4l-5.4-12.5v12.5h-1.5v-14.7h2.2l5.5,12.6l5.4-12.6h2.2V246.8z"/>
			<path d="M692.6,242.2c0.1,1.9,1.6,3.4,3.6,3.4c1.5,0,2.6-0.7,3.1-2.1l1.3,0.4c-0.6,1.9-2.4,3-4.4,3c-2.9,0-5.1-2.3-5.1-5.2
				c0-2.7,2.1-5.2,4.9-5.2c3.1,0,4.7,2.2,4.7,5.1c0,0.2,0,0.3,0,0.5h-8.1V242.2z M699.2,241c-0.2-1.8-1.3-3.1-3.2-3.1
				c-1.7,0-3.1,1.4-3.4,3.1H699.2z"/>
			<path d="M708.1,236.6c1.9,0,3.1,1.1,3.9,2.3v-7.3h1.4v15.3H712v-2.1c-0.8,1.3-2,2.3-3.9,2.3c-2.9,0-4.7-2.4-4.7-5.2
				C703.4,239.1,705.3,236.6,708.1,236.6z M712,241.7c0-2-1.5-3.8-3.6-3.8c-2.2,0-3.5,1.7-3.5,3.9c0,2.1,1.3,3.8,3.5,3.8
				C710.5,245.6,712,243.8,712,241.7z"/>
			<path d="M718.4,232.1c0.6,0,1.1,0.5,1.1,1.1s-0.5,1.1-1.1,1.1s-1.1-0.5-1.1-1.1C717.3,232.6,717.8,232.1,718.4,232.1z
				 M719.2,236.8v10h-1.5v-10H719.2z"/>
			<path d="M724.7,242.6c0,1.8,0.9,3,2.8,3c1.7,0,3-1.4,3-3.1v-5.7h1.4v10h-1.4V245c-0.8,1.4-2,2-3.4,2c-2.5,0-3.8-1.7-3.8-4v-6.2
				h1.4V242.6z"/>
			<path d="M743,240.9c0-1.6-0.8-3-2.6-3c-1.7,0-2.8,1.5-2.8,3.2v5.7h-1.5v-10h1.4v1.7c0.8-1.2,1.7-1.9,3.2-1.9s2.6,0.7,3.2,2
				c0.8-1.3,1.9-2,3.5-2c2.4,0,3.7,1.7,3.7,4v6.2h-1.5V241c0-1.7-0.7-3-2.6-3c-1.8,0-2.8,1.4-2.8,3.1v5.8H743V240.9z"/>
		</g>
	</g>
	<g>
		<g>
			<path d="M673.4,283.9v13.2h7v1.4h-8.5v-14.7h1.5V283.9z"/>
			<path d="M689.4,292.1c0-1.6-0.9-2.4-2.5-2.4c-1.7,0-2.5,1.1-2.6,2l-1.4-0.3c0.1-0.8,1.2-3,4.1-3c2.1,0,3.2,1,3.7,2.1
				c0.2,0.5,0.3,1.3,0.3,1.6v6.5h-1.4v-1.8l0,0c-0.8,1.2-1.9,1.9-3.4,1.9c-2,0-3.4-1.3-3.4-2.9v-0.1c0-2.2,2.2-2.9,4-2.9h2.8v-0.7
				H689.4z M686.6,294c-1.1,0-2.5,0.3-2.5,1.7c0,1.1,1,1.8,2.2,1.8c1.8,0,3.1-1.3,3.1-3.1V294H686.6z"/>
			<path d="M696.4,290.5c0.7-1.6,2.1-2.1,3.2-2.1c0.1,0,0.4,0,0.5,0v1.6c-0.2,0-0.4,0-0.6,0c-2.4,0-3.1,1.9-3.1,3.7v4.9h-1.5v-10
				h1.4L696.4,290.5L696.4,290.5z"/>
			<path d="M710.5,296.3c-0.8,1.3-2,2.3-3.9,2.3c-2.9,0-4.7-2.4-4.7-5.1c0-2.6,1.9-5.1,4.7-5.1c1.9,0,3.1,1.1,3.9,2.3v-2.1h1.4v10
				c0,3.2-2,5-5,5c-2.6,0-4.4-1.3-5-3.4l1.3-0.4c0.3,1.2,1.3,2.6,3.6,2.6c1.9,0,3.6-1,3.6-3.6v-2.5H710.5z M710.5,293.4
				c0-2-1.5-3.8-3.6-3.8c-2.2,0-3.5,1.7-3.5,3.9c0,2.1,1.3,3.8,3.5,3.8C709,297.3,710.5,295.5,710.5,293.4z"/>
			<path d="M716.9,294c0.1,1.9,1.6,3.4,3.6,3.4c1.5,0,2.6-0.7,3.1-2.1l1.3,0.4c-0.6,1.9-2.4,3-4.4,3c-2.9,0-5.1-2.3-5.1-5.2
				c0-2.7,2.1-5.2,4.9-5.2c3.1,0,4.7,2.2,4.7,5.1c0,0.2,0,0.3,0,0.5h-8.1V294z M723.6,292.7c-0.2-1.8-1.3-3.1-3.2-3.1
				c-1.7,0-3.1,1.4-3.4,3.1H723.6z"/>
		</g>
	</g>
	<g>
		<g>
			<path d="M338,601.4h13.2v-7h1.4v8.5H338V601.4z"/>
			<path d="M348.1,590.6c1.9-0.1,3.4-1.6,3.4-3.6c0-1.5-0.7-2.6-2.1-3.1l0.4-1.3c1.9,0.6,3,2.4,3,4.4c0,2.9-2.3,5.1-5.2,5.1
				c-2.7,0-5.2-2.1-5.2-4.9c0-3.1,2.2-4.7,5.1-4.7c0.2,0,0.3,0,0.5,0v8.1H348.1z M346.9,583.9c-1.8,0.2-3.1,1.3-3.1,3.2
				c0,1.7,1.4,3.1,3.1,3.4V583.9z"/>
			<path d="M352.9,575.6c0,2.7-1.8,3.6-3,3.8l-0.3-1.3c0.9-0.2,2-0.9,2-2.4c0-1.1-0.6-2.1-1.6-2.1c-1.2,0-1.5,1.3-1.6,2.3
				c-0.2,1.7-0.8,3.3-2.8,3.3c-1.9,0-3-1.7-3-3.4c0-2.6,1.8-3.5,2.7-3.6l0.3,1.3c-0.7,0.2-1.8,0.7-1.8,2.3c0,1.1,0.7,1.9,1.6,1.9
				c1.3,0,1.4-1.3,1.6-2.4c0.2-1.6,1.1-3.3,2.9-3.3C351.7,572,352.9,573.6,352.9,575.6z"/>
			<path d="M352.9,565.1c0,2.7-1.8,3.6-3,3.8l-0.3-1.3c0.9-0.2,2-0.9,2-2.4c0-1.1-0.6-2.1-1.6-2.1c-1.2,0-1.5,1.3-1.6,2.3
				c-0.2,1.7-0.8,3.3-2.8,3.3c-1.9,0-3-1.7-3-3.4c0-2.6,1.8-3.5,2.7-3.6l0.3,1.3c-0.7,0.2-1.8,0.7-1.8,2.3c0,1.1,0.7,1.9,1.6,1.9
				c1.3,0,1.4-1.3,1.6-2.4c0.2-1.6,1.1-3.3,2.9-3.3C351.7,561.5,352.9,563.1,352.9,565.1z"/>
			<path d="M350.1,550.4H344v1.9h-1.3v-1.9h-2.9V549h2.9v-2.5h1.3v2.5h6.1c0.9,0,1.4-0.5,1.4-1.6c0-0.3,0-0.7-0.1-0.9h1.2
				c0.1,0.3,0.2,0.9,0.2,1.1C352.8,549.7,351.6,550.4,350.1,550.4z"/>
			<path d="M346.9,535.4c-1.8,0-3,0.9-3,2.8c0,1.7,1.4,3,3.2,3h5.7v1.5h-15.3v-1.5h7c-1.3-0.8-2-1.9-2-3.4c0-2.5,1.7-3.8,4-3.8h6.2
				v1.5L346.9,535.4L346.9,535.4z"/>
			<path d="M346.3,523.4c-1.6,0-2.4,0.9-2.4,2.5c0,1.7,1.1,2.5,2,2.6l-0.3,1.4c-0.8-0.1-3-1.2-3-4.1c0-2.1,1-3.2,2.1-3.7
				c0.5-0.2,1.3-0.3,1.6-0.3h6.5v1.4H351l0,0c1.2,0.8,1.9,1.9,1.9,3.4c0,2-1.3,3.4-2.9,3.4h-0.1c-2.2,0-2.9-2.2-2.9-4v-2.8h-0.7
				V523.4z M348.1,526.2c0,1.1,0.3,2.5,1.7,2.5c1.1,0,1.8-1,1.8-2.2c0-1.8-1.3-3.1-3.1-3.1h-0.4V526.2z"/>
			<path d="M346.9,510.3c-1.8,0-3,0.9-3,2.8c0,1.7,1.4,3,3.2,3h5.7v1.5h-10v-1.4h1.8c-1.3-0.8-2-2-2-3.4c0-2.5,1.7-3.8,4-3.8h6.2
				v1.5h-5.9V510.3z"/>
			<path d="M339.7,495l2.1,3.5l-1.2,0.7L338,495v-1.5h14.7v1.5H339.7z"/>
			<path d="M346.9,474.7c-1.8,0-3,0.9-3,2.8c0,1.7,1.4,3,3.2,3h5.7v1.5h-15.3v-1.5h7c-1.3-0.8-2-1.9-2-3.4c0-2.5,1.7-3.8,4-3.8h6.2
				v1.5h-5.8V474.7z"/>
			<path d="M347.7,469.5c-3,0-5.2-2.2-5.2-5.2c0-2.9,2.3-5.2,5.1-5.2c3,0,5.2,2.3,5.2,5.2C352.9,467.3,350.6,469.5,347.7,469.5z
				 M347.7,460.7c-2.1,0-3.9,1.5-3.9,3.7s1.8,3.7,3.9,3.7s3.9-1.5,3.9-3.7S349.8,460.7,347.7,460.7z"/>
			<path d="M348.5,454c1.8,0,3-0.9,3-2.8c0-1.7-1.4-3-3.1-3h-5.7v-1.4h10v1.4h-1.8c1.4,0.8,2,2,2,3.4c0,2.5-1.7,3.8-4,3.8h-6.2V454
				H348.5z"/>
			<path d="M344.7,440.7c-1.6-0.7-2.1-2.1-2.1-3.2c0-0.1,0-0.4,0-0.5h1.6c0,0.2,0,0.4,0,0.6c0,2.4,1.9,3.1,3.7,3.1h4.9v1.5h-10v-1.4
				h1.9V440.7z"/>
		</g>
	</g>
	<g>
		<g>
			<path d="M829.2,601.4h13.2v-7h1.4v8.5h-14.7L829.2,601.4L829.2,601.4z"/>
			<path d="M839.3,590.6c1.9-0.1,3.4-1.6,3.4-3.6c0-1.5-0.7-2.6-2.1-3.1l0.4-1.3c1.9,0.6,3,2.4,3,4.4c0,2.9-2.3,5.1-5.2,5.1
				c-2.7,0-5.2-2.1-5.2-4.9c0-3.1,2.2-4.7,5.1-4.7c0.2,0,0.3,0,0.5,0L839.3,590.6L839.3,590.6z M838.1,583.9
				c-1.8,0.2-3.1,1.3-3.1,3.2c0,1.7,1.4,3.1,3.1,3.4V583.9z"/>
			<path d="M844.1,575.6c0,2.7-1.8,3.6-3,3.8l-0.3-1.3c0.9-0.2,2-0.9,2-2.4c0-1.1-0.6-2.1-1.6-2.1c-1.2,0-1.5,1.3-1.6,2.3
				c-0.2,1.7-0.8,3.3-2.8,3.3c-1.9,0-3-1.7-3-3.4c0-2.6,1.8-3.5,2.7-3.6l0.3,1.3c-0.7,0.2-1.8,0.7-1.8,2.3c0,1.1,0.7,1.9,1.6,1.9
				c1.3,0,1.4-1.3,1.6-2.4c0.2-1.6,1.1-3.3,2.9-3.3C842.9,572,844.1,573.6,844.1,575.6z"/>
			<path d="M844.1,565.1c0,2.7-1.8,3.6-3,3.8l-0.3-1.3c0.9-0.2,2-0.9,2-2.4c0-1.1-0.6-2.1-1.6-2.1c-1.2,0-1.5,1.3-1.6,2.3
				c-0.2,1.7-0.8,3.3-2.8,3.3c-1.9,0-3-1.7-3-3.4c0-2.6,1.8-3.5,2.7-3.6l0.3,1.3c-0.7,0.2-1.8,0.7-1.8,2.3c0,1.1,0.7,1.9,1.6,1.9
				c1.3,0,1.4-1.3,1.6-2.4c0.2-1.6,1.1-3.3,2.9-3.3C842.9,561.5,844.1,563.1,844.1,565.1z"/>
			<path d="M841.3,550.4h-6.1v1.9h-1.3v-1.9H831V549h2.9v-2.5h1.3v2.5h6.1c0.9,0,1.4-0.5,1.4-1.6c0-0.3,0-0.7-0.1-0.9h1.2
				c0.1,0.3,0.2,0.9,0.2,1.1C844,549.7,842.8,550.4,841.3,550.4z"/>
			<path d="M838.1,535.4c-1.8,0-3,0.9-3,2.8c0,1.7,1.4,3,3.2,3h5.7v1.5h-15.3v-1.5h7c-1.3-0.8-2-1.9-2-3.4c0-2.5,1.7-3.8,4-3.8h6.2
				v1.5L838.1,535.4L838.1,535.4z"/>
			<path d="M837.4,523.4c-1.6,0-2.4,0.9-2.4,2.5c0,1.7,1.1,2.5,2,2.6l-0.3,1.4c-0.8-0.1-3-1.2-3-4.1c0-2.1,1-3.2,2.1-3.7
				c0.5-0.2,1.3-0.3,1.6-0.3h6.5v1.4h-1.8l0,0c1.2,0.8,1.9,1.9,1.9,3.4c0,2-1.3,3.4-2.9,3.4H841c-2.2,0-2.9-2.2-2.9-4v-2.8h-0.7
				V523.4z M839.3,526.2c0,1.1,0.3,2.5,1.7,2.5c1.1,0,1.8-1,1.8-2.2c0-1.8-1.3-3.1-3.1-3.1h-0.4V526.2z"/>
			<path d="M838.1,510.3c-1.8,0-3,0.9-3,2.8c0,1.7,1.4,3,3.2,3h5.7v1.5h-10v-1.4h1.8c-1.3-0.8-2-2-2-3.4c0-2.5,1.7-3.8,4-3.8h6.2
				v1.5h-5.9V510.3z"/>
			<path d="M830.9,495l2.1,3.5l-1.2,0.7l-2.6-4.3v-1.5h14.7v1.5L830.9,495L830.9,495z"/>
			<path d="M833.7,478c0-1.9,1.1-3.1,2.3-3.9h-7.3v-1.4H844v1.4h-2.1c1.3,0.8,2.3,2,2.3,3.9c0,2.9-2.4,4.7-5.2,4.7
				C836.3,482.6,833.7,480.8,833.7,478z M838.9,474.1c-2,0-3.8,1.5-3.8,3.6c0,2.2,1.7,3.5,3.9,3.5c2.1,0,3.8-1.3,3.8-3.5
				C842.8,475.5,840.9,474.1,838.9,474.1z"/>
			<path d="M837.4,462c-1.6,0-2.4,0.9-2.4,2.5c0,1.7,1.1,2.5,2,2.6l-0.3,1.4c-0.8-0.1-3-1.2-3-4.1c0-2.1,1-3.2,2.1-3.7
				c0.5-0.2,1.3-0.3,1.6-0.3h6.5v1.4h-1.8l0,0c1.2,0.8,1.9,1.9,1.9,3.4c0,2-1.3,3.4-2.9,3.4H841c-2.2,0-2.9-2.2-2.9-4V462H837.4z
				 M839.3,464.8c0,1.1,0.3,2.5,1.7,2.5c1.1,0,1.8-1,1.8-2.2c0-1.8-1.3-3.1-3.1-3.1h-0.4V464.8z"/>
			<path d="M843.2,453.1l-9.3,4.6V456l7.7-3.7l-7.7-3.5v-1.6l14.9,6.9v1.6L843.2,453.1z"/>
		</g>
	</g>
	<g>
		<g>
			<path d="M829.2,1000.9h13.2v-7h1.4v8.5h-14.7L829.2,1000.9L829.2,1000.9z"/>
			<path d="M839.3,990.1c1.9-0.1,3.4-1.6,3.4-3.6c0-1.5-0.7-2.6-2.1-3.1l0.4-1.3c1.9,0.6,3,2.4,3,4.4c0,2.9-2.3,5.1-5.2,5.1
				c-2.7,0-5.2-2.1-5.2-4.9c0-3.1,2.2-4.7,5.1-4.7c0.2,0,0.3,0,0.5,0L839.3,990.1L839.3,990.1z M838.1,983.4
				c-1.8,0.2-3.1,1.3-3.1,3.2c0,1.7,1.4,3.1,3.1,3.4V983.4z"/>
			<path d="M844.1,975.1c0,2.7-1.8,3.6-3,3.8l-0.3-1.3c0.9-0.2,2-0.9,2-2.4c0-1.1-0.6-2.1-1.6-2.1c-1.2,0-1.5,1.3-1.6,2.3
				c-0.2,1.7-0.8,3.3-2.8,3.3c-1.9,0-3-1.7-3-3.4c0-2.6,1.8-3.5,2.7-3.6l0.3,1.3c-0.7,0.2-1.8,0.7-1.8,2.3c0,1.1,0.7,1.9,1.6,1.9
				c1.3,0,1.4-1.3,1.6-2.4c0.2-1.6,1.1-3.3,2.9-3.3C842.9,971.5,844.1,973.1,844.1,975.1z"/>
			<path d="M844.1,964.6c0,2.7-1.8,3.6-3,3.8l-0.3-1.3c0.9-0.2,2-0.9,2-2.4c0-1.1-0.6-2.1-1.6-2.1c-1.2,0-1.5,1.3-1.6,2.3
				c-0.2,1.7-0.8,3.3-2.8,3.3c-1.9,0-3-1.7-3-3.4c0-2.6,1.8-3.5,2.7-3.6l0.3,1.3c-0.7,0.2-1.8,0.7-1.8,2.3c0,1.1,0.7,1.9,1.6,1.9
				c1.3,0,1.4-1.3,1.6-2.4c0.2-1.6,1.1-3.3,2.9-3.3C842.9,961,844.1,962.6,844.1,964.6z"/>
			<path d="M841.3,949.9h-6.1v1.9h-1.3v-1.9H831v-1.4h2.9V946h1.3v2.5h6.1c0.9,0,1.4-0.5,1.4-1.6c0-0.3,0-0.7-0.1-0.9h1.2
				c0.1,0.3,0.2,0.9,0.2,1.1C844,949.2,842.8,949.9,841.3,949.9z"/>
			<path d="M838.1,934.9c-1.8,0-3,0.9-3,2.8c0,1.7,1.4,3,3.2,3h5.7v1.5h-15.3v-1.5h7c-1.3-0.8-2-1.9-2-3.4c0-2.5,1.7-3.8,4-3.8h6.2
				v1.5L838.1,934.9L838.1,934.9z"/>
			<path d="M837.4,923c-1.6,0-2.4,0.9-2.4,2.5c0,1.7,1.1,2.5,2,2.6l-0.3,1.4c-0.8-0.1-3-1.2-3-4.1c0-2.1,1-3.2,2.1-3.7
				c0.5-0.2,1.3-0.3,1.6-0.3h6.5v1.4h-1.8l0,0c1.2,0.8,1.9,1.9,1.9,3.4c0,2-1.3,3.4-2.9,3.4H841c-2.2,0-2.9-2.2-2.9-4V923H837.4z
				 M839.3,925.7c0,1.1,0.3,2.5,1.7,2.5c1.1,0,1.8-1,1.8-2.2c0-1.8-1.3-3.1-3.1-3.1h-0.4V925.7z"/>
			<path d="M838.1,909.8c-1.8,0-3,0.9-3,2.8c0,1.7,1.4,3,3.2,3h5.7v1.5h-10v-1.4h1.8c-1.3-0.8-2-2-2-3.4c0-2.5,1.7-3.8,4-3.8h6.2
				v1.5h-5.9V909.8z"/>
			<path d="M830.9,894.5l2.1,3.5l-1.2,0.7l-2.6-4.3V893h14.7v1.5H830.9z"/>
			<path d="M838,874.6c-1.6,0-3,0.8-3,2.6c0,1.7,1.5,2.8,3.2,2.8h5.7v1.5h-10V880h1.7c-1.2-0.8-1.9-1.7-1.9-3.2s0.7-2.6,2-3.2
				c-1.3-0.8-2-1.9-2-3.5c0-2.4,1.7-3.7,4-3.7h6.2v1.5h-5.8c-1.7,0-3,0.8-3,2.6s1.4,2.8,3.1,2.8h5.8v1.4L838,874.6L838,874.6z"/>
			<path d="M838.9,862.6c-3,0-5.2-2.2-5.2-5.2c0-2.9,2.3-5.2,5.1-5.2c3,0,5.2,2.3,5.2,5.2C844.1,860.4,841.8,862.6,838.9,862.6z
				 M838.9,853.8c-2.1,0-3.9,1.5-3.9,3.7s1.8,3.7,3.9,3.7s3.9-1.5,3.9-3.7C842.8,855.3,841,853.8,838.9,853.8z"/>
			<path d="M838.1,841.2c-1.8,0-3,0.9-3,2.8c0,1.7,1.4,3,3.2,3h5.7v1.5h-10v-1.4h1.8c-1.3-0.8-2-2-2-3.4c0-2.5,1.7-3.8,4-3.8h6.2
				v1.5h-5.9V841.2z"/>
			<path d="M841.3,834.6h-6.1v1.9h-1.3v-1.9H831v-1.4h2.9v-2.5h1.3v2.5h6.1c0.9,0,1.4-0.5,1.4-1.6c0-0.3,0-0.7-0.1-0.9h1.2
				c0.1,0.3,0.2,0.9,0.2,1.1C844,834,842.8,834.6,841.3,834.6z"/>
			<path d="M838.1,819.7c-1.8,0-3,0.9-3,2.8c0,1.7,1.4,3,3.2,3h5.7v1.5h-15.3v-1.5h7c-1.3-0.8-2-1.9-2-3.4c0-2.5,1.7-3.8,4-3.8h6.2
				v1.5L838.1,819.7L838.1,819.7z"/>
		</g>
	</g>
	<g>
		<g>
			<path d="M338,1000.9h13.2v-7h1.4v8.5H338V1000.9z"/>
			<path d="M348.1,990.1c1.9-0.1,3.4-1.6,3.4-3.6c0-1.5-0.7-2.6-2.1-3.1l0.4-1.3c1.9,0.6,3,2.4,3,4.4c0,2.9-2.3,5.1-5.2,5.1
				c-2.7,0-5.2-2.1-5.2-4.9c0-3.1,2.2-4.7,5.1-4.7c0.2,0,0.3,0,0.5,0v8.1H348.1z M346.9,983.4c-1.8,0.2-3.1,1.3-3.1,3.2
				c0,1.7,1.4,3.1,3.1,3.4V983.4z"/>
			<path d="M352.9,975.1c0,2.7-1.8,3.6-3,3.8l-0.3-1.3c0.9-0.2,2-0.9,2-2.4c0-1.1-0.6-2.1-1.6-2.1c-1.2,0-1.5,1.3-1.6,2.3
				c-0.2,1.7-0.8,3.3-2.8,3.3c-1.9,0-3-1.7-3-3.4c0-2.6,1.8-3.5,2.7-3.6l0.3,1.3c-0.7,0.2-1.8,0.7-1.8,2.3c0,1.1,0.7,1.9,1.6,1.9
				c1.3,0,1.4-1.3,1.6-2.4c0.2-1.6,1.1-3.3,2.9-3.3C351.7,971.5,352.9,973.1,352.9,975.1z"/>
			<path d="M352.9,964.6c0,2.7-1.8,3.6-3,3.8l-0.3-1.3c0.9-0.2,2-0.9,2-2.4c0-1.1-0.6-2.1-1.6-2.1c-1.2,0-1.5,1.3-1.6,2.3
				c-0.2,1.7-0.8,3.3-2.8,3.3c-1.9,0-3-1.7-3-3.4c0-2.6,1.8-3.5,2.7-3.6l0.3,1.3c-0.7,0.2-1.8,0.7-1.8,2.3c0,1.1,0.7,1.9,1.6,1.9
				c1.3,0,1.4-1.3,1.6-2.4c0.2-1.6,1.1-3.3,2.9-3.3C351.7,961,352.9,962.6,352.9,964.6z"/>
			<path d="M350.1,949.9H344v1.9h-1.3v-1.9h-2.9v-1.4h2.9V946h1.3v2.5h6.1c0.9,0,1.4-0.5,1.4-1.6c0-0.3,0-0.7-0.1-0.9h1.2
				c0.1,0.3,0.2,0.9,0.2,1.1C352.8,949.2,351.6,949.9,350.1,949.9z"/>
			<path d="M346.9,934.9c-1.8,0-3,0.9-3,2.8c0,1.7,1.4,3,3.2,3h5.7v1.5h-15.3v-1.5h7c-1.3-0.8-2-1.9-2-3.4c0-2.5,1.7-3.8,4-3.8h6.2
				v1.5L346.9,934.9L346.9,934.9z"/>
			<path d="M346.3,923c-1.6,0-2.4,0.9-2.4,2.5c0,1.7,1.1,2.5,2,2.6l-0.3,1.4c-0.8-0.1-3-1.2-3-4.1c0-2.1,1-3.2,2.1-3.7
				c0.5-0.2,1.3-0.3,1.6-0.3h6.5v1.4H351l0,0c1.2,0.8,1.9,1.9,1.9,3.4c0,2-1.3,3.4-2.9,3.4h-0.1c-2.2,0-2.9-2.2-2.9-4V923H346.3z
				 M348.1,925.7c0,1.1,0.3,2.5,1.7,2.5c1.1,0,1.8-1,1.8-2.2c0-1.8-1.3-3.1-3.1-3.1h-0.4V925.7z"/>
			<path d="M346.9,909.8c-1.8,0-3,0.9-3,2.8c0,1.7,1.4,3,3.2,3h5.7v1.5h-10v-1.4h1.8c-1.3-0.8-2-2-2-3.4c0-2.5,1.7-3.8,4-3.8h6.2
				v1.5h-5.9V909.8z"/>
			<path d="M339.7,894.5l2.1,3.5l-1.2,0.7l-2.6-4.3V893h14.7v1.5H339.7z"/>
			<path d="M352.7,879.3l-10,3.4v-1.6l8.3-2.6l0,0l-8.3-2.7v-1.5l8.3-2.7l0,0l-8.3-2.6v-1.5l10,3.4v1.6l-8.1,2.6l0,0l8.1,2.7V879.3z
				"/>
			<path d="M348.1,863.4c1.9-0.1,3.4-1.6,3.4-3.6c0-1.5-0.7-2.6-2.1-3.1l0.4-1.3c1.9,0.6,3,2.4,3,4.4c0,2.9-2.3,5.1-5.2,5.1
				c-2.7,0-5.2-2.1-5.2-4.9c0-3.1,2.2-4.7,5.1-4.7c0.2,0,0.3,0,0.5,0v8.1H348.1z M346.9,856.7c-1.8,0.2-3.1,1.3-3.1,3.2
				c0,1.7,1.4,3.1,3.1,3.4V856.7z"/>
			<path d="M348.1,850.7c1.9-0.1,3.4-1.6,3.4-3.6c0-1.5-0.7-2.6-2.1-3.1l0.4-1.3c1.9,0.6,3,2.4,3,4.4c0,2.9-2.3,5.1-5.2,5.1
				c-2.7,0-5.2-2.1-5.2-4.9c0-3.1,2.2-4.7,5.1-4.7c0.2,0,0.3,0,0.5,0v8.1H348.1z M346.9,844c-1.8,0.2-3.1,1.3-3.1,3.2
				c0,1.7,1.4,3.1,3.1,3.4V844z"/>
			<path d="M352.7,837.3v1.5h-15.3v-1.5h9.3l-4.1-4.8v-2.1l4.5,5.3l5.5-5.5v2l-5,5v0.1H352.7z"/>
		</g>
	</g>
	<g>
		<g>
			<path d="M376.2,64.1l-3.5,2.1L372,65l4.3-2.6h1.5v14.7h-1.5L376.2,64.1L376.2,64.1z"/>
			<path d="M380.8,69.9c0-3.6,2.1-7.5,6.1-7.5s6,3.8,6,7.5s-2.1,7.5-6.1,7.5C382.9,77.3,380.8,73.5,380.8,69.9z M382.4,69.8
				c0,2.6,1.3,6.1,4.5,6.1s4.5-3.4,4.5-6s-1.4-6.1-4.5-6.1S382.4,67.2,382.4,69.8z"/>
			<path d="M400.3,62.7h2.8l6.6,21.3h0.1l6.6-21.3h3l6.7,21.5h0.1l6.6-21.5h2.7l-7.9,25.1h-3l-6.7-21.6L411,87.9h-2.9L400.3,62.7z"
				/>
			<path d="M451.4,77.9c0-3.1-1.6-5.2-4.8-5.2c-3,0-5.1,2.4-5.1,5.4v9.8H439V61.7h2.5v12.1c1.3-2.2,3.3-3.4,5.9-3.4
				c4.2,0,6.5,2.9,6.5,6.9v10.6h-2.5V77.9z"/>
			<path d="M469.7,76.8c0-2.8-1.5-4.2-4.4-4.2s-4.2,1.9-4.5,3.5l-2.4-0.5c0.1-1.4,2.1-5.2,7-5.2c3.6,0,5.4,1.6,6.3,3.5
				c0.4,0.9,0.5,2.3,0.5,2.8v11.1h-2.4v-3l0,0c-1.3,2.1-3.2,3.3-5.8,3.3c-3.5,0-5.7-2.2-5.7-5v-0.2c0-3.7,3.7-4.9,6.8-4.9h4.8v-1.2
				H469.7z M464.9,80c-1.8,0-4.2,0.6-4.2,2.9c0,1.9,1.6,3,3.7,3c3.1,0,5.3-2.2,5.3-5.3V80H464.9z"/>
			<path d="M478.6,83.4V72.9h-3.2v-2.2h3.2v-4.9h2.5v4.9h4.3v2.2h-4.3v10.4c0,1.5,0.9,2.4,2.8,2.4c0.5,0,1.2,0,1.5-0.1v2.1
				c-0.5,0.2-1.5,0.3-2,0.3C479.7,88,478.6,85.9,478.6,83.4z"/>
			<path d="M499.8,62.7c1.1,0,1.9,0.8,1.9,1.9c0,1-0.8,1.9-1.9,1.9c-1,0-1.9-0.8-1.9-1.9C498,63.5,498.8,62.7,499.8,62.7z
				 M501.1,70.7v17.2h-2.5V70.7H501.1z"/>
			<path d="M512,88.1c-4.7,0-6.2-3.1-6.5-5.1l2.3-0.5c0.4,1.5,1.5,3.4,4.2,3.4c1.9,0,3.6-1,3.6-2.8c0-2.1-2.2-2.6-4-2.8
				c-2.9-0.4-5.7-1.4-5.7-4.8c0-3.2,2.9-5.1,5.7-5.1c4.5,0,6,3,6.2,4.7l-2.3,0.5c-0.3-1.2-1.2-3-4-3c-1.9,0-3.2,1.3-3.2,2.7
				c0,2.2,2.3,2.5,4.1,2.7c2.8,0.4,5.6,1.8,5.6,4.9C518.1,86.1,515.3,88.1,512,88.1z"/>
			<path d="M536.4,86.7l-7.8-16h2.9l6.3,13.3l5.9-13.3h2.7l-11.8,25.6H532L536.4,86.7z"/>
			<path d="M548,79.3c0-5.1,3.8-8.9,8.9-8.9c4.9,0,8.8,3.9,8.8,8.8c0,5.1-3.9,8.9-8.9,8.9C551.8,88.1,548,84.2,548,79.3z
				 M563.2,79.3c0-3.6-2.6-6.7-6.3-6.7s-6.3,3-6.3,6.6s2.6,6.7,6.3,6.7C560.6,85.9,563.2,82.9,563.2,79.3z"/>
			<path d="M572.4,80.7c0,3.1,1.6,5.2,4.8,5.2c3,0,5.1-2.3,5.1-5.4v-9.8h2.5v17.2h-2.4v-3.1c-1.3,2.3-3.4,3.5-5.9,3.5
				c-4.2,0-6.5-2.9-6.5-6.9V70.7h2.5L572.4,80.7L572.4,80.7z"/>
			<path d="M592.9,74.1c1.3-2.7,3.6-3.7,5.5-3.7c0.2,0,0.6,0,0.8,0v2.7c-0.3,0-0.6-0.1-1-0.1c-4,0-5.4,3.3-5.4,6.4v8.4h-2.5V70.7
				h2.5v3.4H592.9z"/>
			<path d="M637.5,87.9h-2.6V66.3l0,0l-9.3,21.6h-2.4l-9.3-21.4v21.4h-2.6V62.7h3.7l9.4,21.6l9.3-21.6h3.8L637.5,87.9L637.5,87.9z"
				/>
			<path d="M654.2,76.8c0-2.8-1.5-4.2-4.4-4.2s-4.2,1.9-4.5,3.5l-2.4-0.5c0.1-1.4,2.1-5.2,7-5.2c3.6,0,5.4,1.6,6.3,3.5
				c0.4,0.9,0.5,2.3,0.5,2.8v11.1h-2.4v-3l0,0c-1.3,2.1-3.2,3.3-5.8,3.3c-3.5,0-5.7-2.2-5.7-5v-0.2c0-3.7,3.7-4.9,6.8-4.9h4.8v-1.2
				H654.2z M649.4,80c-1.8,0-4.2,0.6-4.2,2.9c0,1.9,1.6,3,3.7,3c3.1,0,5.3-2.2,5.3-5.3V80H649.4z"/>
			<path d="M662.8,87.9h-2.9l6.7-8.7l-6.5-8.4h3l5.1,6.6l5.1-6.6h2.9l-6.5,8.4l6.8,8.7h-3l-5.3-7L662.8,87.9z"/>
			<path d="M681.1,62.7c1.1,0,1.9,0.8,1.9,1.9c0,1-0.8,1.9-1.9,1.9c-1,0-1.9-0.8-1.9-1.9C679.2,63.5,680,62.7,681.1,62.7z
				 M682.4,70.7v17.2h-2.5V70.7H682.4z"/>
			<path d="M699.7,77.8c0-2.8-1.3-5.1-4.4-5.1c-3,0-4.8,2.6-4.8,5.4v9.8H688V70.7h2.5v3c1.4-2.1,3-3.3,5.5-3.3s4.5,1.2,5.5,3.4
				c1.4-2.2,3.3-3.4,6-3.4c4.1,0,6.3,2.9,6.3,6.8v10.6h-2.5v-10c0-2.9-1.3-5.2-4.4-5.2c-3,0-4.8,2.4-4.8,5.3v9.9h-2.5v-10H699.7z"/>
			<path d="M721.6,80.7c0,3.1,1.6,5.2,4.8,5.2c3,0,5.1-2.3,5.1-5.4v-9.8h2.5v17.2h-2.4v-3.1c-1.3,2.3-3.4,3.5-5.9,3.5
				c-4.2,0-6.5-2.9-6.5-6.9V70.7h2.5L721.6,80.7L721.6,80.7z"/>
			<path d="M751.3,77.8c0-2.8-1.3-5.1-4.4-5.1c-3,0-4.8,2.6-4.8,5.4v9.8h-2.5V70.7h2.5v3c1.4-2.1,3-3.3,5.5-3.3s4.5,1.2,5.5,3.4
				c1.4-2.2,3.3-3.4,6-3.4c4.1,0,6.3,2.9,6.3,6.8v10.6H763v-10c0-2.9-1.3-5.2-4.4-5.2c-3,0-4.8,2.4-4.8,5.3v9.9h-2.5V77.8z"/>
			<path d="M785,87.9V65.2h-8.4v-2.5h19.5v2.5h-8.4v22.7C787.7,87.9,785,87.9,785,87.9z"/>
			<path d="M795,79.3c0-5.1,3.8-8.9,8.9-8.9c4.9,0,8.8,3.9,8.8,8.8c0,5.1-3.9,8.9-8.9,8.9C798.9,88.1,795,84.2,795,79.3z
				 M810.2,79.3c0-3.6-2.6-6.7-6.3-6.7s-6.3,3-6.3,6.6s2.6,6.7,6.3,6.7C807.6,85.9,810.2,82.9,810.2,79.3z"/>
			<path d="M819.7,61.7v26.2h-2.5V61.7H819.7z"/>
			<path d="M826.6,80c0.2,3.3,2.8,5.9,6.1,5.9c2.5,0,4.5-1.3,5.3-3.7l2.2,0.7c-1,3.3-4.1,5.2-7.5,5.2c-5,0-8.7-4-8.7-8.9
				c0-4.7,3.5-8.8,8.4-8.8c5.3,0,8.1,3.8,8.1,8.8c0,0.3,0,0.6,0,0.8H826.6z M838,77.9c-0.3-3.1-2.3-5.3-5.6-5.3
				c-3,0-5.4,2.5-5.8,5.3H838z"/>
			<path d="M847.3,74.1c1.3-2.7,3.6-3.7,5.5-3.7c0.2,0,0.6,0,0.8,0v2.7c-0.3,0-0.6-0.1-1-0.1c-4,0-5.4,3.3-5.4,6.4v8.4h-2.5V70.7
				h2.5v3.4H847.3z"/>
			<path d="M867,76.8c0-2.8-1.5-4.2-4.4-4.2s-4.2,1.9-4.5,3.5l-2.4-0.5c0.1-1.4,2.1-5.2,7-5.2c3.6,0,5.4,1.6,6.3,3.5
				c0.4,0.9,0.5,2.3,0.5,2.8v11.1H867v-3l0,0c-1.3,2.1-3.2,3.3-5.8,3.3c-3.5,0-5.8-2.2-5.8-5v-0.2c0-3.7,3.7-4.9,6.8-4.9h4.8V76.8z
				 M862.2,80c-1.8,0-4.2,0.6-4.2,2.9c0,1.9,1.6,3,3.7,3c3.1,0,5.3-2.2,5.3-5.3V80H862.2z"/>
			<path d="M884,88.1c-3.2,0-5.3-1.6-6.6-3.9v3.6h-2.5V61.7h2.5v12.7c1.4-2.2,3.4-4,6.6-4c4.9,0,8.1,4.4,8.1,8.8
				C892.1,83.9,888.9,88.1,884,88.1z M889.5,79.3c0-3.6-2.2-6.7-6-6.7c-3.5,0-6.1,3.1-6.1,6.6s2.5,6.7,6.1,6.7
				C887.3,85.9,889.5,82.9,889.5,79.3z"/>
			<path d="M899,61.7v26.2h-2.5V61.7H899z"/>
			<path d="M906,80c0.2,3.3,2.8,5.9,6.1,5.9c2.5,0,4.5-1.3,5.3-3.7l2.2,0.7c-1,3.3-4.1,5.2-7.5,5.2c-5,0-8.7-4-8.7-8.9
				c0-4.7,3.5-8.8,8.4-8.8c5.3,0,8.1,3.8,8.1,8.8c0,0.3,0,0.6,0,0.8H906z M917.4,77.9c-0.3-3.1-2.3-5.3-5.6-5.3
				c-3,0-5.4,2.5-5.8,5.3H917.4z"/>
			<path d="M402,126.4h-2.6v-25.1h8.4c6.1,0,8.8,3.6,8.8,7.5c0,4.3-3.2,7.8-9.3,7.8H402V126.4z M402,114.1h5.4
				c4.6,0,6.5-2.7,6.5-5.2s-1.4-5.2-6.4-5.2H402V114.1z"/>
			<path d="M421.2,118.6c0.2,3.3,2.8,5.9,6.1,5.9c2.5,0,4.5-1.3,5.3-3.7l2.2,0.7c-1,3.3-4.1,5.2-7.5,5.2c-5,0-8.7-4-8.7-8.9
				c0-4.7,3.5-8.8,8.4-8.8c5.3,0,8.1,3.8,8.1,8.8c0,0.3,0,0.6,0,0.8H421.2z M432.6,116.5c-0.3-3.1-2.3-5.3-5.6-5.3
				c-3,0-5.4,2.5-5.8,5.3H432.6z"/>
			<path d="M441.9,112.7c1.3-2.7,3.6-3.7,5.5-3.7c0.2,0,0.6,0,0.8,0v2.7c-0.3,0-0.6-0.1-1-0.1c-4,0-5.4,3.3-5.4,6.4v8.4h-2.5v-17.2
				h2.5v3.5H441.9z"/>
			<path d="M452.9,101.2c1.1,0,1.9,0.8,1.9,1.9c0,1-0.8,1.9-1.9,1.9c-1,0-1.9-0.8-1.9-1.9C451,102.1,451.8,101.2,452.9,101.2z
				 M454.2,109.2v17.2h-2.5v-17.2H454.2z"/>
			<path d="M458.6,117.9c0-5.1,3.8-8.9,8.9-8.9c4.9,0,8.8,3.9,8.8,8.8c0,5.1-3.9,8.9-8.9,8.9C462.4,126.7,458.6,122.8,458.6,117.9z
				 M473.7,117.9c0-3.6-2.6-6.7-6.3-6.7c-3.7,0-6.3,3-6.3,6.6s2.6,6.7,6.3,6.7S473.7,121.5,473.7,117.9z"/>
			<path d="M487.5,109c3.3,0,5.3,1.9,6.6,3.9v-12.6h2.5v26.1h-2.4v-3.7c-1.3,2.2-3.4,3.9-6.7,3.9c-4.9,0-8-4.2-8-8.9
				C479.5,113.3,482.6,109,487.5,109z M494.2,117.8c0-3.4-2.6-6.6-6.2-6.6c-3.8,0-6,3-6,6.7c0,3.5,2.2,6.6,6,6.6
				C491.6,124.4,494.2,121.3,494.2,117.8z"/>
			<path d="M510,117.9c0-5.1,3.8-8.9,8.9-8.9c4.9,0,8.8,3.9,8.8,8.8c0,5.1-3.9,8.9-8.9,8.9C513.9,126.7,510,122.8,510,117.9z
				 M525.2,117.9c0-3.6-2.6-6.7-6.3-6.7s-6.3,3-6.3,6.6s2.6,6.7,6.3,6.7C522.6,124.5,525.2,121.5,525.2,117.9z"/>
			<path d="M535.6,106v3.2h4.5v2.2h-4.5v15h-2.5v-15h-3.3v-2.2h3.3V106c0-4,2.2-5.9,5.3-5.9c0.4,0,1.2,0.1,1.9,0.3v2.1
				c-0.7-0.2-1.4-0.2-1.8-0.2C537.2,102.4,535.6,103.1,535.6,106z"/>
			<path d="M559.8,101.2c7.8,0,13.3,5.4,13.3,12.5c0,7.5-5.9,12.6-13.3,12.6h-7.5v-25.1H559.8z M559.7,123.9
				c6.4,0,10.6-4.2,10.6-10.1c0-5.8-4.1-10.1-10.7-10.1H555v20.2C555,123.9,559.7,123.9,559.7,123.9z"/>
			<path d="M578.9,101.2c1.1,0,1.9,0.8,1.9,1.9c0,1-0.8,1.9-1.9,1.9c-1,0-1.9-0.8-1.9-1.9C577,102.1,577.9,101.2,578.9,101.2z
				 M580.2,109.2v17.2h-2.5v-17.2H580.2z"/>
			<path d="M591.1,126.7c-4.7,0-6.2-3.1-6.5-5.1l2.3-0.5c0.4,1.5,1.5,3.4,4.2,3.4c1.9,0,3.6-1,3.6-2.8c0-2.1-2.2-2.6-4-2.8
				c-2.9-0.4-5.7-1.4-5.7-4.8c0-3.2,2.9-5.1,5.7-5.1c4.5,0,6,3,6.2,4.7l-2.3,0.5c-0.3-1.2-1.2-3-4-3c-1.9,0-3.2,1.3-3.2,2.7
				c0,2.2,2.3,2.5,4.1,2.7c2.8,0.4,5.6,1.8,5.6,4.9C597.2,124.7,594.4,126.7,591.1,126.7z"/>
			<path d="M604.1,112.7c1.3-2.7,3.6-3.7,5.5-3.7c0.2,0,0.6,0,0.8,0v2.7c-0.3,0-0.6-0.1-1-0.1c-4,0-5.4,3.3-5.4,6.4v8.4h-2.5v-17.2
				h2.5v3.5H604.1z"/>
			<path d="M616.1,119.2c0,3.1,1.6,5.2,4.8,5.2c3,0,5.1-2.3,5.1-5.4v-9.8h2.5v17.2H626v-3.1c-1.3,2.3-3.4,3.5-5.9,3.5
				c-4.2,0-6.5-2.9-6.5-6.9v-10.6h2.5V119.2z"/>
			<path d="M643.2,126.7c-3.2,0-5.2-1.6-6.6-3.8v12h-2.5v-25.6h2.5v3.7c1.4-2.2,3.4-4,6.6-4c4.9,0,8.1,4.4,8.1,8.8
				C651.3,122.4,648.1,126.7,643.2,126.7z M648.7,117.9c0-3.6-2.2-6.7-6-6.7c-3.5,0-6.1,3.1-6.1,6.6s2.5,6.7,6.1,6.7
				C646.5,124.4,648.7,121.5,648.7,117.9z"/>
			<path d="M656.6,122v-10.5h-3.2v-2.2h3.2v-4.9h2.5v4.9h4.3v2.2h-4.3v10.4c0,1.5,0.9,2.4,2.8,2.4c0.5,0,1.2,0,1.5-0.1v2.1
				c-0.5,0.2-1.5,0.3-2,0.3C657.8,126.5,656.6,124.5,656.6,122z"/>
			<path d="M668.9,101.2c1.1,0,1.9,0.8,1.9,1.9c0,1-0.8,1.9-1.9,1.9c-1,0-1.9-0.8-1.9-1.9C667.1,102.1,667.9,101.2,668.9,101.2z
				 M670.2,109.2v17.2h-2.5v-17.2H670.2z"/>
			<path d="M674.6,117.9c0-5.1,3.8-8.9,8.9-8.9c4.9,0,8.8,3.9,8.8,8.8c0,5.1-3.9,8.9-8.9,8.9C678.5,126.7,674.6,122.8,674.6,117.9z
				 M689.8,117.9c0-3.6-2.6-6.7-6.3-6.7s-6.3,3-6.3,6.6s2.6,6.7,6.3,6.7S689.8,121.5,689.8,117.9z"/>
			<path d="M709.1,116.4c0-3.1-1.6-5.2-4.8-5.2c-3,0-5.1,2.4-5.1,5.4v9.8h-2.5v-17.2h2.5v3.1c1.3-2.3,3.4-3.5,5.9-3.5
				c4.2,0,6.5,2.9,6.5,6.9v10.6h-2.5L709.1,116.4L709.1,116.4z"/>
			<path d="M720.5,119.1c0-0.2,0-0.4,0-0.6c0-3,1.8-4.4,3.2-5.9s3.2-2.9,3.2-5.1c0-2.1-1.4-4.1-4.7-4.1c-3.2,0-5,2.4-4.8,5.5
				l-2.6-0.1c0-0.3,0-0.5,0-0.7c0-4.1,3.4-7.1,7.4-7.1c4.5,0,7.4,3.1,7.4,6.6c0,2.5-1.5,4.1-3.8,6.4c-1.6,1.6-2.8,2.7-2.9,5.2h-2.4
				V119.1z M721.6,126.7c1.1,0,1.9-0.8,1.9-1.9c0-1-0.8-1.9-1.9-1.9c-1,0-1.9,0.8-1.9,1.9C719.7,125.9,720.6,126.7,721.6,126.7z"/>
		</g>
	</g>
</g>
</svg>
