<?xml version="1.0" encoding="utf-8"?>
<!-- Generator: Adobe Illustrator 21.1.0, SVG Export Plug-In . SVG Version: 6.00 Build 0)  -->
<svg version="1.1" id="graphNineCyber" xmlns="http://www.w3.org/2000/svg" xmlns:xlink="http://www.w3.org/1999/xlink" x="0px"
	 y="0px" viewBox="0 0 1500 1053" style="enable-background:new 0 0 1500 1053;" xml:space="preserve">
<style type="text/css">
	.st0{fill:none;}
	.st1{fill:none;stroke:#F6F6F8;stroke-width:2;stroke-linecap:round;stroke-miterlimit:10;}
	.st2{fill:none;stroke:#F6F6F8;stroke-width:2;stroke-linecap:round;stroke-miterlimit:10;stroke-dasharray:0,10;}
	.st3{fill:#F6F6F8;}
	.st4{fill:#F76C6C;}
	.st5{opacity:0.73;}
	.st6{fill:#0000FF;}
	.st7{fill:url(#SVGID_1_);}
	.st8{fill:#FFFFFF;}
	.st9{opacity:0.9;}
	.st10{opacity:0.2;}
	.st11{fill:url(#SVGID_2_);}
	.st12{fill:url(#SVGID_3_);}
</style>
<pattern  y="1053" width="240" height="240" patternUnits="userSpaceOnUse" id="white" viewBox="1 -241 240 240" style="overflow:visible;">
	<g>
		<rect x="1" y="-241" class="st0" width="240" height="240"/>
		<g>
			<g>
				<line class="st1" x1="241" y1="-1" x2="241" y2="-1"/>
			</g>
		</g>
		<g>
			<g>
				<line class="st1" x1="1" y1="-1" x2="1" y2="-1"/>
				<line class="st2" x1="11" y1="-1" x2="236" y2="-1"/>
				<line class="st1" x1="241" y1="-1" x2="241" y2="-1"/>
			</g>
		</g>
		<g>
			<g>
				<line class="st1" x1="1" y1="-1" x2="1" y2="-1"/>
			</g>
		</g>
		<g>
			<g>
				<line class="st1" x1="241" y1="-241" x2="241" y2="-241"/>
			</g>
			<g>
				<line class="st1" x1="241" y1="-231" x2="241" y2="-231"/>
			</g>
			<g>
				<line class="st1" x1="241" y1="-221" x2="241" y2="-221"/>
			</g>
			<g>
				<line class="st1" x1="241" y1="-211" x2="241" y2="-211"/>
			</g>
			<g>
				<line class="st1" x1="241" y1="-201" x2="241" y2="-201"/>
			</g>
			<g>
				<line class="st1" x1="241" y1="-191" x2="241" y2="-191"/>
			</g>
			<g>
				<line class="st1" x1="241" y1="-181" x2="241" y2="-181"/>
			</g>
			<g>
				<line class="st1" x1="241" y1="-171" x2="241" y2="-171"/>
			</g>
			<g>
				<line class="st1" x1="241" y1="-161" x2="241" y2="-161"/>
			</g>
			<g>
				<line class="st1" x1="241" y1="-151" x2="241" y2="-151"/>
			</g>
			<g>
				<line class="st1" x1="241" y1="-141" x2="241" y2="-141"/>
			</g>
			<g>
				<line class="st1" x1="241" y1="-131" x2="241" y2="-131"/>
			</g>
			<g>
				<line class="st1" x1="241" y1="-121" x2="241" y2="-121"/>
			</g>
			<g>
				<line class="st1" x1="241" y1="-111" x2="241" y2="-111"/>
			</g>
			<g>
				<line class="st1" x1="241" y1="-101" x2="241" y2="-101"/>
			</g>
			<g>
				<line class="st1" x1="241" y1="-91" x2="241" y2="-91"/>
			</g>
			<g>
				<line class="st1" x1="241" y1="-81" x2="241" y2="-81"/>
			</g>
			<g>
				<line class="st1" x1="241" y1="-71" x2="241" y2="-71"/>
			</g>
			<g>
				<line class="st1" x1="241" y1="-61" x2="241" y2="-61"/>
			</g>
			<g>
				<line class="st1" x1="241" y1="-51" x2="241" y2="-51"/>
			</g>
			<g>
				<line class="st1" x1="241" y1="-41" x2="241" y2="-41"/>
			</g>
			<g>
				<line class="st1" x1="241" y1="-31" x2="241" y2="-31"/>
			</g>
			<g>
				<line class="st1" x1="241" y1="-21" x2="241" y2="-21"/>
			</g>
			<g>
				<line class="st1" x1="241" y1="-11" x2="241" y2="-11"/>
			</g>
			<g>
				<line class="st1" x1="241" y1="-1" x2="241" y2="-1"/>
			</g>
		</g>
		<g>
			<g>
				<line class="st1" x1="1" y1="-241" x2="1" y2="-241"/>
				<line class="st2" x1="11" y1="-241" x2="236" y2="-241"/>
				<line class="st1" x1="241" y1="-241" x2="241" y2="-241"/>
			</g>
			<g>
				<line class="st1" x1="1" y1="-231" x2="1" y2="-231"/>
				<line class="st2" x1="11" y1="-231" x2="236" y2="-231"/>
				<line class="st1" x1="241" y1="-231" x2="241" y2="-231"/>
			</g>
			<g>
				<line class="st1" x1="1" y1="-221" x2="1" y2="-221"/>
				<line class="st2" x1="11" y1="-221" x2="236" y2="-221"/>
				<line class="st1" x1="241" y1="-221" x2="241" y2="-221"/>
			</g>
			<g>
				<line class="st1" x1="1" y1="-211" x2="1" y2="-211"/>
				<line class="st2" x1="11" y1="-211" x2="236" y2="-211"/>
				<line class="st1" x1="241" y1="-211" x2="241" y2="-211"/>
			</g>
			<g>
				<line class="st1" x1="1" y1="-201" x2="1" y2="-201"/>
				<line class="st2" x1="11" y1="-201" x2="236" y2="-201"/>
				<line class="st1" x1="241" y1="-201" x2="241" y2="-201"/>
			</g>
			<g>
				<line class="st1" x1="1" y1="-191" x2="1" y2="-191"/>
				<line class="st2" x1="11" y1="-191" x2="236" y2="-191"/>
				<line class="st1" x1="241" y1="-191" x2="241" y2="-191"/>
			</g>
			<g>
				<line class="st1" x1="1" y1="-181" x2="1" y2="-181"/>
				<line class="st2" x1="11" y1="-181" x2="236" y2="-181"/>
				<line class="st1" x1="241" y1="-181" x2="241" y2="-181"/>
			</g>
			<g>
				<line class="st1" x1="1" y1="-171" x2="1" y2="-171"/>
				<line class="st2" x1="11" y1="-171" x2="236" y2="-171"/>
				<line class="st1" x1="241" y1="-171" x2="241" y2="-171"/>
			</g>
			<g>
				<line class="st1" x1="1" y1="-161" x2="1" y2="-161"/>
				<line class="st2" x1="11" y1="-161" x2="236" y2="-161"/>
				<line class="st1" x1="241" y1="-161" x2="241" y2="-161"/>
			</g>
			<g>
				<line class="st1" x1="1" y1="-151" x2="1" y2="-151"/>
				<line class="st2" x1="11" y1="-151" x2="236" y2="-151"/>
				<line class="st1" x1="241" y1="-151" x2="241" y2="-151"/>
			</g>
			<g>
				<line class="st1" x1="1" y1="-141" x2="1" y2="-141"/>
				<line class="st2" x1="11" y1="-141" x2="236" y2="-141"/>
				<line class="st1" x1="241" y1="-141" x2="241" y2="-141"/>
			</g>
			<g>
				<line class="st1" x1="1" y1="-131" x2="1" y2="-131"/>
				<line class="st2" x1="11" y1="-131" x2="236" y2="-131"/>
				<line class="st1" x1="241" y1="-131" x2="241" y2="-131"/>
			</g>
			<g>
				<line class="st1" x1="1" y1="-121" x2="1" y2="-121"/>
				<line class="st2" x1="11" y1="-121" x2="236" y2="-121"/>
				<line class="st1" x1="241" y1="-121" x2="241" y2="-121"/>
			</g>
			<g>
				<line class="st1" x1="1" y1="-111" x2="1" y2="-111"/>
				<line class="st2" x1="11" y1="-111" x2="236" y2="-111"/>
				<line class="st1" x1="241" y1="-111" x2="241" y2="-111"/>
			</g>
			<g>
				<line class="st1" x1="1" y1="-101" x2="1" y2="-101"/>
				<line class="st2" x1="11" y1="-101" x2="236" y2="-101"/>
				<line class="st1" x1="241" y1="-101" x2="241" y2="-101"/>
			</g>
			<g>
				<line class="st1" x1="1" y1="-91" x2="1" y2="-91"/>
				<line class="st2" x1="11" y1="-91" x2="236" y2="-91"/>
				<line class="st1" x1="241" y1="-91" x2="241" y2="-91"/>
			</g>
			<g>
				<line class="st1" x1="1" y1="-81" x2="1" y2="-81"/>
				<line class="st2" x1="11" y1="-81" x2="236" y2="-81"/>
				<line class="st1" x1="241" y1="-81" x2="241" y2="-81"/>
			</g>
			<g>
				<line class="st1" x1="1" y1="-71" x2="1" y2="-71"/>
				<line class="st2" x1="11" y1="-71" x2="236" y2="-71"/>
				<line class="st1" x1="241" y1="-71" x2="241" y2="-71"/>
			</g>
			<g>
				<line class="st1" x1="1" y1="-61" x2="1" y2="-61"/>
				<line class="st2" x1="11" y1="-61" x2="236" y2="-61"/>
				<line class="st1" x1="241" y1="-61" x2="241" y2="-61"/>
			</g>
			<g>
				<line class="st1" x1="1" y1="-51" x2="1" y2="-51"/>
				<line class="st2" x1="11" y1="-51" x2="236" y2="-51"/>
				<line class="st1" x1="241" y1="-51" x2="241" y2="-51"/>
			</g>
			<g>
				<line class="st1" x1="1" y1="-41" x2="1" y2="-41"/>
				<line class="st2" x1="11" y1="-41" x2="236" y2="-41"/>
				<line class="st1" x1="241" y1="-41" x2="241" y2="-41"/>
			</g>
			<g>
				<line class="st1" x1="1" y1="-31" x2="1" y2="-31"/>
				<line class="st2" x1="11" y1="-31" x2="236" y2="-31"/>
				<line class="st1" x1="241" y1="-31" x2="241" y2="-31"/>
			</g>
			<g>
				<line class="st1" x1="1" y1="-21" x2="1" y2="-21"/>
				<line class="st2" x1="11" y1="-21" x2="236" y2="-21"/>
				<line class="st1" x1="241" y1="-21" x2="241" y2="-21"/>
			</g>
			<g>
				<line class="st1" x1="1" y1="-11" x2="1" y2="-11"/>
				<line class="st2" x1="11" y1="-11" x2="236" y2="-11"/>
				<line class="st1" x1="241" y1="-11" x2="241" y2="-11"/>
			</g>
			<g>
				<line class="st1" x1="1" y1="-1" x2="1" y2="-1"/>
				<line class="st2" x1="11" y1="-1" x2="236" y2="-1"/>
				<line class="st1" x1="241" y1="-1" x2="241" y2="-1"/>
			</g>
		</g>
		<g>
			<g>
				<line class="st1" x1="1" y1="-241" x2="1" y2="-241"/>
			</g>
			<g>
				<line class="st1" x1="1" y1="-231" x2="1" y2="-231"/>
			</g>
			<g>
				<line class="st1" x1="1" y1="-221" x2="1" y2="-221"/>
			</g>
			<g>
				<line class="st1" x1="1" y1="-211" x2="1" y2="-211"/>
			</g>
			<g>
				<line class="st1" x1="1" y1="-201" x2="1" y2="-201"/>
			</g>
			<g>
				<line class="st1" x1="1" y1="-191" x2="1" y2="-191"/>
			</g>
			<g>
				<line class="st1" x1="1" y1="-181" x2="1" y2="-181"/>
			</g>
			<g>
				<line class="st1" x1="1" y1="-171" x2="1" y2="-171"/>
			</g>
			<g>
				<line class="st1" x1="1" y1="-161" x2="1" y2="-161"/>
			</g>
			<g>
				<line class="st1" x1="1" y1="-151" x2="1" y2="-151"/>
			</g>
			<g>
				<line class="st1" x1="1" y1="-141" x2="1" y2="-141"/>
			</g>
			<g>
				<line class="st1" x1="1" y1="-131" x2="1" y2="-131"/>
			</g>
			<g>
				<line class="st1" x1="1" y1="-121" x2="1" y2="-121"/>
			</g>
			<g>
				<line class="st1" x1="1" y1="-111" x2="1" y2="-111"/>
			</g>
			<g>
				<line class="st1" x1="1" y1="-101" x2="1" y2="-101"/>
			</g>
			<g>
				<line class="st1" x1="1" y1="-91" x2="1" y2="-91"/>
			</g>
			<g>
				<line class="st1" x1="1" y1="-81" x2="1" y2="-81"/>
			</g>
			<g>
				<line class="st1" x1="1" y1="-71" x2="1" y2="-71"/>
			</g>
			<g>
				<line class="st1" x1="1" y1="-61" x2="1" y2="-61"/>
			</g>
			<g>
				<line class="st1" x1="1" y1="-51" x2="1" y2="-51"/>
			</g>
			<g>
				<line class="st1" x1="1" y1="-41" x2="1" y2="-41"/>
			</g>
			<g>
				<line class="st1" x1="1" y1="-31" x2="1" y2="-31"/>
			</g>
			<g>
				<line class="st1" x1="1" y1="-21" x2="1" y2="-21"/>
			</g>
			<g>
				<line class="st1" x1="1" y1="-11" x2="1" y2="-11"/>
			</g>
			<g>
				<line class="st1" x1="1" y1="-1" x2="1" y2="-1"/>
			</g>
		</g>
		<g>
			<g>
				<line class="st1" x1="241" y1="-241" x2="241" y2="-241"/>
			</g>
		</g>
		<g>
			<g>
				<line class="st1" x1="1" y1="-241" x2="1" y2="-241"/>
				<line class="st2" x1="11" y1="-241" x2="236" y2="-241"/>
				<line class="st1" x1="241" y1="-241" x2="241" y2="-241"/>
			</g>
		</g>
		<g>
			<g>
				<line class="st1" x1="1" y1="-241" x2="1" y2="-241"/>
			</g>
		</g>
	</g>
</pattern>
<rect x="-26.1" y="-18.3" class="st3" width="1552.1" height="1089.6"/>
<g>
	<g>
		<path class="st4" d="M143.8,280.7c77.7,96.8,156.5,192.7,234.7,289c56.4,69.4,101.3,157.1,186.8,187.7
			c105.6,37.7,219.3,96.6,329.6,116.3c118,21.1,248,12.9,367.9,19.1v10h-1119L143.8,280.7z"/>
	</g>
	<g class="st5">
		<path class="st6" d="M143.9,588c98.5,56.7,196.7,114.1,295.1,171.2c25.2,14.6,54.7,39.1,82.9,44.8c50.7,10.3,120.3-8.8,171.8-9.6
			c111.5-1.6,194.2,7.7,264.2-49.2c90.5-73.4,199.7-126,304.9-171.2v328.6h-1119L143.9,588z"/>
	</g>
	<g>
		<pattern  id="SVGID_1_" xlink:href="#white" patternTransform="matrix(1 0 0 1 5663.231 -1697.2806)">
		</pattern>
		<path class="st7" d="M143.9,588c98.5,56.7,196.7,114.1,295.1,171.2c25.2,14.6,54.7,39.1,82.9,44.8c50.7,10.3,120.3-8.8,171.8-9.6
			c111.5-1.6,194.2,7.7,264.2-49.2c90.5-73.4,199.7-126,304.9-171.2v328.6h-1119L143.9,588z"/>
	</g>
	<g>
		<g>
			<path class="st6" d="M162.8,269.4c0.8-1.3,2.4-1.8,3.5-1.8c2.6,0,4.2,1.9,4.2,4c0,2.8-2.3,4.3-4.4,4.3c-1.4,0-3-0.8-3.7-2.1
				c-0.6-1.1-0.8-1.9-0.8-3.5c0-4,2.1-7.2,6.1-7.2c0.7,0,1.7,0.1,2.6,0.6l-0.5,1.2c-0.7-0.4-1.6-0.5-2.1-0.5
				C164.7,264.3,163.1,266.6,162.8,269.4z M164,269.5c-0.6,0.5-1,1.3-1,2.2c0,1.9,1.6,3,3.1,3c1.6,0,3.1-1,3.1-3
				c0-1.5-1.2-2.9-3.1-2.9C165.3,268.7,164.6,269,164,269.5z"/>
			<path class="st6" d="M178.3,275.7v-3h-6.5v-1.4l6.1-8.1h1.6v8.4h2.1v1.1h-2.1v3H178.3z M178.3,271.6v-7l-5.3,7H178.3z"/>
			<path class="st6" d="M184.2,270c-0.9,0-1.6-0.7-1.6-1.6c0-0.9,0.7-1.7,1.6-1.7c0.9,0,1.7,0.7,1.7,1.7
				C185.9,269.2,185.2,270,184.2,270z M184.2,267.3c-0.6,0-1,0.5-1,1c0,0.6,0.5,1,1,1s1-0.5,1-1
				C185.3,267.7,184.8,267.3,184.2,267.3z M188.3,266.7h0.7l-4.8,7.3h-0.7L188.3,266.7z M188.3,274.1c-0.9,0-1.7-0.7-1.7-1.6
				c0-0.9,0.7-1.7,1.7-1.7s1.6,0.7,1.6,1.7C189.9,273.4,189.2,274.1,188.3,274.1z M188.3,271.4c-0.6,0-1,0.5-1,1c0,0.6,0.5,1,1,1
				s1-0.5,1-1C189.3,271.9,188.9,271.4,188.3,271.4z"/>
		</g>
	</g>
	<g>
		<path class="st8" d="M165.9,582.5c-2.2,0-4.1-1.3-4.3-3.4l1.3-0.3c0.2,1.4,1.3,2.5,3.1,2.5c1.7,0,3-0.9,3-2.4s-1.1-2.3-3-2.3h-1.2
			v-1.2h1.2c1.7,0,2.8-1.1,2.8-2.3c0-1.3-1-2.2-2.8-2.2c-1.7,0-2.7,1-2.9,2.4l-1.3-0.3c0.2-1.7,1.9-3.3,4.2-3.3
			c2.7,0,4.1,1.7,4.1,3.3c0,1.4-0.8,2.3-2,2.9v0c1.4,0.4,2.3,1.5,2.3,3C170.2,580.9,168.5,582.5,165.9,582.5z"/>
		<path class="st8" d="M178.1,582.4v-3h-6.5v-1.4l6.1-8.1h1.6v8.4h2.1v1.1h-2.1v3H178.1z M178.1,578.2v-7l-5.3,7H178.1z"/>
		<path class="st8" d="M184,576.6c-0.9,0-1.6-0.7-1.6-1.6c0-0.9,0.7-1.7,1.6-1.7c0.9,0,1.7,0.7,1.7,1.7
			C185.7,575.9,185,576.6,184,576.6z M184,573.9c-0.6,0-1,0.5-1,1c0,0.6,0.5,1,1,1s1-0.5,1-1C185.1,574.4,184.6,573.9,184,573.9z
			 M188.1,573.4h0.7l-4.8,7.3h-0.7L188.1,573.4z M188.1,580.8c-0.9,0-1.7-0.7-1.7-1.6c0-0.9,0.7-1.7,1.7-1.7s1.6,0.7,1.6,1.7
			C189.7,580,189,580.8,188.1,580.8z M188.1,578.1c-0.6,0-1,0.5-1,1c0,0.6,0.5,1,1,1s1-0.5,1-1C189.1,578.5,188.7,578.1,188.1,578.1
			z"/>
	</g>
	<g>
		<g>
			<path class="st6" d="M527.8,710.9l-3,1.8l-0.6-1l3.6-2.2h1.3V722h-1.3V710.9z"/>
			<path class="st6" d="M531.8,718.6c0-1.3,0.9-2.5,2.6-3c-1.6-0.4-2.3-1.8-2.3-2.9c0-2.2,2.3-3.3,4.1-3.3c1.9,0,4.1,1.1,4.1,3.3
				c0,1.2-0.8,2.4-2.3,2.9c1.7,0.5,2.6,1.7,2.6,3c0,2.3-2.2,3.6-4.4,3.6C534,722.2,531.8,721,531.8,718.6z M539.2,718.6
				c0-1.6-1.7-2.4-3.1-2.4c-1.3,0-3.1,0.8-3.1,2.4c0,1.7,1.7,2.4,3.1,2.4C537.5,721,539.2,720.3,539.2,718.6z M533.4,712.8
				c0,1.6,1.7,2.3,2.8,2.3c1.1,0,2.8-0.7,2.8-2.3c0-1.5-1.6-2.2-2.8-2.2C535,710.6,533.4,711.3,533.4,712.8z"/>
			<path class="st6" d="M543.5,716.3c-0.9,0-1.6-0.7-1.6-1.6c0-0.9,0.7-1.7,1.6-1.7c0.9,0,1.7,0.7,1.7,1.7
				C545.2,715.6,544.4,716.3,543.5,716.3z M543.5,713.6c-0.6,0-1,0.5-1,1c0,0.6,0.5,1,1,1s1-0.5,1-1
				C544.6,714.1,544.1,713.6,543.5,713.6z M547.6,713.1h0.7l-4.8,7.3h-0.7L547.6,713.1z M547.6,720.4c-0.9,0-1.7-0.7-1.7-1.6
				c0-0.9,0.7-1.7,1.7-1.7s1.6,0.7,1.6,1.7C549.2,719.7,548.5,720.4,547.6,720.4z M547.6,717.8c-0.6,0-1,0.5-1,1c0,0.6,0.5,1,1,1
				s1-0.5,1-1C548.6,718.2,548.1,717.8,547.6,717.8z"/>
		</g>
	</g>
	<g>
		<path class="st8" d="M529.7,784.2l-3,1.8l-0.6-1l3.6-2.2h1.3v12.5h-1.3V784.2z"/>
		<path class="st8" d="M536.5,784.2l-3,1.8l-0.6-1l3.6-2.2h1.3v12.5h-1.3V784.2z"/>
		<path class="st8" d="M541.6,789.6c-0.9,0-1.6-0.7-1.6-1.6c0-0.9,0.7-1.7,1.6-1.7c0.9,0,1.7,0.7,1.7,1.7
			C543.3,788.9,542.5,789.6,541.6,789.6z M541.6,786.9c-0.6,0-1,0.5-1,1c0,0.6,0.5,1,1,1s1-0.5,1-1
			C542.6,787.4,542.2,786.9,541.6,786.9z M545.6,786.4h0.7l-4.8,7.3h-0.7L545.6,786.4z M545.6,793.8c-0.9,0-1.7-0.7-1.7-1.6
			c0-0.9,0.7-1.7,1.7-1.7s1.6,0.7,1.6,1.7C547.3,793,546.6,793.8,545.6,793.8z M545.6,791.1c-0.6,0-1,0.5-1,1c0,0.6,0.5,1,1,1
			s1-0.5,1-1C546.7,791.5,546.2,791.1,545.6,791.1z"/>
	</g>
	<g>
		<g>
			<path d="M142.1,938.9l-4.3,6.3v4.6h-1.2v-4.6l-4.2-6.3h1.4l3.5,5.2l3.5-5.2H142.1z"/>
			<path d="M142.6,946.5c0.1,1.5,1.2,2.6,2.7,2.6c1.1,0,2-0.5,2.3-1.6l1,0.3c-0.4,1.4-1.8,2.3-3.3,2.3c-2.2,0-3.8-1.7-3.8-3.9
				c0-2,1.5-3.9,3.6-3.9c2.3,0,3.5,1.7,3.5,3.8c0,0.1,0,0.3,0,0.4H142.6z M147.5,945.6c-0.1-1.4-1-2.3-2.4-2.3
				c-1.3,0-2.3,1.1-2.5,2.3H147.5z"/>
			<path d="M152.8,950c-2,0-2.7-1.4-2.8-2.2l1-0.2c0.2,0.7,0.7,1.5,1.8,1.5c0.8,0,1.6-0.4,1.6-1.2c0-0.9-1-1.1-1.8-1.2
				c-1.2-0.2-2.5-0.6-2.5-2.1c0-1.4,1.3-2.2,2.5-2.2c2,0,2.6,1.3,2.7,2l-1,0.2c-0.1-0.5-0.5-1.3-1.7-1.3c-0.8,0-1.4,0.5-1.4,1.2
				c0,0.9,1,1.1,1.8,1.2c1.2,0.2,2.5,0.8,2.5,2.2C155.4,949.1,154.2,950,152.8,950z"/>
		</g>
	</g>
	<g>
		<g>
			<path d="M453.6,938.9l-4.3,6.3v4.6h-1.2v-4.6l-4.2-6.3h1.4l3.5,5.2l3.5-5.2H453.6z"/>
			<path d="M454.1,946.5c0.1,1.5,1.2,2.6,2.7,2.6c1.1,0,2-0.5,2.3-1.6l1,0.3c-0.4,1.4-1.8,2.3-3.3,2.3c-2.2,0-3.8-1.7-3.8-3.9
				c0-2,1.5-3.9,3.6-3.9c2.3,0,3.5,1.7,3.5,3.8c0,0.1,0,0.3,0,0.4H454.1z M459.1,945.6c-0.1-1.4-1-2.3-2.4-2.3
				c-1.3,0-2.3,1.1-2.5,2.3H459.1z"/>
			<path d="M464.3,950c-2,0-2.7-1.4-2.8-2.2l1-0.2c0.2,0.7,0.7,1.5,1.8,1.5c0.8,0,1.6-0.4,1.6-1.2c0-0.9-1-1.1-1.8-1.2
				c-1.2-0.2-2.5-0.6-2.5-2.1c0-1.4,1.3-2.2,2.5-2.2c2,0,2.6,1.3,2.7,2l-1,0.2c-0.1-0.5-0.5-1.3-1.7-1.3c-0.8,0-1.4,0.5-1.4,1.2
				c0,0.9,1,1.1,1.8,1.2c1.2,0.2,2.5,0.8,2.5,2.2C467,949.1,465.8,950,464.3,950z"/>
			<path d="M468.7,951.5c0.6-0.5,1.1-1,1.2-1.7c-0.1,0-0.2,0.1-0.3,0.1c-0.5,0-0.9-0.4-0.9-0.9c0-0.6,0.4-1,1-1
				c0.6,0,1.1,0.5,1.1,1.4v0.1c0,1-0.5,1.9-1.5,2.6L468.7,951.5z"/>
			<path d="M479.9,950c-1.4,0-2.3-0.7-2.9-1.7v1.6h-1.1v-11.4h1.1v5.5c0.6-1,1.5-1.7,2.9-1.7c2.1,0,3.5,1.9,3.5,3.9
				C483.4,948.1,482,950,479.9,950z M482.3,946.2c0-1.6-1-2.9-2.6-2.9c-1.5,0-2.7,1.4-2.7,2.9c0,1.5,1.1,2.9,2.7,2.9
				C481.3,949,482.3,947.7,482.3,946.2z"/>
			<path d="M486.3,946.8c0,1.3,0.7,2.3,2.1,2.3c1.3,0,2.2-1,2.2-2.4v-4.3h1.1v7.5h-1.1v-1.4c-0.6,1-1.5,1.5-2.6,1.5
				c-1.8,0-2.8-1.2-2.8-3v-4.6h1.1V946.8z"/>
			<path d="M494.7,948v-4.6h-1.4v-1h1.4v-2.2h1.1v2.2h1.9v1h-1.9v4.6c0,0.7,0.4,1.1,1.2,1.1c0.2,0,0.5,0,0.7-0.1v0.9
				c-0.2,0.1-0.7,0.1-0.9,0.1C495.2,949.9,494.7,949,494.7,948z"/>
			<path d="M503.9,938.9c0.5,0,0.8,0.4,0.8,0.8c0,0.4-0.4,0.8-0.8,0.8c-0.4,0-0.8-0.4-0.8-0.8C503.1,939.3,503.5,938.9,503.9,938.9z
				 M504.5,942.4v7.5h-1.1v-7.5H504.5z"/>
			<path d="M507.5,948v-4.6h-1.4v-1h1.4v-2.2h1.1v2.2h1.9v1h-1.9v4.6c0,0.7,0.4,1.1,1.2,1.1c0.2,0,0.5,0,0.7-0.1v0.9
				c-0.2,0.1-0.7,0.1-0.9,0.1C508,949.9,507.5,949,507.5,948z"/>
			<path d="M512.1,942.4c0.6-0.5,1.1-1,1.2-1.7c-0.1,0-0.2,0.1-0.3,0.1c-0.5,0-0.9-0.4-0.9-0.9c0-0.6,0.4-1,1-1
				c0.6,0,1.1,0.5,1.1,1.4v0.1c0,1-0.5,1.9-1.5,2.6L512.1,942.4z"/>
			<path d="M517.9,950c-2,0-2.7-1.4-2.8-2.2l1-0.2c0.2,0.7,0.7,1.5,1.8,1.5c0.8,0,1.6-0.4,1.6-1.2c0-0.9-1-1.1-1.8-1.2
				c-1.2-0.2-2.5-0.6-2.5-2.1c0-1.4,1.3-2.2,2.5-2.2c2,0,2.6,1.3,2.7,2l-1,0.2c-0.1-0.5-0.5-1.3-1.7-1.3c-0.8,0-1.4,0.5-1.4,1.2
				c0,0.9,1,1.1,1.8,1.2c1.2,0.2,2.5,0.8,2.5,2.2C520.5,949.1,519.3,950,517.9,950z"/>
			<path d="M525.8,946.2c0-2.2,1.7-3.9,3.9-3.9c2.2,0,3.9,1.7,3.9,3.8c0,2.2-1.7,3.9-3.9,3.9C527.5,950,525.8,948.3,525.8,946.2z
				 M532.4,946.2c0-1.6-1.1-2.9-2.8-2.9c-1.6,0-2.7,1.3-2.7,2.9c0,1.6,1.1,2.9,2.8,2.9C531.3,949,532.4,947.7,532.4,946.2z"/>
			<path d="M536.5,946.8c0,1.3,0.7,2.3,2.1,2.3c1.3,0,2.2-1,2.2-2.4v-4.3h1.1v7.5h-1.1v-1.4c-0.6,1-1.5,1.5-2.6,1.5
				c-1.8,0-2.8-1.2-2.8-3v-4.6h1.1V946.8z"/>
			<path d="M544.8,948v-4.6h-1.4v-1h1.4v-2.2h1.1v2.2h1.9v1h-1.9v4.6c0,0.7,0.4,1.1,1.2,1.1c0.2,0,0.5,0,0.7-0.1v0.9
				c-0.2,0.1-0.7,0.1-0.9,0.1C545.3,949.9,544.8,949,544.8,948z"/>
			<path d="M552.5,942.3c1.4,0,2.3,0.8,2.9,1.7v-5.5h1.1v11.4h-1.1v-1.6c-0.6,1-1.5,1.7-2.9,1.7c-2.1,0-3.5-1.8-3.5-3.9
				C549,944.2,550.3,942.3,552.5,942.3z M555.4,946.1c0-1.5-1.1-2.9-2.7-2.9c-1.6,0-2.6,1.3-2.6,2.9c0,1.5,1,2.9,2.6,2.9
				C554.3,949,555.4,947.7,555.4,946.1z"/>
			<path d="M563.4,945.1c0-1.2-0.7-1.8-1.9-1.8c-1.3,0-1.8,0.8-2,1.5l-1.1-0.2c0.1-0.6,0.9-2.3,3-2.3c1.6,0,2.4,0.7,2.7,1.5
				c0.2,0.4,0.2,1,0.2,1.2v4.8h-1.1v-1.3h0c-0.6,0.9-1.4,1.4-2.5,1.4c-1.5,0-2.5-0.9-2.5-2.2v-0.1c0-1.6,1.6-2.2,3-2.2h2.1V945.1z
				 M561.3,946.5c-0.8,0-1.8,0.3-1.8,1.3c0,0.8,0.7,1.3,1.6,1.3c1.3,0,2.3-0.9,2.3-2.3v-0.3H561.3z"/>
			<path d="M567.3,948v-4.6h-1.4v-1h1.4v-2.2h1.1v2.2h1.9v1h-1.9v4.6c0,0.7,0.4,1.1,1.2,1.1c0.2,0,0.5,0,0.7-0.1v0.9
				c-0.2,0.1-0.7,0.1-0.9,0.1C567.8,949.9,567.3,949,567.3,948z"/>
			<path d="M572.5,946.5c0.1,1.5,1.2,2.6,2.7,2.6c1.1,0,2-0.5,2.3-1.6l1,0.3c-0.4,1.4-1.8,2.3-3.3,2.3c-2.2,0-3.8-1.7-3.8-3.9
				c0-2,1.5-3.9,3.6-3.9c2.3,0,3.5,1.7,3.5,3.8c0,0.1,0,0.3,0,0.4H572.5z M577.5,945.6c-0.1-1.4-1-2.3-2.4-2.3
				c-1.3,0-2.3,1.1-2.5,2.3H577.5z"/>
			<path d="M583.4,942.3c1.4,0,2.3,0.8,2.9,1.7v-5.5h1.1v11.4h-1.1v-1.6c-0.6,1-1.5,1.7-2.9,1.7c-2.1,0-3.5-1.8-3.5-3.9
				C579.9,944.2,581.3,942.3,583.4,942.3z M586.3,946.1c0-1.5-1.1-2.9-2.7-2.9c-1.6,0-2.6,1.3-2.6,2.9c0,1.5,1,2.9,2.6,2.9
				C585.2,949,586.3,947.7,586.3,946.1z"/>
		</g>
	</g>
	<g>
		<g>
			<path d="M818.6,938.9v11h-1.2l-6.6-9.3v9.3h-1.1v-11h1.3l6.5,9.2v-9.2H818.6z"/>
			<path d="M820.8,946.2c0-2.2,1.7-3.9,3.9-3.9c2.2,0,3.9,1.7,3.9,3.8c0,2.2-1.7,3.9-3.9,3.9C822.5,950,820.8,948.3,820.8,946.2z
				 M827.4,946.2c0-1.6-1.1-2.9-2.8-2.9s-2.7,1.3-2.7,2.9c0,1.6,1.1,2.9,2.8,2.9C826.3,949,827.4,947.7,827.4,946.2z"/>
			<path d="M830.2,951.5c0.6-0.5,1.1-1,1.2-1.7c-0.1,0-0.2,0.1-0.3,0.1c-0.5,0-0.9-0.4-0.9-0.9c0-0.6,0.4-1,1-1
				c0.6,0,1.1,0.5,1.1,1.4v0.1c0,1-0.5,1.9-1.5,2.6L830.2,951.5z"/>
			<path d="M841.4,950c-1.4,0-2.3-0.7-2.9-1.7v1.6h-1.1v-11.4h1.1v5.5c0.6-1,1.5-1.7,2.9-1.7c2.1,0,3.5,1.9,3.5,3.9
				C844.9,948.1,843.6,950,841.4,950z M843.8,946.2c0-1.6-1-2.9-2.6-2.9c-1.5,0-2.7,1.4-2.7,2.9c0,1.5,1.1,2.9,2.7,2.9
				C842.9,949,843.8,947.7,843.8,946.2z"/>
			<path d="M847.9,946.8c0,1.3,0.7,2.3,2.1,2.3c1.3,0,2.2-1,2.2-2.4v-4.3h1.1v7.5h-1.1v-1.4c-0.6,1-1.5,1.5-2.6,1.5
				c-1.8,0-2.8-1.2-2.8-3v-4.6h1.1V946.8z"/>
			<path d="M856.2,948v-4.6h-1.4v-1h1.4v-2.2h1.1v2.2h1.9v1h-1.9v4.6c0,0.7,0.4,1.1,1.2,1.1c0.2,0,0.5,0,0.7-0.1v0.9
				c-0.2,0.1-0.7,0.1-0.9,0.1C856.7,949.9,856.2,949,856.2,948z"/>
			<path d="M866.6,949.9l-2.5-7.5h1.2l2,6.2h0l2-6.2h1.1l2,6.2h0l2-6.2h1.1l-2.5,7.5h-1.2l-2-6.1h0l-2,6.1H866.6z"/>
			<path d="M877.5,946.5c0.1,1.5,1.2,2.6,2.7,2.6c1.1,0,2-0.5,2.3-1.6l1,0.3c-0.4,1.4-1.8,2.3-3.3,2.3c-2.2,0-3.8-1.7-3.8-3.9
				c0-2,1.5-3.9,3.6-3.9c2.3,0,3.5,1.7,3.5,3.8c0,0.1,0,0.3,0,0.4H877.5z M882.4,945.6c-0.1-1.4-1-2.3-2.4-2.3
				c-1.3,0-2.3,1.1-2.5,2.3H882.4z"/>
			<path d="M890.9,949.9l-2.5-7.5h1.2l2,6.2h0l2-6.2h1.1l2,6.2h0l2-6.2h1.1l-2.5,7.5h-1.2l-2-6.1h0l-2,6.1H890.9z"/>
			<path d="M902,938.9c0.5,0,0.8,0.4,0.8,0.8c0,0.4-0.4,0.8-0.8,0.8c-0.4,0-0.8-0.4-0.8-0.8C901.2,939.3,901.5,938.9,902,938.9z
				 M902.5,942.4v7.5h-1.1v-7.5H902.5z"/>
			<path d="M906.1,938.5v11.4H905v-11.4H906.1z"/>
			<path d="M909.7,938.5v11.4h-1.1v-11.4H909.7z"/>
			<path d="M916.6,938.9c0.5,0,0.8,0.4,0.8,0.8c0,0.4-0.4,0.8-0.8,0.8c-0.4,0-0.8-0.4-0.8-0.8C915.8,939.3,916.2,938.9,916.6,938.9z
				 M917.2,942.4v7.5h-1.1v-7.5H917.2z"/>
			<path d="M925,945.5c0-1.3-0.7-2.3-2.1-2.3c-1.3,0-2.2,1-2.2,2.4v4.3h-1.1v-7.5h1.1v1.4c0.6-1,1.5-1.5,2.6-1.5
				c1.8,0,2.8,1.2,2.8,3v4.6H925V945.5z"/>
			<path d="M936.9,945.1c0-1.2-0.7-1.8-1.9-1.8c-1.3,0-1.8,0.8-2,1.5l-1-0.2c0.1-0.6,0.9-2.3,3-2.3c1.6,0,2.4,0.7,2.7,1.5
				c0.2,0.4,0.2,1,0.2,1.2v4.8h-1.1v-1.3h0c-0.6,0.9-1.4,1.4-2.5,1.4c-1.5,0-2.5-0.9-2.5-2.2v-0.1c0-1.6,1.6-2.2,3-2.2h2.1V945.1z
				 M934.8,946.5c-0.8,0-1.8,0.3-1.8,1.3c0,0.8,0.7,1.3,1.6,1.3c1.3,0,2.3-0.9,2.3-2.3v-0.3H934.8z"/>
			<path d="M946.4,949.4l-3.4-7h1.3l2.7,5.8l2.6-5.8h1.2l-5.1,11.2h-1.2L946.4,949.4z"/>
			<path d="M952.5,946.5c0.1,1.5,1.2,2.6,2.7,2.6c1.1,0,2-0.5,2.3-1.6l1,0.3c-0.4,1.4-1.8,2.3-3.3,2.3c-2.2,0-3.8-1.7-3.8-3.9
				c0-2,1.5-3.9,3.6-3.9c2.3,0,3.5,1.7,3.5,3.8c0,0.1,0,0.3,0,0.4H952.5z M957.5,945.6c-0.1-1.4-1-2.3-2.4-2.3
				c-1.3,0-2.3,1.1-2.5,2.3H957.5z"/>
			<path d="M965,945.1c0-1.2-0.7-1.8-1.9-1.8c-1.3,0-1.8,0.8-2,1.5l-1-0.2c0.1-0.6,0.9-2.3,3-2.3c1.6,0,2.4,0.7,2.7,1.5
				c0.2,0.4,0.2,1,0.2,1.2v4.8H965v-1.3h0c-0.6,0.9-1.4,1.4-2.5,1.4c-1.5,0-2.5-0.9-2.5-2.2v-0.1c0-1.6,1.6-2.2,3-2.2h2.1V945.1z
				 M962.9,946.5c-0.8,0-1.8,0.3-1.8,1.3c0,0.8,0.7,1.3,1.6,1.3c1.3,0,2.3-0.9,2.3-2.3v-0.3H962.9z"/>
			<path d="M969.5,943.9c0.6-1.2,1.6-1.6,2.4-1.6c0.1,0,0.3,0,0.4,0v1.2c-0.1,0-0.3,0-0.4,0c-1.8,0-2.3,1.5-2.3,2.8v3.7h-1.1v-7.5
				h1.1V943.9z"/>
		</g>
	</g>
	<g>
		<g>
			<path d="M1168.8,938.9v11h-1.2l-6.6-9.3v9.3h-1.1v-11h1.3l6.5,9.2v-9.2H1168.8z"/>
			<path d="M1171,946.2c0-2.2,1.7-3.9,3.9-3.9c2.2,0,3.9,1.7,3.9,3.8c0,2.2-1.7,3.9-3.9,3.9C1172.7,950,1171,948.3,1171,946.2z
				 M1177.6,946.2c0-1.6-1.1-2.9-2.8-2.9s-2.7,1.3-2.7,2.9c0,1.6,1.1,2.9,2.8,2.9C1176.4,949,1177.6,947.7,1177.6,946.2z"/>
			<path d="M1180.4,951.5c0.6-0.5,1.1-1,1.2-1.7c-0.1,0-0.2,0.1-0.3,0.1c-0.5,0-0.9-0.4-0.9-0.9c0-0.6,0.4-1,1-1
				c0.6,0,1.1,0.5,1.1,1.4v0.1c0,1-0.5,1.9-1.5,2.6L1180.4,951.5z"/>
			<path d="M1192.1,945.1c0-1.2-0.7-1.8-1.9-1.8c-1.3,0-1.8,0.8-2,1.5l-1.1-0.2c0.1-0.6,0.9-2.3,3-2.3c1.6,0,2.4,0.7,2.7,1.5
				c0.2,0.4,0.2,1,0.2,1.2v4.8h-1.1v-1.3h0c-0.6,0.9-1.4,1.4-2.5,1.4c-1.5,0-2.5-0.9-2.5-2.2v-0.1c0-1.6,1.6-2.2,3-2.2h2.1V945.1z
				 M1190,946.5c-0.8,0-1.8,0.3-1.8,1.3c0,0.8,0.7,1.3,1.6,1.3c1.3,0,2.3-0.9,2.3-2.3v-0.3H1190z"/>
			<path d="M1200.9,945.5c0-1.3-0.7-2.3-2.1-2.3c-1.3,0-2.2,1-2.2,2.4v4.3h-1.1v-7.5h1.1v1.4c0.6-1,1.5-1.5,2.6-1.5
				c1.8,0,2.8,1.2,2.8,3v4.6h-1.1V945.5z"/>
			<path d="M1207.4,942.3c1.4,0,2.3,0.8,2.9,1.7v-5.5h1.1v11.4h-1.1v-1.6c-0.6,1-1.5,1.7-2.9,1.7c-2.1,0-3.5-1.8-3.5-3.9
				C1203.9,944.2,1205.3,942.3,1207.4,942.3z M1210.3,946.1c0-1.5-1.1-2.9-2.7-2.9c-1.6,0-2.6,1.3-2.6,2.9c0,1.5,1,2.9,2.6,2.9
				C1209.2,949,1210.3,947.7,1210.3,946.1z"/>
			<path d="M1219.4,949.9l-2.5-7.5h1.2l2,6.2h0l2-6.2h1.1l2,6.2h0l2-6.2h1.1l-2.5,7.5h-1.2l-2-6.1h0l-2,6.1H1219.4z"/>
			<path d="M1230.3,946.5c0.1,1.5,1.2,2.6,2.7,2.6c1.1,0,2-0.5,2.3-1.6l1,0.3c-0.4,1.4-1.8,2.3-3.3,2.3c-2.2,0-3.8-1.7-3.8-3.9
				c0-2,1.5-3.9,3.6-3.9c2.3,0,3.5,1.7,3.5,3.8c0,0.1,0,0.3,0,0.4H1230.3z M1235.2,945.6c-0.1-1.4-1-2.3-2.4-2.3
				c-1.3,0-2.3,1.1-2.5,2.3H1235.2z"/>
			<path d="M1243.7,949.9l-2.5-7.5h1.2l2,6.2h0l2-6.2h1.1l2,6.2h0l2-6.2h1.1l-2.5,7.5h-1.2l-2-6.1h0l-2,6.1H1243.7z"/>
			<path d="M1253.5,946.2c0-2.2,1.7-3.9,3.9-3.9c2.2,0,3.9,1.7,3.9,3.8c0,2.2-1.7,3.9-3.9,3.9C1255.2,950,1253.5,948.3,1253.5,946.2
				z M1260.1,946.2c0-1.6-1.1-2.9-2.8-2.9c-1.6,0-2.7,1.3-2.7,2.9c0,1.6,1.1,2.9,2.8,2.9C1259,949,1260.1,947.7,1260.1,946.2z"/>
			<path d="M1268.6,945.5c0-1.3-0.7-2.3-2.1-2.3c-1.3,0-2.2,1-2.2,2.4v4.3h-1.1v-7.5h1.1v1.4c0.6-1,1.5-1.5,2.6-1.5
				c1.8,0,2.8,1.2,2.8,3v4.6h-1.1V945.5z"/>
			<path d="M1271.4,942.4c0.6-0.5,1.1-1,1.2-1.7c-0.1,0-0.2,0.1-0.3,0.1c-0.5,0-0.9-0.4-0.9-0.9c0-0.6,0.4-1,1-1
				c0.6,0,1.1,0.5,1.1,1.4v0.1c0,1-0.5,1.9-1.5,2.6L1271.4,942.4z"/>
			<path d="M1276,948v-4.6h-1.4v-1h1.4v-2.2h1.1v2.2h1.9v1h-1.9v4.6c0,0.7,0.4,1.1,1.2,1.1c0.2,0,0.5,0,0.7-0.1v0.9
				c-0.2,0.1-0.7,0.1-0.9,0.1C1276.5,949.9,1276,949,1276,948z"/>
			<path d="M1285.2,938.9c0.5,0,0.8,0.4,0.8,0.8c0,0.4-0.4,0.8-0.8,0.8c-0.4,0-0.8-0.4-0.8-0.8
				C1284.4,939.3,1284.8,938.9,1285.2,938.9z M1285.8,942.4v7.5h-1.1v-7.5H1285.8z"/>
			<path d="M1293.7,945.5c0-1.3-0.7-2.3-2.1-2.3c-1.3,0-2.2,1-2.2,2.4v4.3h-1.1v-7.5h1.1v1.4c0.6-1,1.5-1.5,2.6-1.5
				c1.8,0,2.8,1.2,2.8,3v4.6h-1.1V945.5z"/>
			<path d="M1301.5,948v-4.6h-1.4v-1h1.4v-2.2h1.1v2.2h1.9v1h-1.9v4.6c0,0.7,0.4,1.1,1.2,1.1c0.2,0,0.5,0,0.7-0.1v0.9
				c-0.2,0.1-0.7,0.1-0.9,0.1C1302,949.9,1301.5,949,1301.5,948z"/>
			<path d="M1311.7,945.5c0-1.3-0.7-2.3-2.1-2.3c-1.3,0-2.2,1-2.2,2.4v4.3h-1.1v-11.4h1.1v5.3c0.6-1,1.5-1.5,2.6-1.5
				c1.8,0,2.8,1.2,2.8,3v4.6h-1.1V945.5z"/>
			<path d="M1315.7,946.5c0.1,1.5,1.2,2.6,2.7,2.6c1.1,0,2-0.5,2.3-1.6l1,0.3c-0.4,1.4-1.8,2.3-3.3,2.3c-2.2,0-3.8-1.7-3.8-3.9
				c0-2,1.5-3.9,3.6-3.9c2.3,0,3.5,1.7,3.5,3.8c0,0.1,0,0.3,0,0.4H1315.7z M1320.7,945.6c-0.1-1.4-1-2.3-2.4-2.3
				c-1.3,0-2.3,1.1-2.5,2.3H1320.7z"/>
			<path d="M1329.2,941v1.4h2v1h-2v6.5h-1.1v-6.5h-1.4v-1h1.4V941c0-1.7,1-2.6,2.3-2.6c0.2,0,0.5,0,0.8,0.1v0.9
				c-0.3-0.1-0.6-0.1-0.8-0.1C1329.9,939.4,1329.2,939.7,1329.2,941z"/>
			<path d="M1333.6,946.8c0,1.3,0.7,2.3,2.1,2.3c1.3,0,2.2-1,2.2-2.4v-4.3h1.1v7.5h-1.1v-1.4c-0.6,1-1.5,1.5-2.6,1.5
				c-1.8,0-2.8-1.2-2.8-3v-4.6h1.1V946.8z"/>
			<path d="M1342,948v-4.6h-1.4v-1h1.4v-2.2h1.1v2.2h1.9v1h-1.9v4.6c0,0.7,0.4,1.1,1.2,1.1c0.2,0,0.5,0,0.7-0.1v0.9
				c-0.2,0.1-0.7,0.1-0.9,0.1C1342.5,949.9,1342,949,1342,948z"/>
			<path d="M1347.8,946.8c0,1.3,0.7,2.3,2.1,2.3c1.3,0,2.2-1,2.2-2.4v-4.3h1.1v7.5h-1.1v-1.4c-0.6,1-1.5,1.5-2.6,1.5
				c-1.8,0-2.8-1.2-2.8-3v-4.6h1.1V946.8z"/>
			<path d="M1356.7,943.9c0.6-1.2,1.6-1.6,2.4-1.6c0.1,0,0.3,0,0.4,0v1.2c-0.1,0-0.3,0-0.4,0c-1.8,0-2.3,1.5-2.3,2.8v3.7h-1.1v-7.5
				h1.1V943.9z"/>
			<path d="M1361.2,946.5c0.1,1.5,1.2,2.6,2.7,2.6c1.1,0,2-0.5,2.3-1.6l1,0.3c-0.4,1.4-1.8,2.3-3.3,2.3c-2.2,0-3.8-1.7-3.8-3.9
				c0-2,1.5-3.9,3.6-3.9c2.3,0,3.5,1.7,3.5,3.8c0,0.1,0,0.3,0,0.4H1361.2z M1366.2,945.6c-0.1-1.4-1-2.3-2.4-2.3
				c-1.3,0-2.3,1.1-2.5,2.3H1366.2z"/>
		</g>
	</g>
	<g>
		<g>
			<path class="st8" d="M903.9,867.7v-3h-6.5v-1.4l6.1-8.1h1.6v8.4h2.1v1.1h-2.1v3H903.9z M903.9,863.6v-7l-5.3,7H903.9z"/>
			<path class="st8" d="M909.9,862c-0.9,0-1.6-0.7-1.6-1.6c0-0.9,0.7-1.7,1.6-1.7c0.9,0,1.7,0.7,1.7,1.7
				C911.5,861.2,910.8,862,909.9,862z M909.9,859.3c-0.6,0-1,0.5-1,1c0,0.6,0.5,1,1,1c0.6,0,1-0.5,1-1
				C910.9,859.7,910.4,859.3,909.9,859.3z M913.9,858.7h0.7l-4.8,7.3h-0.7L913.9,858.7z M913.9,866.1c-0.9,0-1.7-0.7-1.7-1.6
				c0-0.9,0.7-1.7,1.7-1.7c0.9,0,1.6,0.7,1.6,1.7C915.5,865.4,914.8,866.1,913.9,866.1z M913.9,863.4c-0.6,0-1,0.5-1,1
				c0,0.6,0.5,1,1,1c0.6,0,1-0.5,1-1C914.9,863.9,914.5,863.4,913.9,863.4z"/>
		</g>
	</g>
	<g>
		<path class="st4" d="M897.6,751.9l-3,1.8l-0.6-1l3.6-2.2h1.3V763h-1.3V751.9z"/>
		<path class="st4" d="M905.7,763.2c-2.2,0-4.1-1.3-4.3-3.4l1.3-0.3c0.2,1.4,1.3,2.5,3.1,2.5c1.7,0,3-0.9,3-2.4s-1.1-2.3-3-2.3h-1.2
			v-1.2h1.2c1.7,0,2.8-1.1,2.8-2.3c0-1.3-1-2.2-2.8-2.2c-1.7,0-2.7,1-2.9,2.4l-1.3-0.3c0.2-1.7,1.9-3.3,4.2-3.3
			c2.7,0,4.1,1.7,4.1,3.3c0,1.4-0.8,2.3-2,2.9v0c1.4,0.4,2.3,1.5,2.3,3C910.1,761.5,908.4,763.2,905.7,763.2z"/>
		<path class="st4" d="M913,757.3c-0.9,0-1.6-0.7-1.6-1.6c0-0.9,0.7-1.7,1.6-1.7c0.9,0,1.7,0.7,1.7,1.7
			C914.7,756.6,913.9,757.3,913,757.3z M913,754.6c-0.6,0-1,0.5-1,1c0,0.6,0.5,1,1,1c0.6,0,1-0.5,1-1
			C914.1,755.1,913.6,754.6,913,754.6z M917,754.1h0.7l-4.8,7.3h-0.7L917,754.1z M917.1,761.4c-0.9,0-1.7-0.7-1.7-1.6
			c0-0.9,0.7-1.7,1.7-1.7c0.9,0,1.7,0.7,1.7,1.7C918.7,760.7,918,761.4,917.1,761.4z M917.1,758.8c-0.6,0-1,0.5-1,1c0,0.6,0.5,1,1,1
			c0.6,0,1-0.5,1-1C918.1,759.2,917.6,758.8,917.1,758.8z"/>
	</g>
	<g>
		<g>
			<path class="st6" d="M1281.8,888.3c0-1.5,0.7-3,2.9-4.4l1.9-1.2c1.2-0.7,2.2-1.5,2.2-3c0-1.3-1.1-2.5-2.8-2.5
				c-1.4,0-2.2,0.8-2.6,1.6c-0.2,0.5-0.2,1-0.3,1.2l-1.3-0.2c0-1.8,1.5-3.9,4.2-3.9c2.3,0,4.1,1.8,4.1,3.7c0,1.8-1,2.8-2.6,3.9
				l-2,1.2c-1.1,0.7-2.1,1.6-2.2,2.7h6.9v1.2h-8.5V888.3z"/>
			<path class="st6" d="M1293.2,883c-0.9,0-1.6-0.7-1.6-1.6c0-0.9,0.7-1.7,1.6-1.7c0.9,0,1.7,0.7,1.7,1.7
				C1294.8,882.2,1294.1,883,1293.2,883z M1293.2,880.3c-0.6,0-1,0.5-1,1c0,0.6,0.5,1,1,1c0.6,0,1-0.5,1-1
				C1294.2,880.7,1293.8,880.3,1293.2,880.3z M1297.2,879.7h0.7l-4.8,7.3h-0.7L1297.2,879.7z M1297.2,887.1c-0.9,0-1.7-0.7-1.7-1.6
				c0-0.9,0.7-1.7,1.7-1.7c0.9,0,1.6,0.7,1.6,1.7C1298.9,886.4,1298.2,887.1,1297.2,887.1z M1297.2,884.4c-0.6,0-1,0.5-1,1
				c0,0.6,0.5,1,1,1c0.6,0,1-0.5,1-1C1298.3,884.9,1297.8,884.4,1297.2,884.4z"/>
		</g>
	</g>
	<g>
		<path class="st4" d="M1280.6,567.5c-2.2,0-4.1-1.3-4.3-3.4l1.3-0.3c0.2,1.4,1.3,2.5,3.1,2.5c1.7,0,3-0.9,3-2.4s-1.1-2.3-3-2.3
			h-1.2v-1.2h1.2c1.7,0,2.8-1.1,2.8-2.3c0-1.3-1-2.2-2.8-2.2c-1.7,0-2.7,1-2.9,2.4l-1.3-0.3c0.2-1.7,1.9-3.3,4.2-3.3
			c2.7,0,4.1,1.7,4.1,3.3c0,1.4-0.8,2.3-2,2.9v0c1.4,0.4,2.3,1.5,2.3,3C1284.9,565.9,1283.2,567.5,1280.6,567.5z"/>
		<path class="st4" d="M1288.1,561c0.8-1.3,2.4-1.8,3.5-1.8c2.6,0,4.2,1.9,4.2,4c0,2.8-2.3,4.3-4.4,4.3c-1.4,0-3-0.8-3.7-2.1
			c-0.6-1.1-0.8-1.9-0.8-3.5c0-4,2.1-7.2,6.1-7.2c0.7,0,1.7,0.1,2.6,0.6l-0.5,1.2c-0.7-0.4-1.6-0.5-2.1-0.5
			C1290,556,1288.4,558.2,1288.1,561z M1289.3,561.1c-0.6,0.5-1,1.3-1,2.2c0,1.9,1.6,3,3.1,3c1.6,0,3.1-1,3.1-3
			c0-1.5-1.2-2.9-3.1-2.9C1290.6,560.4,1289.9,560.7,1289.3,561.1z"/>
		<path class="st4" d="M1298.7,561.6c-0.9,0-1.6-0.7-1.6-1.6c0-0.9,0.7-1.7,1.6-1.7c0.9,0,1.7,0.7,1.7,1.7
			C1300.3,560.9,1299.6,561.6,1298.7,561.6z M1298.7,558.9c-0.6,0-1,0.5-1,1c0,0.6,0.5,1,1,1c0.6,0,1-0.5,1-1
			C1299.7,559.4,1299.2,558.9,1298.7,558.9z M1302.7,558.4h0.7l-4.8,7.3h-0.7L1302.7,558.4z M1302.7,565.8c-0.9,0-1.7-0.7-1.7-1.6
			c0-0.9,0.7-1.7,1.7-1.7c0.9,0,1.7,0.7,1.7,1.7C1304.3,565,1303.6,565.8,1302.7,565.8z M1302.7,563.1c-0.6,0-1,0.5-1,1
			c0,0.6,0.5,1,1,1c0.6,0,1-0.5,1-1C1303.7,563.5,1303.3,563.1,1302.7,563.1z"/>
	</g>
	<g>
		<g>
			<path d="M146.6,110.4l-0.6,3.7c0.7-0.7,1.9-0.9,2.4-0.9c2.1,0,3.6,1.4,3.6,3.5c0,2.4-2,3.6-3.8,3.6c-1.8,0-3.5-1.2-3.8-3l1.1-0.2
				c0.2,1.3,1.2,2.2,2.7,2.2c1.1,0,2.6-0.7,2.6-2.5s-1.3-2.5-2.6-2.5c-0.8,0-1.7,0.4-2.3,1.1l-1.1-0.4l0.9-5.7h5.8v1.1H146.6z"/>
			<path d="M167.6,109.5c5.9,0,9.9,4.1,9.9,9.4c0,5.6-4.4,9.4-9.9,9.4H162v-18.8H167.6z M167.5,126.4c4.8,0,7.9-3.1,7.9-7.5
				c0-4.3-3.1-7.6-8-7.6H164v15.1H167.5z"/>
			<path d="M180,121.9c0-3.8,2.9-6.7,6.6-6.7c3.7,0,6.6,2.9,6.6,6.6c0,3.8-2.9,6.7-6.6,6.7C182.8,128.5,180,125.5,180,121.9z
				 M191.3,121.9c0-2.7-1.9-5-4.7-5s-4.7,2.3-4.7,4.9c0,2.7,1.9,5,4.7,5C189.3,126.8,191.3,124.6,191.3,121.9z"/>
			<path d="M206.9,127.4l-5.8-12h2.2l4.7,9.9l4.4-9.9h2l-8.8,19.1h-2L206.9,127.4z"/>
			<path d="M215.5,121.9c0-3.8,2.9-6.7,6.6-6.7c3.7,0,6.6,2.9,6.6,6.6c0,3.8-2.9,6.7-6.6,6.7C218.4,128.5,215.5,125.5,215.5,121.9z
				 M226.8,121.9c0-2.7-1.9-5-4.7-5c-2.8,0-4.7,2.3-4.7,4.9c0,2.7,1.9,5,4.7,5C224.9,126.8,226.8,124.6,226.8,121.9z"/>
			<path d="M233.7,122.9c0,2.3,1.2,3.9,3.6,3.9c2.2,0,3.8-1.8,3.8-4v-7.3h1.8v12.8h-1.8v-2.4c-1,1.8-2.5,2.6-4.4,2.6
				c-3.1,0-4.8-2.1-4.8-5.1v-7.9h1.8V122.9z"/>
			<path d="M263.1,120.8c0-2.3-1.2-3.9-3.6-3.9c-2.2,0-3.8,1.8-3.8,4.1v7.3h-1.9v-19.5h1.9v9c1-1.7,2.5-2.5,4.4-2.5
				c3.1,0,4.8,2.1,4.8,5.1v7.9h-1.9V120.8z"/>
			<path d="M276.8,120c0-2.1-1.1-3.1-3.3-3.1c-2.2,0-3.1,1.4-3.4,2.6l-1.8-0.4c0.1-1.1,1.5-3.9,5.2-3.9c2.7,0,4.1,1.2,4.7,2.6
				c0.3,0.7,0.4,1.7,0.4,2.1v8.3h-1.8V126h0c-1,1.6-2.4,2.5-4.3,2.5c-2.6,0-4.3-1.6-4.3-3.8v-0.1c0-2.8,2.8-3.7,5.1-3.7h3.6V120z
				 M273.2,122.4c-1.4,0-3.2,0.4-3.2,2.2c0,1.4,1.2,2.3,2.8,2.3c2.3,0,4-1.6,4-4v-0.5H273.2z"/>
			<path d="M280.8,115.4h2.1l4.4,10.8l4.5-10.8h2l-5.5,12.8h-2L280.8,115.4z"/>
			<path d="M296.9,122.4c0.1,2.5,2.1,4.4,4.6,4.4c1.9,0,3.4-0.9,4-2.7l1.7,0.5c-0.8,2.5-3.1,3.9-5.6,3.9c-3.7,0-6.5-3-6.5-6.6
				c0-3.5,2.6-6.6,6.2-6.6c4,0,6,2.8,6,6.6c0,0.2,0,0.4,0,0.6H296.9z M305.4,120.8c-0.2-2.3-1.7-4-4.2-4c-2.2,0-4,1.8-4.3,4H305.4z"
				/>
			<path d="M324.9,120c0-2.1-1.1-3.1-3.3-3.1c-2.2,0-3.1,1.4-3.4,2.6l-1.8-0.4c0.1-1.1,1.5-3.9,5.2-3.9c2.7,0,4.1,1.2,4.7,2.6
				c0.3,0.7,0.4,1.7,0.4,2.1v8.3h-1.8V126h0c-1,1.6-2.4,2.5-4.3,2.5c-2.6,0-4.3-1.6-4.3-3.8v-0.1c0-2.8,2.8-3.7,5.1-3.7h3.6V120z
				 M321.3,122.4c-1.4,0-3.2,0.4-3.2,2.2c0,1.4,1.2,2.3,2.8,2.3c2.3,0,4-1.6,4-4v-0.5H321.3z"/>
			<path d="M338,109.5h6.7c3.4,0,6,1.7,6,4.7c0,0.8-0.2,3.1-2.9,4.3c2.8,0.7,3.7,3.2,3.7,4.6c0,3.6-3.1,5.2-6.6,5.2h-7V109.5z
				 M340,117.8h4.5c3.1,0,4.4-1.6,4.4-3.4c0-2.3-2.1-3.1-4.2-3.1H340V117.8z M340,126.5h5.1c2,0,4.6-0.8,4.6-3.5
				c0-2.7-2.8-3.4-4.9-3.4H340V126.5z"/>
			<path d="M356.8,122.9c0,2.3,1.2,3.9,3.6,3.9c2.2,0,3.8-1.8,3.8-4v-7.3h1.8v12.8h-1.8v-2.4c-1,1.8-2.5,2.6-4.4,2.6
				c-3.1,0-4.8-2.1-4.8-5.1v-7.9h1.8V122.9z"/>
			<path d="M374.2,128.5c-3.5,0-4.6-2.4-4.9-3.8l1.7-0.4c0.3,1.2,1.1,2.5,3.1,2.5c1.4,0,2.7-0.7,2.7-2.1c0-1.6-1.7-1.9-3-2.1
				c-2.1-0.3-4.2-1.1-4.2-3.6c0-2.4,2.2-3.8,4.3-3.8c3.4,0,4.5,2.3,4.7,3.5l-1.7,0.4c-0.2-0.9-0.9-2.3-3-2.3c-1.4,0-2.4,0.9-2.4,2
				c0,1.6,1.7,1.8,3,2c2.1,0.3,4.2,1.4,4.2,3.7C378.7,127,376.7,128.5,374.2,128.5z"/>
			<path d="M383,109.4c0.8,0,1.4,0.6,1.4,1.4c0,0.8-0.6,1.4-1.4,1.4c-0.8,0-1.4-0.6-1.4-1.4C381.6,110.1,382.2,109.4,383,109.4z
				 M384,115.4v12.8h-1.9v-12.8H384z"/>
			<path d="M397.4,120.8c0-2.3-1.2-3.9-3.6-3.9c-2.2,0-3.8,1.8-3.8,4.1v7.3h-1.9v-12.8h1.8v2.4c1-1.7,2.5-2.6,4.4-2.6
				c3.1,0,4.8,2.1,4.8,5.1v7.9h-1.9V120.8z"/>
			<path d="M404.3,122.4c0.1,2.5,2.1,4.4,4.6,4.4c1.9,0,3.4-0.9,4-2.7l1.7,0.5c-0.8,2.5-3.1,3.9-5.6,3.9c-3.7,0-6.5-3-6.5-6.6
				c0-3.5,2.6-6.6,6.2-6.6c4,0,6,2.8,6,6.6c0,0.2,0,0.4,0,0.6H404.3z M412.8,120.8c-0.2-2.3-1.7-4-4.2-4c-2.2,0-4,1.8-4.3,4H412.8z"
				/>
			<path d="M421.8,128.5c-3.5,0-4.6-2.4-4.9-3.8l1.7-0.4c0.3,1.2,1.1,2.5,3.1,2.5c1.4,0,2.7-0.7,2.7-2.1c0-1.6-1.7-1.9-3-2.1
				c-2.1-0.3-4.2-1.1-4.2-3.6c0-2.4,2.2-3.8,4.3-3.8c3.4,0,4.5,2.3,4.7,3.5l-1.7,0.4c-0.2-0.9-0.9-2.3-3-2.3c-1.4,0-2.4,0.9-2.4,2
				c0,1.6,1.7,1.8,3,2c2.1,0.3,4.2,1.4,4.2,3.7C426.4,127,424.3,128.5,421.8,128.5z"/>
			<path d="M433.6,128.5c-3.5,0-4.6-2.4-4.9-3.8l1.7-0.4c0.3,1.2,1.1,2.5,3.1,2.5c1.4,0,2.7-0.7,2.7-2.1c0-1.6-1.7-1.9-3-2.1
				c-2.1-0.3-4.2-1.1-4.2-3.6c0-2.4,2.2-3.8,4.3-3.8c3.4,0,4.5,2.3,4.7,3.5l-1.7,0.4c-0.2-0.9-0.9-2.3-3-2.3c-1.4,0-2.4,0.9-2.4,2
				c0,1.6,1.7,1.8,3,2c2.1,0.3,4.2,1.4,4.2,3.7C438.1,127,436.1,128.5,433.6,128.5z"/>
			<path d="M447.4,118.9c0-5.7,4.3-9.7,9.5-9.7s7.8,3.6,8.4,6.2l-1.9,0.7c-0.3-1.2-1.9-5-6.6-5c-4,0-7.3,3.1-7.3,7.7
				c0,4.5,3.1,7.8,7.4,7.8c4.5,0,6.1-3.5,6.6-5l1.9,0.7c-0.7,2.3-3.1,6.2-8.6,6.2C451.5,128.5,447.4,124.6,447.4,118.9z"/>
			<path d="M467.4,121.9c0-3.8,2.9-6.7,6.6-6.7c3.7,0,6.6,2.9,6.6,6.6c0,3.8-2.9,6.7-6.6,6.7C470.3,128.5,467.4,125.5,467.4,121.9z
				 M478.7,121.9c0-2.7-1.9-5-4.7-5s-4.7,2.3-4.7,4.9c0,2.7,1.9,5,4.7,5C476.8,126.8,478.7,124.6,478.7,121.9z"/>
			<path d="M493.2,120.8c0-2.3-1.2-3.9-3.6-3.9c-2.2,0-3.8,1.8-3.8,4.1v7.3h-1.9v-12.8h1.8v2.4c1-1.7,2.5-2.6,4.4-2.6
				c3.1,0,4.8,2.1,4.8,5.1v7.9h-1.9V120.8z"/>
			<path d="M499.8,124.9v-7.8h-2.4v-1.7h2.4v-3.7h1.8v3.7h3.2v1.7h-3.2v7.8c0,1.2,0.7,1.8,2.1,1.8c0.4,0,0.9,0,1.2-0.1v1.6
				c-0.4,0.1-1.1,0.2-1.5,0.2C500.7,128.4,499.8,126.8,499.8,124.9z"/>
			<path d="M509,109.4c0.8,0,1.4,0.6,1.4,1.4c0,0.8-0.6,1.4-1.4,1.4c-0.8,0-1.4-0.6-1.4-1.4C507.6,110.1,508.3,109.4,509,109.4z
				 M510,115.4v12.8h-1.9v-12.8H510z"/>
			<path d="M523.4,120.8c0-2.3-1.2-3.9-3.6-3.9c-2.2,0-3.8,1.8-3.8,4.1v7.3h-1.9v-12.8h1.8v2.4c1-1.7,2.5-2.6,4.4-2.6
				c3.1,0,4.8,2.1,4.8,5.1v7.9h-1.9V120.8z"/>
			<path d="M531.1,122.9c0,2.3,1.2,3.9,3.6,3.9c2.2,0,3.8-1.8,3.8-4v-7.3h1.8v12.8h-1.8v-2.4c-1,1.8-2.5,2.6-4.4,2.6
				c-3.1,0-4.8-2.1-4.8-5.1v-7.9h1.8V122.9z"/>
			<path d="M545.5,109.4c0.8,0,1.4,0.6,1.4,1.4c0,0.8-0.6,1.4-1.4,1.4c-0.8,0-1.4-0.6-1.4-1.4C544.1,110.1,544.7,109.4,545.5,109.4z
				 M546.4,115.4v12.8h-1.9v-12.8H546.4z"/>
			<path d="M551.5,124.9v-7.8h-2.4v-1.7h2.4v-3.7h1.8v3.7h3.2v1.7h-3.2v7.8c0,1.2,0.7,1.8,2.1,1.8c0.4,0,0.9,0,1.2-0.1v1.6
				c-0.4,0.1-1.1,0.2-1.5,0.2C552.4,128.4,551.5,126.8,551.5,124.9z"/>
			<path d="M564,127.4l-5.8-12h2.2l4.7,9.9l4.4-9.9h2l-8.8,19.1h-2L564,127.4z"/>
			<path d="M582.7,128.3h-2v-18.8h6.3c4.6,0,6.6,2.7,6.6,5.6c0,3.2-2.4,5.8-6.9,5.8h-4V128.3z M582.7,119.1h4.1c3.5,0,4.8-2,4.8-3.9
				c0-1.8-1.1-3.9-4.8-3.9h-4.2V119.1z"/>
			<path d="M598.5,108.7v19.6h-1.9v-19.6H598.5z"/>
			<path d="M610.4,120c0-2.1-1.1-3.1-3.3-3.1c-2.2,0-3.1,1.4-3.4,2.6l-1.8-0.4c0.1-1.1,1.5-3.9,5.2-3.9c2.7,0,4.1,1.2,4.7,2.6
				c0.3,0.7,0.4,1.7,0.4,2.1v8.3h-1.8V126h0c-1,1.6-2.4,2.5-4.3,2.5c-2.6,0-4.3-1.6-4.3-3.8v-0.1c0-2.8,2.8-3.7,5.1-3.7h3.6V120z
				 M606.9,122.4c-1.4,0-3.2,0.4-3.2,2.2c0,1.4,1.2,2.3,2.8,2.3c2.3,0,4-1.6,4-4v-0.5H606.9z"/>
			<path d="M625.6,120.8c0-2.3-1.2-3.9-3.6-3.9c-2.2,0-3.8,1.8-3.8,4.1v7.3h-1.9v-12.8h1.8v2.4c1-1.7,2.5-2.6,4.4-2.6
				c3.1,0,4.8,2.1,4.8,5.1v7.9h-1.9V120.8z"/>
			<path d="M634.1,122.8c0-0.1,0-0.3,0-0.4c0-2.2,1.4-3.3,2.4-4.4c1.1-1.2,2.4-2.2,2.4-3.8c0-1.6-1.1-3.1-3.5-3.1
				c-2.4,0-3.7,1.8-3.6,4.1l-1.9-0.1c0-0.2,0-0.4,0-0.6c0-3.1,2.6-5.3,5.5-5.3c3.4,0,5.5,2.3,5.5,4.9c0,1.9-1.1,3.1-2.8,4.8
				c-1.2,1.2-2.1,2-2.1,3.9H634.1z M634.9,128.5c0.8,0,1.4-0.6,1.4-1.4c0-0.8-0.6-1.4-1.4-1.4c-0.8,0-1.4,0.6-1.4,1.4
				C633.5,127.9,634.2,128.5,634.9,128.5z"/>
			<path d="M163.1,147.9c0-5,2.5-9.2,6.8-11.7l0.8,1.2c-3.9,2.5-5.7,5.9-5.7,10.5v0.6c0,4.6,1.8,8,5.7,10.4l-0.8,1.3
				c-4.3-2.5-6.8-6.7-6.8-11.7V147.9z"/>
			<path d="M180.2,157.3c-2.4,0-3.9-1.2-5-2.9v2.7h-1.8v-19.5h1.9v9.5c1.1-1.6,2.5-3,4.9-3c3.6,0,6,3.3,6,6.6
				C186.3,154.1,183.9,157.3,180.2,157.3z M184.3,150.7c0-2.7-1.7-5-4.5-5c-2.6,0-4.6,2.4-4.6,4.9c0,2.6,1.9,5,4.6,5
				C182.7,155.6,184.3,153.4,184.3,150.7z"/>
			<path d="M193.3,156.2l-5.8-12h2.2l4.7,9.9l4.4-9.9h2l-8.8,19.1h-2L193.3,156.2z"/>
			<path d="M213.5,157.3c-3.5,0-4.6-2.4-4.9-3.8l1.7-0.4c0.3,1.2,1.1,2.5,3.1,2.5c1.4,0,2.7-0.7,2.7-2.1c0-1.6-1.7-1.9-3-2.1
				c-2.1-0.3-4.2-1.1-4.2-3.6c0-2.4,2.2-3.8,4.3-3.8c3.4,0,4.5,2.3,4.7,3.5l-1.7,0.4c-0.2-0.9-0.9-2.3-3-2.3c-1.4,0-2.4,0.9-2.4,2
				c0,1.6,1.7,1.8,3,2c2.1,0.3,4.2,1.4,4.2,3.7C218,155.8,215.9,157.3,213.5,157.3z"/>
			<path d="M222.3,138.2c0.8,0,1.4,0.6,1.4,1.4c0,0.8-0.6,1.4-1.4,1.4c-0.8,0-1.4-0.6-1.4-1.4C220.9,138.9,221.5,138.2,222.3,138.2z
				 M223.2,144.2v12.8h-1.9v-12.8H223.2z"/>
			<path d="M236.6,157.1h-10.2v-1.6l8-9.6h-7.8v-1.6h10.1v1.6l-8,9.6h8V157.1z"/>
			<path d="M240.5,151.2c0.1,2.5,2.1,4.4,4.6,4.4c1.9,0,3.4-0.9,4-2.7l1.7,0.5c-0.8,2.5-3.1,3.9-5.6,3.9c-3.7,0-6.5-3-6.5-6.6
				c0-3.5,2.6-6.6,6.2-6.6c4,0,6,2.8,6,6.6c0,0.2,0,0.4,0,0.6H240.5z M249,149.6c-0.2-2.3-1.7-4-4.2-4c-2.2,0-4,1.8-4.3,4H249z"/>
			<path d="M259.9,150.7c0-3.8,2.9-6.7,6.6-6.7c3.7,0,6.6,2.9,6.6,6.6c0,3.8-2.9,6.7-6.6,6.7C262.8,157.3,259.9,154.3,259.9,150.7z
				 M271.2,150.7c0-2.7-1.9-5-4.7-5s-4.7,2.3-4.7,4.9c0,2.7,1.9,5,4.7,5C269.3,155.6,271.2,153.4,271.2,150.7z"/>
			<path d="M279,141.8v2.4h3.4v1.6H279v11.2h-1.9v-11.2h-2.4v-1.6h2.4v-2.4c0-3,1.7-4.4,3.9-4.4c0.3,0,0.9,0.1,1.4,0.2v1.6
				c-0.5-0.2-1.1-0.2-1.3-0.2C280.2,139.1,279,139.6,279,141.8z"/>
			<path d="M293.5,138.3v18.8h-2v-18.8H293.5z"/>
			<path d="M302.9,157.1v-16.9h-6.3v-1.8h14.5v1.8h-6.3v16.9H302.9z"/>
			<path d="M320.4,153.7v-7.8h-2.4v-1.7h2.4v-3.7h1.8v3.7h3.2v1.7h-3.2v7.8c0,1.2,0.7,1.8,2.1,1.8c0.4,0,0.9,0,1.2-0.1v1.6
				c-0.4,0.1-1.1,0.2-1.5,0.2C321.3,157.2,320.4,155.6,320.4,153.7z"/>
			<path d="M329.4,151.2c0.1,2.5,2.1,4.4,4.6,4.4c1.9,0,3.4-0.9,4-2.7l1.7,0.5c-0.8,2.5-3.1,3.9-5.6,3.9c-3.7,0-6.5-3-6.5-6.6
				c0-3.5,2.6-6.6,6.2-6.6c4,0,6,2.8,6,6.6c0,0.2,0,0.4,0,0.6H329.4z M337.9,149.6c-0.2-2.3-1.7-4-4.2-4c-2.2,0-4,1.8-4.3,4H337.9z"
				/>
			<path d="M350.7,148.8c0-2.1-1.1-3.1-3.3-3.1c-2.2,0-3.1,1.4-3.4,2.6l-1.8-0.4c0.1-1.1,1.5-3.9,5.2-3.9c2.7,0,4.1,1.2,4.7,2.6
				c0.3,0.7,0.4,1.7,0.4,2.1v8.3h-1.8v-2.3h0c-1,1.6-2.4,2.5-4.3,2.5c-2.6,0-4.3-1.6-4.3-3.8v-0.1c0-2.8,2.8-3.7,5.1-3.7h3.6V148.8z
				 M347.2,151.2c-1.4,0-3.2,0.4-3.2,2.2c0,1.4,1.2,2.3,2.8,2.3c2.3,0,4-1.6,4-4v-0.5H347.2z"/>
			<path d="M365.4,149.5c0-2.1-1-3.8-3.3-3.8c-2.2,0-3.6,2-3.6,4.1v7.3h-1.9v-12.8h1.8v2.2c1-1.6,2.2-2.5,4.1-2.5
				c1.9,0,3.3,0.9,4.1,2.6c1.1-1.7,2.5-2.5,4.5-2.5c3.1,0,4.7,2.1,4.7,5.1v7.9h-1.9v-7.5c0-2.1-1-3.9-3.3-3.9c-2.3,0-3.6,1.8-3.6,4
				v7.4h-1.8V149.5z"/>
			<path d="M385.3,148.5c0,5-2.5,9.2-6.8,11.7l-0.8-1.3c3.9-2.5,5.7-5.9,5.7-10.4v-0.6c0-4.6-1.8-8-5.7-10.5l0.8-1.2
				c4.3,2.5,6.8,6.7,6.8,11.7V148.5z"/>
		</g>
	</g>
	<g>
		<g>
			<g>
				<path d="M1193.6,288.5v1.1l-6.1,2.9l6.1,2.9v1.1l-7.3-3.4v-1L1193.6,288.5z"/>
				<path d="M1198.7,287.9l-0.6,3.7c0.7-0.7,1.9-0.9,2.4-0.9c2.1,0,3.6,1.4,3.6,3.5c0,2.4-2,3.6-3.8,3.6c-1.8,0-3.5-1.2-3.8-3
					l1.1-0.2c0.2,1.3,1.2,2.2,2.7,2.2c1.1,0,2.6-0.7,2.6-2.5s-1.3-2.5-2.6-2.5c-0.8,0-1.7,0.4-2.3,1.1l-1.1-0.4l0.9-5.7h5.8v1.1
					H1198.7z"/>
				<path d="M1215.3,297.9c-1.4,0-2.3-0.7-2.9-1.7v5.2h-1.1v-11.2h1.1v1.6c0.6-0.9,1.5-1.8,2.9-1.8c2.1,0,3.5,1.9,3.5,3.9
					C1218.8,296,1217.4,297.9,1215.3,297.9z M1217.7,294c0-1.6-1-2.9-2.6-2.9c-1.5,0-2.7,1.4-2.7,2.9c0,1.5,1.1,2.9,2.7,2.9
					C1216.7,296.9,1217.7,295.6,1217.7,294z"/>
				<path d="M1222,294.4c0.1,1.5,1.2,2.6,2.7,2.6c1.1,0,2-0.5,2.3-1.6l1,0.3c-0.4,1.4-1.8,2.3-3.3,2.3c-2.2,0-3.8-1.7-3.8-3.9
					c0-2,1.5-3.9,3.6-3.9c2.3,0,3.5,1.7,3.5,3.8c0,0.1,0,0.3,0,0.4H1222z M1227,293.4c-0.1-1.4-1-2.3-2.4-2.3
					c-1.3,0-2.3,1.1-2.5,2.3H1227z"/>
				<path d="M1230.1,294.1c0-2.2,1.7-3.9,3.9-3.9c2.2,0,3.9,1.7,3.9,3.8c0,2.2-1.7,3.9-3.9,3.9
					C1231.8,297.9,1230.1,296.2,1230.1,294.1z M1236.7,294.1c0-1.6-1.1-2.9-2.8-2.9c-1.6,0-2.7,1.3-2.7,2.9c0,1.6,1.1,2.9,2.8,2.9
					C1235.6,296.9,1236.7,295.6,1236.7,294.1z"/>
				<path d="M1244.4,297.9c-1.4,0-2.3-0.7-2.9-1.7v5.2h-1.1v-11.2h1.1v1.6c0.6-0.9,1.5-1.8,2.9-1.8c2.1,0,3.5,1.9,3.5,3.9
					C1247.9,296,1246.6,297.9,1244.4,297.9z M1246.8,294c0-1.6-1-2.9-2.6-2.9c-1.5,0-2.7,1.4-2.7,2.9c0,1.5,1.1,2.9,2.7,2.9
					C1245.9,296.9,1246.8,295.6,1246.8,294z"/>
				<path d="M1251.7,286.4v11.4h-1.1v-11.4H1251.7z"/>
				<path d="M1255.4,294.4c0.1,1.5,1.2,2.6,2.7,2.6c1.1,0,2-0.5,2.3-1.6l1,0.3c-0.4,1.4-1.8,2.3-3.3,2.3c-2.2,0-3.8-1.7-3.8-3.9
					c0-2,1.5-3.9,3.6-3.9c2.3,0,3.5,1.7,3.5,3.8c0,0.1,0,0.3,0,0.4H1255.4z M1260.4,293.4c-0.1-1.4-1-2.3-2.4-2.3
					c-1.3,0-2.3,1.1-2.5,2.3H1260.4z"/>
			</g>
		</g>
		<g class="st9">
			<g class="st5">
				<circle class="st6" cx="1161.1" cy="294.1" r="13.3"/>
			</g>
			<g class="st10">
				<circle class="st6" cx="1161.1" cy="294.1" r="13.3"/>
			</g>
		</g>
		<g>
			<g>
				<path d="M1188.6,326.6l-0.6,3.7c0.7-0.7,1.9-0.9,2.4-0.9c2.1,0,3.6,1.4,3.6,3.5c0,2.4-2,3.6-3.8,3.6c-1.8,0-3.5-1.2-3.8-3
					l1.1-0.2c0.2,1.3,1.2,2.2,2.7,2.2c1.1,0,2.6-0.7,2.6-2.5s-1.3-2.5-2.6-2.5c-0.8,0-1.7,0.4-2.3,1.1l-1.1-0.4l0.9-5.7h5.8v1.1
					H1188.6z"/>
				<path d="M1199.2,334.6v-2.9h-2.9v-1h2.9v-2.9h1.1v2.9h2.9v1h-2.9v2.9H1199.2z"/>
				<path d="M1214.4,336.6c-1.4,0-2.3-0.7-2.9-1.7v5.2h-1.1V329h1.1v1.6c0.6-0.9,1.5-1.8,2.9-1.8c2.1,0,3.5,1.9,3.5,3.9
					C1217.9,334.7,1216.5,336.6,1214.4,336.6z M1216.8,332.7c0-1.6-1-2.9-2.6-2.9c-1.5,0-2.7,1.4-2.7,2.9c0,1.5,1.1,2.9,2.7,2.9
					C1215.8,335.6,1216.8,334.3,1216.8,332.7z"/>
				<path d="M1221.1,333c0.1,1.5,1.2,2.6,2.7,2.6c1.1,0,2-0.5,2.3-1.6l1,0.3c-0.4,1.4-1.8,2.3-3.3,2.3c-2.2,0-3.8-1.7-3.8-3.9
					c0-2,1.5-3.9,3.6-3.9c2.3,0,3.5,1.7,3.5,3.8c0,0.1,0,0.3,0,0.4H1221.1z M1226.1,332.1c-0.1-1.4-1-2.3-2.4-2.3
					c-1.3,0-2.3,1.1-2.5,2.3H1226.1z"/>
				<path d="M1229.2,332.7c0-2.2,1.7-3.9,3.9-3.9c2.2,0,3.9,1.7,3.9,3.8c0,2.2-1.7,3.9-3.9,3.9
					C1230.9,336.6,1229.2,334.9,1229.2,332.7z M1235.8,332.7c0-1.6-1.1-2.9-2.8-2.9c-1.6,0-2.7,1.3-2.7,2.9c0,1.6,1.1,2.9,2.8,2.9
					C1234.7,335.6,1235.8,334.3,1235.8,332.7z"/>
				<path d="M1243.5,336.6c-1.4,0-2.3-0.7-2.9-1.7v5.2h-1.1V329h1.1v1.6c0.6-0.9,1.5-1.8,2.9-1.8c2.1,0,3.5,1.9,3.5,3.9
					C1247,334.7,1245.7,336.6,1243.5,336.6z M1245.9,332.7c0-1.6-1-2.9-2.6-2.9c-1.5,0-2.7,1.4-2.7,2.9c0,1.5,1.1,2.9,2.7,2.9
					C1245,335.6,1245.9,334.3,1245.9,332.7z"/>
				<path d="M1250.8,325v11.4h-1.1V325H1250.8z"/>
				<path d="M1254.5,333c0.1,1.5,1.2,2.6,2.7,2.6c1.1,0,2-0.5,2.3-1.6l1,0.3c-0.4,1.4-1.8,2.3-3.3,2.3c-2.2,0-3.8-1.7-3.8-3.9
					c0-2,1.5-3.9,3.6-3.9c2.3,0,3.5,1.7,3.5,3.8c0,0.1,0,0.3,0,0.4H1254.5z M1259.5,332.1c-0.1-1.4-1-2.3-2.4-2.3
					c-1.3,0-2.3,1.1-2.5,2.3H1259.5z"/>
			</g>
		</g>
		<g>
			<circle class="st4" cx="1161.1" cy="332.7" r="13.3"/>
		</g>
		<g>
			<g class="st5">
				<pattern  id="SVGID_2_" xlink:href="#white" patternTransform="matrix(1 0 0 1 4608.6362 472.8484)"  class="st5">
				</pattern>
				<circle class="st11" cx="1161.1" cy="294.1" r="13.3"/>
			</g>
			<g class="st10">
				<pattern  id="SVGID_3_" xlink:href="#white" patternTransform="matrix(1 0 0 1 4608.6362 472.8484)"  class="st10">
				</pattern>
				<circle class="st12" cx="1161.1" cy="294.1" r="13.3"/>
			</g>
		</g>
	</g>
</g>
</svg>
