<?xml version="1.0" encoding="utf-8"?>
<!-- Generator: Adobe Illustrator 21.1.0, SVG Export Plug-In . SVG Version: 6.00 Build 0)  -->
<svg version="1.1" id="graphOneCyber" xmlns="http://www.w3.org/2000/svg" xmlns:xlink="http://www.w3.org/1999/xlink" x="0px" y="0px"
	 viewBox="0 0 1500 1053" style="enable-background:new 0 0 1500 1053;" xml:space="preserve">
<style type="text/css">
	.st0-c1{fill:none;}
	.st1-c1{fill:none;stroke:#000000;stroke-width:2;stroke-linecap:round;stroke-miterlimit:10;}
	.st2-c1{fill:none;stroke:#000000;stroke-width:2;stroke-linecap:round;stroke-miterlimit:10;stroke-dasharray:0,10;}
	.st3-c1{fill:#8EFFDE;}
	.st4-c1{fill:url(#SVGID_6_);}
	.st5-c1{opacity:0.9;}
	.st6-c1{fill:#FF8F4E;}
	.st7-c1{fill:none;stroke:#000000;stroke-width:0.75;stroke-miterlimit:10;}
	.st8-c1{fill:url(#SVGID_7_);}
	.st9-c1{fill:url(#SVGID_8_);}
	.st10-c1{fill:url(#SVGID_9_);}
	.st11-c1{fill:url(#SVGID_10_);}
</style>
<pattern  y="1053" width="240" height="240" patternUnits="userSpaceOnUse" id="SVGID_1_" viewBox="1 -241 240 240" style="overflow:visible;">
	<g>
		<rect x="1" y="-241" class="st0-c1" width="240" height="240"/>
		<g>
			<rect x="1" y="-241" class="st0-c1" width="240" height="240"/>
			<g>
				<g>
					<line class="st1-c1" x1="241" y1="-241" x2="241" y2="-241"/>
				</g>
			</g>
			<g>
				<g>
					<line class="st1-c1" x1="1" y1="-241" x2="1" y2="-241"/>
					<line class="st2-c1" x1="11" y1="-241" x2="236" y2="-241"/>
					<line class="st1-c1" x1="241" y1="-241" x2="241" y2="-241"/>
				</g>
			</g>
			<g>
				<g>
					<line class="st1-c1" x1="1" y1="-241" x2="1" y2="-241"/>
				</g>
			</g>
			<g>
				<g>
					<line class="st1-c1" x1="241" y1="-1" x2="241" y2="-1"/>
				</g>
				<g>
					<line class="st1-c1" x1="241" y1="-11" x2="241" y2="-11"/>
				</g>
				<g>
					<line class="st1-c1" x1="241" y1="-21" x2="241" y2="-21"/>
				</g>
				<g>
					<line class="st1-c1" x1="241" y1="-31" x2="241" y2="-31"/>
				</g>
				<g>
					<line class="st1-c1" x1="241" y1="-41" x2="241" y2="-41"/>
				</g>
				<g>
					<line class="st1-c1" x1="241" y1="-51" x2="241" y2="-51"/>
				</g>
				<g>
					<line class="st1-c1" x1="241" y1="-61" x2="241" y2="-61"/>
				</g>
				<g>
					<line class="st1-c1" x1="241" y1="-71" x2="241" y2="-71"/>
				</g>
				<g>
					<line class="st1-c1" x1="241" y1="-81" x2="241" y2="-81"/>
				</g>
				<g>
					<line class="st1-c1" x1="241" y1="-91" x2="241" y2="-91"/>
				</g>
				<g>
					<line class="st1-c1" x1="241" y1="-101" x2="241" y2="-101"/>
				</g>
				<g>
					<line class="st1-c1" x1="241" y1="-111" x2="241" y2="-111"/>
				</g>
				<g>
					<line class="st1-c1" x1="241" y1="-121" x2="241" y2="-121"/>
				</g>
				<g>
					<line class="st1-c1" x1="241" y1="-131" x2="241" y2="-131"/>
				</g>
				<g>
					<line class="st1-c1" x1="241" y1="-141" x2="241" y2="-141"/>
				</g>
				<g>
					<line class="st1-c1" x1="241" y1="-151" x2="241" y2="-151"/>
				</g>
				<g>
					<line class="st1-c1" x1="241" y1="-161" x2="241" y2="-161"/>
				</g>
				<g>
					<line class="st1-c1" x1="241" y1="-171" x2="241" y2="-171"/>
				</g>
				<g>
					<line class="st1-c1" x1="241" y1="-181" x2="241" y2="-181"/>
				</g>
				<g>
					<line class="st1-c1" x1="241" y1="-191" x2="241" y2="-191"/>
				</g>
				<g>
					<line class="st1-c1" x1="241" y1="-201" x2="241" y2="-201"/>
				</g>
				<g>
					<line class="st1-c1" x1="241" y1="-211" x2="241" y2="-211"/>
				</g>
				<g>
					<line class="st1-c1" x1="241" y1="-221" x2="241" y2="-221"/>
				</g>
				<g>
					<line class="st1-c1" x1="241" y1="-231" x2="241" y2="-231"/>
				</g>
				<g>
					<line class="st1-c1" x1="241" y1="-241" x2="241" y2="-241"/>
				</g>
			</g>
			<g>
				<g>
					<line class="st1-c1" x1="1" y1="-1" x2="1" y2="-1"/>
					<line class="st2-c1" x1="11" y1="-1" x2="236" y2="-1"/>
					<line class="st1-c1" x1="241" y1="-1" x2="241" y2="-1"/>
				</g>
				<g>
					<line class="st1-c1" x1="1" y1="-11" x2="1" y2="-11"/>
					<line class="st2-c1" x1="11" y1="-11" x2="236" y2="-11"/>
					<line class="st1-c1" x1="241" y1="-11" x2="241" y2="-11"/>
				</g>
				<g>
					<line class="st1-c1" x1="1" y1="-21" x2="1" y2="-21"/>
					<line class="st2-c1" x1="11" y1="-21" x2="236" y2="-21"/>
					<line class="st1-c1" x1="241" y1="-21" x2="241" y2="-21"/>
				</g>
				<g>
					<line class="st1-c1" x1="1" y1="-31" x2="1" y2="-31"/>
					<line class="st2-c1" x1="11" y1="-31" x2="236" y2="-31"/>
					<line class="st1-c1" x1="241" y1="-31" x2="241" y2="-31"/>
				</g>
				<g>
					<line class="st1-c1" x1="1" y1="-41" x2="1" y2="-41"/>
					<line class="st2-c1" x1="11" y1="-41" x2="236" y2="-41"/>
					<line class="st1-c1" x1="241" y1="-41" x2="241" y2="-41"/>
				</g>
				<g>
					<line class="st1-c1" x1="1" y1="-51" x2="1" y2="-51"/>
					<line class="st2-c1" x1="11" y1="-51" x2="236" y2="-51"/>
					<line class="st1-c1" x1="241" y1="-51" x2="241" y2="-51"/>
				</g>
				<g>
					<line class="st1-c1" x1="1" y1="-61" x2="1" y2="-61"/>
					<line class="st2-c1" x1="11" y1="-61" x2="236" y2="-61"/>
					<line class="st1-c1" x1="241" y1="-61" x2="241" y2="-61"/>
				</g>
				<g>
					<line class="st1-c1" x1="1" y1="-71" x2="1" y2="-71"/>
					<line class="st2-c1" x1="11" y1="-71" x2="236" y2="-71"/>
					<line class="st1-c1" x1="241" y1="-71" x2="241" y2="-71"/>
				</g>
				<g>
					<line class="st1-c1" x1="1" y1="-81" x2="1" y2="-81"/>
					<line class="st2-c1" x1="11" y1="-81" x2="236" y2="-81"/>
					<line class="st1-c1" x1="241" y1="-81" x2="241" y2="-81"/>
				</g>
				<g>
					<line class="st1-c1" x1="1" y1="-91" x2="1" y2="-91"/>
					<line class="st2-c1" x1="11" y1="-91" x2="236" y2="-91"/>
					<line class="st1-c1" x1="241" y1="-91" x2="241" y2="-91"/>
				</g>
				<g>
					<line class="st1-c1" x1="1" y1="-101" x2="1" y2="-101"/>
					<line class="st2-c1" x1="11" y1="-101" x2="236" y2="-101"/>
					<line class="st1-c1" x1="241" y1="-101" x2="241" y2="-101"/>
				</g>
				<g>
					<line class="st1-c1" x1="1" y1="-111" x2="1" y2="-111"/>
					<line class="st2-c1" x1="11" y1="-111" x2="236" y2="-111"/>
					<line class="st1-c1" x1="241" y1="-111" x2="241" y2="-111"/>
				</g>
				<g>
					<line class="st1-c1" x1="1" y1="-121" x2="1" y2="-121"/>
					<line class="st2-c1" x1="11" y1="-121" x2="236" y2="-121"/>
					<line class="st1-c1" x1="241" y1="-121" x2="241" y2="-121"/>
				</g>
				<g>
					<line class="st1-c1" x1="1" y1="-131" x2="1" y2="-131"/>
					<line class="st2-c1" x1="11" y1="-131" x2="236" y2="-131"/>
					<line class="st1-c1" x1="241" y1="-131" x2="241" y2="-131"/>
				</g>
				<g>
					<line class="st1-c1" x1="1" y1="-141" x2="1" y2="-141"/>
					<line class="st2-c1" x1="11" y1="-141" x2="236" y2="-141"/>
					<line class="st1-c1" x1="241" y1="-141" x2="241" y2="-141"/>
				</g>
				<g>
					<line class="st1-c1" x1="1" y1="-151" x2="1" y2="-151"/>
					<line class="st2-c1" x1="11" y1="-151" x2="236" y2="-151"/>
					<line class="st1-c1" x1="241" y1="-151" x2="241" y2="-151"/>
				</g>
				<g>
					<line class="st1-c1" x1="1" y1="-161" x2="1" y2="-161"/>
					<line class="st2-c1" x1="11" y1="-161" x2="236" y2="-161"/>
					<line class="st1-c1" x1="241" y1="-161" x2="241" y2="-161"/>
				</g>
				<g>
					<line class="st1-c1" x1="1" y1="-171" x2="1" y2="-171"/>
					<line class="st2-c1" x1="11" y1="-171" x2="236" y2="-171"/>
					<line class="st1-c1" x1="241" y1="-171" x2="241" y2="-171"/>
				</g>
				<g>
					<line class="st1-c1" x1="1" y1="-181" x2="1" y2="-181"/>
					<line class="st2-c1" x1="11" y1="-181" x2="236" y2="-181"/>
					<line class="st1-c1" x1="241" y1="-181" x2="241" y2="-181"/>
				</g>
				<g>
					<line class="st1-c1" x1="1" y1="-191" x2="1" y2="-191"/>
					<line class="st2-c1" x1="11" y1="-191" x2="236" y2="-191"/>
					<line class="st1-c1" x1="241" y1="-191" x2="241" y2="-191"/>
				</g>
				<g>
					<line class="st1-c1" x1="1" y1="-201" x2="1" y2="-201"/>
					<line class="st2-c1" x1="11" y1="-201" x2="236" y2="-201"/>
					<line class="st1-c1" x1="241" y1="-201" x2="241" y2="-201"/>
				</g>
				<g>
					<line class="st1-c1" x1="1" y1="-211" x2="1" y2="-211"/>
					<line class="st2-c1" x1="11" y1="-211" x2="236" y2="-211"/>
					<line class="st1-c1" x1="241" y1="-211" x2="241" y2="-211"/>
				</g>
				<g>
					<line class="st1-c1" x1="1" y1="-221" x2="1" y2="-221"/>
					<line class="st2-c1" x1="11" y1="-221" x2="236" y2="-221"/>
					<line class="st1-c1" x1="241" y1="-221" x2="241" y2="-221"/>
				</g>
				<g>
					<line class="st1-c1" x1="1" y1="-231" x2="1" y2="-231"/>
					<line class="st2-c1" x1="11" y1="-231" x2="236" y2="-231"/>
					<line class="st1-c1" x1="241" y1="-231" x2="241" y2="-231"/>
				</g>
				<g>
					<line class="st1-c1" x1="1" y1="-241" x2="1" y2="-241"/>
					<line class="st2-c1" x1="11" y1="-241" x2="236" y2="-241"/>
					<line class="st1-c1" x1="241" y1="-241" x2="241" y2="-241"/>
				</g>
			</g>
			<g>
				<g>
					<line class="st1-c1" x1="1" y1="-1" x2="1" y2="-1"/>
				</g>
				<g>
					<line class="st1-c1" x1="1" y1="-11" x2="1" y2="-11"/>
				</g>
				<g>
					<line class="st1-c1" x1="1" y1="-21" x2="1" y2="-21"/>
				</g>
				<g>
					<line class="st1-c1" x1="1" y1="-31" x2="1" y2="-31"/>
				</g>
				<g>
					<line class="st1-c1" x1="1" y1="-41" x2="1" y2="-41"/>
				</g>
				<g>
					<line class="st1-c1" x1="1" y1="-51" x2="1" y2="-51"/>
				</g>
				<g>
					<line class="st1-c1" x1="1" y1="-61" x2="1" y2="-61"/>
				</g>
				<g>
					<line class="st1-c1" x1="1" y1="-71" x2="1" y2="-71"/>
				</g>
				<g>
					<line class="st1-c1" x1="1" y1="-81" x2="1" y2="-81"/>
				</g>
				<g>
					<line class="st1-c1" x1="1" y1="-91" x2="1" y2="-91"/>
				</g>
				<g>
					<line class="st1-c1" x1="1" y1="-101" x2="1" y2="-101"/>
				</g>
				<g>
					<line class="st1-c1" x1="1" y1="-111" x2="1" y2="-111"/>
				</g>
				<g>
					<line class="st1-c1" x1="1" y1="-121" x2="1" y2="-121"/>
				</g>
				<g>
					<line class="st1-c1" x1="1" y1="-131" x2="1" y2="-131"/>
				</g>
				<g>
					<line class="st1-c1" x1="1" y1="-141" x2="1" y2="-141"/>
				</g>
				<g>
					<line class="st1-c1" x1="1" y1="-151" x2="1" y2="-151"/>
				</g>
				<g>
					<line class="st1-c1" x1="1" y1="-161" x2="1" y2="-161"/>
				</g>
				<g>
					<line class="st1-c1" x1="1" y1="-171" x2="1" y2="-171"/>
				</g>
				<g>
					<line class="st1-c1" x1="1" y1="-181" x2="1" y2="-181"/>
				</g>
				<g>
					<line class="st1-c1" x1="1" y1="-191" x2="1" y2="-191"/>
				</g>
				<g>
					<line class="st1-c1" x1="1" y1="-201" x2="1" y2="-201"/>
				</g>
				<g>
					<line class="st1-c1" x1="1" y1="-211" x2="1" y2="-211"/>
				</g>
				<g>
					<line class="st1-c1" x1="1" y1="-221" x2="1" y2="-221"/>
				</g>
				<g>
					<line class="st1-c1" x1="1" y1="-231" x2="1" y2="-231"/>
				</g>
				<g>
					<line class="st1-c1" x1="1" y1="-241" x2="1" y2="-241"/>
				</g>
			</g>
			<g>
				<g>
					<line class="st1-c1" x1="241" y1="-1" x2="241" y2="-1"/>
				</g>
			</g>
			<g>
				<g>
					<line class="st1-c1" x1="1" y1="-1" x2="1" y2="-1"/>
					<line class="st2-c1" x1="11" y1="-1" x2="236" y2="-1"/>
					<line class="st1-c1" x1="241" y1="-1" x2="241" y2="-1"/>
				</g>
			</g>
			<g>
				<g>
					<line class="st1-c1" x1="1" y1="-1" x2="1" y2="-1"/>
				</g>
			</g>
		</g>
	</g>
</pattern>
<pattern  y="1053" width="240" height="240" patternUnits="userSpaceOnUse" id="SVGID_2_" viewBox="1 -241 240 240" style="overflow:visible;">
	<g>
		<rect x="1" y="-241" class="st0-c1" width="240" height="240"/>
		<g>
			<rect x="1" y="-241" class="st0-c1" width="240" height="240"/>
			<g>
				<g>
					<line class="st1-c1" x1="241" y1="-241" x2="241" y2="-241"/>
				</g>
			</g>
			<g>
				<g>
					<line class="st1-c1" x1="1" y1="-241" x2="1" y2="-241"/>
					<line class="st2-c1" x1="11" y1="-241" x2="236" y2="-241"/>
					<line class="st1-c1" x1="241" y1="-241" x2="241" y2="-241"/>
				</g>
			</g>
			<g>
				<g>
					<line class="st1-c1" x1="1" y1="-241" x2="1" y2="-241"/>
				</g>
			</g>
			<g>
				<g>
					<line class="st1-c1" x1="241" y1="-1" x2="241" y2="-1"/>
				</g>
				<g>
					<line class="st1-c1" x1="241" y1="-11" x2="241" y2="-11"/>
				</g>
				<g>
					<line class="st1-c1" x1="241" y1="-21" x2="241" y2="-21"/>
				</g>
				<g>
					<line class="st1-c1" x1="241" y1="-31" x2="241" y2="-31"/>
				</g>
				<g>
					<line class="st1-c1" x1="241" y1="-41" x2="241" y2="-41"/>
				</g>
				<g>
					<line class="st1-c1" x1="241" y1="-51" x2="241" y2="-51"/>
				</g>
				<g>
					<line class="st1-c1" x1="241" y1="-61" x2="241" y2="-61"/>
				</g>
				<g>
					<line class="st1-c1" x1="241" y1="-71" x2="241" y2="-71"/>
				</g>
				<g>
					<line class="st1-c1" x1="241" y1="-81" x2="241" y2="-81"/>
				</g>
				<g>
					<line class="st1-c1" x1="241" y1="-91" x2="241" y2="-91"/>
				</g>
				<g>
					<line class="st1-c1" x1="241" y1="-101" x2="241" y2="-101"/>
				</g>
				<g>
					<line class="st1-c1" x1="241" y1="-111" x2="241" y2="-111"/>
				</g>
				<g>
					<line class="st1-c1" x1="241" y1="-121" x2="241" y2="-121"/>
				</g>
				<g>
					<line class="st1-c1" x1="241" y1="-131" x2="241" y2="-131"/>
				</g>
				<g>
					<line class="st1-c1" x1="241" y1="-141" x2="241" y2="-141"/>
				</g>
				<g>
					<line class="st1-c1" x1="241" y1="-151" x2="241" y2="-151"/>
				</g>
				<g>
					<line class="st1-c1" x1="241" y1="-161" x2="241" y2="-161"/>
				</g>
				<g>
					<line class="st1-c1" x1="241" y1="-171" x2="241" y2="-171"/>
				</g>
				<g>
					<line class="st1-c1" x1="241" y1="-181" x2="241" y2="-181"/>
				</g>
				<g>
					<line class="st1-c1" x1="241" y1="-191" x2="241" y2="-191"/>
				</g>
				<g>
					<line class="st1-c1" x1="241" y1="-201" x2="241" y2="-201"/>
				</g>
				<g>
					<line class="st1-c1" x1="241" y1="-211" x2="241" y2="-211"/>
				</g>
				<g>
					<line class="st1-c1" x1="241" y1="-221" x2="241" y2="-221"/>
				</g>
				<g>
					<line class="st1-c1" x1="241" y1="-231" x2="241" y2="-231"/>
				</g>
				<g>
					<line class="st1-c1" x1="241" y1="-241" x2="241" y2="-241"/>
				</g>
			</g>
			<g>
				<g>
					<line class="st1-c1" x1="1" y1="-1" x2="1" y2="-1"/>
					<line class="st2-c1" x1="11" y1="-1" x2="236" y2="-1"/>
					<line class="st1-c1" x1="241" y1="-1" x2="241" y2="-1"/>
				</g>
				<g>
					<line class="st1-c1" x1="1" y1="-11" x2="1" y2="-11"/>
					<line class="st2-c1" x1="11" y1="-11" x2="236" y2="-11"/>
					<line class="st1-c1" x1="241" y1="-11" x2="241" y2="-11"/>
				</g>
				<g>
					<line class="st1-c1" x1="1" y1="-21" x2="1" y2="-21"/>
					<line class="st2-c1" x1="11" y1="-21" x2="236" y2="-21"/>
					<line class="st1-c1" x1="241" y1="-21" x2="241" y2="-21"/>
				</g>
				<g>
					<line class="st1-c1" x1="1" y1="-31" x2="1" y2="-31"/>
					<line class="st2-c1" x1="11" y1="-31" x2="236" y2="-31"/>
					<line class="st1-c1" x1="241" y1="-31" x2="241" y2="-31"/>
				</g>
				<g>
					<line class="st1-c1" x1="1" y1="-41" x2="1" y2="-41"/>
					<line class="st2-c1" x1="11" y1="-41" x2="236" y2="-41"/>
					<line class="st1-c1" x1="241" y1="-41" x2="241" y2="-41"/>
				</g>
				<g>
					<line class="st1-c1" x1="1" y1="-51" x2="1" y2="-51"/>
					<line class="st2-c1" x1="11" y1="-51" x2="236" y2="-51"/>
					<line class="st1-c1" x1="241" y1="-51" x2="241" y2="-51"/>
				</g>
				<g>
					<line class="st1-c1" x1="1" y1="-61" x2="1" y2="-61"/>
					<line class="st2-c1" x1="11" y1="-61" x2="236" y2="-61"/>
					<line class="st1-c1" x1="241" y1="-61" x2="241" y2="-61"/>
				</g>
				<g>
					<line class="st1-c1" x1="1" y1="-71" x2="1" y2="-71"/>
					<line class="st2-c1" x1="11" y1="-71" x2="236" y2="-71"/>
					<line class="st1-c1" x1="241" y1="-71" x2="241" y2="-71"/>
				</g>
				<g>
					<line class="st1-c1" x1="1" y1="-81" x2="1" y2="-81"/>
					<line class="st2-c1" x1="11" y1="-81" x2="236" y2="-81"/>
					<line class="st1-c1" x1="241" y1="-81" x2="241" y2="-81"/>
				</g>
				<g>
					<line class="st1-c1" x1="1" y1="-91" x2="1" y2="-91"/>
					<line class="st2-c1" x1="11" y1="-91" x2="236" y2="-91"/>
					<line class="st1-c1" x1="241" y1="-91" x2="241" y2="-91"/>
				</g>
				<g>
					<line class="st1-c1" x1="1" y1="-101" x2="1" y2="-101"/>
					<line class="st2-c1" x1="11" y1="-101" x2="236" y2="-101"/>
					<line class="st1-c1" x1="241" y1="-101" x2="241" y2="-101"/>
				</g>
				<g>
					<line class="st1-c1" x1="1" y1="-111" x2="1" y2="-111"/>
					<line class="st2-c1" x1="11" y1="-111" x2="236" y2="-111"/>
					<line class="st1-c1" x1="241" y1="-111" x2="241" y2="-111"/>
				</g>
				<g>
					<line class="st1-c1" x1="1" y1="-121" x2="1" y2="-121"/>
					<line class="st2-c1" x1="11" y1="-121" x2="236" y2="-121"/>
					<line class="st1-c1" x1="241" y1="-121" x2="241" y2="-121"/>
				</g>
				<g>
					<line class="st1-c1" x1="1" y1="-131" x2="1" y2="-131"/>
					<line class="st2-c1" x1="11" y1="-131" x2="236" y2="-131"/>
					<line class="st1-c1" x1="241" y1="-131" x2="241" y2="-131"/>
				</g>
				<g>
					<line class="st1-c1" x1="1" y1="-141" x2="1" y2="-141"/>
					<line class="st2-c1" x1="11" y1="-141" x2="236" y2="-141"/>
					<line class="st1-c1" x1="241" y1="-141" x2="241" y2="-141"/>
				</g>
				<g>
					<line class="st1-c1" x1="1" y1="-151" x2="1" y2="-151"/>
					<line class="st2-c1" x1="11" y1="-151" x2="236" y2="-151"/>
					<line class="st1-c1" x1="241" y1="-151" x2="241" y2="-151"/>
				</g>
				<g>
					<line class="st1-c1" x1="1" y1="-161" x2="1" y2="-161"/>
					<line class="st2-c1" x1="11" y1="-161" x2="236" y2="-161"/>
					<line class="st1-c1" x1="241" y1="-161" x2="241" y2="-161"/>
				</g>
				<g>
					<line class="st1-c1" x1="1" y1="-171" x2="1" y2="-171"/>
					<line class="st2-c1" x1="11" y1="-171" x2="236" y2="-171"/>
					<line class="st1-c1" x1="241" y1="-171" x2="241" y2="-171"/>
				</g>
				<g>
					<line class="st1-c1" x1="1" y1="-181" x2="1" y2="-181"/>
					<line class="st2-c1" x1="11" y1="-181" x2="236" y2="-181"/>
					<line class="st1-c1" x1="241" y1="-181" x2="241" y2="-181"/>
				</g>
				<g>
					<line class="st1-c1" x1="1" y1="-191" x2="1" y2="-191"/>
					<line class="st2-c1" x1="11" y1="-191" x2="236" y2="-191"/>
					<line class="st1-c1" x1="241" y1="-191" x2="241" y2="-191"/>
				</g>
				<g>
					<line class="st1-c1" x1="1" y1="-201" x2="1" y2="-201"/>
					<line class="st2-c1" x1="11" y1="-201" x2="236" y2="-201"/>
					<line class="st1-c1" x1="241" y1="-201" x2="241" y2="-201"/>
				</g>
				<g>
					<line class="st1-c1" x1="1" y1="-211" x2="1" y2="-211"/>
					<line class="st2-c1" x1="11" y1="-211" x2="236" y2="-211"/>
					<line class="st1-c1" x1="241" y1="-211" x2="241" y2="-211"/>
				</g>
				<g>
					<line class="st1-c1" x1="1" y1="-221" x2="1" y2="-221"/>
					<line class="st2-c1" x1="11" y1="-221" x2="236" y2="-221"/>
					<line class="st1-c1" x1="241" y1="-221" x2="241" y2="-221"/>
				</g>
				<g>
					<line class="st1-c1" x1="1" y1="-231" x2="1" y2="-231"/>
					<line class="st2-c1" x1="11" y1="-231" x2="236" y2="-231"/>
					<line class="st1-c1" x1="241" y1="-231" x2="241" y2="-231"/>
				</g>
				<g>
					<line class="st1-c1" x1="1" y1="-241" x2="1" y2="-241"/>
					<line class="st2-c1" x1="11" y1="-241" x2="236" y2="-241"/>
					<line class="st1-c1" x1="241" y1="-241" x2="241" y2="-241"/>
				</g>
			</g>
			<g>
				<g>
					<line class="st1-c1" x1="1" y1="-1" x2="1" y2="-1"/>
				</g>
				<g>
					<line class="st1-c1" x1="1" y1="-11" x2="1" y2="-11"/>
				</g>
				<g>
					<line class="st1-c1" x1="1" y1="-21" x2="1" y2="-21"/>
				</g>
				<g>
					<line class="st1-c1" x1="1" y1="-31" x2="1" y2="-31"/>
				</g>
				<g>
					<line class="st1-c1" x1="1" y1="-41" x2="1" y2="-41"/>
				</g>
				<g>
					<line class="st1-c1" x1="1" y1="-51" x2="1" y2="-51"/>
				</g>
				<g>
					<line class="st1-c1" x1="1" y1="-61" x2="1" y2="-61"/>
				</g>
				<g>
					<line class="st1-c1" x1="1" y1="-71" x2="1" y2="-71"/>
				</g>
				<g>
					<line class="st1-c1" x1="1" y1="-81" x2="1" y2="-81"/>
				</g>
				<g>
					<line class="st1-c1" x1="1" y1="-91" x2="1" y2="-91"/>
				</g>
				<g>
					<line class="st1-c1" x1="1" y1="-101" x2="1" y2="-101"/>
				</g>
				<g>
					<line class="st1-c1" x1="1" y1="-111" x2="1" y2="-111"/>
				</g>
				<g>
					<line class="st1-c1" x1="1" y1="-121" x2="1" y2="-121"/>
				</g>
				<g>
					<line class="st1-c1" x1="1" y1="-131" x2="1" y2="-131"/>
				</g>
				<g>
					<line class="st1-c1" x1="1" y1="-141" x2="1" y2="-141"/>
				</g>
				<g>
					<line class="st1-c1" x1="1" y1="-151" x2="1" y2="-151"/>
				</g>
				<g>
					<line class="st1-c1" x1="1" y1="-161" x2="1" y2="-161"/>
				</g>
				<g>
					<line class="st1-c1" x1="1" y1="-171" x2="1" y2="-171"/>
				</g>
				<g>
					<line class="st1-c1" x1="1" y1="-181" x2="1" y2="-181"/>
				</g>
				<g>
					<line class="st1-c1" x1="1" y1="-191" x2="1" y2="-191"/>
				</g>
				<g>
					<line class="st1-c1" x1="1" y1="-201" x2="1" y2="-201"/>
				</g>
				<g>
					<line class="st1-c1" x1="1" y1="-211" x2="1" y2="-211"/>
				</g>
				<g>
					<line class="st1-c1" x1="1" y1="-221" x2="1" y2="-221"/>
				</g>
				<g>
					<line class="st1-c1" x1="1" y1="-231" x2="1" y2="-231"/>
				</g>
				<g>
					<line class="st1-c1" x1="1" y1="-241" x2="1" y2="-241"/>
				</g>
			</g>
			<g>
				<g>
					<line class="st1-c1" x1="241" y1="-1" x2="241" y2="-1"/>
				</g>
			</g>
			<g>
				<g>
					<line class="st1-c1" x1="1" y1="-1" x2="1" y2="-1"/>
					<line class="st2-c1" x1="11" y1="-1" x2="236" y2="-1"/>
					<line class="st1-c1" x1="241" y1="-1" x2="241" y2="-1"/>
				</g>
			</g>
			<g>
				<g>
					<line class="st1-c1" x1="1" y1="-1" x2="1" y2="-1"/>
				</g>
			</g>
		</g>
	</g>
</pattern>
<pattern  y="1053" width="240" height="240" patternUnits="userSpaceOnUse" id="SVGID_3_" viewBox="1 -241 240 240" style="overflow:visible;">
	<g>
		<rect x="1" y="-241" class="st0-c1" width="240" height="240"/>
		<g>
			<rect x="1" y="-241" class="st0-c1" width="240" height="240"/>
			<g>
				<g>
					<line class="st1-c1" x1="241" y1="-241" x2="241" y2="-241"/>
				</g>
			</g>
			<g>
				<g>
					<line class="st1-c1" x1="1" y1="-241" x2="1" y2="-241"/>
					<line class="st2-c1" x1="11" y1="-241" x2="236" y2="-241"/>
					<line class="st1-c1" x1="241" y1="-241" x2="241" y2="-241"/>
				</g>
			</g>
			<g>
				<g>
					<line class="st1-c1" x1="1" y1="-241" x2="1" y2="-241"/>
				</g>
			</g>
			<g>
				<g>
					<line class="st1-c1" x1="241" y1="-1" x2="241" y2="-1"/>
				</g>
				<g>
					<line class="st1-c1" x1="241" y1="-11" x2="241" y2="-11"/>
				</g>
				<g>
					<line class="st1-c1" x1="241" y1="-21" x2="241" y2="-21"/>
				</g>
				<g>
					<line class="st1-c1" x1="241" y1="-31" x2="241" y2="-31"/>
				</g>
				<g>
					<line class="st1-c1" x1="241" y1="-41" x2="241" y2="-41"/>
				</g>
				<g>
					<line class="st1-c1" x1="241" y1="-51" x2="241" y2="-51"/>
				</g>
				<g>
					<line class="st1-c1" x1="241" y1="-61" x2="241" y2="-61"/>
				</g>
				<g>
					<line class="st1-c1" x1="241" y1="-71" x2="241" y2="-71"/>
				</g>
				<g>
					<line class="st1-c1" x1="241" y1="-81" x2="241" y2="-81"/>
				</g>
				<g>
					<line class="st1-c1" x1="241" y1="-91" x2="241" y2="-91"/>
				</g>
				<g>
					<line class="st1-c1" x1="241" y1="-101" x2="241" y2="-101"/>
				</g>
				<g>
					<line class="st1-c1" x1="241" y1="-111" x2="241" y2="-111"/>
				</g>
				<g>
					<line class="st1-c1" x1="241" y1="-121" x2="241" y2="-121"/>
				</g>
				<g>
					<line class="st1-c1" x1="241" y1="-131" x2="241" y2="-131"/>
				</g>
				<g>
					<line class="st1-c1" x1="241" y1="-141" x2="241" y2="-141"/>
				</g>
				<g>
					<line class="st1-c1" x1="241" y1="-151" x2="241" y2="-151"/>
				</g>
				<g>
					<line class="st1-c1" x1="241" y1="-161" x2="241" y2="-161"/>
				</g>
				<g>
					<line class="st1-c1" x1="241" y1="-171" x2="241" y2="-171"/>
				</g>
				<g>
					<line class="st1-c1" x1="241" y1="-181" x2="241" y2="-181"/>
				</g>
				<g>
					<line class="st1-c1" x1="241" y1="-191" x2="241" y2="-191"/>
				</g>
				<g>
					<line class="st1-c1" x1="241" y1="-201" x2="241" y2="-201"/>
				</g>
				<g>
					<line class="st1-c1" x1="241" y1="-211" x2="241" y2="-211"/>
				</g>
				<g>
					<line class="st1-c1" x1="241" y1="-221" x2="241" y2="-221"/>
				</g>
				<g>
					<line class="st1-c1" x1="241" y1="-231" x2="241" y2="-231"/>
				</g>
				<g>
					<line class="st1-c1" x1="241" y1="-241" x2="241" y2="-241"/>
				</g>
			</g>
			<g>
				<g>
					<line class="st1-c1" x1="1" y1="-1" x2="1" y2="-1"/>
					<line class="st2-c1" x1="11" y1="-1" x2="236" y2="-1"/>
					<line class="st1-c1" x1="241" y1="-1" x2="241" y2="-1"/>
				</g>
				<g>
					<line class="st1-c1" x1="1" y1="-11" x2="1" y2="-11"/>
					<line class="st2-c1" x1="11" y1="-11" x2="236" y2="-11"/>
					<line class="st1-c1" x1="241" y1="-11" x2="241" y2="-11"/>
				</g>
				<g>
					<line class="st1-c1" x1="1" y1="-21" x2="1" y2="-21"/>
					<line class="st2-c1" x1="11" y1="-21" x2="236" y2="-21"/>
					<line class="st1-c1" x1="241" y1="-21" x2="241" y2="-21"/>
				</g>
				<g>
					<line class="st1-c1" x1="1" y1="-31" x2="1" y2="-31"/>
					<line class="st2-c1" x1="11" y1="-31" x2="236" y2="-31"/>
					<line class="st1-c1" x1="241" y1="-31" x2="241" y2="-31"/>
				</g>
				<g>
					<line class="st1-c1" x1="1" y1="-41" x2="1" y2="-41"/>
					<line class="st2-c1" x1="11" y1="-41" x2="236" y2="-41"/>
					<line class="st1-c1" x1="241" y1="-41" x2="241" y2="-41"/>
				</g>
				<g>
					<line class="st1-c1" x1="1" y1="-51" x2="1" y2="-51"/>
					<line class="st2-c1" x1="11" y1="-51" x2="236" y2="-51"/>
					<line class="st1-c1" x1="241" y1="-51" x2="241" y2="-51"/>
				</g>
				<g>
					<line class="st1-c1" x1="1" y1="-61" x2="1" y2="-61"/>
					<line class="st2-c1" x1="11" y1="-61" x2="236" y2="-61"/>
					<line class="st1-c1" x1="241" y1="-61" x2="241" y2="-61"/>
				</g>
				<g>
					<line class="st1-c1" x1="1" y1="-71" x2="1" y2="-71"/>
					<line class="st2-c1" x1="11" y1="-71" x2="236" y2="-71"/>
					<line class="st1-c1" x1="241" y1="-71" x2="241" y2="-71"/>
				</g>
				<g>
					<line class="st1-c1" x1="1" y1="-81" x2="1" y2="-81"/>
					<line class="st2-c1" x1="11" y1="-81" x2="236" y2="-81"/>
					<line class="st1-c1" x1="241" y1="-81" x2="241" y2="-81"/>
				</g>
				<g>
					<line class="st1-c1" x1="1" y1="-91" x2="1" y2="-91"/>
					<line class="st2-c1" x1="11" y1="-91" x2="236" y2="-91"/>
					<line class="st1-c1" x1="241" y1="-91" x2="241" y2="-91"/>
				</g>
				<g>
					<line class="st1-c1" x1="1" y1="-101" x2="1" y2="-101"/>
					<line class="st2-c1" x1="11" y1="-101" x2="236" y2="-101"/>
					<line class="st1-c1" x1="241" y1="-101" x2="241" y2="-101"/>
				</g>
				<g>
					<line class="st1-c1" x1="1" y1="-111" x2="1" y2="-111"/>
					<line class="st2-c1" x1="11" y1="-111" x2="236" y2="-111"/>
					<line class="st1-c1" x1="241" y1="-111" x2="241" y2="-111"/>
				</g>
				<g>
					<line class="st1-c1" x1="1" y1="-121" x2="1" y2="-121"/>
					<line class="st2-c1" x1="11" y1="-121" x2="236" y2="-121"/>
					<line class="st1-c1" x1="241" y1="-121" x2="241" y2="-121"/>
				</g>
				<g>
					<line class="st1-c1" x1="1" y1="-131" x2="1" y2="-131"/>
					<line class="st2-c1" x1="11" y1="-131" x2="236" y2="-131"/>
					<line class="st1-c1" x1="241" y1="-131" x2="241" y2="-131"/>
				</g>
				<g>
					<line class="st1-c1" x1="1" y1="-141" x2="1" y2="-141"/>
					<line class="st2-c1" x1="11" y1="-141" x2="236" y2="-141"/>
					<line class="st1-c1" x1="241" y1="-141" x2="241" y2="-141"/>
				</g>
				<g>
					<line class="st1-c1" x1="1" y1="-151" x2="1" y2="-151"/>
					<line class="st2-c1" x1="11" y1="-151" x2="236" y2="-151"/>
					<line class="st1-c1" x1="241" y1="-151" x2="241" y2="-151"/>
				</g>
				<g>
					<line class="st1-c1" x1="1" y1="-161" x2="1" y2="-161"/>
					<line class="st2-c1" x1="11" y1="-161" x2="236" y2="-161"/>
					<line class="st1-c1" x1="241" y1="-161" x2="241" y2="-161"/>
				</g>
				<g>
					<line class="st1-c1" x1="1" y1="-171" x2="1" y2="-171"/>
					<line class="st2-c1" x1="11" y1="-171" x2="236" y2="-171"/>
					<line class="st1-c1" x1="241" y1="-171" x2="241" y2="-171"/>
				</g>
				<g>
					<line class="st1-c1" x1="1" y1="-181" x2="1" y2="-181"/>
					<line class="st2-c1" x1="11" y1="-181" x2="236" y2="-181"/>
					<line class="st1-c1" x1="241" y1="-181" x2="241" y2="-181"/>
				</g>
				<g>
					<line class="st1-c1" x1="1" y1="-191" x2="1" y2="-191"/>
					<line class="st2-c1" x1="11" y1="-191" x2="236" y2="-191"/>
					<line class="st1-c1" x1="241" y1="-191" x2="241" y2="-191"/>
				</g>
				<g>
					<line class="st1-c1" x1="1" y1="-201" x2="1" y2="-201"/>
					<line class="st2-c1" x1="11" y1="-201" x2="236" y2="-201"/>
					<line class="st1-c1" x1="241" y1="-201" x2="241" y2="-201"/>
				</g>
				<g>
					<line class="st1-c1" x1="1" y1="-211" x2="1" y2="-211"/>
					<line class="st2-c1" x1="11" y1="-211" x2="236" y2="-211"/>
					<line class="st1-c1" x1="241" y1="-211" x2="241" y2="-211"/>
				</g>
				<g>
					<line class="st1-c1" x1="1" y1="-221" x2="1" y2="-221"/>
					<line class="st2-c1" x1="11" y1="-221" x2="236" y2="-221"/>
					<line class="st1-c1" x1="241" y1="-221" x2="241" y2="-221"/>
				</g>
				<g>
					<line class="st1-c1" x1="1" y1="-231" x2="1" y2="-231"/>
					<line class="st2-c1" x1="11" y1="-231" x2="236" y2="-231"/>
					<line class="st1-c1" x1="241" y1="-231" x2="241" y2="-231"/>
				</g>
				<g>
					<line class="st1-c1" x1="1" y1="-241" x2="1" y2="-241"/>
					<line class="st2-c1" x1="11" y1="-241" x2="236" y2="-241"/>
					<line class="st1-c1" x1="241" y1="-241" x2="241" y2="-241"/>
				</g>
			</g>
			<g>
				<g>
					<line class="st1-c1" x1="1" y1="-1" x2="1" y2="-1"/>
				</g>
				<g>
					<line class="st1-c1" x1="1" y1="-11" x2="1" y2="-11"/>
				</g>
				<g>
					<line class="st1-c1" x1="1" y1="-21" x2="1" y2="-21"/>
				</g>
				<g>
					<line class="st1-c1" x1="1" y1="-31" x2="1" y2="-31"/>
				</g>
				<g>
					<line class="st1-c1" x1="1" y1="-41" x2="1" y2="-41"/>
				</g>
				<g>
					<line class="st1-c1" x1="1" y1="-51" x2="1" y2="-51"/>
				</g>
				<g>
					<line class="st1-c1" x1="1" y1="-61" x2="1" y2="-61"/>
				</g>
				<g>
					<line class="st1-c1" x1="1" y1="-71" x2="1" y2="-71"/>
				</g>
				<g>
					<line class="st1-c1" x1="1" y1="-81" x2="1" y2="-81"/>
				</g>
				<g>
					<line class="st1-c1" x1="1" y1="-91" x2="1" y2="-91"/>
				</g>
				<g>
					<line class="st1-c1" x1="1" y1="-101" x2="1" y2="-101"/>
				</g>
				<g>
					<line class="st1-c1" x1="1" y1="-111" x2="1" y2="-111"/>
				</g>
				<g>
					<line class="st1-c1" x1="1" y1="-121" x2="1" y2="-121"/>
				</g>
				<g>
					<line class="st1-c1" x1="1" y1="-131" x2="1" y2="-131"/>
				</g>
				<g>
					<line class="st1-c1" x1="1" y1="-141" x2="1" y2="-141"/>
				</g>
				<g>
					<line class="st1-c1" x1="1" y1="-151" x2="1" y2="-151"/>
				</g>
				<g>
					<line class="st1-c1" x1="1" y1="-161" x2="1" y2="-161"/>
				</g>
				<g>
					<line class="st1-c1" x1="1" y1="-171" x2="1" y2="-171"/>
				</g>
				<g>
					<line class="st1-c1" x1="1" y1="-181" x2="1" y2="-181"/>
				</g>
				<g>
					<line class="st1-c1" x1="1" y1="-191" x2="1" y2="-191"/>
				</g>
				<g>
					<line class="st1-c1" x1="1" y1="-201" x2="1" y2="-201"/>
				</g>
				<g>
					<line class="st1-c1" x1="1" y1="-211" x2="1" y2="-211"/>
				</g>
				<g>
					<line class="st1-c1" x1="1" y1="-221" x2="1" y2="-221"/>
				</g>
				<g>
					<line class="st1-c1" x1="1" y1="-231" x2="1" y2="-231"/>
				</g>
				<g>
					<line class="st1-c1" x1="1" y1="-241" x2="1" y2="-241"/>
				</g>
			</g>
			<g>
				<g>
					<line class="st1-c1" x1="241" y1="-1" x2="241" y2="-1"/>
				</g>
			</g>
			<g>
				<g>
					<line class="st1-c1" x1="1" y1="-1" x2="1" y2="-1"/>
					<line class="st2-c1" x1="11" y1="-1" x2="236" y2="-1"/>
					<line class="st1-c1" x1="241" y1="-1" x2="241" y2="-1"/>
				</g>
			</g>
			<g>
				<g>
					<line class="st1-c1" x1="1" y1="-1" x2="1" y2="-1"/>
				</g>
			</g>
		</g>
	</g>
</pattern>
<pattern  y="1053" width="240" height="240" patternUnits="userSpaceOnUse" id="SVGID_4_" viewBox="1 -241 240 240" style="overflow:visible;">
	<g>
		<rect x="1" y="-241" class="st0-c1" width="240" height="240"/>
		<g>
			<rect x="1" y="-241" class="st0-c1" width="240" height="240"/>
			<g>
				<g>
					<line class="st1-c1" x1="241" y1="-241" x2="241" y2="-241"/>
				</g>
			</g>
			<g>
				<g>
					<line class="st1-c1" x1="1" y1="-241" x2="1" y2="-241"/>
					<line class="st2-c1" x1="11" y1="-241" x2="236" y2="-241"/>
					<line class="st1-c1" x1="241" y1="-241" x2="241" y2="-241"/>
				</g>
			</g>
			<g>
				<g>
					<line class="st1-c1" x1="1" y1="-241" x2="1" y2="-241"/>
				</g>
			</g>
			<g>
				<g>
					<line class="st1-c1" x1="241" y1="-1" x2="241" y2="-1"/>
				</g>
				<g>
					<line class="st1-c1" x1="241" y1="-11" x2="241" y2="-11"/>
				</g>
				<g>
					<line class="st1-c1" x1="241" y1="-21" x2="241" y2="-21"/>
				</g>
				<g>
					<line class="st1-c1" x1="241" y1="-31" x2="241" y2="-31"/>
				</g>
				<g>
					<line class="st1-c1" x1="241" y1="-41" x2="241" y2="-41"/>
				</g>
				<g>
					<line class="st1-c1" x1="241" y1="-51" x2="241" y2="-51"/>
				</g>
				<g>
					<line class="st1-c1" x1="241" y1="-61" x2="241" y2="-61"/>
				</g>
				<g>
					<line class="st1-c1" x1="241" y1="-71" x2="241" y2="-71"/>
				</g>
				<g>
					<line class="st1-c1" x1="241" y1="-81" x2="241" y2="-81"/>
				</g>
				<g>
					<line class="st1-c1" x1="241" y1="-91" x2="241" y2="-91"/>
				</g>
				<g>
					<line class="st1-c1" x1="241" y1="-101" x2="241" y2="-101"/>
				</g>
				<g>
					<line class="st1-c1" x1="241" y1="-111" x2="241" y2="-111"/>
				</g>
				<g>
					<line class="st1-c1" x1="241" y1="-121" x2="241" y2="-121"/>
				</g>
				<g>
					<line class="st1-c1" x1="241" y1="-131" x2="241" y2="-131"/>
				</g>
				<g>
					<line class="st1-c1" x1="241" y1="-141" x2="241" y2="-141"/>
				</g>
				<g>
					<line class="st1-c1" x1="241" y1="-151" x2="241" y2="-151"/>
				</g>
				<g>
					<line class="st1-c1" x1="241" y1="-161" x2="241" y2="-161"/>
				</g>
				<g>
					<line class="st1-c1" x1="241" y1="-171" x2="241" y2="-171"/>
				</g>
				<g>
					<line class="st1-c1" x1="241" y1="-181" x2="241" y2="-181"/>
				</g>
				<g>
					<line class="st1-c1" x1="241" y1="-191" x2="241" y2="-191"/>
				</g>
				<g>
					<line class="st1-c1" x1="241" y1="-201" x2="241" y2="-201"/>
				</g>
				<g>
					<line class="st1-c1" x1="241" y1="-211" x2="241" y2="-211"/>
				</g>
				<g>
					<line class="st1-c1" x1="241" y1="-221" x2="241" y2="-221"/>
				</g>
				<g>
					<line class="st1-c1" x1="241" y1="-231" x2="241" y2="-231"/>
				</g>
				<g>
					<line class="st1-c1" x1="241" y1="-241" x2="241" y2="-241"/>
				</g>
			</g>
			<g>
				<g>
					<line class="st1-c1" x1="1" y1="-1" x2="1" y2="-1"/>
					<line class="st2-c1" x1="11" y1="-1" x2="236" y2="-1"/>
					<line class="st1-c1" x1="241" y1="-1" x2="241" y2="-1"/>
				</g>
				<g>
					<line class="st1-c1" x1="1" y1="-11" x2="1" y2="-11"/>
					<line class="st2-c1" x1="11" y1="-11" x2="236" y2="-11"/>
					<line class="st1-c1" x1="241" y1="-11" x2="241" y2="-11"/>
				</g>
				<g>
					<line class="st1-c1" x1="1" y1="-21" x2="1" y2="-21"/>
					<line class="st2-c1" x1="11" y1="-21" x2="236" y2="-21"/>
					<line class="st1-c1" x1="241" y1="-21" x2="241" y2="-21"/>
				</g>
				<g>
					<line class="st1-c1" x1="1" y1="-31" x2="1" y2="-31"/>
					<line class="st2-c1" x1="11" y1="-31" x2="236" y2="-31"/>
					<line class="st1-c1" x1="241" y1="-31" x2="241" y2="-31"/>
				</g>
				<g>
					<line class="st1-c1" x1="1" y1="-41" x2="1" y2="-41"/>
					<line class="st2-c1" x1="11" y1="-41" x2="236" y2="-41"/>
					<line class="st1-c1" x1="241" y1="-41" x2="241" y2="-41"/>
				</g>
				<g>
					<line class="st1-c1" x1="1" y1="-51" x2="1" y2="-51"/>
					<line class="st2-c1" x1="11" y1="-51" x2="236" y2="-51"/>
					<line class="st1-c1" x1="241" y1="-51" x2="241" y2="-51"/>
				</g>
				<g>
					<line class="st1-c1" x1="1" y1="-61" x2="1" y2="-61"/>
					<line class="st2-c1" x1="11" y1="-61" x2="236" y2="-61"/>
					<line class="st1-c1" x1="241" y1="-61" x2="241" y2="-61"/>
				</g>
				<g>
					<line class="st1-c1" x1="1" y1="-71" x2="1" y2="-71"/>
					<line class="st2-c1" x1="11" y1="-71" x2="236" y2="-71"/>
					<line class="st1-c1" x1="241" y1="-71" x2="241" y2="-71"/>
				</g>
				<g>
					<line class="st1-c1" x1="1" y1="-81" x2="1" y2="-81"/>
					<line class="st2-c1" x1="11" y1="-81" x2="236" y2="-81"/>
					<line class="st1-c1" x1="241" y1="-81" x2="241" y2="-81"/>
				</g>
				<g>
					<line class="st1-c1" x1="1" y1="-91" x2="1" y2="-91"/>
					<line class="st2-c1" x1="11" y1="-91" x2="236" y2="-91"/>
					<line class="st1-c1" x1="241" y1="-91" x2="241" y2="-91"/>
				</g>
				<g>
					<line class="st1-c1" x1="1" y1="-101" x2="1" y2="-101"/>
					<line class="st2-c1" x1="11" y1="-101" x2="236" y2="-101"/>
					<line class="st1-c1" x1="241" y1="-101" x2="241" y2="-101"/>
				</g>
				<g>
					<line class="st1-c1" x1="1" y1="-111" x2="1" y2="-111"/>
					<line class="st2-c1" x1="11" y1="-111" x2="236" y2="-111"/>
					<line class="st1-c1" x1="241" y1="-111" x2="241" y2="-111"/>
				</g>
				<g>
					<line class="st1-c1" x1="1" y1="-121" x2="1" y2="-121"/>
					<line class="st2-c1" x1="11" y1="-121" x2="236" y2="-121"/>
					<line class="st1-c1" x1="241" y1="-121" x2="241" y2="-121"/>
				</g>
				<g>
					<line class="st1-c1" x1="1" y1="-131" x2="1" y2="-131"/>
					<line class="st2-c1" x1="11" y1="-131" x2="236" y2="-131"/>
					<line class="st1-c1" x1="241" y1="-131" x2="241" y2="-131"/>
				</g>
				<g>
					<line class="st1-c1" x1="1" y1="-141" x2="1" y2="-141"/>
					<line class="st2-c1" x1="11" y1="-141" x2="236" y2="-141"/>
					<line class="st1-c1" x1="241" y1="-141" x2="241" y2="-141"/>
				</g>
				<g>
					<line class="st1-c1" x1="1" y1="-151" x2="1" y2="-151"/>
					<line class="st2-c1" x1="11" y1="-151" x2="236" y2="-151"/>
					<line class="st1-c1" x1="241" y1="-151" x2="241" y2="-151"/>
				</g>
				<g>
					<line class="st1-c1" x1="1" y1="-161" x2="1" y2="-161"/>
					<line class="st2-c1" x1="11" y1="-161" x2="236" y2="-161"/>
					<line class="st1-c1" x1="241" y1="-161" x2="241" y2="-161"/>
				</g>
				<g>
					<line class="st1-c1" x1="1" y1="-171" x2="1" y2="-171"/>
					<line class="st2-c1" x1="11" y1="-171" x2="236" y2="-171"/>
					<line class="st1-c1" x1="241" y1="-171" x2="241" y2="-171"/>
				</g>
				<g>
					<line class="st1-c1" x1="1" y1="-181" x2="1" y2="-181"/>
					<line class="st2-c1" x1="11" y1="-181" x2="236" y2="-181"/>
					<line class="st1-c1" x1="241" y1="-181" x2="241" y2="-181"/>
				</g>
				<g>
					<line class="st1-c1" x1="1" y1="-191" x2="1" y2="-191"/>
					<line class="st2-c1" x1="11" y1="-191" x2="236" y2="-191"/>
					<line class="st1-c1" x1="241" y1="-191" x2="241" y2="-191"/>
				</g>
				<g>
					<line class="st1-c1" x1="1" y1="-201" x2="1" y2="-201"/>
					<line class="st2-c1" x1="11" y1="-201" x2="236" y2="-201"/>
					<line class="st1-c1" x1="241" y1="-201" x2="241" y2="-201"/>
				</g>
				<g>
					<line class="st1-c1" x1="1" y1="-211" x2="1" y2="-211"/>
					<line class="st2-c1" x1="11" y1="-211" x2="236" y2="-211"/>
					<line class="st1-c1" x1="241" y1="-211" x2="241" y2="-211"/>
				</g>
				<g>
					<line class="st1-c1" x1="1" y1="-221" x2="1" y2="-221"/>
					<line class="st2-c1" x1="11" y1="-221" x2="236" y2="-221"/>
					<line class="st1-c1" x1="241" y1="-221" x2="241" y2="-221"/>
				</g>
				<g>
					<line class="st1-c1" x1="1" y1="-231" x2="1" y2="-231"/>
					<line class="st2-c1" x1="11" y1="-231" x2="236" y2="-231"/>
					<line class="st1-c1" x1="241" y1="-231" x2="241" y2="-231"/>
				</g>
				<g>
					<line class="st1-c1" x1="1" y1="-241" x2="1" y2="-241"/>
					<line class="st2-c1" x1="11" y1="-241" x2="236" y2="-241"/>
					<line class="st1-c1" x1="241" y1="-241" x2="241" y2="-241"/>
				</g>
			</g>
			<g>
				<g>
					<line class="st1-c1" x1="1" y1="-1" x2="1" y2="-1"/>
				</g>
				<g>
					<line class="st1-c1" x1="1" y1="-11" x2="1" y2="-11"/>
				</g>
				<g>
					<line class="st1-c1" x1="1" y1="-21" x2="1" y2="-21"/>
				</g>
				<g>
					<line class="st1-c1" x1="1" y1="-31" x2="1" y2="-31"/>
				</g>
				<g>
					<line class="st1-c1" x1="1" y1="-41" x2="1" y2="-41"/>
				</g>
				<g>
					<line class="st1-c1" x1="1" y1="-51" x2="1" y2="-51"/>
				</g>
				<g>
					<line class="st1-c1" x1="1" y1="-61" x2="1" y2="-61"/>
				</g>
				<g>
					<line class="st1-c1" x1="1" y1="-71" x2="1" y2="-71"/>
				</g>
				<g>
					<line class="st1-c1" x1="1" y1="-81" x2="1" y2="-81"/>
				</g>
				<g>
					<line class="st1-c1" x1="1" y1="-91" x2="1" y2="-91"/>
				</g>
				<g>
					<line class="st1-c1" x1="1" y1="-101" x2="1" y2="-101"/>
				</g>
				<g>
					<line class="st1-c1" x1="1" y1="-111" x2="1" y2="-111"/>
				</g>
				<g>
					<line class="st1-c1" x1="1" y1="-121" x2="1" y2="-121"/>
				</g>
				<g>
					<line class="st1-c1" x1="1" y1="-131" x2="1" y2="-131"/>
				</g>
				<g>
					<line class="st1-c1" x1="1" y1="-141" x2="1" y2="-141"/>
				</g>
				<g>
					<line class="st1-c1" x1="1" y1="-151" x2="1" y2="-151"/>
				</g>
				<g>
					<line class="st1-c1" x1="1" y1="-161" x2="1" y2="-161"/>
				</g>
				<g>
					<line class="st1-c1" x1="1" y1="-171" x2="1" y2="-171"/>
				</g>
				<g>
					<line class="st1-c1" x1="1" y1="-181" x2="1" y2="-181"/>
				</g>
				<g>
					<line class="st1-c1" x1="1" y1="-191" x2="1" y2="-191"/>
				</g>
				<g>
					<line class="st1-c1" x1="1" y1="-201" x2="1" y2="-201"/>
				</g>
				<g>
					<line class="st1-c1" x1="1" y1="-211" x2="1" y2="-211"/>
				</g>
				<g>
					<line class="st1-c1" x1="1" y1="-221" x2="1" y2="-221"/>
				</g>
				<g>
					<line class="st1-c1" x1="1" y1="-231" x2="1" y2="-231"/>
				</g>
				<g>
					<line class="st1-c1" x1="1" y1="-241" x2="1" y2="-241"/>
				</g>
			</g>
			<g>
				<g>
					<line class="st1-c1" x1="241" y1="-1" x2="241" y2="-1"/>
				</g>
			</g>
			<g>
				<g>
					<line class="st1-c1" x1="1" y1="-1" x2="1" y2="-1"/>
					<line class="st2-c1" x1="11" y1="-1" x2="236" y2="-1"/>
					<line class="st1-c1" x1="241" y1="-1" x2="241" y2="-1"/>
				</g>
			</g>
			<g>
				<g>
					<line class="st1-c1" x1="1" y1="-1" x2="1" y2="-1"/>
				</g>
			</g>
		</g>
	</g>
</pattern>
<pattern  y="1053" width="240" height="240" patternUnits="userSpaceOnUse" id="SVGID_5_" viewBox="1 -241 240 240" style="overflow:visible;">
	<g>
		<rect x="1" y="-241" class="st0-c1" width="240" height="240"/>
		<g>
			<rect x="1" y="-241" class="st0-c1" width="240" height="240"/>
			<g>
				<g>
					<line class="st1-c1" x1="241" y1="-241" x2="241" y2="-241"/>
				</g>
			</g>
			<g>
				<g>
					<line class="st1-c1" x1="1" y1="-241" x2="1" y2="-241"/>
					<line class="st2-c1" x1="11" y1="-241" x2="236" y2="-241"/>
					<line class="st1-c1" x1="241" y1="-241" x2="241" y2="-241"/>
				</g>
			</g>
			<g>
				<g>
					<line class="st1-c1" x1="1" y1="-241" x2="1" y2="-241"/>
				</g>
			</g>
			<g>
				<g>
					<line class="st1-c1" x1="241" y1="-1" x2="241" y2="-1"/>
				</g>
				<g>
					<line class="st1-c1" x1="241" y1="-11" x2="241" y2="-11"/>
				</g>
				<g>
					<line class="st1-c1" x1="241" y1="-21" x2="241" y2="-21"/>
				</g>
				<g>
					<line class="st1-c1" x1="241" y1="-31" x2="241" y2="-31"/>
				</g>
				<g>
					<line class="st1-c1" x1="241" y1="-41" x2="241" y2="-41"/>
				</g>
				<g>
					<line class="st1-c1" x1="241" y1="-51" x2="241" y2="-51"/>
				</g>
				<g>
					<line class="st1-c1" x1="241" y1="-61" x2="241" y2="-61"/>
				</g>
				<g>
					<line class="st1-c1" x1="241" y1="-71" x2="241" y2="-71"/>
				</g>
				<g>
					<line class="st1-c1" x1="241" y1="-81" x2="241" y2="-81"/>
				</g>
				<g>
					<line class="st1-c1" x1="241" y1="-91" x2="241" y2="-91"/>
				</g>
				<g>
					<line class="st1-c1" x1="241" y1="-101" x2="241" y2="-101"/>
				</g>
				<g>
					<line class="st1-c1" x1="241" y1="-111" x2="241" y2="-111"/>
				</g>
				<g>
					<line class="st1-c1" x1="241" y1="-121" x2="241" y2="-121"/>
				</g>
				<g>
					<line class="st1-c1" x1="241" y1="-131" x2="241" y2="-131"/>
				</g>
				<g>
					<line class="st1-c1" x1="241" y1="-141" x2="241" y2="-141"/>
				</g>
				<g>
					<line class="st1-c1" x1="241" y1="-151" x2="241" y2="-151"/>
				</g>
				<g>
					<line class="st1-c1" x1="241" y1="-161" x2="241" y2="-161"/>
				</g>
				<g>
					<line class="st1-c1" x1="241" y1="-171" x2="241" y2="-171"/>
				</g>
				<g>
					<line class="st1-c1" x1="241" y1="-181" x2="241" y2="-181"/>
				</g>
				<g>
					<line class="st1-c1" x1="241" y1="-191" x2="241" y2="-191"/>
				</g>
				<g>
					<line class="st1-c1" x1="241" y1="-201" x2="241" y2="-201"/>
				</g>
				<g>
					<line class="st1-c1" x1="241" y1="-211" x2="241" y2="-211"/>
				</g>
				<g>
					<line class="st1-c1" x1="241" y1="-221" x2="241" y2="-221"/>
				</g>
				<g>
					<line class="st1-c1" x1="241" y1="-231" x2="241" y2="-231"/>
				</g>
				<g>
					<line class="st1-c1" x1="241" y1="-241" x2="241" y2="-241"/>
				</g>
			</g>
			<g>
				<g>
					<line class="st1-c1" x1="1" y1="-1" x2="1" y2="-1"/>
					<line class="st2-c1" x1="11" y1="-1" x2="236" y2="-1"/>
					<line class="st1-c1" x1="241" y1="-1" x2="241" y2="-1"/>
				</g>
				<g>
					<line class="st1-c1" x1="1" y1="-11" x2="1" y2="-11"/>
					<line class="st2-c1" x1="11" y1="-11" x2="236" y2="-11"/>
					<line class="st1-c1" x1="241" y1="-11" x2="241" y2="-11"/>
				</g>
				<g>
					<line class="st1-c1" x1="1" y1="-21" x2="1" y2="-21"/>
					<line class="st2-c1" x1="11" y1="-21" x2="236" y2="-21"/>
					<line class="st1-c1" x1="241" y1="-21" x2="241" y2="-21"/>
				</g>
				<g>
					<line class="st1-c1" x1="1" y1="-31" x2="1" y2="-31"/>
					<line class="st2-c1" x1="11" y1="-31" x2="236" y2="-31"/>
					<line class="st1-c1" x1="241" y1="-31" x2="241" y2="-31"/>
				</g>
				<g>
					<line class="st1-c1" x1="1" y1="-41" x2="1" y2="-41"/>
					<line class="st2-c1" x1="11" y1="-41" x2="236" y2="-41"/>
					<line class="st1-c1" x1="241" y1="-41" x2="241" y2="-41"/>
				</g>
				<g>
					<line class="st1-c1" x1="1" y1="-51" x2="1" y2="-51"/>
					<line class="st2-c1" x1="11" y1="-51" x2="236" y2="-51"/>
					<line class="st1-c1" x1="241" y1="-51" x2="241" y2="-51"/>
				</g>
				<g>
					<line class="st1-c1" x1="1" y1="-61" x2="1" y2="-61"/>
					<line class="st2-c1" x1="11" y1="-61" x2="236" y2="-61"/>
					<line class="st1-c1" x1="241" y1="-61" x2="241" y2="-61"/>
				</g>
				<g>
					<line class="st1-c1" x1="1" y1="-71" x2="1" y2="-71"/>
					<line class="st2-c1" x1="11" y1="-71" x2="236" y2="-71"/>
					<line class="st1-c1" x1="241" y1="-71" x2="241" y2="-71"/>
				</g>
				<g>
					<line class="st1-c1" x1="1" y1="-81" x2="1" y2="-81"/>
					<line class="st2-c1" x1="11" y1="-81" x2="236" y2="-81"/>
					<line class="st1-c1" x1="241" y1="-81" x2="241" y2="-81"/>
				</g>
				<g>
					<line class="st1-c1" x1="1" y1="-91" x2="1" y2="-91"/>
					<line class="st2-c1" x1="11" y1="-91" x2="236" y2="-91"/>
					<line class="st1-c1" x1="241" y1="-91" x2="241" y2="-91"/>
				</g>
				<g>
					<line class="st1-c1" x1="1" y1="-101" x2="1" y2="-101"/>
					<line class="st2-c1" x1="11" y1="-101" x2="236" y2="-101"/>
					<line class="st1-c1" x1="241" y1="-101" x2="241" y2="-101"/>
				</g>
				<g>
					<line class="st1-c1" x1="1" y1="-111" x2="1" y2="-111"/>
					<line class="st2-c1" x1="11" y1="-111" x2="236" y2="-111"/>
					<line class="st1-c1" x1="241" y1="-111" x2="241" y2="-111"/>
				</g>
				<g>
					<line class="st1-c1" x1="1" y1="-121" x2="1" y2="-121"/>
					<line class="st2-c1" x1="11" y1="-121" x2="236" y2="-121"/>
					<line class="st1-c1" x1="241" y1="-121" x2="241" y2="-121"/>
				</g>
				<g>
					<line class="st1-c1" x1="1" y1="-131" x2="1" y2="-131"/>
					<line class="st2-c1" x1="11" y1="-131" x2="236" y2="-131"/>
					<line class="st1-c1" x1="241" y1="-131" x2="241" y2="-131"/>
				</g>
				<g>
					<line class="st1-c1" x1="1" y1="-141" x2="1" y2="-141"/>
					<line class="st2-c1" x1="11" y1="-141" x2="236" y2="-141"/>
					<line class="st1-c1" x1="241" y1="-141" x2="241" y2="-141"/>
				</g>
				<g>
					<line class="st1-c1" x1="1" y1="-151" x2="1" y2="-151"/>
					<line class="st2-c1" x1="11" y1="-151" x2="236" y2="-151"/>
					<line class="st1-c1" x1="241" y1="-151" x2="241" y2="-151"/>
				</g>
				<g>
					<line class="st1-c1" x1="1" y1="-161" x2="1" y2="-161"/>
					<line class="st2-c1" x1="11" y1="-161" x2="236" y2="-161"/>
					<line class="st1-c1" x1="241" y1="-161" x2="241" y2="-161"/>
				</g>
				<g>
					<line class="st1-c1" x1="1" y1="-171" x2="1" y2="-171"/>
					<line class="st2-c1" x1="11" y1="-171" x2="236" y2="-171"/>
					<line class="st1-c1" x1="241" y1="-171" x2="241" y2="-171"/>
				</g>
				<g>
					<line class="st1-c1" x1="1" y1="-181" x2="1" y2="-181"/>
					<line class="st2-c1" x1="11" y1="-181" x2="236" y2="-181"/>
					<line class="st1-c1" x1="241" y1="-181" x2="241" y2="-181"/>
				</g>
				<g>
					<line class="st1-c1" x1="1" y1="-191" x2="1" y2="-191"/>
					<line class="st2-c1" x1="11" y1="-191" x2="236" y2="-191"/>
					<line class="st1-c1" x1="241" y1="-191" x2="241" y2="-191"/>
				</g>
				<g>
					<line class="st1-c1" x1="1" y1="-201" x2="1" y2="-201"/>
					<line class="st2-c1" x1="11" y1="-201" x2="236" y2="-201"/>
					<line class="st1-c1" x1="241" y1="-201" x2="241" y2="-201"/>
				</g>
				<g>
					<line class="st1-c1" x1="1" y1="-211" x2="1" y2="-211"/>
					<line class="st2-c1" x1="11" y1="-211" x2="236" y2="-211"/>
					<line class="st1-c1" x1="241" y1="-211" x2="241" y2="-211"/>
				</g>
				<g>
					<line class="st1-c1" x1="1" y1="-221" x2="1" y2="-221"/>
					<line class="st2-c1" x1="11" y1="-221" x2="236" y2="-221"/>
					<line class="st1-c1" x1="241" y1="-221" x2="241" y2="-221"/>
				</g>
				<g>
					<line class="st1-c1" x1="1" y1="-231" x2="1" y2="-231"/>
					<line class="st2-c1" x1="11" y1="-231" x2="236" y2="-231"/>
					<line class="st1-c1" x1="241" y1="-231" x2="241" y2="-231"/>
				</g>
				<g>
					<line class="st1-c1" x1="1" y1="-241" x2="1" y2="-241"/>
					<line class="st2-c1" x1="11" y1="-241" x2="236" y2="-241"/>
					<line class="st1-c1" x1="241" y1="-241" x2="241" y2="-241"/>
				</g>
			</g>
			<g>
				<g>
					<line class="st1-c1" x1="1" y1="-1" x2="1" y2="-1"/>
				</g>
				<g>
					<line class="st1-c1" x1="1" y1="-11" x2="1" y2="-11"/>
				</g>
				<g>
					<line class="st1-c1" x1="1" y1="-21" x2="1" y2="-21"/>
				</g>
				<g>
					<line class="st1-c1" x1="1" y1="-31" x2="1" y2="-31"/>
				</g>
				<g>
					<line class="st1-c1" x1="1" y1="-41" x2="1" y2="-41"/>
				</g>
				<g>
					<line class="st1-c1" x1="1" y1="-51" x2="1" y2="-51"/>
				</g>
				<g>
					<line class="st1-c1" x1="1" y1="-61" x2="1" y2="-61"/>
				</g>
				<g>
					<line class="st1-c1" x1="1" y1="-71" x2="1" y2="-71"/>
				</g>
				<g>
					<line class="st1-c1" x1="1" y1="-81" x2="1" y2="-81"/>
				</g>
				<g>
					<line class="st1-c1" x1="1" y1="-91" x2="1" y2="-91"/>
				</g>
				<g>
					<line class="st1-c1" x1="1" y1="-101" x2="1" y2="-101"/>
				</g>
				<g>
					<line class="st1-c1" x1="1" y1="-111" x2="1" y2="-111"/>
				</g>
				<g>
					<line class="st1-c1" x1="1" y1="-121" x2="1" y2="-121"/>
				</g>
				<g>
					<line class="st1-c1" x1="1" y1="-131" x2="1" y2="-131"/>
				</g>
				<g>
					<line class="st1-c1" x1="1" y1="-141" x2="1" y2="-141"/>
				</g>
				<g>
					<line class="st1-c1" x1="1" y1="-151" x2="1" y2="-151"/>
				</g>
				<g>
					<line class="st1-c1" x1="1" y1="-161" x2="1" y2="-161"/>
				</g>
				<g>
					<line class="st1-c1" x1="1" y1="-171" x2="1" y2="-171"/>
				</g>
				<g>
					<line class="st1-c1" x1="1" y1="-181" x2="1" y2="-181"/>
				</g>
				<g>
					<line class="st1-c1" x1="1" y1="-191" x2="1" y2="-191"/>
				</g>
				<g>
					<line class="st1-c1" x1="1" y1="-201" x2="1" y2="-201"/>
				</g>
				<g>
					<line class="st1-c1" x1="1" y1="-211" x2="1" y2="-211"/>
				</g>
				<g>
					<line class="st1-c1" x1="1" y1="-221" x2="1" y2="-221"/>
				</g>
				<g>
					<line class="st1-c1" x1="1" y1="-231" x2="1" y2="-231"/>
				</g>
				<g>
					<line class="st1-c1" x1="1" y1="-241" x2="1" y2="-241"/>
				</g>
			</g>
			<g>
				<g>
					<line class="st1-c1" x1="241" y1="-1" x2="241" y2="-1"/>
				</g>
			</g>
			<g>
				<g>
					<line class="st1-c1" x1="1" y1="-1" x2="1" y2="-1"/>
					<line class="st2-c1" x1="11" y1="-1" x2="236" y2="-1"/>
					<line class="st1-c1" x1="241" y1="-1" x2="241" y2="-1"/>
				</g>
			</g>
			<g>
				<g>
					<line class="st1-c1" x1="1" y1="-1" x2="1" y2="-1"/>
				</g>
			</g>
		</g>
	</g>
</pattern>
<g id="greenCircleC1">
	<g>
		<g>
			<path d="M208.9,250.3l-5.1,7.6v5.6h-1.4V258l-5.1-7.6h1.7l4.1,6.3l4.2-6.3L208.9,250.3L208.9,250.3z"/>
			<path d="M210.3,259.3c0.1,1.7,1.5,3.1,3.2,3.1c1.3,0,2.4-0.7,2.8-1.9l1.2,0.4c-0.5,1.7-2.1,2.7-3.9,2.7c-2.6,0-4.6-2.1-4.6-4.7
				c0-2.4,1.8-4.6,4.4-4.6c2.8,0,4.2,2,4.2,4.6c0,0.2,0,0.3,0,0.4H210.3z M216.3,258.2c-0.2-1.6-1.2-2.8-2.9-2.8
				c-1.6,0-2.8,1.3-3,2.8H216.3z"/>
			<path d="M223.4,263.6c-2.4,0-3.2-1.6-3.4-2.7l1.2-0.3c0.2,0.8,0.8,1.8,2.2,1.8c1,0,1.9-0.5,1.9-1.5c0-1.1-1.2-1.3-2.1-1.5
				c-1.5-0.2-3-0.8-3-2.5c0-1.7,1.5-2.7,3-2.7c2.4,0,3.1,1.6,3.3,2.4l-1.2,0.3c-0.2-0.6-0.6-1.6-2.1-1.6c-1,0-1.7,0.7-1.7,1.4
				c0,1.1,1.2,1.3,2.1,1.4c1.5,0.2,2.9,1,2.9,2.6C226.6,262.5,225.1,263.6,223.4,263.6z"/>
			<path d="M229.5,265.4c0.8-0.6,1.3-1.2,1.5-2c-0.1,0.1-0.3,0.1-0.4,0.1c-0.6,0-1.1-0.4-1.1-1.1s0.5-1.2,1.2-1.2
				c0.8,0,1.3,0.6,1.3,1.6v0.1c0,1.2-0.6,2.3-1.8,3.1L229.5,265.4z"/>
			<path d="M239.1,259c0-2.7,2-4.7,4.7-4.7c2.6,0,4.6,2,4.6,4.6c0,2.7-2,4.7-4.7,4.7C241.2,263.6,239.1,261.5,239.1,259z M247.1,259
				c0-1.9-1.4-3.5-3.3-3.5c-1.9,0-3.3,1.6-3.3,3.5s1.3,3.5,3.3,3.5C245.7,262.4,247.1,260.8,247.1,259z"/>
			<path d="M258,258.2c0-1.6-0.8-2.7-2.5-2.7c-1.6,0-2.7,1.2-2.7,2.8v5.1h-1.3v-9h1.3v1.6c0.7-1.2,1.8-1.8,3.1-1.8
				c2.2,0,3.4,1.5,3.4,3.6v5.5H258V258.2z"/>
			<path d="M266.9,262.4c2,0,2.7-1.5,3-2.1l1.2,0.4c-0.4,1.3-1.9,2.9-4.2,2.9c-2.6,0-4.6-1.9-4.6-4.6s2.1-4.7,4.6-4.7
				c2.1,0,3.7,1.3,4.1,2.9l-1.2,0.4c-0.2-0.7-1.1-2.1-3-2.1s-3.2,1.6-3.2,3.4S264.9,262.4,266.9,262.4z"/>
			<path d="M274.8,259.3c0.1,1.7,1.5,3.1,3.2,3.1c1.3,0,2.4-0.7,2.8-1.9l1.2,0.4c-0.5,1.7-2.1,2.7-3.9,2.7c-2.6,0-4.6-2.1-4.6-4.7
				c0-2.4,1.8-4.6,4.4-4.6c2.8,0,4.2,2,4.2,4.6c0,0.2,0,0.3,0,0.4H274.8z M280.8,258.2c-0.2-1.6-1.2-2.8-2.9-2.8
				c-1.6,0-2.8,1.3-3,2.8H280.8z"/>
		</g>
	</g>
	<g>
		<circle class="st3-c1" cx="167.2" cy="258.9" r="16"/>
	</g>
</g>
<g id="spottyCircleC1">
	<g>
		<g>
			<path d="M212.4,309.8H211v-11.3l0,0l-4.9,11.3h-1.2l-4.9-11.2v11.2h-1.4v-13.1h1.9l4.9,11.3l4.9-11.3h2L212.4,309.8L212.4,309.8z
				"/>
			<path d="M217.7,306c0,1.6,0.8,2.7,2.5,2.7c1.6,0,2.7-1.2,2.7-2.8v-5.1h1.3v9h-1.3v-1.6c-0.7,1.2-1.8,1.8-3.1,1.8
				c-2.2,0-3.4-1.5-3.4-3.6v-5.5h1.3V306z"/>
			<path d="M229.3,296.1v13.7H228v-13.7H229.3z"/>
			<path d="M233.7,307.4v-5.5H232v-1.2h1.7v-2.6h1.3v2.6h2.3v1.2H235v5.5c0,0.8,0.5,1.3,1.5,1.3c0.3,0,0.6,0,0.8-0.1v1.1
				c-0.3,0.1-0.8,0.1-1,0.1C234.3,309.8,233.7,308.7,233.7,307.4z"/>
			<path d="M241,296.6c0.6,0,1,0.4,1,1c0,0.5-0.4,1-1,1c-0.5,0-1-0.4-1-1S240.4,296.6,241,296.6z M241.7,300.8v9h-1.3v-9H241.7z"/>
			<path d="M250.2,309.9c-1.7,0-2.7-0.8-3.5-2v6.3h-1.3v-13.4h1.3v1.9c0.7-1.1,1.8-2.1,3.5-2.1c2.6,0,4.2,2.3,4.2,4.6
				C254.4,307.7,252.8,309.9,250.2,309.9z M253.1,305.3c0-1.9-1.2-3.5-3.1-3.5c-1.8,0-3.2,1.6-3.2,3.4s1.3,3.5,3.2,3.5
				C251.9,308.7,253.1,307.2,253.1,305.3z"/>
			<path d="M258.9,296.1v13.7h-1.3v-13.7H258.9z"/>
			<path d="M263.4,305.7c0.1,1.7,1.5,3.1,3.2,3.1c1.3,0,2.4-0.7,2.8-1.9l1.2,0.4c-0.5,1.7-2.1,2.7-3.9,2.7c-2.6,0-4.6-2.1-4.6-4.7
				c0-2.4,1.8-4.6,4.4-4.6c2.8,0,4.2,2,4.2,4.6c0,0.2,0,0.3,0,0.4H263.4z M269.3,304.6c-0.2-1.6-1.2-2.8-2.9-2.8
				c-1.6,0-2.8,1.3-3,2.8H269.3z"/>
			<path d="M279.9,307.4v-5.5h-1.7v-1.2h1.7v-2.6h1.3v2.6h2.3v1.2h-2.3v5.5c0,0.8,0.5,1.3,1.5,1.3c0.3,0,0.6,0,0.8-0.1v1.1
				c-0.3,0.1-0.8,0.1-1,0.1C280.4,309.8,279.9,308.7,279.9,307.4z"/>
			<path d="M287.1,296.6c0.6,0,1,0.4,1,1c0,0.5-0.4,1-1,1c-0.5,0-1-0.4-1-1S286.6,296.6,287.1,296.6z M287.8,300.8v9h-1.3v-9H287.8z
				"/>
			<path d="M297.7,304.5c0-1.5-0.7-2.7-2.3-2.7c-1.6,0-2.5,1.4-2.5,2.8v5.1h-1.3v-9h1.3v1.6c0.7-1.1,1.5-1.7,2.9-1.7
				c1.3,0,2.3,0.6,2.9,1.8c0.8-1.2,1.7-1.8,3.2-1.8c2.2,0,3.3,1.5,3.3,3.6v5.5h-1.3v-5.2c0-1.5-0.7-2.7-2.3-2.7
				c-1.6,0-2.5,1.3-2.5,2.8v5.2h-1.3v-5.3H297.7z"/>
			<path d="M309.5,305.7c0.1,1.7,1.5,3.1,3.2,3.1c1.3,0,2.4-0.7,2.8-1.9l1.2,0.4c-0.5,1.7-2.1,2.7-3.9,2.7c-2.6,0-4.6-2.1-4.6-4.7
				c0-2.4,1.8-4.6,4.4-4.6c2.8,0,4.2,2,4.2,4.6c0,0.2,0,0.3,0,0.4H309.5z M315.4,304.6c-0.2-1.6-1.2-2.8-2.9-2.8
				c-1.6,0-2.8,1.3-3,2.8H315.4z"/>
			<path d="M322.5,309.9c-2.4,0-3.2-1.6-3.4-2.7l1.2-0.3c0.2,0.8,0.8,1.8,2.2,1.8c1,0,1.9-0.5,1.9-1.5c0-1.1-1.2-1.3-2.1-1.5
				c-1.5-0.2-3-0.8-3-2.5s1.5-2.7,3-2.7c2.4,0,3.1,1.6,3.3,2.4l-1.2,0.3c-0.2-0.6-0.6-1.6-2.1-1.6c-1,0-1.7,0.7-1.7,1.4
				c0,1.1,1.2,1.3,2.1,1.4c1.5,0.2,2.9,1,2.9,2.6C325.7,308.8,324.3,309.9,322.5,309.9z"/>
		</g>
	</g>
	<g>
		<pattern  id="SVGID_6_" xlink:href="#SVGID_1_" patternTransform="matrix(0 1.1987 1.1508 0 -19360.498 -1303.8514)">
		</pattern>
		<circle class="st4-c1" cx="167.2" cy="305.3" r="16"/>
	</g>
</g>
<g id="orangeCircleC1">
	<g>
		<g>
			<path d="M209.4,343v13.1h-1.5l-7.9-11.2v11.2h-1.4V343h1.6l7.8,11v-11H209.4z"/>
			<path d="M212.9,351.7c0-2.7,2-4.7,4.7-4.7c2.6,0,4.6,2,4.6,4.6c0,2.7-2,4.7-4.7,4.7C214.9,356.3,212.9,354.2,212.9,351.7z
				 M220.8,351.7c0-1.9-1.4-3.5-3.3-3.5c-1.9,0-3.3,1.6-3.3,3.5s1.3,3.5,3.3,3.5C219.5,355.1,220.8,353.5,220.8,351.7z"/>
		</g>
	</g>
	<g class="st5-c1">
		<circle class="st6-c1" cx="167.2" cy="351.6" r="16"/>
	</g>
</g>
<g id="chartTitlesC1_1_">
	<g>
		<g>
			<path class="st7-c1" d="M693.7,449.9c-1.9,4.9-4.3,9.6-7.1,14.2c-25.9,42.2-81.1,55.4-123.3,29.5s-55.4-81.1-29.5-123.3
				c15-24.5,39.9-39.2,66.3-42.2"/>
			<g>
				<polygon points="599.1,323.8 600,332.8 604.1,327.9 				"/>
			</g>
		</g>
	</g>
	<g>
		<g>
			<path class="st7-c1" d="M1241.9,347.3c34.9,27.8,44.3,77.9,20.4,116.9c-25.9,42.2-81.1,55.4-123.3,29.5
				c-42.2-25.9-55.4-81.1-29.5-123.3c15-24.5,39.9-39.2,66.3-42.2"/>
			<g>
				<polygon points="1174.8,323.8 1175.7,332.8 1179.8,327.9 				"/>
			</g>
		</g>
	</g>
	<g>
		<g>
			<path class="st7-c1" d="M402.9,756.8c18.7,28.2,20.6,65.8,1.7,96.5c-25.9,42.2-81.1,55.4-123.3,29.5s-55.4-81.1-29.5-123.3
				c15-24.5,39.9-39.2,66.3-42.2"/>
			<g>
				<polygon points="317.1,712.9 318,722 322.1,717 				"/>
			</g>
		</g>
	</g>
	<g id="chartTitlesC1">
		<g>
			<g>
				<path d="M160.2,71.1c-0.9,1.4-2.6,2-3.7,2c-2.8,0-4.4-2.1-4.4-4.2c0-3,2.3-4.5,4.7-4.5c1.4,0,3.1,0.8,3.9,2.2
					c0.6,1.1,0.9,2.2,0.9,3.7c0,4.3-2.1,7.5-6.1,7.5c-0.7,0-2.2-0.2-3-0.8l0.5-1.2c0.9,0.5,1.9,0.7,2.5,0.7
					C158.3,76.5,160,74.2,160.2,71.1z M158.9,71.1c0.7-0.5,1-1.4,1-2.3c0-2-1.6-3.1-3.2-3.1c-1.7,0-3.2,1.1-3.2,3.2
					c0,1.6,1.2,3.1,3.2,3.1C157.5,71.9,158.3,71.6,158.9,71.1z"/>
				<path d="M168.1,77v10.3h-2.4V64.7h2.4v10h12.8v-10h2.4v22.5h-2.4V77H168.1z"/>
				<path d="M198.2,77.4c0-2.5-1.4-3.7-3.9-3.7c-2.6,0-3.8,1.7-4,3.1l-2.2-0.5c0.1-1.3,1.8-4.7,6.2-4.7c3.3,0,4.9,1.5,5.6,3.2
					c0.3,0.8,0.5,2,0.5,2.5v9.9h-2.2v-2.7l0,0c-1.2,1.9-2.9,3-5.2,3c-3.1,0-5.2-1.9-5.2-4.5v-0.2c0-3.3,3.3-4.4,6.1-4.4h4.3
					L198.2,77.4L198.2,77.4z M193.9,80.2c-1.6,0-3.8,0.5-3.8,2.6c0,1.7,1.5,2.7,3.3,2.7c2.7,0,4.8-1.9,4.8-4.7v-0.5L193.9,80.2
					L193.9,80.2z"/>
				<path d="M203,71.9h2.5l5.3,12.9l5.4-12.9h2.4L212,87.3h-2.4L203,71.9z"/>
				<path d="M222.3,80.3c0.2,3,2.5,5.3,5.5,5.3c2.3,0,4-1.1,4.7-3.3l2,0.6c-0.9,3-3.7,4.6-6.7,4.6c-4.5,0-7.8-3.5-7.8-8
					c0-4.2,3.2-7.9,7.5-7.9c4.7,0,7.3,3.4,7.3,7.9c0,0.3,0,0.5,0,0.7h-12.5V80.3z M232.4,78.4c-0.3-2.8-2-4.8-5-4.8
					c-2.7,0-4.8,2.2-5.2,4.8H232.4z"/>
				<path d="M251,86.2l-7-14.3h2.6l5.6,11.9l5.3-11.9h2.4l-10.5,22.9H247L251,86.2z"/>
				<path d="M261.4,79.6c0-4.5,3.4-8,8-8c4.4,0,7.9,3.5,7.9,7.9c0,4.5-3.5,8-8,8S261.4,84,261.4,79.6z M274.9,79.6
					c0-3.2-2.3-6-5.7-6c-3.3,0-5.6,2.7-5.6,5.9c0,3.2,2.3,6,5.7,6C272.6,85.5,274.9,82.8,274.9,79.6z"/>
				<path d="M283.2,80.8c0,2.7,1.4,4.7,4.3,4.7c2.7,0,4.6-2.1,4.6-4.8v-8.8h2.2v15.4h-2.2v-2.8c-1.2,2.1-3,3.1-5.3,3.1
					c-3.8,0-5.8-2.6-5.8-6.2v-9.5h2.2L283.2,80.8L283.2,80.8z"/>
				<path d="M315.6,87.5c-2.9,0-4.7-1.4-6-3.5v3.2h-2.2V63.8h2.2v11.4c1.3-2,3.1-3.6,5.9-3.6c4.4,0,7.2,3.9,7.2,7.9
					C322.8,83.7,319.9,87.5,315.6,87.5z M320.5,79.6c0-3.2-2-6-5.4-6c-3.2,0-5.5,2.8-5.5,5.9c0,3.2,2.2,6,5.5,6
					C318.5,85.5,320.5,82.9,320.5,79.6z"/>
				<path d="M327.9,80.3c0.2,3,2.5,5.3,5.5,5.3c2.3,0,4-1.1,4.7-3.3l2,0.6c-0.9,3-3.7,4.6-6.7,4.6c-4.5,0-7.8-3.5-7.8-8
					c0-4.2,3.2-7.9,7.5-7.9c4.7,0,7.3,3.4,7.3,7.9c0,0.3,0,0.5,0,0.7h-12.5V80.3z M338.1,78.4c-0.3-2.8-2-4.8-5-4.8
					c-2.7,0-4.8,2.2-5.2,4.8H338.1z"/>
				<path d="M345.4,80.3c0.2,3,2.5,5.3,5.5,5.3c2.3,0,4-1.1,4.7-3.3l2,0.6c-0.9,3-3.7,4.6-6.7,4.6c-4.5,0-7.8-3.5-7.8-8
					c0-4.2,3.2-7.9,7.5-7.9c4.7,0,7.3,3.4,7.3,7.9c0,0.3,0,0.5,0,0.7h-12.5V80.3z M355.5,78.4c-0.3-2.8-2-4.8-5-4.8
					c-2.7,0-4.8,2.2-5.2,4.8H355.5z"/>
				<path d="M372.7,78.3c0-2.7-1.4-4.7-4.3-4.7c-2.7,0-4.6,2.1-4.6,4.9v8.7h-2.2V71.9h2.2v2.8c1.2-2.1,3-3.1,5.3-3.1
					c3.8,0,5.8,2.6,5.8,6.2v9.5h-2.2L372.7,78.3L372.7,78.3z"/>
				<path d="M389,64.7c0.9,0,1.7,0.7,1.7,1.7c0,0.9-0.7,1.7-1.7,1.7c-0.9,0-1.7-0.7-1.7-1.7C387.3,65.4,388.1,64.7,389,64.7z
					 M390.2,71.9v15.4h-2.3V71.9H390.2z"/>
				<path d="M405.7,78.2c0-2.5-1.2-4.6-4-4.6c-2.7,0-4.3,2.4-4.3,4.9v8.7h-2.2V71.9h2.2v2.7c1.2-1.9,2.6-3,4.9-3
					c2.2,0,4,1.1,4.9,3.1c1.3-2,3-3,5.4-3c3.7,0,5.7,2.6,5.7,6.1v9.5h-2.2v-8.9c0-2.6-1.2-4.6-4-4.6c-2.7,0-4.3,2.2-4.3,4.7v8.8
					h-2.2v-9.1H405.7z"/>
				<path d="M431.4,87.5c-2.8,0-4.7-1.4-5.9-3.4v10.7h-2.2V71.9h2.2v3.3c1.2-1.9,3-3.6,6-3.6c4.4,0,7.2,3.9,7.2,7.9
					C438.7,83.7,435.8,87.5,431.4,87.5z M436.4,79.6c0-3.2-2-6-5.4-6c-3.2,0-5.5,2.8-5.5,5.9c0,3.2,2.2,6,5.5,6
					C434.4,85.5,436.4,82.9,436.4,79.6z"/>
				<path d="M451.9,77.4c0-2.5-1.4-3.7-3.9-3.7c-2.6,0-3.8,1.7-4,3.1l-2.2-0.5c0.1-1.3,1.8-4.7,6.2-4.7c3.3,0,4.9,1.5,5.6,3.2
					c0.3,0.8,0.5,2,0.5,2.5v9.9h-2.2v-2.7l0,0c-1.2,1.9-2.9,3-5.2,3c-3.1,0-5.2-1.9-5.2-4.5v-0.2c0-3.3,3.3-4.4,6.1-4.4h4.3
					L451.9,77.4L451.9,77.4z M447.6,80.2c-1.6,0-3.8,0.5-3.8,2.6c0,1.7,1.5,2.7,3.3,2.7c2.7,0,4.8-1.9,4.8-4.7v-0.5L447.6,80.2
					L447.6,80.2z"/>
				<path d="M465.7,85.5c3.4,0,4.7-2.5,5.1-3.7l2.1,0.7c-0.7,2.3-3.2,5-7.3,5c-4.4,0-7.8-3.3-7.8-7.9c0-4.7,3.6-8,7.9-8
					c3.6,0,6.4,2.3,7,4.9l-2.1,0.7c-0.3-1.2-1.9-3.6-5.1-3.6c-3.3,0-5.6,2.7-5.6,5.9C460.1,82.7,462.2,85.5,465.7,85.5z"/>
				<path d="M477.5,83.3v-9.4h-2.8v-2h2.8v-4.4h2.2v4.4h3.9v2h-3.9v9.4c0,1.4,0.8,2.2,2.5,2.2c0.5,0,1,0,1.4-0.1v1.9
					c-0.5,0.1-1.4,0.2-1.8,0.2C478.5,87.4,477.5,85.5,477.5,83.3z"/>
				<path d="M488.3,80.3c0.2,3,2.5,5.3,5.5,5.3c2.3,0,4-1.1,4.7-3.3l2,0.6c-0.9,3-3.7,4.6-6.7,4.6c-4.5,0-7.8-3.5-7.8-8
					c0-4.2,3.2-7.9,7.5-7.9c4.7,0,7.3,3.4,7.3,7.9c0,0.3,0,0.5,0,0.7h-12.5V80.3z M498.4,78.4c-0.3-2.8-2-4.8-5-4.8
					c-2.7,0-4.8,2.2-5.2,4.8H498.4z"/>
				<path d="M510.7,71.6c3,0,4.7,1.7,6,3.5V63.8h2.2v23.4h-2.2V84c-1.2,2-3,3.5-6,3.5c-4.4,0-7.2-3.7-7.2-7.9
					C503.5,75.5,506.3,71.6,510.7,71.6z M516.6,79.5c0-3-2.3-5.9-5.5-5.9c-3.4,0-5.4,2.7-5.4,6c0,3.2,2,5.9,5.4,5.9
					C514.4,85.5,516.6,82.7,516.6,79.5z"/>
				<path d="M540.1,87.5c-2.9,0-4.7-1.4-6-3.5v3.2H532V63.8h2.2v11.4c1.3-2,3-3.6,5.9-3.6c4.4,0,7.2,3.9,7.2,7.9
					C547.3,83.7,544.5,87.5,540.1,87.5z M545,79.6c0-3.2-2-6-5.4-6c-3.2,0-5.5,2.8-5.5,5.9c0,3.2,2.2,6,5.5,6
					C543.1,85.5,545,82.9,545,79.6z"/>
				<path d="M555.8,86.2l-7-14.3h2.6l5.6,11.9l5.3-11.9h2.4l-10.5,22.9h-2.4L555.8,86.2z"/>
				<path d="M584.5,77.4c0-2.5-1.4-3.7-3.9-3.7c-2.6,0-3.8,1.7-4,3.1l-2.2-0.5c0.1-1.3,1.8-4.7,6.2-4.7c3.3,0,4.9,1.5,5.6,3.2
					c0.3,0.8,0.5,2,0.5,2.5v9.9h-2.2v-2.7l0,0c-1.2,1.9-2.9,3-5.2,3c-3.1,0-5.2-1.9-5.2-4.5v-0.2c0-3.3,3.3-4.4,6.1-4.4h4.3
					L584.5,77.4L584.5,77.4z M580.2,80.2c-1.6,0-3.8,0.5-3.8,2.6c0,1.7,1.5,2.7,3.3,2.7c2.7,0,4.8-1.9,4.8-4.7v-0.5L580.2,80.2
					L580.2,80.2z"/>
				<path d="M602.7,78.3c0-2.7-1.4-4.7-4.3-4.7c-2.7,0-4.6,2.1-4.6,4.9v8.7h-2.2V71.9h2.2v2.8c1.2-2.1,3-3.1,5.3-3.1
					c3.8,0,5.8,2.6,5.8,6.2v9.5h-2.2V78.3z"/>
				<path d="M614.3,86.2l-7-14.3h2.6l5.6,11.9l5.3-11.9h2.4l-10.5,22.9h-2.4L614.3,86.2z"/>
				<path d="M172.5,120.1c3.4,0,4.7-2.5,5.1-3.7l2.1,0.7c-0.7,2.3-3.2,5-7.3,5c-4.4,0-7.8-3.3-7.8-7.9c0-4.7,3.6-8,7.9-8
					c3.6,0,6.4,2.3,7,4.9l-2.1,0.7c-0.3-1.2-1.9-3.6-5.1-3.6c-3.3,0-5.6,2.7-5.6,5.9C166.9,117.2,169,120.1,172.5,120.1z"/>
				<path d="M188,120.7l-7-14.3h2.6l5.6,11.9l5.3-11.9h2.4l-10.5,22.9H184L188,120.7z"/>
				<path d="M208.1,122c-2.9,0-4.7-1.4-6-3.5v3.2H200V98.4h2.2v11.4c1.3-2,3-3.6,5.9-3.6c4.4,0,7.2,3.9,7.2,7.9
					C215.4,118.2,212.5,122,208.1,122z M213.1,114.1c0-3.2-2-6-5.4-6c-3.2,0-5.5,2.8-5.5,5.9c0,3.2,2.2,6,5.5,6
					C211.1,120,213.1,117.4,213.1,114.1z"/>
				<path d="M220.5,114.8c0.2,3,2.5,5.3,5.5,5.3c2.3,0,4-1.1,4.7-3.3l2,0.6c-0.9,3-3.7,4.6-6.7,4.6c-4.5,0-7.8-3.5-7.8-8
					c0-4.2,3.2-7.9,7.5-7.9c4.7,0,7.3,3.4,7.3,7.9c0,0.3,0,0.5,0,0.7h-12.5V114.8z M230.7,112.9c-0.3-2.8-2-4.8-5-4.8
					c-2.7,0-4.8,2.2-5.2,4.8H230.7z"/>
				<path d="M239,109.5c1.2-2.4,3.2-3.3,4.9-3.3c0.1,0,0.6,0,0.7,0v2.4c-0.3,0-0.6-0.1-0.9-0.1c-3.6,0-4.8,3-4.8,5.7v7.5h-2.2v-15.4
					h2.2v3.2H239z"/>
				<path d="M255.9,117.8v-9.4h-2.8v-2h2.8V102h2.2v4.4h3.9v2h-3.9v9.4c0,1.4,0.8,2.2,2.5,2.2c0.5,0,1,0,1.4-0.1v1.9
					c-0.5,0.1-1.4,0.2-1.8,0.2C256.9,121.9,255.9,120.1,255.9,117.8z"/>
				<path d="M276.9,112.8c0-2.7-1.4-4.7-4.3-4.7c-2.7,0-4.6,2.1-4.6,4.9v8.7h-2.2V98.4h2.2v10.8c1.2-2,3-3.1,5.3-3.1
					c3.8,0,5.8,2.6,5.8,6.2v9.5h-2.2L276.9,112.8L276.9,112.8z"/>
				<path d="M286.2,109.5c1.2-2.4,3.2-3.3,4.9-3.3c0.1,0,0.6,0,0.7,0v2.4c-0.3,0-0.6-0.1-0.9-0.1c-3.6,0-4.8,3-4.8,5.7v7.5H284
					v-15.4h2.2V109.5z"/>
				<path d="M295.5,114.8c0.2,3,2.5,5.3,5.5,5.3c2.3,0,4-1.1,4.7-3.3l2,0.6c-0.9,3-3.7,4.6-6.7,4.6c-4.5,0-7.8-3.5-7.8-8
					c0-4.2,3.2-7.9,7.5-7.9c4.7,0,7.3,3.4,7.3,7.9c0,0.3,0,0.5,0,0.7h-12.5V114.8z M305.7,112.9c-0.3-2.8-2-4.8-5-4.8
					c-2.7,0-4.8,2.2-5.2,4.8H305.7z"/>
				<path d="M321.1,111.9c0-2.5-1.4-3.7-3.9-3.7c-2.6,0-3.8,1.7-4,3.1l-2.2-0.5c0.1-1.3,1.8-4.7,6.2-4.7c3.3,0,4.9,1.5,5.6,3.2
					c0.3,0.8,0.5,2,0.5,2.5v9.9h-2.2V119l0,0c-1.2,1.9-2.9,3-5.2,3c-3.1,0-5.2-1.9-5.2-4.5v-0.2c0-3.3,3.3-4.4,6.1-4.4h4.3
					L321.1,111.9L321.1,111.9z M316.8,114.8c-1.6,0-3.8,0.5-3.8,2.6c0,1.7,1.5,2.7,3.3,2.7c2.7,0,4.8-1.9,4.8-4.7v-0.5L316.8,114.8
					L316.8,114.8z"/>
				<path d="M329.1,117.8v-9.4h-2.8v-2h2.8V102h2.2v4.4h3.9v2h-3.9v9.4c0,1.4,0.8,2.2,2.5,2.2c0.5,0,1,0,1.4-0.1v1.9
					c-0.5,0.1-1.4,0.2-1.8,0.2C330.1,121.9,329.1,120.1,329.1,117.8z"/>
				<path d="M343.7,122c-4.2,0-5.6-2.8-5.8-4.5l2.1-0.5c0.3,1.4,1.4,3,3.7,3c1.7,0,3.2-0.9,3.2-2.5c0-1.9-2-2.3-3.6-2.5
					c-2.6-0.4-5.1-1.3-5.1-4.3c0-2.9,2.6-4.6,5.2-4.6c4.1,0,5.4,2.7,5.6,4.2l-2,0.5c-0.3-1-1.1-2.7-3.5-2.7c-1.7,0-2.9,1.1-2.9,2.4
					c0,1.9,2.1,2.2,3.7,2.4c2.5,0.3,5,1.6,5,4.4C349.1,120.2,346.6,122,343.7,122z"/>
				<path d="M362.3,99.2c0.9,0,1.7,0.7,1.7,1.7c0,0.9-0.7,1.7-1.7,1.7c-0.9,0-1.7-0.7-1.7-1.7C360.6,100,361.3,99.2,362.3,99.2z
					 M363.4,106.4v15.4h-2.3v-15.4H363.4z"/>
				<path d="M379.6,112.8c0-2.7-1.4-4.7-4.3-4.7c-2.7,0-4.6,2.1-4.6,4.9v8.7h-2.2v-15.4h2.2v2.8c1.2-2.1,3-3.1,5.3-3.1
					c3.8,0,5.8,2.6,5.8,6.2v9.5h-2.2L379.6,112.8L379.6,112.8z"/>
				<path d="M395.7,117.8v-9.4h-2.8v-2h2.8V102h2.2v4.4h3.9v2h-3.9v9.4c0,1.4,0.8,2.2,2.5,2.2c0.5,0,1,0,1.4-0.1v1.9
					c-0.5,0.1-1.4,0.2-1.8,0.2C396.7,121.9,395.7,120.1,395.7,117.8z"/>
				<path d="M416.7,112.8c0-2.7-1.4-4.7-4.3-4.7c-2.7,0-4.6,2.1-4.6,4.9v8.7h-2.2V98.4h2.2v10.8c1.2-2,3-3.1,5.3-3.1
					c3.8,0,5.8,2.6,5.8,6.2v9.5h-2.2L416.7,112.8L416.7,112.8z"/>
				<path d="M424.9,114.8c0.2,3,2.5,5.3,5.5,5.3c2.3,0,4-1.1,4.7-3.3l2,0.6c-0.9,3-3.7,4.6-6.7,4.6c-4.5,0-7.8-3.5-7.8-8
					c0-4.2,3.2-7.9,7.5-7.9c4.7,0,7.3,3.4,7.3,7.9c0,0.3,0,0.5,0,0.7h-12.5V114.8z M435.1,112.9c-0.3-2.8-2-4.8-5-4.8
					c-2.7,0-4.8,2.2-5.2,4.8H435.1z"/>
				<path d="M451.6,98.3v23.4h-2.3V98.3H451.6z"/>
				<path d="M465.9,111.9c0-2.5-1.4-3.7-3.9-3.7c-2.6,0-3.8,1.7-4,3.1l-2.2-0.5c0.1-1.3,1.8-4.7,6.2-4.7c3.3,0,4.9,1.5,5.6,3.2
					c0.3,0.8,0.5,2,0.5,2.5v9.9h-2.2V119l0,0c-1.2,1.9-2.9,3-5.2,3c-3.1,0-5.2-1.9-5.2-4.5v-0.2c0-3.3,3.3-4.4,6.1-4.4h4.3
					L465.9,111.9L465.9,111.9z M461.6,114.8c-1.6,0-3.8,0.5-3.8,2.6c0,1.7,1.5,2.7,3.3,2.7c2.7,0,4.8-1.9,4.8-4.7v-0.5L461.6,114.8
					L461.6,114.8z"/>
				<path d="M477.7,122c-4.2,0-5.6-2.8-5.8-4.5l2.1-0.5c0.3,1.4,1.4,3,3.7,3c1.7,0,3.2-0.9,3.2-2.5c0-1.9-2-2.3-3.6-2.5
					c-2.6-0.4-5.1-1.3-5.1-4.3c0-2.9,2.6-4.6,5.2-4.6c4.1,0,5.4,2.7,5.6,4.2l-2,0.5c-0.3-1-1.1-2.7-3.5-2.7c-1.7,0-2.9,1.1-2.9,2.4
					c0,1.9,2.1,2.2,3.7,2.4c2.5,0.3,5,1.6,5,4.4C483.1,120.2,480.6,122,477.7,122z"/>
				<path d="M487.9,117.8v-9.4h-2.8v-2h2.8V102h2.2v4.4h3.9v2h-3.9v9.4c0,1.4,0.8,2.2,2.5,2.2c0.5,0,1,0,1.4-0.1v1.9
					c-0.5,0.1-1.4,0.2-1.8,0.2C488.9,121.9,487.9,120.1,487.9,117.8z"/>
				<path d="M510.2,101.8l-5.4,3.2l-1.1-1.8l6.5-3.9h2.3v22.5h-2.4v-20H510.2z"/>
				<path d="M517.2,121.1c0-2.6,1.2-5.5,5.2-7.9l3.4-2.1c2.2-1.3,3.9-2.7,3.9-5.4c0-2.3-2-4.5-4.9-4.5c-2.5,0-4,1.5-4.6,2.9
					c-0.4,1-0.4,1.9-0.5,2.2l-2.4-0.3c0-3.2,2.7-7,7.5-7c4.2,0,7.3,3.2,7.3,6.6c0,3.2-1.8,5.1-4.7,6.9l-3.5,2.2
					c-1.9,1.2-3.7,2.8-3.9,4.8h12.4v2.2h-15.2V121.1z"/>
				<path d="M555.1,112.8c0-2.5-1.2-4.6-4-4.6c-2.7,0-4.3,2.4-4.3,4.9v8.7h-2.2v-15.4h2.2v2.7c1.2-1.9,2.6-3,4.9-3
					c2.2,0,4,1.1,4.9,3.1c1.3-2,3-3,5.4-3c3.7,0,5.7,2.6,5.7,6.1v9.5h-2.2v-8.9c0-2.6-1.2-4.6-4-4.6c-2.7,0-4.3,2.2-4.3,4.7v8.8H555
					L555.1,112.8L555.1,112.8z"/>
				<path d="M571.6,114.2c0-4.5,3.4-8,8-8c4.4,0,7.9,3.5,7.9,7.9c0,4.5-3.5,8-8,8C575,122,571.6,118.5,571.6,114.2z M585.1,114.2
					c0-3.2-2.3-6-5.7-6c-3.3,0-5.6,2.7-5.6,5.9c0,3.2,2.3,6,5.7,6C582.8,120.1,585.1,117.3,585.1,114.2z"/>
				<path d="M602.5,112.8c0-2.7-1.4-4.7-4.3-4.7c-2.7,0-4.6,2.1-4.6,4.9v8.7h-2.2v-15.4h2.2v2.8c1.2-2.1,3-3.1,5.3-3.1
					c3.8,0,5.8,2.6,5.8,6.2v9.5h-2.2V112.8z"/>
				<path d="M610.4,117.8v-9.4h-2.8v-2h2.8V102h2.2v4.4h3.9v2h-3.9v9.4c0,1.4,0.8,2.2,2.5,2.2c0.5,0,1,0,1.4-0.1v1.9
					c-0.5,0.1-1.4,0.2-1.8,0.2C611.5,121.9,610.4,120.1,610.4,117.8z"/>
				<path d="M631.4,112.8c0-2.7-1.4-4.7-4.3-4.7c-2.7,0-4.6,2.1-4.6,4.9v8.7h-2.2V98.4h2.2v10.8c1.2-2,3-3.1,5.3-3.1
					c3.8,0,5.8,2.6,5.8,6.2v9.5h-2.2V112.8z"/>
				<path d="M643.2,122c-4.2,0-5.6-2.8-5.8-4.5l2.1-0.5c0.3,1.4,1.4,3,3.7,3c1.7,0,3.2-0.9,3.2-2.5c0-1.9-2-2.3-3.6-2.5
					c-2.6-0.4-5.1-1.3-5.1-4.3c0-2.9,2.6-4.6,5.1-4.6c4.1,0,5.4,2.7,5.6,4.2l-2,0.5c-0.3-1-1.1-2.7-3.5-2.7c-1.7,0-2.9,1.1-2.9,2.4
					c0,1.9,2.1,2.2,3.7,2.4c2.5,0.3,5,1.6,5,4.4C648.7,120.2,646.2,122,643.2,122z"/>
				<path d="M656.4,115.2c0-0.2,0-0.3,0-0.5c0-2.7,1.6-4,2.9-5.3c1.3-1.4,2.8-2.6,2.8-4.6c0-1.9-1.3-3.7-4.2-3.7s-4.5,2.1-4.3,4.9
					l-2.3-0.1c0-0.2,0-0.4,0-0.7c0-3.7,3.1-6.3,6.6-6.3c4,0,6.6,2.8,6.6,5.9c0,2.2-1.4,3.7-3.4,5.7c-1.5,1.5-2.5,2.4-2.6,4.7H656.4z
					 M657.4,122c0.9,0,1.7-0.7,1.7-1.7c0-0.9-0.7-1.7-1.7-1.7c-0.9,0-1.7,0.7-1.7,1.7S656.5,122,657.4,122z"/>
			</g>
		</g>
		<g class="st5-c1">
			<path d="M616.4,326.6l-1.9,3.4l-1.5-0.2l7.5-13.4l1.7,0.2l4.6,14.6l-1.6-0.2l-1.1-3.7L616.4,326.6z M617.1,325.3l6.5,0.7
				l-2.5-7.9L617.1,325.3z"/>
			<path d="M633,317.9l-3.1,14.3l-1.4-0.3l3.1-14.3L633,317.9z"/>
			<path d="M638.6,319.3l-3.9,14.1l-1.4-0.4l3.9-14.1L638.6,319.3z"/>
			<path d="M647.6,338.4c-1.6-0.8-2.3-2-2.5-3.5l-0.8,1.8l-1.3-0.6l6.1-13.3l1.3,0.6l-3,6.5c1.2-0.8,2.7-1.2,4.3-0.5
				c2.5,1.1,3.1,4.1,2,6.4C652.7,338.1,650.1,339.5,647.6,338.4z M652.4,335.2c0.8-1.8,0.4-3.9-1.5-4.8c-1.8-0.8-3.9,0.2-4.7,1.9
				c-0.8,1.8-0.3,4,1.6,4.8C649.8,338,651.6,337.1,652.4,335.2z"/>
			<path d="M657.2,338.8c-0.9,1.4-0.8,2.9,0.7,3.9c1.4,0.9,3.1,0.4,4-1l2.9-4.6l1.2,0.7l-5.2,8.1l-1.2-0.7l0.9-1.5
				c-1.3,0.7-2.6,0.6-3.8-0.1c-2-1.3-2.2-3.3-1-5.2l3.2-5l1.2,0.7L657.2,338.8z"/>
			<path d="M665.8,349.9c-2-1.6-1.6-3.6-1-4.5l1.2,0.6c-0.4,0.8-0.6,2,0.6,3c0.8,0.7,1.9,0.8,2.5,0c0.7-0.9-0.1-1.9-0.7-2.6
				c-1.1-1.2-1.9-2.6-0.8-4.1c1.1-1.4,3.1-1.2,4.3-0.2c2,1.6,1.5,3.4,1.1,4.2l-1.2-0.6c0.3-0.6,0.5-1.7-0.6-2.7
				c-0.8-0.7-1.9-0.6-2.4,0c-0.8,0.9,0.1,1.9,0.8,2.6c1.1,1.1,1.8,2.8,0.7,4.1C669.1,351.1,667.2,351,665.8,349.9z"/>
			<path d="M678.2,347.9l-6.6,6.9l-1-1l6.6-6.9L678.2,347.9z M680.8,344.1c0.4,0.4,0.4,1.1,0,1.5s-1.1,0.4-1.5,0s-0.4-1.1,0-1.5
				S680.4,343.7,680.8,344.1z"/>
			<path d="M682.8,358.8c1.3-1.1,1.6-2.6,0.5-3.9s-2.9-1.3-4.2-0.2l-4.1,3.6l-0.9-1.1l7.3-6.3l0.9,1l-1.3,1.2
				c1.5-0.3,2.7,0.2,3.6,1.2c1.5,1.8,1.2,3.8-0.5,5.3l-4.5,3.9l-0.9-1.1L682.8,358.8z"/>
			<path d="M685.4,364.2c-1.5,1.1-1.9,3.1-0.8,4.7c0.8,1.2,2,1.7,3.3,1.3l0.4,1.3c-1.9,0.5-3.7-0.3-4.7-1.9
				c-1.5-2.3-0.8-5.3,1.5-6.8c2.2-1.4,5.2-1.1,6.7,1.2c1.6,2.5,0.7,5-1.6,6.5c-0.1,0.1-0.3,0.2-0.4,0.2L685.4,364.2z M689.9,368.9
				c1.4-1.1,1.8-2.7,0.8-4.2c-0.9-1.4-2.8-1.7-4.3-1.1L689.9,368.9z"/>
			<path d="M688.5,378.1c-1.2-2.3,0-3.9,0.9-4.5l0.9,1c-0.7,0.6-1.3,1.6-0.6,2.9c0.5,0.9,1.4,1.5,2.3,1.1c1-0.5,0.7-1.8,0.4-2.7
				c-0.5-1.5-0.7-3.2,1-4c1.6-0.8,3.3,0.2,4,1.6c1.1,2.3,0,3.7-0.8,4.3l-0.8-1c0.5-0.4,1.2-1.4,0.5-2.7c-0.5-0.9-1.4-1.3-2.2-0.9
				c-1.1,0.5-0.7,1.8-0.3,2.7c0.5,1.5,0.5,3.3-1,4.1C691,380.6,689.3,379.8,688.5,378.1z"/>
			<path d="M692.1,386.4c-0.9-2.4,0.4-3.9,1.4-4.4l0.7,1.1c-0.7,0.5-1.5,1.5-0.9,2.9c0.4,1,1.2,1.7,2.2,1.3c1.1-0.4,0.9-1.7,0.7-2.7
				c-0.4-1.6-0.4-3.2,1.4-3.9c1.7-0.6,3.3,0.5,3.8,2c0.9,2.4-0.4,3.7-1.2,4.2l-0.7-1.1c0.5-0.4,1.3-1.2,0.8-2.7
				c-0.4-1-1.3-1.4-2.1-1.2c-1.1,0.4-0.8,1.7-0.6,2.7c0.4,1.5,0.2,3.3-1.5,3.9C694.4,389.1,692.8,388.1,692.1,386.4z"/>
			<path d="M696.1,400.2c-0.5-2.6,1-3.8,2.1-4.1l0.6,1.2c-0.8,0.4-1.7,1.2-1.4,2.7c0.2,1,0.9,1.8,1.9,1.6c1.1-0.2,1.2-1.5,1.1-2.5
				c-0.1-1.6,0.2-3.3,2-3.6c1.8-0.4,3.1,1,3.4,2.6c0.5,2.5-1,3.6-1.9,3.9l-0.6-1.2c0.6-0.3,1.5-1,1.2-2.5c-0.2-1-1-1.6-1.9-1.5
				c-1.2,0.2-1.1,1.5-1,2.5c0.1,1.6-0.4,3.3-2.1,3.6C697.8,403.3,696.4,402,696.1,400.2z"/>
			<path d="M706.9,406.5l-9.5,1.1l-0.2-1.4l9.5-1.1L706.9,406.5z M711.3,405.3c0.1,0.6-0.3,1.1-0.9,1.2c-0.6,0.1-1.1-0.3-1.2-0.9
				c-0.1-0.6,0.3-1.1,0.9-1.2S711.2,404.7,711.3,405.3z"/>
			<path d="M698,417.9l-0.3-7.7h1.2l7.4,5.7l-0.2-5.9h1.2l0.3,7.5h-1.2l-7.4-5.7l0.2,6L698,417.9z"/>
			<path d="M702.3,421.4c-1.9,0-3.4,1.3-3.5,3.2c-0.1,1.4,0.5,2.6,1.8,3.1l-0.5,1.2c-1.8-0.7-2.7-2.5-2.6-4.4
				c0.2-2.8,2.6-4.7,5.3-4.5c2.6,0.2,4.8,2.4,4.6,5c-0.2,3-2.5,4.4-5.3,4.1c-0.2,0-0.3,0-0.5-0.1L702.3,421.4z M702.9,427.8
				c1.8,0,3.1-1,3.2-2.9c0.1-1.7-1.1-3.1-2.7-3.5L702.9,427.8z"/>
			<path d="M696.1,434.2c0.5-2.6,2.4-3.1,3.5-3l0.1,1.3c-0.9,0-2,0.5-2.3,1.9c-0.2,1,0.2,2.1,1.2,2.3c1.1,0.2,1.7-1,2-1.9
				c0.5-1.5,1.4-2.9,3.2-2.6s2.5,2.2,2.2,3.7c-0.5,2.5-2.3,3-3.2,2.9l-0.1-1.3c0.7,0,1.8-0.3,2.1-1.8c0.2-1-0.3-1.9-1.2-2.1
				c-1.2-0.2-1.6,1-1.9,2c-0.5,1.5-1.6,2.9-3.3,2.6C696.6,437.8,695.8,436,696.1,434.2z"/>
		</g>
		<g class="st5-c1">
			<path d="M1189.9,326.2l1.4-0.3c0.2,1.7,1.6,3.1,3.3,3.3c1.6,0.1,3.2-0.5,3.4-2.3c0.2-1.7-1.3-2.4-2.3-2.7l-1.8-0.5
				c-0.6-0.2-1.6-0.6-2.3-1.4c-0.5-0.6-0.9-1.4-0.8-2.5c0.2-2.4,2.5-3.7,4.8-3.5c3,0.3,4.2,2.3,4.3,3.8l-1.4,0.3
				c-0.2-1-0.9-2.5-3.1-2.7c-1.5-0.1-3,0.7-3.2,2.2c-0.1,1,0.4,2,1.8,2.4l1.8,0.5c0.9,0.3,1.9,0.7,2.6,1.5c0.9,1,1,2.1,1,2.7
				c-0.2,2.5-2.4,3.9-5,3.7C1191.8,330.3,1189.9,328.2,1189.9,326.2z"/>
			<path d="M1209.6,327.4c0.4-1.5,0-3-1.7-3.4c-1.6-0.4-2.9,0.7-3.3,2.3l-1.4,5.3l-1.4-0.4l2.4-9.3l1.3,0.4l-0.4,1.6
				c1-0.9,2.1-1.4,3.5-1s2.2,1.3,2.5,2.6c1.1-1,2.3-1.4,3.8-1c2.2,0.6,3,2.4,2.4,4.6l-1.5,5.7l-1.4-0.4l1.4-5.4c0.4-1.5,0-3-1.7-3.4
				c-1.6-0.4-2.9,0.6-3.3,2.2l-1.4,5.3l-1.3-0.4L1209.6,327.4z"/>
			<path d="M1226.4,332.9c0.6-1.4,0.2-2.5-1.3-3.1c-1.5-0.7-2.6,0-3.1,0.8l-1.1-0.8c0.4-0.7,2.2-2.2,4.7-1.1
				c1.9,0.8,2.4,2.1,2.4,3.2c0,0.6-0.3,1.3-0.4,1.6l-2.5,5.7l-1.2-0.6l0.7-1.5l0,0c-1.2,0.8-2.4,1-3.7,0.4c-1.8-0.8-2.5-2.4-1.8-3.9
				v-0.1c0.8-1.9,3-1.7,4.6-1l2.4,1.1L1226.4,332.9z M1223.3,333.4c-0.9-0.4-2.3-0.7-2.8,0.5c-0.4,1,0.2,1.9,1.2,2.4
				c1.6,0.7,3.2,0.1,3.9-1.5l0.1-0.3L1223.3,333.4z"/>
			<path d="M1236.4,328.5l-7.1,12.8l-1.2-0.7l7.1-12.8L1236.4,328.5z"/>
			<path d="M1241.4,331.5l-7.8,12.4l-1.2-0.8l7.8-12.4L1241.4,331.5z"/>
		</g>
		<g class="st5-c1">
			<path d="M347.3,720.9l-1.4-0.2l1.6-12l0,0l-6.7,11.3l-1.3-0.2l-3.6-12.5l-1.5,11.9L333,719l1.8-14l2.1,0.3l3.7,12.6l6.7-11.3
				l2.1,0.3L347.3,720.9z"/>
			<path d="M352.8,718c-0.4,1.8,0.5,3.6,2.3,4.2c1.4,0.4,2.6,0.1,3.4-1.1l1.1,0.8c-1.1,1.6-3.1,2.1-4.9,1.5c-2.7-0.8-4-3.6-3.2-6.2
				c0.8-2.5,3.3-4.1,5.9-3.3c2.8,0.9,3.7,3.4,2.9,6c0,0.2-0.1,0.3-0.2,0.4L352.8,718z M359.2,718.8c0.3-1.7-0.3-3.2-2.1-3.8
				c-1.6-0.5-3.3,0.4-4,1.9L359.2,718.8z"/>
			<path d="M368.9,718.2c1.7,0.8,2.2,2.2,2.5,3.5l3-6.4l1.3,0.6l-6.2,13.3l-1.2-0.6l0.9-1.9c-1.2,0.8-2.6,1.2-4.3,0.4
				c-2.5-1.2-3.1-4-2-6.4C363.7,718.5,366.4,717,368.9,718.2z M370.2,724.2c0.8-1.7,0.2-4-1.6-4.8c-1.9-0.9-3.8,0.1-4.6,2
				c-0.8,1.8-0.4,3.9,1.5,4.8C367.3,727,369.3,726,370.2,724.2z"/>
			<path d="M378.4,723.4l-4.9,8.3l-1.2-0.7l4.9-8.3L378.4,723.4z M380.1,719.2c0.5,0.3,0.7,0.9,0.4,1.5c-0.3,0.5-0.9,0.7-1.4,0.4
				s-0.7-0.9-0.4-1.4C379,719,379.6,718.9,380.1,719.2z"/>
			<path d="M379.9,730.9c-1,1.4-1,2.9,0.4,3.9s3.1,0.6,4.1-0.8l3.2-4.4l1.1,0.8l-5.6,7.8l-1.1-0.8l1-1.4c-1.4,0.6-2.7,0.5-3.8-0.4
				c-1.9-1.4-2-3.4-0.7-5.2l3.5-4.8l1.1,0.8L379.9,730.9z"/>
			<path d="M394.3,740.8c1.1-1.1,1.5-2.6,0.3-3.8s-2.9-0.9-4,0.2l-3.9,3.8l-1-1l6.8-6.7l1,1l-1.2,1.2c1.4-0.3,2.5-0.1,3.5,0.9
				s1.3,2.2,0.8,3.5c1.5-0.3,2.7,0,3.7,1.1c1.6,1.7,1.3,3.6-0.2,5.2l-4.2,4.2l-1-1l4-3.9c1.1-1.1,1.6-2.5,0.3-3.8
				c-1.2-1.2-2.8-0.9-4,0.2l-3.9,3.9l-1-1L394.3,740.8z"/>
		</g>
		<g class="st5-c1">
			<path d="M911.6,705.4l-1.1,12.7l6.6,0.6L917,720l-8.1-0.7l1.2-14L911.6,705.4z"/>
			<path d="M926.1,715.5c0.3-1.5-0.4-2.5-1.9-2.8c-1.6-0.3-2.5,0.5-2.9,1.4l-1.3-0.6c0.2-0.8,1.7-2.6,4.4-2.1c2,0.4,2.8,1.5,3,2.7
				c0.1,0.6,0,1.3,0,1.6l-1.3,6.1l-1.3-0.3l0.3-1.7l0,0c-1,1-2.1,1.4-3.5,1.2c-1.9-0.4-2.9-1.8-2.6-3.4v-0.1c0.4-2,2.6-2.3,4.3-1.9
				l2.6,0.5L926.1,715.5z M923.1,716.7c-1-0.2-2.4-0.2-2.7,1.1c-0.2,1.1,0.6,1.8,1.7,2.1c1.7,0.4,3.2-0.6,3.5-2.3l0.1-0.3
				L923.1,716.7z"/>
			<path d="M932.9,715.8c1.1-1.2,2.5-1.4,3.6-1c0.1,0,0.3,0.1,0.4,0.2l-0.4,1.4c-0.2-0.1-0.3-0.1-0.5-0.2c-2.2-0.7-3.4,0.9-3.9,2.5
				l-1.4,4.5l-1.3-0.4l2.9-9.2l1.3,0.4L932.9,715.8z"/>
			<path d="M943.5,725.9c-1.2,0.8-2.6,1.2-4.3,0.5c-2.5-1.1-3.2-3.9-2.1-6.3c1-2.3,3.6-3.8,6.1-2.7c1.7,0.8,2.3,2.2,2.5,3.5l0.8-1.8
				l1.3,0.6l-3.9,8.8c-1.2,2.8-3.7,3.6-6.3,2.4c-2.3-1-3.4-2.9-3-4.9l1.4,0.1c-0.2,1.1,0.1,2.8,2.2,3.7c1.7,0.7,3.5,0.5,4.5-1.8
				L943.5,725.9z M944.6,723.4c0.8-1.7,0.1-3.9-1.7-4.7c-1.9-0.8-3.7,0.1-4.6,2c-0.8,1.8-0.3,3.8,1.6,4.7
				C941.8,726.2,943.8,725.2,944.6,723.4z"/>
			<path d="M949.7,726.6c-0.9,1.7-0.4,3.6,1.2,4.6c1.2,0.7,2.5,0.7,3.6-0.2l0.9,1c-1.5,1.3-3.5,1.3-5.1,0.3c-2.4-1.5-3-4.4-1.6-6.8
				c1.4-2.2,4.3-3.2,6.6-1.8c2.5,1.5,2.8,4.2,1.3,6.6c-0.1,0.1-0.2,0.3-0.3,0.4L949.7,726.6z M955.7,728.9c0.8-1.6,0.5-3.2-1.1-4.2
				c-1.4-0.9-3.3-0.4-4.3,0.9L955.7,728.9z"/>
		</g>
	</g>
	<g>
		<g>
			<path class="st7-c1" d="M962.2,738.1c33.2,28.1,41.8,77,18.4,115.2c-25.9,42.2-81.1,55.4-123.3,29.5s-55.4-81.1-29.5-123.3
				c15-24.5,39.9-39.2,66.3-42.2"/>
			<g>
				<polygon points="893.1,712.9 894,722 898.1,717 				"/>
			</g>
		</g>
	</g>
</g>
<g id="orangeChartC1">
	<g class="st5-c1">
		<path class="st6-c1" d="M411,502.9c1-1.6,2.9-2.2,4.1-2.2c3.2,0,5,2.2,5,4.8c0,3.4-2.7,5.1-5.3,5.1c-1.6,0-3.6-1-4.5-2.5
			c-0.7-1.3-0.9-2.3-0.9-4.1c0-4.7,2.6-8.7,7.3-8.7c0.8,0,2.1,0.1,3.1,0.7l-0.6,1.4c-0.8-0.5-1.9-0.6-2.5-0.6
			C413.2,496.8,411.3,499.5,411,502.9z M412.3,503c-0.7,0.6-1.2,1.6-1.2,2.6c0,2.2,1.9,3.6,3.7,3.6c1.9,0,3.7-1.2,3.7-3.6
			c0-1.8-1.4-3.5-3.7-3.5C414,502.1,413,502.4,412.3,503z"/>
		<path class="st6-c1" d="M431.5,503c-1,1.6-3,2.3-4.3,2.3c-3.2,0-5-2.4-5-4.8c0-3.4,2.6-5.2,5.3-5.2c1.6,0,3.5,0.9,4.4,2.5
			c0.7,1.3,1,2.5,1,4.2c0,4.9-2.4,8.6-7,8.6c-0.8,0-2.5-0.2-3.5-0.9l0.6-1.4c1,0.6,2.2,0.8,2.8,0.8
			C429.3,509.1,431.2,506.5,431.5,503z M430,503c0.7-0.6,1.2-1.6,1.2-2.7c0-2.2-1.8-3.5-3.7-3.5c-1.9,0-3.7,1.2-3.7,3.6
			c0,1.8,1.3,3.5,3.7,3.5C428.4,503.9,429.3,503.5,430,503z"/>
		<path class="st6-c1" d="M436.5,504.8c-1.1,0-2-0.9-2-2s0.9-2,2-2s2,0.9,2,2S437.6,504.8,436.5,504.8z M436.5,501.6
			c-0.7,0-1.2,0.5-1.2,1.2s0.6,1.2,1.2,1.2s1.2-0.5,1.2-1.2C437.8,502.1,437.2,501.6,436.5,501.6z M441.4,500.9h0.9l-5.7,8.8h-0.9
			L441.4,500.9z M441.4,509.7c-1.1,0-2-0.9-2-2s0.9-2,2-2s2,0.9,2,2C443.4,508.9,442.5,509.7,441.4,509.7z M441.4,506.5
			c-0.7,0-1.2,0.5-1.2,1.2s0.5,1.2,1.2,1.2s1.2-0.5,1.2-1.2C442.6,507.1,442.1,506.5,441.4,506.5z"/>
	</g>
	<g class="st5-c1">
		<path class="st6-c1" d="M974.4,506.4c0-1.6,1.1-3,3.1-3.6c-1.9-0.5-2.8-2.1-2.8-3.4c0-2.6,2.7-4,4.9-4c2.3,0,4.9,1.3,4.9,4
			c0,1.4-1,2.9-2.8,3.4c2.1,0.6,3.1,2.1,3.1,3.6c0,2.8-2.7,4.3-5.3,4.3C977.1,510.6,974.4,509.2,974.4,506.4z M983.3,506.4
			c0-2-2.1-2.9-3.7-2.9c-1.6,0-3.7,0.9-3.7,2.9s2.1,2.9,3.7,2.9C981.2,509.2,983.3,508.3,983.3,506.4z M976.3,499.3
			c0,1.9,2.1,2.8,3.4,2.8s3.4-0.9,3.4-2.7c0-1.7-1.9-2.6-3.4-2.6C978.2,496.7,976.3,497.6,976.3,499.3z"/>
		<path class="st6-c1" d="M994.5,510.5v-3.6h-7.8v-1.7l7.4-9.7h2v10.1h2.5v1.4H996v3.6L994.5,510.5L994.5,510.5z M994.5,505.5v-8.4
			l-6.4,8.4H994.5z"/>
		<path class="st6-c1" d="M1001.5,504.8c-1.1,0-2-0.9-2-2s0.9-2,2-2s2,0.9,2,2S1002.6,504.8,1001.5,504.8z M1001.5,501.6
			c-0.7,0-1.2,0.5-1.2,1.2s0.6,1.2,1.2,1.2c0.7,0,1.2-0.5,1.2-1.2C1002.8,502.1,1002.2,501.6,1001.5,501.6z M1006.4,500.9h0.9
			l-5.7,8.8h-0.9L1006.4,500.9z M1006.4,509.7c-1.1,0-2-0.9-2-2s0.9-2,2-2s2,0.9,2,2C1008.4,508.9,1007.5,509.7,1006.4,509.7z
			 M1006.4,506.5c-0.7,0-1.2,0.5-1.2,1.2s0.5,1.2,1.2,1.2s1.2-0.5,1.2-1.2C1007.6,507.1,1007.1,506.5,1006.4,506.5z"/>
	</g>
	<g class="st5-c1">
		<path class="st6-c1" d="M610.2,528.9c-61.6,0-111.5-49.9-111.5-111.5c0-61.5,49.8-111.3,111.2-111.5v-62.6
			c-73.1,0-136.3,43.5-162.5,111.7c-34.4,89.7,10.4,190.4,100.1,224.9c89.7,34.4,190.4-10.4,224.9-100.1l-58.2-22.3
			C698.2,499.2,657.7,528.9,610.2,528.9z"/>
	</g>
	<g class="st5-c1">
		<path class="st6-c1" d="M1331.9,322.6l-52.5,34.1c11.4,17.5,18,38.3,18,60.7c0,61.6-49.9,111.5-111.5,111.5s-111.5-49.9-111.5-111.5
			s49.9-111.5,111.5-111.5v-62.6c-34.6,0-65.8,9.2-94.8,28.1c-80.6,52.4-103.5,160.1-51.2,240.8c52.4,80.6,160.1,103.5,240.8,51.2
			S1384.3,403.2,1331.9,322.6z"/>
	</g>
	<g class="st5-c1">
		<path class="st6-c1" d="M328.2,918c-61.6,0-111.5-49.9-111.5-111.5S266.6,695,328.2,695l0,0v-62.6c-38.5,0-71.2,10.6-102.3,33.2
			c-77.8,56.5-95,165.3-38.5,243.1s165.3,95,243.1,38.5l-36.8-50.6C375.3,910.1,352.7,918,328.2,918z"/>
	</g>
	<g class="st5-c1">
		<path class="st6-c1" d="M124,889.5c1-1.6,2.9-2.2,4.1-2.2c3.2,0,5,2.2,5,4.8c0,3.4-2.7,5.1-5.3,5.1c-1.6,0-3.6-1-4.5-2.5
			c-0.7-1.3-0.9-2.3-0.9-4.1c0-4.7,2.6-8.7,7.3-8.7c0.8,0,2.1,0.1,3.1,0.7l-0.6,1.4c-0.8-0.5-1.9-0.6-2.5-0.6
			C126.3,883.4,124.4,886.1,124,889.5z M125.4,889.6c-0.7,0.6-1.2,1.6-1.2,2.6c0,2.2,1.9,3.6,3.7,3.6c1.9,0,3.7-1.2,3.7-3.6
			c0-1.8-1.4-3.5-3.7-3.5C127,888.7,126.1,889.1,125.4,889.6z"/>
		<path class="st6-c1" d="M135.3,889.6c0-3.7,2.1-7.7,6.3-7.7c4.1,0,6.2,3.9,6.2,7.6c0,3.7-2.1,7.7-6.3,7.7
			C137.4,897.3,135.3,893.4,135.3,889.6z M137,889.6c0,2.7,1.4,6.3,4.6,6.3c3.2,0,4.6-3.5,4.6-6.2s-1.4-6.3-4.6-6.3
			S137,886.9,137,889.6z"/>
		<path class="st6-c1" d="M151.4,891.4c-1.1,0-2-0.9-2-2s0.9-2,2-2s2,0.9,2,2C153.3,890.5,152.5,891.4,151.4,891.4z M151.4,888.2
			c-0.7,0-1.2,0.5-1.2,1.2s0.6,1.2,1.2,1.2s1.2-0.5,1.2-1.2C152.6,888.7,152.1,888.2,151.4,888.2z M156.2,887.5h0.9l-5.7,8.8h-0.9
			L156.2,887.5z M156.2,896.4c-1.1,0-2-0.9-2-2s0.9-2,2-2s2,0.9,2,2S157.3,896.4,156.2,896.4z M156.2,893.2c-0.7,0-1.2,0.5-1.2,1.2
			s0.5,1.2,1.2,1.2s1.2-0.5,1.2-1.2C157.5,893.7,156.9,893.2,156.2,893.2z"/>
	</g>
	<g class="st5-c1">
		<path class="st6-c1" d="M701.8,889.5c1-1.6,2.9-2.2,4.1-2.2c3.2,0,5,2.2,5,4.8c0,3.4-2.7,5.1-5.3,5.1c-1.7,0-3.6-1-4.5-2.5
			c-0.7-1.3-0.9-2.3-0.9-4.1c0-4.7,2.6-8.7,7.3-8.7c0.8,0,2.1,0.1,3.1,0.7L710,884c-0.8-0.5-1.9-0.6-2.5-0.6
			C704.1,883.4,702.1,886.1,701.8,889.5z M703.2,889.6c-0.7,0.6-1.2,1.6-1.2,2.6c0,2.2,1.9,3.6,3.7,3.6c1.9,0,3.7-1.2,3.7-3.6
			c0-1.8-1.4-3.5-3.7-3.5C704.8,888.7,703.9,889.1,703.2,889.6z"/>
		<path class="st6-c1" d="M713.1,889.6c0-3.7,2.1-7.7,6.3-7.7c4.1,0,6.2,3.9,6.2,7.6c0,3.7-2.1,7.7-6.3,7.7
			C715.2,897.3,713.1,893.4,713.1,889.6z M714.8,889.6c0,2.7,1.4,6.3,4.6,6.3c3.2,0,4.6-3.5,4.6-6.2s-1.4-6.3-4.6-6.3
			S714.8,886.9,714.8,889.6z"/>
		<path class="st6-c1" d="M729.1,891.4c-1.1,0-2-0.9-2-2s0.9-2,2-2s2,0.9,2,2S730.2,891.4,729.1,891.4z M729.1,888.2
			c-0.7,0-1.2,0.5-1.2,1.2s0.6,1.2,1.2,1.2s1.2-0.5,1.2-1.2C730.4,888.7,729.8,888.2,729.1,888.2z M734,887.5h0.9l-5.7,8.8h-0.9
			L734,887.5z M734,896.4c-1.1,0-2-0.9-2-2s0.9-2,2-2s2,0.9,2,2S735.1,896.4,734,896.4z M734,893.2c-0.7,0-1.2,0.5-1.2,1.2
			s0.5,1.2,1.2,1.2s1.2-0.5,1.2-1.2S734.7,893.2,734,893.2z"/>
	</g>
	<g class="st5-c1">
		<path class="st6-c1" d="M904.2,918c-61.6,0-111.5-49.9-111.5-111.5S842.6,695,904.1,695v-62.6c-38.5,0-71.2,10.6-102.3,33.2
			c-77.8,56.5-95,165.3-38.5,243.1s165.3,95,243.1,38.5l-36.8-50.6C951.3,910.1,928.7,918,904.2,918z"/>
	</g>
</g>
<g id="spottyChartC1">
	<g class="st5-c1">
		<path d="M814.7,418l-3.6,2.1l-0.7-1.2l4.4-2.6h1.5v15h-1.6L814.7,418L814.7,418z"/>
		<path d="M822.9,418l-3.6,2.1l-0.7-1.2l4.4-2.6h1.5v15h-1.6L822.9,418L822.9,418z"/>
		<path d="M829,425.7c-1.1,0-2-0.9-2-2s0.9-2,2-2s2,0.9,2,2C831,424.8,830.1,425.7,829,425.7z M829,422.5c-0.7,0-1.2,0.5-1.2,1.2
			s0.6,1.2,1.2,1.2c0.7,0,1.2-0.5,1.2-1.2S829.7,422.5,829,422.5z M833.8,421.8h0.9l-5.7,8.8h-0.9L833.8,421.8z M833.8,430.6
			c-1.1,0-2-0.9-2-2s0.9-2,2-2s2,0.9,2,2S834.9,430.6,833.8,430.6z M833.8,427.4c-0.7,0-1.2,0.5-1.2,1.2s0.5,1.2,1.2,1.2
			s1.2-0.5,1.2-1.2C835.1,428,834.5,427.4,833.8,427.4z"/>
	</g>
	<g class="st5-c1">
		<path d="M1344.4,301.1v-3.6h-7.8v-1.7l7.4-9.7h2v10.1h2.5v1.4h-2.5v3.6L1344.4,301.1L1344.4,301.1z M1344.4,296.1v-8.4l-6.4,8.4
			H1344.4z"/>
		<path d="M1351.5,295.4c-1.1,0-2-0.9-2-2s0.9-2,2-2s2,0.9,2,2S1352.6,295.4,1351.5,295.4z M1351.5,292.2c-0.7,0-1.2,0.5-1.2,1.2
			s0.6,1.2,1.2,1.2c0.7,0,1.2-0.5,1.2-1.2C1352.8,292.7,1352.2,292.2,1351.5,292.2z M1356.3,291.5h0.9l-5.7,8.8h-0.9L1356.3,291.5z
			 M1356.4,300.4c-1.1,0-2-0.9-2-2s0.9-2,2-2s2,0.9,2,2C1358.3,299.5,1357.5,300.4,1356.4,300.4z M1356.4,297.2
			c-0.7,0-1.2,0.5-1.2,1.2s0.5,1.2,1.2,1.2s1.2-0.5,1.2-1.2S1357.1,297.2,1356.4,297.2z"/>
	</g>
	<g>
		<pattern  id="SVGID_7_" xlink:href="#SVGID_2_" patternTransform="matrix(0 1.1987 1.1508 0 -19360.498 -1303.8514)">
		</pattern>
		<path class="st8-c1" d="M775.5,363.6l-59.3,19.3c3.5,10.9,5.5,22.5,5.5,34.6c0,14.1-2.6,27.6-7.4,40l58.2,22.3
			C787.6,440.3,788.5,403.8,775.5,363.6z"/>
	</g>
	<g>
		<pattern  id="SVGID_8_" xlink:href="#SVGID_3_" patternTransform="matrix(0 1.1987 1.1508 0 -19360.498 -1303.8514)">
		</pattern>
		<path class="st9-c1" d="M1279.4,356.7l52.5-34.1c-8.4-12.9-16-22-27.3-32.5l-42.7,45.8C1268.6,342.1,1274.5,349,1279.4,356.7z"/>
	</g>
	<g>
		<pattern  id="SVGID_9_" xlink:href="#SVGID_4_" patternTransform="matrix(0 1.1987 1.1508 0 -19360.498 -1303.8514)">
		</pattern>
		<path class="st10-c1" d="M393.7,896.7l36.8,50.6c31.1-22.6,51.3-50.5,63.2-87L434.2,841C426.9,863.6,412.5,883.1,393.7,896.7z"/>
	</g>
	<g class="st5-c1">
		<path d="M486.2,915.7l-3.6,2.1l-0.7-1.2l4.4-2.6h1.5v15h-1.6L486.2,915.7L486.2,915.7z"/>
		<path d="M491,921.6c0-3.7,2.1-7.7,6.3-7.7c4.1,0,6.2,3.9,6.2,7.6c0,3.7-2.1,7.7-6.3,7.7C493.1,929.2,491,925.3,491,921.6z
			 M492.6,921.5c0,2.7,1.4,6.3,4.6,6.3s4.6-3.5,4.6-6.2s-1.4-6.3-4.6-6.3C494,915.4,492.6,918.8,492.6,921.5z"/>
		<path d="M507,923.4c-1.1,0-2-0.9-2-2s0.9-2,2-2s2,0.9,2,2S508.1,923.4,507,923.4z M507,920.2c-0.7,0-1.2,0.5-1.2,1.2
			s0.6,1.2,1.2,1.2s1.2-0.5,1.2-1.2C508.3,920.7,507.7,920.2,507,920.2z M511.9,919.5h0.9l-5.7,8.8h-0.9L511.9,919.5z M511.9,928.3
			c-1.1,0-2-0.9-2-2s0.9-2,2-2s2,0.9,2,2C513.9,927.4,513,928.3,511.9,928.3z M511.9,925.1c-0.7,0-1.2,0.5-1.2,1.2s0.5,1.2,1.2,1.2
			c0.7,0,1.2-0.5,1.2-1.2C513.1,925.7,512.6,925.1,511.9,925.1z"/>
	</g>
	<g class="st5-c1">
		<path d="M1080.9,889.3l-3.6,2.1l-0.7-1.2l4.4-2.6h1.5v15h-1.6L1080.9,889.3L1080.9,889.3z"/>
		<path d="M1085.1,889.1v-1.5h10.2v1.5l-6.9,13.6h-1.7l7-13.6H1085.1z"/>
		<path d="M1098.3,897c-1.1,0-2-0.9-2-2s0.9-2,2-2s2,0.9,2,2S1099.4,897,1098.3,897z M1098.3,893.8c-0.7,0-1.2,0.5-1.2,1.2
			s0.6,1.2,1.2,1.2c0.7,0,1.2-0.5,1.2-1.2S1099,893.8,1098.3,893.8z M1103.1,893.1h0.9l-5.7,8.8h-0.9L1103.1,893.1z M1103.1,902
			c-1.1,0-2-0.9-2-2s0.9-2,2-2s2,0.9,2,2S1104.2,902,1103.1,902z M1103.1,898.8c-0.7,0-1.2,0.5-1.2,1.2s0.5,1.2,1.2,1.2
			s1.2-0.5,1.2-1.2C1104.4,899.3,1103.8,898.8,1103.1,898.8z"/>
	</g>
	<g>
		<pattern  id="SVGID_10_" xlink:href="#SVGID_5_" patternTransform="matrix(0 1.1987 1.1508 0 -19360.498 -1303.8514)">
		</pattern>
		<path class="st11-c1" d="M1076.5,782.3l-61.9,8.7c0.7,5.1,1.1,10.3,1.1,15.5c0,37.1-18.1,69.9-46,90.2l36.8,50.6
			C1059.3,909,1085.6,847.1,1076.5,782.3z"/>
	</g>
</g>
<g id="greenChartC1">
	<g>
		<path class="st3-c1" d="M724.4,259.9c0-1.7,0.8-3.6,3.5-5.3l2.3-1.4c1.4-0.9,2.6-1.8,2.6-3.6c0-1.5-1.4-3-3.3-3c-1.6,0-2.7,1-3.1,1.9
			c-0.3,0.6-0.3,1.2-0.3,1.5l-1.6-0.2c0-2.1,1.8-4.6,5-4.6c2.8,0,4.9,2.1,4.9,4.4c0,2.1-1.2,3.4-3.2,4.6l-2.4,1.5
			c-1.3,0.8-2.5,1.9-2.6,3.2h8.2v1.5h-10.1L724.4,259.9L724.4,259.9z"/>
		<path class="st3-c1" d="M736.7,252.9c0-3.7,2.1-7.7,6.3-7.7c4.1,0,6.2,3.9,6.2,7.6c0,3.7-2.1,7.7-6.3,7.7
			C738.8,260.5,736.7,256.6,736.7,252.9z M738.4,252.8c0,2.7,1.4,6.3,4.6,6.3c3.2,0,4.6-3.5,4.6-6.2s-1.4-6.3-4.6-6.3
			S738.4,250.1,738.4,252.8z"/>
		<path class="st3-c1" d="M752.7,254.6c-1.1,0-2-0.9-2-2s0.9-2,2-2s2,0.9,2,2C754.7,253.8,753.8,254.6,752.7,254.6z M752.7,251.4
			c-0.7,0-1.2,0.5-1.2,1.2s0.6,1.2,1.2,1.2c0.7,0,1.2-0.5,1.2-1.2C754,252,753.4,251.4,752.7,251.4z M757.6,250.8h0.9l-5.7,8.8h-0.9
			L757.6,250.8z M757.6,259.6c-1.1,0-2-0.9-2-2s0.9-2,2-2s2,0.9,2,2S758.7,259.6,757.6,259.6z M757.6,256.4c-0.7,0-1.2,0.5-1.2,1.2
			s0.5,1.2,1.2,1.2s1.2-0.5,1.2-1.2S758.3,256.4,757.6,256.4z"/>
	</g>
	<g>
		<path class="st3-c1" d="M1257.8,226.2l-3.6,2.1l-0.7-1.2l4.4-2.6h1.5v15h-1.6L1257.8,226.2L1257.8,226.2z"/>
		<path class="st3-c1" d="M1262.5,239.1c0-1.7,0.8-3.6,3.5-5.3l2.3-1.4c1.4-0.9,2.6-1.8,2.6-3.6c0-1.5-1.4-3-3.3-3
			c-1.6,0-2.7,1-3.1,1.9c-0.3,0.6-0.3,1.2-0.3,1.5l-1.6-0.2c0-2.1,1.8-4.6,5-4.6c2.8,0,4.9,2.1,4.9,4.4c0,2.1-1.2,3.4-3.2,4.6
			l-2.4,1.5c-1.3,0.8-2.5,1.9-2.6,3.2h8.2v1.5h-10.1L1262.5,239.1L1262.5,239.1z"/>
		<path class="st3-c1" d="M1276.1,233.9c-1.1,0-2-0.9-2-2s0.9-2,2-2s2,0.9,2,2S1277.2,233.9,1276.1,233.9z M1276.1,230.7
			c-0.7,0-1.2,0.5-1.2,1.2s0.6,1.2,1.2,1.2c0.7,0,1.2-0.5,1.2-1.2C1277.4,231.2,1276.8,230.7,1276.1,230.7z M1281,230h0.9l-5.7,8.8
			h-0.9L1281,230z M1281,238.8c-1.1,0-2-0.9-2-2s0.9-2,2-2s2,0.9,2,2C1283,237.9,1282.1,238.8,1281,238.8z M1281,235.6
			c-0.7,0-1.2,0.5-1.2,1.2s0.5,1.2,1.2,1.2s1.2-0.5,1.2-1.2C1282.2,236.2,1281.7,235.6,1281,235.6z"/>
	</g>
	<g>
		<path class="st3-c1" d="M610.2,305.9c49.5,0,91.5,32.3,106,76.9l59.3-19.3c-23.8-73.1-88.6-120.3-165.5-120.3v62.6
			C610,305.9,610.1,305.9,610.2,305.9z"/>
	</g>
	<g>
		<path class="st3-c1" d="M1261.9,335.9l42.7-45.8c-33.7-31.5-72.6-46.8-118.7-46.8v62.6C1215.3,305.9,1242,317.3,1261.9,335.9z"/>
	</g>
	<g>
		<path class="st3-c1" d="M328.2,632.5v62.6c61.6,0,111.5,49.9,111.5,111.5c0,12-1.9,23.6-5.4,34.4l59.5,19.3
			c5.9-18.3,8.5-34.6,8.5-53.8C502.2,710.4,424.3,632.5,328.2,632.5z"/>
	</g>
	<g>
		<path class="st3-c1" d="M486.5,691.1c-2.6,0-4.9-1.6-5.2-4.1l1.5-0.3c0.3,1.7,1.6,3,3.7,3c2,0,3.6-1.1,3.6-2.8s-1.3-2.8-3.6-2.8H485
			v-1.5h1.5c2.1,0,3.3-1.3,3.3-2.7c0-1.5-1.2-2.7-3.3-2.7c-2.1,0-3.2,1.2-3.5,2.8l-1.5-0.3c0.3-2.1,2.2-3.9,5-3.9c3.3,0,4.9,2,4.9,4
			c0,1.7-1,2.8-2.4,3.5l0,0c1.7,0.5,2.7,1.8,2.7,3.6C491.7,689.1,489.6,691.1,486.5,691.1z"/>
		<path class="st3-c1" d="M493.9,683.5c0-3.7,2.1-7.7,6.3-7.7c4.1,0,6.2,3.9,6.2,7.6c0,3.7-2.1,7.7-6.3,7.7
			C496,691.1,493.9,687.2,493.9,683.5z M495.5,683.4c0,2.7,1.4,6.3,4.6,6.3s4.6-3.5,4.6-6.2s-1.4-6.3-4.6-6.3
			S495.5,680.7,495.5,683.4z"/>
		<path class="st3-c1" d="M509.9,685.2c-1.1,0-2-0.9-2-2s0.9-2,2-2s2,0.9,2,2S511,685.2,509.9,685.2z M509.9,682
			c-0.7,0-1.2,0.5-1.2,1.2s0.6,1.2,1.2,1.2s1.2-0.5,1.2-1.2C511.2,682.6,510.6,682,509.9,682z M514.8,681.4h0.9l-5.7,8.8h-0.9
			L514.8,681.4z M514.8,690.2c-1.1,0-2-0.9-2-2s0.9-2,2-2s2,0.9,2,2S515.9,690.2,514.8,690.2z M514.8,687c-0.7,0-1.2,0.5-1.2,1.2
			s0.5,1.2,1.2,1.2s1.2-0.5,1.2-1.2S515.5,687,514.8,687z"/>
	</g>
	<g>
		<path class="st3-c1" d="M1027.6,660.9c0-1.7,0.8-3.6,3.5-5.3l2.3-1.4c1.4-0.9,2.6-1.8,2.6-3.6c0-1.5-1.4-3-3.3-3
			c-1.6,0-2.7,1-3.1,1.9c-0.3,0.6-0.3,1.2-0.3,1.5l-1.6-0.2c0-2.1,1.8-4.6,5-4.6c2.8,0,4.9,2.1,4.9,4.4c0,2.1-1.2,3.4-3.2,4.6
			l-2.4,1.5c-1.3,0.8-2.5,1.9-2.6,3.2h8.2v1.5h-10.1L1027.6,660.9L1027.6,660.9z"/>
		<path class="st3-c1" d="M1045,661.5c-2.6,0-4.9-1.6-5.2-4.1l1.5-0.3c0.3,1.7,1.6,3,3.7,3c2,0,3.6-1.1,3.6-2.8s-1.3-2.8-3.6-2.8h-1.5
			V653h1.5c2.1,0,3.3-1.3,3.3-2.7c0-1.5-1.2-2.7-3.3-2.7c-2.1,0-3.2,1.2-3.5,2.8l-1.5-0.3c0.3-2.1,2.2-3.9,5-3.9c3.3,0,4.9,2,4.9,4
			c0,1.7-1,2.8-2.4,3.5l0,0c1.7,0.5,2.7,1.8,2.7,3.6C1050.2,659.5,1048.1,661.5,1045,661.5z"/>
		<path class="st3-c1" d="M1053.7,655.7c-1.1,0-2-0.9-2-2s0.9-2,2-2s2,0.9,2,2S1054.8,655.7,1053.7,655.7z M1053.7,652.5
			c-0.7,0-1.2,0.5-1.2,1.2s0.6,1.2,1.2,1.2c0.7,0,1.2-0.5,1.2-1.2C1055,653,1054.4,652.5,1053.7,652.5z M1058.5,651.8h0.9l-5.7,8.8
			h-0.9L1058.5,651.8z M1058.6,660.6c-1.1,0-2-0.9-2-2s0.9-2,2-2s2,0.9,2,2C1060.5,659.7,1059.7,660.6,1058.6,660.6z M1058.6,657.4
			c-0.7,0-1.2,0.5-1.2,1.2s0.5,1.2,1.2,1.2s1.2-0.5,1.2-1.2C1059.8,658,1059.2,657.4,1058.6,657.4z"/>
	</g>
	<g>
		<path class="st3-c1" d="M904.2,695.1c56.3,0,102.8,41.7,110.4,95.9l61.9-8.7c-12.3-87.6-83.9-149.8-172.4-149.8L904.2,695.1
			L904.2,695.1z"/>
	</g>
</g>
</svg>
