<?xml version="1.0" encoding="utf-8"?>
<!-- Generator: Adobe Illustrator 21.1.0, SVG Export Plug-In . SVG Version: 6.00 Build 0)  -->
<svg version="1.1" id="graphNineCyber" xmlns="http://www.w3.org/2000/svg" xmlns:xlink="http://www.w3.org/1999/xlink" x="0px"
	 y="0px" viewBox="0 0 1500 1053" style="enable-background:new 0 0 1500 1053;" xml:space="preserve">
<style type="text/css">
	.st0{fill:#8EFFDE;}
	.st1{fill:none;stroke:#000000;stroke-miterlimit:10;}
	.st2{opacity:0.9;}
	.st3{fill:#FFFFFF;}
	.st4{fill:#FF8F4E;}
	.st5{fill:none;stroke:#FF8F4E;stroke-miterlimit:10;}
</style>
<g>
	<path d="M813.2,120.5l-3.2,1.9l-0.6-1.1l3.9-2.3h1.4v13.4h-1.4v-11.9H813.2z"/>
	<path d="M825.7,125.7c-0.9,1.4-2.7,2-3.8,2c-2.8,0-4.5-2.1-4.5-4.3c0-3.1,2.4-4.6,4.8-4.6c1.5,0,3.2,0.8,3.9,2.3
		c0.7,1.2,0.9,2.2,0.9,3.8c0,4.4-2.1,7.6-6.3,7.6c-0.7,0-2.2-0.2-3.1-0.8l0.5-1.3c0.9,0.5,2,0.7,2.5,0.7
		C823.8,131.2,825.5,128.8,825.7,125.7z M824.4,125.7c0.7-0.5,1.1-1.5,1.1-2.4c0-2-1.6-3.2-3.3-3.2s-3.3,1.1-3.3,3.2
		c0,1.6,1.2,3.2,3.3,3.2C822.9,126.5,823.8,126.2,824.4,125.7z"/>
	<path d="M837.5,131.7v10.5H835v-23h2.4v10.2h13.1v-10.2h2.4v23h-2.4v-10.5H837.5z"/>
	<path d="M868.2,132.1c0-2.5-1.4-3.8-4-3.8s-3.8,1.7-4.1,3.2l-2.2-0.5c0.1-1.3,1.9-4.8,6.4-4.8c3.3,0,5,1.5,5.7,3.2
		c0.4,0.9,0.5,2.1,0.5,2.6v10.1h-2.2v-2.8l0,0c-1.2,1.9-2.9,3-5.3,3c-3.2,0-5.3-2-5.3-4.6v-0.2c0-3.4,3.4-4.5,6.2-4.5h4.3
		L868.2,132.1L868.2,132.1z M863.8,135c-1.7,0-3.9,0.5-3.9,2.6c0,1.8,1.5,2.8,3.4,2.8c2.8,0,4.9-2,4.9-4.8V135H863.8z"/>
	<path d="M873.1,126.5h2.5l5.4,13.2l5.5-13.2h2.4l-6.7,15.7h-2.4L873.1,126.5z"/>
	<path d="M892.8,135c0.2,3.1,2.6,5.4,5.6,5.4c2.3,0,4.1-1.1,4.8-3.3l2.1,0.6c-0.9,3-3.8,4.7-6.9,4.7c-4.6,0-8-3.6-8-8.1
		c0-4.3,3.2-8.1,7.6-8.1c4.8,0,7.4,3.5,7.4,8c0,0.3,0,0.5,0,0.8L892.8,135L892.8,135z M903.2,133.1c-0.3-2.8-2.1-4.9-5.1-4.9
		c-2.7,0-4.9,2.3-5.3,4.9H903.2z"/>
	<path d="M922.1,141.1l-7.1-14.6h2.6l5.8,12.1l5.4-12.1h2.5l-10.8,23.4H918L922.1,141.1z"/>
	<path d="M932.7,134.4c0-4.6,3.5-8.2,8.1-8.2c4.5,0,8.1,3.6,8.1,8c0,4.6-3.6,8.2-8.1,8.2C936.2,142.4,932.7,138.9,932.7,134.4z
		 M946.6,134.4c0-3.3-2.4-6.2-5.8-6.2s-5.7,2.8-5.7,6.1s2.3,6.1,5.8,6.1C944.2,140.4,946.6,137.7,946.6,134.4z"/>
	<path d="M955,135.6c0,2.8,1.4,4.8,4.3,4.8c2.7,0,4.7-2.1,4.7-4.9v-9h2.3v15.7h-2.2v-2.9c-1.2,2.1-3.1,3.2-5.4,3.2
		c-3.8,0-5.9-2.6-5.9-6.3v-9.7h2.3L955,135.6L955,135.6z"/>
	<path d="M988.1,142.4c-2.9,0-4.8-1.5-6.1-3.5v11h-2.3v-23.4h2.3v3.4c1.3-2,3.1-3.7,6.1-3.7c4.5,0,7.4,4,7.4,8.1
		C995.4,138.5,992.5,142.4,988.1,142.4z M993.1,134.4c0-3.3-2-6.1-5.5-6.1c-3.2,0-5.6,2.9-5.6,6c0,3.2,2.3,6.1,5.6,6.1
		C991.1,140.4,993.1,137.7,993.1,134.4z"/>
	<path d="M1001.6,135.6c0,2.8,1.4,4.8,4.3,4.8c2.7,0,4.7-2.1,4.7-4.9v-9h2.3v15.7h-2.2v-2.9c-1.2,2.1-3.1,3.2-5.4,3.2
		c-3.8,0-5.9-2.6-5.9-6.3v-9.7h2.3L1001.6,135.6L1001.6,135.6z"/>
	<path d="M1019.1,138.1v-9.6h-2.9v-2h2.9V122h2.3v4.5h4v2h-4v9.5c0,1.4,0.8,2.2,2.6,2.2c0.5,0,1.1,0,1.4-0.1v1.9
		c-0.5,0.1-1.4,0.2-1.8,0.2C1020.1,142.3,1019.1,140.4,1019.1,138.1z"/>
	<path d="M1046.9,132.1c0-2.5-1.4-3.8-4-3.8s-3.8,1.7-4.1,3.2l-2.2-0.5c0.1-1.3,1.9-4.8,6.4-4.8c3.3,0,5,1.5,5.7,3.2
		c0.4,0.9,0.5,2.1,0.5,2.6v10.1h-2.2v-2.8l0,0c-1.2,1.9-2.9,3-5.3,3c-3.2,0-5.3-2-5.3-4.6v-0.2c0-3.4,3.4-4.5,6.2-4.5h4.3V132.1z
		 M1042.5,135c-1.7,0-3.9,0.5-3.9,2.6c0,1.8,1.5,2.8,3.4,2.8c2.8,0,4.9-2,4.9-4.8V135H1042.5z"/>
	<path d="M1065.4,133c0-2.8-1.4-4.8-4.3-4.8c-2.7,0-4.7,2.2-4.7,5v8.9h-2.3v-15.7h2.3v2.9c1.2-2.1,3.1-3.2,5.4-3.2
		c3.8,0,5.9,2.6,5.9,6.3v9.7h-2.3V133z"/>
	<path d="M1077.3,141.1l-7.1-14.6h2.6l5.8,12.1l5.4-12.1h2.5l-10.8,23.4h-2.5L1077.3,141.1z"/>
	<path d="M1106.6,132.1c0-2.5-1.4-3.8-4-3.8s-3.8,1.7-4.1,3.2l-2.2-0.5c0.1-1.3,1.9-4.8,6.4-4.8c3.3,0,5,1.5,5.7,3.2
		c0.4,0.9,0.5,2.1,0.5,2.6v10.1h-2.2v-2.8l0,0c-1.2,1.9-2.9,3-5.3,3c-3.2,0-5.3-2-5.3-4.6v-0.2c0-3.4,3.4-4.5,6.2-4.5h4.3V132.1z
		 M1102.3,135c-1.7,0-3.9,0.5-3.9,2.6c0,1.8,1.5,2.8,3.4,2.8c2.8,0,4.9-2,4.9-4.8V135H1102.3z"/>
	<path d="M1120.1,126.2c3,0,4.8,1.7,6.1,3.6v-11.5h2.3v23.9h-2.2v-3.3c-1.2,2-3.1,3.6-6.1,3.6c-4.5,0-7.3-3.8-7.3-8.1
		C1112.8,130.2,1115.7,126.2,1120.1,126.2z M1126.2,134.3c0-3.1-2.4-6-5.6-6c-3.4,0-5.5,2.7-5.5,6.1c0,3.2,2.1,6,5.5,6
		C1123.9,140.4,1126.2,137.5,1126.2,134.3z"/>
	<path d="M1139.9,126.2c3,0,4.8,1.7,6.1,3.6v-11.5h2.3v23.9h-2.2v-3.3c-1.2,2-3.1,3.6-6.1,3.6c-4.5,0-7.3-3.8-7.3-8.1
		C1132.5,130.2,1135.4,126.2,1139.9,126.2z M1146,134.3c0-3.1-2.4-6-5.6-6c-3.4,0-5.5,2.7-5.5,6.1c0,3.2,2.1,6,5.5,6
		C1143.7,140.4,1146,137.5,1146,134.3z"/>
	<path d="M1154.6,119.2c1,0,1.7,0.8,1.7,1.7c0,0.9-0.8,1.7-1.7,1.7c-0.9,0-1.7-0.8-1.7-1.7C1152.9,119.9,1153.6,119.2,1154.6,119.2z
		 M1155.7,126.5v15.7h-2.3v-15.7H1155.7z"/>
	<path d="M1162,138.1v-9.6h-2.9v-2h2.9V122h2.3v4.5h4v2h-4v9.5c0,1.4,0.8,2.2,2.6,2.2c0.5,0,1.1,0,1.4-0.1v1.9
		c-0.5,0.1-1.4,0.2-1.8,0.2C1163,142.3,1162,140.4,1162,138.1z"/>
	<path d="M1173.2,119.2c1,0,1.7,0.8,1.7,1.7c0,0.9-0.8,1.7-1.7,1.7c-0.9,0-1.7-0.8-1.7-1.7C1171.5,119.9,1172.3,119.2,1173.2,119.2z
		 M1174.4,126.5v15.7h-2.3v-15.7H1174.4z"/>
	<path d="M1178.4,134.4c0-4.6,3.5-8.2,8.1-8.2c4.5,0,8.1,3.6,8.1,8c0,4.6-3.6,8.2-8.1,8.2C1181.9,142.4,1178.4,138.9,1178.4,134.4z
		 M1192.3,134.4c0-3.3-2.4-6.2-5.8-6.2s-5.7,2.8-5.7,6.1s2.3,6.1,5.8,6.1C1189.9,140.4,1192.3,137.7,1192.3,134.4z"/>
	<path d="M1210,133c0-2.8-1.4-4.8-4.3-4.8c-2.7,0-4.7,2.2-4.7,5v8.9h-2.3v-15.7h2.3v2.9c1.2-2.1,3.1-3.2,5.4-3.2
		c3.8,0,5.9,2.6,5.9,6.3v9.7h-2.3V133z"/>
	<path d="M1226.7,132.1c0-2.5-1.4-3.8-4-3.8s-3.8,1.7-4.1,3.2l-2.2-0.5c0.1-1.3,1.9-4.8,6.4-4.8c3.3,0,5,1.5,5.7,3.2
		c0.4,0.9,0.5,2.1,0.5,2.6v10.1h-2.2v-2.8l0,0c-1.2,1.9-2.9,3-5.3,3c-3.2,0-5.3-2-5.3-4.6v-0.2c0-3.4,3.4-4.5,6.2-4.5h4.3V132.1z
		 M1222.3,135c-1.7,0-3.9,0.5-3.9,2.6c0,1.8,1.5,2.8,3.4,2.8c2.8,0,4.9-2,4.9-4.8V135H1222.3z"/>
	<path d="M1236.2,118.2v23.9h-2.3v-23.9C1233.9,118.2,1236.2,118.2,1236.2,118.2z"/>
	<path d="M1260.3,133c0-2.6-1.2-4.7-4.1-4.7c-2.7,0-4.3,2.4-4.3,5v8.9h-2.3v-15.7h2.3v2.7c1.3-1.9,2.7-3,5.1-3c2.3,0,4.1,1.1,5,3.1
		c1.3-2,3.1-3.1,5.5-3.1c3.8,0,5.8,2.6,5.8,6.3v9.7h-2.3V133c0-2.6-1.2-4.7-4.1-4.7c-2.8,0-4.3,2.2-4.3,4.8v9h-2.3L1260.3,133
		L1260.3,133z"/>
	<path d="M1279.4,135c0.2,3.1,2.6,5.4,5.6,5.4c2.3,0,4.1-1.1,4.8-3.3l2.1,0.6c-0.9,3-3.8,4.7-6.9,4.7c-4.6,0-8-3.6-8-8.1
		c0-4.3,3.2-8.1,7.6-8.1c4.8,0,7.4,3.5,7.4,8c0,0.3,0,0.5,0,0.8L1279.4,135L1279.4,135z M1289.8,133.1c-0.3-2.8-2.1-4.9-5.1-4.9
		c-2.7,0-4.9,2.3-5.3,4.9H1289.8z"/>
	<path d="M1305.5,132.1c0-2.5-1.4-3.8-4-3.8s-3.8,1.7-4.1,3.2l-2.2-0.5c0.1-1.3,1.9-4.8,6.4-4.8c3.3,0,5,1.5,5.7,3.2
		c0.4,0.9,0.5,2.1,0.5,2.6v10.1h-2.2v-2.8l0,0c-1.2,1.9-2.9,3-5.3,3c-3.2,0-5.3-2-5.3-4.6v-0.2c0-3.4,3.4-4.5,6.2-4.5h4.3V132.1z
		 M1301.1,135c-1.7,0-3.9,0.5-3.9,2.6c0,1.8,1.5,2.8,3.4,2.8c2.8,0,4.9-2,4.9-4.8V135H1301.1z"/>
	<path d="M1317.5,142.4c-4.3,0-5.7-2.9-6-4.6l2.1-0.5c0.3,1.4,1.4,3.1,3.8,3.1c1.7,0,3.3-0.9,3.3-2.6c0-1.9-2.1-2.3-3.7-2.6
		c-2.6-0.4-5.2-1.3-5.2-4.4c0-2.9,2.7-4.7,5.3-4.7c4.1,0,5.5,2.8,5.7,4.3l-2.1,0.5c-0.3-1.1-1.1-2.8-3.6-2.8c-1.7,0-3,1.1-3,2.5
		c0,2,2.1,2.3,3.7,2.5c2.6,0.3,5.1,1.7,5.1,4.5C1323.1,140.6,1320.6,142.4,1317.5,142.4z"/>
	<path d="M1329.2,135.6c0,2.8,1.4,4.8,4.3,4.8c2.7,0,4.7-2.1,4.7-4.9v-9h2.3v15.7h-2.2v-2.9c-1.2,2.1-3.1,3.2-5.4,3.2
		c-3.8,0-5.9-2.6-5.9-6.3v-9.7h2.3v9.1H1329.2z"/>
	<path d="M1348,129.6c1.2-2.4,3.3-3.3,5.1-3.3c0.1,0,0.6,0,0.8,0v2.4c-0.3,0-0.6-0.1-0.9-0.1c-3.7,0-4.9,3.1-4.9,5.8v7.7h-2.3v-15.7
		h2.3L1348,129.6L1348,129.6z"/>
	<path d="M1357.5,135c0.2,3.1,2.6,5.4,5.6,5.4c2.3,0,4.1-1.1,4.8-3.3l2.1,0.6c-0.9,3-3.8,4.7-6.9,4.7c-4.6,0-8-3.6-8-8.1
		c0-4.3,3.2-8.1,7.6-8.1c4.8,0,7.4,3.5,7.4,8c0,0.3,0,0.5,0,0.8L1357.5,135L1357.5,135z M1367.9,133.1c-0.3-2.8-2.1-4.9-5.1-4.9
		c-2.7,0-4.9,2.3-5.3,4.9H1367.9z"/>
	<path d="M1379,142.4c-4.3,0-5.7-2.9-6-4.6l2.1-0.5c0.3,1.4,1.4,3.1,3.8,3.1c1.7,0,3.3-0.9,3.3-2.6c0-1.9-2.1-2.3-3.7-2.6
		c-2.6-0.4-5.2-1.3-5.2-4.4c0-2.9,2.7-4.7,5.3-4.7c4.1,0,5.5,2.8,5.7,4.3l-2.1,0.5c-0.3-1.1-1.1-2.8-3.6-2.8c-1.7,0-3,1.1-3,2.5
		c0,2,2.1,2.3,3.7,2.5c2.6,0.3,5.1,1.7,5.1,4.5C1384.5,140.6,1382,142.4,1379,142.4z"/>
	<path d="M839.8,154.4c1,0,1.7,0.8,1.7,1.7s-0.8,1.7-1.7,1.7s-1.7-0.8-1.7-1.7S838.9,154.4,839.8,154.4z M841,161.7v15.7h-2.3v-15.7
		H841z"/>
	<path d="M857.5,168.3c0-2.8-1.4-4.8-4.3-4.8c-2.7,0-4.7,2.2-4.7,5v8.9h-2.3v-15.7h2.3v2.9c1.2-2.1,3.1-3.2,5.4-3.2
		c3.8,0,5.9,2.6,5.9,6.3v9.7h-2.3L857.5,168.3L857.5,168.3z"/>
	<path d="M881.3,177.7c-2.9,0-4.8-1.5-6.1-3.5v11h-2.3v-23.4h2.3v3.4c1.3-2,3.1-3.7,6.1-3.7c4.5,0,7.4,4,7.4,8.1
		C888.6,173.8,885.7,177.7,881.3,177.7z M886.3,169.6c0-3.3-2-6.1-5.5-6.1c-3.2,0-5.6,2.9-5.6,6c0,3.2,2.3,6.1,5.6,6.1
		C884.3,175.6,886.3,172.9,886.3,169.6z"/>
	<path d="M895,153.5v23.9h-2.3v-23.9H895z"/>
	<path d="M909.6,167.3c0-2.5-1.4-3.8-4-3.8s-3.8,1.7-4.1,3.2l-2.2-0.5c0.1-1.3,1.9-4.8,6.4-4.8c3.3,0,5,1.5,5.7,3.2
		c0.4,0.9,0.5,2.1,0.5,2.6v10.1h-2.2v-2.8l0,0c-1.2,1.9-2.9,3-5.3,3c-3.2,0-5.3-2-5.3-4.6v-0.2c0-3.4,3.4-4.5,6.2-4.5h4.3
		L909.6,167.3L909.6,167.3z M905.3,170.3c-1.7,0-3.9,0.5-3.9,2.6c0,1.8,1.5,2.8,3.4,2.8c2.8,0,4.9-2,4.9-4.8v-0.6H905.3z"/>
	<path d="M923.7,175.7c3.5,0,4.8-2.6,5.2-3.8l2.1,0.7c-0.7,2.4-3.3,5.1-7.4,5.1c-4.5,0-8-3.3-8-8c0-4.8,3.7-8.2,8.1-8.2
		c3.6,0,6.6,2.4,7.2,5l-2.1,0.7c-0.4-1.2-1.9-3.6-5.2-3.6s-5.7,2.7-5.7,6C918.1,172.8,920.2,175.7,923.7,175.7z"/>
	<path d="M936.1,170.3c0.2,3.1,2.6,5.4,5.6,5.4c2.3,0,4.1-1.1,4.8-3.3l2.1,0.6c-0.9,3-3.8,4.7-6.9,4.7c-4.6,0-8-3.6-8-8.1
		c0-4.3,3.2-8.1,7.6-8.1c4.8,0,7.4,3.5,7.4,8c0,0.3,0,0.5,0,0.8L936.1,170.3L936.1,170.3z M946.5,168.4c-0.3-2.8-2.1-4.9-5.1-4.9
		c-2.7,0-4.9,2.3-5.3,4.9H946.5z"/>
	<path d="M970.4,167.3c0-2.5-1.4-3.8-4-3.8s-3.8,1.7-4.1,3.2l-2.2-0.5c0.1-1.3,1.9-4.8,6.4-4.8c3.3,0,5,1.5,5.7,3.2
		c0.4,0.9,0.5,2.1,0.5,2.6v10.1h-2.2v-2.8l0,0c-1.2,1.9-2.9,3-5.3,3c-3.2,0-5.3-2-5.3-4.6v-0.2c0-3.4,3.4-4.5,6.2-4.5h4.3
		L970.4,167.3L970.4,167.3z M966,170.3c-1.7,0-3.9,0.5-3.9,2.6c0,1.8,1.5,2.8,3.4,2.8c2.8,0,4.9-2,4.9-4.8v-0.6H966z"/>
	<path d="M989,168.3c0-2.8-1.4-4.8-4.3-4.8c-2.7,0-4.7,2.2-4.7,5v8.9h-2.3v-23.9h2.3v11c1.2-2.1,3.1-3.1,5.4-3.1
		c3.8,0,5.9,2.6,5.9,6.3v9.7H989V168.3z"/>
	<path d="M997.4,170.3c0.2,3.1,2.6,5.4,5.6,5.4c2.3,0,4.1-1.1,4.8-3.3l2.1,0.6c-0.9,3-3.8,4.7-6.9,4.7c-4.6,0-8-3.6-8-8.1
		c0-4.3,3.2-8.1,7.6-8.1c4.8,0,7.4,3.5,7.4,8c0,0.3,0,0.5,0,0.8L997.4,170.3L997.4,170.3z M1007.8,168.4c-0.3-2.8-2.1-4.9-5.1-4.9
		c-2.7,0-4.9,2.3-5.3,4.9H1007.8z"/>
	<path d="M1023.5,167.3c0-2.5-1.4-3.8-4-3.8s-3.8,1.7-4.1,3.2l-2.2-0.5c0.1-1.3,1.9-4.8,6.4-4.8c3.3,0,5,1.5,5.7,3.2
		c0.4,0.9,0.5,2.1,0.5,2.6v10.1h-2.2v-2.8l0,0c-1.2,1.9-2.9,3-5.3,3c-3.2,0-5.3-2-5.3-4.6v-0.2c0-3.4,3.4-4.5,6.2-4.5h4.3
		L1023.5,167.3L1023.5,167.3z M1019.1,170.3c-1.7,0-3.9,0.5-3.9,2.6c0,1.8,1.5,2.8,3.4,2.8c2.8,0,4.9-2,4.9-4.8v-0.6H1019.1z"/>
	<path d="M1037,161.5c3,0,4.8,1.7,6.1,3.6v-11.5h2.3v23.9h-2.2v-3.3c-1.2,2-3.1,3.6-6.1,3.6c-4.5,0-7.3-3.8-7.3-8.1
		C1029.6,165.5,1032.5,161.5,1037,161.5z M1043.1,169.5c0-3.1-2.4-6-5.6-6c-3.4,0-5.5,2.7-5.5,6.1c0,3.2,2.1,6,5.5,6
		C1040.8,175.6,1043.1,172.8,1043.1,169.5z"/>
	<path d="M1057.6,169.6c0-4.6,3.5-8.2,8.1-8.2c4.5,0,8.1,3.6,8.1,8c0,4.6-3.6,8.2-8.1,8.2C1061.1,177.7,1057.6,174.1,1057.6,169.6z
		 M1071.4,169.6c0-3.3-2.4-6.2-5.8-6.2s-5.7,2.8-5.7,6.1s2.3,6.1,5.8,6.1C1069,175.7,1071.4,172.9,1071.4,169.6z"/>
	<path d="M1080.9,158.8v3h4.1v2h-4.1v13.7h-2.3v-13.7h-3v-2h3v-2.9c0-3.6,2-5.4,4.8-5.4c0.4,0,1.1,0.1,1.7,0.3v1.9
		c-0.6-0.2-1.3-0.2-1.6-0.2C1082.4,155.5,1080.9,156.1,1080.9,158.8z"/>
	<path d="M1096.7,173.4v-9.6h-2.9v-2h2.9v-4.5h2.3v4.5h4v2h-4v9.5c0,1.4,0.8,2.2,2.6,2.2c0.5,0,1.1,0,1.4-0.1v1.9
		c-0.5,0.1-1.4,0.2-1.8,0.2C1097.7,177.5,1096.7,175.7,1096.7,173.4z"/>
	<path d="M1118.1,168.3c0-2.8-1.4-4.8-4.3-4.8c-2.7,0-4.7,2.2-4.7,5v8.9h-2.3v-23.9h2.3v11c1.2-2.1,3.1-3.1,5.4-3.1
		c3.8,0,5.9,2.6,5.9,6.3v9.7h-2.3V168.3z"/>
	<path d="M1126.6,170.3c0.2,3.1,2.6,5.4,5.6,5.4c2.3,0,4.1-1.1,4.8-3.3l2.1,0.6c-0.9,3-3.8,4.7-6.9,4.7c-4.6,0-8-3.6-8-8.1
		c0-4.3,3.2-8.1,7.6-8.1c4.8,0,7.4,3.5,7.4,8c0,0.3,0,0.5,0,0.8L1126.6,170.3L1126.6,170.3z M1137,168.4c-0.3-2.8-2.1-4.9-5.1-4.9
		c-2.7,0-4.9,2.3-5.3,4.9H1137z"/>
	<path d="M1152.6,154.4c1,0,1.7,0.8,1.7,1.7s-0.8,1.7-1.7,1.7c-0.9,0-1.7-0.8-1.7-1.7C1150.8,155.2,1151.6,154.4,1152.6,154.4z
		 M1153.7,161.7v15.7h-2.3v-15.7H1153.7z"/>
	<path d="M1170.2,168.3c0-2.8-1.4-4.8-4.3-4.8c-2.7,0-4.7,2.2-4.7,5v8.9h-2.3v-15.7h2.3v2.9c1.2-2.1,3.1-3.2,5.4-3.2
		c3.8,0,5.9,2.6,5.9,6.3v9.7h-2.3V168.3z"/>
	<path d="M1178.4,173.4v-9.6h-2.9v-2h2.9v-4.5h2.3v4.5h4v2h-4v9.5c0,1.4,0.8,2.2,2.6,2.2c0.5,0,1.1,0,1.4-0.1v1.9
		c-0.5,0.1-1.4,0.2-1.8,0.2C1179.4,177.5,1178.4,175.7,1178.4,173.4z"/>
	<path d="M1190.7,164.9c1.2-2.4,3.3-3.3,5.1-3.3c0.1,0,0.6,0,0.8,0v2.4c-0.3,0-0.6-0.1-0.9-0.1c-3.7,0-4.9,3.1-4.9,5.8v7.7h-2.3
		v-15.7h2.3L1190.7,164.9L1190.7,164.9z"/>
	<path d="M1197.9,169.6c0-4.6,3.5-8.2,8.1-8.2c4.5,0,8.1,3.6,8.1,8c0,4.6-3.6,8.2-8.1,8.2C1201.5,177.7,1197.9,174.1,1197.9,169.6z
		 M1211.8,169.6c0-3.3-2.4-6.2-5.8-6.2s-5.7,2.8-5.7,6.1s2.3,6.1,5.8,6.1C1209.4,175.7,1211.8,172.9,1211.8,169.6z"/>
	<path d="M1224.4,161.5c3,0,4.8,1.7,6.1,3.6v-11.5h2.3v23.9h-2.2v-3.3c-1.2,2-3.1,3.6-6.1,3.6c-4.5,0-7.3-3.8-7.3-8.1
		C1217.1,165.5,1220,161.5,1224.4,161.5z M1230.5,169.5c0-3.1-2.4-6-5.6-6c-3.4,0-5.5,2.7-5.5,6.1c0,3.2,2.1,6,5.5,6
		C1228.2,175.6,1230.5,172.8,1230.5,169.5z"/>
	<path d="M1240,170.9c0,2.8,1.4,4.8,4.3,4.8c2.7,0,4.7-2.1,4.7-4.9v-9h2.3v15.7h-2.2v-2.9c-1.2,2.1-3.1,3.2-5.4,3.2
		c-3.8,0-5.9-2.6-5.9-6.3v-9.7h2.3v9.1H1240z"/>
	<path d="M1263.4,175.7c3.5,0,4.8-2.6,5.2-3.8l2.1,0.7c-0.7,2.4-3.3,5.1-7.4,5.1c-4.5,0-8-3.3-8-8c0-4.8,3.7-8.2,8.1-8.2
		c3.6,0,6.6,2.4,7.2,5l-2.1,0.7c-0.4-1.2-1.9-3.6-5.2-3.6c-3.3,0-5.7,2.7-5.7,6C1257.7,172.8,1259.8,175.7,1263.4,175.7z"/>
	<path d="M1275.5,173.4v-9.6h-2.9v-2h2.9v-4.5h2.3v4.5h4v2h-4v9.5c0,1.4,0.8,2.2,2.6,2.2c0.5,0,1.1,0,1.4-0.1v1.9
		c-0.5,0.1-1.4,0.2-1.8,0.2C1276.5,177.5,1275.5,175.7,1275.5,173.4z"/>
	<path d="M1286.7,154.4c1,0,1.7,0.8,1.7,1.7s-0.8,1.7-1.7,1.7c-0.9,0-1.7-0.8-1.7-1.7S1285.8,154.4,1286.7,154.4z M1287.9,161.7
		v15.7h-2.3v-15.7H1287.9z"/>
	<path d="M1291.9,169.6c0-4.6,3.5-8.2,8.1-8.2c4.5,0,8.1,3.6,8.1,8c0,4.6-3.6,8.2-8.1,8.2C1295.4,177.7,1291.9,174.1,1291.9,169.6z
		 M1305.8,169.6c0-3.3-2.4-6.2-5.8-6.2s-5.7,2.8-5.7,6.1s2.3,6.1,5.8,6.1C1303.4,175.7,1305.8,172.9,1305.8,169.6z"/>
	<path d="M1323.5,168.3c0-2.8-1.4-4.8-4.3-4.8c-2.7,0-4.7,2.2-4.7,5v8.9h-2.3v-15.7h2.3v2.9c1.2-2.1,3.1-3.2,5.4-3.2
		c3.8,0,5.9,2.6,5.9,6.3v9.7h-2.3V168.3z"/>
	<path d="M837.5,204.9c0-4.6,3.5-8.2,8.1-8.2c4.5,0,8.1,3.6,8.1,8c0,4.6-3.6,8.2-8.1,8.2S837.5,209.4,837.5,204.9z M851.4,204.9
		c0-3.3-2.4-6.2-5.8-6.2s-5.7,2.8-5.7,6.1s2.3,6.1,5.8,6.1C849,210.9,851.4,208.2,851.4,204.9z"/>
	<path d="M860.9,194v3h4.1v2h-4.1v13.7h-2.3V199h-3v-2h3v-2.9c0-3.6,2-5.4,4.8-5.4c0.4,0,1.1,0.1,1.7,0.3v1.9
		c-0.6-0.2-1.3-0.2-1.6-0.2C862.4,190.7,860.9,191.4,860.9,194z"/>
	<path d="M876.7,208.6V199h-2.9v-2h2.9v-4.5h2.3v4.5h4v2h-4v9.5c0,1.4,0.8,2.2,2.6,2.2c0.5,0,1.1,0,1.4-0.1v1.9
		c-0.5,0.1-1.4,0.2-1.8,0.2C877.7,212.8,876.7,210.9,876.7,208.6z"/>
	<path d="M898.1,203.5c0-2.8-1.4-4.8-4.3-4.8c-2.7,0-4.7,2.2-4.7,5v8.9h-2.3v-23.9h2.3v11c1.2-2.1,3.1-3.1,5.4-3.1
		c3.8,0,5.9,2.6,5.9,6.3v9.7h-2.3L898.1,203.5L898.1,203.5z"/>
	<path d="M906.5,205.5c0.2,3.1,2.6,5.4,5.6,5.4c2.3,0,4.1-1.1,4.8-3.3l2.1,0.6c-0.9,3-3.8,4.7-6.9,4.7c-4.6,0-8-3.6-8-8.1
		c0-4.3,3.2-8.1,7.6-8.1c4.8,0,7.4,3.5,7.4,8c0,0.3,0,0.5,0,0.8L906.5,205.5L906.5,205.5z M916.9,203.6c-0.3-2.8-2.1-4.9-5.1-4.9
		c-2.7,0-4.9,2.3-5.3,4.9H916.9z"/>
	<path d="M949.8,197.1c-0.6-1.9-2.8-5.4-7.9-5.4c-5.3,0-9,4.4-9,9.4c0,5.2,3.4,9.5,9,9.5c4.1,0,7.8-2.5,8.1-6.9h-9.6v-2.2h12.2v0.9
		c0,5.8-4.1,10.5-10.8,10.5c-7,0-11.5-5.1-11.5-11.7c0-6.6,5-11.8,11.6-11.8c5.6,0,8.9,3.2,10.2,6.8L949.8,197.1z"/>
	<path d="M964,189.7c7.2,0,12.1,5,12.1,11.5c0,6.8-5.4,11.5-12.1,11.5h-6.8v-23H964z M963.9,210.4c5.8,0,9.7-3.8,9.7-9.2
		c0-5.3-3.8-9.3-9.8-9.3h-4.3v18.5H963.9z"/>
	<path d="M983.4,212.7H981v-23h7.7c5.6,0,8.1,3.3,8.1,6.9c0,3.9-2.9,7.1-8.5,7.1h-4.9L983.4,212.7L983.4,212.7z M983.4,201.5h5
		c4.2,0,5.9-2.5,5.9-4.8s-1.3-4.7-5.8-4.7h-5.1L983.4,201.5L983.4,201.5z"/>
	<path d="M1008.1,203.4h-4.7v9.3h-2.4v-23h8c5.6,0,8.1,3.1,8.1,6.7c0,3.9-2.9,6.1-6.3,6.6l7.1,9.7h-2.9L1008.1,203.4z M1008.7,201.2
		c4.2,0,5.8-2.4,5.8-4.7s-1.4-4.5-5.8-4.5h-5.4v9.2H1008.7z"/>
	<path d="M1030.8,189.7c1,0,1.7,0.8,1.7,1.7s-0.8,1.7-1.7,1.7c-0.9,0-1.7-0.8-1.7-1.7C1029.1,190.4,1029.9,189.7,1030.8,189.7z
		 M1032,197v15.7h-2.3V197H1032z"/>
	<path d="M1048.5,203.5c0-2.8-1.4-4.8-4.3-4.8c-2.7,0-4.7,2.2-4.7,5v8.9h-2.3V197h2.3v2.9c1.2-2.1,3.1-3.2,5.4-3.2
		c3.8,0,5.9,2.6,5.9,6.3v9.7h-2.3V203.5z"/>
	<path d="M1088.5,212.7h-2.4V193l0,0l-8.5,19.7h-2.2l-8.5-19.6v19.6h-2.4v-23h3.4l8.6,19.7l8.5-19.7h3.5V212.7z"/>
	<path d="M1103.8,202.6c0-2.5-1.4-3.8-4-3.8s-3.8,1.7-4.1,3.2l-2.2-0.5c0.1-1.3,1.9-4.8,6.4-4.8c3.3,0,5,1.5,5.7,3.2
		c0.4,0.9,0.5,2.1,0.5,2.6v10.1h-2.2v-2.8l0,0c-1.2,1.9-2.9,3-5.3,3c-3.2,0-5.3-2-5.3-4.6V208c0-3.4,3.4-4.5,6.2-4.5h4.3V202.6z
		 M1099.4,205.5c-1.7,0-3.9,0.5-3.9,2.6c0,1.8,1.5,2.8,3.4,2.8c2.8,0,4.9-2,4.9-4.8v-0.6H1099.4z"/>
	<path d="M1115.7,211.6l-7.1-14.6h2.6l5.8,12.1l5.4-12.1h2.5l-10.8,23.4h-2.5L1115.7,211.6z"/>
	<path d="M1134.6,212c0-2.7,1.2-5.6,5.3-8.1l3.5-2.2c2.2-1.4,4-2.8,4-5.5c0-2.4-2.1-4.6-5.1-4.6c-2.5,0-4.1,1.5-4.7,2.9
		c-0.4,1-0.4,1.9-0.5,2.3l-2.4-0.4c0-3.3,2.8-7.1,7.7-7.1c4.3,0,7.5,3.2,7.5,6.8c0,3.3-1.8,5.2-4.8,7.1l-3.6,2.3
		c-2,1.2-3.8,2.8-4,4.9h12.6v2.2h-15.5V212z"/>
	<path d="M1153.5,201.3c0-5.7,3.3-11.8,9.6-11.8c6.3,0,9.5,6,9.5,11.7s-3.2,11.8-9.6,11.8C1156.7,212.9,1153.5,207,1153.5,201.3z
		 M1156,201.1c0,4.1,2.1,9.6,7.1,9.6s7.1-5.3,7.1-9.5s-2.1-9.6-7.1-9.6S1156,197,1156,201.1z"/>
	<path d="M1181.3,192.2l-5.5,3.3l-1.1-1.8l6.7-4h2.3v23h-2.4V192.2z"/>
	<path d="M1188.7,206.4c0-2.4,1.7-4.6,4.8-5.6c-2.8-0.8-4.3-3.3-4.3-5.3c0-4,4.1-6.1,7.5-6.1c3.5,0,7.5,2,7.5,6.1
		c0,2.2-1.6,4.4-4.3,5.3c3.2,0.9,4.8,3.2,4.8,5.6c0,4.2-4.1,6.5-8.1,6.5C1192.9,212.9,1188.7,210.8,1188.7,206.4z M1202.4,206.4
		c0-3-3.2-4.5-5.6-4.5s-5.6,1.4-5.6,4.4c0,3.1,3.1,4.4,5.6,4.4C1199.2,210.7,1202.4,209.4,1202.4,206.4z M1191.7,195.6
		c0,2.9,3.2,4.2,5.1,4.2s5.2-1.4,5.2-4.2c0-2.7-2.9-4.1-5.2-4.1C1194.6,191.6,1191.7,193,1191.7,195.6z"/>
	<path d="M1213.1,206c0-0.2,0-0.4,0-0.5c0-2.7,1.7-4.1,2.9-5.4c1.3-1.4,2.9-2.6,2.9-4.7c0-1.9-1.3-3.8-4.3-3.8s-4.6,2.2-4.4,5
		l-2.3-0.1c0-0.2,0-0.4,0-0.7c0-3.8,3.1-6.5,6.8-6.5c4.1,0,6.8,2.8,6.8,6c0,2.3-1.4,3.8-3.4,5.8c-1.5,1.5-2.6,2.4-2.6,4.8
		L1213.1,206L1213.1,206z M1214.1,212.9c1,0,1.7-0.8,1.7-1.7s-0.7-1.7-1.7-1.7c-0.9,0-1.7,0.8-1.7,1.7
		C1212.4,212.2,1213.2,212.9,1214.1,212.9z"/>
</g>
<g>
	<g>
		<circle class="st0" cx="854.4" cy="607.2" r="215.4"/>
	</g>
	<g>
		<path d="M823,622.9c-6.7,0-12.4-4.1-13.2-10.5l3.9-0.8c0.7,4.4,4.1,7.6,9.4,7.6c5.1,0,9.3-2.8,9.3-7.2s-3.3-7.1-9.3-7.1h-3.8v-3.7
			h3.7c5.2,0,8.5-3.2,8.5-6.9c0-3.9-2.9-6.8-8.5-6.8c-5.2,0-8.3,3.1-9,7.2l-3.9-0.8c0.7-5.3,5.7-10,12.8-10
			c8.3,0,12.4,5.1,12.4,10.1c0,4.4-2.4,7.1-6.1,8.8l0,0c4.4,1.2,7,4.7,7,9.2C836.3,617.9,831,622.9,823,622.9z"/>
		<path d="M842,603.5c0-9.5,5.4-19.7,16.1-19.7c10.5,0,15.8,10,15.8,19.5s-5.4,19.6-16,19.6C847.3,623,842,613,842,603.5z
			 M846.1,603.3c0,6.9,3.5,16,11.8,16s11.8-8.9,11.8-15.8c0-6.9-3.6-16-11.8-16S846.1,596.4,846.1,603.3z"/>
		<path d="M882.9,609.2c-2.8,0-5-2.3-5-5c0-2.8,2.3-5.1,5-5.1c2.8,0,5.1,2.3,5.1,5.1C887.9,607,885.7,609.2,882.9,609.2z M882.9,601
			c-1.7,0-3.2,1.4-3.2,3.2c0,1.7,1.4,3.1,3.2,3.1c1.7,0,3.2-1.4,3.2-3.1C886,602.4,884.6,601,882.9,601z M895.2,599.4h2.3
			l-14.6,22.4h-2.3L895.2,599.4z M895.3,621.9c-2.8,0-5.1-2.3-5.1-5c0-2.8,2.3-5.1,5.1-5.1s5.1,2.3,5.1,5.1
			C900.3,619.6,898.1,621.9,895.3,621.9z M895.3,613.7c-1.7,0-3.1,1.4-3.1,3.2c0,1.7,1.4,3.1,3.1,3.1s3.2-1.4,3.2-3.1
			C898.4,615.1,897,613.7,895.3,613.7z"/>
	</g>
</g>
<g>
	<path d="M1006.1,956.1v11.5h-1.3l-6.9-9.8v9.8h-1.2v-11.5h1.4l6.8,9.6v-9.6H1006.1z"/>
	<path d="M1009.1,963.7c0-2.3,1.7-4.1,4.1-4.1c2.3,0,4,1.8,4,4c0,2.3-1.8,4.1-4.1,4.1C1010.9,967.7,1009.1,965.9,1009.1,963.7z
		 M1016,963.7c0-1.6-1.2-3.1-2.9-3.1s-2.9,1.4-2.9,3s1.2,3.1,2.9,3.1C1014.9,966.7,1016,965.3,1016,963.7z"/>
	<path d="M1019.7,969.3c0.7-0.5,1.2-1.1,1.3-1.8c-0.1,0-0.2,0.1-0.4,0.1c-0.6,0-1-0.4-1-1s0.5-1,1-1c0.7,0,1.2,0.6,1.2,1.4v0.1
		c0,1-0.5,2-1.6,2.7L1019.7,969.3z"/>
	<path d="M1033.5,962.5c0-1.3-0.7-1.9-2-1.9s-1.9,0.9-2.1,1.6l-1.1-0.2c0.1-0.7,0.9-2.4,3.2-2.4c1.7,0,2.5,0.7,2.9,1.6
		c0.2,0.4,0.2,1,0.2,1.3v5.1h-1.1v-1.4l0,0c-0.6,1-1.5,1.5-2.6,1.5c-1.6,0-2.6-1-2.6-2.3v-0.1c0-1.7,1.7-2.3,3.1-2.3h2.2
		L1033.5,962.5L1033.5,962.5z M1031.3,964c-0.8,0-1.9,0.3-1.9,1.3c0,0.9,0.7,1.4,1.7,1.4c1.4,0,2.4-1,2.4-2.4V964H1031.3z"/>
	<path d="M1043.5,963c0-1.4-0.7-2.4-2.2-2.4c-1.4,0-2.3,1.1-2.3,2.5v4.5h-1.1v-7.8h1.1v1.4c0.6-1.1,1.5-1.6,2.7-1.6
		c1.9,0,3,1.3,3,3.1v4.8h-1.1L1043.5,963L1043.5,963z"/>
	<path d="M1051,959.6c1.5,0,2.4,0.9,3,1.8v-5.8h1.1v12h-1.1v-1.7c-0.6,1-1.5,1.8-3.1,1.8c-2.2,0-3.7-1.9-3.7-4.1
		C1047.3,961.6,1048.8,959.6,1051,959.6z M1054,963.6c0-1.6-1.2-3-2.8-3c-1.7,0-2.7,1.4-2.7,3.1c0,1.6,1,3,2.7,3
		C1052.9,966.7,1054,965.2,1054,963.6z"/>
	<path d="M1065,967.6l-2.6-7.8h1.2l2.1,6.5l0,0l2.1-6.5h1.1l2.1,6.5l0,0l2.1-6.5h1.2l-2.6,7.8h-1.3l-2.1-6.4l0,0l-2.1,6.4H1065z"/>
	<path d="M1077.2,964c0.1,1.5,1.3,2.7,2.8,2.7c1.2,0,2.1-0.6,2.4-1.7l1,0.3c-0.5,1.5-1.9,2.4-3.4,2.4c-2.3,0-4-1.8-4-4.1
		c0-2.1,1.6-4,3.8-4c2.4,0,3.7,1.7,3.7,4c0,0.1,0,0.3,0,0.4L1077.2,964L1077.2,964z M1082.4,963c-0.1-1.4-1-2.4-2.5-2.4
		c-1.4,0-2.5,1.1-2.6,2.4H1082.4z"/>
	<path d="M1095.8,962.5c0-1.3-0.7-1.9-2-1.9s-1.9,0.9-2.1,1.6l-1.1-0.2c0.1-0.7,0.9-2.4,3.2-2.4c1.7,0,2.5,0.7,2.9,1.6
		c0.2,0.4,0.2,1,0.2,1.3v5.1h-1.1v-1.4l0,0c-0.6,1-1.5,1.5-2.6,1.5c-1.6,0-2.6-1-2.6-2.3v-0.1c0-1.7,1.7-2.3,3.1-2.3h2.2
		L1095.8,962.5L1095.8,962.5z M1093.6,964c-0.8,0-1.9,0.3-1.9,1.3c0,0.9,0.7,1.4,1.7,1.4c1.4,0,2.4-1,2.4-2.4V964H1093.6z"/>
	<path d="M1101.3,961.3c0.6-1.2,1.6-1.7,2.5-1.7c0.1,0,0.3,0,0.4,0v1.2c-0.1,0-0.3,0-0.4,0c-1.9,0-2.5,1.5-2.5,2.9v3.8h-1.1v-7.8
		h1.1V961.3z"/>
	<path d="M1106.8,964c0.1,1.5,1.3,2.7,2.8,2.7c1.2,0,2.1-0.6,2.4-1.7l1,0.3c-0.5,1.5-1.9,2.4-3.4,2.4c-2.3,0-4-1.8-4-4.1
		c0-2.1,1.6-4,3.8-4c2.4,0,3.7,1.7,3.7,4c0,0.1,0,0.3,0,0.4L1106.8,964L1106.8,964z M1112,963c-0.1-1.4-1-2.4-2.5-2.4
		c-1.4,0-2.5,1.1-2.6,2.4H1112z"/>
	<path d="M1121.5,963c0-1.4-0.7-2.4-2.2-2.4c-1.4,0-2.3,1.1-2.3,2.5v4.5h-1.1v-7.8h1.1v1.4c0.6-1.1,1.5-1.6,2.7-1.6
		c1.9,0,3,1.3,3,3.1v4.8h-1.1L1121.5,963L1121.5,963z"/>
	<path d="M1125.2,959.7c0.7-0.5,1.2-1.1,1.3-1.8c-0.1,0-0.2,0.1-0.4,0.1c-0.6,0-1-0.4-1-1s0.5-1,1-1c0.7,0,1.2,0.6,1.2,1.4v0.1
		c0,1-0.5,2-1.6,2.7L1125.2,959.7z"/>
	<path d="M1130.7,965.5v-4.8h-1.5v-1h1.5v-2.3h1.1v2.3h2v1h-2v4.8c0,0.7,0.4,1.1,1.3,1.1c0.2,0,0.5,0,0.7-0.1v1
		c-0.2,0.1-0.7,0.1-0.9,0.1C1131.3,967.6,1130.7,966.7,1130.7,965.5z"/>
	<path d="M1145.5,967.7c-1.5,0-2.4-0.7-3-1.7v5.5h-1.1v-11.7h1.1v1.7c0.6-1,1.6-1.8,3-1.8c2.2,0,3.7,2,3.7,4
		S1147.8,967.7,1145.5,967.7z M1148,963.7c0-1.6-1-3.1-2.7-3.1c-1.6,0-2.8,1.4-2.8,3s1.1,3.1,2.8,3.1
		C1147,966.7,1148,965.3,1148,963.7z"/>
	<path d="M1153.1,955.6v12h-1.2v-12H1153.1z"/>
	<path d="M1161.2,962.5c0-1.3-0.7-1.9-2-1.9s-1.9,0.9-2.1,1.6l-1.1-0.2c0.1-0.7,0.9-2.4,3.2-2.4c1.7,0,2.5,0.7,2.9,1.6
		c0.2,0.4,0.2,1,0.2,1.3v5.1h-1.1v-1.4l0,0c-0.6,1-1.5,1.5-2.6,1.5c-1.6,0-2.6-1-2.6-2.3v-0.1c0-1.7,1.7-2.3,3.1-2.3h2.2
		L1161.2,962.5L1161.2,962.5z M1159,964c-0.8,0-1.9,0.3-1.9,1.3c0,0.9,0.7,1.4,1.7,1.4c1.4,0,2.4-1,2.4-2.4V964H1159z"/>
	<path d="M1171.2,963c0-1.4-0.7-2.4-2.2-2.4c-1.4,0-2.3,1.1-2.3,2.5v4.5h-1.1v-7.8h1.1v1.4c0.6-1.1,1.5-1.6,2.7-1.6
		c1.9,0,3,1.3,3,3.1v4.8h-1.1L1171.2,963L1171.2,963z"/>
	<path d="M1181.2,963c0-1.4-0.7-2.4-2.2-2.4c-1.4,0-2.3,1.1-2.3,2.5v4.5h-1.1v-7.8h1.1v1.4c0.6-1.1,1.5-1.6,2.7-1.6
		c1.9,0,3,1.3,3,3.1v4.8h-1.1L1181.2,963L1181.2,963z"/>
	<path d="M1186.1,956c0.5,0,0.9,0.4,0.9,0.9s-0.4,0.9-0.9,0.9s-0.9-0.4-0.9-0.9C1185.3,956.4,1185.7,956,1186.1,956z M1186.7,959.7
		v7.8h-1.2v-7.8H1186.7z"/>
	<path d="M1195.7,963c0-1.4-0.7-2.4-2.2-2.4c-1.4,0-2.3,1.1-2.3,2.5v4.5h-1.1v-7.8h1.1v1.4c0.6-1.1,1.5-1.6,2.7-1.6
		c1.9,0,3,1.3,3,3.1v4.8h-1.1L1195.7,963L1195.7,963z"/>
	<path d="M1206.2,965.8c-0.6,1-1.6,1.8-3,1.8c-2.2,0-3.7-1.9-3.7-4c0-2,1.5-4,3.7-4c1.5,0,2.4,0.9,3.1,1.8v-1.6h1.1v7.9
		c0,2.5-1.6,3.9-3.9,3.9c-2,0-3.5-1-3.9-2.7l1.1-0.4c0.2,0.9,1,2,2.8,2c1.5,0,2.8-0.8,2.8-2.9L1206.2,965.8L1206.2,965.8z
		 M1206.2,963.6c0-1.5-1.2-3-2.8-3c-1.7,0-2.7,1.3-2.7,3c0,1.6,1,3,2.7,3C1205.1,966.6,1206.2,965.2,1206.2,963.6z"/>
	<path d="M996.9,983.2v-4.8h-1.5v-1h1.5v-2.3h1.1v2.3h2v1h-2v4.8c0,0.7,0.4,1.1,1.3,1.1c0.2,0,0.5,0,0.7-0.1v1
		c-0.2,0.1-0.7,0.1-0.9,0.1C997.4,985.2,996.9,984.3,996.9,983.2z"/>
	<path d="M1002,981.3c0-2.3,1.7-4.1,4.1-4.1c2.3,0,4,1.8,4,4c0,2.3-1.8,4.1-4.1,4.1S1002,983.5,1002,981.3z M1008.9,981.3
		c0-1.6-1.2-3.1-2.9-3.1s-2.9,1.4-2.9,3s1.2,3.1,2.9,3.1S1008.9,982.9,1008.9,981.3z"/>
	<path d="M1017.1,981.3c0-2.3,1.7-4.1,4.1-4.1c2.3,0,4,1.8,4,4c0,2.3-1.8,4.1-4.1,4.1S1017.1,983.5,1017.1,981.3z M1024,981.3
		c0-1.6-1.2-3.1-2.9-3.1s-2.9,1.4-2.9,3s1.2,3.1,2.9,3.1S1024,982.9,1024,981.3z"/>
	<path d="M1026.7,977.3h1.3l2.7,6.6l2.7-6.6h1.2l-3.3,7.8h-1.2L1026.7,977.3z"/>
	<path d="M1037.3,981.6c0.1,1.5,1.3,2.7,2.8,2.7c1.2,0,2.1-0.6,2.4-1.7l1,0.3c-0.5,1.5-1.9,2.4-3.4,2.4c-2.3,0-4-1.8-4-4.1
		c0-2.1,1.6-4,3.8-4c2.4,0,3.7,1.7,3.7,4c0,0.1,0,0.3,0,0.4L1037.3,981.6L1037.3,981.6z M1042.5,980.6c-0.1-1.4-1-2.4-2.5-2.4
		c-1.4,0-2.5,1.1-2.6,2.4H1042.5z"/>
	<path d="M1047.5,978.9c0.6-1.2,1.6-1.7,2.5-1.7c0.1,0,0.3,0,0.4,0v1.2c-0.1,0-0.3,0-0.4,0c-1.9,0-2.5,1.5-2.5,2.9v3.8h-1.1v-7.8
		h1.1V978.9z"/>
	<path d="M1057.6,983.2v-4.8h-1.5v-1h1.5v-2.3h1.1v2.3h2v1h-2v4.8c0,0.7,0.4,1.1,1.3,1.1c0.3,0,0.5,0,0.7-0.1v1
		c-0.2,0.1-0.7,0.1-0.9,0.1C1058.1,985.2,1057.6,984.3,1057.6,983.2z"/>
	<path d="M1069,980.6c0-1.4-0.7-2.4-2.2-2.4c-1.4,0-2.3,1.1-2.3,2.5v4.5h-1.1v-12h1.1v5.5c0.6-1,1.5-1.6,2.7-1.6c1.9,0,3,1.3,3,3.1
		v4.8h-1.1L1069,980.6L1069,980.6z"/>
	<path d="M1074,981.6c0.1,1.5,1.3,2.7,2.8,2.7c1.2,0,2.1-0.6,2.4-1.7l1,0.3c-0.5,1.5-1.9,2.4-3.4,2.4c-2.3,0-4-1.8-4-4.1
		c0-2.1,1.6-4,3.8-4c2.4,0,3.7,1.7,3.7,4c0,0.1,0,0.3,0,0.4L1074,981.6L1074,981.6z M1079.2,980.6c-0.1-1.4-1-2.4-2.5-2.4
		c-1.4,0-2.5,1.1-2.6,2.4H1079.2z"/>
	<path d="M1093.5,980.6c0-1.4-0.7-2.4-2.2-2.4c-1.4,0-2.3,1.1-2.3,2.5v4.5h-1.1v-7.8h1.1v1.4c0.6-1.1,1.5-1.6,2.7-1.6
		c1.9,0,3,1.3,3,3.1v4.8h-1.1L1093.5,980.6L1093.5,980.6z"/>
	<path d="M1098.5,981.6c0.1,1.5,1.3,2.7,2.8,2.7c1.2,0,2.1-0.6,2.4-1.7l1,0.3c-0.5,1.5-1.9,2.4-3.4,2.4c-2.3,0-4-1.8-4-4.1
		c0-2.1,1.6-4,3.8-4c2.4,0,3.7,1.7,3.7,4c0,0.1,0,0.3,0,0.4L1098.5,981.6L1098.5,981.6z M1103.7,980.6c-0.1-1.4-1-2.4-2.5-2.4
		c-1.4,0-2.5,1.1-2.6,2.4H1103.7z"/>
	<path d="M1107.6,985.2h-1.3l3.1-4l-3-3.9h1.4l2.3,3l2.3-3h1.3l-3,3.8l3.1,4h-1.4l-2.4-3.2L1107.6,985.2z"/>
	<path d="M1116.6,983.2v-4.8h-1.5v-1h1.5v-2.3h1.1v2.3h2v1h-2v4.8c0,0.7,0.4,1.1,1.3,1.1c0.2,0,0.5,0,0.7-0.1v1
		c-0.2,0.1-0.7,0.1-0.9,0.1C1117.2,985.2,1116.6,984.3,1116.6,983.2z"/>
	<path d="M1129.5,975l-2.8,1.6l-0.5-0.9l3.3-2h1.2v11.5h-1.2V975z"/>
	<path d="M1133.8,984.8c0-1.3,0.6-2.8,2.7-4l1.7-1.1c1.1-0.7,2-1.4,2-2.7c0-1.2-1-2.3-2.5-2.3c-1.3,0-2.1,0.8-2.4,1.5
		c-0.2,0.5-0.2,1-0.2,1.1l-1.2-0.2c0-1.6,1.4-3.6,3.8-3.6c2.1,0,3.7,1.6,3.7,3.4c0,1.6-0.9,2.6-2.4,3.5l-1.8,1.1
		c-1,0.6-1.9,1.4-2,2.5h6.3v1.1h-7.8v-0.3H1133.8z"/>
	<path d="M1154.6,980.6c0-1.3-0.6-2.4-2-2.4s-2.2,1.2-2.2,2.5v4.5h-1.1v-7.8h1.1v1.4c0.6-1,1.4-1.5,2.5-1.5s2,0.5,2.5,1.6
		c0.7-1,1.5-1.6,2.8-1.6c1.9,0,2.9,1.3,2.9,3.1v4.8h-1.1v-4.6c0-1.3-0.6-2.4-2-2.4s-2.2,1.1-2.2,2.4v4.5h-1.1v-4.5H1154.6z"/>
	<path d="M1163.7,981.3c0-2.3,1.7-4.1,4.1-4.1c2.3,0,4,1.8,4,4c0,2.3-1.8,4.1-4.1,4.1C1165.5,985.3,1163.7,983.5,1163.7,981.3z
		 M1170.7,981.3c0-1.6-1.2-3.1-2.9-3.1c-1.7,0-2.9,1.4-2.9,3s1.2,3.1,2.9,3.1S1170.7,982.9,1170.7,981.3z"/>
	<path d="M1180.3,980.6c0-1.4-0.7-2.4-2.2-2.4c-1.4,0-2.3,1.1-2.3,2.5v4.5h-1.1v-7.8h1.1v1.4c0.6-1.1,1.5-1.6,2.7-1.6
		c1.9,0,3,1.3,3,3.1v4.8h-1.1L1180.3,980.6L1180.3,980.6z"/>
	<path d="M1185.1,983.2v-4.8h-1.5v-1h1.5v-2.3h1.1v2.3h2v1h-2v4.8c0,0.7,0.4,1.1,1.3,1.1c0.3,0,0.5,0,0.7-0.1v1
		c-0.2,0.1-0.7,0.1-0.9,0.1C1185.6,985.2,1185.1,984.3,1185.1,983.2z"/>
	<path d="M1196.5,980.6c0-1.4-0.7-2.4-2.2-2.4c-1.4,0-2.3,1.1-2.3,2.5v4.5h-1.1v-12h1.1v5.5c0.6-1,1.5-1.6,2.7-1.6
		c1.9,0,3,1.3,3,3.1v4.8h-1.1L1196.5,980.6L1196.5,980.6z"/>
	<path d="M1203.3,985.3c-2.1,0-2.8-1.4-3-2.3l1.1-0.3c0.2,0.7,0.7,1.6,1.9,1.6c0.9,0,1.6-0.5,1.6-1.3c0-1-1-1.2-1.8-1.3
		c-1.3-0.2-2.6-0.7-2.6-2.2s1.3-2.3,2.6-2.3c2.1,0,2.7,1.4,2.9,2.1l-1,0.3c-0.1-0.5-0.6-1.4-1.8-1.4c-0.9,0-1.5,0.6-1.5,1.2
		c0,1,1.1,1.1,1.9,1.2c1.3,0.2,2.6,0.8,2.6,2.3C1206,984.4,1204.8,985.3,1203.3,985.3z"/>
</g>
<g>
	<g>
		<path class="st1" d="M854.4,841.2c0,70.3,55.6,127.7,125.3,130.5"/>
		<g>
			<polygon points="979.1,965.5 978.8,977.6 985,971.7 			"/>
		</g>
	</g>
</g>
<g>
	<g class="st2">
		<circle cx="516.6" cy="557" r="215.4"/>
	</g>
	<g>
		<path class="st3" d="M485.2,572.2c-6.7,0-12.4-4.1-13.2-10.5l3.9-0.8c0.7,4.4,4.1,7.6,9.4,7.6c5.1,0,9.3-2.8,9.3-7.2
			s-3.3-7.1-9.3-7.1h-3.8v-3.7h3.7c5.2,0,8.5-3.2,8.5-6.9c0-3.9-2.9-6.8-8.5-6.8c-5.2,0-8.3,3.1-9,7.2l-3.9-0.8
			c0.7-5.3,5.7-10,12.8-10c8.3,0,12.4,5.1,12.4,10.1c0,4.4-2.4,7.1-6.1,8.8l0,0c4.4,1.2,7,4.7,7,9.2
			C498.4,567.2,493.2,572.2,485.2,572.2z"/>
		<path class="st3" d="M504.2,552.8c0-9.5,5.4-19.7,16.1-19.7c10.5,0,15.8,10,15.8,19.5s-5.4,19.6-16,19.6
			C509.5,572.2,504.2,562.3,504.2,552.8z M508.3,552.6c0,6.9,3.5,16,11.8,16s11.8-8.9,11.8-15.8c0-6.9-3.6-16-11.8-16
			C511.8,536.8,508.3,545.7,508.3,552.6z"/>
		<path class="st3" d="M545.1,558.5c-2.8,0-5-2.3-5-5c0-2.8,2.3-5.1,5-5.1c2.8,0,5.1,2.3,5.1,5.1
			C550.1,556.2,547.9,558.5,545.1,558.5z M545.1,550.3c-1.7,0-3.2,1.4-3.2,3.2c0,1.7,1.4,3.1,3.2,3.1c1.7,0,3.2-1.4,3.2-3.1
			C548.2,551.7,546.8,550.3,545.1,550.3z M557.4,548.7h2.3L545.1,571h-2.3L557.4,548.7z M557.5,571.2c-2.8,0-5.1-2.3-5.1-5
			c0-2.8,2.3-5.1,5.1-5.1s5.1,2.3,5.1,5.1C562.5,568.9,560.3,571.2,557.5,571.2z M557.5,563c-1.7,0-3.1,1.4-3.1,3.2
			c0,1.7,1.4,3.1,3.1,3.1c1.7,0,3.2-1.4,3.2-3.1C560.6,564.4,559.2,563,557.5,563z"/>
	</g>
</g>
<g>
	<g>
		<path d="M123.7,189.8v11.5h-1.3l-6.9-9.8v9.8h-1.2v-11.5h1.4l6.8,9.6v-9.6H123.7z"/>
		<path d="M126.7,197.4c0-2.3,1.7-4.1,4.1-4.1c2.3,0,4,1.8,4,4c0,2.3-1.8,4.1-4.1,4.1C128.5,201.4,126.7,199.6,126.7,197.4z
			 M133.7,197.4c0-1.6-1.2-3.1-2.9-3.1s-2.9,1.4-2.9,3s1.2,3.1,2.9,3.1S133.7,199,133.7,197.4z"/>
		<path d="M137.3,203c0.7-0.5,1.2-1.1,1.3-1.8c-0.1,0-0.2,0.1-0.4,0.1c-0.6,0-1-0.4-1-1s0.5-1,1-1c0.7,0,1.2,0.6,1.2,1.4v0.1
			c0,1-0.5,2-1.6,2.7L137.3,203z"/>
		<path d="M150.6,201.4c-1.5,0-2.4-0.7-3-1.8v1.6h-1.1v-12h1.1v5.8c0.6-1,1.6-1.8,3-1.8c2.2,0,3.7,2,3.7,4
			C154.3,199.5,152.8,201.4,150.6,201.4z M153.1,197.4c0-1.6-1-3.1-2.7-3.1c-1.6,0-2.8,1.4-2.8,3s1.1,3.1,2.8,3.1
			S153.1,199.1,153.1,197.4z"/>
		<path d="M158.1,198c0,1.4,0.7,2.4,2.2,2.4c1.4,0,2.3-1.1,2.3-2.5v-4.5h1.1v7.8h-1.1v-1.4c-0.6,1.1-1.5,1.6-2.7,1.6
			c-1.9,0-3-1.3-3-3.1v-4.8h1.1L158.1,198L158.1,198z"/>
		<path d="M167.6,199.3v-4.8h-1.5v-1h1.5v-2.3h1.1v2.3h2v1h-2v4.8c0,0.7,0.4,1.1,1.3,1.1c0.3,0,0.5,0,0.7-0.1v1
			c-0.2,0.1-0.7,0.1-0.9,0.1C168.1,201.4,167.6,200.4,167.6,199.3z"/>
		<path d="M179.9,201.3l-2.6-7.8h1.2l2.1,6.5l0,0l2.1-6.5h1.1l2.1,6.5l0,0l2.1-6.5h1.2l-2.6,7.8h-1.3l-2.1-6.4l0,0l-2.1,6.4H179.9z"
			/>
		<path d="M192.1,197.7c0.1,1.5,1.3,2.7,2.8,2.7c1.2,0,2.1-0.6,2.4-1.7l1,0.3c-0.5,1.5-1.9,2.4-3.4,2.4c-2.3,0-4-1.8-4-4.1
			c0-2.1,1.6-4,3.8-4c2.4,0,3.7,1.7,3.7,4c0,0.1,0,0.3,0,0.4L192.1,197.7L192.1,197.7z M197.3,196.8c-0.1-1.4-1-2.4-2.5-2.4
			c-1.4,0-2.5,1.1-2.6,2.4H197.3z"/>
		<path d="M200.4,193.4c0.7-0.5,1.2-1.1,1.3-1.8c-0.1,0-0.2,0.1-0.4,0.1c-0.6,0-1-0.4-1-1s0.5-1,1-1c0.7,0,1.2,0.6,1.2,1.4v0.1
			c0,1-0.5,2-1.6,2.7L200.4,193.4z"/>
		<path d="M206.2,195c0.6-1.2,1.6-1.7,2.5-1.7c0.1,0,0.3,0,0.4,0v1.2c-0.1,0-0.3,0-0.4,0c-1.9,0-2.5,1.5-2.5,2.9v3.8h-1.1v-7.8h1.1
			V195z"/>
		<path d="M211.7,197.7c0.1,1.5,1.3,2.7,2.8,2.7c1.2,0,2.1-0.6,2.4-1.7l1,0.3c-0.5,1.5-1.9,2.4-3.4,2.4c-2.3,0-4-1.8-4-4.1
			c0-2.1,1.6-4,3.8-4c2.4,0,3.7,1.7,3.7,4c0,0.1,0,0.3,0,0.4L211.7,197.7L211.7,197.7z M216.9,196.8c-0.1-1.4-1-2.4-2.5-2.4
			c-1.4,0-2.5,1.1-2.6,2.4H216.9z"/>
		<path d="M229.8,201.4c-1.5,0-2.4-0.7-3-1.7v5.5h-1.1v-11.7h1.1v1.7c0.6-1,1.6-1.8,3-1.8c2.2,0,3.7,2,3.7,4
			C233.5,199.5,232,201.4,229.8,201.4z M232.3,197.4c0-1.6-1-3.1-2.7-3.1c-1.6,0-2.8,1.4-2.8,3s1.1,3.1,2.8,3.1
			S232.3,199.1,232.3,197.4z"/>
		<path d="M237.4,189.3v12h-1.2v-12H237.4z"/>
		<path d="M245.4,196.2c0-1.3-0.7-1.9-2-1.9s-1.9,0.9-2.1,1.6l-1.1-0.2c0.1-0.7,0.9-2.4,3.2-2.4c1.7,0,2.5,0.7,2.9,1.6
			c0.2,0.4,0.2,1,0.2,1.3v5.1h-1.1v-1.4l0,0c-0.6,1-1.5,1.5-2.6,1.5c-1.6,0-2.6-1-2.6-2.3V199c0-1.7,1.7-2.3,3.1-2.3h2.2
			L245.4,196.2L245.4,196.2z M243.3,197.7c-0.8,0-1.9,0.3-1.9,1.3c0,0.9,0.7,1.4,1.7,1.4c1.4,0,2.4-1,2.4-2.4v-0.3H243.3z"/>
		<path d="M255.5,196.7c0-1.4-0.7-2.4-2.2-2.4c-1.4,0-2.3,1.1-2.3,2.5v4.5h-1.1v-7.8h1.1v1.4c0.6-1.1,1.5-1.6,2.7-1.6
			c1.9,0,3,1.3,3,3.1v4.8h-1.1v-4.5H255.5z"/>
		<path d="M265.5,196.7c0-1.4-0.7-2.4-2.2-2.4c-1.4,0-2.3,1.1-2.3,2.5v4.5h-1.1v-7.8h1.1v1.4c0.6-1.1,1.5-1.6,2.7-1.6
			c1.9,0,3,1.3,3,3.1v4.8h-1.1v-4.5H265.5z"/>
		<path d="M270.4,189.8c0.5,0,0.9,0.4,0.9,0.9s-0.4,0.9-0.9,0.9s-0.9-0.4-0.9-0.9S269.9,189.8,270.4,189.8z M271,193.5v7.8h-1.2
			v-7.8H271z"/>
		<path d="M280,196.7c0-1.4-0.7-2.4-2.2-2.4c-1.4,0-2.3,1.1-2.3,2.5v4.5h-1.1v-7.8h1.1v1.4c0.6-1.1,1.5-1.6,2.7-1.6
			c1.9,0,3,1.3,3,3.1v4.8H280V196.7z"/>
		<path d="M290.5,199.6c-0.6,1-1.6,1.8-3,1.8c-2.2,0-3.7-1.9-3.7-4c0-2,1.5-4,3.7-4c1.5,0,2.4,0.9,3.1,1.8v-1.6h1.1v7.9
			c0,2.5-1.6,3.9-3.9,3.9c-2,0-3.5-1-3.9-2.7l1.1-0.4c0.2,0.9,1,2,2.8,2c1.5,0,2.8-0.8,2.8-2.9v-1.8H290.5z M290.5,197.3
			c0-1.5-1.2-3-2.8-3c-1.7,0-2.7,1.3-2.7,3c0,1.6,1,3,2.7,3C289.3,200.3,290.5,198.9,290.5,197.3z"/>
		<path d="M300.3,199.3v-4.8h-1.5v-1h1.5v-2.3h1.1v2.3h2v1h-2v4.8c0,0.7,0.4,1.1,1.3,1.1c0.3,0,0.5,0,0.7-0.1v1
			c-0.2,0.1-0.7,0.1-0.9,0.1C300.8,201.4,300.3,200.4,300.3,199.3z"/>
		<path d="M305.4,197.4c0-2.3,1.7-4.1,4.1-4.1c2.3,0,4,1.8,4,4c0,2.3-1.8,4.1-4.1,4.1C307.1,201.4,305.4,199.6,305.4,197.4z
			 M312.3,197.4c0-1.6-1.2-3.1-2.9-3.1s-2.9,1.4-2.9,3s1.2,3.1,2.9,3.1C311.1,200.4,312.3,199,312.3,197.4z"/>
		<path d="M134.5,215c0-2.3,1.7-4.1,4.1-4.1c2.3,0,4,1.8,4,4c0,2.3-1.8,4.1-4.1,4.1C136.2,219.1,134.5,217.3,134.5,215z M141.4,215
			c0-1.6-1.2-3.1-2.9-3.1s-2.9,1.4-2.9,3s1.2,3.1,2.9,3.1S141.4,216.7,141.4,215z"/>
		<path d="M144.1,211.1h1.3l2.7,6.6l2.7-6.6h1.2l-3.4,7.8h-1.2L144.1,211.1z"/>
		<path d="M154.7,215.4c0.1,1.5,1.3,2.7,2.8,2.7c1.2,0,2.1-0.6,2.4-1.7l1,0.3c-0.5,1.5-1.9,2.4-3.4,2.4c-2.3,0-4-1.8-4-4.1
			c0-2.1,1.6-4,3.8-4c2.4,0,3.7,1.7,3.7,4c0,0.1,0,0.3,0,0.4L154.7,215.4L154.7,215.4z M159.9,214.4c-0.1-1.4-1-2.4-2.5-2.4
			c-1.4,0-2.5,1.1-2.6,2.4H159.9z"/>
		<path d="M164.9,212.6c0.6-1.2,1.6-1.7,2.5-1.7c0.1,0,0.3,0,0.4,0v1.2c-0.1,0-0.3,0-0.4,0c-1.9,0-2.5,1.5-2.5,2.9v3.8h-1.1V211h1.1
			V212.6z"/>
		<path d="M175,216.9v-4.8h-1.5v-1h1.5v-2.3h1.1v2.3h2v1h-2v4.8c0,0.7,0.4,1.1,1.3,1.1c0.3,0,0.5,0,0.7-0.1v1
			c-0.2,0.1-0.7,0.1-0.9,0.1C175.5,219,175,218,175,216.9z"/>
		<path d="M186.4,214.4c0-1.4-0.7-2.4-2.2-2.4c-1.4,0-2.3,1.1-2.3,2.5v4.5h-1.1v-12h1.1v5.5c0.6-1,1.5-1.6,2.7-1.6
			c1.9,0,3,1.3,3,3.1v4.8h-1.1L186.4,214.4L186.4,214.4z"/>
		<path d="M191.4,215.4c0.1,1.5,1.3,2.7,2.8,2.7c1.2,0,2.1-0.6,2.4-1.7l1,0.3c-0.5,1.5-1.9,2.4-3.4,2.4c-2.3,0-4-1.8-4-4.1
			c0-2.1,1.6-4,3.8-4c2.4,0,3.7,1.7,3.7,4c0,0.1,0,0.3,0,0.4L191.4,215.4L191.4,215.4z M196.6,214.4c-0.1-1.4-1-2.4-2.5-2.4
			c-1.4,0-2.5,1.1-2.6,2.4H196.6z"/>
		<path d="M205.8,215.4c0.1,1.5,1.3,2.7,2.8,2.7c1.2,0,2.1-0.6,2.4-1.7l1,0.3c-0.5,1.5-1.9,2.4-3.4,2.4c-2.3,0-4-1.8-4-4.1
			c0-2.1,1.6-4,3.8-4c2.4,0,3.7,1.7,3.7,4c0,0.1,0,0.3,0,0.4L205.8,215.4L205.8,215.4z M211,214.4c-0.1-1.4-1-2.4-2.5-2.4
			c-1.4,0-2.5,1.1-2.6,2.4H211z"/>
		<path d="M215,218.9h-1.3l3.1-4l-3-3.9h1.4l2.3,3l2.3-3h1.3l-3,3.8l3.1,4h-1.4l-2.4-3.2L215,218.9z"/>
		<path d="M224,216.9v-4.8h-1.5v-1h1.5v-2.3h1.1v2.3h2v1h-2v4.8c0,0.7,0.4,1.1,1.3,1.1c0.3,0,0.5,0,0.7-0.1v1
			c-0.2,0.1-0.7,0.1-0.9,0.1C224.5,219,224,218,224,216.9z"/>
		<path d="M236.9,208.7l-2.8,1.6l-0.5-0.9l3.3-2h1.2v11.5h-1.2V208.7z"/>
		<path d="M241.2,218.6c0-1.3,0.6-2.8,2.7-4l1.7-1.1c1.1-0.7,2-1.4,2-2.7c0-1.2-1-2.3-2.5-2.3c-1.3,0-2.1,0.7-2.4,1.5
			c-0.2,0.5-0.2,1-0.2,1.1l-1.2-0.2c0-1.6,1.4-3.6,3.8-3.6c2.1,0,3.7,1.6,3.7,3.4c0,1.6-0.9,2.6-2.4,3.5l-1.8,1.1
			c-1,0.6-1.9,1.4-2,2.5h6.3v1.1h-7.8L241.2,218.6L241.2,218.6z"/>
		<path d="M262,214.3c0-1.3-0.6-2.4-2-2.4s-2.2,1.2-2.2,2.5v4.5h-1.1v-7.8h1.1v1.4c0.6-1,1.4-1.5,2.5-1.5s2,0.5,2.5,1.6
			c0.7-1,1.5-1.6,2.8-1.6c1.9,0,2.9,1.3,2.9,3.1v4.8h-1.1v-4.6c0-1.3-0.6-2.4-2-2.4s-2.2,1.1-2.2,2.4v4.5H262V214.3z"/>
		<path d="M271.1,215c0-2.3,1.7-4.1,4.1-4.1c2.3,0,4,1.8,4,4c0,2.3-1.8,4.1-4.1,4.1C272.9,219.1,271.1,217.3,271.1,215z M278.1,215
			c0-1.6-1.2-3.1-2.9-3.1s-2.9,1.4-2.9,3s1.2,3.1,2.9,3.1S278.1,216.7,278.1,215z"/>
		<path d="M287.6,214.4c0-1.4-0.7-2.4-2.2-2.4c-1.4,0-2.3,1.1-2.3,2.5v4.5H282v-7.8h1.1v1.4c0.6-1.1,1.5-1.6,2.7-1.6
			c1.9,0,3,1.3,3,3.1v4.8h-1.1v-4.5H287.6z"/>
		<path d="M292.5,216.9v-4.8H291v-1h1.5v-2.3h1.1v2.3h2v1h-2v4.8c0,0.7,0.4,1.1,1.3,1.1c0.3,0,0.5,0,0.7-0.1v1
			c-0.2,0.1-0.7,0.1-0.9,0.1C293,219,292.5,218,292.5,216.9z"/>
		<path d="M303.9,214.4c0-1.4-0.7-2.4-2.2-2.4c-1.4,0-2.3,1.1-2.3,2.5v4.5h-1.1v-12h1.1v5.5c0.6-1,1.5-1.6,2.7-1.6
			c1.9,0,3,1.3,3,3.1v4.8H304v-4.4H303.9z"/>
		<path d="M310.7,219.1c-2.1,0-2.8-1.4-3-2.3l1.1-0.3c0.2,0.7,0.7,1.6,1.9,1.6c0.9,0,1.6-0.5,1.6-1.3c0-1-1-1.2-1.8-1.3
			c-1.3-0.2-2.6-0.7-2.6-2.2s1.3-2.3,2.6-2.3c2.1,0,2.7,1.4,2.9,2.1l-1,0.2c-0.1-0.5-0.6-1.4-1.8-1.4c-0.9,0-1.5,0.6-1.5,1.2
			c0,1,1.1,1.1,1.9,1.2c1.3,0.2,2.6,0.8,2.6,2.3C313.4,218.1,312.2,219.1,310.7,219.1z"/>
	</g>
	<g>
		<g>
			<path class="st1" d="M457.9,334.7c0-70.3-55.6-127.7-125.3-130.5"/>
			<g>
				<polygon points="333.2,210.3 333.5,198.2 327.3,204.1 				"/>
			</g>
		</g>
	</g>
</g>
<g>
	<circle class="st4" cx="706.3" cy="352.6" r="129.3"/>
</g>
<g>
	<path class="st3" d="M679.3,333.4l-9.2,5.5l-1.8-3l11.1-6.7h3.9v38.3h-4V333.4z"/>
	<path class="st3" d="M704.2,367.8c-6.7,0-12.4-4.1-13.2-10.5l3.9-0.8c0.7,4.4,4.1,7.6,9.4,7.6c5.1,0,9.3-2.8,9.3-7.2
		c0-4.4-3.3-7.1-9.3-7.1h-3.8v-3.7h3.7c5.2,0,8.5-3.2,8.5-6.9c0-3.9-2.9-6.8-8.5-6.8c-5.2,0-8.3,3.1-9,7.2l-3.9-0.8
		c0.7-5.3,5.7-10,12.8-10c8.3,0,12.4,5.1,12.4,10.1c0,4.4-2.4,7.1-6.1,8.8l0,0c4.4,1.2,7,4.7,7,9.2
		C717.5,362.8,712.2,367.8,704.2,367.8z"/>
	<path class="st3" d="M726.5,354.1c-2.8,0-5-2.3-5-5c0-2.8,2.3-5.1,5-5.1c2.8,0,5.1,2.3,5.1,5.1
		C731.5,351.8,729.3,354.1,726.5,354.1z M726.5,345.9c-1.7,0-3.2,1.4-3.2,3.2c0,1.7,1.4,3.1,3.2,3.1c1.7,0,3.2-1.4,3.2-3.1
		C729.7,347.3,728.2,345.9,726.5,345.9z M738.8,344.3h2.3l-14.6,22.4h-2.3L738.8,344.3z M738.9,366.8c-2.8,0-5.1-2.3-5.1-5
		c0-2.8,2.3-5.1,5.1-5.1s5.1,2.3,5.1,5.1C743.9,364.5,741.7,366.8,738.9,366.8z M738.9,358.6c-1.7,0-3.1,1.4-3.1,3.2
		c0,1.7,1.4,3.1,3.1,3.1c1.7,0,3.2-1.4,3.2-3.1C742,360,740.6,358.6,738.9,358.6z"/>
</g>
<g>
	<path class="st4" d="M379.7,65l-4.5,6.6v4.9H374v-4.8l-4.5-6.7h1.5l3.6,5.5l3.7-5.5H379.7z"/>
	<path class="st4" d="M381,72.9c0.1,1.5,1.3,2.7,2.8,2.7c1.2,0,2.1-0.6,2.4-1.7l1,0.3c-0.5,1.5-1.9,2.4-3.4,2.4c-2.3,0-4-1.8-4-4.1
		c0-2.1,1.6-4,3.8-4c2.4,0,3.7,1.7,3.7,4c0,0.1,0,0.3,0,0.4C387.3,72.9,381,72.9,381,72.9z M386.2,71.9c-0.1-1.4-1-2.4-2.5-2.4
		c-1.4,0-2.5,1.1-2.6,2.4H386.2z"/>
	<path class="st4" d="M392.4,76.6c-2.1,0-2.8-1.4-3-2.3l1.1-0.3c0.2,0.7,0.7,1.6,1.9,1.6c0.9,0,1.6-0.5,1.6-1.3c0-1-1-1.2-1.8-1.3
		c-1.3-0.2-2.6-0.7-2.6-2.2s1.3-2.3,2.6-2.3c2.1,0,2.7,1.4,2.9,2.1l-1,0.2c-0.1-0.5-0.6-1.4-1.8-1.4c-0.9,0-1.5,0.6-1.5,1.2
		c0,1,1.1,1.1,1.9,1.2c1.3,0.2,2.6,0.8,2.6,2.3C395.2,75.7,393.9,76.6,392.4,76.6z"/>
	<path class="st4" d="M397.7,78.2c0.7-0.5,1.2-1.1,1.3-1.8c-0.1,0-0.2,0.1-0.4,0.1c-0.6,0-1-0.4-1-1s0.5-1,1-1
		c0.7,0,1.2,0.6,1.2,1.4V76c0,1-0.5,2-1.6,2.7L397.7,78.2z"/>
	<path class="st4" d="M408.5,76.5l-2.6-7.8h1.2l2.1,6.5l0,0l2.1-6.5h1.1l2.1,6.5l0,0l2.1-6.5h1.2l-2.6,7.8h-1.3l-2.1-6.4l0,0
		l-2.1,6.4H408.5z"/>
	<path class="st4" d="M420.7,72.9c0.1,1.5,1.3,2.7,2.8,2.7c1.2,0,2.1-0.6,2.4-1.7l1,0.3c-0.5,1.5-1.9,2.4-3.4,2.4
		c-2.3,0-4-1.8-4-4.1c0-2.1,1.6-4,3.8-4c2.4,0,3.7,1.7,3.7,4c0,0.1,0,0.3,0,0.4C427,72.9,420.7,72.9,420.7,72.9z M425.9,71.9
		c-0.1-1.4-1-2.4-2.5-2.4c-1.4,0-2.5,1.1-2.6,2.4H425.9z"/>
	<path class="st4" d="M440.2,71.9c0-1.4-0.7-2.4-2.2-2.4c-1.4,0-2.3,1.1-2.3,2.5v4.5h-1.1v-12h1.1V70c0.6-1,1.5-1.6,2.7-1.6
		c1.9,0,3,1.3,3,3.1v4.8h-1.1v-4.4H440.2z"/>
	<path class="st4" d="M449.3,71.4c0-1.3-0.7-1.9-2-1.9s-1.9,0.9-2.1,1.6l-1.1-0.2c0.1-0.7,0.9-2.4,3.2-2.4c1.7,0,2.5,0.7,2.9,1.6
		c0.2,0.4,0.2,1,0.2,1.3v5.1h-1.1v-1.4l0,0c-0.6,1-1.5,1.5-2.6,1.5c-1.6,0-2.6-1-2.6-2.3v-0.1c0-1.7,1.7-2.3,3.1-2.3h2.2v-0.5H449.3
		z M447.1,72.9c-0.8,0-1.9,0.3-1.9,1.3c0,0.9,0.7,1.4,1.7,1.4c1.4,0,2.4-1,2.4-2.4v-0.3H447.1z"/>
	<path class="st4" d="M452.5,68.6h1.3l2.7,6.6l2.7-6.6h1.2l-3.4,7.8h-1.2L452.5,68.6z"/>
	<path class="st4" d="M463.1,72.9c0.1,1.5,1.3,2.7,2.8,2.7c1.2,0,2.1-0.6,2.4-1.7l1,0.3c-0.5,1.5-1.9,2.4-3.4,2.4
		c-2.3,0-4-1.8-4-4.1c0-2.1,1.6-4,3.8-4c2.4,0,3.7,1.7,3.7,4c0,0.1,0,0.3,0,0.4C469.4,72.9,463.1,72.9,463.1,72.9z M468.3,71.9
		c-0.1-1.4-1-2.4-2.5-2.4c-1.4,0-2.5,1.1-2.6,2.4H468.3z"/>
	<path class="st4" d="M477.5,64.9c0.5,0,0.9,0.4,0.9,0.9s-0.4,0.9-0.9,0.9s-0.9-0.4-0.9-0.9C476.7,65.3,477.1,64.9,477.5,64.9z
		 M478.1,68.6v7.8h-1.2v-7.8H478.1z"/>
	<path class="st4" d="M487.1,71.9c0-1.4-0.7-2.4-2.2-2.4c-1.4,0-2.3,1.1-2.3,2.5v4.5h-1.1v-7.8h1.1v1.4c0.6-1.1,1.5-1.6,2.7-1.6
		c1.9,0,3,1.3,3,3.1v4.8h-1.1v-4.5H487.1z"/>
	<path class="st4" d="M491.9,74.4v-4.8h-1.5v-1h1.5v-2.3h1.1v2.3h2v1h-2v4.8c0,0.7,0.4,1.1,1.3,1.1c0.3,0,0.5,0,0.7-0.1v1
		c-0.2,0.1-0.7,0.1-0.9,0.1C492.4,76.5,491.9,75.6,491.9,74.4z"/>
	<path class="st4" d="M498.8,70.2c0.6-1.2,1.6-1.7,2.5-1.7c0.1,0,0.3,0,0.4,0v1.2c-0.1,0-0.3,0-0.4,0c-1.9,0-2.5,1.5-2.5,2.9v3.8
		h-1.1v-7.8h1.1V70.2z"/>
	<path class="st4" d="M503.1,72.6c0-2.3,1.7-4.1,4.1-4.1c2.3,0,4,1.8,4,4c0,2.3-1.8,4.1-4.1,4.1C504.9,76.6,503.1,74.8,503.1,72.6z
		 M510.1,72.6c0-1.6-1.2-3.1-2.9-3.1c-1.7,0-2.9,1.4-2.9,3s1.2,3.1,2.9,3.1S510.1,74.2,510.1,72.6z"/>
	<path class="st4" d="M517.1,68.5c1.5,0,2.4,0.9,3,1.8v-5.8h1.1v12h-1.1v-1.7c-0.6,1-1.5,1.8-3.1,1.8c-2.2,0-3.7-1.9-3.7-4.1
		C513.4,70.5,514.9,68.5,517.1,68.5z M520.2,72.5c0-1.6-1.2-3-2.8-3c-1.7,0-2.7,1.4-2.7,3.1c0,1.6,1,3,2.7,3
		C519,75.6,520.2,74.1,520.2,72.5z"/>
	<path class="st4" d="M525.7,73.2c0,1.4,0.7,2.4,2.2,2.4c1.4,0,2.3-1.1,2.3-2.5v-4.5h1.1v7.8h-1.1V75c-0.6,1.1-1.5,1.6-2.7,1.6
		c-1.9,0-3-1.3-3-3.1v-4.8h1.1v4.5H525.7z"/>
	<path class="st4" d="M538.1,75.6c1.7,0,2.4-1.3,2.6-1.9l1.1,0.4c-0.4,1.2-1.6,2.5-3.7,2.5c-2.3,0-4-1.7-4-4c0-2.4,1.8-4.1,4.1-4.1
		c1.8,0,3.3,1.2,3.6,2.5l-1.1,0.3c-0.2-0.6-1-1.8-2.6-1.8c-1.7,0-2.8,1.4-2.8,3C535.2,74.1,536.3,75.6,538.1,75.6z"/>
	<path class="st4" d="M545,72.9c0.1,1.5,1.3,2.7,2.8,2.7c1.2,0,2.1-0.6,2.4-1.7l1,0.3c-0.5,1.5-1.9,2.4-3.4,2.4c-2.3,0-4-1.8-4-4.1
		c0-2.1,1.6-4,3.8-4c2.4,0,3.7,1.7,3.7,4c0,0.1,0,0.3,0,0.4C551.3,72.9,545,72.9,545,72.9z M550.2,71.9c-0.1-1.4-1-2.4-2.5-2.4
		c-1.4,0-2.5,1.1-2.6,2.4H550.2z"/>
	<path class="st4" d="M557.2,68.5c1.5,0,2.4,0.9,3,1.8v-5.8h1.1v12h-1.1v-1.7c-0.6,1-1.5,1.8-3.1,1.8c-2.2,0-3.7-1.9-3.7-4.1
		C553.5,70.5,555,68.5,557.2,68.5z M560.2,72.5c0-1.6-1.2-3-2.8-3c-1.7,0-2.7,1.4-2.7,3.1c0,1.6,1,3,2.7,3
		C559.1,75.6,560.2,74.1,560.2,72.5z"/>
	<path class="st4" d="M457.2,89.5c0-1.4-0.7-2.4-2.2-2.4c-1.4,0-2.3,1.1-2.3,2.5v4.5h-1.1v-7.8h1.1v1.4c0.6-1.1,1.5-1.6,2.7-1.6
		c1.9,0,3,1.3,3,3.1V94h-1.1v-4.5H457.2z"/>
	<path class="st4" d="M462.1,90.5c0.1,1.5,1.3,2.7,2.8,2.7c1.2,0,2.1-0.6,2.4-1.7l1,0.3c-0.5,1.5-1.9,2.4-3.4,2.4
		c-2.3,0-4-1.8-4-4.1c0-2.1,1.6-4,3.8-4c2.4,0,3.7,1.7,3.7,4c0,0.1,0,0.3,0,0.4C468.4,90.5,462.1,90.5,462.1,90.5z M467.3,89.5
		c-0.1-1.4-1-2.4-2.5-2.4c-1.4,0-2.5,1.1-2.6,2.4H467.3z"/>
	<path class="st4" d="M472.7,94.1l-2.6-7.8h1.2l2.1,6.5l0,0l2.1-6.5h1.1l2.1,6.5l0,0l2.1-6.5h1.2l-2.6,7.8h-1.3l-2.1-6.4l0,0
		l-2.1,6.4H472.7z"/>
	<path class="st4" d="M494.6,89.5c0-1.3-0.6-2.4-2-2.4s-2.2,1.2-2.2,2.5v4.5h-1.1v-7.8h1.1v1.4c0.6-1,1.4-1.5,2.5-1.5s2,0.5,2.5,1.6
		c0.7-1,1.5-1.6,2.8-1.6c1.9,0,2.9,1.3,2.9,3.1v4.8H500v-4.6c0-1.3-0.6-2.4-2-2.4s-2.2,1.1-2.2,2.4V94h-1.1L494.6,89.5L494.6,89.5z"
		/>
	<path class="st4" d="M504.9,90.5c0.1,1.5,1.3,2.7,2.8,2.7c1.2,0,2.1-0.6,2.4-1.7l1,0.3c-0.5,1.5-1.9,2.4-3.4,2.4
		c-2.3,0-4-1.8-4-4.1c0-2.1,1.6-4,3.8-4c2.4,0,3.7,1.7,3.7,4c0,0.1,0,0.3,0,0.4C511.2,90.5,504.9,90.5,504.9,90.5z M510.1,89.5
		c-0.1-1.4-1-2.4-2.5-2.4c-1.4,0-2.5,1.1-2.6,2.4H510.1z"/>
	<path class="st4" d="M518.7,89c0-1.3-0.7-1.9-2-1.9s-1.9,0.9-2.1,1.6l-1.1-0.2c0.1-0.7,0.9-2.4,3.2-2.4c1.7,0,2.5,0.7,2.9,1.6
		c0.2,0.4,0.2,1,0.2,1.3v5.1h-1.1v-1.4l0,0c-0.6,1-1.5,1.5-2.6,1.5c-1.6,0-2.6-1-2.6-2.3v-0.1c0-1.7,1.7-2.3,3.1-2.3h2.2V89H518.7z
		 M516.5,90.5c-0.8,0-1.9,0.3-1.9,1.3c0,0.9,0.7,1.4,1.7,1.4c1.4,0,2.4-1,2.4-2.4v-0.3H516.5z"/>
	<path class="st4" d="M525.5,94.2c-2.1,0-2.8-1.4-3-2.3l1.1-0.3c0.2,0.7,0.7,1.6,1.9,1.6c0.9,0,1.6-0.5,1.6-1.3c0-1-1-1.2-1.8-1.3
		c-1.3-0.2-2.6-0.7-2.6-2.2s1.3-2.3,2.6-2.3c2.1,0,2.7,1.4,2.9,2.1l-1,0.2c-0.1-0.5-0.6-1.4-1.8-1.4c-0.9,0-1.5,0.6-1.5,1.2
		c0,1,1.1,1.1,1.9,1.2c1.3,0.2,2.6,0.8,2.6,2.3C528.3,93.3,527,94.2,525.5,94.2z"/>
	<path class="st4" d="M532.1,90.8c0,1.4,0.7,2.4,2.2,2.4c1.4,0,2.3-1.1,2.3-2.5v-4.5h1.1V94h-1.1v-1.4c-0.6,1.1-1.5,1.6-2.7,1.6
		c-1.9,0-3-1.3-3-3.1v-4.8h1.1v4.5H532.1z"/>
	<path class="st4" d="M542.2,87.8c0.6-1.2,1.6-1.7,2.5-1.7c0.1,0,0.3,0,0.4,0v1.2c-0.1,0-0.3,0-0.4,0c-1.9,0-2.5,1.5-2.5,2.9V94H541
		v-7.8h1.1v1.6H542.2z"/>
	<path class="st4" d="M547.7,90.5c0.1,1.5,1.3,2.7,2.8,2.7c1.2,0,2.1-0.6,2.4-1.7l1,0.3c-0.5,1.5-1.9,2.4-3.4,2.4
		c-2.3,0-4-1.8-4-4.1c0-2.1,1.6-4,3.8-4c2.4,0,3.7,1.7,3.7,4c0,0.1,0,0.3,0,0.4C554,90.5,547.7,90.5,547.7,90.5z M552.9,89.5
		c-0.1-1.4-1-2.4-2.5-2.4c-1.4,0-2.5,1.1-2.6,2.4H552.9z"/>
	<path class="st4" d="M559.1,94.2c-2.1,0-2.8-1.4-3-2.3l1.1-0.3c0.2,0.7,0.7,1.6,1.9,1.6c0.9,0,1.6-0.5,1.6-1.3c0-1-1-1.2-1.8-1.3
		c-1.3-0.2-2.6-0.7-2.6-2.2s1.3-2.3,2.6-2.3c2.1,0,2.7,1.4,2.9,2.1l-1,0.2c-0.1-0.5-0.6-1.4-1.8-1.4c-0.9,0-1.5,0.6-1.5,1.2
		c0,1,1.1,1.1,1.9,1.2c1.3,0.2,2.6,0.8,2.6,2.3C561.9,93.3,560.6,94.2,559.1,94.2z"/>
</g>
<g>
	<g>
		<path class="st5" d="M707.6,211c0-70.3-55.6-127.7-125.3-130.5"/>
		<g>
			<polygon class="st4" points="582.9,86.7 583.2,74.6 577,80.5 			"/>
		</g>
	</g>
</g>
</svg>
