<?xml version="1.0" encoding="utf-8"?>
<!-- Generator: Adobe Illustrator 21.1.0, SVG Export Plug-In . SVG Version: 6.00 Build 0)  -->
<svg version="1.1" id="Layer_1" xmlns="http://www.w3.org/2000/svg" xmlns:xlink="http://www.w3.org/1999/xlink" x="0px" y="0px"
	 viewBox="0 0 1500 1053" style="enable-background:new 0 0 1500 1053;" xml:space="preserve">
<style type="text/css">
	.st0{fill:none;}
	.st1{fill:none;stroke:#F6F6F8;stroke-width:2;stroke-linecap:round;stroke-miterlimit:10;}
	.st2{fill:none;stroke:#F6F6F8;stroke-width:2;stroke-linecap:round;stroke-miterlimit:10;stroke-dasharray:0,10;}
	.st3{fill:#FFFFFF;}
	.st4{opacity:0.9;}
	.st5{fill:#8EFFDE;}
	.st6{fill:url(#SVGID_1_);}
	.st7{fill:url(#SVGID_2_);}
	.st8{fill:url(#SVGID_3_);}
	.st9{fill:url(#SVGID_4_);}
</style>
<pattern  y="1053" width="240" height="240" patternUnits="userSpaceOnUse" id="white_2" viewBox="1 -241 240 240" style="overflow:visible;">
	<g>
		<rect x="1" y="-241" class="st0" width="240" height="240"/>
		<g>
			<g>
				<line class="st1" x1="241" y1="-1" x2="241" y2="-1"/>
			</g>
		</g>
		<g>
			<g>
				<line class="st1" x1="1" y1="-1" x2="1" y2="-1"/>
				<line class="st2" x1="11" y1="-1" x2="236" y2="-1"/>
				<line class="st1" x1="241" y1="-1" x2="241" y2="-1"/>
			</g>
		</g>
		<g>
			<g>
				<line class="st1" x1="1" y1="-1" x2="1" y2="-1"/>
			</g>
		</g>
		<g>
			<g>
				<line class="st1" x1="241" y1="-241" x2="241" y2="-241"/>
			</g>
			<g>
				<line class="st1" x1="241" y1="-231" x2="241" y2="-231"/>
			</g>
			<g>
				<line class="st1" x1="241" y1="-221" x2="241" y2="-221"/>
			</g>
			<g>
				<line class="st1" x1="241" y1="-211" x2="241" y2="-211"/>
			</g>
			<g>
				<line class="st1" x1="241" y1="-201" x2="241" y2="-201"/>
			</g>
			<g>
				<line class="st1" x1="241" y1="-191" x2="241" y2="-191"/>
			</g>
			<g>
				<line class="st1" x1="241" y1="-181" x2="241" y2="-181"/>
			</g>
			<g>
				<line class="st1" x1="241" y1="-171" x2="241" y2="-171"/>
			</g>
			<g>
				<line class="st1" x1="241" y1="-161" x2="241" y2="-161"/>
			</g>
			<g>
				<line class="st1" x1="241" y1="-151" x2="241" y2="-151"/>
			</g>
			<g>
				<line class="st1" x1="241" y1="-141" x2="241" y2="-141"/>
			</g>
			<g>
				<line class="st1" x1="241" y1="-131" x2="241" y2="-131"/>
			</g>
			<g>
				<line class="st1" x1="241" y1="-121" x2="241" y2="-121"/>
			</g>
			<g>
				<line class="st1" x1="241" y1="-111" x2="241" y2="-111"/>
			</g>
			<g>
				<line class="st1" x1="241" y1="-101" x2="241" y2="-101"/>
			</g>
			<g>
				<line class="st1" x1="241" y1="-91" x2="241" y2="-91"/>
			</g>
			<g>
				<line class="st1" x1="241" y1="-81" x2="241" y2="-81"/>
			</g>
			<g>
				<line class="st1" x1="241" y1="-71" x2="241" y2="-71"/>
			</g>
			<g>
				<line class="st1" x1="241" y1="-61" x2="241" y2="-61"/>
			</g>
			<g>
				<line class="st1" x1="241" y1="-51" x2="241" y2="-51"/>
			</g>
			<g>
				<line class="st1" x1="241" y1="-41" x2="241" y2="-41"/>
			</g>
			<g>
				<line class="st1" x1="241" y1="-31" x2="241" y2="-31"/>
			</g>
			<g>
				<line class="st1" x1="241" y1="-21" x2="241" y2="-21"/>
			</g>
			<g>
				<line class="st1" x1="241" y1="-11" x2="241" y2="-11"/>
			</g>
			<g>
				<line class="st1" x1="241" y1="-1" x2="241" y2="-1"/>
			</g>
		</g>
		<g>
			<g>
				<line class="st1" x1="1" y1="-241" x2="1" y2="-241"/>
				<line class="st2" x1="11" y1="-241" x2="236" y2="-241"/>
				<line class="st1" x1="241" y1="-241" x2="241" y2="-241"/>
			</g>
			<g>
				<line class="st1" x1="1" y1="-231" x2="1" y2="-231"/>
				<line class="st2" x1="11" y1="-231" x2="236" y2="-231"/>
				<line class="st1" x1="241" y1="-231" x2="241" y2="-231"/>
			</g>
			<g>
				<line class="st1" x1="1" y1="-221" x2="1" y2="-221"/>
				<line class="st2" x1="11" y1="-221" x2="236" y2="-221"/>
				<line class="st1" x1="241" y1="-221" x2="241" y2="-221"/>
			</g>
			<g>
				<line class="st1" x1="1" y1="-211" x2="1" y2="-211"/>
				<line class="st2" x1="11" y1="-211" x2="236" y2="-211"/>
				<line class="st1" x1="241" y1="-211" x2="241" y2="-211"/>
			</g>
			<g>
				<line class="st1" x1="1" y1="-201" x2="1" y2="-201"/>
				<line class="st2" x1="11" y1="-201" x2="236" y2="-201"/>
				<line class="st1" x1="241" y1="-201" x2="241" y2="-201"/>
			</g>
			<g>
				<line class="st1" x1="1" y1="-191" x2="1" y2="-191"/>
				<line class="st2" x1="11" y1="-191" x2="236" y2="-191"/>
				<line class="st1" x1="241" y1="-191" x2="241" y2="-191"/>
			</g>
			<g>
				<line class="st1" x1="1" y1="-181" x2="1" y2="-181"/>
				<line class="st2" x1="11" y1="-181" x2="236" y2="-181"/>
				<line class="st1" x1="241" y1="-181" x2="241" y2="-181"/>
			</g>
			<g>
				<line class="st1" x1="1" y1="-171" x2="1" y2="-171"/>
				<line class="st2" x1="11" y1="-171" x2="236" y2="-171"/>
				<line class="st1" x1="241" y1="-171" x2="241" y2="-171"/>
			</g>
			<g>
				<line class="st1" x1="1" y1="-161" x2="1" y2="-161"/>
				<line class="st2" x1="11" y1="-161" x2="236" y2="-161"/>
				<line class="st1" x1="241" y1="-161" x2="241" y2="-161"/>
			</g>
			<g>
				<line class="st1" x1="1" y1="-151" x2="1" y2="-151"/>
				<line class="st2" x1="11" y1="-151" x2="236" y2="-151"/>
				<line class="st1" x1="241" y1="-151" x2="241" y2="-151"/>
			</g>
			<g>
				<line class="st1" x1="1" y1="-141" x2="1" y2="-141"/>
				<line class="st2" x1="11" y1="-141" x2="236" y2="-141"/>
				<line class="st1" x1="241" y1="-141" x2="241" y2="-141"/>
			</g>
			<g>
				<line class="st1" x1="1" y1="-131" x2="1" y2="-131"/>
				<line class="st2" x1="11" y1="-131" x2="236" y2="-131"/>
				<line class="st1" x1="241" y1="-131" x2="241" y2="-131"/>
			</g>
			<g>
				<line class="st1" x1="1" y1="-121" x2="1" y2="-121"/>
				<line class="st2" x1="11" y1="-121" x2="236" y2="-121"/>
				<line class="st1" x1="241" y1="-121" x2="241" y2="-121"/>
			</g>
			<g>
				<line class="st1" x1="1" y1="-111" x2="1" y2="-111"/>
				<line class="st2" x1="11" y1="-111" x2="236" y2="-111"/>
				<line class="st1" x1="241" y1="-111" x2="241" y2="-111"/>
			</g>
			<g>
				<line class="st1" x1="1" y1="-101" x2="1" y2="-101"/>
				<line class="st2" x1="11" y1="-101" x2="236" y2="-101"/>
				<line class="st1" x1="241" y1="-101" x2="241" y2="-101"/>
			</g>
			<g>
				<line class="st1" x1="1" y1="-91" x2="1" y2="-91"/>
				<line class="st2" x1="11" y1="-91" x2="236" y2="-91"/>
				<line class="st1" x1="241" y1="-91" x2="241" y2="-91"/>
			</g>
			<g>
				<line class="st1" x1="1" y1="-81" x2="1" y2="-81"/>
				<line class="st2" x1="11" y1="-81" x2="236" y2="-81"/>
				<line class="st1" x1="241" y1="-81" x2="241" y2="-81"/>
			</g>
			<g>
				<line class="st1" x1="1" y1="-71" x2="1" y2="-71"/>
				<line class="st2" x1="11" y1="-71" x2="236" y2="-71"/>
				<line class="st1" x1="241" y1="-71" x2="241" y2="-71"/>
			</g>
			<g>
				<line class="st1" x1="1" y1="-61" x2="1" y2="-61"/>
				<line class="st2" x1="11" y1="-61" x2="236" y2="-61"/>
				<line class="st1" x1="241" y1="-61" x2="241" y2="-61"/>
			</g>
			<g>
				<line class="st1" x1="1" y1="-51" x2="1" y2="-51"/>
				<line class="st2" x1="11" y1="-51" x2="236" y2="-51"/>
				<line class="st1" x1="241" y1="-51" x2="241" y2="-51"/>
			</g>
			<g>
				<line class="st1" x1="1" y1="-41" x2="1" y2="-41"/>
				<line class="st2" x1="11" y1="-41" x2="236" y2="-41"/>
				<line class="st1" x1="241" y1="-41" x2="241" y2="-41"/>
			</g>
			<g>
				<line class="st1" x1="1" y1="-31" x2="1" y2="-31"/>
				<line class="st2" x1="11" y1="-31" x2="236" y2="-31"/>
				<line class="st1" x1="241" y1="-31" x2="241" y2="-31"/>
			</g>
			<g>
				<line class="st1" x1="1" y1="-21" x2="1" y2="-21"/>
				<line class="st2" x1="11" y1="-21" x2="236" y2="-21"/>
				<line class="st1" x1="241" y1="-21" x2="241" y2="-21"/>
			</g>
			<g>
				<line class="st1" x1="1" y1="-11" x2="1" y2="-11"/>
				<line class="st2" x1="11" y1="-11" x2="236" y2="-11"/>
				<line class="st1" x1="241" y1="-11" x2="241" y2="-11"/>
			</g>
			<g>
				<line class="st1" x1="1" y1="-1" x2="1" y2="-1"/>
				<line class="st2" x1="11" y1="-1" x2="236" y2="-1"/>
				<line class="st1" x1="241" y1="-1" x2="241" y2="-1"/>
			</g>
		</g>
		<g>
			<g>
				<line class="st1" x1="1" y1="-241" x2="1" y2="-241"/>
			</g>
			<g>
				<line class="st1" x1="1" y1="-231" x2="1" y2="-231"/>
			</g>
			<g>
				<line class="st1" x1="1" y1="-221" x2="1" y2="-221"/>
			</g>
			<g>
				<line class="st1" x1="1" y1="-211" x2="1" y2="-211"/>
			</g>
			<g>
				<line class="st1" x1="1" y1="-201" x2="1" y2="-201"/>
			</g>
			<g>
				<line class="st1" x1="1" y1="-191" x2="1" y2="-191"/>
			</g>
			<g>
				<line class="st1" x1="1" y1="-181" x2="1" y2="-181"/>
			</g>
			<g>
				<line class="st1" x1="1" y1="-171" x2="1" y2="-171"/>
			</g>
			<g>
				<line class="st1" x1="1" y1="-161" x2="1" y2="-161"/>
			</g>
			<g>
				<line class="st1" x1="1" y1="-151" x2="1" y2="-151"/>
			</g>
			<g>
				<line class="st1" x1="1" y1="-141" x2="1" y2="-141"/>
			</g>
			<g>
				<line class="st1" x1="1" y1="-131" x2="1" y2="-131"/>
			</g>
			<g>
				<line class="st1" x1="1" y1="-121" x2="1" y2="-121"/>
			</g>
			<g>
				<line class="st1" x1="1" y1="-111" x2="1" y2="-111"/>
			</g>
			<g>
				<line class="st1" x1="1" y1="-101" x2="1" y2="-101"/>
			</g>
			<g>
				<line class="st1" x1="1" y1="-91" x2="1" y2="-91"/>
			</g>
			<g>
				<line class="st1" x1="1" y1="-81" x2="1" y2="-81"/>
			</g>
			<g>
				<line class="st1" x1="1" y1="-71" x2="1" y2="-71"/>
			</g>
			<g>
				<line class="st1" x1="1" y1="-61" x2="1" y2="-61"/>
			</g>
			<g>
				<line class="st1" x1="1" y1="-51" x2="1" y2="-51"/>
			</g>
			<g>
				<line class="st1" x1="1" y1="-41" x2="1" y2="-41"/>
			</g>
			<g>
				<line class="st1" x1="1" y1="-31" x2="1" y2="-31"/>
			</g>
			<g>
				<line class="st1" x1="1" y1="-21" x2="1" y2="-21"/>
			</g>
			<g>
				<line class="st1" x1="1" y1="-11" x2="1" y2="-11"/>
			</g>
			<g>
				<line class="st1" x1="1" y1="-1" x2="1" y2="-1"/>
			</g>
		</g>
		<g>
			<g>
				<line class="st1" x1="241" y1="-241" x2="241" y2="-241"/>
			</g>
		</g>
		<g>
			<g>
				<line class="st1" x1="1" y1="-241" x2="1" y2="-241"/>
				<line class="st2" x1="11" y1="-241" x2="236" y2="-241"/>
				<line class="st1" x1="241" y1="-241" x2="241" y2="-241"/>
			</g>
		</g>
		<g>
			<g>
				<line class="st1" x1="1" y1="-241" x2="1" y2="-241"/>
			</g>
		</g>
	</g>
</pattern>
<g>
	<g>
		<path class="st3" d="M218.7,71.6l-3.7,2.2l-0.7-1.2l4.5-2.7h1.6v15.4h-1.6V71.6z"/>
		<path class="st3" d="M223.5,84.8c0-1.8,0.8-3.7,3.6-5.4l2.3-1.5c1.5-0.9,2.7-1.9,2.7-3.7c0-1.6-1.4-3.1-3.4-3.1
			c-1.7,0-2.8,1-3.2,2c-0.3,0.7-0.3,1.3-0.3,1.5l-1.6-0.2c0-2.2,1.9-4.8,5.1-4.8c2.9,0,5,2.2,5,4.6c0,2.2-1.2,3.5-3.3,4.8l-2.4,1.5
			c-1.3,0.8-2.6,1.9-2.7,3.3h8.5v1.5h-10.4V84.8z"/>
		<path class="st3" d="M246.4,89.8l-2.9,6.8h-2.8l11.4-26.5h3.1l11.4,26.5h-2.9l-2.9-6.8H246.4z M247.5,87.2h12.3l-6.2-14.3
			L247.5,87.2z"/>
		<path class="st3" d="M272.4,82.1c1.4-2.8,3.8-3.9,5.8-3.9c0.2,0,0.7,0,0.9,0v2.8c-0.3,0-0.7-0.1-1-0.1c-4.3,0-5.6,3.5-5.6,6.7v8.8
			h-2.6V78.5h2.6V82.1z"/>
		<path class="st3" d="M283.3,88.3c0.2,3.5,2.9,6.2,6.5,6.2c2.7,0,4.7-1.3,5.6-3.9l2.4,0.7c-1.1,3.5-4.3,5.4-7.9,5.4
			c-5.2,0-9.2-4.2-9.2-9.4c0-4.9,3.7-9.3,8.8-9.3c5.6,0,8.5,4,8.5,9.3c0,0.3,0,0.6,0,0.9H283.3z M295.3,86.1
			c-0.3-3.3-2.4-5.6-5.9-5.6c-3.1,0-5.7,2.6-6.1,5.6H295.3z"/>
		<path class="st3" d="M317.1,95.3l-8.2-16.8h3l6.6,14l6.3-14h2.8l-12.4,27h-2.8L317.1,95.3z"/>
		<path class="st3" d="M329.3,87.6c0-5.3,4-9.4,9.4-9.4c5.2,0,9.3,4.1,9.3,9.3c0,5.3-4.1,9.4-9.4,9.4
			C333.4,96.9,329.3,92.7,329.3,87.6z M345.3,87.6c0-3.8-2.7-7.1-6.7-7.1c-3.9,0-6.6,3.2-6.6,7c0,3.8,2.7,7.1,6.7,7.1
			C342.6,94.5,345.3,91.3,345.3,87.6z"/>
		<path class="st3" d="M355,89c0,3.2,1.7,5.5,5,5.5c3.1,0,5.4-2.5,5.4-5.7V78.5h2.6v18.1h-2.6v-3.3c-1.4,2.5-3.6,3.7-6.2,3.7
			c-4.4,0-6.8-3-6.8-7.2V78.5h2.6V89z"/>
		<path class="st3" d="M391.4,94.5c4,0,5.5-3,6-4.3l2.5,0.8c-0.8,2.7-3.8,5.9-8.5,5.9c-5.2,0-9.2-3.9-9.2-9.3c0-5.5,4.2-9.4,9.3-9.4
			c4.2,0,7.5,2.7,8.3,5.8l-2.4,0.8c-0.4-1.4-2.2-4.2-6-4.2c-3.9,0-6.5,3.1-6.5,6.9C384.8,91.2,387.3,94.5,391.4,94.5z"/>
		<path class="st3" d="M402.9,87.6c0-5.3,4-9.4,9.4-9.4c5.2,0,9.3,4.1,9.3,9.3c0,5.3-4.1,9.4-9.4,9.4
			C407,96.9,402.9,92.7,402.9,87.6z M418.9,87.6c0-3.8-2.7-7.1-6.7-7.1c-3.9,0-6.6,3.2-6.6,7c0,3.8,2.7,7.1,6.7,7.1
			C416.2,94.5,418.9,91.3,418.9,87.6z"/>
		<path class="st3" d="M439.3,86c0-3.2-1.7-5.5-5-5.5c-3.1,0-5.4,2.5-5.4,5.7v10.3h-2.6V78.5h2.6v3.3c1.4-2.4,3.6-3.7,6.2-3.7
			c4.4,0,6.8,3,6.8,7.2v11.2h-2.6V86z"/>
		<path class="st3" d="M455.6,94.5c4,0,5.5-3,6-4.3L464,91c-0.8,2.7-3.8,5.9-8.5,5.9c-5.2,0-9.2-3.9-9.2-9.3c0-5.5,4.2-9.4,9.3-9.4
			c4.2,0,7.5,2.7,8.3,5.8l-2.4,0.8c-0.4-1.4-2.2-4.2-6-4.2c-3.9,0-6.5,3.1-6.5,6.9C449,91.2,451.5,94.5,455.6,94.5z"/>
		<path class="st3" d="M469.8,88.3c0.2,3.5,2.9,6.2,6.5,6.2c2.7,0,4.7-1.3,5.6-3.9l2.4,0.7c-1.1,3.5-4.3,5.4-7.9,5.4
			c-5.2,0-9.2-4.2-9.2-9.4c0-4.9,3.7-9.3,8.8-9.3c5.6,0,8.5,4,8.5,9.3c0,0.3,0,0.6,0,0.9H469.8z M481.8,86.1
			c-0.3-3.3-2.4-5.6-5.9-5.6c-3.1,0-5.6,2.6-6.1,5.6H481.8z"/>
		<path class="st3" d="M491.6,82.1c1.4-2.8,3.8-3.9,5.8-3.9c0.2,0,0.7,0,0.9,0v2.8c-0.3,0-0.7-0.1-1-0.1c-4.3,0-5.7,3.5-5.7,6.7v8.8
			H489V78.5h2.6V82.1z"/>
		<path class="st3" d="M514.9,86c0-3.2-1.7-5.5-5-5.5c-3.1,0-5.4,2.5-5.4,5.7v10.3h-2.6V78.5h2.6v3.3c1.4-2.4,3.6-3.7,6.2-3.7
			c4.4,0,6.8,3,6.8,7.2v11.2h-2.6V86z"/>
		<path class="st3" d="M524.6,88.3c0.2,3.5,2.9,6.2,6.5,6.2c2.7,0,4.7-1.3,5.6-3.9l2.4,0.7c-1.1,3.5-4.3,5.4-7.9,5.4
			c-5.2,0-9.2-4.2-9.2-9.4c0-4.9,3.7-9.3,8.8-9.3c5.6,0,8.5,4,8.5,9.3c0,0.3,0,0.6,0,0.9H524.6z M536.5,86.1
			c-0.3-3.3-2.4-5.6-5.9-5.6c-3.1,0-5.6,2.6-6.1,5.6H536.5z"/>
		<path class="st3" d="M550.9,78.2c3.5,0,5.5,2,7,4.1V69h2.6v27.5H558v-3.9c-1.4,2.3-3.6,4.1-7,4.1c-5.2,0-8.5-4.4-8.5-9.3
			C542.5,82.8,545.8,78.2,550.9,78.2z M558,87.4c0-3.6-2.7-6.9-6.5-6.9c-4,0-6.3,3.1-6.3,7c0,3.7,2.4,6.9,6.3,6.9
			C555.3,94.5,558,91.2,558,87.4z"/>
		<path class="st3" d="M586.9,84.9c0-2.9-1.6-4.4-4.6-4.4c-3,0-4.4,2-4.7,3.7l-2.5-0.5c0.1-1.5,2.2-5.5,7.3-5.5
			c3.8,0,5.7,1.7,6.6,3.7c0.4,1,0.5,2.4,0.5,3v11.7h-2.6v-3.2h0c-1.4,2.2-3.4,3.5-6.1,3.5c-3.7,0-6.1-2.3-6.1-5.3v-0.2
			c0-3.9,3.9-5.2,7.1-5.2h5V84.9z M581.8,88.3c-1.9,0-4.5,0.6-4.5,3c0,2,1.7,3.2,3.9,3.2c3.2,0,5.6-2.3,5.6-5.6v-0.6H581.8z"/>
		<path class="st3" d="M604.8,96.8c-3.4,0-5.5-1.7-7-4.1v3.8h-2.6V69h2.6v13.4c1.5-2.3,3.6-4.2,7-4.2c5.1,0,8.5,4.6,8.5,9.3
			C613.3,92.4,609.9,96.8,604.8,96.8z M610.6,87.5c0-3.8-2.3-7-6.3-7c-3.7,0-6.5,3.3-6.5,6.9c0,3.7,2.6,7,6.5,7
			C608.2,94.5,610.6,91.4,610.6,87.5z"/>
		<path class="st3" d="M616.6,87.6c0-5.3,4-9.4,9.4-9.4c5.2,0,9.3,4.1,9.3,9.3c0,5.3-4.1,9.4-9.4,9.4
			C620.7,96.9,616.6,92.7,616.6,87.6z M632.6,87.6c0-3.8-2.7-7.1-6.7-7.1c-3.9,0-6.6,3.2-6.6,7c0,3.8,2.7,7.1,6.7,7.1
			C629.9,94.5,632.6,91.3,632.6,87.6z"/>
		<path class="st3" d="M642.3,89c0,3.2,1.7,5.5,5,5.5c3.1,0,5.4-2.5,5.4-5.7V78.5h2.6v18.1h-2.6v-3.3c-1.4,2.5-3.6,3.7-6.2,3.7
			c-4.4,0-6.8-3-6.8-7.2V78.5h2.6V89z"/>
		<path class="st3" d="M662.5,91.9V80.8h-3.4v-2.3h3.4v-5.2h2.6v5.2h4.6v2.3h-4.6v11c0,1.6,0.9,2.5,2.9,2.5c0.6,0,1.2,0,1.6-0.1v2.2
			c-0.5,0.2-1.6,0.3-2.1,0.3C663.7,96.7,662.5,94.5,662.5,91.9z"/>
		<path class="st3" d="M687.5,96.5l-6.1-18.1h2.8l4.7,15h0l4.9-15h2.6l4.9,15h0l4.8-15h2.7L703,96.5h-2.9l-4.8-14.7h0l-4.8,14.7
			H687.5z"/>
		<path class="st3" d="M725.9,86c0-3.2-1.7-5.5-5-5.5c-3.1,0-5.4,2.5-5.4,5.7v10.3h-2.6V69h2.6v12.7c1.4-2.4,3.5-3.6,6.2-3.6
			c4.4,0,6.8,3,6.8,7.2v11.2h-2.6V86z"/>
		<path class="st3" d="M745.2,84.9c0-2.9-1.6-4.4-4.6-4.4c-3,0-4.4,2-4.7,3.7l-2.5-0.5c0.1-1.5,2.2-5.5,7.3-5.5
			c3.8,0,5.7,1.7,6.6,3.7c0.4,1,0.5,2.4,0.5,3v11.7h-2.6v-3.2h0c-1.4,2.2-3.4,3.5-6.1,3.5c-3.7,0-6.1-2.3-6.1-5.3v-0.2
			c0-3.9,3.9-5.2,7.1-5.2h5V84.9z M740.1,88.3c-1.9,0-4.5,0.6-4.5,3c0,2,1.7,3.2,3.9,3.2c3.2,0,5.6-2.3,5.6-5.6v-0.6H740.1z"/>
		<path class="st3" d="M754.6,91.9V80.8h-3.4v-2.3h3.4v-5.2h2.6v5.2h4.6v2.3h-4.6v11c0,1.6,0.9,2.5,2.9,2.5c0.6,0,1.2,0,1.6-0.1v2.2
			c-0.5,0.2-1.6,0.3-2.1,0.3C755.7,96.7,754.6,94.5,754.6,91.9z"/>
		<path class="st3" d="M243.6,132.5v-11.1h-3.3v-2.3h3.3v-5.2h2.6v5.2h4.6v2.3h-4.6v11c0,1.6,0.9,2.5,2.9,2.5c0.6,0,1.2,0,1.6-0.1
			v2.2c-0.5,0.2-1.6,0.3-2.1,0.3C244.8,137.3,243.6,135.1,243.6,132.5z"/>
		<path class="st3" d="M268.2,126.6c0-3.2-1.7-5.5-5-5.5c-3.1,0-5.4,2.5-5.4,5.7v10.3h-2.6v-27.5h2.6v12.7c1.4-2.4,3.5-3.6,6.2-3.6
			c4.4,0,6.8,3,6.8,7.2v11.2h-2.6V126.6z"/>
		<path class="st3" d="M277.9,128.9c0.2,3.5,2.9,6.2,6.5,6.2c2.7,0,4.7-1.3,5.6-3.9l2.4,0.7c-1.1,3.5-4.3,5.4-7.9,5.4
			c-5.2,0-9.2-4.2-9.2-9.4c0-4.9,3.7-9.3,8.8-9.3c5.6,0,8.5,4,8.5,9.3c0,0.3,0,0.6,0,0.9H277.9z M289.9,126.7
			c-0.3-3.3-2.4-5.6-5.9-5.6c-3.1,0-5.7,2.6-6.1,5.6H289.9z"/>
		<path class="st3" d="M310,110.7v26.5h-2.8v-26.5H310z"/>
		<path class="st3" d="M315.4,128.2c0-5.3,4-9.4,9.4-9.4c5.2,0,9.3,4.1,9.3,9.3c0,5.3-4.1,9.4-9.4,9.4
			C319.5,137.4,315.4,133.3,315.4,128.2z M331.4,128.2c0-3.8-2.7-7.1-6.7-7.1c-3.9,0-6.6,3.2-6.6,7c0,3.8,2.7,7.1,6.7,7.1
			C328.6,135.1,331.4,131.9,331.4,128.2z"/>
		<path class="st3" d="M341.8,137.1v-23.9H333v-2.6h20.5v2.6h-8.8v23.9H341.8z"/>
		<path class="st3" d="M377.7,126.6c0-3-1.4-5.4-4.7-5.4c-3.1,0-5,2.8-5,5.7v10.3h-2.6v-18.1h2.6v3.1c1.5-2.2,3.1-3.5,5.8-3.5
			c2.6,0,4.7,1.3,5.8,3.6c1.5-2.3,3.5-3.6,6.4-3.6c4.4,0,6.7,3,6.7,7.2v11.2H390v-10.5c0-3-1.4-5.4-4.7-5.4c-3.2,0-5,2.6-5,5.6v10.4
			h-2.6V126.6z"/>
		<path class="st3" d="M399.7,128.9c0.2,3.5,2.9,6.2,6.5,6.2c2.7,0,4.7-1.3,5.6-3.9l2.4,0.7c-1.1,3.5-4.3,5.4-7.9,5.4
			c-5.2,0-9.2-4.2-9.2-9.4c0-4.9,3.7-9.3,8.8-9.3c5.6,0,8.5,4,8.5,9.3c0,0.3,0,0.6,0,0.9H399.7z M411.7,126.7
			c-0.3-3.3-2.4-5.6-5.9-5.6c-3.1,0-5.6,2.6-6.1,5.6H411.7z"/>
		<path class="st3" d="M429.8,125.5c0-2.9-1.6-4.4-4.6-4.4c-3,0-4.4,2-4.7,3.7l-2.5-0.5c0.1-1.5,2.2-5.5,7.3-5.5
			c3.8,0,5.7,1.7,6.6,3.7c0.4,1,0.5,2.4,0.5,3v11.7h-2.6V134h0c-1.4,2.2-3.4,3.5-6.1,3.5c-3.7,0-6.1-2.3-6.1-5.3v-0.2
			c0-3.9,3.9-5.2,7.1-5.2h5V125.5z M424.7,128.9c-1.9,0-4.5,0.6-4.5,3c0,2,1.7,3.2,3.9,3.2c3.2,0,5.6-2.3,5.6-5.6v-0.6H424.7z"/>
		<path class="st3" d="M451.1,126.6c0-3.2-1.7-5.5-5-5.5c-3.1,0-5.4,2.5-5.4,5.7v10.3h-2.6v-18.1h2.6v3.3c1.4-2.4,3.6-3.7,6.2-3.7
			c4.4,0,6.8,3,6.8,7.2v11.2h-2.6V126.6z"/>
		<path class="st3" d="M465,137.4c-4.9,0-6.5-3.3-6.9-5.3l2.4-0.6c0.4,1.6,1.6,3.6,4.4,3.6c2,0,3.8-1,3.8-2.9c0-2.2-2.4-2.7-4.2-3
			c-3-0.4-6-1.5-6-5c0-3.4,3.1-5.4,6.1-5.4c4.8,0,6.3,3.2,6.6,4.9l-2.4,0.6c-0.3-1.2-1.3-3.2-4.2-3.2c-2,0-3.4,1.3-3.4,2.9
			c0,2.3,2.4,2.6,4.3,2.8c2.9,0.4,5.9,1.9,5.9,5.2C471.4,135.3,468.5,137.4,465,137.4z"/>
		<path class="st3" d="M489.5,115.7v3.4h4.7v2.3h-4.7v15.8h-2.6v-15.8h-3.5v-2.3h3.5v-3.3c0-4.2,2.3-6.2,5.5-6.2
			c0.5,0,1.3,0.1,2,0.3v2.2c-0.7-0.2-1.5-0.2-1.9-0.2C491.2,111.8,489.5,112.6,489.5,115.7z"/>
		<path class="st3" d="M496,128.2c0-5.3,4-9.4,9.4-9.4c5.2,0,9.3,4.1,9.3,9.3c0,5.3-4.1,9.4-9.4,9.4C500,137.4,496,133.3,496,128.2z
			 M512,128.2c0-3.8-2.7-7.1-6.7-7.1c-3.9,0-6.6,3.2-6.6,7c0,3.8,2.7,7.1,6.7,7.1C509.2,135.1,512,131.9,512,128.2z"/>
		<path class="st3" d="M521.9,122.7c1.4-2.8,3.8-3.9,5.8-3.9c0.2,0,0.7,0,0.9,0v2.8c-0.3,0-0.7-0.1-1-0.1c-4.3,0-5.7,3.5-5.7,6.7
			v8.8h-2.6v-18.1h2.6V122.7z"/>
		<path class="st3" d="M541.9,110.6c1.1,0,2,0.9,2,2c0,1.1-0.9,2-2,2c-1.1,0-2-0.9-2-2C539.9,111.5,540.8,110.6,541.9,110.6z
			 M543.2,119.1v18.1h-2.7v-18.1H543.2z"/>
		<path class="st3" d="M562.2,126.6c0-3.2-1.7-5.5-5-5.5c-3.1,0-5.4,2.5-5.4,5.7v10.3h-2.6v-18.1h2.6v3.3c1.4-2.4,3.6-3.7,6.2-3.7
			c4.4,0,6.8,3,6.8,7.2v11.2h-2.6V126.6z"/>
		<path class="st3" d="M574.3,115.7v3.4h4.7v2.3h-4.7v15.8h-2.6v-15.8h-3.5v-2.3h3.5v-3.3c0-4.2,2.3-6.2,5.5-6.2
			c0.5,0,1.3,0.1,2,0.3v2.2c-0.7-0.2-1.5-0.2-1.9-0.2C576,111.8,574.3,112.6,574.3,115.7z"/>
		<path class="st3" d="M580.8,128.2c0-5.3,4-9.4,9.4-9.4c5.2,0,9.3,4.1,9.3,9.3c0,5.3-4.1,9.4-9.4,9.4
			C584.9,137.4,580.8,133.3,580.8,128.2z M596.8,128.2c0-3.8-2.7-7.1-6.7-7.1c-3.9,0-6.6,3.2-6.6,7c0,3.8,2.7,7.1,6.7,7.1
			C594.1,135.1,596.8,131.9,596.8,128.2z"/>
		<path class="st3" d="M609.7,137.4c-4.9,0-6.5-3.3-6.9-5.3l2.4-0.6c0.4,1.6,1.6,3.6,4.4,3.6c2,0,3.8-1,3.8-2.9c0-2.2-2.4-2.7-4.2-3
			c-3-0.4-6-1.5-6-5c0-3.4,3.1-5.4,6.1-5.4c4.8,0,6.3,3.2,6.6,4.9l-2.4,0.6c-0.3-1.2-1.3-3.2-4.2-3.2c-2,0-3.4,1.3-3.4,2.9
			c0,2.3,2.4,2.6,4.3,2.8c2.9,0.4,5.9,1.9,5.9,5.2C616.1,135.3,613.1,137.4,609.7,137.4z"/>
		<path class="st3" d="M622.1,128.9c0.2,3.5,2.9,6.2,6.5,6.2c2.7,0,4.7-1.3,5.6-3.9l2.4,0.7c-1.1,3.5-4.3,5.4-7.9,5.4
			c-5.2,0-9.2-4.2-9.2-9.4c0-4.9,3.7-9.3,8.8-9.3c5.6,0,8.5,4,8.5,9.3c0,0.3,0,0.6,0,0.9H622.1z M634.1,126.7
			c-0.3-3.3-2.4-5.6-5.9-5.6c-3.1,0-5.7,2.6-6.1,5.6H634.1z"/>
		<path class="st3" d="M649.2,135.1c4,0,5.5-3,6-4.3l2.5,0.8c-0.8,2.7-3.8,5.9-8.5,5.9c-5.2,0-9.2-3.9-9.2-9.3
			c0-5.5,4.2-9.4,9.3-9.4c4.2,0,7.5,2.7,8.3,5.8l-2.4,0.8c-0.4-1.4-2.2-4.2-6-4.2c-3.9,0-6.5,3.1-6.5,6.9
			C642.7,131.8,645.1,135.1,649.2,135.1z"/>
		<path class="st3" d="M665.7,129.5c0-0.2,0-0.4,0-0.6c0-3.1,1.9-4.7,3.4-6.2c1.5-1.6,3.3-3,3.3-5.4c0-2.2-1.5-4.3-4.9-4.3
			c-3.4,0-5.3,2.5-5.1,5.8l-2.7-0.1c0-0.3,0-0.5,0-0.8c0-4.4,3.6-7.4,7.8-7.4c4.7,0,7.8,3.3,7.8,6.9c0,2.6-1.6,4.3-4,6.7
			c-1.7,1.7-2.9,2.8-3,5.5H665.7z M666.9,137.4c1.1,0,2-0.9,2-2c0-1.1-0.8-2-2-2c-1.1,0-2,0.9-2,2
			C664.9,136.6,665.8,137.4,666.9,137.4z"/>
	</g>
</g>
<g>
	<g>
		<path class="st3" d="M230.3,694.1l-4.2,2.5l-0.8-1.4l5.1-3.1h1.8v17.7h-1.9V694.1z"/>
		<path class="st3" d="M241.8,709.9c-3.1,0-5.7-1.9-6.1-4.8l1.8-0.4c0.3,2,1.9,3.5,4.3,3.5c2.4,0,4.3-1.3,4.3-3.3s-1.5-3.3-4.3-3.3
			H240v-1.7h1.7c2.4,0,3.9-1.5,3.9-3.2c0-1.8-1.4-3.1-3.9-3.1c-2.4,0-3.8,1.4-4.1,3.3l-1.8-0.4c0.3-2.5,2.6-4.6,5.9-4.6
			c3.8,0,5.7,2.3,5.7,4.7c0,2-1.1,3.3-2.8,4.1v0c2,0.6,3.2,2.1,3.2,4.2C247.9,707.6,245.5,709.9,241.8,709.9z"/>
		<path class="st3" d="M252,701.7c-1.3,0-2.3-1-2.3-2.3c0-1.3,1-2.3,2.3-2.3c1.3,0,2.3,1,2.3,2.3C254.4,700.6,253.3,701.7,252,701.7
			z M252,697.9c-0.8,0-1.5,0.6-1.5,1.5c0,0.8,0.7,1.4,1.5,1.4c0.8,0,1.5-0.6,1.5-1.4C253.5,698.5,252.8,697.9,252,697.9z
			 M257.7,697.1h1.1l-6.7,10.3h-1L257.7,697.1z M257.7,707.5c-1.3,0-2.3-1-2.3-2.3c0-1.3,1-2.3,2.3-2.3c1.3,0,2.3,1,2.3,2.3
			C260.1,706.5,259,707.5,257.7,707.5z M257.7,703.7c-0.8,0-1.4,0.6-1.4,1.5c0,0.8,0.6,1.4,1.4,1.4c0.8,0,1.5-0.6,1.5-1.4
			C259.2,704.4,258.5,703.7,257.7,703.7z"/>
	</g>
</g>
<g class="st4">
	<path d="M384.3,654.5l-4.2,2.5l-0.8-1.4l5.1-3.1h1.8v17.7h-1.9V654.5z"/>
	<path d="M389.2,654.3v-1.7h12v1.7l-8.1,16H391l8.2-16H389.2z"/>
	<path d="M404.7,662.1c-1.3,0-2.3-1-2.3-2.3c0-1.3,1-2.3,2.3-2.3c1.3,0,2.3,1,2.3,2.3C407,661.1,406,662.1,404.7,662.1z
		 M404.7,658.4c-0.8,0-1.5,0.6-1.5,1.5c0,0.8,0.7,1.4,1.5,1.4c0.8,0,1.5-0.6,1.5-1.4C406.1,659,405.5,658.4,404.7,658.4z
		 M410.3,657.6h1.1l-6.7,10.3h-1L410.3,657.6z M410.4,668c-1.3,0-2.3-1-2.3-2.3c0-1.3,1-2.3,2.3-2.3c1.3,0,2.3,1,2.3,2.3
		C412.7,666.9,411.7,668,410.4,668z M410.4,664.2c-0.8,0-1.4,0.6-1.4,1.5c0,0.8,0.6,1.4,1.4,1.4c0.8,0,1.5-0.6,1.5-1.4
		C411.8,664.8,411.2,664.2,410.4,664.2z"/>
</g>
<g>
	<path class="st3" d="M459.9,690.2l-4.2,2.5l-0.8-1.4l5.1-3.1h1.8v17.7h-1.9V690.2z"/>
	<path class="st3" d="M474,705.9v-4.2h-9.2v-2l8.7-11.4h2.3V700h3v1.6h-3v4.2H474z M474,700v-9.9l-7.5,9.9H474z"/>
	<path class="st3" d="M482.4,697.7c-1.3,0-2.3-1-2.3-2.3c0-1.3,1-2.3,2.3-2.3c1.3,0,2.3,1,2.3,2.3
		C484.7,696.7,483.6,697.7,482.4,697.7z M482.4,694c-0.8,0-1.5,0.6-1.5,1.5c0,0.8,0.7,1.4,1.5,1.4c0.8,0,1.5-0.6,1.5-1.4
		C483.8,694.6,483.2,694,482.4,694z M488,693.2h1.1l-6.7,10.3h-1L488,693.2z M488.1,703.6c-1.3,0-2.3-1-2.3-2.3c0-1.3,1-2.3,2.3-2.3
		c1.3,0,2.3,1,2.3,2.3C490.4,702.5,489.4,703.6,488.1,703.6z M488.1,699.8c-0.8,0-1.4,0.6-1.4,1.5c0,0.8,0.6,1.4,1.4,1.4
		c0.8,0,1.5-0.6,1.5-1.4C489.5,700.5,488.9,699.8,488.1,699.8z"/>
</g>
<g>
	<g>
		<path class="st5" d="M305.6,734l-4.2,2.5l-0.8-1.4l5.1-3.1h1.8v17.7h-1.9V734z"/>
		<path class="st5" d="M311.2,740.9c0-4.4,2.5-9.1,7.4-9.1c4.9,0,7.3,4.6,7.3,9c0,4.4-2.5,9-7.4,9
			C313.7,749.9,311.2,745.3,311.2,740.9z M313.1,740.8c0,3.2,1.6,7.4,5.4,7.4c3.8,0,5.4-4.1,5.4-7.3c0-3.2-1.6-7.4-5.5-7.4
			S313.1,737.7,313.1,740.8z"/>
		<path class="st5" d="M330,741.6c-1.3,0-2.3-1-2.3-2.3c0-1.3,1-2.3,2.3-2.3c1.3,0,2.3,1,2.3,2.3C332.4,740.6,331.3,741.6,330,741.6
			z M330,737.8c-0.8,0-1.5,0.6-1.5,1.5c0,0.8,0.7,1.4,1.5,1.4c0.8,0,1.5-0.6,1.5-1.4C331.5,738.5,330.8,737.8,330,737.8z
			 M335.7,737.1h1.1l-6.7,10.3h-1L335.7,737.1z M335.7,747.4c-1.3,0-2.3-1-2.3-2.3c0-1.3,1-2.3,2.3-2.3c1.3,0,2.3,1,2.3,2.3
			C338.1,746.4,337,747.4,335.7,747.4z M335.7,743.7c-0.8,0-1.4,0.6-1.4,1.5c0,0.8,0.6,1.4,1.4,1.4c0.8,0,1.5-0.6,1.5-1.4
			C337.2,744.3,336.5,743.7,335.7,743.7z"/>
	</g>
</g>
<g>
	<pattern  id="SVGID_1_" xlink:href="#white_2" patternTransform="matrix(0 1.4097 -1.3533 0 -24175.5137 819.3522)">
	</pattern>
	<rect x="214" y="728" class="st6" width="76.6" height="147"/>
</g>
<g>
	<rect x="290.6" y="761.9" class="st5" width="76.6" height="113.1"/>
</g>
<g class="st4">
	<rect x="367.3" y="682.7" width="76.6" height="192.2"/>
</g>
<g>
	<rect x="443.9" y="716.6" class="st3" width="76.6" height="158.3"/>
</g>
<g>
	<g>
		<path d="M325.1,921l-6,8.9v6.5h-1.6v-6.5l-6-8.9h2l4.9,7.4l4.9-7.4H325.1z"/>
		<path d="M326.8,931.7c0.1,2.1,1.7,3.6,3.8,3.6c1.6,0,2.8-0.8,3.3-2.3l1.4,0.4c-0.6,2-2.5,3.2-4.6,3.2c-3.1,0-5.4-2.4-5.4-5.5
			c0-2.9,2.2-5.4,5.1-5.4c3.3,0,5,2.3,5,5.4c0,0.2,0,0.4,0,0.5H326.8z M333.8,930.4c-0.2-1.9-1.4-3.3-3.4-3.3
			c-1.8,0-3.3,1.5-3.6,3.3H333.8z"/>
		<path d="M342.2,936.6c-2.9,0-3.8-1.9-4-3.1l1.4-0.3c0.2,0.9,0.9,2.1,2.6,2.1c1.1,0,2.2-0.6,2.2-1.7c0-1.3-1.4-1.6-2.5-1.7
			c-1.8-0.3-3.5-0.9-3.5-2.9c0-2,1.8-3.1,3.5-3.1c2.8,0,3.7,1.9,3.8,2.9l-1.4,0.3c-0.2-0.7-0.8-1.9-2.4-1.9c-1.1,0-2,0.8-2,1.7
			c0,1.3,1.4,1.5,2.5,1.7c1.7,0.2,3.5,1.1,3.5,3C345.9,935.4,344.2,936.6,342.2,936.6z"/>
		<path d="M349.3,938.8c0.9-0.7,1.6-1.5,1.7-2.4c-0.1,0.1-0.3,0.1-0.5,0.1c-0.8,0-1.3-0.5-1.3-1.3c0-0.8,0.6-1.4,1.4-1.4
			c0.9,0,1.6,0.8,1.6,1.9v0.1c0,1.4-0.7,2.7-2.1,3.7L349.3,938.8z"/>
		<path d="M363.5,921v15.5h-1.6V921H363.5z"/>
		<path d="M382.5,930.3c0-1.9-1-3.2-2.9-3.2c-1.8,0-3.1,1.5-3.1,3.3v6h-1.5v-16.1h1.5v7.4c0.8-1.4,2.1-2.1,3.6-2.1
			c2.6,0,4,1.8,4,4.2v6.5h-1.5V930.3z"/>
		<path d="M394.7,929.7c0-1.7-0.9-2.6-2.7-2.6c-1.8,0-2.6,1.1-2.8,2.2l-1.5-0.3c0.1-0.9,1.3-3.2,4.3-3.2c2.2,0,3.3,1,3.9,2.2
			c0.2,0.6,0.3,1.4,0.3,1.7v6.8h-1.5v-1.9h0c-0.8,1.3-2,2-3.6,2c-2.1,0-3.5-1.3-3.5-3.1v-0.1c0-2.3,2.3-3,4.2-3h2.9V929.7z
			 M391.7,931.6c-1.1,0-2.6,0.4-2.6,1.8c0,1.2,1,1.9,2.3,1.9c1.9,0,3.3-1.3,3.3-3.3v-0.4H391.7z"/>
		<path d="M399,925.9h1.7l3.6,8.8l3.7-8.8h1.6l-4.5,10.5h-1.6L399,925.9z"/>
		<path d="M413.2,931.7c0.1,2.1,1.7,3.6,3.8,3.6c1.6,0,2.8-0.8,3.3-2.3l1.4,0.4c-0.6,2-2.5,3.2-4.6,3.2c-3.1,0-5.4-2.4-5.4-5.5
			c0-2.9,2.2-5.4,5.1-5.4c3.3,0,5,2.3,5,5.4c0,0.2,0,0.4,0,0.5H413.2z M420.2,930.4c-0.2-1.9-1.4-3.3-3.4-3.3
			c-1.8,0-3.3,1.5-3.6,3.3H420.2z"/>
		<path d="M293.3,954c0-1.7-0.8-3.2-2.7-3.2c-1.8,0-2.9,1.6-2.9,3.3v6h-1.5v-10.5h1.5v1.8c0.8-1.3,1.8-2,3.4-2
			c1.5,0,2.7,0.7,3.4,2.1c0.9-1.4,2.1-2.1,3.7-2.1c2.5,0,3.9,1.8,3.9,4.2v6.5h-1.5V954c0-1.8-0.8-3.2-2.7-3.2
			c-1.9,0-2.9,1.5-2.9,3.3v6.1h-1.5V954z"/>
		<path d="M312.7,953.3c0-1.7-0.9-2.6-2.7-2.6c-1.8,0-2.6,1.1-2.8,2.2l-1.5-0.3c0.1-0.9,1.3-3.2,4.3-3.2c2.2,0,3.3,1,3.9,2.2
			c0.2,0.6,0.3,1.4,0.3,1.7v6.8h-1.5v-1.9h0c-0.8,1.3-2,2-3.6,2c-2.1,0-3.5-1.3-3.5-3.1v-0.1c0-2.3,2.3-3,4.2-3h2.9V953.3z
			 M309.7,955.3c-1.1,0-2.6,0.4-2.6,1.8c0,1.2,1,1.9,2.3,1.9c1.9,0,3.3-1.3,3.3-3.3v-0.4H309.7z"/>
		<path d="M320.2,962.4c0,2-1,3-3,3c-0.3,0-0.7-0.1-1-0.2V964c0.2,0.1,0.5,0.1,0.8,0.1c1.1,0,1.7-0.6,1.7-1.7v-12.8h1.5V962.4z
			 M319.4,944.7c0.7,0,1.2,0.5,1.2,1.2c0,0.6-0.5,1.1-1.2,1.1c-0.6,0-1.1-0.5-1.1-1.1C318.3,945.2,318.8,944.7,319.4,944.7z"/>
		<path d="M323.9,954.9c0-3.1,2.4-5.5,5.5-5.5c3,0,5.4,2.4,5.4,5.4c0,3.1-2.4,5.5-5.5,5.5C326.3,960.3,323.9,957.9,323.9,954.9z
			 M333.2,954.9c0-2.2-1.6-4.1-3.9-4.1c-2.3,0-3.9,1.9-3.9,4.1c0,2.2,1.6,4.1,3.9,4.1C331.6,958.9,333.2,957.1,333.2,954.9z"/>
		<path d="M340,951.7c0.8-1.6,2.2-2.3,3.4-2.3c0.1,0,0.4,0,0.5,0v1.6c-0.2,0-0.4,0-0.6,0c-2.5,0-3.3,2.1-3.3,3.9v5.2h-1.5v-10.5h1.5
			V951.7z"/>
		<path d="M357.5,958.9c2.3,0,3.2-1.7,3.5-2.5l1.4,0.5c-0.5,1.6-2.2,3.4-5,3.4c-3,0-5.4-2.3-5.4-5.4c0-3.2,2.5-5.5,5.4-5.5
			c2.5,0,4.4,1.6,4.8,3.4l-1.4,0.5c-0.2-0.8-1.3-2.4-3.5-2.4c-2.3,0-3.8,1.8-3.8,4S355.1,958.9,357.5,958.9z"/>
		<path d="M365.2,954.9c0-3.1,2.3-5.5,5.5-5.5c3,0,5.4,2.4,5.4,5.4c0,3.1-2.4,5.5-5.5,5.5C367.6,960.3,365.2,957.9,365.2,954.9z
			 M374.6,954.9c0-2.2-1.6-4.1-3.9-4.1s-3.9,1.9-3.9,4.1c0,2.2,1.6,4.1,3.9,4.1C373,958.9,374.6,957.1,374.6,954.9z"/>
		<path d="M387.4,954c0-1.9-1-3.2-2.9-3.2c-1.8,0-3.1,1.5-3.1,3.3v6h-1.5v-10.5h1.5v1.9c0.8-1.4,2.1-2.1,3.6-2.1c2.6,0,4,1.8,4,4.2
			v6.5h-1.5V954z"/>
		<path d="M397.9,958.9c2.3,0,3.2-1.7,3.5-2.5l1.4,0.5c-0.5,1.6-2.2,3.4-5,3.4c-3,0-5.4-2.3-5.4-5.4c0-3.2,2.5-5.5,5.4-5.5
			c2.4,0,4.4,1.6,4.8,3.4l-1.4,0.5c-0.2-0.8-1.3-2.4-3.5-2.4c-2.3,0-3.8,1.8-3.8,4S395.5,958.9,397.9,958.9z"/>
		<path d="M407.2,955.3c0.1,2.1,1.7,3.6,3.8,3.6c1.6,0,2.8-0.8,3.3-2.3l1.4,0.4c-0.6,2-2.5,3.2-4.6,3.2c-3.1,0-5.4-2.4-5.4-5.5
			c0-2.9,2.2-5.4,5.1-5.4c3.3,0,5,2.3,5,5.4c0,0.2,0,0.4,0,0.5H407.2z M414.2,954c-0.2-1.9-1.4-3.3-3.4-3.3c-1.8,0-3.3,1.5-3.6,3.3
			H414.2z"/>
		<path d="M420.9,951.7c0.8-1.6,2.2-2.3,3.4-2.3c0.1,0,0.4,0,0.5,0v1.6c-0.2,0-0.4,0-0.6,0c-2.5,0-3.3,2.1-3.3,3.9v5.2h-1.5v-10.5
			h1.5V951.7z"/>
		<path d="M435.5,954c0-1.9-1-3.2-2.9-3.2c-1.8,0-3.1,1.5-3.1,3.3v6h-1.5v-10.5h1.5v1.9c0.8-1.4,2.1-2.1,3.6-2.1c2.6,0,4,1.8,4,4.2
			v6.5h-1.5V954z"/>
		<path d="M444.5,960.3c-2.9,0-3.8-1.9-4-3.1l1.4-0.3c0.2,0.9,0.9,2.1,2.6,2.1c1.1,0,2.2-0.6,2.2-1.7c0-1.3-1.4-1.6-2.5-1.7
			c-1.8-0.3-3.5-0.9-3.5-2.9c0-2,1.8-3.1,3.5-3.1c2.8,0,3.7,1.9,3.8,2.9l-1.4,0.3c-0.2-0.7-0.7-1.9-2.4-1.9c-1.1,0-2,0.8-2,1.7
			c0,1.3,1.4,1.5,2.5,1.7c1.7,0.2,3.5,1.1,3.5,3C448.3,959.1,446.6,960.3,444.5,960.3z"/>
	</g>
</g>
<g>
	<pattern  id="SVGID_2_" xlink:href="#white_2" patternTransform="matrix(0 1.4097 -1.3533 0 -24175.5137 819.3522)">
	</pattern>
	<rect x="596.7" y="366.1" class="st7" width="76.6" height="508.9"/>
</g>
<g>
	<g>
		<path class="st3" d="M617.5,347.9v-4.2h-9.2v-2l8.7-11.4h2.3v11.8h3v1.6h-3v4.2H617.5z M617.5,342.1v-9.9l-7.5,9.9H617.5z"/>
		<path class="st3" d="M627.5,332l-1,6c1.1-1.1,3-1.4,3.8-1.4c3.3,0,5.8,2.2,5.8,5.7c0,3.8-3.2,5.8-6.2,5.8c-2.9,0-5.7-1.9-6-4.8
			l1.8-0.4c0.3,2,2,3.5,4.3,3.5c1.8,0,4.3-1.1,4.3-4s-2.1-4.1-4.3-4.1c-1.3,0-2.8,0.7-3.7,1.8l-1.7-0.7l1.5-9.1h9.3v1.7H627.5z"/>
		<path class="st3" d="M640.1,339.8c-1.3,0-2.3-1-2.3-2.3c0-1.3,1-2.3,2.3-2.3c1.3,0,2.3,1,2.3,2.3
			C642.5,338.8,641.4,339.8,640.1,339.8z M640.1,336c-0.8,0-1.5,0.6-1.5,1.5c0,0.8,0.7,1.4,1.5,1.4c0.8,0,1.5-0.6,1.5-1.4
			C641.6,336.7,640.9,336,640.1,336z M645.8,335.3h1.1l-6.7,10.3h-1L645.8,335.3z M645.8,345.6c-1.3,0-2.3-1-2.3-2.3
			c0-1.3,1-2.3,2.3-2.3c1.3,0,2.3,1,2.3,2.3C648.2,344.6,647.1,345.6,645.8,345.6z M645.8,341.9c-0.8,0-1.4,0.6-1.4,1.5
			c0,0.8,0.6,1.4,1.4,1.4c0.8,0,1.5-0.6,1.5-1.4C647.3,342.5,646.6,341.9,645.8,341.9z"/>
	</g>
</g>
<g class="st4">
	<rect x="750" y="309.5" width="76.6" height="565.4"/>
</g>
<g class="st4">
	<path d="M766.1,281.1l-1,6c1.1-1.1,3-1.4,3.8-1.4c3.3,0,5.8,2.2,5.8,5.7c0,3.8-3.2,5.8-6.2,5.8c-2.9,0-5.7-1.9-6-4.8l1.8-0.4
		c0.3,2,2,3.5,4.3,3.5c1.8,0,4.3-1.1,4.3-4c0-2.9-2.1-4.1-4.3-4.1c-1.3,0-2.8,0.7-3.7,1.8l-1.7-0.7l1.5-9.1h9.3v1.7H766.1z"/>
	<path d="M777.2,288.3c0-4.4,2.5-9.1,7.4-9.1c4.9,0,7.3,4.6,7.3,9c0,4.4-2.5,9-7.4,9C779.7,297.2,777.2,292.7,777.2,288.3z
		 M779.1,288.2c0,3.2,1.6,7.4,5.4,7.4c3.8,0,5.4-4.1,5.4-7.3c0-3.2-1.6-7.4-5.5-7.4S779.1,285,779.1,288.2z"/>
	<path d="M796.1,289c-1.3,0-2.3-1-2.3-2.3c0-1.3,1-2.3,2.3-2.3c1.3,0,2.3,1,2.3,2.3C798.4,287.9,797.3,289,796.1,289z M796.1,285.2
		c-0.8,0-1.5,0.6-1.5,1.5c0,0.8,0.7,1.4,1.5,1.4c0.8,0,1.5-0.6,1.5-1.4C797.5,285.8,796.9,285.2,796.1,285.2z M801.7,284.4h1.1
		l-6.7,10.3h-1L801.7,284.4z M801.8,294.8c-1.3,0-2.3-1-2.3-2.3c0-1.3,1-2.3,2.3-2.3c1.3,0,2.3,1,2.3,2.3
		C804.1,293.7,803,294.8,801.8,294.8z M801.8,291c-0.8,0-1.4,0.6-1.4,1.5c0,0.8,0.6,1.4,1.4,1.4c0.8,0,1.5-0.6,1.5-1.4
		C803.2,291.7,802.6,291,801.8,291z"/>
</g>
<g>
	<rect x="826.7" y="275.6" class="st3" width="76.6" height="599.4"/>
</g>
<g>
	<path class="st3" d="M841.7,248.9l-1,6c1.1-1.1,3-1.4,3.8-1.4c3.3,0,5.8,2.2,5.8,5.7c0,3.8-3.2,5.8-6.2,5.8c-2.9,0-5.7-1.9-6-4.8
		l1.8-0.4c0.3,2,2,3.5,4.3,3.5c1.8,0,4.3-1.1,4.3-4c0-2.9-2.1-4.1-4.3-4.1c-1.3,0-2.8,0.7-3.7,1.8l-1.7-0.7l1.5-9.1h9.3v1.7H841.7z"
		/>
	<path class="st3" d="M858.7,265c-3.1,0-5.7-1.9-6.1-4.8l1.8-0.4c0.3,2,1.9,3.5,4.3,3.5c2.4,0,4.3-1.3,4.3-3.3s-1.5-3.3-4.3-3.3
		h-1.8V255h1.7c2.4,0,3.9-1.5,3.9-3.2c0-1.8-1.4-3.1-3.9-3.1c-2.4,0-3.8,1.4-4.1,3.3l-1.8-0.4c0.3-2.5,2.6-4.6,5.9-4.6
		c3.8,0,5.7,2.3,5.7,4.7c0,2-1.1,3.3-2.8,4.1v0c2,0.6,3.2,2.1,3.2,4.2C864.8,262.7,862.4,265,858.7,265z"/>
	<path class="st3" d="M869,256.7c-1.3,0-2.3-1-2.3-2.3c0-1.3,1-2.3,2.3-2.3c1.3,0,2.3,1,2.3,2.3C871.3,255.7,870.3,256.7,869,256.7z
		 M869,252.9c-0.8,0-1.5,0.6-1.5,1.5c0,0.8,0.7,1.4,1.5,1.4c0.8,0,1.5-0.6,1.5-1.4C870.4,253.6,869.8,252.9,869,252.9z M874.6,252.2
		h1.1l-6.7,10.3h-1L874.6,252.2z M874.7,262.6c-1.3,0-2.3-1-2.3-2.3c0-1.3,1-2.3,2.3-2.3c1.3,0,2.3,1,2.3,2.3
		C877,261.5,876,262.6,874.7,262.6z M874.7,258.8c-0.8,0-1.4,0.6-1.4,1.5c0,0.8,0.6,1.4,1.4,1.4c0.8,0,1.5-0.6,1.5-1.4
		C876.1,259.4,875.5,258.8,874.7,258.8z"/>
</g>
<g>
	<rect x="673.4" y="467.9" class="st5" width="76.6" height="407.1"/>
</g>
<g>
	<g>
		<path class="st5" d="M690.1,455.8c-3.1,0-5.7-1.9-6.1-4.8l1.8-0.4c0.3,2,1.9,3.5,4.3,3.5c2.4,0,4.3-1.3,4.3-3.3
			c0-2-1.5-3.3-4.3-3.3h-1.8v-1.7h1.7c2.4,0,3.9-1.5,3.9-3.2c0-1.8-1.4-3.1-3.9-3.1c-2.4,0-3.8,1.4-4.1,3.3l-1.8-0.4
			c0.3-2.5,2.6-4.6,5.9-4.6c3.8,0,5.7,2.3,5.7,4.7c0,2-1.1,3.3-2.8,4.1v0c2,0.6,3.2,2.1,3.2,4.2
			C696.2,453.5,693.8,455.8,690.1,455.8z"/>
		<path class="st5" d="M700.7,446.7c1.2-1.9,3.4-2.5,4.9-2.5c3.7,0,5.9,2.6,5.9,5.6c0,4-3.2,6-6.3,6c-1.9,0-4.2-1.1-5.3-3
			c-0.9-1.5-1.1-2.7-1.1-4.9c0-5.6,3-10.2,8.6-10.2c1,0,2.4,0.1,3.6,0.8l-0.7,1.7c-0.9-0.6-2.2-0.7-2.9-0.7
			C703.4,439.6,701.1,442.8,700.7,446.7z M702.4,446.9c-0.9,0.7-1.4,1.9-1.4,3.1c0,2.6,2.2,4.2,4.4,4.2c2.2,0,4.4-1.4,4.4-4.2
			c0-2.2-1.6-4.1-4.4-4.1C704.3,445.8,703.2,446.2,702.4,446.9z"/>
		<path class="st5" d="M715.6,447.6c-1.3,0-2.3-1-2.3-2.3c0-1.3,1-2.3,2.3-2.3c1.3,0,2.3,1,2.3,2.3
			C717.9,446.5,716.8,447.6,715.6,447.6z M715.6,443.8c-0.8,0-1.5,0.6-1.5,1.5c0,0.8,0.7,1.4,1.5,1.4c0.8,0,1.5-0.6,1.5-1.4
			C717,444.4,716.4,443.8,715.6,443.8z M721.2,443h1.1l-6.7,10.3h-1L721.2,443z M721.3,453.4c-1.3,0-2.3-1-2.3-2.3
			c0-1.3,1-2.3,2.3-2.3c1.3,0,2.3,1,2.3,2.3C723.6,452.4,722.6,453.4,721.3,453.4z M721.3,449.6c-0.8,0-1.4,0.6-1.4,1.5
			c0,0.8,0.6,1.4,1.4,1.4c0.8,0,1.5-0.6,1.5-1.4C722.7,450.3,722.1,449.6,721.3,449.6z"/>
	</g>
</g>
<g>
	<g>
		<path d="M716.9,921l-6,8.9v6.5h-1.6v-6.5l-6-8.9h2l4.9,7.4l4.9-7.4H716.9z"/>
		<path d="M718.5,931.7c0.1,2.1,1.7,3.6,3.8,3.6c1.6,0,2.8-0.8,3.3-2.3l1.4,0.4c-0.6,2-2.5,3.2-4.6,3.2c-3.1,0-5.4-2.4-5.4-5.5
			c0-2.9,2.2-5.4,5.1-5.4c3.3,0,5,2.3,5,5.4c0,0.2,0,0.4,0,0.5H718.5z M725.5,930.4c-0.2-1.9-1.4-3.3-3.4-3.3
			c-1.8,0-3.3,1.5-3.6,3.3H725.5z"/>
		<path d="M733.9,936.6c-2.9,0-3.8-1.9-4-3.1l1.4-0.3c0.2,0.9,0.9,2.1,2.6,2.1c1.1,0,2.2-0.6,2.2-1.7c0-1.3-1.4-1.6-2.5-1.7
			c-1.8-0.3-3.5-0.9-3.5-2.9c0-2,1.8-3.1,3.5-3.1c2.8,0,3.7,1.9,3.8,2.9l-1.4,0.3c-0.2-0.7-0.8-1.9-2.4-1.9c-1.1,0-2,0.8-2,1.7
			c0,1.3,1.4,1.5,2.5,1.7c1.7,0.2,3.5,1.1,3.5,3C737.7,935.4,736,936.6,733.9,936.6z"/>
		<path d="M741,938.8c0.9-0.7,1.6-1.5,1.7-2.4c-0.1,0.1-0.3,0.1-0.5,0.1c-0.8,0-1.3-0.5-1.3-1.3c0-0.8,0.6-1.4,1.4-1.4
			c0.9,0,1.6,0.8,1.6,1.9v0.1c0,1.4-0.7,2.7-2.1,3.7L741,938.8z"/>
		<path d="M755.2,921v15.5h-1.6V921H755.2z"/>
		<path d="M773,929.7c0-1.7-0.9-2.6-2.7-2.6c-1.8,0-2.6,1.1-2.8,2.2l-1.5-0.3c0.1-0.9,1.3-3.2,4.3-3.2c2.2,0,3.3,1,3.9,2.2
			c0.2,0.6,0.3,1.4,0.3,1.7v6.8H773v-1.9h0c-0.8,1.3-2,2-3.6,2c-2.1,0-3.5-1.3-3.5-3.1v-0.1c0-2.3,2.3-3,4.2-3h2.9V929.7z
			 M770,931.6c-1.1,0-2.6,0.4-2.6,1.8c0,1.2,1,1.9,2.3,1.9c1.9,0,3.3-1.3,3.3-3.3v-0.4H770z"/>
		<path d="M786,930.3c0-1.7-0.8-3.2-2.7-3.2c-1.8,0-2.9,1.6-2.9,3.3v6h-1.5v-10.5h1.5v1.8c0.8-1.3,1.8-2,3.4-2
			c1.5,0,2.7,0.7,3.4,2.1c0.9-1.4,2.1-2.1,3.7-2.1c2.5,0,3.9,1.8,3.9,4.2v6.5h-1.5v-6.1c0-1.8-0.8-3.2-2.7-3.2
			c-1.9,0-2.9,1.5-2.9,3.3v6.1H786V930.3z"/>
		<path d="M700.2,960.3c-2.9,0-3.8-1.9-4-3.1l1.4-0.3c0.2,0.9,0.9,2.1,2.6,2.1c1.1,0,2.2-0.6,2.2-1.7c0-1.3-1.4-1.6-2.5-1.7
			c-1.8-0.3-3.5-0.9-3.5-2.9c0-2,1.8-3.1,3.5-3.1c2.8,0,3.7,1.9,3.8,2.9l-1.4,0.3c-0.2-0.7-0.8-1.9-2.4-1.9c-1.1,0-2,0.8-2,1.7
			c0,1.3,1.4,1.5,2.5,1.7c1.7,0.2,3.5,1.1,3.5,3C703.9,959.1,702.2,960.3,700.2,960.3z"/>
		<path d="M706.9,954.9c0-3.1,2.3-5.5,5.5-5.5c3,0,5.4,2.4,5.4,5.4c0,3.1-2.4,5.5-5.5,5.5C709.2,960.3,706.9,957.9,706.9,954.9z
			 M716.2,954.9c0-2.2-1.6-4.1-3.9-4.1c-2.3,0-3.9,1.9-3.9,4.1c0,2.2,1.6,4.1,3.9,4.1C714.6,958.9,716.2,957.1,716.2,954.9z"/>
		<path d="M728.6,954c0-1.7-0.8-3.2-2.7-3.2c-1.8,0-2.9,1.6-2.9,3.3v6h-1.5v-10.5h1.5v1.8c0.8-1.3,1.8-2,3.4-2
			c1.5,0,2.7,0.7,3.4,2.1c0.9-1.4,2.1-2.1,3.7-2.1c2.5,0,3.9,1.8,3.9,4.2v6.5h-1.5V954c0-1.8-0.8-3.2-2.7-3.2
			c-1.9,0-2.9,1.5-2.9,3.3v6.1h-1.5V954z"/>
		<path d="M742.5,955.3c0.1,2.1,1.7,3.6,3.8,3.6c1.6,0,2.8-0.8,3.3-2.3l1.4,0.4c-0.6,2-2.5,3.2-4.6,3.2c-3.1,0-5.4-2.4-5.4-5.5
			c0-2.9,2.2-5.4,5.1-5.4c3.3,0,5,2.3,5,5.4c0,0.2,0,0.4,0,0.5H742.5z M749.5,954c-0.2-1.9-1.4-3.3-3.4-3.3c-1.8,0-3.3,1.5-3.6,3.3
			H749.5z"/>
		<path d="M756.7,960.1l-3.5-10.5h1.6l2.8,8.7h0l2.9-8.7h1.5l2.9,8.8h0l2.8-8.8h1.6l-3.6,10.5H764l-2.8-8.6h0l-2.8,8.6H756.7z"/>
		<path d="M780.1,954c0-1.9-1-3.2-2.9-3.2c-1.8,0-3.1,1.5-3.1,3.3v6h-1.5v-16.1h1.5v7.4c0.8-1.4,2.1-2.1,3.6-2.1c2.6,0,4,1.8,4,4.2
			v6.5h-1.5V954z"/>
		<path d="M792.3,953.3c0-1.7-0.9-2.6-2.7-2.6c-1.8,0-2.6,1.1-2.8,2.2l-1.5-0.3c0.1-0.9,1.3-3.2,4.3-3.2c2.2,0,3.3,1,3.9,2.2
			c0.2,0.6,0.3,1.4,0.3,1.7v6.8h-1.5v-1.9h0c-0.8,1.3-2,2-3.6,2c-2.1,0-3.5-1.3-3.5-3.1v-0.1c0-2.3,2.3-3,4.2-3h2.9V953.3z
			 M789.3,955.3c-1.1,0-2.6,0.4-2.6,1.8c0,1.2,1,1.9,2.3,1.9c1.9,0,3.3-1.3,3.3-3.3v-0.4H789.3z"/>
		<path d="M798.7,957.4V951h-2v-1.4h2v-3h1.5v3h2.7v1.4h-2.7v6.4c0,0.9,0.6,1.5,1.7,1.5c0.3,0,0.7,0,0.9-0.1v1.3
			c-0.3,0.1-0.9,0.2-1.2,0.2C799.4,960.2,798.7,958.9,798.7,957.4z"/>
		<path d="M701.8,982.6c2.3,0,3.2-1.7,3.5-2.5l1.4,0.5c-0.5,1.6-2.2,3.4-5,3.4c-3,0-5.4-2.3-5.4-5.4c0-3.2,2.5-5.5,5.5-5.5
			c2.4,0,4.4,1.6,4.8,3.4l-1.4,0.5c-0.2-0.8-1.3-2.4-3.5-2.4c-2.3,0-3.8,1.8-3.8,4C698,980.7,699.4,982.6,701.8,982.6z"/>
		<path d="M709.5,978.6c0-3.1,2.3-5.5,5.5-5.5c3,0,5.4,2.4,5.4,5.4c0,3.1-2.4,5.5-5.5,5.5C711.9,984,709.5,981.6,709.5,978.6z
			 M718.8,978.6c0-2.2-1.6-4.1-3.9-4.1s-3.9,1.9-3.9,4.1c0,2.2,1.6,4.1,3.9,4.1C717.2,982.6,718.8,980.8,718.8,978.6z"/>
		<path d="M731.7,977.7c0-1.9-1-3.2-2.9-3.2c-1.8,0-3.1,1.5-3.1,3.3v6h-1.5v-10.5h1.5v1.9c0.8-1.4,2.1-2.1,3.6-2.1
			c2.6,0,4,1.8,4,4.2v6.5h-1.5V977.7z"/>
		<path d="M742.2,982.6c2.3,0,3.2-1.7,3.5-2.5l1.4,0.5c-0.5,1.6-2.2,3.4-5,3.4c-3,0-5.4-2.3-5.4-5.4c0-3.2,2.5-5.5,5.4-5.5
			c2.4,0,4.4,1.6,4.8,3.4l-1.4,0.5c-0.2-0.8-1.3-2.4-3.5-2.4c-2.3,0-3.8,1.8-3.8,4C738.4,980.7,739.8,982.6,742.2,982.6z"/>
		<path d="M751.5,979c0.1,2.1,1.7,3.6,3.8,3.6c1.6,0,2.8-0.8,3.3-2.3l1.4,0.4c-0.6,2-2.5,3.2-4.6,3.2c-3.1,0-5.4-2.4-5.4-5.5
			c0-2.9,2.2-5.4,5.1-5.4c3.3,0,5,2.3,5,5.4c0,0.2,0,0.4,0,0.5H751.5z M758.5,977.7c-0.2-1.9-1.4-3.3-3.4-3.3
			c-1.8,0-3.3,1.5-3.6,3.3H758.5z"/>
		<path d="M765.2,975.4c0.8-1.6,2.2-2.3,3.4-2.3c0.1,0,0.4,0,0.5,0v1.6c-0.2,0-0.4,0-0.6,0c-2.5,0-3.3,2.1-3.3,3.9v5.2h-1.5v-10.5
			h1.5V975.4z"/>
		<path d="M779.7,977.7c0-1.9-1-3.2-2.9-3.2c-1.8,0-3.1,1.5-3.1,3.3v6h-1.5v-10.5h1.5v1.9c0.8-1.4,2.1-2.1,3.6-2.1
			c2.6,0,4,1.8,4,4.2v6.5h-1.5V977.7z"/>
		<path d="M786.4,979c0.1,2.1,1.7,3.6,3.8,3.6c1.6,0,2.8-0.8,3.3-2.3l1.4,0.4c-0.6,2-2.5,3.2-4.6,3.2c-3.1,0-5.4-2.4-5.4-5.5
			c0-2.9,2.2-5.4,5.1-5.4c3.3,0,5,2.3,5,5.4c0,0.2,0,0.4,0,0.5H786.4z M793.4,977.7c-0.2-1.9-1.4-3.3-3.4-3.3
			c-1.8,0-3.3,1.5-3.6,3.3H793.4z"/>
		<path d="M802.7,973.1c2,0,3.2,1.1,4.1,2.4v-7.7h1.5v16.1h-1.5v-2.3c-0.8,1.3-2.1,2.4-4.1,2.4c-3,0-4.9-2.6-4.9-5.5
			C797.8,975.8,799.8,973.1,802.7,973.1z M806.8,978.5c0-2.1-1.6-4-3.8-4c-2.3,0-3.7,1.8-3.7,4.1c0,2.2,1.4,4,3.7,4
			C805.3,982.6,806.8,980.7,806.8,978.5z"/>
	</g>
</g>
<g>
	<pattern  id="SVGID_3_" xlink:href="#white_2" patternTransform="matrix(0 1.4097 -1.3533 0 -24175.5137 819.3522)">
	</pattern>
	<rect x="979.4" y="558.3" class="st8" width="76.6" height="316.6"/>
</g>
<g>
	<g>
		<path class="st3" d="M991.5,539.6c0-2.1,0.9-4.3,4.1-6.2l2.7-1.7c1.7-1,3.1-2.1,3.1-4.2c0-1.8-1.6-3.5-3.9-3.5
			c-1.9,0-3.2,1.2-3.6,2.3c-0.3,0.7-0.3,1.5-0.4,1.7l-1.9-0.3c0-2.5,2.1-5.5,5.9-5.5c3.3,0,5.8,2.5,5.8,5.2c0,2.5-1.4,4-3.7,5.4
			l-2.8,1.7c-1.5,0.9-2.9,2.2-3,3.8h9.7v1.7h-11.9V539.6z"/>
		<path class="st3" d="M1006.1,535.3c0-1.9,1.3-3.5,3.7-4.3c-2.2-0.6-3.3-2.5-3.3-4c0-3.1,3.2-4.7,5.8-4.7c2.7,0,5.8,1.6,5.8,4.7
			c0,1.7-1.2,3.4-3.3,4c2.4,0.7,3.7,2.4,3.7,4.3c0,3.3-3.1,5-6.2,5C1009.3,540.3,1006.1,538.7,1006.1,535.3z M1016.7,535.3
			c0-2.3-2.4-3.4-4.3-3.4c-1.9,0-4.3,1.1-4.3,3.4c0,2.4,2.4,3.4,4.3,3.4C1014.2,538.7,1016.7,537.7,1016.7,535.3z M1008.4,527.1
			c0,2.2,2.4,3.3,3.9,3.3c1.5,0,4-1,4-3.2c0-2.1-2.3-3.1-4-3.1C1010.6,524,1008.4,525,1008.4,527.1z"/>
		<path class="st3" d="M1022.7,532c-1.3,0-2.3-1-2.3-2.3c0-1.3,1-2.3,2.3-2.3c1.3,0,2.3,1,2.3,2.3C1025,531,1024,532,1022.7,532z
			 M1022.7,528.3c-0.8,0-1.5,0.6-1.5,1.5c0,0.8,0.7,1.4,1.5,1.4c0.8,0,1.5-0.6,1.5-1.4C1024.2,528.9,1023.5,528.3,1022.7,528.3z
			 M1028.4,527.5h1.1l-6.7,10.3h-1L1028.4,527.5z M1028.4,537.9c-1.3,0-2.3-1-2.3-2.3c0-1.3,1-2.3,2.3-2.3c1.3,0,2.3,1,2.3,2.3
			C1030.7,536.8,1029.7,537.9,1028.4,537.9z M1028.4,534.1c-0.8,0-1.4,0.6-1.4,1.5c0,0.8,0.6,1.4,1.4,1.4c0.8,0,1.5-0.6,1.5-1.4
			C1029.9,534.8,1029.2,534.1,1028.4,534.1z"/>
	</g>
</g>
<g class="st4">
	<rect x="1132.7" y="614.9" width="76.6" height="260.1"/>
</g>
<g class="st4">
	<path d="M1145.5,601.9c0-2.1,0.9-4.3,4.1-6.2l2.7-1.7c1.7-1,3.1-2.1,3.1-4.2c0-1.8-1.6-3.5-3.9-3.5c-1.9,0-3.2,1.2-3.6,2.3
		c-0.3,0.7-0.3,1.5-0.4,1.7l-1.9-0.3c0-2.5,2.1-5.5,5.9-5.5c3.3,0,5.8,2.5,5.8,5.2c0,2.5-1.4,4-3.7,5.4l-2.8,1.7
		c-1.5,0.9-2.9,2.2-3,3.8h9.7v1.7h-11.9V601.9z"/>
	<path d="M1165.9,602.6c-3.1,0-5.7-1.9-6.1-4.8l1.8-0.4c0.3,2,1.9,3.5,4.3,3.5c2.4,0,4.3-1.3,4.3-3.3s-1.5-3.3-4.3-3.3h-1.8v-1.7
		h1.7c2.4,0,3.9-1.5,3.9-3.2c0-1.8-1.4-3.1-3.9-3.1c-2.4,0-3.8,1.4-4.1,3.3l-1.8-0.4c0.3-2.5,2.6-4.6,5.9-4.6c3.8,0,5.7,2.3,5.7,4.7
		c0,2-1.1,3.3-2.8,4.1v0c2,0.6,3.2,2.1,3.2,4.2C1172,600.3,1169.6,602.6,1165.9,602.6z"/>
	<path d="M1176.2,594.3c-1.3,0-2.3-1-2.3-2.3c0-1.3,1-2.3,2.3-2.3c1.3,0,2.3,1,2.3,2.3C1178.5,593.2,1177.5,594.3,1176.2,594.3z
		 M1176.2,590.5c-0.8,0-1.5,0.6-1.5,1.5c0,0.8,0.7,1.4,1.5,1.4c0.8,0,1.5-0.6,1.5-1.4C1177.6,591.2,1177,590.5,1176.2,590.5z
		 M1181.8,589.7h1.1l-6.7,10.3h-1L1181.8,589.7z M1181.9,600.1c-1.3,0-2.3-1-2.3-2.3c0-1.3,1-2.3,2.3-2.3c1.3,0,2.3,1,2.3,2.3
		C1184.2,599.1,1183.2,600.1,1181.9,600.1z M1181.9,596.3c-0.8,0-1.4,0.6-1.4,1.5c0,0.8,0.6,1.4,1.4,1.4c0.8,0,1.5-0.6,1.5-1.4
		C1183.3,597,1182.7,596.3,1181.9,596.3z"/>
</g>
<g>
	<rect x="1209.4" y="705.3" class="st3" width="76.6" height="169.6"/>
</g>
<g>
	<path class="st3" d="M1225.3,678.8l-4.2,2.5l-0.8-1.4l5.1-3.1h1.8v17.7h-1.9V678.8z"/>
	<path class="st3" d="M1234.1,678.6l-1,6c1.1-1.1,3-1.4,3.8-1.4c3.3,0,5.8,2.2,5.8,5.7c0,3.8-3.2,5.8-6.2,5.8c-2.9,0-5.7-1.9-6-4.8
		l1.8-0.4c0.3,2,2,3.5,4.3,3.5c1.8,0,4.3-1.1,4.3-4s-2.1-4.1-4.3-4.1c-1.3,0-2.8,0.7-3.7,1.8l-1.7-0.7l1.5-9.1h9.3v1.7H1234.1z"/>
	<path class="st3" d="M1246.7,686.4c-1.3,0-2.3-1-2.3-2.3c0-1.3,1-2.3,2.3-2.3c1.3,0,2.3,1,2.3,2.3
		C1249.1,685.4,1248,686.4,1246.7,686.4z M1246.7,682.7c-0.8,0-1.5,0.6-1.5,1.5c0,0.8,0.7,1.4,1.5,1.4c0.8,0,1.5-0.6,1.5-1.4
		C1248.2,683.3,1247.5,682.7,1246.7,682.7z M1252.4,681.9h1.1l-6.7,10.3h-1L1252.4,681.9z M1252.4,692.3c-1.3,0-2.3-1-2.3-2.3
		c0-1.3,1-2.3,2.3-2.3c1.3,0,2.3,1,2.3,2.3C1254.8,691.2,1253.7,692.3,1252.4,692.3z M1252.4,688.5c-0.8,0-1.4,0.6-1.4,1.5
		c0,0.8,0.6,1.4,1.4,1.4c0.8,0,1.5-0.6,1.5-1.4C1253.9,689.1,1253.2,688.5,1252.4,688.5z"/>
</g>
<g>
	<rect x="1056.1" y="400" class="st5" width="76.6" height="475"/>
</g>
<g>
	<g>
		<path class="st5" d="M1075.5,387.8v-4.2h-9.2v-2l8.7-11.4h2.3V382h3v1.6h-3v4.2H1075.5z M1075.5,382v-9.9l-7.5,9.9H1075.5z"/>
		<path class="st5" d="M1082.2,387.3c0-2.1,0.9-4.3,4.1-6.2l2.7-1.7c1.7-1,3.1-2.1,3.1-4.2c0-1.8-1.6-3.5-3.9-3.5
			c-1.9,0-3.2,1.2-3.6,2.3c-0.3,0.7-0.3,1.5-0.4,1.7l-1.9-0.3c0-2.5,2.1-5.5,5.9-5.5c3.3,0,5.8,2.5,5.8,5.2c0,2.5-1.4,4-3.7,5.4
			l-2.8,1.7c-1.5,0.9-2.9,2.2-3,3.8h9.7v1.7h-11.9V387.3z"/>
		<path class="st5" d="M1098.2,379.7c-1.3,0-2.3-1-2.3-2.3c0-1.3,1-2.3,2.3-2.3c1.3,0,2.3,1,2.3,2.3
			C1100.6,378.7,1099.5,379.7,1098.2,379.7z M1098.2,375.9c-0.8,0-1.5,0.6-1.5,1.5c0,0.8,0.7,1.4,1.5,1.4c0.8,0,1.5-0.6,1.5-1.4
			C1099.7,376.6,1099,375.9,1098.2,375.9z M1103.9,375.2h1.1l-6.7,10.3h-1L1103.9,375.2z M1103.9,385.5c-1.3,0-2.3-1-2.3-2.3
			c0-1.3,1-2.3,2.3-2.3c1.3,0,2.3,1,2.3,2.3C1106.3,384.5,1105.2,385.5,1103.9,385.5z M1103.9,381.8c-0.8,0-1.4,0.6-1.4,1.5
			c0,0.8,0.6,1.4,1.4,1.4c0.8,0,1.5-0.6,1.5-1.4C1105.4,382.4,1104.7,381.8,1103.9,381.8z"/>
	</g>
</g>
<g>
	<g>
		<path d="M1093.8,921v15.5h-1.7l-9.3-13.2v13.2h-1.6V921h1.9l9.1,12.9V921H1093.8z"/>
		<path d="M1097.8,931.2c0-3.1,2.3-5.5,5.5-5.5c3,0,5.4,2.4,5.4,5.4c0,3.1-2.4,5.5-5.5,5.5C1100.2,936.6,1097.8,934.2,1097.8,931.2z
			 M1107.2,931.2c0-2.2-1.6-4.1-3.9-4.1c-2.3,0-3.9,1.9-3.9,4.1c0,2.2,1.6,4.1,3.9,4.1C1105.6,935.3,1107.2,933.4,1107.2,931.2z"/>
		<path d="M1112.1,938.8c0.9-0.7,1.6-1.5,1.7-2.4c-0.1,0.1-0.3,0.1-0.5,0.1c-0.8,0-1.3-0.5-1.3-1.3c0-0.8,0.6-1.4,1.4-1.4
			c0.9,0,1.6,0.8,1.6,1.9v0.1c0,1.4-0.7,2.7-2.1,3.7L1112.1,938.8z"/>
		<path d="M1126.3,921v15.5h-1.6V921H1126.3z"/>
		<path d="M1145.3,930.3c0-1.9-1-3.2-2.9-3.2c-1.8,0-3.1,1.5-3.1,3.3v6h-1.5v-16.1h1.5v7.4c0.8-1.4,2.1-2.1,3.6-2.1
			c2.6,0,4,1.8,4,4.2v6.5h-1.5V930.3z"/>
		<path d="M1157.5,929.7c0-1.7-0.9-2.6-2.7-2.6c-1.8,0-2.6,1.1-2.8,2.2l-1.5-0.3c0.1-0.9,1.3-3.2,4.3-3.2c2.2,0,3.3,1,3.9,2.2
			c0.2,0.6,0.3,1.4,0.3,1.7v6.8h-1.5v-1.9h0c-0.8,1.3-2,2-3.6,2c-2.1,0-3.5-1.3-3.5-3.1v-0.1c0-2.3,2.3-3,4.2-3h2.9V929.7z
			 M1154.5,931.6c-1.1,0-2.6,0.4-2.6,1.8c0,1.2,1,1.9,2.3,1.9c1.9,0,3.3-1.3,3.3-3.3v-0.4H1154.5z"/>
		<path d="M1161.8,925.9h1.7l3.6,8.8l3.7-8.8h1.6l-4.5,10.5h-1.6L1161.8,925.9z"/>
		<path d="M1176,931.7c0.1,2.1,1.7,3.6,3.8,3.6c1.6,0,2.8-0.8,3.3-2.3l1.4,0.4c-0.6,2-2.5,3.2-4.6,3.2c-3.1,0-5.4-2.4-5.4-5.5
			c0-2.9,2.2-5.4,5.1-5.4c3.3,0,5,2.3,5,5.4c0,0.2,0,0.4,0,0.5H1176z M1183,930.4c-0.2-1.9-1.4-3.3-3.4-3.3c-1.8,0-3.3,1.5-3.6,3.3
			H1183z"/>
		<path d="M1075.6,954c0-1.9-1-3.2-2.9-3.2c-1.8,0-3.1,1.5-3.1,3.3v6h-1.5v-10.5h1.5v1.9c0.8-1.4,2.1-2.1,3.6-2.1c2.6,0,4,1.8,4,4.2
			v6.5h-1.5V954z"/>
		<path d="M1080.7,954.9c0-3.1,2.3-5.5,5.5-5.5c3,0,5.4,2.4,5.4,5.4c0,3.1-2.4,5.5-5.5,5.5C1083.1,960.3,1080.7,957.9,1080.7,954.9z
			 M1090,954.9c0-2.2-1.6-4.1-3.9-4.1s-3.9,1.9-3.9,4.1c0,2.2,1.6,4.1,3.9,4.1C1088.4,958.9,1090,957.1,1090,954.9z"/>
		<path d="M1106.4,958.9c2.3,0,3.2-1.7,3.5-2.5l1.4,0.5c-0.5,1.6-2.2,3.4-5,3.4c-3,0-5.4-2.3-5.4-5.4c0-3.2,2.5-5.5,5.4-5.5
			c2.4,0,4.4,1.6,4.8,3.4l-1.4,0.5c-0.2-0.8-1.3-2.4-3.5-2.4c-2.3,0-3.8,1.8-3.8,4S1104,958.9,1106.4,958.9z"/>
		<path d="M1114.1,954.9c0-3.1,2.3-5.5,5.5-5.5c3,0,5.4,2.4,5.4,5.4c0,3.1-2.4,5.5-5.5,5.5C1116.5,960.3,1114.1,957.9,1114.1,954.9z
			 M1123.4,954.9c0-2.2-1.6-4.1-3.9-4.1s-3.9,1.9-3.9,4.1c0,2.2,1.6,4.1,3.9,4.1C1121.8,958.9,1123.4,957.1,1123.4,954.9z"/>
		<path d="M1136.3,954c0-1.9-1-3.2-2.9-3.2c-1.8,0-3.1,1.5-3.1,3.3v6h-1.5v-10.5h1.5v1.9c0.8-1.4,2.1-2.1,3.6-2.1c2.6,0,4,1.8,4,4.2
			v6.5h-1.5V954z"/>
		<path d="M1146.8,958.9c2.3,0,3.2-1.7,3.5-2.5l1.4,0.5c-0.5,1.6-2.2,3.4-5,3.4c-3,0-5.4-2.3-5.4-5.4c0-3.2,2.5-5.5,5.4-5.5
			c2.4,0,4.4,1.6,4.8,3.4l-1.4,0.5c-0.2-0.8-1.3-2.4-3.5-2.4c-2.3,0-3.8,1.8-3.8,4S1144.4,958.9,1146.8,958.9z"/>
		<path d="M1156.1,955.3c0.1,2.1,1.7,3.6,3.8,3.6c1.6,0,2.8-0.8,3.3-2.3l1.4,0.4c-0.6,2-2.5,3.2-4.6,3.2c-3.1,0-5.4-2.4-5.4-5.5
			c0-2.9,2.2-5.4,5.1-5.4c3.3,0,5,2.3,5,5.4c0,0.2,0,0.4,0,0.5H1156.1z M1163.1,954c-0.2-1.9-1.4-3.3-3.4-3.3
			c-1.8,0-3.3,1.5-3.6,3.3H1163.1z"/>
		<path d="M1169.8,951.7c0.8-1.6,2.2-2.3,3.4-2.3c0.1,0,0.4,0,0.5,0v1.6c-0.2,0-0.4,0-0.6,0c-2.5,0-3.3,2.1-3.3,3.9v5.2h-1.5v-10.5
			h1.5V951.7z"/>
		<path d="M1184.3,954c0-1.9-1-3.2-2.9-3.2c-1.8,0-3.1,1.5-3.1,3.3v6h-1.5v-10.5h1.5v1.9c0.8-1.4,2.1-2.1,3.6-2.1c2.6,0,4,1.8,4,4.2
			v6.5h-1.5V954z"/>
		<path d="M1193.4,960.3c-2.9,0-3.8-1.9-4-3.1l1.4-0.3c0.2,0.9,0.9,2.1,2.6,2.1c1.1,0,2.2-0.6,2.2-1.7c0-1.3-1.4-1.6-2.5-1.7
			c-1.8-0.3-3.5-0.9-3.5-2.9c0-2,1.8-3.1,3.5-3.1c2.8,0,3.7,1.9,3.8,2.9l-1.4,0.3c-0.2-0.7-0.8-1.9-2.4-1.9c-1.1,0-2,0.8-2,1.7
			c0,1.3,1.4,1.5,2.5,1.7c1.7,0.2,3.5,1.1,3.5,3C1197.2,959.1,1195.5,960.3,1193.4,960.3z"/>
	</g>
</g>
<g>
	<g>
		<path d="M278.8,309.6l0,1.5l-8.5,4.1l8.5,4l0,1.6l-10.2-4.8l0-1.4L278.8,309.6z"/>
		<path d="M285.4,308.6l-0.9,5.3c1-1,2.6-1.2,3.4-1.2c2.9,0,5.1,1.9,5.1,5c0,3.4-2.7,5.1-5.4,5.1c-2.6,0-5-1.6-5.3-4.2l1.6-0.3
			c0.3,1.8,1.8,3.1,3.8,3.1c1.5,0,3.7-1,3.7-3.6c0-2.5-1.9-3.6-3.7-3.6c-1.1,0-2.4,0.6-3.3,1.6l-1.5-0.6l1.3-8l8.1,0l0,1.5
			L285.4,308.6z"/>
		<path d="M308.9,322.6c-2,0-3.2-1-4.1-2.3l0,7.4l-1.5,0l-0.1-15.7l1.5,0l0,2.3c0.8-1.3,2.1-2.5,4.1-2.5c3,0,5,2.7,5,5.4
			C313.8,320,311.9,322.6,308.9,322.6z M312.2,317.2c0-2.2-1.4-4.1-3.7-4.1c-2.2,0-3.8,1.9-3.8,4.1c0,2.2,1.6,4.1,3.8,4.1
			C310.9,321.3,312.2,319.4,312.2,317.2z"/>
		<path d="M318.3,317.6c0.1,2.1,1.7,3.6,3.8,3.6c1.6,0,2.8-0.8,3.3-2.3l1.4,0.4c-0.6,2-2.5,3.2-4.6,3.2c-3.1,0-5.4-2.4-5.4-5.4
			c0-2.9,2.2-5.4,5.1-5.5c3.3,0,5,2.3,5,5.4c0,0.2,0,0.4,0,0.5L318.3,317.6z M325.3,316.3c-0.2-1.9-1.4-3.3-3.4-3.3
			c-1.8,0-3.3,1.5-3.5,3.3L325.3,316.3z"/>
		<path d="M329.7,317.2c0-3.1,2.3-5.5,5.4-5.5c3,0,5.4,2.4,5.5,5.4c0,3.1-2.4,5.5-5.4,5.5C332.1,322.6,329.7,320.2,329.7,317.2z
			 M339,317.1c0-2.2-1.6-4.1-3.9-4.1c-2.3,0-3.8,1.9-3.8,4.1c0,2.2,1.6,4.1,3.9,4.1C337.4,321.2,339,319.3,339,317.1z"/>
		<path d="M349.9,322.5c-2,0-3.2-1-4.1-2.3l0,7.4l-1.5,0l-0.1-15.7l1.5,0l0,2.3c0.8-1.3,2.1-2.5,4.1-2.5c3,0,5,2.7,5,5.4
			C354.9,319.9,352.9,322.5,349.9,322.5z M353.3,317.1c0-2.2-1.4-4.1-3.7-4.1c-2.2,0-3.8,1.9-3.8,4.1c0,2.2,1.6,4.1,3.8,4.1
			C351.9,321.1,353.3,319.3,353.3,317.1z"/>
		<path d="M360.1,306.2l0.1,16.1l-1.6,0l-0.1-16.1L360.1,306.2z"/>
		<path d="M365.4,317.5c0.1,2.1,1.7,3.6,3.8,3.6c1.6,0,2.8-0.8,3.3-2.3l1.4,0.4c-0.6,2-2.5,3.2-4.6,3.2c-3.1,0-5.4-2.4-5.4-5.4
			c0-2.9,2.2-5.4,5.1-5.5c3.3,0,5,2.3,5,5.4c0,0.2,0,0.4,0,0.5L365.4,317.5z M372.4,316.1c-0.2-1.9-1.4-3.3-3.4-3.3
			c-1.8,0-3.3,1.5-3.5,3.3L372.4,316.1z"/>
	</g>
</g>
<g>
	<g>
		<path d="M271.1,262.3l-1.7,4l-1.7,0l6.6-15.5l1.8,0l6.7,15.4l-1.7,0l-1.7-3.9L271.1,262.3z M271.7,260.8l7.2,0l-3.6-8.3
			L271.7,260.8z"/>
		<path d="M287.2,250.1l0.1,16.1l-1.6,0l-0.1-16.1L287.2,250.1z"/>
		<path d="M293.2,250.1l0.1,16.1l-1.6,0l-0.1-16.1L293.2,250.1z"/>
	</g>
</g>
<g>
	
		<ellipse transform="matrix(1 -3.820067e-03 3.820067e-03 1 -1.2114 0.8924)" class="st5" cx="233" cy="317.5" rx="18.8" ry="18.8"/>
</g>
<g>
	<g>
		<path d="M270.9,369.3c1-1.7,3-2.2,4.3-2.2c3.3,0,5.2,2.3,5.2,4.9c0,3.5-2.8,5.3-5.5,5.3c-1.7,0-3.7-1-4.6-2.6
			c-0.8-1.3-1-2.3-1-4.3c0-4.9,2.6-8.9,7.5-8.9c0.9,0,2.1,0.1,3.2,0.7l-0.6,1.5c-0.8-0.5-1.9-0.6-2.6-0.6
			C273.2,363,271.2,365.9,270.9,369.3z M272.3,369.4c-0.7,0.6-1.2,1.6-1.2,2.7c0,2.3,1.9,3.7,3.8,3.7c1.9,0,3.8-1.3,3.8-3.7
			c0-1.9-1.5-3.6-3.8-3.6C273.9,368.5,273,368.8,272.3,369.4z"/>
		<path d="M290.3,371.6l0-1.5l9.1,0l0,1.5L290.3,371.6z"/>
		<path d="M314.6,377.1c-2.7,0-5-1.6-5.3-4.2l1.6-0.3c0.3,1.8,1.7,3.1,3.8,3.1c2.1,0,3.7-1.2,3.7-2.9c0-1.8-1.3-2.9-3.7-2.8l-1.5,0
			l0-1.5l1.5,0c2.1,0,3.4-1.3,3.4-2.8c0-1.6-1.2-2.7-3.4-2.7c-2.1,0-3.3,1.3-3.6,2.9l-1.6-0.3c0.3-2.2,2.3-4.1,5.2-4.1
			c3.4,0,5,2,5,4.1c0,1.8-1,2.9-2.5,3.6v0c1.8,0.5,2.8,1.9,2.8,3.7C320,375.1,317.9,377.1,314.6,377.1z"/>
		<path d="M323.3,369.2c0-3.8,2.2-7.9,6.4-8c4.2,0,6.4,4,6.4,7.8c0,3.8-2.1,7.9-6.4,7.9C325.4,377.1,323.3,373.1,323.3,369.2z
			 M324.9,369.2c0,2.8,1.4,6.4,4.8,6.4c3.3,0,4.7-3.6,4.7-6.4c0-2.8-1.5-6.4-4.8-6.4C326.3,362.8,324.9,366.4,324.9,369.2z"/>
	</g>
</g>
<g class="st4">
	<ellipse transform="matrix(1 -3.820067e-03 3.820067e-03 1 -1.4196 0.8936)" cx="233.2" cy="372.1" rx="18.8" ry="18.8"/>
</g>
<g>
	<g>
		<path d="M274.6,431.8c-2.7,0-5-1.6-5.3-4.2l1.6-0.3c0.3,1.8,1.7,3.1,3.8,3.1c2.1,0,3.7-1.2,3.7-2.9c0-1.8-1.3-2.9-3.7-2.8l-1.5,0
			l0-1.5l1.5,0c2.1,0,3.4-1.3,3.4-2.8c0-1.6-1.2-2.7-3.4-2.7c-2.1,0-3.3,1.3-3.6,2.9l-1.6-0.3c0.3-2.2,2.3-4.1,5.2-4.1
			c3.4,0,5,2,5,4.1c0,1.8-1,2.9-2.5,3.6v0c1.8,0.5,2.8,1.9,2.8,3.7C279.9,429.7,277.8,431.8,274.6,431.8z"/>
		<path d="M283.2,423.9c0-3.8,2.2-7.9,6.4-8c4.2,0,6.4,4,6.4,7.8c0,3.8-2.1,7.9-6.4,7.9C285.4,431.8,283.2,427.8,283.2,423.9z
			 M284.9,423.8c0,2.8,1.4,6.4,4.8,6.4c3.3,0,4.7-3.6,4.7-6.4c0-2.8-1.5-6.4-4.8-6.4S284.9,421.1,284.9,423.8z"/>
		<path d="M303.3,428.9l0-4.1l-4.1,0l0-1.5l4.1,0l0-4l1.5,0l0,4l4.1,0l0,1.5l-4.1,0l0,4.1L303.3,428.9z"/>
		<path d="M324.7,431.6c-2,0-3.2-1-4.1-2.3l0,7.4l-1.5,0l-0.1-15.7l1.5,0l0,2.3c0.8-1.3,2.1-2.5,4.1-2.5c3,0,5,2.7,5,5.4
			C329.6,429,327.7,431.6,324.7,431.6z M328.1,426.2c0-2.2-1.4-4.1-3.7-4.1c-2.2,0-3.8,1.9-3.8,4.1c0,2.2,1.6,4.1,3.8,4.1
			C326.7,430.2,328.1,428.4,328.1,426.2z"/>
		<path d="M334.1,426.6c0.1,2.1,1.7,3.6,3.8,3.6c1.6,0,2.8-0.8,3.3-2.3l1.4,0.4c-0.6,2-2.5,3.2-4.6,3.2c-3.1,0-5.4-2.4-5.4-5.4
			c0-2.9,2.2-5.4,5.1-5.5c3.3,0,5,2.3,5,5.4c0,0.2,0,0.4,0,0.5L334.1,426.6z M341.1,425.3c-0.2-1.9-1.4-3.3-3.4-3.3
			c-1.8,0-3.3,1.5-3.5,3.3L341.1,425.3z"/>
		<path d="M345.5,426.1c0-3.1,2.3-5.5,5.4-5.5c3,0,5.4,2.4,5.5,5.4c0,3.1-2.4,5.5-5.4,5.5C347.9,431.5,345.5,429.1,345.5,426.1z
			 M354.9,426.1c0-2.2-1.6-4.1-3.9-4.1c-2.3,0-3.8,1.9-3.8,4.1c0,2.2,1.6,4.1,3.9,4.1C353.3,430.2,354.9,428.3,354.9,426.1z"/>
		<path d="M365.7,431.5c-2,0-3.2-1-4.1-2.3l0,7.4l-1.5,0l-0.1-15.7l1.5,0l0,2.3c0.8-1.3,2.1-2.5,4.1-2.5c3,0,5,2.7,5,5.4
			C370.7,428.8,368.8,431.4,365.7,431.5z M369.1,426c0-2.2-1.4-4.1-3.7-4.1c-2.2,0-3.8,1.9-3.8,4.1c0,2.2,1.6,4.1,3.8,4.1
			C367.8,430.1,369.1,428.3,369.1,426z"/>
		<path d="M375.9,415.2l0.1,16.1l-1.6,0l-0.1-16.1L375.9,415.2z"/>
		<path d="M381.2,426.4c0.1,2.1,1.7,3.6,3.8,3.6c1.6,0,2.8-0.8,3.3-2.3l1.4,0.4c-0.6,2-2.5,3.2-4.6,3.2c-3.1,0-5.4-2.4-5.4-5.5
			c0-2.9,2.2-5.4,5.1-5.5c3.3,0,5,2.3,5,5.4c0,0.2,0,0.4,0,0.5L381.2,426.4z M388.2,425.1c-0.2-1.9-1.4-3.3-3.4-3.3
			c-1.8,0-3.3,1.5-3.5,3.3L388.2,425.1z"/>
	</g>
</g>
<g>
	
		<ellipse transform="matrix(1 -3.820067e-03 3.820067e-03 1 -1.6279 0.8948)" class="st3" cx="233.4" cy="426.6" rx="18.8" ry="18.8"/>
</g>
<g>
	<pattern  id="SVGID_4_" xlink:href="#white_2" patternTransform="matrix(0 1.4097 -1.3533 0 -24175.5137 819.3522)">
	</pattern>
	<circle class="st9" cx="232.8" cy="261.2" r="18.8"/>
</g>
</svg>
