<?xml version="1.0" encoding="utf-8"?>
<!-- Generator: Adobe Illustrator 21.1.0, SVG Export Plug-In . SVG Version: 6.00 Build 0)  -->
<svg version="1.1" id="graphNineCyber" xmlns="http://www.w3.org/2000/svg" xmlns:xlink="http://www.w3.org/1999/xlink" x="0px"
	 y="0px" viewBox="0 0 1500 1053" style="enable-background:new 0 0 1500 1053;" xml:space="preserve">
<style type="text/css">
	.st0{fill:none;}
	.st1{fill:#0000FF;}
	.st2{fill:#F6F6F8;}
	.st3{opacity:0.9;}
	.st4{fill:#FF8F4E;}
	.st5{fill:#F76C6C;}
	.st6{font-family:'GorditaRegular';}
	.st7{font-size:13.2055px;}
	.st8{fill:url(#SVGID_1_);}
	.st9{fill:url(#SVGID_2_);}
	.st10{fill:none;stroke:#000000;stroke-width:0.75;stroke-miterlimit:10;}
	.st11{fill:#FFFFFF;}
	.st12{font-size:16.5069px;}
	.st13{fill:url(#SVGID_5_);}
	.st14{fill:url(#SVGID_6_);}
</style>
<pattern  y="1053" width="240" height="240" patternUnits="userSpaceOnUse" id="bleu_2" viewBox="1 -241 240 240" style="overflow:visible;">
	<g>
		<rect x="1" y="-241" class="st0" width="240" height="240"/>
		<g>
			<g>
				<path class="st1" d="M241,0c-0.3,0-0.5-0.1-0.7-0.3C240.1-0.5,240-0.7,240-1c0-0.3,0.1-0.5,0.3-0.7c0.4-0.4,1-0.4,1.4,0
					c0.2,0.2,0.3,0.4,0.3,0.7c0,0.3-0.1,0.5-0.3,0.7C241.5-0.1,241.3,0,241,0z"/>
			</g>
		</g>
		<g>
			<g>
				<path class="st1" d="M1,0C0.7,0,0.5-0.1,0.3-0.3C0.1-0.5,0-0.7,0-1c0-0.3,0.1-0.5,0.3-0.7c0.4-0.4,1-0.4,1.4,0
					C1.9-1.5,2-1.3,2-1c0,0.3-0.1,0.5-0.3,0.7C1.5-0.1,1.3,0,1,0z"/>
				<path class="st1" d="M230-1c0-0.6,0.4-1,1-1l0,0c0.6,0,1,0.4,1,1l0,0c0,0.5-0.4,1-1,1l0,0C230.4,0,230-0.5,230-1z M220-1
					c0-0.6,0.4-1,1-1l0,0c0.6,0,1,0.4,1,1l0,0c0,0.5-0.4,1-1,1l0,0C220.4,0,220-0.5,220-1z M210-1c0-0.6,0.4-1,1-1l0,0
					c0.6,0,1,0.4,1,1l0,0c0,0.5-0.4,1-1,1l0,0C210.4,0,210-0.5,210-1z M200-1c0-0.6,0.4-1,1-1l0,0c0.6,0,1,0.4,1,1l0,0
					c0,0.5-0.4,1-1,1l0,0C200.4,0,200-0.5,200-1z M190-1c0-0.6,0.4-1,1-1l0,0c0.6,0,1,0.4,1,1l0,0c0,0.5-0.4,1-1,1l0,0
					C190.4,0,190-0.5,190-1z M180-1c0-0.6,0.4-1,1-1l0,0c0.6,0,1,0.4,1,1l0,0c0,0.5-0.4,1-1,1l0,0C180.4,0,180-0.5,180-1z M170-1
					c0-0.6,0.4-1,1-1l0,0c0.6,0,1,0.4,1,1l0,0c0,0.5-0.4,1-1,1l0,0C170.4,0,170-0.5,170-1z M160-1c0-0.6,0.4-1,1-1l0,0
					c0.6,0,1,0.4,1,1l0,0c0,0.5-0.4,1-1,1l0,0C160.4,0,160-0.5,160-1z M150-1c0-0.6,0.4-1,1-1l0,0c0.6,0,1,0.4,1,1l0,0
					c0,0.5-0.4,1-1,1l0,0C150.4,0,150-0.5,150-1z M140-1c0-0.6,0.4-1,1-1l0,0c0.6,0,1,0.4,1,1l0,0c0,0.5-0.4,1-1,1l0,0
					C140.4,0,140-0.5,140-1z M130-1c0-0.6,0.4-1,1-1l0,0c0.6,0,1,0.4,1,1l0,0c0,0.5-0.4,1-1,1l0,0C130.4,0,130-0.5,130-1z M120-1
					c0-0.6,0.4-1,1-1l0,0c0.6,0,1,0.4,1,1l0,0c0,0.5-0.4,1-1,1l0,0C120.4,0,120-0.5,120-1z M110-1c0-0.6,0.4-1,1-1l0,0
					c0.6,0,1,0.4,1,1l0,0c0,0.5-0.4,1-1,1l0,0C110.4,0,110-0.5,110-1z M100-1c0-0.6,0.4-1,1-1l0,0c0.6,0,1,0.4,1,1l0,0
					c0,0.5-0.4,1-1,1l0,0C100.4,0,100-0.5,100-1z M90-1c0-0.6,0.4-1,1-1l0,0c0.6,0,1,0.4,1,1l0,0c0,0.5-0.4,1-1,1l0,0
					C90.4,0,90-0.5,90-1z M80-1c0-0.6,0.4-1,1-1l0,0c0.6,0,1,0.4,1,1l0,0c0,0.5-0.4,1-1,1l0,0C80.4,0,80-0.5,80-1z M70-1
					c0-0.6,0.4-1,1-1l0,0c0.6,0,1,0.4,1,1l0,0c0,0.5-0.4,1-1,1l0,0C70.4,0,70-0.5,70-1z M60-1c0-0.6,0.4-1,1-1l0,0c0.6,0,1,0.4,1,1
					l0,0c0,0.5-0.4,1-1,1l0,0C60.4,0,60-0.5,60-1z M50-1c0-0.6,0.4-1,1-1l0,0c0.6,0,1,0.4,1,1l0,0c0,0.5-0.4,1-1,1l0,0
					C50.4,0,50-0.5,50-1z M40-1c0-0.6,0.4-1,1-1l0,0c0.6,0,1,0.4,1,1l0,0c0,0.5-0.4,1-1,1l0,0C40.4,0,40-0.5,40-1z M30-1
					c0-0.6,0.4-1,1-1l0,0c0.6,0,1,0.4,1,1l0,0c0,0.5-0.4,1-1,1l0,0C30.4,0,30-0.5,30-1z M20-1c0-0.6,0.4-1,1-1l0,0c0.6,0,1,0.4,1,1
					l0,0c0,0.5-0.4,1-1,1l0,0C20.4,0,20-0.5,20-1z M10-1c0-0.6,0.4-1,1-1l0,0c0.6,0,1,0.4,1,1l0,0c0,0.5-0.4,1-1,1l0,0
					C10.4,0,10-0.5,10-1z"/>
				<path class="st1" d="M241,0c-0.3,0-0.5-0.1-0.7-0.3C240.1-0.5,240-0.7,240-1c0-0.3,0.1-0.5,0.3-0.7c0.4-0.4,1-0.4,1.4,0
					c0.2,0.2,0.3,0.4,0.3,0.7c0,0.3-0.1,0.5-0.3,0.7C241.5-0.1,241.3,0,241,0z"/>
			</g>
		</g>
		<g>
			<g>
				<path class="st1" d="M1,0C0.7,0,0.5-0.1,0.3-0.3C0.1-0.5,0-0.7,0-1c0-0.3,0.1-0.5,0.3-0.7c0.4-0.4,1-0.4,1.4,0
					C1.9-1.5,2-1.3,2-1c0,0.3-0.1,0.5-0.3,0.7C1.5-0.1,1.3,0,1,0z"/>
			</g>
		</g>
		<g>
			<g>
				<path class="st1" d="M241-240c-0.3,0-0.5-0.1-0.7-0.3c-0.2-0.2-0.3-0.5-0.3-0.7c0-0.3,0.1-0.5,0.3-0.7c0.4-0.4,1-0.4,1.4,0
					c0.2,0.2,0.3,0.4,0.3,0.7c0,0.3-0.1,0.5-0.3,0.7C241.5-240.1,241.3-240,241-240z"/>
			</g>
			<g>
				<path class="st1" d="M241-230c-0.3,0-0.5-0.1-0.7-0.3c-0.2-0.2-0.3-0.5-0.3-0.7c0-0.1,0-0.3,0.1-0.4c0.1-0.1,0.1-0.2,0.2-0.3
					c0.3-0.3,0.7-0.4,1.1-0.2c0.1,0,0.2,0.1,0.3,0.2c0.1,0.1,0.2,0.2,0.2,0.3c0.1,0.1,0.1,0.3,0.1,0.4c0,0.3-0.1,0.5-0.3,0.7
					C241.5-230.1,241.3-230,241-230z"/>
			</g>
			<g>
				<path class="st1" d="M241-220c-0.3,0-0.5-0.1-0.7-0.3c-0.2-0.2-0.3-0.5-0.3-0.7c0-0.3,0.1-0.5,0.3-0.7c0.4-0.4,1-0.4,1.4,0
					c0.2,0.2,0.3,0.4,0.3,0.7c0,0.3-0.1,0.5-0.3,0.7C241.5-220.1,241.3-220,241-220z"/>
			</g>
			<g>
				<path class="st1" d="M241-210c-0.3,0-0.5-0.1-0.7-0.3c-0.2-0.2-0.3-0.5-0.3-0.7c0-0.3,0.1-0.5,0.3-0.7c0.4-0.4,1-0.4,1.4,0
					c0.2,0.2,0.3,0.4,0.3,0.7c0,0.3-0.1,0.5-0.3,0.7C241.5-210.1,241.3-210,241-210z"/>
			</g>
			<g>
				<path class="st1" d="M241-200c-0.3,0-0.5-0.1-0.7-0.3c-0.2-0.2-0.3-0.5-0.3-0.7c0-0.3,0.1-0.5,0.3-0.7c0.4-0.4,1-0.4,1.4,0
					c0.2,0.2,0.3,0.4,0.3,0.7c0,0.3-0.1,0.5-0.3,0.7C241.5-200.1,241.3-200,241-200z"/>
			</g>
			<g>
				<path class="st1" d="M241-190c-0.3,0-0.5-0.1-0.7-0.3c-0.1-0.1-0.2-0.2-0.2-0.3c0-0.1-0.1-0.3-0.1-0.4s0-0.3,0.1-0.4
					c0.1-0.1,0.1-0.2,0.2-0.3c0.4-0.4,1-0.4,1.4,0c0.1,0.1,0.2,0.2,0.2,0.3c0.1,0.1,0.1,0.3,0.1,0.4s0,0.3-0.1,0.4
					c-0.1,0.1-0.1,0.2-0.2,0.3C241.5-190.1,241.3-190,241-190z"/>
			</g>
			<g>
				<path class="st1" d="M241-180c-0.3,0-0.5-0.1-0.7-0.3c-0.2-0.2-0.3-0.5-0.3-0.7c0-0.3,0.1-0.5,0.3-0.7c0.4-0.4,1-0.4,1.4,0
					c0.2,0.2,0.3,0.4,0.3,0.7c0,0.3-0.1,0.5-0.3,0.7C241.5-180.1,241.3-180,241-180z"/>
			</g>
			<g>
				<path class="st1" d="M241-170c-0.3,0-0.5-0.1-0.7-0.3c-0.2-0.2-0.3-0.5-0.3-0.7c0-0.3,0.1-0.5,0.3-0.7c0.4-0.4,1-0.4,1.4,0
					c0.2,0.2,0.3,0.4,0.3,0.7c0,0.3-0.1,0.5-0.3,0.7C241.5-170.1,241.3-170,241-170z"/>
			</g>
			<g>
				<path class="st1" d="M241-160c-0.3,0-0.5-0.1-0.7-0.3c-0.2-0.2-0.3-0.5-0.3-0.7c0-0.3,0.1-0.5,0.3-0.7c0.4-0.4,1-0.4,1.4,0
					c0.2,0.2,0.3,0.4,0.3,0.7c0,0.3-0.1,0.5-0.3,0.7C241.5-160.1,241.3-160,241-160z"/>
			</g>
			<g>
				<path class="st1" d="M241-150c-0.1,0-0.3,0-0.4-0.1c-0.1,0-0.2-0.1-0.3-0.2c-0.2-0.2-0.3-0.5-0.3-0.7c0-0.3,0.1-0.5,0.3-0.7
					c0.4-0.4,1-0.4,1.4,0c0.2,0.2,0.3,0.4,0.3,0.7c0,0.3-0.1,0.5-0.3,0.7C241.5-150.1,241.3-150,241-150z"/>
			</g>
			<g>
				<path class="st1" d="M241-140c-0.3,0-0.5-0.1-0.7-0.3c-0.2-0.2-0.3-0.5-0.3-0.7c0-0.3,0.1-0.5,0.3-0.7c0.4-0.4,1-0.4,1.4,0
					c0.2,0.2,0.3,0.4,0.3,0.7c0,0.3-0.1,0.5-0.3,0.7C241.5-140.1,241.3-140,241-140z"/>
			</g>
			<g>
				<path class="st1" d="M241-130c-0.3,0-0.5-0.1-0.7-0.3c-0.2-0.2-0.3-0.5-0.3-0.7c0-0.3,0.1-0.5,0.3-0.7c0.3-0.3,0.7-0.4,1.1-0.2
					c0.1,0,0.2,0.1,0.3,0.2c0.2,0.2,0.3,0.4,0.3,0.7c0,0.3-0.1,0.5-0.3,0.7C241.5-130.1,241.3-130,241-130z"/>
			</g>
			<g>
				<path class="st1" d="M241-120c-0.3,0-0.5-0.1-0.7-0.3c-0.2-0.2-0.3-0.5-0.3-0.7c0-0.1,0-0.3,0.1-0.4c0.1-0.1,0.1-0.2,0.2-0.3
					c0.4-0.4,1-0.4,1.4,0c0.2,0.2,0.3,0.4,0.3,0.7c0,0.3-0.1,0.5-0.3,0.7C241.5-120.1,241.3-120,241-120z"/>
			</g>
			<g>
				<path class="st1" d="M241-110c-0.1,0-0.3,0-0.4-0.1c-0.1,0-0.2-0.1-0.3-0.2c-0.1-0.1-0.2-0.2-0.2-0.3c0-0.1-0.1-0.3-0.1-0.4
					s0-0.3,0.1-0.4c0.1-0.1,0.1-0.2,0.2-0.3c0.4-0.4,1-0.4,1.4,0c0.1,0.1,0.2,0.2,0.2,0.3c0.1,0.1,0.1,0.3,0.1,0.4s0,0.3-0.1,0.4
					c-0.1,0.1-0.1,0.2-0.2,0.3C241.5-110.1,241.3-110,241-110z"/>
			</g>
			<g>
				<path class="st1" d="M241-100c-0.3,0-0.5-0.1-0.7-0.3c-0.2-0.2-0.3-0.5-0.3-0.7c0-0.3,0.1-0.5,0.3-0.7c0.4-0.4,1-0.4,1.4,0
					c0.2,0.2,0.3,0.4,0.3,0.7c0,0.3-0.1,0.5-0.3,0.7C241.5-100.1,241.3-100,241-100z"/>
			</g>
			<g>
				<path class="st1" d="M241-90c-0.3,0-0.5-0.1-0.7-0.3c-0.2-0.2-0.3-0.5-0.3-0.7c0-0.3,0.1-0.5,0.3-0.7c0.3-0.3,0.7-0.4,1.1-0.2
					c0.1,0,0.2,0.1,0.3,0.2c0.2,0.2,0.3,0.4,0.3,0.7c0,0.3-0.1,0.5-0.3,0.7C241.5-90.1,241.3-90,241-90z"/>
			</g>
			<g>
				<path class="st1" d="M241-80c-0.3,0-0.5-0.1-0.7-0.3c-0.2-0.2-0.3-0.5-0.3-0.7c0-0.3,0.1-0.5,0.3-0.7c0.4-0.4,1-0.4,1.4,0
					c0.2,0.2,0.3,0.4,0.3,0.7c0,0.3-0.1,0.5-0.3,0.7C241.5-80.1,241.3-80,241-80z"/>
			</g>
			<g>
				<path class="st1" d="M241-70c-0.3,0-0.5-0.1-0.7-0.3c-0.1-0.1-0.2-0.2-0.2-0.3c0-0.1-0.1-0.3-0.1-0.4c0-0.3,0.1-0.5,0.3-0.7
					c0.1-0.1,0.2-0.2,0.3-0.2c0.4-0.2,0.8-0.1,1.1,0.2c0.2,0.2,0.3,0.4,0.3,0.7c0,0.1,0,0.3-0.1,0.4c-0.1,0.1-0.1,0.2-0.2,0.3
					C241.5-70.1,241.3-70,241-70z"/>
			</g>
			<g>
				<path class="st1" d="M241-60c-0.3,0-0.5-0.1-0.7-0.3c-0.2-0.2-0.3-0.5-0.3-0.7c0-0.3,0.1-0.5,0.3-0.7c0.4-0.4,1-0.4,1.4,0
					c0.2,0.2,0.3,0.4,0.3,0.7c0,0.3-0.1,0.5-0.3,0.7C241.5-60.1,241.3-60,241-60z"/>
			</g>
			<g>
				<path class="st1" d="M241-50c-0.3,0-0.5-0.1-0.7-0.3c-0.1-0.1-0.2-0.2-0.2-0.3c0-0.1-0.1-0.3-0.1-0.4c0-0.3,0.1-0.5,0.3-0.7
					c0.4-0.4,1-0.4,1.4,0c0.2,0.2,0.3,0.4,0.3,0.7c0,0.1,0,0.3-0.1,0.4c-0.1,0.1-0.1,0.2-0.2,0.3C241.5-50.1,241.3-50,241-50z"/>
			</g>
			<g>
				<path class="st1" d="M241-40c-0.1,0-0.1,0-0.2,0c-0.1,0-0.1,0-0.2-0.1c-0.1,0-0.1,0-0.2-0.1c-0.1,0-0.1-0.1-0.1-0.1
					c-0.2-0.2-0.3-0.5-0.3-0.7c0-0.1,0-0.3,0.1-0.4c0.1-0.1,0.1-0.2,0.2-0.3c0.4-0.4,1-0.4,1.4,0c0.1,0.1,0.2,0.2,0.2,0.3
					c0.1,0.1,0.1,0.3,0.1,0.4c0,0.3-0.1,0.5-0.3,0.7C241.5-40.1,241.3-40,241-40z"/>
			</g>
			<g>
				<path class="st1" d="M241-30c-0.3,0-0.5-0.1-0.7-0.3c-0.2-0.2-0.3-0.5-0.3-0.7c0-0.1,0-0.3,0.1-0.4c0.1-0.1,0.1-0.2,0.2-0.3
					c0.4-0.4,1-0.4,1.4,0c0.1,0.1,0.2,0.2,0.2,0.3c0.1,0.1,0.1,0.3,0.1,0.4c0,0.3-0.1,0.5-0.3,0.7C241.5-30.1,241.3-30,241-30z"/>
			</g>
			<g>
				<path class="st1" d="M241-20c-0.3,0-0.5-0.1-0.7-0.3c-0.1-0.1-0.2-0.2-0.2-0.3c0-0.1-0.1-0.3-0.1-0.4c0-0.3,0.1-0.5,0.3-0.7
					c0.4-0.4,1-0.4,1.4,0c0,0,0.1,0.1,0.1,0.1c0,0.1,0.1,0.1,0.1,0.2c0,0.1,0.1,0.1,0.1,0.2c0,0.1,0,0.1,0,0.2
					c0,0.3-0.1,0.5-0.3,0.7C241.5-20.1,241.3-20,241-20z"/>
			</g>
			<g>
				<path class="st1" d="M241-10c-0.3,0-0.5-0.1-0.7-0.3c-0.1-0.1-0.2-0.2-0.2-0.3c0-0.1-0.1-0.3-0.1-0.4c0-0.3,0.1-0.5,0.3-0.7
					c0.4-0.4,1-0.4,1.4,0c0.2,0.2,0.3,0.4,0.3,0.7c0,0.1,0,0.3-0.1,0.4s-0.1,0.2-0.2,0.3C241.5-10.1,241.3-10,241-10z"/>
			</g>
			<g>
				<path class="st1" d="M241,0c-0.3,0-0.5-0.1-0.7-0.3c-0.1-0.1-0.2-0.2-0.2-0.3c0-0.1-0.1-0.3-0.1-0.4s0-0.3,0.1-0.4
					c0.1-0.1,0.1-0.2,0.2-0.3c0.4-0.4,1-0.4,1.4,0c0.1,0.1,0.2,0.2,0.2,0.3C242-1.3,242-1.1,242-1s0,0.3-0.1,0.4
					c-0.1,0.1-0.1,0.2-0.2,0.3c-0.1,0.1-0.2,0.2-0.3,0.2C241.3,0,241.1,0,241,0z"/>
			</g>
		</g>
		<g>
			<g>
				<path class="st1" d="M1-240c-0.3,0-0.5-0.1-0.7-0.3C0.1-240.5,0-240.7,0-241c0-0.3,0.1-0.5,0.3-0.7c0.4-0.4,1-0.4,1.4,0
					c0.2,0.2,0.3,0.4,0.3,0.7c0,0.3-0.1,0.5-0.3,0.7C1.5-240.1,1.3-240,1-240z"/>
				<path class="st1" d="M230-241c0-0.6,0.4-1,1-1l0,0c0.6,0,1,0.4,1,1l0,0c0,0.5-0.4,1-1,1l0,0C230.4-240,230-240.5,230-241z
					 M220-241c0-0.6,0.4-1,1-1l0,0c0.6,0,1,0.4,1,1l0,0c0,0.5-0.4,1-1,1l0,0C220.4-240,220-240.5,220-241z M210-241c0-0.6,0.4-1,1-1
					l0,0c0.6,0,1,0.4,1,1l0,0c0,0.5-0.4,1-1,1l0,0C210.4-240,210-240.5,210-241z M200-241c0-0.6,0.4-1,1-1l0,0c0.6,0,1,0.4,1,1l0,0
					c0,0.5-0.4,1-1,1l0,0C200.4-240,200-240.5,200-241z M190-241c0-0.6,0.4-1,1-1l0,0c0.6,0,1,0.4,1,1l0,0c0,0.5-0.4,1-1,1l0,0
					C190.4-240,190-240.5,190-241z M180-241c0-0.6,0.4-1,1-1l0,0c0.6,0,1,0.4,1,1l0,0c0,0.5-0.4,1-1,1l0,0
					C180.4-240,180-240.5,180-241z M170-241c0-0.6,0.4-1,1-1l0,0c0.6,0,1,0.4,1,1l0,0c0,0.5-0.4,1-1,1l0,0
					C170.4-240,170-240.5,170-241z M160-241c0-0.6,0.4-1,1-1l0,0c0.6,0,1,0.4,1,1l0,0c0,0.5-0.4,1-1,1l0,0
					C160.4-240,160-240.5,160-241z M150-241c0-0.6,0.4-1,1-1l0,0c0.6,0,1,0.4,1,1l0,0c0,0.5-0.4,1-1,1l0,0
					C150.4-240,150-240.5,150-241z M140-241c0-0.6,0.4-1,1-1l0,0c0.6,0,1,0.4,1,1l0,0c0,0.5-0.4,1-1,1l0,0
					C140.4-240,140-240.5,140-241z M130-241c0-0.6,0.4-1,1-1l0,0c0.6,0,1,0.4,1,1l0,0c0,0.5-0.4,1-1,1l0,0
					C130.4-240,130-240.5,130-241z M120-241c0-0.6,0.4-1,1-1l0,0c0.6,0,1,0.4,1,1l0,0c0,0.5-0.4,1-1,1l0,0
					C120.4-240,120-240.5,120-241z M110-241c0-0.6,0.4-1,1-1l0,0c0.6,0,1,0.4,1,1l0,0c0,0.5-0.4,1-1,1l0,0
					C110.4-240,110-240.5,110-241z M100-241c0-0.6,0.4-1,1-1l0,0c0.6,0,1,0.4,1,1l0,0c0,0.5-0.4,1-1,1l0,0
					C100.4-240,100-240.5,100-241z M90-241c0-0.6,0.4-1,1-1l0,0c0.6,0,1,0.4,1,1l0,0c0,0.5-0.4,1-1,1l0,0C90.4-240,90-240.5,90-241z
					 M80-241c0-0.6,0.4-1,1-1l0,0c0.6,0,1,0.4,1,1l0,0c0,0.5-0.4,1-1,1l0,0C80.4-240,80-240.5,80-241z M70-241c0-0.6,0.4-1,1-1l0,0
					c0.6,0,1,0.4,1,1l0,0c0,0.5-0.4,1-1,1l0,0C70.4-240,70-240.5,70-241z M60-241c0-0.6,0.4-1,1-1l0,0c0.6,0,1,0.4,1,1l0,0
					c0,0.5-0.4,1-1,1l0,0C60.4-240,60-240.5,60-241z M50-241c0-0.6,0.4-1,1-1l0,0c0.6,0,1,0.4,1,1l0,0c0,0.5-0.4,1-1,1l0,0
					C50.4-240,50-240.5,50-241z M40-241c0-0.6,0.4-1,1-1l0,0c0.6,0,1,0.4,1,1l0,0c0,0.5-0.4,1-1,1l0,0C40.4-240,40-240.5,40-241z
					 M30-241c0-0.6,0.4-1,1-1l0,0c0.6,0,1,0.4,1,1l0,0c0,0.5-0.4,1-1,1l0,0C30.4-240,30-240.5,30-241z M20-241c0-0.6,0.4-1,1-1l0,0
					c0.6,0,1,0.4,1,1l0,0c0,0.5-0.4,1-1,1l0,0C20.4-240,20-240.5,20-241z M10-241c0-0.6,0.4-1,1-1l0,0c0.6,0,1,0.4,1,1l0,0
					c0,0.5-0.4,1-1,1l0,0C10.4-240,10-240.5,10-241z"/>
				<path class="st1" d="M241-240c-0.3,0-0.5-0.1-0.7-0.3c-0.2-0.2-0.3-0.5-0.3-0.7c0-0.3,0.1-0.5,0.3-0.7c0.4-0.4,1-0.4,1.4,0
					c0.2,0.2,0.3,0.4,0.3,0.7c0,0.3-0.1,0.5-0.3,0.7C241.5-240.1,241.3-240,241-240z"/>
			</g>
			<g>
				<path class="st1" d="M1-230c-0.3,0-0.5-0.1-0.7-0.3C0.1-230.5,0-230.7,0-231c0-0.1,0-0.3,0.1-0.4c0.1-0.1,0.1-0.2,0.2-0.3
					c0.3-0.3,0.7-0.4,1.1-0.2c0.1,0,0.2,0.1,0.3,0.2c0.1,0.1,0.2,0.2,0.2,0.3C2-231.3,2-231.1,2-231c0,0.3-0.1,0.5-0.3,0.7
					C1.5-230.1,1.3-230,1-230z"/>
				<path class="st1" d="M230-231c0-0.6,0.4-1,1-1l0,0c0.6,0,1,0.4,1,1l0,0c0,0.5-0.4,1-1,1l0,0C230.4-230,230-230.5,230-231z
					 M220-231c0-0.6,0.4-1,1-1l0,0c0.6,0,1,0.4,1,1l0,0c0,0.5-0.4,1-1,1l0,0C220.4-230,220-230.5,220-231z M210-231c0-0.6,0.4-1,1-1
					l0,0c0.6,0,1,0.4,1,1l0,0c0,0.5-0.4,1-1,1l0,0C210.4-230,210-230.5,210-231z M200-231c0-0.6,0.4-1,1-1l0,0c0.6,0,1,0.4,1,1l0,0
					c0,0.5-0.4,1-1,1l0,0C200.4-230,200-230.5,200-231z M190-231c0-0.6,0.4-1,1-1l0,0c0.6,0,1,0.4,1,1l0,0c0,0.5-0.4,1-1,1l0,0
					C190.4-230,190-230.5,190-231z M180-231c0-0.6,0.4-1,1-1l0,0c0.6,0,1,0.4,1,1l0,0c0,0.5-0.4,1-1,1l0,0
					C180.4-230,180-230.5,180-231z M170-231c0-0.6,0.4-1,1-1l0,0c0.6,0,1,0.4,1,1l0,0c0,0.5-0.4,1-1,1l0,0
					C170.4-230,170-230.5,170-231z M160-231c0-0.6,0.4-1,1-1l0,0c0.6,0,1,0.4,1,1l0,0c0,0.5-0.4,1-1,1l0,0
					C160.4-230,160-230.5,160-231z M150-231c0-0.6,0.4-1,1-1l0,0c0.6,0,1,0.4,1,1l0,0c0,0.5-0.4,1-1,1l0,0
					C150.4-230,150-230.5,150-231z M140-231c0-0.6,0.4-1,1-1l0,0c0.6,0,1,0.4,1,1l0,0c0,0.5-0.4,1-1,1l0,0
					C140.4-230,140-230.5,140-231z M130-231c0-0.6,0.4-1,1-1l0,0c0.6,0,1,0.4,1,1l0,0c0,0.5-0.4,1-1,1l0,0
					C130.4-230,130-230.5,130-231z M120-231c0-0.6,0.4-1,1-1l0,0c0.6,0,1,0.4,1,1l0,0c0,0.5-0.4,1-1,1l0,0
					C120.4-230,120-230.5,120-231z M110-231c0-0.6,0.4-1,1-1l0,0c0.6,0,1,0.4,1,1l0,0c0,0.5-0.4,1-1,1l0,0
					C110.4-230,110-230.5,110-231z M100-231c0-0.6,0.4-1,1-1l0,0c0.6,0,1,0.4,1,1l0,0c0,0.5-0.4,1-1,1l0,0
					C100.4-230,100-230.5,100-231z M90-231c0-0.6,0.4-1,1-1l0,0c0.6,0,1,0.4,1,1l0,0c0,0.5-0.4,1-1,1l0,0C90.4-230,90-230.5,90-231z
					 M80-231c0-0.6,0.4-1,1-1l0,0c0.6,0,1,0.4,1,1l0,0c0,0.5-0.4,1-1,1l0,0C80.4-230,80-230.5,80-231z M70-231c0-0.6,0.4-1,1-1l0,0
					c0.6,0,1,0.4,1,1l0,0c0,0.5-0.4,1-1,1l0,0C70.4-230,70-230.5,70-231z M60-231c0-0.6,0.4-1,1-1l0,0c0.6,0,1,0.4,1,1l0,0
					c0,0.5-0.4,1-1,1l0,0C60.4-230,60-230.5,60-231z M50-231c0-0.6,0.4-1,1-1l0,0c0.6,0,1,0.4,1,1l0,0c0,0.5-0.4,1-1,1l0,0
					C50.4-230,50-230.5,50-231z M40-231c0-0.6,0.4-1,1-1l0,0c0.6,0,1,0.4,1,1l0,0c0,0.5-0.4,1-1,1l0,0C40.4-230,40-230.5,40-231z
					 M30-231c0-0.6,0.4-1,1-1l0,0c0.6,0,1,0.4,1,1l0,0c0,0.5-0.4,1-1,1l0,0C30.4-230,30-230.5,30-231z M20-231c0-0.6,0.4-1,1-1l0,0
					c0.6,0,1,0.4,1,1l0,0c0,0.5-0.4,1-1,1l0,0C20.4-230,20-230.5,20-231z M10-231c0-0.6,0.4-1,1-1l0,0c0.6,0,1,0.4,1,1l0,0
					c0,0.5-0.4,1-1,1l0,0C10.4-230,10-230.5,10-231z"/>
				<path class="st1" d="M241-230c-0.1,0-0.1,0-0.2,0c-0.1,0-0.1,0-0.2-0.1c-0.1,0-0.1,0-0.2-0.1c-0.1,0-0.1-0.1-0.1-0.1
					c-0.2-0.2-0.3-0.5-0.3-0.7c0-0.1,0-0.3,0.1-0.4c0.1-0.1,0.1-0.2,0.2-0.3c0.4-0.4,1-0.4,1.4,0c0.1,0.1,0.2,0.2,0.2,0.3
					c0.1,0.1,0.1,0.3,0.1,0.4c0,0.3-0.1,0.5-0.3,0.7C241.5-230.1,241.3-230,241-230z"/>
			</g>
			<g>
				<path class="st1" d="M1-220c-0.3,0-0.5-0.1-0.7-0.3C0.1-220.5,0-220.7,0-221c0-0.3,0.1-0.5,0.3-0.7c0.4-0.4,1-0.4,1.4,0
					c0.2,0.2,0.3,0.4,0.3,0.7c0,0.3-0.1,0.5-0.3,0.7C1.5-220.1,1.3-220,1-220z"/>
				<path class="st1" d="M230-221c0-0.6,0.4-1,1-1l0,0c0.6,0,1,0.4,1,1l0,0c0,0.5-0.4,1-1,1l0,0C230.4-220,230-220.5,230-221z
					 M220-221c0-0.6,0.4-1,1-1l0,0c0.6,0,1,0.4,1,1l0,0c0,0.5-0.4,1-1,1l0,0C220.4-220,220-220.5,220-221z M210-221c0-0.6,0.4-1,1-1
					l0,0c0.6,0,1,0.4,1,1l0,0c0,0.5-0.4,1-1,1l0,0C210.4-220,210-220.5,210-221z M200-221c0-0.6,0.4-1,1-1l0,0c0.6,0,1,0.4,1,1l0,0
					c0,0.5-0.4,1-1,1l0,0C200.4-220,200-220.5,200-221z M190-221c0-0.6,0.4-1,1-1l0,0c0.6,0,1,0.4,1,1l0,0c0,0.5-0.4,1-1,1l0,0
					C190.4-220,190-220.5,190-221z M180-221c0-0.6,0.4-1,1-1l0,0c0.6,0,1,0.4,1,1l0,0c0,0.5-0.4,1-1,1l0,0
					C180.4-220,180-220.5,180-221z M170-221c0-0.6,0.4-1,1-1l0,0c0.6,0,1,0.4,1,1l0,0c0,0.5-0.4,1-1,1l0,0
					C170.4-220,170-220.5,170-221z M160-221c0-0.6,0.4-1,1-1l0,0c0.6,0,1,0.4,1,1l0,0c0,0.5-0.4,1-1,1l0,0
					C160.4-220,160-220.5,160-221z M150-221c0-0.6,0.4-1,1-1l0,0c0.6,0,1,0.4,1,1l0,0c0,0.5-0.4,1-1,1l0,0
					C150.4-220,150-220.5,150-221z M140-221c0-0.6,0.4-1,1-1l0,0c0.6,0,1,0.4,1,1l0,0c0,0.5-0.4,1-1,1l0,0
					C140.4-220,140-220.5,140-221z M130-221c0-0.6,0.4-1,1-1l0,0c0.6,0,1,0.4,1,1l0,0c0,0.5-0.4,1-1,1l0,0
					C130.4-220,130-220.5,130-221z M120-221c0-0.6,0.4-1,1-1l0,0c0.6,0,1,0.4,1,1l0,0c0,0.5-0.4,1-1,1l0,0
					C120.4-220,120-220.5,120-221z M110-221c0-0.6,0.4-1,1-1l0,0c0.6,0,1,0.4,1,1l0,0c0,0.5-0.4,1-1,1l0,0
					C110.4-220,110-220.5,110-221z M100-221c0-0.6,0.4-1,1-1l0,0c0.6,0,1,0.4,1,1l0,0c0,0.5-0.4,1-1,1l0,0
					C100.4-220,100-220.5,100-221z M90-221c0-0.6,0.4-1,1-1l0,0c0.6,0,1,0.4,1,1l0,0c0,0.5-0.4,1-1,1l0,0C90.4-220,90-220.5,90-221z
					 M80-221c0-0.6,0.4-1,1-1l0,0c0.6,0,1,0.4,1,1l0,0c0,0.5-0.4,1-1,1l0,0C80.4-220,80-220.5,80-221z M70-221c0-0.6,0.4-1,1-1l0,0
					c0.6,0,1,0.4,1,1l0,0c0,0.5-0.4,1-1,1l0,0C70.4-220,70-220.5,70-221z M60-221c0-0.6,0.4-1,1-1l0,0c0.6,0,1,0.4,1,1l0,0
					c0,0.5-0.4,1-1,1l0,0C60.4-220,60-220.5,60-221z M50-221c0-0.6,0.4-1,1-1l0,0c0.6,0,1,0.4,1,1l0,0c0,0.5-0.4,1-1,1l0,0
					C50.4-220,50-220.5,50-221z M40-221c0-0.6,0.4-1,1-1l0,0c0.6,0,1,0.4,1,1l0,0c0,0.5-0.4,1-1,1l0,0C40.4-220,40-220.5,40-221z
					 M30-221c0-0.6,0.4-1,1-1l0,0c0.6,0,1,0.4,1,1l0,0c0,0.5-0.4,1-1,1l0,0C30.4-220,30-220.5,30-221z M20-221c0-0.6,0.4-1,1-1l0,0
					c0.6,0,1,0.4,1,1l0,0c0,0.5-0.4,1-1,1l0,0C20.4-220,20-220.5,20-221z M10-221c0-0.6,0.4-1,1-1l0,0c0.6,0,1,0.4,1,1l0,0
					c0,0.5-0.4,1-1,1l0,0C10.4-220,10-220.5,10-221z"/>
				<path class="st1" d="M241-220c-0.3,0-0.5-0.1-0.7-0.3c-0.2-0.2-0.3-0.5-0.3-0.7c0-0.3,0.1-0.5,0.3-0.7c0.4-0.4,1-0.4,1.4,0
					c0.2,0.2,0.3,0.4,0.3,0.7c0,0.3-0.1,0.5-0.3,0.7C241.5-220.1,241.3-220,241-220z"/>
			</g>
			<g>
				<path class="st1" d="M1-210c-0.3,0-0.5-0.1-0.7-0.3C0.1-210.5,0-210.7,0-211c0-0.3,0.1-0.5,0.3-0.7c0.4-0.4,1-0.4,1.4,0
					c0.2,0.2,0.3,0.4,0.3,0.7c0,0.3-0.1,0.5-0.3,0.7C1.5-210.1,1.3-210,1-210z"/>
				<path class="st1" d="M230-211c0-0.6,0.4-1,1-1l0,0c0.6,0,1,0.4,1,1l0,0c0,0.5-0.4,1-1,1l0,0C230.4-210,230-210.5,230-211z
					 M220-211c0-0.6,0.4-1,1-1l0,0c0.6,0,1,0.4,1,1l0,0c0,0.5-0.4,1-1,1l0,0C220.4-210,220-210.5,220-211z M210-211c0-0.6,0.4-1,1-1
					l0,0c0.6,0,1,0.4,1,1l0,0c0,0.5-0.4,1-1,1l0,0C210.4-210,210-210.5,210-211z M200-211c0-0.6,0.4-1,1-1l0,0c0.6,0,1,0.4,1,1l0,0
					c0,0.5-0.4,1-1,1l0,0C200.4-210,200-210.5,200-211z M190-211c0-0.6,0.4-1,1-1l0,0c0.6,0,1,0.4,1,1l0,0c0,0.5-0.4,1-1,1l0,0
					C190.4-210,190-210.5,190-211z M180-211c0-0.6,0.4-1,1-1l0,0c0.6,0,1,0.4,1,1l0,0c0,0.5-0.4,1-1,1l0,0
					C180.4-210,180-210.5,180-211z M170-211c0-0.6,0.4-1,1-1l0,0c0.6,0,1,0.4,1,1l0,0c0,0.5-0.4,1-1,1l0,0
					C170.4-210,170-210.5,170-211z M160-211c0-0.6,0.4-1,1-1l0,0c0.6,0,1,0.4,1,1l0,0c0,0.5-0.4,1-1,1l0,0
					C160.4-210,160-210.5,160-211z M150-211c0-0.6,0.4-1,1-1l0,0c0.6,0,1,0.4,1,1l0,0c0,0.5-0.4,1-1,1l0,0
					C150.4-210,150-210.5,150-211z M140-211c0-0.6,0.4-1,1-1l0,0c0.6,0,1,0.4,1,1l0,0c0,0.5-0.4,1-1,1l0,0
					C140.4-210,140-210.5,140-211z M130-211c0-0.6,0.4-1,1-1l0,0c0.6,0,1,0.4,1,1l0,0c0,0.5-0.4,1-1,1l0,0
					C130.4-210,130-210.5,130-211z M120-211c0-0.6,0.4-1,1-1l0,0c0.6,0,1,0.4,1,1l0,0c0,0.5-0.4,1-1,1l0,0
					C120.4-210,120-210.5,120-211z M110-211c0-0.6,0.4-1,1-1l0,0c0.6,0,1,0.4,1,1l0,0c0,0.5-0.4,1-1,1l0,0
					C110.4-210,110-210.5,110-211z M100-211c0-0.6,0.4-1,1-1l0,0c0.6,0,1,0.4,1,1l0,0c0,0.5-0.4,1-1,1l0,0
					C100.4-210,100-210.5,100-211z M90-211c0-0.6,0.4-1,1-1l0,0c0.6,0,1,0.4,1,1l0,0c0,0.5-0.4,1-1,1l0,0C90.4-210,90-210.5,90-211z
					 M80-211c0-0.6,0.4-1,1-1l0,0c0.6,0,1,0.4,1,1l0,0c0,0.5-0.4,1-1,1l0,0C80.4-210,80-210.5,80-211z M70-211c0-0.6,0.4-1,1-1l0,0
					c0.6,0,1,0.4,1,1l0,0c0,0.5-0.4,1-1,1l0,0C70.4-210,70-210.5,70-211z M60-211c0-0.6,0.4-1,1-1l0,0c0.6,0,1,0.4,1,1l0,0
					c0,0.5-0.4,1-1,1l0,0C60.4-210,60-210.5,60-211z M50-211c0-0.6,0.4-1,1-1l0,0c0.6,0,1,0.4,1,1l0,0c0,0.5-0.4,1-1,1l0,0
					C50.4-210,50-210.5,50-211z M40-211c0-0.6,0.4-1,1-1l0,0c0.6,0,1,0.4,1,1l0,0c0,0.5-0.4,1-1,1l0,0C40.4-210,40-210.5,40-211z
					 M30-211c0-0.6,0.4-1,1-1l0,0c0.6,0,1,0.4,1,1l0,0c0,0.5-0.4,1-1,1l0,0C30.4-210,30-210.5,30-211z M20-211c0-0.6,0.4-1,1-1l0,0
					c0.6,0,1,0.4,1,1l0,0c0,0.5-0.4,1-1,1l0,0C20.4-210,20-210.5,20-211z M10-211c0-0.6,0.4-1,1-1l0,0c0.6,0,1,0.4,1,1l0,0
					c0,0.5-0.4,1-1,1l0,0C10.4-210,10-210.5,10-211z"/>
				<path class="st1" d="M241-210c-0.3,0-0.5-0.1-0.7-0.3c-0.1-0.1-0.2-0.2-0.2-0.3c0-0.1-0.1-0.3-0.1-0.4s0-0.3,0.1-0.4
					c0.1-0.1,0.1-0.2,0.2-0.3c0.3-0.3,0.7-0.4,1.1-0.2c0.1,0,0.2,0.1,0.3,0.2c0.2,0.2,0.3,0.4,0.3,0.7c0,0.3-0.1,0.5-0.3,0.7
					C241.5-210.1,241.3-210,241-210z"/>
			</g>
			<g>
				<path class="st1" d="M1-200c-0.3,0-0.5-0.1-0.7-0.3C0.1-200.5,0-200.7,0-201c0-0.3,0.1-0.5,0.3-0.7c0.4-0.4,1-0.4,1.4,0
					c0.2,0.2,0.3,0.4,0.3,0.7c0,0.3-0.1,0.5-0.3,0.7C1.5-200.1,1.3-200,1-200z"/>
				<path class="st1" d="M230-201c0-0.6,0.4-1,1-1l0,0c0.6,0,1,0.4,1,1l0,0c0,0.5-0.4,1-1,1l0,0C230.4-200,230-200.5,230-201z
					 M220-201c0-0.6,0.4-1,1-1l0,0c0.6,0,1,0.4,1,1l0,0c0,0.5-0.4,1-1,1l0,0C220.4-200,220-200.5,220-201z M210-201c0-0.6,0.4-1,1-1
					l0,0c0.6,0,1,0.4,1,1l0,0c0,0.5-0.4,1-1,1l0,0C210.4-200,210-200.5,210-201z M200-201c0-0.6,0.4-1,1-1l0,0c0.6,0,1,0.4,1,1l0,0
					c0,0.5-0.4,1-1,1l0,0C200.4-200,200-200.5,200-201z M190-201c0-0.6,0.4-1,1-1l0,0c0.6,0,1,0.4,1,1l0,0c0,0.5-0.4,1-1,1l0,0
					C190.4-200,190-200.5,190-201z M180-201c0-0.6,0.4-1,1-1l0,0c0.6,0,1,0.4,1,1l0,0c0,0.5-0.4,1-1,1l0,0
					C180.4-200,180-200.5,180-201z M170-201c0-0.6,0.4-1,1-1l0,0c0.6,0,1,0.4,1,1l0,0c0,0.5-0.4,1-1,1l0,0
					C170.4-200,170-200.5,170-201z M160-201c0-0.6,0.4-1,1-1l0,0c0.6,0,1,0.4,1,1l0,0c0,0.5-0.4,1-1,1l0,0
					C160.4-200,160-200.5,160-201z M150-201c0-0.6,0.4-1,1-1l0,0c0.6,0,1,0.4,1,1l0,0c0,0.5-0.4,1-1,1l0,0
					C150.4-200,150-200.5,150-201z M140-201c0-0.6,0.4-1,1-1l0,0c0.6,0,1,0.4,1,1l0,0c0,0.5-0.4,1-1,1l0,0
					C140.4-200,140-200.5,140-201z M130-201c0-0.6,0.4-1,1-1l0,0c0.6,0,1,0.4,1,1l0,0c0,0.5-0.4,1-1,1l0,0
					C130.4-200,130-200.5,130-201z M120-201c0-0.6,0.4-1,1-1l0,0c0.6,0,1,0.4,1,1l0,0c0,0.5-0.4,1-1,1l0,0
					C120.4-200,120-200.5,120-201z M110-201c0-0.6,0.4-1,1-1l0,0c0.6,0,1,0.4,1,1l0,0c0,0.5-0.4,1-1,1l0,0
					C110.4-200,110-200.5,110-201z M100-201c0-0.6,0.4-1,1-1l0,0c0.6,0,1,0.4,1,1l0,0c0,0.5-0.4,1-1,1l0,0
					C100.4-200,100-200.5,100-201z M90-201c0-0.6,0.4-1,1-1l0,0c0.6,0,1,0.4,1,1l0,0c0,0.5-0.4,1-1,1l0,0C90.4-200,90-200.5,90-201z
					 M80-201c0-0.6,0.4-1,1-1l0,0c0.6,0,1,0.4,1,1l0,0c0,0.5-0.4,1-1,1l0,0C80.4-200,80-200.5,80-201z M70-201c0-0.6,0.4-1,1-1l0,0
					c0.6,0,1,0.4,1,1l0,0c0,0.5-0.4,1-1,1l0,0C70.4-200,70-200.5,70-201z M60-201c0-0.6,0.4-1,1-1l0,0c0.6,0,1,0.4,1,1l0,0
					c0,0.5-0.4,1-1,1l0,0C60.4-200,60-200.5,60-201z M50-201c0-0.6,0.4-1,1-1l0,0c0.6,0,1,0.4,1,1l0,0c0,0.5-0.4,1-1,1l0,0
					C50.4-200,50-200.5,50-201z M40-201c0-0.6,0.4-1,1-1l0,0c0.6,0,1,0.4,1,1l0,0c0,0.5-0.4,1-1,1l0,0C40.4-200,40-200.5,40-201z
					 M30-201c0-0.6,0.4-1,1-1l0,0c0.6,0,1,0.4,1,1l0,0c0,0.5-0.4,1-1,1l0,0C30.4-200,30-200.5,30-201z M20-201c0-0.6,0.4-1,1-1l0,0
					c0.6,0,1,0.4,1,1l0,0c0,0.5-0.4,1-1,1l0,0C20.4-200,20-200.5,20-201z M10-201c0-0.6,0.4-1,1-1l0,0c0.6,0,1,0.4,1,1l0,0
					c0,0.5-0.4,1-1,1l0,0C10.4-200,10-200.5,10-201z"/>
				<path class="st1" d="M241-200c-0.3,0-0.5-0.1-0.7-0.3c-0.2-0.2-0.3-0.5-0.3-0.7c0-0.3,0.1-0.5,0.3-0.7c0.4-0.4,1-0.4,1.4,0
					c0.2,0.2,0.3,0.4,0.3,0.7c0,0.3-0.1,0.5-0.3,0.7C241.5-200.1,241.3-200,241-200z"/>
			</g>
			<g>
				<path class="st1" d="M1-190c-0.3,0-0.5-0.1-0.7-0.3c-0.1-0.1-0.2-0.2-0.2-0.3c0-0.1-0.1-0.3-0.1-0.4s0-0.3,0.1-0.4
					c0.1-0.1,0.1-0.2,0.2-0.3c0.4-0.4,1-0.4,1.4,0c0.1,0.1,0.2,0.2,0.2,0.3C2-191.3,2-191.1,2-191s0,0.3-0.1,0.4
					c-0.1,0.1-0.1,0.2-0.2,0.3C1.5-190.1,1.3-190,1-190z"/>
				<path class="st1" d="M230-191c0-0.6,0.4-1,1-1l0,0c0.6,0,1,0.4,1,1l0,0c0,0.5-0.4,1-1,1l0,0C230.4-190,230-190.5,230-191z
					 M220-191c0-0.6,0.4-1,1-1l0,0c0.6,0,1,0.4,1,1l0,0c0,0.5-0.4,1-1,1l0,0C220.4-190,220-190.5,220-191z M210-191c0-0.6,0.4-1,1-1
					l0,0c0.6,0,1,0.4,1,1l0,0c0,0.5-0.4,1-1,1l0,0C210.4-190,210-190.5,210-191z M200-191c0-0.6,0.4-1,1-1l0,0c0.6,0,1,0.4,1,1l0,0
					c0,0.5-0.4,1-1,1l0,0C200.4-190,200-190.5,200-191z M190-191c0-0.6,0.4-1,1-1l0,0c0.6,0,1,0.4,1,1l0,0c0,0.5-0.4,1-1,1l0,0
					C190.4-190,190-190.5,190-191z M180-191c0-0.6,0.4-1,1-1l0,0c0.6,0,1,0.4,1,1l0,0c0,0.5-0.4,1-1,1l0,0
					C180.4-190,180-190.5,180-191z M170-191c0-0.6,0.4-1,1-1l0,0c0.6,0,1,0.4,1,1l0,0c0,0.5-0.4,1-1,1l0,0
					C170.4-190,170-190.5,170-191z M160-191c0-0.6,0.4-1,1-1l0,0c0.6,0,1,0.4,1,1l0,0c0,0.5-0.4,1-1,1l0,0
					C160.4-190,160-190.5,160-191z M150-191c0-0.6,0.4-1,1-1l0,0c0.6,0,1,0.4,1,1l0,0c0,0.5-0.4,1-1,1l0,0
					C150.4-190,150-190.5,150-191z M140-191c0-0.6,0.4-1,1-1l0,0c0.6,0,1,0.4,1,1l0,0c0,0.5-0.4,1-1,1l0,0
					C140.4-190,140-190.5,140-191z M130-191c0-0.6,0.4-1,1-1l0,0c0.6,0,1,0.4,1,1l0,0c0,0.5-0.4,1-1,1l0,0
					C130.4-190,130-190.5,130-191z M120-191c0-0.6,0.4-1,1-1l0,0c0.6,0,1,0.4,1,1l0,0c0,0.5-0.4,1-1,1l0,0
					C120.4-190,120-190.5,120-191z M110-191c0-0.6,0.4-1,1-1l0,0c0.6,0,1,0.4,1,1l0,0c0,0.5-0.4,1-1,1l0,0
					C110.4-190,110-190.5,110-191z M100-191c0-0.6,0.4-1,1-1l0,0c0.6,0,1,0.4,1,1l0,0c0,0.5-0.4,1-1,1l0,0
					C100.4-190,100-190.5,100-191z M90-191c0-0.6,0.4-1,1-1l0,0c0.6,0,1,0.4,1,1l0,0c0,0.5-0.4,1-1,1l0,0C90.4-190,90-190.5,90-191z
					 M80-191c0-0.6,0.4-1,1-1l0,0c0.6,0,1,0.4,1,1l0,0c0,0.5-0.4,1-1,1l0,0C80.4-190,80-190.5,80-191z M70-191c0-0.6,0.4-1,1-1l0,0
					c0.6,0,1,0.4,1,1l0,0c0,0.5-0.4,1-1,1l0,0C70.4-190,70-190.5,70-191z M60-191c0-0.6,0.4-1,1-1l0,0c0.6,0,1,0.4,1,1l0,0
					c0,0.5-0.4,1-1,1l0,0C60.4-190,60-190.5,60-191z M50-191c0-0.6,0.4-1,1-1l0,0c0.6,0,1,0.4,1,1l0,0c0,0.5-0.4,1-1,1l0,0
					C50.4-190,50-190.5,50-191z M40-191c0-0.6,0.4-1,1-1l0,0c0.6,0,1,0.4,1,1l0,0c0,0.5-0.4,1-1,1l0,0C40.4-190,40-190.5,40-191z
					 M30-191c0-0.6,0.4-1,1-1l0,0c0.6,0,1,0.4,1,1l0,0c0,0.5-0.4,1-1,1l0,0C30.4-190,30-190.5,30-191z M20-191c0-0.6,0.4-1,1-1l0,0
					c0.6,0,1,0.4,1,1l0,0c0,0.5-0.4,1-1,1l0,0C20.4-190,20-190.5,20-191z M10-191c0-0.6,0.4-1,1-1l0,0c0.6,0,1,0.4,1,1l0,0
					c0,0.5-0.4,1-1,1l0,0C10.4-190,10-190.5,10-191z"/>
				<path class="st1" d="M241-190c-0.3,0-0.5-0.1-0.7-0.3c-0.1-0.1-0.2-0.2-0.2-0.3c0-0.1-0.1-0.3-0.1-0.4s0-0.3,0.1-0.4
					c0.1-0.1,0.1-0.2,0.2-0.3c0.4-0.4,1-0.4,1.4,0c0.1,0.1,0.2,0.2,0.2,0.3c0.1,0.1,0.1,0.3,0.1,0.4s0,0.3-0.1,0.4
					c-0.1,0.1-0.1,0.2-0.2,0.3C241.5-190.1,241.3-190,241-190z"/>
			</g>
			<g>
				<path class="st1" d="M1-180c-0.3,0-0.5-0.1-0.7-0.3C0.1-180.5,0-180.7,0-181c0-0.3,0.1-0.5,0.3-0.7c0.4-0.4,1-0.4,1.4,0
					c0.2,0.2,0.3,0.4,0.3,0.7c0,0.3-0.1,0.5-0.3,0.7C1.5-180.1,1.3-180,1-180z"/>
				<path class="st1" d="M230-181c0-0.6,0.4-1,1-1l0,0c0.6,0,1,0.4,1,1l0,0c0,0.5-0.4,1-1,1l0,0C230.4-180,230-180.5,230-181z
					 M220-181c0-0.6,0.4-1,1-1l0,0c0.6,0,1,0.4,1,1l0,0c0,0.5-0.4,1-1,1l0,0C220.4-180,220-180.5,220-181z M210-181c0-0.6,0.4-1,1-1
					l0,0c0.6,0,1,0.4,1,1l0,0c0,0.5-0.4,1-1,1l0,0C210.4-180,210-180.5,210-181z M200-181c0-0.6,0.4-1,1-1l0,0c0.6,0,1,0.4,1,1l0,0
					c0,0.5-0.4,1-1,1l0,0C200.4-180,200-180.5,200-181z M190-181c0-0.6,0.4-1,1-1l0,0c0.6,0,1,0.4,1,1l0,0c0,0.5-0.4,1-1,1l0,0
					C190.4-180,190-180.5,190-181z M180-181c0-0.6,0.4-1,1-1l0,0c0.6,0,1,0.4,1,1l0,0c0,0.5-0.4,1-1,1l0,0
					C180.4-180,180-180.5,180-181z M170-181c0-0.6,0.4-1,1-1l0,0c0.6,0,1,0.4,1,1l0,0c0,0.5-0.4,1-1,1l0,0
					C170.4-180,170-180.5,170-181z M160-181c0-0.6,0.4-1,1-1l0,0c0.6,0,1,0.4,1,1l0,0c0,0.5-0.4,1-1,1l0,0
					C160.4-180,160-180.5,160-181z M150-181c0-0.6,0.4-1,1-1l0,0c0.6,0,1,0.4,1,1l0,0c0,0.5-0.4,1-1,1l0,0
					C150.4-180,150-180.5,150-181z M140-181c0-0.6,0.4-1,1-1l0,0c0.6,0,1,0.4,1,1l0,0c0,0.5-0.4,1-1,1l0,0
					C140.4-180,140-180.5,140-181z M130-181c0-0.6,0.4-1,1-1l0,0c0.6,0,1,0.4,1,1l0,0c0,0.5-0.4,1-1,1l0,0
					C130.4-180,130-180.5,130-181z M120-181c0-0.6,0.4-1,1-1l0,0c0.6,0,1,0.4,1,1l0,0c0,0.5-0.4,1-1,1l0,0
					C120.4-180,120-180.5,120-181z M110-181c0-0.6,0.4-1,1-1l0,0c0.6,0,1,0.4,1,1l0,0c0,0.5-0.4,1-1,1l0,0
					C110.4-180,110-180.5,110-181z M100-181c0-0.6,0.4-1,1-1l0,0c0.6,0,1,0.4,1,1l0,0c0,0.5-0.4,1-1,1l0,0
					C100.4-180,100-180.5,100-181z M90-181c0-0.6,0.4-1,1-1l0,0c0.6,0,1,0.4,1,1l0,0c0,0.5-0.4,1-1,1l0,0C90.4-180,90-180.5,90-181z
					 M80-181c0-0.6,0.4-1,1-1l0,0c0.6,0,1,0.4,1,1l0,0c0,0.5-0.4,1-1,1l0,0C80.4-180,80-180.5,80-181z M70-181c0-0.6,0.4-1,1-1l0,0
					c0.6,0,1,0.4,1,1l0,0c0,0.5-0.4,1-1,1l0,0C70.4-180,70-180.5,70-181z M60-181c0-0.6,0.4-1,1-1l0,0c0.6,0,1,0.4,1,1l0,0
					c0,0.5-0.4,1-1,1l0,0C60.4-180,60-180.5,60-181z M50-181c0-0.6,0.4-1,1-1l0,0c0.6,0,1,0.4,1,1l0,0c0,0.5-0.4,1-1,1l0,0
					C50.4-180,50-180.5,50-181z M40-181c0-0.6,0.4-1,1-1l0,0c0.6,0,1,0.4,1,1l0,0c0,0.5-0.4,1-1,1l0,0C40.4-180,40-180.5,40-181z
					 M30-181c0-0.6,0.4-1,1-1l0,0c0.6,0,1,0.4,1,1l0,0c0,0.5-0.4,1-1,1l0,0C30.4-180,30-180.5,30-181z M20-181c0-0.6,0.4-1,1-1l0,0
					c0.6,0,1,0.4,1,1l0,0c0,0.5-0.4,1-1,1l0,0C20.4-180,20-180.5,20-181z M10-181c0-0.6,0.4-1,1-1l0,0c0.6,0,1,0.4,1,1l0,0
					c0,0.5-0.4,1-1,1l0,0C10.4-180,10-180.5,10-181z"/>
				<path class="st1" d="M241-180c-0.3,0-0.5-0.1-0.7-0.3c-0.2-0.2-0.3-0.5-0.3-0.7c0-0.3,0.1-0.5,0.3-0.7c0.4-0.4,1-0.4,1.4,0
					c0.2,0.2,0.3,0.4,0.3,0.7c0,0.3-0.1,0.5-0.3,0.7C241.5-180.1,241.3-180,241-180z"/>
			</g>
			<g>
				<path class="st1" d="M1-170c-0.3,0-0.5-0.1-0.7-0.3C0.1-170.5,0-170.7,0-171c0-0.3,0.1-0.5,0.3-0.7c0.4-0.4,1-0.4,1.4,0
					c0.2,0.2,0.3,0.4,0.3,0.7c0,0.3-0.1,0.5-0.3,0.7C1.5-170.1,1.3-170,1-170z"/>
				<path class="st1" d="M230-171c0-0.6,0.4-1,1-1l0,0c0.6,0,1,0.4,1,1l0,0c0,0.5-0.4,1-1,1l0,0C230.4-170,230-170.5,230-171z
					 M220-171c0-0.6,0.4-1,1-1l0,0c0.6,0,1,0.4,1,1l0,0c0,0.5-0.4,1-1,1l0,0C220.4-170,220-170.5,220-171z M210-171c0-0.6,0.4-1,1-1
					l0,0c0.6,0,1,0.4,1,1l0,0c0,0.5-0.4,1-1,1l0,0C210.4-170,210-170.5,210-171z M200-171c0-0.6,0.4-1,1-1l0,0c0.6,0,1,0.4,1,1l0,0
					c0,0.5-0.4,1-1,1l0,0C200.4-170,200-170.5,200-171z M190-171c0-0.6,0.4-1,1-1l0,0c0.6,0,1,0.4,1,1l0,0c0,0.5-0.4,1-1,1l0,0
					C190.4-170,190-170.5,190-171z M180-171c0-0.6,0.4-1,1-1l0,0c0.6,0,1,0.4,1,1l0,0c0,0.5-0.4,1-1,1l0,0
					C180.4-170,180-170.5,180-171z M170-171c0-0.6,0.4-1,1-1l0,0c0.6,0,1,0.4,1,1l0,0c0,0.5-0.4,1-1,1l0,0
					C170.4-170,170-170.5,170-171z M160-171c0-0.6,0.4-1,1-1l0,0c0.6,0,1,0.4,1,1l0,0c0,0.5-0.4,1-1,1l0,0
					C160.4-170,160-170.5,160-171z M150-171c0-0.6,0.4-1,1-1l0,0c0.6,0,1,0.4,1,1l0,0c0,0.5-0.4,1-1,1l0,0
					C150.4-170,150-170.5,150-171z M140-171c0-0.6,0.4-1,1-1l0,0c0.6,0,1,0.4,1,1l0,0c0,0.5-0.4,1-1,1l0,0
					C140.4-170,140-170.5,140-171z M130-171c0-0.6,0.4-1,1-1l0,0c0.6,0,1,0.4,1,1l0,0c0,0.5-0.4,1-1,1l0,0
					C130.4-170,130-170.5,130-171z M120-171c0-0.6,0.4-1,1-1l0,0c0.6,0,1,0.4,1,1l0,0c0,0.5-0.4,1-1,1l0,0
					C120.4-170,120-170.5,120-171z M110-171c0-0.6,0.4-1,1-1l0,0c0.6,0,1,0.4,1,1l0,0c0,0.5-0.4,1-1,1l0,0
					C110.4-170,110-170.5,110-171z M100-171c0-0.6,0.4-1,1-1l0,0c0.6,0,1,0.4,1,1l0,0c0,0.5-0.4,1-1,1l0,0
					C100.4-170,100-170.5,100-171z M90-171c0-0.6,0.4-1,1-1l0,0c0.6,0,1,0.4,1,1l0,0c0,0.5-0.4,1-1,1l0,0C90.4-170,90-170.5,90-171z
					 M80-171c0-0.6,0.4-1,1-1l0,0c0.6,0,1,0.4,1,1l0,0c0,0.5-0.4,1-1,1l0,0C80.4-170,80-170.5,80-171z M70-171c0-0.6,0.4-1,1-1l0,0
					c0.6,0,1,0.4,1,1l0,0c0,0.5-0.4,1-1,1l0,0C70.4-170,70-170.5,70-171z M60-171c0-0.6,0.4-1,1-1l0,0c0.6,0,1,0.4,1,1l0,0
					c0,0.5-0.4,1-1,1l0,0C60.4-170,60-170.5,60-171z M50-171c0-0.6,0.4-1,1-1l0,0c0.6,0,1,0.4,1,1l0,0c0,0.5-0.4,1-1,1l0,0
					C50.4-170,50-170.5,50-171z M40-171c0-0.6,0.4-1,1-1l0,0c0.6,0,1,0.4,1,1l0,0c0,0.5-0.4,1-1,1l0,0C40.4-170,40-170.5,40-171z
					 M30-171c0-0.6,0.4-1,1-1l0,0c0.6,0,1,0.4,1,1l0,0c0,0.5-0.4,1-1,1l0,0C30.4-170,30-170.5,30-171z M20-171c0-0.6,0.4-1,1-1l0,0
					c0.6,0,1,0.4,1,1l0,0c0,0.5-0.4,1-1,1l0,0C20.4-170,20-170.5,20-171z M10-171c0-0.6,0.4-1,1-1l0,0c0.6,0,1,0.4,1,1l0,0
					c0,0.5-0.4,1-1,1l0,0C10.4-170,10-170.5,10-171z"/>
				<path class="st1" d="M241-170c-0.3,0-0.5-0.1-0.7-0.3c-0.2-0.2-0.3-0.5-0.3-0.7c0-0.3,0.1-0.5,0.3-0.7c0.4-0.4,1-0.4,1.4,0
					c0.2,0.2,0.3,0.4,0.3,0.7c0,0.3-0.1,0.5-0.3,0.7C241.5-170.1,241.3-170,241-170z"/>
			</g>
			<g>
				<path class="st1" d="M1-160c-0.3,0-0.5-0.1-0.7-0.3C0.1-160.5,0-160.7,0-161c0-0.3,0.1-0.5,0.3-0.7c0.4-0.4,1-0.4,1.4,0
					c0.2,0.2,0.3,0.4,0.3,0.7c0,0.3-0.1,0.5-0.3,0.7C1.5-160.1,1.3-160,1-160z"/>
				<path class="st1" d="M230-161c0-0.6,0.4-1,1-1l0,0c0.6,0,1,0.4,1,1l0,0c0,0.5-0.4,1-1,1l0,0C230.4-160,230-160.5,230-161z
					 M220-161c0-0.6,0.4-1,1-1l0,0c0.6,0,1,0.4,1,1l0,0c0,0.5-0.4,1-1,1l0,0C220.4-160,220-160.5,220-161z M210-161c0-0.6,0.4-1,1-1
					l0,0c0.6,0,1,0.4,1,1l0,0c0,0.5-0.4,1-1,1l0,0C210.4-160,210-160.5,210-161z M200-161c0-0.6,0.4-1,1-1l0,0c0.6,0,1,0.4,1,1l0,0
					c0,0.5-0.4,1-1,1l0,0C200.4-160,200-160.5,200-161z M190-161c0-0.6,0.4-1,1-1l0,0c0.6,0,1,0.4,1,1l0,0c0,0.5-0.4,1-1,1l0,0
					C190.4-160,190-160.5,190-161z M180-161c0-0.6,0.4-1,1-1l0,0c0.6,0,1,0.4,1,1l0,0c0,0.5-0.4,1-1,1l0,0
					C180.4-160,180-160.5,180-161z M170-161c0-0.6,0.4-1,1-1l0,0c0.6,0,1,0.4,1,1l0,0c0,0.5-0.4,1-1,1l0,0
					C170.4-160,170-160.5,170-161z M160-161c0-0.6,0.4-1,1-1l0,0c0.6,0,1,0.4,1,1l0,0c0,0.5-0.4,1-1,1l0,0
					C160.4-160,160-160.5,160-161z M150-161c0-0.6,0.4-1,1-1l0,0c0.6,0,1,0.4,1,1l0,0c0,0.5-0.4,1-1,1l0,0
					C150.4-160,150-160.5,150-161z M140-161c0-0.6,0.4-1,1-1l0,0c0.6,0,1,0.4,1,1l0,0c0,0.5-0.4,1-1,1l0,0
					C140.4-160,140-160.5,140-161z M130-161c0-0.6,0.4-1,1-1l0,0c0.6,0,1,0.4,1,1l0,0c0,0.5-0.4,1-1,1l0,0
					C130.4-160,130-160.5,130-161z M120-161c0-0.6,0.4-1,1-1l0,0c0.6,0,1,0.4,1,1l0,0c0,0.5-0.4,1-1,1l0,0
					C120.4-160,120-160.5,120-161z M110-161c0-0.6,0.4-1,1-1l0,0c0.6,0,1,0.4,1,1l0,0c0,0.5-0.4,1-1,1l0,0
					C110.4-160,110-160.5,110-161z M100-161c0-0.6,0.4-1,1-1l0,0c0.6,0,1,0.4,1,1l0,0c0,0.5-0.4,1-1,1l0,0
					C100.4-160,100-160.5,100-161z M90-161c0-0.6,0.4-1,1-1l0,0c0.6,0,1,0.4,1,1l0,0c0,0.5-0.4,1-1,1l0,0C90.4-160,90-160.5,90-161z
					 M80-161c0-0.6,0.4-1,1-1l0,0c0.6,0,1,0.4,1,1l0,0c0,0.5-0.4,1-1,1l0,0C80.4-160,80-160.5,80-161z M70-161c0-0.6,0.4-1,1-1l0,0
					c0.6,0,1,0.4,1,1l0,0c0,0.5-0.4,1-1,1l0,0C70.4-160,70-160.5,70-161z M60-161c0-0.6,0.4-1,1-1l0,0c0.6,0,1,0.4,1,1l0,0
					c0,0.5-0.4,1-1,1l0,0C60.4-160,60-160.5,60-161z M50-161c0-0.6,0.4-1,1-1l0,0c0.6,0,1,0.4,1,1l0,0c0,0.5-0.4,1-1,1l0,0
					C50.4-160,50-160.5,50-161z M40-161c0-0.6,0.4-1,1-1l0,0c0.6,0,1,0.4,1,1l0,0c0,0.5-0.4,1-1,1l0,0C40.4-160,40-160.5,40-161z
					 M30-161c0-0.6,0.4-1,1-1l0,0c0.6,0,1,0.4,1,1l0,0c0,0.5-0.4,1-1,1l0,0C30.4-160,30-160.5,30-161z M20-161c0-0.6,0.4-1,1-1l0,0
					c0.6,0,1,0.4,1,1l0,0c0,0.5-0.4,1-1,1l0,0C20.4-160,20-160.5,20-161z M10-161c0-0.6,0.4-1,1-1l0,0c0.6,0,1,0.4,1,1l0,0
					c0,0.5-0.4,1-1,1l0,0C10.4-160,10-160.5,10-161z"/>
				<path class="st1" d="M241-160c-0.3,0-0.5-0.1-0.7-0.3c-0.2-0.2-0.3-0.5-0.3-0.7c0-0.3,0.1-0.5,0.3-0.7c0.4-0.4,1-0.4,1.4,0
					c0.2,0.2,0.3,0.4,0.3,0.7c0,0.3-0.1,0.5-0.3,0.7C241.5-160.1,241.3-160,241-160z"/>
			</g>
			<g>
				<path class="st1" d="M1-150c-0.1,0-0.3,0-0.4-0.1c-0.1,0-0.2-0.1-0.3-0.2C0.1-150.5,0-150.7,0-151c0-0.3,0.1-0.5,0.3-0.7
					c0.4-0.4,1-0.4,1.4,0c0.2,0.2,0.3,0.4,0.3,0.7c0,0.3-0.1,0.5-0.3,0.7C1.5-150.1,1.3-150,1-150z"/>
				<path class="st1" d="M230-151c0-0.6,0.4-1,1-1l0,0c0.6,0,1,0.4,1,1l0,0c0,0.5-0.4,1-1,1l0,0C230.4-150,230-150.5,230-151z
					 M220-151c0-0.6,0.4-1,1-1l0,0c0.6,0,1,0.4,1,1l0,0c0,0.5-0.4,1-1,1l0,0C220.4-150,220-150.5,220-151z M210-151c0-0.6,0.4-1,1-1
					l0,0c0.6,0,1,0.4,1,1l0,0c0,0.5-0.4,1-1,1l0,0C210.4-150,210-150.5,210-151z M200-151c0-0.6,0.4-1,1-1l0,0c0.6,0,1,0.4,1,1l0,0
					c0,0.5-0.4,1-1,1l0,0C200.4-150,200-150.5,200-151z M190-151c0-0.6,0.4-1,1-1l0,0c0.6,0,1,0.4,1,1l0,0c0,0.5-0.4,1-1,1l0,0
					C190.4-150,190-150.5,190-151z M180-151c0-0.6,0.4-1,1-1l0,0c0.6,0,1,0.4,1,1l0,0c0,0.5-0.4,1-1,1l0,0
					C180.4-150,180-150.5,180-151z M170-151c0-0.6,0.4-1,1-1l0,0c0.6,0,1,0.4,1,1l0,0c0,0.5-0.4,1-1,1l0,0
					C170.4-150,170-150.5,170-151z M160-151c0-0.6,0.4-1,1-1l0,0c0.6,0,1,0.4,1,1l0,0c0,0.5-0.4,1-1,1l0,0
					C160.4-150,160-150.5,160-151z M150-151c0-0.6,0.4-1,1-1l0,0c0.6,0,1,0.4,1,1l0,0c0,0.5-0.4,1-1,1l0,0
					C150.4-150,150-150.5,150-151z M140-151c0-0.6,0.4-1,1-1l0,0c0.6,0,1,0.4,1,1l0,0c0,0.5-0.4,1-1,1l0,0
					C140.4-150,140-150.5,140-151z M130-151c0-0.6,0.4-1,1-1l0,0c0.6,0,1,0.4,1,1l0,0c0,0.5-0.4,1-1,1l0,0
					C130.4-150,130-150.5,130-151z M120-151c0-0.6,0.4-1,1-1l0,0c0.6,0,1,0.4,1,1l0,0c0,0.5-0.4,1-1,1l0,0
					C120.4-150,120-150.5,120-151z M110-151c0-0.6,0.4-1,1-1l0,0c0.6,0,1,0.4,1,1l0,0c0,0.5-0.4,1-1,1l0,0
					C110.4-150,110-150.5,110-151z M100-151c0-0.6,0.4-1,1-1l0,0c0.6,0,1,0.4,1,1l0,0c0,0.5-0.4,1-1,1l0,0
					C100.4-150,100-150.5,100-151z M90-151c0-0.6,0.4-1,1-1l0,0c0.6,0,1,0.4,1,1l0,0c0,0.5-0.4,1-1,1l0,0C90.4-150,90-150.5,90-151z
					 M80-151c0-0.6,0.4-1,1-1l0,0c0.6,0,1,0.4,1,1l0,0c0,0.5-0.4,1-1,1l0,0C80.4-150,80-150.5,80-151z M70-151c0-0.6,0.4-1,1-1l0,0
					c0.6,0,1,0.4,1,1l0,0c0,0.5-0.4,1-1,1l0,0C70.4-150,70-150.5,70-151z M60-151c0-0.6,0.4-1,1-1l0,0c0.6,0,1,0.4,1,1l0,0
					c0,0.5-0.4,1-1,1l0,0C60.4-150,60-150.5,60-151z M50-151c0-0.6,0.4-1,1-1l0,0c0.6,0,1,0.4,1,1l0,0c0,0.5-0.4,1-1,1l0,0
					C50.4-150,50-150.5,50-151z M40-151c0-0.6,0.4-1,1-1l0,0c0.6,0,1,0.4,1,1l0,0c0,0.5-0.4,1-1,1l0,0C40.4-150,40-150.5,40-151z
					 M30-151c0-0.6,0.4-1,1-1l0,0c0.6,0,1,0.4,1,1l0,0c0,0.5-0.4,1-1,1l0,0C30.4-150,30-150.5,30-151z M20-151c0-0.6,0.4-1,1-1l0,0
					c0.6,0,1,0.4,1,1l0,0c0,0.5-0.4,1-1,1l0,0C20.4-150,20-150.5,20-151z M10-151c0-0.6,0.4-1,1-1l0,0c0.6,0,1,0.4,1,1l0,0
					c0,0.5-0.4,1-1,1l0,0C10.4-150,10-150.5,10-151z"/>
				<path class="st1" d="M241-150c-0.3,0-0.5-0.1-0.7-0.3c-0.2-0.2-0.3-0.5-0.3-0.7c0-0.3,0.1-0.5,0.3-0.7c0.4-0.4,1-0.4,1.4,0
					c0.2,0.2,0.3,0.4,0.3,0.7c0,0.3-0.1,0.5-0.3,0.7C241.5-150.1,241.3-150,241-150z"/>
			</g>
			<g>
				<path class="st1" d="M1-140c-0.3,0-0.5-0.1-0.7-0.3C0.1-140.5,0-140.7,0-141c0-0.3,0.1-0.5,0.3-0.7c0.4-0.4,1-0.4,1.4,0
					c0.2,0.2,0.3,0.4,0.3,0.7c0,0.3-0.1,0.5-0.3,0.7C1.5-140.1,1.3-140,1-140z"/>
				<path class="st1" d="M230-141c0-0.6,0.4-1,1-1l0,0c0.6,0,1,0.4,1,1l0,0c0,0.5-0.4,1-1,1l0,0C230.4-140,230-140.5,230-141z
					 M220-141c0-0.6,0.4-1,1-1l0,0c0.6,0,1,0.4,1,1l0,0c0,0.5-0.4,1-1,1l0,0C220.4-140,220-140.5,220-141z M210-141c0-0.6,0.4-1,1-1
					l0,0c0.6,0,1,0.4,1,1l0,0c0,0.5-0.4,1-1,1l0,0C210.4-140,210-140.5,210-141z M200-141c0-0.6,0.4-1,1-1l0,0c0.6,0,1,0.4,1,1l0,0
					c0,0.5-0.4,1-1,1l0,0C200.4-140,200-140.5,200-141z M190-141c0-0.6,0.4-1,1-1l0,0c0.6,0,1,0.4,1,1l0,0c0,0.5-0.4,1-1,1l0,0
					C190.4-140,190-140.5,190-141z M180-141c0-0.6,0.4-1,1-1l0,0c0.6,0,1,0.4,1,1l0,0c0,0.5-0.4,1-1,1l0,0
					C180.4-140,180-140.5,180-141z M170-141c0-0.6,0.4-1,1-1l0,0c0.6,0,1,0.4,1,1l0,0c0,0.5-0.4,1-1,1l0,0
					C170.4-140,170-140.5,170-141z M160-141c0-0.6,0.4-1,1-1l0,0c0.6,0,1,0.4,1,1l0,0c0,0.5-0.4,1-1,1l0,0
					C160.4-140,160-140.5,160-141z M150-141c0-0.6,0.4-1,1-1l0,0c0.6,0,1,0.4,1,1l0,0c0,0.5-0.4,1-1,1l0,0
					C150.4-140,150-140.5,150-141z M140-141c0-0.6,0.4-1,1-1l0,0c0.6,0,1,0.4,1,1l0,0c0,0.5-0.4,1-1,1l0,0
					C140.4-140,140-140.5,140-141z M130-141c0-0.6,0.4-1,1-1l0,0c0.6,0,1,0.4,1,1l0,0c0,0.5-0.4,1-1,1l0,0
					C130.4-140,130-140.5,130-141z M120-141c0-0.6,0.4-1,1-1l0,0c0.6,0,1,0.4,1,1l0,0c0,0.5-0.4,1-1,1l0,0
					C120.4-140,120-140.5,120-141z M110-141c0-0.6,0.4-1,1-1l0,0c0.6,0,1,0.4,1,1l0,0c0,0.5-0.4,1-1,1l0,0
					C110.4-140,110-140.5,110-141z M100-141c0-0.6,0.4-1,1-1l0,0c0.6,0,1,0.4,1,1l0,0c0,0.5-0.4,1-1,1l0,0
					C100.4-140,100-140.5,100-141z M90-141c0-0.6,0.4-1,1-1l0,0c0.6,0,1,0.4,1,1l0,0c0,0.5-0.4,1-1,1l0,0C90.4-140,90-140.5,90-141z
					 M80-141c0-0.6,0.4-1,1-1l0,0c0.6,0,1,0.4,1,1l0,0c0,0.5-0.4,1-1,1l0,0C80.4-140,80-140.5,80-141z M70-141c0-0.6,0.4-1,1-1l0,0
					c0.6,0,1,0.4,1,1l0,0c0,0.5-0.4,1-1,1l0,0C70.4-140,70-140.5,70-141z M60-141c0-0.6,0.4-1,1-1l0,0c0.6,0,1,0.4,1,1l0,0
					c0,0.5-0.4,1-1,1l0,0C60.4-140,60-140.5,60-141z M50-141c0-0.6,0.4-1,1-1l0,0c0.6,0,1,0.4,1,1l0,0c0,0.5-0.4,1-1,1l0,0
					C50.4-140,50-140.5,50-141z M40-141c0-0.6,0.4-1,1-1l0,0c0.6,0,1,0.4,1,1l0,0c0,0.5-0.4,1-1,1l0,0C40.4-140,40-140.5,40-141z
					 M30-141c0-0.6,0.4-1,1-1l0,0c0.6,0,1,0.4,1,1l0,0c0,0.5-0.4,1-1,1l0,0C30.4-140,30-140.5,30-141z M20-141c0-0.6,0.4-1,1-1l0,0
					c0.6,0,1,0.4,1,1l0,0c0,0.5-0.4,1-1,1l0,0C20.4-140,20-140.5,20-141z M10-141c0-0.6,0.4-1,1-1l0,0c0.6,0,1,0.4,1,1l0,0
					c0,0.5-0.4,1-1,1l0,0C10.4-140,10-140.5,10-141z"/>
				<path class="st1" d="M241-140c-0.3,0-0.5-0.1-0.7-0.3c-0.2-0.2-0.3-0.5-0.3-0.7c0-0.3,0.1-0.5,0.3-0.7c0.4-0.4,1-0.4,1.4,0
					c0.2,0.2,0.3,0.4,0.3,0.7c0,0.3-0.1,0.5-0.3,0.7C241.5-140.1,241.3-140,241-140z"/>
			</g>
			<g>
				<path class="st1" d="M1-130c-0.3,0-0.5-0.1-0.7-0.3C0.1-130.5,0-130.7,0-131c0-0.3,0.1-0.5,0.3-0.7c0.3-0.3,0.7-0.4,1.1-0.2
					c0.1,0,0.2,0.1,0.3,0.2c0.2,0.2,0.3,0.4,0.3,0.7c0,0.3-0.1,0.5-0.3,0.7C1.5-130.1,1.3-130,1-130z"/>
				<path class="st1" d="M230-131c0-0.6,0.4-1,1-1l0,0c0.6,0,1,0.4,1,1l0,0c0,0.5-0.4,1-1,1l0,0C230.4-130,230-130.5,230-131z
					 M220-131c0-0.6,0.4-1,1-1l0,0c0.6,0,1,0.4,1,1l0,0c0,0.5-0.4,1-1,1l0,0C220.4-130,220-130.5,220-131z M210-131c0-0.6,0.4-1,1-1
					l0,0c0.6,0,1,0.4,1,1l0,0c0,0.5-0.4,1-1,1l0,0C210.4-130,210-130.5,210-131z M200-131c0-0.6,0.4-1,1-1l0,0c0.6,0,1,0.4,1,1l0,0
					c0,0.5-0.4,1-1,1l0,0C200.4-130,200-130.5,200-131z M190-131c0-0.6,0.4-1,1-1l0,0c0.6,0,1,0.4,1,1l0,0c0,0.5-0.4,1-1,1l0,0
					C190.4-130,190-130.5,190-131z M180-131c0-0.6,0.4-1,1-1l0,0c0.6,0,1,0.4,1,1l0,0c0,0.5-0.4,1-1,1l0,0
					C180.4-130,180-130.5,180-131z M170-131c0-0.6,0.4-1,1-1l0,0c0.6,0,1,0.4,1,1l0,0c0,0.5-0.4,1-1,1l0,0
					C170.4-130,170-130.5,170-131z M160-131c0-0.6,0.4-1,1-1l0,0c0.6,0,1,0.4,1,1l0,0c0,0.5-0.4,1-1,1l0,0
					C160.4-130,160-130.5,160-131z M150-131c0-0.6,0.4-1,1-1l0,0c0.6,0,1,0.4,1,1l0,0c0,0.5-0.4,1-1,1l0,0
					C150.4-130,150-130.5,150-131z M140-131c0-0.6,0.4-1,1-1l0,0c0.6,0,1,0.4,1,1l0,0c0,0.5-0.4,1-1,1l0,0
					C140.4-130,140-130.5,140-131z M130-131c0-0.6,0.4-1,1-1l0,0c0.6,0,1,0.4,1,1l0,0c0,0.5-0.4,1-1,1l0,0
					C130.4-130,130-130.5,130-131z M120-131c0-0.6,0.4-1,1-1l0,0c0.6,0,1,0.4,1,1l0,0c0,0.5-0.4,1-1,1l0,0
					C120.4-130,120-130.5,120-131z M110-131c0-0.6,0.4-1,1-1l0,0c0.6,0,1,0.4,1,1l0,0c0,0.5-0.4,1-1,1l0,0
					C110.4-130,110-130.5,110-131z M100-131c0-0.6,0.4-1,1-1l0,0c0.6,0,1,0.4,1,1l0,0c0,0.5-0.4,1-1,1l0,0
					C100.4-130,100-130.5,100-131z M90-131c0-0.6,0.4-1,1-1l0,0c0.6,0,1,0.4,1,1l0,0c0,0.5-0.4,1-1,1l0,0C90.4-130,90-130.5,90-131z
					 M80-131c0-0.6,0.4-1,1-1l0,0c0.6,0,1,0.4,1,1l0,0c0,0.5-0.4,1-1,1l0,0C80.4-130,80-130.5,80-131z M70-131c0-0.6,0.4-1,1-1l0,0
					c0.6,0,1,0.4,1,1l0,0c0,0.5-0.4,1-1,1l0,0C70.4-130,70-130.5,70-131z M60-131c0-0.6,0.4-1,1-1l0,0c0.6,0,1,0.4,1,1l0,0
					c0,0.5-0.4,1-1,1l0,0C60.4-130,60-130.5,60-131z M50-131c0-0.6,0.4-1,1-1l0,0c0.6,0,1,0.4,1,1l0,0c0,0.5-0.4,1-1,1l0,0
					C50.4-130,50-130.5,50-131z M40-131c0-0.6,0.4-1,1-1l0,0c0.6,0,1,0.4,1,1l0,0c0,0.5-0.4,1-1,1l0,0C40.4-130,40-130.5,40-131z
					 M30-131c0-0.6,0.4-1,1-1l0,0c0.6,0,1,0.4,1,1l0,0c0,0.5-0.4,1-1,1l0,0C30.4-130,30-130.5,30-131z M20-131c0-0.6,0.4-1,1-1l0,0
					c0.6,0,1,0.4,1,1l0,0c0,0.5-0.4,1-1,1l0,0C20.4-130,20-130.5,20-131z M10-131c0-0.6,0.4-1,1-1l0,0c0.6,0,1,0.4,1,1l0,0
					c0,0.5-0.4,1-1,1l0,0C10.4-130,10-130.5,10-131z"/>
				<path class="st1" d="M241-130c-0.3,0-0.5-0.1-0.7-0.3c-0.2-0.2-0.3-0.5-0.3-0.7c0-0.3,0.1-0.5,0.3-0.7c0.4-0.4,1-0.4,1.4,0
					c0.2,0.2,0.3,0.4,0.3,0.7c0,0.3-0.1,0.5-0.3,0.7C241.5-130.1,241.3-130,241-130z"/>
			</g>
			<g>
				<path class="st1" d="M1-120c-0.3,0-0.5-0.1-0.7-0.3C0.1-120.5,0-120.7,0-121c0-0.1,0-0.3,0.1-0.4c0.1-0.1,0.1-0.2,0.2-0.3
					c0.4-0.4,1-0.4,1.4,0c0.2,0.2,0.3,0.4,0.3,0.7c0,0.3-0.1,0.5-0.3,0.7C1.5-120.1,1.3-120,1-120z"/>
				<path class="st1" d="M230-121c0-0.6,0.4-1,1-1l0,0c0.6,0,1,0.4,1,1l0,0c0,0.5-0.4,1-1,1l0,0C230.4-120,230-120.5,230-121z
					 M220-121c0-0.6,0.4-1,1-1l0,0c0.6,0,1,0.4,1,1l0,0c0,0.5-0.4,1-1,1l0,0C220.4-120,220-120.5,220-121z M210-121c0-0.6,0.4-1,1-1
					l0,0c0.6,0,1,0.4,1,1l0,0c0,0.5-0.4,1-1,1l0,0C210.4-120,210-120.5,210-121z M200-121c0-0.6,0.4-1,1-1l0,0c0.6,0,1,0.4,1,1l0,0
					c0,0.5-0.4,1-1,1l0,0C200.4-120,200-120.5,200-121z M190-121c0-0.6,0.4-1,1-1l0,0c0.6,0,1,0.4,1,1l0,0c0,0.5-0.4,1-1,1l0,0
					C190.4-120,190-120.5,190-121z M180-121c0-0.6,0.4-1,1-1l0,0c0.6,0,1,0.4,1,1l0,0c0,0.5-0.4,1-1,1l0,0
					C180.4-120,180-120.5,180-121z M170-121c0-0.6,0.4-1,1-1l0,0c0.6,0,1,0.4,1,1l0,0c0,0.5-0.4,1-1,1l0,0
					C170.4-120,170-120.5,170-121z M160-121c0-0.6,0.4-1,1-1l0,0c0.6,0,1,0.4,1,1l0,0c0,0.5-0.4,1-1,1l0,0
					C160.4-120,160-120.5,160-121z M150-121c0-0.6,0.4-1,1-1l0,0c0.6,0,1,0.4,1,1l0,0c0,0.5-0.4,1-1,1l0,0
					C150.4-120,150-120.5,150-121z M140-121c0-0.6,0.4-1,1-1l0,0c0.6,0,1,0.4,1,1l0,0c0,0.5-0.4,1-1,1l0,0
					C140.4-120,140-120.5,140-121z M130-121c0-0.6,0.4-1,1-1l0,0c0.6,0,1,0.4,1,1l0,0c0,0.5-0.4,1-1,1l0,0
					C130.4-120,130-120.5,130-121z M120-121c0-0.6,0.4-1,1-1l0,0c0.6,0,1,0.4,1,1l0,0c0,0.5-0.4,1-1,1l0,0
					C120.4-120,120-120.5,120-121z M110-121c0-0.6,0.4-1,1-1l0,0c0.6,0,1,0.4,1,1l0,0c0,0.5-0.4,1-1,1l0,0
					C110.4-120,110-120.5,110-121z M100-121c0-0.6,0.4-1,1-1l0,0c0.6,0,1,0.4,1,1l0,0c0,0.5-0.4,1-1,1l0,0
					C100.4-120,100-120.5,100-121z M90-121c0-0.6,0.4-1,1-1l0,0c0.6,0,1,0.4,1,1l0,0c0,0.5-0.4,1-1,1l0,0C90.4-120,90-120.5,90-121z
					 M80-121c0-0.6,0.4-1,1-1l0,0c0.6,0,1,0.4,1,1l0,0c0,0.5-0.4,1-1,1l0,0C80.4-120,80-120.5,80-121z M70-121c0-0.6,0.4-1,1-1l0,0
					c0.6,0,1,0.4,1,1l0,0c0,0.5-0.4,1-1,1l0,0C70.4-120,70-120.5,70-121z M60-121c0-0.6,0.4-1,1-1l0,0c0.6,0,1,0.4,1,1l0,0
					c0,0.5-0.4,1-1,1l0,0C60.4-120,60-120.5,60-121z M50-121c0-0.6,0.4-1,1-1l0,0c0.6,0,1,0.4,1,1l0,0c0,0.5-0.4,1-1,1l0,0
					C50.4-120,50-120.5,50-121z M40-121c0-0.6,0.4-1,1-1l0,0c0.6,0,1,0.4,1,1l0,0c0,0.5-0.4,1-1,1l0,0C40.4-120,40-120.5,40-121z
					 M30-121c0-0.6,0.4-1,1-1l0,0c0.6,0,1,0.4,1,1l0,0c0,0.5-0.4,1-1,1l0,0C30.4-120,30-120.5,30-121z M20-121c0-0.6,0.4-1,1-1l0,0
					c0.6,0,1,0.4,1,1l0,0c0,0.5-0.4,1-1,1l0,0C20.4-120,20-120.5,20-121z M10-121c0-0.6,0.4-1,1-1l0,0c0.6,0,1,0.4,1,1l0,0
					c0,0.5-0.4,1-1,1l0,0C10.4-120,10-120.5,10-121z"/>
				<path class="st1" d="M241-120c-0.3,0-0.5-0.1-0.7-0.3c-0.2-0.2-0.3-0.5-0.3-0.7c0-0.3,0.1-0.5,0.3-0.7c0.4-0.4,1-0.4,1.4,0
					c0.2,0.2,0.3,0.4,0.3,0.7c0,0.3-0.1,0.5-0.3,0.7C241.5-120.1,241.3-120,241-120z"/>
			</g>
			<g>
				<path class="st1" d="M1-110c-0.1,0-0.3,0-0.4-0.1c-0.1,0-0.2-0.1-0.3-0.2c-0.1-0.1-0.2-0.2-0.2-0.3c0-0.1-0.1-0.3-0.1-0.4
					s0-0.3,0.1-0.4c0.1-0.1,0.1-0.2,0.2-0.3c0.4-0.4,1-0.4,1.4,0c0.1,0.1,0.2,0.2,0.2,0.3C2-111.3,2-111.1,2-111s0,0.3-0.1,0.4
					c-0.1,0.1-0.1,0.2-0.2,0.3C1.5-110.1,1.3-110,1-110z"/>
				<path class="st1" d="M230-111c0-0.6,0.4-1,1-1l0,0c0.6,0,1,0.4,1,1l0,0c0,0.5-0.4,1-1,1l0,0C230.4-110,230-110.5,230-111z
					 M220-111c0-0.6,0.4-1,1-1l0,0c0.6,0,1,0.4,1,1l0,0c0,0.5-0.4,1-1,1l0,0C220.4-110,220-110.5,220-111z M210-111c0-0.6,0.4-1,1-1
					l0,0c0.6,0,1,0.4,1,1l0,0c0,0.5-0.4,1-1,1l0,0C210.4-110,210-110.5,210-111z M200-111c0-0.6,0.4-1,1-1l0,0c0.6,0,1,0.4,1,1l0,0
					c0,0.5-0.4,1-1,1l0,0C200.4-110,200-110.5,200-111z M190-111c0-0.6,0.4-1,1-1l0,0c0.6,0,1,0.4,1,1l0,0c0,0.5-0.4,1-1,1l0,0
					C190.4-110,190-110.5,190-111z M180-111c0-0.6,0.4-1,1-1l0,0c0.6,0,1,0.4,1,1l0,0c0,0.5-0.4,1-1,1l0,0
					C180.4-110,180-110.5,180-111z M170-111c0-0.6,0.4-1,1-1l0,0c0.6,0,1,0.4,1,1l0,0c0,0.5-0.4,1-1,1l0,0
					C170.4-110,170-110.5,170-111z M160-111c0-0.6,0.4-1,1-1l0,0c0.6,0,1,0.4,1,1l0,0c0,0.5-0.4,1-1,1l0,0
					C160.4-110,160-110.5,160-111z M150-111c0-0.6,0.4-1,1-1l0,0c0.6,0,1,0.4,1,1l0,0c0,0.5-0.4,1-1,1l0,0
					C150.4-110,150-110.5,150-111z M140-111c0-0.6,0.4-1,1-1l0,0c0.6,0,1,0.4,1,1l0,0c0,0.5-0.4,1-1,1l0,0
					C140.4-110,140-110.5,140-111z M130-111c0-0.6,0.4-1,1-1l0,0c0.6,0,1,0.4,1,1l0,0c0,0.5-0.4,1-1,1l0,0
					C130.4-110,130-110.5,130-111z M120-111c0-0.6,0.4-1,1-1l0,0c0.6,0,1,0.4,1,1l0,0c0,0.5-0.4,1-1,1l0,0
					C120.4-110,120-110.5,120-111z M110-111c0-0.6,0.4-1,1-1l0,0c0.6,0,1,0.4,1,1l0,0c0,0.5-0.4,1-1,1l0,0
					C110.4-110,110-110.5,110-111z M100-111c0-0.6,0.4-1,1-1l0,0c0.6,0,1,0.4,1,1l0,0c0,0.5-0.4,1-1,1l0,0
					C100.4-110,100-110.5,100-111z M90-111c0-0.6,0.4-1,1-1l0,0c0.6,0,1,0.4,1,1l0,0c0,0.5-0.4,1-1,1l0,0C90.4-110,90-110.5,90-111z
					 M80-111c0-0.6,0.4-1,1-1l0,0c0.6,0,1,0.4,1,1l0,0c0,0.5-0.4,1-1,1l0,0C80.4-110,80-110.5,80-111z M70-111c0-0.6,0.4-1,1-1l0,0
					c0.6,0,1,0.4,1,1l0,0c0,0.5-0.4,1-1,1l0,0C70.4-110,70-110.5,70-111z M60-111c0-0.6,0.4-1,1-1l0,0c0.6,0,1,0.4,1,1l0,0
					c0,0.5-0.4,1-1,1l0,0C60.4-110,60-110.5,60-111z M50-111c0-0.6,0.4-1,1-1l0,0c0.6,0,1,0.4,1,1l0,0c0,0.5-0.4,1-1,1l0,0
					C50.4-110,50-110.5,50-111z M40-111c0-0.6,0.4-1,1-1l0,0c0.6,0,1,0.4,1,1l0,0c0,0.5-0.4,1-1,1l0,0C40.4-110,40-110.5,40-111z
					 M30-111c0-0.6,0.4-1,1-1l0,0c0.6,0,1,0.4,1,1l0,0c0,0.5-0.4,1-1,1l0,0C30.4-110,30-110.5,30-111z M20-111c0-0.6,0.4-1,1-1l0,0
					c0.6,0,1,0.4,1,1l0,0c0,0.5-0.4,1-1,1l0,0C20.4-110,20-110.5,20-111z M10-111c0-0.6,0.4-1,1-1l0,0c0.6,0,1,0.4,1,1l0,0
					c0,0.5-0.4,1-1,1l0,0C10.4-110,10-110.5,10-111z"/>
				<path class="st1" d="M241-110c-0.1,0-0.3,0-0.4-0.1c-0.1,0-0.2-0.1-0.3-0.2c-0.1-0.1-0.2-0.2-0.2-0.3c0-0.1-0.1-0.3-0.1-0.4
					s0-0.3,0.1-0.4c0.1-0.1,0.1-0.2,0.2-0.3c0.4-0.4,1-0.4,1.4,0c0.2,0.2,0.3,0.4,0.3,0.7c0,0.3-0.1,0.5-0.3,0.7
					c-0.1,0.1-0.2,0.2-0.3,0.2C241.3-110,241.1-110,241-110z"/>
			</g>
			<g>
				<path class="st1" d="M1-100c-0.3,0-0.5-0.1-0.7-0.3C0.1-100.5,0-100.7,0-101c0-0.3,0.1-0.5,0.3-0.7c0.4-0.4,1-0.4,1.4,0
					c0.2,0.2,0.3,0.4,0.3,0.7c0,0.3-0.1,0.5-0.3,0.7C1.5-100.1,1.3-100,1-100z"/>
				<path class="st1" d="M230-101c0-0.6,0.4-1,1-1l0,0c0.6,0,1,0.4,1,1l0,0c0,0.5-0.4,1-1,1l0,0C230.4-100,230-100.5,230-101z
					 M220-101c0-0.6,0.4-1,1-1l0,0c0.6,0,1,0.4,1,1l0,0c0,0.5-0.4,1-1,1l0,0C220.4-100,220-100.5,220-101z M210-101c0-0.6,0.4-1,1-1
					l0,0c0.6,0,1,0.4,1,1l0,0c0,0.5-0.4,1-1,1l0,0C210.4-100,210-100.5,210-101z M200-101c0-0.6,0.4-1,1-1l0,0c0.6,0,1,0.4,1,1l0,0
					c0,0.5-0.4,1-1,1l0,0C200.4-100,200-100.5,200-101z M190-101c0-0.6,0.4-1,1-1l0,0c0.6,0,1,0.4,1,1l0,0c0,0.5-0.4,1-1,1l0,0
					C190.4-100,190-100.5,190-101z M180-101c0-0.6,0.4-1,1-1l0,0c0.6,0,1,0.4,1,1l0,0c0,0.5-0.4,1-1,1l0,0
					C180.4-100,180-100.5,180-101z M170-101c0-0.6,0.4-1,1-1l0,0c0.6,0,1,0.4,1,1l0,0c0,0.5-0.4,1-1,1l0,0
					C170.4-100,170-100.5,170-101z M160-101c0-0.6,0.4-1,1-1l0,0c0.6,0,1,0.4,1,1l0,0c0,0.5-0.4,1-1,1l0,0
					C160.4-100,160-100.5,160-101z M150-101c0-0.6,0.4-1,1-1l0,0c0.6,0,1,0.4,1,1l0,0c0,0.5-0.4,1-1,1l0,0
					C150.4-100,150-100.5,150-101z M140-101c0-0.6,0.4-1,1-1l0,0c0.6,0,1,0.4,1,1l0,0c0,0.5-0.4,1-1,1l0,0
					C140.4-100,140-100.5,140-101z M130-101c0-0.6,0.4-1,1-1l0,0c0.6,0,1,0.4,1,1l0,0c0,0.5-0.4,1-1,1l0,0
					C130.4-100,130-100.5,130-101z M120-101c0-0.6,0.4-1,1-1l0,0c0.6,0,1,0.4,1,1l0,0c0,0.5-0.4,1-1,1l0,0
					C120.4-100,120-100.5,120-101z M110-101c0-0.6,0.4-1,1-1l0,0c0.6,0,1,0.4,1,1l0,0c0,0.5-0.4,1-1,1l0,0
					C110.4-100,110-100.5,110-101z M100-101c0-0.6,0.4-1,1-1l0,0c0.6,0,1,0.4,1,1l0,0c0,0.5-0.4,1-1,1l0,0
					C100.4-100,100-100.5,100-101z M90-101c0-0.6,0.4-1,1-1l0,0c0.6,0,1,0.4,1,1l0,0c0,0.5-0.4,1-1,1l0,0C90.4-100,90-100.5,90-101z
					 M80-101c0-0.6,0.4-1,1-1l0,0c0.6,0,1,0.4,1,1l0,0c0,0.5-0.4,1-1,1l0,0C80.4-100,80-100.5,80-101z M70-101c0-0.6,0.4-1,1-1l0,0
					c0.6,0,1,0.4,1,1l0,0c0,0.5-0.4,1-1,1l0,0C70.4-100,70-100.5,70-101z M60-101c0-0.6,0.4-1,1-1l0,0c0.6,0,1,0.4,1,1l0,0
					c0,0.5-0.4,1-1,1l0,0C60.4-100,60-100.5,60-101z M50-101c0-0.6,0.4-1,1-1l0,0c0.6,0,1,0.4,1,1l0,0c0,0.5-0.4,1-1,1l0,0
					C50.4-100,50-100.5,50-101z M40-101c0-0.6,0.4-1,1-1l0,0c0.6,0,1,0.4,1,1l0,0c0,0.5-0.4,1-1,1l0,0C40.4-100,40-100.5,40-101z
					 M30-101c0-0.6,0.4-1,1-1l0,0c0.6,0,1,0.4,1,1l0,0c0,0.5-0.4,1-1,1l0,0C30.4-100,30-100.5,30-101z M20-101c0-0.6,0.4-1,1-1l0,0
					c0.6,0,1,0.4,1,1l0,0c0,0.5-0.4,1-1,1l0,0C20.4-100,20-100.5,20-101z M10-101c0-0.6,0.4-1,1-1l0,0c0.6,0,1,0.4,1,1l0,0
					c0,0.5-0.4,1-1,1l0,0C10.4-100,10-100.5,10-101z"/>
				<path class="st1" d="M241-100c-0.3,0-0.5-0.1-0.7-0.3c-0.2-0.2-0.3-0.5-0.3-0.7c0-0.3,0.1-0.5,0.3-0.7c0.4-0.4,1-0.4,1.4,0
					c0.2,0.2,0.3,0.4,0.3,0.7c0,0.3-0.1,0.5-0.3,0.7C241.5-100.1,241.3-100,241-100z"/>
			</g>
			<g>
				<path class="st1" d="M1-90c-0.3,0-0.5-0.1-0.7-0.3C0.1-90.5,0-90.7,0-91c0-0.3,0.1-0.5,0.3-0.7C0.6-92,1-92.1,1.4-91.9
					c0.1,0,0.2,0.1,0.3,0.2C1.9-91.5,2-91.3,2-91c0,0.3-0.1,0.5-0.3,0.7C1.5-90.1,1.3-90,1-90z"/>
				<path class="st1" d="M230-91c0-0.6,0.4-1,1-1l0,0c0.6,0,1,0.4,1,1l0,0c0,0.5-0.4,1-1,1l0,0C230.4-90,230-90.5,230-91z M220-91
					c0-0.6,0.4-1,1-1l0,0c0.6,0,1,0.4,1,1l0,0c0,0.5-0.4,1-1,1l0,0C220.4-90,220-90.5,220-91z M210-91c0-0.6,0.4-1,1-1l0,0
					c0.6,0,1,0.4,1,1l0,0c0,0.5-0.4,1-1,1l0,0C210.4-90,210-90.5,210-91z M200-91c0-0.6,0.4-1,1-1l0,0c0.6,0,1,0.4,1,1l0,0
					c0,0.5-0.4,1-1,1l0,0C200.4-90,200-90.5,200-91z M190-91c0-0.6,0.4-1,1-1l0,0c0.6,0,1,0.4,1,1l0,0c0,0.5-0.4,1-1,1l0,0
					C190.4-90,190-90.5,190-91z M180-91c0-0.6,0.4-1,1-1l0,0c0.6,0,1,0.4,1,1l0,0c0,0.5-0.4,1-1,1l0,0C180.4-90,180-90.5,180-91z
					 M170-91c0-0.6,0.4-1,1-1l0,0c0.6,0,1,0.4,1,1l0,0c0,0.5-0.4,1-1,1l0,0C170.4-90,170-90.5,170-91z M160-91c0-0.6,0.4-1,1-1l0,0
					c0.6,0,1,0.4,1,1l0,0c0,0.5-0.4,1-1,1l0,0C160.4-90,160-90.5,160-91z M150-91c0-0.6,0.4-1,1-1l0,0c0.6,0,1,0.4,1,1l0,0
					c0,0.5-0.4,1-1,1l0,0C150.4-90,150-90.5,150-91z M140-91c0-0.6,0.4-1,1-1l0,0c0.6,0,1,0.4,1,1l0,0c0,0.5-0.4,1-1,1l0,0
					C140.4-90,140-90.5,140-91z M130-91c0-0.6,0.4-1,1-1l0,0c0.6,0,1,0.4,1,1l0,0c0,0.5-0.4,1-1,1l0,0C130.4-90,130-90.5,130-91z
					 M120-91c0-0.6,0.4-1,1-1l0,0c0.6,0,1,0.4,1,1l0,0c0,0.5-0.4,1-1,1l0,0C120.4-90,120-90.5,120-91z M110-91c0-0.6,0.4-1,1-1l0,0
					c0.6,0,1,0.4,1,1l0,0c0,0.5-0.4,1-1,1l0,0C110.4-90,110-90.5,110-91z M100-91c0-0.6,0.4-1,1-1l0,0c0.6,0,1,0.4,1,1l0,0
					c0,0.5-0.4,1-1,1l0,0C100.4-90,100-90.5,100-91z M90-91c0-0.6,0.4-1,1-1l0,0c0.6,0,1,0.4,1,1l0,0c0,0.5-0.4,1-1,1l0,0
					C90.4-90,90-90.5,90-91z M80-91c0-0.6,0.4-1,1-1l0,0c0.6,0,1,0.4,1,1l0,0c0,0.5-0.4,1-1,1l0,0C80.4-90,80-90.5,80-91z M70-91
					c0-0.6,0.4-1,1-1l0,0c0.6,0,1,0.4,1,1l0,0c0,0.5-0.4,1-1,1l0,0C70.4-90,70-90.5,70-91z M60-91c0-0.6,0.4-1,1-1l0,0
					c0.6,0,1,0.4,1,1l0,0c0,0.5-0.4,1-1,1l0,0C60.4-90,60-90.5,60-91z M50-91c0-0.6,0.4-1,1-1l0,0c0.6,0,1,0.4,1,1l0,0
					c0,0.5-0.4,1-1,1l0,0C50.4-90,50-90.5,50-91z M40-91c0-0.6,0.4-1,1-1l0,0c0.6,0,1,0.4,1,1l0,0c0,0.5-0.4,1-1,1l0,0
					C40.4-90,40-90.5,40-91z M30-91c0-0.6,0.4-1,1-1l0,0c0.6,0,1,0.4,1,1l0,0c0,0.5-0.4,1-1,1l0,0C30.4-90,30-90.5,30-91z M20-91
					c0-0.6,0.4-1,1-1l0,0c0.6,0,1,0.4,1,1l0,0c0,0.5-0.4,1-1,1l0,0C20.4-90,20-90.5,20-91z M10-91c0-0.6,0.4-1,1-1l0,0
					c0.6,0,1,0.4,1,1l0,0c0,0.5-0.4,1-1,1l0,0C10.4-90,10-90.5,10-91z"/>
				<path class="st1" d="M241-90c-0.3,0-0.5-0.1-0.7-0.3c-0.2-0.2-0.3-0.5-0.3-0.7c0-0.3,0.1-0.5,0.3-0.7c0.4-0.4,1-0.4,1.4,0
					c0.2,0.2,0.3,0.4,0.3,0.7c0,0.3-0.1,0.5-0.3,0.7C241.5-90.1,241.3-90,241-90z"/>
			</g>
			<g>
				<path class="st1" d="M1-80c-0.3,0-0.5-0.1-0.7-0.3C0.1-80.5,0-80.7,0-81c0-0.3,0.1-0.5,0.3-0.7c0.4-0.4,1-0.4,1.4,0
					C1.9-81.5,2-81.3,2-81c0,0.3-0.1,0.5-0.3,0.7C1.5-80.1,1.3-80,1-80z"/>
				<path class="st1" d="M230-81c0-0.6,0.4-1,1-1l0,0c0.6,0,1,0.4,1,1l0,0c0,0.5-0.4,1-1,1l0,0C230.4-80,230-80.5,230-81z M220-81
					c0-0.6,0.4-1,1-1l0,0c0.6,0,1,0.4,1,1l0,0c0,0.5-0.4,1-1,1l0,0C220.4-80,220-80.5,220-81z M210-81c0-0.6,0.4-1,1-1l0,0
					c0.6,0,1,0.4,1,1l0,0c0,0.5-0.4,1-1,1l0,0C210.4-80,210-80.5,210-81z M200-81c0-0.6,0.4-1,1-1l0,0c0.6,0,1,0.4,1,1l0,0
					c0,0.5-0.4,1-1,1l0,0C200.4-80,200-80.5,200-81z M190-81c0-0.6,0.4-1,1-1l0,0c0.6,0,1,0.4,1,1l0,0c0,0.5-0.4,1-1,1l0,0
					C190.4-80,190-80.5,190-81z M180-81c0-0.6,0.4-1,1-1l0,0c0.6,0,1,0.4,1,1l0,0c0,0.5-0.4,1-1,1l0,0C180.4-80,180-80.5,180-81z
					 M170-81c0-0.6,0.4-1,1-1l0,0c0.6,0,1,0.4,1,1l0,0c0,0.5-0.4,1-1,1l0,0C170.4-80,170-80.5,170-81z M160-81c0-0.6,0.4-1,1-1l0,0
					c0.6,0,1,0.4,1,1l0,0c0,0.5-0.4,1-1,1l0,0C160.4-80,160-80.5,160-81z M150-81c0-0.6,0.4-1,1-1l0,0c0.6,0,1,0.4,1,1l0,0
					c0,0.5-0.4,1-1,1l0,0C150.4-80,150-80.5,150-81z M140-81c0-0.6,0.4-1,1-1l0,0c0.6,0,1,0.4,1,1l0,0c0,0.5-0.4,1-1,1l0,0
					C140.4-80,140-80.5,140-81z M130-81c0-0.6,0.4-1,1-1l0,0c0.6,0,1,0.4,1,1l0,0c0,0.5-0.4,1-1,1l0,0C130.4-80,130-80.5,130-81z
					 M120-81c0-0.6,0.4-1,1-1l0,0c0.6,0,1,0.4,1,1l0,0c0,0.5-0.4,1-1,1l0,0C120.4-80,120-80.5,120-81z M110-81c0-0.6,0.4-1,1-1l0,0
					c0.6,0,1,0.4,1,1l0,0c0,0.5-0.4,1-1,1l0,0C110.4-80,110-80.5,110-81z M100-81c0-0.6,0.4-1,1-1l0,0c0.6,0,1,0.4,1,1l0,0
					c0,0.5-0.4,1-1,1l0,0C100.4-80,100-80.5,100-81z M90-81c0-0.6,0.4-1,1-1l0,0c0.6,0,1,0.4,1,1l0,0c0,0.5-0.4,1-1,1l0,0
					C90.4-80,90-80.5,90-81z M80-81c0-0.6,0.4-1,1-1l0,0c0.6,0,1,0.4,1,1l0,0c0,0.5-0.4,1-1,1l0,0C80.4-80,80-80.5,80-81z M70-81
					c0-0.6,0.4-1,1-1l0,0c0.6,0,1,0.4,1,1l0,0c0,0.5-0.4,1-1,1l0,0C70.4-80,70-80.5,70-81z M60-81c0-0.6,0.4-1,1-1l0,0
					c0.6,0,1,0.4,1,1l0,0c0,0.5-0.4,1-1,1l0,0C60.4-80,60-80.5,60-81z M50-81c0-0.6,0.4-1,1-1l0,0c0.6,0,1,0.4,1,1l0,0
					c0,0.5-0.4,1-1,1l0,0C50.4-80,50-80.5,50-81z M40-81c0-0.6,0.4-1,1-1l0,0c0.6,0,1,0.4,1,1l0,0c0,0.5-0.4,1-1,1l0,0
					C40.4-80,40-80.5,40-81z M30-81c0-0.6,0.4-1,1-1l0,0c0.6,0,1,0.4,1,1l0,0c0,0.5-0.4,1-1,1l0,0C30.4-80,30-80.5,30-81z M20-81
					c0-0.6,0.4-1,1-1l0,0c0.6,0,1,0.4,1,1l0,0c0,0.5-0.4,1-1,1l0,0C20.4-80,20-80.5,20-81z M10-81c0-0.6,0.4-1,1-1l0,0
					c0.6,0,1,0.4,1,1l0,0c0,0.5-0.4,1-1,1l0,0C10.4-80,10-80.5,10-81z"/>
				<path class="st1" d="M241-80c-0.3,0-0.5-0.1-0.7-0.3c-0.2-0.2-0.3-0.5-0.3-0.7c0-0.3,0.1-0.5,0.3-0.7c0.4-0.4,1-0.4,1.4,0
					c0.2,0.2,0.3,0.4,0.3,0.7c0,0.3-0.1,0.5-0.3,0.7C241.5-80.1,241.3-80,241-80z"/>
			</g>
			<g>
				<path class="st1" d="M1-70c-0.3,0-0.5-0.1-0.7-0.3c-0.1-0.1-0.2-0.2-0.2-0.3C0-70.7,0-70.9,0-71c0-0.3,0.1-0.5,0.3-0.7
					c0.1-0.1,0.2-0.2,0.3-0.2C1-72.1,1.4-72,1.7-71.7C1.9-71.5,2-71.3,2-71c0,0.1,0,0.3-0.1,0.4c-0.1,0.1-0.1,0.2-0.2,0.3
					C1.5-70.1,1.3-70,1-70z"/>
				<path class="st1" d="M230-71c0-0.6,0.4-1,1-1l0,0c0.6,0,1,0.4,1,1l0,0c0,0.5-0.4,1-1,1l0,0C230.4-70,230-70.5,230-71z M220-71
					c0-0.6,0.4-1,1-1l0,0c0.6,0,1,0.4,1,1l0,0c0,0.5-0.4,1-1,1l0,0C220.4-70,220-70.5,220-71z M210-71c0-0.6,0.4-1,1-1l0,0
					c0.6,0,1,0.4,1,1l0,0c0,0.5-0.4,1-1,1l0,0C210.4-70,210-70.5,210-71z M200-71c0-0.6,0.4-1,1-1l0,0c0.6,0,1,0.4,1,1l0,0
					c0,0.5-0.4,1-1,1l0,0C200.4-70,200-70.5,200-71z M190-71c0-0.6,0.4-1,1-1l0,0c0.6,0,1,0.4,1,1l0,0c0,0.5-0.4,1-1,1l0,0
					C190.4-70,190-70.5,190-71z M180-71c0-0.6,0.4-1,1-1l0,0c0.6,0,1,0.4,1,1l0,0c0,0.5-0.4,1-1,1l0,0C180.4-70,180-70.5,180-71z
					 M170-71c0-0.6,0.4-1,1-1l0,0c0.6,0,1,0.4,1,1l0,0c0,0.5-0.4,1-1,1l0,0C170.4-70,170-70.5,170-71z M160-71c0-0.6,0.4-1,1-1l0,0
					c0.6,0,1,0.4,1,1l0,0c0,0.5-0.4,1-1,1l0,0C160.4-70,160-70.5,160-71z M150-71c0-0.6,0.4-1,1-1l0,0c0.6,0,1,0.4,1,1l0,0
					c0,0.5-0.4,1-1,1l0,0C150.4-70,150-70.5,150-71z M140-71c0-0.6,0.4-1,1-1l0,0c0.6,0,1,0.4,1,1l0,0c0,0.5-0.4,1-1,1l0,0
					C140.4-70,140-70.5,140-71z M130-71c0-0.6,0.4-1,1-1l0,0c0.6,0,1,0.4,1,1l0,0c0,0.5-0.4,1-1,1l0,0C130.4-70,130-70.5,130-71z
					 M120-71c0-0.6,0.4-1,1-1l0,0c0.6,0,1,0.4,1,1l0,0c0,0.5-0.4,1-1,1l0,0C120.4-70,120-70.5,120-71z M110-71c0-0.6,0.4-1,1-1l0,0
					c0.6,0,1,0.4,1,1l0,0c0,0.5-0.4,1-1,1l0,0C110.4-70,110-70.5,110-71z M100-71c0-0.6,0.4-1,1-1l0,0c0.6,0,1,0.4,1,1l0,0
					c0,0.5-0.4,1-1,1l0,0C100.4-70,100-70.5,100-71z M90-71c0-0.6,0.4-1,1-1l0,0c0.6,0,1,0.4,1,1l0,0c0,0.5-0.4,1-1,1l0,0
					C90.4-70,90-70.5,90-71z M80-71c0-0.6,0.4-1,1-1l0,0c0.6,0,1,0.4,1,1l0,0c0,0.5-0.4,1-1,1l0,0C80.4-70,80-70.5,80-71z M70-71
					c0-0.6,0.4-1,1-1l0,0c0.6,0,1,0.4,1,1l0,0c0,0.5-0.4,1-1,1l0,0C70.4-70,70-70.5,70-71z M60-71c0-0.6,0.4-1,1-1l0,0
					c0.6,0,1,0.4,1,1l0,0c0,0.5-0.4,1-1,1l0,0C60.4-70,60-70.5,60-71z M50-71c0-0.6,0.4-1,1-1l0,0c0.6,0,1,0.4,1,1l0,0
					c0,0.5-0.4,1-1,1l0,0C50.4-70,50-70.5,50-71z M40-71c0-0.6,0.4-1,1-1l0,0c0.6,0,1,0.4,1,1l0,0c0,0.5-0.4,1-1,1l0,0
					C40.4-70,40-70.5,40-71z M30-71c0-0.6,0.4-1,1-1l0,0c0.6,0,1,0.4,1,1l0,0c0,0.5-0.4,1-1,1l0,0C30.4-70,30-70.5,30-71z M20-71
					c0-0.6,0.4-1,1-1l0,0c0.6,0,1,0.4,1,1l0,0c0,0.5-0.4,1-1,1l0,0C20.4-70,20-70.5,20-71z M10-71c0-0.6,0.4-1,1-1l0,0
					c0.6,0,1,0.4,1,1l0,0c0,0.5-0.4,1-1,1l0,0C10.4-70,10-70.5,10-71z"/>
				<path class="st1" d="M241-70c-0.3,0-0.5-0.1-0.7-0.3c-0.1-0.1-0.2-0.2-0.2-0.3c0-0.1-0.1-0.3-0.1-0.4c0-0.3,0.1-0.5,0.3-0.7
					c0.4-0.4,1-0.4,1.4,0c0.2,0.2,0.3,0.4,0.3,0.7c0,0.1,0,0.3-0.1,0.4s-0.1,0.2-0.2,0.3c-0.1,0-0.1,0.1-0.2,0.1
					c-0.1,0-0.1,0.1-0.2,0.1c-0.1,0-0.1,0-0.2,0.1C241.1-70,241.1-70,241-70z"/>
			</g>
			<g>
				<path class="st1" d="M1-60c-0.3,0-0.5-0.1-0.7-0.3C0.1-60.5,0-60.7,0-61c0-0.3,0.1-0.5,0.3-0.7c0.4-0.4,1-0.4,1.4,0
					C1.9-61.5,2-61.3,2-61c0,0.3-0.1,0.5-0.3,0.7C1.5-60.1,1.3-60,1-60z"/>
				<path class="st1" d="M230-61c0-0.6,0.4-1,1-1l0,0c0.6,0,1,0.4,1,1l0,0c0,0.5-0.4,1-1,1l0,0C230.4-60,230-60.5,230-61z M220-61
					c0-0.6,0.4-1,1-1l0,0c0.6,0,1,0.4,1,1l0,0c0,0.5-0.4,1-1,1l0,0C220.4-60,220-60.5,220-61z M210-61c0-0.6,0.4-1,1-1l0,0
					c0.6,0,1,0.4,1,1l0,0c0,0.5-0.4,1-1,1l0,0C210.4-60,210-60.5,210-61z M200-61c0-0.6,0.4-1,1-1l0,0c0.6,0,1,0.4,1,1l0,0
					c0,0.5-0.4,1-1,1l0,0C200.4-60,200-60.5,200-61z M190-61c0-0.6,0.4-1,1-1l0,0c0.6,0,1,0.4,1,1l0,0c0,0.5-0.4,1-1,1l0,0
					C190.4-60,190-60.5,190-61z M180-61c0-0.6,0.4-1,1-1l0,0c0.6,0,1,0.4,1,1l0,0c0,0.5-0.4,1-1,1l0,0C180.4-60,180-60.5,180-61z
					 M170-61c0-0.6,0.4-1,1-1l0,0c0.6,0,1,0.4,1,1l0,0c0,0.5-0.4,1-1,1l0,0C170.4-60,170-60.5,170-61z M160-61c0-0.6,0.4-1,1-1l0,0
					c0.6,0,1,0.4,1,1l0,0c0,0.5-0.4,1-1,1l0,0C160.4-60,160-60.5,160-61z M150-61c0-0.6,0.4-1,1-1l0,0c0.6,0,1,0.4,1,1l0,0
					c0,0.5-0.4,1-1,1l0,0C150.4-60,150-60.5,150-61z M140-61c0-0.6,0.4-1,1-1l0,0c0.6,0,1,0.4,1,1l0,0c0,0.5-0.4,1-1,1l0,0
					C140.4-60,140-60.5,140-61z M130-61c0-0.6,0.4-1,1-1l0,0c0.6,0,1,0.4,1,1l0,0c0,0.5-0.4,1-1,1l0,0C130.4-60,130-60.5,130-61z
					 M120-61c0-0.6,0.4-1,1-1l0,0c0.6,0,1,0.4,1,1l0,0c0,0.5-0.4,1-1,1l0,0C120.4-60,120-60.5,120-61z M110-61c0-0.6,0.4-1,1-1l0,0
					c0.6,0,1,0.4,1,1l0,0c0,0.5-0.4,1-1,1l0,0C110.4-60,110-60.5,110-61z M100-61c0-0.6,0.4-1,1-1l0,0c0.6,0,1,0.4,1,1l0,0
					c0,0.5-0.4,1-1,1l0,0C100.4-60,100-60.5,100-61z M90-61c0-0.6,0.4-1,1-1l0,0c0.6,0,1,0.4,1,1l0,0c0,0.5-0.4,1-1,1l0,0
					C90.4-60,90-60.5,90-61z M80-61c0-0.6,0.4-1,1-1l0,0c0.6,0,1,0.4,1,1l0,0c0,0.5-0.4,1-1,1l0,0C80.4-60,80-60.5,80-61z M70-61
					c0-0.6,0.4-1,1-1l0,0c0.6,0,1,0.4,1,1l0,0c0,0.5-0.4,1-1,1l0,0C70.4-60,70-60.5,70-61z M60-61c0-0.6,0.4-1,1-1l0,0
					c0.6,0,1,0.4,1,1l0,0c0,0.5-0.4,1-1,1l0,0C60.4-60,60-60.5,60-61z M50-61c0-0.6,0.4-1,1-1l0,0c0.6,0,1,0.4,1,1l0,0
					c0,0.5-0.4,1-1,1l0,0C50.4-60,50-60.5,50-61z M40-61c0-0.6,0.4-1,1-1l0,0c0.6,0,1,0.4,1,1l0,0c0,0.5-0.4,1-1,1l0,0
					C40.4-60,40-60.5,40-61z M30-61c0-0.6,0.4-1,1-1l0,0c0.6,0,1,0.4,1,1l0,0c0,0.5-0.4,1-1,1l0,0C30.4-60,30-60.5,30-61z M20-61
					c0-0.6,0.4-1,1-1l0,0c0.6,0,1,0.4,1,1l0,0c0,0.5-0.4,1-1,1l0,0C20.4-60,20-60.5,20-61z M10-61c0-0.6,0.4-1,1-1l0,0
					c0.6,0,1,0.4,1,1l0,0c0,0.5-0.4,1-1,1l0,0C10.4-60,10-60.5,10-61z"/>
				<path class="st1" d="M241-60c-0.3,0-0.5-0.1-0.7-0.3c-0.2-0.2-0.3-0.5-0.3-0.7c0-0.3,0.1-0.5,0.3-0.7c0.4-0.4,1-0.4,1.4,0
					c0.2,0.2,0.3,0.4,0.3,0.7c0,0.3-0.1,0.5-0.3,0.7C241.5-60.1,241.3-60,241-60z"/>
			</g>
			<g>
				<path class="st1" d="M1-50c-0.3,0-0.5-0.1-0.7-0.3c-0.1-0.1-0.2-0.2-0.2-0.3C0-50.7,0-50.9,0-51c0-0.3,0.1-0.5,0.3-0.7
					c0.4-0.4,1-0.4,1.4,0C1.9-51.5,2-51.3,2-51c0,0.1,0,0.3-0.1,0.4c-0.1,0.1-0.1,0.2-0.2,0.3C1.5-50.1,1.3-50,1-50z"/>
				<path class="st1" d="M230-51c0-0.6,0.4-1,1-1l0,0c0.6,0,1,0.4,1,1l0,0c0,0.5-0.4,1-1,1l0,0C230.4-50,230-50.5,230-51z M220-51
					c0-0.6,0.4-1,1-1l0,0c0.6,0,1,0.4,1,1l0,0c0,0.5-0.4,1-1,1l0,0C220.4-50,220-50.5,220-51z M210-51c0-0.6,0.4-1,1-1l0,0
					c0.6,0,1,0.4,1,1l0,0c0,0.5-0.4,1-1,1l0,0C210.4-50,210-50.5,210-51z M200-51c0-0.6,0.4-1,1-1l0,0c0.6,0,1,0.4,1,1l0,0
					c0,0.5-0.4,1-1,1l0,0C200.4-50,200-50.5,200-51z M190-51c0-0.6,0.4-1,1-1l0,0c0.6,0,1,0.4,1,1l0,0c0,0.5-0.4,1-1,1l0,0
					C190.4-50,190-50.5,190-51z M180-51c0-0.6,0.4-1,1-1l0,0c0.6,0,1,0.4,1,1l0,0c0,0.5-0.4,1-1,1l0,0C180.4-50,180-50.5,180-51z
					 M170-51c0-0.6,0.4-1,1-1l0,0c0.6,0,1,0.4,1,1l0,0c0,0.5-0.4,1-1,1l0,0C170.4-50,170-50.5,170-51z M160-51c0-0.6,0.4-1,1-1l0,0
					c0.6,0,1,0.4,1,1l0,0c0,0.5-0.4,1-1,1l0,0C160.4-50,160-50.5,160-51z M150-51c0-0.6,0.4-1,1-1l0,0c0.6,0,1,0.4,1,1l0,0
					c0,0.5-0.4,1-1,1l0,0C150.4-50,150-50.5,150-51z M140-51c0-0.6,0.4-1,1-1l0,0c0.6,0,1,0.4,1,1l0,0c0,0.5-0.4,1-1,1l0,0
					C140.4-50,140-50.5,140-51z M130-51c0-0.6,0.4-1,1-1l0,0c0.6,0,1,0.4,1,1l0,0c0,0.5-0.4,1-1,1l0,0C130.4-50,130-50.5,130-51z
					 M120-51c0-0.6,0.4-1,1-1l0,0c0.6,0,1,0.4,1,1l0,0c0,0.5-0.4,1-1,1l0,0C120.4-50,120-50.5,120-51z M110-51c0-0.6,0.4-1,1-1l0,0
					c0.6,0,1,0.4,1,1l0,0c0,0.5-0.4,1-1,1l0,0C110.4-50,110-50.5,110-51z M100-51c0-0.6,0.4-1,1-1l0,0c0.6,0,1,0.4,1,1l0,0
					c0,0.5-0.4,1-1,1l0,0C100.4-50,100-50.5,100-51z M90-51c0-0.6,0.4-1,1-1l0,0c0.6,0,1,0.4,1,1l0,0c0,0.5-0.4,1-1,1l0,0
					C90.4-50,90-50.5,90-51z M80-51c0-0.6,0.4-1,1-1l0,0c0.6,0,1,0.4,1,1l0,0c0,0.5-0.4,1-1,1l0,0C80.4-50,80-50.5,80-51z M70-51
					c0-0.6,0.4-1,1-1l0,0c0.6,0,1,0.4,1,1l0,0c0,0.5-0.4,1-1,1l0,0C70.4-50,70-50.5,70-51z M60-51c0-0.6,0.4-1,1-1l0,0
					c0.6,0,1,0.4,1,1l0,0c0,0.5-0.4,1-1,1l0,0C60.4-50,60-50.5,60-51z M50-51c0-0.6,0.4-1,1-1l0,0c0.6,0,1,0.4,1,1l0,0
					c0,0.5-0.4,1-1,1l0,0C50.4-50,50-50.5,50-51z M40-51c0-0.6,0.4-1,1-1l0,0c0.6,0,1,0.4,1,1l0,0c0,0.5-0.4,1-1,1l0,0
					C40.4-50,40-50.5,40-51z M30-51c0-0.6,0.4-1,1-1l0,0c0.6,0,1,0.4,1,1l0,0c0,0.5-0.4,1-1,1l0,0C30.4-50,30-50.5,30-51z M20-51
					c0-0.6,0.4-1,1-1l0,0c0.6,0,1,0.4,1,1l0,0c0,0.5-0.4,1-1,1l0,0C20.4-50,20-50.5,20-51z M10-51c0-0.6,0.4-1,1-1l0,0
					c0.6,0,1,0.4,1,1l0,0c0,0.5-0.4,1-1,1l0,0C10.4-50,10-50.5,10-51z"/>
				<path class="st1" d="M241-50c-0.3,0-0.5-0.1-0.7-0.3c-0.1-0.1-0.2-0.2-0.2-0.3c0-0.1-0.1-0.3-0.1-0.4c0-0.3,0.1-0.5,0.3-0.7
					c0.1-0.1,0.2-0.2,0.3-0.2c0.4-0.2,0.8-0.1,1.1,0.2c0.2,0.2,0.3,0.4,0.3,0.7c0,0.1,0,0.3-0.1,0.4c-0.1,0.1-0.1,0.2-0.2,0.3
					C241.5-50.1,241.3-50,241-50z"/>
			</g>
			<g>
				<path class="st1" d="M1-40c-0.1,0-0.1,0-0.2,0c-0.1,0-0.1,0-0.2-0.1c-0.1,0-0.1,0-0.2-0.1c-0.1,0-0.1-0.1-0.1-0.1
					C0.1-40.5,0-40.7,0-41c0-0.1,0-0.3,0.1-0.4c0.1-0.1,0.1-0.2,0.2-0.3c0.4-0.4,1-0.4,1.4,0c0.1,0.1,0.2,0.2,0.2,0.3
					C2-41.3,2-41.1,2-41c0,0.3-0.1,0.5-0.3,0.7C1.5-40.1,1.3-40,1-40z"/>
				<path class="st1" d="M230-41c0-0.6,0.4-1,1-1l0,0c0.6,0,1,0.4,1,1l0,0c0,0.5-0.4,1-1,1l0,0C230.4-40,230-40.5,230-41z M220-41
					c0-0.6,0.4-1,1-1l0,0c0.6,0,1,0.4,1,1l0,0c0,0.5-0.4,1-1,1l0,0C220.4-40,220-40.5,220-41z M210-41c0-0.6,0.4-1,1-1l0,0
					c0.6,0,1,0.4,1,1l0,0c0,0.5-0.4,1-1,1l0,0C210.4-40,210-40.5,210-41z M200-41c0-0.6,0.4-1,1-1l0,0c0.6,0,1,0.4,1,1l0,0
					c0,0.5-0.4,1-1,1l0,0C200.4-40,200-40.5,200-41z M190-41c0-0.6,0.4-1,1-1l0,0c0.6,0,1,0.4,1,1l0,0c0,0.5-0.4,1-1,1l0,0
					C190.4-40,190-40.5,190-41z M180-41c0-0.6,0.4-1,1-1l0,0c0.6,0,1,0.4,1,1l0,0c0,0.5-0.4,1-1,1l0,0C180.4-40,180-40.5,180-41z
					 M170-41c0-0.6,0.4-1,1-1l0,0c0.6,0,1,0.4,1,1l0,0c0,0.5-0.4,1-1,1l0,0C170.4-40,170-40.5,170-41z M160-41c0-0.6,0.4-1,1-1l0,0
					c0.6,0,1,0.4,1,1l0,0c0,0.5-0.4,1-1,1l0,0C160.4-40,160-40.5,160-41z M150-41c0-0.6,0.4-1,1-1l0,0c0.6,0,1,0.4,1,1l0,0
					c0,0.5-0.4,1-1,1l0,0C150.4-40,150-40.5,150-41z M140-41c0-0.6,0.4-1,1-1l0,0c0.6,0,1,0.4,1,1l0,0c0,0.5-0.4,1-1,1l0,0
					C140.4-40,140-40.5,140-41z M130-41c0-0.6,0.4-1,1-1l0,0c0.6,0,1,0.4,1,1l0,0c0,0.5-0.4,1-1,1l0,0C130.4-40,130-40.5,130-41z
					 M120-41c0-0.6,0.4-1,1-1l0,0c0.6,0,1,0.4,1,1l0,0c0,0.5-0.4,1-1,1l0,0C120.4-40,120-40.5,120-41z M110-41c0-0.6,0.4-1,1-1l0,0
					c0.6,0,1,0.4,1,1l0,0c0,0.5-0.4,1-1,1l0,0C110.4-40,110-40.5,110-41z M100-41c0-0.6,0.4-1,1-1l0,0c0.6,0,1,0.4,1,1l0,0
					c0,0.5-0.4,1-1,1l0,0C100.4-40,100-40.5,100-41z M90-41c0-0.6,0.4-1,1-1l0,0c0.6,0,1,0.4,1,1l0,0c0,0.5-0.4,1-1,1l0,0
					C90.4-40,90-40.5,90-41z M80-41c0-0.6,0.4-1,1-1l0,0c0.6,0,1,0.4,1,1l0,0c0,0.5-0.4,1-1,1l0,0C80.4-40,80-40.5,80-41z M70-41
					c0-0.6,0.4-1,1-1l0,0c0.6,0,1,0.4,1,1l0,0c0,0.5-0.4,1-1,1l0,0C70.4-40,70-40.5,70-41z M60-41c0-0.6,0.4-1,1-1l0,0
					c0.6,0,1,0.4,1,1l0,0c0,0.5-0.4,1-1,1l0,0C60.4-40,60-40.5,60-41z M50-41c0-0.6,0.4-1,1-1l0,0c0.6,0,1,0.4,1,1l0,0
					c0,0.5-0.4,1-1,1l0,0C50.4-40,50-40.5,50-41z M40-41c0-0.6,0.4-1,1-1l0,0c0.6,0,1,0.4,1,1l0,0c0,0.5-0.4,1-1,1l0,0
					C40.4-40,40-40.5,40-41z M30-41c0-0.6,0.4-1,1-1l0,0c0.6,0,1,0.4,1,1l0,0c0,0.5-0.4,1-1,1l0,0C30.4-40,30-40.5,30-41z M20-41
					c0-0.6,0.4-1,1-1l0,0c0.6,0,1,0.4,1,1l0,0c0,0.5-0.4,1-1,1l0,0C20.4-40,20-40.5,20-41z M10-41c0-0.6,0.4-1,1-1l0,0
					c0.6,0,1,0.4,1,1l0,0c0,0.5-0.4,1-1,1l0,0C10.4-40,10-40.5,10-41z"/>
				<path class="st1" d="M241-40c-0.3,0-0.5-0.1-0.7-0.3c-0.2-0.2-0.3-0.5-0.3-0.7c0-0.1,0-0.3,0.1-0.4c0.1-0.1,0.1-0.2,0.2-0.3
					c0.4-0.4,1-0.4,1.4,0c0.1,0.1,0.2,0.2,0.2,0.3c0.1,0.1,0.1,0.3,0.1,0.4c0,0.3-0.1,0.5-0.3,0.7C241.5-40.1,241.3-40,241-40z"/>
			</g>
			<g>
				<path class="st1" d="M1-30c-0.3,0-0.5-0.1-0.7-0.3C0.1-30.5,0-30.7,0-31c0-0.1,0-0.3,0.1-0.4c0.1-0.1,0.1-0.2,0.2-0.3
					c0.4-0.4,1-0.4,1.4,0c0.1,0.1,0.2,0.2,0.2,0.3C2-31.3,2-31.1,2-31c0,0.3-0.1,0.5-0.3,0.7C1.5-30.1,1.3-30,1-30z"/>
				<path class="st1" d="M230-31c0-0.6,0.4-1,1-1l0,0c0.6,0,1,0.4,1,1l0,0c0,0.5-0.4,1-1,1l0,0C230.4-30,230-30.5,230-31z M220-31
					c0-0.6,0.4-1,1-1l0,0c0.6,0,1,0.4,1,1l0,0c0,0.5-0.4,1-1,1l0,0C220.4-30,220-30.5,220-31z M210-31c0-0.6,0.4-1,1-1l0,0
					c0.6,0,1,0.4,1,1l0,0c0,0.5-0.4,1-1,1l0,0C210.4-30,210-30.5,210-31z M200-31c0-0.6,0.4-1,1-1l0,0c0.6,0,1,0.4,1,1l0,0
					c0,0.5-0.4,1-1,1l0,0C200.4-30,200-30.5,200-31z M190-31c0-0.6,0.4-1,1-1l0,0c0.6,0,1,0.4,1,1l0,0c0,0.5-0.4,1-1,1l0,0
					C190.4-30,190-30.5,190-31z M180-31c0-0.6,0.4-1,1-1l0,0c0.6,0,1,0.4,1,1l0,0c0,0.5-0.4,1-1,1l0,0C180.4-30,180-30.5,180-31z
					 M170-31c0-0.6,0.4-1,1-1l0,0c0.6,0,1,0.4,1,1l0,0c0,0.5-0.4,1-1,1l0,0C170.4-30,170-30.5,170-31z M160-31c0-0.6,0.4-1,1-1l0,0
					c0.6,0,1,0.4,1,1l0,0c0,0.5-0.4,1-1,1l0,0C160.4-30,160-30.5,160-31z M150-31c0-0.6,0.4-1,1-1l0,0c0.6,0,1,0.4,1,1l0,0
					c0,0.5-0.4,1-1,1l0,0C150.4-30,150-30.5,150-31z M140-31c0-0.6,0.4-1,1-1l0,0c0.6,0,1,0.4,1,1l0,0c0,0.5-0.4,1-1,1l0,0
					C140.4-30,140-30.5,140-31z M130-31c0-0.6,0.4-1,1-1l0,0c0.6,0,1,0.4,1,1l0,0c0,0.5-0.4,1-1,1l0,0C130.4-30,130-30.5,130-31z
					 M120-31c0-0.6,0.4-1,1-1l0,0c0.6,0,1,0.4,1,1l0,0c0,0.5-0.4,1-1,1l0,0C120.4-30,120-30.5,120-31z M110-31c0-0.6,0.4-1,1-1l0,0
					c0.6,0,1,0.4,1,1l0,0c0,0.5-0.4,1-1,1l0,0C110.4-30,110-30.5,110-31z M100-31c0-0.6,0.4-1,1-1l0,0c0.6,0,1,0.4,1,1l0,0
					c0,0.5-0.4,1-1,1l0,0C100.4-30,100-30.5,100-31z M90-31c0-0.6,0.4-1,1-1l0,0c0.6,0,1,0.4,1,1l0,0c0,0.5-0.4,1-1,1l0,0
					C90.4-30,90-30.5,90-31z M80-31c0-0.6,0.4-1,1-1l0,0c0.6,0,1,0.4,1,1l0,0c0,0.5-0.4,1-1,1l0,0C80.4-30,80-30.5,80-31z M70-31
					c0-0.6,0.4-1,1-1l0,0c0.6,0,1,0.4,1,1l0,0c0,0.5-0.4,1-1,1l0,0C70.4-30,70-30.5,70-31z M60-31c0-0.6,0.4-1,1-1l0,0
					c0.6,0,1,0.4,1,1l0,0c0,0.5-0.4,1-1,1l0,0C60.4-30,60-30.5,60-31z M50-31c0-0.6,0.4-1,1-1l0,0c0.6,0,1,0.4,1,1l0,0
					c0,0.5-0.4,1-1,1l0,0C50.4-30,50-30.5,50-31z M40-31c0-0.6,0.4-1,1-1l0,0c0.6,0,1,0.4,1,1l0,0c0,0.5-0.4,1-1,1l0,0
					C40.4-30,40-30.5,40-31z M30-31c0-0.6,0.4-1,1-1l0,0c0.6,0,1,0.4,1,1l0,0c0,0.5-0.4,1-1,1l0,0C30.4-30,30-30.5,30-31z M20-31
					c0-0.6,0.4-1,1-1l0,0c0.6,0,1,0.4,1,1l0,0c0,0.5-0.4,1-1,1l0,0C20.4-30,20-30.5,20-31z M10-31c0-0.6,0.4-1,1-1l0,0
					c0.6,0,1,0.4,1,1l0,0c0,0.5-0.4,1-1,1l0,0C10.4-30,10-30.5,10-31z"/>
				<path class="st1" d="M241-30c-0.3,0-0.5-0.1-0.7-0.3c-0.2-0.2-0.3-0.5-0.3-0.7c0-0.1,0-0.3,0.1-0.4c0.1-0.1,0.1-0.2,0.2-0.3
					c0.3-0.3,0.7-0.4,1.1-0.2c0.1,0,0.2,0.1,0.3,0.2c0.1,0.1,0.2,0.2,0.2,0.3c0.1,0.1,0.1,0.3,0.1,0.4c0,0.3-0.1,0.5-0.3,0.7
					C241.5-30.1,241.3-30,241-30z"/>
			</g>
			<g>
				<path class="st1" d="M1-20c-0.3,0-0.5-0.1-0.7-0.3c-0.1-0.1-0.2-0.2-0.2-0.3C0-20.7,0-20.9,0-21c0-0.3,0.1-0.5,0.3-0.7
					c0.4-0.4,1-0.4,1.4,0c0,0,0.1,0.1,0.1,0.1c0,0.1,0.1,0.1,0.1,0.2c0,0.1,0.1,0.1,0.1,0.2c0,0.1,0,0.1,0,0.2
					c0,0.3-0.1,0.5-0.3,0.7C1.5-20.1,1.3-20,1-20z"/>
				<path class="st1" d="M230-21c0-0.6,0.4-1,1-1l0,0c0.6,0,1,0.4,1,1l0,0c0,0.5-0.4,1-1,1l0,0C230.4-20,230-20.5,230-21z M220-21
					c0-0.6,0.4-1,1-1l0,0c0.6,0,1,0.4,1,1l0,0c0,0.5-0.4,1-1,1l0,0C220.4-20,220-20.5,220-21z M210-21c0-0.6,0.4-1,1-1l0,0
					c0.6,0,1,0.4,1,1l0,0c0,0.5-0.4,1-1,1l0,0C210.4-20,210-20.5,210-21z M200-21c0-0.6,0.4-1,1-1l0,0c0.6,0,1,0.4,1,1l0,0
					c0,0.5-0.4,1-1,1l0,0C200.4-20,200-20.5,200-21z M190-21c0-0.6,0.4-1,1-1l0,0c0.6,0,1,0.4,1,1l0,0c0,0.5-0.4,1-1,1l0,0
					C190.4-20,190-20.5,190-21z M180-21c0-0.6,0.4-1,1-1l0,0c0.6,0,1,0.4,1,1l0,0c0,0.5-0.4,1-1,1l0,0C180.4-20,180-20.5,180-21z
					 M170-21c0-0.6,0.4-1,1-1l0,0c0.6,0,1,0.4,1,1l0,0c0,0.5-0.4,1-1,1l0,0C170.4-20,170-20.5,170-21z M160-21c0-0.6,0.4-1,1-1l0,0
					c0.6,0,1,0.4,1,1l0,0c0,0.5-0.4,1-1,1l0,0C160.4-20,160-20.5,160-21z M150-21c0-0.6,0.4-1,1-1l0,0c0.6,0,1,0.4,1,1l0,0
					c0,0.5-0.4,1-1,1l0,0C150.4-20,150-20.5,150-21z M140-21c0-0.6,0.4-1,1-1l0,0c0.6,0,1,0.4,1,1l0,0c0,0.5-0.4,1-1,1l0,0
					C140.4-20,140-20.5,140-21z M130-21c0-0.6,0.4-1,1-1l0,0c0.6,0,1,0.4,1,1l0,0c0,0.5-0.4,1-1,1l0,0C130.4-20,130-20.5,130-21z
					 M120-21c0-0.6,0.4-1,1-1l0,0c0.6,0,1,0.4,1,1l0,0c0,0.5-0.4,1-1,1l0,0C120.4-20,120-20.5,120-21z M110-21c0-0.6,0.4-1,1-1l0,0
					c0.6,0,1,0.4,1,1l0,0c0,0.5-0.4,1-1,1l0,0C110.4-20,110-20.5,110-21z M100-21c0-0.6,0.4-1,1-1l0,0c0.6,0,1,0.4,1,1l0,0
					c0,0.5-0.4,1-1,1l0,0C100.4-20,100-20.5,100-21z M90-21c0-0.6,0.4-1,1-1l0,0c0.6,0,1,0.4,1,1l0,0c0,0.5-0.4,1-1,1l0,0
					C90.4-20,90-20.5,90-21z M80-21c0-0.6,0.4-1,1-1l0,0c0.6,0,1,0.4,1,1l0,0c0,0.5-0.4,1-1,1l0,0C80.4-20,80-20.5,80-21z M70-21
					c0-0.6,0.4-1,1-1l0,0c0.6,0,1,0.4,1,1l0,0c0,0.5-0.4,1-1,1l0,0C70.4-20,70-20.5,70-21z M60-21c0-0.6,0.4-1,1-1l0,0
					c0.6,0,1,0.4,1,1l0,0c0,0.5-0.4,1-1,1l0,0C60.4-20,60-20.5,60-21z M50-21c0-0.6,0.4-1,1-1l0,0c0.6,0,1,0.4,1,1l0,0
					c0,0.5-0.4,1-1,1l0,0C50.4-20,50-20.5,50-21z M40-21c0-0.6,0.4-1,1-1l0,0c0.6,0,1,0.4,1,1l0,0c0,0.5-0.4,1-1,1l0,0
					C40.4-20,40-20.5,40-21z M30-21c0-0.6,0.4-1,1-1l0,0c0.6,0,1,0.4,1,1l0,0c0,0.5-0.4,1-1,1l0,0C30.4-20,30-20.5,30-21z M20-21
					c0-0.6,0.4-1,1-1l0,0c0.6,0,1,0.4,1,1l0,0c0,0.5-0.4,1-1,1l0,0C20.4-20,20-20.5,20-21z M10-21c0-0.6,0.4-1,1-1l0,0
					c0.6,0,1,0.4,1,1l0,0c0,0.5-0.4,1-1,1l0,0C10.4-20,10-20.5,10-21z"/>
				<path class="st1" d="M241-20c-0.3,0-0.5-0.1-0.7-0.3c-0.1-0.1-0.2-0.2-0.2-0.3c0-0.1-0.1-0.3-0.1-0.4c0-0.3,0.1-0.5,0.3-0.7
					c0.4-0.4,1-0.4,1.4,0c0.2,0.2,0.3,0.4,0.3,0.7c0,0.1,0,0.3-0.1,0.4s-0.1,0.2-0.2,0.3C241.5-20.1,241.3-20,241-20z"/>
			</g>
			<g>
				<path class="st1" d="M1-10c-0.3,0-0.5-0.1-0.7-0.3c-0.1-0.1-0.2-0.2-0.2-0.3C0-10.7,0-10.9,0-11c0-0.3,0.1-0.5,0.3-0.7
					c0.4-0.4,1-0.4,1.4,0C1.9-11.5,2-11.3,2-11c0,0.1,0,0.3-0.1,0.4s-0.1,0.2-0.2,0.3C1.5-10.1,1.3-10,1-10z"/>
				<path class="st1" d="M230-11c0-0.6,0.4-1,1-1l0,0c0.6,0,1,0.4,1,1l0,0c0,0.5-0.4,1-1,1l0,0C230.4-10,230-10.5,230-11z M220-11
					c0-0.6,0.4-1,1-1l0,0c0.6,0,1,0.4,1,1l0,0c0,0.5-0.4,1-1,1l0,0C220.4-10,220-10.5,220-11z M210-11c0-0.6,0.4-1,1-1l0,0
					c0.6,0,1,0.4,1,1l0,0c0,0.5-0.4,1-1,1l0,0C210.4-10,210-10.5,210-11z M200-11c0-0.6,0.4-1,1-1l0,0c0.6,0,1,0.4,1,1l0,0
					c0,0.5-0.4,1-1,1l0,0C200.4-10,200-10.5,200-11z M190-11c0-0.6,0.4-1,1-1l0,0c0.6,0,1,0.4,1,1l0,0c0,0.5-0.4,1-1,1l0,0
					C190.4-10,190-10.5,190-11z M180-11c0-0.6,0.4-1,1-1l0,0c0.6,0,1,0.4,1,1l0,0c0,0.5-0.4,1-1,1l0,0C180.4-10,180-10.5,180-11z
					 M170-11c0-0.6,0.4-1,1-1l0,0c0.6,0,1,0.4,1,1l0,0c0,0.5-0.4,1-1,1l0,0C170.4-10,170-10.5,170-11z M160-11c0-0.6,0.4-1,1-1l0,0
					c0.6,0,1,0.4,1,1l0,0c0,0.5-0.4,1-1,1l0,0C160.4-10,160-10.5,160-11z M150-11c0-0.6,0.4-1,1-1l0,0c0.6,0,1,0.4,1,1l0,0
					c0,0.5-0.4,1-1,1l0,0C150.4-10,150-10.5,150-11z M140-11c0-0.6,0.4-1,1-1l0,0c0.6,0,1,0.4,1,1l0,0c0,0.5-0.4,1-1,1l0,0
					C140.4-10,140-10.5,140-11z M130-11c0-0.6,0.4-1,1-1l0,0c0.6,0,1,0.4,1,1l0,0c0,0.5-0.4,1-1,1l0,0C130.4-10,130-10.5,130-11z
					 M120-11c0-0.6,0.4-1,1-1l0,0c0.6,0,1,0.4,1,1l0,0c0,0.5-0.4,1-1,1l0,0C120.4-10,120-10.5,120-11z M110-11c0-0.6,0.4-1,1-1l0,0
					c0.6,0,1,0.4,1,1l0,0c0,0.5-0.4,1-1,1l0,0C110.4-10,110-10.5,110-11z M100-11c0-0.6,0.4-1,1-1l0,0c0.6,0,1,0.4,1,1l0,0
					c0,0.5-0.4,1-1,1l0,0C100.4-10,100-10.5,100-11z M90-11c0-0.6,0.4-1,1-1l0,0c0.6,0,1,0.4,1,1l0,0c0,0.5-0.4,1-1,1l0,0
					C90.4-10,90-10.5,90-11z M80-11c0-0.6,0.4-1,1-1l0,0c0.6,0,1,0.4,1,1l0,0c0,0.5-0.4,1-1,1l0,0C80.4-10,80-10.5,80-11z M70-11
					c0-0.6,0.4-1,1-1l0,0c0.6,0,1,0.4,1,1l0,0c0,0.5-0.4,1-1,1l0,0C70.4-10,70-10.5,70-11z M60-11c0-0.6,0.4-1,1-1l0,0
					c0.6,0,1,0.4,1,1l0,0c0,0.5-0.4,1-1,1l0,0C60.4-10,60-10.5,60-11z M50-11c0-0.6,0.4-1,1-1l0,0c0.6,0,1,0.4,1,1l0,0
					c0,0.5-0.4,1-1,1l0,0C50.4-10,50-10.5,50-11z M40-11c0-0.6,0.4-1,1-1l0,0c0.6,0,1,0.4,1,1l0,0c0,0.5-0.4,1-1,1l0,0
					C40.4-10,40-10.5,40-11z M30-11c0-0.6,0.4-1,1-1l0,0c0.6,0,1,0.4,1,1l0,0c0,0.5-0.4,1-1,1l0,0C30.4-10,30-10.5,30-11z M20-11
					c0-0.6,0.4-1,1-1l0,0c0.6,0,1,0.4,1,1l0,0c0,0.5-0.4,1-1,1l0,0C20.4-10,20-10.5,20-11z M10-11c0-0.6,0.4-1,1-1l0,0
					c0.6,0,1,0.4,1,1l0,0c0,0.5-0.4,1-1,1l0,0C10.4-10,10-10.5,10-11z"/>
				<path class="st1" d="M241-10c-0.3,0-0.5-0.1-0.7-0.3c-0.1-0.1-0.2-0.2-0.2-0.3c0-0.1-0.1-0.3-0.1-0.4c0-0.3,0.1-0.5,0.3-0.7
					c0.4-0.4,1-0.4,1.4,0c0.2,0.2,0.3,0.4,0.3,0.7c0,0.1,0,0.3-0.1,0.4s-0.1,0.2-0.2,0.3C241.5-10.1,241.3-10,241-10z"/>
			</g>
			<g>
				<path class="st1" d="M1,0C0.7,0,0.5-0.1,0.3-0.3C0.2-0.4,0.1-0.5,0.1-0.6C0-0.7,0-0.9,0-1s0-0.3,0.1-0.4
					c0.1-0.1,0.1-0.2,0.2-0.3c0.4-0.4,1-0.4,1.4,0c0.1,0.1,0.2,0.2,0.2,0.3C2-1.3,2-1.1,2-1s0,0.3-0.1,0.4C1.9-0.5,1.8-0.4,1.7-0.3
					C1.6-0.2,1.5-0.1,1.4-0.1C1.3,0,1.1,0,1,0z"/>
				<path class="st1" d="M230-1c0-0.6,0.4-1,1-1l0,0c0.6,0,1,0.4,1,1l0,0c0,0.5-0.4,1-1,1l0,0C230.4,0,230-0.5,230-1z M220-1
					c0-0.6,0.4-1,1-1l0,0c0.6,0,1,0.4,1,1l0,0c0,0.5-0.4,1-1,1l0,0C220.4,0,220-0.5,220-1z M210-1c0-0.6,0.4-1,1-1l0,0
					c0.6,0,1,0.4,1,1l0,0c0,0.5-0.4,1-1,1l0,0C210.4,0,210-0.5,210-1z M200-1c0-0.6,0.4-1,1-1l0,0c0.6,0,1,0.4,1,1l0,0
					c0,0.5-0.4,1-1,1l0,0C200.4,0,200-0.5,200-1z M190-1c0-0.6,0.4-1,1-1l0,0c0.6,0,1,0.4,1,1l0,0c0,0.5-0.4,1-1,1l0,0
					C190.4,0,190-0.5,190-1z M180-1c0-0.6,0.4-1,1-1l0,0c0.6,0,1,0.4,1,1l0,0c0,0.5-0.4,1-1,1l0,0C180.4,0,180-0.5,180-1z M170-1
					c0-0.6,0.4-1,1-1l0,0c0.6,0,1,0.4,1,1l0,0c0,0.5-0.4,1-1,1l0,0C170.4,0,170-0.5,170-1z M160-1c0-0.6,0.4-1,1-1l0,0
					c0.6,0,1,0.4,1,1l0,0c0,0.5-0.4,1-1,1l0,0C160.4,0,160-0.5,160-1z M150-1c0-0.6,0.4-1,1-1l0,0c0.6,0,1,0.4,1,1l0,0
					c0,0.5-0.4,1-1,1l0,0C150.4,0,150-0.5,150-1z M140-1c0-0.6,0.4-1,1-1l0,0c0.6,0,1,0.4,1,1l0,0c0,0.5-0.4,1-1,1l0,0
					C140.4,0,140-0.5,140-1z M130-1c0-0.6,0.4-1,1-1l0,0c0.6,0,1,0.4,1,1l0,0c0,0.5-0.4,1-1,1l0,0C130.4,0,130-0.5,130-1z M120-1
					c0-0.6,0.4-1,1-1l0,0c0.6,0,1,0.4,1,1l0,0c0,0.5-0.4,1-1,1l0,0C120.4,0,120-0.5,120-1z M110-1c0-0.6,0.4-1,1-1l0,0
					c0.6,0,1,0.4,1,1l0,0c0,0.5-0.4,1-1,1l0,0C110.4,0,110-0.5,110-1z M100-1c0-0.6,0.4-1,1-1l0,0c0.6,0,1,0.4,1,1l0,0
					c0,0.5-0.4,1-1,1l0,0C100.4,0,100-0.5,100-1z M90-1c0-0.6,0.4-1,1-1l0,0c0.6,0,1,0.4,1,1l0,0c0,0.5-0.4,1-1,1l0,0
					C90.4,0,90-0.5,90-1z M80-1c0-0.6,0.4-1,1-1l0,0c0.6,0,1,0.4,1,1l0,0c0,0.5-0.4,1-1,1l0,0C80.4,0,80-0.5,80-1z M70-1
					c0-0.6,0.4-1,1-1l0,0c0.6,0,1,0.4,1,1l0,0c0,0.5-0.4,1-1,1l0,0C70.4,0,70-0.5,70-1z M60-1c0-0.6,0.4-1,1-1l0,0c0.6,0,1,0.4,1,1
					l0,0c0,0.5-0.4,1-1,1l0,0C60.4,0,60-0.5,60-1z M50-1c0-0.6,0.4-1,1-1l0,0c0.6,0,1,0.4,1,1l0,0c0,0.5-0.4,1-1,1l0,0
					C50.4,0,50-0.5,50-1z M40-1c0-0.6,0.4-1,1-1l0,0c0.6,0,1,0.4,1,1l0,0c0,0.5-0.4,1-1,1l0,0C40.4,0,40-0.5,40-1z M30-1
					c0-0.6,0.4-1,1-1l0,0c0.6,0,1,0.4,1,1l0,0c0,0.5-0.4,1-1,1l0,0C30.4,0,30-0.5,30-1z M20-1c0-0.6,0.4-1,1-1l0,0c0.6,0,1,0.4,1,1
					l0,0c0,0.5-0.4,1-1,1l0,0C20.4,0,20-0.5,20-1z M10-1c0-0.6,0.4-1,1-1l0,0c0.6,0,1,0.4,1,1l0,0c0,0.5-0.4,1-1,1l0,0
					C10.4,0,10-0.5,10-1z"/>
				<path class="st1" d="M241,0c-0.3,0-0.5-0.1-0.7-0.3c-0.1-0.1-0.2-0.2-0.2-0.3c0-0.1-0.1-0.3-0.1-0.4s0-0.3,0.1-0.4
					c0.1-0.1,0.1-0.2,0.2-0.3c0.3-0.3,0.7-0.4,1.1-0.2c0.1,0,0.2,0.1,0.3,0.2c0.1,0.1,0.2,0.2,0.2,0.3C242-1.3,242-1.1,242-1
					s0,0.3-0.1,0.4c-0.1,0.1-0.1,0.2-0.2,0.3c-0.1,0.1-0.2,0.2-0.3,0.2C241.3,0,241.1,0,241,0z"/>
			</g>
		</g>
		<g>
			<g>
				<path class="st1" d="M1-240c-0.3,0-0.5-0.1-0.7-0.3C0.1-240.5,0-240.7,0-241c0-0.3,0.1-0.5,0.3-0.7c0.4-0.4,1-0.4,1.4,0
					c0.2,0.2,0.3,0.4,0.3,0.7c0,0.3-0.1,0.5-0.3,0.7C1.5-240.1,1.3-240,1-240z"/>
			</g>
			<g>
				<path class="st1" d="M1-230c-0.1,0-0.1,0-0.2,0c-0.1,0-0.1,0-0.2-0.1c-0.1,0-0.1,0-0.2-0.1c-0.1,0-0.1-0.1-0.1-0.1
					C0.1-230.5,0-230.7,0-231c0-0.1,0-0.3,0.1-0.4c0.1-0.1,0.1-0.2,0.2-0.3c0.4-0.4,1-0.4,1.4,0c0.1,0.1,0.2,0.2,0.2,0.3
					C2-231.3,2-231.1,2-231c0,0.3-0.1,0.5-0.3,0.7C1.5-230.1,1.3-230,1-230z"/>
			</g>
			<g>
				<path class="st1" d="M1-220c-0.3,0-0.5-0.1-0.7-0.3C0.1-220.5,0-220.7,0-221c0-0.3,0.1-0.5,0.3-0.7c0.4-0.4,1-0.4,1.4,0
					c0.2,0.2,0.3,0.4,0.3,0.7c0,0.3-0.1,0.5-0.3,0.7C1.5-220.1,1.3-220,1-220z"/>
			</g>
			<g>
				<path class="st1" d="M1-210c-0.3,0-0.5-0.1-0.7-0.3c-0.1-0.1-0.2-0.2-0.2-0.3c0-0.1-0.1-0.3-0.1-0.4s0-0.3,0.1-0.4
					c0.1-0.1,0.1-0.2,0.2-0.3c0.3-0.3,0.7-0.4,1.1-0.2c0.1,0,0.2,0.1,0.3,0.2c0.2,0.2,0.3,0.4,0.3,0.7c0,0.3-0.1,0.5-0.3,0.7
					C1.5-210.1,1.3-210,1-210z"/>
			</g>
			<g>
				<path class="st1" d="M1-200c-0.3,0-0.5-0.1-0.7-0.3C0.1-200.5,0-200.7,0-201c0-0.3,0.1-0.5,0.3-0.7c0.4-0.4,1-0.4,1.4,0
					c0.2,0.2,0.3,0.4,0.3,0.7c0,0.3-0.1,0.5-0.3,0.7C1.5-200.1,1.3-200,1-200z"/>
			</g>
			<g>
				<path class="st1" d="M1-190c-0.3,0-0.5-0.1-0.7-0.3c-0.1-0.1-0.2-0.2-0.2-0.3c0-0.1-0.1-0.3-0.1-0.4s0-0.3,0.1-0.4
					c0.1-0.1,0.1-0.2,0.2-0.3c0.4-0.4,1-0.4,1.4,0c0.1,0.1,0.2,0.2,0.2,0.3C2-191.3,2-191.1,2-191s0,0.3-0.1,0.4
					c-0.1,0.1-0.1,0.2-0.2,0.3C1.5-190.1,1.3-190,1-190z"/>
			</g>
			<g>
				<path class="st1" d="M1-180c-0.3,0-0.5-0.1-0.7-0.3C0.1-180.5,0-180.7,0-181c0-0.3,0.1-0.5,0.3-0.7c0.4-0.4,1-0.4,1.4,0
					c0.2,0.2,0.3,0.4,0.3,0.7c0,0.3-0.1,0.5-0.3,0.7C1.5-180.1,1.3-180,1-180z"/>
			</g>
			<g>
				<path class="st1" d="M1-170c-0.3,0-0.5-0.1-0.7-0.3C0.1-170.5,0-170.7,0-171c0-0.3,0.1-0.5,0.3-0.7c0.4-0.4,1-0.4,1.4,0
					c0.2,0.2,0.3,0.4,0.3,0.7c0,0.3-0.1,0.5-0.3,0.7C1.5-170.1,1.3-170,1-170z"/>
			</g>
			<g>
				<path class="st1" d="M1-160c-0.3,0-0.5-0.1-0.7-0.3C0.1-160.5,0-160.7,0-161c0-0.3,0.1-0.5,0.3-0.7c0.4-0.4,1-0.4,1.4,0
					c0.2,0.2,0.3,0.4,0.3,0.7c0,0.3-0.1,0.5-0.3,0.7C1.5-160.1,1.3-160,1-160z"/>
			</g>
			<g>
				<path class="st1" d="M1-150c-0.3,0-0.5-0.1-0.7-0.3C0.1-150.5,0-150.7,0-151c0-0.3,0.1-0.5,0.3-0.7c0.4-0.4,1-0.4,1.4,0
					c0.2,0.2,0.3,0.4,0.3,0.7c0,0.3-0.1,0.5-0.3,0.7C1.5-150.1,1.3-150,1-150z"/>
			</g>
			<g>
				<path class="st1" d="M1-140c-0.3,0-0.5-0.1-0.7-0.3C0.1-140.5,0-140.7,0-141c0-0.3,0.1-0.5,0.3-0.7c0.4-0.4,1-0.4,1.4,0
					c0.2,0.2,0.3,0.4,0.3,0.7c0,0.3-0.1,0.5-0.3,0.7C1.5-140.1,1.3-140,1-140z"/>
			</g>
			<g>
				<path class="st1" d="M1-130c-0.3,0-0.5-0.1-0.7-0.3C0.1-130.5,0-130.7,0-131c0-0.3,0.1-0.5,0.3-0.7c0.4-0.4,1-0.4,1.4,0
					c0.2,0.2,0.3,0.4,0.3,0.7c0,0.3-0.1,0.5-0.3,0.7C1.5-130.1,1.3-130,1-130z"/>
			</g>
			<g>
				<path class="st1" d="M1-120c-0.3,0-0.5-0.1-0.7-0.3C0.1-120.5,0-120.7,0-121c0-0.3,0.1-0.5,0.3-0.7c0.4-0.4,1-0.4,1.4,0
					c0.2,0.2,0.3,0.4,0.3,0.7c0,0.3-0.1,0.5-0.3,0.7C1.5-120.1,1.3-120,1-120z"/>
			</g>
			<g>
				<path class="st1" d="M1-110c-0.1,0-0.3,0-0.4-0.1c-0.1,0-0.2-0.1-0.3-0.2c-0.1-0.1-0.2-0.2-0.2-0.3c0-0.1-0.1-0.3-0.1-0.4
					s0-0.3,0.1-0.4c0.1-0.1,0.1-0.2,0.2-0.3c0.4-0.4,1-0.4,1.4,0c0.2,0.2,0.3,0.4,0.3,0.7c0,0.3-0.1,0.5-0.3,0.7
					c-0.1,0.1-0.2,0.2-0.3,0.2C1.3-110,1.1-110,1-110z"/>
			</g>
			<g>
				<path class="st1" d="M1-100c-0.3,0-0.5-0.1-0.7-0.3C0.1-100.5,0-100.7,0-101c0-0.3,0.1-0.5,0.3-0.7c0.4-0.4,1-0.4,1.4,0
					c0.2,0.2,0.3,0.4,0.3,0.7c0,0.3-0.1,0.5-0.3,0.7C1.5-100.1,1.3-100,1-100z"/>
			</g>
			<g>
				<path class="st1" d="M1-90c-0.3,0-0.5-0.1-0.7-0.3C0.1-90.5,0-90.7,0-91c0-0.3,0.1-0.5,0.3-0.7c0.4-0.4,1-0.4,1.4,0
					C1.9-91.5,2-91.3,2-91c0,0.3-0.1,0.5-0.3,0.7C1.5-90.1,1.3-90,1-90z"/>
			</g>
			<g>
				<path class="st1" d="M1-80c-0.3,0-0.5-0.1-0.7-0.3C0.1-80.5,0-80.7,0-81c0-0.3,0.1-0.5,0.3-0.7c0.4-0.4,1-0.4,1.4,0
					C1.9-81.5,2-81.3,2-81c0,0.3-0.1,0.5-0.3,0.7C1.5-80.1,1.3-80,1-80z"/>
			</g>
			<g>
				<path class="st1" d="M1-70c-0.3,0-0.5-0.1-0.7-0.3c-0.1-0.1-0.2-0.2-0.2-0.3C0-70.7,0-70.9,0-71c0-0.3,0.1-0.5,0.3-0.7
					c0.4-0.4,1-0.4,1.4,0C1.9-71.5,2-71.3,2-71c0,0.1,0,0.3-0.1,0.4s-0.1,0.2-0.2,0.3c-0.1,0-0.1,0.1-0.2,0.1
					c-0.1,0-0.1,0.1-0.2,0.1c-0.1,0-0.1,0-0.2,0.1C1.1-70,1.1-70,1-70z"/>
			</g>
			<g>
				<path class="st1" d="M1-60c-0.3,0-0.5-0.1-0.7-0.3C0.1-60.5,0-60.7,0-61c0-0.3,0.1-0.5,0.3-0.7c0.4-0.4,1-0.4,1.4,0
					C1.9-61.5,2-61.3,2-61c0,0.3-0.1,0.5-0.3,0.7C1.5-60.1,1.3-60,1-60z"/>
			</g>
			<g>
				<path class="st1" d="M1-50c-0.3,0-0.5-0.1-0.7-0.3c-0.1-0.1-0.2-0.2-0.2-0.3C0-50.7,0-50.9,0-51c0-0.3,0.1-0.5,0.3-0.7
					c0.1-0.1,0.2-0.2,0.3-0.2C1-52.1,1.4-52,1.7-51.7C1.9-51.5,2-51.3,2-51c0,0.1,0,0.3-0.1,0.4c-0.1,0.1-0.1,0.2-0.2,0.3
					C1.5-50.1,1.3-50,1-50z"/>
			</g>
			<g>
				<path class="st1" d="M1-40c-0.3,0-0.5-0.1-0.7-0.3C0.1-40.5,0-40.7,0-41c0-0.1,0-0.3,0.1-0.4c0.1-0.1,0.1-0.2,0.2-0.3
					c0.4-0.4,1-0.4,1.4,0c0.1,0.1,0.2,0.2,0.2,0.3C2-41.3,2-41.1,2-41c0,0.3-0.1,0.5-0.3,0.7C1.5-40.1,1.3-40,1-40z"/>
			</g>
			<g>
				<path class="st1" d="M1-30c-0.3,0-0.5-0.1-0.7-0.3C0.1-30.5,0-30.7,0-31c0-0.1,0-0.3,0.1-0.4c0.1-0.1,0.1-0.2,0.2-0.3
					C0.6-32,1-32.1,1.4-31.9c0.1,0,0.2,0.1,0.3,0.2c0.1,0.1,0.2,0.2,0.2,0.3C2-31.3,2-31.1,2-31c0,0.3-0.1,0.5-0.3,0.7
					C1.5-30.1,1.3-30,1-30z"/>
			</g>
			<g>
				<path class="st1" d="M1-20c-0.3,0-0.5-0.1-0.7-0.3c-0.1-0.1-0.2-0.2-0.2-0.3C0-20.7,0-20.9,0-21c0-0.3,0.1-0.5,0.3-0.7
					c0.4-0.4,1-0.4,1.4,0C1.9-21.5,2-21.3,2-21c0,0.1,0,0.3-0.1,0.4s-0.1,0.2-0.2,0.3C1.5-20.1,1.3-20,1-20z"/>
			</g>
			<g>
				<path class="st1" d="M1-10c-0.3,0-0.5-0.1-0.7-0.3c-0.1-0.1-0.2-0.2-0.2-0.3C0-10.7,0-10.9,0-11c0-0.3,0.1-0.5,0.3-0.7
					c0.4-0.4,1-0.4,1.4,0C1.9-11.5,2-11.3,2-11c0,0.1,0,0.3-0.1,0.4s-0.1,0.2-0.2,0.3C1.5-10.1,1.3-10,1-10z"/>
			</g>
			<g>
				<path class="st1" d="M1,0C0.7,0,0.5-0.1,0.3-0.3C0.2-0.4,0.1-0.5,0.1-0.6C0-0.7,0-0.9,0-1s0-0.3,0.1-0.4
					c0.1-0.1,0.1-0.2,0.2-0.3C0.6-2,1-2.1,1.4-1.9c0.1,0,0.2,0.1,0.3,0.2c0.1,0.1,0.2,0.2,0.2,0.3C2-1.3,2-1.1,2-1s0,0.3-0.1,0.4
					C1.9-0.5,1.8-0.4,1.7-0.3C1.6-0.2,1.5-0.1,1.4-0.1C1.3,0,1.1,0,1,0z"/>
			</g>
		</g>
		<g>
			<g>
				<path class="st1" d="M241-240c-0.3,0-0.5-0.1-0.7-0.3c-0.1-0.1-0.2-0.2-0.2-0.3c0-0.1-0.1-0.3-0.1-0.4s0-0.3,0.1-0.4
					c0.1-0.1,0.1-0.2,0.2-0.3c0.4-0.4,1-0.4,1.4,0c0.1,0.1,0.2,0.2,0.2,0.3c0.1,0.1,0.1,0.3,0.1,0.4s0,0.3-0.1,0.4
					c-0.1,0.1-0.1,0.2-0.2,0.3c-0.1,0.1-0.2,0.2-0.3,0.2C241.3-240,241.1-240,241-240z"/>
			</g>
		</g>
		<g>
			<g>
				<path class="st1" d="M1-240c-0.3,0-0.5-0.1-0.7-0.3c-0.1-0.1-0.2-0.2-0.2-0.3c0-0.1-0.1-0.3-0.1-0.4s0-0.3,0.1-0.4
					c0.1-0.1,0.1-0.2,0.2-0.3c0.4-0.4,1-0.4,1.4,0c0.1,0.1,0.2,0.2,0.2,0.3C2-241.3,2-241.1,2-241s0,0.3-0.1,0.4
					c-0.1,0.1-0.1,0.2-0.2,0.3c-0.1,0.1-0.2,0.2-0.3,0.2C1.3-240,1.1-240,1-240z"/>
				<path class="st1" d="M230-241c0-0.6,0.4-1,1-1l0,0c0.6,0,1,0.4,1,1l0,0c0,0.5-0.4,1-1,1l0,0C230.4-240,230-240.5,230-241z
					 M220-241c0-0.6,0.4-1,1-1l0,0c0.6,0,1,0.4,1,1l0,0c0,0.5-0.4,1-1,1l0,0C220.4-240,220-240.5,220-241z M210-241c0-0.6,0.4-1,1-1
					l0,0c0.6,0,1,0.4,1,1l0,0c0,0.5-0.4,1-1,1l0,0C210.4-240,210-240.5,210-241z M200-241c0-0.6,0.4-1,1-1l0,0c0.6,0,1,0.4,1,1l0,0
					c0,0.5-0.4,1-1,1l0,0C200.4-240,200-240.5,200-241z M190-241c0-0.6,0.4-1,1-1l0,0c0.6,0,1,0.4,1,1l0,0c0,0.5-0.4,1-1,1l0,0
					C190.4-240,190-240.5,190-241z M180-241c0-0.6,0.4-1,1-1l0,0c0.6,0,1,0.4,1,1l0,0c0,0.5-0.4,1-1,1l0,0
					C180.4-240,180-240.5,180-241z M170-241c0-0.6,0.4-1,1-1l0,0c0.6,0,1,0.4,1,1l0,0c0,0.5-0.4,1-1,1l0,0
					C170.4-240,170-240.5,170-241z M160-241c0-0.6,0.4-1,1-1l0,0c0.6,0,1,0.4,1,1l0,0c0,0.5-0.4,1-1,1l0,0
					C160.4-240,160-240.5,160-241z M150-241c0-0.6,0.4-1,1-1l0,0c0.6,0,1,0.4,1,1l0,0c0,0.5-0.4,1-1,1l0,0
					C150.4-240,150-240.5,150-241z M140-241c0-0.6,0.4-1,1-1l0,0c0.6,0,1,0.4,1,1l0,0c0,0.5-0.4,1-1,1l0,0
					C140.4-240,140-240.5,140-241z M130-241c0-0.6,0.4-1,1-1l0,0c0.6,0,1,0.4,1,1l0,0c0,0.5-0.4,1-1,1l0,0
					C130.4-240,130-240.5,130-241z M120-241c0-0.6,0.4-1,1-1l0,0c0.6,0,1,0.4,1,1l0,0c0,0.5-0.4,1-1,1l0,0
					C120.4-240,120-240.5,120-241z M110-241c0-0.6,0.4-1,1-1l0,0c0.6,0,1,0.4,1,1l0,0c0,0.5-0.4,1-1,1l0,0
					C110.4-240,110-240.5,110-241z M100-241c0-0.6,0.4-1,1-1l0,0c0.6,0,1,0.4,1,1l0,0c0,0.5-0.4,1-1,1l0,0
					C100.4-240,100-240.5,100-241z M90-241c0-0.6,0.4-1,1-1l0,0c0.6,0,1,0.4,1,1l0,0c0,0.5-0.4,1-1,1l0,0C90.4-240,90-240.5,90-241z
					 M80-241c0-0.6,0.4-1,1-1l0,0c0.6,0,1,0.4,1,1l0,0c0,0.5-0.4,1-1,1l0,0C80.4-240,80-240.5,80-241z M70-241c0-0.6,0.4-1,1-1l0,0
					c0.6,0,1,0.4,1,1l0,0c0,0.5-0.4,1-1,1l0,0C70.4-240,70-240.5,70-241z M60-241c0-0.6,0.4-1,1-1l0,0c0.6,0,1,0.4,1,1l0,0
					c0,0.5-0.4,1-1,1l0,0C60.4-240,60-240.5,60-241z M50-241c0-0.6,0.4-1,1-1l0,0c0.6,0,1,0.4,1,1l0,0c0,0.5-0.4,1-1,1l0,0
					C50.4-240,50-240.5,50-241z M40-241c0-0.6,0.4-1,1-1l0,0c0.6,0,1,0.4,1,1l0,0c0,0.5-0.4,1-1,1l0,0C40.4-240,40-240.5,40-241z
					 M30-241c0-0.6,0.4-1,1-1l0,0c0.6,0,1,0.4,1,1l0,0c0,0.5-0.4,1-1,1l0,0C30.4-240,30-240.5,30-241z M20-241c0-0.6,0.4-1,1-1l0,0
					c0.6,0,1,0.4,1,1l0,0c0,0.5-0.4,1-1,1l0,0C20.4-240,20-240.5,20-241z M10-241c0-0.6,0.4-1,1-1l0,0c0.6,0,1,0.4,1,1l0,0
					c0,0.5-0.4,1-1,1l0,0C10.4-240,10-240.5,10-241z"/>
				<path class="st1" d="M241-240c-0.3,0-0.5-0.1-0.7-0.3c-0.1-0.1-0.2-0.2-0.2-0.3c0-0.1-0.1-0.3-0.1-0.4s0-0.3,0.1-0.4
					c0.1-0.1,0.1-0.2,0.2-0.3c0.3-0.3,0.7-0.4,1.1-0.2c0.1,0,0.2,0.1,0.3,0.2c0.1,0.1,0.2,0.2,0.2,0.3c0.1,0.1,0.1,0.3,0.1,0.4
					s0,0.3-0.1,0.4c-0.1,0.1-0.1,0.2-0.2,0.3c-0.1,0.1-0.2,0.2-0.3,0.2C241.3-240,241.1-240,241-240z"/>
			</g>
		</g>
		<g>
			<g>
				<path class="st1" d="M1-240c-0.3,0-0.5-0.1-0.7-0.3c-0.1-0.1-0.2-0.2-0.2-0.3c0-0.1-0.1-0.3-0.1-0.4s0-0.3,0.1-0.4
					c0.1-0.1,0.1-0.2,0.2-0.3c0.3-0.3,0.7-0.4,1.1-0.2c0.1,0,0.2,0.1,0.3,0.2c0.1,0.1,0.2,0.2,0.2,0.3C2-241.3,2-241.1,2-241
					s0,0.3-0.1,0.4c-0.1,0.1-0.1,0.2-0.2,0.3c-0.1,0.1-0.2,0.2-0.3,0.2C1.3-240,1.1-240,1-240z"/>
			</g>
		</g>
	</g>
</pattern>
<rect x="-26.1" y="-18.3" class="st2" width="1552.1" height="1089.6"/>
<g class="st3">
	<rect x="1647.9" y="-18.3" class="st4" width="1552.1" height="1089.6"/>
</g>
<rect x="-26.1" y="1150.2" class="st2" width="1552.1" height="1089.6"/>
<g>
	<path class="st5" d="M496.5,781.1c0-69.6,56.4-126,126-126c0.1,0,0.2,0,0.3,0l0.2-89.4c-17.5,0-35.2,2.1-52.1,6.3
		c-115.5,28.6-186,145.3-157.4,260.8l86.8-21.5C497.7,801.6,496.5,791.5,496.5,781.1z"/>
	<path class="st1" d="M622.9,565.6l-0.2,89.4c69.5,0.1,125.7,56.5,125.7,126c0,34.9-14.2,66.4-37.1,89.3l63.1,63.4
		c42.7-42.5,63.3-92,63.4-152.2C838.2,662.5,741.9,565.9,622.9,565.6z"/>
	<path class="st5" d="M751.5,271.8c0-69.6,56.4-126,126-126c0,0,0,0,0,0V56.3c-105.3,0-193.9,74.3-212.2,178
		C644.7,351.5,723,463.2,840.1,483.9l15.5-87.9C796.5,385.6,751.5,334,751.5,271.8z"/>
	<path class="st1" d="M877.5,56.3v89.5c69.6,0,126,56.4,126,126c0,33.2-12.8,63.4-33.8,85.9l65.4,60.9
		c39.4-42.3,57.9-89.1,57.9-146.9C1093,152.8,996.5,56.3,877.5,56.3z"/>
	<g>
		<text transform="matrix(1 0 0 1 982.2041 753.043)" class="st6 st7">Small (&lt;5)</text>
	</g>
	<circle class="st1" cx="961.8" cy="749.2" r="11"/>
	<g>
		<text transform="matrix(1 0 0 1 982.2041 784.958)" class="st6 st7">Medium (5  30)</text>
	</g>
	<pattern  id="SVGID_1_" xlink:href="#bleu_2" patternTransform="matrix(0.8253 0 0 0.8253 -130.3183 -1571.9636)">
	</pattern>
	<circle class="st8" cx="961.8" cy="781.1" r="11"/>
	<g>
		<text transform="matrix(1 0 0 1 982.2041 816.8701)" class="st6 st7">Large (31+)</text>
	</g>
	<circle class="st5" cx="961.8" cy="813" r="11"/>
	<g>
		<text transform="matrix(1 0 0 1 438.459 243.8071)" class="st6 st7">Small (0  49)</text>
	</g>
	<circle class="st1" cx="418" cy="239.9" r="11"/>
	<g>
		<text transform="matrix(1 0 0 1 438.459 275.7207)" class="st6 st7">Medium (51  249)</text>
	</g>
	<pattern  id="SVGID_2_" xlink:href="#bleu_2" patternTransform="matrix(0.8253 0 0 0.8253 -130.3183 -1571.9636)">
	</pattern>
	<circle class="st9" cx="418" cy="271.8" r="11"/>
	<g>
		<text transform="matrix(1 0 0 1 438.459 307.6338)" class="st6 st7">Large (250+)</text>
	</g>
	<circle class="st5" cx="418" cy="303.7" r="11"/>
	<path id="SVGID_x5F_3_x5F_" class="st0" d="M851.9,783.2C850.7,910,747,1011.7,620.3,1010.5S391.8,905.6,393,778.9
		s104.9-228.5,231.6-227.3S853.1,656.5,851.9,783.2z"/>
	<text>	<textPath  xlink:href="#SVGID_x5F_3_x5F_" startOffset="233.333%">
<tspan  class="st6 st12" style="letter-spacing:30;">Size of IT department</tspan>	</textPath>
</text>
	<path id="SVGID_x5F_4_x5F_" class="st0" d="M1107,274c-1.2,126.7-104.9,228.5-231.6,227.3S646.9,396.4,648.1,269.7
		C649.3,142.9,753,41.2,879.7,42.4S1108.2,147.3,1107,274z"/>
	<text>	<textPath  xlink:href="#SVGID_x5F_4_x5F_" startOffset="233.333%">
<tspan  class="st6 st12" style="letter-spacing:30;">Company size</tspan>	</textPath>
</text>
	<g>
		<g>
			<path class="st10" d="M864.1,38.6c-121.4,6.9-218.5,106.6-220.1,230c-1.7,129,101.4,235,230.4,236.7
				c129,1.7,235-101.4,236.7-230.4c1.1-82.1-40.2-154.8-103.7-197.3"/>
			<g>
				<polygon points="863.8,43.3 863.2,34.2 868,38.4 				"/>
			</g>
		</g>
	</g>
	<g>
		<g>
			<path class="st10" d="M609.1,547.8c-121.4,6.9-218.5,106.6-220.1,230c-1.7,129,101.4,235,230.4,236.7s235-101.4,236.7-230.4
				c0.8-59-20.3-113.2-55.9-154.8"/>
			<g>
				<polygon points="608.8,552.4 608.2,543.3 613,547.6 				"/>
			</g>
		</g>
	</g>
	<g>
		<text transform="matrix(1 0 0 1 1018.375 215.0967)" class="st11 st6 st12">149</text>
	</g>
	<g>
		<text transform="matrix(1 0 0 1 771.5391 748.2676)" class="st11 st6 st12">151</text>
	</g>
	<g>
		<text transform="matrix(1 0 0 1 475.2412 684.7168)" class="st11 st6 st12">115</text>
	</g>
	<g>
		<text transform="matrix(1 0 0 1 693.2515 271.6479)" class="st11 st6 st12">189</text>
	</g>
	<g>
		<pattern  id="SVGID_5_" xlink:href="#bleu_2" patternTransform="matrix(0.8253 0 0 0.8253 -526.4831 -1571.9636)">
		</pattern>
		<path class="st13" d="M969.7,357.7c-23,24.7-55.8,40.1-92.2,40.1c-7.5,0-14.8-0.7-21.9-1.9l-15.5,87.9c73.6,13,144-10.6,195-65.2
			L969.7,357.7z M934.3,455.5c-11.4,0-20.6-9.2-20.6-20.6c0-11.4,9.2-20.6,20.6-20.6c11.4,0,20.6,9.2,20.6,20.6
			C954.9,446.3,945.7,455.5,934.3,455.5z"/>
		<g>
			<text transform="matrix(1 0 0 1 923.3916 440.0952)" class="st6 st12">63</text>
		</g>
	</g>
	<g>
		<pattern  id="SVGID_6_" xlink:href="#bleu_2" patternTransform="matrix(0.8253 0 0 0.8253 -526.4831 -1571.9636)">
		</pattern>
		<path class="st14" d="M711.4,870.3c-22.8,22.7-54.2,36.7-88.9,36.7c-59.2,0-108.8-40.8-122.3-95.8l-86.8,21.5
			c9.9,40,27.5,71.2,56.5,100.3c84,84.3,220.4,84.6,304.7,0.6L711.4,870.3z M566.7,966c-12.4,0-22.5-10.1-22.5-22.5
			c0-12.4,10.1-22.5,22.5-22.5c12.4,0,22.5,10.1,22.5,22.5C589.2,955.9,579.1,966,566.7,966z"/>
		<g>
			<text transform="matrix(1 0 0 1 552.5938 949.1719)" class="st6 st12">135</text>
		</g>
	</g>
</g>
</svg>
