<?xml version="1.0" encoding="utf-8"?>
<!-- Generator: Adobe Illustrator 21.1.0, SVG Export Plug-In . SVG Version: 6.00 Build 0)  -->
<svg version="1.1" id="graphNineCyber" xmlns="http://www.w3.org/2000/svg" xmlns:xlink="http://www.w3.org/1999/xlink" x="0px"
	 y="0px" viewBox="0 0 1500 1053" style="enable-background:new 0 0 1500 1053;" xml:space="preserve">
<style type="text/css">
	.st0{fill:none;}
	.st1{fill:none;stroke:#F6F6F8;stroke-width:2;stroke-linecap:round;stroke-miterlimit:10;}
	.st2{fill:none;stroke:#F6F6F8;stroke-width:2;stroke-linecap:round;stroke-miterlimit:10;stroke-dasharray:0,10;}
	.st3{opacity:0.9;}
	.st4{fill:#FF8F4E;}
	.st5{fill:#F6F6F8;}
	.st6{fill:#8EFFDE;}
	.st7{fill:#FFFFFF;}
	.st8{fill:url(#SVGID_1_);}
	.st9{fill:url(#SVGID_2_);}
	.st10{fill:url(#SVGID_3_);}
	.st11{fill:url(#SVGID_4_);}
	.st12{fill:url(#SVGID_5_);}
</style>
<pattern  y="1053" width="240" height="240" patternUnits="userSpaceOnUse" id="white" viewBox="1 -241 240 240" style="overflow:visible;">
	<g>
		<rect x="1" y="-241" class="st0" width="240" height="240"/>
		<g>
			<g>
				<line class="st1" x1="241" y1="-1" x2="241" y2="-1"/>
			</g>
		</g>
		<g>
			<g>
				<line class="st1" x1="1" y1="-1" x2="1" y2="-1"/>
				<line class="st2" x1="11" y1="-1" x2="236" y2="-1"/>
				<line class="st1" x1="241" y1="-1" x2="241" y2="-1"/>
			</g>
		</g>
		<g>
			<g>
				<line class="st1" x1="1" y1="-1" x2="1" y2="-1"/>
			</g>
		</g>
		<g>
			<g>
				<line class="st1" x1="241" y1="-241" x2="241" y2="-241"/>
			</g>
			<g>
				<line class="st1" x1="241" y1="-231" x2="241" y2="-231"/>
			</g>
			<g>
				<line class="st1" x1="241" y1="-221" x2="241" y2="-221"/>
			</g>
			<g>
				<line class="st1" x1="241" y1="-211" x2="241" y2="-211"/>
			</g>
			<g>
				<line class="st1" x1="241" y1="-201" x2="241" y2="-201"/>
			</g>
			<g>
				<line class="st1" x1="241" y1="-191" x2="241" y2="-191"/>
			</g>
			<g>
				<line class="st1" x1="241" y1="-181" x2="241" y2="-181"/>
			</g>
			<g>
				<line class="st1" x1="241" y1="-171" x2="241" y2="-171"/>
			</g>
			<g>
				<line class="st1" x1="241" y1="-161" x2="241" y2="-161"/>
			</g>
			<g>
				<line class="st1" x1="241" y1="-151" x2="241" y2="-151"/>
			</g>
			<g>
				<line class="st1" x1="241" y1="-141" x2="241" y2="-141"/>
			</g>
			<g>
				<line class="st1" x1="241" y1="-131" x2="241" y2="-131"/>
			</g>
			<g>
				<line class="st1" x1="241" y1="-121" x2="241" y2="-121"/>
			</g>
			<g>
				<line class="st1" x1="241" y1="-111" x2="241" y2="-111"/>
			</g>
			<g>
				<line class="st1" x1="241" y1="-101" x2="241" y2="-101"/>
			</g>
			<g>
				<line class="st1" x1="241" y1="-91" x2="241" y2="-91"/>
			</g>
			<g>
				<line class="st1" x1="241" y1="-81" x2="241" y2="-81"/>
			</g>
			<g>
				<line class="st1" x1="241" y1="-71" x2="241" y2="-71"/>
			</g>
			<g>
				<line class="st1" x1="241" y1="-61" x2="241" y2="-61"/>
			</g>
			<g>
				<line class="st1" x1="241" y1="-51" x2="241" y2="-51"/>
			</g>
			<g>
				<line class="st1" x1="241" y1="-41" x2="241" y2="-41"/>
			</g>
			<g>
				<line class="st1" x1="241" y1="-31" x2="241" y2="-31"/>
			</g>
			<g>
				<line class="st1" x1="241" y1="-21" x2="241" y2="-21"/>
			</g>
			<g>
				<line class="st1" x1="241" y1="-11" x2="241" y2="-11"/>
			</g>
			<g>
				<line class="st1" x1="241" y1="-1" x2="241" y2="-1"/>
			</g>
		</g>
		<g>
			<g>
				<line class="st1" x1="1" y1="-241" x2="1" y2="-241"/>
				<line class="st2" x1="11" y1="-241" x2="236" y2="-241"/>
				<line class="st1" x1="241" y1="-241" x2="241" y2="-241"/>
			</g>
			<g>
				<line class="st1" x1="1" y1="-231" x2="1" y2="-231"/>
				<line class="st2" x1="11" y1="-231" x2="236" y2="-231"/>
				<line class="st1" x1="241" y1="-231" x2="241" y2="-231"/>
			</g>
			<g>
				<line class="st1" x1="1" y1="-221" x2="1" y2="-221"/>
				<line class="st2" x1="11" y1="-221" x2="236" y2="-221"/>
				<line class="st1" x1="241" y1="-221" x2="241" y2="-221"/>
			</g>
			<g>
				<line class="st1" x1="1" y1="-211" x2="1" y2="-211"/>
				<line class="st2" x1="11" y1="-211" x2="236" y2="-211"/>
				<line class="st1" x1="241" y1="-211" x2="241" y2="-211"/>
			</g>
			<g>
				<line class="st1" x1="1" y1="-201" x2="1" y2="-201"/>
				<line class="st2" x1="11" y1="-201" x2="236" y2="-201"/>
				<line class="st1" x1="241" y1="-201" x2="241" y2="-201"/>
			</g>
			<g>
				<line class="st1" x1="1" y1="-191" x2="1" y2="-191"/>
				<line class="st2" x1="11" y1="-191" x2="236" y2="-191"/>
				<line class="st1" x1="241" y1="-191" x2="241" y2="-191"/>
			</g>
			<g>
				<line class="st1" x1="1" y1="-181" x2="1" y2="-181"/>
				<line class="st2" x1="11" y1="-181" x2="236" y2="-181"/>
				<line class="st1" x1="241" y1="-181" x2="241" y2="-181"/>
			</g>
			<g>
				<line class="st1" x1="1" y1="-171" x2="1" y2="-171"/>
				<line class="st2" x1="11" y1="-171" x2="236" y2="-171"/>
				<line class="st1" x1="241" y1="-171" x2="241" y2="-171"/>
			</g>
			<g>
				<line class="st1" x1="1" y1="-161" x2="1" y2="-161"/>
				<line class="st2" x1="11" y1="-161" x2="236" y2="-161"/>
				<line class="st1" x1="241" y1="-161" x2="241" y2="-161"/>
			</g>
			<g>
				<line class="st1" x1="1" y1="-151" x2="1" y2="-151"/>
				<line class="st2" x1="11" y1="-151" x2="236" y2="-151"/>
				<line class="st1" x1="241" y1="-151" x2="241" y2="-151"/>
			</g>
			<g>
				<line class="st1" x1="1" y1="-141" x2="1" y2="-141"/>
				<line class="st2" x1="11" y1="-141" x2="236" y2="-141"/>
				<line class="st1" x1="241" y1="-141" x2="241" y2="-141"/>
			</g>
			<g>
				<line class="st1" x1="1" y1="-131" x2="1" y2="-131"/>
				<line class="st2" x1="11" y1="-131" x2="236" y2="-131"/>
				<line class="st1" x1="241" y1="-131" x2="241" y2="-131"/>
			</g>
			<g>
				<line class="st1" x1="1" y1="-121" x2="1" y2="-121"/>
				<line class="st2" x1="11" y1="-121" x2="236" y2="-121"/>
				<line class="st1" x1="241" y1="-121" x2="241" y2="-121"/>
			</g>
			<g>
				<line class="st1" x1="1" y1="-111" x2="1" y2="-111"/>
				<line class="st2" x1="11" y1="-111" x2="236" y2="-111"/>
				<line class="st1" x1="241" y1="-111" x2="241" y2="-111"/>
			</g>
			<g>
				<line class="st1" x1="1" y1="-101" x2="1" y2="-101"/>
				<line class="st2" x1="11" y1="-101" x2="236" y2="-101"/>
				<line class="st1" x1="241" y1="-101" x2="241" y2="-101"/>
			</g>
			<g>
				<line class="st1" x1="1" y1="-91" x2="1" y2="-91"/>
				<line class="st2" x1="11" y1="-91" x2="236" y2="-91"/>
				<line class="st1" x1="241" y1="-91" x2="241" y2="-91"/>
			</g>
			<g>
				<line class="st1" x1="1" y1="-81" x2="1" y2="-81"/>
				<line class="st2" x1="11" y1="-81" x2="236" y2="-81"/>
				<line class="st1" x1="241" y1="-81" x2="241" y2="-81"/>
			</g>
			<g>
				<line class="st1" x1="1" y1="-71" x2="1" y2="-71"/>
				<line class="st2" x1="11" y1="-71" x2="236" y2="-71"/>
				<line class="st1" x1="241" y1="-71" x2="241" y2="-71"/>
			</g>
			<g>
				<line class="st1" x1="1" y1="-61" x2="1" y2="-61"/>
				<line class="st2" x1="11" y1="-61" x2="236" y2="-61"/>
				<line class="st1" x1="241" y1="-61" x2="241" y2="-61"/>
			</g>
			<g>
				<line class="st1" x1="1" y1="-51" x2="1" y2="-51"/>
				<line class="st2" x1="11" y1="-51" x2="236" y2="-51"/>
				<line class="st1" x1="241" y1="-51" x2="241" y2="-51"/>
			</g>
			<g>
				<line class="st1" x1="1" y1="-41" x2="1" y2="-41"/>
				<line class="st2" x1="11" y1="-41" x2="236" y2="-41"/>
				<line class="st1" x1="241" y1="-41" x2="241" y2="-41"/>
			</g>
			<g>
				<line class="st1" x1="1" y1="-31" x2="1" y2="-31"/>
				<line class="st2" x1="11" y1="-31" x2="236" y2="-31"/>
				<line class="st1" x1="241" y1="-31" x2="241" y2="-31"/>
			</g>
			<g>
				<line class="st1" x1="1" y1="-21" x2="1" y2="-21"/>
				<line class="st2" x1="11" y1="-21" x2="236" y2="-21"/>
				<line class="st1" x1="241" y1="-21" x2="241" y2="-21"/>
			</g>
			<g>
				<line class="st1" x1="1" y1="-11" x2="1" y2="-11"/>
				<line class="st2" x1="11" y1="-11" x2="236" y2="-11"/>
				<line class="st1" x1="241" y1="-11" x2="241" y2="-11"/>
			</g>
			<g>
				<line class="st1" x1="1" y1="-1" x2="1" y2="-1"/>
				<line class="st2" x1="11" y1="-1" x2="236" y2="-1"/>
				<line class="st1" x1="241" y1="-1" x2="241" y2="-1"/>
			</g>
		</g>
		<g>
			<g>
				<line class="st1" x1="1" y1="-241" x2="1" y2="-241"/>
			</g>
			<g>
				<line class="st1" x1="1" y1="-231" x2="1" y2="-231"/>
			</g>
			<g>
				<line class="st1" x1="1" y1="-221" x2="1" y2="-221"/>
			</g>
			<g>
				<line class="st1" x1="1" y1="-211" x2="1" y2="-211"/>
			</g>
			<g>
				<line class="st1" x1="1" y1="-201" x2="1" y2="-201"/>
			</g>
			<g>
				<line class="st1" x1="1" y1="-191" x2="1" y2="-191"/>
			</g>
			<g>
				<line class="st1" x1="1" y1="-181" x2="1" y2="-181"/>
			</g>
			<g>
				<line class="st1" x1="1" y1="-171" x2="1" y2="-171"/>
			</g>
			<g>
				<line class="st1" x1="1" y1="-161" x2="1" y2="-161"/>
			</g>
			<g>
				<line class="st1" x1="1" y1="-151" x2="1" y2="-151"/>
			</g>
			<g>
				<line class="st1" x1="1" y1="-141" x2="1" y2="-141"/>
			</g>
			<g>
				<line class="st1" x1="1" y1="-131" x2="1" y2="-131"/>
			</g>
			<g>
				<line class="st1" x1="1" y1="-121" x2="1" y2="-121"/>
			</g>
			<g>
				<line class="st1" x1="1" y1="-111" x2="1" y2="-111"/>
			</g>
			<g>
				<line class="st1" x1="1" y1="-101" x2="1" y2="-101"/>
			</g>
			<g>
				<line class="st1" x1="1" y1="-91" x2="1" y2="-91"/>
			</g>
			<g>
				<line class="st1" x1="1" y1="-81" x2="1" y2="-81"/>
			</g>
			<g>
				<line class="st1" x1="1" y1="-71" x2="1" y2="-71"/>
			</g>
			<g>
				<line class="st1" x1="1" y1="-61" x2="1" y2="-61"/>
			</g>
			<g>
				<line class="st1" x1="1" y1="-51" x2="1" y2="-51"/>
			</g>
			<g>
				<line class="st1" x1="1" y1="-41" x2="1" y2="-41"/>
			</g>
			<g>
				<line class="st1" x1="1" y1="-31" x2="1" y2="-31"/>
			</g>
			<g>
				<line class="st1" x1="1" y1="-21" x2="1" y2="-21"/>
			</g>
			<g>
				<line class="st1" x1="1" y1="-11" x2="1" y2="-11"/>
			</g>
			<g>
				<line class="st1" x1="1" y1="-1" x2="1" y2="-1"/>
			</g>
		</g>
		<g>
			<g>
				<line class="st1" x1="241" y1="-241" x2="241" y2="-241"/>
			</g>
		</g>
		<g>
			<g>
				<line class="st1" x1="1" y1="-241" x2="1" y2="-241"/>
				<line class="st2" x1="11" y1="-241" x2="236" y2="-241"/>
				<line class="st1" x1="241" y1="-241" x2="241" y2="-241"/>
			</g>
		</g>
		<g>
			<g>
				<line class="st1" x1="1" y1="-241" x2="1" y2="-241"/>
			</g>
		</g>
	</g>
</pattern>
<g class="st3">
	<rect x="-26.1" y="-18.3" class="st4" width="1552.1" height="1089.6"/>
</g>
<g class="st3">
	<rect x="1647.9" y="-18.3" class="st4" width="1552.1" height="1089.6"/>
</g>
<rect x="-26.1" y="1150.2" class="st5" width="1552.1" height="1089.6"/>
<g>
	<g>
		<g>
			<g>
				<path d="M1161.5,970.7l-1.6,3.7h-1.6l6.3-14.7h1.7l6.3,14.7h-1.6l-1.6-3.7H1161.5z M1162.1,969.3h6.8l-3.4-7.9L1162.1,969.3z"/>
				<path d="M1176.8,959.2v15.3h-1.5v-15.3H1176.8z"/>
				<path d="M1182.5,959.2v15.3h-1.5v-15.3H1182.5z"/>
				<path d="M1198.2,974.6c-1.9,0-3.1-0.9-3.9-2.2v2.1h-1.4v-15.2h1.5v7.4c0.8-1.3,2-2.3,3.9-2.3c2.8,0,4.7,2.5,4.7,5.1
					C1202.9,972.1,1201,974.6,1198.2,974.6z M1201.4,969.5c0-2.1-1.3-3.9-3.5-3.9c-2.1,0-3.6,1.8-3.6,3.8c0,2.1,1.5,3.9,3.6,3.9
					C1200.1,973.3,1201.4,971.6,1201.4,969.5z"/>
				<path d="M1207.7,970.3c0,1.8,0.9,3,2.8,3c1.7,0,3-1.4,3-3.1v-5.7h1.4v10h-1.4v-1.8c-0.8,1.4-2,2-3.4,2c-2.5,0-3.8-1.7-3.8-4
					v-6.2h1.4V970.3z"/>
				<path d="M1222.2,974.6c-2.7,0-3.6-1.8-3.8-3l1.3-0.3c0.2,0.9,0.9,2,2.4,2c1.1,0,2.1-0.6,2.1-1.6c0-1.2-1.3-1.5-2.3-1.6
					c-1.7-0.2-3.3-0.8-3.3-2.8c0-1.9,1.7-3,3.3-3c2.6,0,3.5,1.8,3.6,2.7l-1.3,0.3c-0.2-0.7-0.7-1.8-2.3-1.8c-1.1,0-1.9,0.7-1.9,1.6
					c0,1.3,1.3,1.4,2.4,1.6c1.6,0.2,3.3,1.1,3.3,2.9C1225.8,973.4,1224.1,974.6,1222.2,974.6z"/>
				<path d="M1230,959.8c0.6,0,1.1,0.5,1.1,1.1c0,0.6-0.5,1.1-1.1,1.1c-0.6,0-1.1-0.5-1.1-1.1C1228.9,960.3,1229.4,959.8,1230,959.8
					z M1230.8,964.5v10h-1.5v-10H1230.8z"/>
				<path d="M1242.2,968.6c0-1.8-0.9-3-2.8-3c-1.7,0-3,1.4-3,3.2v5.7h-1.5v-10h1.4v1.8c0.8-1.3,2-2,3.4-2c2.5,0,3.8,1.7,3.8,4v6.2
					h-1.5V968.6z"/>
				<path d="M1248.5,969.9c0.1,1.9,1.6,3.4,3.6,3.4c1.5,0,2.6-0.7,3.1-2.1l1.3,0.4c-0.6,1.9-2.4,3-4.4,3c-2.9,0-5.1-2.3-5.1-5.2
					c0-2.7,2.1-5.1,4.9-5.1c3.1,0,4.7,2.2,4.7,5.1c0,0.2,0,0.3,0,0.5H1248.5z M1255.1,968.7c-0.2-1.8-1.3-3.1-3.2-3.1
					c-1.7,0-3.1,1.4-3.4,3.1H1255.1z"/>
				<path d="M1263.1,974.6c-2.7,0-3.6-1.8-3.8-3l1.3-0.3c0.2,0.9,0.9,2,2.4,2c1.1,0,2.1-0.6,2.1-1.6c0-1.2-1.3-1.5-2.3-1.6
					c-1.7-0.2-3.3-0.8-3.3-2.8c0-1.9,1.7-3,3.4-3c2.6,0,3.5,1.8,3.6,2.7l-1.3,0.3c-0.2-0.7-0.7-1.8-2.3-1.8c-1.1,0-1.9,0.7-1.9,1.6
					c0,1.3,1.3,1.4,2.4,1.6c1.6,0.2,3.3,1.1,3.3,2.9C1266.6,973.4,1265,974.6,1263.1,974.6z"/>
				<path d="M1273.2,974.6c-2.7,0-3.6-1.8-3.8-3l1.3-0.3c0.2,0.9,0.9,2,2.4,2c1.1,0,2.1-0.6,2.1-1.6c0-1.2-1.3-1.5-2.3-1.6
					c-1.7-0.2-3.3-0.8-3.3-2.8c0-1.9,1.7-3,3.4-3c2.6,0,3.5,1.8,3.6,2.7l-1.3,0.3c-0.2-0.7-0.7-1.8-2.3-1.8c-1.1,0-1.9,0.7-1.9,1.6
					c0,1.3,1.3,1.4,2.4,1.6c1.6,0.2,3.3,1.1,3.3,2.9C1276.8,973.4,1275.1,974.6,1273.2,974.6z"/>
				<path d="M1289.5,974.6c-2.7,0-3.6-1.8-3.8-3l1.3-0.3c0.2,0.9,0.9,2,2.4,2c1.1,0,2.1-0.6,2.1-1.6c0-1.2-1.3-1.5-2.3-1.6
					c-1.7-0.2-3.3-0.8-3.3-2.8c0-1.9,1.7-3,3.4-3c2.6,0,3.5,1.8,3.6,2.7l-1.3,0.3c-0.2-0.7-0.7-1.8-2.3-1.8c-1.1,0-1.9,0.7-1.9,1.6
					c0,1.3,1.3,1.4,2.4,1.6c1.6,0.2,3.3,1.1,3.3,2.9C1293,973.4,1291.4,974.6,1289.5,974.6z"/>
				<path d="M1297.3,959.8c0.6,0,1.1,0.5,1.1,1.1c0,0.6-0.5,1.1-1.1,1.1c-0.6,0-1.1-0.5-1.1-1.1
					C1296.2,960.3,1296.7,959.8,1297.3,959.8z M1298,964.5v10h-1.5v-10H1298z"/>
				<path d="M1309.4,974.4h-8v-1.3l6.2-7.5h-6.1v-1.3h7.8v1.2l-6.2,7.5h6.3V974.4z"/>
				<path d="M1313.4,969.9c0.1,1.9,1.6,3.4,3.6,3.4c1.5,0,2.6-0.7,3.1-2.1l1.3,0.4c-0.6,1.9-2.4,3-4.4,3c-2.9,0-5.1-2.3-5.1-5.2
					c0-2.7,2.1-5.1,4.9-5.1c3.1,0,4.7,2.2,4.7,5.1c0,0.2,0,0.3,0,0.5H1313.4z M1320,968.7c-0.2-1.8-1.3-3.1-3.2-3.1
					c-1.7,0-3.1,1.4-3.4,3.1H1320z"/>
				<path d="M1328,974.6c-2.7,0-3.6-1.8-3.8-3l1.3-0.3c0.2,0.9,0.9,2,2.4,2c1.1,0,2.1-0.6,2.1-1.6c0-1.2-1.3-1.5-2.3-1.6
					c-1.7-0.2-3.3-0.8-3.3-2.8c0-1.9,1.7-3,3.4-3c2.6,0,3.5,1.8,3.6,2.7l-1.3,0.3c-0.2-0.7-0.7-1.8-2.3-1.8c-1.1,0-1.9,0.7-1.9,1.6
					c0,1.3,1.3,1.4,2.4,1.6c1.6,0.2,3.3,1.1,3.3,2.9C1331.5,973.4,1329.9,974.6,1328,974.6z"/>
			</g>
		</g>
		<g>
			<g>
				<path class="st6" d="M1147.4,398.6v-4h-8.7v-1.9l8.2-10.8h2.2v11.2h2.8v1.5h-2.8v4H1147.4z M1147.4,393.1v-9.4l-7.1,9.4H1147.4z
					"/>
				<path class="st6" d="M1157.2,383.8l-4,2.4l-0.8-1.3l4.9-2.9h1.7v16.7h-1.8V383.8z"/>
				<path class="st6" d="M1164,390.9c-1.2,0-2.2-1-2.2-2.2c0-1.2,1-2.2,2.2-2.2c1.2,0,2.2,1,2.2,2.2
					C1166.2,390,1165.2,390.9,1164,390.9z M1164,387.4c-0.8,0-1.4,0.6-1.4,1.4c0,0.8,0.6,1.4,1.4,1.4c0.8,0,1.4-0.6,1.4-1.4
					C1165.4,388,1164.7,387.4,1164,387.4z M1169.4,386.7h1l-6.4,9.8h-1L1169.4,386.7z M1169.4,396.5c-1.2,0-2.2-1-2.2-2.2
					c0-1.2,1-2.2,2.2-2.2c1.2,0,2.2,1,2.2,2.2C1171.6,395.5,1170.6,396.5,1169.4,396.5z M1169.4,392.9c-0.8,0-1.4,0.6-1.4,1.4
					c0,0.8,0.6,1.4,1.4,1.4c0.8,0,1.4-0.6,1.4-1.4C1170.8,393.5,1170.1,392.9,1169.4,392.9z"/>
			</g>
			<g class="st3">
				<path class="st7" d="M1222.8,564.3c0-1.9,0.9-4.1,3.9-5.9l2.5-1.6c1.6-1,2.9-2,2.9-4c0-1.7-1.5-3.3-3.7-3.3
					c-1.8,0-3,1.1-3.4,2.1c-0.3,0.7-0.3,1.4-0.3,1.6l-1.8-0.3c0-2.4,2-5.2,5.6-5.2c3.1,0,5.5,2.4,5.5,4.9c0,2.4-1.3,3.8-3.5,5.2
					l-2.6,1.6c-1.4,0.9-2.8,2.1-2.9,3.6h9.2v1.6h-11.3V564.3z"/>
				<path class="st7" d="M1236.6,560.3c0-1.8,1.2-3.3,3.5-4.1c-2.1-0.6-3.1-2.4-3.1-3.8c0-2.9,3-4.4,5.5-4.4c2.5,0,5.5,1.5,5.5,4.4
					c0,1.6-1.1,3.2-3.1,3.8c2.3,0.7,3.5,2.3,3.5,4.1c0,3.1-3,4.7-5.9,4.7C1239.6,565,1236.6,563.4,1236.6,560.3z M1246.6,560.3
					c0-2.2-2.3-3.3-4.1-3.3c-1.8,0-4.1,1-4.1,3.2c0,2.3,2.3,3.2,4.1,3.2C1244.2,563.4,1246.6,562.5,1246.6,560.3z M1238.7,552.4
					c0,2.1,2.3,3.1,3.7,3.1c1.4,0,3.8-1,3.8-3.1c0-1.9-2.1-3-3.8-3C1240.9,549.5,1238.7,550.5,1238.7,552.4z"/>
				<path class="st7" d="M1252.3,557.1c-1.2,0-2.2-1-2.2-2.2c0-1.2,1-2.2,2.2-2.2c1.2,0,2.2,1,2.2,2.2
					C1254.5,556.2,1253.5,557.1,1252.3,557.1z M1252.3,553.6c-0.8,0-1.4,0.6-1.4,1.4c0,0.8,0.6,1.4,1.4,1.4c0.8,0,1.4-0.6,1.4-1.4
					C1253.7,554.2,1253.1,553.6,1252.3,553.6z M1257.7,552.8h1l-6.4,9.8h-1L1257.7,552.8z M1257.7,562.7c-1.2,0-2.2-1-2.2-2.2
					c0-1.2,1-2.2,2.2-2.2c1.2,0,2.2,1,2.2,2.2C1259.9,561.7,1258.9,562.7,1257.7,562.7z M1257.7,559.1c-0.8,0-1.4,0.6-1.4,1.4
					c0,0.8,0.6,1.4,1.4,1.4c0.8,0,1.4-0.6,1.4-1.4C1259.1,559.7,1258.5,559.1,1257.7,559.1z"/>
			</g>
			<g class="st3">
				<path d="M1294.9,718.9l-4,2.4l-0.8-1.3l4.9-2.9h1.7v16.7h-1.8V718.9z"/>
				<path d="M1308.4,733.8v-4h-8.7v-1.9l8.2-10.8h2.2v11.2h2.8v1.5h-2.8v4H1308.4z M1308.4,728.2v-9.4l-7.1,9.4H1308.4z"/>
				<path d="M1316.2,726.1c-1.2,0-2.2-1-2.2-2.2c0-1.2,1-2.2,2.2-2.2c1.2,0,2.2,1,2.2,2.2C1318.5,725.1,1317.5,726.1,1316.2,726.1z
					 M1316.2,722.5c-0.8,0-1.4,0.6-1.4,1.4c0,0.8,0.6,1.4,1.4,1.4c0.8,0,1.4-0.6,1.4-1.4C1317.6,723.1,1317,722.5,1316.2,722.5z
					 M1321.6,721.8h1l-6.4,9.8h-1L1321.6,721.8z M1321.7,731.6c-1.2,0-2.2-1-2.2-2.2c0-1.2,1-2.2,2.2-2.2c1.2,0,2.2,1,2.2,2.2
					C1323.9,730.6,1322.9,731.6,1321.7,731.6z M1321.7,728c-0.8,0-1.4,0.6-1.4,1.4c0,0.8,0.6,1.4,1.4,1.4c0.8,0,1.4-0.6,1.4-1.4
					C1323,728.7,1322.4,728,1321.7,728z"/>
			</g>
			<g>
				<rect x="1281.7" y="746.2" width="71.8" height="173.7"/>
			</g>
			<g>
				<pattern  id="SVGID_1_" xlink:href="#white" patternTransform="matrix(0 1.3362 -1.2828 0 -21376.4434 1263.4818)">
				</pattern>
				<rect x="1209.9" y="572.4" class="st8" width="71.8" height="347.5"/>
			</g>
			<g>
				<rect x="1138.1" y="411.1" class="st6" width="71.8" height="508.8"/>
			</g>
		</g>
	</g>
	<g>
		<g>
			<g>
				<path d="M227,970.4l1.4-0.4c0.3,1.7,1.9,3.1,3.7,3.1c1.7,0,3.3-0.9,3.3-2.7c0-1.7-1.6-2.4-2.6-2.6l-1.9-0.4
					c-0.7-0.1-1.7-0.5-2.5-1.2c-0.6-0.6-1-1.4-1-2.5c0-2.5,2.2-4.1,4.6-4.1c3.2,0,4.5,1.9,4.8,3.5l-1.4,0.4c-0.3-1-1.2-2.5-3.5-2.5
					c-1.6,0-3.1,1-3.1,2.6c0,1.1,0.7,2,2.1,2.3l1.9,0.4c1,0.2,2,0.5,2.8,1.3c1,0.9,1.3,2.1,1.3,2.7c0,2.6-2.1,4.3-4.9,4.3
					C229.3,974.6,227.2,972.5,227,970.4z"/>
				<path d="M247.5,968.6c0-1.6-0.8-3-2.6-3c-1.7,0-2.8,1.5-2.8,3.2v5.7h-1.5v-10h1.4v1.7c0.8-1.2,1.7-1.9,3.2-1.9
					c1.5,0,2.6,0.7,3.2,2c0.8-1.3,1.9-2,3.5-2c2.4,0,3.7,1.7,3.7,4v6.2h-1.5v-5.8c0-1.7-0.7-3-2.6-3c-1.8,0-2.8,1.4-2.8,3.1v5.7
					h-1.4V968.6z"/>
				<path d="M265.8,968c0-1.6-0.9-2.4-2.5-2.4c-1.7,0-2.5,1.1-2.6,2l-1.4-0.3c0.1-0.8,1.2-3,4.1-3c2.1,0,3.2,1,3.6,2.1
					c0.2,0.5,0.3,1.3,0.3,1.6v6.5h-1.4v-1.8h0c-0.8,1.2-1.9,1.9-3.4,1.9c-2,0-3.4-1.3-3.4-2.9v-0.1c0-2.2,2.2-2.9,3.9-2.9h2.8V968z
					 M263.1,969.9c-1.1,0-2.5,0.3-2.5,1.7c0,1.1,1,1.8,2.2,1.8c1.8,0,3.1-1.3,3.1-3.1v-0.4H263.1z"/>
				<path d="M272.9,959.2v15.3h-1.5v-15.3H272.9z"/>
				<path d="M278.6,959.2v15.3h-1.5v-15.3H278.6z"/>
			</g>
		</g>
		<g>
			<g>
				<path class="st6" d="M152.7,535.1c-2.9,0-5.4-1.8-5.8-4.6l1.7-0.4c0.3,1.9,1.8,3.3,4.1,3.3c2.2,0,4-1.2,4-3.1
					c0-1.9-1.4-3.1-4-3.1H151v-1.6h1.6c2.3,0,3.7-1.4,3.7-3c0-1.7-1.3-3-3.7-3c-2.3,0-3.6,1.4-3.9,3.1l-1.7-0.4
					c0.3-2.3,2.5-4.4,5.6-4.4c3.6,0,5.4,2.2,5.4,4.4c0,1.9-1.1,3.1-2.7,3.8v0c1.9,0.5,3.1,2,3.1,4
					C158.5,532.9,156.2,535.1,152.7,535.1z"/>
				<path class="st6" d="M161,526.6c0-4.1,2.4-8.6,7-8.6c4.6,0,6.9,4.4,6.9,8.5c0,4.1-2.4,8.6-7,8.6
					C163.3,535.1,161,530.8,161,526.6z M162.8,526.5c0,3,1.5,7,5.2,7c3.6,0,5.2-3.9,5.2-6.9s-1.6-7-5.2-7S162.8,523.5,162.8,526.5z"
					/>
				<path class="st6" d="M178.8,527.2c-1.2,0-2.2-1-2.2-2.2c0-1.2,1-2.2,2.2-2.2c1.2,0,2.2,1,2.2,2.2
					C181,526.3,180.1,527.2,178.8,527.2z M178.8,523.7c-0.8,0-1.4,0.6-1.4,1.4c0,0.8,0.6,1.4,1.4,1.4c0.8,0,1.4-0.6,1.4-1.4
					C180.2,524.3,179.6,523.7,178.8,523.7z M184.2,522.9h1l-6.4,9.8h-1L184.2,522.9z M184.2,532.8c-1.2,0-2.2-1-2.2-2.2
					c0-1.2,1-2.2,2.2-2.2s2.2,1,2.2,2.2C186.4,531.8,185.5,532.8,184.2,532.8z M184.2,529.2c-0.8,0-1.4,0.6-1.4,1.4
					c0,0.8,0.6,1.4,1.4,1.4s1.4-0.6,1.4-1.4C185.6,529.8,185,529.2,184.2,529.2z"/>
			</g>
			<g>
				<path class="st7" d="M224.5,535.1c-2.9,0-5.4-1.8-5.8-4.6l1.7-0.4c0.3,1.9,1.8,3.3,4.1,3.3c2.2,0,4-1.2,4-3.1
					c0-1.9-1.4-3.1-4-3.1h-1.7v-1.6h1.6c2.3,0,3.7-1.4,3.7-3c0-1.7-1.3-3-3.7-3c-2.3,0-3.6,1.4-3.9,3.1l-1.7-0.4
					c0.3-2.3,2.5-4.4,5.6-4.4c3.6,0,5.4,2.2,5.4,4.4c0,1.9-1.1,3.1-2.7,3.8v0c1.9,0.5,3.1,2,3.1,4
					C230.3,532.9,228,535.1,224.5,535.1z"/>
				<path class="st7" d="M232.8,526.6c0-4.1,2.4-8.6,7-8.6c4.6,0,6.9,4.4,6.9,8.5c0,4.1-2.4,8.6-7,8.6
					C235.1,535.1,232.8,530.8,232.8,526.6z M234.6,526.5c0,3,1.5,7,5.2,7c3.6,0,5.2-3.9,5.2-6.9s-1.6-7-5.2-7
					S234.6,523.5,234.6,526.5z"/>
				<path class="st7" d="M250.7,527.2c-1.2,0-2.2-1-2.2-2.2c0-1.2,1-2.2,2.2-2.2c1.2,0,2.2,1,2.2,2.2
					C252.9,526.3,251.9,527.2,250.7,527.2z M250.7,523.7c-0.8,0-1.4,0.6-1.4,1.4c0,0.8,0.6,1.4,1.4,1.4s1.4-0.6,1.4-1.4
					C252,524.3,251.4,523.7,250.7,523.7z M256,522.9h1l-6.4,9.8h-1L256,522.9z M256.1,532.8c-1.2,0-2.2-1-2.2-2.2
					c0-1.2,1-2.2,2.2-2.2s2.2,1,2.2,2.2C258.3,531.8,257.3,532.8,256.1,532.8z M256.1,529.2c-0.8,0-1.4,0.6-1.4,1.4
					c0,0.8,0.6,1.4,1.4,1.4c0.8,0,1.4-0.6,1.4-1.4C257.5,529.8,256.8,529.2,256.1,529.2z"/>
			</g>
			<g>
				<path d="M296.3,535.1c-2.9,0-5.4-1.8-5.8-4.6l1.7-0.4c0.3,1.9,1.8,3.3,4.1,3.3c2.2,0,4-1.2,4-3.1c0-1.9-1.4-3.1-4-3.1h-1.7v-1.6
					h1.6c2.3,0,3.7-1.4,3.7-3c0-1.7-1.3-3-3.7-3c-2.3,0-3.6,1.4-3.9,3.1l-1.7-0.4c0.3-2.3,2.5-4.4,5.6-4.4c3.6,0,5.4,2.2,5.4,4.4
					c0,1.9-1.1,3.1-2.7,3.8v0c1.9,0.5,3.1,2,3.1,4C302.1,532.9,299.8,535.1,296.3,535.1z"/>
				<path d="M304.6,526.6c0-4.1,2.4-8.6,7-8.6c4.6,0,6.9,4.4,6.9,8.5c0,4.1-2.4,8.6-7,8.6C306.9,535.1,304.6,530.8,304.6,526.6z
					 M306.4,526.5c0,3,1.5,7,5.2,7c3.6,0,5.2-3.9,5.2-6.9s-1.6-7-5.2-7C307.9,519.6,306.4,523.5,306.4,526.5z"/>
				<path d="M322.4,527.2c-1.2,0-2.2-1-2.2-2.2c0-1.2,1-2.2,2.2-2.2c1.2,0,2.2,1,2.2,2.2C324.7,526.3,323.7,527.2,322.4,527.2z
					 M322.4,523.7c-0.8,0-1.4,0.6-1.4,1.4c0,0.8,0.6,1.4,1.4,1.4c0.8,0,1.4-0.6,1.4-1.4C323.8,524.3,323.2,523.7,322.4,523.7z
					 M327.8,522.9h1l-6.4,9.8h-1L327.8,522.9z M327.9,532.8c-1.2,0-2.2-1-2.2-2.2c0-1.2,1-2.2,2.2-2.2s2.2,1,2.2,2.2
					C330.1,531.8,329.1,532.8,327.9,532.8z M327.9,529.2c-0.8,0-1.4,0.6-1.4,1.4c0,0.8,0.6,1.4,1.4,1.4c0.8,0,1.4-0.6,1.4-1.4
					C329.2,529.8,328.6,529.2,327.9,529.2z"/>
			</g>
			<g>
				<rect x="289.5" y="547.6" width="71.8" height="372.3"/>
			</g>
			<g>
				<pattern  id="SVGID_2_" xlink:href="#white" patternTransform="matrix(0 1.3362 -1.2828 0 -21744.3535 1263.4818)">
				</pattern>
				<rect x="217.7" y="547.6" class="st9" width="71.8" height="372.3"/>
			</g>
			<g>
				<rect x="145.9" y="547.6" class="st6" width="71.8" height="372.3"/>
			</g>
		</g>
	</g>
	<g>
		<g>
			<g>
				<path d="M555.3,974.4h-1.5v-12.6h0l-5.4,12.6H547l-5.4-12.5v12.5h-1.5v-14.7h2.2l5.5,12.6l5.4-12.6h2.2V974.4z"/>
				<path d="M560.7,969.9c0.1,1.9,1.6,3.4,3.6,3.4c1.5,0,2.6-0.7,3.1-2.1l1.3,0.4c-0.6,1.9-2.4,3-4.4,3c-2.9,0-5.1-2.3-5.1-5.2
					c0-2.7,2.1-5.1,4.9-5.1c3.1,0,4.7,2.2,4.7,5.1c0,0.2,0,0.3,0,0.5H560.7z M567.3,968.7c-0.2-1.8-1.3-3.1-3.2-3.1
					c-1.7,0-3.1,1.4-3.4,3.1H567.3z"/>
				<path d="M576.2,964.3c1.9,0,3.1,1.1,3.9,2.3v-7.3h1.4v15.2h-1.4v-2.1c-0.8,1.3-2,2.3-3.9,2.3c-2.9,0-4.7-2.4-4.7-5.2
					C571.5,966.8,573.4,964.3,576.2,964.3z M580.1,969.4c0-2-1.5-3.8-3.6-3.8c-2.2,0-3.5,1.7-3.5,3.9c0,2.1,1.3,3.8,3.5,3.8
					C578.6,973.3,580.1,971.5,580.1,969.4z"/>
				<path d="M586.5,959.8c0.6,0,1.1,0.5,1.1,1.1c0,0.6-0.5,1.1-1.1,1.1c-0.6,0-1.1-0.5-1.1-1.1C585.4,960.3,585.9,959.8,586.5,959.8
					z M587.3,964.5v10h-1.5v-10H587.3z"/>
				<path d="M592.8,970.3c0,1.8,0.9,3,2.8,3c1.7,0,3-1.4,3-3.1v-5.7h1.4v10h-1.4v-1.8c-0.8,1.4-2,2-3.4,2c-2.5,0-3.8-1.7-3.8-4v-6.2
					h1.4V970.3z"/>
				<path d="M611,968.6c0-1.6-0.8-3-2.6-3c-1.7,0-2.8,1.5-2.8,3.2v5.7h-1.5v-10h1.4v1.7c0.8-1.2,1.7-1.9,3.2-1.9
					c1.5,0,2.6,0.7,3.2,2c0.8-1.3,1.9-2,3.5-2c2.4,0,3.7,1.7,3.7,4v6.2h-1.5v-5.8c0-1.7-0.7-3-2.6-3c-1.8,0-2.8,1.4-2.8,3.1v5.7H611
					V968.6z"/>
			</g>
		</g>
		<g>
			<g>
				<path class="st6" d="M481.5,400.4v-4h-8.7v-1.9l8.2-10.8h2.2v11.2h2.8v1.5h-2.8v4H481.5z M481.5,394.9v-9.4l-7.1,9.4H481.5z"/>
				<path class="st6" d="M491.3,385.5l-4,2.4l-0.8-1.3l4.9-2.9h1.7v16.7h-1.8V385.5z"/>
				<path class="st6" d="M498,392.7c-1.2,0-2.2-1-2.2-2.2c0-1.2,1-2.2,2.2-2.2c1.2,0,2.2,1,2.2,2.2
					C500.2,391.7,499.3,392.7,498,392.7z M498,389.2c-0.8,0-1.4,0.6-1.4,1.4c0,0.8,0.6,1.4,1.4,1.4c0.8,0,1.4-0.6,1.4-1.4
					C499.4,389.8,498.8,389.2,498,389.2z M503.4,388.4h1l-6.4,9.8h-1L503.4,388.4z M503.4,398.3c-1.2,0-2.2-1-2.2-2.2
					c0-1.2,1-2.2,2.2-2.2s2.2,1,2.2,2.2C505.7,397.3,504.7,398.3,503.4,398.3z M503.4,394.7c-0.8,0-1.4,0.6-1.4,1.4
					c0,0.8,0.6,1.4,1.4,1.4c0.8,0,1.4-0.6,1.4-1.4C504.8,395.3,504.2,394.7,503.4,394.7z"/>
			</g>
			<g>
				<path class="st7" d="M562.9,540.4c-2.9,0-5.4-1.8-5.8-4.6l1.7-0.4c0.3,1.9,1.8,3.3,4.1,3.3c2.2,0,4-1.2,4-3.1
					c0-1.9-1.4-3.1-4-3.1h-1.7V531h1.6c2.3,0,3.7-1.4,3.7-3c0-1.7-1.3-3-3.7-3c-2.3,0-3.6,1.4-3.9,3.1l-1.7-0.4
					c0.3-2.3,2.5-4.4,5.6-4.4c3.6,0,5.4,2.2,5.4,4.4c0,1.9-1.1,3.1-2.7,3.8v0c1.9,0.5,3.1,2,3.1,4
					C568.7,538.2,566.4,540.4,562.9,540.4z"/>
				<path class="st7" d="M571.2,532c0-4.1,2.4-8.6,7-8.6c4.6,0,6.9,4.4,6.9,8.5c0,4.1-2.4,8.6-7,8.6
					C573.5,540.5,571.2,536.1,571.2,532z M573,531.9c0,3,1.5,7,5.2,7c3.6,0,5.2-3.9,5.2-6.9s-1.6-7-5.2-7
					C574.6,525,573,528.9,573,531.9z"/>
				<path class="st7" d="M589.1,532.6c-1.2,0-2.2-1-2.2-2.2c0-1.2,1-2.2,2.2-2.2c1.2,0,2.2,1,2.2,2.2
					C591.3,531.6,590.3,532.6,589.1,532.6z M589.1,529c-0.8,0-1.4,0.6-1.4,1.4c0,0.8,0.6,1.4,1.4,1.4s1.4-0.6,1.4-1.4
					C590.5,529.6,589.8,529,589.1,529z M594.5,528.3h1l-6.4,9.8h-1L594.5,528.3z M594.5,538.1c-1.2,0-2.2-1-2.2-2.2
					c0-1.2,1-2.2,2.2-2.2c1.2,0,2.2,1,2.2,2.2C596.7,537.1,595.7,538.1,594.5,538.1z M594.5,534.5c-0.8,0-1.4,0.6-1.4,1.4
					c0,0.8,0.6,1.4,1.4,1.4c0.8,0,1.4-0.6,1.4-1.4C595.9,535.2,595.2,534.5,594.5,534.5z"/>
			</g>
			<g>
				<path d="M630.4,708l-4,2.4l-0.8-1.3l4.9-2.9h1.7v16.7h-1.8V708z"/>
				<path d="M638.8,707.8l-1,5.7c1-1,2.8-1.3,3.6-1.3c3.1,0,5.5,2.1,5.5,5.4c0,3.6-3,5.5-5.9,5.5c-2.8,0-5.4-1.8-5.7-4.6l1.7-0.4
					c0.3,1.9,1.9,3.3,4.1,3.3c1.7,0,4-1.1,4-3.8c0-2.7-2-3.9-4-3.9c-1.2,0-2.7,0.6-3.5,1.7l-1.6-0.6l1.4-8.6h8.8v1.6H638.8z"/>
				<path d="M650.7,715.2c-1.2,0-2.2-1-2.2-2.2c0-1.2,1-2.2,2.2-2.2c1.2,0,2.2,1,2.2,2.2C653,714.2,652,715.2,650.7,715.2z
					 M650.7,711.6c-0.8,0-1.4,0.6-1.4,1.4c0,0.8,0.6,1.4,1.4,1.4s1.4-0.6,1.4-1.4C652.1,712.2,651.5,711.6,650.7,711.6z
					 M656.1,710.9h1l-6.4,9.8h-1L656.1,710.9z M656.2,720.7c-1.2,0-2.2-1-2.2-2.2c0-1.2,1-2.2,2.2-2.2c1.2,0,2.2,1,2.2,2.2
					C658.4,719.8,657.4,720.7,656.2,720.7z M656.2,717.2c-0.8,0-1.4,0.6-1.4,1.4c0,0.8,0.6,1.4,1.4,1.4c0.8,0,1.4-0.6,1.4-1.4
					C657.5,717.8,656.9,717.2,656.2,717.2z"/>
			</g>
			<g>
				<rect x="615.8" y="733.8" width="71.8" height="186.2"/>
			</g>
			<g>
				<pattern  id="SVGID_3_" xlink:href="#white" patternTransform="matrix(0 1.3362 -1.2828 0 -21717.334 1263.4818)">
				</pattern>
				<rect x="544" y="547.6" class="st10" width="71.8" height="372.3"/>
			</g>
			<g>
				<rect x="472.1" y="411.1" class="st6" width="71.8" height="508.8"/>
			</g>
		</g>
	</g>
	<g>
		<g>
			<g>
				<path d="M894.7,959.8V973h6.9v1.4h-8.5v-14.7H894.7z"/>
				<path d="M910.6,968c0-1.6-0.9-2.4-2.5-2.4c-1.7,0-2.5,1.1-2.6,2l-1.4-0.3c0.1-0.8,1.2-3,4.1-3c2.1,0,3.2,1,3.6,2.1
					c0.2,0.5,0.3,1.3,0.3,1.6v6.5h-1.4v-1.8h0c-0.8,1.2-1.9,1.9-3.4,1.9c-2,0-3.3-1.3-3.3-2.9v-0.1c0-2.2,2.2-2.9,3.9-2.9h2.8V968z
					 M907.8,969.9c-1.1,0-2.5,0.3-2.5,1.7c0,1.1,1,1.8,2.2,1.8c1.8,0,3.1-1.3,3.1-3.1v-0.4H907.8z"/>
				<path d="M917.6,966.4c0.7-1.6,2.1-2.1,3.2-2.1c0.1,0,0.4,0,0.5,0v1.6c-0.2,0-0.4,0-0.6,0c-2.4,0-3.1,1.9-3.1,3.7v4.9h-1.5v-10
					h1.4V966.4z"/>
				<path d="M931.7,972.2c-0.8,1.3-2,2.3-3.9,2.3c-2.9,0-4.7-2.4-4.7-5.1c0-2.6,1.9-5.1,4.7-5.1c1.9,0,3.1,1.1,3.9,2.3v-2.1h1.4v10
					c0,3.2-2,5-5,5c-2.6,0-4.4-1.3-5-3.4l1.3-0.4c0.3,1.2,1.3,2.6,3.6,2.6c1.9,0,3.6-1,3.6-3.6V972.2z M931.7,969.4
					c0-2-1.5-3.8-3.6-3.8c-2.2,0-3.5,1.7-3.5,3.9c0,2.1,1.3,3.8,3.5,3.8C930.2,973.2,931.7,971.4,931.7,969.4z"/>
				<path d="M938.1,969.9c0.1,1.9,1.6,3.4,3.6,3.4c1.5,0,2.6-0.7,3.1-2.1l1.3,0.4c-0.6,1.9-2.4,3-4.4,3c-2.9,0-5.1-2.3-5.1-5.2
					c0-2.7,2.1-5.1,4.9-5.1c3.1,0,4.7,2.2,4.7,5.1c0,0.2,0,0.3,0,0.5H938.1z M944.7,968.7c-0.2-1.8-1.3-3.1-3.2-3.1
					c-1.7,0-3.1,1.4-3.4,3.1H944.7z"/>
			</g>
		</g>
		<g>
			<g>
				<rect x="955.4" y="870.3" width="71.8" height="49.6"/>
			</g>
			<g>
				<pattern  id="SVGID_4_" xlink:href="#white" patternTransform="matrix(0 1.3362 -1.2828 0 -21676.9746 1263.4818)">
				</pattern>
				<rect x="883.6" y="609.7" class="st11" width="71.8" height="310.3"/>
			</g>
			<g>
				<rect x="811.8" y="311.8" class="st6" width="71.8" height="608.1"/>
			</g>
			<g>
				<path class="st6" d="M821.1,300.9v-4h-8.7v-1.9l8.2-10.8h2.2v11.2h2.8v1.5h-2.8v4H821.1z M821.1,295.3v-9.4l-7.1,9.4H821.1z"/>
				<path class="st6" d="M837.8,292.5c-1.1,1.8-3.3,2.5-4.7,2.5c-3.6,0-5.6-2.7-5.6-5.4c0-3.8,3-5.8,5.9-5.8c1.8,0,3.9,1,4.9,2.8
					c0.8,1.5,1.1,2.8,1.1,4.7c0,5.5-2.7,9.5-7.8,9.5c-0.9,0-2.8-0.3-3.9-1l0.6-1.6c1.1,0.7,2.5,0.9,3.2,0.9
					C835.4,299.4,837.5,296.4,837.8,292.5z M836.2,292.5c0.8-0.7,1.3-1.8,1.3-3c0-2.5-2.1-4-4.1-4c-2.1,0-4.1,1.4-4.1,4
					c0,2.1,1.5,3.9,4.1,3.9C834.4,293.5,835.4,293.1,836.2,292.5z"/>
				<path class="st6" d="M843.5,293.2c-1.2,0-2.2-1-2.2-2.2c0-1.2,1-2.2,2.2-2.2c1.2,0,2.2,1,2.2,2.2
					C845.7,292.2,844.7,293.2,843.5,293.2z M843.5,289.6c-0.8,0-1.4,0.6-1.4,1.4c0,0.8,0.6,1.4,1.4,1.4c0.8,0,1.4-0.6,1.4-1.4
					C844.9,290.2,844.2,289.6,843.5,289.6z M848.9,288.9h1l-6.4,9.8h-1L848.9,288.9z M848.9,298.7c-1.2,0-2.2-1-2.2-2.2
					c0-1.2,1-2.2,2.2-2.2c1.2,0,2.2,1,2.2,2.2C851.1,297.7,850.1,298.7,848.9,298.7z M848.9,295.1c-0.8,0-1.4,0.6-1.4,1.4
					c0,0.8,0.6,1.4,1.4,1.4c0.8,0,1.4-0.6,1.4-1.4C850.3,295.7,849.6,295.1,848.9,295.1z"/>
			</g>
			<g>
				<path d="M975.5,858.3v-4h-8.7v-1.9l8.2-10.8h2.2v11.2h2.8v1.5h-2.8v4H975.5z M975.5,852.8v-9.4l-7.1,9.4H975.5z"/>
				<path d="M983.4,850.6c-1.2,0-2.2-1-2.2-2.2c0-1.2,1-2.2,2.2-2.2c1.2,0,2.2,1,2.2,2.2C985.6,849.6,984.6,850.6,983.4,850.6z
					 M983.4,847c-0.8,0-1.4,0.6-1.4,1.4c0,0.8,0.6,1.4,1.4,1.4c0.8,0,1.4-0.6,1.4-1.4C984.7,847.7,984.1,847,983.4,847z
					 M988.7,846.3h1l-6.4,9.8h-1L988.7,846.3z M988.8,856.1c-1.2,0-2.2-1-2.2-2.2c0-1.2,1-2.2,2.2-2.2c1.2,0,2.2,1,2.2,2.2
					C991,855.2,990,856.1,988.8,856.1z M988.8,852.6c-0.8,0-1.4,0.6-1.4,1.4c0,0.8,0.6,1.4,1.4,1.4c0.8,0,1.4-0.6,1.4-1.4
					C990.2,853.2,989.5,852.6,988.8,852.6z"/>
			</g>
			<g>
				<path class="st7" d="M892.8,606c0-1.9,0.9-4.1,3.9-5.9l2.5-1.6c1.6-1,2.9-2,2.9-4c0-1.7-1.5-3.3-3.7-3.3c-1.8,0-3,1.1-3.4,2.1
					c-0.3,0.7-0.3,1.4-0.3,1.6l-1.8-0.3c0-2.4,2-5.2,5.6-5.2c3.1,0,5.5,2.4,5.5,4.9c0,2.4-1.3,3.8-3.5,5.2l-2.6,1.6
					c-1.4,0.9-2.8,2.1-2.9,3.6h9.2v1.6h-11.3V606z"/>
				<path class="st7" d="M909.6,591.4l-1,5.7c1-1,2.8-1.3,3.6-1.3c3.1,0,5.5,2.1,5.5,5.4c0,3.6-3,5.5-5.9,5.5
					c-2.8,0-5.4-1.8-5.7-4.6l1.7-0.4c0.3,1.9,1.9,3.3,4.1,3.3c1.7,0,4-1.1,4-3.8s-2-3.9-4-3.9c-1.2,0-2.7,0.6-3.5,1.7l-1.6-0.6
					l1.4-8.6h8.8v1.6H909.6z"/>
				<path class="st7" d="M921.5,598.8c-1.2,0-2.2-1-2.2-2.2c0-1.2,1-2.2,2.2-2.2c1.2,0,2.2,1,2.2,2.2
					C923.7,597.9,922.8,598.8,921.5,598.8z M921.5,595.3c-0.8,0-1.4,0.6-1.4,1.4c0,0.8,0.6,1.4,1.4,1.4c0.8,0,1.4-0.6,1.4-1.4
					C922.9,595.9,922.3,595.3,921.5,595.3z M926.9,594.5h1l-6.4,9.8h-1L926.9,594.5z M926.9,604.4c-1.2,0-2.2-1-2.2-2.2
					c0-1.2,1-2.2,2.2-2.2c1.2,0,2.2,1,2.2,2.2C929.1,603.4,928.2,604.4,926.9,604.4z M926.9,600.8c-0.8,0-1.4,0.6-1.4,1.4
					c0,0.8,0.6,1.4,1.4,1.4c0.8,0,1.4-0.6,1.4-1.4C928.3,601.4,927.7,600.8,926.9,600.8z"/>
			</g>
		</g>
	</g>
	<g>
		<g>
			<path d="M1149.8,95.1l-5.7,8.5v6.2h-1.6v-6.2l-5.7-8.5h1.9l4.6,7l4.7-7H1149.8z"/>
			<path d="M1151.4,105.2c0.1,1.9,1.6,3.4,3.6,3.4c1.5,0,2.6-0.7,3.1-2.1l1.3,0.4c-0.6,1.9-2.4,3-4.4,3c-2.9,0-5.1-2.3-5.1-5.2
				c0-2.7,2.1-5.1,4.9-5.1c3.1,0,4.7,2.2,4.7,5.1c0,0.2,0,0.3,0,0.5H1151.4z M1158,103.9c-0.2-1.8-1.3-3.1-3.2-3.1
				c-1.7,0-3.1,1.4-3.4,3.1H1158z"/>
			<path d="M1165.9,109.9c-2.7,0-3.6-1.8-3.8-3l1.3-0.3c0.2,0.9,0.9,2,2.4,2c1.1,0,2.1-0.6,2.1-1.6c0-1.2-1.3-1.5-2.3-1.6
				c-1.7-0.2-3.3-0.8-3.3-2.8c0-1.9,1.7-3,3.3-3c2.6,0,3.5,1.8,3.6,2.7l-1.3,0.3c-0.2-0.7-0.7-1.8-2.3-1.8c-1.1,0-1.9,0.7-1.9,1.6
				c0,1.3,1.3,1.4,2.4,1.6c1.6,0.2,3.3,1.1,3.3,2.9C1169.5,108.7,1167.9,109.9,1165.9,109.9z"/>
		</g>
	</g>
	<g>
		<circle class="st6" cx="1103.3" cy="104.2" r="17.8"/>
	</g>
	<g>
		<g>
			<path d="M1150.3,148.9v14.7h-1.6l-8.8-12.5v12.5h-1.5v-14.7h1.8l8.6,12.2v-12.2H1150.3z"/>
			<path d="M1154.2,158.6c0-3,2.2-5.2,5.2-5.2c2.9,0,5.1,2.3,5.1,5.1c0,3-2.3,5.2-5.2,5.2C1156.5,163.7,1154.2,161.4,1154.2,158.6z
				 M1163.1,158.6c0-2.1-1.5-3.9-3.7-3.9c-2.2,0-3.6,1.8-3.6,3.9c0,2.1,1.5,3.9,3.7,3.9C1161.6,162.4,1163.1,160.6,1163.1,158.6z"/>
			<path d="M1167.7,165.7c0.8-0.6,1.5-1.4,1.6-2.2c-0.1,0.1-0.3,0.1-0.4,0.1c-0.7,0-1.2-0.5-1.2-1.2c0-0.8,0.6-1.3,1.3-1.3
				c0.9,0,1.5,0.7,1.5,1.8v0.1c0,1.3-0.7,2.5-2,3.5L1167.7,165.7z"/>
			<path d="M1184.6,163.7c-1.9,0-3.1-0.9-3.9-2.2v2.1h-1.4v-15.2h1.5v7.4c0.8-1.3,2-2.3,3.9-2.3c2.8,0,4.7,2.5,4.7,5.1
				C1189.3,161.2,1187.4,163.7,1184.6,163.7z M1187.8,158.6c0-2.1-1.3-3.9-3.5-3.9c-2.1,0-3.6,1.8-3.6,3.8c0,2.1,1.5,3.9,3.6,3.9
				C1186.5,162.4,1187.8,160.7,1187.8,158.6z"/>
			<path d="M1194.1,159.4c0,1.8,0.9,3,2.8,3c1.7,0,3-1.4,3-3.1v-5.7h1.4v10h-1.4v-1.8c-0.8,1.4-2,2-3.4,2c-2.5,0-3.8-1.7-3.8-4v-6.2
				h1.4V159.4z"/>
			<path d="M1206.2,160.9v-6.1h-1.9v-1.3h1.9v-2.9h1.4v2.9h2.5v1.3h-2.5v6.1c0,0.9,0.5,1.4,1.6,1.4c0.3,0,0.7,0,0.9-0.1v1.2
				c-0.3,0.1-0.9,0.1-1.1,0.1C1206.9,163.6,1206.2,162.4,1206.2,160.9z"/>
			<path d="M1221.9,163.5l-3.3-10h1.6l2.6,8.3h0l2.7-8.3h1.5l2.7,8.3h0l2.6-8.3h1.5l-3.4,10h-1.6l-2.6-8.1h0l-2.7,8.1H1221.9z"/>
			<path d="M1237.4,159c0.1,1.9,1.6,3.4,3.6,3.4c1.5,0,2.6-0.7,3.1-2.1l1.3,0.4c-0.6,1.9-2.4,3-4.4,3c-2.9,0-5.1-2.3-5.1-5.2
				c0-2.7,2.1-5.1,4.9-5.1c3.1,0,4.7,2.2,4.7,5.1c0,0.2,0,0.3,0,0.5H1237.4z M1244.1,157.7c-0.2-1.8-1.3-3.1-3.2-3.1
				c-1.7,0-3.1,1.4-3.4,3.1H1244.1z"/>
			<path d="M1257.3,163.5l-3.4-10h1.6l2.6,8.3h0l2.7-8.3h1.5l2.7,8.3h0l2.6-8.3h1.5l-3.4,10h-1.6l-2.6-8.1h0l-2.7,8.1H1257.3z"/>
			<path d="M1273,148.9c0.6,0,1.1,0.5,1.1,1.1c0,0.6-0.5,1.1-1.1,1.1c-0.6,0-1.1-0.5-1.1-1.1C1271.9,149.3,1272.4,148.9,1273,148.9z
				 M1273.7,153.5v10h-1.5v-10H1273.7z"/>
			<path d="M1279.4,148.3v15.3h-1.5v-15.3H1279.4z"/>
			<path d="M1285.1,148.3v15.3h-1.5v-15.3H1285.1z"/>
			<path d="M1138.7,171.3c0.6,0,1.1,0.5,1.1,1.1c0,0.6-0.5,1.1-1.1,1.1c-0.6,0-1.1-0.5-1.1-1.1
				C1137.7,171.8,1138.1,171.3,1138.7,171.3z M1139.5,176v10h-1.5v-10H1139.5z"/>
			<path d="M1150.9,180.2c0-1.8-0.9-3-2.8-3c-1.7,0-3,1.4-3,3.2v5.7h-1.5v-10h1.4v1.8c0.8-1.3,2-2,3.4-2c2.5,0,3.8,1.7,3.8,4v6.2
				h-1.5V180.2z"/>
			<path d="M1163.3,183.4v-6.1h-1.9V176h1.9v-2.9h1.4v2.9h2.5v1.3h-2.5v6.1c0,0.9,0.5,1.4,1.6,1.4c0.3,0,0.7,0,0.9-0.1v1.2
				c-0.3,0.1-0.9,0.1-1.1,0.1C1164,186.1,1163.3,184.9,1163.3,183.4z"/>
			<path d="M1177.9,180.2c0-1.8-0.9-3-2.8-3c-1.7,0-3,1.4-3,3.2v5.7h-1.5v-15.2h1.5v7c0.8-1.3,1.9-2,3.4-2c2.5,0,3.8,1.7,3.8,4v6.2
				h-1.5V180.2z"/>
			<path d="M1184.2,181.4c0.1,1.9,1.6,3.4,3.6,3.4c1.5,0,2.6-0.7,3.1-2.1l1.3,0.4c-0.6,1.9-2.4,3-4.4,3c-2.9,0-5.1-2.3-5.1-5.2
				c0-2.7,2.1-5.1,4.9-5.1c3.1,0,4.7,2.2,4.7,5.1c0,0.2,0,0.3,0,0.5H1184.2z M1190.8,180.2c-0.2-1.8-1.3-3.1-3.2-3.1
				c-1.7,0-3.1,1.4-3.4,3.1H1190.8z"/>
			<path d="M1209.1,180.2c0-1.8-0.9-3-2.8-3c-1.7,0-3,1.4-3,3.2v5.7h-1.5v-10h1.4v1.8c0.8-1.3,2-2,3.4-2c2.5,0,3.8,1.7,3.8,4v6.2
				h-1.5V180.2z"/>
			<path d="M1215.4,181.4c0.1,1.9,1.6,3.4,3.6,3.4c1.5,0,2.6-0.7,3.1-2.1l1.3,0.4c-0.6,1.9-2.4,3-4.4,3c-2.9,0-5.1-2.3-5.1-5.2
				c0-2.7,2.1-5.1,4.9-5.1c3.1,0,4.7,2.2,4.7,5.1c0,0.2,0,0.3,0,0.5H1215.4z M1222,180.2c-0.2-1.8-1.3-3.1-3.2-3.1
				c-1.7,0-3.1,1.4-3.4,3.1H1222z"/>
			<path d="M1227,186h-1.7l3.9-5.1l-3.8-4.9h1.7l3,3.9l3-3.9h1.7l-3.8,4.9l4,5.1h-1.7l-3.1-4.1L1227,186z"/>
			<path d="M1238.5,183.4v-6.1h-1.9V176h1.9v-2.9h1.4v2.9h2.5v1.3h-2.5v6.1c0,0.9,0.5,1.4,1.6,1.4c0.3,0,0.7,0,0.9-0.1v1.2
				c-0.3,0.1-0.9,0.1-1.1,0.1C1239.2,186.1,1238.5,184.9,1238.5,183.4z"/>
			<path d="M1254.9,173l-3.5,2.1l-0.7-1.2l4.2-2.6h1.5V186h-1.5V173z"/>
			<path d="M1260.4,185.5c0-1.7,0.8-3.6,3.4-5.1l2.2-1.4c1.4-0.9,2.6-1.8,2.6-3.5c0-1.5-1.3-2.9-3.2-2.9c-1.6,0-2.6,1-3,1.9
				c-0.3,0.6-0.3,1.2-0.3,1.4l-1.5-0.2c0-2.1,1.8-4.5,4.9-4.5c2.7,0,4.8,2.1,4.8,4.3c0,2.1-1.2,3.3-3.1,4.5l-2.3,1.4
				c-1.3,0.8-2.4,1.8-2.5,3.1h8v1.4h-9.9V185.5z"/>
			<path d="M1286.9,180.1c0-1.6-0.8-3-2.6-3c-1.7,0-2.8,1.5-2.8,3.2v5.7h-1.5v-10h1.4v1.7c0.8-1.2,1.7-1.9,3.2-1.9
				c1.5,0,2.6,0.7,3.2,2c0.8-1.3,1.9-2,3.5-2c2.4,0,3.7,1.7,3.7,4v6.2h-1.5v-5.8c0-1.7-0.7-3-2.6-3c-1.8,0-2.8,1.4-2.8,3.1v5.7h-1.4
				V180.1z"/>
			<path d="M1298.5,181c0-3,2.2-5.2,5.2-5.2c2.9,0,5.1,2.3,5.1,5.1c0,3-2.3,5.2-5.2,5.2C1300.8,186.1,1298.5,183.9,1298.5,181z
				 M1307.4,181c0-2.1-1.5-3.9-3.7-3.9s-3.6,1.8-3.6,3.9c0,2.1,1.5,3.9,3.7,3.9C1305.9,184.9,1307.4,183.1,1307.4,181z"/>
			<path d="M1319.6,180.2c0-1.8-0.9-3-2.8-3c-1.7,0-3,1.4-3,3.2v5.7h-1.5v-10h1.4v1.8c0.8-1.3,2-2,3.4-2c2.5,0,3.8,1.7,3.8,4v6.2
				h-1.5V180.2z"/>
			<path d="M1325.7,183.4v-6.1h-1.9V176h1.9v-2.9h1.4v2.9h2.5v1.3h-2.5v6.1c0,0.9,0.5,1.4,1.6,1.4c0.3,0,0.7,0,0.9-0.1v1.2
				c-0.3,0.1-0.9,0.1-1.1,0.1C1326.4,186.1,1325.7,184.9,1325.7,183.4z"/>
			<path d="M1340.3,180.2c0-1.8-0.9-3-2.8-3c-1.7,0-3,1.4-3,3.2v5.7h-1.5v-15.2h1.5v7c0.8-1.3,1.9-2,3.4-2c2.5,0,3.8,1.7,3.8,4v6.2
				h-1.5V180.2z"/>
			<path d="M1348.9,186.1c-2.7,0-3.6-1.8-3.8-3l1.3-0.3c0.2,0.9,0.9,2,2.4,2c1.1,0,2.1-0.6,2.1-1.6c0-1.2-1.3-1.5-2.3-1.6
				c-1.7-0.2-3.3-0.8-3.3-2.8c0-1.9,1.7-3,3.4-3c2.6,0,3.5,1.8,3.6,2.7l-1.3,0.3c-0.2-0.7-0.7-1.8-2.3-1.8c-1.1,0-1.9,0.7-1.9,1.6
				c0,1.3,1.3,1.4,2.4,1.6c1.6,0.2,3.3,1.1,3.3,2.9C1352.4,185,1350.8,186.1,1348.9,186.1z"/>
		</g>
	</g>
	<g>
		<pattern  id="SVGID_5_" xlink:href="#white" patternTransform="matrix(0 1.3362 -1.2828 0 -21316.9219 1150.9612)">
		</pattern>
		<circle class="st12" cx="1103.3" cy="169.2" r="17.8"/>
	</g>
	<g>
		<g>
			<path d="M1150.3,213.9v14.7h-1.6l-8.8-12.5v12.5h-1.5v-14.7h1.8l8.6,12.2v-12.2H1150.3z"/>
			<path d="M1154.2,223.6c0-3,2.2-5.2,5.2-5.2c2.9,0,5.1,2.3,5.1,5.1c0,3-2.3,5.2-5.2,5.2C1156.5,228.7,1154.2,226.4,1154.2,223.6z
				 M1163.1,223.6c0-2.1-1.5-3.9-3.7-3.9c-2.2,0-3.6,1.8-3.6,3.9c0,2.1,1.5,3.9,3.7,3.9C1161.6,227.4,1163.1,225.7,1163.1,223.6z"/>
			<path d="M1167.7,230.7c0.8-0.6,1.5-1.4,1.6-2.2c-0.1,0.1-0.3,0.1-0.4,0.1c-0.7,0-1.2-0.5-1.2-1.2c0-0.8,0.6-1.3,1.3-1.3
				c0.9,0,1.5,0.7,1.5,1.8v0.1c0,1.3-0.7,2.5-2,3.5L1167.7,230.7z"/>
			<path d="M1185.3,222.1c0-1.6-0.9-2.4-2.5-2.4c-1.7,0-2.5,1.1-2.6,2l-1.4-0.3c0.1-0.8,1.2-3,4.1-3c2.1,0,3.2,1,3.6,2.1
				c0.2,0.5,0.3,1.3,0.3,1.6v6.5h-1.4v-1.8h0c-0.8,1.2-1.9,1.9-3.4,1.9c-2,0-3.4-1.3-3.4-2.9v-0.1c0-2.2,2.2-2.9,4-2.9h2.8V222.1z
				 M1182.5,224c-1.1,0-2.5,0.3-2.5,1.7c0,1.1,1,1.8,2.2,1.8c1.8,0,3.1-1.3,3.1-3.1V224H1182.5z"/>
			<path d="M1198,222.7c0-1.8-0.9-3-2.8-3c-1.7,0-3,1.4-3,3.2v5.7h-1.5v-10h1.4v1.8c0.8-1.3,2-2,3.4-2c2.5,0,3.8,1.7,3.8,4v6.2h-1.5
				V222.7z"/>
			<path d="M1207.6,218.4c1.9,0,3.1,1.1,3.9,2.3v-7.3h1.4v15.2h-1.4v-2.1c-0.8,1.3-2,2.3-3.9,2.3c-2.9,0-4.7-2.4-4.7-5.2
				C1202.9,220.9,1204.7,218.4,1207.6,218.4z M1211.4,223.5c0-2-1.5-3.8-3.6-3.8c-2.2,0-3.5,1.7-3.5,3.9c0,2.1,1.3,3.8,3.5,3.8
				C1210,227.4,1211.4,225.6,1211.4,223.5z"/>
			<path d="M1225.4,228.6l-3.3-10h1.6l2.6,8.3h0l2.7-8.3h1.5l2.7,8.3h0l2.6-8.3h1.5l-3.4,10h-1.6l-2.6-8.1h0l-2.7,8.1H1225.4z"/>
			<path d="M1240.9,224c0.1,1.9,1.6,3.4,3.6,3.4c1.5,0,2.6-0.7,3.1-2.1l1.3,0.4c-0.6,1.9-2.4,3-4.4,3c-2.9,0-5.1-2.3-5.1-5.2
				c0-2.7,2.1-5.1,4.9-5.1c3.1,0,4.7,2.2,4.7,5.1c0,0.2,0,0.3,0,0.5H1240.9z M1247.6,222.8c-0.2-1.8-1.3-3.1-3.2-3.1
				c-1.7,0-3.1,1.4-3.4,3.1H1247.6z"/>
			<path d="M1251.5,218.5c0.8-0.6,1.5-1.4,1.6-2.2c-0.1,0.1-0.3,0.1-0.4,0.1c-0.7,0-1.2-0.5-1.2-1.2c0-0.8,0.6-1.3,1.3-1.3
				c0.9,0,1.5,0.7,1.5,1.8v0.1c0,1.3-0.7,2.5-2,3.5L1251.5,218.5z"/>
			<path d="M1259,220.5c0.7-1.6,2.1-2.1,3.2-2.1c0.1,0,0.4,0,0.5,0v1.6c-0.2,0-0.4,0-0.6,0c-2.4,0-3.1,1.9-3.1,3.7v4.9h-1.5v-10h1.4
				V220.5z"/>
			<path d="M1266,224c0.1,1.9,1.6,3.4,3.6,3.4c1.5,0,2.6-0.7,3.1-2.1l1.3,0.4c-0.6,1.9-2.4,3-4.4,3c-2.9,0-5.1-2.3-5.1-5.2
				c0-2.7,2.1-5.1,4.9-5.1c3.1,0,4.7,2.2,4.7,5.1c0,0.2,0,0.3,0,0.5H1266z M1272.6,222.8c-0.2-1.8-1.3-3.1-3.2-3.1
				c-1.7,0-3.1,1.4-3.4,3.1H1272.6z"/>
			<path d="M1290.9,222.7c0-1.8-0.9-3-2.8-3c-1.7,0-3,1.4-3,3.2v5.7h-1.5v-10h1.4v1.8c0.8-1.3,2-2,3.4-2c2.5,0,3.8,1.7,3.8,4v6.2
				h-1.5V222.7z"/>
			<path d="M1295.7,223.6c0-3,2.2-5.2,5.2-5.2c2.9,0,5.1,2.3,5.1,5.1c0,3-2.3,5.2-5.2,5.2C1298,228.7,1295.7,226.4,1295.7,223.6z
				 M1304.6,223.6c0-2.1-1.5-3.9-3.7-3.9s-3.6,1.8-3.6,3.9c0,2.1,1.5,3.9,3.7,3.9C1303,227.4,1304.6,225.7,1304.6,223.6z"/>
			<path d="M1310.1,226v-6.1h-1.9v-1.3h1.9v-2.9h1.4v2.9h2.5v1.3h-2.5v6.1c0,0.9,0.5,1.4,1.6,1.4c0.3,0,0.7,0,0.9-0.1v1.2
				c-0.3,0.1-0.9,0.1-1.1,0.1C1310.7,228.6,1310.1,227.4,1310.1,226z"/>
			<path d="M1143.3,251.2c-1.9,0-3.1-0.9-3.9-2.2v7h-1.5V241h1.4v2.2c0.8-1.3,2-2.3,3.9-2.3c2.8,0,4.7,2.5,4.7,5.1
				C1148,248.7,1146.2,251.2,1143.3,251.2z M1146.5,246c0-2.1-1.3-3.9-3.5-3.9c-2.1,0-3.6,1.8-3.6,3.8c0,2.1,1.5,3.9,3.6,3.9
				C1145.2,249.9,1146.5,248.1,1146.5,246z"/>
			<path d="M1153,235.8V251h-1.5v-15.3H1153z"/>
			<path d="M1163.3,244.6c0-1.6-0.9-2.4-2.5-2.4c-1.7,0-2.5,1.1-2.6,2l-1.4-0.3c0.1-0.8,1.2-3,4.1-3c2.1,0,3.2,1,3.6,2.1
				c0.2,0.5,0.3,1.3,0.3,1.6v6.5h-1.4v-1.8h0c-0.8,1.2-1.9,1.9-3.4,1.9c-2,0-3.3-1.3-3.3-2.9v-0.1c0-2.2,2.2-2.9,3.9-2.9h2.8V244.6z
				 M1160.5,246.4c-1.1,0-2.5,0.3-2.5,1.7c0,1.1,1,1.8,2.2,1.8c1.8,0,3.1-1.3,3.1-3.1v-0.4H1160.5z"/>
			<path d="M1176,245.2c0-1.8-0.9-3-2.8-3c-1.7,0-3,1.4-3,3.2v5.7h-1.5v-10h1.4v1.8c0.8-1.3,2-2,3.4-2c2.5,0,3.8,1.7,3.8,4v6.2h-1.5
				V245.2z"/>
			<path d="M1188.8,245.2c0-1.8-0.9-3-2.8-3c-1.7,0-3,1.4-3,3.2v5.7h-1.5v-10h1.4v1.8c0.8-1.3,2-2,3.4-2c2.5,0,3.8,1.7,3.8,4v6.2
				h-1.5V245.2z"/>
			<path d="M1195.1,236.3c0.6,0,1.1,0.5,1.1,1.1c0,0.6-0.5,1.1-1.1,1.1c-0.6,0-1.1-0.5-1.1-1.1
				C1194,236.8,1194.5,236.3,1195.1,236.3z M1195.8,241v10h-1.5v-10H1195.8z"/>
			<path d="M1207.2,245.2c0-1.8-0.9-3-2.8-3c-1.7,0-3,1.4-3,3.2v5.7h-1.5v-10h1.4v1.8c0.8-1.3,2-2,3.4-2c2.5,0,3.8,1.7,3.8,4v6.2
				h-1.5V245.2z"/>
			<path d="M1220.6,248.8c-0.8,1.3-2,2.3-3.9,2.3c-2.9,0-4.7-2.4-4.7-5.1c0-2.6,1.9-5.1,4.7-5.1c1.9,0,3.1,1.1,3.9,2.3V241h1.4v10
				c0,3.2-2,5-5,5c-2.6,0-4.4-1.3-5-3.4l1.3-0.4c0.3,1.2,1.3,2.6,3.6,2.6c1.9,0,3.6-1,3.6-3.6V248.8z M1220.6,245.9
				c0-2-1.5-3.8-3.6-3.8c-2.2,0-3.5,1.7-3.5,3.9c0,2.1,1.3,3.8,3.5,3.8C1219.2,249.8,1220.6,248,1220.6,245.9z"/>
			<path d="M1233.1,248.4v-6.1h-1.9V241h1.9v-2.9h1.4v2.9h2.5v1.3h-2.5v6.1c0,0.9,0.5,1.4,1.6,1.4c0.3,0,0.7,0,0.9-0.1v1.2
				c-0.3,0.1-0.9,0.1-1.1,0.1C1233.8,251.1,1233.1,249.9,1233.1,248.4z"/>
			<path d="M1239.6,246c0-3,2.2-5.2,5.2-5.2c2.9,0,5.1,2.3,5.1,5.1c0,3-2.3,5.2-5.2,5.2C1241.8,251.2,1239.6,248.9,1239.6,246z
				 M1248.4,246c0-2.1-1.5-3.9-3.7-3.9c-2.2,0-3.6,1.8-3.6,3.9c0,2.1,1.5,3.9,3.7,3.9C1246.9,249.9,1248.4,248.1,1248.4,246z"/>
		</g>
	</g>
	<g class="st3">
		<circle cx="1103.3" cy="234.3" r="17.8"/>
	</g>
	<g>
		<g>
			<path class="st7" d="M150.3,85.3l-3.5,2.1l-0.7-1.2l4.2-2.6h1.5v14.6h-1.5V85.3z"/>
			<path class="st7" d="M156.6,90.9c1-1.6,2.8-2.1,4-2.1c3.1,0,4.9,2.2,4.9,4.7c0,3.3-2.7,5-5.2,5c-1.6,0-3.5-0.9-4.4-2.5
				c-0.7-1.3-0.9-2.2-0.9-4c0-4.6,2.5-8.4,7.2-8.4c0.8,0,2,0.1,3,0.7l-0.6,1.4c-0.8-0.5-1.8-0.6-2.4-0.6
				C158.8,85,156.9,87.7,156.6,90.9z M157.9,91c-0.7,0.6-1.2,1.5-1.2,2.5c0,2.2,1.8,3.5,3.6,3.5c1.8,0,3.6-1.2,3.6-3.5
				c0-1.8-1.4-3.4-3.6-3.4C159.5,90.2,158.6,90.5,157.9,91z"/>
			<path class="st7" d="M177.8,97.5V109h-2.6V83.9h2.6V95h14.3V83.9h2.6V109h-2.6V97.5H177.8z"/>
			<path class="st7" d="M211.4,98c0-2.8-1.5-4.2-4.4-4.2c-2.9,0-4.2,1.9-4.5,3.5l-2.4-0.5c0.1-1.4,2.1-5.2,7-5.2
				c3.6,0,5.4,1.6,6.3,3.5c0.4,0.9,0.5,2.3,0.5,2.8V109h-2.4v-3h0c-1.3,2.1-3.2,3.3-5.8,3.3c-3.5,0-5.7-2.1-5.7-5v-0.2
				c0-3.7,3.7-4.9,6.8-4.9h4.7V98z M206.6,101.2c-1.8,0-4.2,0.6-4.2,2.9c0,1.9,1.6,3,3.7,3c3,0,5.3-2.1,5.3-5.3v-0.6H206.6z"/>
			<path class="st7" d="M216.8,91.9h2.8l5.9,14.4l6-14.4h2.7l-7.3,17.1h-2.7L216.8,91.9z"/>
			<path class="st7" d="M238.3,101.2c0.2,3.3,2.8,5.9,6.1,5.9c2.5,0,4.5-1.3,5.3-3.7l2.2,0.7c-1,3.3-4.1,5.2-7.5,5.2
				c-5,0-8.7-3.9-8.7-8.9c0-4.7,3.5-8.8,8.3-8.8c5.3,0,8.1,3.8,8.1,8.8c0,0.3,0,0.6,0,0.8H238.3z M249.6,99.1
				c-0.3-3.1-2.3-5.3-5.5-5.3c-3,0-5.4,2.5-5.8,5.3H249.6z"/>
			<path class="st7" d="M270.3,107.9l-7.8-16h2.9l6.3,13.2l5.9-13.2h2.7l-11.7,25.6h-2.7L270.3,107.9z"/>
			<path class="st7" d="M281.8,100.5c0-5.1,3.8-8.9,8.9-8.9c4.9,0,8.8,3.9,8.8,8.8c0,5.1-3.9,8.9-8.9,8.9
				C285.7,109.3,281.8,105.4,281.8,100.5z M297,100.5c0-3.6-2.6-6.7-6.3-6.7c-3.7,0-6.3,3-6.3,6.6c0,3.6,2.6,6.7,6.3,6.7
				C294.4,107.1,297,104.1,297,100.5z"/>
			<path class="st7" d="M306.2,101.9c0,3,1.6,5.2,4.7,5.2c3,0,5.1-2.3,5.1-5.4v-9.8h2.5V109h-2.4v-3.1c-1.3,2.3-3.4,3.5-5.9,3.5
				c-4.2,0-6.5-2.9-6.5-6.9V91.9h2.5V101.9z"/>
			<path class="st7" d="M335.6,95.3c1.3-2.7,3.6-3.7,5.5-3.7c0.2,0,0.6,0,0.8,0v2.7c-0.3,0-0.6-0.1-1-0.1c-4,0-5.4,3.3-5.4,6.4v8.4
				h-2.5V91.9h2.5V95.3z"/>
			<path class="st7" d="M346,101.2c0.2,3.3,2.8,5.9,6.1,5.9c2.5,0,4.5-1.3,5.3-3.7l2.2,0.7c-1,3.3-4.1,5.2-7.5,5.2
				c-5,0-8.7-3.9-8.7-8.9c0-4.7,3.5-8.8,8.3-8.8c5.3,0,8.1,3.8,8.1,8.8c0,0.3,0,0.6,0,0.8H346z M357.4,99.1
				c-0.3-3.1-2.3-5.3-5.5-5.3c-3,0-5.4,2.5-5.8,5.3H357.4z"/>
			<path class="st7" d="M373,97.7v2.7h-9.2v-2.7H373z"/>
			<path class="st7" d="M379.5,101.2c0.2,3.3,2.8,5.9,6.1,5.9c2.5,0,4.5-1.3,5.3-3.7l2.2,0.7c-1,3.3-4.1,5.2-7.5,5.2
				c-5,0-8.7-3.9-8.7-8.9c0-4.7,3.5-8.8,8.3-8.8c5.3,0,8.1,3.8,8.1,8.8c0,0.3,0,0.6,0,0.8H379.5z M390.8,99.1
				c-0.3-3.1-2.3-5.3-5.5-5.3c-3,0-5.4,2.5-5.8,5.3H390.8z"/>
			<path class="st7" d="M394.9,91.9h2.8l5.9,14.4l6-14.4h2.7l-7.3,17.1h-2.7L394.9,91.9z"/>
			<path class="st7" d="M425.4,98c0-2.8-1.5-4.2-4.4-4.2c-2.9,0-4.2,1.9-4.5,3.5l-2.4-0.5c0.1-1.4,2.1-5.2,7-5.2
				c3.6,0,5.4,1.6,6.3,3.5c0.4,0.9,0.5,2.3,0.5,2.8V109h-2.4v-3h0c-1.3,2.1-3.2,3.3-5.8,3.3c-3.5,0-5.7-2.1-5.7-5v-0.2
				c0-3.7,3.7-4.9,6.8-4.9h4.7V98z M420.6,101.2c-1.8,0-4.2,0.6-4.2,2.9c0,1.9,1.6,3,3.7,3c3,0,5.3-2.1,5.3-5.3v-0.6H420.6z"/>
			<path class="st7" d="M435.8,82.9V109h-2.5V82.9H435.8z"/>
			<path class="st7" d="M443.7,101.9c0,3,1.6,5.2,4.7,5.2c3,0,5.1-2.3,5.1-5.4v-9.8h2.5V109h-2.4v-3.1c-1.3,2.3-3.4,3.5-5.9,3.5
				c-4.2,0-6.5-2.9-6.5-6.9V91.9h2.5V101.9z"/>
			<path class="st7" d="M472,98c0-2.8-1.5-4.2-4.4-4.2c-2.9,0-4.2,1.9-4.5,3.5l-2.4-0.5c0.1-1.4,2.1-5.2,7-5.2
				c3.6,0,5.4,1.6,6.3,3.5c0.4,0.9,0.5,2.3,0.5,2.8V109h-2.4v-3h0c-1.3,2.1-3.2,3.3-5.8,3.3c-3.5,0-5.7-2.1-5.7-5v-0.2
				c0-3.7,3.7-4.9,6.8-4.9h4.7V98z M467.2,101.2c-1.8,0-4.2,0.6-4.2,2.9c0,1.9,1.6,3,3.7,3c3,0,5.3-2.1,5.3-5.3v-0.6H467.2z"/>
			<path class="st7" d="M480.9,104.6V94.1h-3.2v-2.2h3.2V87h2.5v4.9h4.3v2.2h-4.3v10.4c0,1.5,0.9,2.4,2.8,2.4c0.5,0,1.2,0,1.5-0.1
				v2.1c-0.5,0.2-1.5,0.3-2,0.3C482,109.1,480.9,107.1,480.9,104.6z"/>
			<path class="st7" d="M492.9,101.2c0.2,3.3,2.8,5.9,6.1,5.9c2.5,0,4.5-1.3,5.3-3.7l2.2,0.7c-1,3.3-4.1,5.2-7.5,5.2
				c-5,0-8.7-3.9-8.7-8.9c0-4.7,3.5-8.8,8.3-8.8c5.3,0,8.1,3.8,8.1,8.8c0,0.3,0,0.6,0,0.8H492.9z M504.2,99.1
				c-0.3-3.1-2.3-5.3-5.5-5.3c-3,0-5.4,2.5-5.8,5.3H504.2z"/>
			<path class="st7" d="M517.8,91.6c3.3,0,5.3,1.9,6.6,3.9V82.9h2.5V109h-2.4v-3.7c-1.3,2.2-3.4,3.9-6.7,3.9c-4.9,0-8-4.2-8-8.9
				C509.8,96,513,91.6,517.8,91.6z M524.5,100.4c0-3.4-2.6-6.6-6.2-6.6c-3.8,0-6,3-6,6.7c0,3.5,2.2,6.6,6,6.6
				C522,107.1,524.5,103.9,524.5,100.4z"/>
			<path class="st7" d="M546.5,107.9l-7.8-16h2.9l6.3,13.2l5.9-13.2h2.7l-11.7,25.6h-2.7L546.5,107.9z"/>
			<path class="st7" d="M558,100.5c0-5.1,3.8-8.9,8.9-8.9c4.9,0,8.8,3.9,8.8,8.8c0,5.1-3.9,8.9-8.9,8.9
				C561.9,109.3,558,105.4,558,100.5z M573.2,100.5c0-3.6-2.6-6.7-6.3-6.7s-6.3,3-6.3,6.6c0,3.6,2.6,6.7,6.3,6.7
				C570.6,107.1,573.2,104.1,573.2,100.5z"/>
			<path class="st7" d="M582.4,101.9c0,3,1.6,5.2,4.7,5.2c3,0,5.1-2.3,5.1-5.4v-9.8h2.5V109h-2.4v-3.1c-1.3,2.3-3.4,3.5-5.9,3.5
				c-4.2,0-6.5-2.9-6.5-6.9V91.9h2.5V101.9z"/>
			<path class="st7" d="M602.9,95.3c1.3-2.7,3.6-3.7,5.5-3.7c0.2,0,0.6,0,0.8,0v2.7c-0.3,0-0.6-0.1-1-0.1c-4,0-5.4,3.3-5.4,6.4v8.4
				h-2.5V91.9h2.5V95.3z"/>
			<path class="st7" d="M628.1,107.1c3.8,0,5.2-2.8,5.7-4.1l2.3,0.8c-0.8,2.6-3.6,5.5-8.1,5.5c-4.9,0-8.7-3.7-8.7-8.8
				c0-5.2,4-8.9,8.9-8.9c4,0,7.2,2.6,7.9,5.5l-2.3,0.7c-0.4-1.3-2.1-4-5.6-4c-3.7,0-6.2,3-6.2,6.5
				C621.9,103.9,624.2,107.1,628.1,107.1z"/>
			<path class="st7" d="M639,100.5c0-5.1,3.8-8.9,8.9-8.9c4.9,0,8.8,3.9,8.8,8.8c0,5.1-3.9,8.9-8.9,8.9
				C642.9,109.3,639,105.4,639,100.5z M654.2,100.5c0-3.6-2.6-6.7-6.3-6.7c-3.7,0-6.3,3-6.3,6.6c0,3.6,2.6,6.7,6.3,6.7
				C651.6,107.1,654.2,104.1,654.2,100.5z"/>
			<path class="st7" d="M673.5,99c0-3-1.6-5.2-4.7-5.2c-3,0-5.1,2.4-5.1,5.4v9.8h-2.5V91.9h2.5V95c1.3-2.3,3.4-3.5,5.9-3.5
				c4.2,0,6.5,2.9,6.5,6.9V109h-2.5V99z"/>
			<path class="st7" d="M682.4,104.6V94.1h-3.2v-2.2h3.2V87h2.5v4.9h4.3v2.2h-4.3v10.4c0,1.5,0.9,2.4,2.8,2.4c0.5,0,1.2,0,1.5-0.1
				v2.1c-0.5,0.2-1.5,0.3-2,0.3C683.5,109.1,682.4,107.1,682.4,104.6z"/>
			<path class="st7" d="M694.7,83.9c1.1,0,1.9,0.8,1.9,1.9c0,1-0.8,1.9-1.9,1.9c-1,0-1.9-0.8-1.9-1.9
				C692.8,84.7,693.7,83.9,694.7,83.9z M696,91.9V109h-2.5V91.9H696z"/>
			<path class="st7" d="M714,99c0-3-1.6-5.2-4.7-5.2c-3,0-5.1,2.4-5.1,5.4v9.8h-2.5V91.9h2.5V95c1.3-2.3,3.4-3.5,5.9-3.5
				c4.2,0,6.5,2.9,6.5,6.9V109H714V99z"/>
			<path class="st7" d="M724.2,101.9c0,3,1.6,5.2,4.7,5.2c3,0,5.1-2.3,5.1-5.4v-9.8h2.5V109H734v-3.1c-1.3,2.3-3.4,3.5-5.9,3.5
				c-4.2,0-6.5-2.9-6.5-6.9V91.9h2.5V101.9z"/>
			<path class="st7" d="M743.4,83.9c1.1,0,1.9,0.8,1.9,1.9c0,1-0.8,1.9-1.9,1.9c-1,0-1.9-0.8-1.9-1.9
				C741.5,84.7,742.4,83.9,743.4,83.9z M744.7,91.9V109h-2.5V91.9H744.7z"/>
			<path class="st7" d="M751.5,104.6V94.1h-3.2v-2.2h3.2V87h2.5v4.9h4.3v2.2h-4.3v10.4c0,1.5,0.9,2.4,2.8,2.4c0.5,0,1.2,0,1.5-0.1
				v2.1c-0.5,0.2-1.5,0.3-2,0.3C752.6,109.1,751.5,107.1,751.5,104.6z"/>
			<path class="st7" d="M768.2,107.9l-7.8-16h2.9l6.3,13.2l5.9-13.2h2.7l-11.7,25.6h-2.7L768.2,107.9z"/>
			<path class="st7" d="M175.2,133.8c1.3-2.7,3.6-3.7,5.5-3.7c0.2,0,0.6,0,0.8,0v2.7c-0.3,0-0.6-0.1-1-0.1c-4,0-5.4,3.3-5.4,6.4v8.4
				h-2.5v-17.1h2.5V133.8z"/>
			<path class="st7" d="M186.2,122.4c1.1,0,1.9,0.8,1.9,1.9c0,1-0.8,1.9-1.9,1.9c-1,0-1.9-0.8-1.9-1.9
				C184.3,123.2,185.2,122.4,186.2,122.4z M187.5,130.4v17.1h-2.5v-17.1H187.5z"/>
			<path class="st7" d="M198.3,147.8c-4.7,0-6.2-3.1-6.5-5.1l2.3-0.5c0.4,1.5,1.5,3.4,4.2,3.4c1.9,0,3.6-1,3.6-2.8
				c0-2.1-2.2-2.6-4-2.8c-2.9-0.4-5.6-1.4-5.6-4.8c0-3.2,2.9-5.1,5.7-5.1c4.5,0,6,3,6.2,4.7l-2.3,0.5c-0.3-1.2-1.2-3-3.9-3
				c-1.9,0-3.2,1.3-3.2,2.7c0,2.1,2.3,2.5,4.1,2.7c2.8,0.4,5.6,1.8,5.6,4.9C204.4,145.8,201.7,147.8,198.3,147.8z"/>
			<path class="st7" d="M211.4,147.5h-2.5v-26.1h2.5v16l8.1-7h3.6l-9,7.7l9.4,9.4H220l-8.5-8.6h-0.1V147.5z"/>
			<path class="st7" d="M231.1,147.8c-4.7,0-6.2-3.1-6.5-5.1l2.3-0.5c0.4,1.5,1.5,3.4,4.2,3.4c1.9,0,3.6-1,3.6-2.8
				c0-2.1-2.2-2.6-4-2.8c-2.9-0.4-5.6-1.4-5.6-4.8c0-3.2,2.9-5.1,5.7-5.1c4.5,0,6,3,6.2,4.7l-2.3,0.5c-0.3-1.2-1.2-3-3.9-3
				c-1.9,0-3.2,1.3-3.2,2.7c0,2.1,2.3,2.5,4.1,2.7c2.8,0.4,5.6,1.8,5.6,4.9C237.2,145.8,234.4,147.8,231.1,147.8z"/>
			<path class="st7" d="M251.7,143.1v-10.5h-3.2v-2.2h3.2v-4.9h2.5v4.9h4.3v2.2h-4.3V143c0,1.5,0.9,2.4,2.8,2.4c0.5,0,1.2,0,1.5-0.1
				v2.1c-0.5,0.2-1.5,0.3-2,0.3C252.8,147.6,251.7,145.6,251.7,143.1z"/>
			<path class="st7" d="M261.1,139c0-5.1,3.8-8.9,8.9-8.9c4.9,0,8.8,3.9,8.8,8.8c0,5.1-3.9,8.9-8.9,8.9
				C265,147.8,261.1,143.9,261.1,139z M276.3,139c0-3.6-2.6-6.7-6.3-6.7c-3.7,0-6.3,3-6.3,6.6c0,3.6,2.6,6.7,6.3,6.7
				C273.7,145.6,276.3,142.6,276.3,139z"/>
			<path class="st7" d="M293.4,122.4c1.1,0,1.9,0.8,1.9,1.9c0,1-0.8,1.9-1.9,1.9c-1,0-1.9-0.8-1.9-1.9
				C291.6,123.2,292.4,122.4,293.4,122.4z M294.7,130.4v17.1h-2.5v-17.1H294.7z"/>
			<path class="st7" d="M312.7,137.5c0-3-1.6-5.2-4.7-5.2c-3,0-5.1,2.4-5.1,5.4v9.8h-2.5v-17.1h2.5v3.1c1.3-2.3,3.4-3.5,5.9-3.5
				c4.2,0,6.5,2.9,6.5,6.9v10.6h-2.5V137.5z"/>
			<path class="st7" d="M328.1,145.6c3.8,0,5.2-2.8,5.7-4.1l2.3,0.8c-0.8,2.6-3.6,5.5-8.1,5.5c-4.9,0-8.7-3.7-8.7-8.8
				c0-5.2,4-8.9,8.9-8.9c4,0,7.2,2.6,7.9,5.5l-2.3,0.7c-0.4-1.3-2.1-4-5.6-4c-3.7,0-6.2,3-6.2,6.5
				C321.9,142.4,324.3,145.6,328.1,145.6z"/>
			<path class="st7" d="M342.9,121.4v26.1h-2.5v-26.1H342.9z"/>
			<path class="st7" d="M350.8,140.3c0,3,1.6,5.2,4.7,5.2c3,0,5.1-2.3,5.1-5.4v-9.8h2.5v17.1h-2.4v-3.1c-1.3,2.3-3.4,3.5-5.9,3.5
				c-4.2,0-6.5-2.9-6.5-6.9v-10.6h2.5V140.3z"/>
			<path class="st7" d="M375.6,130.1c3.3,0,5.3,1.9,6.6,3.9v-12.6h2.5v26.1h-2.4v-3.7c-1.3,2.2-3.4,3.9-6.7,3.9c-4.9,0-8-4.2-8-8.9
				C367.6,134.4,370.8,130.1,375.6,130.1z M382.3,138.9c0-3.4-2.6-6.6-6.2-6.6c-3.8,0-6,3-6,6.7c0,3.5,2.2,6.6,6,6.6
				C379.7,145.5,382.3,142.4,382.3,138.9z"/>
			<path class="st7" d="M391.7,139.7c0.2,3.3,2.8,5.9,6.1,5.9c2.5,0,4.5-1.3,5.3-3.7l2.2,0.7c-1,3.3-4.1,5.2-7.5,5.2
				c-5,0-8.7-3.9-8.7-8.9c0-4.7,3.5-8.8,8.3-8.8c5.3,0,8.1,3.8,8.1,8.8c0,0.3,0,0.6,0,0.8H391.7z M403,137.6
				c-0.3-3.1-2.3-5.3-5.5-5.3c-3,0-5.4,2.5-5.8,5.3H403z"/>
			<path class="st7" d="M426.3,145.6c3.8,0,5.2-2.8,5.7-4.1l2.3,0.8c-0.8,2.6-3.6,5.5-8.1,5.5c-4.9,0-8.7-3.7-8.7-8.8
				c0-5.2,4-8.9,8.9-8.9c4,0,7.2,2.6,7.9,5.5l-2.3,0.7c-0.4-1.3-2.1-4-5.6-4c-3.7,0-6.2,3-6.2,6.5
				C420.1,142.4,422.4,145.6,426.3,145.6z"/>
			<path class="st7" d="M441,121.4v26.1h-2.5v-26.1H441z"/>
			<path class="st7" d="M445.4,139c0-5.1,3.8-8.9,8.9-8.9c4.9,0,8.8,3.9,8.8,8.8c0,5.1-3.9,8.9-8.9,8.9
				C449.3,147.8,445.4,143.9,445.4,139z M460.6,139c0-3.6-2.6-6.7-6.3-6.7c-3.7,0-6.3,3-6.3,6.6c0,3.6,2.6,6.7,6.3,6.7
				C458,145.6,460.6,142.6,460.6,139z"/>
			<path class="st7" d="M469.8,140.3c0,3,1.6,5.2,4.7,5.2c3,0,5.1-2.3,5.1-5.4v-9.8h2.5v17.1h-2.4v-3.1c-1.3,2.3-3.4,3.5-5.9,3.5
				c-4.2,0-6.5-2.9-6.5-6.9v-10.6h2.5V140.3z"/>
			<path class="st7" d="M494.6,130.1c3.3,0,5.3,1.9,6.6,3.9v-12.6h2.5v26.1h-2.4v-3.7c-1.3,2.2-3.4,3.9-6.7,3.9c-4.9,0-8-4.2-8-8.9
				C486.6,134.4,489.8,130.1,494.6,130.1z M501.3,138.9c0-3.4-2.6-6.6-6.2-6.6c-3.8,0-6,3-6,6.7c0,3.5,2.2,6.6,6,6.6
				C498.7,145.5,501.3,142.4,501.3,138.9z"/>
			<path class="st7" d="M523.6,147.8c-4.7,0-6.2-3.1-6.5-5.1l2.3-0.5c0.4,1.5,1.5,3.4,4.2,3.4c1.9,0,3.6-1,3.6-2.8
				c0-2.1-2.2-2.6-4-2.8c-2.9-0.4-5.6-1.4-5.6-4.8c0-3.2,2.9-5.1,5.7-5.1c4.5,0,6,3,6.2,4.7l-2.3,0.5c-0.3-1.2-1.2-3-3.9-3
				c-1.9,0-3.2,1.3-3.2,2.7c0,2.1,2.3,2.5,4.1,2.7c2.8,0.4,5.6,1.8,5.6,4.9C529.6,145.8,526.9,147.8,523.6,147.8z"/>
			<path class="st7" d="M535.4,139.7c0.2,3.3,2.8,5.9,6.1,5.9c2.5,0,4.5-1.3,5.3-3.7l2.2,0.7c-1,3.3-4.1,5.2-7.5,5.2
				c-5,0-8.7-3.9-8.7-8.9c0-4.7,3.5-8.8,8.3-8.8c5.3,0,8.1,3.8,8.1,8.8c0,0.3,0,0.6,0,0.8H535.4z M546.7,137.6
				c-0.3-3.1-2.3-5.3-5.5-5.3c-3,0-5.4,2.5-5.8,5.3H546.7z"/>
			<path class="st7" d="M556,133.8c1.3-2.7,3.6-3.7,5.5-3.7c0.2,0,0.6,0,0.8,0v2.7c-0.3,0-0.6-0.1-1-0.1c-4,0-5.4,3.3-5.4,6.4v8.4
				h-2.5v-17.1h2.5V133.8z"/>
			<path class="st7" d="M563.6,130.4h2.8l5.9,14.4l6-14.4h2.7l-7.3,17.1h-2.7L563.6,130.4z"/>
			<path class="st7" d="M585.7,122.4c1.1,0,1.9,0.8,1.9,1.9c0,1-0.8,1.9-1.9,1.9c-1,0-1.9-0.8-1.9-1.9
				C583.9,123.2,584.7,122.4,585.7,122.4z M587,130.4v17.1h-2.5v-17.1H587z"/>
			<path class="st7" d="M600.1,145.6c3.8,0,5.2-2.8,5.7-4.1l2.3,0.8c-0.8,2.6-3.6,5.5-8.1,5.5c-4.9,0-8.7-3.7-8.7-8.8
				c0-5.2,4-8.9,8.9-8.9c4,0,7.2,2.6,7.9,5.5l-2.3,0.7c-0.4-1.3-2.1-4-5.6-4c-3.7,0-6.2,3-6.2,6.5
				C594,142.4,596.3,145.6,600.1,145.6z"/>
			<path class="st7" d="M613.6,139.7c0.2,3.3,2.8,5.9,6.1,5.9c2.5,0,4.5-1.3,5.3-3.7l2.2,0.7c-1,3.3-4.1,5.2-7.5,5.2
				c-5,0-8.7-3.9-8.7-8.9c0-4.7,3.5-8.8,8.3-8.8c5.3,0,8.1,3.8,8.1,8.8c0,0.3,0,0.6,0,0.8H613.6z M625,137.6
				c-0.3-3.1-2.3-5.3-5.5-5.3c-3,0-5.4,2.5-5.8,5.3H625z"/>
			<path class="st7" d="M637.1,147.8c-4.7,0-6.2-3.1-6.5-5.1l2.3-0.5c0.4,1.5,1.5,3.4,4.2,3.4c1.9,0,3.6-1,3.6-2.8
				c0-2.1-2.2-2.6-4-2.8c-2.9-0.4-5.6-1.4-5.6-4.8c0-3.2,2.9-5.1,5.7-5.1c4.5,0,6,3,6.2,4.7l-2.3,0.5c-0.3-1.2-1.2-3-3.9-3
				c-1.9,0-3.2,1.3-3.2,2.7c0,2.1,2.3,2.5,4.1,2.7c2.8,0.4,5.6,1.8,5.6,4.9C643.1,145.8,640.4,147.8,637.1,147.8z"/>
			<path class="st7" d="M651.8,140.2c0-0.2,0-0.4,0-0.6c0-3,1.8-4.4,3.2-5.9c1.4-1.5,3.2-2.9,3.2-5.1c0-2.1-1.4-4.1-4.7-4.1
				c-3.2,0-5,2.4-4.8,5.5l-2.6-0.1c0-0.3,0-0.5,0-0.7c0-4.1,3.4-7.1,7.4-7.1c4.5,0,7.4,3.1,7.4,6.6c0,2.5-1.5,4.1-3.8,6.3
				c-1.6,1.6-2.8,2.7-2.9,5.2H651.8z M652.9,147.8c1.1,0,1.9-0.8,1.9-1.9c0-1-0.8-1.9-1.9-1.9c-1,0-1.9,0.8-1.9,1.9
				C651,147,651.9,147.8,652.9,147.8z"/>
		</g>
	</g>
</g>
</svg>
