<?xml version="1.0" encoding="utf-8"?>
<!-- Generator: Adobe Illustrator 21.1.0, SVG Export Plug-In . SVG Version: 6.00 Build 0)  -->
<svg version="1.1" id="graphThreeBCP" xmlns="http://www.w3.org/2000/svg" xmlns:xlink="http://www.w3.org/1999/xlink" x="0px"
	 y="0px" viewBox="0 0 1500 1053" style="enable-background:new 0 0 1500 1053;" xml:space="preserve">
<style type="text/css">
	.st0{fill:none;}
	.st1{fill:none;stroke:#F76C6C;stroke-width:2;stroke-linecap:round;stroke-miterlimit:10;}
	.st2{fill:none;stroke:#F76C6C;stroke-width:2;stroke-linecap:round;stroke-miterlimit:10;stroke-dasharray:0,10;}
	.st3{opacity:0.9;}
	.st4{fill:#F6F6F8;}
	.st5{fill:url(#SVGID_1_);}
	.st6{fill:#F76C6C;}
	.st7{fill:#FFFFFF;}
	.st8{fill:#0000FF;}
	.st9{fill:none;stroke:#F6F6F8;stroke-miterlimit:10;}
</style>
<pattern  y="1053" width="240" height="240" patternUnits="userSpaceOnUse" id="red" viewBox="1 -241 240 240" style="overflow:visible;">
	<g>
		<rect x="1" y="-241" class="st0" width="240" height="240"/>
		<g>
			<g>
				<line class="st1" x1="241" y1="-1" x2="241" y2="-1"/>
			</g>
		</g>
		<g>
			<g>
				<line class="st1" x1="1" y1="-1" x2="1" y2="-1"/>
				<line class="st2" x1="11" y1="-1" x2="236" y2="-1"/>
				<line class="st1" x1="241" y1="-1" x2="241" y2="-1"/>
			</g>
		</g>
		<g>
			<g>
				<line class="st1" x1="1" y1="-1" x2="1" y2="-1"/>
			</g>
		</g>
		<g>
			<g>
				<line class="st1" x1="241" y1="-241" x2="241" y2="-241"/>
			</g>
			<g>
				<line class="st1" x1="241" y1="-231" x2="241" y2="-231"/>
			</g>
			<g>
				<line class="st1" x1="241" y1="-221" x2="241" y2="-221"/>
			</g>
			<g>
				<line class="st1" x1="241" y1="-211" x2="241" y2="-211"/>
			</g>
			<g>
				<line class="st1" x1="241" y1="-201" x2="241" y2="-201"/>
			</g>
			<g>
				<line class="st1" x1="241" y1="-191" x2="241" y2="-191"/>
			</g>
			<g>
				<line class="st1" x1="241" y1="-181" x2="241" y2="-181"/>
			</g>
			<g>
				<line class="st1" x1="241" y1="-171" x2="241" y2="-171"/>
			</g>
			<g>
				<line class="st1" x1="241" y1="-161" x2="241" y2="-161"/>
			</g>
			<g>
				<line class="st1" x1="241" y1="-151" x2="241" y2="-151"/>
			</g>
			<g>
				<line class="st1" x1="241" y1="-141" x2="241" y2="-141"/>
			</g>
			<g>
				<line class="st1" x1="241" y1="-131" x2="241" y2="-131"/>
			</g>
			<g>
				<line class="st1" x1="241" y1="-121" x2="241" y2="-121"/>
			</g>
			<g>
				<line class="st1" x1="241" y1="-111" x2="241" y2="-111"/>
			</g>
			<g>
				<line class="st1" x1="241" y1="-101" x2="241" y2="-101"/>
			</g>
			<g>
				<line class="st1" x1="241" y1="-91" x2="241" y2="-91"/>
			</g>
			<g>
				<line class="st1" x1="241" y1="-81" x2="241" y2="-81"/>
			</g>
			<g>
				<line class="st1" x1="241" y1="-71" x2="241" y2="-71"/>
			</g>
			<g>
				<line class="st1" x1="241" y1="-61" x2="241" y2="-61"/>
			</g>
			<g>
				<line class="st1" x1="241" y1="-51" x2="241" y2="-51"/>
			</g>
			<g>
				<line class="st1" x1="241" y1="-41" x2="241" y2="-41"/>
			</g>
			<g>
				<line class="st1" x1="241" y1="-31" x2="241" y2="-31"/>
			</g>
			<g>
				<line class="st1" x1="241" y1="-21" x2="241" y2="-21"/>
			</g>
			<g>
				<line class="st1" x1="241" y1="-11" x2="241" y2="-11"/>
			</g>
			<g>
				<line class="st1" x1="241" y1="-1" x2="241" y2="-1"/>
			</g>
		</g>
		<g>
			<g>
				<line class="st1" x1="1" y1="-241" x2="1" y2="-241"/>
				<line class="st2" x1="11" y1="-241" x2="236" y2="-241"/>
				<line class="st1" x1="241" y1="-241" x2="241" y2="-241"/>
			</g>
			<g>
				<line class="st1" x1="1" y1="-231" x2="1" y2="-231"/>
				<line class="st2" x1="11" y1="-231" x2="236" y2="-231"/>
				<line class="st1" x1="241" y1="-231" x2="241" y2="-231"/>
			</g>
			<g>
				<line class="st1" x1="1" y1="-221" x2="1" y2="-221"/>
				<line class="st2" x1="11" y1="-221" x2="236" y2="-221"/>
				<line class="st1" x1="241" y1="-221" x2="241" y2="-221"/>
			</g>
			<g>
				<line class="st1" x1="1" y1="-211" x2="1" y2="-211"/>
				<line class="st2" x1="11" y1="-211" x2="236" y2="-211"/>
				<line class="st1" x1="241" y1="-211" x2="241" y2="-211"/>
			</g>
			<g>
				<line class="st1" x1="1" y1="-201" x2="1" y2="-201"/>
				<line class="st2" x1="11" y1="-201" x2="236" y2="-201"/>
				<line class="st1" x1="241" y1="-201" x2="241" y2="-201"/>
			</g>
			<g>
				<line class="st1" x1="1" y1="-191" x2="1" y2="-191"/>
				<line class="st2" x1="11" y1="-191" x2="236" y2="-191"/>
				<line class="st1" x1="241" y1="-191" x2="241" y2="-191"/>
			</g>
			<g>
				<line class="st1" x1="1" y1="-181" x2="1" y2="-181"/>
				<line class="st2" x1="11" y1="-181" x2="236" y2="-181"/>
				<line class="st1" x1="241" y1="-181" x2="241" y2="-181"/>
			</g>
			<g>
				<line class="st1" x1="1" y1="-171" x2="1" y2="-171"/>
				<line class="st2" x1="11" y1="-171" x2="236" y2="-171"/>
				<line class="st1" x1="241" y1="-171" x2="241" y2="-171"/>
			</g>
			<g>
				<line class="st1" x1="1" y1="-161" x2="1" y2="-161"/>
				<line class="st2" x1="11" y1="-161" x2="236" y2="-161"/>
				<line class="st1" x1="241" y1="-161" x2="241" y2="-161"/>
			</g>
			<g>
				<line class="st1" x1="1" y1="-151" x2="1" y2="-151"/>
				<line class="st2" x1="11" y1="-151" x2="236" y2="-151"/>
				<line class="st1" x1="241" y1="-151" x2="241" y2="-151"/>
			</g>
			<g>
				<line class="st1" x1="1" y1="-141" x2="1" y2="-141"/>
				<line class="st2" x1="11" y1="-141" x2="236" y2="-141"/>
				<line class="st1" x1="241" y1="-141" x2="241" y2="-141"/>
			</g>
			<g>
				<line class="st1" x1="1" y1="-131" x2="1" y2="-131"/>
				<line class="st2" x1="11" y1="-131" x2="236" y2="-131"/>
				<line class="st1" x1="241" y1="-131" x2="241" y2="-131"/>
			</g>
			<g>
				<line class="st1" x1="1" y1="-121" x2="1" y2="-121"/>
				<line class="st2" x1="11" y1="-121" x2="236" y2="-121"/>
				<line class="st1" x1="241" y1="-121" x2="241" y2="-121"/>
			</g>
			<g>
				<line class="st1" x1="1" y1="-111" x2="1" y2="-111"/>
				<line class="st2" x1="11" y1="-111" x2="236" y2="-111"/>
				<line class="st1" x1="241" y1="-111" x2="241" y2="-111"/>
			</g>
			<g>
				<line class="st1" x1="1" y1="-101" x2="1" y2="-101"/>
				<line class="st2" x1="11" y1="-101" x2="236" y2="-101"/>
				<line class="st1" x1="241" y1="-101" x2="241" y2="-101"/>
			</g>
			<g>
				<line class="st1" x1="1" y1="-91" x2="1" y2="-91"/>
				<line class="st2" x1="11" y1="-91" x2="236" y2="-91"/>
				<line class="st1" x1="241" y1="-91" x2="241" y2="-91"/>
			</g>
			<g>
				<line class="st1" x1="1" y1="-81" x2="1" y2="-81"/>
				<line class="st2" x1="11" y1="-81" x2="236" y2="-81"/>
				<line class="st1" x1="241" y1="-81" x2="241" y2="-81"/>
			</g>
			<g>
				<line class="st1" x1="1" y1="-71" x2="1" y2="-71"/>
				<line class="st2" x1="11" y1="-71" x2="236" y2="-71"/>
				<line class="st1" x1="241" y1="-71" x2="241" y2="-71"/>
			</g>
			<g>
				<line class="st1" x1="1" y1="-61" x2="1" y2="-61"/>
				<line class="st2" x1="11" y1="-61" x2="236" y2="-61"/>
				<line class="st1" x1="241" y1="-61" x2="241" y2="-61"/>
			</g>
			<g>
				<line class="st1" x1="1" y1="-51" x2="1" y2="-51"/>
				<line class="st2" x1="11" y1="-51" x2="236" y2="-51"/>
				<line class="st1" x1="241" y1="-51" x2="241" y2="-51"/>
			</g>
			<g>
				<line class="st1" x1="1" y1="-41" x2="1" y2="-41"/>
				<line class="st2" x1="11" y1="-41" x2="236" y2="-41"/>
				<line class="st1" x1="241" y1="-41" x2="241" y2="-41"/>
			</g>
			<g>
				<line class="st1" x1="1" y1="-31" x2="1" y2="-31"/>
				<line class="st2" x1="11" y1="-31" x2="236" y2="-31"/>
				<line class="st1" x1="241" y1="-31" x2="241" y2="-31"/>
			</g>
			<g>
				<line class="st1" x1="1" y1="-21" x2="1" y2="-21"/>
				<line class="st2" x1="11" y1="-21" x2="236" y2="-21"/>
				<line class="st1" x1="241" y1="-21" x2="241" y2="-21"/>
			</g>
			<g>
				<line class="st1" x1="1" y1="-11" x2="1" y2="-11"/>
				<line class="st2" x1="11" y1="-11" x2="236" y2="-11"/>
				<line class="st1" x1="241" y1="-11" x2="241" y2="-11"/>
			</g>
			<g>
				<line class="st1" x1="1" y1="-1" x2="1" y2="-1"/>
				<line class="st2" x1="11" y1="-1" x2="236" y2="-1"/>
				<line class="st1" x1="241" y1="-1" x2="241" y2="-1"/>
			</g>
		</g>
		<g>
			<g>
				<line class="st1" x1="1" y1="-241" x2="1" y2="-241"/>
			</g>
			<g>
				<line class="st1" x1="1" y1="-231" x2="1" y2="-231"/>
			</g>
			<g>
				<line class="st1" x1="1" y1="-221" x2="1" y2="-221"/>
			</g>
			<g>
				<line class="st1" x1="1" y1="-211" x2="1" y2="-211"/>
			</g>
			<g>
				<line class="st1" x1="1" y1="-201" x2="1" y2="-201"/>
			</g>
			<g>
				<line class="st1" x1="1" y1="-191" x2="1" y2="-191"/>
			</g>
			<g>
				<line class="st1" x1="1" y1="-181" x2="1" y2="-181"/>
			</g>
			<g>
				<line class="st1" x1="1" y1="-171" x2="1" y2="-171"/>
			</g>
			<g>
				<line class="st1" x1="1" y1="-161" x2="1" y2="-161"/>
			</g>
			<g>
				<line class="st1" x1="1" y1="-151" x2="1" y2="-151"/>
			</g>
			<g>
				<line class="st1" x1="1" y1="-141" x2="1" y2="-141"/>
			</g>
			<g>
				<line class="st1" x1="1" y1="-131" x2="1" y2="-131"/>
			</g>
			<g>
				<line class="st1" x1="1" y1="-121" x2="1" y2="-121"/>
			</g>
			<g>
				<line class="st1" x1="1" y1="-111" x2="1" y2="-111"/>
			</g>
			<g>
				<line class="st1" x1="1" y1="-101" x2="1" y2="-101"/>
			</g>
			<g>
				<line class="st1" x1="1" y1="-91" x2="1" y2="-91"/>
			</g>
			<g>
				<line class="st1" x1="1" y1="-81" x2="1" y2="-81"/>
			</g>
			<g>
				<line class="st1" x1="1" y1="-71" x2="1" y2="-71"/>
			</g>
			<g>
				<line class="st1" x1="1" y1="-61" x2="1" y2="-61"/>
			</g>
			<g>
				<line class="st1" x1="1" y1="-51" x2="1" y2="-51"/>
			</g>
			<g>
				<line class="st1" x1="1" y1="-41" x2="1" y2="-41"/>
			</g>
			<g>
				<line class="st1" x1="1" y1="-31" x2="1" y2="-31"/>
			</g>
			<g>
				<line class="st1" x1="1" y1="-21" x2="1" y2="-21"/>
			</g>
			<g>
				<line class="st1" x1="1" y1="-11" x2="1" y2="-11"/>
			</g>
			<g>
				<line class="st1" x1="1" y1="-1" x2="1" y2="-1"/>
			</g>
		</g>
		<g>
			<g>
				<line class="st1" x1="241" y1="-241" x2="241" y2="-241"/>
			</g>
		</g>
		<g>
			<g>
				<line class="st1" x1="1" y1="-241" x2="1" y2="-241"/>
				<line class="st2" x1="11" y1="-241" x2="236" y2="-241"/>
				<line class="st1" x1="241" y1="-241" x2="241" y2="-241"/>
			</g>
		</g>
		<g>
			<g>
				<line class="st1" x1="1" y1="-241" x2="1" y2="-241"/>
			</g>
		</g>
	</g>
</pattern>
<g>
	<g class="st3">
		<circle class="st4" cx="536.7" cy="510.3" r="234.2"/>
	</g>
	<pattern  id="SVGID_1_" xlink:href="#red" patternTransform="matrix(1.5124 0 0 1.5124 1821.7513 4751.4102)">
	</pattern>
	<circle class="st5" cx="536.7" cy="510.3" r="234.2"/>
	<g>
		<circle class="st6" cx="931.4" cy="510.3" r="266.2"/>
	</g>
	<g>
		<path class="st7" d="M889.9,486.6l-2.7,16.1c3-3,8-3.7,10.3-3.7c8.9,0,15.5,5.9,15.5,15.3c0,10.3-8.5,15.5-16.6,15.5
			c-7.9,0-15.2-5-16.2-12.9l4.8-1c0.8,5.4,5.4,9.4,11.5,9.4c4.7,0,11.4-3.1,11.4-10.8c0-7.7-5.7-11-11.4-11c-3.4,0-7.5,1.8-10,4.8
			l-4.6-1.8l4.1-24.4h24.9v4.7H889.9z"/>
		<path class="st7" d="M928.3,486.6l-2.7,16.1c3-3,8-3.7,10.3-3.7c8.9,0,15.5,5.9,15.5,15.3c0,10.3-8.5,15.5-16.6,15.5
			c-7.9,0-15.2-5-16.2-12.9l4.8-1c0.8,5.4,5.4,9.4,11.5,9.4c4.7,0,11.4-3.1,11.4-10.8c0-7.7-5.7-11-11.4-11c-3.4,0-7.5,1.8-10,4.8
			l-4.6-1.8l4.1-24.4h24.9v4.7H928.3z"/>
		<path class="st7" d="M962.1,512.8c-3.4,0-6.2-2.8-6.2-6.2c0-3.5,2.8-6.2,6.2-6.2c3.5,0,6.2,2.8,6.2,6.2
			C968.4,510,965.6,512.8,962.1,512.8z M962.1,502.7c-2.2,0-3.9,1.7-3.9,3.9c0,2.2,1.8,3.9,3.9,3.9c2.2,0,3.9-1.7,3.9-3.9
			C966.1,504.4,964.3,502.7,962.1,502.7z M977.4,500.7h2.8l-18,27.6h-2.8L977.4,500.7z M977.4,528.5c-3.5,0-6.2-2.8-6.2-6.2
			c0-3.5,2.8-6.2,6.2-6.2s6.2,2.8,6.2,6.2C983.7,525.7,980.9,528.5,977.4,528.5z M977.4,518.4c-2.2,0-3.9,1.7-3.9,3.9
			c0,2.2,1.7,3.9,3.9,3.9s3.9-1.7,3.9-3.9C981.4,520.1,979.6,518.4,977.4,518.4z"/>
	</g>
	<g>
		<path class="st8" d="M507.7,529.3v-11.4H483v-5.4l23.2-30.5h6.2v31.7h7.9v4.3h-7.9v11.4H507.7z M507.7,513.6v-26.6l-20.2,26.6
			H507.7z"/>
		<path class="st8" d="M541.7,529.7c-8.3,0-15.4-5-16.3-12.9l4.8-1c0.8,5.4,5,9.4,11.6,9.4c6.4,0,11.4-3.5,11.4-8.9
			c0-5.4-4.1-8.8-11.4-8.8h-4.7v-4.6h4.6c6.5,0,10.5-4,10.5-8.5c0-4.8-3.6-8.4-10.5-8.4c-6.5,0-10.2,3.9-11.1,8.9l-4.8-1
			c0.8-6.6,7.1-12.4,15.8-12.4c10.3,0,15.4,6.3,15.4,12.5c0,5.4-3,8.8-7.6,10.9v0.1c5.4,1.5,8.6,5.7,8.6,11.3
			C558,523.6,551.6,529.7,541.7,529.7z"/>
		<path class="st8" d="M569.2,512.8c-3.4,0-6.2-2.8-6.2-6.2c0-3.5,2.8-6.2,6.2-6.2c3.5,0,6.2,2.8,6.2,6.2
			C575.4,510,572.7,512.8,569.2,512.8z M569.2,502.7c-2.2,0-3.9,1.7-3.9,3.9c0,2.2,1.8,3.9,3.9,3.9s3.9-1.7,3.9-3.9
			C573.1,504.4,571.4,502.7,569.2,502.7z M584.4,500.7h2.8l-18,27.6h-2.8L584.4,500.7z M584.5,528.5c-3.5,0-6.2-2.8-6.2-6.2
			c0-3.5,2.8-6.2,6.2-6.2c3.5,0,6.2,2.8,6.2,6.2C590.7,525.7,588,528.5,584.5,528.5z M584.5,518.4c-2.2,0-3.9,1.7-3.9,3.9
			c0,2.2,1.7,3.9,3.9,3.9s3.9-1.7,3.9-3.9C588.4,520.1,586.7,518.4,584.5,518.4z"/>
	</g>
	<g>
		<path class="st4" d="M319.3,99.1c0-1.6,0.8-3.4,3.3-5l2.2-1.3c1.4-0.8,2.5-1.7,2.5-3.4c0-1.5-1.3-2.8-3.1-2.8
			c-1.6,0-2.5,0.9-2.9,1.8c-0.3,0.6-0.3,1.2-0.3,1.4l-1.5-0.2c0-2,1.7-4.4,4.7-4.4c2.6,0,4.6,2,4.6,4.2c0,2-1.1,3.2-3,4.4l-2.2,1.4
			c-1.2,0.8-2.4,1.8-2.4,3h7.8v1.4h-9.6V99.1z"/>
		<path class="st4" d="M331.6,92.5c0-3.5,2-7.3,5.9-7.3c3.9,0,5.9,3.7,5.9,7.2c0,3.5-2,7.3-5.9,7.3C333.6,99.7,331.6,96,331.6,92.5z
			 M333.2,92.4c0,2.6,1.3,5.9,4.4,5.9c3.1,0,4.4-3.3,4.4-5.8c0-2.5-1.3-5.9-4.4-5.9C334.4,86.6,333.2,89.9,333.2,92.4z"/>
		<path class="st4" d="M349.7,86.9l-3.4,2l-0.7-1.1l4.1-2.5h1.5v14.2h-1.5V86.9z"/>
		<path class="st4" d="M356.2,92.4c0.9-1.5,2.7-2,3.9-2c3,0,4.8,2.1,4.8,4.5c0,3.2-2.6,4.8-5,4.8c-1.6,0-3.4-0.9-4.2-2.4
			c-0.7-1.2-0.9-2.2-0.9-3.9c0-4.5,2.4-8.2,6.9-8.2c0.8,0,2,0.1,2.9,0.7l-0.5,1.3c-0.7-0.5-1.8-0.6-2.4-0.6
			C358.4,86.6,356.5,89.2,356.2,92.4z M357.5,92.5c-0.7,0.6-1.1,1.5-1.1,2.5c0,2.1,1.8,3.4,3.5,3.4c1.8,0,3.5-1.2,3.5-3.4
			c0-1.7-1.3-3.3-3.5-3.3C359.1,91.6,358.2,91.9,357.5,92.5z"/>
	</g>
	<g>
		<g>
			<path class="st9" d="M536.7,253.7c0-87.3-69.4-158.5-156.1-161.2"/>
			<g>
				<polygon class="st4" points="381.3,98.6 381.6,86.5 375.4,92.4 				"/>
			</g>
		</g>
	</g>
	<g>
		<path class="st4" d="M1106.2,967.2c0-1.6,0.8-3.4,3.3-5l2.2-1.3c1.4-0.8,2.5-1.7,2.5-3.4c0-1.5-1.3-2.8-3.1-2.8
			c-1.6,0-2.5,0.9-2.9,1.8c-0.3,0.6-0.3,1.2-0.3,1.4l-1.5-0.2c0-2,1.7-4.4,4.7-4.4c2.6,0,4.6,2,4.6,4.2c0,2-1.1,3.2-3,4.4l-2.2,1.4
			c-1.2,0.8-2.4,1.8-2.4,3h7.8v1.4h-9.6V967.2z"/>
		<path class="st4" d="M1118.1,960.6c0-3.5,2-7.3,5.9-7.3c3.9,0,5.9,3.7,5.9,7.2c0,3.5-2,7.3-5.9,7.3
			C1120.1,967.8,1118.1,964.1,1118.1,960.6z M1119.7,960.6c0,2.6,1.3,5.9,4.4,5.9c3.1,0,4.4-3.3,4.4-5.8c0-2.5-1.3-5.9-4.4-5.9
			S1119.7,958,1119.7,960.6z"/>
		<path class="st4" d="M1135.9,955.1l-3.4,2l-0.7-1.1l4.1-2.5h1.5v14.2h-1.5V955.1z"/>
		<path class="st4" d="M1140.8,954.9v-1.4h9.7v1.4l-6.5,12.8h-1.7l6.6-12.8H1140.8z"/>
	</g>
	<g>
		<g>
			<path class="st9" d="M931.4,799.4c0,87.3,69.4,158.5,156.1,161.2"/>
			<g>
				<polygon class="st4" points="1086.8,954.5 1086.5,966.6 1092.7,960.7 				"/>
			</g>
		</g>
	</g>
	<g>
		<path class="st4" d="M303.6,909.8c0-1.9,0.9-4,3.8-5.8l2.5-1.6c1.6-1,2.9-2,2.9-3.9c0-1.7-1.5-3.3-3.6-3.3c-1.8,0-3,1.1-3.4,2.1
			c-0.3,0.7-0.3,1.4-0.3,1.6l-1.7-0.3c0-2.3,2-5.1,5.5-5.1c3.1,0,5.4,2.3,5.4,4.9c0,2.3-1.3,3.7-3.5,5.1l-2.6,1.6
			c-1.4,0.9-2.8,2.1-2.9,3.5h9.1v1.6h-11.2V909.8z"/>
		<path class="st4" d="M328.7,910.9h-5.8v11.5h-3v-28.4h9.8c6.9,0,10,3.8,10,8.3c0,4.9-3.6,7.6-7.8,8.1l8.8,12h-3.6L328.7,910.9z
			 M329.5,908.1c5.2,0,7.2-2.9,7.2-5.8c0-2.8-1.7-5.6-7.2-5.6h-6.7v11.4H329.5z"/>
		<path class="st4" d="M346.2,913.5c0.2,3.8,3.2,6.6,6.9,6.6c2.9,0,5.1-1.4,6-4.1l2.5,0.8c-1.2,3.7-4.6,5.8-8.5,5.8
			c-5.6,0-9.8-4.5-9.8-10.1c0-5.3,4-10,9.4-10c6,0,9.1,4.3,9.1,9.9c0,0.3,0,0.7,0,0.9H346.2z M359.1,911.1c-0.4-3.5-2.6-6-6.3-6
			c-3.4,0-6.1,2.8-6.5,6H359.1z"/>
		<path class="st4" d="M372.7,922.7c-5.3,0-7-3.6-7.4-5.7l2.6-0.6c0.4,1.7,1.7,3.8,4.7,3.8c2.1,0,4-1.1,4-3.2c0-2.4-2.5-2.9-4.5-3.2
			c-3.2-0.5-6.4-1.6-6.4-5.4c0-3.6,3.3-5.8,6.5-5.8c5.1,0,6.8,3.4,7,5.3l-2.6,0.6c-0.3-1.3-1.4-3.4-4.5-3.4c-2.1,0-3.7,1.4-3.7,3.1
			c0,2.4,2.6,2.8,4.6,3c3.2,0.4,6.4,2.1,6.4,5.6C379.6,920.4,376.5,922.7,372.7,922.7z"/>
		<path class="st4" d="M395,922.7c-3.6,0-5.9-1.8-7.5-4.3v13.5h-2.8V903h2.8v4.2c1.6-2.4,3.8-4.5,7.5-4.5c5.5,0,9.1,4.9,9.1,10
			C404.1,917.9,400.5,922.7,395,922.7z M401.2,912.7c0-4-2.5-7.5-6.8-7.5c-4,0-6.9,3.6-6.9,7.4c0,4,2.8,7.6,6.9,7.6
			C398.7,920.1,401.2,916.8,401.2,912.7z"/>
		<path class="st4" d="M407.7,912.7c0-5.7,4.3-10.1,10.1-10.1c5.6,0,10,4.4,10,9.9c0,5.7-4.4,10.1-10.1,10.1
			C412,922.7,407.7,918.3,407.7,912.7z M424.8,912.7c0-4.1-2.9-7.6-7.2-7.6c-4.2,0-7.1,3.4-7.1,7.5c0,4.1,2.9,7.6,7.2,7.6
			C421.8,920.2,424.8,916.8,424.8,912.7z"/>
		<path class="st4" d="M446.6,911.1c0-3.4-1.8-5.9-5.4-5.9c-3.4,0-5.8,2.7-5.8,6.1v11h-2.8V903h2.8v3.6c1.5-2.6,3.8-3.9,6.7-3.9
			c4.8,0,7.3,3.2,7.3,7.8v12h-2.8V911.1z"/>
		<path class="st4" d="M463.3,902.6c3.7,0,6,2.1,7.5,4.4v-14.2h2.8v29.5h-2.8v-4.1c-1.5,2.5-3.8,4.4-7.5,4.4c-5.6,0-9.1-4.7-9.1-10
			C454.2,907.6,457.8,902.6,463.3,902.6z M470.8,912.6c0-3.8-2.9-7.4-7-7.4c-4.2,0-6.8,3.4-6.8,7.5c0,4,2.5,7.4,6.8,7.4
			C468,920.1,470.8,916.6,470.8,912.6z"/>
		<path class="st4" d="M481.5,913.5c0.2,3.8,3.2,6.6,6.9,6.6c2.9,0,5.1-1.4,6-4.1l2.5,0.8c-1.2,3.7-4.6,5.8-8.5,5.8
			c-5.6,0-9.8-4.5-9.8-10.1c0-5.3,4-10,9.4-10c6,0,9.1,4.3,9.1,9.9c0,0.3,0,0.7,0,0.9H481.5z M494.3,911.1c-0.4-3.5-2.6-6-6.3-6
			c-3.4,0-6.1,2.8-6.5,6H494.3z"/>
		<path class="st4" d="M516,911.1c0-3.4-1.8-5.9-5.4-5.9c-3.4,0-5.8,2.7-5.8,6.1v11h-2.8V903h2.8v3.6c1.5-2.6,3.8-3.9,6.7-3.9
			c4.8,0,7.3,3.2,7.3,7.8v12H516V911.1z"/>
		<path class="st4" d="M526.1,917.4v-11.9h-3.6V903h3.6v-5.6h2.8v5.6h4.9v2.5h-4.9v11.8c0,1.7,1,2.7,3.2,2.7c0.6,0,1.3,0,1.7-0.1
			v2.4c-0.6,0.2-1.7,0.3-2.2,0.3C527.4,922.5,526.1,920.2,526.1,917.4z"/>
		<path class="st4" d="M544.5,922.7c-5.3,0-7-3.6-7.4-5.7l2.6-0.6c0.4,1.7,1.7,3.8,4.7,3.8c2.1,0,4-1.1,4-3.2c0-2.4-2.5-2.9-4.5-3.2
			c-3.2-0.5-6.4-1.6-6.4-5.4c0-3.6,3.3-5.8,6.5-5.8c5.1,0,6.8,3.4,7,5.3l-2.6,0.6c-0.3-1.3-1.4-3.4-4.5-3.4c-2.1,0-3.7,1.4-3.7,3.1
			c0,2.4,2.6,2.8,4.6,3c3.2,0.4,6.4,2.1,6.4,5.6C551.4,920.4,548.3,922.7,544.5,922.7z"/>
		<path class="st4" d="M569.4,906.8c1.5-3,4-4.1,6.2-4.1c0.2,0,0.7,0,0.9,0v3c-0.4,0-0.7-0.1-1.1-0.1c-4.6,0-6.1,3.8-6.1,7.2v9.5
			h-2.8V903h2.8V906.8z"/>
		<path class="st4" d="M581.1,913.5c0.2,3.8,3.2,6.6,6.9,6.6c2.9,0,5.1-1.4,6-4.1l2.5,0.8c-1.2,3.7-4.6,5.8-8.5,5.8
			c-5.6,0-9.8-4.5-9.8-10.1c0-5.3,4-10,9.4-10c6,0,9.1,4.3,9.1,9.9c0,0.3,0,0.7,0,0.9H581.1z M594,911.1c-0.4-3.5-2.6-6-6.3-6
			c-3.4,0-6.1,2.8-6.5,6H594z"/>
		<path class="st4" d="M612,922.7c-3.6,0-5.9-1.8-7.5-4.3v13.5h-2.8V903h2.8v4.2c1.6-2.4,3.8-4.5,7.5-4.5c5.5,0,9.1,4.9,9.1,10
			C621.1,917.9,617.5,922.7,612,922.7z M618.2,912.7c0-4-2.5-7.5-6.8-7.5c-4,0-6.9,3.6-6.9,7.4c0,4,2.8,7.6,6.9,7.6
			C615.7,920.1,618.2,916.8,618.2,912.7z"/>
		<path class="st4" d="M624.7,912.7c0-5.7,4.3-10.1,10.1-10.1c5.6,0,10,4.4,10,9.9c0,5.7-4.4,10.1-10.1,10.1
			C629.1,922.7,624.7,918.3,624.7,912.7z M641.8,912.7c0-4.1-2.9-7.6-7.2-7.6c-4.2,0-7.1,3.4-7.1,7.5c0,4.1,2.9,7.6,7.2,7.6
			C638.9,920.2,641.8,916.8,641.8,912.7z"/>
		<path class="st4" d="M652.5,906.8c1.5-3,4-4.1,6.2-4.1c0.2,0,0.7,0,0.9,0v3c-0.4,0-0.7-0.1-1.1-0.1c-4.6,0-6.1,3.8-6.1,7.2v9.5
			h-2.8V903h2.8V906.8z"/>
		<path class="st4" d="M664.8,917.4v-11.9h-3.6V903h3.6v-5.6h2.8v5.6h4.9v2.5h-4.9v11.8c0,1.7,1,2.7,3.2,2.7c0.6,0,1.3,0,1.7-0.1
			v2.4c-0.6,0.2-1.7,0.3-2.2,0.3C666.1,922.5,664.8,920.2,664.8,917.4z"/>
		<path class="st4" d="M678.7,893.9c1.2,0,2.1,0.9,2.1,2.1c0,1.2-0.9,2.1-2.1,2.1c-1.2,0-2.1-0.9-2.1-2.1
			C676.6,894.8,677.6,893.9,678.7,893.9z M680.2,903v19.4h-2.9V903H680.2z"/>
		<path class="st4" d="M700.5,911.1c0-3.4-1.8-5.9-5.4-5.9c-3.4,0-5.8,2.7-5.8,6.1v11h-2.8V903h2.8v3.6c1.5-2.6,3.8-3.9,6.7-3.9
			c4.8,0,7.3,3.2,7.3,7.8v12h-2.8V911.1z"/>
		<path class="st4" d="M724.7,918c-1.5,2.5-3.8,4.4-7.5,4.4c-5.6,0-9.1-4.6-9.1-9.9c0-5,3.6-9.9,9.1-9.9c3.8,0,6,2.1,7.5,4.4V903
			h2.8v19.5c0,6.2-3.8,9.6-9.7,9.6c-5,0-8.6-2.5-9.6-6.6l2.6-0.9c0.6,2.3,2.5,5,7,5c3.7,0,6.9-2,6.9-7V918z M724.7,912.5
			c0-3.8-2.9-7.4-7-7.4c-4.2,0-6.8,3.3-6.8,7.5c0,4,2.5,7.3,6.8,7.3C721.9,920,724.7,916.5,724.7,912.5z"/>
		<path class="st4" d="M325.9,966.2c-5.3,0-7-3.6-7.4-5.7l2.6-0.6c0.4,1.7,1.7,3.8,4.7,3.8c2.1,0,4-1.1,4-3.2c0-2.4-2.5-2.9-4.5-3.2
			c-3.2-0.5-6.4-1.6-6.4-5.4c0-3.6,3.3-5.8,6.5-5.8c5.1,0,6.8,3.4,7,5.3l-2.6,0.6c-0.3-1.3-1.4-3.4-4.5-3.4c-2.1,0-3.7,1.4-3.7,3.1
			c0,2.4,2.6,2.8,4.6,3c3.2,0.4,6.4,2.1,6.4,5.6C332.8,964,329.6,966.2,325.9,966.2z"/>
		<path class="st4" d="M336.4,956.3c0-5.7,4.3-10.1,10.1-10.1c5.6,0,10,4.4,10,9.9c0,5.7-4.4,10.1-10.1,10.1
			C340.8,966.2,336.4,961.8,336.4,956.3z M353.5,956.3c0-4.1-2.9-7.6-7.2-7.6c-4.2,0-7.1,3.4-7.1,7.5c0,4.1,2.9,7.6,7.2,7.6
			C350.6,963.7,353.5,960.3,353.5,956.3z"/>
		<path class="st4" d="M374.6,954.6c0-3.2-1.5-5.8-5-5.8c-3.4,0-5.4,3-5.4,6.1v11h-2.8v-19.4h2.8v3.4c1.6-2.4,3.3-3.7,6.2-3.7
			c2.8,0,5,1.3,6.2,3.9c1.6-2.5,3.8-3.8,6.8-3.8c4.7,0,7.2,3.2,7.2,7.7v12h-2.8v-11.3c0-3.2-1.5-5.8-5-5.8c-3.4,0-5.4,2.8-5.4,6
			v11.1h-2.8V954.6z"/>
		<path class="st4" d="M398.2,957.1c0.2,3.8,3.2,6.6,6.9,6.6c2.9,0,5.1-1.4,6-4.1l2.5,0.8c-1.2,3.7-4.6,5.8-8.5,5.8
			c-5.6,0-9.8-4.5-9.8-10.1c0-5.3,4-10,9.4-10c6,0,9.1,4.3,9.1,9.9c0,0.3,0,0.7,0,0.9H398.2z M411.1,954.7c-0.4-3.5-2.6-6-6.3-6
			c-3.4,0-6.1,2.8-6.5,6H411.1z"/>
		<path class="st4" d="M433.2,942.9v3.7h5.1v2.5h-5.1v16.9h-2.8V949h-3.7v-2.5h3.7v-3.6c0-4.5,2.5-6.7,6-6.7c0.5,0,1.4,0.1,2.1,0.4
			v2.4c-0.8-0.3-1.6-0.3-2-0.3C435,938.8,433.2,939.6,433.2,942.9z"/>
		<path class="st4" d="M440.2,956.3c0-5.7,4.3-10.1,10.1-10.1c5.6,0,10,4.4,10,9.9c0,5.7-4.4,10.1-10.1,10.1
			C444.5,966.2,440.2,961.8,440.2,956.3z M457.3,956.3c0-4.1-2.9-7.6-7.2-7.6c-4.2,0-7.1,3.4-7.1,7.5c0,4.1,2.9,7.6,7.2,7.6
			C454.4,963.7,457.3,960.3,457.3,956.3z"/>
		<path class="st4" d="M468,950.4c1.5-3,4-4.1,6.2-4.1c0.2,0,0.7,0,0.9,0v3c-0.4,0-0.7-0.1-1.1-0.1c-4.6,0-6.1,3.8-6.1,7.2v9.5h-2.8
			v-19.4h2.8V950.4z"/>
		<path class="st4" d="M492.2,954.6c0-3.2-1.5-5.8-5-5.8c-3.4,0-5.4,3-5.4,6.1v11H479v-19.4h2.8v3.4c1.6-2.4,3.3-3.7,6.2-3.7
			c2.8,0,5,1.3,6.2,3.9c1.6-2.5,3.8-3.8,6.8-3.8c4.7,0,7.2,3.2,7.2,7.7v12h-2.8v-11.3c0-3.2-1.5-5.8-5-5.8c-3.4,0-5.4,2.8-5.4,6
			v11.1h-2.8V954.6z"/>
		<path class="st4" d="M523.1,956.3c0-5.7,4.3-10.1,10.1-10.1c5.6,0,10,4.4,10,9.9c0,5.7-4.4,10.1-10.1,10.1
			C527.4,966.2,523.1,961.8,523.1,956.3z M540.2,956.3c0-4.1-2.9-7.6-7.2-7.6c-4.2,0-7.1,3.4-7.1,7.5c0,4.1,2.9,7.6,7.2,7.6
			C537.3,963.7,540.2,960.3,540.2,956.3z"/>
		<path class="st4" d="M552,942.9v3.7h5.1v2.5H552v16.9h-2.8V949h-3.7v-2.5h3.7v-3.6c0-4.5,2.5-6.7,6-6.7c0.5,0,1.4,0.1,2.1,0.4v2.4
			c-0.8-0.3-1.6-0.3-2-0.3C553.8,938.8,552,939.6,552,942.9z"/>
		<path class="st4" d="M577.8,946.2c3.7,0,6,2.1,7.5,4.4v-14.2h2.8v29.5h-2.8v-4.1c-1.5,2.5-3.8,4.4-7.5,4.4c-5.6,0-9.1-4.7-9.1-10
			C568.8,951.1,572.4,946.2,577.8,946.2z M585.4,956.2c0-3.8-2.9-7.4-7-7.4c-4.2,0-6.8,3.4-6.8,7.5c0,4,2.5,7.4,6.8,7.4
			C582.5,963.7,585.4,960.1,585.4,956.2z"/>
		<path class="st4" d="M606.3,953.4c0-3.1-1.7-4.7-4.9-4.7c-3.3,0-4.8,2.1-5.1,4l-2.7-0.6c0.1-1.6,2.3-5.9,7.9-5.9
			c4.1,0,6.1,1.9,7.1,4c0.4,1.1,0.6,2.6,0.6,3.2v12.5h-2.8v-3.4h0c-1.5,2.4-3.6,3.7-6.5,3.7c-3.9,0-6.5-2.4-6.5-5.7v-0.2
			c0-4.2,4.2-5.6,7.7-5.6h5.4V953.4z M600.8,957.1c-2.1,0-4.8,0.7-4.8,3.3c0,2.2,1.9,3.4,4.2,3.4c3.4,0,6-2.4,6-6v-0.7H600.8z"/>
		<path class="st4" d="M616.3,960.9V949h-3.6v-2.5h3.6v-5.6h2.8v5.6h4.9v2.5h-4.9v11.8c0,1.7,1,2.7,3.2,2.7c0.6,0,1.3,0,1.7-0.1v2.4
			c-0.6,0.2-1.7,0.3-2.2,0.3C617.6,966.1,616.3,963.7,616.3,960.9z"/>
		<path class="st4" d="M640.5,953.4c0-3.1-1.7-4.7-4.9-4.7c-3.3,0-4.8,2.1-5.1,4l-2.7-0.6c0.1-1.6,2.3-5.9,7.9-5.9
			c4.1,0,6.1,1.9,7.1,4c0.4,1.1,0.6,2.6,0.6,3.2v12.5h-2.8v-3.4h0c-1.5,2.4-3.6,3.7-6.5,3.7c-3.9,0-6.5-2.4-6.5-5.7v-0.2
			c0-4.2,4.2-5.6,7.7-5.6h5.4V953.4z M635.1,957.1c-2.1,0-4.8,0.7-4.8,3.3c0,2.2,1.9,3.4,4.2,3.4c3.4,0,6-2.4,6-6v-0.7H635.1z"/>
		<path class="st4" d="M662.4,936.3v29.6h-2.9v-29.6H662.4z"/>
		<path class="st4" d="M667.4,956.3c0-5.7,4.3-10.1,10.1-10.1c5.6,0,10,4.4,10,9.9c0,5.7-4.4,10.1-10.1,10.1
			C671.7,966.2,667.4,961.8,667.4,956.3z M684.5,956.3c0-4.1-2.9-7.6-7.2-7.6c-4.2,0-7.1,3.4-7.1,7.5c0,4.1,2.9,7.6,7.2,7.6
			C681.6,963.7,684.5,960.3,684.5,956.3z"/>
		<path class="st4" d="M698.3,966.2c-5.3,0-7-3.6-7.4-5.7l2.6-0.6c0.4,1.7,1.7,3.8,4.7,3.8c2.1,0,4-1.1,4-3.2c0-2.4-2.5-2.9-4.5-3.2
			c-3.2-0.5-6.4-1.6-6.4-5.4c0-3.6,3.3-5.8,6.5-5.8c5.1,0,6.8,3.4,7,5.3l-2.6,0.6c-0.3-1.3-1.4-3.4-4.5-3.4c-2.1,0-3.7,1.4-3.7,3.1
			c0,2.4,2.6,2.8,4.6,3c3.2,0.4,6.4,2.1,6.4,5.6C705.2,964,702,966.2,698.3,966.2z"/>
		<path class="st4" d="M716.1,966.2c-5.3,0-7-3.6-7.4-5.7l2.6-0.6c0.4,1.7,1.7,3.8,4.7,3.8c2.1,0,4-1.1,4-3.2c0-2.4-2.5-2.9-4.5-3.2
			c-3.2-0.5-6.4-1.6-6.4-5.4c0-3.6,3.3-5.8,6.5-5.8c5.1,0,6.8,3.4,7,5.3l-2.6,0.6c-0.3-1.3-1.4-3.4-4.5-3.4c-2.1,0-3.7,1.4-3.7,3.1
			c0,2.4,2.6,2.8,4.6,3c3.2,0.4,6.4,2.1,6.4,5.6C723,964,719.9,966.2,716.1,966.2z"/>
	</g>
</g>
</svg>
