<?xml version="1.0" encoding="utf-8"?>
<!-- Generator: Adobe Illustrator 21.1.0, SVG Export Plug-In . SVG Version: 6.00 Build 0)  -->
<svg version="1.1" id="graphNineCyber" xmlns="http://www.w3.org/2000/svg" xmlns:xlink="http://www.w3.org/1999/xlink" x="0px"
	 y="0px" viewBox="0 0 1500 1053" style="enable-background:new 0 0 1500 1053;" xml:space="preserve">
<style type="text/css">
	.st0{fill:none;}
	.st1{fill:none;stroke:#000000;stroke-width:2;stroke-linecap:round;stroke-miterlimit:10;}
	.st2{fill:none;stroke:#000000;stroke-width:2;stroke-linecap:round;stroke-miterlimit:10;stroke-dasharray:0,10;}
	.st3{opacity:0.9;}
	.st4{fill:#FF8F4E;}
	.st5{fill:#F6F6F8;}
	.st6{fill:#8EFFDE;}
	.st7{fill:url(#SVGID_1_);}
	.st8{fill:url(#SVGID_2_);}
</style>
<pattern  y="1053" width="240" height="240" patternUnits="userSpaceOnUse" id="Unnamed_Pattern_4" viewBox="1 -241 240 240" style="overflow:visible;">
	<g>
		<rect x="1" y="-241" class="st0" width="240" height="240"/>
		<g>
			<g>
				<line class="st1" x1="241" y1="-1" x2="241" y2="-1"/>
			</g>
		</g>
		<g>
			<g>
				<line class="st1" x1="1" y1="-1" x2="1" y2="-1"/>
				<line class="st2" x1="11" y1="-1" x2="236" y2="-1"/>
				<line class="st1" x1="241" y1="-1" x2="241" y2="-1"/>
			</g>
		</g>
		<g>
			<g>
				<line class="st1" x1="1" y1="-1" x2="1" y2="-1"/>
			</g>
		</g>
		<g>
			<g>
				<line class="st1" x1="241" y1="-241" x2="241" y2="-241"/>
			</g>
			<g>
				<line class="st1" x1="241" y1="-231" x2="241" y2="-231"/>
			</g>
			<g>
				<line class="st1" x1="241" y1="-221" x2="241" y2="-221"/>
			</g>
			<g>
				<line class="st1" x1="241" y1="-211" x2="241" y2="-211"/>
			</g>
			<g>
				<line class="st1" x1="241" y1="-201" x2="241" y2="-201"/>
			</g>
			<g>
				<line class="st1" x1="241" y1="-191" x2="241" y2="-191"/>
			</g>
			<g>
				<line class="st1" x1="241" y1="-181" x2="241" y2="-181"/>
			</g>
			<g>
				<line class="st1" x1="241" y1="-171" x2="241" y2="-171"/>
			</g>
			<g>
				<line class="st1" x1="241" y1="-161" x2="241" y2="-161"/>
			</g>
			<g>
				<line class="st1" x1="241" y1="-151" x2="241" y2="-151"/>
			</g>
			<g>
				<line class="st1" x1="241" y1="-141" x2="241" y2="-141"/>
			</g>
			<g>
				<line class="st1" x1="241" y1="-131" x2="241" y2="-131"/>
			</g>
			<g>
				<line class="st1" x1="241" y1="-121" x2="241" y2="-121"/>
			</g>
			<g>
				<line class="st1" x1="241" y1="-111" x2="241" y2="-111"/>
			</g>
			<g>
				<line class="st1" x1="241" y1="-101" x2="241" y2="-101"/>
			</g>
			<g>
				<line class="st1" x1="241" y1="-91" x2="241" y2="-91"/>
			</g>
			<g>
				<line class="st1" x1="241" y1="-81" x2="241" y2="-81"/>
			</g>
			<g>
				<line class="st1" x1="241" y1="-71" x2="241" y2="-71"/>
			</g>
			<g>
				<line class="st1" x1="241" y1="-61" x2="241" y2="-61"/>
			</g>
			<g>
				<line class="st1" x1="241" y1="-51" x2="241" y2="-51"/>
			</g>
			<g>
				<line class="st1" x1="241" y1="-41" x2="241" y2="-41"/>
			</g>
			<g>
				<line class="st1" x1="241" y1="-31" x2="241" y2="-31"/>
			</g>
			<g>
				<line class="st1" x1="241" y1="-21" x2="241" y2="-21"/>
			</g>
			<g>
				<line class="st1" x1="241" y1="-11" x2="241" y2="-11"/>
			</g>
			<g>
				<line class="st1" x1="241" y1="-1" x2="241" y2="-1"/>
			</g>
		</g>
		<g>
			<g>
				<line class="st1" x1="1" y1="-241" x2="1" y2="-241"/>
				<line class="st2" x1="11" y1="-241" x2="236" y2="-241"/>
				<line class="st1" x1="241" y1="-241" x2="241" y2="-241"/>
			</g>
			<g>
				<line class="st1" x1="1" y1="-231" x2="1" y2="-231"/>
				<line class="st2" x1="11" y1="-231" x2="236" y2="-231"/>
				<line class="st1" x1="241" y1="-231" x2="241" y2="-231"/>
			</g>
			<g>
				<line class="st1" x1="1" y1="-221" x2="1" y2="-221"/>
				<line class="st2" x1="11" y1="-221" x2="236" y2="-221"/>
				<line class="st1" x1="241" y1="-221" x2="241" y2="-221"/>
			</g>
			<g>
				<line class="st1" x1="1" y1="-211" x2="1" y2="-211"/>
				<line class="st2" x1="11" y1="-211" x2="236" y2="-211"/>
				<line class="st1" x1="241" y1="-211" x2="241" y2="-211"/>
			</g>
			<g>
				<line class="st1" x1="1" y1="-201" x2="1" y2="-201"/>
				<line class="st2" x1="11" y1="-201" x2="236" y2="-201"/>
				<line class="st1" x1="241" y1="-201" x2="241" y2="-201"/>
			</g>
			<g>
				<line class="st1" x1="1" y1="-191" x2="1" y2="-191"/>
				<line class="st2" x1="11" y1="-191" x2="236" y2="-191"/>
				<line class="st1" x1="241" y1="-191" x2="241" y2="-191"/>
			</g>
			<g>
				<line class="st1" x1="1" y1="-181" x2="1" y2="-181"/>
				<line class="st2" x1="11" y1="-181" x2="236" y2="-181"/>
				<line class="st1" x1="241" y1="-181" x2="241" y2="-181"/>
			</g>
			<g>
				<line class="st1" x1="1" y1="-171" x2="1" y2="-171"/>
				<line class="st2" x1="11" y1="-171" x2="236" y2="-171"/>
				<line class="st1" x1="241" y1="-171" x2="241" y2="-171"/>
			</g>
			<g>
				<line class="st1" x1="1" y1="-161" x2="1" y2="-161"/>
				<line class="st2" x1="11" y1="-161" x2="236" y2="-161"/>
				<line class="st1" x1="241" y1="-161" x2="241" y2="-161"/>
			</g>
			<g>
				<line class="st1" x1="1" y1="-151" x2="1" y2="-151"/>
				<line class="st2" x1="11" y1="-151" x2="236" y2="-151"/>
				<line class="st1" x1="241" y1="-151" x2="241" y2="-151"/>
			</g>
			<g>
				<line class="st1" x1="1" y1="-141" x2="1" y2="-141"/>
				<line class="st2" x1="11" y1="-141" x2="236" y2="-141"/>
				<line class="st1" x1="241" y1="-141" x2="241" y2="-141"/>
			</g>
			<g>
				<line class="st1" x1="1" y1="-131" x2="1" y2="-131"/>
				<line class="st2" x1="11" y1="-131" x2="236" y2="-131"/>
				<line class="st1" x1="241" y1="-131" x2="241" y2="-131"/>
			</g>
			<g>
				<line class="st1" x1="1" y1="-121" x2="1" y2="-121"/>
				<line class="st2" x1="11" y1="-121" x2="236" y2="-121"/>
				<line class="st1" x1="241" y1="-121" x2="241" y2="-121"/>
			</g>
			<g>
				<line class="st1" x1="1" y1="-111" x2="1" y2="-111"/>
				<line class="st2" x1="11" y1="-111" x2="236" y2="-111"/>
				<line class="st1" x1="241" y1="-111" x2="241" y2="-111"/>
			</g>
			<g>
				<line class="st1" x1="1" y1="-101" x2="1" y2="-101"/>
				<line class="st2" x1="11" y1="-101" x2="236" y2="-101"/>
				<line class="st1" x1="241" y1="-101" x2="241" y2="-101"/>
			</g>
			<g>
				<line class="st1" x1="1" y1="-91" x2="1" y2="-91"/>
				<line class="st2" x1="11" y1="-91" x2="236" y2="-91"/>
				<line class="st1" x1="241" y1="-91" x2="241" y2="-91"/>
			</g>
			<g>
				<line class="st1" x1="1" y1="-81" x2="1" y2="-81"/>
				<line class="st2" x1="11" y1="-81" x2="236" y2="-81"/>
				<line class="st1" x1="241" y1="-81" x2="241" y2="-81"/>
			</g>
			<g>
				<line class="st1" x1="1" y1="-71" x2="1" y2="-71"/>
				<line class="st2" x1="11" y1="-71" x2="236" y2="-71"/>
				<line class="st1" x1="241" y1="-71" x2="241" y2="-71"/>
			</g>
			<g>
				<line class="st1" x1="1" y1="-61" x2="1" y2="-61"/>
				<line class="st2" x1="11" y1="-61" x2="236" y2="-61"/>
				<line class="st1" x1="241" y1="-61" x2="241" y2="-61"/>
			</g>
			<g>
				<line class="st1" x1="1" y1="-51" x2="1" y2="-51"/>
				<line class="st2" x1="11" y1="-51" x2="236" y2="-51"/>
				<line class="st1" x1="241" y1="-51" x2="241" y2="-51"/>
			</g>
			<g>
				<line class="st1" x1="1" y1="-41" x2="1" y2="-41"/>
				<line class="st2" x1="11" y1="-41" x2="236" y2="-41"/>
				<line class="st1" x1="241" y1="-41" x2="241" y2="-41"/>
			</g>
			<g>
				<line class="st1" x1="1" y1="-31" x2="1" y2="-31"/>
				<line class="st2" x1="11" y1="-31" x2="236" y2="-31"/>
				<line class="st1" x1="241" y1="-31" x2="241" y2="-31"/>
			</g>
			<g>
				<line class="st1" x1="1" y1="-21" x2="1" y2="-21"/>
				<line class="st2" x1="11" y1="-21" x2="236" y2="-21"/>
				<line class="st1" x1="241" y1="-21" x2="241" y2="-21"/>
			</g>
			<g>
				<line class="st1" x1="1" y1="-11" x2="1" y2="-11"/>
				<line class="st2" x1="11" y1="-11" x2="236" y2="-11"/>
				<line class="st1" x1="241" y1="-11" x2="241" y2="-11"/>
			</g>
			<g>
				<line class="st1" x1="1" y1="-1" x2="1" y2="-1"/>
				<line class="st2" x1="11" y1="-1" x2="236" y2="-1"/>
				<line class="st1" x1="241" y1="-1" x2="241" y2="-1"/>
			</g>
		</g>
		<g>
			<g>
				<line class="st1" x1="1" y1="-241" x2="1" y2="-241"/>
			</g>
			<g>
				<line class="st1" x1="1" y1="-231" x2="1" y2="-231"/>
			</g>
			<g>
				<line class="st1" x1="1" y1="-221" x2="1" y2="-221"/>
			</g>
			<g>
				<line class="st1" x1="1" y1="-211" x2="1" y2="-211"/>
			</g>
			<g>
				<line class="st1" x1="1" y1="-201" x2="1" y2="-201"/>
			</g>
			<g>
				<line class="st1" x1="1" y1="-191" x2="1" y2="-191"/>
			</g>
			<g>
				<line class="st1" x1="1" y1="-181" x2="1" y2="-181"/>
			</g>
			<g>
				<line class="st1" x1="1" y1="-171" x2="1" y2="-171"/>
			</g>
			<g>
				<line class="st1" x1="1" y1="-161" x2="1" y2="-161"/>
			</g>
			<g>
				<line class="st1" x1="1" y1="-151" x2="1" y2="-151"/>
			</g>
			<g>
				<line class="st1" x1="1" y1="-141" x2="1" y2="-141"/>
			</g>
			<g>
				<line class="st1" x1="1" y1="-131" x2="1" y2="-131"/>
			</g>
			<g>
				<line class="st1" x1="1" y1="-121" x2="1" y2="-121"/>
			</g>
			<g>
				<line class="st1" x1="1" y1="-111" x2="1" y2="-111"/>
			</g>
			<g>
				<line class="st1" x1="1" y1="-101" x2="1" y2="-101"/>
			</g>
			<g>
				<line class="st1" x1="1" y1="-91" x2="1" y2="-91"/>
			</g>
			<g>
				<line class="st1" x1="1" y1="-81" x2="1" y2="-81"/>
			</g>
			<g>
				<line class="st1" x1="1" y1="-71" x2="1" y2="-71"/>
			</g>
			<g>
				<line class="st1" x1="1" y1="-61" x2="1" y2="-61"/>
			</g>
			<g>
				<line class="st1" x1="1" y1="-51" x2="1" y2="-51"/>
			</g>
			<g>
				<line class="st1" x1="1" y1="-41" x2="1" y2="-41"/>
			</g>
			<g>
				<line class="st1" x1="1" y1="-31" x2="1" y2="-31"/>
			</g>
			<g>
				<line class="st1" x1="1" y1="-21" x2="1" y2="-21"/>
			</g>
			<g>
				<line class="st1" x1="1" y1="-11" x2="1" y2="-11"/>
			</g>
			<g>
				<line class="st1" x1="1" y1="-1" x2="1" y2="-1"/>
			</g>
		</g>
		<g>
			<g>
				<line class="st1" x1="241" y1="-241" x2="241" y2="-241"/>
			</g>
		</g>
		<g>
			<g>
				<line class="st1" x1="1" y1="-241" x2="1" y2="-241"/>
				<line class="st2" x1="11" y1="-241" x2="236" y2="-241"/>
				<line class="st1" x1="241" y1="-241" x2="241" y2="-241"/>
			</g>
		</g>
		<g>
			<g>
				<line class="st1" x1="1" y1="-241" x2="1" y2="-241"/>
			</g>
		</g>
	</g>
</pattern>
<g class="st3">
	<rect x="-26.1" y="-18.3" class="st4" width="1552.1" height="1089.6"/>
</g>
<g class="st3">
	<rect x="1647.9" y="-18.3" class="st4" width="1552.1" height="1089.6"/>
</g>
<rect x="-26.1" y="1150.2" class="st5" width="1552.1" height="1089.6"/>
<g>
	<g>
		<g>
			<path d="M1105.5,805l-4.9,7.2v5.3h-1.3v-5.3l-4.9-7.3h1.6l4,6l4-6H1105.5z"/>
			<path d="M1106.8,813.7c0.1,1.7,1.4,2.9,3.1,2.9c1.3,0,2.2-0.6,2.6-1.8l1.1,0.4c-0.5,1.7-2.1,2.6-3.8,2.6c-2.5,0-4.3-2-4.3-4.4
				c0-2.3,1.8-4.4,4.2-4.4c2.6,0,4,1.9,4,4.4c0,0.1,0,0.3,0,0.4H1106.8z M1112.5,812.6c-0.2-1.6-1.1-2.7-2.8-2.7
				c-1.5,0-2.7,1.2-2.9,2.7H1112.5z"/>
			<path d="M1119.3,817.7c-2.3,0-3.1-1.6-3.3-2.5l1.2-0.3c0.2,0.8,0.8,1.7,2.1,1.7c0.9,0,1.8-0.5,1.8-1.4c0-1-1.1-1.3-2-1.4
				c-1.4-0.2-2.8-0.7-2.8-2.4c0-1.6,1.5-2.5,2.9-2.5c2.3,0,3,1.5,3.1,2.3l-1.1,0.3c-0.1-0.6-0.6-1.5-2-1.5c-0.9,0-1.6,0.6-1.6,1.4
				c0,1.1,1.2,1.2,2,1.3c1.4,0.2,2.8,0.9,2.8,2.5C1122.3,816.7,1121,817.7,1119.3,817.7z"/>
			<path d="M1125.1,819.4c0.7-0.5,1.3-1.2,1.4-1.9c-0.1,0-0.3,0.1-0.4,0.1c-0.6,0-1.1-0.4-1.1-1.1c0-0.7,0.5-1.1,1.1-1.1
				c0.7,0,1.3,0.6,1.3,1.6v0.1c0,1.1-0.6,2.2-1.7,3L1125.1,819.4z"/>
			<path d="M1136.6,805v12.5h-1.3V805H1136.6z"/>
			<path d="M1152,812.6c0-1.5-0.8-2.6-2.4-2.6c-1.5,0-2.5,1.2-2.5,2.7v4.9h-1.3v-13h1.3v6c0.7-1.1,1.7-1.7,2.9-1.7
				c2.1,0,3.2,1.4,3.2,3.4v5.3h-1.3V812.6z"/>
			<path d="M1161.9,812c0-1.4-0.8-2.1-2.2-2.1c-1.4,0-2.1,0.9-2.2,1.7l-1.2-0.3c0.1-0.7,1-2.6,3.5-2.6c1.8,0,2.7,0.8,3.1,1.8
				c0.2,0.5,0.3,1.1,0.3,1.4v5.5h-1.2V816h0c-0.7,1.1-1.6,1.7-2.9,1.7c-1.7,0-2.9-1.1-2.9-2.5v-0.1c0-1.9,1.9-2.5,3.4-2.5h2.4V812z
				 M1159.5,813.6c-0.9,0-2.1,0.3-2.1,1.4c0,1,0.8,1.5,1.8,1.5c1.5,0,2.7-1.1,2.7-2.6v-0.3H1159.5z"/>
			<path d="M1165.4,809h1.4l2.9,7.2l3-7.2h1.3l-3.7,8.6h-1.3L1165.4,809z"/>
			<path d="M1176.9,813.7c0.1,1.7,1.4,2.9,3.1,2.9c1.3,0,2.2-0.6,2.6-1.8l1.1,0.4c-0.5,1.7-2.1,2.6-3.8,2.6c-2.5,0-4.3-2-4.3-4.4
				c0-2.3,1.8-4.4,4.2-4.4c2.6,0,4,1.9,4,4.4c0,0.1,0,0.3,0,0.4H1176.9z M1182.6,812.6c-0.2-1.6-1.1-2.7-2.8-2.7
				c-1.5,0-2.7,1.2-2.9,2.7H1182.6z"/>
			<path d="M1195.8,816.6c1.9,0,2.6-1.4,2.9-2.1l1.2,0.4c-0.4,1.3-1.8,2.8-4,2.8c-2.5,0-4.4-1.8-4.4-4.4c0-2.6,2-4.5,4.4-4.5
				c2,0,3.6,1.3,3.9,2.7l-1.2,0.4c-0.2-0.7-1-2-2.8-2c-1.8,0-3.1,1.5-3.1,3.3C1192.7,815,1193.9,816.6,1195.8,816.6z"/>
			<path d="M1202.1,813.3c0-2.5,1.9-4.5,4.4-4.5c2.5,0,4.4,1.9,4.4,4.4c0,2.5-1.9,4.5-4.4,4.5C1204,817.7,1202.1,815.7,1202.1,813.3
				z M1209.7,813.3c0-1.8-1.3-3.4-3.2-3.4s-3.1,1.5-3.1,3.3c0,1.8,1.3,3.3,3.2,3.3C1208.4,816.6,1209.7,815.1,1209.7,813.3z"/>
			<path d="M1220.1,812.6c0-1.5-0.8-2.6-2.4-2.6c-1.5,0-2.5,1.2-2.5,2.7v4.9h-1.3V809h1.2v1.6c0.7-1.2,1.7-1.7,3-1.7
				c2.1,0,3.2,1.4,3.2,3.4v5.3h-1.3V812.6z"/>
			<path d="M1228.6,816.6c1.9,0,2.6-1.4,2.9-2.1l1.2,0.4c-0.4,1.3-1.8,2.8-4,2.8c-2.5,0-4.4-1.8-4.4-4.4c0-2.6,2-4.5,4.4-4.5
				c2,0,3.6,1.3,3.9,2.7l-1.2,0.4c-0.2-0.7-1-2-2.8-2c-1.8,0-3.1,1.5-3.1,3.3C1225.5,815,1226.7,816.6,1228.6,816.6z"/>
			<path d="M1236.2,813.7c0.1,1.7,1.4,2.9,3.1,2.9c1.3,0,2.2-0.6,2.6-1.8l1.1,0.4c-0.5,1.7-2.1,2.6-3.8,2.6c-2.5,0-4.3-2-4.3-4.4
				c0-2.3,1.8-4.4,4.2-4.4c2.6,0,4,1.9,4,4.4c0,0.1,0,0.3,0,0.4H1236.2z M1241.9,812.6c-0.2-1.6-1.1-2.7-2.8-2.7
				c-1.5,0-2.7,1.2-2.9,2.7H1241.9z"/>
			<path d="M1247.3,810.7c0.6-1.3,1.8-1.8,2.8-1.8c0.1,0,0.3,0,0.4,0v1.3c-0.2,0-0.3,0-0.5,0c-2,0-2.7,1.7-2.7,3.2v4.2h-1.3V809h1.2
				V810.7z"/>
			<path d="M1259.1,812.6c0-1.5-0.8-2.6-2.4-2.6c-1.5,0-2.5,1.2-2.5,2.7v4.9h-1.3V809h1.2v1.6c0.7-1.2,1.7-1.7,2.9-1.7
				c2.1,0,3.2,1.4,3.2,3.4v5.3h-1.3V812.6z"/>
			<path d="M1266.5,817.7c-2.3,0-3.1-1.6-3.3-2.5l1.2-0.3c0.2,0.8,0.8,1.7,2.1,1.7c0.9,0,1.8-0.5,1.8-1.4c0-1-1.1-1.3-2-1.4
				c-1.4-0.2-2.8-0.7-2.8-2.4c0-1.6,1.5-2.5,2.9-2.5c2.3,0,3,1.5,3.1,2.3l-1.1,0.3c-0.1-0.6-0.6-1.5-2-1.5c-0.9,0-1.6,0.6-1.6,1.4
				c0,1.1,1.2,1.2,2,1.3c1.4,0.2,2.8,0.9,2.8,2.5C1269.5,816.7,1268.1,817.7,1266.5,817.7z"/>
		</g>
	</g>
	<circle class="st6" cx="1065.7" cy="813.3" r="15.3"/>
	<g>
		<g>
			<path d="M1106,860.7v12.5h-1.4l-7.5-10.7v10.7h-1.3v-12.5h1.5l7.4,10.5v-10.5H1106z"/>
			<path d="M1109.3,869c0-2.5,1.9-4.5,4.4-4.5c2.5,0,4.4,1.9,4.4,4.4c0,2.5-1.9,4.5-4.4,4.5C1111.2,873.4,1109.3,871.4,1109.3,869z
				 M1116.9,869c0-1.8-1.3-3.4-3.2-3.4c-1.9,0-3.1,1.5-3.1,3.3c0,1.8,1.3,3.3,3.2,3.3C1115.6,872.3,1116.9,870.8,1116.9,869z"/>
			<path d="M1120.9,875.1c0.7-0.5,1.3-1.2,1.4-1.9c-0.1,0-0.3,0.1-0.4,0.1c-0.6,0-1.1-0.4-1.1-1.1c0-0.7,0.5-1.1,1.1-1.1
				c0.7,0,1.3,0.6,1.3,1.6v0.1c0,1.1-0.6,2.2-1.7,3L1120.9,875.1z"/>
			<path d="M1132.4,860.7v12.5h-1.3v-12.5H1132.4z"/>
			<path d="M1145,864.5c1.7,0,2.6,0.9,3.3,1.9v-6.3h1.2v13h-1.2v-1.8c-0.7,1.1-1.7,2-3.3,2c-2.5,0-4-2.1-4-4.4
				C1141,866.7,1142.6,864.5,1145,864.5z M1148.3,868.9c0-1.7-1.3-3.3-3.1-3.3c-1.9,0-3,1.5-3,3.3c0,1.8,1.1,3.3,3,3.3
				C1147.1,872.3,1148.3,870.7,1148.3,868.9z"/>
			<path d="M1152.6,869c0-2.5,1.9-4.5,4.4-4.5c2.5,0,4.4,1.9,4.4,4.4c0,2.5-1.9,4.5-4.4,4.5C1154.5,873.4,1152.6,871.4,1152.6,869z
				 M1160.1,869c0-1.8-1.3-3.4-3.2-3.4c-1.9,0-3.1,1.5-3.1,3.3c0,1.8,1.3,3.3,3.2,3.3C1158.8,872.3,1160.1,870.8,1160.1,869z"/>
			<path d="M1175.8,868.3c0-1.5-0.8-2.6-2.4-2.6c-1.5,0-2.5,1.2-2.5,2.7v4.9h-1.3v-8.6h1.2v1.6c0.7-1.2,1.7-1.7,2.9-1.7
				c2.1,0,3.2,1.4,3.2,3.4v5.3h-1.3V868.3z"/>
			<path d="M1180,869c0-2.5,1.9-4.5,4.4-4.5c2.5,0,4.4,1.9,4.4,4.4c0,2.5-1.9,4.5-4.4,4.5C1181.9,873.4,1180,871.4,1180,869z
				 M1187.5,869c0-1.8-1.3-3.4-3.2-3.4c-1.9,0-3.1,1.5-3.1,3.3c0,1.8,1.3,3.3,3.2,3.3C1186.2,872.3,1187.5,870.8,1187.5,869z"/>
			<path d="M1192.3,871v-5.2h-1.6v-1.1h1.6v-2.5h1.2v2.5h2.2v1.1h-2.2v5.2c0,0.8,0.4,1.2,1.4,1.2c0.3,0,0.6,0,0.8-0.1v1
				c-0.3,0.1-0.8,0.1-1,0.1C1192.8,873.3,1192.3,872.3,1192.3,871z"/>
			<path d="M1210,868.3c0-1.5-0.8-2.6-2.4-2.6c-1.5,0-2.5,1.2-2.5,2.7v4.9h-1.3v-13h1.3v6c0.7-1.1,1.7-1.7,2.9-1.7
				c2.1,0,3.2,1.4,3.2,3.4v5.3h-1.3V868.3z"/>
			<path d="M1219.9,867.7c0-1.4-0.8-2.1-2.2-2.1c-1.4,0-2.1,0.9-2.2,1.7l-1.2-0.3c0.1-0.7,1-2.6,3.5-2.6c1.8,0,2.7,0.8,3.1,1.8
				c0.2,0.5,0.3,1.1,0.3,1.4v5.5h-1.2v-1.5h0c-0.7,1.1-1.6,1.7-2.9,1.7c-1.7,0-2.9-1.1-2.9-2.5v-0.1c0-1.9,1.9-2.5,3.4-2.5h2.4
				V867.7z M1217.5,869.3c-0.9,0-2.1,0.3-2.1,1.4c0,1,0.8,1.5,1.8,1.5c1.5,0,2.7-1.1,2.7-2.6v-0.3H1217.5z"/>
			<path d="M1223.4,864.7h1.4l2.9,7.2l3-7.2h1.3l-3.7,8.6h-1.3L1223.4,864.7z"/>
			<path d="M1234.9,869.3c0.1,1.7,1.4,2.9,3.1,2.9c1.3,0,2.2-0.6,2.6-1.8l1.1,0.4c-0.5,1.7-2.1,2.6-3.8,2.6c-2.5,0-4.3-2-4.3-4.4
				c0-2.3,1.8-4.4,4.2-4.4c2.6,0,4,1.9,4,4.4c0,0.1,0,0.3,0,0.4H1234.9z M1240.6,868.3c-0.2-1.6-1.1-2.7-2.8-2.7
				c-1.5,0-2.7,1.2-2.9,2.7H1240.6z"/>
			<path d="M1253.8,872.3c1.9,0,2.6-1.4,2.9-2.1l1.2,0.4c-0.4,1.3-1.8,2.8-4,2.8c-2.5,0-4.4-1.8-4.4-4.4c0-2.6,2-4.5,4.4-4.5
				c2,0,3.6,1.3,3.9,2.7l-1.2,0.4c-0.2-0.7-1-2-2.8-2c-1.8,0-3.1,1.5-3.1,3.3S1251.9,872.3,1253.8,872.3z"/>
			<path d="M1260.1,869c0-2.5,1.9-4.5,4.4-4.5c2.5,0,4.4,1.9,4.4,4.4c0,2.5-1.9,4.5-4.4,4.5C1262,873.4,1260.1,871.4,1260.1,869z
				 M1267.7,869c0-1.8-1.3-3.4-3.2-3.4c-1.9,0-3.1,1.5-3.1,3.3c0,1.8,1.3,3.3,3.2,3.3C1266.4,872.3,1267.7,870.8,1267.7,869z"/>
			<path d="M1278.1,868.3c0-1.5-0.8-2.6-2.4-2.6c-1.5,0-2.5,1.2-2.5,2.7v4.9h-1.3v-8.6h1.2v1.6c0.7-1.2,1.7-1.7,2.9-1.7
				c2.1,0,3.2,1.4,3.2,3.4v5.3h-1.3V868.3z"/>
			<path d="M1286.6,872.3c1.9,0,2.6-1.4,2.9-2.1l1.2,0.4c-0.4,1.3-1.8,2.8-4,2.8c-2.5,0-4.4-1.8-4.4-4.4c0-2.6,2-4.5,4.4-4.5
				c2,0,3.6,1.3,3.9,2.7l-1.2,0.4c-0.2-0.7-1-2-2.8-2c-1.8,0-3.1,1.5-3.1,3.3S1284.7,872.3,1286.6,872.3z"/>
			<path d="M1294.2,869.3c0.1,1.7,1.4,2.9,3.1,2.9c1.3,0,2.2-0.6,2.6-1.8l1.1,0.4c-0.5,1.7-2.1,2.6-3.8,2.6c-2.5,0-4.3-2-4.3-4.4
				c0-2.3,1.8-4.4,4.2-4.4c2.6,0,4,1.9,4,4.4c0,0.1,0,0.3,0,0.4H1294.2z M1299.8,868.3c-0.2-1.6-1.1-2.7-2.8-2.7
				c-1.5,0-2.7,1.2-2.9,2.7H1299.8z"/>
			<path d="M1305.3,866.4c0.6-1.3,1.8-1.8,2.8-1.8c0.1,0,0.3,0,0.4,0v1.3c-0.2,0-0.3,0-0.5,0c-2,0-2.7,1.7-2.7,3.2v4.2h-1.3v-8.6
				h1.2V866.4z"/>
			<path d="M1317.1,868.3c0-1.5-0.8-2.6-2.4-2.6c-1.5,0-2.5,1.2-2.5,2.7v4.9h-1.3v-8.6h1.2v1.6c0.7-1.2,1.7-1.7,3-1.7
				c2.1,0,3.2,1.4,3.2,3.4v5.3h-1.3V868.3z"/>
			<path d="M1324.5,873.4c-2.3,0-3.1-1.6-3.3-2.5l1.2-0.3c0.2,0.8,0.8,1.7,2.1,1.7c0.9,0,1.8-0.5,1.8-1.4c0-1-1.1-1.3-2-1.4
				c-1.4-0.2-2.8-0.7-2.8-2.4c0-1.6,1.5-2.5,2.9-2.5c2.3,0,3,1.5,3.1,2.3l-1.1,0.3c-0.1-0.6-0.6-1.5-2-1.5c-0.9,0-1.6,0.6-1.6,1.4
				c0,1.1,1.2,1.2,2,1.3c1.4,0.2,2.8,0.9,2.8,2.5C1327.5,872.4,1326.1,873.4,1324.5,873.4z"/>
		</g>
	</g>
	<g>
		<pattern  id="SVGID_1_" xlink:href="#Unnamed_Pattern_4" patternTransform="matrix(0 1.1442 -1.0985 0 -21795.8145 77.0343)">
		</pattern>
		<circle class="st7" cx="1065.7" cy="869" r="15.3"/>
	</g>
	<g>
		<g>
			<path d="M1097,907.2v12.5h-1.3v-12.5H1097z"/>
			<path d="M1109.7,911.1c1.7,0,2.6,0.9,3.3,1.9v-6.3h1.2v13h-1.2v-1.8c-0.7,1.1-1.7,2-3.3,2c-2.5,0-4-2.1-4-4.4
				C1105.7,913.3,1107.3,911.1,1109.7,911.1z M1113,915.5c0-1.7-1.3-3.3-3.1-3.3c-1.9,0-3,1.5-3,3.3c0,1.8,1.1,3.3,3,3.3
				C1111.7,918.8,1113,917.2,1113,915.5z"/>
			<path d="M1117.2,915.5c0-2.5,1.9-4.5,4.4-4.5c2.5,0,4.4,1.9,4.4,4.4c0,2.5-1.9,4.5-4.4,4.5C1119.2,919.9,1117.2,918,1117.2,915.5
				z M1124.8,915.5c0-1.8-1.3-3.4-3.2-3.4c-1.9,0-3.1,1.5-3.1,3.3c0,1.8,1.3,3.3,3.2,3.3C1123.5,918.8,1124.8,917.3,1124.8,915.5z"
				/>
			<path d="M1135.2,914.8c0-1.5-0.8-2.6-2.4-2.6c-1.5,0-2.5,1.2-2.5,2.7v4.9h-1.3v-8.6h1.2v1.6c0.7-1.2,1.7-1.7,3-1.7
				c2.1,0,3.2,1.4,3.2,3.4v5.3h-1.3V914.8z"/>
			<path d="M1139.3,911.2c0.7-0.5,1.3-1.2,1.4-1.9c-0.1,0-0.3,0.1-0.4,0.1c-0.6,0-1.1-0.4-1.1-1.1c0-0.7,0.5-1.1,1.1-1.1
				c0.7,0,1.3,0.6,1.3,1.6v0.1c0,1.1-0.6,2.2-1.7,3L1139.3,911.2z"/>
			<path d="M1145.3,917.6v-5.2h-1.6v-1.1h1.6v-2.5h1.2v2.5h2.2v1.1h-2.2v5.2c0,0.8,0.4,1.2,1.4,1.2c0.3,0,0.6,0,0.8-0.1v1
				c-0.3,0.1-0.8,0.1-1,0.1C1145.9,919.8,1145.3,918.8,1145.3,917.6z"/>
			<path d="M1158.1,919.8h-1.3v-13.1h1.3v8l4.1-3.5h1.8l-4.5,3.8l4.7,4.7h-1.7l-4.3-4.3h0V919.8z"/>
			<path d="M1172.6,914.8c0-1.5-0.8-2.6-2.4-2.6c-1.5,0-2.5,1.2-2.5,2.7v4.9h-1.3v-8.6h1.2v1.6c0.7-1.2,1.7-1.7,2.9-1.7
				c2.1,0,3.2,1.4,3.2,3.4v5.3h-1.3V914.8z"/>
			<path d="M1176.7,915.5c0-2.5,1.9-4.5,4.4-4.5c2.5,0,4.4,1.9,4.4,4.4c0,2.5-1.9,4.5-4.4,4.5C1178.7,919.9,1176.7,918,1176.7,915.5
				z M1184.3,915.5c0-1.8-1.3-3.4-3.2-3.4c-1.9,0-3.1,1.5-3.1,3.3c0,1.8,1.3,3.3,3.2,3.3C1183,918.8,1184.3,917.3,1184.3,915.5z"/>
			<path d="M1190.2,919.8l-2.9-8.6h1.3l2.2,7.1h0l2.3-7.1h1.3l2.3,7.1h0l2.3-7.1h1.3l-2.9,8.6h-1.4l-2.3-7h0l-2.3,7H1190.2z"/>
			<path d="M1214.5,914.8c0-1.5-0.8-2.6-2.4-2.6c-1.5,0-2.5,1.2-2.5,2.7v4.9h-1.3v-13h1.3v6c0.7-1.1,1.7-1.7,2.9-1.7
				c2.1,0,3.2,1.4,3.2,3.4v5.3h-1.3V914.8z"/>
			<path d="M1218.6,915.5c0-2.5,1.9-4.5,4.4-4.5c2.5,0,4.4,1.9,4.4,4.4c0,2.5-1.9,4.5-4.4,4.5C1220.6,919.9,1218.6,918,1218.6,915.5
				z M1226.2,915.5c0-1.8-1.3-3.4-3.2-3.4s-3.1,1.5-3.1,3.3c0,1.8,1.3,3.3,3.2,3.3C1224.9,918.8,1226.2,917.3,1226.2,915.5z"/>
			<path d="M1232.2,919.8l-2.9-8.6h1.3l2.2,7.1h0l2.3-7.1h1.2l2.3,7.1h0l2.3-7.1h1.3l-2.9,8.6h-1.4l-2.3-7h0l-2.3,7H1232.2z"/>
			<path d="M1250.8,917.6v-5.2h-1.6v-1.1h1.6v-2.5h1.2v2.5h2.2v1.1h-2.2v5.2c0,0.8,0.4,1.2,1.4,1.2c0.3,0,0.6,0,0.8-0.1v1
				c-0.3,0.1-0.8,0.1-1,0.1C1251.4,919.8,1250.8,918.8,1250.8,917.6z"/>
			<path d="M1263.3,914.8c0-1.5-0.8-2.6-2.4-2.6c-1.5,0-2.5,1.2-2.5,2.7v4.9h-1.3v-13h1.3v6c0.7-1.1,1.7-1.7,2.9-1.7
				c2.1,0,3.2,1.4,3.2,3.4v5.3h-1.3V914.8z"/>
			<path d="M1268.7,915.9c0.1,1.7,1.4,2.9,3.1,2.9c1.3,0,2.2-0.6,2.6-1.8l1.1,0.4c-0.5,1.7-2.1,2.6-3.8,2.6c-2.5,0-4.3-2-4.3-4.4
				c0-2.3,1.8-4.4,4.2-4.4c2.6,0,4,1.9,4,4.4c0,0.1,0,0.3,0,0.4H1268.7z M1274.4,914.8c-0.2-1.6-1.1-2.7-2.8-2.7
				c-1.5,0-2.7,1.2-2.9,2.7H1274.4z"/>
			<path d="M1287.6,918.8c1.9,0,2.6-1.4,2.9-2.1l1.2,0.4c-0.4,1.3-1.8,2.8-4,2.8c-2.5,0-4.4-1.8-4.4-4.4c0-2.6,2-4.5,4.4-4.5
				c2,0,3.6,1.3,3.9,2.7l-1.2,0.4c-0.2-0.7-1-2-2.8-2c-1.8,0-3.1,1.5-3.1,3.3C1284.5,917.2,1285.7,918.8,1287.6,918.8z"/>
			<path d="M1300.7,914.8c0-1.5-0.8-2.6-2.4-2.6c-1.5,0-2.5,1.2-2.5,2.7v4.9h-1.3v-13h1.3v6c0.7-1.1,1.7-1.7,2.9-1.7
				c2.1,0,3.2,1.4,3.2,3.4v5.3h-1.3V914.8z"/>
			<path d="M1310.6,914.3c0-1.4-0.8-2.1-2.2-2.1c-1.4,0-2.1,0.9-2.2,1.7l-1.2-0.3c0.1-0.7,1-2.6,3.5-2.6c1.8,0,2.7,0.8,3.1,1.8
				c0.2,0.5,0.3,1.1,0.3,1.4v5.5h-1.2v-1.5h0c-0.7,1.1-1.6,1.7-2.9,1.7c-1.7,0-2.9-1.1-2.9-2.5v-0.1c0-1.9,1.9-2.5,3.4-2.5h2.4
				V914.3z M1308.2,915.9c-0.9,0-2.1,0.3-2.1,1.4c0,1,0.8,1.5,1.8,1.5c1.5,0,2.7-1.1,2.7-2.6v-0.3H1308.2z"/>
			<path d="M1321.5,914.8c0-1.5-0.8-2.6-2.4-2.6c-1.5,0-2.5,1.2-2.5,2.7v4.9h-1.3v-8.6h1.2v1.6c0.7-1.2,1.7-1.7,3-1.7
				c2.1,0,3.2,1.4,3.2,3.4v5.3h-1.3V914.8z"/>
			<path d="M1333,917.9c-0.7,1.1-1.7,1.9-3.3,1.9c-2.5,0-4-2-4-4.4c0-2.2,1.6-4.4,4-4.4c1.7,0,2.7,0.9,3.3,1.9v-1.8h1.2v8.6
				c0,2.8-1.7,4.2-4.3,4.2c-2.2,0-3.8-1.1-4.2-2.9l1.2-0.4c0.3,1,1.1,2.2,3.1,2.2c1.7,0,3.1-0.9,3.1-3.1V917.9z M1333,915.4
				c0-1.7-1.3-3.3-3.1-3.3c-1.9,0-3,1.4-3,3.3c0,1.8,1.1,3.2,3,3.2C1331.7,918.7,1333,917.2,1333,915.4z"/>
			<path d="M1338.5,915.9c0.1,1.7,1.4,2.9,3.1,2.9c1.3,0,2.2-0.6,2.6-1.8l1.1,0.4c-0.5,1.7-2.1,2.6-3.8,2.6c-2.5,0-4.3-2-4.3-4.4
				c0-2.3,1.8-4.4,4.2-4.4c2.6,0,4,1.9,4,4.4c0,0.1,0,0.3,0,0.4H1338.5z M1344.1,914.8c-0.2-1.6-1.1-2.7-2.8-2.7
				c-1.5,0-2.7,1.2-2.9,2.7H1344.1z"/>
			<path d="M1351,919.9c-2.3,0-3.1-1.6-3.3-2.5l1.2-0.3c0.2,0.8,0.8,1.7,2.1,1.7c0.9,0,1.8-0.5,1.8-1.4c0-1-1.1-1.3-2-1.4
				c-1.4-0.2-2.8-0.7-2.8-2.4c0-1.6,1.5-2.5,2.9-2.5c2.3,0,3,1.5,3.1,2.3l-1.1,0.3c-0.1-0.6-0.6-1.5-2-1.5c-0.9,0-1.6,0.6-1.6,1.4
				c0,1.1,1.2,1.2,2,1.3c1.4,0.2,2.8,0.9,2.8,2.5C1354,918.9,1352.6,919.9,1351,919.9z"/>
			<path d="M1097.3,939l-2.9-8.6h1.3l2.2,7.1h0l2.3-7.1h1.2l2.3,7.1h0l2.3-7.1h1.3l-2.9,8.6h-1.4l-2.3-7h0l-2.3,7H1097.3z"/>
			<path d="M1110.7,926.4c0.5,0,0.9,0.4,0.9,0.9c0,0.5-0.4,0.9-0.9,0.9c-0.5,0-0.9-0.4-0.9-0.9
				C1109.8,926.8,1110.2,926.4,1110.7,926.4z M1111.3,930.4v8.6h-1.3v-8.6H1111.3z"/>
			<path d="M1116.2,925.9V939h-1.3v-13.1H1116.2z"/>
			<path d="M1121.1,925.9V939h-1.3v-13.1H1121.1z"/>
			<path d="M1135.2,933.5c0-1.4-0.8-2.1-2.2-2.1c-1.4,0-2.1,0.9-2.2,1.7l-1.2-0.3c0.1-0.7,1-2.6,3.5-2.6c1.8,0,2.7,0.8,3.1,1.8
				c0.2,0.5,0.3,1.1,0.3,1.4v5.5h-1.2v-1.5h0c-0.7,1.1-1.6,1.7-2.9,1.7c-1.7,0-2.9-1.1-2.9-2.5v-0.1c0-1.9,1.9-2.5,3.4-2.5h2.4
				V933.5z M1132.8,935.1c-0.9,0-2.1,0.3-2.1,1.4c0,1,0.8,1.5,1.8,1.5c1.5,0,2.7-1.1,2.7-2.6v-0.3H1132.8z"/>
			<path d="M1146.9,928.8v1.6h2.2v1.1h-2.2v7.5h-1.2v-7.5h-3.9v7.5h-1.3v-7.5h-1.6v-1.1h1.6v-1.6c0-2,1.1-2.9,2.6-2.9
				c0.2,0,0.6,0,0.9,0.2v1.1c-0.3-0.1-0.7-0.1-0.9-0.1c-0.6,0-1.4,0.4-1.4,1.8v1.6h3.9v-1.6c0-2,1.1-2.9,2.6-2.9
				c0.2,0,0.6,0,0.9,0.2v1.1c-0.3-0.1-0.7-0.1-0.9-0.1C1147.7,927,1146.9,927.4,1146.9,928.8z"/>
			<path d="M1152,935.1c0.1,1.7,1.4,2.9,3.1,2.9c1.3,0,2.2-0.6,2.6-1.8l1.1,0.4c-0.5,1.7-2.1,2.6-3.8,2.6c-2.5,0-4.3-2-4.3-4.4
				c0-2.3,1.8-4.4,4.2-4.4c2.6,0,4,1.9,4,4.4c0,0.1,0,0.3,0,0.4H1152z M1157.7,934c-0.2-1.6-1.1-2.7-2.8-2.7c-1.5,0-2.7,1.2-2.9,2.7
				H1157.7z"/>
			<path d="M1165.6,938c1.9,0,2.6-1.4,2.9-2.1l1.2,0.4c-0.4,1.3-1.8,2.8-4,2.8c-2.5,0-4.4-1.8-4.4-4.4c0-2.6,2-4.5,4.4-4.5
				c2,0,3.6,1.3,3.9,2.7l-1.2,0.4c-0.2-0.7-1-2-2.8-2c-1.8,0-3.1,1.5-3.1,3.3C1162.6,936.4,1163.7,938,1165.6,938z"/>
			<path d="M1173,936.8v-5.2h-1.6v-1.1h1.6V928h1.2v2.5h2.2v1.1h-2.2v5.2c0,0.8,0.4,1.2,1.4,1.2c0.3,0,0.6,0,0.8-0.1v1
				c-0.3,0.1-0.8,0.1-1,0.1C1173.6,939.1,1173,938,1173,936.8z"/>
			<path d="M1190.4,934c0-1.4-0.7-2.6-2.2-2.6c-1.5,0-2.4,1.3-2.4,2.7v4.9h-1.3v-8.6h1.2v1.5c0.7-1,1.5-1.7,2.8-1.7
				c1.3,0,2.2,0.6,2.7,1.7c0.7-1.1,1.7-1.7,3-1.7c2.1,0,3.2,1.4,3.2,3.4v5.3h-1.3v-5c0-1.4-0.6-2.6-2.2-2.6c-1.5,0-2.4,1.2-2.4,2.6
				v4.9h-1.2V934z"/>
			<path d="M1203.6,938.4l-3.9-8h1.4l3.1,6.6l3-6.6h1.3l-5.9,12.8h-1.3L1203.6,938.4z"/>
			<path d="M1215.4,934.7c0-2.5,1.9-4.5,4.4-4.5c2.5,0,4.4,1.9,4.4,4.4c0,2.5-1.9,4.5-4.4,4.5
				C1217.3,939.1,1215.4,937.2,1215.4,934.7z M1222.9,934.7c0-1.8-1.3-3.4-3.2-3.4s-3.1,1.5-3.1,3.3c0,1.8,1.3,3.3,3.2,3.3
				C1221.6,938,1222.9,936.5,1222.9,934.7z"/>
			<path d="M1228.5,932.1c0.6-1.3,1.8-1.8,2.8-1.8c0.1,0,0.3,0,0.4,0v1.3c-0.2,0-0.3,0-0.5,0c-2,0-2.7,1.7-2.7,3.2v4.2h-1.3v-8.6
				h1.2V932.1z"/>
			<path d="M1240.5,937.1c-0.7,1.1-1.7,1.9-3.3,1.9c-2.5,0-4-2-4-4.4c0-2.2,1.6-4.4,4-4.4c1.7,0,2.7,0.9,3.3,1.9v-1.8h1.2v8.6
				c0,2.8-1.7,4.2-4.3,4.2c-2.2,0-3.8-1.1-4.2-2.9l1.2-0.4c0.3,1,1.1,2.2,3.1,2.2c1.7,0,3.1-0.9,3.1-3.1V937.1z M1240.5,934.7
				c0-1.7-1.3-3.3-3.1-3.3c-1.9,0-3,1.4-3,3.3c0,1.8,1.1,3.2,3,3.2C1239.3,937.9,1240.5,936.4,1240.5,934.7z"/>
			<path d="M1250.5,933.5c0-1.4-0.8-2.1-2.2-2.1c-1.4,0-2.1,0.9-2.2,1.7l-1.2-0.3c0.1-0.7,1-2.6,3.5-2.6c1.8,0,2.7,0.8,3.1,1.8
				c0.2,0.5,0.3,1.1,0.3,1.4v5.5h-1.2v-1.5h0c-0.7,1.1-1.6,1.7-2.9,1.7c-1.7,0-2.9-1.1-2.9-2.5v-0.1c0-1.9,1.9-2.5,3.4-2.5h2.4
				V933.5z M1248.2,935.1c-0.9,0-2.1,0.3-2.1,1.4c0,1,0.8,1.5,1.8,1.5c1.5,0,2.7-1.1,2.7-2.6v-0.3H1248.2z"/>
			<path d="M1261.5,934c0-1.5-0.8-2.6-2.4-2.6c-1.5,0-2.5,1.2-2.5,2.7v4.9h-1.3v-8.6h1.2v1.6c0.7-1.2,1.7-1.7,2.9-1.7
				c2.1,0,3.2,1.4,3.2,3.4v5.3h-1.3V934z"/>
			<path d="M1266.8,926.4c0.5,0,0.9,0.4,0.9,0.9c0,0.5-0.4,0.9-0.9,0.9c-0.5,0-0.9-0.4-0.9-0.9
				C1265.9,926.8,1266.3,926.4,1266.8,926.4z M1267.5,930.4v8.6h-1.3v-8.6H1267.5z"/>
			<path d="M1273.7,939.1c-2.3,0-3.1-1.6-3.3-2.5l1.2-0.3c0.2,0.8,0.8,1.7,2.1,1.7c0.9,0,1.8-0.5,1.8-1.4c0-1-1.1-1.3-2-1.4
				c-1.4-0.2-2.8-0.7-2.8-2.4c0-1.6,1.5-2.5,2.9-2.5c2.3,0,3,1.5,3.1,2.3l-1.1,0.3c-0.1-0.6-0.6-1.5-2-1.5c-0.9,0-1.6,0.6-1.6,1.4
				c0,1.1,1.2,1.2,2,1.3c1.4,0.2,2.8,0.9,2.8,2.5C1276.7,938.1,1275.4,939.1,1273.7,939.1z"/>
			<path d="M1284.9,933.5c0-1.4-0.8-2.1-2.2-2.1c-1.4,0-2.1,0.9-2.2,1.7l-1.2-0.3c0.1-0.7,1-2.6,3.5-2.6c1.8,0,2.7,0.8,3.1,1.8
				c0.2,0.5,0.3,1.1,0.3,1.4v5.5h-1.2v-1.5h0c-0.7,1.1-1.6,1.7-2.9,1.7c-1.7,0-2.9-1.1-2.9-2.5v-0.1c0-1.9,1.9-2.5,3.4-2.5h2.4
				V933.5z M1282.5,935.1c-0.9,0-2.1,0.3-2.1,1.4c0,1,0.8,1.5,1.8,1.5c1.5,0,2.7-1.1,2.7-2.6v-0.3H1282.5z"/>
			<path d="M1290.2,936.8v-5.2h-1.6v-1.1h1.6V928h1.2v2.5h2.2v1.1h-2.2v5.2c0,0.8,0.4,1.2,1.4,1.2c0.3,0,0.6,0,0.8-0.1v1
				c-0.3,0.1-0.8,0.1-1,0.1C1290.7,939.1,1290.2,938,1290.2,936.8z"/>
			<path d="M1297.1,926.4c0.5,0,0.9,0.4,0.9,0.9c0,0.5-0.4,0.9-0.9,0.9c-0.5,0-0.9-0.4-0.9-0.9
				C1296.2,926.8,1296.6,926.4,1297.1,926.4z M1297.7,930.4v8.6h-1.3v-8.6H1297.7z"/>
			<path d="M1300.7,934.7c0-2.5,1.9-4.5,4.4-4.5c2.5,0,4.4,1.9,4.4,4.4c0,2.5-1.9,4.5-4.4,4.5
				C1302.7,939.1,1300.7,937.2,1300.7,934.7z M1308.3,934.7c0-1.8-1.3-3.4-3.2-3.4c-1.9,0-3.1,1.5-3.1,3.3c0,1.8,1.3,3.3,3.2,3.3
				C1307,938,1308.3,936.5,1308.3,934.7z"/>
			<path d="M1318.7,934c0-1.5-0.8-2.6-2.4-2.6c-1.5,0-2.5,1.2-2.5,2.7v4.9h-1.3v-8.6h1.2v1.6c0.7-1.2,1.7-1.7,2.9-1.7
				c2.1,0,3.2,1.4,3.2,3.4v5.3h-1.3V934z"/>
		</g>
	</g>
	<g>
		<circle class="st5" cx="1065.7" cy="924.7" r="15.3"/>
	</g>
	<g>
		<g>
			<path d="M1098.5,975.5v-11.3h-4.2v-1.2h9.7v1.2h-4.2v11.3H1098.5z"/>
			<path d="M1112.7,970.5c0-1.5-0.8-2.6-2.4-2.6c-1.5,0-2.5,1.2-2.5,2.7v4.9h-1.3v-13h1.3v6c0.7-1.1,1.7-1.7,2.9-1.7
				c2.1,0,3.2,1.4,3.2,3.4v5.3h-1.3V970.5z"/>
			<path d="M1118.1,971.6c0.1,1.7,1.4,2.9,3.1,2.9c1.3,0,2.2-0.6,2.6-1.8l1.1,0.4c-0.5,1.7-2.1,2.6-3.8,2.6c-2.5,0-4.3-2-4.3-4.4
				c0-2.3,1.8-4.4,4.2-4.4c2.6,0,4,1.9,4,4.4c0,0.1,0,0.3,0,0.4H1118.1z M1123.8,970.5c-0.2-1.6-1.1-2.7-2.8-2.7
				c-1.5,0-2.7,1.2-2.9,2.7H1123.8z"/>
			<path d="M1137,974.5c1.9,0,2.6-1.4,2.9-2.1l1.2,0.4c-0.4,1.3-1.8,2.8-4,2.8c-2.5,0-4.4-1.8-4.4-4.4c0-2.6,2-4.5,4.4-4.5
				c2,0,3.6,1.3,3.9,2.7l-1.2,0.4c-0.2-0.7-1-2-2.8-2c-1.8,0-3.1,1.5-3.1,3.3C1134,972.9,1135.1,974.5,1137,974.5z"/>
			<path d="M1150.1,970.5c0-1.5-0.8-2.6-2.4-2.6c-1.5,0-2.5,1.2-2.5,2.7v4.9h-1.3v-13h1.3v6c0.7-1.1,1.7-1.7,2.9-1.7
				c2.1,0,3.2,1.4,3.2,3.4v5.3h-1.3V970.5z"/>
			<path d="M1160,969.9c0-1.4-0.8-2.1-2.2-2.1c-1.4,0-2.1,0.9-2.2,1.7l-1.2-0.3c0.1-0.7,1-2.6,3.5-2.6c1.8,0,2.7,0.8,3.1,1.8
				c0.2,0.5,0.3,1.1,0.3,1.4v5.5h-1.2V974h0c-0.7,1.1-1.6,1.7-2.9,1.7c-1.7,0-2.9-1.1-2.9-2.5V973c0-1.9,1.9-2.5,3.4-2.5h2.4V969.9z
				 M1157.7,971.6c-0.9,0-2.1,0.3-2.1,1.4c0,1,0.8,1.5,1.8,1.5c1.5,0,2.7-1.1,2.7-2.6v-0.3H1157.7z"/>
			<path d="M1170.9,970.5c0-1.5-0.8-2.6-2.4-2.6c-1.5,0-2.5,1.2-2.5,2.7v4.9h-1.3v-8.6h1.2v1.6c0.7-1.2,1.7-1.7,3-1.7
				c2.1,0,3.2,1.4,3.2,3.4v5.3h-1.3V970.5z"/>
			<path d="M1182.4,973.6c-0.7,1.1-1.7,1.9-3.3,1.9c-2.5,0-4-2-4-4.4c0-2.2,1.6-4.4,4-4.4c1.7,0,2.7,0.9,3.3,1.9v-1.8h1.2v8.6
				c0,2.8-1.7,4.2-4.3,4.2c-2.2,0-3.8-1.1-4.2-2.9l1.2-0.4c0.3,1,1.1,2.2,3.1,2.2c1.7,0,3.1-0.9,3.1-3.1V973.6z M1182.4,971.1
				c0-1.7-1.3-3.3-3.1-3.3c-1.9,0-3,1.4-3,3.3c0,1.8,1.1,3.2,3,3.2C1181.2,974.4,1182.4,972.9,1182.4,971.1z"/>
			<path d="M1187.9,971.6c0.1,1.7,1.4,2.9,3.1,2.9c1.3,0,2.2-0.6,2.6-1.8l1.1,0.4c-0.5,1.7-2.1,2.6-3.8,2.6c-2.5,0-4.3-2-4.3-4.4
				c0-2.3,1.8-4.4,4.2-4.4c2.6,0,4,1.9,4,4.4c0,0.1,0,0.3,0,0.4H1187.9z M1193.6,970.5c-0.2-1.6-1.1-2.7-2.8-2.7
				c-1.5,0-2.7,1.2-2.9,2.7H1193.6z"/>
			<path d="M1200.4,975.6c-2.3,0-3.1-1.6-3.3-2.5l1.2-0.3c0.2,0.8,0.8,1.7,2.1,1.7c0.9,0,1.8-0.5,1.8-1.4c0-1-1.1-1.3-2-1.4
				c-1.4-0.2-2.8-0.7-2.8-2.4c0-1.6,1.5-2.5,2.9-2.5c2.3,0,3,1.5,3.1,2.3l-1.1,0.3c-0.1-0.6-0.6-1.5-2-1.5c-0.9,0-1.6,0.6-1.6,1.4
				c0,1.1,1.2,1.2,2,1.3c1.4,0.2,2.8,0.9,2.8,2.5C1203.5,974.6,1202.1,975.6,1200.4,975.6z"/>
			<path d="M1213.6,975.5l-2.9-8.6h1.3l2.2,7.1h0l2.3-7.1h1.2l2.3,7.1h0l2.3-7.1h1.3l-2.9,8.6h-1.4l-2.3-7h0l-2.3,7H1213.6z"/>
			<path d="M1227,962.9c0.5,0,0.9,0.4,0.9,0.9c0,0.5-0.4,0.9-0.9,0.9c-0.5,0-0.9-0.4-0.9-0.9C1226.1,963.3,1226.5,962.9,1227,962.9z
				 M1227.7,966.9v8.6h-1.3v-8.6H1227.7z"/>
			<path d="M1232.6,962.4v13.1h-1.3v-13.1H1232.6z"/>
			<path d="M1237.5,962.4v13.1h-1.3v-13.1H1237.5z"/>
			<path d="M1252.5,970.5c0-1.5-0.8-2.6-2.4-2.6c-1.5,0-2.5,1.2-2.5,2.7v4.9h-1.3v-8.6h1.2v1.6c0.7-1.2,1.7-1.7,2.9-1.7
				c2.1,0,3.2,1.4,3.2,3.4v5.3h-1.3V970.5z"/>
			<path d="M1256.6,971.2c0-2.5,1.9-4.5,4.4-4.5c2.5,0,4.4,1.9,4.4,4.4c0,2.5-1.9,4.5-4.4,4.5
				C1258.6,975.6,1256.6,973.6,1256.6,971.2z M1264.2,971.2c0-1.8-1.3-3.4-3.2-3.4c-1.9,0-3.1,1.5-3.1,3.3c0,1.8,1.3,3.3,3.2,3.3
				C1262.9,974.5,1264.2,973,1264.2,971.2z"/>
			<path d="M1268.9,973.2V968h-1.6v-1.1h1.6v-2.5h1.2v2.5h2.2v1.1h-2.2v5.2c0,0.8,0.4,1.2,1.4,1.2c0.3,0,0.6,0,0.8-0.1v1
				c-0.3,0.1-0.8,0.1-1,0.1C1269.5,975.5,1268.9,974.5,1268.9,973.2z"/>
			<path d="M1285.7,969.9c0-1.4-0.8-2.1-2.2-2.1c-1.4,0-2.1,0.9-2.2,1.7l-1.2-0.3c0.1-0.7,1-2.6,3.5-2.6c1.8,0,2.7,0.8,3.1,1.8
				c0.2,0.5,0.3,1.1,0.3,1.4v5.5h-1.2V974h0c-0.7,1.1-1.6,1.7-2.9,1.7c-1.7,0-2.9-1.1-2.9-2.5V973c0-1.9,1.9-2.5,3.4-2.5h2.4V969.9z
				 M1283.3,971.6c-0.9,0-2.1,0.3-2.1,1.4c0,1,0.8,1.5,1.8,1.5c1.5,0,2.7-1.1,2.7-2.6v-0.3H1283.3z"/>
			<path d="M1297.4,965.3v1.6h2.2v1.1h-2.2v7.5h-1.2V968h-3.9v7.5h-1.3V968h-1.6v-1.1h1.6v-1.6c0-2,1.1-2.9,2.6-2.9
				c0.2,0,0.6,0,0.9,0.2v1.1c-0.3-0.1-0.7-0.1-0.9-0.1c-0.6,0-1.4,0.4-1.4,1.8v1.6h3.9v-1.6c0-2,1.1-2.9,2.6-2.9
				c0.2,0,0.6,0,0.9,0.2v1.1c-0.3-0.1-0.7-0.1-0.9-0.1C1298.2,963.5,1297.4,963.8,1297.4,965.3z"/>
			<path d="M1302.5,971.6c0.1,1.7,1.4,2.9,3.1,2.9c1.3,0,2.2-0.6,2.6-1.8l1.1,0.4c-0.5,1.7-2.1,2.6-3.8,2.6c-2.5,0-4.3-2-4.3-4.4
				c0-2.3,1.8-4.4,4.2-4.4c2.6,0,4,1.9,4,4.4c0,0.1,0,0.3,0,0.4H1302.5z M1308.2,970.5c-0.2-1.6-1.1-2.7-2.8-2.7
				c-1.5,0-2.7,1.2-2.9,2.7H1308.2z"/>
			<path d="M1316.2,974.5c1.9,0,2.6-1.4,2.9-2.1l1.2,0.4c-0.4,1.3-1.8,2.8-4,2.8c-2.5,0-4.4-1.8-4.4-4.4c0-2.6,2-4.5,4.4-4.5
				c2,0,3.6,1.3,3.9,2.7l-1.2,0.4c-0.2-0.7-1-2-2.8-2c-1.8,0-3.1,1.5-3.1,3.3C1313.1,972.9,1314.2,974.5,1316.2,974.5z"/>
			<path d="M1323.5,973.2V968h-1.6v-1.1h1.6v-2.5h1.2v2.5h2.2v1.1h-2.2v5.2c0,0.8,0.4,1.2,1.4,1.2c0.3,0,0.6,0,0.8-0.1v1
				c-0.3,0.1-0.8,0.1-1,0.1C1324.1,975.5,1323.5,974.5,1323.5,973.2z"/>
			<path d="M1101.2,989.7c0-1.4-0.7-2.6-2.2-2.6c-1.5,0-2.4,1.3-2.4,2.7v4.9h-1.3v-8.6h1.2v1.5c0.7-1,1.5-1.7,2.8-1.7
				c1.3,0,2.2,0.6,2.7,1.7c0.7-1.1,1.7-1.7,3-1.7c2.1,0,3.2,1.4,3.2,3.4v5.3h-1.3v-5c0-1.4-0.6-2.6-2.2-2.6c-1.5,0-2.4,1.2-2.4,2.6
				v4.9h-1.2V989.7z"/>
			<path d="M1114.4,994.1l-3.9-8h1.4l3.1,6.6l3-6.6h1.3l-5.9,12.8h-1.3L1114.4,994.1z"/>
			<path d="M1126.2,990.4c0-2.5,1.9-4.5,4.4-4.5c2.5,0,4.4,1.9,4.4,4.4c0,2.5-1.9,4.5-4.4,4.5
				C1128.1,994.8,1126.2,992.9,1126.2,990.4z M1133.7,990.4c0-1.8-1.3-3.4-3.2-3.4c-1.9,0-3.1,1.5-3.1,3.3c0,1.8,1.3,3.3,3.2,3.3
				C1132.4,993.7,1133.7,992.2,1133.7,990.4z"/>
			<path d="M1139.2,987.8c0.6-1.3,1.8-1.8,2.8-1.8c0.1,0,0.3,0,0.4,0v1.3c-0.2,0-0.3,0-0.5,0c-2,0-2.7,1.7-2.7,3.2v4.2h-1.3v-8.6
				h1.2V987.8z"/>
			<path d="M1151.3,992.8c-0.7,1.1-1.7,1.9-3.3,1.9c-2.5,0-4-2-4-4.4c0-2.2,1.6-4.4,4-4.4c1.7,0,2.7,0.9,3.3,1.9v-1.8h1.2v8.6
				c0,2.8-1.7,4.2-4.3,4.2c-2.2,0-3.8-1.1-4.2-2.9l1.2-0.4c0.3,1,1.1,2.2,3.1,2.2c1.7,0,3.1-0.9,3.1-3.1V992.8z M1151.3,990.3
				c0-1.7-1.3-3.3-3.1-3.3c-1.9,0-3,1.4-3,3.3c0,1.8,1.1,3.2,3,3.2C1150.1,993.6,1151.3,992.1,1151.3,990.3z"/>
			<path d="M1161.3,989.2c0-1.4-0.8-2.1-2.2-2.1c-1.4,0-2.1,0.9-2.2,1.7l-1.2-0.3c0.1-0.7,1-2.6,3.5-2.6c1.8,0,2.7,0.8,3.1,1.8
				c0.2,0.5,0.3,1.1,0.3,1.4v5.5h-1.2v-1.5h0c-0.7,1.1-1.6,1.7-2.9,1.7c-1.7,0-2.9-1.1-2.9-2.5v-0.1c0-1.9,1.9-2.5,3.4-2.5h2.4
				V989.2z M1158.9,990.8c-0.9,0-2.1,0.3-2.1,1.4c0,1,0.8,1.5,1.8,1.5c1.5,0,2.7-1.1,2.7-2.6v-0.3H1158.9z"/>
			<path d="M1172.2,989.7c0-1.5-0.8-2.6-2.4-2.6c-1.5,0-2.5,1.2-2.5,2.7v4.9h-1.3v-8.6h1.2v1.6c0.7-1.2,1.7-1.7,2.9-1.7
				c2.1,0,3.2,1.4,3.2,3.4v5.3h-1.3V989.7z"/>
			<path d="M1177.6,982.1c0.5,0,0.9,0.4,0.9,0.9c0,0.5-0.4,0.9-0.9,0.9c-0.5,0-0.9-0.4-0.9-0.9
				C1176.7,982.5,1177.1,982.1,1177.6,982.1z M1178.3,986.1v8.6h-1.3v-8.6H1178.3z"/>
			<path d="M1184.5,994.8c-2.3,0-3.1-1.6-3.3-2.5l1.2-0.3c0.2,0.8,0.8,1.7,2.1,1.7c0.9,0,1.8-0.5,1.8-1.4c0-1-1.1-1.3-2-1.4
				c-1.4-0.2-2.8-0.7-2.8-2.4c0-1.6,1.5-2.5,2.9-2.5c2.3,0,3,1.5,3.1,2.3l-1.1,0.3c-0.1-0.6-0.6-1.5-2-1.5c-0.9,0-1.6,0.6-1.6,1.4
				c0,1.1,1.2,1.2,2,1.3c1.4,0.2,2.8,0.9,2.8,2.5C1187.5,993.8,1186.1,994.8,1184.5,994.8z"/>
			<path d="M1195.7,989.2c0-1.4-0.8-2.1-2.2-2.1c-1.4,0-2.1,0.9-2.2,1.7l-1.2-0.3c0.1-0.7,1-2.6,3.5-2.6c1.8,0,2.7,0.8,3.1,1.8
				c0.2,0.5,0.3,1.1,0.3,1.4v5.5h-1.2v-1.5h0c-0.7,1.1-1.6,1.7-2.9,1.7c-1.7,0-2.9-1.1-2.9-2.5v-0.1c0-1.9,1.9-2.5,3.4-2.5h2.4
				V989.2z M1193.3,990.8c-0.9,0-2.1,0.3-2.1,1.4c0,1,0.8,1.5,1.8,1.5c1.5,0,2.7-1.1,2.7-2.6v-0.3H1193.3z"/>
			<path d="M1200.9,992.5v-5.2h-1.6v-1.1h1.6v-2.5h1.2v2.5h2.2v1.1h-2.2v5.2c0,0.8,0.4,1.2,1.4,1.2c0.3,0,0.6,0,0.8-0.1v1
				c-0.3,0.1-0.8,0.1-1,0.1C1201.5,994.7,1200.9,993.7,1200.9,992.5z"/>
			<path d="M1207.9,982.1c0.5,0,0.9,0.4,0.9,0.9c0,0.5-0.4,0.9-0.9,0.9c-0.5,0-0.9-0.4-0.9-0.9
				C1207,982.5,1207.4,982.1,1207.9,982.1z M1208.5,986.1v8.6h-1.3v-8.6H1208.5z"/>
			<path d="M1211.5,990.4c0-2.5,1.9-4.5,4.4-4.5c2.5,0,4.4,1.9,4.4,4.4c0,2.5-1.9,4.5-4.4,4.5
				C1213.4,994.8,1211.5,992.9,1211.5,990.4z M1219.1,990.4c0-1.8-1.3-3.4-3.2-3.4s-3.1,1.5-3.1,3.3c0,1.8,1.3,3.3,3.2,3.3
				C1217.8,993.7,1219.1,992.2,1219.1,990.4z"/>
			<path d="M1229.5,989.7c0-1.5-0.8-2.6-2.4-2.6c-1.5,0-2.5,1.2-2.5,2.7v4.9h-1.3v-8.6h1.2v1.6c0.7-1.2,1.7-1.7,2.9-1.7
				c2.1,0,3.2,1.4,3.2,3.4v5.3h-1.3V989.7z"/>
		</g>
	</g>
	<g class="st3">
		<circle cx="1065.7" cy="980.4" r="15.3"/>
	</g>
	<path class="st6" d="M727.3,299.1c104.4,0,192.2,70.8,218.1,167l119.6-32C1023.1,277.4,889.5,175,727.3,175L727.3,299.1
		L727.3,299.1z"/>
	<g>
		<pattern  id="SVGID_2_" xlink:href="#Unnamed_Pattern_4" patternTransform="matrix(0 1.1442 -1.0985 0 -21795.8145 77.0343)">
		</pattern>
		<path class="st8" d="M1065.1,434.1l-119.6,32c5,18.8,7.8,38.5,7.8,58.8c0,124.8-101.1,225.9-225.9,225.9
			c-44.1,0-85.2-12.6-119.9-34.4L542,821.2c85.2,53.2,178.8,67.2,275.8,41.2C1004.4,812.4,1115.1,620.7,1065.1,434.1z"/>
	</g>
	<g class="st3">
		<path d="M501.4,525c0-85.1,47-159.2,116.5-197.7l-60.2-108.5c-54,30-94.3,68.1-127,120.5C328.5,503.1,378.3,718.8,542,821.2
			l65.4-104.7C543.8,676.5,501.4,605.7,501.4,525z"/>
	</g>
	<g>
		<path class="st5" d="M727.3,299.1V175c-61.8,0-115.5,13.9-169.5,43.8L618,327.3C650.4,309.4,687.6,299.1,727.3,299.1z"/>
	</g>
	<g class="st3">
		<path d="M886.2,300.7c0-1.7,0.8-3.5,3.3-5l2.2-1.4c1.4-0.8,2.5-1.7,2.5-3.4c0-1.5-1.3-2.9-3.2-2.9c-1.6,0-2.6,0.9-2.9,1.8
			c-0.3,0.6-0.3,1.2-0.3,1.4l-1.5-0.2c0-2,1.7-4.4,4.8-4.4c2.7,0,4.7,2,4.7,4.2c0,2-1.1,3.2-3,4.4l-2.3,1.4
			c-1.2,0.8-2.4,1.8-2.5,3.1h7.9v1.4h-9.7V300.7z"/>
		<path d="M901.3,288.4l-3.4,2.1l-0.7-1.1l4.2-2.5h1.5v14.3h-1.5V288.4z"/>
		<path d="M907.1,295.7c-1,0-1.9-0.8-1.9-1.9c0-1,0.8-1.9,1.9-1.9c1,0,1.9,0.8,1.9,1.9C909,294.9,908.1,295.7,907.1,295.7z
			 M907.1,292.7c-0.7,0-1.2,0.5-1.2,1.2c0,0.7,0.5,1.2,1.2,1.2c0.7,0,1.2-0.5,1.2-1.2C908.3,293.2,907.7,292.7,907.1,292.7z
			 M911.7,292.1h0.9l-5.5,8.4h-0.8L911.7,292.1z M911.7,300.5c-1,0-1.9-0.8-1.9-1.9c0-1,0.8-1.9,1.9-1.9c1,0,1.9,0.8,1.9,1.9
			C913.6,299.6,912.8,300.5,911.7,300.5z M911.7,297.4c-0.7,0-1.2,0.5-1.2,1.2c0,0.7,0.5,1.2,1.2,1.2c0.7,0,1.2-0.5,1.2-1.2
			C912.9,297.9,912.4,297.4,911.7,297.4z"/>
	</g>
	<g>
		<path class="st5" d="M433.6,527.9c-2.5,0-4.7-1.5-4.9-3.9l1.4-0.3c0.3,1.6,1.5,2.9,3.5,2.9c1.9,0,3.5-1.1,3.5-2.7
			c0-1.6-1.2-2.7-3.5-2.7h-1.4v-1.4h1.4c2,0,3.2-1.2,3.2-2.6c0-1.5-1.1-2.5-3.2-2.5c-2,0-3.1,1.2-3.4,2.7l-1.4-0.3
			c0.3-2,2.1-3.8,4.8-3.8c3.1,0,4.7,1.9,4.7,3.8c0,1.6-0.9,2.7-2.3,3.3v0c1.6,0.5,2.6,1.7,2.6,3.4
			C438.5,526,436.6,527.9,433.6,527.9z"/>
		<path class="st5" d="M445.4,527.9c-2.5,0-4.7-1.5-4.9-3.9l1.4-0.3c0.3,1.6,1.5,2.9,3.5,2.9c1.9,0,3.5-1.1,3.5-2.7
			c0-1.6-1.2-2.7-3.5-2.7H444v-1.4h1.4c2,0,3.2-1.2,3.2-2.6c0-1.5-1.1-2.5-3.2-2.5c-2,0-3.1,1.2-3.4,2.7l-1.4-0.3
			c0.3-2,2.1-3.8,4.8-3.8c3.1,0,4.7,1.9,4.7,3.8c0,1.6-0.9,2.7-2.3,3.3v0c1.6,0.5,2.6,1.7,2.6,3.4
			C450.4,526,448.4,527.9,445.4,527.9z"/>
		<path class="st5" d="M453.8,522.3c-1,0-1.9-0.8-1.9-1.9c0-1,0.8-1.9,1.9-1.9c1,0,1.9,0.8,1.9,1.9
			C455.7,521.5,454.8,522.3,453.8,522.3z M453.8,519.2c-0.7,0-1.2,0.5-1.2,1.2c0,0.7,0.5,1.2,1.2,1.2c0.7,0,1.2-0.5,1.2-1.2
			C454.9,519.8,454.4,519.2,453.8,519.2z M458.4,518.6h0.9l-5.5,8.4h-0.8L458.4,518.6z M458.4,527c-1,0-1.9-0.8-1.9-1.9
			c0-1,0.8-1.9,1.9-1.9c1,0,1.9,0.8,1.9,1.9C460.3,526.2,459.4,527,458.4,527z M458.4,524c-0.7,0-1.2,0.5-1.2,1.2
			c0,0.7,0.5,1.2,1.2,1.2s1.2-0.5,1.2-1.2C459.6,524.5,459,524,458.4,524z"/>
	</g>
	<g class="st3">
		<path d="M875,762.4c-2.5,0-4.7-1.5-4.9-3.9l1.4-0.3c0.3,1.6,1.5,2.9,3.5,2.9c1.9,0,3.5-1.1,3.5-2.7c0-1.6-1.2-2.7-3.5-2.7h-1.4
			v-1.4h1.4c2,0,3.2-1.2,3.2-2.6c0-1.5-1.1-2.5-3.2-2.5c-2,0-3.1,1.2-3.4,2.7l-1.4-0.3c0.3-2,2.1-3.8,4.8-3.8c3.1,0,4.7,1.9,4.7,3.8
			c0,1.6-0.9,2.7-2.3,3.3v0c1.6,0.5,2.6,1.7,2.6,3.4C880,760.6,878.1,762.4,875,762.4z"/>
		<path d="M882.2,758.4c0-1.5,1.1-2.9,3-3.5c-1.8-0.5-2.7-2.1-2.7-3.3c0-2.5,2.6-3.8,4.7-3.8c2.2,0,4.7,1.3,4.7,3.8
			c0,1.4-1,2.8-2.7,3.3c2,0.6,3,2,3,3.5c0,2.6-2.5,4.1-5,4.1C884.8,762.5,882.2,761.1,882.2,758.4z M890.7,758.4
			c0-1.9-2-2.8-3.5-2.8c-1.5,0-3.5,0.9-3.5,2.7c0,1.9,2,2.7,3.5,2.7C888.7,761.1,890.7,760.3,890.7,758.4z M884,751.7
			c0,1.8,2,2.6,3.2,2.6c1.2,0,3.2-0.8,3.2-2.6c0-1.7-1.8-2.5-3.2-2.5C885.9,749.2,884,750,884,751.7z"/>
		<path d="M895.6,756.9c-1,0-1.9-0.8-1.9-1.9c0-1,0.8-1.9,1.9-1.9c1,0,1.9,0.8,1.9,1.9C897.5,756,896.7,756.9,895.6,756.9z
			 M895.6,753.8c-0.7,0-1.2,0.5-1.2,1.2c0,0.7,0.5,1.2,1.2,1.2c0.7,0,1.2-0.5,1.2-1.2C896.8,754.3,896.3,753.8,895.6,753.8z
			 M900.3,753.2h0.9l-5.5,8.4h-0.8L900.3,753.2z M900.3,761.6c-1,0-1.9-0.8-1.9-1.9c0-1,0.8-1.9,1.9-1.9c1,0,1.9,0.8,1.9,1.9
			C902.2,760.8,901.3,761.6,900.3,761.6z M900.3,758.5c-0.7,0-1.2,0.5-1.2,1.2c0,0.7,0.5,1.2,1.2,1.2c0.7,0,1.2-0.5,1.2-1.2
			C901.5,759.1,900.9,758.5,900.3,758.5z"/>
	</g>
	<g class="st3">
		<path d="M646.3,251.5c0-1.5,1.1-2.9,3-3.5c-1.8-0.5-2.7-2.1-2.7-3.3c0-2.5,2.6-3.8,4.7-3.8c2.2,0,4.7,1.3,4.7,3.8
			c0,1.4-1,2.8-2.7,3.3c2,0.6,3,2,3,3.5c0,2.6-2.5,4.1-5,4.1C648.8,255.6,646.3,254.2,646.3,251.5z M654.8,251.5
			c0-1.9-2-2.8-3.5-2.8c-1.5,0-3.5,0.9-3.5,2.7c0,1.9,2,2.7,3.5,2.7C652.8,254.2,654.8,253.4,654.8,251.5z M648.1,244.8
			c0,1.8,2,2.6,3.2,2.6c1.2,0,3.2-0.8,3.2-2.6c0-1.7-1.8-2.5-3.2-2.5C649.9,242.3,648.1,243.1,648.1,244.8z"/>
		<path d="M659.7,250c-1,0-1.9-0.8-1.9-1.9c0-1,0.8-1.9,1.9-1.9c1,0,1.9,0.8,1.9,1.9C661.6,249.1,660.8,250,659.7,250z M659.7,246.9
			c-0.7,0-1.2,0.5-1.2,1.2c0,0.7,0.5,1.2,1.2,1.2c0.7,0,1.2-0.5,1.2-1.2C660.9,247.4,660.4,246.9,659.7,246.9z M664.3,246.3h0.9
			l-5.5,8.4h-0.8L664.3,246.3z M664.3,254.7c-1,0-1.9-0.8-1.9-1.9c0-1,0.8-1.9,1.9-1.9c1,0,1.9,0.8,1.9,1.9
			C666.2,253.9,665.4,254.7,664.3,254.7z M664.3,251.6c-0.7,0-1.2,0.5-1.2,1.2c0,0.7,0.5,1.2,1.2,1.2c0.7,0,1.2-0.5,1.2-1.2
			C665.5,252.2,665,251.6,664.3,251.6z"/>
	</g>
	<g>
		<g>
			<path d="M148.4,65.5l-3,1.8l-0.6-1l3.6-2.2h1.3v12.5h-1.3V65.5z"/>
			<path d="M152.4,73.2c0-1.3,0.9-2.5,2.6-3c-1.6-0.4-2.3-1.8-2.3-2.9c0-2.2,2.3-3.3,4.1-3.3c1.9,0,4.1,1.1,4.1,3.3
				c0,1.2-0.8,2.4-2.3,2.9c1.7,0.5,2.6,1.7,2.6,3c0,2.3-2.2,3.6-4.4,3.6C154.6,76.7,152.4,75.6,152.4,73.2z M159.9,73.2
				c0-1.6-1.7-2.4-3.1-2.4c-1.3,0-3.1,0.8-3.1,2.4c0,1.7,1.7,2.4,3.1,2.4C158.1,75.5,159.9,74.8,159.9,73.2z M154,67.3
				c0,1.6,1.7,2.3,2.8,2.3s2.8-0.7,2.8-2.3c0-1.5-1.6-2.2-2.8-2.2C155.6,65.1,154,65.9,154,67.3z"/>
			<path d="M175.1,64.2c6.7,0,11.3,4.6,11.3,10.7c0,6.4-5.1,10.8-11.3,10.8h-6.4V64.2H175.1z M175.1,83.6c5.4,0,9.1-3.6,9.1-8.6
				c0-4.9-3.5-8.7-9.1-8.7h-4v17.3H175.1z"/>
			<path d="M189.3,78.5c0-4.3,3.3-7.6,7.6-7.6c4.2,0,7.6,3.3,7.6,7.5c0,4.3-3.3,7.6-7.6,7.6C192.6,86,189.3,82.6,189.3,78.5z
				 M202.3,78.5c0-3.1-2.2-5.8-5.4-5.8c-3.2,0-5.4,2.6-5.4,5.7c0,3.1,2.2,5.7,5.4,5.7C200,84.1,202.3,81.5,202.3,78.5z"/>
			<path d="M220.1,84.8l-6.7-13.7h2.5l5.4,11.3l5.1-11.3h2.3L218.6,93h-2.3L220.1,84.8z"/>
			<path d="M230,78.5c0-4.3,3.3-7.6,7.6-7.6c4.2,0,7.6,3.3,7.6,7.5c0,4.3-3.3,7.6-7.6,7.6C233.3,86,230,82.6,230,78.5z M242.9,78.5
				c0-3.1-2.2-5.8-5.4-5.8c-3.2,0-5.4,2.6-5.4,5.7c0,3.1,2.2,5.7,5.4,5.7C240.7,84.1,242.9,81.5,242.9,78.5z"/>
			<path d="M250.8,79.6c0,2.6,1.3,4.4,4.1,4.4c2.6,0,4.4-2,4.4-4.6v-8.4h2.1v14.7h-2.1V83c-1.2,2-2.9,3-5,3c-3.6,0-5.5-2.4-5.5-5.9
				v-9.1h2.1V79.6z"/>
			<path d="M284.5,77.2c0-2.6-1.3-4.4-4.1-4.4c-2.6,0-4.4,2-4.4,4.6v8.3h-2.1V63.4h2.1v10.3c1.2-1.9,2.9-2.9,5-2.9
				c3.6,0,5.5,2.4,5.5,5.9v9.1h-2.1V77.2z"/>
			<path d="M300.1,76.3c0-2.4-1.3-3.6-3.7-3.6c-2.5,0-3.6,1.6-3.8,3l-2.1-0.4c0.1-1.2,1.8-4.4,6-4.4c3.1,0,4.6,1.4,5.4,3
				c0.3,0.8,0.4,1.9,0.4,2.4v9.5h-2.1v-2.6h0c-1.2,1.8-2.7,2.8-4.9,2.8c-3,0-4.9-1.8-4.9-4.3v-0.2c0-3.2,3.2-4.2,5.8-4.2h4.1V76.3z
				 M296,79c-1.6,0-3.6,0.5-3.6,2.5c0,1.6,1.4,2.6,3.2,2.6c2.6,0,4.6-1.8,4.6-4.5V79H296z"/>
			<path d="M304.7,71.1h2.4l5,12.3l5.1-12.3h2.3l-6.3,14.7h-2.3L304.7,71.1z"/>
			<path d="M323.1,79.1c0.2,2.9,2.4,5,5.2,5c2.2,0,3.8-1.1,4.5-3.1l1.9,0.6c-0.9,2.8-3.5,4.4-6.4,4.4c-4.3,0-7.4-3.4-7.4-7.6
				c0-4,3-7.6,7.1-7.6c4.5,0,6.9,3.2,6.9,7.5c0,0.2,0,0.5,0,0.7H323.1z M332.8,77.3c-0.3-2.7-1.9-4.6-4.8-4.6
				c-2.6,0-4.6,2.1-4.9,4.6H332.8z"/>
			<path d="M355.2,76.3c0-2.4-1.3-3.6-3.7-3.6c-2.5,0-3.6,1.6-3.8,3l-2.1-0.4c0.1-1.2,1.8-4.4,6-4.4c3.1,0,4.6,1.4,5.4,3
				c0.3,0.8,0.4,1.9,0.4,2.4v9.5h-2.1v-2.6h0c-1.2,1.8-2.7,2.8-4.9,2.8c-3,0-4.9-1.8-4.9-4.3v-0.2c0-3.2,3.2-4.2,5.8-4.2h4.1V76.3z
				 M351.1,79c-1.6,0-3.6,0.5-3.6,2.5c0,1.6,1.4,2.6,3.2,2.6c2.6,0,4.6-1.8,4.6-4.5V79H351.1z"/>
			<path d="M372.5,77.2c0-2.6-1.3-4.4-4.1-4.4c-2.6,0-4.4,2-4.4,4.6v8.3h-2.1V71.1h2.1v2.7c1.2-2,2.9-3,5.1-3c3.6,0,5.5,2.4,5.5,5.9
				v9.1h-2.1V77.2z"/>
			<path d="M383.6,84.8L377,71.1h2.5l5.4,11.3l5.1-11.3h2.3L382.1,93h-2.3L383.6,84.8z"/>
			<path d="M408.6,84.1c3.2,0,4.5-2.4,4.9-3.5l2,0.7c-0.7,2.2-3.1,4.8-6.9,4.8c-4.2,0-7.5-3.1-7.5-7.5c0-4.4,3.4-7.6,7.6-7.6
				c3.4,0,6.1,2.2,6.7,4.7l-2,0.6c-0.3-1.1-1.8-3.4-4.8-3.4c-3.1,0-5.3,2.6-5.3,5.6S405.3,84.1,408.6,84.1z"/>
			<path d="M418,78.5c0-4.3,3.3-7.6,7.6-7.6c4.2,0,7.6,3.3,7.6,7.5c0,4.3-3.3,7.6-7.6,7.6C421.3,86,418,82.6,418,78.5z M431,78.5
				c0-3.1-2.2-5.8-5.4-5.8s-5.4,2.6-5.4,5.7c0,3.1,2.2,5.7,5.4,5.7C428.8,84.1,431,81.5,431,78.5z"/>
			<path d="M447.5,77.2c0-2.6-1.3-4.4-4.1-4.4c-2.6,0-4.4,2-4.4,4.6v8.3H437V71.1h2.1v2.7c1.2-2,2.9-3,5.1-3c3.6,0,5.5,2.4,5.5,5.9
				v9.1h-2.1V77.2z"/>
			<path d="M460.7,84.1c3.2,0,4.5-2.4,4.9-3.5l2,0.7c-0.7,2.2-3.1,4.8-6.9,4.8c-4.2,0-7.5-3.1-7.5-7.5c0-4.4,3.4-7.6,7.6-7.6
				c3.4,0,6.1,2.2,6.7,4.7l-2,0.6c-0.3-1.1-1.8-3.4-4.8-3.4c-3.1,0-5.3,2.6-5.3,5.6S457.4,84.1,460.7,84.1z"/>
			<path d="M472.3,79.1c0.2,2.9,2.4,5,5.2,5c2.2,0,3.8-1.1,4.5-3.1l1.9,0.6c-0.9,2.8-3.5,4.4-6.4,4.4c-4.3,0-7.4-3.4-7.4-7.6
				c0-4,3-7.6,7.1-7.6c4.5,0,6.9,3.2,6.9,7.5c0,0.2,0,0.5,0,0.7H472.3z M482,77.3c-0.3-2.7-1.9-4.6-4.8-4.6c-2.6,0-4.6,2.1-4.9,4.6
				H482z"/>
			<path d="M490,74c1.1-2.3,3-3.1,4.7-3.1c0.1,0,0.5,0,0.7,0v2.3c-0.3,0-0.5-0.1-0.8-0.1c-3.5,0-4.6,2.9-4.6,5.5v7.2h-2.1V71.1h2.1
				V74z"/>
			<path d="M508.9,77.2c0-2.6-1.3-4.4-4.1-4.4c-2.6,0-4.4,2-4.4,4.6v8.3h-2.1V71.1h2.1v2.7c1.2-2,2.9-3,5.1-3c3.6,0,5.5,2.4,5.5,5.9
				v9.1h-2.1V77.2z"/>
			<path d="M520.1,86c-4,0-5.3-2.7-5.6-4.3l2-0.5c0.3,1.3,1.3,2.9,3.6,2.9c1.6,0,3-0.9,3-2.4c0-1.8-1.9-2.2-3.4-2.4
				c-2.4-0.4-4.8-1.2-4.8-4.1c0-2.7,2.5-4.4,4.9-4.4c3.9,0,5.1,2.6,5.3,4l-1.9,0.5c-0.2-1-1-2.6-3.4-2.6c-1.6,0-2.8,1.1-2.8,2.3
				c0,1.8,2,2.1,3.5,2.3c2.4,0.3,4.8,1.6,4.8,4.2C525.3,84.3,523,86,520.1,86z"/>
			<path d="M545.6,76.3c0-2.4-1.3-3.6-3.7-3.6c-2.5,0-3.6,1.6-3.8,3l-2.1-0.4c0.1-1.2,1.8-4.4,6-4.4c3.1,0,4.6,1.4,5.4,3
				c0.3,0.8,0.4,1.9,0.4,2.4v9.5h-2.1v-2.6h0c-1.2,1.8-2.7,2.8-4.9,2.8c-3,0-4.9-1.8-4.9-4.3v-0.2c0-3.2,3.2-4.2,5.8-4.2h4.1V76.3z
				 M541.6,79c-1.6,0-3.6,0.5-3.6,2.5c0,1.6,1.4,2.6,3.2,2.6c2.6,0,4.6-1.8,4.6-4.5V79H541.6z"/>
			<path d="M554.5,74c1.1-2.3,3-3.1,4.7-3.1c0.1,0,0.5,0,0.7,0v2.3c-0.3,0-0.5-0.1-0.8-0.1c-3.5,0-4.6,2.9-4.6,5.5v7.2h-2.1V71.1
				h2.1V74z"/>
			<path d="M561.2,78.5c0-4.3,3.3-7.6,7.6-7.6c4.2,0,7.6,3.3,7.6,7.5c0,4.3-3.3,7.6-7.6,7.6C564.5,86,561.2,82.6,561.2,78.5z
				 M574.2,78.5c0-3.1-2.2-5.8-5.4-5.8s-5.4,2.6-5.4,5.7c0,3.1,2.2,5.7,5.4,5.7C572,84.1,574.2,81.5,574.2,78.5z"/>
			<path d="M582.1,79.6c0,2.6,1.3,4.4,4.1,4.4c2.6,0,4.4-2,4.4-4.6v-8.4h2.1v14.7h-2.1V83c-1.2,2-2.9,3-5,3c-3.6,0-5.5-2.4-5.5-5.9
				v-9.1h2.1V79.6z"/>
			<path d="M608.1,77.2c0-2.6-1.3-4.4-4.1-4.4c-2.6,0-4.4,2-4.4,4.6v8.3h-2.1V71.1h2.1v2.7c1.2-2,2.9-3,5.1-3c3.6,0,5.5,2.4,5.5,5.9
				v9.1h-2.1V77.2z"/>
			<path d="M620.7,70.8c2.8,0,4.5,1.6,5.7,3.3V63.4h2.1v22.4h-2.1v-3.1c-1.1,1.9-2.9,3.4-5.7,3.4c-4.2,0-6.9-3.6-6.9-7.6
				C613.8,74.6,616.6,70.8,620.7,70.8z M626.4,78.4c0-2.9-2.2-5.6-5.3-5.6c-3.2,0-5.1,2.6-5.1,5.7c0,3,1.9,5.6,5.1,5.6
				C624.2,84.1,626.4,81.4,626.4,78.4z"/>
			<path d="M651.6,77.2c0-2.6-1.3-4.4-4.1-4.4c-2.6,0-4.4,2-4.4,4.6v8.3H641V63.4h2.1v10.3c1.2-1.9,2.9-2.9,5-2.9
				c3.6,0,5.5,2.4,5.5,5.9v9.1h-2.1V77.2z"/>
			<path d="M657.3,78.5c0-4.3,3.3-7.6,7.6-7.6c4.2,0,7.6,3.3,7.6,7.5c0,4.3-3.3,7.6-7.6,7.6C660.6,86,657.3,82.6,657.3,78.5z
				 M670.3,78.5c0-3.1-2.2-5.8-5.4-5.8s-5.4,2.6-5.4,5.7c0,3.1,2.2,5.7,5.4,5.7C668,84.1,670.3,81.5,670.3,78.5z"/>
			<path d="M679.1,85.7l-4.9-14.7h2.3l3.8,12.2h0l4-12.2h2.1l4,12.2h0l3.9-12.2h2.2l-4.9,14.7h-2.4l-3.9-11.9h0l-3.9,11.9H679.1z"/>
			<path d="M189.4,104.1c-0.5-1.8-2.6-5.1-7.4-5.1c-4.9,0-8.4,4.1-8.4,8.8c0,4.9,3.2,8.9,8.5,8.9c3.8,0,7.3-2.3,7.6-6.4h-9v-2.1H192
				v0.8c0,5.4-3.8,9.8-10.1,9.8c-6.5,0-10.7-4.8-10.7-10.9c0-6.2,4.6-11,10.8-11c5.3,0,8.3,3,9.5,6.4L189.4,104.1z"/>
			<path d="M202.7,97.2c6.7,0,11.3,4.6,11.3,10.7c0,6.4-5.1,10.8-11.3,10.8h-6.4V97.2H202.7z M202.6,116.6c5.4,0,9.1-3.6,9.1-8.6
				c0-4.9-3.5-8.7-9.1-8.7h-4v17.3H202.6z"/>
			<path d="M220.7,118.7h-2.3V97.2h7.2c5.2,0,7.6,3.1,7.6,6.5c0,3.7-2.7,6.6-7.9,6.6h-4.6V118.7z M220.7,108.2h4.6
				c4,0,5.5-2.3,5.5-4.5c0-2.1-1.2-4.4-5.4-4.4h-4.8V108.2z"/>
			<path d="M243.8,110h-4.4v8.7h-2.3V97.2h7.4c5.2,0,7.6,2.9,7.6,6.3c0,3.7-2.7,5.7-5.9,6.2l6.6,9.1h-2.7L243.8,110z M244.4,107.9
				c3.9,0,5.5-2.2,5.5-4.4c0-2.1-1.3-4.2-5.4-4.2h-5.1v8.6H244.4z"/>
			<path d="M267.2,118.7l-4.9-14.7h2.3l3.8,12.2h0l4-12.2h2.1l4,12.2h0l3.9-12.2h2.2l-4.9,14.7h-2.4l-3.9-11.9h0l-3.9,11.9H267.2z"
				/>
			<path d="M288.9,97.2c0.9,0,1.6,0.7,1.6,1.6c0,0.9-0.7,1.6-1.6,1.6c-0.9,0-1.6-0.7-1.6-1.6C287.3,97.9,288,97.2,288.9,97.2z
				 M290,104v14.7h-2.2V104H290z"/>
			<path d="M297,96.3v22.4h-2.2V96.3H297z"/>
			<path d="M304,96.3v22.4h-2.2V96.3H304z"/>
			<path d="M317.6,97.2c0.9,0,1.6,0.7,1.6,1.6c0,0.9-0.7,1.6-1.6,1.6c-0.9,0-1.6-0.7-1.6-1.6C316,97.9,316.7,97.2,317.6,97.2z
				 M318.7,104v14.7h-2.2V104H318.7z"/>
			<path d="M333.5,110.1c0-2.4-1.2-4.4-3.8-4.4c-2.6,0-4.1,2.3-4.1,4.6v8.3h-2.1V104h2.1v2.6c1.2-1.8,2.5-2.8,4.7-2.8
				c2.1,0,3.8,1,4.7,2.9c1.2-1.9,2.9-2.9,5.2-2.9c3.5,0,5.4,2.4,5.4,5.8v9.1h-2.1v-8.5c0-2.4-1.1-4.4-3.8-4.4
				c-2.6,0-4.1,2.1-4.1,4.5v8.4h-2.1V110.1z"/>
			<path d="M358.1,118.9c-2.7,0-4.5-1.4-5.7-3.2v10.2h-2.1V104h2.1v3.2c1.2-1.8,2.9-3.4,5.7-3.4c4.2,0,6.9,3.7,6.9,7.6
				C365,115.3,362.2,118.9,358.1,118.9z M362.8,111.4c0-3-1.9-5.7-5.1-5.7c-3,0-5.2,2.7-5.2,5.6c0,3,2.1,5.7,5.2,5.7
				C360.9,117,362.8,114.5,362.8,111.4z"/>
			<path d="M377.6,109.2c0-2.4-1.3-3.6-3.7-3.6c-2.5,0-3.6,1.6-3.8,3l-2.1-0.4c0.1-1.2,1.8-4.4,6-4.4c3.1,0,4.6,1.4,5.4,3
				c0.3,0.8,0.4,1.9,0.4,2.4v9.5h-2.1v-2.6h0c-1.2,1.8-2.7,2.8-4.9,2.8c-3,0-4.9-1.8-4.9-4.3v-0.2c0-3.2,3.2-4.2,5.8-4.2h4.1V109.2z
				 M373.5,112c-1.6,0-3.6,0.5-3.6,2.5c0,1.6,1.4,2.6,3.2,2.6c2.6,0,4.6-1.8,4.6-4.5V112H373.5z"/>
			<path d="M390.8,117c3.2,0,4.5-2.4,4.9-3.5l2,0.7c-0.7,2.2-3.1,4.8-6.9,4.8c-4.2,0-7.5-3.1-7.5-7.5c0-4.4,3.4-7.6,7.6-7.6
				c3.4,0,6.1,2.2,6.7,4.7l-2,0.6c-0.3-1.1-1.8-3.4-4.8-3.4c-3.1,0-5.3,2.6-5.3,5.6C385.5,114.3,387.5,117,390.8,117z"/>
			<path d="M402.1,114.9v-9h-2.7V104h2.7v-4.2h2.1v4.2h3.7v1.9h-3.7v8.9c0,1.3,0.8,2.1,2.4,2.1c0.5,0,1,0,1.3-0.1v1.8
				c-0.4,0.1-1.3,0.2-1.7,0.2C403,118.8,402.1,117,402.1,114.9z"/>
			<path d="M423.4,117.7l-6.7-13.7h2.5l5.4,11.3l5.1-11.3h2.3l-10.1,21.9h-2.3L423.4,117.7z"/>
			<path d="M433.3,111.4c0-4.3,3.3-7.6,7.6-7.6c4.2,0,7.6,3.3,7.6,7.5c0,4.3-3.3,7.6-7.6,7.6C436.6,118.9,433.3,115.6,433.3,111.4z
				 M446.2,111.4c0-3.1-2.2-5.8-5.4-5.8s-5.4,2.6-5.4,5.7c0,3.1,2.2,5.7,5.4,5.7C444,117,446.2,114.5,446.2,111.4z"/>
			<path d="M454.1,112.6c0,2.6,1.3,4.4,4.1,4.4c2.6,0,4.4-2,4.4-4.6V104h2.1v14.7h-2.1V116c-1.2,2-2.9,3-5,3c-3.6,0-5.5-2.4-5.5-5.9
				V104h2.1V112.6z"/>
			<path d="M471.6,106.9c1.1-2.3,3-3.1,4.7-3.1c0.1,0,0.5,0,0.7,0v2.3c-0.3,0-0.5-0.1-0.8-0.1c-3.5,0-4.6,2.9-4.6,5.5v7.2h-2.1V104
				h2.1V106.9z"/>
			<path d="M489.6,97.2v21.5h-2.3V97.2H489.6z"/>
			<path d="M500.4,118.7V99.3h-7.2v-2.1h16.6v2.1h-7.2v19.4H500.4z"/>
			<path d="M518.4,111.4c0-4.3,3.3-7.6,7.6-7.6c4.2,0,7.6,3.3,7.6,7.5c0,4.3-3.3,7.6-7.6,7.6C521.7,118.9,518.4,115.6,518.4,111.4z
				 M531.4,111.4c0-3.1-2.2-5.8-5.4-5.8s-5.4,2.6-5.4,5.7c0,3.1,2.2,5.7,5.4,5.7C529.2,117,531.4,114.5,531.4,111.4z"/>
			<path d="M545.2,118.9c-2.7,0-4.5-1.4-5.7-3.2v10.2h-2.1V104h2.1v3.2c1.2-1.8,2.9-3.4,5.7-3.4c4.2,0,6.9,3.7,6.9,7.6
				C552.1,115.3,549.3,118.9,545.2,118.9z M549.9,111.4c0-3-1.9-5.7-5.1-5.7c-3,0-5.2,2.7-5.2,5.6c0,3,2.1,5.7,5.2,5.7
				C548,117,549.9,114.5,549.9,111.4z"/>
			<path d="M556.9,112c0.2,2.9,2.4,5,5.2,5c2.2,0,3.8-1.1,4.5-3.1l1.9,0.6c-0.9,2.8-3.5,4.4-6.4,4.4c-4.3,0-7.4-3.4-7.4-7.6
				c0-4,3-7.6,7.1-7.6c4.5,0,6.9,3.2,6.9,7.5c0,0.2,0,0.5,0,0.7H556.9z M566.7,110.2c-0.3-2.7-1.9-4.6-4.8-4.6
				c-2.6,0-4.6,2.1-4.9,4.6H566.7z"/>
			<path d="M574.6,106.9c1.1-2.3,3-3.1,4.7-3.1c0.1,0,0.5,0,0.7,0v2.3c-0.3,0-0.5-0.1-0.8-0.1c-3.5,0-4.6,2.9-4.6,5.5v7.2h-2.1V104
				h2.1V106.9z"/>
			<path d="M591.4,109.2c0-2.4-1.3-3.6-3.7-3.6c-2.5,0-3.6,1.6-3.8,3l-2.1-0.4c0.1-1.2,1.8-4.4,6-4.4c3.1,0,4.6,1.4,5.4,3
				c0.3,0.8,0.4,1.9,0.4,2.4v9.5h-2.1v-2.6h0c-1.2,1.8-2.7,2.8-4.9,2.8c-3,0-4.9-1.8-4.9-4.3v-0.2c0-3.2,3.2-4.2,5.8-4.2h4.1V109.2z
				 M587.3,112c-1.6,0-3.6,0.5-3.6,2.5c0,1.6,1.4,2.6,3.2,2.6c2.6,0,4.6-1.8,4.6-4.5V112H587.3z"/>
			<path d="M599,114.9v-9h-2.7V104h2.7v-4.2h2.1v4.2h3.7v1.9h-3.7v8.9c0,1.3,0.8,2.1,2.4,2.1c0.5,0,1,0,1.3-0.1v1.8
				c-0.4,0.1-1.3,0.2-1.7,0.2C600,118.8,599,117,599,114.9z"/>
			<path d="M609.6,97.2c0.9,0,1.6,0.7,1.6,1.6c0,0.9-0.7,1.6-1.6,1.6c-0.9,0-1.6-0.7-1.6-1.6C608,97.9,608.7,97.2,609.6,97.2z
				 M610.7,104v14.7h-2.2V104H610.7z"/>
			<path d="M614.4,111.4c0-4.3,3.3-7.6,7.6-7.6c4.2,0,7.6,3.3,7.6,7.5c0,4.3-3.3,7.6-7.6,7.6C617.7,118.9,614.4,115.6,614.4,111.4z
				 M627.4,111.4c0-3.1-2.2-5.8-5.4-5.8s-5.4,2.6-5.4,5.7c0,3.1,2.2,5.7,5.4,5.7C625.2,117,627.4,114.5,627.4,111.4z"/>
			<path d="M643.9,110.2c0-2.6-1.3-4.4-4.1-4.4c-2.6,0-4.4,2-4.4,4.6v8.3h-2.1V104h2.1v2.7c1.2-2,2.9-3,5.1-3c3.6,0,5.5,2.4,5.5,5.9
				v9.1h-2.1V110.2z"/>
			<path d="M655.2,118.9c-4,0-5.3-2.7-5.6-4.3l2-0.5c0.3,1.3,1.3,2.9,3.6,2.9c1.6,0,3-0.9,3-2.4c0-1.8-1.9-2.2-3.4-2.4
				c-2.4-0.4-4.8-1.2-4.8-4.1c0-2.7,2.5-4.4,4.9-4.4c3.9,0,5.1,2.6,5.3,4l-1.9,0.5c-0.2-1-1-2.6-3.4-2.6c-1.6,0-2.8,1.1-2.8,2.3
				c0,1.8,2,2.1,3.5,2.3c2.4,0.3,4.8,1.6,4.8,4.2C660.4,117.2,658,118.9,655.2,118.9z"/>
			<path d="M667.8,112.5c0-0.2,0-0.3,0-0.5c0-2.6,1.6-3.8,2.7-5c1.2-1.3,2.7-2.5,2.7-4.4c0-1.8-1.2-3.5-4-3.5c-2.8,0-4.3,2-4.1,4.7
				l-2.2-0.1c0-0.2,0-0.4,0-0.6c0-3.5,2.9-6,6.3-6c3.8,0,6.3,2.7,6.3,5.6c0,2.1-1.3,3.5-3.2,5.4c-1.4,1.4-2.4,2.3-2.4,4.4H667.8z
				 M668.7,118.9c0.9,0,1.6-0.7,1.6-1.6c0-0.9-0.7-1.6-1.6-1.6c-0.9,0-1.6,0.7-1.6,1.6C667.1,118.2,667.9,118.9,668.7,118.9z"/>
		</g>
	</g>
</g>
</svg>
