<?xml version="1.0" encoding="utf-8"?>
<!-- Generator: Adobe Illustrator 21.1.0, SVG Export Plug-In . SVG Version: 6.00 Build 0)  -->
<svg version="1.1" id="graphNineCyber" xmlns="http://www.w3.org/2000/svg" xmlns:xlink="http://www.w3.org/1999/xlink" x="0px"
	 y="0px" viewBox="0 0 1500 1053" style="enable-background:new 0 0 1500 1053;" xml:space="preserve">
<style type="text/css">
	.st0{fill:none;}
	.st1{fill:none;stroke:#000000;stroke-width:2;stroke-linecap:round;stroke-miterlimit:10;}
	.st2{fill:none;stroke:#000000;stroke-width:2;stroke-linecap:round;stroke-miterlimit:10;stroke-dasharray:0,10;}
	.st3{fill:#F6F6F8;}
	.st4{opacity:0.9;}
	.st5{fill:#FF8F4E;}
	.st6{opacity:0.2;}
	.st7{fill:url(#SVGID_1_);}
	.st8{fill:url(#SVGID_2_);}
	.st9{fill:url(#SVGID_3_);}
	.st10{fill:url(#SVGID_4_);}
	.st11{fill:url(#SVGID_5_);}
	.st12{opacity:0.1;}
	.st13{fill:url(#SVGID_6_);}
	.st14{fill:url(#SVGID_7_);}
	.st15{fill:url(#SVGID_8_);}
	.st16{fill:url(#SVGID_9_);}
	.st17{fill:url(#SVGID_10_);}
	.st18{fill:url(#SVGID_11_);}
	.st19{fill:#8EFFDE;}
	.st20{fill:url(#SVGID_12_);}
	.st21{fill:url(#SVGID_13_);}
	.st22{fill:url(#SVGID_14_);}
	.st23{fill:#999999;}
	.st24{fill:url(#SVGID_15_);}
	.st25{fill:url(#SVGID_16_);}
	.st26{fill:url(#SVGID_17_);}
	.st27{fill:url(#SVGID_18_);}
	.st28{fill:url(#SVGID_19_);}
	.st29{fill:url(#SVGID_20_);}
</style>
<pattern  y="1053" width="240" height="240" patternUnits="userSpaceOnUse" id="Unnamed_Pattern_4" viewBox="1 -241 240 240" style="overflow:visible;">
	<g>
		<rect x="1" y="-241" class="st0" width="240" height="240"/>
		<g>
			<g>
				<line class="st1" x1="241" y1="-1" x2="241" y2="-1"/>
			</g>
		</g>
		<g>
			<g>
				<line class="st1" x1="1" y1="-1" x2="1" y2="-1"/>
				<line class="st2" x1="11" y1="-1" x2="236" y2="-1"/>
				<line class="st1" x1="241" y1="-1" x2="241" y2="-1"/>
			</g>
		</g>
		<g>
			<g>
				<line class="st1" x1="1" y1="-1" x2="1" y2="-1"/>
			</g>
		</g>
		<g>
			<g>
				<line class="st1" x1="241" y1="-241" x2="241" y2="-241"/>
			</g>
			<g>
				<line class="st1" x1="241" y1="-231" x2="241" y2="-231"/>
			</g>
			<g>
				<line class="st1" x1="241" y1="-221" x2="241" y2="-221"/>
			</g>
			<g>
				<line class="st1" x1="241" y1="-211" x2="241" y2="-211"/>
			</g>
			<g>
				<line class="st1" x1="241" y1="-201" x2="241" y2="-201"/>
			</g>
			<g>
				<line class="st1" x1="241" y1="-191" x2="241" y2="-191"/>
			</g>
			<g>
				<line class="st1" x1="241" y1="-181" x2="241" y2="-181"/>
			</g>
			<g>
				<line class="st1" x1="241" y1="-171" x2="241" y2="-171"/>
			</g>
			<g>
				<line class="st1" x1="241" y1="-161" x2="241" y2="-161"/>
			</g>
			<g>
				<line class="st1" x1="241" y1="-151" x2="241" y2="-151"/>
			</g>
			<g>
				<line class="st1" x1="241" y1="-141" x2="241" y2="-141"/>
			</g>
			<g>
				<line class="st1" x1="241" y1="-131" x2="241" y2="-131"/>
			</g>
			<g>
				<line class="st1" x1="241" y1="-121" x2="241" y2="-121"/>
			</g>
			<g>
				<line class="st1" x1="241" y1="-111" x2="241" y2="-111"/>
			</g>
			<g>
				<line class="st1" x1="241" y1="-101" x2="241" y2="-101"/>
			</g>
			<g>
				<line class="st1" x1="241" y1="-91" x2="241" y2="-91"/>
			</g>
			<g>
				<line class="st1" x1="241" y1="-81" x2="241" y2="-81"/>
			</g>
			<g>
				<line class="st1" x1="241" y1="-71" x2="241" y2="-71"/>
			</g>
			<g>
				<line class="st1" x1="241" y1="-61" x2="241" y2="-61"/>
			</g>
			<g>
				<line class="st1" x1="241" y1="-51" x2="241" y2="-51"/>
			</g>
			<g>
				<line class="st1" x1="241" y1="-41" x2="241" y2="-41"/>
			</g>
			<g>
				<line class="st1" x1="241" y1="-31" x2="241" y2="-31"/>
			</g>
			<g>
				<line class="st1" x1="241" y1="-21" x2="241" y2="-21"/>
			</g>
			<g>
				<line class="st1" x1="241" y1="-11" x2="241" y2="-11"/>
			</g>
			<g>
				<line class="st1" x1="241" y1="-1" x2="241" y2="-1"/>
			</g>
		</g>
		<g>
			<g>
				<line class="st1" x1="1" y1="-241" x2="1" y2="-241"/>
				<line class="st2" x1="11" y1="-241" x2="236" y2="-241"/>
				<line class="st1" x1="241" y1="-241" x2="241" y2="-241"/>
			</g>
			<g>
				<line class="st1" x1="1" y1="-231" x2="1" y2="-231"/>
				<line class="st2" x1="11" y1="-231" x2="236" y2="-231"/>
				<line class="st1" x1="241" y1="-231" x2="241" y2="-231"/>
			</g>
			<g>
				<line class="st1" x1="1" y1="-221" x2="1" y2="-221"/>
				<line class="st2" x1="11" y1="-221" x2="236" y2="-221"/>
				<line class="st1" x1="241" y1="-221" x2="241" y2="-221"/>
			</g>
			<g>
				<line class="st1" x1="1" y1="-211" x2="1" y2="-211"/>
				<line class="st2" x1="11" y1="-211" x2="236" y2="-211"/>
				<line class="st1" x1="241" y1="-211" x2="241" y2="-211"/>
			</g>
			<g>
				<line class="st1" x1="1" y1="-201" x2="1" y2="-201"/>
				<line class="st2" x1="11" y1="-201" x2="236" y2="-201"/>
				<line class="st1" x1="241" y1="-201" x2="241" y2="-201"/>
			</g>
			<g>
				<line class="st1" x1="1" y1="-191" x2="1" y2="-191"/>
				<line class="st2" x1="11" y1="-191" x2="236" y2="-191"/>
				<line class="st1" x1="241" y1="-191" x2="241" y2="-191"/>
			</g>
			<g>
				<line class="st1" x1="1" y1="-181" x2="1" y2="-181"/>
				<line class="st2" x1="11" y1="-181" x2="236" y2="-181"/>
				<line class="st1" x1="241" y1="-181" x2="241" y2="-181"/>
			</g>
			<g>
				<line class="st1" x1="1" y1="-171" x2="1" y2="-171"/>
				<line class="st2" x1="11" y1="-171" x2="236" y2="-171"/>
				<line class="st1" x1="241" y1="-171" x2="241" y2="-171"/>
			</g>
			<g>
				<line class="st1" x1="1" y1="-161" x2="1" y2="-161"/>
				<line class="st2" x1="11" y1="-161" x2="236" y2="-161"/>
				<line class="st1" x1="241" y1="-161" x2="241" y2="-161"/>
			</g>
			<g>
				<line class="st1" x1="1" y1="-151" x2="1" y2="-151"/>
				<line class="st2" x1="11" y1="-151" x2="236" y2="-151"/>
				<line class="st1" x1="241" y1="-151" x2="241" y2="-151"/>
			</g>
			<g>
				<line class="st1" x1="1" y1="-141" x2="1" y2="-141"/>
				<line class="st2" x1="11" y1="-141" x2="236" y2="-141"/>
				<line class="st1" x1="241" y1="-141" x2="241" y2="-141"/>
			</g>
			<g>
				<line class="st1" x1="1" y1="-131" x2="1" y2="-131"/>
				<line class="st2" x1="11" y1="-131" x2="236" y2="-131"/>
				<line class="st1" x1="241" y1="-131" x2="241" y2="-131"/>
			</g>
			<g>
				<line class="st1" x1="1" y1="-121" x2="1" y2="-121"/>
				<line class="st2" x1="11" y1="-121" x2="236" y2="-121"/>
				<line class="st1" x1="241" y1="-121" x2="241" y2="-121"/>
			</g>
			<g>
				<line class="st1" x1="1" y1="-111" x2="1" y2="-111"/>
				<line class="st2" x1="11" y1="-111" x2="236" y2="-111"/>
				<line class="st1" x1="241" y1="-111" x2="241" y2="-111"/>
			</g>
			<g>
				<line class="st1" x1="1" y1="-101" x2="1" y2="-101"/>
				<line class="st2" x1="11" y1="-101" x2="236" y2="-101"/>
				<line class="st1" x1="241" y1="-101" x2="241" y2="-101"/>
			</g>
			<g>
				<line class="st1" x1="1" y1="-91" x2="1" y2="-91"/>
				<line class="st2" x1="11" y1="-91" x2="236" y2="-91"/>
				<line class="st1" x1="241" y1="-91" x2="241" y2="-91"/>
			</g>
			<g>
				<line class="st1" x1="1" y1="-81" x2="1" y2="-81"/>
				<line class="st2" x1="11" y1="-81" x2="236" y2="-81"/>
				<line class="st1" x1="241" y1="-81" x2="241" y2="-81"/>
			</g>
			<g>
				<line class="st1" x1="1" y1="-71" x2="1" y2="-71"/>
				<line class="st2" x1="11" y1="-71" x2="236" y2="-71"/>
				<line class="st1" x1="241" y1="-71" x2="241" y2="-71"/>
			</g>
			<g>
				<line class="st1" x1="1" y1="-61" x2="1" y2="-61"/>
				<line class="st2" x1="11" y1="-61" x2="236" y2="-61"/>
				<line class="st1" x1="241" y1="-61" x2="241" y2="-61"/>
			</g>
			<g>
				<line class="st1" x1="1" y1="-51" x2="1" y2="-51"/>
				<line class="st2" x1="11" y1="-51" x2="236" y2="-51"/>
				<line class="st1" x1="241" y1="-51" x2="241" y2="-51"/>
			</g>
			<g>
				<line class="st1" x1="1" y1="-41" x2="1" y2="-41"/>
				<line class="st2" x1="11" y1="-41" x2="236" y2="-41"/>
				<line class="st1" x1="241" y1="-41" x2="241" y2="-41"/>
			</g>
			<g>
				<line class="st1" x1="1" y1="-31" x2="1" y2="-31"/>
				<line class="st2" x1="11" y1="-31" x2="236" y2="-31"/>
				<line class="st1" x1="241" y1="-31" x2="241" y2="-31"/>
			</g>
			<g>
				<line class="st1" x1="1" y1="-21" x2="1" y2="-21"/>
				<line class="st2" x1="11" y1="-21" x2="236" y2="-21"/>
				<line class="st1" x1="241" y1="-21" x2="241" y2="-21"/>
			</g>
			<g>
				<line class="st1" x1="1" y1="-11" x2="1" y2="-11"/>
				<line class="st2" x1="11" y1="-11" x2="236" y2="-11"/>
				<line class="st1" x1="241" y1="-11" x2="241" y2="-11"/>
			</g>
			<g>
				<line class="st1" x1="1" y1="-1" x2="1" y2="-1"/>
				<line class="st2" x1="11" y1="-1" x2="236" y2="-1"/>
				<line class="st1" x1="241" y1="-1" x2="241" y2="-1"/>
			</g>
		</g>
		<g>
			<g>
				<line class="st1" x1="1" y1="-241" x2="1" y2="-241"/>
			</g>
			<g>
				<line class="st1" x1="1" y1="-231" x2="1" y2="-231"/>
			</g>
			<g>
				<line class="st1" x1="1" y1="-221" x2="1" y2="-221"/>
			</g>
			<g>
				<line class="st1" x1="1" y1="-211" x2="1" y2="-211"/>
			</g>
			<g>
				<line class="st1" x1="1" y1="-201" x2="1" y2="-201"/>
			</g>
			<g>
				<line class="st1" x1="1" y1="-191" x2="1" y2="-191"/>
			</g>
			<g>
				<line class="st1" x1="1" y1="-181" x2="1" y2="-181"/>
			</g>
			<g>
				<line class="st1" x1="1" y1="-171" x2="1" y2="-171"/>
			</g>
			<g>
				<line class="st1" x1="1" y1="-161" x2="1" y2="-161"/>
			</g>
			<g>
				<line class="st1" x1="1" y1="-151" x2="1" y2="-151"/>
			</g>
			<g>
				<line class="st1" x1="1" y1="-141" x2="1" y2="-141"/>
			</g>
			<g>
				<line class="st1" x1="1" y1="-131" x2="1" y2="-131"/>
			</g>
			<g>
				<line class="st1" x1="1" y1="-121" x2="1" y2="-121"/>
			</g>
			<g>
				<line class="st1" x1="1" y1="-111" x2="1" y2="-111"/>
			</g>
			<g>
				<line class="st1" x1="1" y1="-101" x2="1" y2="-101"/>
			</g>
			<g>
				<line class="st1" x1="1" y1="-91" x2="1" y2="-91"/>
			</g>
			<g>
				<line class="st1" x1="1" y1="-81" x2="1" y2="-81"/>
			</g>
			<g>
				<line class="st1" x1="1" y1="-71" x2="1" y2="-71"/>
			</g>
			<g>
				<line class="st1" x1="1" y1="-61" x2="1" y2="-61"/>
			</g>
			<g>
				<line class="st1" x1="1" y1="-51" x2="1" y2="-51"/>
			</g>
			<g>
				<line class="st1" x1="1" y1="-41" x2="1" y2="-41"/>
			</g>
			<g>
				<line class="st1" x1="1" y1="-31" x2="1" y2="-31"/>
			</g>
			<g>
				<line class="st1" x1="1" y1="-21" x2="1" y2="-21"/>
			</g>
			<g>
				<line class="st1" x1="1" y1="-11" x2="1" y2="-11"/>
			</g>
			<g>
				<line class="st1" x1="1" y1="-1" x2="1" y2="-1"/>
			</g>
		</g>
		<g>
			<g>
				<line class="st1" x1="241" y1="-241" x2="241" y2="-241"/>
			</g>
		</g>
		<g>
			<g>
				<line class="st1" x1="1" y1="-241" x2="1" y2="-241"/>
				<line class="st2" x1="11" y1="-241" x2="236" y2="-241"/>
				<line class="st1" x1="241" y1="-241" x2="241" y2="-241"/>
			</g>
		</g>
		<g>
			<g>
				<line class="st1" x1="1" y1="-241" x2="1" y2="-241"/>
			</g>
		</g>
	</g>
</pattern>
<rect x="-26.1" y="-18.3" class="st3" width="1552.1" height="1089.6"/>
<g class="st4">
	<rect x="1647.9" y="-18.3" class="st5" width="1552.1" height="1089.6"/>
</g>
<rect x="-26.1" y="1150.2" class="st3" width="1552.1" height="1089.6"/>
<g>
	<g class="st6">
		
			<pattern  id="SVGID_1_" xlink:href="#Unnamed_Pattern_4" patternTransform="matrix(0 1.439 -1.3814 0 -29083.4063 3650.9084)"  class="st6">
		</pattern>
		<polygon class="st7" points="903.8,554 903.8,595 1102.2,595 1145.7,595 1145.7,554 1102.2,554 		"/>
	</g>
	<g class="st6">
		
			<pattern  id="SVGID_2_" xlink:href="#Unnamed_Pattern_4" patternTransform="matrix(0 1.439 -1.3814 0 -29083.4063 3650.9084)"  class="st6">
		</pattern>
		<polygon class="st8" points="806.6,474.9 618,474.9 618,515.9 806.6,515.9 859.9,515.9 859.9,474.9 		"/>
	</g>
	<g class="st6">
		
			<pattern  id="SVGID_3_" xlink:href="#Unnamed_Pattern_4" patternTransform="matrix(0 1.439 -1.3814 0 -29083.4063 3650.9084)"  class="st6">
		</pattern>
		<polygon class="st9" points="520.8,474.9 395,474.9 395,515.9 520.8,515.9 574,515.9 574,474.9 		"/>
	</g>
	<g class="st6">
		
			<pattern  id="SVGID_4_" xlink:href="#Unnamed_Pattern_4" patternTransform="matrix(0 1.439 -1.3814 0 -29083.4063 3650.9084)"  class="st6">
		</pattern>
		<polygon class="st10" points="530.5,554 414.4,554 414.4,595 399.6,595 332.1,595 332.1,595 530.5,595 574,595 574,554 		"/>
	</g>
	<g class="st6">
		
			<pattern  id="SVGID_5_" xlink:href="#Unnamed_Pattern_4" patternTransform="matrix(0 1.439 -1.3814 0 -29083.4063 3650.9084)"  class="st6">
		</pattern>
		<polygon class="st11" points="358.7,674.2 333.2,674.2 332.1,674.2 332.1,674.2 341.8,674.2 574,674.2 574,633.2 358.7,633.2 		
			"/>
	</g>
	<g class="st12">
		<polygon points="414.4,574.5 399.6,574.5 332.1,574.5 332.1,574.5 414.4,574.5 		"/>
	</g>
	<g class="st12">
		<polygon points="414.4,595 414.4,554 332.1,554 332.1,595 399.6,595 		"/>
	</g>
	<g class="st12">
		<polygon points="358.7,633.2 358.7,633.2 333.2,633.2 332.1,633.2 332.1,633.2 341.8,633.2 		"/>
	</g>
	<g class="st12">
		<polygon points="358.7,674.2 358.7,633.2 341.8,633.2 332.1,633.2 332.1,674.2 333.2,674.2 		"/>
	</g>
	<g>
		<polygon class="st5" points="644.6,515.9 644.6,474.9 627.7,474.9 618,474.9 618,515.9 619,515.9 		"/>
	</g>
	<g class="st6">
		
			<pattern  id="SVGID_6_" xlink:href="#Unnamed_Pattern_4" patternTransform="matrix(0 1.439 -1.3814 0 -29083.4063 3650.9084)"  class="st6">
		</pattern>
		<polygon class="st13" points="397.4,712.4 397.4,753.4 530.5,753.4 574,753.4 574,712.4 530.5,712.4 		"/>
	</g>
	<g class="st6">
		
			<pattern  id="SVGID_7_" xlink:href="#Unnamed_Pattern_4" patternTransform="matrix(0 1.439 -1.3814 0 -29083.4063 3650.9084)"  class="st6">
		</pattern>
		<rect x="431.3" y="791.5" class="st14" width="142.7" height="41"/>
	</g>
	<g class="st6">
		
			<pattern  id="SVGID_8_" xlink:href="#Unnamed_Pattern_4" patternTransform="matrix(0 1.439 -1.3814 0 -29083.4063 3650.9084)"  class="st6">
		</pattern>
		<polygon class="st15" points="1189.7,712.4 1189.7,753.4 1238.1,753.4 1431.6,753.4 1431.6,712.4 1238.1,712.4 		"/>
	</g>
	<g>
		<g>
			<path d="M402.6,237.3l-3.8,2.3l-0.7-1.2l4.6-2.8h1.6v15.8h-1.7V237.3z"/>
			<path d="M412.8,251.4c-2.8,0-5.1-1.7-5.4-4.3l1.6-0.3c0.3,1.8,1.7,3.1,3.8,3.1c2.1,0,3.8-1.2,3.8-3s-1.3-2.9-3.8-2.9h-1.6v-1.5
				h1.5c2.2,0,3.5-1.3,3.5-2.8c0-1.6-1.2-2.8-3.5-2.8c-2.2,0-3.4,1.3-3.7,3l-1.6-0.3c0.3-2.2,2.4-4.1,5.3-4.1c3.4,0,5.1,2.1,5.1,4.2
				c0,1.8-1,2.9-2.5,3.6v0c1.8,0.5,2.9,1.9,2.9,3.8C418.3,249.4,416.1,251.4,412.8,251.4z"/>
			<path d="M430.4,250.4v12.4h-2.8v-27h2.8v11.9h15.4v-11.9h2.8v27h-2.8v-12.4H430.4z"/>
			<path d="M466.5,250.9c0-3-1.6-4.5-4.7-4.5c-3.1,0-4.5,2-4.8,3.8l-2.6-0.6c0.1-1.6,2.2-5.6,7.5-5.6c3.9,0,5.8,1.8,6.7,3.8
				c0.4,1,0.6,2.5,0.6,3v11.9h-2.6v-3.2h0c-1.5,2.3-3.5,3.6-6.2,3.6c-3.7,0-6.2-2.3-6.2-5.4v-0.2c0-4,4-5.3,7.3-5.3h5.1V250.9z
				 M461.4,254.4c-2,0-4.6,0.6-4.6,3.1c0,2.1,1.8,3.2,4,3.2c3.3,0,5.7-2.3,5.7-5.7v-0.7H461.4z"/>
			<path d="M472.3,244.3h3l6.3,15.5l6.4-15.5h2.9l-7.9,18.4h-2.9L472.3,244.3z"/>
			<path d="M495.4,254.4c0.2,3.6,3,6.3,6.6,6.3c2.7,0,4.8-1.3,5.7-3.9l2.4,0.8c-1.1,3.6-4.4,5.6-8.1,5.6c-5.4,0-9.4-4.2-9.4-9.6
				c0-5,3.8-9.5,9-9.5c5.7,0,8.7,4.1,8.7,9.5c0,0.3,0,0.6,0,0.9H495.4z M507.7,252.1c-0.3-3.3-2.5-5.7-6-5.7c-3.2,0-5.8,2.7-6.2,5.7
				H507.7z"/>
			<path d="M529.9,261.5l-8.4-17.2h3.1l6.8,14.3l6.4-14.3h2.9l-12.6,27.5h-2.9L529.9,261.5z"/>
			<path d="M542.4,253.6c0-5.5,4.1-9.6,9.6-9.6c5.3,0,9.5,4.2,9.5,9.5c0,5.5-4.2,9.6-9.6,9.6C546.5,263.1,542.4,258.9,542.4,253.6z
				 M558.7,253.6c0-3.9-2.8-7.3-6.8-7.3s-6.7,3.2-6.7,7.1c0,3.9,2.8,7.2,6.8,7.2C555.9,260.7,558.7,257.5,558.7,253.6z"/>
			<path d="M568.6,255.1c0,3.3,1.7,5.6,5.1,5.6c3.2,0,5.5-2.5,5.5-5.8v-10.5h2.7v18.4h-2.6v-3.4c-1.5,2.5-3.6,3.7-6.3,3.7
				c-4.5,0-7-3.1-7-7.4v-11.4h2.7V255.1z"/>
			<path d="M599,235.7c1.1,0,2,0.9,2,2c0,1.1-0.9,2-2,2c-1.1,0-2-0.9-2-2C597,236.6,597.9,235.7,599,235.7z M600.3,244.3v18.4h-2.7
				v-18.4H600.3z"/>
			<path d="M619.7,252c0-3.3-1.7-5.6-5.1-5.6c-3.2,0-5.5,2.6-5.5,5.8v10.5h-2.7v-18.4h2.7v3.4c1.5-2.5,3.6-3.7,6.4-3.7
				c4.5,0,7,3.1,7,7.4v11.4h-2.7V252z"/>
			<path d="M625.5,244.3h3l6.3,15.5l6.4-15.5h2.9l-7.9,18.4h-2.9L625.5,244.3z"/>
			<path d="M648.6,254.4c0.2,3.6,3,6.3,6.6,6.3c2.7,0,4.8-1.3,5.7-3.9l2.4,0.8c-1.1,3.6-4.4,5.6-8.1,5.6c-5.4,0-9.4-4.2-9.4-9.6
				c0-5,3.8-9.5,9-9.5c5.7,0,8.7,4.1,8.7,9.5c0,0.3,0,0.6,0,0.9H648.6z M660.9,252.1c-0.3-3.3-2.5-5.7-6-5.7c-3.2,0-5.8,2.7-6.2,5.7
				H660.9z"/>
			<path d="M673.8,263.1c-5,0-6.7-3.4-7-5.5l2.5-0.6c0.4,1.7,1.6,3.7,4.5,3.7c2,0,3.8-1.1,3.8-3c0-2.2-2.4-2.8-4.3-3
				c-3.1-0.4-6.1-1.6-6.1-5.1c0-3.5,3.1-5.5,6.2-5.5c4.9,0,6.4,3.2,6.7,5l-2.5,0.6c-0.3-1.2-1.3-3.2-4.2-3.2c-2,0-3.5,1.3-3.5,2.9
				c0,2.3,2.5,2.7,4.4,2.9c3,0.4,6,2,6,5.3C680.4,260.9,677.4,263.1,673.8,263.1z"/>
			<path d="M686.2,258v-11.3h-3.4v-2.4h3.4V239h2.7v5.3h4.7v2.4h-4.7v11.2c0,1.7,1,2.6,3,2.6c0.6,0,1.2,0,1.7-0.1v2.2
				c-0.6,0.2-1.6,0.3-2.1,0.3C687.4,262.9,686.2,260.7,686.2,258z"/>
			<path d="M699,254.4c0.2,3.6,3,6.3,6.6,6.3c2.7,0,4.8-1.3,5.7-3.9l2.4,0.8c-1.1,3.6-4.4,5.6-8.1,5.6c-5.4,0-9.4-4.2-9.4-9.6
				c0-5,3.8-9.5,9-9.5c5.7,0,8.7,4.1,8.7,9.5c0,0.3,0,0.6,0,0.9H699z M711.3,252.1c-0.3-3.3-2.5-5.7-6-5.7c-3.2,0-5.8,2.7-6.2,5.7
				H711.3z"/>
			<path d="M726,244c3.6,0,5.7,2,7.1,4.2v-13.5h2.7v28.1h-2.6v-3.9c-1.4,2.3-3.6,4.2-7.2,4.2c-5.3,0-8.6-4.5-8.6-9.5
				C717.3,248.7,720.7,244,726,244z M733.1,253.5c0-3.7-2.8-7.1-6.6-7.1c-4,0-6.5,3.2-6.5,7.2c0,3.8,2.4,7.1,6.5,7.1
				C730.4,260.7,733.1,257.3,733.1,253.5z"/>
			<path d="M752.9,235.7c1.1,0,2,0.9,2,2c0,1.1-0.9,2-2,2c-1.1,0-2-0.9-2-2C750.9,236.6,751.8,235.7,752.9,235.7z M754.2,244.3v18.4
				h-2.7v-18.4H754.2z"/>
			<path d="M773.6,252c0-3.3-1.7-5.6-5.1-5.6c-3.2,0-5.5,2.6-5.5,5.8v10.5h-2.7v-18.4h2.7v3.4c1.5-2.5,3.6-3.7,6.4-3.7
				c4.5,0,7,3.1,7,7.4v11.4h-2.7V252z"/>
			<path d="M797.4,263.1c-5,0-6.7-3.4-7-5.5l2.5-0.6c0.4,1.7,1.6,3.7,4.5,3.7c2,0,3.8-1.1,3.8-3c0-2.2-2.4-2.8-4.3-3
				c-3.1-0.4-6.1-1.6-6.1-5.1c0-3.5,3.1-5.5,6.2-5.5c4.9,0,6.4,3.2,6.7,5l-2.5,0.6c-0.3-1.2-1.3-3.2-4.2-3.2c-2,0-3.5,1.3-3.5,2.9
				c0,2.3,2.5,2.7,4.4,2.9c3,0.4,6,2,6,5.3C803.9,260.9,801,263.1,797.4,263.1z"/>
			<path d="M819.9,250.9c0-3-1.6-4.5-4.7-4.5c-3.1,0-4.5,2-4.8,3.8l-2.6-0.6c0.1-1.6,2.2-5.6,7.5-5.6c3.9,0,5.8,1.8,6.7,3.8
				c0.4,1,0.6,2.5,0.6,3v11.9h-2.6v-3.2h0c-1.5,2.3-3.5,3.6-6.2,3.6c-3.7,0-6.2-2.3-6.2-5.4v-0.2c0-4,4-5.3,7.3-5.3h5.1V250.9z
				 M814.7,254.4c-2,0-4.6,0.6-4.6,3.1c0,2.1,1.8,3.2,4,3.2c3.3,0,5.7-2.3,5.7-5.7v-0.7H814.7z"/>
			<path d="M832.2,240.9v3.5h4.8v2.3h-4.8v16.1h-2.7v-16.1H826v-2.3h3.5v-3.4c0-4.3,2.4-6.4,5.7-6.4c0.5,0,1.3,0.1,2,0.3v2.3
				c-0.7-0.2-1.5-0.2-1.9-0.2C833.9,237,832.2,237.7,832.2,240.9z"/>
			<path d="M841.5,254.4c0.2,3.6,3,6.3,6.6,6.3c2.7,0,4.8-1.3,5.7-3.9l2.4,0.8c-1.1,3.6-4.4,5.6-8.1,5.6c-5.4,0-9.4-4.2-9.4-9.6
				c0-5,3.8-9.5,9-9.5c5.7,0,8.7,4.1,8.7,9.5c0,0.3,0,0.6,0,0.9H841.5z M853.8,252.1c-0.3-3.3-2.5-5.7-6-5.7c-3.2,0-5.8,2.7-6.2,5.7
				H853.8z"/>
			<path d="M875.6,258.7c-1.4,2.3-3.7,4.2-7.1,4.2c-5.3,0-8.6-4.4-8.6-9.4c0-4.8,3.4-9.4,8.6-9.4c3.6,0,5.7,2,7.2,4.2v-3.9h2.7v18.5
				c0,5.9-3.7,9.2-9.3,9.2c-4.8,0-8.2-2.4-9.2-6.3l2.5-0.8c0.6,2.1,2.3,4.8,6.6,4.8c3.6,0,6.6-1.9,6.6-6.7V258.7z M875.6,253.4
				c0-3.6-2.8-7-6.6-7c-4,0-6.4,3.1-6.4,7.1c0,3.8,2.4,7,6.4,7C872.9,260.5,875.6,257.2,875.6,253.4z"/>
			<path d="M886.8,255.1c0,3.3,1.7,5.6,5.1,5.6c3.2,0,5.5-2.5,5.5-5.8v-10.5h2.7v18.4h-2.6v-3.4c-1.5,2.5-3.6,3.7-6.3,3.7
				c-4.5,0-7-3.1-7-7.4v-11.4h2.7V255.1z"/>
			<path d="M917.3,250.9c0-3-1.6-4.5-4.7-4.5c-3.1,0-4.5,2-4.8,3.8l-2.6-0.6c0.1-1.6,2.2-5.6,7.5-5.6c3.9,0,5.8,1.8,6.7,3.8
				c0.4,1,0.6,2.5,0.6,3v11.9h-2.6v-3.2h0c-1.5,2.3-3.5,3.6-6.2,3.6c-3.7,0-6.2-2.3-6.2-5.4v-0.2c0-4,4-5.3,7.3-5.3h5.1V250.9z
				 M912.2,254.4c-2,0-4.6,0.6-4.6,3.1c0,2.1,1.8,3.2,4,3.2c3.3,0,5.7-2.3,5.7-5.7v-0.7H912.2z"/>
			<path d="M928.5,248c1.4-2.9,3.8-3.9,5.9-3.9c0.2,0,0.7,0,0.9,0v2.9c-0.3,0-0.7-0.1-1-0.1c-4.4,0-5.8,3.6-5.8,6.9v9h-2.7v-18.4
				h2.7V248z"/>
			<path d="M945.6,244c3.6,0,5.7,2,7.1,4.2v-13.5h2.7v28.1h-2.6v-3.9c-1.4,2.3-3.6,4.2-7.2,4.2c-5.3,0-8.6-4.5-8.6-9.5
				C937,248.7,940.4,244,945.6,244z M952.8,253.5c0-3.7-2.8-7.1-6.6-7.1c-4,0-6.5,3.2-6.5,7.2c0,3.8,2.4,7.1,6.5,7.1
				C950.1,260.7,952.8,257.3,952.8,253.5z"/>
			<path d="M967.1,263.1c-5,0-6.7-3.4-7-5.5l2.5-0.6c0.4,1.7,1.6,3.7,4.5,3.7c2,0,3.8-1.1,3.8-3c0-2.2-2.4-2.8-4.3-3
				c-3.1-0.4-6.1-1.6-6.1-5.1c0-3.5,3.1-5.5,6.2-5.5c4.9,0,6.4,3.2,6.7,5l-2.5,0.6c-0.3-1.2-1.3-3.2-4.2-3.2c-2,0-3.5,1.3-3.5,2.9
				c0,2.3,2.5,2.7,4.4,2.9c3,0.4,6,2,6,5.3C973.7,260.9,970.7,263.1,967.1,263.1z"/>
			<path d="M989.5,235.7c1.1,0,2,0.9,2,2c0,1.1-0.9,2-2,2c-1.1,0-2-0.9-2-2C987.5,236.6,988.4,235.7,989.5,235.7z M990.8,244.3v18.4
				h-2.7v-18.4H990.8z"/>
			<path d="M1010.2,252c0-3.3-1.7-5.6-5.1-5.6c-3.2,0-5.5,2.6-5.5,5.8v10.5h-2.7v-18.4h2.7v3.4c1.5-2.5,3.6-3.7,6.4-3.7
				c4.5,0,7,3.1,7,7.4v11.4h-2.7V252z"/>
			<path d="M1029.6,258v-11.3h-3.4v-2.4h3.4V239h2.7v5.3h4.7v2.4h-4.7v11.2c0,1.7,1,2.6,3,2.6c0.6,0,1.2,0,1.7-0.1v2.2
				c-0.6,0.2-1.6,0.3-2.1,0.3C1030.8,262.9,1029.6,260.7,1029.6,258z"/>
			<path d="M1054.8,252c0-3.3-1.7-5.6-5.1-5.6c-3.2,0-5.5,2.6-5.5,5.8v10.5h-2.7v-28.1h2.7v13c1.5-2.4,3.6-3.7,6.3-3.7
				c4.5,0,7,3.1,7,7.4v11.4h-2.7V252z"/>
			<path d="M1064.7,254.4c0.2,3.6,3,6.3,6.6,6.3c2.7,0,4.8-1.3,5.7-3.9l2.4,0.8c-1.1,3.6-4.4,5.6-8.1,5.6c-5.4,0-9.4-4.2-9.4-9.6
				c0-5,3.8-9.5,9-9.5c5.7,0,8.7,4.1,8.7,9.5c0,0.3,0,0.6,0,0.9H1064.7z M1076.9,252.1c-0.3-3.3-2.5-5.7-6-5.7
				c-3.2,0-5.8,2.7-6.2,5.7H1076.9z"/>
			<path d="M371.3,276.1v28.1h-2.7v-28.1H371.3z"/>
			<path d="M388.5,292.3c0-3-1.6-4.5-4.7-4.5c-3.1,0-4.5,2-4.8,3.8l-2.6-0.6c0.1-1.6,2.2-5.6,7.5-5.6c3.9,0,5.8,1.8,6.7,3.8
				c0.4,1,0.6,2.5,0.6,3v11.9h-2.6V301h0c-1.5,2.3-3.5,3.6-6.2,3.6c-3.7,0-6.2-2.3-6.2-5.4v-0.2c0-4,4-5.3,7.3-5.3h5.1V292.3z
				 M383.3,295.8c-2,0-4.6,0.6-4.6,3.1c0,2.1,1.8,3.2,4,3.2c3.3,0,5.7-2.3,5.7-5.7v-0.7H383.3z"/>
			<path d="M402.6,304.5c-5,0-6.7-3.4-7-5.5l2.5-0.6c0.4,1.7,1.6,3.7,4.5,3.7c2,0,3.8-1.1,3.8-3c0-2.2-2.4-2.8-4.3-3
				c-3.1-0.4-6.1-1.6-6.1-5.1c0-3.5,3.1-5.5,6.2-5.5c4.9,0,6.4,3.2,6.7,5l-2.5,0.6c-0.3-1.2-1.3-3.2-4.2-3.2c-2,0-3.5,1.3-3.5,2.9
				c0,2.3,2.5,2.7,4.4,2.9c3,0.4,6,2,6,5.3C409.1,302.4,406.2,304.5,402.6,304.5z"/>
			<path d="M414.9,299.5v-11.3h-3.4v-2.4h3.4v-5.3h2.7v5.3h4.7v2.4h-4.7v11.2c0,1.7,1,2.6,3,2.6c0.6,0,1.2,0,1.7-0.1v2.2
				c-0.6,0.2-1.6,0.3-2.1,0.3C416.1,304.4,414.9,302.2,414.9,299.5z"/>
			<path d="M441.6,280.2l-6.5,3.9l-1.3-2.1l7.8-4.7h2.8v27h-2.8V280.2z"/>
			<path d="M450.1,303.4c0-3.1,1.5-6.6,6.3-9.5l4.1-2.6c2.6-1.6,4.7-3.2,4.7-6.4c0-2.8-2.5-5.4-5.9-5.4c-3,0-4.8,1.8-5.6,3.5
				c-0.5,1.1-0.5,2.2-0.6,2.7l-2.8-0.4c0-3.8,3.2-8.4,9-8.4c5,0,8.8,3.8,8.8,8c0,3.8-2.1,6.1-5.7,8.3l-4.2,2.7
				c-2.3,1.5-4.5,3.3-4.7,5.8h14.8v2.6h-18.3V303.4z"/>
			<path d="M495.6,293.4c0-3-1.5-5.5-4.8-5.5c-3.2,0-5.1,2.8-5.1,5.8v10.5H483v-18.4h2.7v3.2c1.5-2.2,3.2-3.6,5.9-3.6
				c2.7,0,4.8,1.3,5.9,3.7c1.6-2.4,3.6-3.7,6.5-3.7c4.5,0,6.8,3.1,6.8,7.4v11.4h-2.7v-10.7c0-3.1-1.4-5.6-4.8-5.6
				c-3.2,0-5.1,2.6-5.1,5.7v10.6h-2.7V293.4z"/>
			<path d="M515.3,295.1c0-5.5,4.1-9.6,9.6-9.6c5.3,0,9.5,4.2,9.5,9.5c0,5.5-4.2,9.6-9.6,9.6C519.5,304.5,515.3,300.3,515.3,295.1z
				 M531.6,295.1c0-3.9-2.8-7.3-6.8-7.3c-4,0-6.7,3.2-6.7,7.1c0,3.9,2.8,7.2,6.8,7.2C528.8,302.2,531.6,298.9,531.6,295.1z"/>
			<path d="M552.4,293.5c0-3.3-1.7-5.6-5.1-5.6c-3.2,0-5.5,2.6-5.5,5.8v10.5h-2.7v-18.4h2.7v3.4c1.5-2.5,3.6-3.7,6.4-3.7
				c4.5,0,7,3.1,7,7.4v11.4h-2.7V293.5z"/>
			<path d="M562,299.5v-11.3h-3.4v-2.4h3.4v-5.3h2.7v5.3h4.7v2.4h-4.7v11.2c0,1.7,1,2.6,3,2.6c0.6,0,1.2,0,1.7-0.1v2.2
				c-0.6,0.2-1.6,0.3-2.1,0.3C563.2,304.4,562,302.2,562,299.5z"/>
			<path d="M587.2,293.5c0-3.3-1.7-5.6-5.1-5.6c-3.2,0-5.5,2.6-5.5,5.8v10.5h-2.7v-28.1h2.7v13c1.5-2.4,3.6-3.7,6.3-3.7
				c4.5,0,7,3.1,7,7.4v11.4h-2.7V293.5z"/>
			<path d="M601.4,304.5c-5,0-6.7-3.4-7-5.5l2.5-0.6c0.4,1.7,1.6,3.7,4.5,3.7c2,0,3.8-1.1,3.8-3c0-2.2-2.4-2.8-4.3-3
				c-3.1-0.4-6.1-1.6-6.1-5.1c0-3.5,3.1-5.5,6.2-5.5c4.9,0,6.4,3.2,6.7,5l-2.5,0.6c-0.3-1.2-1.3-3.2-4.2-3.2c-2,0-3.5,1.3-3.5,2.9
				c0,2.3,2.5,2.7,4.4,2.9c3,0.4,6,2,6,5.3C607.9,302.4,604.9,304.5,601.4,304.5z"/>
			<path d="M623.7,277.2c1.1,0,2,0.9,2,2c0,1.1-0.9,2-2,2c-1.1,0-2-0.9-2-2C621.7,278.1,622.6,277.2,623.7,277.2z M625,285.8v18.4
				h-2.7v-18.4H625z"/>
			<path d="M644.4,293.5c0-3.3-1.7-5.6-5.1-5.6c-3.2,0-5.5,2.6-5.5,5.8v10.5h-2.7v-18.4h2.7v3.4c1.5-2.5,3.6-3.7,6.4-3.7
				c4.5,0,7,3.1,7,7.4v11.4h-2.7V293.5z"/>
			<path d="M665.2,289.4c1.4-2.9,3.8-3.9,5.9-3.9c0.2,0,0.7,0,0.9,0v2.9c-0.3,0-0.7-0.1-1-0.1c-4.4,0-5.8,3.6-5.8,6.9v9h-2.7v-18.4
				h2.7V289.4z"/>
			<path d="M676.4,295.8c0.2,3.6,3,6.3,6.6,6.3c2.7,0,4.8-1.3,5.7-3.9l2.4,0.8c-1.1,3.6-4.4,5.6-8.1,5.6c-5.4,0-9.4-4.2-9.4-9.6
				c0-5,3.8-9.5,9-9.5c5.7,0,8.7,4.1,8.7,9.5c0,0.3,0,0.6,0,0.9H676.4z M688.7,293.6c-0.3-3.3-2.5-5.7-6-5.7c-3.2,0-5.8,2.7-6.2,5.7
				H688.7z"/>
			<path d="M701.6,304.5c-5,0-6.7-3.4-7-5.5l2.5-0.6c0.4,1.7,1.6,3.7,4.5,3.7c2,0,3.8-1.1,3.8-3c0-2.2-2.4-2.8-4.3-3
				c-3.1-0.4-6.1-1.6-6.1-5.1c0-3.5,3.1-5.5,6.2-5.5c4.9,0,6.4,3.2,6.7,5l-2.5,0.6c-0.3-1.2-1.3-3.2-4.2-3.2c-2,0-3.5,1.3-3.5,2.9
				c0,2.3,2.5,2.7,4.4,2.9c3,0.4,6,2,6,5.3C708.2,302.4,705.2,304.5,701.6,304.5z"/>
			<path d="M722.8,304.5c-3.4,0-5.6-1.7-7.1-4.1v12.9H713v-27.5h2.7v4c1.5-2.3,3.7-4.3,7.1-4.3c5.2,0,8.7,4.7,8.7,9.5
				C731.4,299.9,728,304.5,722.8,304.5z M728.7,295c0-3.8-2.4-7.2-6.5-7.2c-3.8,0-6.6,3.4-6.6,7.1c0,3.8,2.7,7.2,6.6,7.2
				C726.3,302.1,728.7,298.9,728.7,295z"/>
			<path d="M734.9,295.1c0-5.5,4.1-9.6,9.6-9.6c5.3,0,9.5,4.2,9.5,9.5c0,5.5-4.2,9.6-9.6,9.6C739,304.5,734.9,300.3,734.9,295.1z
				 M751.2,295.1c0-3.9-2.8-7.3-6.8-7.3c-4,0-6.7,3.2-6.7,7.1c0,3.9,2.8,7.2,6.8,7.2C748.4,302.2,751.2,298.9,751.2,295.1z"/>
			<path d="M772,293.5c0-3.3-1.7-5.6-5.1-5.6c-3.2,0-5.5,2.6-5.5,5.8v10.5h-2.7v-18.4h2.7v3.4c1.5-2.5,3.6-3.7,6.4-3.7
				c4.5,0,7,3.1,7,7.4v11.4H772V293.5z"/>
			<path d="M786.1,304.5c-5,0-6.7-3.4-7-5.5l2.5-0.6c0.4,1.7,1.6,3.7,4.5,3.7c2,0,3.8-1.1,3.8-3c0-2.2-2.4-2.8-4.3-3
				c-3.1-0.4-6.1-1.6-6.1-5.1c0-3.5,3.1-5.5,6.2-5.5c4.9,0,6.4,3.2,6.7,5l-2.5,0.6c-0.3-1.2-1.3-3.2-4.2-3.2c-2,0-3.5,1.3-3.5,2.9
				c0,2.3,2.5,2.7,4.4,2.9c3,0.4,6,2,6,5.3C792.6,302.4,789.7,304.5,786.1,304.5z"/>
			<path d="M798.8,295.8c0.2,3.6,3,6.3,6.6,6.3c2.7,0,4.8-1.3,5.7-3.9l2.4,0.8c-1.1,3.6-4.4,5.6-8.1,5.6c-5.4,0-9.4-4.2-9.4-9.6
				c0-5,3.8-9.5,9-9.5c5.7,0,8.7,4.1,8.7,9.5c0,0.3,0,0.6,0,0.9H798.8z M811,293.6c-0.3-3.3-2.5-5.7-6-5.7c-3.2,0-5.8,2.7-6.2,5.7
				H811z"/>
			<path d="M829.3,299.5v-11.3h-3.4v-2.4h3.4v-5.3h2.7v5.3h4.7v2.4h-4.7v11.2c0,1.7,1,2.6,3,2.6c0.6,0,1.2,0,1.7-0.1v2.2
				c-0.6,0.2-1.6,0.3-2.1,0.3C830.5,304.4,829.3,302.2,829.3,299.5z"/>
			<path d="M839.4,295.1c0-5.5,4.1-9.6,9.6-9.6c5.3,0,9.5,4.2,9.5,9.5c0,5.5-4.2,9.6-9.6,9.6C843.6,304.5,839.4,300.3,839.4,295.1z
				 M855.7,295.1c0-3.9-2.8-7.3-6.8-7.3c-4,0-6.7,3.2-6.7,7.1c0,3.9,2.8,7.2,6.8,7.2C852.9,302.2,855.7,298.9,855.7,295.1z"/>
			<path d="M881,302.2c4.1,0,5.6-3,6.1-4.4l2.5,0.8c-0.8,2.8-3.9,6-8.7,6c-5.3,0-9.4-3.9-9.4-9.5c0-5.6,4.3-9.6,9.5-9.6
				c4.3,0,7.7,2.8,8.5,5.9l-2.5,0.8c-0.4-1.4-2.2-4.3-6.1-4.3c-3.9,0-6.7,3.2-6.7,7S876.8,302.2,881,302.2z"/>
			<path d="M899.5,303l-8.4-17.2h3.1L901,300l6.4-14.3h2.9l-12.6,27.5h-2.9L899.5,303z"/>
			<path d="M923.8,304.5c-3.5,0-5.7-1.7-7.1-4.1v3.9H914v-28.1h2.7v13.6c1.5-2.3,3.7-4.3,7.1-4.3c5.2,0,8.7,4.7,8.7,9.5
				C932.4,299.9,929,304.5,923.8,304.5z M929.7,295c0-3.8-2.4-7.2-6.5-7.2c-3.8,0-6.6,3.4-6.6,7.1c0,3.8,2.7,7.2,6.6,7.2
				C927.3,302.1,929.7,298.9,929.7,295z"/>
			<path d="M938.6,295.8c0.2,3.6,3,6.3,6.6,6.3c2.7,0,4.8-1.3,5.7-3.9l2.4,0.8c-1.1,3.6-4.4,5.6-8.1,5.6c-5.4,0-9.4-4.2-9.4-9.6
				c0-5,3.8-9.5,9-9.5c5.7,0,8.7,4.1,8.7,9.5c0,0.3,0,0.6,0,0.9H938.6z M950.8,293.6c-0.3-3.3-2.5-5.7-6-5.7c-3.2,0-5.8,2.7-6.2,5.7
				H950.8z"/>
			<path d="M960.8,289.4c1.4-2.9,3.8-3.9,5.9-3.9c0.2,0,0.7,0,0.9,0v2.9c-0.3,0-0.7-0.1-1-0.1c-4.4,0-5.8,3.6-5.8,6.9v9h-2.7v-18.4
				h2.7V289.4z"/>
			<path d="M981.1,299.5v-11.3h-3.4v-2.4h3.4v-5.3h2.7v5.3h4.7v2.4h-4.7v11.2c0,1.7,1,2.6,3,2.6c0.6,0,1.2,0,1.7-0.1v2.2
				c-0.6,0.2-1.6,0.3-2.1,0.3C982.3,304.4,981.1,302.2,981.1,299.5z"/>
			<path d="M1006.3,293.5c0-3.3-1.7-5.6-5.1-5.6c-3.2,0-5.5,2.6-5.5,5.8v10.5H993v-28.1h2.7v13c1.5-2.4,3.6-3.7,6.3-3.7
				c4.5,0,7,3.1,7,7.4v11.4h-2.7V293.5z"/>
			<path d="M1017.5,289.4c1.4-2.9,3.8-3.9,5.9-3.9c0.2,0,0.7,0,0.9,0v2.9c-0.3,0-0.7-0.1-1-0.1c-4.4,0-5.8,3.6-5.8,6.9v9h-2.7v-18.4
				h2.7V289.4z"/>
			<path d="M1028.7,295.8c0.2,3.6,3,6.3,6.6,6.3c2.7,0,4.8-1.3,5.7-3.9l2.4,0.8c-1.1,3.6-4.4,5.6-8.1,5.6c-5.4,0-9.4-4.2-9.4-9.6
				c0-5,3.8-9.5,9-9.5c5.7,0,8.7,4.1,8.7,9.5c0,0.3,0,0.6,0,0.9H1028.7z M1040.9,293.6c-0.3-3.3-2.5-5.7-6-5.7
				c-3.2,0-5.8,2.7-6.2,5.7H1040.9z"/>
			<path d="M1059.4,292.3c0-3-1.6-4.5-4.7-4.5c-3.1,0-4.5,2-4.8,3.8l-2.6-0.6c0.1-1.6,2.2-5.6,7.5-5.6c3.9,0,5.8,1.8,6.7,3.8
				c0.4,1,0.6,2.5,0.6,3v11.9h-2.6V301h0c-1.5,2.3-3.5,3.6-6.2,3.6c-3.7,0-6.2-2.3-6.2-5.4v-0.2c0-4,4-5.3,7.3-5.3h5.1V292.3z
				 M1054.3,295.8c-2,0-4.6,0.6-4.6,3.1c0,2.1,1.8,3.2,4,3.2c3.3,0,5.7-2.3,5.7-5.7v-0.7H1054.3z"/>
			<path d="M1069,299.5v-11.3h-3.4v-2.4h3.4v-5.3h2.7v5.3h4.7v2.4h-4.7v11.2c0,1.7,1,2.6,3,2.6c0.6,0,1.2,0,1.7-0.1v2.2
				c-0.6,0.2-1.6,0.3-2.1,0.3C1070.2,304.4,1069,302.2,1069,299.5z"/>
			<path d="M1086.5,304.5c-5,0-6.7-3.4-7-5.5l2.5-0.6c0.4,1.7,1.6,3.7,4.5,3.7c2,0,3.8-1.1,3.8-3c0-2.2-2.4-2.8-4.3-3
				c-3.1-0.4-6.1-1.6-6.1-5.1c0-3.5,3.1-5.5,6.2-5.5c4.9,0,6.4,3.2,6.7,5l-2.5,0.6c-0.3-1.2-1.3-3.2-4.2-3.2c-2,0-3.5,1.3-3.5,2.9
				c0,2.3,2.5,2.7,4.4,2.9c3,0.4,6,2,6,5.3C1093,302.4,1090,304.5,1086.5,304.5z"/>
			<path d="M1102.3,296.4c0-0.2,0-0.4,0-0.6c0-3.2,2-4.8,3.5-6.3c1.6-1.7,3.4-3.1,3.4-5.5c0-2.2-1.5-4.4-5-4.4
				c-3.5,0-5.4,2.6-5.2,5.9l-2.8-0.1c0-0.3,0-0.5,0-0.8c0-4.5,3.7-7.6,8-7.6c4.8,0,7.9,3.3,7.9,7.1c0,2.7-1.6,4.4-4,6.8
				c-1.8,1.8-3,2.9-3.1,5.6H1102.3z M1103.5,304.5c1.1,0,2-0.9,2-2c0-1.1-0.9-2-2-2c-1.1,0-2,0.9-2,2
				C1101.5,303.6,1102.4,304.5,1103.5,304.5z"/>
		</g>
	</g>
	<g>
		<g>
			<path d="M165.9,489.4c-4.5,0-7.9-3.5-7.9-8c0-4.5,3.4-8.1,8-8.1c4.5,0,7.9,3.5,7.9,8C173.9,485.8,170.5,489.4,165.9,489.4z
				 M165.9,474.8c-3.6,0-6.2,2.9-6.2,6.4c0,3.6,2.6,6.5,6.2,6.5c3.6,0,6.2-2.9,6.2-6.4C172.2,477.8,169.6,474.8,165.9,474.8z"/>
			<path d="M180.1,489.2h-1.6v-9.4h-2.1v-1.4h2.1v-2c0-2.5,1.4-3.7,3.3-3.7c0.3,0,0.8,0.1,1.2,0.2v1.3c-0.4-0.1-0.9-0.1-1.1-0.1
				c-0.8,0-1.8,0.4-1.8,2.3v2h5v-2c0-2.5,1.4-3.7,3.3-3.7c0.3,0,0.7,0.1,1.2,0.2v1.3c-0.4-0.1-0.9-0.1-1.1-0.1
				c-0.8,0-1.8,0.4-1.8,2.3v2h6.5v10.8h-1.6v-9.4h-5v9.4H185v-9.4h-5V489.2z M192.4,473.4c0.7,0,1.2,0.5,1.2,1.2
				c0,0.6-0.5,1.2-1.2,1.2c-0.6,0-1.2-0.5-1.2-1.2C191.2,473.9,191.7,473.4,192.4,473.4z"/>
			<path d="M202.4,488c2.4,0,3.3-1.8,3.6-2.6l1.5,0.5c-0.5,1.6-2.3,3.5-5.1,3.5c-3.1,0-5.5-2.3-5.5-5.5c0-3.3,2.5-5.6,5.6-5.6
				c2.5,0,4.5,1.6,4.9,3.4l-1.5,0.5c-0.2-0.8-1.3-2.5-3.5-2.5c-2.3,0-3.9,1.9-3.9,4.1C198.5,486,200,488,202.4,488z"/>
			<path d="M211.9,473.4c0.7,0,1.2,0.5,1.2,1.2c0,0.6-0.5,1.2-1.2,1.2c-0.6,0-1.2-0.5-1.2-1.2C210.7,473.9,211.3,473.4,211.9,473.4z
				 M212.7,478.5v10.8h-1.6v-10.8H212.7z"/>
			<path d="M223.7,482.3c0-1.7-0.9-2.6-2.7-2.6c-1.8,0-2.6,1.2-2.8,2.2l-1.5-0.3c0.1-0.9,1.3-3.3,4.4-3.3c2.3,0,3.4,1,3.9,2.2
				c0.2,0.6,0.3,1.4,0.3,1.8v6.9h-1.5v-1.9h0c-0.8,1.3-2,2.1-3.6,2.1c-2.2,0-3.6-1.3-3.6-3.2v-0.1c0-2.3,2.3-3.1,4.2-3.1h3V482.3z
				 M220.7,484.3c-1.1,0-2.7,0.4-2.7,1.8c0,1.2,1,1.9,2.3,1.9c1.9,0,3.3-1.3,3.3-3.3v-0.4H220.7z"/>
			<path d="M231.3,472.8v16.4h-1.6v-16.4H231.3z"/>
			<path d="M247.2,488c2.4,0,3.3-1.8,3.6-2.6l1.5,0.5c-0.5,1.6-2.3,3.5-5.1,3.5c-3.1,0-5.5-2.3-5.5-5.5c0-3.3,2.5-5.6,5.6-5.6
				c2.5,0,4.5,1.6,4.9,3.4l-1.5,0.5c-0.2-0.8-1.3-2.5-3.5-2.5c-2.3,0-3.9,1.9-3.9,4.1C243.3,486,244.8,488,247.2,488z"/>
			<path d="M259,488.5l-4.9-10h1.8l3.9,8.3l3.7-8.3h1.7l-7.4,16.1h-1.7L259,488.5z"/>
			<path d="M274.2,489.4c-2,0-3.3-1-4.2-2.4v2.3h-1.6v-16.4h1.6v8c0.9-1.4,2.1-2.5,4.1-2.5c3.1,0,5.1,2.7,5.1,5.5
				C279.2,486.7,277.3,489.4,274.2,489.4z M277.6,483.9c0-2.2-1.4-4.2-3.8-4.2c-2.2,0-3.8,2-3.8,4.1c0,2.2,1.6,4.2,3.8,4.2
				C276.2,488,277.6,486.1,277.6,483.9z"/>
			<path d="M283.8,484.3c0.1,2.1,1.8,3.7,3.8,3.7c1.6,0,2.8-0.8,3.3-2.3l1.4,0.4c-0.6,2.1-2.6,3.2-4.7,3.2c-3.1,0-5.5-2.5-5.5-5.6
				c0-2.9,2.2-5.5,5.2-5.5c3.3,0,5.1,2.4,5.1,5.5c0,0.2,0,0.4,0,0.5H283.8z M291,483c-0.2-2-1.4-3.3-3.5-3.3c-1.9,0-3.4,1.6-3.6,3.3
				H291z"/>
			<path d="M297.8,480.6c0.8-1.7,2.2-2.3,3.5-2.3c0.1,0,0.4,0,0.5,0v1.7c-0.2,0-0.4,0-0.6,0c-2.5,0-3.4,2.1-3.4,4v5.3h-1.6v-10.8
				h1.6V480.6z"/>
			<path d="M147.1,513.6c-2.9,0-3.9-2-4.1-3.2l1.5-0.3c0.2,1,0.9,2.1,2.6,2.1c1.2,0,2.2-0.6,2.2-1.8c0-1.3-1.4-1.6-2.5-1.8
				c-1.8-0.3-3.5-0.9-3.5-3c0-2,1.8-3.2,3.6-3.2c2.8,0,3.7,1.9,3.9,2.9l-1.4,0.3c-0.2-0.7-0.8-1.9-2.5-1.9c-1.2,0-2,0.8-2,1.7
				c0,1.3,1.5,1.6,2.6,1.7c1.8,0.2,3.5,1.1,3.5,3.1C150.9,512.3,149.2,513.6,147.1,513.6z"/>
			<path d="M155.6,508.5c0.1,2.1,1.8,3.7,3.8,3.7c1.6,0,2.8-0.8,3.3-2.3l1.4,0.4c-0.6,2.1-2.6,3.2-4.7,3.2c-3.1,0-5.5-2.5-5.5-5.6
				c0-2.9,2.2-5.5,5.2-5.5c3.3,0,5.1,2.4,5.1,5.5c0,0.2,0,0.4,0,0.5H155.6z M162.7,507.2c-0.2-2-1.4-3.3-3.5-3.3
				c-1.9,0-3.4,1.6-3.6,3.3H162.7z"/>
			<path d="M172.7,512.2c2.4,0,3.3-1.8,3.6-2.6l1.5,0.5c-0.5,1.6-2.3,3.5-5.1,3.5c-3.1,0-5.5-2.3-5.5-5.5c0-3.3,2.5-5.6,5.6-5.6
				c2.5,0,4.5,1.6,4.9,3.4l-1.5,0.5c-0.2-0.8-1.3-2.5-3.5-2.5c-2.3,0-3.9,1.9-3.9,4.1C168.8,510.2,170.3,512.2,172.7,512.2z"/>
			<path d="M182.8,508.9c0,1.9,1,3.3,3,3.3c1.9,0,3.2-1.5,3.2-3.4v-6.1h1.6v10.8H189v-2c-0.8,1.5-2.1,2.2-3.7,2.2
				c-2.6,0-4.1-1.8-4.1-4.3v-6.6h1.6V508.9z"/>
			<path d="M196.7,504.8c0.8-1.7,2.2-2.3,3.5-2.3c0.1,0,0.4,0,0.5,0v1.7c-0.2,0-0.4,0-0.6,0c-2.5,0-3.4,2.1-3.4,4v5.3h-1.6v-10.8
				h1.6V504.8z"/>
			<path d="M204.6,497.6c0.7,0,1.2,0.5,1.2,1.2c0,0.6-0.5,1.2-1.2,1.2c-0.6,0-1.2-0.5-1.2-1.2C203.4,498.1,203.9,497.6,204.6,497.6z
				 M205.4,502.6v10.8h-1.6v-10.8H205.4z"/>
			<path d="M210.7,510.6V504h-2v-1.4h2v-3.1h1.6v3.1h2.7v1.4h-2.7v6.5c0,1,0.6,1.5,1.8,1.5c0.3,0,0.7,0,1-0.1v1.3
				c-0.3,0.1-0.9,0.2-1.2,0.2C211.4,513.5,210.7,512.2,210.7,510.6z"/>
			<path d="M222.1,512.7l-4.9-10h1.8l3.9,8.3l3.7-8.3h1.7l-7.4,16.1h-1.7L222.1,512.7z"/>
			<path d="M243.5,513.5c-2,0-3.3-1-4.1-2.4v7.5h-1.6v-16.1h1.6v2.3c0.9-1.3,2.1-2.5,4.2-2.5c3.1,0,5.1,2.7,5.1,5.5
				C248.6,510.9,246.6,513.5,243.5,513.5z M247,508c0-2.2-1.4-4.2-3.8-4.2c-2.2,0-3.8,2-3.8,4.1c0,2.2,1.6,4.2,3.8,4.2
				C245.6,512.2,247,510.3,247,508z"/>
			<path d="M251.6,508c0-3.2,2.4-5.6,5.6-5.6c3.1,0,5.5,2.4,5.5,5.5c0,3.2-2.4,5.6-5.6,5.6C254,513.6,251.6,511.1,251.6,508z
				 M261.1,508c0-2.3-1.6-4.2-4-4.2s-3.9,1.9-3.9,4.1s1.6,4.2,4,4.2C259.4,512.2,261.1,510.3,261.1,508z"/>
			<path d="M268,497v16.4h-1.6V497H268z"/>
			<path d="M273.4,497.6c0.7,0,1.2,0.5,1.2,1.2c0,0.6-0.5,1.2-1.2,1.2c-0.6,0-1.2-0.5-1.2-1.2C272.2,498.1,272.7,497.6,273.4,497.6z
				 M274.2,502.6v10.8h-1.6v-10.8H274.2z"/>
			<path d="M283.5,512.2c2.4,0,3.3-1.8,3.6-2.6l1.5,0.5c-0.5,1.6-2.3,3.5-5.1,3.5c-3.1,0-5.5-2.3-5.5-5.5c0-3.3,2.5-5.6,5.6-5.6
				c2.5,0,4.5,1.6,4.9,3.4l-1.5,0.5c-0.2-0.8-1.3-2.5-3.5-2.5c-2.3,0-3.9,1.9-3.9,4.1C279.6,510.2,281,512.2,283.5,512.2z"/>
			<path d="M295.3,512.7l-4.9-10h1.8l3.9,8.3l3.7-8.3h1.7l-7.4,16.1h-1.7L295.3,512.7z"/>
		</g>
	</g>
	<g>
		<g>
			<path d="M362.4,435.1l-1.7,4H359l6.8-15.8h1.9l6.8,15.8h-1.8l-1.7-4H362.4z M363.1,433.6h7.3l-3.7-8.5L363.1,433.6z"/>
			<path d="M378.9,422.7v16.4h-1.6v-16.4H378.9z"/>
			<path d="M385.1,422.7v16.4h-1.6v-16.4H385.1z"/>
			<path d="M402,439.3c-2,0-3.3-1-4.2-2.4v2.3h-1.6v-16.4h1.6v8c0.9-1.4,2.1-2.5,4.1-2.5c3.1,0,5.1,2.7,5.1,5.5
				C407,436.7,405.1,439.3,402,439.3z M405.4,433.8c0-2.2-1.4-4.2-3.8-4.2c-2.2,0-3.8,2-3.8,4.1c0,2.2,1.6,4.2,3.8,4.2
				C404,437.9,405.4,436.1,405.4,433.8z"/>
			<path d="M412.3,434.7c0,1.9,1,3.3,3,3.3c1.9,0,3.2-1.5,3.2-3.4v-6.1h1.6v10.8h-1.5v-2c-0.8,1.5-2.1,2.2-3.7,2.2
				c-2.6,0-4.1-1.8-4.1-4.3v-6.6h1.6V434.7z"/>
			<path d="M427.9,439.3c-2.9,0-3.9-2-4.1-3.2l1.5-0.3c0.2,1,0.9,2.1,2.6,2.1c1.2,0,2.2-0.6,2.2-1.8c0-1.3-1.4-1.6-2.5-1.8
				c-1.8-0.3-3.5-0.9-3.5-3c0-2,1.8-3.2,3.6-3.2c2.8,0,3.7,1.9,3.9,2.9l-1.4,0.3c-0.2-0.7-0.8-1.9-2.5-1.9c-1.2,0-2,0.8-2,1.7
				c0,1.3,1.5,1.6,2.6,1.7c1.8,0.2,3.5,1.1,3.5,3.1C431.7,438.1,429.9,439.3,427.9,439.3z"/>
			<path d="M436.3,423.4c0.7,0,1.2,0.5,1.2,1.2c0,0.6-0.5,1.2-1.2,1.2c-0.6,0-1.2-0.5-1.2-1.2C435.1,423.9,435.6,423.4,436.3,423.4z
				 M437.1,428.4v10.8h-1.6v-10.8H437.1z"/>
			<path d="M449.4,432.9c0-1.9-1-3.3-3-3.3c-1.9,0-3.2,1.5-3.2,3.4v6.1h-1.6v-10.8h1.6v2c0.8-1.5,2.1-2.2,3.7-2.2
				c2.6,0,4.1,1.8,4.1,4.3v6.6h-1.6V432.9z"/>
			<path d="M456.2,434.3c0.1,2.1,1.8,3.7,3.8,3.7c1.6,0,2.8-0.8,3.3-2.3l1.4,0.4c-0.6,2.1-2.6,3.2-4.7,3.2c-3.1,0-5.5-2.5-5.5-5.6
				c0-2.9,2.2-5.5,5.2-5.5c3.3,0,5.1,2.4,5.1,5.5c0,0.2,0,0.4,0,0.5H456.2z M463.3,432.9c-0.2-2-1.4-3.3-3.5-3.3
				c-1.9,0-3.4,1.6-3.6,3.3H463.3z"/>
			<path d="M471.9,439.3c-2.9,0-3.9-2-4.1-3.2l1.5-0.3c0.2,1,0.9,2.1,2.6,2.1c1.2,0,2.2-0.6,2.2-1.8c0-1.3-1.4-1.6-2.5-1.8
				c-1.8-0.3-3.5-0.9-3.5-3c0-2,1.8-3.2,3.6-3.2c2.8,0,3.7,1.9,3.9,2.9l-1.4,0.3c-0.2-0.7-0.8-1.9-2.5-1.9c-1.2,0-2,0.8-2,1.7
				c0,1.3,1.5,1.6,2.6,1.7c1.8,0.2,3.5,1.1,3.5,3.1C475.7,438.1,473.9,439.3,471.9,439.3z"/>
			<path d="M482.8,439.3c-2.9,0-3.9-2-4.1-3.2l1.5-0.3c0.2,1,0.9,2.1,2.6,2.1c1.2,0,2.2-0.6,2.2-1.8c0-1.3-1.4-1.6-2.5-1.8
				c-1.8-0.3-3.5-0.9-3.5-3c0-2,1.8-3.2,3.6-3.2c2.8,0,3.7,1.9,3.9,2.9l-1.4,0.3c-0.2-0.7-0.8-1.9-2.5-1.9c-1.2,0-2,0.8-2,1.7
				c0,1.3,1.5,1.6,2.6,1.7c1.8,0.2,3.5,1.1,3.5,3.1C486.6,438.1,484.8,439.3,482.8,439.3z"/>
			<path d="M500.3,439.3c-2.9,0-3.9-2-4.1-3.2l1.5-0.3c0.2,1,0.9,2.1,2.6,2.1c1.2,0,2.2-0.6,2.2-1.8c0-1.3-1.4-1.6-2.5-1.8
				c-1.8-0.3-3.5-0.9-3.5-3c0-2,1.8-3.2,3.6-3.2c2.8,0,3.7,1.9,3.9,2.9l-1.4,0.3c-0.2-0.7-0.8-1.9-2.5-1.9c-1.2,0-2,0.8-2,1.7
				c0,1.3,1.5,1.6,2.6,1.7c1.8,0.2,3.5,1.1,3.5,3.1C504.1,438.1,502.4,439.3,500.3,439.3z"/>
			<path d="M508.7,423.4c0.7,0,1.2,0.5,1.2,1.2c0,0.6-0.5,1.2-1.2,1.2c-0.6,0-1.2-0.5-1.2-1.2C507.5,423.9,508.1,423.4,508.7,423.4z
				 M509.5,428.4v10.8h-1.6v-10.8H509.5z"/>
			<path d="M521.7,439.2h-8.6v-1.3l6.7-8.1h-6.6v-1.3h8.4v1.3l-6.7,8.1h6.7V439.2z"/>
			<path d="M526,434.3c0.1,2.1,1.8,3.7,3.8,3.7c1.6,0,2.8-0.8,3.3-2.3l1.4,0.4c-0.6,2.1-2.6,3.2-4.7,3.2c-3.1,0-5.5-2.5-5.5-5.6
				c0-2.9,2.2-5.5,5.2-5.5c3.3,0,5.1,2.4,5.1,5.5c0,0.2,0,0.4,0,0.5H526z M533.2,432.9c-0.2-2-1.4-3.3-3.5-3.3
				c-1.9,0-3.4,1.6-3.6,3.3H533.2z"/>
			<path d="M541.7,439.3c-2.9,0-3.9-2-4.1-3.2l1.5-0.3c0.2,1,0.9,2.1,2.6,2.1c1.2,0,2.2-0.6,2.2-1.8c0-1.3-1.4-1.6-2.5-1.8
				c-1.8-0.3-3.5-0.9-3.5-3c0-2,1.8-3.2,3.6-3.2c2.8,0,3.7,1.9,3.9,2.9l-1.4,0.3c-0.2-0.7-0.8-1.9-2.5-1.9c-1.2,0-2,0.8-2,1.7
				c0,1.3,1.5,1.6,2.6,1.7c1.8,0.2,3.5,1.1,3.5,3.1C545.5,438.1,543.8,439.3,541.7,439.3z"/>
		</g>
	</g>
	<g>
		<g>
			<path d="M710.5,434.9l1.6-0.4c0.3,1.8,2.1,3.3,4,3.3c1.8,0,3.5-0.9,3.5-2.9c0-1.9-1.7-2.6-2.8-2.8l-2.1-0.4
				c-0.7-0.1-1.8-0.5-2.7-1.3c-0.7-0.6-1.1-1.5-1.1-2.7c0-2.7,2.4-4.4,5-4.4c3.4,0,4.9,2.1,5.2,3.8l-1.5,0.5
				c-0.3-1.1-1.3-2.7-3.7-2.7c-1.7,0-3.3,1.1-3.3,2.8c0,1.1,0.7,2.2,2.3,2.5l2,0.4c1.1,0.2,2.2,0.6,3.1,1.4c1.1,1,1.3,2.2,1.3,2.9
				c0,2.8-2.3,4.6-5.2,4.6C712.9,439.3,710.7,437.1,710.5,434.9z"/>
			<path d="M732.5,432.9c0-1.8-0.8-3.2-2.8-3.2c-1.9,0-3,1.7-3,3.4v6.1h-1.6v-10.8h1.6v1.9c0.9-1.3,1.9-2.1,3.5-2.1
				c1.6,0,2.8,0.7,3.4,2.2c0.9-1.4,2.1-2.1,3.8-2.1c2.6,0,4,1.8,4,4.3v6.6h-1.6v-6.3c0-1.8-0.8-3.2-2.8-3.2c-1.9,0-3,1.5-3,3.3v6.2
				h-1.6V432.9z"/>
			<path d="M752.3,432.2c0-1.7-0.9-2.6-2.7-2.6c-1.8,0-2.6,1.2-2.8,2.2l-1.5-0.3c0.1-0.9,1.3-3.3,4.4-3.3c2.3,0,3.4,1,3.9,2.2
				c0.2,0.6,0.3,1.4,0.3,1.8v6.9h-1.5v-1.9h0c-0.8,1.3-2,2.1-3.6,2.1c-2.2,0-3.6-1.3-3.6-3.2v-0.1c0-2.3,2.3-3.1,4.3-3.1h3V432.2z
				 M749.3,434.2c-1.1,0-2.7,0.4-2.7,1.8c0,1.2,1,1.9,2.3,1.9c1.9,0,3.3-1.3,3.3-3.3v-0.4H749.3z"/>
			<path d="M759.8,422.7v16.4h-1.6v-16.4H759.8z"/>
			<path d="M766,422.7v16.4h-1.6v-16.4H766z"/>
		</g>
	</g>
	<g>
		<g>
			<path d="M998.5,439.2h-1.6v-13.5h0l-5.9,13.5h-1.5l-5.8-13.4v13.4h-1.6v-15.8h2.3l5.9,13.5l5.8-13.5h2.4V439.2z"/>
			<path d="M1004.3,434.3c0.1,2.1,1.8,3.7,3.8,3.7c1.6,0,2.8-0.8,3.3-2.3l1.4,0.4c-0.6,2.1-2.6,3.2-4.7,3.2c-3.1,0-5.5-2.5-5.5-5.6
				c0-2.9,2.2-5.5,5.2-5.5c3.3,0,5.1,2.4,5.1,5.5c0,0.2,0,0.4,0,0.5H1004.3z M1011.4,432.9c-0.2-2-1.4-3.3-3.5-3.3
				c-1.9,0-3.4,1.6-3.6,3.3H1011.4z"/>
			<path d="M1021,428.2c2.1,0,3.3,1.2,4.2,2.4v-7.9h1.6v16.4h-1.5v-2.3c-0.8,1.4-2.1,2.5-4.2,2.5c-3.1,0-5-2.6-5-5.6
				C1016,431,1018,428.2,1021,428.2z M1025.2,433.7c0-2.1-1.6-4.1-3.9-4.1c-2.4,0-3.8,1.9-3.8,4.2c0,2.2,1.4,4.1,3.8,4.1
				C1023.6,437.9,1025.2,436,1025.2,433.7z"/>
			<path d="M1032.1,423.4c0.7,0,1.2,0.5,1.2,1.2c0,0.6-0.5,1.2-1.2,1.2c-0.6,0-1.2-0.5-1.2-1.2
				C1030.9,423.9,1031.4,423.4,1032.1,423.4z M1032.9,428.4v10.8h-1.6v-10.8H1032.9z"/>
			<path d="M1038.9,434.7c0,1.9,1,3.3,3,3.3c1.9,0,3.2-1.5,3.2-3.4v-6.1h1.6v10.8h-1.5v-2c-0.8,1.5-2.1,2.2-3.7,2.2
				c-2.6,0-4.1-1.8-4.1-4.3v-6.6h1.6V434.7z"/>
			<path d="M1058.5,432.9c0-1.8-0.8-3.2-2.8-3.2c-1.9,0-3,1.7-3,3.4v6.1h-1.6v-10.8h1.6v1.9c0.9-1.3,1.9-2.1,3.5-2.1
				c1.6,0,2.8,0.7,3.4,2.2c0.9-1.4,2.1-2.1,3.8-2.1c2.6,0,4,1.8,4,4.3v6.6h-1.6v-6.3c0-1.8-0.8-3.2-2.8-3.2c-1.9,0-3,1.5-3,3.3v6.2
				h-1.6V432.9z"/>
		</g>
	</g>
	<g>
		<g>
			<path d="M1284,423.4v14.2h7.5v1.6h-9.1v-15.8H1284z"/>
			<path d="M1301.2,432.2c0-1.7-0.9-2.6-2.7-2.6c-1.8,0-2.6,1.2-2.8,2.2l-1.5-0.3c0.1-0.9,1.3-3.3,4.4-3.3c2.3,0,3.4,1,3.9,2.2
				c0.2,0.6,0.3,1.4,0.3,1.8v6.9h-1.5v-1.9h0c-0.8,1.3-2,2.1-3.6,2.1c-2.2,0-3.6-1.3-3.6-3.2v-0.1c0-2.3,2.3-3.1,4.3-3.1h3V432.2z
				 M1298.2,434.2c-1.1,0-2.7,0.4-2.7,1.8c0,1.2,1,1.9,2.3,1.9c1.9,0,3.3-1.3,3.3-3.3v-0.4H1298.2z"/>
			<path d="M1308.7,430.5c0.8-1.7,2.2-2.3,3.5-2.3c0.1,0,0.4,0,0.5,0v1.7c-0.2,0-0.4,0-0.6,0c-2.5,0-3.4,2.1-3.4,4v5.3h-1.6v-10.8
				h1.6V430.5z"/>
			<path d="M1323.9,436.8c-0.8,1.4-2.1,2.4-4.2,2.4c-3.1,0-5-2.5-5-5.5c0-2.8,2-5.5,5-5.5c2.1,0,3.3,1.2,4.2,2.4v-2.3h1.6v10.8
				c0,3.5-2.1,5.3-5.4,5.3c-2.8,0-4.8-1.4-5.3-3.7l1.5-0.5c0.3,1.2,1.4,2.8,3.9,2.8c2.1,0,3.8-1.1,3.8-3.9V436.8z M1323.9,433.7
				c0-2.1-1.6-4.1-3.9-4.1c-2.4,0-3.7,1.8-3.7,4.1c0,2.2,1.4,4.1,3.7,4.1C1322.3,437.8,1323.9,435.9,1323.9,433.7z"/>
			<path d="M1330.8,434.3c0.1,2.1,1.8,3.7,3.8,3.7c1.6,0,2.8-0.8,3.3-2.3l1.4,0.4c-0.6,2.1-2.6,3.2-4.7,3.2c-3.1,0-5.5-2.5-5.5-5.6
				c0-2.9,2.2-5.5,5.2-5.5c3.3,0,5.1,2.4,5.1,5.5c0,0.2,0,0.4,0,0.5H1330.8z M1337.9,432.9c-0.2-2-1.4-3.3-3.5-3.3
				c-1.9,0-3.4,1.6-3.6,3.3H1337.9z"/>
		</g>
	</g>
	<g>
		<g>
			<path d="M101.7,568.5c-4.5,0-7.9-3.5-7.9-8c0-4.5,3.4-8.1,8-8.1c4.5,0,7.9,3.5,7.9,8C109.6,564.9,106.3,568.5,101.7,568.5z
				 M101.7,554c-3.6,0-6.2,2.9-6.2,6.4c0,3.6,2.6,6.5,6.2,6.5c3.6,0,6.2-2.9,6.2-6.4C107.9,557,105.3,554,101.7,554z"/>
			<path d="M121.3,562.1c0-1.9-1-3.3-3-3.3c-1.9,0-3.2,1.5-3.2,3.4v6.1h-1.6v-10.8h1.6v2c0.8-1.4,2.1-2.2,3.7-2.2
				c2.6,0,4.1,1.8,4.1,4.3v6.6h-1.6V562.1z"/>
			<path d="M135.7,566c-0.8,1.4-2.1,2.4-4.2,2.4c-3.1,0-5-2.5-5-5.5c0-2.8,2-5.5,5-5.5c2.1,0,3.3,1.2,4.2,2.4v-2.3h1.6v10.8
				c0,3.5-2.1,5.3-5.4,5.3c-2.8,0-4.8-1.4-5.3-3.7l1.5-0.5c0.3,1.2,1.4,2.8,3.9,2.8c2.1,0,3.8-1.1,3.8-3.9V566z M135.7,562.9
				c0-2.1-1.6-4.1-3.9-4.1c-2.4,0-3.7,1.8-3.7,4.1c0,2.2,1.4,4.1,3.7,4.1C134.1,567,135.7,565.1,135.7,562.9z"/>
			<path d="M141,563c0-3.2,2.4-5.6,5.6-5.6c3.1,0,5.5,2.4,5.5,5.5c0,3.2-2.4,5.6-5.6,5.6C143.4,568.5,141,566.1,141,563z M150.5,563
				c0-2.3-1.6-4.2-4-4.2s-3.9,1.9-3.9,4.1s1.6,4.2,4,4.2C148.9,567.1,150.5,565.3,150.5,563z"/>
			<path d="M156.7,552.6c0.7,0,1.2,0.5,1.2,1.2c0,0.6-0.5,1.2-1.2,1.2c-0.6,0-1.2-0.5-1.2-1.2C155.5,553.1,156.1,552.6,156.7,552.6z
				 M157.5,557.6v10.8h-1.6v-10.8H157.5z"/>
			<path d="M169.8,562.1c0-1.9-1-3.3-3-3.3c-1.9,0-3.2,1.5-3.2,3.4v6.1h-1.6v-10.8h1.6v2c0.8-1.4,2.1-2.2,3.7-2.2
				c2.6,0,4.1,1.8,4.1,4.3v6.6h-1.6V562.1z"/>
			<path d="M184.2,566c-0.8,1.4-2.1,2.4-4.2,2.4c-3.1,0-5-2.5-5-5.5c0-2.8,2-5.5,5-5.5c2.1,0,3.3,1.2,4.2,2.4v-2.3h1.6v10.8
				c0,3.5-2.1,5.3-5.4,5.3c-2.8,0-4.8-1.4-5.3-3.7l1.5-0.5c0.3,1.2,1.4,2.8,3.9,2.8c2.1,0,3.8-1.1,3.8-3.9V566z M184.3,562.9
				c0-2.1-1.6-4.1-3.9-4.1c-2.4,0-3.7,1.8-3.7,4.1c0,2.2,1.4,4.1,3.7,4.1C182.7,567,184.3,565.1,184.3,562.9z"/>
			<path d="M197.8,563.5c0.1,2.1,1.8,3.7,3.8,3.7c1.6,0,2.8-0.8,3.3-2.3l1.4,0.4c-0.6,2.1-2.6,3.2-4.7,3.2c-3.1,0-5.5-2.5-5.5-5.6
				c0-2.9,2.2-5.5,5.2-5.5c3.3,0,5.1,2.4,5.1,5.5c0,0.2,0,0.4,0,0.5H197.8z M204.9,562.1c-0.2-2-1.4-3.3-3.5-3.3
				c-1.9,0-3.4,1.6-3.6,3.3H204.9z"/>
			<path d="M217.6,562c0-1.8-0.8-3.2-2.8-3.2c-1.9,0-3,1.7-3,3.4v6.1h-1.6v-10.8h1.6v1.9c0.9-1.3,1.9-2.1,3.5-2.1
				c1.6,0,2.8,0.7,3.4,2.2c0.9-1.4,2.1-2.1,3.8-2.1c2.6,0,4,1.8,4,4.3v6.6h-1.6v-6.3c0-1.8-0.8-3.2-2.8-3.2c-1.9,0-3,1.5-3,3.3v6.2
				h-1.6V562z"/>
			<path d="M236.6,568.5c-2,0-3.3-1-4.1-2.4v7.5h-1.6v-16.1h1.6v2.3c0.9-1.3,2.1-2.5,4.2-2.5c3.1,0,5.1,2.7,5.1,5.5
				C241.7,565.9,239.7,568.5,236.6,568.5z M240,563c0-2.2-1.4-4.2-3.8-4.2c-2.2,0-3.8,2-3.8,4.1c0,2.2,1.6,4.2,3.8,4.2
				C238.7,567.1,240,565.3,240,563z"/>
			<path d="M247,551.9v16.4h-1.6v-16.4H247z"/>
			<path d="M250.8,563c0-3.2,2.4-5.6,5.6-5.6c3.1,0,5.5,2.4,5.5,5.5c0,3.2-2.4,5.6-5.6,5.6C253.2,568.5,250.8,566.1,250.8,563z
				 M260.3,563c0-2.3-1.6-4.2-4-4.2s-3.9,1.9-3.9,4.1s1.6,4.2,4,4.2C258.7,567.1,260.3,565.3,260.3,563z"/>
			<path d="M268.8,567.6l-4.9-10h1.8l3.9,8.3l3.7-8.3h1.7l-7.4,16.1H266L268.8,567.6z"/>
			<path d="M278.7,563.5c0.1,2.1,1.8,3.7,3.8,3.7c1.6,0,2.8-0.8,3.3-2.3l1.4,0.4c-0.6,2.1-2.6,3.2-4.7,3.2c-3.1,0-5.5-2.5-5.5-5.6
				c0-2.9,2.2-5.5,5.2-5.5c3.3,0,5.1,2.4,5.1,5.5c0,0.2,0,0.4,0,0.5H278.7z M285.8,562.1c-0.2-2-1.4-3.3-3.5-3.3
				c-1.9,0-3.4,1.6-3.6,3.3H285.8z"/>
			<path d="M291.9,563.5c0.1,2.1,1.8,3.7,3.8,3.7c1.6,0,2.8-0.8,3.3-2.3l1.4,0.4c-0.6,2.1-2.6,3.2-4.7,3.2c-3.1,0-5.5-2.5-5.5-5.6
				c0-2.9,2.2-5.5,5.2-5.5c3.3,0,5.1,2.4,5.1,5.5c0,0.2,0,0.4,0,0.5H291.9z M299,562.1c-0.2-2-1.4-3.3-3.5-3.3
				c-1.9,0-3.4,1.6-3.6,3.3H299z"/>
			<path d="M107,585.6c0-1.7-0.9-2.6-2.7-2.6c-1.8,0-2.6,1.2-2.8,2.2l-1.5-0.3c0.1-0.9,1.3-3.3,4.4-3.3c2.3,0,3.4,1,3.9,2.2
				c0.2,0.6,0.3,1.4,0.3,1.8v6.9H107v-1.9h0c-0.8,1.3-2,2.1-3.6,2.1c-2.2,0-3.6-1.3-3.6-3.2v-0.1c0-2.3,2.3-3.1,4.3-3.1h3V585.6z
				 M104,587.6c-1.1,0-2.7,0.4-2.7,1.8c0,1.2,1,1.9,2.3,1.9c1.9,0,3.3-1.3,3.3-3.3v-0.4H104z"/>
			<path d="M115.3,592.5l-3.6-10.8h1.7l2.8,8.9h0l2.9-8.9h1.6l2.9,8.9h0l2.8-8.9h1.6l-3.6,10.8h-1.8l-2.8-8.7h0l-2.9,8.7H115.3z"/>
			<path d="M137.6,585.6c0-1.7-0.9-2.6-2.7-2.6c-1.8,0-2.6,1.2-2.8,2.2l-1.5-0.3c0.1-0.9,1.3-3.3,4.4-3.3c2.3,0,3.4,1,3.9,2.2
				c0.2,0.6,0.3,1.4,0.3,1.8v6.9h-1.5v-1.9h0c-0.8,1.3-2,2.1-3.6,2.1c-2.2,0-3.6-1.3-3.6-3.2v-0.1c0-2.3,2.3-3.1,4.2-3.1h3V585.6z
				 M134.6,587.6c-1.1,0-2.7,0.4-2.7,1.8c0,1.2,1,1.9,2.3,1.9c1.9,0,3.3-1.3,3.3-3.3v-0.4H134.6z"/>
			<path d="M145.1,583.9c0.8-1.7,2.2-2.3,3.5-2.3c0.1,0,0.4,0,0.5,0v1.7c-0.2,0-0.4,0-0.6,0c-2.5,0-3.4,2.1-3.4,4v5.3h-1.6v-10.8
				h1.6V583.9z"/>
			<path d="M152.7,587.6c0.1,2.1,1.8,3.7,3.8,3.7c1.6,0,2.8-0.8,3.3-2.3l1.4,0.4c-0.6,2.1-2.6,3.2-4.7,3.2c-3.1,0-5.5-2.5-5.5-5.6
				c0-2.9,2.2-5.5,5.2-5.5c3.3,0,5.1,2.4,5.1,5.5c0,0.2,0,0.4,0,0.5H152.7z M159.8,586.3c-0.2-2-1.4-3.3-3.5-3.3
				c-1.9,0-3.4,1.6-3.6,3.3H159.8z"/>
			<path d="M172.8,586.3c0-1.9-1-3.3-3-3.3c-1.9,0-3.2,1.5-3.2,3.4v6.1h-1.6v-10.8h1.6v2c0.8-1.5,2.1-2.2,3.7-2.2
				c2.6,0,4.1,1.8,4.1,4.3v6.6h-1.6V586.3z"/>
			<path d="M179.6,587.6c0.1,2.1,1.8,3.7,3.8,3.7c1.6,0,2.8-0.8,3.3-2.3l1.4,0.4c-0.6,2.1-2.6,3.2-4.7,3.2c-3.1,0-5.5-2.5-5.5-5.6
				c0-2.9,2.2-5.5,5.2-5.5c3.3,0,5.1,2.4,5.1,5.5c0,0.2,0,0.4,0,0.5H179.6z M186.8,586.3c-0.2-2-1.4-3.3-3.5-3.3
				c-1.9,0-3.4,1.6-3.6,3.3H186.8z"/>
			<path d="M195.3,592.7c-2.9,0-3.9-2-4.1-3.2l1.5-0.3c0.2,1,0.9,2.1,2.6,2.1c1.2,0,2.2-0.6,2.2-1.8c0-1.3-1.4-1.6-2.5-1.8
				c-1.8-0.3-3.5-0.9-3.5-3c0-2,1.8-3.2,3.6-3.2c2.8,0,3.7,1.9,3.9,2.9l-1.4,0.3c-0.2-0.7-0.8-1.9-2.5-1.9c-1.2,0-2,0.8-2,1.7
				c0,1.3,1.5,1.6,2.6,1.7c1.8,0.2,3.5,1.1,3.5,3.1C199.1,591.4,197.4,592.7,195.3,592.7z"/>
			<path d="M206.2,592.7c-2.9,0-3.9-2-4.1-3.2l1.5-0.3c0.2,1,0.9,2.1,2.6,2.1c1.2,0,2.2-0.6,2.2-1.8c0-1.3-1.4-1.6-2.5-1.8
				c-1.8-0.3-3.5-0.9-3.5-3c0-2,1.8-3.2,3.6-3.2c2.8,0,3.7,1.9,3.9,2.9l-1.4,0.3c-0.2-0.7-0.8-1.9-2.5-1.9c-1.2,0-2,0.8-2,1.7
				c0,1.3,1.5,1.6,2.6,1.7c1.8,0.2,3.5,1.1,3.5,3.1C210,591.4,208.3,592.7,206.2,592.7z"/>
			<path d="M221.2,589.7v-6.6h-2v-1.4h2v-3.1h1.6v3.1h2.7v1.4h-2.7v6.5c0,1,0.6,1.5,1.8,1.5c0.3,0,0.7,0,1-0.1v1.3
				c-0.3,0.1-0.9,0.2-1.2,0.2C221.9,592.6,221.2,591.3,221.2,589.7z"/>
			<path d="M230.7,583.9c0.8-1.7,2.2-2.3,3.5-2.3c0.1,0,0.4,0,0.5,0v1.7c-0.2,0-0.4,0-0.6,0c-2.5,0-3.4,2.1-3.4,4v5.3h-1.6v-10.8
				h1.6V583.9z"/>
			<path d="M244,585.6c0-1.7-0.9-2.6-2.7-2.6c-1.8,0-2.6,1.2-2.8,2.2l-1.5-0.3c0.1-0.9,1.3-3.3,4.4-3.3c2.3,0,3.4,1,3.9,2.2
				c0.2,0.6,0.3,1.4,0.3,1.8v6.9h-1.5v-1.9h0c-0.8,1.3-2,2.1-3.6,2.1c-2.2,0-3.6-1.3-3.6-3.2v-0.1c0-2.3,2.3-3.1,4.2-3.1h3V585.6z
				 M241,587.6c-1.1,0-2.7,0.4-2.7,1.8c0,1.2,1,1.9,2.3,1.9c1.9,0,3.3-1.3,3.3-3.3v-0.4H241z"/>
			<path d="M250.8,576.7c0.7,0,1.2,0.5,1.2,1.2c0,0.6-0.5,1.2-1.2,1.2c-0.6,0-1.2-0.5-1.2-1.2C249.6,577.3,250.1,576.7,250.8,576.7z
				 M251.6,581.8v10.8H250v-10.8H251.6z"/>
			<path d="M263.9,586.3c0-1.9-1-3.3-3-3.3c-1.9,0-3.2,1.5-3.2,3.4v6.1h-1.6v-10.8h1.6v2c0.8-1.5,2.1-2.2,3.7-2.2
				c2.6,0,4.1,1.8,4.1,4.3v6.6h-1.6V586.3z"/>
			<path d="M270.7,576.7c0.7,0,1.2,0.5,1.2,1.2c0,0.6-0.5,1.2-1.2,1.2c-0.6,0-1.2-0.5-1.2-1.2C269.5,577.3,270,576.7,270.7,576.7z
				 M271.5,581.8v10.8h-1.6v-10.8H271.5z"/>
			<path d="M283.8,586.3c0-1.9-1-3.3-3-3.3c-1.9,0-3.2,1.5-3.2,3.4v6.1H276v-10.8h1.6v2c0.8-1.5,2.1-2.2,3.7-2.2
				c2.6,0,4.1,1.8,4.1,4.3v6.6h-1.6V586.3z"/>
			<path d="M298.2,590.1c-0.8,1.4-2.1,2.4-4.2,2.4c-3.1,0-5-2.5-5-5.5c0-2.8,2-5.5,5-5.5c2.1,0,3.3,1.2,4.2,2.4v-2.3h1.6v10.8
				c0,3.5-2.1,5.3-5.4,5.3c-2.8,0-4.8-1.4-5.3-3.7l1.5-0.5c0.3,1.2,1.4,2.8,3.9,2.8c2.1,0,3.8-1.1,3.8-3.9V590.1z M298.2,587.1
				c0-2.1-1.6-4.1-3.9-4.1c-2.4,0-3.7,1.8-3.7,4.1c0,2.2,1.4,4.1,3.7,4.1C296.6,591.2,298.2,589.3,298.2,587.1z"/>
		</g>
	</g>
	<g class="st6">
		
			<pattern  id="SVGID_9_" xlink:href="#Unnamed_Pattern_4" patternTransform="matrix(0 1.439 -1.3814 0 -29083.4063 3650.9084)"  class="st6">
		</pattern>
		<polygon class="st16" points="618,554 618,595 816.3,595 859.9,595 859.9,554 816.3,554 		"/>
	</g>
	<g>
		<polygon class="st5" points="618,554 618,595 649.7,595 656.7,595 656.7,554 649.7,554 		"/>
	</g>
	<g class="st6">
		
			<pattern  id="SVGID_10_" xlink:href="#Unnamed_Pattern_4" patternTransform="matrix(0 1.439 -1.3814 0 -29083.4063 3650.9084)"  class="st6">
		</pattern>
		<polygon class="st17" points="618,633.2 618,674.2 627.7,674.2 859.9,674.2 859.9,633.2 627.7,633.2 		"/>
	</g>
	<g>
		<polygon class="st5" points="618,633.2 618,674.2 618.3,674.2 625.2,674.2 625.2,633.2 618.3,633.2 		"/>
	</g>
	<g class="st6">
		
			<pattern  id="SVGID_11_" xlink:href="#Unnamed_Pattern_4" patternTransform="matrix(0 1.439 -1.3814 0 -29083.4063 3650.9084)"  class="st6">
		</pattern>
		<polygon class="st18" points="1228.4,633.2 1189.7,633.2 1189.7,674.2 1228.4,674.2 1431.6,674.2 1431.6,633.2 		"/>
	</g>
	<g>
		<polygon class="st19" points="1197.4,633.2 1189.7,633.2 1189.7,674.2 1197.4,674.2 1238.1,674.2 1238.1,633.2 		"/>
	</g>
	<g class="st6">
		
			<pattern  id="SVGID_12_" xlink:href="#Unnamed_Pattern_4" patternTransform="matrix(0 1.439 -1.3814 0 -29083.4063 3650.9084)"  class="st6">
		</pattern>
		<polygon class="st20" points="1209,474.9 1189.7,474.9 1189.7,515.9 1209,515.9 1431.6,515.9 1431.6,474.9 		"/>
	</g>
	<g>
		<polygon class="st19" points="1197.2,474.9 1189.7,474.9 1189.7,515.9 1197.2,515.9 1284,515.9 1284,474.9 		"/>
	</g>
	<g class="st6">
		
			<pattern  id="SVGID_13_" xlink:href="#Unnamed_Pattern_4" patternTransform="matrix(0 1.439 -1.3814 0 -29083.4063 3650.9084)"  class="st6">
		</pattern>
		<polygon class="st21" points="923.2,474.9 903.8,474.9 903.8,515.9 923.2,515.9 1145.7,515.9 1145.7,474.9 		"/>
	</g>
	<g class="st4">
		<polygon points="908.5,474.9 903.8,474.9 903.8,515.9 908.5,515.9 961.9,515.9 961.9,474.9 		"/>
	</g>
	<g class="st6">
		
			<pattern  id="SVGID_14_" xlink:href="#Unnamed_Pattern_4" patternTransform="matrix(0 1.439 -1.3814 0 -29083.4063 3650.9084)"  class="st6">
		</pattern>
		<polygon class="st22" points="1189.7,554 1189.7,595 1238.1,595 1431.6,595 1431.6,554 1238.1,554 		"/>
	</g>
	<g>
		<polygon class="st19" points="1189.7,554 1189.7,595 1212.9,595 1305.8,595 1305.8,554 1212.9,554 		"/>
	</g>
	<g>
		<g>
			<path class="st23" d="M408,502.1c0-2.1,1-4.4,4.2-6.3l2.7-1.7c1.7-1.1,3.2-2.2,3.2-4.3c0-1.8-1.6-3.6-4-3.6c-2,0-3.2,1.2-3.7,2.3
				c-0.3,0.8-0.3,1.5-0.4,1.8l-1.9-0.3c0-2.6,2.2-5.6,6-5.6c3.3,0,5.9,2.5,5.9,5.3c0,2.6-1.4,4.1-3.8,5.5l-2.8,1.8
				c-1.5,1-3,2.2-3.1,3.8h9.9v1.8H408V502.1z"/>
			<path class="st23" d="M424.8,493.5c1.2-1.9,3.5-2.6,5-2.6c3.8,0,6.1,2.7,6.1,5.8c0,4.1-3.3,6.1-6.4,6.1c-2,0-4.3-1.2-5.4-3
				c-0.9-1.6-1.1-2.7-1.1-5c0-5.7,3.1-10.4,8.8-10.4c1,0,2.5,0.1,3.7,0.9l-0.7,1.7c-0.9-0.6-2.2-0.8-3-0.8
				C427.5,486.2,425.1,489.5,424.8,493.5z M426.4,493.6c-0.9,0.7-1.4,1.9-1.4,3.1c0,2.7,2.2,4.3,4.5,4.3c2.3,0,4.5-1.5,4.5-4.3
				c0-2.2-1.7-4.2-4.5-4.2C428.3,492.6,427.2,493,426.4,493.6z"/>
			<path class="st23" d="M439.9,495.8c-1.3,0-2.4-1.1-2.4-2.4c0-1.3,1.1-2.4,2.4-2.4c1.3,0,2.4,1.1,2.4,2.4
				C442.3,494.7,441.2,495.8,439.9,495.8z M439.9,491.9c-0.8,0-1.5,0.7-1.5,1.5c0,0.8,0.7,1.5,1.5,1.5c0.8,0,1.5-0.7,1.5-1.5
				C441.4,492.6,440.7,491.9,439.9,491.9z M445.7,491.1h1.1l-6.9,10.5h-1.1L445.7,491.1z M445.7,501.7c-1.3,0-2.4-1.1-2.4-2.4
				c0-1.3,1.1-2.4,2.4-2.4c1.3,0,2.4,1.1,2.4,2.4C448.1,500.7,447,501.7,445.7,501.7z M445.7,497.9c-0.8,0-1.5,0.7-1.5,1.5
				c0,0.8,0.7,1.5,1.5,1.5c0.8,0,1.5-0.7,1.5-1.5C447.2,498.5,446.5,497.9,445.7,497.9z"/>
		</g>
	</g>
	<g>
		<g>
			<path class="st23" d="M435.3,581.9c-3.2,0-5.8-1.9-6.2-4.9l1.8-0.4c0.3,2.1,1.9,3.6,4.4,3.6c2.4,0,4.4-1.3,4.4-3.4
				c0-2-1.5-3.3-4.4-3.3h-1.8v-1.8h1.7c2.5,0,4-1.5,4-3.2c0-1.8-1.4-3.2-4-3.2c-2.5,0-3.9,1.5-4.2,3.4l-1.8-0.4
				c0.3-2.5,2.7-4.7,6-4.7c3.9,0,5.8,2.4,5.8,4.8c0,2-1.2,3.4-2.9,4.1v0c2,0.6,3.3,2.2,3.3,4.3C441.6,579.6,439.1,581.9,435.3,581.9
				z"/>
			<path class="st23" d="M453,581.8v-4.3h-9.4v-2.1l8.8-11.6h2.4v12.1h3v1.6h-3v4.3H453z M453,575.8v-10.1l-7.7,10.1H453z"/>
			<path class="st23" d="M461.5,574.9c-1.3,0-2.4-1.1-2.4-2.4c0-1.3,1.1-2.4,2.4-2.4c1.3,0,2.4,1.1,2.4,2.4
				C463.9,573.9,462.8,574.9,461.5,574.9z M461.5,571.1c-0.8,0-1.5,0.7-1.5,1.5c0,0.8,0.7,1.5,1.5,1.5c0.8,0,1.5-0.7,1.5-1.5
				C463,571.7,462.3,571.1,461.5,571.1z M467.3,570.3h1.1l-6.9,10.5h-1.1L467.3,570.3z M467.3,580.9c-1.3,0-2.4-1.1-2.4-2.4
				c0-1.3,1.1-2.4,2.4-2.4c1.3,0,2.4,1.1,2.4,2.4C469.7,579.8,468.6,580.9,467.3,580.9z M467.3,577c-0.8,0-1.5,0.7-1.5,1.5
				c0,0.8,0.7,1.5,1.5,1.5c0.8,0,1.5-0.7,1.5-1.5C468.8,577.7,468.1,577,467.3,577z"/>
		</g>
	</g>
	<g>
		<g>
			<path class="st5" d="M662.3,486.6l-4.3,2.6l-0.9-1.4l5.2-3.2h1.8v18h-1.9V486.6z"/>
			<path class="st5" d="M672.2,486.6l-4.3,2.6l-0.9-1.4l5.2-3.2h1.8v18h-1.9V486.6z"/>
			<path class="st5" d="M679.5,495.8c-1.3,0-2.4-1.1-2.4-2.4c0-1.3,1.1-2.4,2.4-2.4c1.3,0,2.4,1.1,2.4,2.4
				C681.9,494.7,680.8,495.8,679.5,495.8z M679.5,491.9c-0.8,0-1.5,0.7-1.5,1.5c0,0.8,0.7,1.5,1.5,1.5c0.8,0,1.5-0.7,1.5-1.5
				C681,492.6,680.3,491.9,679.5,491.9z M685.3,491.1h1.1l-6.9,10.5h-1.1L685.3,491.1z M685.3,501.7c-1.3,0-2.4-1.1-2.4-2.4
				c0-1.3,1.1-2.4,2.4-2.4c1.3,0,2.4,1.1,2.4,2.4C687.7,500.7,686.6,501.7,685.3,501.7z M685.3,497.9c-0.8,0-1.5,0.7-1.5,1.5
				c0,0.8,0.7,1.5,1.5,1.5c0.8,0,1.5-0.7,1.5-1.5C686.8,498.5,686.1,497.9,685.3,497.9z"/>
		</g>
	</g>
	<g>
		<g>
			<path class="st5" d="M671.8,565.7l-4.3,2.6l-0.9-1.4l5.2-3.2h1.8v18h-1.9V565.7z"/>
			<path class="st5" d="M679.5,572.7c1.2-1.9,3.5-2.6,5-2.6c3.8,0,6.1,2.7,6.1,5.8c0,4.1-3.3,6.1-6.4,6.1c-2,0-4.3-1.2-5.4-3
				c-0.9-1.6-1.1-2.7-1.1-5c0-5.7,3.1-10.4,8.8-10.4c1,0,2.5,0.1,3.7,0.9l-0.7,1.7c-0.9-0.6-2.2-0.8-3-0.8
				C682.2,565.4,679.8,568.6,679.5,572.7z M681.1,572.8c-0.9,0.7-1.4,1.9-1.4,3.1c0,2.7,2.2,4.3,4.5,4.3c2.3,0,4.5-1.5,4.5-4.3
				c0-2.2-1.7-4.2-4.5-4.2C683,571.7,681.9,572.1,681.1,572.8z"/>
			<path class="st5" d="M694.6,574.9c-1.3,0-2.4-1.1-2.4-2.4c0-1.3,1.1-2.4,2.4-2.4c1.3,0,2.4,1.1,2.4,2.4
				C697,573.9,695.9,574.9,694.6,574.9z M694.6,571.1c-0.8,0-1.5,0.7-1.5,1.5c0,0.8,0.7,1.5,1.5,1.5c0.8,0,1.5-0.7,1.5-1.5
				C696.1,571.7,695.4,571.1,694.6,571.1z M700.4,570.3h1.1l-6.9,10.5h-1.1L700.4,570.3z M700.4,580.9c-1.3,0-2.4-1.1-2.4-2.4
				c0-1.3,1.1-2.4,2.4-2.4c1.3,0,2.4,1.1,2.4,2.4C702.8,579.8,701.7,580.9,700.4,580.9z M700.4,577c-0.8,0-1.5,0.7-1.5,1.5
				c0,0.8,0.7,1.5,1.5,1.5c0.8,0,1.5-0.7,1.5-1.5C701.9,577.7,701.2,577,700.4,577z"/>
		</g>
	</g>
	<g>
		<g>
			<path class="st5" d="M643.1,662.8c-3.2,0-5.8-1.9-6.2-4.9l1.8-0.4c0.3,2.1,1.9,3.6,4.4,3.6c2.4,0,4.4-1.3,4.4-3.4
				c0-2-1.5-3.3-4.4-3.3h-1.8v-1.8h1.7c2.5,0,4-1.5,4-3.2c0-1.8-1.4-3.2-4-3.2c-2.5,0-3.9,1.5-4.2,3.4l-1.8-0.4
				c0.3-2.5,2.7-4.7,6-4.7c3.9,0,5.8,2.4,5.8,4.8c0,2-1.2,3.4-2.9,4.1v0c2,0.6,3.3,2.2,3.3,4.3C649.3,660.5,646.9,662.8,643.1,662.8
				z"/>
			<path class="st5" d="M653.6,655.8c-1.3,0-2.4-1.1-2.4-2.4c0-1.3,1.1-2.4,2.4-2.4c1.3,0,2.4,1.1,2.4,2.4
				C655.9,654.8,654.9,655.8,653.6,655.8z M653.6,652c-0.8,0-1.5,0.7-1.5,1.5c0,0.8,0.7,1.5,1.5,1.5c0.8,0,1.5-0.7,1.5-1.5
				C655.1,652.6,654.4,652,653.6,652z M659.4,651.2h1.1l-6.9,10.5h-1.1L659.4,651.2z M659.4,661.8c-1.3,0-2.4-1.1-2.4-2.4
				c0-1.3,1.1-2.4,2.4-2.4c1.3,0,2.4,1.1,2.4,2.4C661.8,660.7,660.7,661.8,659.4,661.8z M659.4,657.9c-0.8,0-1.5,0.7-1.5,1.5
				c0,0.8,0.7,1.5,1.5,1.5c0.8,0,1.5-0.7,1.5-1.5C660.9,658.6,660.2,657.9,659.4,657.9z"/>
		</g>
	</g>
	<g>
		<g>
			<path class="st23" d="M376.7,646.7l-4.3,2.6l-0.9-1.4l5.2-3.2h1.8v18h-1.9V646.7z"/>
			<path class="st23" d="M386.6,646.7l-4.3,2.6l-0.9-1.4l5.2-3.2h1.8v18h-1.9V646.7z"/>
			<path class="st23" d="M393.8,655.8c-1.3,0-2.4-1.1-2.4-2.4c0-1.3,1.1-2.4,2.4-2.4c1.3,0,2.4,1.1,2.4,2.4
				C396.2,654.8,395.2,655.8,393.8,655.8z M393.8,652c-0.8,0-1.5,0.7-1.5,1.5c0,0.8,0.7,1.5,1.5,1.5c0.8,0,1.5-0.7,1.5-1.5
				C395.3,652.6,394.7,652,393.8,652z M399.6,651.2h1.1l-6.9,10.5h-1.1L399.6,651.2z M399.7,661.8c-1.3,0-2.4-1.1-2.4-2.4
				c0-1.3,1.1-2.4,2.4-2.4c1.3,0,2.4,1.1,2.4,2.4C402,660.7,401,661.8,399.7,661.8z M399.7,657.9c-0.8,0-1.5,0.7-1.5,1.5
				c0,0.8,0.7,1.5,1.5,1.5c0.8,0,1.5-0.7,1.5-1.5C401.2,658.6,400.5,657.9,399.7,657.9z"/>
		</g>
	</g>
	<g>
		<g>
			<path d="M972.3,502.1c0-2.1,1-4.4,4.2-6.3l2.7-1.7c1.7-1.1,3.2-2.2,3.2-4.3c0-1.8-1.6-3.6-4-3.6c-2,0-3.2,1.2-3.7,2.3
				c-0.3,0.8-0.3,1.5-0.4,1.8l-1.9-0.3c0-2.6,2.2-5.6,6-5.6c3.3,0,5.9,2.5,5.9,5.3c0,2.6-1.4,4.1-3.8,5.5l-2.8,1.8
				c-1.5,1-3,2.2-3.1,3.8h9.9v1.8h-12.2V502.1z"/>
			<path d="M995.5,502.6v-4.3h-9.4v-2.1l8.8-11.6h2.4v12.1h3v1.6h-3v4.3H995.5z M995.5,496.7v-10.1l-7.7,10.1H995.5z"/>
			<path d="M1004,495.8c-1.3,0-2.4-1.1-2.4-2.4c0-1.3,1.1-2.4,2.4-2.4c1.3,0,2.4,1.1,2.4,2.4C1006.4,494.7,1005.3,495.8,1004,495.8z
				 M1004,491.9c-0.8,0-1.5,0.7-1.5,1.5c0,0.8,0.7,1.5,1.5,1.5s1.5-0.7,1.5-1.5C1005.5,492.6,1004.8,491.9,1004,491.9z
				 M1009.8,491.1h1.1l-6.9,10.5h-1.1L1009.8,491.1z M1009.8,501.7c-1.3,0-2.4-1.1-2.4-2.4c0-1.3,1.1-2.4,2.4-2.4
				c1.3,0,2.4,1.1,2.4,2.4C1012.2,500.7,1011.1,501.7,1009.8,501.7z M1009.8,497.9c-0.8,0-1.5,0.7-1.5,1.5c0,0.8,0.7,1.5,1.5,1.5
				s1.5-0.7,1.5-1.5C1011.3,498.5,1010.6,497.9,1009.8,497.9z"/>
		</g>
	</g>
	<g>
		<g>
			<path d="M1003,581.9c-3.2,0-5.8-1.9-6.2-4.9l1.8-0.4c0.3,2.1,1.9,3.6,4.4,3.6c2.4,0,4.4-1.3,4.4-3.4c0-2-1.5-3.3-4.4-3.3h-1.8
				v-1.8h1.8c2.5,0,4-1.5,4-3.2c0-1.8-1.4-3.2-4-3.2c-2.5,0-3.9,1.5-4.2,3.4l-1.8-0.4c0.3-2.5,2.7-4.7,6-4.7c3.9,0,5.8,2.4,5.8,4.8
				c0,2-1.2,3.4-2.9,4.1v0c2,0.6,3.3,2.2,3.3,4.3C1009.3,579.6,1006.8,581.9,1003,581.9z"/>
			<path d="M1018,581.9c-3.2,0-5.8-1.9-6.2-4.9l1.8-0.4c0.3,2.1,1.9,3.6,4.4,3.6c2.4,0,4.4-1.3,4.4-3.4c0-2-1.5-3.3-4.4-3.3h-1.8
				v-1.8h1.8c2.5,0,4-1.5,4-3.2c0-1.8-1.4-3.2-4-3.2c-2.5,0-3.9,1.5-4.2,3.4l-1.8-0.4c0.3-2.5,2.7-4.7,6-4.7c3.9,0,5.8,2.4,5.8,4.8
				c0,2-1.2,3.4-2.9,4.1v0c2,0.6,3.3,2.2,3.3,4.3C1024.2,579.6,1021.7,581.9,1018,581.9z"/>
			<path d="M1028.4,574.9c-1.3,0-2.4-1.1-2.4-2.4c0-1.3,1.1-2.4,2.4-2.4c1.3,0,2.4,1.1,2.4,2.4
				C1030.8,573.9,1029.8,574.9,1028.4,574.9z M1028.4,571.1c-0.8,0-1.5,0.7-1.5,1.5c0,0.8,0.7,1.5,1.5,1.5s1.5-0.7,1.5-1.5
				C1029.9,571.7,1029.3,571.1,1028.4,571.1z M1034.2,570.3h1.1l-6.9,10.5h-1.1L1034.2,570.3z M1034.3,580.9c-1.3,0-2.4-1.1-2.4-2.4
				c0-1.3,1.1-2.4,2.4-2.4c1.3,0,2.4,1.1,2.4,2.4C1036.6,579.8,1035.6,580.9,1034.3,580.9z M1034.3,577c-0.8,0-1.5,0.7-1.5,1.5
				c0,0.8,0.7,1.5,1.5,1.5s1.5-0.7,1.5-1.5C1035.8,577.7,1035.1,577,1034.3,577z"/>
		</g>
	</g>
	<g>
		<g>
			<path d="M1299.6,502.8c-3.2,0-5.8-1.9-6.2-4.9l1.8-0.4c0.3,2.1,1.9,3.6,4.4,3.6c2.4,0,4.4-1.3,4.4-3.4s-1.5-3.3-4.4-3.3h-1.8
				v-1.8h1.8c2.5,0,4-1.5,4-3.2c0-1.8-1.4-3.2-4-3.2c-2.5,0-3.9,1.5-4.2,3.4l-1.8-0.4c0.3-2.5,2.7-4.7,6-4.7c3.9,0,5.8,2.4,5.8,4.8
				c0,2-1.2,3.4-2.9,4.1v0c2,0.6,3.3,2.2,3.3,4.3C1305.8,500.4,1303.3,502.8,1299.6,502.8z"/>
			<path d="M1319.5,493.7c-1.2,1.9-3.6,2.7-5.1,2.7c-3.8,0-6-2.9-6-5.8c0-4.1,3.2-6.2,6.4-6.2c2,0,4.2,1.1,5.3,3
				c0.9,1.6,1.2,3,1.2,5.1c0,5.9-2.9,10.3-8.4,10.3c-1,0-3-0.3-4.2-1.1l0.7-1.7c1.2,0.7,2.6,1,3.4,1
				C1316.9,501,1319.2,497.8,1319.5,493.7z M1317.7,493.6c0.9-0.7,1.4-2,1.4-3.2c0-2.7-2.2-4.3-4.4-4.3c-2.3,0-4.4,1.5-4.4,4.3
				c0,2.2,1.6,4.2,4.4,4.2C1315.8,494.7,1316.9,494.3,1317.7,493.6z"/>
			<path d="M1325.6,495.8c-1.3,0-2.4-1.1-2.4-2.4c0-1.3,1.1-2.4,2.4-2.4c1.3,0,2.4,1.1,2.4,2.4
				C1328,494.7,1326.9,495.8,1325.6,495.8z M1325.6,491.9c-0.8,0-1.5,0.7-1.5,1.5c0,0.8,0.7,1.5,1.5,1.5c0.8,0,1.5-0.7,1.5-1.5
				C1327.1,492.6,1326.4,491.9,1325.6,491.9z M1331.4,491.1h1.1l-6.9,10.5h-1.1L1331.4,491.1z M1331.4,501.7c-1.3,0-2.4-1.1-2.4-2.4
				c0-1.3,1.1-2.4,2.4-2.4c1.3,0,2.4,1.1,2.4,2.4C1333.8,500.7,1332.7,501.7,1331.4,501.7z M1331.4,497.9c-0.8,0-1.5,0.7-1.5,1.5
				c0,0.8,0.7,1.5,1.5,1.5c0.8,0,1.5-0.7,1.5-1.5C1332.9,498.5,1332.2,497.9,1331.4,497.9z"/>
		</g>
	</g>
	<g>
		<g>
			<path d="M1324,581.8v-4.3h-9.4v-2.1l8.8-11.6h2.4v12.1h3v1.6h-3v4.3H1324z M1324,575.8v-10.1l-7.7,10.1H1324z"/>
			<path d="M1331,576.8c0-1.9,1.3-3.6,3.8-4.4c-2.2-0.6-3.3-2.6-3.3-4.1c0-3.1,3.2-4.8,5.9-4.8c2.7,0,5.9,1.6,5.9,4.8
				c0,1.7-1.2,3.5-3.4,4.1c2.5,0.7,3.8,2.5,3.8,4.4c0,3.3-3.2,5.1-6.3,5.1C1334.2,582,1331,580.3,1331,576.8z M1341.7,576.8
				c0-2.4-2.5-3.5-4.4-3.5c-1.9,0-4.4,1.1-4.4,3.5c0,2.4,2.5,3.5,4.4,3.5C1339.2,580.3,1341.7,579.2,1341.7,576.8z M1333.3,568.4
				c0,2.3,2.5,3.3,4,3.3c1.5,0,4.1-1.1,4.1-3.3c0-2.1-2.3-3.2-4.1-3.2C1335.6,565.3,1333.3,566.3,1333.3,568.4z"/>
			<path d="M1347.9,574.9c-1.3,0-2.4-1.1-2.4-2.4c0-1.3,1.1-2.4,2.4-2.4c1.3,0,2.4,1.1,2.4,2.4
				C1350.3,573.9,1349.2,574.9,1347.9,574.9z M1347.9,571.1c-0.8,0-1.5,0.7-1.5,1.5c0,0.8,0.7,1.5,1.5,1.5c0.8,0,1.5-0.7,1.5-1.5
				C1349.4,571.7,1348.7,571.1,1347.9,571.1z M1353.7,570.3h1.1l-6.9,10.5h-1.1L1353.7,570.3z M1353.7,580.9c-1.3,0-2.4-1.1-2.4-2.4
				c0-1.3,1.1-2.4,2.4-2.4c1.3,0,2.4,1.1,2.4,2.4C1356.1,579.8,1355,580.9,1353.7,580.9z M1353.7,577c-0.8,0-1.5,0.7-1.5,1.5
				c0,0.8,0.7,1.5,1.5,1.5c0.8,0,1.5-0.7,1.5-1.5C1355.2,577.7,1354.5,577,1353.7,577z"/>
		</g>
	</g>
	<g>
		<g>
			<path d="M1249.8,662.1c0-2.1,1-4.4,4.2-6.3l2.7-1.7c1.7-1.1,3.2-2.2,3.2-4.3c0-1.8-1.6-3.6-4-3.6c-2,0-3.2,1.2-3.7,2.3
				c-0.3,0.8-0.3,1.5-0.4,1.8l-1.9-0.3c0-2.6,2.2-5.6,6-5.6c3.3,0,5.9,2.5,5.9,5.3c0,2.6-1.4,4.1-3.8,5.5l-2.8,1.8
				c-1.5,1-3,2.2-3.1,3.8h9.9v1.8h-12.2V662.1z"/>
			<path d="M1264.6,653.7c0-4.5,2.6-9.3,7.6-9.3c5,0,7.4,4.7,7.4,9.2s-2.5,9.2-7.5,9.2C1267.1,662.9,1264.6,658.2,1264.6,653.7z
				 M1266.6,653.6c0,3.2,1.6,7.5,5.5,7.5c3.9,0,5.5-4.2,5.5-7.4s-1.7-7.5-5.6-7.5C1268.2,646.2,1266.6,650.4,1266.6,653.6z"/>
			<path d="M1283.9,655.8c-1.3,0-2.4-1.1-2.4-2.4c0-1.3,1.1-2.4,2.4-2.4c1.3,0,2.4,1.1,2.4,2.4
				C1286.2,654.8,1285.2,655.8,1283.9,655.8z M1283.9,652c-0.8,0-1.5,0.7-1.5,1.5c0,0.8,0.7,1.5,1.5,1.5c0.8,0,1.5-0.7,1.5-1.5
				C1285.3,652.6,1284.7,652,1283.9,652z M1289.7,651.2h1.1l-6.9,10.5h-1.1L1289.7,651.2z M1289.7,661.8c-1.3,0-2.4-1.1-2.4-2.4
				c0-1.3,1.1-2.4,2.4-2.4c1.3,0,2.4,1.1,2.4,2.4C1292.1,660.7,1291,661.8,1289.7,661.8z M1289.7,657.9c-0.8,0-1.5,0.7-1.5,1.5
				c0,0.8,0.7,1.5,1.5,1.5c0.8,0,1.5-0.7,1.5-1.5C1291.2,658.6,1290.5,657.9,1289.7,657.9z"/>
		</g>
	</g>
	<g>
		<g>
			<path d="M69.5,639.7c0-4.8,3.6-8.1,7.9-8.1s6.5,3,7,5.2l-1.6,0.6c-0.2-1-1.6-4.2-5.5-4.2c-3.3,0-6.2,2.6-6.2,6.4
				c0,3.7,2.6,6.5,6.2,6.5c3.8,0,5.1-2.9,5.5-4.2l1.6,0.6c-0.6,1.9-2.6,5.2-7.2,5.2C73,647.7,69.5,644.4,69.5,639.7z"/>
			<path d="M88.9,642.6c0.1,2.1,1.8,3.7,3.8,3.7c1.6,0,2.8-0.8,3.3-2.3l1.4,0.4c-0.6,2.1-2.6,3.2-4.7,3.2c-3.1,0-5.5-2.5-5.5-5.6
				c0-2.9,2.2-5.5,5.2-5.5c3.3,0,5.1,2.4,5.1,5.5c0,0.2,0,0.4,0,0.5H88.9z M96.1,641.3c-0.2-2-1.4-3.3-3.5-3.3
				c-1.9,0-3.4,1.6-3.6,3.3H96.1z"/>
			<path d="M102.9,638.9c0.8-1.7,2.2-2.3,3.5-2.3c0.1,0,0.4,0,0.5,0v1.7c-0.2,0-0.4,0-0.6,0c-2.5,0-3.4,2.1-3.4,4v5.3h-1.6v-10.8
				h1.6V638.9z"/>
			<path d="M110.7,644.7v-6.6h-2v-1.4h2v-3.1h1.6v3.1h2.7v1.4h-2.7v6.5c0,1,0.6,1.5,1.8,1.5c0.3,0,0.7,0,1-0.1v1.3
				c-0.3,0.1-0.9,0.2-1.2,0.2C111.5,647.6,110.7,646.3,110.7,644.7z"/>
			<path d="M119.5,631.7c0.7,0,1.2,0.5,1.2,1.2c0,0.6-0.5,1.2-1.2,1.2c-0.6,0-1.2-0.5-1.2-1.2C118.3,632.2,118.8,631.7,119.5,631.7z
				 M120.3,636.7v10.8h-1.6v-10.8H120.3z"/>
			<path d="M123.6,636.7h2.1v-2c0-2.5,1.4-3.7,3.3-3.7c0.3,0,0.8,0.1,1.2,0.2v1.3c-0.4-0.1-0.9-0.1-1.1-0.1c-0.8,0-1.8,0.4-1.8,2.3
				v2h6.5v10.8h-1.6v-9.4h-5v9.4h-1.6v-9.4h-2.1V636.7z M132.9,631.7c0.7,0,1.2,0.5,1.2,1.2c0,0.6-0.5,1.2-1.2,1.2
				c-0.6,0-1.2-0.5-1.2-1.2C131.8,632.2,132.3,631.7,132.9,631.7z"/>
			<path d="M143,646.3c2.4,0,3.3-1.8,3.6-2.6l1.5,0.5c-0.5,1.6-2.3,3.5-5.1,3.5c-3.1,0-5.5-2.3-5.5-5.5c0-3.3,2.5-5.6,5.6-5.6
				c2.5,0,4.5,1.6,4.9,3.4l-1.5,0.5c-0.2-0.8-1.3-2.5-3.5-2.5c-2.3,0-3.9,1.9-3.9,4.1C139.1,644.3,140.6,646.3,143,646.3z"/>
			<path d="M158.2,640.6c0-1.7-0.9-2.6-2.7-2.6c-1.8,0-2.6,1.2-2.8,2.2l-1.5-0.3c0.1-0.9,1.3-3.3,4.4-3.3c2.3,0,3.4,1,3.9,2.2
				c0.2,0.6,0.3,1.4,0.3,1.8v6.9h-1.5v-1.9h0c-0.8,1.3-2,2.1-3.6,2.1c-2.2,0-3.6-1.3-3.6-3.2v-0.1c0-2.3,2.3-3.1,4.2-3.1h3V640.6z
				 M155.2,642.6c-1.1,0-2.7,0.4-2.7,1.8c0,1.2,1,1.9,2.3,1.9c1.9,0,3.3-1.3,3.3-3.3v-0.4H155.2z"/>
			<path d="M164.8,644.7v-6.6h-2v-1.4h2v-3.1h1.6v3.1h2.7v1.4h-2.7v6.5c0,1,0.6,1.5,1.8,1.5c0.3,0,0.7,0,1-0.1v1.3
				c-0.3,0.1-0.9,0.2-1.2,0.2C165.5,647.6,164.8,646.3,164.8,644.7z"/>
			<path d="M173.5,631.7c0.7,0,1.2,0.5,1.2,1.2c0,0.6-0.5,1.2-1.2,1.2c-0.6,0-1.2-0.5-1.2-1.2C172.3,632.2,172.8,631.7,173.5,631.7z
				 M174.3,636.7v10.8h-1.6v-10.8H174.3z"/>
			<path d="M178.1,642.2c0-3.2,2.4-5.6,5.6-5.6c3.1,0,5.5,2.4,5.5,5.5c0,3.2-2.4,5.6-5.6,5.6C180.5,647.7,178.1,645.2,178.1,642.2z
				 M187.6,642.2c0-2.3-1.6-4.2-4-4.2s-3.9,1.9-3.9,4.1s1.6,4.2,4,4.2C185.9,646.3,187.6,644.4,187.6,642.2z"/>
			<path d="M200.7,641.2c0-1.9-1-3.3-3-3.3c-1.9,0-3.2,1.5-3.2,3.4v6.1h-1.6v-10.8h1.6v2c0.8-1.4,2.1-2.2,3.7-2.2
				c2.6,0,4.1,1.8,4.1,4.3v6.6h-1.6V641.2z"/>
			<path d="M214,644.7v-6.6h-2v-1.4h2v-3.1h1.6v3.1h2.7v1.4h-2.7v6.5c0,1,0.6,1.5,1.8,1.5c0.3,0,0.7,0,1-0.1v1.3
				c-0.3,0.1-0.9,0.2-1.2,0.2C214.7,647.6,214,646.3,214,644.7z"/>
			<path d="M221,642.2c0-3.2,2.4-5.6,5.6-5.6c3.1,0,5.5,2.4,5.5,5.5c0,3.2-2.4,5.6-5.6,5.6C223.4,647.7,221,645.2,221,642.2z
				 M230.5,642.2c0-2.3-1.6-4.2-4-4.2s-3.9,1.9-3.9,4.1s1.6,4.2,4,4.2C228.8,646.3,230.5,644.4,230.5,642.2z"/>
			<path d="M247.2,646.3c2.4,0,3.3-1.8,3.6-2.6l1.5,0.5c-0.5,1.6-2.3,3.5-5.1,3.5c-3.1,0-5.5-2.3-5.5-5.5c0-3.3,2.5-5.6,5.6-5.6
				c2.5,0,4.5,1.6,4.9,3.4l-1.5,0.5c-0.2-0.8-1.3-2.5-3.5-2.5c-2.3,0-3.9,1.9-3.9,4.1C243.3,644.3,244.8,646.3,247.2,646.3z"/>
			<path d="M259,646.8l-4.9-10h1.8l3.9,8.3l3.7-8.3h1.7l-7.4,16.1h-1.7L259,646.8z"/>
			<path d="M274.2,647.7c-2,0-3.3-1-4.2-2.4v2.3h-1.6v-16.4h1.6v8c0.9-1.4,2.1-2.5,4.1-2.5c3.1,0,5.1,2.7,5.1,5.5
				C279.2,645,277.3,647.7,274.2,647.7z M277.6,642.1c0-2.2-1.4-4.2-3.8-4.2c-2.2,0-3.8,2-3.8,4.1c0,2.2,1.6,4.2,3.8,4.2
				C276.2,646.3,277.6,644.4,277.6,642.1z"/>
			<path d="M283.8,642.6c0.1,2.1,1.8,3.7,3.8,3.7c1.6,0,2.8-0.8,3.3-2.3l1.4,0.4c-0.6,2.1-2.6,3.2-4.7,3.2c-3.1,0-5.5-2.5-5.5-5.6
				c0-2.9,2.2-5.5,5.2-5.5c3.3,0,5.1,2.4,5.1,5.5c0,0.2,0,0.4,0,0.5H283.8z M291,641.3c-0.2-2-1.4-3.3-3.5-3.3
				c-1.9,0-3.4,1.6-3.6,3.3H291z"/>
			<path d="M297.8,638.9c0.8-1.7,2.2-2.3,3.5-2.3c0.1,0,0.4,0,0.5,0v1.7c-0.2,0-0.4,0-0.6,0c-2.5,0-3.4,2.1-3.4,4v5.3h-1.6v-10.8
				h1.6V638.9z"/>
			<path d="M91.8,664.7c0-1.7-0.9-2.6-2.7-2.6c-1.8,0-2.6,1.2-2.8,2.2l-1.5-0.3c0.1-0.9,1.3-3.3,4.4-3.3c2.3,0,3.4,1,3.9,2.2
				c0.2,0.6,0.3,1.4,0.3,1.8v6.9h-1.5v-1.9h0c-0.8,1.3-2,2.1-3.6,2.1c-2.2,0-3.6-1.3-3.6-3.2v-0.1c0-2.3,2.3-3.1,4.3-3.1h3V664.7z
				 M88.8,666.8c-1.1,0-2.7,0.4-2.7,1.8c0,1.2,1,1.9,2.3,1.9c1.9,0,3.3-1.3,3.3-3.3v-0.4H88.8z"/>
			<path d="M100.2,671.7l-3.6-10.8h1.7l2.8,8.9h0l2.9-8.9h1.6l2.9,8.9h0l2.8-8.9h1.6l-3.6,10.8h-1.8l-2.8-8.7h0l-2.9,8.7H100.2z"/>
			<path d="M122.4,664.7c0-1.7-0.9-2.6-2.7-2.6c-1.8,0-2.6,1.2-2.8,2.2l-1.5-0.3c0.1-0.9,1.3-3.3,4.4-3.3c2.3,0,3.4,1,3.9,2.2
				c0.2,0.6,0.3,1.4,0.3,1.8v6.9h-1.5v-1.9h0c-0.8,1.3-2,2.1-3.6,2.1c-2.2,0-3.6-1.3-3.6-3.2v-0.1c0-2.3,2.3-3.1,4.2-3.1h3V664.7z
				 M119.4,666.8c-1.1,0-2.7,0.4-2.7,1.8c0,1.2,1,1.9,2.3,1.9c1.9,0,3.3-1.3,3.3-3.3v-0.4H119.4z"/>
			<path d="M129.9,663.1c0.8-1.7,2.2-2.3,3.5-2.3c0.1,0,0.4,0,0.5,0v1.7c-0.2,0-0.4,0-0.6,0c-2.5,0-3.4,2.1-3.4,4v5.3h-1.6v-10.8
				h1.6V663.1z"/>
			<path d="M137.5,666.8c0.1,2.1,1.8,3.7,3.8,3.7c1.6,0,2.8-0.8,3.3-2.3l1.4,0.4c-0.6,2.1-2.6,3.2-4.7,3.2c-3.1,0-5.5-2.5-5.5-5.6
				c0-2.9,2.2-5.5,5.2-5.5c3.3,0,5.1,2.4,5.1,5.5c0,0.2,0,0.4,0,0.5H137.5z M144.6,665.4c-0.2-2-1.4-3.3-3.5-3.3
				c-1.9,0-3.4,1.6-3.6,3.3H144.6z"/>
			<path d="M157.7,665.4c0-1.9-1-3.3-3-3.3c-1.9,0-3.2,1.5-3.2,3.4v6.1h-1.6v-10.8h1.6v2c0.8-1.5,2.1-2.2,3.7-2.2
				c2.6,0,4.1,1.8,4.1,4.3v6.6h-1.6V665.4z"/>
			<path d="M164.5,666.8c0.1,2.1,1.8,3.7,3.8,3.7c1.6,0,2.8-0.8,3.3-2.3l1.4,0.4c-0.6,2.1-2.6,3.2-4.7,3.2c-3.1,0-5.5-2.5-5.5-5.6
				c0-2.9,2.2-5.5,5.2-5.5c3.3,0,5.1,2.4,5.1,5.5c0,0.2,0,0.4,0,0.5H164.5z M171.6,665.4c-0.2-2-1.4-3.3-3.5-3.3
				c-1.9,0-3.4,1.6-3.6,3.3H171.6z"/>
			<path d="M180.2,671.9c-2.9,0-3.9-2-4.1-3.2l1.5-0.3c0.2,1,0.9,2.1,2.6,2.1c1.2,0,2.2-0.6,2.2-1.8c0-1.3-1.4-1.6-2.5-1.8
				c-1.8-0.3-3.5-0.9-3.5-3c0-2,1.8-3.2,3.6-3.2c2.8,0,3.7,1.9,3.9,2.9l-1.4,0.3c-0.2-0.7-0.8-1.9-2.5-1.9c-1.2,0-2,0.8-2,1.7
				c0,1.3,1.5,1.6,2.6,1.7c1.8,0.2,3.5,1.1,3.5,3.1C184,670.6,182.2,671.9,180.2,671.9z"/>
			<path d="M191.1,671.9c-2.9,0-3.9-2-4.1-3.2l1.5-0.3c0.2,1,0.9,2.1,2.6,2.1c1.2,0,2.2-0.6,2.2-1.8c0-1.3-1.4-1.6-2.5-1.8
				c-1.8-0.3-3.5-0.9-3.5-3c0-2,1.8-3.2,3.6-3.2c2.8,0,3.7,1.9,3.9,2.9l-1.4,0.3c-0.2-0.7-0.8-1.9-2.5-1.9c-1.2,0-2,0.8-2,1.7
				c0,1.3,1.5,1.6,2.6,1.7c1.8,0.2,3.5,1.1,3.5,3.1C194.9,670.6,193.1,671.9,191.1,671.9z"/>
			<path d="M213.1,665.4c0-1.9-1-3.3-3-3.3c-1.9,0-3.2,1.5-3.2,3.4v6.1h-1.6v-10.8h1.6v2c0.8-1.5,2.1-2.2,3.7-2.2
				c2.6,0,4.1,1.8,4.1,4.3v6.6h-1.6V665.4z"/>
			<path d="M219.9,666.8c0.1,2.1,1.8,3.7,3.8,3.7c1.6,0,2.8-0.8,3.3-2.3l1.4,0.4c-0.6,2.1-2.6,3.2-4.7,3.2c-3.1,0-5.5-2.5-5.5-5.6
				c0-2.9,2.2-5.5,5.2-5.5c3.3,0,5.1,2.4,5.1,5.5c0,0.2,0,0.4,0,0.5H219.9z M227,665.4c-0.2-2-1.4-3.3-3.5-3.3
				c-1.9,0-3.4,1.6-3.6,3.3H227z"/>
			<path d="M232.8,668.9v-6.6h-2v-1.4h2v-3.1h1.6v3.1h2.7v1.4h-2.7v6.5c0,1,0.6,1.5,1.8,1.5c0.3,0,0.7,0,1-0.1v1.3
				c-0.3,0.1-0.9,0.2-1.2,0.2C233.5,671.8,232.8,670.5,232.8,668.9z"/>
			<path d="M243.1,671.7l-3.6-10.8h1.7l2.8,8.9h0l2.9-8.9h1.6l2.9,8.9h0l2.8-8.9h1.6l-3.6,10.8h-1.8l-2.8-8.7h0l-2.9,8.7H243.1z"/>
			<path d="M258.2,666.3c0-3.2,2.4-5.6,5.6-5.6c3.1,0,5.5,2.4,5.5,5.5c0,3.2-2.4,5.6-5.6,5.6C260.6,671.9,258.2,669.4,258.2,666.3z
				 M267.7,666.3c0-2.3-1.6-4.2-4-4.2s-3.9,1.9-3.9,4.1s1.6,4.2,4,4.2C266.1,670.5,267.7,668.6,267.7,666.3z"/>
			<path d="M274.6,663.1c0.8-1.7,2.2-2.3,3.5-2.3c0.1,0,0.4,0,0.5,0v1.7c-0.2,0-0.4,0-0.6,0c-2.5,0-3.4,2.1-3.4,4v5.3h-1.6v-10.8
				h1.6V663.1z"/>
			<path d="M283.3,671.7h-1.6v-16.4h1.6v10l5.1-4.4h2.2l-5.7,4.8l5.9,5.9h-2.2l-5.4-5.4h-0.1V671.7z"/>
			<path d="M296.7,671.9c-2.9,0-3.9-2-4.1-3.2l1.5-0.3c0.2,1,0.9,2.1,2.6,2.1c1.2,0,2.2-0.6,2.2-1.8c0-1.3-1.4-1.6-2.5-1.8
				c-1.8-0.3-3.5-0.9-3.5-3c0-2,1.8-3.2,3.6-3.2c2.8,0,3.7,1.9,3.9,2.9l-1.4,0.3c-0.2-0.7-0.8-1.9-2.5-1.9c-1.2,0-2,0.8-2,1.7
				c0,1.3,1.5,1.6,2.6,1.7c1.8,0.2,3.5,1.1,3.5,3.1C300.5,670.6,298.8,671.9,296.7,671.9z"/>
		</g>
	</g>
	<g>
		<g>
			<path d="M165.3,718.9c0-4.8,3.6-8.1,7.9-8.1s6.5,3,7,5.2l-1.6,0.6c-0.2-1-1.6-4.2-5.5-4.2c-3.3,0-6.2,2.6-6.2,6.4
				c0,3.7,2.6,6.5,6.2,6.5c3.8,0,5.1-2.9,5.5-4.2l1.6,0.6c-0.6,1.9-2.6,5.2-7.2,5.2C168.8,726.9,165.3,723.6,165.3,718.9z"/>
			<path d="M187.5,726l-4.9-10h1.8l3.9,8.3l3.7-8.3h1.7l-7.4,16.1h-1.7L187.5,726z"/>
			<path d="M202.6,726.9c-2,0-3.3-1-4.2-2.4v2.3h-1.6v-16.4h1.6v8c0.9-1.4,2.1-2.5,4.1-2.5c3.1,0,5.1,2.7,5.1,5.5
				C207.7,724.2,205.7,726.9,202.6,726.9z M206.1,721.3c0-2.2-1.4-4.2-3.8-4.2c-2.2,0-3.8,2-3.8,4.1c0,2.2,1.6,4.2,3.8,4.2
				C204.7,725.5,206.1,723.6,206.1,721.3z"/>
			<path d="M212.3,721.8c0.1,2.1,1.8,3.7,3.8,3.7c1.6,0,2.8-0.8,3.3-2.3l1.4,0.4c-0.6,2.1-2.6,3.2-4.7,3.2c-3.1,0-5.5-2.5-5.5-5.6
				c0-2.9,2.2-5.5,5.2-5.5c3.3,0,5.1,2.4,5.1,5.5c0,0.2,0,0.4,0,0.5H212.3z M219.4,720.5c-0.2-2-1.4-3.3-3.5-3.3
				c-1.9,0-3.4,1.6-3.6,3.3H219.4z"/>
			<path d="M226.3,718.1c0.8-1.7,2.2-2.3,3.5-2.3c0.1,0,0.4,0,0.5,0v1.7c-0.2,0-0.4,0-0.6,0c-2.5,0-3.4,2.1-3.4,4v5.3h-1.6v-10.8
				h1.6V718.1z"/>
			<path d="M240.1,723.9v-6.6h-2v-1.4h2v-3.1h1.6v3.1h2.7v1.4h-2.7v6.5c0,1,0.6,1.5,1.8,1.5c0.3,0,0.7,0,1-0.1v1.3
				c-0.3,0.1-0.9,0.2-1.2,0.2C240.8,726.8,240.1,725.5,240.1,723.9z"/>
			<path d="M255.8,720.4c0-1.9-1-3.3-3-3.3c-1.9,0-3.2,1.5-3.2,3.4v6.1h-1.6v-16.4h1.6v7.6c0.8-1.4,2.1-2.1,3.7-2.1
				c2.6,0,4.1,1.8,4.1,4.3v6.6h-1.6V720.4z"/>
			<path d="M263.4,718.1c0.8-1.7,2.2-2.3,3.5-2.3c0.1,0,0.4,0,0.5,0v1.7c-0.2,0-0.4,0-0.6,0c-2.5,0-3.4,2.1-3.4,4v5.3h-1.6v-10.8
				h1.6V718.1z"/>
			<path d="M270.9,721.8c0.1,2.1,1.8,3.7,3.8,3.7c1.6,0,2.8-0.8,3.3-2.3l1.4,0.4c-0.6,2.1-2.6,3.2-4.7,3.2c-3.1,0-5.5-2.5-5.5-5.6
				c0-2.9,2.2-5.5,5.2-5.5c3.3,0,5.1,2.4,5.1,5.5c0,0.2,0,0.4,0,0.5H270.9z M278,720.5c-0.2-2-1.4-3.3-3.5-3.3
				c-1.9,0-3.4,1.6-3.6,3.3H278z"/>
			<path d="M289.8,719.8c0-1.7-0.9-2.6-2.7-2.6c-1.8,0-2.6,1.2-2.8,2.2l-1.5-0.3c0.1-0.9,1.3-3.3,4.4-3.3c2.3,0,3.4,1,3.9,2.2
				c0.2,0.6,0.3,1.4,0.3,1.8v6.9h-1.5v-1.9h0c-0.8,1.3-2,2.1-3.6,2.1c-2.2,0-3.6-1.3-3.6-3.2v-0.1c0-2.3,2.3-3.1,4.3-3.1h3V719.8z
				 M286.8,721.8c-1.1,0-2.7,0.4-2.7,1.8c0,1.2,1,1.9,2.3,1.9c1.9,0,3.3-1.3,3.3-3.3v-0.4H286.8z"/>
			<path d="M296.4,723.9v-6.6h-2v-1.4h2v-3.1h1.6v3.1h2.7v1.4h-2.7v6.5c0,1,0.6,1.5,1.8,1.5c0.3,0,0.7,0,1-0.1v1.3
				c-0.3,0.1-0.9,0.2-1.2,0.2C297.1,726.8,296.4,725.5,296.4,723.9z"/>
			<path d="M90.9,744.6c0-1.8-0.8-3.2-2.8-3.2c-1.9,0-3,1.7-3,3.4v6.1h-1.6v-10.8h1.6v1.9c0.9-1.3,1.9-2.1,3.5-2.1
				c1.6,0,2.8,0.7,3.4,2.2c0.9-1.4,2.1-2.1,3.8-2.1c2.6,0,4,1.8,4,4.3v6.6h-1.6v-6.3c0-1.8-0.8-3.2-2.8-3.2c-1.9,0-3,1.5-3,3.3v6.2
				h-1.6V744.6z"/>
			<path d="M103.4,745.5c0-3.2,2.4-5.6,5.6-5.6c3.1,0,5.5,2.4,5.5,5.5c0,3.2-2.4,5.6-5.6,5.6C105.8,751.1,103.4,748.6,103.4,745.5z
				 M112.9,745.5c0-2.3-1.6-4.2-4-4.2s-3.9,1.9-3.9,4.1s1.6,4.2,4,4.2C111.3,749.7,112.9,747.8,112.9,745.5z"/>
			<path d="M126.1,744.6c0-1.9-1-3.3-3-3.3c-1.9,0-3.2,1.5-3.2,3.4v6.1h-1.6v-10.8h1.6v2c0.8-1.4,2.1-2.2,3.7-2.2
				c2.6,0,4.1,1.8,4.1,4.3v6.6h-1.6V744.6z"/>
			<path d="M132.8,735.1c0.7,0,1.2,0.5,1.2,1.2c0,0.6-0.5,1.2-1.2,1.2c-0.6,0-1.2-0.5-1.2-1.2C131.7,735.6,132.2,735.1,132.8,735.1z
				 M133.6,740.1v10.8H132v-10.8H133.6z"/>
			<path d="M138.9,748.1v-6.6h-2v-1.4h2V737h1.6v3.1h2.7v1.4h-2.7v6.5c0,1,0.6,1.5,1.8,1.5c0.3,0,0.7,0,1-0.1v1.3
				c-0.3,0.1-0.9,0.2-1.2,0.2C139.6,751,138.9,749.7,138.9,748.1z"/>
			<path d="M145.8,745.5c0-3.2,2.4-5.6,5.6-5.6c3.1,0,5.5,2.4,5.5,5.5c0,3.2-2.4,5.6-5.6,5.6C148.3,751.1,145.8,748.6,145.8,745.5z
				 M155.3,745.5c0-2.3-1.6-4.2-4-4.2s-3.9,1.9-3.9,4.1s1.6,4.2,4,4.2C153.7,749.7,155.3,747.8,155.3,745.5z"/>
			<path d="M162.3,742.3c0.8-1.7,2.2-2.3,3.5-2.3c0.1,0,0.4,0,0.5,0v1.7c-0.2,0-0.4,0-0.6,0c-2.5,0-3.4,2.1-3.4,4v5.3h-1.6v-10.8
				h1.6V742.3z"/>
			<path d="M170.2,735.1c0.7,0,1.2,0.5,1.2,1.2c0,0.6-0.5,1.2-1.2,1.2c-0.6,0-1.2-0.5-1.2-1.2C169,735.6,169.5,735.1,170.2,735.1z
				 M171,740.1v10.8h-1.6v-10.8H171z"/>
			<path d="M183.3,744.6c0-1.9-1-3.3-3-3.3c-1.9,0-3.2,1.5-3.2,3.4v6.1h-1.6v-10.8h1.6v2c0.8-1.4,2.1-2.2,3.7-2.2
				c2.6,0,4.1,1.8,4.1,4.3v6.6h-1.6V744.6z"/>
			<path d="M197.7,748.5c-0.8,1.4-2.1,2.4-4.2,2.4c-3.1,0-5-2.5-5-5.5c0-2.8,2-5.5,5-5.5c2.1,0,3.3,1.2,4.2,2.4v-2.3h1.6v10.8
				c0,3.5-2.1,5.3-5.4,5.3c-2.8,0-4.8-1.4-5.3-3.7l1.5-0.5c0.3,1.2,1.4,2.8,3.9,2.8c2.1,0,3.8-1.1,3.8-3.9V748.5z M197.7,745.4
				c0-2.1-1.6-4.1-3.9-4.1c-2.4,0-3.7,1.8-3.7,4.1c0,2.2,1.4,4.1,3.7,4.1C196.1,749.6,197.7,747.6,197.7,745.4z"/>
			<path d="M213.8,751.1c-2.9,0-3.9-2-4.1-3.2l1.5-0.3c0.2,1,0.9,2.1,2.6,2.1c1.2,0,2.2-0.6,2.2-1.8c0-1.3-1.4-1.6-2.5-1.8
				c-1.8-0.3-3.5-0.9-3.5-3c0-2,1.8-3.2,3.6-3.2c2.8,0,3.7,1.9,3.9,2.9l-1.4,0.3c-0.2-0.7-0.8-1.9-2.5-1.9c-1.2,0-2,0.8-2,1.7
				c0,1.3,1.5,1.6,2.6,1.7c1.8,0.2,3.5,1.1,3.5,3.1C217.6,749.8,215.8,751.1,213.8,751.1z"/>
			<path d="M220.6,745.5c0-3.2,2.4-5.6,5.6-5.6c3.1,0,5.5,2.4,5.5,5.5c0,3.2-2.4,5.6-5.6,5.6C223,751.1,220.6,748.6,220.6,745.5z
				 M230.1,745.5c0-2.3-1.6-4.2-4-4.2s-3.9,1.9-3.9,4.1s1.6,4.2,4,4.2C228.5,749.7,230.1,747.8,230.1,745.5z"/>
			<path d="M237.6,738.1v2h2.8v1.4h-2.8v9.4h-1.6v-9.4H234v-1.4h2.1v-2c0-2.5,1.4-3.7,3.3-3.7c0.3,0,0.8,0.1,1.2,0.2v1.3
				c-0.4-0.1-0.9-0.1-1.1-0.1C238.6,735.8,237.6,736.3,237.6,738.1z"/>
			<path d="M244.3,748.1v-6.6h-2v-1.4h2V737h1.6v3.1h2.7v1.4h-2.7v6.5c0,1,0.6,1.5,1.8,1.5c0.3,0,0.7,0,1-0.1v1.3
				c-0.3,0.1-0.9,0.2-1.2,0.2C245,751,244.3,749.7,244.3,748.1z"/>
			<path d="M254.6,750.9l-3.6-10.8h1.7l2.8,8.9h0l2.9-8.9h1.6l2.9,8.9h0l2.8-8.9h1.6l-3.6,10.8H262l-2.8-8.7h0l-2.9,8.7H254.6z"/>
			<path d="M276.8,744c0-1.7-0.9-2.6-2.7-2.6c-1.8,0-2.6,1.2-2.8,2.2l-1.5-0.3c0.1-0.9,1.3-3.3,4.4-3.3c2.3,0,3.4,1,3.9,2.2
				c0.2,0.6,0.3,1.4,0.3,1.8v6.9h-1.5V749h0c-0.8,1.3-2,2.1-3.6,2.1c-2.2,0-3.6-1.3-3.6-3.2v-0.1c0-2.3,2.3-3.1,4.3-3.1h3V744z
				 M273.8,746c-1.1,0-2.7,0.4-2.7,1.8c0,1.2,1,1.9,2.3,1.9c1.9,0,3.3-1.3,3.3-3.3V746H273.8z"/>
			<path d="M284.4,742.3c0.8-1.7,2.2-2.3,3.5-2.3c0.1,0,0.4,0,0.5,0v1.7c-0.2,0-0.4,0-0.6,0c-2.5,0-3.4,2.1-3.4,4v5.3h-1.6v-10.8
				h1.6V742.3z"/>
			<path d="M291.9,746c0.1,2.1,1.8,3.7,3.8,3.7c1.6,0,2.8-0.8,3.3-2.3l1.4,0.4c-0.6,2.1-2.6,3.2-4.7,3.2c-3.1,0-5.5-2.5-5.5-5.6
				c0-2.9,2.2-5.5,5.2-5.5c3.3,0,5.1,2.4,5.1,5.5c0,0.2,0,0.4,0,0.5H291.9z M299,744.7c-0.2-2-1.4-3.3-3.5-3.3
				c-1.9,0-3.4,1.6-3.6,3.3H299z"/>
		</g>
	</g>
	<g>
		<g>
			<path d="M258.3,802.4v15.8h-1.8l-9.4-13.4v13.4h-1.6v-15.8h1.9l9.3,13.2v-13.2H258.3z"/>
			<path d="M262.5,812.8c0-3.2,2.4-5.6,5.6-5.6c3.1,0,5.5,2.4,5.5,5.5c0,3.2-2.4,5.6-5.6,5.6C264.9,818.3,262.5,815.9,262.5,812.8z
				 M272,812.8c0-2.3-1.6-4.2-4-4.2s-3.9,1.9-3.9,4.1s1.6,4.2,4,4.2C270.3,817,272,815.1,272,812.8z"/>
			<path d="M285.1,811.9c0-1.9-1-3.3-3-3.3c-1.9,0-3.2,1.5-3.2,3.4v6.1h-1.6v-10.8h1.6v2c0.8-1.5,2.1-2.2,3.7-2.2
				c2.6,0,4.1,1.8,4.1,4.3v6.6h-1.6V811.9z"/>
			<path d="M291.9,813.3c0.1,2.1,1.8,3.7,3.8,3.7c1.6,0,2.8-0.8,3.3-2.3l1.4,0.4c-0.6,2.1-2.6,3.2-4.7,3.2c-3.1,0-5.5-2.5-5.5-5.6
				c0-2.9,2.2-5.5,5.2-5.5c3.3,0,5.1,2.4,5.1,5.5c0,0.2,0,0.4,0,0.5H291.9z M299,811.9c-0.2-2-1.4-3.3-3.5-3.3
				c-1.9,0-3.4,1.6-3.6,3.3H299z"/>
		</g>
	</g>
	<g class="st6">
		
			<pattern  id="SVGID_15_" xlink:href="#Unnamed_Pattern_4" patternTransform="matrix(0 1.439 -1.3814 0 -29083.4063 3650.9084)"  class="st6">
		</pattern>
		<polygon class="st24" points="618,712.4 618,753.4 816.3,753.4 859.9,753.4 859.9,712.4 816.3,712.4 		"/>
	</g>
	<g>
		<polygon class="st5" points="618,712.4 618,753.4 651.7,753.4 659.1,753.4 659.1,712.4 651.7,712.4 		"/>
	</g>
	<g class="st6">
		
			<pattern  id="SVGID_16_" xlink:href="#Unnamed_Pattern_4" patternTransform="matrix(0 1.439 -1.3814 0 -29083.4063 3650.9084)"  class="st6">
		</pattern>
		<polygon class="st25" points="618,791.5 618,832.5 627.7,832.5 859.9,832.5 859.9,791.5 627.7,791.5 		"/>
	</g>
	<g>
		<polygon class="st5" points="618,791.5 618,832.5 624.3,832.5 775.2,832.5 775.2,791.5 624.3,791.5 		"/>
	</g>
	<g class="st4">
		<polygon points="903.8,554 903.8,595 969.3,595 983.7,595 983.7,554 969.3,554 		"/>
	</g>
	<g class="st6">
		
			<pattern  id="SVGID_17_" xlink:href="#Unnamed_Pattern_4" patternTransform="matrix(0 1.439 -1.3814 0 -29083.4063 3650.9084)"  class="st6">
		</pattern>
		<polygon class="st26" points="903.8,633.2 903.8,674.2 913.5,674.2 1145.7,674.2 1145.7,633.2 913.5,633.2 		"/>
	</g>
	<g class="st4">
		<polygon points="903.8,633.2 903.8,674.2 904.6,674.2 923.2,674.2 923.2,633.2 904.6,633.2 		"/>
	</g>
	<g class="st6">
		
			<pattern  id="SVGID_18_" xlink:href="#Unnamed_Pattern_4" patternTransform="matrix(0 1.439 -1.3814 0 -29083.4063 3650.9084)"  class="st6">
		</pattern>
		<polygon class="st27" points="903.8,712.4 903.8,753.4 1102.2,753.4 1145.7,753.4 1145.7,712.4 1102.2,712.4 		"/>
	</g>
	<g class="st4">
		<polygon points="903.8,712.4 903.8,753.4 963.3,753.4 976.4,753.4 976.4,712.4 963.3,712.4 		"/>
	</g>
	<g class="st6">
		
			<pattern  id="SVGID_19_" xlink:href="#Unnamed_Pattern_4" patternTransform="matrix(0 1.439 -1.3814 0 -29083.4063 3650.9084)"  class="st6">
		</pattern>
		<polygon class="st28" points="903.8,791.5 903.8,832.5 913.5,832.5 1145.7,832.5 1145.7,791.5 913.5,791.5 		"/>
	</g>
	<g class="st4">
		<polygon points="903.8,791.5 903.8,832.5 907,832.5 983.7,832.5 983.7,791.5 907,791.5 		"/>
	</g>
	<g>
		<polygon class="st19" points="1189.7,712.4 1189.7,753.4 1257.1,753.4 1271.9,753.4 1271.9,712.4 1257.1,712.4 		"/>
	</g>
	<g class="st12">
		<polygon points="381.2,474.9 332.1,474.9 332.1,515.9 381.2,515.9 395,515.9 395,474.9 		"/>
	</g>
	<g class="st12">
		<polygon points="385.7,712.4 332.1,712.4 332.1,753.4 385.7,753.4 397.4,753.4 397.4,712.4 		"/>
	</g>
	<g class="st12">
		<polygon points="341.8,791.5 336.1,791.5 332.1,791.5 332.1,832.5 336.1,832.5 341.8,832.5 431.3,832.5 431.3,791.5 		"/>
	</g>
	<g class="st6">
		
			<pattern  id="SVGID_20_" xlink:href="#Unnamed_Pattern_4" patternTransform="matrix(0 1.439 -1.3814 0 -29083.4063 3650.9084)"  class="st6">
		</pattern>
		<polygon class="st29" points="1228.4,791.5 1189.7,791.5 1189.7,832.5 1228.4,832.5 1431.6,832.5 1431.6,791.5 		"/>
	</g>
	<g>
		<polygon class="st19" points="1199.4,791.5 1189.7,791.5 1189.7,832.5 1199.4,832.5 1250.2,832.5 1250.2,791.5 		"/>
	</g>
	<g>
		<g>
			<path class="st23" d="M411.4,741.3c0-2.1,1-4.4,4.2-6.3l2.7-1.7c1.7-1.1,3.2-2.2,3.2-4.3c0-1.8-1.6-3.6-4-3.6
				c-2,0-3.2,1.2-3.7,2.3c-0.3,0.8-0.3,1.5-0.4,1.8l-1.9-0.3c0-2.6,2.2-5.6,6-5.6c3.3,0,5.9,2.5,5.9,5.3c0,2.6-1.4,4.1-3.8,5.5
				l-2.8,1.8c-1.5,1-3,2.2-3.1,3.8h9.9v1.8h-12.2V741.3z"/>
			<path class="st23" d="M425.5,725.6v-1.8h12.3v1.8l-8.3,16.3h-2.1l8.4-16.3H425.5z"/>
			<path class="st23" d="M441.3,735c-1.3,0-2.4-1.1-2.4-2.4c0-1.3,1.1-2.4,2.4-2.4c1.3,0,2.4,1.1,2.4,2.4
				C443.7,734,442.6,735,441.3,735z M441.3,731.2c-0.8,0-1.5,0.7-1.5,1.5c0,0.8,0.7,1.5,1.5,1.5c0.8,0,1.5-0.7,1.5-1.5
				C442.8,731.9,442.1,731.2,441.3,731.2z M447.1,730.4h1.1l-6.9,10.5h-1.1L447.1,730.4z M447.2,741c-1.3,0-2.4-1.1-2.4-2.4
				c0-1.3,1.1-2.4,2.4-2.4c1.3,0,2.4,1.1,2.4,2.4C449.5,739.9,448.5,741,447.2,741z M447.2,737.2c-0.8,0-1.5,0.7-1.5,1.5
				c0,0.8,0.7,1.5,1.5,1.5c0.8,0,1.5-0.7,1.5-1.5C448.6,737.8,448,737.2,447.2,737.2z"/>
		</g>
	</g>
	<g>
		<g>
			<path class="st5" d="M675.2,725.9l-4.3,2.6L670,727l5.2-3.2h1.8v18h-1.9V725.9z"/>
			<path class="st5" d="M680.2,725.6v-1.8h12.3v1.8l-8.3,16.3h-2.1l8.4-16.3H680.2z"/>
			<path class="st5" d="M696,735c-1.3,0-2.4-1.1-2.4-2.4c0-1.3,1.1-2.4,2.4-2.4c1.3,0,2.4,1.1,2.4,2.4C698.4,734,697.3,735,696,735z
				 M696,731.2c-0.8,0-1.5,0.7-1.5,1.5c0,0.8,0.7,1.5,1.5,1.5c0.8,0,1.5-0.7,1.5-1.5C697.5,731.9,696.8,731.2,696,731.2z
				 M701.8,730.4h1.1l-6.9,10.5H695L701.8,730.4z M701.9,741c-1.3,0-2.4-1.1-2.4-2.4c0-1.3,1.1-2.4,2.4-2.4c1.3,0,2.4,1.1,2.4,2.4
				C704.2,739.9,703.2,741,701.9,741z M701.9,737.2c-0.8,0-1.5,0.7-1.5,1.5c0,0.8,0.7,1.5,1.5,1.5c0.8,0,1.5-0.7,1.5-1.5
				C703.3,737.8,702.7,737.2,701.9,737.2z"/>
		</g>
	</g>
	<g>
		<g>
			<path class="st5" d="M784,811.9c1.2-1.9,3.5-2.6,5-2.6c3.8,0,6.1,2.7,6.1,5.8c0,4.1-3.3,6.1-6.4,6.1c-2,0-4.3-1.2-5.4-3
				c-0.9-1.6-1.1-2.7-1.1-5c0-5.7,3.1-10.4,8.8-10.4c1,0,2.5,0.1,3.7,0.9l-0.7,1.7c-0.9-0.6-2.2-0.8-3-0.8
				C786.8,804.6,784.4,807.9,784,811.9z M785.7,812.1c-0.9,0.7-1.4,1.9-1.4,3.1c0,2.7,2.2,4.3,4.5,4.3c2.3,0,4.5-1.5,4.5-4.3
				c0-2.2-1.7-4.2-4.5-4.2C787.6,811,786.5,811.4,785.7,812.1z"/>
			<path class="st5" d="M800.9,804.8l-1,6.1c1.1-1.1,3.1-1.4,3.9-1.4c3.4,0,5.9,2.2,5.9,5.8c0,3.9-3.2,5.9-6.3,5.9
				c-3,0-5.8-1.9-6.2-4.9l1.8-0.4c0.3,2.1,2,3.6,4.4,3.6c1.8,0,4.4-1.2,4.4-4.1s-2.2-4.2-4.4-4.2c-1.3,0-2.9,0.7-3.8,1.8l-1.8-0.7
				l1.5-9.3h9.5v1.8H800.9z"/>
			<path class="st5" d="M813.8,814.2c-1.3,0-2.4-1.1-2.4-2.4c0-1.3,1.1-2.4,2.4-2.4c1.3,0,2.4,1.1,2.4,2.4
				C816.2,813.1,815.1,814.2,813.8,814.2z M813.8,810.3c-0.8,0-1.5,0.7-1.5,1.5c0,0.8,0.7,1.5,1.5,1.5s1.5-0.7,1.5-1.5
				C815.3,811,814.6,810.3,813.8,810.3z M819.6,809.6h1.1l-6.9,10.5h-1.1L819.6,809.6z M819.6,820.2c-1.3,0-2.4-1.1-2.4-2.4
				c0-1.3,1.1-2.4,2.4-2.4c1.3,0,2.4,1.1,2.4,2.4C822,819.1,820.9,820.2,819.6,820.2z M819.6,816.3c-0.8,0-1.5,0.7-1.5,1.5
				c0,0.8,0.7,1.5,1.5,1.5s1.5-0.7,1.5-1.5C821.1,817,820.4,816.3,819.6,816.3z"/>
		</g>
	</g>
	<g>
		<g>
			<path class="st23" d="M449.4,821v-4.3H440v-2.1l8.8-11.6h2.4v12.1h3v1.6h-3v4.3H449.4z M449.4,815.1V805l-7.7,10.1H449.4z"/>
			<path class="st23" d="M459.9,805l-4.3,2.6l-0.9-1.4l5.2-3.2h1.8v18h-1.9V805z"/>
			<path class="st23" d="M467.2,814.2c-1.3,0-2.4-1.1-2.4-2.4c0-1.3,1.1-2.4,2.4-2.4c1.3,0,2.4,1.1,2.4,2.4
				C469.6,813.1,468.5,814.2,467.2,814.2z M467.2,810.3c-0.8,0-1.5,0.7-1.5,1.5c0,0.8,0.7,1.5,1.5,1.5c0.8,0,1.5-0.7,1.5-1.5
				C468.7,811,468,810.3,467.2,810.3z M473,809.6h1.1l-6.9,10.5h-1.1L473,809.6z M473.1,820.2c-1.3,0-2.4-1.1-2.4-2.4
				c0-1.3,1.1-2.4,2.4-2.4c1.3,0,2.4,1.1,2.4,2.4C475.4,819.1,474.4,820.2,473.1,820.2z M473.1,816.3c-0.8,0-1.5,0.7-1.5,1.5
				c0,0.8,0.7,1.5,1.5,1.5c0.8,0,1.5-0.7,1.5-1.5C474.5,817,473.9,816.3,473.1,816.3z"/>
		</g>
	</g>
	<g>
		<g>
			<path d="M936.7,657.8c0-1.9,1.3-3.6,3.8-4.4c-2.2-0.6-3.3-2.6-3.3-4.1c0-3.1,3.2-4.8,5.9-4.8c2.7,0,5.9,1.6,5.9,4.8
				c0,1.7-1.2,3.5-3.4,4.1c2.5,0.7,3.8,2.5,3.8,4.4c0,3.3-3.2,5.1-6.3,5.1C939.9,662.9,936.7,661.3,936.7,657.8z M947.4,657.8
				c0-2.4-2.5-3.5-4.4-3.5c-1.9,0-4.4,1.1-4.4,3.5c0,2.4,2.5,3.5,4.4,3.5C944.9,661.2,947.4,660.2,947.4,657.8z M939,649.4
				c0,2.3,2.5,3.3,4,3.3c1.5,0,4.1-1.1,4.1-3.3c0-2.1-2.3-3.2-4.1-3.2C941.3,646.2,939,647.3,939,649.4z"/>
			<path d="M953.6,655.9c-1.3,0-2.4-1.1-2.4-2.4c0-1.3,1.1-2.4,2.4-2.4c1.3,0,2.4,1.1,2.4,2.4C956,654.8,954.9,655.9,953.6,655.9z
				 M953.6,652c-0.8,0-1.5,0.7-1.5,1.5c0,0.8,0.7,1.5,1.5,1.5c0.8,0,1.5-0.7,1.5-1.5C955.1,652.7,954.4,652,953.6,652z M959.4,651.3
				h1.1l-6.9,10.5h-1.1L959.4,651.3z M959.4,661.9c-1.3,0-2.4-1.1-2.4-2.4c0-1.3,1.1-2.4,2.4-2.4c1.3,0,2.4,1.1,2.4,2.4
				C961.8,660.8,960.7,661.9,959.4,661.9z M959.4,658c-0.8,0-1.5,0.7-1.5,1.5c0,0.8,0.7,1.5,1.5,1.5c0.8,0,1.5-0.7,1.5-1.5
				C960.9,658.7,960.3,658,959.4,658z"/>
		</g>
	</g>
	<g>
		<g>
			<path d="M994.5,742.1c-3.2,0-5.8-1.9-6.2-4.9l1.8-0.4c0.3,2.1,1.9,3.6,4.4,3.6c2.4,0,4.4-1.3,4.4-3.4c0-2-1.5-3.3-4.4-3.3h-1.8
				v-1.8h1.8c2.5,0,4-1.5,4-3.2c0-1.8-1.4-3.2-4-3.2c-2.5,0-3.9,1.5-4.2,3.4l-1.8-0.4c0.3-2.5,2.7-4.7,6-4.7c3.9,0,5.8,2.4,5.8,4.8
				c0,2-1.2,3.4-2.9,4.1v0c2,0.6,3.3,2.2,3.3,4.3C1000.8,739.7,998.3,742.1,994.5,742.1z"/>
			<path d="M1003.4,732.9c0-4.5,2.6-9.3,7.6-9.3c5,0,7.4,4.7,7.4,9.2s-2.5,9.2-7.5,9.2C1006,742.1,1003.4,737.4,1003.4,732.9z
				 M1005.4,732.8c0,3.2,1.6,7.5,5.5,7.5c3.9,0,5.5-4.2,5.5-7.4s-1.7-7.5-5.6-7.5C1007,725.4,1005.4,729.6,1005.4,732.8z"/>
			<path d="M1022.7,735c-1.3,0-2.4-1.1-2.4-2.4c0-1.3,1.1-2.4,2.4-2.4c1.3,0,2.4,1.1,2.4,2.4C1025.1,734,1024,735,1022.7,735z
				 M1022.7,731.2c-0.8,0-1.5,0.7-1.5,1.5c0,0.8,0.7,1.5,1.5,1.5c0.8,0,1.5-0.7,1.5-1.5C1024.2,731.9,1023.5,731.2,1022.7,731.2z
				 M1028.5,730.4h1.1l-6.9,10.5h-1.1L1028.5,730.4z M1028.5,741c-1.3,0-2.4-1.1-2.4-2.4c0-1.3,1.1-2.4,2.4-2.4
				c1.3,0,2.4,1.1,2.4,2.4C1030.9,739.9,1029.8,741,1028.5,741z M1028.5,737.2c-0.8,0-1.5,0.7-1.5,1.5c0,0.8,0.7,1.5,1.5,1.5
				c0.8,0,1.5-0.7,1.5-1.5C1030,737.8,1029.3,737.2,1028.5,737.2z"/>
		</g>
	</g>
	<g>
		<g>
			<path d="M1290.1,742.1c-3.2,0-5.8-1.9-6.2-4.9l1.8-0.4c0.3,2.1,1.9,3.6,4.4,3.6c2.4,0,4.4-1.3,4.4-3.4c0-2-1.5-3.3-4.4-3.3h-1.8
				v-1.8h1.8c2.5,0,4-1.5,4-3.2c0-1.8-1.4-3.2-4-3.2c-2.5,0-3.9,1.5-4.2,3.4l-1.8-0.4c0.3-2.5,2.7-4.7,6-4.7c3.9,0,5.8,2.4,5.8,4.8
				c0,2-1.2,3.4-2.9,4.1v0c2,0.6,3.3,2.2,3.3,4.3C1296.3,739.7,1293.9,742.1,1290.1,742.1z"/>
			<path d="M1307.7,741.9v-4.3h-9.4v-2.1l8.8-11.6h2.4v12.1h3v1.6h-3v4.3H1307.7z M1307.7,735.9v-10.1l-7.7,10.1H1307.7z"/>
			<path d="M1316.2,735c-1.3,0-2.4-1.1-2.4-2.4c0-1.3,1.1-2.4,2.4-2.4c1.3,0,2.4,1.1,2.4,2.4C1318.6,734,1317.6,735,1316.2,735z
				 M1316.2,731.2c-0.8,0-1.5,0.7-1.5,1.5c0,0.8,0.7,1.5,1.5,1.5s1.5-0.7,1.5-1.5C1317.7,731.9,1317.1,731.2,1316.2,731.2z
				 M1322,730.4h1.1l-6.9,10.5h-1.1L1322,730.4z M1322.1,741c-1.3,0-2.4-1.1-2.4-2.4c0-1.3,1.1-2.4,2.4-2.4c1.3,0,2.4,1.1,2.4,2.4
				C1324.4,739.9,1323.4,741,1322.1,741z M1322.1,737.2c-0.8,0-1.5,0.7-1.5,1.5c0,0.8,0.7,1.5,1.5,1.5s1.5-0.7,1.5-1.5
				C1323.6,737.8,1322.9,737.2,1322.1,737.2z"/>
		</g>
	</g>
	<g>
		<g>
			<path d="M1262.9,820.5c0-2.1,1-4.4,4.2-6.3l2.7-1.7c1.7-1.1,3.2-2.2,3.2-4.3c0-1.8-1.6-3.6-4-3.6c-2,0-3.2,1.2-3.7,2.3
				c-0.3,0.8-0.3,1.5-0.4,1.8l-1.9-0.3c0-2.6,2.2-5.6,6-5.6c3.3,0,5.9,2.5,5.9,5.3c0,2.6-1.4,4.1-3.8,5.5l-2.8,1.8
				c-1.5,1-3,2.2-3.1,3.8h9.9v1.8h-12.2V820.5z"/>
			<path d="M1281,804.8l-1,6.1c1.1-1.1,3.1-1.4,3.9-1.4c3.4,0,5.9,2.2,5.9,5.8c0,3.9-3.2,5.9-6.3,5.9c-3,0-5.8-1.9-6.2-4.9l1.8-0.4
				c0.3,2.1,2,3.6,4.4,3.6c1.8,0,4.4-1.2,4.4-4.1s-2.2-4.2-4.4-4.2c-1.3,0-2.9,0.7-3.8,1.8l-1.8-0.7l1.5-9.3h9.5v1.8H1281z"/>
			<path d="M1293.9,814.2c-1.3,0-2.4-1.1-2.4-2.4c0-1.3,1.1-2.4,2.4-2.4c1.3,0,2.4,1.1,2.4,2.4
				C1296.3,813.1,1295.2,814.2,1293.9,814.2z M1293.9,810.3c-0.8,0-1.5,0.7-1.5,1.5c0,0.8,0.7,1.5,1.5,1.5s1.5-0.7,1.5-1.5
				C1295.4,811,1294.7,810.3,1293.9,810.3z M1299.7,809.6h1.1l-6.9,10.5h-1.1L1299.7,809.6z M1299.8,820.2c-1.3,0-2.4-1.1-2.4-2.4
				c0-1.3,1.1-2.4,2.4-2.4c1.3,0,2.4,1.1,2.4,2.4C1302.1,819.1,1301.1,820.2,1299.8,820.2z M1299.8,816.3c-0.8,0-1.5,0.7-1.5,1.5
				c0,0.8,0.7,1.5,1.5,1.5s1.5-0.7,1.5-1.5C1301.2,817,1300.6,816.3,1299.8,816.3z"/>
		</g>
	</g>
	<g>
		<g>
			<path d="M1001.6,821.2c-3.2,0-5.8-1.9-6.2-4.9l1.8-0.4c0.3,2.1,1.9,3.6,4.4,3.6c2.4,0,4.4-1.3,4.4-3.4c0-2-1.5-3.3-4.4-3.3h-1.8
				V811h1.8c2.5,0,4-1.5,4-3.2c0-1.8-1.4-3.2-4-3.2c-2.5,0-3.9,1.5-4.2,3.4l-1.8-0.4c0.3-2.5,2.7-4.7,6-4.7c3.9,0,5.8,2.4,5.8,4.8
				c0,2-1.2,3.4-2.9,4.1v0c2,0.6,3.3,2.2,3.3,4.3C1007.8,818.9,1005.4,821.2,1001.6,821.2z"/>
			<path d="M1016.5,821.2c-3.2,0-5.8-1.9-6.2-4.9l1.8-0.4c0.3,2.1,1.9,3.6,4.4,3.6c2.4,0,4.4-1.3,4.4-3.4c0-2-1.5-3.3-4.4-3.3h-1.8
				V811h1.8c2.5,0,4-1.5,4-3.2c0-1.8-1.4-3.2-4-3.2c-2.5,0-3.9,1.5-4.2,3.4l-1.8-0.4c0.3-2.5,2.7-4.7,6-4.7c3.9,0,5.8,2.4,5.8,4.8
				c0,2-1.2,3.4-2.9,4.1v0c2,0.6,3.3,2.2,3.3,4.3C1022.8,818.9,1020.3,821.2,1016.5,821.2z"/>
			<path d="M1027,814.2c-1.3,0-2.4-1.1-2.4-2.4c0-1.3,1.1-2.4,2.4-2.4c1.3,0,2.4,1.1,2.4,2.4C1029.4,813.1,1028.3,814.2,1027,814.2z
				 M1027,810.3c-0.8,0-1.5,0.7-1.5,1.5c0,0.8,0.7,1.5,1.5,1.5c0.8,0,1.5-0.7,1.5-1.5C1028.5,811,1027.8,810.3,1027,810.3z
				 M1032.8,809.6h1.1l-6.9,10.5h-1.1L1032.8,809.6z M1032.8,820.2c-1.3,0-2.4-1.1-2.4-2.4c0-1.3,1.1-2.4,2.4-2.4
				c1.3,0,2.4,1.1,2.4,2.4C1035.2,819.1,1034.1,820.2,1032.8,820.2z M1032.8,816.3c-0.8,0-1.5,0.7-1.5,1.5c0,0.8,0.7,1.5,1.5,1.5
				c0.8,0,1.5-0.7,1.5-1.5C1034.3,817,1033.6,816.3,1032.8,816.3z"/>
		</g>
	</g>
</g>
</svg>
