<?xml version="1.0" encoding="utf-8"?>
<!-- Generator: Adobe Illustrator 21.1.0, SVG Export Plug-In . SVG Version: 6.00 Build 0)  -->
<svg version="1.1" id="graphNineCyber" xmlns="http://www.w3.org/2000/svg" xmlns:xlink="http://www.w3.org/1999/xlink" x="0px"
	 y="0px" viewBox="0 0 1500 1053" style="enable-background:new 0 0 1500 1053;" xml:space="preserve">
<style type="text/css">
	.st0{fill:#8EFFDE;}
	.st1{fill:none;stroke:#000000;stroke-miterlimit:10;}
	.st2{opacity:0.9;}
	.st3{fill:#FFFFFF;}
	.st4{fill:#FF8F4E;}
	.st5{fill:none;stroke:#FF8F4E;stroke-miterlimit:10;}
</style>
<g>
	<g>
		<path d="M832.4,116l-3.3,1.9l-0.6-1.1l3.9-2.4h1.4V128h-1.4V116z"/>
		<path d="M836.7,121.3c0-3.4,1.9-7,5.7-7c3.7,0,5.6,3.5,5.6,6.9c0,3.4-1.9,6.9-5.7,6.9C838.6,128.2,836.7,124.6,836.7,121.3z
			 M838.2,121.2c0,2.4,1.2,5.6,4.2,5.6c2.9,0,4.2-3.2,4.2-5.6c0-2.4-1.3-5.6-4.2-5.6C839.4,115.6,838.2,118.8,838.2,121.2z"/>
		<path d="M858.5,127.3v10.6h-2.4v-23.3h2.4v10.3h13.3v-10.3h2.4v23.3h-2.4v-10.6H858.5z"/>
		<path d="M889.6,127.7c0-2.6-1.4-3.9-4-3.9c-2.7,0-3.9,1.7-4.2,3.2l-2.2-0.5c0.1-1.3,1.9-4.8,6.5-4.8c3.4,0,5,1.5,5.8,3.3
			c0.4,0.9,0.5,2.1,0.5,2.6v10.3h-2.3v-2.8h0c-1.2,2-3,3.1-5.4,3.1c-3.2,0-5.3-2-5.3-4.7v-0.2c0-3.4,3.4-4.6,6.3-4.6h4.4V127.7z
			 M885.2,130.7c-1.7,0-3.9,0.5-3.9,2.7c0,1.8,1.5,2.8,3.4,2.8c2.8,0,4.9-2,4.9-4.9v-0.6H885.2z"/>
		<path d="M894.6,122h2.6l5.4,13.3l5.5-13.3h2.5l-6.8,15.9h-2.5L894.6,122z"/>
		<path d="M914.5,130.7c0.2,3.1,2.6,5.4,5.7,5.4c2.3,0,4.2-1.2,4.9-3.4l2.1,0.7c-1,3.1-3.8,4.8-7,4.8c-4.6,0-8.1-3.7-8.1-8.2
			c0-4.3,3.3-8.2,7.7-8.2c4.9,0,7.5,3.5,7.5,8.1c0,0.3,0,0.5,0,0.8H914.5z M925,128.7c-0.3-2.9-2.1-4.9-5.1-4.9
			c-2.8,0-5,2.3-5.4,4.9H925z"/>
		<path d="M944.2,136.9L937,122h2.7l5.8,12.3L951,122h2.5l-10.9,23.7h-2.5L944.2,136.9z"/>
		<path d="M954.9,130c0-4.7,3.5-8.3,8.2-8.3c4.6,0,8.2,3.6,8.2,8.1c0,4.7-3.6,8.3-8.2,8.3C958.5,138.2,954.9,134.6,954.9,130z
			 M968.9,130c0-3.3-2.4-6.2-5.9-6.2s-5.8,2.8-5.8,6.1c0,3.3,2.4,6.2,5.9,6.2C966.5,136.1,968.9,133.3,968.9,130z"/>
		<path d="M977.5,131.3c0,2.8,1.5,4.8,4.4,4.8c2.8,0,4.7-2.2,4.7-5V122h2.3v15.9h-2.3V135c-1.2,2.2-3.1,3.2-5.4,3.2
			c-3.9,0-6-2.6-6-6.4V122h2.3V131.3z"/>
		<path d="M1010.9,138.2c-2.9,0-4.8-1.5-6.1-3.5v11.1h-2.3V122h2.3v3.4c1.3-2,3.2-3.7,6.2-3.7c4.5,0,7.5,4,7.5,8.2
			C1018.4,134.2,1015.4,138.2,1010.9,138.2z M1016,130c0-3.3-2.1-6.2-5.6-6.2c-3.3,0-5.7,2.9-5.7,6.1c0,3.3,2.3,6.2,5.7,6.2
			C1013.9,136.1,1016,133.4,1016,130z"/>
		<path d="M1024.6,131.3c0,2.8,1.5,4.8,4.4,4.8c2.8,0,4.7-2.2,4.7-5V122h2.3v15.9h-2.3V135c-1.2,2.2-3.1,3.2-5.4,3.2
			c-3.9,0-6-2.6-6-6.4V122h2.3V131.3z"/>
		<path d="M1042.3,133.8v-9.7h-2.9V122h2.9v-4.6h2.3v4.6h4v2.1h-4v9.7c0,1.4,0.8,2.2,2.6,2.2c0.5,0,1.1,0,1.4-0.1v1.9
			c-0.5,0.1-1.4,0.2-1.8,0.2C1043.4,138,1042.3,136.1,1042.3,133.8z"/>
		<path d="M1070.4,127.7c0-2.6-1.4-3.9-4-3.9c-2.7,0-3.9,1.7-4.2,3.2l-2.2-0.5c0.1-1.3,1.9-4.8,6.5-4.8c3.4,0,5,1.5,5.8,3.3
			c0.4,0.9,0.5,2.1,0.5,2.6v10.3h-2.3v-2.8h0c-1.2,2-3,3.1-5.4,3.1c-3.2,0-5.3-2-5.3-4.7v-0.2c0-3.4,3.4-4.6,6.3-4.6h4.4V127.7z
			 M1066,130.7c-1.7,0-3.9,0.5-3.9,2.7c0,1.8,1.5,2.8,3.4,2.8c2.8,0,4.9-2,4.9-4.9v-0.6H1066z"/>
		<path d="M1089.2,128.7c0-2.8-1.5-4.8-4.4-4.8c-2.8,0-4.7,2.2-4.7,5v9h-2.3V122h2.3v2.9c1.2-2.1,3.1-3.2,5.5-3.2c3.9,0,6,2.6,6,6.4
			v9.8h-2.3V128.7z"/>
		<path d="M1101.2,136.9L1094,122h2.7l5.8,12.3l5.5-12.3h2.5l-10.9,23.7h-2.5L1101.2,136.9z"/>
		<path d="M1130.9,127.7c0-2.6-1.4-3.9-4-3.9c-2.7,0-3.9,1.7-4.2,3.2l-2.2-0.5c0.1-1.3,1.9-4.8,6.5-4.8c3.4,0,5,1.5,5.8,3.3
			c0.4,0.9,0.5,2.1,0.5,2.6v10.3h-2.3v-2.8h0c-1.2,2-3,3.1-5.4,3.1c-3.2,0-5.3-2-5.3-4.7v-0.2c0-3.4,3.4-4.6,6.3-4.6h4.4V127.7z
			 M1126.5,130.7c-1.7,0-3.9,0.5-3.9,2.7c0,1.8,1.5,2.8,3.4,2.8c2.8,0,4.9-2,4.9-4.9v-0.6H1126.5z"/>
		<path d="M1144.5,121.8c3.1,0,4.9,1.7,6.2,3.6v-11.7h2.3v24.2h-2.3v-3.4c-1.2,2-3.1,3.6-6.2,3.6c-4.5,0-7.4-3.9-7.4-8.2
			C1137.1,125.8,1140,121.8,1144.5,121.8z M1150.7,129.9c0-3.2-2.4-6.1-5.7-6.1c-3.5,0-5.6,2.8-5.6,6.2c0,3.3,2.1,6.1,5.6,6.1
			C1148.3,136.1,1150.7,133.2,1150.7,129.9z"/>
		<path d="M1164.5,121.8c3.1,0,4.9,1.7,6.2,3.6v-11.7h2.3v24.2h-2.3v-3.4c-1.2,2-3.1,3.6-6.2,3.6c-4.5,0-7.4-3.9-7.4-8.2
			C1157.1,125.8,1160,121.8,1164.5,121.8z M1170.7,129.9c0-3.2-2.4-6.1-5.7-6.1c-3.5,0-5.6,2.8-5.6,6.2c0,3.3,2.1,6.1,5.6,6.1
			C1168.4,136.1,1170.7,133.2,1170.7,129.9z"/>
		<path d="M1179.4,114.6c1,0,1.8,0.8,1.8,1.8c0,1-0.8,1.7-1.8,1.7c-1,0-1.7-0.8-1.7-1.7C1177.7,115.4,1178.4,114.6,1179.4,114.6z
			 M1180.6,122v15.9h-2.3V122H1180.6z"/>
		<path d="M1186.9,133.8v-9.7h-2.9V122h2.9v-4.6h2.3v4.6h4v2.1h-4v9.7c0,1.4,0.8,2.2,2.6,2.2c0.5,0,1.1,0,1.4-0.1v1.9
			c-0.5,0.1-1.4,0.2-1.8,0.2C1187.9,138,1186.9,136.1,1186.9,133.8z"/>
		<path d="M1198.3,114.6c1,0,1.8,0.8,1.8,1.8c0,1-0.8,1.7-1.8,1.7c-1,0-1.7-0.8-1.7-1.7C1196.5,115.4,1197.3,114.6,1198.3,114.6z
			 M1199.4,122v15.9h-2.3V122H1199.4z"/>
		<path d="M1203.5,130c0-4.7,3.5-8.3,8.2-8.3c4.6,0,8.2,3.6,8.2,8.1c0,4.7-3.6,8.3-8.2,8.3C1207.1,138.2,1203.5,134.6,1203.5,130z
			 M1217.5,130c0-3.3-2.4-6.2-5.9-6.2s-5.8,2.8-5.8,6.1c0,3.3,2.4,6.2,5.9,6.2C1215.1,136.1,1217.5,133.3,1217.5,130z"/>
		<path d="M1235.4,128.7c0-2.8-1.5-4.8-4.4-4.8c-2.8,0-4.7,2.2-4.7,5v9h-2.3V122h2.3v2.9c1.2-2.1,3.1-3.2,5.5-3.2c3.9,0,6,2.6,6,6.4
			v9.8h-2.3V128.7z"/>
		<path d="M1252.4,127.7c0-2.6-1.4-3.9-4-3.9c-2.7,0-3.9,1.7-4.2,3.2l-2.2-0.5c0.1-1.3,1.9-4.8,6.5-4.8c3.4,0,5,1.5,5.8,3.3
			c0.4,0.9,0.5,2.1,0.5,2.6v10.3h-2.3v-2.8h0c-1.2,2-3,3.1-5.4,3.1c-3.2,0-5.3-2-5.3-4.7v-0.2c0-3.4,3.4-4.6,6.3-4.6h4.4V127.7z
			 M1247.9,130.7c-1.7,0-3.9,0.5-3.9,2.7c0,1.8,1.5,2.8,3.4,2.8c2.8,0,4.9-2,4.9-4.9v-0.6H1247.9z"/>
		<path d="M1262,113.7v24.2h-2.3v-24.2H1262z"/>
		<path d="M1286.4,128.6c0-2.6-1.2-4.8-4.1-4.8c-2.8,0-4.4,2.4-4.4,5v9h-2.3V122h2.3v2.8c1.3-1.9,2.7-3.1,5.1-3.1
			c2.3,0,4.1,1.1,5.1,3.2c1.3-2.1,3.1-3.2,5.6-3.2c3.8,0,5.9,2.6,5.9,6.3v9.8h-2.3v-9.2c0-2.6-1.2-4.8-4.1-4.8
			c-2.8,0-4.4,2.3-4.4,4.9v9.1h-2.3V128.6z"/>
		<path d="M1305.7,130.7c0.2,3.1,2.6,5.4,5.7,5.4c2.3,0,4.2-1.2,4.9-3.4l2.1,0.7c-1,3.1-3.8,4.8-7,4.8c-4.6,0-8.1-3.7-8.1-8.2
			c0-4.3,3.3-8.2,7.7-8.2c4.9,0,7.5,3.5,7.5,8.1c0,0.3,0,0.5,0,0.8H1305.7z M1316.2,128.7c-0.3-2.9-2.1-4.9-5.1-4.9
			c-2.8,0-5,2.3-5.4,4.9H1316.2z"/>
		<path d="M1332.1,127.7c0-2.6-1.4-3.9-4-3.9c-2.7,0-3.9,1.7-4.2,3.2l-2.2-0.5c0.1-1.3,1.9-4.8,6.5-4.8c3.4,0,5,1.5,5.8,3.3
			c0.4,0.9,0.5,2.1,0.5,2.6v10.3h-2.3v-2.8h0c-1.2,2-3,3.1-5.4,3.1c-3.2,0-5.3-2-5.3-4.7v-0.2c0-3.4,3.4-4.6,6.3-4.6h4.4V127.7z
			 M1327.7,130.7c-1.7,0-3.9,0.5-3.9,2.7c0,1.8,1.5,2.8,3.4,2.8c2.8,0,4.9-2,4.9-4.9v-0.6H1327.7z"/>
		<path d="M1344.3,138.2c-4.3,0-5.7-2.9-6-4.7l2.1-0.5c0.3,1.4,1.4,3.2,3.9,3.2c1.7,0,3.3-0.9,3.3-2.6c0-1.9-2.1-2.4-3.7-2.6
			c-2.6-0.4-5.2-1.3-5.2-4.4c0-3,2.7-4.7,5.3-4.7c4.2,0,5.5,2.8,5.8,4.3l-2.1,0.5c-0.3-1.1-1.1-2.8-3.7-2.8c-1.7,0-3,1.2-3,2.5
			c0,2,2.1,2.3,3.8,2.5c2.6,0.3,5.2,1.7,5.2,4.6C1349.9,136.3,1347.3,138.2,1344.3,138.2z"/>
		<path d="M1356.1,131.3c0,2.8,1.5,4.8,4.4,4.8c2.8,0,4.7-2.2,4.7-5V122h2.3v15.9h-2.3V135c-1.2,2.2-3.1,3.2-5.4,3.2
			c-3.9,0-6-2.6-6-6.4V122h2.3V131.3z"/>
		<path d="M1375.1,125.2c1.2-2.5,3.3-3.4,5.1-3.4c0.1,0,0.6,0,0.8,0v2.5c-0.3,0-0.6-0.1-0.9-0.1c-3.7,0-5,3.1-5,5.9v7.8h-2.3V122
			h2.3V125.2z"/>
		<path d="M1384.7,130.7c0.2,3.1,2.6,5.4,5.7,5.4c2.3,0,4.2-1.2,4.9-3.4l2.1,0.7c-1,3.1-3.8,4.8-7,4.8c-4.6,0-8.1-3.7-8.1-8.2
			c0-4.3,3.3-8.2,7.7-8.2c4.9,0,7.5,3.5,7.5,8.1c0,0.3,0,0.5,0,0.8H1384.7z M1395.3,128.7c-0.3-2.9-2.1-4.9-5.1-4.9
			c-2.8,0-5,2.3-5.4,4.9H1395.3z"/>
		<path d="M1406.4,138.2c-4.3,0-5.7-2.9-6-4.7l2.1-0.5c0.3,1.4,1.4,3.2,3.9,3.2c1.7,0,3.3-0.9,3.3-2.6c0-1.9-2.1-2.4-3.7-2.6
			c-2.6-0.4-5.2-1.3-5.2-4.4c0-3,2.7-4.7,5.3-4.7c4.2,0,5.5,2.8,5.8,4.3l-2.1,0.5c-0.3-1.1-1.1-2.8-3.7-2.8c-1.7,0-3,1.2-3,2.5
			c0,2,2.1,2.3,3.8,2.5c2.6,0.3,5.2,1.7,5.2,4.6C1412.1,136.3,1409.5,138.2,1406.4,138.2z"/>
		<path d="M859.3,150.3c1,0,1.8,0.8,1.8,1.8c0,1-0.8,1.7-1.8,1.7c-1,0-1.7-0.8-1.7-1.7C857.6,151.1,858.4,150.3,859.3,150.3z
			 M860.5,157.7v15.9h-2.3v-15.9H860.5z"/>
		<path d="M877.2,164.3c0-2.8-1.5-4.8-4.4-4.8c-2.8,0-4.7,2.2-4.7,5v9h-2.3v-15.9h2.3v2.9c1.2-2.1,3.1-3.2,5.5-3.2
			c3.9,0,6,2.6,6,6.4v9.8h-2.3V164.3z"/>
		<path d="M901.3,173.8c-2.9,0-4.8-1.5-6.1-3.5v11.1h-2.3v-23.7h2.3v3.4c1.3-2,3.2-3.7,6.2-3.7c4.5,0,7.5,4,7.5,8.2
			C908.7,169.9,905.8,173.8,901.3,173.8z M906.3,165.7c0-3.3-2.1-6.2-5.6-6.2c-3.3,0-5.7,2.9-5.7,6.1c0,3.3,2.3,6.2,5.7,6.2
			C904.3,171.8,906.3,169,906.3,165.7z"/>
		<path d="M915.2,149.4v24.2h-2.3v-24.2H915.2z"/>
		<path d="M930,163.4c0-2.6-1.4-3.9-4-3.9c-2.7,0-3.9,1.7-4.2,3.2l-2.2-0.5c0.1-1.3,1.9-4.8,6.5-4.8c3.4,0,5,1.5,5.8,3.3
			c0.4,0.9,0.5,2.1,0.5,2.6v10.3H930v-2.8h0c-1.2,2-3,3.1-5.4,3.1c-3.2,0-5.3-2-5.3-4.7V169c0-3.4,3.4-4.6,6.3-4.6h4.4V163.4z
			 M925.5,166.3c-1.7,0-3.9,0.5-3.9,2.7c0,1.8,1.5,2.8,3.4,2.8c2.8,0,4.9-2,4.9-4.9v-0.6H925.5z"/>
		<path d="M944.2,171.8c3.5,0,4.8-2.6,5.3-3.8l2.2,0.7c-0.7,2.4-3.3,5.1-7.5,5.1c-4.6,0-8.1-3.4-8.1-8.1c0-4.8,3.7-8.3,8.2-8.3
			c3.7,0,6.6,2.4,7.3,5.1l-2.1,0.7c-0.4-1.2-1.9-3.7-5.2-3.7c-3.4,0-5.7,2.8-5.7,6.1C938.5,168.9,940.6,171.8,944.2,171.8z"/>
		<path d="M956.8,166.4c0.2,3.1,2.6,5.4,5.7,5.4c2.3,0,4.2-1.2,4.9-3.4l2.1,0.7c-1,3.1-3.8,4.8-7,4.8c-4.6,0-8.1-3.7-8.1-8.2
			c0-4.3,3.3-8.2,7.7-8.2c4.9,0,7.5,3.5,7.5,8.1c0,0.3,0,0.5,0,0.8H956.8z M967.3,164.4c-0.3-2.9-2.1-4.9-5.1-4.9
			c-2.8,0-5,2.3-5.4,4.9H967.3z"/>
		<path d="M991.5,163.4c0-2.6-1.4-3.9-4-3.9c-2.7,0-3.9,1.7-4.2,3.2l-2.2-0.5c0.1-1.3,1.9-4.8,6.5-4.8c3.4,0,5,1.5,5.8,3.3
			c0.4,0.9,0.5,2.1,0.5,2.6v10.3h-2.3v-2.8h0c-1.2,2-3,3.1-5.4,3.1c-3.2,0-5.3-2-5.3-4.7V169c0-3.4,3.4-4.6,6.3-4.6h4.4V163.4z
			 M987,166.3c-1.7,0-3.9,0.5-3.9,2.7c0,1.8,1.5,2.8,3.4,2.8c2.8,0,4.9-2,4.9-4.9v-0.6H987z"/>
		<path d="M1010.2,164.3c0-2.8-1.5-4.8-4.4-4.8c-2.8,0-4.7,2.2-4.7,5v9h-2.3v-24.2h2.3v11.2c1.2-2.1,3.1-3.2,5.4-3.2
			c3.9,0,6,2.6,6,6.4v9.8h-2.3V164.3z"/>
		<path d="M1018.8,166.4c0.2,3.1,2.6,5.4,5.7,5.4c2.3,0,4.2-1.2,4.9-3.4l2.1,0.7c-1,3.1-3.8,4.8-7,4.8c-4.6,0-8.1-3.7-8.1-8.2
			c0-4.3,3.3-8.2,7.7-8.2c4.9,0,7.5,3.5,7.5,8.1c0,0.3,0,0.5,0,0.8H1018.8z M1029.3,164.4c-0.3-2.9-2.1-4.9-5.1-4.9
			c-2.8,0-5,2.3-5.4,4.9H1029.3z"/>
		<path d="M1045.2,163.4c0-2.6-1.4-3.9-4-3.9c-2.7,0-3.9,1.7-4.2,3.2l-2.2-0.5c0.1-1.3,1.9-4.8,6.5-4.8c3.4,0,5,1.5,5.8,3.3
			c0.4,0.9,0.5,2.1,0.5,2.6v10.3h-2.3v-2.8h0c-1.2,2-3,3.1-5.4,3.1c-3.2,0-5.3-2-5.3-4.7V169c0-3.4,3.4-4.6,6.3-4.6h4.4V163.4z
			 M1040.8,166.3c-1.7,0-3.9,0.5-3.9,2.7c0,1.8,1.5,2.8,3.4,2.8c2.8,0,4.9-2,4.9-4.9v-0.6H1040.8z"/>
		<path d="M1058.8,157.4c3.1,0,4.9,1.7,6.2,3.6v-11.7h2.3v24.2h-2.3v-3.4c-1.2,2-3.1,3.6-6.2,3.6c-4.5,0-7.4-3.9-7.4-8.2
			C1051.4,161.5,1054.3,157.4,1058.8,157.4z M1065,165.6c0-3.2-2.4-6.1-5.7-6.1c-3.5,0-5.6,2.8-5.6,6.2c0,3.3,2.1,6.1,5.6,6.1
			C1062.6,171.8,1065,168.9,1065,165.6z"/>
		<path d="M1079.6,165.7c0-4.7,3.5-8.3,8.2-8.3c4.6,0,8.2,3.6,8.2,8.1c0,4.7-3.6,8.3-8.2,8.3
			C1083.2,173.9,1079.6,170.2,1079.6,165.7z M1093.7,165.7c0-3.3-2.4-6.2-5.9-6.2s-5.8,2.8-5.8,6.1c0,3.3,2.4,6.2,5.9,6.2
			C1091.3,171.8,1093.7,169,1093.7,165.7z"/>
		<path d="M1103.3,154.7v3h4.2v2h-4.2v13.9h-2.3v-13.9h-3v-2h3v-2.9c0-3.7,2.1-5.5,4.9-5.5c0.4,0,1.1,0.1,1.8,0.3v2
			c-0.6-0.2-1.3-0.2-1.7-0.2C1104.8,151.4,1103.3,152,1103.3,154.7z"/>
		<path d="M1119.3,169.5v-9.7h-2.9v-2.1h2.9v-4.6h2.3v4.6h4v2.1h-4v9.7c0,1.4,0.8,2.2,2.6,2.2c0.5,0,1.1,0,1.4-0.1v1.9
			c-0.5,0.1-1.4,0.2-1.8,0.2C1120.3,173.7,1119.3,171.8,1119.3,169.5z"/>
		<path d="M1140.9,164.3c0-2.8-1.5-4.8-4.4-4.8c-2.8,0-4.7,2.2-4.7,5v9h-2.3v-24.2h2.3v11.2c1.2-2.1,3.1-3.2,5.4-3.2
			c3.9,0,6,2.6,6,6.4v9.8h-2.3V164.3z"/>
		<path d="M1149.5,166.4c0.2,3.1,2.6,5.4,5.7,5.4c2.3,0,4.2-1.2,4.9-3.4l2.1,0.7c-1,3.1-3.8,4.8-7,4.8c-4.6,0-8.1-3.7-8.1-8.2
			c0-4.3,3.3-8.2,7.7-8.2c4.9,0,7.5,3.5,7.5,8.1c0,0.3,0,0.5,0,0.8H1149.5z M1160,164.4c-0.3-2.9-2.1-4.9-5.1-4.9
			c-2.8,0-5,2.3-5.4,4.9H1160z"/>
		<path d="M1175.8,150.3c1,0,1.8,0.8,1.8,1.8c0,1-0.8,1.7-1.8,1.7c-1,0-1.7-0.8-1.7-1.7C1174,151.1,1174.8,150.3,1175.8,150.3z
			 M1176.9,157.7v15.9h-2.3v-15.9H1176.9z"/>
		<path d="M1193.6,164.3c0-2.8-1.5-4.8-4.4-4.8c-2.8,0-4.7,2.2-4.7,5v9h-2.3v-15.9h2.3v2.9c1.2-2.1,3.1-3.2,5.5-3.2
			c3.9,0,6,2.6,6,6.4v9.8h-2.3V164.3z"/>
		<path d="M1201.9,169.5v-9.7h-2.9v-2.1h2.9v-4.6h2.3v4.6h4v2.1h-4v9.7c0,1.4,0.8,2.2,2.6,2.2c0.5,0,1.1,0,1.4-0.1v1.9
			c-0.5,0.1-1.4,0.2-1.8,0.2C1202.9,173.7,1201.9,171.8,1201.9,169.5z"/>
		<path d="M1214.4,160.9c1.2-2.5,3.3-3.4,5.1-3.4c0.1,0,0.6,0,0.8,0v2.5c-0.3,0-0.6-0.1-0.9-0.1c-3.7,0-5,3.1-5,5.9v7.8h-2.3v-15.9
			h2.3V160.9z"/>
		<path d="M1221.7,165.7c0-4.7,3.5-8.3,8.2-8.3c4.6,0,8.2,3.6,8.2,8.1c0,4.7-3.6,8.3-8.2,8.3
			C1225.2,173.9,1221.7,170.2,1221.7,165.7z M1235.7,165.7c0-3.3-2.4-6.2-5.9-6.2s-5.8,2.8-5.8,6.1c0,3.3,2.4,6.2,5.9,6.2
			C1233.3,171.8,1235.7,169,1235.7,165.7z"/>
		<path d="M1248.5,157.4c3.1,0,4.9,1.7,6.2,3.6v-11.7h2.3v24.2h-2.3v-3.4c-1.2,2-3.1,3.6-6.2,3.6c-4.5,0-7.4-3.9-7.4-8.2
			C1241,161.5,1244,157.4,1248.5,157.4z M1254.6,165.6c0-3.2-2.4-6.1-5.7-6.1c-3.5,0-5.6,2.8-5.6,6.2c0,3.3,2.1,6.1,5.6,6.1
			C1252.3,171.8,1254.6,168.9,1254.6,165.6z"/>
		<path d="M1264.3,167c0,2.8,1.5,4.8,4.4,4.8c2.8,0,4.7-2.2,4.7-5v-9.1h2.3v15.9h-2.3v-2.9c-1.2,2.2-3.1,3.2-5.4,3.2
			c-3.9,0-6-2.6-6-6.4v-9.8h2.3V167z"/>
		<path d="M1287.9,171.8c3.5,0,4.8-2.6,5.3-3.8l2.2,0.7c-0.7,2.4-3.3,5.1-7.5,5.1c-4.6,0-8.1-3.4-8.1-8.1c0-4.8,3.7-8.3,8.2-8.3
			c3.7,0,6.6,2.4,7.3,5.1l-2.1,0.7c-0.4-1.2-1.9-3.7-5.2-3.7c-3.4,0-5.7,2.8-5.7,6.1C1282.2,168.9,1284.3,171.8,1287.9,171.8z"/>
		<path d="M1300.1,169.5v-9.7h-2.9v-2.1h2.9v-4.6h2.3v4.6h4v2.1h-4v9.7c0,1.4,0.8,2.2,2.6,2.2c0.5,0,1.1,0,1.4-0.1v1.9
			c-0.5,0.1-1.4,0.2-1.8,0.2C1301.2,173.7,1300.1,171.8,1300.1,169.5z"/>
		<path d="M1311.5,150.3c1,0,1.8,0.8,1.8,1.8c0,1-0.8,1.7-1.8,1.7c-1,0-1.7-0.8-1.7-1.7C1309.8,151.1,1310.6,150.3,1311.5,150.3z
			 M1312.7,157.7v15.9h-2.3v-15.9H1312.7z"/>
		<path d="M1316.8,165.7c0-4.7,3.5-8.3,8.2-8.3c4.6,0,8.2,3.6,8.2,8.1c0,4.7-3.6,8.3-8.2,8.3
			C1320.3,173.9,1316.8,170.2,1316.8,165.7z M1330.8,165.7c0-3.3-2.4-6.2-5.9-6.2s-5.8,2.8-5.8,6.1c0,3.3,2.4,6.2,5.9,6.2
			C1328.4,171.8,1330.8,169,1330.8,165.7z"/>
		<path d="M1348.7,164.3c0-2.8-1.5-4.8-4.4-4.8c-2.8,0-4.7,2.2-4.7,5v9h-2.3v-15.9h2.3v2.9c1.2-2.1,3.1-3.2,5.5-3.2
			c3.9,0,6,2.6,6,6.4v9.8h-2.3V164.3z"/>
		<path d="M857,201.4c0-4.7,3.5-8.3,8.2-8.3c4.6,0,8.2,3.6,8.2,8.1c0,4.7-3.6,8.3-8.2,8.3C860.6,209.5,857,205.9,857,201.4z
			 M871,201.4c0-3.3-2.4-6.2-5.9-6.2s-5.8,2.8-5.8,6.1c0,3.3,2.4,6.2,5.9,6.2C868.6,207.5,871,204.7,871,201.4z"/>
		<path d="M880.7,190.4v3h4.2v2h-4.2v13.9h-2.3v-13.9h-3v-2h3v-2.9c0-3.7,2.1-5.5,4.9-5.5c0.4,0,1.1,0.1,1.8,0.3v2
			c-0.6-0.2-1.3-0.2-1.7-0.2C882.1,187,880.7,187.7,880.7,190.4z"/>
		<path d="M896.6,205.2v-9.7h-2.9v-2.1h2.9v-4.6h2.3v4.6h4v2.1h-4v9.7c0,1.4,0.8,2.2,2.6,2.2c0.5,0,1.1,0,1.4-0.1v1.9
			c-0.5,0.1-1.4,0.2-1.8,0.2C897.7,209.4,896.6,207.5,896.6,205.2z"/>
		<path d="M918.3,200c0-2.8-1.5-4.8-4.4-4.8c-2.8,0-4.7,2.2-4.7,5v9h-2.3v-24.2h2.3v11.2c1.2-2.1,3.1-3.2,5.4-3.2c3.9,0,6,2.6,6,6.4
			v9.8h-2.3V200z"/>
		<path d="M926.8,202c0.2,3.1,2.6,5.4,5.7,5.4c2.3,0,4.2-1.2,4.9-3.4l2.1,0.7c-1,3.1-3.8,4.8-7,4.8c-4.6,0-8.1-3.7-8.1-8.2
			c0-4.3,3.3-8.2,7.7-8.2c4.9,0,7.5,3.5,7.5,8.1c0,0.3,0,0.5,0,0.8H926.8z M937.3,200.1c-0.3-2.9-2.1-4.9-5.1-4.9
			c-2.8,0-5,2.3-5.4,4.9H937.3z"/>
		<path d="M970.6,193.5c-0.6-1.9-2.8-5.5-8-5.5c-5.3,0-9.1,4.5-9.1,9.5c0,5.3,3.5,9.7,9.2,9.7c4.1,0,7.9-2.5,8.2-7h-9.7V198h12.3
			v0.9c0,5.9-4.1,10.6-10.9,10.6c-7,0-11.6-5.1-11.6-11.8c0-6.7,5-11.9,11.7-11.9c5.7,0,9,3.3,10.3,6.9L970.6,193.5z"/>
		<path d="M985,186c7.3,0,12.3,5,12.3,11.6c0,6.9-5.5,11.7-12.3,11.7h-6.9V186H985z M984.9,207c5.9,0,9.8-3.9,9.8-9.3
			c0-5.4-3.8-9.4-9.9-9.4h-4.4V207H984.9z"/>
		<path d="M1004.5,209.3h-2.4V186h7.8c5.7,0,8.2,3.4,8.2,7c0,4-2.9,7.2-8.6,7.2h-4.9V209.3z M1004.5,197.9h5c4.3,0,6-2.5,6-4.8
			c0-2.3-1.3-4.8-5.9-4.8h-5.1V197.9z"/>
		<path d="M1029.5,199.8h-4.8v9.4h-2.4V186h8.1c5.7,0,8.2,3.2,8.2,6.8c0,4-2.9,6.2-6.4,6.7l7.2,9.8h-3L1029.5,199.8z M1030.2,197.6
			c4.2,0,5.9-2.4,5.9-4.8c0-2.3-1.4-4.6-5.9-4.6h-5.5v9.3H1030.2z"/>
		<path d="M1052.6,186c1,0,1.8,0.8,1.8,1.8c0,1-0.8,1.7-1.8,1.7c-1,0-1.7-0.8-1.7-1.7C1050.9,186.7,1051.6,186,1052.6,186z
			 M1053.8,193.4v15.9h-2.3v-15.9H1053.8z"/>
		<path d="M1070.4,200c0-2.8-1.5-4.8-4.4-4.8c-2.8,0-4.7,2.2-4.7,5v9h-2.3v-15.9h2.3v2.9c1.2-2.1,3.1-3.2,5.5-3.2c3.9,0,6,2.6,6,6.4
			v9.8h-2.3V200z"/>
		<path d="M1111,209.3h-2.4v-19.9h0l-8.7,19.9h-2.2l-8.6-19.8v19.8h-2.4V186h3.4l8.7,19.9l8.6-19.9h3.5V209.3z"/>
		<path d="M1126.4,199c0-2.6-1.4-3.9-4-3.9c-2.7,0-3.9,1.7-4.2,3.2l-2.2-0.5c0.1-1.3,1.9-4.8,6.5-4.8c3.4,0,5,1.5,5.8,3.3
			c0.4,0.9,0.5,2.1,0.5,2.6v10.3h-2.3v-2.8h0c-1.2,2-3,3.1-5.4,3.1c-3.2,0-5.3-2-5.3-4.7v-0.2c0-3.4,3.4-4.6,6.3-4.6h4.4V199z
			 M1122,202c-1.7,0-3.9,0.5-3.9,2.7c0,1.8,1.5,2.8,3.4,2.8c2.8,0,4.9-2,4.9-4.9V202H1122z"/>
		<path d="M1138.5,208.2l-7.2-14.8h2.7l5.8,12.3l5.5-12.3h2.5l-10.9,23.7h-2.5L1138.5,208.2z"/>
		<path d="M1157.6,208.5c0-2.7,1.2-5.6,5.4-8.2l3.5-2.2c2.2-1.4,4.1-2.8,4.1-5.5c0-2.4-2.1-4.6-5.1-4.6c-2.6,0-4.2,1.5-4.8,3
			c-0.4,1-0.4,1.9-0.5,2.3l-2.4-0.4c0-3.3,2.8-7.2,7.8-7.2c4.3,0,7.6,3.3,7.6,6.9c0,3.3-1.8,5.3-4.9,7.2l-3.7,2.3
			c-2,1.2-3.9,2.9-4,5h12.8v2.3h-15.7V208.5z"/>
		<path d="M1176.7,197.7c0-5.8,3.3-11.9,9.8-11.9c6.4,0,9.6,6.1,9.6,11.8c0,5.8-3.3,11.9-9.7,11.9
			C1179.9,209.5,1176.7,203.5,1176.7,197.7z M1179.2,197.6c0,4.2,2.1,9.7,7.2,9.7c5,0,7.2-5.4,7.2-9.6s-2.2-9.7-7.2-9.7
			C1181.3,188,1179.2,193.4,1179.2,197.6z"/>
		<path d="M1204.9,188.6l-5.6,3.3l-1.1-1.8l6.7-4.1h2.4v23.3h-2.4V188.6z"/>
		<path d="M1212.3,202.9c0-2.4,1.7-4.6,4.9-5.6c-2.9-0.8-4.3-3.3-4.3-5.3c0-4,4.2-6.2,7.6-6.2c3.5,0,7.6,2.1,7.6,6.2
			c0,2.2-1.6,4.5-4.3,5.3c3.2,0.9,4.9,3.2,4.9,5.6c0,4.3-4.1,6.6-8.2,6.6C1216.5,209.5,1212.3,207.3,1212.3,202.9z M1226.2,202.9
			c0-3.1-3.2-4.5-5.7-4.5c-2.4,0-5.7,1.4-5.7,4.5c0,3.2,3.2,4.5,5.7,4.5C1223,207.3,1226.2,206,1226.2,202.9z M1215.3,192
			c0,2.9,3.2,4.3,5.2,4.3c2,0,5.2-1.4,5.2-4.3c0-2.7-3-4.1-5.2-4.1C1218.3,187.9,1215.3,189.3,1215.3,192z"/>
		<path d="M1237,202.5c0-0.2,0-0.4,0-0.5c0-2.8,1.7-4.1,3-5.4c1.3-1.4,2.9-2.7,2.9-4.7c0-1.9-1.3-3.8-4.3-3.8c-3,0-4.6,2.2-4.5,5.1
			l-2.4-0.1c0-0.2,0-0.4,0-0.7c0-3.8,3.2-6.5,6.9-6.5c4.2,0,6.8,2.9,6.8,6.1c0,2.3-1.4,3.8-3.5,5.9c-1.5,1.5-2.6,2.5-2.6,4.8H1237z
			 M1238,209.5c1,0,1.7-0.8,1.7-1.8c0-1-0.7-1.7-1.7-1.7c-1,0-1.8,0.8-1.8,1.7C1236.3,208.8,1237.1,209.5,1238,209.5z"/>
	</g>
	<g>
		<g>
			<g>
				<g>
					<circle class="st0" cx="836.9" cy="608.5" r="218"/>
				</g>
				<g>
					<path d="M805.1,624.4c-6.8,0-12.6-4.1-13.4-10.6l3.9-0.8c0.7,4.5,4.1,7.7,9.5,7.7c5.2,0,9.4-2.9,9.4-7.3c0-4.4-3.3-7.2-9.4-7.2
						h-3.9v-3.8h3.8c5.3,0,8.6-3.3,8.6-7c0-4-3-6.9-8.6-6.9c-5.3,0-8.4,3.2-9.1,7.3l-3.9-0.8c0.7-5.4,5.8-10.2,13-10.2
						c8.4,0,12.6,5.2,12.6,10.3c0,4.4-2.5,7.2-6.2,8.9v0c4.4,1.2,7.1,4.7,7.1,9.3C818.5,619.3,813.2,624.4,805.1,624.4z"/>
					<path d="M824.3,604.7c0-9.6,5.5-19.9,16.2-19.9c10.6,0,16,10.1,16,19.7c0,9.6-5.4,19.9-16.2,19.9
						C829.7,624.4,824.3,614.4,824.3,604.7z M828.6,604.5c0,7,3.5,16.1,11.9,16.1c8.4,0,11.9-9,11.9-15.9c0-6.9-3.6-16.1-12-16.1
						S828.6,597.6,828.6,604.5z"/>
					<path d="M865.7,610.5c-2.8,0-5.1-2.3-5.1-5.1c0-2.8,2.3-5.1,5.1-5.1c2.8,0,5.1,2.3,5.1,5.1
						C870.8,608.2,868.6,610.5,865.7,610.5z M865.7,602.2c-1.8,0-3.2,1.4-3.2,3.2c0,1.8,1.4,3.2,3.2,3.2c1.8,0,3.2-1.4,3.2-3.2
						C868.9,603.6,867.5,602.2,865.7,602.2z M878.2,600.6h2.3l-14.8,22.6h-2.3L878.2,600.6z M878.3,623.3c-2.8,0-5.1-2.3-5.1-5.1
						c0-2.8,2.3-5.1,5.1-5.1c2.8,0,5.1,2.3,5.1,5.1C883.4,621.1,881.1,623.3,878.3,623.3z M878.3,615.1c-1.8,0-3.2,1.4-3.2,3.2
						c0,1.8,1.4,3.2,3.2,3.2c1.8,0,3.2-1.4,3.2-3.2C881.5,616.5,880,615.1,878.3,615.1z"/>
				</g>
			</g>
			<g>
				<path d="M990.4,961.5v11.6H989l-7-9.9v9.9h-1.2v-11.6h1.4l6.9,9.7v-9.7H990.4z"/>
				<path d="M993.5,969.2c0-2.3,1.8-4.1,4.1-4.1c2.3,0,4.1,1.8,4.1,4.1c0,2.3-1.8,4.1-4.1,4.1C995.2,973.2,993.5,971.4,993.5,969.2z
					 M1000.5,969.2c0-1.7-1.2-3.1-2.9-3.1s-2.9,1.4-2.9,3.1c0,1.7,1.2,3.1,2.9,3.1C999.3,972.2,1000.5,970.8,1000.5,969.2z"/>
				<path d="M1004.2,974.8c0.7-0.5,1.2-1.1,1.3-1.8c-0.1,0-0.2,0.1-0.4,0.1c-0.6,0-1-0.4-1-1c0-0.6,0.5-1.1,1-1.1
					c0.7,0,1.2,0.6,1.2,1.5v0.1c0,1-0.5,2-1.6,2.8L1004.2,974.8z"/>
				<path d="M1018.1,968c0-1.3-0.7-1.9-2-1.9c-1.3,0-1.9,0.9-2.1,1.6l-1.1-0.2c0.1-0.7,1-2.4,3.2-2.4c1.7,0,2.5,0.8,2.9,1.6
					c0.2,0.4,0.2,1.1,0.2,1.3v5.1h-1.1v-1.4h0c-0.6,1-1.5,1.5-2.7,1.5c-1.6,0-2.7-1-2.7-2.3v-0.1c0-1.7,1.7-2.3,3.1-2.3h2.2V968z
					 M1015.9,969.5c-0.8,0-2,0.3-2,1.3c0,0.9,0.8,1.4,1.7,1.4c1.4,0,2.5-1,2.5-2.5v-0.3H1015.9z"/>
				<path d="M1028.2,968.5c0-1.4-0.7-2.4-2.2-2.4c-1.4,0-2.4,1.1-2.4,2.5v4.5h-1.2v-7.9h1.1v1.5c0.6-1.1,1.6-1.6,2.7-1.6
					c1.9,0,3,1.3,3,3.2v4.9h-1.2V968.5z"/>
				<path d="M1035.8,965c1.5,0,2.4,0.9,3.1,1.8V961h1.1v12.1h-1.1v-1.7c-0.6,1-1.6,1.8-3.1,1.8c-2.3,0-3.7-1.9-3.7-4.1
					C1032.1,967.1,1033.6,965,1035.8,965z M1038.9,969.1c0-1.6-1.2-3-2.9-3c-1.7,0-2.8,1.4-2.8,3.1c0,1.6,1,3,2.8,3
					C1037.7,972.2,1038.9,970.7,1038.9,969.1z"/>
				<path d="M1050,973.1l-2.7-7.9h1.2l2.1,6.6h0l2.2-6.6h1.2l2.2,6.6h0l2.1-6.6h1.2l-2.7,7.9h-1.3l-2.1-6.4h0l-2.1,6.4H1050z"/>
				<path d="M1062.3,969.5c0.1,1.5,1.3,2.7,2.8,2.7c1.2,0,2.1-0.6,2.5-1.7l1,0.3c-0.5,1.5-1.9,2.4-3.5,2.4c-2.3,0-4-1.8-4-4.1
					c0-2.2,1.6-4.1,3.9-4.1c2.5,0,3.7,1.8,3.7,4.1c0,0.1,0,0.3,0,0.4H1062.3z M1067.6,968.5c-0.1-1.4-1.1-2.5-2.6-2.5
					c-1.4,0-2.5,1.1-2.7,2.5H1067.6z"/>
				<path d="M1081.2,968c0-1.3-0.7-1.9-2-1.9c-1.3,0-1.9,0.9-2.1,1.6l-1.1-0.2c0.1-0.7,1-2.4,3.2-2.4c1.7,0,2.5,0.8,2.9,1.6
					c0.2,0.4,0.2,1.1,0.2,1.3v5.1h-1.1v-1.4h0c-0.6,1-1.5,1.5-2.7,1.5c-1.6,0-2.7-1-2.7-2.3v-0.1c0-1.7,1.7-2.3,3.1-2.3h2.2V968z
					 M1079,969.5c-0.8,0-2,0.3-2,1.3c0,0.9,0.8,1.4,1.7,1.4c1.4,0,2.5-1,2.5-2.5v-0.3H1079z"/>
				<path d="M1086.7,966.7c0.6-1.2,1.6-1.7,2.6-1.7c0.1,0,0.3,0,0.4,0v1.2c-0.1,0-0.3,0-0.4,0c-1.9,0-2.5,1.5-2.5,3v3.9h-1.2v-7.9
					h1.1V966.7z"/>
				<path d="M1092.3,969.5c0.1,1.5,1.3,2.7,2.8,2.7c1.2,0,2.1-0.6,2.5-1.7l1,0.3c-0.5,1.5-1.9,2.4-3.5,2.4c-2.3,0-4-1.8-4-4.1
					c0-2.2,1.6-4.1,3.9-4.1c2.5,0,3.7,1.8,3.7,4.1c0,0.1,0,0.3,0,0.4H1092.3z M1097.5,968.5c-0.1-1.4-1.1-2.5-2.6-2.5
					c-1.4,0-2.5,1.1-2.7,2.5H1097.5z"/>
				<path d="M1107.2,968.5c0-1.4-0.7-2.4-2.2-2.4c-1.4,0-2.4,1.1-2.4,2.5v4.5h-1.2v-7.9h1.1v1.5c0.6-1.1,1.6-1.6,2.7-1.6
					c1.9,0,3,1.3,3,3.2v4.9h-1.2V968.5z"/>
				<path d="M1110.9,965.1c0.7-0.5,1.2-1.1,1.3-1.8c-0.1,0-0.2,0.1-0.4,0.1c-0.6,0-1-0.4-1-1c0-0.6,0.5-1.1,1-1.1
					c0.7,0,1.2,0.6,1.2,1.5v0.1c0,1-0.5,2-1.6,2.8L1110.9,965.1z"/>
				<path d="M1116.5,971.1v-4.9h-1.5v-1h1.5v-2.3h1.1v2.3h2v1h-2v4.8c0,0.7,0.4,1.1,1.3,1.1c0.3,0,0.5,0,0.7-0.1v1
					c-0.2,0.1-0.7,0.1-0.9,0.1C1117,973.2,1116.5,972.2,1116.5,971.1z"/>
				<path d="M1131.5,973.2c-1.5,0-2.4-0.7-3.1-1.8v5.5h-1.2v-11.8h1.1v1.7c0.6-1,1.6-1.9,3.1-1.9c2.3,0,3.7,2,3.7,4.1
					C1135.2,971.3,1133.7,973.2,1131.5,973.2z M1134,969.2c0-1.6-1-3.1-2.8-3.1c-1.6,0-2.8,1.5-2.8,3c0,1.6,1.2,3.1,2.8,3.1
					C1133,972.2,1134,970.8,1134,969.2z"/>
				<path d="M1139.2,961v12.1h-1.2V961H1139.2z"/>
				<path d="M1147.3,968c0-1.3-0.7-1.9-2-1.9c-1.3,0-1.9,0.9-2.1,1.6l-1.1-0.2c0.1-0.7,1-2.4,3.2-2.4c1.7,0,2.5,0.8,2.9,1.6
					c0.2,0.4,0.2,1.1,0.2,1.3v5.1h-1.1v-1.4h0c-0.6,1-1.5,1.5-2.7,1.5c-1.6,0-2.7-1-2.7-2.3v-0.1c0-1.7,1.7-2.3,3.1-2.3h2.2V968z
					 M1145.1,969.5c-0.8,0-2,0.3-2,1.3c0,0.9,0.8,1.4,1.7,1.4c1.4,0,2.5-1,2.5-2.5v-0.3H1145.1z"/>
				<path d="M1157.4,968.5c0-1.4-0.7-2.4-2.2-2.4c-1.4,0-2.4,1.1-2.4,2.5v4.5h-1.2v-7.9h1.1v1.5c0.6-1.1,1.6-1.6,2.7-1.6
					c1.9,0,3,1.3,3,3.2v4.9h-1.2V968.5z"/>
				<path d="M1167.6,968.5c0-1.4-0.7-2.4-2.2-2.4c-1.4,0-2.4,1.1-2.4,2.5v4.5h-1.2v-7.9h1.1v1.5c0.6-1.1,1.6-1.6,2.7-1.6
					c1.9,0,3,1.3,3,3.2v4.9h-1.2V968.5z"/>
				<path d="M1172.6,961.5c0.5,0,0.9,0.4,0.9,0.9c0,0.5-0.4,0.9-0.9,0.9c-0.5,0-0.9-0.4-0.9-0.9
					C1171.7,961.8,1172.1,961.5,1172.6,961.5z M1173.2,965.2v7.9h-1.2v-7.9H1173.2z"/>
				<path d="M1182.3,968.5c0-1.4-0.7-2.4-2.2-2.4c-1.4,0-2.4,1.1-2.4,2.5v4.5h-1.2v-7.9h1.1v1.5c0.6-1.1,1.6-1.6,2.7-1.6
					c1.9,0,3,1.3,3,3.2v4.9h-1.2V968.5z"/>
				<path d="M1192.9,971.3c-0.6,1-1.6,1.8-3.1,1.8c-2.3,0-3.7-1.9-3.7-4c0-2.1,1.5-4.1,3.7-4.1c1.5,0,2.5,0.9,3.1,1.8v-1.7h1.1v8
					c0,2.6-1.6,3.9-4,3.9c-2,0-3.5-1-3.9-2.7l1.1-0.4c0.2,0.9,1,2.1,2.9,2.1c1.5,0,2.8-0.8,2.8-2.9V971.3z M1192.9,969.1
					c0-1.6-1.2-3-2.9-3c-1.7,0-2.8,1.3-2.8,3.1c0,1.6,1,3,2.8,3C1191.7,972.1,1192.9,970.7,1192.9,969.1z"/>
				<path d="M981.1,988.9V984h-1.5v-1h1.5v-2.3h1.1v2.3h2v1h-2v4.8c0,0.7,0.4,1.1,1.3,1.1c0.3,0,0.5,0,0.7-0.1v1
					c-0.2,0.1-0.7,0.1-0.9,0.1C981.6,991,981.1,990.1,981.1,988.9z"/>
				<path d="M986.2,987c0-2.3,1.8-4.1,4.1-4.1c2.3,0,4.1,1.8,4.1,4.1c0,2.3-1.8,4.1-4.1,4.1C988,991.1,986.2,989.3,986.2,987z
					 M993.2,987c0-1.7-1.2-3.1-2.9-3.1c-1.7,0-2.9,1.4-2.9,3.1c0,1.7,1.2,3.1,2.9,3.1C992,990.1,993.2,988.7,993.2,987z"/>
				<path d="M1001.5,987c0-2.3,1.8-4.1,4.1-4.1c2.3,0,4.1,1.8,4.1,4.1c0,2.3-1.8,4.1-4.1,4.1C1003.3,991.1,1001.5,989.3,1001.5,987z
					 M1008.5,987c0-1.7-1.2-3.1-2.9-3.1s-2.9,1.4-2.9,3.1c0,1.7,1.2,3.1,2.9,3.1C1007.3,990.1,1008.5,988.7,1008.5,987z"/>
				<path d="M1011.2,983h1.3l2.7,6.7l2.8-6.7h1.2l-3.4,7.9h-1.2L1011.2,983z"/>
				<path d="M1021.9,987.3c0.1,1.5,1.3,2.7,2.8,2.7c1.2,0,2.1-0.6,2.5-1.7l1,0.3c-0.5,1.5-1.9,2.4-3.5,2.4c-2.3,0-4-1.8-4-4.1
					c0-2.2,1.6-4.1,3.9-4.1c2.5,0,3.7,1.8,3.7,4.1c0,0.1,0,0.3,0,0.4H1021.9z M1027.2,986.4c-0.1-1.4-1.1-2.5-2.6-2.5
					c-1.4,0-2.5,1.1-2.7,2.5H1027.2z"/>
				<path d="M1032.3,984.6c0.6-1.2,1.6-1.7,2.6-1.7c0.1,0,0.3,0,0.4,0v1.2c-0.1,0-0.3,0-0.4,0c-1.9,0-2.5,1.5-2.5,3v3.9h-1.2V983
					h1.1V984.6z"/>
				<path d="M1042.5,988.9V984h-1.5v-1h1.5v-2.3h1.1v2.3h2v1h-2v4.8c0,0.7,0.4,1.1,1.3,1.1c0.3,0,0.5,0,0.7-0.1v1
					c-0.2,0.1-0.7,0.1-0.9,0.1C1043,991,1042.5,990.1,1042.5,988.9z"/>
				<path d="M1054.1,986.3c0-1.4-0.7-2.4-2.2-2.4c-1.4,0-2.4,1.1-2.4,2.5v4.5h-1.2v-12.1h1.2v5.6c0.6-1,1.5-1.6,2.7-1.6
					c1.9,0,3,1.3,3,3.2v4.9h-1.2V986.3z"/>
				<path d="M1059.1,987.3c0.1,1.5,1.3,2.7,2.8,2.7c1.2,0,2.1-0.6,2.5-1.7l1,0.3c-0.5,1.5-1.9,2.4-3.5,2.4c-2.3,0-4-1.8-4-4.1
					c0-2.2,1.6-4.1,3.9-4.1c2.5,0,3.7,1.8,3.7,4.1c0,0.1,0,0.3,0,0.4H1059.1z M1064.3,986.4c-0.1-1.4-1.1-2.5-2.6-2.5
					c-1.4,0-2.5,1.1-2.7,2.5H1064.3z"/>
				<path d="M1078.8,986.3c0-1.4-0.7-2.4-2.2-2.4c-1.4,0-2.4,1.1-2.4,2.5v4.5h-1.2V983h1.1v1.5c0.6-1.1,1.6-1.6,2.7-1.6
					c1.9,0,3,1.3,3,3.2v4.9h-1.2V986.3z"/>
				<path d="M1083.9,987.3c0.1,1.5,1.3,2.7,2.8,2.7c1.2,0,2.1-0.6,2.5-1.7l1,0.3c-0.5,1.5-1.9,2.4-3.5,2.4c-2.3,0-4-1.8-4-4.1
					c0-2.2,1.6-4.1,3.9-4.1c2.5,0,3.7,1.8,3.7,4.1c0,0.1,0,0.3,0,0.4H1083.9z M1089.1,986.4c-0.1-1.4-1.1-2.5-2.6-2.5
					c-1.4,0-2.5,1.1-2.7,2.5H1089.1z"/>
				<path d="M1093.1,990.9h-1.3l3.1-4l-3-3.9h1.4l2.3,3.1l2.3-3.1h1.3l-3,3.9l3.1,4h-1.4l-2.5-3.2L1093.1,990.9z"/>
				<path d="M1102.3,988.9V984h-1.5v-1h1.5v-2.3h1.1v2.3h2v1h-2v4.8c0,0.7,0.4,1.1,1.3,1.1c0.3,0,0.5,0,0.7-0.1v1
					c-0.2,0.1-0.7,0.1-0.9,0.1C1102.8,991,1102.3,990.1,1102.3,988.9z"/>
				<path d="M1115.2,980.6l-2.8,1.7l-0.6-0.9l3.4-2h1.2v11.6h-1.2V980.6z"/>
				<path d="M1119.6,990.6c0-1.4,0.6-2.8,2.7-4.1l1.8-1.1c1.1-0.7,2-1.4,2-2.8c0-1.2-1.1-2.3-2.6-2.3c-1.3,0-2.1,0.8-2.4,1.5
					c-0.2,0.5-0.2,1-0.2,1.1l-1.2-0.2c0-1.6,1.4-3.6,3.9-3.6c2.2,0,3.8,1.6,3.8,3.4c0,1.6-0.9,2.6-2.5,3.6l-1.8,1.1
					c-1,0.6-1.9,1.4-2,2.5h6.4v1.1h-7.9V990.6z"/>
				<path d="M1140.7,986.3c0-1.3-0.6-2.4-2.1-2.4c-1.4,0-2.2,1.2-2.2,2.5v4.5h-1.2V983h1.1v1.4c0.6-1,1.4-1.5,2.6-1.5
					c1.2,0,2.1,0.5,2.5,1.6c0.7-1,1.5-1.6,2.8-1.6c1.9,0,2.9,1.3,2.9,3.2v4.9h-1.2v-4.6c0-1.3-0.6-2.4-2.1-2.4
					c-1.4,0-2.2,1.1-2.2,2.5v4.6h-1.1V986.3z"/>
				<path d="M1149.9,987c0-2.3,1.8-4.1,4.1-4.1c2.3,0,4.1,1.8,4.1,4.1c0,2.3-1.8,4.1-4.1,4.1C1151.7,991.1,1149.9,989.3,1149.9,987z
					 M1156.9,987c0-1.7-1.2-3.1-2.9-3.1c-1.7,0-2.9,1.4-2.9,3.1c0,1.7,1.2,3.1,2.9,3.1C1155.7,990.1,1156.9,988.7,1156.9,987z"/>
				<path d="M1166.6,986.3c0-1.4-0.7-2.4-2.2-2.4c-1.4,0-2.4,1.1-2.4,2.5v4.5h-1.2V983h1.1v1.5c0.6-1.1,1.6-1.6,2.7-1.6
					c1.9,0,3,1.3,3,3.2v4.9h-1.2V986.3z"/>
				<path d="M1171.5,988.9V984h-1.5v-1h1.5v-2.3h1.1v2.3h2v1h-2v4.8c0,0.7,0.4,1.1,1.3,1.1c0.3,0,0.5,0,0.7-0.1v1
					c-0.2,0.1-0.7,0.1-0.9,0.1C1172,991,1171.5,990.1,1171.5,988.9z"/>
				<path d="M1183.1,986.3c0-1.4-0.7-2.4-2.2-2.4c-1.4,0-2.4,1.1-2.4,2.5v4.5h-1.2v-12.1h1.2v5.6c0.6-1,1.5-1.6,2.7-1.6
					c1.9,0,3,1.3,3,3.2v4.9h-1.2V986.3z"/>
				<path d="M1189.9,991.1c-2.2,0-2.9-1.5-3-2.3l1.1-0.3c0.2,0.7,0.7,1.6,1.9,1.6c0.9,0,1.6-0.5,1.6-1.3c0-1-1-1.2-1.9-1.3
					c-1.3-0.2-2.6-0.7-2.6-2.2c0-1.5,1.4-2.4,2.7-2.4c2.1,0,2.8,1.4,2.9,2.2l-1.1,0.3c-0.1-0.5-0.6-1.4-1.8-1.4
					c-0.9,0-1.5,0.6-1.5,1.3c0,1,1.1,1.1,1.9,1.2c1.3,0.2,2.6,0.8,2.6,2.3C1192.7,990.1,1191.4,991.1,1189.9,991.1z"/>
			</g>
			<g>
				<g>
					<path class="st1" d="M836.9,845.2c0,71.2,56.3,129.2,126.9,132"/>
					<g>
						<polygon points="963.1,971.1 962.8,983.2 969,977.3 						"/>
					</g>
				</g>
			</g>
		</g>
		<g>
			<g>
				<g class="st2">
					<circle cx="495.1" cy="557.7" r="218"/>
				</g>
				<g>
					<path class="st3" d="M463.3,573c-6.8,0-12.6-4.1-13.4-10.6l3.9-0.8c0.7,4.5,4.1,7.7,9.5,7.7c5.2,0,9.4-2.9,9.4-7.3
						s-3.3-7.2-9.4-7.2h-3.9v-3.8h3.8c5.3,0,8.6-3.3,8.6-7c0-4-3-6.9-8.6-6.9c-5.3,0-8.4,3.2-9.1,7.3l-3.9-0.8
						c0.7-5.4,5.8-10.2,13-10.2c8.4,0,12.6,5.2,12.6,10.3c0,4.4-2.5,7.2-6.2,8.9v0c4.4,1.2,7.1,4.7,7.1,9.3
						C476.7,568,471.4,573,463.3,573z"/>
					<path class="st3" d="M482.5,553.4c0-9.6,5.5-19.9,16.2-19.9c10.6,0,16,10.1,16,19.7c0,9.6-5.4,19.9-16.2,19.9
						C487.9,573.1,482.5,563,482.5,553.4z M486.7,553.2c0,7,3.5,16.1,11.9,16.1c8.4,0,11.9-9,11.9-15.9c0-6.9-3.6-16.1-12-16.1
						C490.2,537.3,486.7,546.2,486.7,553.2z"/>
					<path class="st3" d="M523.9,559.2c-2.8,0-5.1-2.3-5.1-5.1c0-2.8,2.3-5.1,5.1-5.1c2.8,0,5.1,2.3,5.1,5.1
						C529,556.9,526.7,559.2,523.9,559.2z M523.9,550.9c-1.8,0-3.2,1.4-3.2,3.2c0,1.8,1.4,3.2,3.2,3.2c1.8,0,3.2-1.4,3.2-3.2
						C527.1,552.3,525.7,550.9,523.9,550.9z M536.4,549.2h2.3l-14.8,22.6h-2.3L536.4,549.2z M536.4,572c-2.8,0-5.1-2.3-5.1-5.1
						c0-2.8,2.3-5.1,5.1-5.1c2.8,0,5.1,2.3,5.1,5.1C541.5,569.7,539.3,572,536.4,572z M536.4,563.7c-1.8,0-3.2,1.4-3.2,3.2
						c0,1.8,1.4,3.2,3.2,3.2c1.8,0,3.2-1.4,3.2-3.2C539.6,565.1,538.2,563.7,536.4,563.7z"/>
				</g>
			</g>
			<g>
				<g>
					<path d="M97.5,186.1v11.6h-1.3l-7-9.9v9.9H88v-11.6h1.4l6.9,9.7v-9.7H97.5z"/>
					<path d="M100.6,193.8c0-2.3,1.8-4.1,4.1-4.1c2.3,0,4.1,1.8,4.1,4.1c0,2.3-1.8,4.1-4.1,4.1C102.4,197.9,100.6,196.1,100.6,193.8
						z M107.6,193.8c0-1.7-1.2-3.1-2.9-3.1c-1.7,0-2.9,1.4-2.9,3.1c0,1.7,1.2,3.1,2.9,3.1C106.4,196.9,107.6,195.5,107.6,193.8z"/>
					<path d="M111.3,199.5c0.7-0.5,1.2-1.1,1.3-1.8c-0.1,0-0.2,0.1-0.4,0.1c-0.6,0-1-0.4-1-1c0-0.6,0.5-1.1,1-1.1
						c0.7,0,1.2,0.6,1.2,1.5v0.1c0,1-0.5,2-1.6,2.8L111.3,199.5z"/>
					<path d="M124.7,197.9c-1.5,0-2.4-0.7-3.1-1.8v1.7h-1.1v-12.1h1.2v5.9c0.7-1,1.6-1.8,3.1-1.8c2.3,0,3.7,2,3.7,4.1
						C128.4,195.9,127,197.9,124.7,197.9z M127.2,193.8c0-1.6-1-3.1-2.8-3.1c-1.6,0-2.8,1.5-2.8,3c0,1.6,1.2,3.1,2.8,3.1
						C126.2,196.8,127.2,195.5,127.2,193.8z"/>
					<path d="M132.3,194.4c0,1.4,0.7,2.4,2.2,2.4c1.4,0,2.4-1.1,2.4-2.5v-4.5h1.1v7.9h-1.1v-1.5c-0.6,1.1-1.6,1.6-2.7,1.6
						c-1.9,0-3-1.3-3-3.2v-4.9h1.1V194.4z"/>
					<path d="M141.9,195.7v-4.9h-1.5v-1h1.5v-2.3h1.1v2.3h2v1h-2v4.8c0,0.7,0.4,1.1,1.3,1.1c0.3,0,0.5,0,0.7-0.1v1
						c-0.2,0.1-0.7,0.1-0.9,0.1C142.4,197.8,141.9,196.9,141.9,195.7z"/>
					<path d="M154.4,197.7l-2.7-7.9h1.2l2.1,6.6h0l2.2-6.6h1.2l2.2,6.6h0l2.1-6.6h1.2l-2.7,7.9h-1.3l-2.1-6.4h0l-2.1,6.4H154.4z"/>
					<path d="M166.7,194.1c0.1,1.5,1.3,2.7,2.8,2.7c1.2,0,2.1-0.6,2.5-1.7l1,0.3c-0.5,1.5-1.9,2.4-3.5,2.4c-2.3,0-4-1.8-4-4.1
						c0-2.2,1.6-4.1,3.9-4.1c2.5,0,3.7,1.8,3.7,4.1c0,0.1,0,0.3,0,0.4H166.7z M171.9,193.2c-0.1-1.4-1.1-2.5-2.6-2.5
						c-1.4,0-2.5,1.1-2.7,2.5H171.9z"/>
					<path d="M175.1,189.8c0.7-0.5,1.2-1.1,1.3-1.8c-0.1,0-0.2,0.1-0.4,0.1c-0.6,0-1-0.4-1-1c0-0.6,0.5-1.1,1-1.1
						c0.7,0,1.2,0.6,1.2,1.5v0.1c0,1-0.5,2-1.6,2.8L175.1,189.8z"/>
					<path d="M181,191.4c0.6-1.2,1.6-1.7,2.6-1.7c0.1,0,0.3,0,0.4,0v1.2c-0.1,0-0.3,0-0.4,0c-1.9,0-2.5,1.5-2.5,3v3.9h-1.2v-7.9h1.1
						V191.4z"/>
					<path d="M186.6,194.1c0.1,1.5,1.3,2.7,2.8,2.7c1.2,0,2.1-0.6,2.5-1.7l1,0.3c-0.5,1.5-1.9,2.4-3.5,2.4c-2.3,0-4-1.8-4-4.1
						c0-2.2,1.6-4.1,3.9-4.1c2.5,0,3.7,1.8,3.7,4.1c0,0.1,0,0.3,0,0.4H186.6z M191.8,193.2c-0.1-1.4-1.1-2.5-2.6-2.5
						c-1.4,0-2.5,1.1-2.7,2.5H191.8z"/>
					<path d="M204.9,197.9c-1.5,0-2.4-0.7-3.1-1.8v5.5h-1.2v-11.8h1.1v1.7c0.6-1,1.6-1.9,3.1-1.9c2.3,0,3.7,2,3.7,4.1
						C208.6,195.9,207.1,197.9,204.9,197.9z M207.4,193.8c0-1.6-1-3.1-2.8-3.1c-1.6,0-2.8,1.5-2.8,3c0,1.6,1.2,3.1,2.8,3.1
						C206.4,196.8,207.4,195.5,207.4,193.8z"/>
					<path d="M212.6,185.6v12.1h-1.2v-12.1H212.6z"/>
					<path d="M220.7,192.6c0-1.3-0.7-1.9-2-1.9c-1.3,0-1.9,0.9-2.1,1.6l-1.1-0.2c0.1-0.7,1-2.4,3.2-2.4c1.7,0,2.5,0.8,2.9,1.6
						c0.2,0.4,0.2,1.1,0.2,1.3v5.1h-1.1v-1.4h0c-0.6,1-1.5,1.5-2.7,1.5c-1.6,0-2.7-1-2.7-2.3v-0.1c0-1.7,1.7-2.3,3.1-2.3h2.2V192.6z
						 M218.5,194.1c-0.8,0-2,0.3-2,1.3c0,0.9,0.8,1.4,1.7,1.4c1.4,0,2.5-1,2.5-2.5v-0.3H218.5z"/>
					<path d="M230.8,193.1c0-1.4-0.7-2.4-2.2-2.4c-1.4,0-2.4,1.1-2.4,2.5v4.5h-1.2v-7.9h1.1v1.5c0.6-1.1,1.6-1.6,2.7-1.6
						c1.9,0,3,1.3,3,3.2v4.9h-1.2V193.1z"/>
					<path d="M241,193.1c0-1.4-0.7-2.4-2.2-2.4c-1.4,0-2.4,1.1-2.4,2.5v4.5h-1.2v-7.9h1.1v1.5c0.6-1.1,1.6-1.6,2.7-1.6
						c1.9,0,3,1.3,3,3.2v4.9H241V193.1z"/>
					<path d="M246,186.1c0.5,0,0.9,0.4,0.9,0.9c0,0.5-0.4,0.9-0.9,0.9c-0.5,0-0.9-0.4-0.9-0.9C245.1,186.5,245.5,186.1,246,186.1z
						 M246.6,189.8v7.9h-1.2v-7.9H246.6z"/>
					<path d="M255.6,193.1c0-1.4-0.7-2.4-2.2-2.4c-1.4,0-2.4,1.1-2.4,2.5v4.5h-1.2v-7.9h1.1v1.5c0.6-1.1,1.6-1.6,2.7-1.6
						c1.9,0,3,1.3,3,3.2v4.9h-1.2V193.1z"/>
					<path d="M266.3,196c-0.6,1-1.6,1.8-3.1,1.8c-2.3,0-3.7-1.9-3.7-4c0-2.1,1.5-4.1,3.7-4.1c1.5,0,2.5,0.9,3.1,1.8v-1.7h1.1v8
						c0,2.6-1.6,3.9-4,3.9c-2,0-3.5-1-3.9-2.7l1.1-0.4c0.2,0.9,1,2.1,2.9,2.1c1.5,0,2.8-0.8,2.8-2.9V196z M266.3,193.7
						c0-1.6-1.2-3-2.9-3c-1.7,0-2.8,1.3-2.8,3.1c0,1.6,1,3,2.8,3C265.1,196.8,266.3,195.3,266.3,193.7z"/>
					<path d="M276.2,195.7v-4.9h-1.5v-1h1.5v-2.3h1.1v2.3h2v1h-2v4.8c0,0.7,0.4,1.1,1.3,1.1c0.3,0,0.5,0,0.7-0.1v1
						c-0.2,0.1-0.7,0.1-0.9,0.1C276.7,197.8,276.2,196.9,276.2,195.7z"/>
					<path d="M281.3,193.8c0-2.3,1.8-4.1,4.1-4.1c2.3,0,4.1,1.8,4.1,4.1c0,2.3-1.8,4.1-4.1,4.1C283.1,197.9,281.3,196.1,281.3,193.8
						z M288.3,193.8c0-1.7-1.2-3.1-2.9-3.1c-1.7,0-2.9,1.4-2.9,3.1c0,1.7,1.2,3.1,2.9,3.1C287.1,196.9,288.3,195.5,288.3,193.8z"/>
					<path d="M98.3,211.6c0-2.3,1.8-4.1,4.1-4.1c2.3,0,4.1,1.8,4.1,4.1c0,2.3-1.8,4.1-4.1,4.1C100.1,215.7,98.3,213.9,98.3,211.6z
						 M105.3,211.6c0-1.7-1.2-3.1-2.9-3.1c-1.7,0-2.9,1.4-2.9,3.1c0,1.7,1.2,3.1,2.9,3.1C104.1,214.7,105.3,213.3,105.3,211.6z"/>
					<path d="M108,207.7h1.3l2.7,6.7l2.8-6.7h1.2l-3.4,7.9h-1.2L108,207.7z"/>
					<path d="M118.7,212c0.1,1.5,1.3,2.7,2.8,2.7c1.2,0,2.1-0.6,2.5-1.7l1,0.3c-0.5,1.5-1.9,2.4-3.5,2.4c-2.3,0-4-1.8-4-4.1
						c0-2.2,1.6-4.1,3.9-4.1c2.5,0,3.7,1.8,3.7,4.1c0,0.1,0,0.3,0,0.4H118.7z M124,211c-0.1-1.4-1.1-2.5-2.6-2.5
						c-1.4,0-2.5,1.1-2.7,2.5H124z"/>
					<path d="M129,209.2c0.6-1.2,1.6-1.7,2.6-1.7c0.1,0,0.3,0,0.4,0v1.2c-0.1,0-0.3,0-0.4,0c-1.9,0-2.5,1.5-2.5,3v3.9h-1.2v-7.9h1.1
						V209.2z"/>
					<path d="M139.3,213.5v-4.9h-1.5v-1h1.5v-2.3h1.1v2.3h2v1h-2v4.8c0,0.7,0.4,1.1,1.3,1.1c0.3,0,0.5,0,0.7-0.1v1
						c-0.2,0.1-0.7,0.1-0.9,0.1C139.8,215.6,139.3,214.7,139.3,213.5z"/>
					<path d="M150.8,211c0-1.4-0.7-2.4-2.2-2.4c-1.4,0-2.4,1.1-2.4,2.5v4.5h-1.2v-12.1h1.2v5.6c0.6-1,1.5-1.6,2.7-1.6
						c1.9,0,3,1.3,3,3.2v4.9h-1.2V211z"/>
					<path d="M155.9,212c0.1,1.5,1.3,2.7,2.8,2.7c1.2,0,2.1-0.6,2.5-1.7l1,0.3c-0.5,1.5-1.9,2.4-3.5,2.4c-2.3,0-4-1.8-4-4.1
						c0-2.2,1.6-4.1,3.9-4.1c2.5,0,3.7,1.8,3.7,4.1c0,0.1,0,0.3,0,0.4H155.9z M161.1,211c-0.1-1.4-1.1-2.5-2.6-2.5
						c-1.4,0-2.5,1.1-2.7,2.5H161.1z"/>
					<path d="M175.6,211c0-1.4-0.7-2.4-2.2-2.4c-1.4,0-2.4,1.1-2.4,2.5v4.5h-1.2v-7.9h1.1v1.5c0.6-1.1,1.6-1.6,2.7-1.6
						c1.9,0,3,1.3,3,3.2v4.9h-1.2V211z"/>
					<path d="M180.6,212c0.1,1.5,1.3,2.7,2.8,2.7c1.2,0,2.1-0.6,2.5-1.7l1,0.3c-0.5,1.5-1.9,2.4-3.5,2.4c-2.3,0-4-1.8-4-4.1
						c0-2.2,1.6-4.1,3.9-4.1c2.5,0,3.7,1.8,3.7,4.1c0,0.1,0,0.3,0,0.4H180.6z M185.9,211c-0.1-1.4-1.1-2.5-2.6-2.5
						c-1.4,0-2.5,1.1-2.7,2.5H185.9z"/>
					<path d="M189.9,215.6h-1.3l3.1-4l-3-3.9h1.4l2.3,3.1l2.3-3.1h1.3l-3,3.9l3.1,4h-1.4l-2.5-3.2L189.9,215.6z"/>
					<path d="M199,213.5v-4.9h-1.5v-1h1.5v-2.3h1.1v2.3h2v1h-2v4.8c0,0.7,0.4,1.1,1.3,1.1c0.3,0,0.5,0,0.7-0.1v1
						c-0.2,0.1-0.7,0.1-0.9,0.1C199.6,215.6,199,214.7,199,213.5z"/>
					<path d="M212,205.2l-2.8,1.7l-0.5-0.9l3.4-2h1.2v11.6H212V205.2z"/>
					<path d="M216.4,215.2c0-1.4,0.6-2.8,2.7-4.1l1.8-1.1c1.1-0.7,2-1.4,2-2.8c0-1.2-1.1-2.3-2.6-2.3c-1.3,0-2.1,0.8-2.4,1.5
						c-0.2,0.5-0.2,1-0.2,1.1l-1.2-0.2c0-1.6,1.4-3.6,3.9-3.6c2.2,0,3.8,1.6,3.8,3.4c0,1.6-0.9,2.6-2.5,3.6l-1.8,1.1
						c-1,0.6-1.9,1.4-2,2.5h6.4v1.1h-7.9V215.2z"/>
					<path d="M237.5,210.9c0-1.3-0.6-2.4-2-2.4c-1.4,0-2.2,1.2-2.2,2.5v4.5h-1.2v-7.9h1.1v1.4c0.6-1,1.4-1.5,2.6-1.5
						c1.2,0,2.1,0.5,2.5,1.6c0.7-1,1.5-1.6,2.8-1.6c1.9,0,2.9,1.3,2.9,3.2v4.9h-1.2V211c0-1.3-0.6-2.4-2-2.4c-1.4,0-2.2,1.1-2.2,2.5
						v4.6h-1.1V210.9z"/>
					<path d="M246.7,211.6c0-2.3,1.8-4.1,4.1-4.1c2.3,0,4.1,1.8,4.1,4.1c0,2.3-1.8,4.1-4.1,4.1C248.5,215.7,246.7,213.9,246.7,211.6
						z M253.7,211.6c0-1.7-1.2-3.1-2.9-3.1c-1.7,0-2.9,1.4-2.9,3.1c0,1.7,1.2,3.1,2.9,3.1C252.5,214.7,253.7,213.3,253.7,211.6z"/>
					<path d="M263.4,211c0-1.4-0.7-2.4-2.2-2.4c-1.4,0-2.4,1.1-2.4,2.5v4.5h-1.2v-7.9h1.1v1.5c0.6-1.1,1.6-1.6,2.7-1.6
						c1.9,0,3,1.3,3,3.2v4.9h-1.2V211z"/>
					<path d="M268.3,213.5v-4.9h-1.5v-1h1.5v-2.3h1.1v2.3h2v1h-2v4.8c0,0.7,0.4,1.1,1.3,1.1c0.3,0,0.5,0,0.7-0.1v1
						c-0.2,0.1-0.7,0.1-0.9,0.1C268.8,215.6,268.3,214.7,268.3,213.5z"/>
					<path d="M279.9,211c0-1.4-0.7-2.4-2.2-2.4c-1.4,0-2.4,1.1-2.4,2.5v4.5h-1.2v-12.1h1.2v5.6c0.6-1,1.5-1.6,2.7-1.6
						c1.9,0,3,1.3,3,3.2v4.9h-1.2V211z"/>
					<path d="M286.7,215.7c-2.2,0-2.9-1.5-3-2.3l1.1-0.3c0.2,0.7,0.7,1.6,1.9,1.6c0.9,0,1.6-0.5,1.6-1.3c0-1-1-1.2-1.9-1.3
						c-1.3-0.2-2.6-0.7-2.6-2.2c0-1.5,1.4-2.4,2.7-2.4c2.1,0,2.8,1.4,2.9,2.2l-1.1,0.3c-0.1-0.5-0.6-1.4-1.8-1.4
						c-0.9,0-1.5,0.6-1.5,1.3c0,1,1.1,1.1,1.9,1.2c1.3,0.2,2.6,0.8,2.6,2.3C289.5,214.8,288.2,215.7,286.7,215.7z"/>
				</g>
				<g>
					<g>
						<path class="st1" d="M435.7,332.7c0-71.2-56.3-129.2-126.9-132"/>
						<g>
							<polygon points="309.5,206.8 309.8,194.7 303.6,200.6 							"/>
						</g>
					</g>
				</g>
			</g>
		</g>
		<g>
			<g>
				<circle class="st4" cx="687.1" cy="350.9" r="130.8"/>
			</g>
			<g>
				<path class="st3" d="M659.7,331.4l-9.3,5.5l-1.8-3.1l11.2-6.8h4v38.8h-4.1V331.4z"/>
				<path class="st3" d="M684.9,366.2c-6.8,0-12.6-4.1-13.4-10.6l3.9-0.8c0.7,4.5,4.1,7.7,9.5,7.7c5.2,0,9.4-2.9,9.4-7.3
					c0-4.4-3.3-7.2-9.4-7.2H681v-3.8h3.8c5.3,0,8.6-3.3,8.6-7c0-4-3-6.9-8.6-6.9c-5.3,0-8.4,3.2-9.1,7.3l-3.9-0.8
					c0.7-5.4,5.8-10.2,13-10.2c8.4,0,12.6,5.2,12.6,10.3c0,4.4-2.5,7.2-6.2,8.9v0c4.4,1.2,7.1,4.7,7.1,9.3
					C698.3,361.2,693,366.2,684.9,366.2z"/>
				<path class="st3" d="M707.5,352.4c-2.8,0-5.1-2.3-5.1-5.1c0-2.8,2.3-5.1,5.1-5.1c2.8,0,5.1,2.3,5.1,5.1
					C712.6,350.1,710.3,352.4,707.5,352.4z M707.5,344.1c-1.8,0-3.2,1.4-3.2,3.2c0,1.8,1.4,3.2,3.2,3.2c1.8,0,3.2-1.4,3.2-3.2
					C710.7,345.5,709.2,344.1,707.5,344.1z M719.9,342.4h2.3L707.5,365h-2.3L719.9,342.4z M720,365.2c-2.8,0-5.1-2.3-5.1-5.1
					c0-2.8,2.3-5.1,5.1-5.1c2.8,0,5.1,2.3,5.1,5.1C725.1,362.9,722.8,365.2,720,365.2z M720,356.9c-1.8,0-3.2,1.4-3.2,3.2
					c0,1.8,1.4,3.2,3.2,3.2c1.8,0,3.2-1.4,3.2-3.2C723.2,358.3,721.8,356.9,720,356.9z"/>
			</g>
			<g>
				<path class="st4" d="M356.6,59.8l-4.5,6.7v4.9h-1.2v-4.9l-4.5-6.7h1.5l3.7,5.6l3.7-5.6H356.6z"/>
				<path class="st4" d="M357.8,67.8c0.1,1.5,1.3,2.7,2.8,2.7c1.2,0,2.1-0.6,2.5-1.7l1,0.3c-0.5,1.5-1.9,2.4-3.5,2.4
					c-2.3,0-4-1.8-4-4.1c0-2.2,1.6-4.1,3.9-4.1c2.5,0,3.7,1.8,3.7,4.1c0,0.1,0,0.3,0,0.4H357.8z M363.1,66.8
					c-0.1-1.4-1.1-2.5-2.6-2.5c-1.4,0-2.5,1.1-2.7,2.5H363.1z"/>
				<path class="st4" d="M369.4,71.6c-2.2,0-2.9-1.5-3-2.3l1.1-0.3c0.2,0.7,0.7,1.6,1.9,1.6c0.9,0,1.6-0.5,1.6-1.3
					c0-1-1-1.2-1.9-1.3c-1.3-0.2-2.6-0.7-2.6-2.2c0-1.5,1.4-2.4,2.7-2.4c2.1,0,2.8,1.4,2.9,2.2l-1.1,0.3c-0.1-0.5-0.6-1.4-1.8-1.4
					c-0.9,0-1.5,0.6-1.5,1.3c0,1,1.1,1.1,1.9,1.2c1.3,0.2,2.6,0.8,2.6,2.3C372.2,70.6,371,71.6,369.4,71.6z"/>
				<path class="st4" d="M374.8,73.2c0.7-0.5,1.2-1.1,1.3-1.8c-0.1,0-0.2,0.1-0.4,0.1c-0.6,0-1-0.4-1-1c0-0.6,0.5-1.1,1-1.1
					c0.7,0,1.2,0.6,1.2,1.5v0.1c0,1-0.5,2-1.6,2.8L374.8,73.2z"/>
				<path class="st4" d="M385.7,71.4l-2.7-7.9h1.2l2.1,6.6h0l2.2-6.6h1.2l2.2,6.6h0l2.1-6.6h1.2l-2.7,7.9h-1.3l-2.1-6.4h0l-2.1,6.4
					H385.7z"/>
				<path class="st4" d="M398,67.8c0.1,1.5,1.3,2.7,2.8,2.7c1.2,0,2.1-0.6,2.5-1.7l1,0.3c-0.5,1.5-1.9,2.4-3.5,2.4
					c-2.3,0-4-1.8-4-4.1c0-2.2,1.6-4.1,3.9-4.1c2.5,0,3.7,1.8,3.7,4.1c0,0.1,0,0.3,0,0.4H398z M403.3,66.8c-0.1-1.4-1.1-2.5-2.6-2.5
					c-1.4,0-2.5,1.1-2.7,2.5H403.3z"/>
				<path class="st4" d="M417.8,66.8c0-1.4-0.7-2.4-2.2-2.4c-1.4,0-2.4,1.1-2.4,2.5v4.5h-1.2V59.3h1.2v5.6c0.6-1,1.5-1.6,2.7-1.6
					c1.9,0,3,1.3,3,3.2v4.9h-1.2V66.8z"/>
				<path class="st4" d="M427,66.3c0-1.3-0.7-1.9-2-1.9c-1.3,0-1.9,0.9-2.1,1.6l-1.1-0.2c0.1-0.7,1-2.4,3.2-2.4
					c1.7,0,2.5,0.8,2.9,1.6c0.2,0.4,0.2,1.1,0.2,1.3v5.1H427V70h0c-0.6,1-1.5,1.5-2.7,1.5c-1.6,0-2.7-1-2.7-2.3v-0.1
					c0-1.7,1.7-2.3,3.1-2.3h2.2V66.3z M424.8,67.8c-0.8,0-2,0.3-2,1.3c0,0.9,0.8,1.4,1.7,1.4c1.4,0,2.5-1,2.5-2.5v-0.3H424.8z"/>
				<path class="st4" d="M430.2,63.5h1.3l2.7,6.7l2.8-6.7h1.2l-3.4,7.9h-1.2L430.2,63.5z"/>
				<path class="st4" d="M440.9,67.8c0.1,1.5,1.3,2.7,2.8,2.7c1.2,0,2.1-0.6,2.5-1.7l1,0.3c-0.5,1.5-1.9,2.4-3.5,2.4
					c-2.3,0-4-1.8-4-4.1c0-2.2,1.6-4.1,3.9-4.1c2.5,0,3.7,1.8,3.7,4.1c0,0.1,0,0.3,0,0.4H440.9z M446.2,66.8
					c-0.1-1.4-1.1-2.5-2.6-2.5c-1.4,0-2.5,1.1-2.7,2.5H446.2z"/>
				<path class="st4" d="M455.5,59.8c0.5,0,0.9,0.4,0.9,0.9c0,0.5-0.4,0.9-0.9,0.9c-0.5,0-0.9-0.4-0.9-0.9
					C454.7,60.2,455.1,59.8,455.5,59.8z M456.1,63.5v7.9H455v-7.9H456.1z"/>
				<path class="st4" d="M465.2,66.8c0-1.4-0.7-2.4-2.2-2.4c-1.4,0-2.4,1.1-2.4,2.5v4.5h-1.2v-7.9h1.1v1.5c0.6-1.1,1.6-1.6,2.7-1.6
					c1.9,0,3,1.3,3,3.2v4.9h-1.2V66.8z"/>
				<path class="st4" d="M470.1,69.4v-4.9h-1.5v-1h1.5v-2.3h1.1v2.3h2v1h-2v4.8c0,0.7,0.4,1.1,1.3,1.1c0.3,0,0.5,0,0.7-0.1v1
					c-0.2,0.1-0.7,0.1-0.9,0.1C470.6,71.5,470.1,70.5,470.1,69.4z"/>
				<path class="st4" d="M477.1,65.1c0.6-1.2,1.6-1.7,2.6-1.7c0.1,0,0.3,0,0.4,0v1.2c-0.1,0-0.3,0-0.4,0c-1.9,0-2.5,1.5-2.5,3v3.9
					H476v-7.9h1.1V65.1z"/>
				<path class="st4" d="M481.5,67.5c0-2.3,1.8-4.1,4.1-4.1c2.3,0,4.1,1.8,4.1,4.1c0,2.3-1.8,4.1-4.1,4.1
					C483.3,71.6,481.5,69.7,481.5,67.5z M488.5,67.5c0-1.7-1.2-3.1-2.9-3.1c-1.7,0-2.9,1.4-2.9,3.1c0,1.7,1.2,3.1,2.9,3.1
					C487.3,70.5,488.5,69.1,488.5,67.5z"/>
				<path class="st4" d="M495.6,63.4c1.5,0,2.4,0.9,3.1,1.8v-5.8h1.1v12.1h-1.1v-1.7c-0.6,1-1.6,1.8-3.1,1.8c-2.3,0-3.7-1.9-3.7-4.1
					C491.9,65.4,493.4,63.4,495.6,63.4z M498.7,67.4c0-1.6-1.2-3-2.9-3c-1.7,0-2.8,1.4-2.8,3.1c0,1.6,1,3,2.8,3
					C497.5,70.5,498.7,69.1,498.7,67.4z"/>
				<path class="st4" d="M504.3,68.1c0,1.4,0.7,2.4,2.2,2.4c1.4,0,2.4-1.1,2.4-2.5v-4.5h1.1v7.9h-1.1V70c-0.6,1.1-1.6,1.6-2.7,1.6
					c-1.9,0-3-1.3-3-3.2v-4.9h1.1V68.1z"/>
				<path class="st4" d="M516.8,70.5c1.8,0,2.4-1.3,2.6-1.9l1.1,0.4c-0.4,1.2-1.7,2.6-3.7,2.6c-2.3,0-4-1.7-4-4.1
					c0-2.4,1.9-4.1,4.1-4.1c1.8,0,3.3,1.2,3.6,2.5l-1.1,0.3c-0.2-0.6-1-1.8-2.6-1.8c-1.7,0-2.9,1.4-2.9,3S515,70.5,516.8,70.5z"/>
				<path class="st4" d="M523.8,67.8c0.1,1.5,1.3,2.7,2.8,2.7c1.2,0,2.1-0.6,2.5-1.7l1,0.3c-0.5,1.5-1.9,2.4-3.5,2.4
					c-2.3,0-4-1.8-4-4.1c0-2.2,1.6-4.1,3.9-4.1c2.5,0,3.7,1.8,3.7,4.1c0,0.1,0,0.3,0,0.4H523.8z M529.1,66.8
					c-0.1-1.4-1.1-2.5-2.6-2.5c-1.4,0-2.5,1.1-2.7,2.5H529.1z"/>
				<path class="st4" d="M536.1,63.4c1.5,0,2.4,0.9,3.1,1.8v-5.8h1.1v12.1h-1.1v-1.7c-0.6,1-1.6,1.8-3.1,1.8c-2.3,0-3.7-1.9-3.7-4.1
					C532.4,65.4,533.9,63.4,536.1,63.4z M539.2,67.4c0-1.6-1.2-3-2.9-3c-1.7,0-2.8,1.4-2.8,3.1c0,1.6,1,3,2.8,3
					C538.1,70.5,539.2,69.1,539.2,67.4z"/>
				<path class="st4" d="M435,84.6c0-1.4-0.7-2.4-2.2-2.4c-1.4,0-2.4,1.1-2.4,2.5v4.5h-1.2v-7.9h1.1v1.5c0.6-1.1,1.6-1.6,2.7-1.6
					c1.9,0,3,1.3,3,3.2v4.9H435V84.6z"/>
				<path class="st4" d="M440,85.6c0.1,1.5,1.3,2.7,2.8,2.7c1.2,0,2.1-0.6,2.5-1.7l1,0.3c-0.5,1.5-1.9,2.4-3.5,2.4
					c-2.3,0-4-1.8-4-4.1c0-2.2,1.6-4.1,3.9-4.1c2.5,0,3.7,1.8,3.7,4.1c0,0.1,0,0.3,0,0.4H440z M445.2,84.7c-0.1-1.4-1.1-2.5-2.6-2.5
					c-1.4,0-2.5,1.1-2.7,2.5H445.2z"/>
				<path class="st4" d="M450.7,89.3l-2.7-7.9h1.2l2.1,6.6h0l2.2-6.6h1.2l2.2,6.6h0l2.1-6.6h1.2l-2.7,7.9h-1.3l-2.1-6.4h0l-2.1,6.4
					H450.7z"/>
				<path class="st4" d="M472.9,84.6c0-1.3-0.6-2.4-2-2.4c-1.4,0-2.2,1.2-2.2,2.5v4.5h-1.2v-7.9h1.1v1.4c0.6-1,1.4-1.5,2.6-1.5
					c1.2,0,2.1,0.5,2.5,1.6c0.7-1,1.5-1.6,2.8-1.6c1.9,0,2.9,1.3,2.9,3.2v4.9h-1.2v-4.6c0-1.3-0.6-2.4-2-2.4c-1.4,0-2.2,1.1-2.2,2.5
					v4.6h-1.1V84.6z"/>
				<path class="st4" d="M483.3,85.6c0.1,1.5,1.3,2.7,2.8,2.7c1.2,0,2.1-0.6,2.5-1.7l1,0.3c-0.5,1.5-1.9,2.4-3.5,2.4
					c-2.3,0-4-1.8-4-4.1c0-2.2,1.6-4.1,3.9-4.1c2.5,0,3.7,1.8,3.7,4.1c0,0.1,0,0.3,0,0.4H483.3z M488.6,84.7
					c-0.1-1.4-1.1-2.5-2.6-2.5c-1.4,0-2.5,1.1-2.7,2.5H488.6z"/>
				<path class="st4" d="M497.2,84.1c0-1.3-0.7-1.9-2-1.9c-1.3,0-1.9,0.9-2.1,1.6l-1.1-0.2c0.1-0.7,1-2.4,3.2-2.4
					c1.7,0,2.5,0.8,2.9,1.6c0.2,0.4,0.2,1.1,0.2,1.3v5.1h-1.1v-1.4h0c-0.6,1-1.5,1.5-2.7,1.5c-1.6,0-2.7-1-2.7-2.3V87
					c0-1.7,1.7-2.3,3.1-2.3h2.2V84.1z M495,85.6c-0.8,0-2,0.3-2,1.3c0,0.9,0.8,1.4,1.7,1.4c1.4,0,2.5-1,2.5-2.5v-0.3H495z"/>
				<path class="st4" d="M504.1,89.4c-2.2,0-2.9-1.5-3-2.3l1.1-0.3c0.2,0.7,0.7,1.6,1.9,1.6c0.9,0,1.6-0.5,1.6-1.3
					c0-1-1-1.2-1.9-1.3c-1.3-0.2-2.6-0.7-2.6-2.2c0-1.5,1.4-2.4,2.7-2.4c2.1,0,2.8,1.4,2.9,2.2l-1.1,0.3c-0.1-0.5-0.6-1.4-1.8-1.4
					c-0.9,0-1.5,0.6-1.5,1.3c0,1,1.1,1.1,1.9,1.2c1.3,0.2,2.6,0.8,2.6,2.3C506.9,88.5,505.6,89.4,504.1,89.4z"/>
				<path class="st4" d="M510.7,85.9c0,1.4,0.7,2.4,2.2,2.4c1.4,0,2.4-1.1,2.4-2.5v-4.5h1.1v7.9h-1.1v-1.5c-0.6,1.1-1.6,1.6-2.7,1.6
					c-1.9,0-3-1.3-3-3.2v-4.9h1.1V85.9z"/>
				<path class="st4" d="M521,82.9c0.6-1.2,1.6-1.7,2.6-1.7c0.1,0,0.3,0,0.4,0v1.2c-0.1,0-0.3,0-0.4,0c-1.9,0-2.5,1.5-2.5,3v3.9
					h-1.2v-7.9h1.1V82.9z"/>
				<path class="st4" d="M526.5,85.6c0.1,1.5,1.3,2.7,2.8,2.7c1.2,0,2.1-0.6,2.5-1.7l1,0.3c-0.5,1.5-1.9,2.4-3.5,2.4
					c-2.3,0-4-1.8-4-4.1c0-2.2,1.6-4.1,3.9-4.1c2.5,0,3.7,1.8,3.7,4.1c0,0.1,0,0.3,0,0.4H526.5z M531.8,84.7
					c-0.1-1.4-1.1-2.5-2.6-2.5c-1.4,0-2.5,1.1-2.7,2.5H531.8z"/>
				<path class="st4" d="M538.1,89.4c-2.2,0-2.9-1.5-3-2.3l1.1-0.3c0.2,0.7,0.7,1.6,1.9,1.6c0.9,0,1.6-0.5,1.6-1.3
					c0-1-1-1.2-1.9-1.3c-1.3-0.2-2.6-0.7-2.6-2.2c0-1.5,1.4-2.4,2.7-2.4c2.1,0,2.8,1.4,2.9,2.2l-1.1,0.3c-0.1-0.5-0.6-1.4-1.8-1.4
					c-0.9,0-1.5,0.6-1.5,1.3c0,1,1.1,1.1,1.9,1.2c1.3,0.2,2.6,0.8,2.6,2.3C540.9,88.5,539.6,89.4,538.1,89.4z"/>
			</g>
			<g>
				<g>
					<path class="st5" d="M688.3,207.6c0-71.2-56.3-129.2-126.9-132"/>
					<g>
						<polygon class="st4" points="562.1,81.7 562.5,69.6 556.2,75.5 						"/>
					</g>
				</g>
			</g>
		</g>
	</g>
</g>
</svg>
