<?xml version="1.0" encoding="utf-8"?>
<!-- Generator: Adobe Illustrator 21.1.0, SVG Export Plug-In . SVG Version: 6.00 Build 0)  -->
<svg version="1.1" id="graphTip" xmlns="http://www.w3.org/2000/svg" xmlns:xlink="http://www.w3.org/1999/xlink" x="0px" y="0px"
	 viewBox="0 0 1500 1053" style="enable-background:new 0 0 1500 1053;" xml:space="preserve">
<style type="text/css">
	.st0-tip{fill:#F6F6F8;}
	.st1-tip{fill:#F76C6C;}
	.st2-tip{fill:#0000FF;}
	.st3-tip{fill:#FFFFFF;}
</style>
<g id="chartTitleTip">
	<g>
		<path d="M105,148.6V135h-5v-1.5h11.6v1.5h-5v13.6H105z"/>
		<path d="M114.5,133.5c0.6,0,1.1,0.5,1.1,1.1c0,0.6-0.5,1.1-1.1,1.1c-0.6,0-1.1-0.5-1.1-1.1C113.4,134,113.9,133.5,114.5,133.5z
			 M115.2,138.3v10.3h-1.5v-10.3H115.2z"/>
		<path d="M124.1,148.7c-1.9,0-3.1-1-4-2.3v7.2h-1.5v-15.3h1.5v2.2c0.8-1.3,2-2.4,4-2.4c2.9,0,4.8,2.6,4.8,5.3
			C128.9,146.2,127,148.7,124.1,148.7z M127.4,143.5c0-2.1-1.3-4-3.6-4c-2.1,0-3.7,1.9-3.7,3.9c0,2.1,1.5,4,3.7,4
			C126,147.4,127.4,145.7,127.4,143.5z"/>
		<path d="M158.8,142.1c-0.7-2.1-3.1-6.1-8.9-6.1c-5.9,0-10.1,4.9-10.1,10.6c0,5.9,3.9,10.7,10.1,10.7c4.6,0,8.8-2.8,9.1-7.7h-10.8
			v-2.5h13.7v1c0,6.5-4.5,11.8-12.1,11.8c-7.8,0-12.9-5.7-12.9-13.1c0-7.4,5.6-13.2,13-13.2c6.3,0,10,3.6,11.4,7.7L158.8,142.1z"/>
		<path d="M167.7,151.6c0.2,3.4,2.9,6,6.3,6c2.6,0,4.6-1.3,5.4-3.8l2.3,0.7c-1.1,3.4-4.2,5.3-7.7,5.3c-5.1,0-8.9-4.1-8.9-9.1
			c0-4.8,3.6-9.1,8.6-9.1c5.4,0,8.3,3.9,8.3,9c0,0.3,0,0.6,0,0.9H167.7z M179.3,149.4c-0.3-3.2-2.3-5.5-5.7-5.5
			c-3.1,0-5.5,2.5-5.9,5.5H179.3z"/>
		<path d="M187.2,155v-10.8h-3.3V142h3.3v-5.1h2.5v5.1h4.4v2.3h-4.4v10.7c0,1.6,0.9,2.5,2.9,2.5c0.6,0,1.2,0,1.6-0.1v2.1
			c-0.5,0.2-1.5,0.3-2,0.3C188.3,159.7,187.2,157.6,187.2,155z"/>
		<path d="M218.3,148.2c0-2.8-1.5-4.3-4.5-4.3c-3,0-4.3,1.9-4.6,3.6l-2.5-0.5c0.1-1.5,2.1-5.3,7.1-5.3c3.7,0,5.6,1.7,6.4,3.6
			c0.4,1,0.5,2.3,0.5,2.9v11.4h-2.5v-3.1h0c-1.4,2.2-3.3,3.4-5.9,3.4c-3.6,0-5.9-2.2-5.9-5.2v-0.2c0-3.8,3.8-5.1,7-5.1h4.9V148.2z
			 M213.4,151.5c-1.9,0-4.3,0.6-4.3,3c0,2,1.7,3.1,3.8,3.1c3.1,0,5.5-2.2,5.5-5.4v-0.6H213.4z"/>
		<path d="M243.3,157.6c3.9,0,5.4-2.9,5.9-4.2l2.4,0.8c-0.8,2.6-3.7,5.7-8.3,5.7c-5.1,0-9-3.8-9-9c0-5.3,4.1-9.2,9.1-9.2
			c4.1,0,7.3,2.6,8.1,5.6l-2.4,0.8c-0.4-1.4-2.1-4.1-5.8-4.1c-3.8,0-6.4,3.1-6.4,6.7S239.3,157.6,243.3,157.6z"/>
		<path d="M258.5,132.7v26.8h-2.6v-26.8H258.5z"/>
		<path d="M265.6,151.6c0.2,3.4,2.9,6,6.3,6c2.6,0,4.6-1.3,5.4-3.8l2.3,0.7c-1.1,3.4-4.2,5.3-7.7,5.3c-5.1,0-8.9-4.1-8.9-9.1
			c0-4.8,3.6-9.1,8.6-9.1c5.4,0,8.3,3.9,8.3,9c0,0.3,0,0.6,0,0.9H265.6z M277.2,149.4c-0.3-3.2-2.3-5.5-5.7-5.5
			c-3.1,0-5.5,2.5-5.9,5.5H277.2z"/>
		<path d="M294.9,148.2c0-2.8-1.5-4.3-4.5-4.3c-3,0-4.3,1.9-4.6,3.6l-2.5-0.5c0.1-1.5,2.1-5.3,7.1-5.3c3.7,0,5.6,1.7,6.4,3.6
			c0.4,1,0.5,2.3,0.5,2.9v11.4h-2.5v-3.1h0c-1.4,2.2-3.3,3.4-5.9,3.4c-3.6,0-5.9-2.2-5.9-5.2v-0.2c0-3.8,3.8-5.1,7-5.1h4.9V148.2z
			 M290,151.5c-1.9,0-4.3,0.6-4.3,3c0,2,1.7,3.1,3.8,3.1c3.1,0,5.5-2.2,5.5-5.4v-0.6H290z"/>
		<path d="M305.5,145.5c1.3-2.7,3.7-3.8,5.7-3.8c0.2,0,0.7,0,0.9,0v2.7c-0.3,0-0.7-0.1-1-0.1c-4.2,0-5.5,3.4-5.5,6.6v8.6H303V142
			h2.5V145.5z"/>
		<path d="M316.2,151.6c0.2,3.4,2.9,6,6.3,6c2.6,0,4.6-1.3,5.4-3.8l2.3,0.7c-1.1,3.4-4.2,5.3-7.7,5.3c-5.1,0-8.9-4.1-8.9-9.1
			c0-4.8,3.6-9.1,8.6-9.1c5.4,0,8.3,3.9,8.3,9c0,0.3,0,0.6,0,0.9H316.2z M327.8,149.4c-0.3-3.2-2.3-5.5-5.7-5.5
			c-3.1,0-5.5,2.5-5.9,5.5H327.8z"/>
		<path d="M337.4,145.5c1.3-2.7,3.7-3.8,5.7-3.8c0.2,0,0.7,0,0.9,0v2.7c-0.3,0-0.7-0.1-1-0.1c-4.2,0-5.5,3.4-5.5,6.6v8.6h-2.6V142
			h2.5V145.5z"/>
		<path d="M364.9,159.8c-3.3,0-5.4-1.6-6.8-3.9v12.3h-2.6V142h2.5v3.8c1.4-2.2,3.5-4.1,6.8-4.1c5,0,8.3,4.5,8.3,9.1
			C373.2,155.5,369.9,159.8,364.9,159.8z M370.6,150.8c0-3.7-2.3-6.9-6.2-6.9c-3.6,0-6.3,3.2-6.3,6.8c0,3.6,2.6,6.9,6.3,6.9
			C368.3,157.6,370.6,154.5,370.6,150.8z"/>
		<path d="M379,133.7c1.1,0,1.9,0.9,1.9,1.9c0,1.1-0.9,1.9-1.9,1.9c-1.1,0-1.9-0.9-1.9-1.9C377.1,134.6,378,133.7,379,133.7z
			 M380.3,142v17.6h-2.6V142H380.3z"/>
		<path d="M393.8,157.6c3.9,0,5.4-2.9,5.9-4.2l2.4,0.8c-0.8,2.6-3.7,5.7-8.3,5.7c-5.1,0-9-3.8-9-9c0-5.3,4.1-9.2,9.1-9.2
			c4.1,0,7.3,2.6,8.1,5.6l-2.4,0.8c-0.4-1.4-2.1-4.1-5.8-4.1c-3.8,0-6.4,3.1-6.4,6.7S389.9,157.6,393.8,157.6z"/>
		<path d="M407.4,155v-10.8h-3.3V142h3.3v-5.1h2.5v5.1h4.4v2.3h-4.4v10.7c0,1.6,0.9,2.5,2.9,2.5c0.6,0,1.2,0,1.6-0.1v2.1
			c-0.5,0.2-1.5,0.3-2,0.3C408.5,159.7,407.4,157.6,407.4,155z"/>
		<path d="M420.9,152.2c0,3.1,1.6,5.3,4.9,5.3c3.1,0,5.2-2.4,5.2-5.5v-10h2.5v17.6h-2.5v-3.2c-1.4,2.4-3.5,3.6-6,3.6
			c-4.3,0-6.7-2.9-6.7-7V142h2.5V152.2z"/>
		<path d="M441.9,145.5c1.3-2.7,3.7-3.8,5.7-3.8c0.2,0,0.7,0,0.9,0v2.7c-0.3,0-0.7-0.1-1-0.1c-4.2,0-5.5,3.4-5.5,6.6v8.6h-2.6V142
			h2.5V145.5z"/>
		<path d="M452.6,151.6c0.2,3.4,2.9,6,6.3,6c2.6,0,4.6-1.3,5.4-3.8l2.3,0.7c-1.1,3.4-4.2,5.3-7.7,5.3c-5.1,0-8.9-4.1-8.9-9.1
			c0-4.8,3.6-9.1,8.6-9.1c5.4,0,8.3,3.9,8.3,9c0,0.3,0,0.6,0,0.9H452.6z M464.3,149.4c-0.3-3.2-2.3-5.5-5.7-5.5
			c-3.1,0-5.5,2.5-5.9,5.5H464.3z"/>
		<path d="M479.2,150.8c0-5.2,3.9-9.2,9.1-9.2c5.1,0,9.1,4,9.1,9c0,5.2-4,9.2-9.1,9.2C483.1,159.9,479.2,155.8,479.2,150.8z
			 M494.7,150.8c0-3.7-2.7-6.9-6.5-6.9s-6.4,3.1-6.4,6.8c0,3.7,2.6,6.9,6.5,6.9C492.1,157.6,494.7,154.5,494.7,150.8z"/>
		<path d="M505.4,138.6v3.3h4.6v2.2h-4.6v15.3h-2.6v-15.3h-3.4V142h3.4v-3.3c0-4.1,2.3-6.1,5.4-6.1c0.5,0,1.3,0.1,1.9,0.3v2.2
			c-0.7-0.2-1.4-0.2-1.8-0.2C507,134.9,505.4,135.6,505.4,138.6z"/>
		<path d="M523.1,155v-10.8h-3.3V142h3.3v-5.1h2.5v5.1h4.4v2.3h-4.4v10.7c0,1.6,0.9,2.5,2.9,2.5c0.6,0,1.2,0,1.6-0.1v2.1
			c-0.5,0.2-1.5,0.3-2,0.3C524.2,159.7,523.1,157.6,523.1,155z"/>
		<path d="M547.1,149.3c0-3.1-1.6-5.3-4.9-5.3c-3.1,0-5.2,2.4-5.2,5.6v10h-2.6v-26.8h2.6v12.4c1.4-2.3,3.4-3.5,6-3.5
			c4.3,0,6.7,2.9,6.7,7v10.9h-2.6V149.3z"/>
		<path d="M556.5,133.7c1.1,0,1.9,0.9,1.9,1.9c0,1.1-0.9,1.9-1.9,1.9c-1.1,0-1.9-0.9-1.9-1.9C554.6,134.6,555.5,133.7,556.5,133.7z
			 M557.8,142v17.6h-2.6V142H557.8z"/>
		<path d="M569,159.9c-4.8,0-6.4-3.2-6.7-5.2l2.4-0.6c0.4,1.6,1.5,3.5,4.3,3.5c1.9,0,3.7-1,3.7-2.9c0-2.1-2.3-2.6-4.1-2.9
			c-2.9-0.4-5.8-1.5-5.8-4.9c0-3.3,3-5.2,5.9-5.2c4.6,0,6.1,3.1,6.4,4.8l-2.3,0.6c-0.3-1.2-1.3-3.1-4.1-3.1c-1.9,0-3.3,1.3-3.3,2.8
			c0,2.2,2.4,2.5,4.2,2.8c2.9,0.4,5.8,1.9,5.8,5.1C575.2,157.8,572.4,159.9,569,159.9z"/>
		<path d="M594,158.4l-8-16.4h3l6.5,13.6l6.1-13.6h2.8l-12.1,26.3h-2.8L594,158.4z"/>
		<path d="M608.5,151.6c0.2,3.4,2.9,6,6.3,6c2.6,0,4.6-1.3,5.4-3.8l2.3,0.7c-1.1,3.4-4.2,5.3-7.7,5.3c-5.1,0-8.9-4.1-8.9-9.1
			c0-4.8,3.6-9.1,8.6-9.1c5.4,0,8.3,3.9,8.3,9c0,0.3,0,0.6,0,0.9H608.5z M620.2,149.4c-0.3-3.2-2.3-5.5-5.7-5.5
			c-3.1,0-5.5,2.5-5.9,5.5H620.2z"/>
		<path d="M637.8,148.2c0-2.8-1.5-4.3-4.5-4.3c-3,0-4.3,1.9-4.6,3.6l-2.5-0.5c0.1-1.5,2.1-5.3,7.1-5.3c3.7,0,5.6,1.7,6.4,3.6
			c0.4,1,0.5,2.3,0.5,2.9v11.4h-2.5v-3.1h0c-1.4,2.2-3.3,3.4-5.9,3.4c-3.6,0-5.9-2.2-5.9-5.2v-0.2c0-3.8,3.8-5.1,7-5.1h4.9V148.2z
			 M632.9,151.5c-1.9,0-4.3,0.6-4.3,3c0,2,1.7,3.1,3.8,3.1c3.1,0,5.5-2.2,5.5-5.4v-0.6H632.9z"/>
		<path d="M648.4,145.5c1.3-2.7,3.7-3.8,5.7-3.8c0.2,0,0.7,0,0.9,0v2.7c-0.3,0-0.7-0.1-1-0.1c-4.2,0-5.5,3.4-5.5,6.6v8.6h-2.6V142
			h2.5V145.5z"/>
		<path d="M658,141.9c1.5-1.1,2.6-2.4,2.9-4c-0.2,0.1-0.5,0.2-0.8,0.2c-1.3,0-2.2-0.9-2.2-2.2c0-1.3,1.1-2.3,2.3-2.3
			c1.5,0,2.6,1.3,2.6,3.2v0.1c0,2.3-1.2,4.5-3.5,6.1L658,141.9z"/>
		<path d="M671.5,159.9c-4.8,0-6.4-3.2-6.7-5.2l2.4-0.6c0.4,1.6,1.5,3.5,4.3,3.5c1.9,0,3.7-1,3.7-2.9c0-2.1-2.3-2.6-4.1-2.9
			c-2.9-0.4-5.8-1.5-5.8-4.9c0-3.3,3-5.2,5.9-5.2c4.6,0,6.1,3.1,6.4,4.8l-2.3,0.6c-0.3-1.2-1.3-3.1-4.1-3.1c-1.9,0-3.3,1.3-3.3,2.8
			c0,2.2,2.4,2.5,4.2,2.8c2.9,0.4,5.8,1.9,5.8,5.1C677.8,157.8,674.9,159.9,671.5,159.9z"/>
		<path d="M699.9,133.8c8,0,13.6,5.6,13.6,12.8c0,7.7-6.1,12.9-13.6,12.9h-7.7v-25.8H699.9z M699.8,157c6.5,0,10.9-4.3,10.9-10.3
			c0-5.9-4.2-10.4-10.9-10.4h-4.8V157H699.8z"/>
		<path d="M728.8,148.2c0-2.8-1.5-4.3-4.5-4.3c-3,0-4.3,1.9-4.6,3.6l-2.5-0.5c0.1-1.5,2.1-5.3,7.1-5.3c3.7,0,5.6,1.7,6.4,3.6
			c0.4,1,0.5,2.3,0.5,2.9v11.4h-2.5v-3.1h0c-1.4,2.2-3.3,3.4-5.9,3.4c-3.6,0-5.9-2.2-5.9-5.2v-0.2c0-3.8,3.8-5.1,7-5.1h4.9V148.2z
			 M723.9,151.5c-1.9,0-4.3,0.6-4.3,3c0,2,1.7,3.1,3.8,3.1c3.1,0,5.5-2.2,5.5-5.4v-0.6H723.9z"/>
		<path d="M737.9,155v-10.8h-3.3V142h3.3v-5.1h2.5v5.1h4.4v2.3h-4.4v10.7c0,1.6,0.9,2.5,2.9,2.5c0.6,0,1.2,0,1.6-0.1v2.1
			c-0.5,0.2-1.5,0.3-2,0.3C739.1,159.7,737.9,157.6,737.9,155z"/>
		<path d="M759.9,148.2c0-2.8-1.5-4.3-4.5-4.3c-3,0-4.3,1.9-4.6,3.6l-2.5-0.5c0.1-1.5,2.1-5.3,7.1-5.3c3.7,0,5.6,1.7,6.4,3.6
			c0.4,1,0.5,2.3,0.5,2.9v11.4h-2.5v-3.1h0c-1.4,2.2-3.3,3.4-5.9,3.4c-3.6,0-5.9-2.2-5.9-5.2v-0.2c0-3.8,3.8-5.1,7-5.1h4.9V148.2z
			 M754.9,151.5c-1.9,0-4.3,0.6-4.3,3c0,2,1.7,3.1,3.8,3.1c3.1,0,5.5-2.2,5.5-5.4v-0.6H754.9z"/>
		<path d="M780.5,147.8v11.8h-2.7v-25.8h2.7v11.4h14.7v-11.4h2.7v25.8h-2.7v-11.8H780.5z"/>
		<path d="M805.7,151.6c0.2,3.4,2.9,6,6.3,6c2.6,0,4.6-1.3,5.4-3.8l2.3,0.7c-1.1,3.4-4.2,5.3-7.7,5.3c-5.1,0-8.9-4.1-8.9-9.1
			c0-4.8,3.6-9.1,8.6-9.1c5.4,0,8.3,3.9,8.3,9c0,0.3,0,0.6,0,0.9H805.7z M817.4,149.4c-0.3-3.2-2.3-5.5-5.7-5.5
			c-3.1,0-5.5,2.5-5.9,5.5H817.4z"/>
		<path d="M835,148.2c0-2.8-1.5-4.3-4.5-4.3c-3,0-4.3,1.9-4.6,3.6l-2.5-0.5c0.1-1.5,2.1-5.3,7.1-5.3c3.7,0,5.6,1.7,6.4,3.6
			c0.4,1,0.5,2.3,0.5,2.9v11.4h-2.5v-3.1h0c-1.4,2.2-3.3,3.4-5.9,3.4c-3.6,0-5.9-2.2-5.9-5.2v-0.2c0-3.8,3.8-5.1,7-5.1h4.9V148.2z
			 M830.1,151.5c-1.9,0-4.3,0.6-4.3,3c0,2,1.7,3.1,3.8,3.1c3.1,0,5.5-2.2,5.5-5.4v-0.6H830.1z"/>
		<path d="M845.7,132.7v26.8h-2.6v-26.8H845.7z"/>
		<path d="M852.7,155v-10.8h-3.3V142h3.3v-5.1h2.5v5.1h4.4v2.3h-4.4v10.7c0,1.6,0.9,2.5,2.9,2.5c0.6,0,1.2,0,1.6-0.1v2.1
			c-0.5,0.2-1.5,0.3-2,0.3C853.9,159.7,852.7,157.6,852.7,155z"/>
		<path d="M876.7,149.3c0-3.1-1.6-5.3-4.9-5.3c-3.1,0-5.2,2.4-5.2,5.6v10H864v-26.8h2.6v12.4c1.4-2.3,3.4-3.5,6-3.5
			c4.3,0,6.7,2.9,6.7,7v10.9h-2.6V149.3z"/>
		<path d="M892.9,146.7c0-7.8,5.9-13.3,13-13.3c7,0,10.6,4.9,11.5,8.5l-2.6,0.9c-0.4-1.7-2.6-6.8-9-6.8c-5.5,0-10.1,4.3-10.1,10.5
			c0,6.1,4.3,10.7,10.1,10.7c6.2,0,8.3-4.7,9.1-6.9l2.6,1c-0.9,3.2-4.3,8.5-11.8,8.5C898.7,159.8,892.9,154.5,892.9,146.7z"/>
		<path d="M934.4,149.3c0-3.1-1.6-5.3-4.9-5.3c-3.1,0-5.2,2.4-5.2,5.6v10h-2.6v-26.8h2.6v12.4c1.4-2.3,3.4-3.5,6-3.5
			c4.3,0,6.7,2.9,6.7,7v10.9h-2.6V149.3z"/>
		<path d="M943.8,151.6c0.2,3.4,2.9,6,6.3,6c2.6,0,4.6-1.3,5.4-3.8l2.3,0.7c-1.1,3.4-4.2,5.3-7.7,5.3c-5.1,0-8.9-4.1-8.9-9.1
			c0-4.8,3.6-9.1,8.6-9.1c5.4,0,8.3,3.9,8.3,9c0,0.3,0,0.6,0,0.9H943.8z M955.5,149.4c-0.3-3.2-2.3-5.5-5.7-5.5
			c-3.1,0-5.5,2.5-5.9,5.5H955.5z"/>
		<path d="M970.2,157.6c3.9,0,5.4-2.9,5.9-4.2l2.4,0.8c-0.8,2.6-3.7,5.7-8.3,5.7c-5.1,0-9-3.8-9-9c0-5.3,4.1-9.2,9.1-9.2
			c4.1,0,7.3,2.6,8.1,5.6L976,148c-0.4-1.4-2.1-4.1-5.8-4.1c-3.8,0-6.4,3.1-6.4,6.7S966.2,157.6,970.2,157.6z"/>
		<path d="M985.3,159.6h-2.6v-26.8h2.6v16.4l8.4-7.1h3.7l-9.3,7.9l9.7,9.7h-3.6l-8.8-8.8h-0.1V159.6z"/>
		<path d="M1019.2,159.8c-3.3,0-5.4-1.6-6.8-4v3.7h-2.5v-26.8h2.6v13c1.4-2.2,3.5-4.1,6.8-4.1c5,0,8.3,4.5,8.3,9.1
			C1027.5,155.5,1024.2,159.8,1019.2,159.8z M1024.9,150.8c0-3.7-2.3-6.9-6.2-6.9c-3.6,0-6.3,3.2-6.3,6.8c0,3.6,2.6,6.9,6.3,6.9
			C1022.6,157.6,1024.9,154.5,1024.9,150.8z"/>
		<path d="M1037.2,158.4l-8-16.4h3l6.5,13.6l6.1-13.6h2.8l-12.1,26.3h-2.8L1037.2,158.4z"/>
		<path d="M1061.8,152.2c0,3.1,1.6,5.3,4.9,5.3c3.1,0,5.2-2.4,5.2-5.5v-10h2.5v17.6h-2.5v-3.2c-1.4,2.4-3.5,3.6-6,3.6
			c-4.3,0-6.7-2.9-6.7-7V142h2.5V152.2z"/>
		<path d="M1085.6,159.9c-4.8,0-6.4-3.2-6.7-5.2l2.4-0.6c0.4,1.6,1.5,3.5,4.3,3.5c1.9,0,3.7-1,3.7-2.9c0-2.1-2.3-2.6-4.1-2.9
			c-2.9-0.4-5.8-1.5-5.8-4.9c0-3.3,3-5.2,5.9-5.2c4.6,0,6.1,3.1,6.4,4.8l-2.3,0.6c-0.3-1.2-1.3-3.1-4.1-3.1c-1.9,0-3.3,1.3-3.3,2.8
			c0,2.2,2.4,2.5,4.2,2.8c2.9,0.4,5.8,1.9,5.8,5.1C1091.9,157.8,1089,159.9,1085.6,159.9z"/>
		<path d="M1097.7,133.7c1.1,0,1.9,0.9,1.9,1.9c0,1.1-0.9,1.9-1.9,1.9c-1.1,0-1.9-0.9-1.9-1.9
			C1095.8,134.6,1096.7,133.7,1097.7,133.7z M1099,142v17.6h-2.6V142H1099z"/>
		<path d="M1117.5,149.3c0-3.1-1.6-5.3-4.9-5.3c-3.1,0-5.2,2.4-5.2,5.6v10h-2.6V142h2.5v3.2c1.4-2.4,3.5-3.6,6.1-3.6
			c4.3,0,6.7,2.9,6.7,7v10.9h-2.6V149.3z"/>
		<path d="M1139.5,155.6c-1.4,2.2-3.5,4-6.8,4c-5,0-8.2-4.2-8.2-9c0-4.6,3.3-9,8.2-9c3.4,0,5.5,1.9,6.9,4V142h2.5v17.7
			c0,5.7-3.5,8.7-8.8,8.7c-4.5,0-7.8-2.3-8.7-6l2.4-0.8c0.5,2,2.2,4.6,6.3,4.6c3.4,0,6.3-1.8,6.3-6.4V155.6z M1139.5,150.6
			c0-3.5-2.7-6.7-6.3-6.7c-3.9,0-6.1,3-6.1,6.8c0,3.6,2.3,6.7,6.1,6.7C1136.9,157.4,1139.5,154.2,1139.5,150.6z"/>
		<path d="M1158.2,155v-10.8h-3.3V142h3.3v-5.1h2.5v5.1h4.4v2.3h-4.4v10.7c0,1.6,0.9,2.5,2.9,2.5c0.6,0,1.2,0,1.6-0.1v2.1
			c-0.5,0.2-1.5,0.3-2,0.3C1159.4,159.7,1158.2,157.6,1158.2,155z"/>
		<path d="M1182.2,149.3c0-3.1-1.6-5.3-4.9-5.3c-3.1,0-5.2,2.4-5.2,5.6v10h-2.6v-26.8h2.6v12.4c1.4-2.3,3.4-3.5,6-3.5
			c4.3,0,6.7,2.9,6.7,7v10.9h-2.6V149.3z"/>
		<path d="M1191.7,151.6c0.2,3.4,2.9,6,6.3,6c2.6,0,4.6-1.3,5.4-3.8l2.3,0.7c-1.1,3.4-4.2,5.3-7.7,5.3c-5.1,0-8.9-4.1-8.9-9.1
			c0-4.8,3.6-9.1,8.6-9.1c5.4,0,8.3,3.9,8.3,9c0,0.3,0,0.6,0,0.9H1191.7z M1203.3,149.4c-0.3-3.2-2.3-5.5-5.7-5.5
			c-3.1,0-5.5,2.5-5.9,5.5H1203.3z"/>
		<path d="M1233.3,155.6c-1.4,2.2-3.5,4-6.8,4c-5,0-8.2-4.2-8.2-9c0-4.6,3.3-9,8.2-9c3.4,0,5.5,1.9,6.9,4V142h2.5v17.7
			c0,5.7-3.5,8.7-8.8,8.7c-4.5,0-7.8-2.3-8.7-6l2.4-0.8c0.5,2,2.2,4.6,6.3,4.6c3.4,0,6.3-1.8,6.3-6.4V155.6z M1233.4,150.6
			c0-3.5-2.7-6.7-6.3-6.7c-3.9,0-6.1,3-6.1,6.8c0,3.6,2.3,6.7,6.1,6.7C1230.8,157.4,1233.4,154.2,1233.4,150.6z"/>
		<path d="M1244.2,145.5c1.3-2.7,3.7-3.8,5.7-3.8c0.2,0,0.7,0,0.9,0v2.7c-0.3,0-0.7-0.1-1-0.1c-4.2,0-5.5,3.4-5.5,6.6v8.6h-2.6V142
			h2.5V145.5z"/>
		<path d="M1264.4,148.2c0-2.8-1.5-4.3-4.5-4.3c-3,0-4.3,1.9-4.6,3.6l-2.5-0.5c0.1-1.5,2.1-5.3,7.1-5.3c3.7,0,5.6,1.7,6.4,3.6
			c0.4,1,0.5,2.3,0.5,2.9v11.4h-2.5v-3.1h0c-1.4,2.2-3.3,3.4-5.9,3.4c-3.6,0-5.9-2.2-5.9-5.2v-0.2c0-3.8,3.8-5.1,7-5.1h4.9V148.2z
			 M1259.5,151.5c-1.9,0-4.3,0.6-4.3,3c0,2,1.7,3.1,3.8,3.1c3.1,0,5.5-2.2,5.5-5.4v-0.6H1259.5z"/>
		<path d="M1281.9,159.8c-3.3,0-5.4-1.6-6.8-3.9v12.3h-2.6V142h2.5v3.8c1.4-2.2,3.5-4.1,6.8-4.1c5,0,8.3,4.5,8.3,9.1
			C1290.1,155.5,1286.9,159.8,1281.9,159.8z M1287.5,150.8c0-3.7-2.3-6.9-6.2-6.9c-3.6,0-6.3,3.2-6.3,6.8c0,3.6,2.6,6.9,6.3,6.9
			C1285.2,157.6,1287.5,154.5,1287.5,150.8z"/>
		<path d="M1307.3,149.3c0-3.1-1.6-5.3-4.9-5.3c-3.1,0-5.2,2.4-5.2,5.6v10h-2.6v-26.8h2.6v12.4c1.4-2.3,3.4-3.5,6-3.5
			c4.3,0,6.7,2.9,6.7,7v10.9h-2.6V149.3z"/>
		<path d="M1327.2,159.6h-2.6v-26.8h2.6v16.4l8.4-7.1h3.7l-9.3,7.9l9.7,9.7h-3.6l-8.8-8.8h-0.1V159.6z"/>
		<path d="M1342.8,151.6c0.2,3.4,2.9,6,6.3,6c2.6,0,4.6-1.3,5.4-3.8l2.3,0.7c-1.1,3.4-4.2,5.3-7.7,5.3c-5.1,0-8.9-4.1-8.9-9.1
			c0-4.8,3.6-9.1,8.6-9.1c5.4,0,8.3,3.9,8.3,9c0,0.3,0,0.6,0,0.9H1342.8z M1354.5,149.4c-0.3-3.2-2.3-5.5-5.7-5.5
			c-3.1,0-5.5,2.5-5.9,5.5H1354.5z"/>
		<path d="M1366.6,158.4l-8-16.4h3l6.5,13.6l6.1-13.6h2.8l-12.1,26.3h-2.8L1366.6,158.4z"/>
		<path d="M1385.1,159.9c-4.8,0-6.4-3.2-6.7-5.2l2.4-0.6c0.4,1.6,1.5,3.5,4.3,3.5c1.9,0,3.7-1,3.7-2.9c0-2.1-2.3-2.6-4.1-2.9
			c-2.9-0.4-5.8-1.5-5.8-4.9c0-3.3,3-5.2,5.9-5.2c4.6,0,6.1,3.1,6.4,4.8l-2.3,0.6c-0.3-1.2-1.3-3.1-4.1-3.1c-1.9,0-3.3,1.3-3.3,2.8
			c0,2.2,2.4,2.5,4.2,2.8c2.9,0.4,5.8,1.9,5.8,5.1C1391.4,157.8,1388.5,159.9,1385.1,159.9z"/>
		<path d="M1397.7,155.1c1.3,0,2.3,1.1,2.3,2.4c0,1.3-1.1,2.4-2.3,2.4c-1.3,0-2.4-1.1-2.4-2.4
			C1395.3,156.2,1396.3,155.1,1397.7,155.1z"/>
		<path d="M155.2,191c0,4.8-3.3,8.3-7.8,8.3c-4.9,0-8.1-3.2-8.1-8.2v-2.5h2.7v2.4c0,4.1,2.6,5.8,5.3,5.8c3,0,5.2-2.5,5.2-5.7v-17.9
			h2.7V191z"/>
		<path d="M163.8,191.7c0,3.1,1.6,5.3,4.9,5.3c3.1,0,5.2-2.4,5.2-5.5v-10h2.5v17.6h-2.5v-3.2c-1.4,2.4-3.5,3.6-6,3.6
			c-4.3,0-6.7-2.9-6.7-7v-10.9h2.5V191.7z"/>
		<path d="M187.6,199.4c-4.8,0-6.4-3.2-6.7-5.2l2.4-0.6c0.4,1.6,1.5,3.5,4.3,3.5c1.9,0,3.7-1,3.7-2.9c0-2.1-2.3-2.6-4.1-2.9
			c-2.9-0.4-5.8-1.5-5.8-4.9c0-3.3,3-5.2,5.9-5.2c4.6,0,6.1,3.1,6.4,4.8l-2.3,0.6c-0.3-1.2-1.3-3.1-4.1-3.1c-1.9,0-3.3,1.3-3.3,2.8
			c0,2.2,2.4,2.5,4.2,2.8c2.9,0.4,5.8,1.9,5.8,5.1C193.9,197.3,191,199.4,187.6,199.4z"/>
		<path d="M199.4,194.5v-10.8h-3.3v-2.3h3.3v-5.1h2.5v5.1h4.4v2.3h-4.4v10.7c0,1.6,0.9,2.5,2.9,2.5c0.6,0,1.2,0,1.6-0.1v2.1
			c-0.5,0.2-1.5,0.3-2,0.3C200.5,199.2,199.4,197.1,199.4,194.5z"/>
		<path d="M232.6,188.8c0-3.1-1.6-5.3-4.9-5.3c-3.1,0-5.2,2.4-5.2,5.6v10h-2.6v-26.8h2.6v12.4c1.4-2.3,3.4-3.5,6-3.5
			c4.3,0,6.7,2.9,6.7,7v10.9h-2.6V188.8z"/>
		<path d="M239.4,190.4c0-5.2,3.9-9.2,9.1-9.2c5.1,0,9.1,4,9.1,9c0,5.2-4,9.2-9.1,9.2C243.4,199.4,239.4,195.4,239.4,190.4z
			 M255,190.4c0-3.7-2.7-6.9-6.5-6.9c-3.8,0-6.4,3.1-6.4,6.8c0,3.7,2.6,6.9,6.5,6.9C252.3,197.1,255,194,255,190.4z"/>
		<path d="M259.4,181.5h2.8l6,14.8l6.1-14.8h2.7l-7.5,17.6h-2.7L259.4,181.5z"/>
		<path d="M281.4,191.1c0.2,3.4,2.9,6,6.3,6c2.6,0,4.6-1.3,5.4-3.8l2.3,0.7c-1.1,3.4-4.2,5.3-7.7,5.3c-5.1,0-8.9-4.1-8.9-9.1
			c0-4.8,3.6-9.1,8.6-9.1c5.4,0,8.3,3.9,8.3,9c0,0.3,0,0.6,0,0.9H281.4z M293.1,188.9c-0.3-3.2-2.3-5.5-5.7-5.5
			c-3.1,0-5.5,2.5-5.9,5.5H293.1z"/>
		<path d="M302.6,185c1.3-2.7,3.7-3.8,5.7-3.8c0.2,0,0.7,0,0.9,0v2.7c-0.3,0-0.7-0.1-1-0.1c-4.2,0-5.5,3.4-5.5,6.6v8.6h-2.6v-17.6
			h2.5V185z"/>
		<path d="M319.5,190.4c0-5.2,3.9-9.2,9.1-9.2c5.1,0,9.1,4,9.1,9c0,5.2-4,9.2-9.1,9.2C323.5,199.4,319.5,195.4,319.5,190.4z
			 M335.1,190.4c0-3.7-2.7-6.9-6.5-6.9c-3.8,0-6.4,3.1-6.4,6.8c0,3.7,2.6,6.9,6.5,6.9C332.4,197.1,335.1,194,335.1,190.4z"/>
		<path d="M339.5,181.5h2.8l6,14.8l6.1-14.8h2.7l-7.5,17.6h-2.7L339.5,181.5z"/>
		<path d="M361.5,191.1c0.2,3.4,2.9,6,6.3,6c2.6,0,4.6-1.3,5.4-3.8l2.3,0.7c-1.1,3.4-4.2,5.3-7.7,5.3c-5.1,0-8.9-4.1-8.9-9.1
			c0-4.8,3.6-9.1,8.6-9.1c5.4,0,8.3,3.9,8.3,9c0,0.3,0,0.6,0,0.9H361.5z M373.2,188.9c-0.3-3.2-2.3-5.5-5.7-5.5
			c-3.1,0-5.5,2.5-5.9,5.5H373.2z"/>
		<path d="M382.8,185c1.3-2.7,3.7-3.8,5.7-3.8c0.2,0,0.7,0,0.9,0v2.7c-0.3,0-0.7-0.1-1-0.1c-4.2,0-5.5,3.4-5.5,6.6v8.6h-2.6v-17.6
			h2.5V185z"/>
		<path d="M402.1,194.5v-10.8h-3.3v-2.3h3.3v-5.1h2.5v5.1h4.4v2.3h-4.4v10.7c0,1.6,0.9,2.5,2.9,2.5c0.6,0,1.2,0,1.6-0.1v2.1
			c-0.5,0.2-1.5,0.3-2,0.3C403.3,199.2,402.1,197.1,402.1,194.5z"/>
		<path d="M426.1,188.8c0-3.1-1.6-5.3-4.9-5.3c-3.1,0-5.2,2.4-5.2,5.6v10h-2.6v-26.8h2.6v12.4c1.4-2.3,3.4-3.5,6-3.5
			c4.3,0,6.7,2.9,6.7,7v10.9h-2.6V188.8z"/>
		<path d="M435.6,191.1c0.2,3.4,2.9,6,6.3,6c2.6,0,4.6-1.3,5.4-3.8l2.3,0.7c-1.1,3.4-4.2,5.3-7.7,5.3c-5.1,0-8.9-4.1-8.9-9.1
			c0-4.8,3.6-9.1,8.6-9.1c5.4,0,8.3,3.9,8.3,9c0,0.3,0,0.6,0,0.9H435.6z M447.2,188.9c-0.3-3.2-2.3-5.5-5.7-5.5
			c-3.1,0-5.5,2.5-5.9,5.5H447.2z"/>
		<path d="M466,199.1h-2.6v-26.8h2.6v16.4l8.4-7.1h3.7l-9.3,7.9l9.7,9.7h-3.6l-8.8-8.8H466V199.1z"/>
		<path d="M481.6,191.1c0.2,3.4,2.9,6,6.3,6c2.6,0,4.6-1.3,5.4-3.8l2.3,0.7c-1.1,3.4-4.2,5.3-7.7,5.3c-5.1,0-8.9-4.1-8.9-9.1
			c0-4.8,3.6-9.1,8.6-9.1c5.4,0,8.3,3.9,8.3,9c0,0.3,0,0.6,0,0.9H481.6z M493.3,188.9c-0.3-3.2-2.3-5.5-5.7-5.5
			c-3.1,0-5.5,2.5-5.9,5.5H493.3z"/>
		<path d="M505.4,197.9l-8-16.4h3l6.5,13.6l6.1-13.6h2.8l-12.1,26.3h-2.8L505.4,197.9z"/>
		<path d="M528.9,194.5v-10.8h-3.3v-2.3h3.3v-5.1h2.5v5.1h4.4v2.3h-4.4v10.7c0,1.6,0.9,2.5,2.9,2.5c0.6,0,1.2,0,1.6-0.1v2.1
			c-0.5,0.2-1.5,0.3-2,0.3C530,199.2,528.9,197.1,528.9,194.5z"/>
		<path d="M538.5,190.4c0-5.2,3.9-9.2,9.1-9.2c5.1,0,9.1,4,9.1,9c0,5.2-4,9.2-9.1,9.2C542.5,199.4,538.5,195.4,538.5,190.4z
			 M554.1,190.4c0-3.7-2.7-6.9-6.5-6.9c-3.8,0-6.4,3.1-6.4,6.8c0,3.7,2.6,6.9,6.5,6.9C551.4,197.1,554.1,194,554.1,190.4z"/>
		<path d="M574.3,178.2v3.3h4.6v2.2h-4.6v15.3h-2.6v-15.3h-3.4v-2.2h3.4v-3.3c0-4.1,2.3-6.1,5.4-6.1c0.5,0,1.3,0.1,1.9,0.3v2.2
			c-0.7-0.2-1.4-0.2-1.8-0.2C575.9,174.4,574.3,175.2,574.3,178.2z"/>
		<path d="M580.6,190.4c0-5.2,3.9-9.2,9.1-9.2c5.1,0,9.1,4,9.1,9c0,5.2-4,9.2-9.1,9.2C584.6,199.4,580.6,195.4,580.6,190.4z
			 M596.2,190.4c0-3.7-2.7-6.9-6.5-6.9c-3.8,0-6.4,3.1-6.4,6.8c0,3.7,2.6,6.9,6.5,6.9C593.5,197.1,596.2,194,596.2,190.4z"/>
		<path d="M611,197.1c3.9,0,5.4-2.9,5.9-4.2l2.4,0.8c-0.8,2.6-3.7,5.7-8.3,5.7c-5.1,0-9-3.8-9-9c0-5.3,4.1-9.2,9.1-9.2
			c4.1,0,7.3,2.6,8.1,5.6l-2.4,0.8c-0.4-1.4-2.1-4.1-5.8-4.1c-3.8,0-6.4,3.1-6.4,6.7C604.7,193.8,607,197.1,611,197.1z"/>
		<path d="M625.9,191.7c0,3.1,1.6,5.3,4.9,5.3c3.1,0,5.2-2.4,5.2-5.5v-10h2.5v17.6H636v-3.2c-1.4,2.4-3.5,3.6-6,3.6
			c-4.3,0-6.7-2.9-6.7-7v-10.9h2.5V191.7z"/>
		<path d="M649.7,199.4c-4.8,0-6.4-3.2-6.7-5.2l2.4-0.6c0.4,1.6,1.5,3.5,4.3,3.5c1.9,0,3.7-1,3.7-2.9c0-2.1-2.3-2.6-4.1-2.9
			c-2.9-0.4-5.8-1.5-5.8-4.9c0-3.3,3-5.2,5.9-5.2c4.6,0,6.1,3.1,6.4,4.8l-2.3,0.6c-0.3-1.2-1.3-3.1-4.1-3.1c-1.9,0-3.3,1.3-3.3,2.8
			c0,2.2,2.4,2.5,4.2,2.8c2.9,0.4,5.8,1.9,5.8,5.1C656,197.3,653.1,199.4,649.7,199.4z"/>
		<path d="M668.5,190.4c0-5.2,3.9-9.2,9.1-9.2c5.1,0,9.1,4,9.1,9c0,5.2-4,9.2-9.1,9.2C672.4,199.4,668.5,195.4,668.5,190.4z
			 M684,190.4c0-3.7-2.7-6.9-6.5-6.9c-3.8,0-6.4,3.1-6.4,6.8c0,3.7,2.6,6.9,6.5,6.9C681.3,197.1,684,194,684,190.4z"/>
		<path d="M703.8,188.8c0-3.1-1.6-5.3-4.9-5.3c-3.1,0-5.2,2.4-5.2,5.6v10h-2.6v-17.6h2.5v3.2c1.4-2.4,3.5-3.6,6.1-3.6
			c4.3,0,6.7,2.9,6.7,7v10.9h-2.6V188.8z"/>
		<path d="M722.3,194.5v-10.8h-3.3v-2.3h3.3v-5.1h2.5v5.1h4.4v2.3h-4.4v10.7c0,1.6,0.9,2.5,2.9,2.5c0.6,0,1.2,0,1.6-0.1v2.1
			c-0.5,0.2-1.5,0.3-2,0.3C723.5,199.2,722.3,197.1,722.3,194.5z"/>
		<path d="M746.4,188.8c0-3.1-1.6-5.3-4.9-5.3c-3.1,0-5.2,2.4-5.2,5.6v10h-2.6v-26.8h2.6v12.4c1.4-2.3,3.4-3.5,6-3.5
			c4.3,0,6.7,2.9,6.7,7v10.9h-2.6V188.8z"/>
		<path d="M755.8,191.1c0.2,3.4,2.9,6,6.3,6c2.6,0,4.6-1.3,5.4-3.8l2.3,0.7c-1.1,3.4-4.2,5.3-7.7,5.3c-5.1,0-8.9-4.1-8.9-9.1
			c0-4.8,3.6-9.1,8.6-9.1c5.4,0,8.3,3.9,8.3,9c0,0.3,0,0.6,0,0.9H755.8z M767.5,188.9c-0.3-3.2-2.3-5.5-5.7-5.5
			c-3.1,0-5.5,2.5-5.9,5.5H767.5z"/>
		<path d="M790.7,181.2c3.4,0,5.4,1.9,6.8,4v-12.9h2.5v26.8h-2.5v-3.8c-1.4,2.2-3.5,4-6.9,4c-5,0-8.2-4.3-8.2-9.1
			C782.4,185.7,785.7,181.2,790.7,181.2z M797.5,190.2c0-3.5-2.7-6.8-6.3-6.8c-3.9,0-6.2,3.1-6.2,6.9c0,3.6,2.3,6.8,6.2,6.8
			C794.9,197.1,797.5,193.8,797.5,190.2z"/>
		<path d="M816.4,187.8c0-2.8-1.5-4.3-4.5-4.3c-3,0-4.3,1.9-4.6,3.6l-2.5-0.5c0.1-1.5,2.1-5.3,7.1-5.3c3.7,0,5.6,1.7,6.4,3.6
			c0.4,1,0.5,2.3,0.5,2.9v11.4h-2.5V196h0c-1.4,2.2-3.3,3.4-5.9,3.4c-3.6,0-5.9-2.2-5.9-5.2V194c0-3.8,3.8-5.1,7-5.1h4.9V187.8z
			 M811.5,191c-1.9,0-4.3,0.6-4.3,3c0,2,1.7,3.1,3.8,3.1c3.1,0,5.5-2.2,5.5-5.4V191H811.5z"/>
		<path d="M825.6,194.5v-10.8h-3.3v-2.3h3.3v-5.1h2.5v5.1h4.4v2.3h-4.4v10.7c0,1.6,0.9,2.5,2.9,2.5c0.6,0,1.2,0,1.6-0.1v2.1
			c-0.5,0.2-1.5,0.3-2,0.3C826.7,199.2,825.6,197.1,825.6,194.5z"/>
		<path d="M847.5,187.8c0-2.8-1.5-4.3-4.5-4.3c-3,0-4.3,1.9-4.6,3.6l-2.5-0.5c0.1-1.5,2.1-5.3,7.1-5.3c3.7,0,5.6,1.7,6.4,3.6
			c0.4,1,0.5,2.3,0.5,2.9v11.4h-2.5V196h0c-1.4,2.2-3.3,3.4-5.9,3.4c-3.6,0-5.9-2.2-5.9-5.2V194c0-3.8,3.8-5.1,7-5.1h4.9V187.8z
			 M842.6,191c-1.9,0-4.3,0.6-4.3,3c0,2,1.7,3.1,3.8,3.1c3.1,0,5.5-2.2,5.5-5.4V191H842.6z"/>
		<path d="M868.7,178.2v3.3h4.6v2.2h-4.6v15.3h-2.6v-15.3h-3.4v-2.2h3.4v-3.3c0-4.1,2.3-6.1,5.4-6.1c0.5,0,1.3,0.1,1.9,0.3v2.2
			c-0.7-0.2-1.4-0.2-1.8-0.2C870.3,174.4,868.7,175.2,868.7,178.2z"/>
		<path d="M879.3,185c1.3-2.7,3.7-3.8,5.7-3.8c0.2,0,0.7,0,0.9,0v2.7c-0.3,0-0.7-0.1-1-0.1c-4.2,0-5.5,3.4-5.5,6.6v8.6h-2.6v-17.6
			h2.5V185z"/>
		<path d="M887.3,190.4c0-5.2,3.9-9.2,9.1-9.2c5.1,0,9.1,4,9.1,9c0,5.2-4,9.2-9.1,9.2C891.3,199.4,887.3,195.4,887.3,190.4z
			 M902.9,190.4c0-3.7-2.7-6.9-6.5-6.9c-3.8,0-6.4,3.1-6.4,6.8c0,3.7,2.6,6.9,6.5,6.9C900.2,197.1,902.9,194,902.9,190.4z"/>
		<path d="M922,188.8c0-2.9-1.4-5.3-4.5-5.3c-3.1,0-4.9,2.7-4.9,5.6v10H910v-17.6h2.5v3.1c1.4-2.1,3-3.4,5.7-3.4
			c2.6,0,4.6,1.2,5.6,3.5c1.5-2.3,3.4-3.5,6.2-3.5c4.2,0,6.5,2.9,6.5,7v10.9H934v-10.2c0-2.9-1.3-5.3-4.5-5.3
			c-3.1,0-4.9,2.5-4.9,5.4v10.1H922V188.8z"/>
		<path d="M952.5,194.5v-10.8h-3.3v-2.3h3.3v-5.1h2.5v5.1h4.4v2.3H955v10.7c0,1.6,0.9,2.5,2.9,2.5c0.6,0,1.2,0,1.6-0.1v2.1
			c-0.5,0.2-1.5,0.3-2,0.3C953.7,199.2,952.5,197.1,952.5,194.5z"/>
		<path d="M976.5,188.8c0-3.1-1.6-5.3-4.9-5.3c-3.1,0-5.2,2.4-5.2,5.6v10h-2.6v-26.8h2.6v12.4c1.4-2.3,3.4-3.5,6-3.5
			c4.3,0,6.7,2.9,6.7,7v10.9h-2.6V188.8z"/>
		<path d="M995.3,187.8c0-2.8-1.5-4.3-4.5-4.3c-3,0-4.3,1.9-4.6,3.6l-2.5-0.5c0.1-1.5,2.1-5.3,7.1-5.3c3.7,0,5.6,1.7,6.4,3.6
			c0.4,1,0.5,2.3,0.5,2.9v11.4h-2.5V196h0c-1.4,2.2-3.3,3.4-5.9,3.4c-3.6,0-5.9-2.2-5.9-5.2V194c0-3.8,3.8-5.1,7-5.1h4.9V187.8z
			 M990.4,191c-1.9,0-4.3,0.6-4.3,3c0,2,1.7,3.1,3.8,3.1c3.1,0,5.5-2.2,5.5-5.4V191H990.4z"/>
		<path d="M1004.4,194.5v-10.8h-3.3v-2.3h3.3v-5.1h2.5v5.1h4.4v2.3h-4.4v10.7c0,1.6,0.9,2.5,2.9,2.5c0.6,0,1.2,0,1.6-0.1v2.1
			c-0.5,0.2-1.5,0.3-2,0.3C1005.5,199.2,1004.4,197.1,1004.4,194.5z"/>
		<path d="M1038.7,195.2c-1.4,2.2-3.5,4-6.8,4c-5,0-8.2-4.2-8.2-9c0-4.6,3.3-9,8.2-9c3.4,0,5.5,1.9,6.9,4v-3.7h2.5v17.7
			c0,5.7-3.5,8.7-8.8,8.7c-4.5,0-7.8-2.3-8.7-6l2.4-0.8c0.5,2,2.2,4.6,6.3,4.6c3.4,0,6.3-1.8,6.3-6.4V195.2z M1038.7,190.2
			c0-3.5-2.7-6.7-6.3-6.7c-3.9,0-6.1,3-6.1,6.8c0,3.6,2.3,6.7,6.1,6.7C1036.1,196.9,1038.7,193.7,1038.7,190.2z"/>
		<path d="M1049.6,185c1.3-2.7,3.7-3.8,5.7-3.8c0.2,0,0.7,0,0.9,0v2.7c-0.3,0-0.7-0.1-1-0.1c-4.2,0-5.5,3.4-5.5,6.6v8.6h-2.6v-17.6
			h2.5V185z"/>
		<path d="M1057.7,190.4c0-5.2,3.9-9.2,9.1-9.2c5.1,0,9.1,4,9.1,9c0,5.2-4,9.2-9.1,9.2C1061.6,199.4,1057.7,195.4,1057.7,190.4z
			 M1073.2,190.4c0-3.7-2.7-6.9-6.5-6.9c-3.8,0-6.4,3.1-6.4,6.8c0,3.7,2.6,6.9,6.5,6.9C1070.6,197.1,1073.2,194,1073.2,190.4z"/>
		<path d="M1082.7,191.7c0,3.1,1.6,5.3,4.9,5.3c3.1,0,5.2-2.4,5.2-5.5v-10h2.5v17.6h-2.5v-3.2c-1.4,2.4-3.5,3.6-6,3.6
			c-4.3,0-6.7-2.9-6.7-7v-10.9h2.5V191.7z"/>
		<path d="M1110.5,199.3c-3.3,0-5.4-1.6-6.8-3.9v12.3h-2.6v-26.3h2.5v3.8c1.4-2.2,3.5-4.1,6.8-4.1c5,0,8.3,4.5,8.3,9.1
			C1118.8,195,1115.6,199.3,1110.5,199.3z M1116.2,190.3c0-3.7-2.3-6.9-6.2-6.9c-3.6,0-6.3,3.2-6.3,6.8c0,3.6,2.6,6.9,6.3,6.9
			C1113.9,197.1,1116.2,194,1116.2,190.3z"/>
		<path d="M1125.1,194.6c1.3,0,2.3,1.1,2.3,2.4c0,1.3-1.1,2.4-2.3,2.4c-1.3,0-2.4-1.1-2.4-2.4
			C1122.7,195.7,1123.8,194.6,1125.1,194.6z"/>
	</g>
</g>
<g id="redHoverTip">
	<rect x="564.3" y="880.4" class="st0-tip" width="171.4" height="43.4"/>
	<g>
		<g>
			<g>
				<path d="M626.2,900.3v6.9h-1.6v-15h1.6v6.6h8.6v-6.6h1.6v15h-1.6v-6.9H626.2z"/>
				<path d="M639.4,902.1c0-3,2.3-5.3,5.3-5.3c3,0,5.3,2.3,5.3,5.3c0,3-2.3,5.3-5.3,5.3C641.7,907.3,639.4,905,639.4,902.1z
					 M648.4,902.1c0-2.2-1.6-4-3.8-4s-3.7,1.8-3.7,4c0,2.2,1.5,4,3.8,4C646.9,906,648.4,904.2,648.4,902.1z"/>
				<path d="M651,896.9h1.7l3.5,8.6l3.6-8.6h1.6l-4.4,10.3h-1.6L651,896.9z"/>
				<path d="M663.8,902.5c0.1,2,1.7,3.5,3.7,3.5c1.5,0,2.7-0.8,3.2-2.2l1.3,0.4c-0.6,2-2.5,3.1-4.5,3.1c-3,0-5.2-2.4-5.2-5.3
					c0-2.8,2.1-5.3,5-5.3c3.2,0,4.8,2.3,4.8,5.3c0,0.2,0,0.3,0,0.5H663.8z M670.7,901.2c-0.2-1.9-1.4-3.2-3.3-3.2
					c-1.8,0-3.2,1.5-3.5,3.2H670.7z"/>
				<path d="M676.2,898.9c0.8-1.6,2.1-2.2,3.3-2.2c0.1,0,0.4,0,0.5,0v1.6c-0.2,0-0.4,0-0.6,0c-2.4,0-3.2,2-3.2,3.8v5h-1.5v-10.3h1.5
					V898.9z"/>
				<path d="M694.2,901.2c0-1.8-0.9-3.1-2.8-3.1c-1.8,0-3.1,1.4-3.1,3.2v5.8h-1.5v-15.6h1.5v7.2c0.8-1.3,2-2,3.5-2
					c2.5,0,3.9,1.7,3.9,4.1v6.3h-1.5V901.2z"/>
				<path d="M699.7,902.5c0.1,2,1.7,3.5,3.7,3.5c1.5,0,2.7-0.8,3.2-2.2l1.3,0.4c-0.6,2-2.5,3.1-4.5,3.1c-3,0-5.2-2.4-5.2-5.3
					c0-2.8,2.1-5.3,5-5.3c3.2,0,4.8,2.3,4.8,5.3c0,0.2,0,0.3,0,0.5H699.7z M706.5,901.2c-0.2-1.9-1.4-3.2-3.3-3.2
					c-1.8,0-3.2,1.5-3.5,3.2H706.5z"/>
				<path d="M712.1,898.9c0.8-1.6,2.1-2.2,3.3-2.2c0.1,0,0.4,0,0.5,0v1.6c-0.2,0-0.4,0-0.6,0c-2.4,0-3.2,2-3.2,3.8v5h-1.5v-10.3h1.5
					V898.9z"/>
				<path d="M718.3,902.5c0.1,2,1.7,3.5,3.7,3.5c1.5,0,2.7-0.8,3.2-2.2l1.3,0.4c-0.6,2-2.5,3.1-4.5,3.1c-3,0-5.2-2.4-5.2-5.3
					c0-2.8,2.1-5.3,5-5.3c3.2,0,4.8,2.3,4.8,5.3c0,0.2,0,0.3,0,0.5H718.3z M725.1,901.2c-0.2-1.9-1.4-3.2-3.3-3.2
					c-1.8,0-3.2,1.5-3.5,3.2H725.1z"/>
			</g>
		</g>
		<g>
			<circle class="st1-tip" cx="588.5" cy="902.1" r="18.3"/>
		</g>
	</g>
</g>
<g id="blueHoverTip">
	<rect x="780.7" y="880.4" class="st0-tip" width="171.4" height="43.4"/>
	<g>
		<g>
			<g>
				<path d="M841.6,900.8v6.9h-1.6v-15h1.6v6.6h8.6v-6.6h1.6v15h-1.6v-6.9H841.6z"/>
				<path d="M854.8,902.6c0-3,2.3-5.3,5.3-5.3c3,0,5.3,2.3,5.3,5.3c0,3-2.3,5.3-5.3,5.3C857.1,907.9,854.8,905.5,854.8,902.6z
					 M863.9,902.6c0-2.2-1.6-4-3.8-4s-3.7,1.8-3.7,4c0,2.2,1.5,4,3.8,4C862.3,906.6,863.9,904.7,863.9,902.6z"/>
				<path d="M866.4,897.4h1.7l3.5,8.6l3.6-8.6h1.6l-4.4,10.3h-1.6L866.4,897.4z"/>
				<path d="M879.3,903c0.1,2,1.7,3.5,3.7,3.5c1.5,0,2.7-0.8,3.2-2.2l1.3,0.4c-0.6,2-2.5,3.1-4.5,3.1c-3,0-5.2-2.4-5.2-5.3
					c0-2.8,2.1-5.3,5-5.3c3.2,0,4.8,2.3,4.8,5.3c0,0.2,0,0.3,0,0.5H879.3z M886.1,901.8c-0.2-1.9-1.4-3.2-3.3-3.2
					c-1.8,0-3.2,1.5-3.5,3.2H886.1z"/>
				<path d="M891.7,899.5c0.8-1.6,2.1-2.2,3.3-2.2c0.1,0,0.4,0,0.5,0v1.6c-0.2,0-0.4,0-0.6,0c-2.4,0-3.2,2-3.2,3.8v5h-1.5v-10.3h1.5
					V899.5z"/>
				<path d="M909.7,901.7c0-1.8-0.9-3.1-2.8-3.1c-1.8,0-3.1,1.4-3.1,3.2v5.8h-1.5v-15.6h1.5v7.2c0.8-1.3,2-2,3.5-2
					c2.5,0,3.9,1.7,3.9,4.1v6.3h-1.5V901.7z"/>
				<path d="M915.2,903c0.1,2,1.7,3.5,3.7,3.5c1.5,0,2.7-0.8,3.2-2.2l1.3,0.4c-0.6,2-2.5,3.1-4.5,3.1c-3,0-5.2-2.4-5.2-5.3
					c0-2.8,2.1-5.3,5-5.3c3.2,0,4.8,2.3,4.8,5.3c0,0.2,0,0.3,0,0.5H915.2z M922,901.8c-0.2-1.9-1.4-3.2-3.3-3.2
					c-1.8,0-3.2,1.5-3.5,3.2H922z"/>
				<path d="M927.6,899.5c0.8-1.6,2.1-2.2,3.3-2.2c0.1,0,0.4,0,0.5,0v1.6c-0.2,0-0.4,0-0.6,0c-2.4,0-3.2,2-3.2,3.8v5h-1.5v-10.3h1.5
					V899.5z"/>
				<path d="M933.8,903c0.1,2,1.7,3.5,3.7,3.5c1.5,0,2.7-0.8,3.2-2.2l1.3,0.4c-0.6,2-2.5,3.1-4.5,3.1c-3,0-5.2-2.4-5.2-5.3
					c0-2.8,2.1-5.3,5-5.3c3.2,0,4.8,2.3,4.8,5.3c0,0.2,0,0.3,0,0.5H933.8z M940.6,901.8c-0.2-1.9-1.4-3.2-3.3-3.2
					c-1.8,0-3.2,1.5-3.5,3.2H940.6z"/>
			</g>
		</g>
		<circle class="st2-tip" cx="804" cy="902.1" r="18.3"/>
	</g>
</g>
<g id="redChartTip">
	<g>
		<path class="st1-tip" d="M513.2,570.6c0,134.4,109,243.4,243.4,243.4V327.2C622.2,327.2,513.2,436.2,513.2,570.6z"/>
	</g>
	<g>
		<path class="st3-tip" d="M666.7,549.6l-10.3,6.1l-2-3.4l12.5-7.5h4.4v43h-4.5V549.6z"/>
	</g>
</g>
<g id="blueChartTip">
	<path class="st2-tip" d="M756.6,327.2V814C891,814,1000,705,1000,570.6C1000,436.2,891,327.2,756.6,327.2z"/>
	<g>
		<path class="st3-tip" d="M832.6,586.5c0-5,2.3-10.4,9.9-15.1l6.5-4.1c4.1-2.5,7.5-5.2,7.5-10.2c0-4.4-3.9-8.6-9.4-8.6
			c-4.7,0-7.7,2.8-8.8,5.5c-0.8,1.8-0.8,3.6-0.9,4.2l-4.5-0.7c0-6.1,5.2-13.3,14.3-13.3c8,0,14,6,14,12.7c0,6.1-3.4,9.7-9.1,13.2
			l-6.8,4.2c-3.7,2.3-7.1,5.3-7.4,9.2h23.6v4.2h-29V586.5z"/>
	</g>
</g>
</svg>
