<?xml version="1.0" encoding="utf-8"?>
<svg version="1.1" id="graphTwoDR" xmlns="http://www.w3.org/2000/svg" xmlns:xlink="http://www.w3.org/1999/xlink" x="0px" y="0px"
	 viewBox="0 0 1500 1053" style="enable-background:new 0 0 1500 1053;" xml:space="preserve">
<style type="text/css">
	.st0-dr2{fill:#FFC940;}
	.st1-dr2{opacity:0.9;}
	.st2-dr2{fill:#FFFFFF;}
</style>
<g id="yellowCircleDR2">
	<g>
		<g>
			<path d="M137.7,355.1l0,1.3l-7.1,3.4l7.1,3.3l0,1.3l-8.5-4l0-1.2L137.7,355.1z"/>
			<path d="M143.2,354.4l-0.7,4.4c0.8-0.8,2.2-1,2.8-1c2.4,0,4.2,1.6,4.2,4.1c0,2.8-2.3,4.2-4.5,4.2c-2.1,0-4.1-1.3-4.4-3.5l1.3-0.3
				c0.2,1.5,1.5,2.5,3.1,2.5c1.3,0,3.1-0.8,3.1-2.9s-1.6-3-3.1-3c-0.9,0-2,0.5-2.7,1.3l-1.2-0.5l1.1-6.6l6.7,0l0,1.3L143.2,354.4z"
				/>
			<path d="M162.6,366c-1.6,0-2.7-0.8-3.4-1.9l0,6.1l-1.3,0l0-13l1.3,0l0,1.9c0.7-1.1,1.7-2.1,3.4-2.1c2.5,0,4.1,2.2,4.1,4.5
				C166.7,363.8,165.1,366,162.6,366z M165.4,361.5c0-1.8-1.1-3.4-3.1-3.4c-1.8,0-3.1,1.6-3.1,3.4c0,1.8,1.3,3.4,3.1,3.4
				C164.3,364.8,165.4,363.3,165.4,361.5z"/>
			<path d="M170.4,361.8c0.1,1.7,1.4,3,3.1,3c1.3,0,2.3-0.6,2.7-1.9l1.1,0.4c-0.5,1.7-2.1,2.6-3.8,2.6c-2.5,0-4.4-2-4.5-4.5
				c0-2.4,1.8-4.5,4.2-4.5c2.7,0,4.1,1.9,4.1,4.5c0,0.1,0,0.3,0,0.4L170.4,361.8z M176.2,360.7c-0.2-1.6-1.2-2.7-2.8-2.7
				c-1.5,0-2.7,1.3-2.9,2.7L176.2,360.7z"/>
			<path d="M179.9,361.4c0-2.6,1.9-4.6,4.5-4.6c2.5,0,4.5,2,4.5,4.5c0,2.6-2,4.6-4.5,4.6C181.8,365.9,179.9,363.9,179.9,361.4z
				 M187.6,361.4c0-1.8-1.3-3.4-3.2-3.4c-1.9,0-3.2,1.5-3.2,3.4c0,1.8,1.3,3.4,3.2,3.4C186.3,364.8,187.6,363.2,187.6,361.4z"/>
			<path d="M196.6,365.9c-1.6,0-2.7-0.8-3.4-1.9l0,6.1l-1.3,0l0-13l1.3,0l0,1.9c0.7-1.1,1.7-2.1,3.4-2.1c2.5,0,4.1,2.2,4.1,4.5
				C200.7,363.7,199.1,365.8,196.6,365.9z M199.4,361.4c0-1.8-1.1-3.4-3.1-3.4c-1.8,0-3.1,1.6-3.1,3.4c0,1.8,1.3,3.4,3.1,3.4
				C198.3,364.7,199.4,363.2,199.4,361.4z"/>
			<path d="M205,352.4l0.1,13.3l-1.3,0l-0.1-13.3L205,352.4z"/>
			<path d="M209.4,361.7c0.1,1.7,1.4,3,3.1,3c1.3,0,2.3-0.6,2.7-1.9l1.1,0.4c-0.5,1.7-2.1,2.6-3.8,2.6c-2.5,0-4.4-2-4.5-4.5
				c0-2.4,1.8-4.5,4.2-4.5c2.7,0,4.1,1.9,4.1,4.5c0,0.1,0,0.3,0,0.4L209.4,361.7z M215.2,360.6c-0.2-1.6-1.2-2.7-2.8-2.7
				c-1.5,0-2.7,1.3-2.9,2.7L215.2,360.6z"/>
		</g>
	</g>
	<g>
		
			<ellipse transform="matrix(1 -3.820067e-03 3.820067e-03 1 -1.3812 0.3837)" class="st0-dr2" cx="99.7" cy="361.8" rx="15.6" ry="15.6"/>
	</g>
</g>
<g id="blackCircleDR2">
	<g>
		<g>
			<path d="M134,411.2c-2.2,0-4.2-1.3-4.4-3.5l1.3-0.3c0.2,1.5,1.4,2.5,3.1,2.5c1.7,0,3.1-1,3.1-2.4c0-1.5-1.1-2.4-3.1-2.4l-1.3,0
				l0-1.2l1.2,0c1.8,0,2.8-1.1,2.8-2.3c0-1.3-1-2.3-2.8-2.3c-1.8,0-2.8,1.1-3,2.4l-1.3-0.3c0.2-1.8,1.9-3.4,4.3-3.4
				c2.8,0,4.2,1.7,4.2,3.4c0,1.5-0.8,2.4-2,3v0c1.5,0.4,2.3,1.5,2.4,3.1C138.4,409.5,136.7,411.2,134,411.2z"/>
			<path d="M141.1,404.7c0-3.2,1.8-6.6,5.3-6.6c3.5,0,5.3,3.3,5.3,6.5c0,3.2-1.8,6.6-5.3,6.6C143,411.2,141.2,407.9,141.1,404.7z
				 M142.5,404.7c0,2.3,1.2,5.3,4,5.3c2.8,0,3.9-3,3.9-5.3s-1.2-5.3-4-5.3C143.7,399.4,142.5,402.3,142.5,404.7z"/>
			<path d="M157.8,408.8l0-3.4l-3.4,0l0-1.2l3.4,0l0-3.4l1.2,0l0,3.4l3.4,0l0,1.2l-3.4,0l0,3.4L157.8,408.8z"/>
			<path d="M175.5,411.1c-1.6,0-2.7-0.8-3.4-1.9l0,6.1l-1.3,0l0-13l1.3,0l0,1.9c0.7-1.1,1.7-2.1,3.4-2.1c2.5,0,4.1,2.2,4.1,4.5
				C179.6,408.9,178,411.1,175.5,411.1z M178.3,406.6c0-1.8-1.1-3.4-3.1-3.4c-1.8,0-3.1,1.6-3.1,3.4c0,1.8,1.3,3.4,3.1,3.4
				C177.2,409.9,178.3,408.4,178.3,406.6z"/>
			<path d="M183.3,406.9c0.1,1.7,1.4,3,3.1,3c1.3,0,2.3-0.6,2.7-1.9l1.1,0.4c-0.5,1.7-2.1,2.6-3.8,2.6c-2.5,0-4.4-2-4.5-4.5
				c0-2.4,1.8-4.5,4.2-4.5c2.7,0,4.1,1.9,4.1,4.5c0,0.1,0,0.3,0,0.4L183.3,406.9z M189.1,405.8c-0.2-1.6-1.2-2.7-2.8-2.7
				c-1.5,0-2.7,1.3-2.9,2.7L189.1,405.8z"/>
			<path d="M192.8,406.6c0-2.6,1.9-4.6,4.5-4.6c2.5,0,4.5,2,4.5,4.5c0,2.6-2,4.6-4.5,4.6C194.8,411,192.8,409,192.8,406.6z
				 M200.5,406.5c0-1.8-1.3-3.4-3.2-3.4c-1.9,0-3.2,1.5-3.2,3.4c0,1.8,1.3,3.4,3.2,3.4C199.2,409.9,200.5,408.3,200.5,406.5z"/>
			<path d="M209.5,411c-1.6,0-2.7-0.8-3.4-1.9l0,6.1l-1.3,0l0-13l1.3,0l0,1.9c0.7-1.1,1.7-2.1,3.4-2.1c2.5,0,4.1,2.2,4.1,4.5
				C213.6,408.8,212,410.9,209.5,411z M212.3,406.5c0-1.8-1.1-3.4-3.1-3.4c-1.8,0-3.1,1.6-3.1,3.4c0,1.8,1.3,3.4,3.1,3.4
				C211.2,409.8,212.3,408.3,212.3,406.5z"/>
			<path d="M218,397.5l0.1,13.3l-1.3,0l-0.1-13.3L218,397.5z"/>
			<path d="M222.3,406.8c0.1,1.7,1.4,3,3.1,3c1.3,0,2.3-0.6,2.7-1.9l1.1,0.4c-0.5,1.7-2.1,2.6-3.8,2.6c-2.5,0-4.4-2-4.5-4.5
				c0-2.4,1.8-4.5,4.2-4.5c2.7,0,4.1,1.9,4.1,4.5c0,0.1,0,0.3,0,0.4L222.3,406.8z M228.1,405.7c-0.2-1.6-1.2-2.7-2.8-2.7
				c-1.5,0-2.7,1.3-2.9,2.7L228.1,405.7z"/>
		</g>
	</g>
	<g class="st1-dr2">
		<ellipse transform="matrix(1 -3.820067e-03 3.820067e-03 1 -1.5537 0.3847)" cx="99.9" cy="406.9" rx="15.6" ry="15.6"/>
	</g>
</g>
<g id="whiteCircleDR2">
	<g>
		<g>
			<path d="M131.3,316l-1.4,3.3l-1.4,0l5.5-12.8l1.5,0l5.6,12.8l-1.4,0l-1.4-3.3L131.3,316z M131.8,314.8l6,0l-3-6.9L131.8,314.8z"
				/>
			<path d="M144.6,305.9l0.1,13.3l-1.3,0l-0.1-13.3L144.6,305.9z"/>
			<path d="M149.6,305.9l0.1,13.3l-1.3,0l-0.1-13.3L149.6,305.9z"/>
		</g>
	</g>
	<g class="st1-dr2">
		
			<ellipse transform="matrix(1 -3.820067e-03 3.820067e-03 1 -1.2028 0.3827)" class="st2-dr2" cx="99.6" cy="315.1" rx="15.6" ry="15.6"/>
	</g>
</g>
<g id="chartTitlesDR2">
	<g>
		<g>
			<path class="st2-dr2" d="M87.3,157.8l-0.7,4.3c0.8-0.8,2.2-1,2.8-1c2.4,0,4.2,1.6,4.2,4.1c0,2.8-2.3,4.2-4.5,4.2
				c-2.1,0-4.1-1.4-4.4-3.5l1.3-0.3c0.2,1.5,1.5,2.5,3.1,2.5c1.3,0,3.1-0.8,3.1-2.9c0-2.1-1.6-3-3.1-3c-0.9,0-2,0.5-2.7,1.3
				l-1.2-0.5l1.1-6.6H93v1.3H87.3z"/>
			<path class="st2-dr2" d="M98.6,156.7h2.4l5.7,18.6h0.1l5.8-18.6h2.6l5.8,18.7h0.1l5.8-18.7h2.3l-6.9,21.9h-2.6l-5.9-18.8l-5.9,18.8
				h-2.5L98.6,156.7z"/>
			<path class="st2-dr2" d="M143.2,170c0-2.7-1.4-4.5-4.1-4.5c-2.6,0-4.5,2.1-4.5,4.7v8.5h-2.2v-22.8h2.2v10.5c1.2-2,2.9-3,5.1-3
				c3.7,0,5.7,2.5,5.7,6v9.2h-2.2V170z"/>
			<path class="st2-dr2" d="M159.2,169c0-2.4-1.3-3.6-3.8-3.6c-2.5,0-3.7,1.6-3.9,3.1l-2.1-0.4c0.1-1.3,1.8-4.5,6.1-4.5
				c3.2,0,4.7,1.4,5.5,3.1c0.3,0.8,0.4,2,0.4,2.5v9.7h-2.1v-2.6h0c-1.2,1.8-2.8,2.9-5,2.9c-3,0-5-1.9-5-4.4v-0.2
				c0-3.3,3.3-4.3,5.9-4.3h4.1V169z M155,171.8c-1.6,0-3.7,0.5-3.7,2.5c0,1.7,1.4,2.6,3.2,2.6c2.7,0,4.7-1.9,4.7-4.6v-0.5H155z"/>
			<path class="st2-dr2" d="M166.9,174.8v-9.2h-2.8v-1.9h2.8v-4.3h2.2v4.3h3.8v1.9h-3.8v9.1c0,1.3,0.8,2.1,2.4,2.1c0.5,0,1,0,1.3-0.1
				v1.8c-0.4,0.1-1.3,0.2-1.7,0.2C167.9,178.8,166.9,177,166.9,174.8z"/>
			<path class="st2-dr2" d="M187.6,178.7l-5-15h2.3l3.9,12.4h0l4.1-12.4h2.2l4.1,12.4h0l4-12.4h2.3l-5,15H198l-4-12.2h0l-4,12.2H187.6z"
				/>
			<path class="st2-dr2" d="M217.2,169c0-2.4-1.3-3.6-3.8-3.6c-2.5,0-3.7,1.6-3.9,3.1l-2.1-0.4c0.1-1.3,1.8-4.5,6.1-4.5
				c3.2,0,4.7,1.4,5.5,3.1c0.3,0.8,0.4,2,0.4,2.5v9.7h-2.1v-2.6h0c-1.2,1.8-2.8,2.9-5,2.9c-3,0-5-1.9-5-4.4v-0.2
				c0-3.3,3.3-4.3,5.9-4.3h4.1V169z M213.1,171.8c-1.6,0-3.7,0.5-3.7,2.5c0,1.7,1.4,2.6,3.2,2.6c2.7,0,4.7-1.9,4.7-4.6v-0.5H213.1z"
				/>
			<path class="st2-dr2" d="M228.7,178.9c-4.1,0-5.4-2.7-5.7-4.4l2-0.5c0.3,1.3,1.3,3,3.6,3c1.6,0,3.1-0.9,3.1-2.4c0-1.8-2-2.2-3.5-2.5
				c-2.5-0.4-4.9-1.3-4.9-4.2c0-2.8,2.6-4.5,5-4.5c4,0,5.2,2.6,5.4,4.1l-2,0.5c-0.3-1-1.1-2.6-3.4-2.6c-1.6,0-2.8,1.1-2.8,2.4
				c0,1.9,2,2.2,3.6,2.4c2.4,0.3,4.9,1.6,4.9,4.3C234,177.2,231.6,178.9,228.7,178.9z"/>
			<path class="st2-dr2" d="M246.7,174.8v-9.2h-2.8v-1.9h2.8v-4.3h2.2v4.3h3.8v1.9h-3.8v9.1c0,1.3,0.8,2.1,2.4,2.1c0.5,0,1,0,1.3-0.1
				v1.8c-0.4,0.1-1.3,0.2-1.7,0.2C247.7,178.8,246.7,177,246.7,174.8z"/>
			<path class="st2-dr2" d="M267.1,170c0-2.7-1.4-4.5-4.1-4.5c-2.6,0-4.5,2.1-4.5,4.7v8.5h-2.2v-22.8h2.2v10.5c1.2-2,2.9-3,5.1-3
				c3.7,0,5.7,2.5,5.7,6v9.2h-2.2V170z"/>
			<path class="st2-dr2" d="M275.2,171.9c0.2,2.9,2.4,5.1,5.4,5.1c2.2,0,3.9-1.1,4.6-3.2l2,0.6c-0.9,2.9-3.6,4.5-6.6,4.5
				c-4.3,0-7.6-3.4-7.6-7.8c0-4.1,3.1-7.7,7.3-7.7c4.6,0,7.1,3.3,7.1,7.7c0,0.3,0,0.5,0,0.7H275.2z M285.1,170
				c-0.3-2.7-2-4.7-4.8-4.7c-2.6,0-4.7,2.2-5,4.7H285.1z"/>
			<path class="st2-dr2" d="M306.9,178.9c-2.8,0-4.6-1.4-5.8-3.4v3.1h-2.2v-22.8h2.2v11.1c1.2-1.9,3-3.5,5.8-3.5c4.3,0,7,3.8,7,7.7
				C313.9,175.2,311.1,178.9,306.9,178.9z M311.6,171.2c0-3.1-1.9-5.8-5.2-5.8c-3.1,0-5.4,2.7-5.4,5.7c0,3.1,2.2,5.8,5.4,5.8
				C309.7,177,311.6,174.4,311.6,171.2z"/>
			<path class="st2-dr2" d="M318.8,156.7c0.9,0,1.7,0.7,1.7,1.7c0,0.9-0.7,1.6-1.7,1.6c-0.9,0-1.6-0.7-1.6-1.6
				C317.2,157.4,318,156.7,318.8,156.7z M320,163.7v15h-2.2v-15H320z"/>
			<path class="st2-dr2" d="M336.6,175.4c-1.1,1.9-3,3.4-5.8,3.4c-4.3,0-7-3.5-7-7.6c0-3.9,2.8-7.7,7-7.7c2.9,0,4.7,1.6,5.8,3.4v-3.1
				h2.2v15c0,4.8-3,7.4-7.5,7.4c-3.9,0-6.6-2-7.4-5.1l2-0.7c0.4,1.7,1.9,3.9,5.4,3.9c2.9,0,5.4-1.5,5.4-5.4V175.4z M336.7,171.1
				c0-2.9-2.3-5.7-5.4-5.7c-3.3,0-5.2,2.5-5.2,5.8c0,3.1,1.9,5.7,5.2,5.7C334.5,176.8,336.7,174.1,336.7,171.1z"/>
			<path class="st2-dr2" d="M355.5,175.4c-1.1,1.9-3,3.4-5.8,3.4c-4.3,0-7-3.5-7-7.6c0-3.9,2.8-7.7,7-7.7c2.9,0,4.7,1.6,5.8,3.4v-3.1
				h2.2v15c0,4.8-3,7.4-7.5,7.4c-3.9,0-6.6-2-7.4-5.1l2-0.7c0.4,1.7,1.9,3.9,5.4,3.9c2.9,0,5.4-1.5,5.4-5.4V175.4z M355.5,171.1
				c0-2.9-2.3-5.7-5.4-5.7c-3.3,0-5.2,2.5-5.2,5.8c0,3.1,1.9,5.7,5.2,5.7C353.3,176.8,355.5,174.1,355.5,171.1z"/>
			<path class="st2-dr2" d="M363.7,171.9c0.2,2.9,2.4,5.1,5.4,5.1c2.2,0,3.9-1.1,4.6-3.2l2,0.6c-0.9,2.9-3.6,4.5-6.6,4.5
				c-4.3,0-7.6-3.4-7.6-7.8c0-4.1,3.1-7.7,7.3-7.7c4.6,0,7.1,3.3,7.1,7.7c0,0.3,0,0.5,0,0.7H363.7z M373.7,170
				c-0.3-2.7-2-4.7-4.8-4.7c-2.6,0-4.7,2.2-5,4.7H373.7z"/>
			<path class="st2-dr2" d="M384.2,178.9c-4.1,0-5.4-2.7-5.7-4.4l2-0.5c0.3,1.3,1.3,3,3.6,3c1.6,0,3.1-0.9,3.1-2.4c0-1.8-2-2.2-3.5-2.5
				c-2.5-0.4-4.9-1.3-4.9-4.2c0-2.8,2.6-4.5,5-4.5c4,0,5.2,2.6,5.4,4.1l-2,0.5c-0.3-1-1.1-2.6-3.4-2.6c-1.6,0-2.8,1.1-2.8,2.4
				c0,1.9,2,2.2,3.6,2.4c2.4,0.3,4.9,1.6,4.9,4.3C389.5,177.2,387.1,178.9,384.2,178.9z"/>
			<path class="st2-dr2" d="M394.2,174.8v-9.2h-2.8v-1.9h2.8v-4.3h2.2v4.3h3.8v1.9h-3.8v9.1c0,1.3,0.8,2.1,2.4,2.1c0.5,0,1,0,1.3-0.1
				v1.8c-0.4,0.1-1.3,0.2-1.7,0.2C395.2,178.8,394.2,177,394.2,174.8z"/>
			<path class="st2-dr2" d="M418.2,177c3.3,0,4.6-2.5,5-3.6l2,0.7c-0.7,2.2-3.1,4.8-7.1,4.8c-4.3,0-7.6-3.2-7.6-7.7
				c0-4.5,3.5-7.8,7.7-7.8c3.5,0,6.3,2.2,6.9,4.8l-2,0.6c-0.3-1.1-1.8-3.5-4.9-3.5c-3.2,0-5.4,2.6-5.4,5.7
				C412.8,174.2,414.8,177,418.2,177z"/>
			<path class="st2-dr2" d="M437.9,169c0-2.4-1.3-3.6-3.8-3.6c-2.5,0-3.7,1.6-3.9,3.1l-2.1-0.4c0.1-1.3,1.8-4.5,6.1-4.5
				c3.2,0,4.7,1.4,5.5,3.1c0.3,0.8,0.4,2,0.4,2.5v9.7H438v-2.6h0c-1.2,1.8-2.8,2.9-5,2.9c-3,0-5-1.9-5-4.4v-0.2
				c0-3.3,3.3-4.3,5.9-4.3h4.1V169z M433.8,171.8c-1.6,0-3.7,0.5-3.7,2.5c0,1.7,1.4,2.6,3.2,2.6c2.7,0,4.7-1.9,4.7-4.6v-0.5H433.8z"
				/>
			<path class="st2-dr2" d="M446.8,172.4c0,2.7,1.4,4.5,4.1,4.5c2.6,0,4.5-2,4.5-4.7v-8.5h2.2v15h-2.1v-2.7c-1.2,2-2.9,3-5.1,3
				c-3.7,0-5.7-2.5-5.7-6v-9.2h2.2V172.4z"/>
			<path class="st2-dr2" d="M467.1,178.9c-4.1,0-5.4-2.7-5.7-4.4l2-0.5c0.3,1.3,1.3,3,3.6,3c1.6,0,3.1-0.9,3.1-2.4c0-1.8-2-2.2-3.5-2.5
				c-2.5-0.4-4.9-1.3-4.9-4.2c0-2.8,2.5-4.5,5-4.5c4,0,5.2,2.6,5.4,4.1l-2,0.5c-0.3-1-1.1-2.6-3.4-2.6c-1.6,0-2.8,1.1-2.8,2.4
				c0,1.9,2,2.2,3.6,2.4c2.4,0.3,4.9,1.6,4.9,4.3C472.4,177.2,470,178.9,467.1,178.9z"/>
			<path class="st2-dr2" d="M477.4,171.9c0.2,2.9,2.4,5.1,5.4,5.1c2.2,0,3.9-1.1,4.6-3.2l2,0.6c-0.9,2.9-3.6,4.5-6.6,4.5
				c-4.3,0-7.6-3.4-7.6-7.8c0-4.1,3.1-7.7,7.3-7.7c4.6,0,7.1,3.3,7.1,7.7c0,0.3,0,0.5,0,0.7H477.4z M487.3,170
				c-0.3-2.7-2-4.7-4.8-4.7c-2.6,0-4.7,2.2-5,4.7H487.3z"/>
			<path class="st2-dr2" d="M98.2,204.9c0-4.4,3.3-7.8,7.8-7.8c4.3,0,7.7,3.4,7.7,7.7c0,4.4-3.4,7.8-7.8,7.8
				C101.6,212.6,98.2,209.2,98.2,204.9z M111.4,204.9c0-3.1-2.3-5.9-5.5-5.9c-3.3,0-5.5,2.6-5.5,5.8c0,3.1,2.2,5.9,5.5,5.9
				C109.2,210.6,111.4,208,111.4,204.9z"/>
			<path class="st2-dr2" d="M120.5,194.5v2.8h3.9v1.9h-3.9v13.1h-2.2v-13.1h-2.9v-1.9h2.9v-2.8c0-3.5,1.9-5.2,4.6-5.2
				c0.4,0,1.1,0.1,1.7,0.3v1.9c-0.6-0.2-1.2-0.2-1.6-0.2C121.9,191.4,120.5,192,120.5,194.5z"/>
			<path class="st2-dr2" d="M137.5,190.4v21.9h-2.3v-21.9H137.5z"/>
			<path class="st2-dr2" d="M148.4,212.3v-19.8h-7.3v-2.2h17v2.2h-7.3v19.8H148.4z"/>
			<path class="st2-dr2" d="M173.9,197.1c2.9,0,4.6,1.6,5.8,3.4v-11h2.2v22.8h-2.1v-3.2c-1.1,1.9-2.9,3.4-5.8,3.4c-4.3,0-7-3.6-7-7.7
				C166.9,200.9,169.7,197.1,173.9,197.1z M179.7,204.8c0-3-2.3-5.7-5.4-5.7c-3.3,0-5.2,2.6-5.2,5.8c0,3.1,2,5.7,5.2,5.7
				C177.5,210.6,179.7,207.9,179.7,204.8z"/>
			<path class="st2-dr2" d="M185.7,204.9c0-4.4,3.3-7.8,7.8-7.8c4.3,0,7.7,3.4,7.7,7.7c0,4.4-3.4,7.8-7.8,7.8
				C189.1,212.6,185.7,209.2,185.7,204.9z M198.9,204.9c0-3.1-2.3-5.9-5.5-5.9c-3.3,0-5.5,2.6-5.5,5.8c0,3.1,2.2,5.9,5.5,5.9
				C196.7,210.6,198.9,208,198.9,204.9z"/>
			<path class="st2-dr2" d="M208,212.3l-5-15h2.3l3.9,12.4h0l4.1-12.4h2.2l4.1,12.4h0l4-12.4h2.3l-5,15h-2.4l-4-12.2h0l-4,12.2H208z"/>
			<path class="st2-dr2" d="M239.8,203.6c0-2.7-1.4-4.5-4.1-4.5c-2.6,0-4.5,2.1-4.5,4.7v8.5H229v-15h2.2v2.7c1.2-2,2.9-3,5.2-3
				c3.7,0,5.7,2.5,5.7,6v9.2h-2.2V203.6z"/>
			<path class="st2-dr2" d="M247.6,208.5v-9.2h-2.8v-1.9h2.8V193h2.2v4.3h3.8v1.9h-3.8v9.1c0,1.3,0.8,2.1,2.4,2.1c0.5,0,1,0,1.3-0.1v1.8
				c-0.4,0.1-1.3,0.2-1.7,0.2C248.6,212.4,247.6,210.6,247.6,208.5z"/>
			<path class="st2-dr2" d="M258.3,190.3c0.9,0,1.7,0.7,1.7,1.7c0,0.9-0.7,1.6-1.7,1.6c-0.9,0-1.6-0.7-1.6-1.6
				C256.7,191.1,257.4,190.3,258.3,190.3z M259.4,197.4v15h-2.2v-15H259.4z"/>
			<path class="st2-dr2" d="M274.6,203.5c0-2.5-1.2-4.5-3.9-4.5c-2.6,0-4.1,2.3-4.1,4.7v8.5h-2.2v-15h2.2v2.6c1.2-1.8,2.6-2.9,4.8-2.9
				c2.2,0,3.9,1,4.8,3c1.3-1.9,2.9-3,5.3-3c3.6,0,5.5,2.5,5.5,6v9.2h-2.2v-8.7c0-2.5-1.1-4.5-3.9-4.5c-2.6,0-4.1,2.1-4.1,4.6v8.6
				h-2.2V203.5z"/>
			<path class="st2-dr2" d="M292.8,205.5c0.2,2.9,2.4,5.1,5.4,5.1c2.2,0,3.9-1.1,4.6-3.2l2,0.6c-0.9,2.9-3.6,4.5-6.6,4.5
				c-4.3,0-7.6-3.4-7.6-7.8c0-4.1,3.1-7.7,7.3-7.7c4.6,0,7.1,3.3,7.1,7.7c0,0.3,0,0.5,0,0.7H292.8z M302.7,203.7
				c-0.3-2.7-2-4.7-4.8-4.7c-2.6,0-4.7,2.2-5,4.7H302.7z"/>
			<path class="st2-dr2" d="M315.6,201.6c0-5.8,2.9-10.8,8-13.7l0.9,1.4c-4.5,2.9-6.7,6.9-6.7,12.2v0.7c0,5.4,2.1,9.3,6.6,12.2l-0.9,1.5
				c-5-2.9-8-7.8-8-13.7V201.6z"/>
			<path class="st2-dr2" d="M335.6,212.5c-2.8,0-4.6-1.4-5.8-3.4v3.1h-2.2v-22.8h2.2v11.1c1.2-1.9,3-3.5,5.8-3.5c4.3,0,7,3.8,7,7.7
				C342.6,208.8,339.9,212.5,335.6,212.5z M340.4,204.9c0-3.1-1.9-5.8-5.2-5.8c-3.1,0-5.4,2.7-5.4,5.7c0,3.1,2.2,5.8,5.4,5.8
				C338.5,210.6,340.4,208,340.4,204.9z"/>
			<path class="st2-dr2" d="M350.8,211.3l-6.8-14h2.5l5.5,11.6l5.2-11.6h2.4l-10.3,22.3H347L350.8,211.3z"/>
			<path class="st2-dr2" d="M374.4,212.6c-4.1,0-5.4-2.7-5.7-4.4l2-0.5c0.3,1.3,1.3,3,3.6,3c1.6,0,3.1-0.9,3.1-2.4c0-1.8-2-2.2-3.5-2.5
				c-2.5-0.4-4.9-1.3-4.9-4.2c0-2.8,2.6-4.5,5-4.5c4,0,5.2,2.6,5.4,4.1l-2,0.5c-0.3-1-1.1-2.6-3.4-2.6c-1.6,0-2.8,1.1-2.8,2.4
				c0,1.9,2,2.2,3.6,2.4c2.4,0.3,4.9,1.6,4.9,4.3C379.7,210.8,377.3,212.6,374.4,212.6z"/>
			<path class="st2-dr2" d="M384.7,190.3c0.9,0,1.7,0.7,1.7,1.7c0,0.9-0.7,1.6-1.7,1.6c-0.9,0-1.6-0.7-1.6-1.6
				C383,191.1,383.8,190.3,384.7,190.3z M385.8,197.4v15h-2.2v-15H385.8z"/>
			<path class="st2-dr2" d="M401.4,212.3h-12v-1.9l9.3-11.2h-9.1v-1.9h11.7v1.8l-9.3,11.2h9.4V212.3z"/>
			<path class="st2-dr2" d="M406,205.5c0.2,2.9,2.4,5.1,5.4,5.1c2.2,0,3.9-1.1,4.6-3.2l2,0.6c-0.9,2.9-3.6,4.5-6.6,4.5
				c-4.3,0-7.6-3.4-7.6-7.8c0-4.1,3.1-7.7,7.3-7.7c4.6,0,7.1,3.3,7.1,7.7c0,0.3,0,0.5,0,0.7H406z M415.9,203.7
				c-0.3-2.7-2-4.7-4.8-4.7c-2.6,0-4.7,2.2-5,4.7H415.9z"/>
			<path class="st2-dr2" d="M428.6,204.9c0-4.4,3.3-7.8,7.8-7.8c4.3,0,7.7,3.4,7.7,7.7c0,4.4-3.4,7.8-7.8,7.8
				C432,212.6,428.6,209.2,428.6,204.9z M441.8,204.9c0-3.1-2.3-5.9-5.5-5.9s-5.5,2.6-5.5,5.8c0,3.1,2.2,5.9,5.5,5.9
				C439.6,210.6,441.8,208,441.8,204.9z"/>
			<path class="st2-dr2" d="M450.9,194.5v2.8h3.9v1.9h-3.9v13.1h-2.2v-13.1h-2.9v-1.9h2.9v-2.8c0-3.5,1.9-5.2,4.6-5.2
				c0.4,0,1.1,0.1,1.7,0.3v1.9c-0.6-0.2-1.2-0.2-1.6-0.2C452.3,191.4,450.9,192,450.9,194.5z"/>
			<path class="st2-dr2" d="M467.8,190.4v21.9h-2.3v-21.9H467.8z"/>
			<path class="st2-dr2" d="M478.8,212.3v-19.8h-7.3v-2.2h17v2.2h-7.3v19.8H478.8z"/>
			<path class="st2-dr2" d="M499.3,208.5v-9.2h-2.8v-1.9h2.8V193h2.2v4.3h3.8v1.9h-3.8v9.1c0,1.3,0.8,2.1,2.4,2.1c0.5,0,1,0,1.3-0.1v1.8
				c-0.4,0.1-1.3,0.2-1.7,0.2C500.3,212.4,499.3,210.6,499.3,208.5z"/>
			<path class="st2-dr2" d="M509.8,205.5c0.2,2.9,2.4,5.1,5.4,5.1c2.2,0,3.9-1.1,4.6-3.2l2,0.6c-0.9,2.9-3.6,4.5-6.6,4.5
				c-4.3,0-7.6-3.4-7.6-7.8c0-4.1,3.1-7.7,7.3-7.7c4.6,0,7.1,3.3,7.1,7.7c0,0.3,0,0.5,0,0.7H509.8z M519.7,203.7
				c-0.3-2.7-2-4.7-4.8-4.7c-2.6,0-4.7,2.2-5,4.7H519.7z"/>
			<path class="st2-dr2" d="M534.7,202.7c0-2.4-1.3-3.6-3.8-3.6c-2.5,0-3.7,1.6-3.9,3.1l-2.1-0.4c0.1-1.3,1.8-4.5,6.1-4.5
				c3.2,0,4.7,1.4,5.5,3.1c0.3,0.8,0.4,2,0.4,2.5v9.7h-2.1v-2.6h0c-1.2,1.8-2.8,2.9-5,2.9c-3,0-5-1.9-5-4.4V208
				c0-3.3,3.3-4.3,5.9-4.3h4.1V202.7z M530.5,205.5c-1.6,0-3.7,0.5-3.7,2.5c0,1.7,1.4,2.6,3.2,2.6c2.7,0,4.7-1.9,4.7-4.6v-0.5H530.5
				z"/>
			<path class="st2-dr2" d="M551.8,203.5c0-2.5-1.2-4.5-3.9-4.5c-2.6,0-4.1,2.3-4.1,4.7v8.5h-2.2v-15h2.2v2.6c1.2-1.8,2.6-2.9,4.8-2.9
				c2.2,0,3.9,1,4.8,3c1.3-1.9,2.9-3,5.3-3c3.6,0,5.5,2.5,5.5,6v9.2H562v-8.7c0-2.5-1.1-4.5-3.9-4.5c-2.6,0-4.1,2.1-4.1,4.6v8.6
				h-2.2V203.5z"/>
			<path class="st2-dr2" d="M571.9,206c0-0.2,0-0.3,0-0.5c0-2.6,1.6-3.9,2.8-5.1c1.3-1.3,2.8-2.5,2.8-4.5c0-1.8-1.2-3.6-4.1-3.6
				c-2.8,0-4.4,2.1-4.2,4.8l-2.2-0.1c0-0.2,0-0.4,0-0.6c0-3.6,3-6.2,6.5-6.2c3.9,0,6.4,2.7,6.4,5.7c0,2.2-1.3,3.6-3.3,5.5
				c-1.4,1.4-2.4,2.3-2.5,4.5H571.9z M572.9,212.6c0.9,0,1.6-0.7,1.6-1.7c0-0.9-0.7-1.6-1.6-1.6c-0.9,0-1.7,0.7-1.7,1.6
				C571.2,211.8,572,212.6,572.9,212.6z"/>
			<path class="st2-dr2" d="M590.6,202.3c0,5.8-2.9,10.7-8,13.7l-0.9-1.5c4.5-2.9,6.6-6.8,6.6-12.2v-0.7c0-5.4-2.2-9.3-6.7-12.2l1-1.4
				c5,2.9,8,7.8,8,13.7V202.3z"/>
		</g>
	</g>
	<g>
		<g>
			<path d="M683.9,869.5c0,3.2-1.8,5.1-4.8,5.1c-3.1,0-4.8-2-4.8-5.1v-7.9h1.3v7.8c0,2.8,1.5,3.9,3.5,3.9c2.2,0,3.4-1.4,3.4-3.8
				v-7.9h1.3V869.5z"/>
			<path d="M692.4,874.6c-1.6,0-2.7-0.8-3.4-1.9v6.1h-1.3v-13h1.3v1.9c0.7-1.1,1.7-2,3.4-2c2.5,0,4.1,2.2,4.1,4.5
				C696.5,872.4,694.9,874.6,692.4,874.6z M695.2,870.1c0-1.8-1.1-3.4-3.1-3.4c-1.8,0-3.1,1.6-3.1,3.4c0,1.8,1.3,3.4,3.1,3.4
				C694.1,873.5,695.2,872,695.2,870.1z"/>
			<path d="M706.4,872.5c-0.7,1.1-1.7,2-3.4,2c-2.5,0-4.1-2.1-4.1-4.4c0-2.3,1.6-4.5,4.1-4.5c1.7,0,2.7,0.9,3.4,2v-1.8h1.3v8.8
				c0,2.8-1.7,4.3-4.4,4.3c-2.3,0-3.9-1.1-4.3-3l1.2-0.4c0.3,1,1.1,2.3,3.1,2.3c1.7,0,3.1-0.9,3.1-3.2V872.5z M706.5,870
				c0-1.7-1.3-3.3-3.1-3.3c-1.9,0-3,1.5-3,3.4c0,1.8,1.1,3.3,3,3.3C705.2,873.4,706.5,871.8,706.5,870z"/>
			<path d="M712.7,867.5c0.7-1.4,1.8-1.9,2.8-1.9c0.1,0,0.3,0,0.4,0v1.4c-0.2,0-0.3,0-0.5,0c-2.1,0-2.7,1.7-2.7,3.3v4.3h-1.3v-8.7
				h1.3V867.5z"/>
			<path d="M723.5,868.8c0-1.4-0.8-2.1-2.2-2.1c-1.5,0-2.1,0.9-2.3,1.8l-1.2-0.3c0.1-0.7,1-2.7,3.5-2.7c1.8,0,2.8,0.8,3.2,1.8
				c0.2,0.5,0.3,1.2,0.3,1.4v5.6h-1.2v-1.5h0c-0.7,1.1-1.6,1.7-2.9,1.7c-1.8,0-2.9-1.1-2.9-2.6V872c0-1.9,1.9-2.5,3.5-2.5h2.4V868.8
				z M721.1,870.5c-0.9,0-2.2,0.3-2.2,1.5c0,1,0.8,1.5,1.9,1.5c1.6,0,2.7-1.1,2.7-2.7v-0.3H721.1z"/>
			<path d="M731.8,865.6c1.7,0,2.7,0.9,3.4,2v-6.4h1.3v13.3h-1.2v-1.9c-0.7,1.1-1.7,2-3.4,2c-2.5,0-4.1-2.1-4.1-4.5
				C727.7,867.8,729.3,865.6,731.8,865.6z M735.2,870.1c0-1.7-1.3-3.4-3.1-3.4c-1.9,0-3.1,1.5-3.1,3.4c0,1.8,1.1,3.4,3.1,3.4
				C733.9,873.5,735.2,871.9,735.2,870.1z"/>
			<path d="M740.8,870.5c0.1,1.7,1.4,3,3.1,3c1.3,0,2.3-0.6,2.7-1.9l1.1,0.4c-0.5,1.7-2.1,2.6-3.8,2.6c-2.5,0-4.4-2-4.4-4.5
				c0-2.4,1.8-4.5,4.3-4.5c2.7,0,4.1,1.9,4.1,4.5c0,0.1,0,0.3,0,0.4H740.8z M746.6,869.4c-0.2-1.6-1.2-2.7-2.8-2.7
				c-1.5,0-2.7,1.3-2.9,2.7H746.6z"/>
			<path d="M753.6,874.6c-2.4,0-3.2-1.6-3.3-2.6l1.2-0.3c0.2,0.8,0.8,1.7,2.1,1.7c0.9,0,1.8-0.5,1.8-1.4c0-1.1-1.1-1.3-2-1.4
				c-1.5-0.2-2.9-0.7-2.9-2.4c0-1.6,1.5-2.6,2.9-2.6c2.3,0,3,1.5,3.2,2.4l-1.2,0.3c-0.1-0.6-0.6-1.5-2-1.5c-0.9,0-1.7,0.6-1.7,1.4
				c0,1.1,1.2,1.3,2.1,1.4c1.4,0.2,2.9,0.9,2.9,2.5C756.7,873.6,755.2,874.6,753.6,874.6z"/>
			<path d="M769.8,861.2h1.3l-5.6,13.4h-1.3L769.8,861.2z"/>
			<path d="M784,874.6c-1.6,0-2.7-0.8-3.4-1.9v6.1h-1.3v-13h1.3v1.9c0.7-1.1,1.7-2,3.4-2c2.5,0,4.1,2.2,4.1,4.5
				C788.1,872.4,786.5,874.6,784,874.6z M786.8,870.1c0-1.8-1.1-3.4-3.1-3.4c-1.8,0-3.1,1.6-3.1,3.4c0,1.8,1.3,3.4,3.1,3.4
				C785.7,873.5,786.8,872,786.8,870.1z"/>
			<path d="M796.4,868.8c0-1.4-0.8-2.1-2.2-2.1c-1.5,0-2.1,0.9-2.3,1.8l-1.2-0.3c0.1-0.7,1-2.7,3.5-2.7c1.8,0,2.8,0.8,3.2,1.8
				c0.2,0.5,0.3,1.2,0.3,1.4v5.6h-1.2v-1.5h0c-0.7,1.1-1.6,1.7-2.9,1.7c-1.8,0-2.9-1.1-2.9-2.6V872c0-1.9,1.9-2.5,3.5-2.5h2.4V868.8
				z M794,870.5c-0.9,0-2.2,0.3-2.2,1.5c0,1,0.8,1.5,1.9,1.5c1.6,0,2.7-1.1,2.7-2.7v-0.3H794z"/>
			<path d="M801.8,872.2v-5.3h-1.6v-1.1h1.6v-2.5h1.3v2.5h2.2v1.1H803v5.3c0,0.8,0.5,1.2,1.4,1.2c0.3,0,0.6,0,0.8-0.1v1.1
				c-0.3,0.1-0.8,0.1-1,0.1C802.4,874.5,801.8,873.5,801.8,872.2z"/>
			<path d="M811.9,873.5c1.9,0,2.7-1.4,2.9-2.1l1.2,0.4c-0.4,1.3-1.8,2.8-4.1,2.8c-2.5,0-4.4-1.9-4.4-4.5c0-2.7,2-4.5,4.5-4.5
				c2,0,3.6,1.3,4,2.8l-1.2,0.4c-0.2-0.7-1.1-2-2.9-2c-1.9,0-3.2,1.5-3.2,3.3C808.7,871.9,809.9,873.5,811.9,873.5z"/>
			<path d="M825.2,869.4c0-1.6-0.8-2.7-2.4-2.7c-1.5,0-2.6,1.2-2.6,2.8v5h-1.3v-13.3h1.3v6.2c0.7-1.1,1.7-1.7,3-1.7
				c2.1,0,3.3,1.5,3.3,3.5v5.4h-1.3V869.4z"/>
			<path d="M830.7,870.5c0.1,1.7,1.4,3,3.1,3c1.3,0,2.3-0.6,2.7-1.9l1.1,0.4c-0.5,1.7-2.1,2.6-3.8,2.6c-2.5,0-4.4-2-4.4-4.5
				c0-2.4,1.8-4.5,4.3-4.5c2.7,0,4.1,1.9,4.1,4.5c0,0.1,0,0.3,0,0.4H830.7z M836.5,869.4c-0.2-1.6-1.2-2.7-2.8-2.7
				c-1.5,0-2.7,1.3-2.9,2.7H836.5z"/>
			<path d="M843.5,874.6c-2.4,0-3.2-1.6-3.3-2.6l1.2-0.3c0.2,0.8,0.8,1.7,2.1,1.7c0.9,0,1.8-0.5,1.8-1.4c0-1.1-1.1-1.3-2-1.4
				c-1.5-0.2-2.9-0.7-2.9-2.4c0-1.6,1.5-2.6,2.9-2.6c2.3,0,3,1.5,3.2,2.4l-1.2,0.3c-0.1-0.6-0.6-1.5-2-1.5c-0.9,0-1.7,0.6-1.7,1.4
				c0,1.1,1.2,1.3,2.1,1.4c1.4,0.2,2.9,0.9,2.9,2.5C846.6,873.6,845.2,874.6,843.5,874.6z"/>
		</g>
	</g>
	<g>
		<g>
			<path d="M400.5,868.1c0-3.9,2.9-6.6,6.4-6.6c3.5,0,5.3,2.5,5.7,4.2l-1.3,0.5c-0.2-0.8-1.3-3.4-4.5-3.4c-2.7,0-5,2.1-5,5.2
				c0,3,2.1,5.3,5,5.3c3.1,0,4.1-2.4,4.5-3.4l1.3,0.5c-0.5,1.6-2.1,4.2-5.8,4.2C403.3,874.6,400.5,872,400.5,868.1z"/>
			<path d="M414.9,870.1c0-2.6,1.9-4.5,4.5-4.5c2.5,0,4.5,2,4.5,4.5c0,2.6-2,4.5-4.5,4.5C416.9,874.6,414.9,872.6,414.9,870.1z
				 M422.6,870.1c0-1.8-1.3-3.4-3.2-3.4c-1.9,0-3.2,1.5-3.2,3.4c0,1.8,1.3,3.4,3.2,3.4C421.3,873.5,422.6,872,422.6,870.1z"/>
			<path d="M433.3,869.4c0-1.6-0.8-2.7-2.4-2.7c-1.5,0-2.6,1.2-2.6,2.8v5H427v-8.7h1.3v1.6c0.7-1.2,1.7-1.8,3-1.8
				c2.1,0,3.3,1.5,3.3,3.5v5.4h-1.3V869.4z"/>
			<path d="M444.4,869.4c0-1.6-0.8-2.7-2.4-2.7c-1.5,0-2.6,1.2-2.6,2.8v5h-1.3v-8.7h1.3v1.6c0.7-1.2,1.7-1.8,3-1.8
				c2.1,0,3.3,1.5,3.3,3.5v5.4h-1.3V869.4z"/>
			<path d="M449.9,870.5c0.1,1.7,1.4,3,3.1,3c1.3,0,2.3-0.6,2.7-1.9l1.1,0.4c-0.5,1.7-2.1,2.6-3.8,2.6c-2.5,0-4.4-2-4.4-4.5
				c0-2.4,1.8-4.5,4.3-4.5c2.7,0,4.1,1.9,4.1,4.5c0,0.1,0,0.3,0,0.4H449.9z M455.7,869.4c-0.2-1.6-1.2-2.7-2.8-2.7
				c-1.5,0-2.7,1.3-2.9,2.7H455.7z"/>
			<path d="M463.9,873.5c1.9,0,2.7-1.4,2.9-2.1l1.2,0.4c-0.4,1.3-1.8,2.8-4.1,2.8c-2.5,0-4.4-1.9-4.4-4.5c0-2.7,2-4.5,4.5-4.5
				c2,0,3.6,1.3,4,2.8l-1.2,0.4c-0.2-0.7-1.1-2-2.9-2c-1.9,0-3.2,1.5-3.2,3.3C460.7,871.9,461.9,873.5,463.9,873.5z"/>
			<path d="M471.4,872.2v-5.3h-1.6v-1.1h1.6v-2.5h1.3v2.5h2.2v1.1h-2.2v5.3c0,0.8,0.5,1.2,1.4,1.2c0.3,0,0.6,0,0.8-0.1v1.1
				c-0.3,0.1-0.8,0.1-1,0.1C472,874.5,471.4,873.5,471.4,872.2z"/>
			<path d="M478.5,861.7c0.5,0,1,0.4,1,1c0,0.5-0.4,0.9-1,0.9c-0.5,0-0.9-0.4-0.9-0.9C477.5,862.1,477.9,861.7,478.5,861.7z
				 M479.1,865.7v8.7h-1.3v-8.7H479.1z"/>
			<path d="M481.8,865.7h1.4l3,7.3l3-7.3h1.4l-3.7,8.7h-1.4L481.8,865.7z"/>
			<path d="M493.8,861.7c0.5,0,1,0.4,1,1c0,0.5-0.4,0.9-1,0.9c-0.5,0-0.9-0.4-0.9-0.9C492.9,862.1,493.3,861.7,493.8,861.7z
				 M494.5,865.7v8.7h-1.3v-8.7H494.5z"/>
			<path d="M498.8,872.2v-5.3h-1.6v-1.1h1.6v-2.5h1.3v2.5h2.2v1.1H500v5.3c0,0.8,0.5,1.2,1.4,1.2c0.3,0,0.6,0,0.8-0.1v1.1
				c-0.3,0.1-0.8,0.1-1,0.1C499.3,874.5,498.8,873.5,498.8,872.2z"/>
			<path d="M508.1,873.9l-4-8.1h1.5l3.2,6.8l3-6.8h1.4l-6,13h-1.4L508.1,873.9z"/>
			<path d="M521.4,861.7c0.5,0,1,0.4,1,1c0,0.5-0.4,0.9-1,0.9c-0.5,0-0.9-0.4-0.9-0.9C520.5,862.1,520.9,861.7,521.4,861.7z
				 M522.1,865.7v8.7h-1.3v-8.7H522.1z"/>
			<path d="M528.4,874.6c-2.4,0-3.2-1.6-3.3-2.6l1.2-0.3c0.2,0.8,0.8,1.7,2.1,1.7c0.9,0,1.8-0.5,1.8-1.4c0-1.1-1.1-1.3-2-1.4
				c-1.5-0.2-2.9-0.7-2.9-2.4c0-1.6,1.5-2.6,2.9-2.6c2.3,0,3,1.5,3.2,2.4l-1.2,0.3c-0.1-0.6-0.6-1.5-2-1.5c-0.9,0-1.7,0.6-1.7,1.4
				c0,1.1,1.2,1.3,2.1,1.4c1.4,0.2,2.9,0.9,2.9,2.5C531.5,873.6,530.1,874.6,528.4,874.6z"/>
			<path d="M537.3,874.6c-2.4,0-3.2-1.6-3.3-2.6l1.2-0.3c0.2,0.8,0.8,1.7,2.1,1.7c0.9,0,1.8-0.5,1.8-1.4c0-1.1-1.1-1.3-2-1.4
				c-1.5-0.2-2.9-0.7-2.9-2.4c0-1.6,1.5-2.6,2.9-2.6c2.3,0,3,1.5,3.2,2.4l-1.2,0.3c-0.1-0.6-0.6-1.5-2-1.5c-0.9,0-1.7,0.6-1.7,1.4
				c0,1.1,1.2,1.3,2.1,1.4c1.4,0.2,2.9,0.9,2.9,2.5C540.4,873.6,539,874.6,537.3,874.6z"/>
			<path d="M544.6,870.8c0,1.6,0.8,2.7,2.4,2.7c1.5,0,2.6-1.2,2.6-2.7v-5h1.3v8.7h-1.2v-1.6c-0.7,1.2-1.7,1.8-3,1.8
				c-2.1,0-3.3-1.5-3.3-3.5v-5.4h1.3V870.8z"/>
			<path d="M555.3,870.5c0.1,1.7,1.4,3,3.1,3c1.3,0,2.3-0.6,2.7-1.9l1.1,0.4c-0.5,1.7-2.1,2.6-3.8,2.6c-2.5,0-4.4-2-4.4-4.5
				c0-2.4,1.8-4.5,4.3-4.5c2.7,0,4.1,1.9,4.1,4.5c0,0.1,0,0.3,0,0.4H555.3z M561.1,869.4c-0.2-1.6-1.2-2.7-2.8-2.7
				c-1.5,0-2.7,1.3-2.9,2.7H561.1z"/>
			<path d="M568,874.6c-2.4,0-3.2-1.6-3.3-2.6l1.2-0.3c0.2,0.8,0.8,1.7,2.1,1.7c0.9,0,1.8-0.5,1.8-1.4c0-1.1-1.1-1.3-2-1.4
				c-1.5-0.2-2.9-0.7-2.9-2.4c0-1.6,1.5-2.6,2.9-2.6c2.3,0,3,1.5,3.2,2.4l-1.2,0.3c-0.1-0.6-0.6-1.5-2-1.5c-0.9,0-1.7,0.6-1.7,1.4
				c0,1.1,1.2,1.3,2.1,1.4c1.4,0.2,2.9,0.9,2.9,2.5C571.1,873.6,569.7,874.6,568,874.6z"/>
		</g>
	</g>
	<g>
		<g>
			<path d="M142.5,868.6v5.9h-1.3v-12.8h1.3v5.7h7.3v-5.7h1.3v12.8h-1.3v-5.9H142.5z"/>
			<path d="M160.4,868.8c0-1.4-0.8-2.1-2.2-2.1c-1.5,0-2.1,0.9-2.3,1.8l-1.2-0.3c0.1-0.7,1-2.7,3.5-2.7c1.8,0,2.8,0.8,3.2,1.8
				c0.2,0.5,0.3,1.2,0.3,1.4v5.6h-1.2v-1.5h0c-0.7,1.1-1.6,1.7-2.9,1.7c-1.8,0-2.9-1.1-2.9-2.6V872c0-1.9,1.9-2.5,3.5-2.5h2.4V868.8
				z M158,870.5c-0.9,0-2.2,0.3-2.2,1.5c0,1,0.8,1.5,1.9,1.5c1.6,0,2.7-1.1,2.7-2.7v-0.3H158z"/>
			<path d="M166.5,867.5c0.7-1.4,1.8-1.9,2.8-1.9c0.1,0,0.3,0,0.4,0v1.4c-0.2,0-0.3,0-0.5,0c-2.1,0-2.7,1.7-2.7,3.3v4.3h-1.3v-8.7
				h1.3V867.5z"/>
			<path d="M175.4,865.6c1.7,0,2.7,0.9,3.4,2v-6.4h1.3v13.3h-1.2v-1.9c-0.7,1.1-1.7,2-3.4,2c-2.5,0-4.1-2.1-4.1-4.5
				C171.3,867.8,173,865.6,175.4,865.6z M178.8,870.1c0-1.7-1.3-3.4-3.1-3.4c-1.9,0-3.1,1.5-3.1,3.4c0,1.8,1.1,3.4,3.1,3.4
				C177.5,873.5,178.8,871.9,178.8,870.1z"/>
			<path d="M185.7,874.5l-2.9-8.7h1.4l2.3,7.2h0l2.4-7.2h1.3l2.4,7.3h0l2.3-7.3h1.3l-2.9,8.7h-1.4l-2.3-7.1h0l-2.3,7.1H185.7z"/>
			<path d="M203.8,868.8c0-1.4-0.8-2.1-2.2-2.1c-1.5,0-2.1,0.9-2.3,1.8l-1.2-0.3c0.1-0.7,1-2.7,3.5-2.7c1.8,0,2.8,0.8,3.2,1.8
				c0.2,0.5,0.3,1.2,0.3,1.4v5.6h-1.2v-1.5h0c-0.7,1.1-1.6,1.7-2.9,1.7c-1.8,0-2.9-1.1-2.9-2.6V872c0-1.9,1.9-2.5,3.5-2.5h2.4V868.8
				z M201.3,870.5c-0.9,0-2.2,0.3-2.2,1.5c0,1,0.8,1.5,1.9,1.5c1.6,0,2.7-1.1,2.7-2.7v-0.3H201.3z"/>
			<path d="M209.9,867.5c0.7-1.4,1.8-1.9,2.8-1.9c0.1,0,0.3,0,0.4,0v1.4c-0.2,0-0.3,0-0.5,0c-2.1,0-2.7,1.7-2.7,3.3v4.3h-1.3v-8.7
				h1.3V867.5z"/>
			<path d="M216,870.5c0.1,1.7,1.4,3,3.1,3c1.3,0,2.3-0.6,2.7-1.9l1.1,0.4c-0.5,1.7-2.1,2.6-3.8,2.6c-2.5,0-4.4-2-4.4-4.5
				c0-2.4,1.8-4.5,4.3-4.5c2.7,0,4.1,1.9,4.1,4.5c0,0.1,0,0.3,0,0.4H216z M221.8,869.4c-0.2-1.6-1.2-2.7-2.8-2.7
				c-1.5,0-2.7,1.3-2.9,2.7H221.8z"/>
			<path d="M233.3,864.1v1.7h2.3v1.1h-2.3v7.6h-1.3v-7.6h-1.7v-1.1h1.7v-1.6c0-2,1.1-3,2.7-3c0.2,0,0.6,0,1,0.2v1.1
				c-0.3-0.1-0.7-0.1-0.9-0.1C234.2,862.2,233.3,862.6,233.3,864.1z"/>
			<path d="M243.3,868.8c0-1.4-0.8-2.1-2.2-2.1c-1.5,0-2.1,0.9-2.3,1.8l-1.2-0.3c0.1-0.7,1-2.7,3.5-2.7c1.8,0,2.8,0.8,3.2,1.8
				c0.2,0.5,0.3,1.2,0.3,1.4v5.6h-1.2v-1.5h0c-0.7,1.1-1.6,1.7-2.9,1.7c-1.8,0-2.9-1.1-2.9-2.6V872c0-1.9,1.9-2.5,3.5-2.5h2.4V868.8
				z M240.8,870.5c-0.9,0-2.2,0.3-2.2,1.5c0,1,0.8,1.5,1.9,1.5c1.6,0,2.7-1.1,2.7-2.7v-0.3H240.8z"/>
			<path d="M248.7,861.7c0.5,0,1,0.4,1,1c0,0.5-0.4,0.9-1,0.9c-0.5,0-0.9-0.4-0.9-0.9C247.8,862.1,248.2,861.7,248.7,861.7z
				 M249.4,865.7v8.7h-1.3v-8.7H249.4z"/>
			<path d="M254.4,861.1v13.3h-1.3v-13.3H254.4z"/>
			<path d="M259.2,870.8c0,1.6,0.8,2.7,2.4,2.7c1.5,0,2.6-1.2,2.6-2.7v-5h1.3v8.7h-1.2v-1.6c-0.7,1.2-1.7,1.8-3,1.8
				c-2.1,0-3.3-1.5-3.3-3.5v-5.4h1.3V870.8z"/>
			<path d="M270.5,867.5c0.7-1.4,1.8-1.9,2.8-1.9c0.1,0,0.3,0,0.4,0v1.4c-0.2,0-0.3,0-0.5,0c-2.1,0-2.7,1.7-2.7,3.3v4.3h-1.3v-8.7
				h1.3V867.5z"/>
			<path d="M276.6,870.5c0.1,1.7,1.4,3,3.1,3c1.3,0,2.3-0.6,2.7-1.9l1.1,0.4c-0.5,1.7-2.1,2.6-3.8,2.6c-2.5,0-4.4-2-4.4-4.5
				c0-2.4,1.8-4.5,4.3-4.5c2.7,0,4.1,1.9,4.1,4.5c0,0.1,0,0.3,0,0.4H276.6z M282.4,869.4c-0.2-1.6-1.2-2.7-2.8-2.7
				c-1.5,0-2.7,1.3-2.9,2.7H282.4z"/>
		</g>
	</g>
	<g>
		<g>
			<path d="M970.4,868.1c0-3.9,2.9-6.6,6.4-6.6c3.5,0,5.3,2.5,5.7,4.2l-1.3,0.5c-0.2-0.8-1.3-3.4-4.5-3.4c-2.7,0-5,2.1-5,5.2
				c0,3,2.1,5.3,5,5.3c3.1,0,4.1-2.4,4.5-3.4l1.3,0.5c-0.5,1.6-2.1,4.2-5.8,4.2C973.2,874.6,970.4,872,970.4,868.1z"/>
			<path d="M986.8,861.1v13.3h-1.3v-13.3H986.8z"/>
			<path d="M989.8,870.1c0-2.6,1.9-4.5,4.5-4.5c2.5,0,4.5,2,4.5,4.5c0,2.6-2,4.5-4.5,4.5C991.8,874.6,989.8,872.6,989.8,870.1z
				 M997.5,870.1c0-1.8-1.3-3.4-3.2-3.4c-1.9,0-3.2,1.5-3.2,3.4c0,1.8,1.3,3.4,3.2,3.4C996.2,873.5,997.5,872,997.5,870.1z"/>
			<path d="M1003.1,870.8c0,1.6,0.8,2.7,2.4,2.7c1.5,0,2.6-1.2,2.6-2.7v-5h1.3v8.7h-1.2v-1.6c-0.7,1.2-1.7,1.8-3,1.8
				c-2.1,0-3.3-1.5-3.3-3.5v-5.4h1.3V870.8z"/>
			<path d="M1016.5,865.6c1.7,0,2.7,0.9,3.4,2v-6.4h1.3v13.3h-1.2v-1.9c-0.7,1.1-1.7,2-3.4,2c-2.5,0-4.1-2.1-4.1-4.5
				C1012.4,867.8,1014,865.6,1016.5,865.6z M1019.9,870.1c0-1.7-1.3-3.4-3.1-3.4c-1.9,0-3.1,1.5-3.1,3.4c0,1.8,1.1,3.4,3.1,3.4
				C1018.6,873.5,1019.9,871.9,1019.9,870.1z"/>
			<path d="M1029.6,870.1c0-2.6,1.9-4.5,4.5-4.5c2.5,0,4.5,2,4.5,4.5c0,2.6-2,4.5-4.5,4.5C1031.6,874.6,1029.6,872.6,1029.6,870.1z
				 M1037.3,870.1c0-1.8-1.3-3.4-3.2-3.4c-1.9,0-3.2,1.5-3.2,3.4c0,1.8,1.3,3.4,3.2,3.4C1036,873.5,1037.3,872,1037.3,870.1z"/>
			<path d="M1042.9,870.8c0,1.6,0.8,2.7,2.4,2.7c1.5,0,2.6-1.2,2.6-2.7v-5h1.3v8.7h-1.2v-1.6c-0.7,1.2-1.7,1.8-3,1.8
				c-2.1,0-3.3-1.5-3.3-3.5v-5.4h1.3V870.8z"/>
			<path d="M1053.4,872.2v-5.3h-1.6v-1.1h1.6v-2.5h1.3v2.5h2.2v1.1h-2.2v5.3c0,0.8,0.5,1.2,1.4,1.2c0.3,0,0.6,0,0.8-0.1v1.1
				c-0.3,0.1-0.8,0.1-1,0.1C1054,874.5,1053.4,873.5,1053.4,872.2z"/>
			<path d="M1065.1,868.8c0-1.4-0.8-2.1-2.2-2.1c-1.5,0-2.1,0.9-2.3,1.8l-1.2-0.3c0.1-0.7,1-2.7,3.6-2.7c1.8,0,2.8,0.8,3.2,1.8
				c0.2,0.5,0.3,1.2,0.3,1.4v5.6h-1.2v-1.5h0c-0.7,1.1-1.6,1.7-2.9,1.7c-1.8,0-2.9-1.1-2.9-2.6V872c0-1.9,1.9-2.5,3.5-2.5h2.4V868.8
				z M1062.7,870.5c-0.9,0-2.2,0.3-2.2,1.5c0,1,0.8,1.5,1.9,1.5c1.6,0,2.7-1.1,2.7-2.7v-0.3H1062.7z"/>
			<path d="M1076.8,872.5c-0.7,1.1-1.7,2-3.4,2c-2.5,0-4.1-2.1-4.1-4.4c0-2.3,1.6-4.5,4.1-4.5c1.7,0,2.7,0.9,3.4,2v-1.8h1.3v8.8
				c0,2.8-1.7,4.3-4.4,4.3c-2.3,0-3.9-1.1-4.3-3l1.2-0.4c0.3,1,1.1,2.3,3.1,2.3c1.7,0,3.1-0.9,3.1-3.2V872.5z M1076.8,870
				c0-1.7-1.3-3.3-3.1-3.3c-1.9,0-3,1.5-3,3.4c0,1.8,1.1,3.3,3,3.3C1075.6,873.4,1076.8,871.8,1076.8,870z"/>
			<path d="M1082.5,870.5c0.1,1.7,1.4,3,3.1,3c1.3,0,2.3-0.6,2.7-1.9l1.1,0.4c-0.5,1.7-2.1,2.6-3.8,2.6c-2.5,0-4.4-2-4.4-4.5
				c0-2.4,1.8-4.5,4.3-4.5c2.7,0,4.1,1.9,4.1,4.5c0,0.1,0,0.3,0,0.4H1082.5z M1088.2,869.4c-0.2-1.6-1.2-2.7-2.8-2.7
				c-1.5,0-2.7,1.3-2.9,2.7H1088.2z"/>
			<path d="M1095.2,874.6c-2.4,0-3.2-1.6-3.3-2.6l1.2-0.3c0.2,0.8,0.8,1.7,2.1,1.7c0.9,0,1.8-0.5,1.8-1.4c0-1.1-1.1-1.3-2-1.4
				c-1.5-0.2-2.9-0.7-2.9-2.4c0-1.6,1.5-2.6,2.9-2.6c2.3,0,3,1.5,3.2,2.4l-1.2,0.3c-0.1-0.6-0.6-1.5-2-1.5c-0.9,0-1.7,0.6-1.7,1.4
				c0,1.1,1.2,1.3,2.1,1.4c1.4,0.2,2.9,0.9,2.9,2.5C1098.3,873.6,1096.9,874.6,1095.2,874.6z"/>
		</g>
	</g>
	<g>
		<path d="M1214.6,860.4h1.4l3.4,10.9h0l3.4-10.9h1.5l3.4,10.9h0l3.4-10.9h1.4l-4,12.8h-1.5l-3.4-11l-3.4,11h-1.5L1214.6,860.4z"/>
		<path d="M1235.2,869.2c0.1,1.7,1.4,3,3.1,3c1.3,0,2.3-0.6,2.7-1.9l1.1,0.4c-0.5,1.7-2.1,2.6-3.8,2.6c-2.5,0-4.4-2-4.4-4.5
			c0-2.4,1.8-4.5,4.3-4.5c2.7,0,4.1,1.9,4.1,4.5c0,0.1,0,0.3,0,0.4H1235.2z M1241,868.2c-0.2-1.6-1.2-2.7-2.8-2.7
			c-1.5,0-2.7,1.3-2.9,2.7H1241z"/>
		<path d="M1254.1,864.3c1.7,0,2.7,0.9,3.4,2v-6.4h1.3v13.3h-1.2v-1.9c-0.7,1.1-1.7,2-3.4,2c-2.5,0-4.1-2.1-4.1-4.5
			C1250,866.5,1251.7,864.3,1254.1,864.3z M1257.5,868.8c0-1.7-1.3-3.4-3.1-3.4c-1.9,0-3.1,1.5-3.1,3.4c0,1.8,1.1,3.4,3.1,3.4
			C1256.2,872.2,1257.5,870.6,1257.5,868.8z"/>
		<path d="M1263.1,860.4c0.5,0,1,0.4,1,1c0,0.5-0.4,0.9-1,0.9c-0.5,0-0.9-0.4-0.9-0.9C1262.2,860.8,1262.6,860.4,1263.1,860.4z
			 M1263.8,864.5v8.7h-1.3v-8.7H1263.8z"/>
		<path d="M1270.9,864.3c1.7,0,2.7,0.9,3.4,2v-6.4h1.3v13.3h-1.2v-1.9c-0.7,1.1-1.7,2-3.4,2c-2.5,0-4.1-2.1-4.1-4.5
			C1266.9,866.5,1268.5,864.3,1270.9,864.3z M1274.3,868.8c0-1.7-1.3-3.4-3.1-3.4c-1.9,0-3.1,1.5-3.1,3.4c0,1.8,1.1,3.4,3.1,3.4
			C1273.1,872.2,1274.3,870.6,1274.3,868.8z"/>
		<path d="M1285.6,868.1c0-1.6-0.8-2.6-2.4-2.6c-1.5,0-2.6,1.2-2.6,2.8v5h-1.3v-8.7h1.3v1.6c0.7-1.2,1.7-1.8,3-1.8
			c2.1,0,3.3,1.5,3.3,3.5v5.4h-1.3V868.1z"/>
		<path d="M1289.7,864.4c0.7-0.6,1.3-1.2,1.4-2c-0.1,0.1-0.3,0.1-0.4,0.1c-0.6,0-1.1-0.4-1.1-1.1c0-0.7,0.5-1.2,1.1-1.2
			c0.8,0,1.3,0.6,1.3,1.6v0.1c0,1.1-0.6,2.2-1.8,3L1289.7,864.4z"/>
		<path d="M1295.9,870.9v-5.3h-1.6v-1.1h1.6V862h1.3v2.5h2.2v1.1h-2.2v5.3c0,0.8,0.5,1.2,1.4,1.2c0.3,0,0.6,0,0.8-0.1v1.1
			c-0.3,0.1-0.8,0.1-1,0.1C1296.4,873.3,1295.9,872.2,1295.9,870.9z"/>
		<path d="M1308.3,869.2c0.1,1.7,1.4,3,3.1,3c1.3,0,2.3-0.6,2.7-1.9l1.1,0.4c-0.5,1.7-2.1,2.6-3.8,2.6c-2.5,0-4.4-2-4.4-4.5
			c0-2.4,1.8-4.5,4.3-4.5c2.7,0,4.1,1.9,4.1,4.5c0,0.1,0,0.3,0,0.4H1308.3z M1314.1,868.2c-0.2-1.6-1.2-2.7-2.8-2.7
			c-1.5,0-2.7,1.3-2.9,2.7H1314.1z"/>
		<path d="M1318.5,873.2h-1.5l3.4-4.4l-3.3-4.3h1.5l2.6,3.4l2.6-3.4h1.5l-3.3,4.3l3.5,4.4h-1.5l-2.7-3.5L1318.5,873.2z"/>
		<path d="M1332.6,873.3c-1.6,0-2.7-0.8-3.4-1.9v6.1h-1.3v-13h1.3v1.9c0.7-1.1,1.7-2,3.4-2c2.5,0,4.1,2.2,4.1,4.5
			C1336.8,871.2,1335.1,873.3,1332.6,873.3z M1335.4,868.9c0-1.8-1.1-3.4-3.1-3.4c-1.8,0-3.1,1.6-3.1,3.4c0,1.8,1.3,3.4,3.1,3.4
			C1334.3,872.2,1335.4,870.7,1335.4,868.9z"/>
		<path d="M1340.5,869.2c0.1,1.7,1.4,3,3.1,3c1.3,0,2.3-0.6,2.7-1.9l1.1,0.4c-0.5,1.7-2.1,2.6-3.8,2.6c-2.5,0-4.4-2-4.4-4.5
			c0-2.4,1.8-4.5,4.3-4.5c2.7,0,4.1,1.9,4.1,4.5c0,0.1,0,0.3,0,0.4H1340.5z M1346.3,868.2c-0.2-1.6-1.2-2.7-2.8-2.7
			c-1.5,0-2.7,1.3-2.9,2.7H1346.3z"/>
		<path d="M1351.8,866.2c0.7-1.4,1.8-1.9,2.8-1.9c0.1,0,0.3,0,0.4,0v1.4c-0.2,0-0.3,0-0.5,0c-2.1,0-2.7,1.7-2.7,3.3v4.3h-1.3v-8.7
			h1.3V866.2z"/>
		<path d="M1358.2,860.4c0.5,0,1,0.4,1,1c0,0.5-0.4,0.9-1,0.9c-0.5,0-0.9-0.4-0.9-0.9C1357.3,860.8,1357.7,860.4,1358.2,860.4z
			 M1358.9,864.5v8.7h-1.3v-8.7H1358.9z"/>
		<path d="M1363.2,869.2c0.1,1.7,1.4,3,3.1,3c1.3,0,2.3-0.6,2.7-1.9l1.1,0.4c-0.5,1.7-2.1,2.6-3.8,2.6c-2.5,0-4.4-2-4.4-4.5
			c0-2.4,1.8-4.5,4.3-4.5c2.7,0,4.1,1.9,4.1,4.5c0,0.1,0,0.3,0,0.4H1363.2z M1369,868.2c-0.2-1.6-1.2-2.7-2.8-2.7
			c-1.5,0-2.7,1.3-2.9,2.7H1369z"/>
		<path d="M1379.6,868.1c0-1.6-0.8-2.6-2.4-2.6c-1.5,0-2.6,1.2-2.6,2.8v5h-1.3v-8.7h1.3v1.6c0.7-1.2,1.7-1.8,3-1.8
			c2.1,0,3.3,1.5,3.3,3.5v5.4h-1.3V868.1z"/>
		<path d="M1388.3,872.2c1.9,0,2.7-1.4,2.9-2.1l1.2,0.4c-0.4,1.3-1.8,2.8-4.1,2.8c-2.5,0-4.4-1.9-4.4-4.5c0-2.7,2-4.5,4.5-4.5
			c2,0,3.6,1.3,4,2.8l-1.2,0.4c-0.2-0.7-1.1-2-2.9-2c-1.9,0-3.2,1.5-3.2,3.3C1385.1,870.6,1386.3,872.2,1388.3,872.2z"/>
		<path d="M1396,869.2c0.1,1.7,1.4,3,3.1,3c1.3,0,2.3-0.6,2.7-1.9l1.1,0.4c-0.5,1.7-2.1,2.6-3.8,2.6c-2.5,0-4.4-2-4.4-4.5
			c0-2.4,1.8-4.5,4.3-4.5c2.7,0,4.1,1.9,4.1,4.5c0,0.1,0,0.3,0,0.4H1396z M1401.8,868.2c-0.2-1.6-1.2-2.7-2.8-2.7
			c-1.5,0-2.7,1.3-2.9,2.7H1401.8z"/>
		<path d="M1253.5,887.2c0-1.4-0.8-2.1-2.2-2.1c-1.5,0-2.1,0.9-2.3,1.8l-1.2-0.3c0.1-0.7,1-2.7,3.6-2.7c1.8,0,2.8,0.8,3.2,1.8
			c0.2,0.5,0.3,1.2,0.3,1.4v5.6h-1.2v-1.5h0c-0.7,1.1-1.6,1.7-2.9,1.7c-1.8,0-2.9-1.1-2.9-2.6v-0.1c0-1.9,1.9-2.5,3.5-2.5h2.4V887.2
			z M1251.1,888.8c-0.9,0-2.2,0.3-2.2,1.5c0,1,0.8,1.5,1.9,1.5c1.6,0,2.7-1.1,2.7-2.7v-0.3H1251.1z"/>
		<path d="M1264.7,887.7c0-1.6-0.8-2.7-2.4-2.7c-1.5,0-2.6,1.2-2.6,2.8v5h-1.3v-8.7h1.3v1.6c0.7-1.2,1.7-1.8,3-1.8
			c2.1,0,3.3,1.5,3.3,3.5v5.4h-1.3V887.7z"/>
		<path d="M1272.1,892.2l-4-8.1h1.5l3.2,6.8l3-6.8h1.4l-6,13h-1.4L1272.1,892.2z"/>
		<path d="M1288.3,883.9c1.7,0,2.7,0.9,3.4,2v-6.4h1.3v13.3h-1.2V891c-0.7,1.1-1.7,2-3.4,2c-2.5,0-4.1-2.1-4.1-4.5
			C1284.2,886.2,1285.8,883.9,1288.3,883.9z M1291.7,888.4c0-1.7-1.3-3.4-3.1-3.4c-1.9,0-3.1,1.5-3.1,3.4c0,1.8,1.1,3.4,3.1,3.4
			C1290.4,891.8,1291.7,890.2,1291.7,888.4z"/>
		<path d="M1296,888.5c0-2.6,1.9-4.5,4.5-4.5c2.5,0,4.5,2,4.5,4.5c0,2.6-2,4.5-4.5,4.5C1297.9,893,1296,891,1296,888.5z
			 M1303.7,888.5c0-1.8-1.3-3.4-3.2-3.4c-1.9,0-3.2,1.5-3.2,3.4c0,1.8,1.3,3.4,3.2,3.4C1302.4,891.8,1303.7,890.3,1303.7,888.5z"/>
		<path d="M1309.8,892.8l-2.9-8.7h1.4l2.3,7.2h0l2.4-7.2h1.3l2.4,7.3h0l2.3-7.3h1.3l-2.9,8.7h-1.4l-2.3-7.1h0l-2.3,7.1H1309.8z"/>
		<path d="M1329.2,887.7c0-1.6-0.8-2.7-2.4-2.7c-1.5,0-2.6,1.2-2.6,2.8v5h-1.3v-8.7h1.3v1.6c0.7-1.2,1.7-1.8,3-1.8
			c2.1,0,3.3,1.5,3.3,3.5v5.4h-1.3V887.7z"/>
		<path d="M1334.5,890.6v-5.3h-1.6v-1.1h1.6v-2.5h1.3v2.5h2.2v1.1h-2.2v5.3c0,0.8,0.5,1.2,1.4,1.2c0.3,0,0.6,0,0.8-0.1v1.1
			c-0.3,0.1-0.8,0.1-1,0.1C1335.1,892.9,1334.5,891.8,1334.5,890.6z"/>
		<path d="M1341.6,880c0.5,0,1,0.4,1,1c0,0.5-0.4,0.9-1,0.9c-0.5,0-0.9-0.4-0.9-0.9C1340.6,880.4,1341.1,880,1341.6,880z
			 M1342.2,884.1v8.7h-1.3v-8.7H1342.2z"/>
		<path d="M1351.9,887.7c0-1.4-0.7-2.6-2.3-2.6c-1.5,0-2.4,1.3-2.4,2.8v5h-1.3v-8.7h1.3v1.5c0.7-1.1,1.5-1.7,2.8-1.7
			c1.3,0,2.3,0.6,2.8,1.8c0.7-1.1,1.7-1.7,3.1-1.7c2.1,0,3.2,1.5,3.2,3.5v5.4h-1.3v-5.1c0-1.5-0.7-2.6-2.3-2.6
			c-1.5,0-2.4,1.2-2.4,2.7v5h-1.3V887.7z"/>
		<path d="M1363.4,888.9c0.1,1.7,1.4,3,3.1,3c1.3,0,2.3-0.6,2.7-1.9l1.1,0.4c-0.5,1.7-2.1,2.6-3.8,2.6c-2.5,0-4.4-2-4.4-4.5
			c0-2.4,1.8-4.5,4.3-4.5c2.7,0,4.1,1.9,4.1,4.5c0,0.1,0,0.3,0,0.4H1363.4z M1369.1,887.8c-0.2-1.6-1.2-2.7-2.8-2.7
			c-1.5,0-2.7,1.3-2.9,2.7H1369.1z"/>
	</g>
</g>
<g id="whiteChartDR2">
	<g>
		<g>
			<path class="st2-dr2" d="M657.9,660.1l-3.5,2.1l-0.7-1.2l4.2-2.6h1.5v14.6h-1.5V660.1z"/>
			<path class="st2-dr2" d="M667.4,673.3c-2.6,0-4.7-1.6-5-4l1.5-0.3c0.3,1.7,1.6,2.9,3.6,2.9c2,0,3.5-1.1,3.5-2.7
				c0-1.7-1.3-2.7-3.5-2.7h-1.5V665h1.4c2,0,3.3-1.2,3.3-2.6c0-1.5-1.1-2.6-3.2-2.6c-2,0-3.2,1.2-3.4,2.7l-1.5-0.3
				c0.3-2,2.2-3.8,4.9-3.8c3.2,0,4.7,1.9,4.7,3.9c0,1.7-0.9,2.7-2.3,3.4v0c1.7,0.5,2.7,1.8,2.7,3.5
				C672.5,671.4,670.5,673.3,667.4,673.3z"/>
			<path class="st2-dr2" d="M675.9,666.4c-1.1,0-1.9-0.9-1.9-1.9c0-1.1,0.9-1.9,1.9-1.9c1.1,0,1.9,0.9,1.9,1.9
				C677.8,665.5,677,666.4,675.9,666.4z M675.9,663.3c-0.7,0-1.2,0.5-1.2,1.2c0,0.7,0.5,1.2,1.2,1.2s1.2-0.5,1.2-1.2
				C677.1,663.8,676.6,663.3,675.9,663.3z M680.6,662.6h0.9l-5.6,8.5h-0.9L680.6,662.6z M680.6,671.2c-1.1,0-1.9-0.9-1.9-1.9
				c0-1.1,0.9-1.9,1.9-1.9s1.9,0.9,1.9,1.9C682.6,670.4,681.7,671.2,680.6,671.2z M680.6,668.1c-0.7,0-1.2,0.5-1.2,1.2
				c0,0.7,0.5,1.2,1.2,1.2c0.7,0,1.2-0.5,1.2-1.2C681.8,668.6,681.3,668.1,680.6,668.1z"/>
		</g>
	</g>
	<g>
		<g>
			<g>
				<rect x="653.4" y="684.6" class="st2-dr2" width="71.3" height="139.6"/>
			</g>
		</g>
	</g>
	<g>
		<g>
			<path class="st2-dr2" d="M380.2,597.8c0-1.7,0.8-3.6,3.4-5.1l2.2-1.4c1.4-0.9,2.6-1.8,2.6-3.5c0-1.5-1.3-2.9-3.2-2.9
				c-1.6,0-2.6,1-3,1.9c-0.3,0.6-0.3,1.2-0.3,1.4l-1.5-0.2c0-2.1,1.8-4.5,4.9-4.5c2.7,0,4.8,2.1,4.8,4.3c0,2.1-1.2,3.3-3.1,4.5
				l-2.3,1.4c-1.3,0.8-2.4,1.8-2.5,3.1h8v1.4h-9.9V597.8z"/>
			<path class="st2-dr2" d="M392.2,591c0-3.6,2.1-7.5,6.1-7.5c4,0,6,3.8,6,7.4c0,3.6-2.1,7.5-6.1,7.5C394.2,598.4,392.2,594.6,392.2,591
				z M393.8,590.9c0,2.6,1.3,6.1,4.5,6.1c3.2,0,4.5-3.4,4.5-6c0-2.6-1.4-6.1-4.5-6.1C395.1,584.9,393.8,588.3,393.8,590.9z"/>
			<path class="st2-dr2" d="M407.8,591.6c-1.1,0-1.9-0.9-1.9-1.9c0-1.1,0.9-1.9,1.9-1.9c1.1,0,1.9,0.9,1.9,1.9
				C409.7,590.7,408.9,591.6,407.8,591.6z M407.8,588.4c-0.7,0-1.2,0.5-1.2,1.2c0,0.7,0.5,1.2,1.2,1.2s1.2-0.5,1.2-1.2
				C409,589,408.5,588.4,407.8,588.4z M412.5,587.8h0.9l-5.6,8.5H407L412.5,587.8z M412.5,596.4c-1.1,0-1.9-0.9-1.9-1.9
				c0-1.1,0.9-1.9,1.9-1.9c1.1,0,1.9,0.9,1.9,1.9C414.5,595.5,413.6,596.4,412.5,596.4z M412.5,593.3c-0.7,0-1.2,0.5-1.2,1.2
				c0,0.7,0.5,1.2,1.2,1.2c0.7,0,1.2-0.5,1.2-1.2C413.7,593.8,413.2,593.3,412.5,593.3z"/>
		</g>
	</g>
	<g>
		<g>
			<g>
				<rect x="379.2" y="609.5" class="st2-dr2" width="71.3" height="214.7"/>
			</g>
		</g>
	</g>
	<g>
		<g>
			<path class="st2-dr2" d="M105.9,553.7c0-1.7,0.8-3.6,3.4-5.1l2.2-1.4c1.4-0.9,2.6-1.8,2.6-3.5c0-1.5-1.3-2.9-3.2-2.9
				c-1.6,0-2.6,1-3,1.9c-0.3,0.6-0.3,1.2-0.3,1.4l-1.5-0.2c0-2.1,1.8-4.5,4.9-4.5c2.7,0,4.8,2.1,4.8,4.3c0,2.1-1.2,3.3-3.1,4.5
				l-2.3,1.4c-1.3,0.8-2.4,1.8-2.5,3.1h8v1.4h-9.9V553.7z"/>
			<path class="st2-dr2" d="M124.7,554.1v-3.5h-7.6v-1.7l7.2-9.4h1.9v9.8h2.4v1.3h-2.4v3.5H124.7z M124.7,549.3v-8.2l-6.2,8.2H124.7z"/>
			<path class="st2-dr2" d="M131.6,547.4c-1.1,0-1.9-0.9-1.9-1.9c0-1.1,0.9-1.9,1.9-1.9c1.1,0,1.9,0.9,1.9,1.9
				C133.5,546.5,132.7,547.4,131.6,547.4z M131.6,544.3c-0.7,0-1.2,0.5-1.2,1.2c0,0.7,0.5,1.2,1.2,1.2c0.7,0,1.2-0.5,1.2-1.2
				C132.8,544.8,132.3,544.3,131.6,544.3z M136.3,543.6h0.9l-5.6,8.5h-0.9L136.3,543.6z M136.3,552.2c-1.1,0-1.9-0.9-1.9-1.9
				c0-1.1,0.9-1.9,1.9-1.9s1.9,0.9,1.9,1.9C138.3,551.4,137.4,552.2,136.3,552.2z M136.3,549.1c-0.7,0-1.2,0.5-1.2,1.2
				c0,0.7,0.5,1.2,1.2,1.2c0.7,0,1.2-0.5,1.2-1.2C137.5,549.6,137,549.1,136.3,549.1z"/>
		</g>
	</g>
	<g>
		<g>
			<g>
				<rect x="104.9" y="565.8" class="st2-dr2" width="71.3" height="257.7"/>
			</g>
		</g>
	</g>
	<g>
		<g>
			<g>
				<rect x="927.7" y="781.2" class="st2-dr2" width="71.3" height="42.9"/>
			</g>
		</g>
	</g>
	<g>
		<path class="st2-dr2" d="M935.9,774.2v-3.5h-7.6V769l7.2-9.4h1.9v9.8h2.4v1.3h-2.4v3.5H935.9z M935.9,769.3v-8.2l-6.2,8.2H935.9z"/>
		<path class="st2-dr2" d="M942.8,767.4c-1.1,0-1.9-0.9-1.9-1.9c0-1.1,0.9-1.9,1.9-1.9c1.1,0,1.9,0.9,1.9,1.9
			C944.7,766.6,943.9,767.4,942.8,767.4z M942.8,764.3c-0.7,0-1.2,0.5-1.2,1.2c0,0.7,0.5,1.2,1.2,1.2c0.7,0,1.2-0.5,1.2-1.2
			C944,764.9,943.4,764.3,942.8,764.3z M947.5,763.7h0.9l-5.6,8.5h-0.9L947.5,763.7z M947.5,772.3c-1.1,0-1.9-0.9-1.9-1.9
			c0-1.1,0.9-1.9,1.9-1.9c1.1,0,1.9,0.9,1.9,1.9C949.4,771.4,948.6,772.3,947.5,772.3z M947.5,769.2c-0.7,0-1.2,0.5-1.2,1.2
			c0,0.7,0.5,1.2,1.2,1.2c0.7,0,1.2-0.5,1.2-1.2C948.7,769.7,948.2,769.2,947.5,769.2z"/>
	</g>
	<g>
		<g>
			<g>
				<rect x="1202" y="630.9" class="st2-dr2" width="71.3" height="193.3"/>
			</g>
		</g>
	</g>
	<g>
		<path class="st2-dr2" d="M1206.4,608.5l-3.5,2.1l-0.7-1.2l4.2-2.6h1.5v14.6h-1.5V608.5z"/>
		<path class="st2-dr2" d="M1211.1,617.5c0-1.5,1.1-2.9,3.1-3.6c-1.8-0.5-2.7-2.1-2.7-3.3c0-2.5,2.6-3.9,4.8-3.9c2.2,0,4.8,1.3,4.8,3.9
			c0,1.4-1,2.8-2.7,3.3c2,0.6,3.1,2,3.1,3.6c0,2.7-2.6,4.1-5.1,4.1C1213.8,621.7,1211.1,620.3,1211.1,617.5z M1219.9,617.5
			c0-1.9-2-2.8-3.6-2.8c-1.5,0-3.6,0.9-3.6,2.8c0,2,2,2.8,3.6,2.8C1217.8,620.3,1219.9,619.4,1219.9,617.5z M1213,610.7
			c0,1.9,2,2.7,3.3,2.7c1.3,0,3.3-0.9,3.3-2.7c0-1.7-1.9-2.6-3.3-2.6C1214.9,608.1,1213,609,1213,610.7z"/>
		<path class="st2-dr2" d="M1224.9,614.8c-1.1,0-1.9-0.9-1.9-1.9c0-1.1,0.9-1.9,1.9-1.9c1.1,0,1.9,0.9,1.9,1.9
			C1226.8,613.9,1225.9,614.8,1224.9,614.8z M1224.9,611.7c-0.7,0-1.2,0.5-1.2,1.2c0,0.7,0.5,1.2,1.2,1.2c0.7,0,1.2-0.5,1.2-1.2
			C1226.1,612.2,1225.5,611.7,1224.9,611.7z M1229.6,611h0.9l-5.6,8.5h-0.9L1229.6,611z M1229.6,619.6c-1.1,0-1.9-0.9-1.9-1.9
			c0-1.1,0.9-1.9,1.9-1.9c1.1,0,1.9,0.9,1.9,1.9C1231.5,618.8,1230.7,619.6,1229.6,619.6z M1229.6,616.5c-0.7,0-1.2,0.5-1.2,1.2
			c0,0.7,0.5,1.2,1.2,1.2c0.7,0,1.2-0.5,1.2-1.2C1230.8,617,1230.3,616.5,1229.6,616.5z"/>
	</g>
</g>
<g id="yellowChartDR2">
	<g>
		<path class="st0-dr2" d="M742.6,713c-1,1.6-2.9,2.2-4.1,2.2c-3.1,0-4.9-2.3-4.9-4.7c0-3.3,2.6-5,5.2-5c1.6,0,3.4,0.9,4.3,2.5
			c0.7,1.3,1,2.4,1,4.1c0,4.8-2.3,8.3-6.8,8.3c-0.8,0-2.4-0.2-3.4-0.9l0.6-1.4c1,0.6,2.1,0.8,2.8,0.8
			C740.5,719,742.4,716.4,742.6,713z M741.2,713c0.7-0.6,1.2-1.6,1.2-2.6c0-2.2-1.8-3.5-3.6-3.5c-1.9,0-3.6,1.2-3.6,3.5
			c0,1.8,1.3,3.4,3.6,3.4C739.6,713.9,740.5,713.6,741.2,713z"/>
		<path class="st0-dr2" d="M747.6,713.6c-1.1,0-1.9-0.9-1.9-1.9c0-1.1,0.9-1.9,1.9-1.9c1.1,0,1.9,0.9,1.9,1.9
			C749.5,712.7,748.6,713.6,747.6,713.6z M747.6,710.5c-0.7,0-1.2,0.5-1.2,1.2c0,0.7,0.5,1.2,1.2,1.2s1.2-0.5,1.2-1.2
			C748.8,711,748.2,710.5,747.6,710.5z M752.3,709.8h0.9l-5.6,8.5h-0.9L752.3,709.8z M752.3,718.4c-1.1,0-1.9-0.9-1.9-1.9
			c0-1.1,0.9-1.9,1.9-1.9c1.1,0,1.9,0.9,1.9,1.9C754.2,717.6,753.4,718.4,752.3,718.4z M752.3,715.3c-0.7,0-1.2,0.5-1.2,1.2
			c0,0.7,0.5,1.2,1.2,1.2c0.7,0,1.2-0.5,1.2-1.2C753.5,715.8,753,715.3,752.3,715.3z"/>
	</g>
	<g>
		<g>
			<g>
				<rect x="724.8" y="727.5" class="st0-dr2" width="71.3" height="96.6"/>
			</g>
		</g>
	</g>
	<g>
		<path class="st0-dr2" d="M451.5,501.3c0-1.7,0.8-3.6,3.4-5.1l2.2-1.4c1.4-0.9,2.6-1.8,2.6-3.5c0-1.5-1.3-2.9-3.2-2.9
			c-1.6,0-2.6,1-3,1.9c-0.3,0.6-0.3,1.2-0.3,1.4l-1.5-0.2c0-2.1,1.8-4.5,4.9-4.5c2.7,0,4.8,2.1,4.8,4.3c0,2.1-1.2,3.3-3.1,4.5
			l-2.3,1.4c-1.3,0.8-2.4,1.8-2.5,3.1h8v1.4h-9.9V501.3z"/>
		<path class="st0-dr2" d="M472.5,494.5c-1,1.6-2.9,2.2-4.1,2.2c-3.1,0-4.9-2.3-4.9-4.7c0-3.3,2.6-5,5.2-5c1.6,0,3.4,0.9,4.3,2.5
			c0.7,1.3,1,2.4,1,4.1c0,4.8-2.3,8.3-6.8,8.3c-0.8,0-2.4-0.2-3.4-0.9l0.6-1.4c1,0.6,2.1,0.8,2.8,0.8
			C470.4,500.4,472.2,497.9,472.5,494.5z M471.1,494.4c0.7-0.6,1.2-1.6,1.2-2.6c0-2.2-1.8-3.5-3.6-3.5c-1.9,0-3.6,1.2-3.6,3.5
			c0,1.8,1.3,3.4,3.6,3.4C469.5,495.3,470.4,495,471.1,494.4z"/>
		<path class="st0-dr2" d="M477.4,495c-1.1,0-1.9-0.9-1.9-1.9c0-1.1,0.9-1.9,1.9-1.9c1.1,0,1.9,0.9,1.9,1.9
			C479.4,494.2,478.5,495,477.4,495z M477.4,491.9c-0.7,0-1.2,0.5-1.2,1.2c0,0.7,0.5,1.2,1.2,1.2s1.2-0.5,1.2-1.2
			C478.6,492.4,478.1,491.9,477.4,491.9z M482.1,491.3h0.9l-5.6,8.5h-0.9L482.1,491.3z M482.1,499.9c-1.1,0-1.9-0.9-1.9-1.9
			c0-1.1,0.9-1.9,1.9-1.9c1.1,0,1.9,0.9,1.9,1.9C484.1,499,483.2,499.9,482.1,499.9z M482.1,496.7c-0.7,0-1.2,0.5-1.2,1.2
			c0,0.7,0.5,1.2,1.2,1.2s1.2-0.5,1.2-1.2C483.4,497.3,482.8,496.7,482.1,496.7z"/>
	</g>
	<g>
		<g>
			<g>
				<rect x="450.5" y="512.9" class="st0-dr2" width="71.3" height="311.4"/>
			</g>
		</g>
	</g>
	<g>
		<path class="st0-dr2" d="M188.5,660.7l-3.5,2.1l-0.7-1.2l4.2-2.6h1.5v14.6h-1.5V660.7z"/>
		<path class="st0-dr2" d="M198,673.9c-2.6,0-4.7-1.6-5-4l1.5-0.3c0.3,1.7,1.6,2.9,3.6,2.9c2,0,3.5-1.1,3.5-2.7c0-1.7-1.3-2.7-3.5-2.7
			h-1.5v-1.4h1.4c2,0,3.3-1.2,3.3-2.6c0-1.5-1.1-2.6-3.2-2.6c-2,0-3.2,1.2-3.4,2.7l-1.5-0.3c0.3-2,2.2-3.8,4.9-3.8
			c3.2,0,4.7,1.9,4.7,3.9c0,1.7-0.9,2.7-2.3,3.4v0c1.7,0.5,2.7,1.8,2.7,3.5C203,672,201,673.9,198,673.9z"/>
		<path class="st0-dr2" d="M206.5,667c-1.1,0-1.9-0.9-1.9-1.9c0-1.1,0.9-1.9,1.9-1.9c1.1,0,1.9,0.9,1.9,1.9
			C208.4,666.2,207.5,667,206.5,667z M206.5,663.9c-0.7,0-1.2,0.5-1.2,1.2c0,0.7,0.5,1.2,1.2,1.2s1.2-0.5,1.2-1.2
			C207.7,664.4,207.1,663.9,206.5,663.9z M211.2,663.3h0.9l-5.6,8.5h-0.9L211.2,663.3z M211.2,671.8c-1.1,0-1.9-0.9-1.9-1.9
			c0-1.1,0.9-1.9,1.9-1.9c1.1,0,1.9,0.9,1.9,1.9C213.1,671,212.3,671.8,211.2,671.8z M211.2,668.7c-0.7,0-1.2,0.5-1.2,1.2
			c0,0.7,0.5,1.2,1.2,1.2c0.7,0,1.2-0.5,1.2-1.2C212.4,669.3,211.9,668.7,211.2,668.7z"/>
	</g>
	<g>
		<g>
			<g>
				<rect x="176.2" y="683.9" class="st0-dr2" width="71.3" height="139.6"/>
			</g>
		</g>
	</g>
	<g>
		<g>
			<g>
				<rect x="999.1" y="792" class="st0-dr2" width="71.3" height="32.2"/>
			</g>
		</g>
	</g>
	<g>
		<path class="st0-dr2" d="M1009.8,785.6c-2.6,0-4.7-1.6-5-4l1.5-0.3c0.3,1.7,1.6,2.9,3.6,2.9c2,0,3.5-1.1,3.5-2.7
			c0-1.7-1.3-2.7-3.5-2.7h-1.5v-1.4h1.4c2,0,3.3-1.2,3.3-2.6c0-1.5-1.1-2.6-3.2-2.6c-2,0-3.2,1.2-3.4,2.7l-1.5-0.3
			c0.3-2,2.2-3.8,4.9-3.8c3.2,0,4.7,1.9,4.7,3.9c0,1.7-0.9,2.7-2.3,3.4v0c1.7,0.5,2.7,1.8,2.7,3.5
			C1014.9,783.7,1012.9,785.6,1009.8,785.6z"/>
		<path class="st0-dr2" d="M1018.3,778.7c-1.1,0-1.9-0.9-1.9-1.9c0-1.1,0.9-1.9,1.9-1.9c1.1,0,1.9,0.9,1.9,1.9
			C1020.2,777.9,1019.4,778.7,1018.3,778.7z M1018.3,775.6c-0.7,0-1.2,0.5-1.2,1.2c0,0.7,0.5,1.2,1.2,1.2c0.7,0,1.2-0.5,1.2-1.2
			C1019.5,776.1,1019,775.6,1018.3,775.6z M1023,775h0.9l-5.6,8.5h-0.9L1023,775z M1023,783.6c-1.1,0-1.9-0.9-1.9-1.9
			c0-1.1,0.9-1.9,1.9-1.9c1.1,0,1.9,0.9,1.9,1.9C1025,782.7,1024.1,783.6,1023,783.6z M1023,780.4c-0.7,0-1.2,0.5-1.2,1.2
			c0,0.7,0.5,1.2,1.2,1.2c0.7,0,1.2-0.5,1.2-1.2C1024.2,781,1023.7,780.4,1023,780.4z"/>
	</g>
	<g>
		<g>
			<g>
				<rect x="1273.3" y="459.1" class="st0-dr2" width="71.3" height="365"/>
			</g>
		</g>
	</g>
	<g>
		<path class="st0-dr2" d="M1279.3,449.6c-2.6,0-4.7-1.6-5-4l1.5-0.3c0.3,1.7,1.6,2.9,3.6,2.9c2,0,3.5-1.1,3.5-2.7s-1.3-2.7-3.5-2.7
			h-1.5v-1.4h1.4c2,0,3.3-1.2,3.3-2.6c0-1.5-1.1-2.6-3.2-2.6c-2,0-3.2,1.2-3.4,2.7l-1.5-0.3c0.3-2,2.2-3.8,4.9-3.8
			c3.2,0,4.7,1.9,4.7,3.9c0,1.7-0.9,2.7-2.3,3.4v0c1.7,0.5,2.7,1.8,2.7,3.5C1284.3,447.7,1282.3,449.6,1279.3,449.6z"/>
		<path class="st0-dr2" d="M1293.6,449.5V446h-7.6v-1.7l7.2-9.4h1.9v9.8h2.4v1.3h-2.4v3.5H1293.6z M1293.6,444.6v-8.2l-6.2,8.2H1293.6z"
			/>
		<path class="st0-dr2" d="M1300.5,442.7c-1.1,0-1.9-0.9-1.9-1.9c0-1.1,0.9-1.9,1.9-1.9c1.1,0,1.9,0.9,1.9,1.9
			C1302.4,441.9,1301.6,442.7,1300.5,442.7z M1300.5,439.6c-0.7,0-1.2,0.5-1.2,1.2c0,0.7,0.5,1.2,1.2,1.2c0.7,0,1.2-0.5,1.2-1.2
			C1301.7,440.2,1301.2,439.6,1300.5,439.6z M1305.2,439h0.9l-5.6,8.5h-0.9L1305.2,439z M1305.2,447.6c-1.1,0-1.9-0.9-1.9-1.9
			c0-1.1,0.9-1.9,1.9-1.9c1.1,0,1.9,0.9,1.9,1.9C1307.2,446.7,1306.3,447.6,1305.2,447.6z M1305.2,444.5c-0.7,0-1.2,0.5-1.2,1.2
			c0,0.7,0.5,1.2,1.2,1.2c0.7,0,1.2-0.5,1.2-1.2C1306.4,445,1305.9,444.5,1305.2,444.5z"/>
	</g>
</g>
<g id="blackChartDR2">
	<g>
		<path d="M797.1,599.4c0-1.7,0.8-3.6,3.4-5.1l2.2-1.4c1.4-0.9,2.6-1.8,2.6-3.5c0-1.5-1.3-2.9-3.2-2.9c-1.6,0-2.6,1-3,1.9
			c-0.3,0.6-0.3,1.2-0.3,1.4l-1.5-0.2c0-2.1,1.8-4.5,4.9-4.5c2.7,0,4.8,2.1,4.8,4.3c0,2.1-1.2,3.3-3.1,4.5l-2.3,1.4
			c-1.3,0.8-2.4,1.8-2.5,3.1h8v1.4h-9.9V599.4z"/>
		<path d="M809.2,592.6c0-3.6,2.1-7.5,6.1-7.5c4,0,6,3.8,6,7.4c0,3.6-2.1,7.5-6.1,7.5C811.2,600,809.2,596.2,809.2,592.6z
			 M810.7,592.5c0,2.6,1.3,6.1,4.5,6.1c3.2,0,4.5-3.4,4.5-6c0-2.6-1.4-6.1-4.5-6.1C812.1,586.5,810.7,589.8,810.7,592.5z"/>
		<path d="M824.8,593.1c-1.1,0-1.9-0.9-1.9-1.9c0-1.1,0.9-1.9,1.9-1.9c1.1,0,1.9,0.9,1.9,1.9C826.7,592.2,825.8,593.1,824.8,593.1z
			 M824.8,590c-0.7,0-1.2,0.5-1.2,1.2c0,0.7,0.5,1.2,1.2,1.2c0.7,0,1.2-0.5,1.2-1.2C826,590.5,825.4,590,824.8,590z M829.5,589.3
			h0.9l-5.6,8.5h-0.9L829.5,589.3z M829.5,597.9c-1.1,0-1.9-0.9-1.9-1.9c0-1.1,0.9-1.9,1.9-1.9c1.1,0,1.9,0.9,1.9,1.9
			C831.4,597.1,830.5,597.9,829.5,597.9z M829.5,594.8c-0.7,0-1.2,0.5-1.2,1.2c0,0.7,0.5,1.2,1.2,1.2c0.7,0,1.2-0.5,1.2-1.2
			C830.7,595.3,830.1,594.8,829.5,594.8z"/>
	</g>
	<g>
		<g>
			<g>
				<rect x="796.1" y="609.4" width="71.3" height="214.7"/>
			</g>
		</g>
	</g>
	<g class="st1-dr2">
		<path d="M533.2,630l-3.5,2.1L529,631l4.2-2.6h1.5V643h-1.5V630z"/>
		<path d="M539.5,635.6c1-1.6,2.8-2.1,4-2.1c3.1,0,4.9,2.2,4.9,4.7c0,3.3-2.7,5-5.2,5c-1.6,0-3.5-0.9-4.4-2.5
			c-0.7-1.3-0.9-2.2-0.9-4c0-4.6,2.5-8.4,7.2-8.4c0.8,0,2,0.1,3,0.7l-0.6,1.4c-0.8-0.5-1.8-0.6-2.4-0.6
			C541.7,629.7,539.8,632.4,539.5,635.6z M540.8,635.8c-0.7,0.6-1.2,1.5-1.2,2.5c0,2.2,1.8,3.5,3.6,3.5c1.8,0,3.6-1.2,3.6-3.5
			c0-1.8-1.4-3.4-3.6-3.4C542.4,634.9,541.5,635.2,540.8,635.8z"/>
		<path d="M551.7,636.3c-1.1,0-1.9-0.9-1.9-1.9c0-1.1,0.9-1.9,1.9-1.9c1.1,0,1.9,0.9,1.9,1.9C553.7,635.5,552.8,636.3,551.7,636.3z
			 M551.7,633.2c-0.7,0-1.2,0.5-1.2,1.2c0,0.7,0.5,1.2,1.2,1.2s1.2-0.5,1.2-1.2C552.9,633.7,552.4,633.2,551.7,633.2z M556.4,632.6
			h0.9l-5.6,8.5h-0.9L556.4,632.6z M556.5,641.2c-1.1,0-1.9-0.9-1.9-1.9c0-1.1,0.9-1.9,1.9-1.9c1.1,0,1.9,0.9,1.9,1.9
			C558.4,640.3,557.5,641.2,556.5,641.2z M556.5,638c-0.7,0-1.2,0.5-1.2,1.2c0,0.7,0.5,1.2,1.2,1.2c0.7,0,1.2-0.5,1.2-1.2
			C557.7,638.6,557.1,638,556.5,638z"/>
	</g>
	<g class="st1-dr2">
		<g>
			<g>
				<rect x="521.8" y="652.4" width="71.3" height="171.8"/>
			</g>
		</g>
	</g>
	<g class="st1-dr2">
		<path d="M248.6,532.1c0-1.7,0.8-3.6,3.4-5.1l2.2-1.4c1.4-0.9,2.6-1.8,2.6-3.5c0-1.5-1.3-2.9-3.2-2.9c-1.6,0-2.6,1-3,1.9
			c-0.3,0.6-0.3,1.2-0.3,1.4l-1.5-0.2c0-2.1,1.8-4.5,4.9-4.5c2.7,0,4.8,2.1,4.8,4.3c0,2.1-1.2,3.3-3.1,4.5l-2.3,1.4
			c-1.3,0.8-2.4,1.8-2.5,3.1h8v1.4h-9.9V532.1z"/>
		<path d="M262.2,525.1c1-1.6,2.8-2.1,4-2.1c3.1,0,4.9,2.2,4.9,4.7c0,3.3-2.7,5-5.2,5c-1.6,0-3.5-0.9-4.4-2.5
			c-0.7-1.3-0.9-2.2-0.9-4c0-4.6,2.5-8.4,7.2-8.4c0.8,0,2,0.1,3,0.7l-0.6,1.4c-0.8-0.5-1.8-0.6-2.4-0.6
			C264.4,519.2,262.5,521.9,262.2,525.1z M263.5,525.2c-0.7,0.6-1.2,1.5-1.2,2.5c0,2.2,1.8,3.5,3.6,3.5c1.8,0,3.6-1.2,3.6-3.5
			c0-1.8-1.4-3.4-3.6-3.4C265.1,524.4,264.2,524.7,263.5,525.2z"/>
		<path d="M274.4,525.8c-1.1,0-1.9-0.9-1.9-1.9c0-1.1,0.9-1.9,1.9-1.9c1.1,0,1.9,0.9,1.9,1.9C276.4,524.9,275.5,525.8,274.4,525.8z
			 M274.4,522.7c-0.7,0-1.2,0.5-1.2,1.2c0,0.7,0.5,1.2,1.2,1.2c0.7,0,1.2-0.5,1.2-1.2C275.6,523.2,275.1,522.7,274.4,522.7z
			 M279.1,522.1h0.9l-5.6,8.5h-0.9L279.1,522.1z M279.2,530.6c-1.1,0-1.9-0.9-1.9-1.9c0-1.1,0.9-1.9,1.9-1.9s1.9,0.9,1.9,1.9
			C281.1,529.8,280.2,530.6,279.2,530.6z M279.2,527.5c-0.7,0-1.2,0.5-1.2,1.2c0,0.7,0.5,1.2,1.2,1.2s1.2-0.5,1.2-1.2
			C280.4,528,279.8,527.5,279.2,527.5z"/>
	</g>
	<g class="st1-dr2">
		<g>
			<g>
				<rect x="247.5" y="544.4" width="71.3" height="279.1"/>
			</g>
		</g>
	</g>
	<g class="st1-dr2">
		<g>
			<g>
				<rect x="1070.4" y="781.2" width="71.3" height="42.9"/>
			</g>
		</g>
	</g>
	<g>
		<path d="M1078.6,774.2v-3.5h-7.6V769l7.2-9.4h1.9v9.8h2.4v1.3h-2.4v3.5H1078.6z M1078.6,769.3v-8.2l-6.2,8.2H1078.6z"/>
		<path d="M1085.5,767.4c-1.1,0-1.9-0.9-1.9-1.9c0-1.1,0.9-1.9,1.9-1.9c1.1,0,1.9,0.9,1.9,1.9
			C1087.4,766.6,1086.5,767.4,1085.5,767.4z M1085.5,764.3c-0.7,0-1.2,0.5-1.2,1.2c0,0.7,0.5,1.2,1.2,1.2c0.7,0,1.2-0.5,1.2-1.2
			C1086.7,764.9,1086.1,764.3,1085.5,764.3z M1090.2,763.7h0.9l-5.6,8.5h-0.9L1090.2,763.7z M1090.2,772.3c-1.1,0-1.9-0.9-1.9-1.9
			c0-1.1,0.9-1.9,1.9-1.9c1.1,0,1.9,0.9,1.9,1.9C1092.1,771.4,1091.2,772.3,1090.2,772.3z M1090.2,769.2c-0.7,0-1.2,0.5-1.2,1.2
			c0,0.7,0.5,1.2,1.2,1.2c0.7,0,1.2-0.5,1.2-1.2C1091.4,769.7,1090.8,769.2,1090.2,769.2z"/>
	</g>
	<g class="st1-dr2">
		<g>
			<g>
				<rect x="1344.7" y="738.3" width="71.3" height="85.9"/>
			</g>
		</g>
	</g>
	<g>
		<path d="M1361.6,722.7c-1,1.6-2.9,2.2-4.1,2.2c-3.1,0-4.9-2.3-4.9-4.7c0-3.3,2.6-5,5.2-5c1.6,0,3.4,0.9,4.3,2.5
			c0.7,1.3,1,2.4,1,4.1c0,4.8-2.3,8.3-6.8,8.3c-0.8,0-2.4-0.2-3.4-0.9l0.6-1.4c1,0.6,2.1,0.8,2.8,0.8
			C1359.5,728.6,1361.3,726.1,1361.6,722.7z M1360.2,722.6c0.7-0.6,1.2-1.6,1.2-2.6c0-2.2-1.8-3.5-3.6-3.5c-1.9,0-3.6,1.2-3.6,3.5
			c0,1.8,1.3,3.4,3.6,3.4C1358.6,723.5,1359.5,723.2,1360.2,722.6z"/>
		<path d="M1366.5,723.2c-1.1,0-1.9-0.9-1.9-1.9c0-1.1,0.9-1.9,1.9-1.9c1.1,0,1.9,0.9,1.9,1.9
			C1368.5,722.4,1367.6,723.2,1366.5,723.2z M1366.5,720.1c-0.7,0-1.2,0.5-1.2,1.2c0,0.7,0.5,1.2,1.2,1.2c0.7,0,1.2-0.5,1.2-1.2
			C1367.7,720.6,1367.2,720.1,1366.5,720.1z M1371.2,719.5h0.9l-5.6,8.5h-0.9L1371.2,719.5z M1371.3,728.1c-1.1,0-1.9-0.9-1.9-1.9
			c0-1.1,0.9-1.9,1.9-1.9c1.1,0,1.9,0.9,1.9,1.9C1373.2,727.2,1372.3,728.1,1371.3,728.1z M1371.3,724.9c-0.7,0-1.2,0.5-1.2,1.2
			c0,0.7,0.5,1.2,1.2,1.2c0.7,0,1.2-0.5,1.2-1.2C1372.5,725.5,1371.9,724.9,1371.3,724.9z"/>
	</g>
</g>
</svg>
