<?xml version="1.0" encoding="utf-8"?>
<!-- Generator: Adobe Illustrator 21.1.0, SVG Export Plug-In . SVG Version: 6.00 Build 0)  -->
<svg version="1.1" id="graphNineCyber" xmlns="http://www.w3.org/2000/svg" xmlns:xlink="http://www.w3.org/1999/xlink" x="0px"
	 y="0px" viewBox="0 0 1500 1053" style="enable-background:new 0 0 1500 1053;" xml:space="preserve">
<style type="text/css">
	.st0{fill:#37C0AA;}
	.st1{fill:#F6F6F8;}
	.st2{fill:#FFFFFF;}
	.st3{fill:#FFC940;}
	.st4{opacity:0.9;}
</style>
<rect x="-26.1" y="-18.3" class="st0" width="1552.1" height="1089.6"/>
<rect x="-26.1" y="1150.2" class="st1" width="1552.1" height="1089.6"/>
<g>
	<g>
		<g>
			<path class="st2" d="M83.9,157.5v-1.2h8.7v1.2l-5.9,11.6h-1.5l6-11.6H83.9z"/>
			<path class="st2" d="M98.7,156.4h2.4l5.8,18.6h0.1l5.8-18.6h2.6l5.8,18.7h0.1l5.8-18.7h2.3l-6.9,22h-2.6l-5.9-18.9l-5.9,18.9
				h-2.5L98.7,156.4z"/>
			<path class="st2" d="M143.3,169.7c0-2.7-1.4-4.5-4.2-4.5c-2.6,0-4.5,2.1-4.5,4.7v8.5h-2.2v-22.8h2.2v10.5c1.2-2,2.9-3,5.1-3
				c3.7,0,5.7,2.5,5.7,6v9.3h-2.2V169.7z"/>
			<path class="st2" d="M159.3,168.7c0-2.4-1.3-3.6-3.8-3.6c-2.5,0-3.7,1.6-3.9,3.1l-2.1-0.4c0.1-1.3,1.8-4.5,6.1-4.5
				c3.2,0,4.7,1.4,5.5,3.1c0.3,0.8,0.4,2,0.4,2.5v9.7h-2.1v-2.6h0c-1.2,1.9-2.8,2.9-5,2.9c-3,0-5-1.9-5-4.4v-0.2
				c0-3.3,3.3-4.3,5.9-4.3h4.2V168.7z M155.1,171.6c-1.6,0-3.7,0.5-3.7,2.5c0,1.7,1.4,2.6,3.2,2.6c2.7,0,4.7-1.9,4.7-4.6v-0.5H155.1
				z"/>
			<path class="st2" d="M167.1,174.5v-9.2h-2.8v-1.9h2.8v-4.3h2.2v4.3h3.8v1.9h-3.8v9.1c0,1.3,0.8,2.1,2.4,2.1c0.5,0,1,0,1.3-0.1
				v1.8c-0.4,0.1-1.3,0.2-1.7,0.2C168,178.5,167.1,176.7,167.1,174.5z"/>
			<path class="st2" d="M187.8,178.4l-5-15h2.3l3.9,12.4h0l4.1-12.4h2.2l4.1,12.5h0l4-12.5h2.3l-5,15h-2.4l-4-12.2h0l-4,12.2H187.8z
				"/>
			<path class="st2" d="M217.4,168.7c0-2.4-1.3-3.6-3.8-3.6c-2.5,0-3.7,1.6-3.9,3.1l-2.1-0.4c0.1-1.3,1.8-4.5,6.1-4.5
				c3.2,0,4.7,1.4,5.5,3.1c0.3,0.8,0.4,2,0.4,2.5v9.7h-2.1v-2.6h0c-1.2,1.9-2.8,2.9-5,2.9c-3,0-5-1.9-5-4.4v-0.2
				c0-3.3,3.3-4.3,5.9-4.3h4.2V168.7z M213.2,171.6c-1.6,0-3.7,0.5-3.7,2.5c0,1.7,1.4,2.6,3.2,2.6c2.7,0,4.7-1.9,4.7-4.6v-0.5H213.2
				z"/>
			<path class="st2" d="M228.9,178.6c-4.1,0-5.4-2.7-5.7-4.4l2-0.5c0.3,1.3,1.3,3,3.6,3c1.6,0,3.1-0.9,3.1-2.4c0-1.8-2-2.2-3.5-2.5
				c-2.5-0.4-4.9-1.3-4.9-4.2c0-2.8,2.6-4.5,5-4.5c4,0,5.2,2.6,5.4,4.1l-2,0.5c-0.3-1-1.1-2.6-3.5-2.6c-1.6,0-2.8,1.1-2.8,2.4
				c0,1.9,2,2.2,3.6,2.4c2.4,0.3,4.9,1.6,4.9,4.3C234.2,176.9,231.8,178.6,228.9,178.6z"/>
			<path class="st2" d="M246.9,174.5v-9.2h-2.8v-1.9h2.8v-4.3h2.2v4.3h3.8v1.9h-3.8v9.1c0,1.3,0.8,2.1,2.4,2.1c0.5,0,1,0,1.3-0.1
				v1.8c-0.4,0.1-1.3,0.2-1.7,0.2C247.9,178.5,246.9,176.7,246.9,174.5z"/>
			<path class="st2" d="M267.4,169.7c0-2.7-1.4-4.5-4.2-4.5c-2.6,0-4.5,2.1-4.5,4.7v8.5h-2.2v-22.8h2.2v10.5c1.2-2,2.9-3,5.1-3
				c3.7,0,5.7,2.5,5.7,6v9.3h-2.2V169.7z"/>
			<path class="st2" d="M275.4,171.6c0.2,2.9,2.4,5.1,5.4,5.1c2.2,0,3.9-1.1,4.6-3.2l2,0.6c-0.9,2.9-3.6,4.5-6.6,4.5
				c-4.3,0-7.6-3.5-7.6-7.8c0-4.1,3.1-7.7,7.3-7.7c4.6,0,7.1,3.3,7.1,7.7c0,0.3,0,0.5,0,0.7H275.4z M285.3,169.7
				c-0.3-2.7-2-4.7-4.9-4.7c-2.6,0-4.7,2.2-5,4.7H285.3z"/>
			<path class="st2" d="M307.1,178.6c-2.8,0-4.6-1.4-5.8-3.4v3.1h-2.2v-22.8h2.2v11.1c1.2-1.9,3-3.5,5.8-3.5c4.3,0,7,3.8,7,7.7
				C314.1,174.9,311.4,178.6,307.1,178.6z M311.9,170.9c0-3.1-1.9-5.8-5.2-5.8c-3.1,0-5.4,2.7-5.4,5.8c0,3.1,2.2,5.8,5.4,5.8
				C310,176.7,311.9,174.1,311.9,170.9z"/>
			<path class="st2" d="M319.1,156.4c0.9,0,1.7,0.7,1.7,1.7c0,0.9-0.7,1.6-1.7,1.6c-0.9,0-1.6-0.7-1.6-1.6
				C317.5,157.1,318.2,156.4,319.1,156.4z M320.2,163.4v15H318v-15H320.2z"/>
			<path class="st2" d="M336.9,175.1c-1.1,1.9-3,3.4-5.8,3.4c-4.3,0-7-3.5-7-7.6c0-3.9,2.8-7.7,7-7.7c2.9,0,4.7,1.6,5.8,3.4v-3.1
				h2.2v15c0,4.8-3,7.4-7.5,7.4c-3.9,0-6.6-2-7.4-5.1l2-0.7c0.4,1.7,1.9,3.9,5.4,3.9c2.9,0,5.4-1.5,5.4-5.4V175.1z M337,170.8
				c0-2.9-2.3-5.7-5.4-5.7c-3.3,0-5.2,2.5-5.2,5.8c0,3.1,1.9,5.7,5.2,5.7C334.7,176.5,337,173.9,337,170.8z"/>
			<path class="st2" d="M355.8,175.1c-1.1,1.9-3,3.4-5.8,3.4c-4.3,0-7-3.5-7-7.6c0-3.9,2.8-7.7,7-7.7c2.9,0,4.7,1.6,5.8,3.4v-3.1
				h2.2v15c0,4.8-3,7.4-7.5,7.4c-3.9,0-6.6-2-7.4-5.1l2-0.7c0.4,1.7,1.9,3.9,5.4,3.9c2.9,0,5.4-1.5,5.4-5.4V175.1z M355.8,170.8
				c0-2.9-2.3-5.7-5.4-5.7c-3.3,0-5.2,2.5-5.2,5.8c0,3.1,1.9,5.7,5.2,5.7C353.6,176.5,355.8,173.9,355.8,170.8z"/>
			<path class="st2" d="M364,171.6c0.2,2.9,2.4,5.1,5.4,5.1c2.2,0,3.9-1.1,4.6-3.2l2,0.6c-0.9,2.9-3.6,4.5-6.6,4.5
				c-4.3,0-7.6-3.5-7.6-7.8c0-4.1,3.1-7.7,7.3-7.7c4.6,0,7.1,3.3,7.1,7.7c0,0.3,0,0.5,0,0.7H364z M374,169.7c-0.3-2.7-2-4.7-4.9-4.7
				c-2.6,0-4.7,2.2-5,4.7H374z"/>
			<path class="st2" d="M384.5,178.6c-4.1,0-5.4-2.7-5.7-4.4l2-0.5c0.3,1.3,1.3,3,3.6,3c1.6,0,3.1-0.9,3.1-2.4c0-1.8-2-2.2-3.5-2.5
				c-2.5-0.4-4.9-1.3-4.9-4.2c0-2.8,2.6-4.5,5-4.5c4,0,5.2,2.6,5.4,4.1l-2,0.5c-0.3-1-1.1-2.6-3.5-2.6c-1.6,0-2.8,1.1-2.8,2.4
				c0,1.9,2,2.2,3.6,2.4c2.4,0.3,4.9,1.6,4.9,4.3C389.8,176.9,387.4,178.6,384.5,178.6z"/>
			<path class="st2" d="M394.5,174.5v-9.2h-2.8v-1.9h2.8v-4.3h2.2v4.3h3.8v1.9h-3.8v9.1c0,1.3,0.8,2.1,2.4,2.1c0.5,0,1,0,1.3-0.1
				v1.8c-0.4,0.1-1.3,0.2-1.7,0.2C395.5,178.5,394.5,176.7,394.5,174.5z"/>
			<path class="st2" d="M418.6,176.7c3.3,0,4.6-2.5,5-3.6l2,0.7c-0.7,2.2-3.1,4.9-7.1,4.9c-4.3,0-7.6-3.2-7.6-7.7
				c0-4.5,3.5-7.8,7.7-7.8c3.5,0,6.3,2.2,6.9,4.8l-2,0.6c-0.3-1.2-1.8-3.5-4.9-3.5c-3.2,0-5.4,2.6-5.4,5.7
				C413.2,173.9,415.2,176.7,418.6,176.7z"/>
			<path class="st2" d="M438.3,168.7c0-2.4-1.3-3.6-3.8-3.6c-2.5,0-3.7,1.6-3.9,3.1l-2.1-0.4c0.1-1.3,1.8-4.5,6.1-4.5
				c3.2,0,4.7,1.4,5.5,3.1c0.3,0.8,0.4,2,0.4,2.5v9.7h-2.1v-2.6h0c-1.2,1.9-2.8,2.9-5,2.9c-3,0-5-1.9-5-4.4v-0.2
				c0-3.3,3.3-4.3,5.9-4.3h4.2V168.7z M434.1,171.6c-1.6,0-3.7,0.5-3.7,2.5c0,1.7,1.4,2.6,3.2,2.6c2.7,0,4.7-1.9,4.7-4.6v-0.5H434.1
				z"/>
			<path class="st2" d="M447.2,172.1c0,2.7,1.4,4.5,4.2,4.5c2.6,0,4.5-2,4.5-4.7v-8.6h2.2v15h-2.1v-2.7c-1.2,2-2.9,3-5.1,3
				c-3.7,0-5.7-2.5-5.7-6v-9.3h2.2V172.1z"/>
			<path class="st2" d="M467.5,178.6c-4.1,0-5.4-2.7-5.7-4.4l2-0.5c0.3,1.3,1.3,3,3.6,3c1.6,0,3.1-0.9,3.1-2.4c0-1.8-2-2.2-3.5-2.5
				c-2.5-0.4-4.9-1.3-4.9-4.2c0-2.8,2.6-4.5,5-4.5c4,0,5.2,2.6,5.4,4.1l-2,0.5c-0.3-1-1.1-2.6-3.5-2.6c-1.6,0-2.8,1.1-2.8,2.4
				c0,1.9,2,2.2,3.6,2.4c2.4,0.3,4.9,1.6,4.9,4.3C472.8,176.9,470.4,178.6,467.5,178.6z"/>
			<path class="st2" d="M477.8,171.6c0.2,2.9,2.4,5.1,5.4,5.1c2.2,0,3.9-1.1,4.6-3.2l2,0.6c-0.9,2.9-3.6,4.5-6.6,4.5
				c-4.3,0-7.6-3.5-7.6-7.8c0-4.1,3.1-7.7,7.3-7.7c4.6,0,7.1,3.3,7.1,7.7c0,0.3,0,0.5,0,0.7H477.8z M487.7,169.7
				c-0.3-2.7-2-4.7-4.9-4.7c-2.6,0-4.7,2.2-5,4.7H487.7z"/>
			<path class="st2" d="M101.2,204.6c0-4.4,3.3-7.8,7.8-7.8c4.3,0,7.7,3.4,7.7,7.7c0,4.4-3.4,7.8-7.8,7.8
				C104.5,212.3,101.2,208.9,101.2,204.6z M114.4,204.6c0-3.1-2.3-5.9-5.5-5.9c-3.3,0-5.5,2.6-5.5,5.8c0,3.1,2.2,5.9,5.5,5.9
				C112.1,210.4,114.4,207.7,114.4,204.6z"/>
			<path class="st2" d="M123.5,194.2v2.8h3.9v1.9h-3.9v13.1h-2.2V199h-2.9v-1.9h2.9v-2.8c0-3.5,1.9-5.2,4.6-5.2
				c0.4,0,1.1,0.1,1.7,0.3v1.9c-0.6-0.2-1.2-0.2-1.6-0.2C124.9,191.1,123.5,191.7,123.5,194.2z"/>
			<path class="st2" d="M140.5,190.1v22h-2.3v-22H140.5z"/>
			<path class="st2" d="M151.4,212.1v-19.8h-7.3v-2.2h17v2.2h-7.3v19.8H151.4z"/>
			<path class="st2" d="M176.9,196.8c2.9,0,4.6,1.6,5.8,3.4v-11h2.2v22.8h-2.1v-3.2c-1.1,1.9-2.9,3.4-5.8,3.4c-4.3,0-7-3.6-7-7.7
				C169.9,200.6,172.7,196.8,176.9,196.8z M182.7,204.5c0-3-2.3-5.8-5.4-5.8c-3.3,0-5.2,2.6-5.2,5.8c0,3.1,2,5.8,5.2,5.8
				C180.5,210.3,182.7,207.6,182.7,204.5z"/>
			<path class="st2" d="M188.8,204.6c0-4.4,3.3-7.8,7.8-7.8c4.3,0,7.7,3.4,7.7,7.7c0,4.4-3.4,7.8-7.8,7.8
				C192.1,212.3,188.8,208.9,188.8,204.6z M202,204.6c0-3.1-2.3-5.9-5.5-5.9c-3.3,0-5.5,2.6-5.5,5.8c0,3.1,2.2,5.9,5.5,5.9
				C199.7,210.4,202,207.7,202,204.6z"/>
			<path class="st2" d="M211,212.1l-5-15h2.3l3.9,12.4h0l4.1-12.4h2.2l4.1,12.5h0l4-12.5h2.3l-5,15h-2.4l-4-12.2h0l-4,12.2H211z"/>
			<path class="st2" d="M242.9,203.3c0-2.7-1.4-4.5-4.2-4.5c-2.6,0-4.5,2.1-4.5,4.7v8.5h-2.2v-15h2.2v2.7c1.2-2,2.9-3,5.2-3
				c3.7,0,5.7,2.5,5.7,6v9.3h-2.2V203.3z"/>
			<path class="st2" d="M250.7,208.2V199h-2.8v-1.9h2.8v-4.3h2.2v4.3h3.8v1.9h-3.8v9.1c0,1.3,0.8,2.1,2.4,2.1c0.5,0,1,0,1.3-0.1v1.8
				c-0.4,0.1-1.3,0.2-1.7,0.2C251.6,212.2,250.7,210.4,250.7,208.2z"/>
			<path class="st2" d="M261.4,190.1c0.9,0,1.7,0.7,1.7,1.7c0,0.9-0.7,1.6-1.7,1.6c-0.9,0-1.6-0.7-1.6-1.6
				C259.8,190.8,260.5,190.1,261.4,190.1z M262.5,197.1v15h-2.2v-15H262.5z"/>
			<path class="st2" d="M277.7,203.3c0-2.5-1.2-4.5-3.9-4.5c-2.6,0-4.2,2.3-4.2,4.7v8.5h-2.2v-15h2.2v2.6c1.2-1.8,2.6-2.9,4.8-2.9
				c2.2,0,3.9,1,4.8,3c1.3-1.9,2.9-3,5.3-3c3.6,0,5.5,2.5,5.5,6v9.3h-2.2v-8.7c0-2.5-1.1-4.5-3.9-4.5c-2.6,0-4.2,2.1-4.2,4.6v8.6
				h-2.2V203.3z"/>
			<path class="st2" d="M295.9,205.2c0.2,2.9,2.4,5.1,5.4,5.1c2.2,0,3.9-1.1,4.6-3.2l2,0.6c-0.9,2.9-3.6,4.5-6.6,4.5
				c-4.3,0-7.6-3.5-7.6-7.8c0-4.1,3.1-7.7,7.3-7.7c4.6,0,7.1,3.3,7.1,7.7c0,0.3,0,0.5,0,0.7H295.9z M305.9,203.4
				c-0.3-2.7-2-4.7-4.9-4.7c-2.6,0-4.7,2.2-5,4.7H305.9z"/>
			<path class="st2" d="M318.7,201.3c0-5.8,2.9-10.8,8-13.7l0.9,1.4c-4.5,2.9-6.7,6.9-6.7,12.3v0.7c0,5.4,2.1,9.3,6.6,12.2l-0.9,1.5
				c-5-2.9-8-7.9-8-13.7V201.3z"/>
			<path class="st2" d="M338.8,212.3c-2.8,0-4.6-1.4-5.8-3.4v3.1h-2.2v-22.8h2.2v11.1c1.2-1.9,3-3.5,5.8-3.5c4.3,0,7,3.8,7,7.7
				C345.8,208.6,343,212.3,338.8,212.3z M343.6,204.6c0-3.1-1.9-5.8-5.2-5.8c-3.1,0-5.4,2.7-5.4,5.8c0,3.1,2.2,5.8,5.4,5.8
				C341.6,210.3,343.6,207.8,343.6,204.6z"/>
			<path class="st2" d="M354,211l-6.8-14h2.5l5.5,11.6l5.2-11.6h2.4l-10.3,22.4h-2.4L354,211z"/>
			<path class="st2" d="M377.6,212.3c-4.1,0-5.4-2.7-5.7-4.4l2-0.5c0.3,1.3,1.3,3,3.6,3c1.6,0,3.1-0.9,3.1-2.4c0-1.8-2-2.2-3.5-2.5
				c-2.5-0.4-4.9-1.3-4.9-4.2c0-2.8,2.6-4.5,5-4.5c4,0,5.2,2.6,5.4,4.1l-2,0.5c-0.3-1-1.1-2.6-3.5-2.6c-1.6,0-2.8,1.1-2.8,2.4
				c0,1.9,2,2.2,3.6,2.4c2.4,0.3,4.9,1.6,4.9,4.3C382.9,210.5,380.5,212.3,377.6,212.3z"/>
			<path class="st2" d="M387.9,190.1c0.9,0,1.7,0.7,1.7,1.7c0,0.9-0.7,1.6-1.7,1.6c-0.9,0-1.6-0.7-1.6-1.6
				C386.2,190.8,387,190.1,387.9,190.1z M389,197.1v15h-2.2v-15H389z"/>
			<path class="st2" d="M404.6,212.1h-12v-1.9L402,199h-9.1v-1.9h11.8v1.9l-9.3,11.2h9.4V212.1z"/>
			<path class="st2" d="M409.2,205.2c0.2,2.9,2.4,5.1,5.4,5.1c2.2,0,3.9-1.1,4.6-3.2l2,0.6c-0.9,2.9-3.6,4.5-6.6,4.5
				c-4.3,0-7.6-3.5-7.6-7.8c0-4.1,3.1-7.7,7.3-7.7c4.6,0,7.1,3.3,7.1,7.7c0,0.3,0,0.5,0,0.7H409.2z M419.1,203.4
				c-0.3-2.7-2-4.7-4.9-4.7c-2.6,0-4.7,2.2-5,4.7H419.1z"/>
			<path class="st2" d="M431.8,204.6c0-4.4,3.3-7.8,7.8-7.8c4.3,0,7.7,3.4,7.7,7.7c0,4.4-3.4,7.8-7.8,7.8
				C435.2,212.3,431.8,208.9,431.8,204.6z M445.1,204.6c0-3.1-2.3-5.9-5.5-5.9s-5.5,2.6-5.5,5.8c0,3.1,2.2,5.9,5.5,5.9
				C442.8,210.4,445.1,207.7,445.1,204.6z"/>
			<path class="st2" d="M454.2,194.2v2.8h3.9v1.9h-3.9v13.1H452V199h-2.9v-1.9h2.9v-2.8c0-3.5,1.9-5.2,4.6-5.2
				c0.4,0,1.1,0.1,1.7,0.3v1.9c-0.6-0.2-1.2-0.2-1.6-0.2C455.6,191.1,454.2,191.7,454.2,194.2z"/>
			<path class="st2" d="M471.1,190.1v22h-2.3v-22H471.1z"/>
			<path class="st2" d="M482.1,212.1v-19.8h-7.4v-2.2h17v2.2h-7.3v19.8H482.1z"/>
			<path class="st2" d="M502.6,208.2V199h-2.8v-1.9h2.8v-4.3h2.2v4.3h3.8v1.9h-3.8v9.1c0,1.3,0.8,2.1,2.4,2.1c0.5,0,1,0,1.3-0.1v1.8
				c-0.4,0.1-1.3,0.2-1.7,0.2C503.6,212.2,502.6,210.4,502.6,208.2z"/>
			<path class="st2" d="M513.1,205.2c0.2,2.9,2.4,5.1,5.4,5.1c2.2,0,3.9-1.1,4.6-3.2l2,0.6c-0.9,2.9-3.6,4.5-6.6,4.5
				c-4.3,0-7.6-3.5-7.6-7.8c0-4.1,3.1-7.7,7.3-7.7c4.6,0,7.1,3.3,7.1,7.7c0,0.3,0,0.5,0,0.7H513.1z M523,203.4
				c-0.3-2.7-2-4.7-4.9-4.7c-2.6,0-4.7,2.2-5,4.7H523z"/>
			<path class="st2" d="M538,202.4c0-2.4-1.3-3.6-3.8-3.6c-2.5,0-3.7,1.6-3.9,3.1l-2.1-0.4c0.1-1.3,1.8-4.5,6.1-4.5
				c3.2,0,4.7,1.4,5.5,3.1c0.3,0.8,0.4,2,0.4,2.5v9.7h-2.1v-2.6h0c-1.2,1.9-2.8,2.9-5,2.9c-3,0-5-1.9-5-4.4v-0.2
				c0-3.3,3.3-4.3,5.9-4.3h4.2V202.4z M533.8,205.2c-1.6,0-3.7,0.5-3.7,2.5c0,1.7,1.4,2.6,3.2,2.6c2.7,0,4.7-1.9,4.7-4.6v-0.5H533.8
				z"/>
			<path class="st2" d="M555.1,203.3c0-2.5-1.2-4.5-3.9-4.5c-2.6,0-4.2,2.3-4.2,4.7v8.5h-2.2v-15h2.2v2.6c1.2-1.8,2.6-2.9,4.8-2.9
				c2.2,0,3.9,1,4.8,3c1.3-1.9,2.9-3,5.3-3c3.6,0,5.5,2.5,5.5,6v9.3h-2.2v-8.7c0-2.5-1.1-4.5-3.9-4.5c-2.6,0-4.2,2.1-4.2,4.6v8.6
				h-2.2V203.3z"/>
			<path class="st2" d="M575.3,205.7c0-0.2,0-0.3,0-0.5c0-2.6,1.6-3.9,2.8-5.1c1.3-1.3,2.8-2.5,2.8-4.5c0-1.8-1.2-3.6-4.1-3.6
				c-2.8,0-4.4,2.1-4.2,4.8l-2.2-0.1c0-0.2,0-0.4,0-0.6c0-3.6,3-6.2,6.5-6.2c3.9,0,6.5,2.7,6.5,5.8c0,2.2-1.3,3.6-3.3,5.6
				c-1.4,1.4-2.4,2.3-2.5,4.5H575.3z M576.3,212.3c0.9,0,1.6-0.7,1.6-1.7c0-0.9-0.7-1.6-1.6-1.6c-0.9,0-1.7,0.7-1.7,1.6
				C574.6,211.6,575.4,212.3,576.3,212.3z"/>
			<path class="st2" d="M594,202c0,5.8-2.9,10.7-8,13.7l-0.9-1.5c4.5-2.9,6.6-6.8,6.6-12.2v-0.7c0-5.4-2.2-9.3-6.7-12.3l1-1.4
				c5,2.9,8,7.9,8,13.7V202z"/>
		</g>
	</g>
	<g>
		<g>
			<path d="M137.2,355l0,1.3l-7.1,3.4l7.1,3.3l0,1.3l-8.5-4l0-1.2L137.2,355z"/>
			<path d="M142.7,354.2l-0.7,4.4c0.8-0.8,2.2-1,2.8-1c2.4,0,4.2,1.6,4.2,4.1c0,2.8-2.3,4.2-4.5,4.2c-2.1,0-4.1-1.3-4.4-3.5l1.3-0.3
				c0.2,1.5,1.5,2.5,3.1,2.5c1.3,0,3.1-0.8,3.1-2.9c0-2.1-1.6-3-3.1-3c-0.9,0-2,0.5-2.7,1.3l-1.2-0.5l1.1-6.6l6.7,0l0,1.3
				L142.7,354.2z"/>
			<path d="M162.1,365.8c-1.6,0-2.7-0.8-3.4-1.9l0,6.1l-1.3,0l0-13l1.3,0l0,1.9c0.7-1.1,1.7-2.1,3.4-2.1c2.5,0,4.1,2.2,4.1,4.5
				C166.2,363.7,164.6,365.8,162.1,365.8z M164.9,361.3c0-1.8-1.1-3.4-3.1-3.4c-1.8,0-3.1,1.6-3.1,3.4c0,1.8,1.3,3.4,3.1,3.4
				C163.8,364.7,164.9,363.2,164.9,361.3z"/>
			<path d="M169.9,361.7c0.1,1.7,1.4,3,3.1,3c1.3,0,2.3-0.6,2.7-1.9l1.1,0.4c-0.5,1.7-2.1,2.6-3.8,2.7c-2.5,0-4.4-2-4.5-4.5
				c0-2.4,1.8-4.5,4.2-4.5c2.7,0,4.1,1.9,4.1,4.5c0,0.1,0,0.3,0,0.4L169.9,361.7z M175.7,360.6c-0.2-1.6-1.2-2.7-2.8-2.7
				c-1.5,0-2.7,1.3-2.9,2.7L175.7,360.6z"/>
			<path d="M179.4,361.3c0-2.6,1.9-4.6,4.5-4.6c2.5,0,4.5,2,4.5,4.5c0,2.6-2,4.6-4.5,4.6C181.4,365.8,179.4,363.8,179.4,361.3z
				 M187.1,361.3c0-1.8-1.3-3.4-3.2-3.4c-1.9,0-3.2,1.5-3.2,3.4c0,1.8,1.3,3.4,3.2,3.4C185.8,364.6,187.1,363.1,187.1,361.3z"/>
			<path d="M196.1,365.7c-1.6,0-2.7-0.8-3.4-1.9l0,6.1l-1.3,0l0-13l1.3,0l0,1.9c0.7-1.1,1.7-2.1,3.4-2.1c2.5,0,4.1,2.2,4.1,4.5
				C200.2,363.5,198.6,365.7,196.1,365.7z M198.9,361.2c0-1.8-1.1-3.4-3.1-3.4c-1.8,0-3.1,1.6-3.1,3.4c0,1.8,1.3,3.4,3.1,3.4
				C197.8,364.6,198.9,363.1,198.9,361.2z"/>
			<path d="M204.6,352.2l0.1,13.3l-1.3,0l-0.1-13.3L204.6,352.2z"/>
			<path d="M208.9,361.6c0.1,1.7,1.4,3,3.1,3c1.3,0,2.3-0.6,2.7-1.9l1.1,0.4c-0.5,1.7-2.1,2.6-3.8,2.7c-2.5,0-4.4-2-4.5-4.5
				c0-2.4,1.8-4.5,4.2-4.5c2.7,0,4.1,1.9,4.1,4.5c0,0.1,0,0.3,0,0.4L208.9,361.6z M214.7,360.5c-0.2-1.6-1.2-2.7-2.8-2.7
				c-1.5,0-2.7,1.3-2.9,2.7L214.7,360.5z"/>
		</g>
	</g>
	<g>
		<g>
			<path d="M130.8,315.8l-1.4,3.3l-1.4,0l5.5-12.8l1.5,0l5.6,12.8l-1.4,0l-1.4-3.3L130.8,315.8z M131.3,314.6l6,0l-3-6.9
				L131.3,314.6z"/>
			<path d="M144.1,305.7l0.1,13.3l-1.3,0l-0.1-13.3L144.1,305.7z"/>
			<path d="M149.1,305.7l0.1,13.3l-1.3,0l-0.1-13.3L149.1,305.7z"/>
		</g>
	</g>
	<g>
		
			<ellipse transform="matrix(1 -3.820067e-03 3.820067e-03 1 -1.3807 0.3816)" class="st3" cx="99.2" cy="361.6" rx="15.6" ry="15.6"/>
	</g>
	<g>
		<g>
			<path d="M133.5,411.1c-2.2,0-4.2-1.3-4.4-3.5l1.3-0.3c0.2,1.5,1.4,2.5,3.1,2.5c1.7,0,3.1-1,3.1-2.4c0-1.5-1.1-2.4-3.1-2.4l-1.3,0
				l0-1.2l1.2,0c1.8,0,2.8-1.1,2.8-2.3c0-1.3-1-2.3-2.8-2.3c-1.8,0-2.8,1.1-3,2.4l-1.3-0.3c0.2-1.8,1.9-3.4,4.3-3.4
				c2.8,0,4.2,1.7,4.2,3.4c0,1.5-0.8,2.4-2,3v0c1.5,0.4,2.3,1.5,2.4,3.1C137.9,409.4,136.2,411.1,133.5,411.1z"/>
			<path d="M140.6,404.6c0-3.2,1.8-6.6,5.3-6.6c3.5,0,5.3,3.3,5.3,6.5c0,3.2-1.8,6.6-5.3,6.6C142.4,411.1,140.6,407.8,140.6,404.6z
				 M142,404.5c0,2.3,1.2,5.3,4,5.3c2.8,0,3.9-3,3.9-5.3s-1.2-5.3-4-5.3C143.2,399.3,142,402.2,142,404.5z"/>
			<path d="M157.3,408.7l0-3.4l-3.4,0l0-1.2l3.4,0l0-3.4l1.2,0l0,3.4l3.4,0l0,1.2l-3.4,0l0,3.4L157.3,408.7z"/>
			<path d="M175.1,411c-1.6,0-2.7-0.8-3.4-1.9l0,6.1l-1.3,0l0-13l1.3,0l0,1.9c0.7-1.1,1.7-2.1,3.4-2.1c2.5,0,4.1,2.2,4.1,4.5
				C179.2,408.8,177.5,411,175.1,411z M177.8,406.5c0-1.8-1.1-3.4-3.1-3.4c-1.8,0-3.1,1.6-3.1,3.4c0,1.8,1.3,3.4,3.1,3.4
				C176.7,409.9,177.8,408.3,177.8,406.5z"/>
			<path d="M182.9,406.8c0.1,1.7,1.4,3,3.1,3c1.3,0,2.3-0.6,2.7-1.9l1.1,0.4c-0.5,1.7-2.1,2.6-3.8,2.7c-2.5,0-4.4-2-4.5-4.5
				c0-2.4,1.8-4.5,4.2-4.5c2.7,0,4.1,1.9,4.1,4.5c0,0.1,0,0.3,0,0.4L182.9,406.8z M188.7,405.7c-0.2-1.6-1.2-2.7-2.8-2.7
				c-1.5,0-2.7,1.3-2.9,2.7L188.7,405.7z"/>
			<path d="M192.3,406.5c0-2.6,1.9-4.6,4.5-4.6c2.5,0,4.5,2,4.5,4.5c0,2.6-2,4.6-4.5,4.6C194.3,410.9,192.3,408.9,192.3,406.5z
				 M200.1,406.4c0-1.8-1.3-3.4-3.2-3.4c-1.9,0-3.2,1.6-3.2,3.4c0,1.8,1.3,3.4,3.2,3.4C198.7,409.8,200.1,408.2,200.1,406.4z"/>
			<path d="M209.1,410.9c-1.6,0-2.7-0.8-3.4-1.9l0,6.1l-1.3,0l0-13l1.3,0l0,1.9c0.7-1.1,1.7-2.1,3.4-2.1c2.5,0,4.1,2.2,4.1,4.5
				C213.2,408.7,211.6,410.9,209.1,410.9z M211.9,406.4c0-1.8-1.1-3.4-3.1-3.4c-1.8,0-3.1,1.6-3.1,3.4c0,1.8,1.3,3.4,3.1,3.4
				C210.8,409.7,211.9,408.2,211.9,406.4z"/>
			<path d="M217.5,397.4l0.1,13.3l-1.3,0l-0.1-13.3L217.5,397.4z"/>
			<path d="M221.9,406.7c0.1,1.7,1.4,3,3.1,3c1.3,0,2.3-0.6,2.7-1.9l1.1,0.4c-0.5,1.7-2.1,2.6-3.8,2.7c-2.5,0-4.4-2-4.5-4.5
				c0-2.4,1.8-4.5,4.2-4.5c2.7,0,4.1,1.9,4.1,4.5c0,0.1,0,0.3,0,0.4L221.9,406.7z M227.7,405.6c-0.2-1.6-1.2-2.7-2.8-2.7
				c-1.5,0-2.7,1.3-2.9,2.7L227.7,405.6z"/>
		</g>
	</g>
	<g class="st4">
		<ellipse transform="matrix(1 -3.820067e-03 3.820067e-03 1 -1.5534 0.3826)" cx="99.4" cy="406.8" rx="15.6" ry="15.6"/>
	</g>
	<g class="st4">
		
			<ellipse transform="matrix(1 -3.820067e-03 3.820067e-03 1 -1.2021 0.3806)" class="st2" cx="99" cy="314.9" rx="15.6" ry="15.6"/>
	</g>
	<g>
		<g>
			<g>
				<path d="M683.8,869.8c0,3.2-1.8,5.1-4.8,5.1c-3.1,0-4.8-2-4.8-5.1v-7.9h1.3v7.8c0,2.8,1.5,3.9,3.5,3.9c2.2,0,3.4-1.4,3.4-3.8
					v-7.9h1.3V869.8z"/>
				<path d="M692.4,874.9c-1.6,0-2.7-0.8-3.4-1.9v6.1h-1.3v-13h1.3v1.9c0.7-1.1,1.7-2,3.4-2c2.5,0,4.1,2.2,4.1,4.5
					C696.5,872.7,694.9,874.9,692.4,874.9z M695.2,870.4c0-1.8-1.1-3.4-3.1-3.4c-1.8,0-3.1,1.6-3.1,3.4c0,1.8,1.3,3.4,3.1,3.4
					C694,873.8,695.2,872.3,695.2,870.4z"/>
				<path d="M706.4,872.8c-0.7,1.1-1.7,2-3.4,2c-2.5,0-4.1-2.1-4.1-4.5c0-2.3,1.6-4.5,4.1-4.5c1.7,0,2.7,0.9,3.4,2V866h1.3v8.8
					c0,2.8-1.7,4.3-4.4,4.3c-2.3,0-3.9-1.1-4.3-3l1.2-0.4c0.3,1,1.1,2.3,3.1,2.3c1.7,0,3.1-0.9,3.1-3.2V872.8z M706.4,870.3
					c0-1.7-1.3-3.3-3.1-3.3c-1.9,0-3,1.5-3,3.4c0,1.8,1.1,3.3,3,3.3C705.1,873.7,706.4,872.1,706.4,870.3z"/>
				<path d="M712.6,867.8c0.7-1.4,1.8-1.9,2.8-1.9c0.1,0,0.3,0,0.4,0v1.4c-0.2,0-0.3,0-0.5,0c-2.1,0-2.7,1.7-2.7,3.3v4.3h-1.3V866
					h1.3V867.8z"/>
				<path d="M723.5,869.1c0-1.4-0.8-2.1-2.2-2.1c-1.5,0-2.1,0.9-2.3,1.8l-1.2-0.3c0.1-0.7,1-2.7,3.6-2.7c1.8,0,2.8,0.8,3.2,1.8
					c0.2,0.5,0.3,1.2,0.3,1.4v5.6h-1.2v-1.5h0c-0.7,1.1-1.6,1.7-2.9,1.7c-1.8,0-2.9-1.1-2.9-2.6v-0.1c0-1.9,1.9-2.5,3.5-2.5h2.4
					V869.1z M721,870.8c-0.9,0-2.2,0.3-2.2,1.5c0,1,0.8,1.5,1.9,1.5c1.6,0,2.7-1.1,2.7-2.7v-0.3H721z"/>
				<path d="M731.8,865.9c1.7,0,2.7,0.9,3.4,2v-6.4h1.3v13.3h-1.2v-1.9c-0.7,1.1-1.7,2-3.4,2c-2.5,0-4.1-2.1-4.1-4.5
					C727.7,868.1,729.3,865.9,731.8,865.9z M735.2,870.4c0-1.7-1.3-3.4-3.1-3.4c-1.9,0-3.1,1.5-3.1,3.4c0,1.8,1.1,3.4,3.1,3.4
					C733.9,873.8,735.2,872.2,735.2,870.4z"/>
				<path d="M740.8,870.8c0.1,1.7,1.4,3,3.1,3c1.3,0,2.3-0.6,2.7-1.9l1.1,0.4c-0.5,1.7-2.1,2.6-3.8,2.6c-2.5,0-4.4-2-4.4-4.5
					c0-2.4,1.8-4.5,4.3-4.5c2.7,0,4.1,1.9,4.1,4.5c0,0.1,0,0.3,0,0.4H740.8z M746.6,869.7c-0.2-1.6-1.2-2.7-2.8-2.7
					c-1.5,0-2.7,1.3-2.9,2.7H746.6z"/>
				<path d="M753.6,874.9c-2.4,0-3.2-1.6-3.3-2.6l1.2-0.3c0.2,0.8,0.8,1.7,2.1,1.7c0.9,0,1.8-0.5,1.8-1.4c0-1.1-1.1-1.3-2-1.4
					c-1.5-0.2-2.9-0.7-2.9-2.4c0-1.6,1.5-2.6,2.9-2.6c2.3,0,3,1.5,3.2,2.4l-1.2,0.3c-0.1-0.6-0.6-1.5-2-1.5c-0.9,0-1.7,0.6-1.7,1.4
					c0,1.1,1.2,1.3,2.1,1.4c1.4,0.2,2.9,0.9,2.9,2.5C756.7,873.9,755.2,874.9,753.6,874.9z"/>
				<path d="M769.8,861.4h1.3l-5.6,13.4h-1.3L769.8,861.4z"/>
				<path d="M784,874.9c-1.6,0-2.7-0.8-3.4-1.9v6.1h-1.3v-13h1.3v1.9c0.7-1.1,1.7-2,3.4-2c2.5,0,4.1,2.2,4.1,4.5
					C788.1,872.7,786.5,874.9,784,874.9z M786.8,870.4c0-1.8-1.1-3.4-3.1-3.4c-1.8,0-3.1,1.6-3.1,3.4c0,1.8,1.3,3.4,3.1,3.4
					C785.7,873.8,786.8,872.3,786.8,870.4z"/>
				<path d="M796.5,869.1c0-1.4-0.8-2.1-2.2-2.1c-1.5,0-2.1,0.9-2.3,1.8l-1.2-0.3c0.1-0.7,1-2.7,3.6-2.7c1.8,0,2.8,0.8,3.2,1.8
					c0.2,0.5,0.3,1.2,0.3,1.4v5.6h-1.2v-1.5h0c-0.7,1.1-1.6,1.7-2.9,1.7c-1.8,0-2.9-1.1-2.9-2.6v-0.1c0-1.9,1.9-2.5,3.5-2.5h2.4
					V869.1z M794,870.8c-0.9,0-2.2,0.3-2.2,1.5c0,1,0.8,1.5,1.9,1.5c1.6,0,2.7-1.1,2.7-2.7v-0.3H794z"/>
				<path d="M801.8,872.5v-5.4h-1.6V866h1.6v-2.5h1.3v2.5h2.2v1.1h-2.2v5.3c0,0.8,0.5,1.2,1.4,1.2c0.3,0,0.6,0,0.8-0.1v1.1
					c-0.3,0.1-0.8,0.1-1,0.1C802.4,874.8,801.8,873.8,801.8,872.5z"/>
				<path d="M811.9,873.8c1.9,0,2.7-1.4,2.9-2.1l1.2,0.4c-0.4,1.3-1.8,2.8-4.1,2.8c-2.5,0-4.5-1.9-4.5-4.5c0-2.7,2-4.6,4.5-4.6
					c2,0,3.7,1.3,4,2.8l-1.2,0.4c-0.2-0.7-1.1-2-2.9-2c-1.9,0-3.2,1.5-3.2,3.3C808.8,872.2,809.9,873.8,811.9,873.8z"/>
				<path d="M825.3,869.7c0-1.6-0.8-2.7-2.4-2.7c-1.5,0-2.6,1.2-2.6,2.8v5H819v-13.3h1.3v6.2c0.7-1.1,1.7-1.7,3-1.7
					c2.1,0,3.3,1.5,3.3,3.5v5.4h-1.3V869.7z"/>
				<path d="M830.8,870.8c0.1,1.7,1.4,3,3.1,3c1.3,0,2.3-0.6,2.7-1.9l1.1,0.4c-0.5,1.7-2.1,2.6-3.8,2.6c-2.5,0-4.4-2-4.4-4.5
					c0-2.4,1.8-4.5,4.3-4.5c2.7,0,4.1,1.9,4.1,4.5c0,0.1,0,0.3,0,0.4H830.8z M836.6,869.7c-0.2-1.6-1.2-2.7-2.8-2.7
					c-1.5,0-2.7,1.3-2.9,2.7H836.6z"/>
				<path d="M843.6,874.9c-2.4,0-3.2-1.6-3.3-2.6l1.2-0.3c0.2,0.8,0.8,1.7,2.1,1.7c0.9,0,1.8-0.5,1.8-1.4c0-1.1-1.1-1.3-2-1.4
					c-1.5-0.2-2.9-0.7-2.9-2.4c0-1.6,1.5-2.6,2.9-2.6c2.3,0,3,1.5,3.2,2.4l-1.2,0.3c-0.1-0.6-0.6-1.5-2-1.5c-0.9,0-1.7,0.6-1.7,1.4
					c0,1.1,1.2,1.3,2.1,1.4c1.4,0.2,2.9,0.9,2.9,2.5C846.7,873.9,845.2,874.9,843.6,874.9z"/>
			</g>
		</g>
		<g>
			<g>
				<g>
					<path class="st2" d="M657.8,660.2l-3.5,2.1l-0.7-1.2l4.2-2.6h1.5v14.6h-1.5V660.2z"/>
					<path class="st2" d="M667.3,673.4c-2.6,0-4.8-1.6-5.1-4l1.5-0.3c0.3,1.7,1.6,2.9,3.6,2.9c2,0,3.5-1.1,3.5-2.7s-1.3-2.7-3.5-2.7
						h-1.5v-1.4h1.4c2,0,3.3-1.2,3.3-2.6c0-1.5-1.1-2.6-3.2-2.6c-2,0-3.2,1.2-3.4,2.8l-1.5-0.3c0.3-2,2.2-3.8,4.9-3.8
						c3.2,0,4.8,1.9,4.8,3.9c0,1.7-0.9,2.7-2.3,3.4v0c1.7,0.5,2.7,1.8,2.7,3.5C672.4,671.5,670.4,673.4,667.3,673.4z"/>
					<path class="st2" d="M675.8,666.5c-1.1,0-1.9-0.9-1.9-1.9c0-1.1,0.9-1.9,1.9-1.9c1.1,0,1.9,0.9,1.9,1.9
						C677.8,665.7,676.9,666.5,675.8,666.5z M675.8,663.4c-0.7,0-1.2,0.5-1.2,1.2c0,0.7,0.5,1.2,1.2,1.2s1.2-0.5,1.2-1.2
						C677.1,663.9,676.5,663.4,675.8,663.4z M680.5,662.8h0.9l-5.6,8.5H675L680.5,662.8z M680.6,671.4c-1.1,0-1.9-0.9-1.9-1.9
						c0-1.1,0.9-1.9,1.9-1.9c1.1,0,1.9,0.9,1.9,1.9C682.5,670.5,681.6,671.4,680.6,671.4z M680.6,668.2c-0.7,0-1.2,0.5-1.2,1.2
						c0,0.7,0.5,1.2,1.2,1.2c0.7,0,1.2-0.5,1.2-1.2C681.8,668.8,681.2,668.2,680.6,668.2z"/>
				</g>
			</g>
			<g>
				<path class="st3" d="M742.6,713.2c-1,1.6-2.9,2.2-4.2,2.2c-3.1,0-4.9-2.3-4.9-4.7c0-3.3,2.6-5,5.2-5c1.6,0,3.4,0.9,4.3,2.5
					c0.7,1.3,1,2.5,1,4.1c0,4.8-2.3,8.3-6.8,8.3c-0.8,0-2.4-0.2-3.4-0.9l0.6-1.4c1,0.6,2.2,0.8,2.8,0.8
					C740.5,719.1,742.4,716.6,742.6,713.2z M741.2,713.2c0.7-0.6,1.2-1.6,1.2-2.6c0-2.2-1.8-3.5-3.6-3.5c-1.9,0-3.6,1.2-3.6,3.5
					c0,1.8,1.3,3.4,3.6,3.4C739.6,714.1,740.5,713.7,741.2,713.2z"/>
				<path class="st3" d="M747.6,713.7c-1.1,0-1.9-0.9-1.9-1.9c0-1.1,0.9-1.9,1.9-1.9c1.1,0,1.9,0.9,1.9,1.9
					C749.5,712.9,748.6,713.7,747.6,713.7z M747.6,710.6c-0.7,0-1.2,0.5-1.2,1.2c0,0.7,0.5,1.2,1.2,1.2c0.7,0,1.2-0.5,1.2-1.2
					C748.8,711.2,748.2,710.6,747.6,710.6z M752.3,710h0.9l-5.6,8.5h-0.9L752.3,710z M752.3,718.6c-1.1,0-1.9-0.9-1.9-1.9
					c0-1.1,0.9-1.9,1.9-1.9c1.1,0,1.9,0.9,1.9,1.9C754.2,717.7,753.4,718.6,752.3,718.6z M752.3,715.5c-0.7,0-1.2,0.5-1.2,1.2
					c0,0.7,0.5,1.2,1.2,1.2c0.7,0,1.2-0.5,1.2-1.2C753.5,716,753,715.5,752.3,715.5z"/>
			</g>
			<g>
				<path d="M797.2,599.4c0-1.7,0.8-3.6,3.4-5.1l2.2-1.4c1.4-0.9,2.6-1.8,2.6-3.5c0-1.5-1.3-2.9-3.2-2.9c-1.6,0-2.6,1-3,1.9
					c-0.3,0.6-0.3,1.2-0.3,1.4l-1.5-0.2c0-2.1,1.8-4.5,4.9-4.5c2.7,0,4.8,2.1,4.8,4.3c0,2.1-1.2,3.3-3.1,4.5l-2.3,1.4
					c-1.3,0.8-2.4,1.8-2.5,3.1h8v1.4h-9.9V599.4z"/>
				<path d="M809.2,592.6c0-3.6,2.1-7.5,6.1-7.5c4,0,6,3.8,6,7.4c0,3.6-2.1,7.5-6.1,7.5C811.2,600,809.2,596.2,809.2,592.6z
					 M810.8,592.5c0,2.6,1.3,6.1,4.5,6.1c3.2,0,4.5-3.4,4.5-6c0-2.6-1.4-6.1-4.5-6.1S810.8,589.9,810.8,592.5z"/>
				<path d="M824.8,593.2c-1.1,0-1.9-0.9-1.9-1.9c0-1.1,0.9-1.9,1.9-1.9c1.1,0,1.9,0.9,1.9,1.9C826.7,592.3,825.9,593.2,824.8,593.2
					z M824.8,590c-0.7,0-1.2,0.5-1.2,1.2c0,0.7,0.5,1.2,1.2,1.2c0.7,0,1.2-0.5,1.2-1.2C826,590.6,825.5,590,824.8,590z M829.5,589.4
					h0.9l-5.6,8.5H824L829.5,589.4z M829.5,598c-1.1,0-1.9-0.9-1.9-1.9c0-1.1,0.9-1.9,1.9-1.9c1.1,0,1.9,0.9,1.9,1.9
					C831.5,597.1,830.6,598,829.5,598z M829.5,594.9c-0.7,0-1.2,0.5-1.2,1.2c0,0.7,0.5,1.2,1.2,1.2c0.7,0,1.2-0.5,1.2-1.2
					C830.8,595.4,830.2,594.9,829.5,594.9z"/>
			</g>
			<g>
				<g>
					<g>
						<rect x="796.1" y="609.5" width="71.4" height="214.9"/>
					</g>
				</g>
			</g>
			<g>
				<g>
					<g>
						<rect x="724.8" y="727.7" class="st3" width="71.4" height="96.7"/>
					</g>
				</g>
			</g>
			<g>
				<g>
					<g>
						<rect x="653.4" y="684.7" class="st2" width="71.4" height="139.7"/>
					</g>
				</g>
			</g>
		</g>
	</g>
	<g>
		<g>
			<g>
				<path d="M400.2,868.4c0-3.9,2.9-6.6,6.5-6.6c3.5,0,5.3,2.5,5.7,4.2l-1.3,0.5c-0.2-0.8-1.3-3.4-4.5-3.4c-2.7,0-5,2.1-5,5.2
					c0,3,2.1,5.3,5,5.3c3.1,0,4.1-2.4,4.5-3.4l1.3,0.5c-0.5,1.6-2.1,4.2-5.8,4.2C403,874.9,400.2,872.3,400.2,868.4z"/>
				<path d="M414.6,870.4c0-2.6,1.9-4.6,4.5-4.6c2.5,0,4.5,2,4.5,4.5c0,2.6-2,4.6-4.5,4.6C416.6,874.9,414.6,872.9,414.6,870.4z
					 M422.4,870.4c0-1.8-1.3-3.4-3.2-3.4c-1.9,0-3.2,1.5-3.2,3.4c0,1.8,1.3,3.4,3.2,3.4C421,873.8,422.4,872.2,422.4,870.4z"/>
				<path d="M433,869.7c0-1.6-0.8-2.7-2.4-2.7c-1.5,0-2.6,1.2-2.6,2.8v5h-1.3V866h1.3v1.6c0.7-1.2,1.7-1.8,3-1.8
					c2.1,0,3.3,1.5,3.3,3.5v5.4H433V869.7z"/>
				<path d="M444.2,869.7c0-1.6-0.8-2.7-2.4-2.7c-1.5,0-2.6,1.2-2.6,2.8v5h-1.3V866h1.3v1.6c0.7-1.2,1.7-1.8,3-1.8
					c2.1,0,3.3,1.5,3.3,3.5v5.4h-1.3V869.7z"/>
				<path d="M449.7,870.8c0.1,1.7,1.4,3,3.1,3c1.3,0,2.3-0.6,2.7-1.9l1.1,0.4c-0.5,1.7-2.1,2.6-3.8,2.6c-2.5,0-4.4-2-4.4-4.5
					c0-2.4,1.8-4.5,4.3-4.5c2.7,0,4.1,1.9,4.1,4.5c0,0.1,0,0.3,0,0.4H449.7z M455.5,869.7c-0.2-1.6-1.2-2.7-2.8-2.7
					c-1.5,0-2.7,1.3-2.9,2.7H455.5z"/>
				<path d="M463.6,873.8c1.9,0,2.7-1.4,2.9-2.1l1.2,0.4c-0.4,1.3-1.8,2.8-4.1,2.8c-2.5,0-4.5-1.9-4.5-4.5c0-2.7,2-4.6,4.5-4.6
					c2,0,3.7,1.3,4,2.8l-1.2,0.4c-0.2-0.7-1.1-2-2.9-2c-1.9,0-3.2,1.5-3.2,3.3C460.5,872.2,461.6,873.8,463.6,873.8z"/>
				<path d="M471.2,872.5v-5.4h-1.6V866h1.6v-2.5h1.3v2.5h2.2v1.1h-2.2v5.3c0,0.8,0.5,1.2,1.4,1.2c0.3,0,0.6,0,0.8-0.1v1.1
					c-0.3,0.1-0.8,0.1-1,0.1C471.7,874.8,471.2,873.8,471.2,872.5z"/>
				<path d="M478.2,861.9c0.5,0,1,0.4,1,1c0,0.5-0.4,0.9-1,0.9c-0.5,0-0.9-0.4-0.9-0.9C477.3,862.4,477.7,861.9,478.2,861.9z
					 M478.9,866v8.7h-1.3V866H478.9z"/>
				<path d="M481.5,866h1.4l3,7.3l3-7.3h1.4l-3.7,8.7h-1.4L481.5,866z"/>
				<path d="M493.6,861.9c0.5,0,1,0.4,1,1c0,0.5-0.4,0.9-1,0.9c-0.5,0-0.9-0.4-0.9-0.9C492.7,862.4,493.1,861.9,493.6,861.9z
					 M494.3,866v8.7H493V866H494.3z"/>
				<path d="M498.5,872.5v-5.4h-1.6V866h1.6v-2.5h1.3v2.5h2.2v1.1h-2.2v5.3c0,0.8,0.5,1.2,1.4,1.2c0.3,0,0.6,0,0.8-0.1v1.1
					c-0.3,0.1-0.8,0.1-1,0.1C499.1,874.8,498.5,873.8,498.5,872.5z"/>
				<path d="M507.9,874.2l-4-8.2h1.5l3.2,6.8l3-6.8h1.4l-6,13h-1.4L507.9,874.2z"/>
				<path d="M521.2,861.9c0.5,0,1,0.4,1,1c0,0.5-0.4,0.9-1,0.9c-0.5,0-0.9-0.4-0.9-0.9C520.3,862.4,520.7,861.9,521.2,861.9z
					 M521.9,866v8.7h-1.3V866H521.9z"/>
				<path d="M528.2,874.9c-2.4,0-3.2-1.6-3.3-2.6l1.2-0.3c0.2,0.8,0.8,1.7,2.1,1.7c0.9,0,1.8-0.5,1.8-1.4c0-1.1-1.1-1.3-2-1.4
					c-1.5-0.2-2.9-0.7-2.9-2.4c0-1.6,1.5-2.6,2.9-2.6c2.3,0,3,1.5,3.2,2.4l-1.2,0.3c-0.1-0.6-0.6-1.5-2-1.5c-0.9,0-1.7,0.6-1.7,1.4
					c0,1.1,1.2,1.3,2.1,1.4c1.4,0.2,2.9,0.9,2.9,2.5C531.3,873.9,529.9,874.9,528.2,874.9z"/>
				<path d="M537.1,874.9c-2.4,0-3.2-1.6-3.3-2.6l1.2-0.3c0.2,0.8,0.8,1.7,2.1,1.7c0.9,0,1.8-0.5,1.8-1.4c0-1.1-1.1-1.3-2-1.4
					c-1.5-0.2-2.9-0.7-2.9-2.4c0-1.6,1.5-2.6,2.9-2.6c2.3,0,3,1.5,3.2,2.4l-1.2,0.3c-0.1-0.6-0.6-1.5-2-1.5c-0.9,0-1.7,0.6-1.7,1.4
					c0,1.1,1.2,1.3,2.1,1.4c1.4,0.2,2.9,0.9,2.9,2.5C540.2,873.9,538.8,874.9,537.1,874.9z"/>
				<path d="M544.4,871.1c0,1.6,0.8,2.7,2.4,2.7c1.5,0,2.6-1.2,2.6-2.8v-5h1.3v8.7h-1.2v-1.6c-0.7,1.2-1.7,1.8-3,1.8
					c-2.1,0-3.3-1.5-3.3-3.5V866h1.3V871.1z"/>
				<path d="M555.1,870.8c0.1,1.7,1.4,3,3.1,3c1.3,0,2.3-0.6,2.7-1.9l1.1,0.4c-0.5,1.7-2.1,2.6-3.8,2.6c-2.5,0-4.4-2-4.4-4.5
					c0-2.4,1.8-4.5,4.3-4.5c2.7,0,4.1,1.9,4.1,4.5c0,0.1,0,0.3,0,0.4H555.1z M560.9,869.7c-0.2-1.6-1.2-2.7-2.8-2.7
					c-1.5,0-2.7,1.3-2.9,2.7H560.9z"/>
				<path d="M567.9,874.9c-2.4,0-3.2-1.6-3.3-2.6l1.2-0.3c0.2,0.8,0.8,1.7,2.1,1.7c0.9,0,1.8-0.5,1.8-1.4c0-1.1-1.1-1.3-2-1.4
					c-1.5-0.2-2.9-0.7-2.9-2.4c0-1.6,1.5-2.6,2.9-2.6c2.3,0,3,1.5,3.2,2.4l-1.2,0.3c-0.1-0.6-0.6-1.5-2-1.5c-0.9,0-1.7,0.6-1.7,1.4
					c0,1.1,1.2,1.3,2.1,1.4c1.4,0.2,2.9,0.9,2.9,2.5C571,873.9,569.5,874.9,567.9,874.9z"/>
			</g>
		</g>
		<g>
			<g>
				<g>
					<path class="st2" d="M379.9,597.9c0-1.7,0.8-3.6,3.4-5.1l2.2-1.4c1.4-0.9,2.6-1.8,2.6-3.5c0-1.5-1.3-2.9-3.2-2.9
						c-1.6,0-2.6,1-3,1.9c-0.3,0.6-0.3,1.2-0.3,1.4L380,588c0-2.1,1.8-4.5,4.9-4.5c2.7,0,4.8,2.1,4.8,4.3c0,2.1-1.2,3.3-3.1,4.5
						l-2.3,1.4c-1.3,0.8-2.4,1.8-2.5,3.1h8v1.4h-9.9V597.9z"/>
					<path class="st2" d="M391.9,591.1c0-3.6,2.1-7.5,6.1-7.5c4,0,6,3.8,6,7.4c0,3.6-2.1,7.5-6.1,7.5
						C393.9,598.5,391.9,594.7,391.9,591.1z M393.5,591c0,2.6,1.3,6.1,4.5,6.1c3.2,0,4.5-3.4,4.5-6c0-2.6-1.4-6.1-4.5-6.1
						S393.5,588.3,393.5,591z"/>
					<path class="st2" d="M407.5,591.6c-1.1,0-1.9-0.9-1.9-1.9c0-1.1,0.9-1.9,1.9-1.9c1.1,0,1.9,0.9,1.9,1.9
						C409.5,590.7,408.6,591.6,407.5,591.6z M407.5,588.5c-0.7,0-1.2,0.5-1.2,1.2c0,0.7,0.5,1.2,1.2,1.2c0.7,0,1.2-0.5,1.2-1.2
						C408.7,589,408.2,588.5,407.5,588.5z M412.2,587.9h0.9l-5.6,8.5h-0.9L412.2,587.9z M412.3,596.4c-1.1,0-1.9-0.9-1.9-1.9
						c0-1.1,0.9-1.9,1.9-1.9c1.1,0,1.9,0.9,1.9,1.9C414.2,595.6,413.3,596.4,412.3,596.4z M412.3,593.3c-0.7,0-1.2,0.5-1.2,1.2
						c0,0.7,0.5,1.2,1.2,1.2c0.7,0,1.2-0.5,1.2-1.2C413.5,593.9,412.9,593.3,412.3,593.3z"/>
				</g>
			</g>
			<g>
				<path class="st3" d="M451.3,501.3c0-1.7,0.8-3.6,3.4-5.1l2.2-1.4c1.4-0.9,2.6-1.8,2.6-3.5c0-1.5-1.3-2.9-3.2-2.9
					c-1.6,0-2.6,1-3,1.9c-0.3,0.6-0.3,1.2-0.3,1.4l-1.5-0.2c0-2.1,1.8-4.5,4.9-4.5c2.7,0,4.8,2.1,4.8,4.3c0,2.1-1.2,3.3-3.1,4.5
					l-2.3,1.4c-1.3,0.8-2.4,1.8-2.5,3.1h8v1.4h-9.9V501.3z"/>
				<path class="st3" d="M472.3,494.4c-1,1.6-2.9,2.2-4.2,2.2c-3.1,0-4.9-2.3-4.9-4.7c0-3.3,2.6-5,5.2-5c1.6,0,3.4,0.9,4.3,2.5
					c0.7,1.3,1,2.5,1,4.1c0,4.8-2.3,8.3-6.8,8.3c-0.8,0-2.4-0.2-3.4-0.9l0.6-1.4c1,0.6,2.2,0.8,2.8,0.8
					C470.1,500.4,472,497.8,472.3,494.4z M470.8,494.4c0.7-0.6,1.2-1.6,1.2-2.6c0-2.2-1.8-3.5-3.6-3.5c-1.9,0-3.6,1.2-3.6,3.5
					c0,1.8,1.3,3.4,3.6,3.4C469.2,495.3,470.1,495,470.8,494.4z"/>
				<path class="st3" d="M477.2,495c-1.1,0-1.9-0.9-1.9-1.9c0-1.1,0.9-1.9,1.9-1.9c1.1,0,1.9,0.9,1.9,1.9
					C479.1,494.1,478.3,495,477.2,495z M477.2,491.9c-0.7,0-1.2,0.5-1.2,1.2c0,0.7,0.5,1.2,1.2,1.2c0.7,0,1.2-0.5,1.2-1.2
					C478.4,492.4,477.9,491.9,477.2,491.9z M481.9,491.2h0.9l-5.6,8.5h-0.9L481.9,491.2z M481.9,499.8c-1.1,0-1.9-0.9-1.9-1.9
					c0-1.1,0.9-1.9,1.9-1.9c1.1,0,1.9,0.9,1.9,1.9C483.9,499,483,499.8,481.9,499.8z M481.9,496.7c-0.7,0-1.2,0.5-1.2,1.2
					c0,0.7,0.5,1.2,1.2,1.2c0.7,0,1.2-0.5,1.2-1.2C483.1,497.2,482.6,496.7,481.9,496.7z"/>
			</g>
			<g class="st4">
				<path d="M533.1,630.1l-3.5,2.1l-0.7-1.2l4.2-2.6h1.5v14.6h-1.5V630.1z"/>
				<path d="M539.3,635.7c1-1.6,2.8-2.1,4-2.1c3.1,0,4.9,2.2,4.9,4.7c0,3.3-2.7,5-5.2,5c-1.6,0-3.5-0.9-4.4-2.5
					c-0.7-1.3-0.9-2.2-0.9-4c0-4.6,2.5-8.4,7.2-8.4c0.8,0,2,0.1,3,0.7l-0.6,1.4c-0.8-0.5-1.8-0.6-2.4-0.6
					C541.5,629.8,539.6,632.5,539.3,635.7z M540.6,635.8c-0.7,0.6-1.2,1.5-1.2,2.5c0,2.2,1.8,3.5,3.6,3.5c1.8,0,3.6-1.2,3.6-3.5
					c0-1.8-1.4-3.4-3.6-3.4C542.2,635,541.3,635.3,540.6,635.8z"/>
				<path d="M551.6,636.4c-1.1,0-1.9-0.9-1.9-1.9c0-1.1,0.9-1.9,1.9-1.9c1.1,0,1.9,0.9,1.9,1.9C553.5,635.6,552.6,636.4,551.6,636.4
					z M551.6,633.3c-0.7,0-1.2,0.5-1.2,1.2c0,0.7,0.5,1.2,1.2,1.2c0.7,0,1.2-0.5,1.2-1.2C552.8,633.8,552.2,633.3,551.6,633.3z
					 M556.3,632.7h0.9l-5.6,8.5h-0.9L556.3,632.7z M556.3,641.2c-1.1,0-1.9-0.9-1.9-1.9c0-1.1,0.9-1.9,1.9-1.9s1.9,0.9,1.9,1.9
					C558.2,640.4,557.4,641.2,556.3,641.2z M556.3,638.1c-0.7,0-1.2,0.5-1.2,1.2c0,0.7,0.5,1.2,1.2,1.2s1.2-0.5,1.2-1.2
					C557.5,638.7,557,638.1,556.3,638.1z"/>
			</g>
			<g class="st4">
				<g>
					<g>
						<rect x="521.6" y="652.5" width="71.4" height="171.9"/>
					</g>
				</g>
			</g>
			<g>
				<g>
					<g>
						<rect x="450.2" y="512.8" class="st3" width="71.4" height="311.6"/>
					</g>
				</g>
			</g>
			<g>
				<g>
					<g>
						<rect x="378.9" y="609.6" class="st2" width="71.4" height="214.9"/>
					</g>
				</g>
			</g>
		</g>
	</g>
	<g>
		<g>
			<g>
				<path d="M142,868.9v5.9h-1.3v-12.8h1.3v5.7h7.3v-5.7h1.3v12.8h-1.3v-5.9H142z"/>
				<path d="M159.9,869.1c0-1.4-0.8-2.1-2.2-2.1c-1.5,0-2.1,0.9-2.3,1.8l-1.2-0.3c0.1-0.7,1-2.7,3.6-2.7c1.8,0,2.8,0.8,3.2,1.8
					c0.2,0.5,0.3,1.2,0.3,1.4v5.6h-1.2v-1.5h0c-0.7,1.1-1.6,1.7-2.9,1.7c-1.8,0-2.9-1.1-2.9-2.6v-0.1c0-1.9,1.9-2.5,3.5-2.5h2.4
					V869.1z M157.5,870.8c-0.9,0-2.2,0.3-2.2,1.5c0,1,0.8,1.5,1.9,1.5c1.6,0,2.7-1.1,2.7-2.7v-0.3H157.5z"/>
				<path d="M166,867.8c0.7-1.4,1.8-1.9,2.8-1.9c0.1,0,0.3,0,0.4,0v1.4c-0.2,0-0.3,0-0.5,0c-2.1,0-2.7,1.7-2.7,3.3v4.3h-1.3V866h1.3
					V867.8z"/>
				<path d="M174.9,865.9c1.7,0,2.7,0.9,3.4,2v-6.4h1.3v13.3h-1.2v-1.9c-0.7,1.1-1.7,2-3.4,2c-2.5,0-4.1-2.1-4.1-4.5
					C170.9,868.1,172.5,865.9,174.9,865.9z M178.4,870.4c0-1.7-1.3-3.4-3.1-3.4c-1.9,0-3.1,1.5-3.1,3.4c0,1.8,1.1,3.4,3.1,3.4
					C177.1,873.8,178.4,872.2,178.4,870.4z"/>
				<path d="M185.2,874.8l-2.9-8.7h1.4l2.3,7.3h0l2.4-7.3h1.3l2.4,7.3h0l2.3-7.3h1.3l-2.9,8.7h-1.4l-2.3-7.1h0l-2.3,7.1H185.2z"/>
				<path d="M203.3,869.1c0-1.4-0.8-2.1-2.2-2.1c-1.5,0-2.1,0.9-2.3,1.8l-1.2-0.3c0.1-0.7,1-2.7,3.6-2.7c1.8,0,2.8,0.8,3.2,1.8
					c0.2,0.5,0.3,1.2,0.3,1.4v5.6h-1.2v-1.5h0c-0.7,1.1-1.6,1.7-2.9,1.7c-1.8,0-2.9-1.1-2.9-2.6v-0.1c0-1.9,1.9-2.5,3.5-2.5h2.4
					V869.1z M200.9,870.8c-0.9,0-2.2,0.3-2.2,1.5c0,1,0.8,1.5,1.9,1.5c1.6,0,2.7-1.1,2.7-2.7v-0.3H200.9z"/>
				<path d="M209.4,867.8c0.7-1.4,1.8-1.9,2.8-1.9c0.1,0,0.3,0,0.4,0v1.4c-0.2,0-0.3,0-0.5,0c-2.1,0-2.7,1.7-2.7,3.3v4.3h-1.3V866
					h1.3V867.8z"/>
				<path d="M215.5,870.8c0.1,1.7,1.4,3,3.1,3c1.3,0,2.3-0.6,2.7-1.9l1.1,0.4c-0.5,1.7-2.1,2.6-3.8,2.6c-2.5,0-4.4-2-4.4-4.5
					c0-2.4,1.8-4.5,4.3-4.5c2.7,0,4.1,1.9,4.1,4.5c0,0.1,0,0.3,0,0.4H215.5z M221.3,869.7c-0.2-1.6-1.2-2.7-2.8-2.7
					c-1.5,0-2.7,1.3-2.9,2.7H221.3z"/>
				<path d="M232.9,864.4v1.7h2.3v1.1h-2.3v7.6h-1.3v-7.6H230V866h1.7v-1.6c0-2,1.1-3,2.7-3c0.2,0,0.6,0,1,0.2v1.1
					c-0.3-0.1-0.7-0.1-0.9-0.1C233.7,862.5,232.9,862.9,232.9,864.4z"/>
				<path d="M242.8,869.1c0-1.4-0.8-2.1-2.2-2.1c-1.5,0-2.1,0.9-2.3,1.8l-1.2-0.3c0.1-0.7,1-2.7,3.6-2.7c1.8,0,2.8,0.8,3.2,1.8
					c0.2,0.5,0.3,1.2,0.3,1.4v5.6h-1.2v-1.5h0c-0.7,1.1-1.6,1.7-2.9,1.7c-1.8,0-2.9-1.1-2.9-2.6v-0.1c0-1.9,1.9-2.5,3.5-2.5h2.4
					V869.1z M240.4,870.8c-0.9,0-2.2,0.3-2.2,1.5c0,1,0.8,1.5,1.9,1.5c1.6,0,2.7-1.1,2.7-2.7v-0.3H240.4z"/>
				<path d="M248.3,861.9c0.5,0,1,0.4,1,1c0,0.5-0.4,0.9-1,0.9c-0.5,0-0.9-0.4-0.9-0.9C247.4,862.4,247.8,861.9,248.3,861.9z
					 M249,866v8.7h-1.3V866H249z"/>
				<path d="M254,861.4v13.3h-1.3v-13.3H254z"/>
				<path d="M258.8,871.1c0,1.6,0.8,2.7,2.4,2.7c1.5,0,2.6-1.2,2.6-2.8v-5h1.3v8.7h-1.2v-1.6c-0.7,1.2-1.7,1.8-3,1.8
					c-2.1,0-3.3-1.5-3.3-3.5V866h1.3V871.1z"/>
				<path d="M270.1,867.8c0.7-1.4,1.8-1.9,2.8-1.9c0.1,0,0.3,0,0.4,0v1.4c-0.2,0-0.3,0-0.5,0c-2.1,0-2.7,1.7-2.7,3.3v4.3h-1.3V866
					h1.3V867.8z"/>
				<path d="M276.2,870.8c0.1,1.7,1.4,3,3.1,3c1.3,0,2.3-0.6,2.7-1.9l1.1,0.4c-0.5,1.7-2.1,2.6-3.8,2.6c-2.5,0-4.4-2-4.4-4.5
					c0-2.4,1.8-4.5,4.3-4.5c2.7,0,4.1,1.9,4.1,4.5c0,0.1,0,0.3,0,0.4H276.2z M282,869.7c-0.2-1.6-1.2-2.7-2.8-2.7
					c-1.5,0-2.7,1.3-2.9,2.7H282z"/>
			</g>
		</g>
		<g>
			<g>
				<g>
					<path class="st2" d="M105.4,553.7c0-1.7,0.8-3.6,3.4-5.1l2.2-1.4c1.4-0.9,2.6-1.8,2.6-3.5c0-1.5-1.3-2.9-3.2-2.9
						c-1.6,0-2.6,1-3,1.9c-0.3,0.6-0.3,1.2-0.3,1.4l-1.5-0.2c0-2.1,1.8-4.5,4.9-4.5c2.7,0,4.8,2.1,4.8,4.3c0,2.1-1.2,3.3-3.1,4.5
						l-2.3,1.4c-1.3,0.8-2.4,1.8-2.5,3.1h8v1.4h-9.9V553.7z"/>
					<path class="st2" d="M124.2,554.1v-3.5h-7.6v-1.7l7.2-9.4h1.9v9.8h2.5v1.3h-2.5v3.5H124.2z M124.2,549.3v-8.2l-6.2,8.2H124.2z"
						/>
					<path class="st2" d="M131.1,547.4c-1.1,0-1.9-0.9-1.9-1.9c0-1.1,0.9-1.9,1.9-1.9c1.1,0,1.9,0.9,1.9,1.9
						C133,546.5,132.2,547.4,131.1,547.4z M131.1,544.3c-0.7,0-1.2,0.5-1.2,1.2c0,0.7,0.5,1.2,1.2,1.2s1.2-0.5,1.2-1.2
						C132.3,544.8,131.8,544.3,131.1,544.3z M135.8,543.6h0.9l-5.6,8.5h-0.9L135.8,543.6z M135.8,552.2c-1.1,0-1.9-0.9-1.9-1.9
						c0-1.1,0.9-1.9,1.9-1.9c1.1,0,1.9,0.9,1.9,1.9C137.7,551.4,136.9,552.2,135.8,552.2z M135.8,549.1c-0.7,0-1.2,0.5-1.2,1.2
						c0,0.7,0.5,1.2,1.2,1.2s1.2-0.5,1.2-1.2C137,549.6,136.5,549.1,135.8,549.1z"/>
				</g>
			</g>
			<g class="st4">
				<path d="M248.1,532.1c0-1.7,0.8-3.6,3.4-5.1l2.2-1.4c1.4-0.9,2.6-1.8,2.6-3.5c0-1.5-1.3-2.9-3.2-2.9c-1.6,0-2.6,1-3,1.9
					c-0.3,0.6-0.3,1.2-0.3,1.4l-1.5-0.2c0-2.1,1.8-4.5,4.9-4.5c2.7,0,4.8,2.1,4.8,4.3c0,2.1-1.2,3.3-3.1,4.5l-2.3,1.4
					c-1.3,0.8-2.4,1.8-2.5,3.1h8v1.4h-9.9V532.1z"/>
				<path d="M261.8,525.1c1-1.6,2.8-2.1,4-2.1c3.1,0,4.9,2.2,4.9,4.7c0,3.3-2.7,5-5.2,5c-1.6,0-3.5-0.9-4.4-2.5
					c-0.7-1.3-0.9-2.2-0.9-4c0-4.6,2.5-8.4,7.2-8.4c0.8,0,2,0.1,3,0.7l-0.6,1.4c-0.8-0.5-1.8-0.6-2.4-0.6
					C264,519.2,262.1,521.9,261.8,525.1z M263.1,525.2c-0.7,0.6-1.2,1.5-1.2,2.5c0,2.2,1.8,3.5,3.6,3.5c1.8,0,3.6-1.2,3.6-3.5
					c0-1.8-1.4-3.4-3.6-3.4C264.7,524.4,263.8,524.7,263.1,525.2z"/>
				<path d="M274,525.8c-1.1,0-1.9-0.9-1.9-1.9c0-1.1,0.9-1.9,1.9-1.9c1.1,0,1.9,0.9,1.9,1.9C276,524.9,275.1,525.8,274,525.8z
					 M274,522.7c-0.7,0-1.2,0.5-1.2,1.2c0,0.7,0.5,1.2,1.2,1.2c0.7,0,1.2-0.5,1.2-1.2C275.3,523.2,274.7,522.7,274,522.7z
					 M278.7,522h0.9l-5.6,8.5h-0.9L278.7,522z M278.8,530.6c-1.1,0-1.9-0.9-1.9-1.9c0-1.1,0.9-1.9,1.9-1.9s1.9,0.9,1.9,1.9
					C280.7,529.8,279.8,530.6,278.8,530.6z M278.8,527.5c-0.7,0-1.2,0.5-1.2,1.2c0,0.7,0.5,1.2,1.2,1.2c0.7,0,1.2-0.5,1.2-1.2
					C280,528.1,279.4,527.5,278.8,527.5z"/>
			</g>
			<g>
				<path class="st3" d="M188,660.8l-3.5,2.1l-0.7-1.2l4.2-2.6h1.5v14.6H188V660.8z"/>
				<path class="st3" d="M197.5,674c-2.6,0-4.8-1.6-5.1-4l1.5-0.3c0.3,1.7,1.6,2.9,3.6,2.9c2,0,3.5-1.1,3.5-2.7s-1.3-2.7-3.5-2.7
					h-1.5v-1.4h1.4c2,0,3.3-1.2,3.3-2.6c0-1.5-1.1-2.6-3.2-2.6c-2,0-3.2,1.2-3.4,2.8l-1.5-0.3c0.3-2,2.2-3.8,4.9-3.8
					c3.2,0,4.8,1.9,4.8,3.9c0,1.7-0.9,2.7-2.3,3.4v0c1.7,0.5,2.7,1.8,2.7,3.5C202.6,672.1,200.6,674,197.5,674z"/>
				<path class="st3" d="M206,667.1c-1.1,0-1.9-0.9-1.9-1.9c0-1.1,0.9-1.9,1.9-1.9c1.1,0,1.9,0.9,1.9,1.9
					C208,666.3,207.1,667.1,206,667.1z M206,664c-0.7,0-1.2,0.5-1.2,1.2c0,0.7,0.5,1.2,1.2,1.2s1.2-0.5,1.2-1.2
					C207.2,664.5,206.7,664,206,664z M210.7,663.4h0.9l-5.6,8.5h-0.9L210.7,663.4z M210.8,672c-1.1,0-1.9-0.9-1.9-1.9
					c0-1.1,0.9-1.9,1.9-1.9c1.1,0,1.9,0.9,1.9,1.9C212.7,671.1,211.8,672,210.8,672z M210.8,668.8c-0.7,0-1.2,0.5-1.2,1.2
					c0,0.7,0.5,1.2,1.2,1.2s1.2-0.5,1.2-1.2C212,669.4,211.4,668.8,210.8,668.8z"/>
			</g>
			<g class="st4">
				<g>
					<g>
						<rect x="247.1" y="544.4" width="71.4" height="279.4"/>
					</g>
				</g>
			</g>
			<g>
				<g>
					<g>
						<rect x="175.7" y="684.1" class="st3" width="71.4" height="139.7"/>
					</g>
				</g>
			</g>
			<g>
				<g>
					<g>
						<rect x="104.3" y="565.9" class="st2" width="71.4" height="257.9"/>
					</g>
				</g>
			</g>
		</g>
	</g>
	<g>
		<g>
			<g>
				<path d="M970.6,868.4c0-3.9,2.9-6.6,6.4-6.6c3.5,0,5.3,2.5,5.7,4.2l-1.3,0.5c-0.2-0.8-1.3-3.4-4.5-3.4c-2.7,0-5,2.1-5,5.2
					c0,3,2.1,5.3,5,5.3c3.1,0,4.1-2.4,4.5-3.4l1.3,0.5c-0.5,1.6-2.1,4.2-5.8,4.2C973.4,874.9,970.6,872.3,970.6,868.4z"/>
				<path d="M987,861.4v13.3h-1.3v-13.3H987z"/>
				<path d="M990,870.4c0-2.6,1.9-4.6,4.5-4.6c2.5,0,4.5,2,4.5,4.5c0,2.6-2,4.6-4.5,4.6C992,874.9,990,872.9,990,870.4z
					 M997.7,870.4c0-1.8-1.3-3.4-3.2-3.4c-1.9,0-3.2,1.5-3.2,3.4c0,1.8,1.3,3.4,3.2,3.4C996.4,873.8,997.7,872.2,997.7,870.4z"/>
				<path d="M1003.3,871.1c0,1.6,0.8,2.7,2.4,2.7c1.5,0,2.6-1.2,2.6-2.8v-5h1.3v8.7h-1.2v-1.6c-0.7,1.2-1.7,1.8-3,1.8
					c-2.1,0-3.3-1.5-3.3-3.5V866h1.3V871.1z"/>
				<path d="M1016.7,865.9c1.7,0,2.7,0.9,3.4,2v-6.4h1.3v13.3h-1.2v-1.9c-0.7,1.1-1.7,2-3.4,2c-2.5,0-4.1-2.1-4.1-4.5
					C1012.6,868.1,1014.3,865.9,1016.7,865.9z M1020.1,870.4c0-1.7-1.3-3.4-3.1-3.4c-1.9,0-3.1,1.5-3.1,3.4c0,1.8,1.1,3.4,3.1,3.4
					C1018.9,873.8,1020.1,872.2,1020.1,870.4z"/>
				<path d="M1029.8,870.4c0-2.6,1.9-4.6,4.5-4.6c2.5,0,4.5,2,4.5,4.5c0,2.6-2,4.6-4.5,4.6C1031.8,874.9,1029.8,872.9,1029.8,870.4z
					 M1037.6,870.4c0-1.8-1.3-3.4-3.2-3.4s-3.2,1.5-3.2,3.4c0,1.8,1.3,3.4,3.2,3.4C1036.2,873.8,1037.6,872.2,1037.6,870.4z"/>
				<path d="M1043.1,871.1c0,1.6,0.8,2.7,2.4,2.7c1.5,0,2.6-1.2,2.6-2.8v-5h1.3v8.7h-1.2v-1.6c-0.7,1.2-1.7,1.8-3,1.8
					c-2.1,0-3.3-1.5-3.3-3.5V866h1.3V871.1z"/>
				<path d="M1053.7,872.5v-5.4h-1.6V866h1.6v-2.5h1.3v2.5h2.2v1.1h-2.2v5.3c0,0.8,0.5,1.2,1.4,1.2c0.3,0,0.6,0,0.8-0.1v1.1
					c-0.3,0.1-0.8,0.1-1,0.1C1054.3,874.8,1053.7,873.8,1053.7,872.5z"/>
				<path d="M1065.4,869.1c0-1.4-0.8-2.1-2.2-2.1c-1.5,0-2.1,0.9-2.3,1.8l-1.2-0.3c0.1-0.7,1-2.7,3.6-2.7c1.8,0,2.8,0.8,3.2,1.8
					c0.2,0.5,0.3,1.2,0.3,1.4v5.6h-1.2v-1.5h0c-0.7,1.1-1.6,1.7-2.9,1.7c-1.8,0-2.9-1.1-2.9-2.6v-0.1c0-1.9,1.9-2.5,3.5-2.5h2.4
					V869.1z M1063,870.8c-0.9,0-2.2,0.3-2.2,1.5c0,1,0.8,1.5,1.9,1.5c1.6,0,2.7-1.1,2.7-2.7v-0.3H1063z"/>
				<path d="M1077.1,872.8c-0.7,1.1-1.7,2-3.4,2c-2.5,0-4.1-2.1-4.1-4.5c0-2.3,1.6-4.5,4.1-4.5c1.7,0,2.7,0.9,3.4,2V866h1.3v8.8
					c0,2.8-1.7,4.3-4.4,4.3c-2.3,0-3.9-1.1-4.3-3l1.2-0.4c0.3,1,1.1,2.3,3.1,2.3c1.7,0,3.1-0.9,3.1-3.2V872.8z M1077.1,870.3
					c0-1.7-1.3-3.3-3.1-3.3c-1.9,0-3,1.5-3,3.4c0,1.8,1.1,3.3,3,3.3C1075.8,873.7,1077.1,872.1,1077.1,870.3z"/>
				<path d="M1082.7,870.8c0.1,1.7,1.4,3,3.1,3c1.3,0,2.3-0.6,2.7-1.9l1.1,0.4c-0.5,1.7-2.1,2.6-3.8,2.6c-2.5,0-4.4-2-4.4-4.5
					c0-2.4,1.8-4.5,4.3-4.5c2.7,0,4.1,1.9,4.1,4.5c0,0.1,0,0.3,0,0.4H1082.7z M1088.5,869.7c-0.2-1.6-1.2-2.7-2.8-2.7
					c-1.5,0-2.7,1.3-2.9,2.7H1088.5z"/>
				<path d="M1095.5,874.9c-2.4,0-3.2-1.6-3.3-2.6l1.2-0.3c0.2,0.8,0.8,1.7,2.1,1.7c0.9,0,1.8-0.5,1.8-1.4c0-1.1-1.1-1.3-2-1.4
					c-1.5-0.2-2.9-0.7-2.9-2.4c0-1.6,1.5-2.6,2.9-2.6c2.3,0,3,1.5,3.2,2.4l-1.2,0.3c-0.1-0.6-0.6-1.5-2-1.5c-0.9,0-1.7,0.6-1.7,1.4
					c0,1.1,1.2,1.3,2.1,1.4c1.4,0.2,2.9,0.9,2.9,2.5C1098.6,873.9,1097.2,874.9,1095.5,874.9z"/>
			</g>
		</g>
		<g>
			<g class="st4">
				<g>
					<g>
						<rect x="1070.7" y="781.4" width="71.4" height="43"/>
					</g>
				</g>
			</g>
			<g>
				<g>
					<g>
						<rect x="999.3" y="792.2" class="st3" width="71.4" height="32.2"/>
					</g>
				</g>
			</g>
			<g>
				<g>
					<g>
						<rect x="927.9" y="781.4" class="st2" width="71.4" height="43"/>
					</g>
				</g>
			</g>
			<g>
				<path class="st2" d="M936,774.4v-3.5h-7.6v-1.7l7.2-9.4h1.9v9.8h2.5v1.3h-2.5v3.5H936z M936,769.5v-8.2l-6.2,8.2H936z"/>
				<path class="st2" d="M942.9,767.6c-1.1,0-1.9-0.9-1.9-1.9c0-1.1,0.9-1.9,1.9-1.9c1.1,0,1.9,0.9,1.9,1.9
					C944.9,766.8,944,767.6,942.9,767.6z M942.9,764.5c-0.7,0-1.2,0.5-1.2,1.2c0,0.7,0.5,1.2,1.2,1.2c0.7,0,1.2-0.5,1.2-1.2
					C944.2,765.1,943.6,764.5,942.9,764.5z M947.7,763.9h0.9l-5.6,8.5h-0.9L947.7,763.9z M947.7,772.5c-1.1,0-1.9-0.9-1.9-1.9
					c0-1.1,0.9-1.9,1.9-1.9c1.1,0,1.9,0.9,1.9,1.9C949.6,771.6,948.7,772.5,947.7,772.5z M947.7,769.4c-0.7,0-1.2,0.5-1.2,1.2
					c0,0.7,0.5,1.2,1.2,1.2c0.7,0,1.2-0.5,1.2-1.2C948.9,769.9,948.3,769.4,947.7,769.4z"/>
			</g>
			<g>
				<path class="st3" d="M1010,785.8c-2.6,0-4.8-1.6-5.1-4l1.5-0.3c0.3,1.7,1.6,2.9,3.6,2.9c2,0,3.5-1.1,3.5-2.7s-1.3-2.7-3.5-2.7
					h-1.5v-1.4h1.4c2,0,3.3-1.2,3.3-2.6c0-1.5-1.1-2.6-3.2-2.6c-2,0-3.2,1.2-3.4,2.8l-1.5-0.3c0.3-2,2.2-3.8,4.9-3.8
					c3.2,0,4.8,1.9,4.8,3.9c0,1.7-0.9,2.7-2.3,3.4v0c1.7,0.5,2.7,1.8,2.7,3.5C1015.1,783.9,1013.1,785.8,1010,785.8z"/>
				<path class="st3" d="M1018.5,778.9c-1.1,0-1.9-0.9-1.9-1.9c0-1.1,0.9-1.9,1.9-1.9c1.1,0,1.9,0.9,1.9,1.9
					C1020.5,778.1,1019.6,778.9,1018.5,778.9z M1018.5,775.8c-0.7,0-1.2,0.5-1.2,1.2c0,0.7,0.5,1.2,1.2,1.2c0.7,0,1.2-0.5,1.2-1.2
					C1019.7,776.4,1019.2,775.8,1018.5,775.8z M1023.2,775.2h0.9l-5.6,8.5h-0.9L1023.2,775.2z M1023.3,783.8c-1.1,0-1.9-0.9-1.9-1.9
					c0-1.1,0.9-1.9,1.9-1.9c1.1,0,1.9,0.9,1.9,1.9C1025.2,782.9,1024.3,783.8,1023.3,783.8z M1023.3,780.7c-0.7,0-1.2,0.5-1.2,1.2
					c0,0.7,0.5,1.2,1.2,1.2c0.7,0,1.2-0.5,1.2-1.2C1024.5,781.2,1023.9,780.7,1023.3,780.7z"/>
			</g>
			<g>
				<path d="M1078.8,774.4v-3.5h-7.6v-1.7l7.2-9.4h1.9v9.8h2.5v1.3h-2.5v3.5H1078.8z M1078.8,769.5v-8.2l-6.2,8.2H1078.8z"/>
				<path d="M1085.7,767.6c-1.1,0-1.9-0.9-1.9-1.9c0-1.1,0.9-1.9,1.9-1.9c1.1,0,1.9,0.9,1.9,1.9
					C1087.7,766.8,1086.8,767.6,1085.7,767.6z M1085.7,764.5c-0.7,0-1.2,0.5-1.2,1.2c0,0.7,0.5,1.2,1.2,1.2c0.7,0,1.2-0.5,1.2-1.2
					C1086.9,765.1,1086.4,764.5,1085.7,764.5z M1090.4,763.9h0.9l-5.6,8.5h-0.9L1090.4,763.9z M1090.5,772.5c-1.1,0-1.9-0.9-1.9-1.9
					c0-1.1,0.9-1.9,1.9-1.9c1.1,0,1.9,0.9,1.9,1.9C1092.4,771.6,1091.5,772.5,1090.5,772.5z M1090.5,769.4c-0.7,0-1.2,0.5-1.2,1.2
					c0,0.7,0.5,1.2,1.2,1.2c0.7,0,1.2-0.5,1.2-1.2C1091.7,769.9,1091.1,769.4,1090.5,769.4z"/>
			</g>
		</g>
	</g>
	<g>
		<g>
			<path d="M1215,860.7h1.4l3.4,10.9h0l3.4-10.9h1.5l3.4,10.9h0l3.4-10.9h1.4l-4,12.8h-1.5l-3.4-11l-3.4,11h-1.5L1215,860.7z"/>
			<path d="M1235.6,869.5c0.1,1.7,1.4,3,3.1,3c1.3,0,2.3-0.6,2.7-1.9l1.1,0.4c-0.5,1.7-2.1,2.6-3.8,2.6c-2.5,0-4.4-2-4.4-4.5
				c0-2.4,1.8-4.5,4.3-4.5c2.7,0,4.1,1.9,4.1,4.5c0,0.1,0,0.3,0,0.4H1235.6z M1241.4,868.4c-0.2-1.6-1.2-2.7-2.8-2.7
				c-1.5,0-2.7,1.3-2.9,2.7H1241.4z"/>
			<path d="M1254.6,864.6c1.7,0,2.7,0.9,3.4,2v-6.4h1.3v13.3h-1.2v-1.9c-0.7,1.1-1.7,2-3.4,2c-2.5,0-4.1-2.1-4.1-4.5
				C1250.5,866.8,1252.1,864.6,1254.6,864.6z M1258,869.1c0-1.7-1.3-3.4-3.1-3.4c-1.9,0-3.1,1.5-3.1,3.4c0,1.8,1.1,3.4,3.1,3.4
				C1256.7,872.5,1258,870.9,1258,869.1z"/>
			<path d="M1263.6,860.7c0.5,0,1,0.4,1,1c0,0.5-0.4,0.9-1,0.9c-0.5,0-0.9-0.4-0.9-0.9C1262.6,861.1,1263,860.7,1263.6,860.7z
				 M1264.2,864.8v8.7h-1.3v-8.7H1264.2z"/>
			<path d="M1271.4,864.6c1.7,0,2.7,0.9,3.4,2v-6.4h1.3v13.3h-1.2v-1.9c-0.7,1.1-1.7,2-3.4,2c-2.5,0-4.1-2.1-4.1-4.5
				C1267.3,866.8,1268.9,864.6,1271.4,864.6z M1274.8,869.1c0-1.7-1.3-3.4-3.1-3.4c-1.9,0-3.1,1.5-3.1,3.4c0,1.8,1.1,3.4,3.1,3.4
				C1273.5,872.5,1274.8,870.9,1274.8,869.1z"/>
			<path d="M1286,868.4c0-1.6-0.8-2.7-2.4-2.7c-1.5,0-2.6,1.2-2.6,2.8v5h-1.3v-8.7h1.3v1.6c0.7-1.2,1.7-1.8,3-1.8
				c2.1,0,3.3,1.5,3.3,3.5v5.4h-1.3V868.4z"/>
			<path d="M1290.2,864.7c0.7-0.6,1.3-1.2,1.4-2c-0.1,0-0.3,0.1-0.4,0.1c-0.6,0-1.1-0.4-1.1-1.1c0-0.7,0.5-1.2,1.1-1.2
				c0.8,0,1.3,0.6,1.3,1.6v0.1c0,1.1-0.6,2.2-1.8,3L1290.2,864.7z"/>
			<path d="M1296.3,871.2v-5.4h-1.6v-1.1h1.6v-2.5h1.3v2.5h2.2v1.1h-2.2v5.3c0,0.8,0.5,1.2,1.4,1.2c0.3,0,0.6,0,0.8-0.1v1.1
				c-0.3,0.1-0.8,0.1-1,0.1C1296.9,873.6,1296.3,872.5,1296.3,871.2z"/>
			<path d="M1308.8,869.5c0.1,1.7,1.4,3,3.1,3c1.3,0,2.3-0.6,2.7-1.9l1.1,0.4c-0.5,1.7-2.1,2.6-3.8,2.6c-2.5,0-4.4-2-4.4-4.5
				c0-2.4,1.8-4.5,4.3-4.5c2.7,0,4.1,1.9,4.1,4.5c0,0.1,0,0.3,0,0.4H1308.8z M1314.6,868.4c-0.2-1.6-1.2-2.7-2.8-2.7
				c-1.5,0-2.7,1.3-2.9,2.7H1314.6z"/>
			<path d="M1319,873.5h-1.5l3.4-4.4l-3.3-4.3h1.5l2.6,3.4l2.6-3.4h1.5l-3.3,4.3l3.5,4.5h-1.5l-2.7-3.6L1319,873.5z"/>
			<path d="M1333.1,873.6c-1.6,0-2.7-0.8-3.4-1.9v6.1h-1.3v-13h1.3v1.9c0.7-1.1,1.7-2,3.4-2c2.5,0,4.1,2.2,4.1,4.5
				C1337.2,871.5,1335.6,873.6,1333.1,873.6z M1335.9,869.1c0-1.8-1.1-3.4-3.1-3.4c-1.8,0-3.1,1.6-3.1,3.4c0,1.8,1.3,3.4,3.1,3.4
				C1334.8,872.5,1335.9,871,1335.9,869.1z"/>
			<path d="M1341,869.5c0.1,1.7,1.4,3,3.1,3c1.3,0,2.3-0.6,2.7-1.9l1.1,0.4c-0.5,1.7-2.1,2.6-3.8,2.6c-2.5,0-4.4-2-4.4-4.5
				c0-2.4,1.8-4.5,4.3-4.5c2.7,0,4.1,1.9,4.1,4.5c0,0.1,0,0.3,0,0.4H1341z M1346.8,868.4c-0.2-1.6-1.2-2.7-2.8-2.7
				c-1.5,0-2.7,1.3-2.9,2.7H1346.8z"/>
			<path d="M1352.3,866.5c0.7-1.4,1.8-1.9,2.8-1.9c0.1,0,0.3,0,0.4,0v1.4c-0.2,0-0.3,0-0.5,0c-2.1,0-2.7,1.7-2.7,3.3v4.3h-1.3v-8.7
				h1.3V866.5z"/>
			<path d="M1358.7,860.7c0.5,0,1,0.4,1,1c0,0.5-0.4,0.9-1,0.9c-0.5,0-0.9-0.4-0.9-0.9C1357.8,861.1,1358.2,860.7,1358.7,860.7z
				 M1359.4,864.8v8.7h-1.3v-8.7H1359.4z"/>
			<path d="M1363.7,869.5c0.1,1.7,1.4,3,3.1,3c1.3,0,2.3-0.6,2.7-1.9l1.1,0.4c-0.5,1.7-2.1,2.6-3.8,2.6c-2.5,0-4.4-2-4.4-4.5
				c0-2.4,1.8-4.5,4.3-4.5c2.7,0,4.1,1.9,4.1,4.5c0,0.1,0,0.3,0,0.4H1363.7z M1369.5,868.4c-0.2-1.6-1.2-2.7-2.8-2.7
				c-1.5,0-2.7,1.3-2.9,2.7H1369.5z"/>
			<path d="M1380.1,868.4c0-1.6-0.8-2.7-2.4-2.7c-1.5,0-2.6,1.2-2.6,2.8v5h-1.3v-8.7h1.3v1.6c0.7-1.2,1.7-1.8,3-1.8
				c2.1,0,3.3,1.5,3.3,3.5v5.4h-1.3V868.4z"/>
			<path d="M1388.8,872.5c1.9,0,2.7-1.4,2.9-2.1l1.2,0.4c-0.4,1.3-1.8,2.8-4.1,2.8c-2.5,0-4.5-1.9-4.5-4.5c0-2.7,2-4.6,4.5-4.6
				c2,0,3.7,1.3,4,2.8l-1.2,0.4c-0.2-0.7-1.1-2-2.9-2c-1.9,0-3.2,1.5-3.2,3.3C1385.7,870.9,1386.8,872.5,1388.8,872.5z"/>
			<path d="M1396.5,869.5c0.1,1.7,1.4,3,3.1,3c1.3,0,2.3-0.6,2.7-1.9l1.1,0.4c-0.5,1.7-2.1,2.6-3.8,2.6c-2.5,0-4.4-2-4.4-4.5
				c0-2.4,1.8-4.5,4.3-4.5c2.7,0,4.1,1.9,4.1,4.5c0,0.1,0,0.3,0,0.4H1396.5z M1402.3,868.4c-0.2-1.6-1.2-2.7-2.8-2.7
				c-1.5,0-2.7,1.3-2.9,2.7H1402.3z"/>
			<path d="M1253.9,887.5c0-1.4-0.8-2.1-2.2-2.1c-1.5,0-2.1,0.9-2.3,1.8l-1.2-0.3c0.1-0.7,1-2.7,3.6-2.7c1.8,0,2.8,0.8,3.2,1.8
				c0.2,0.5,0.3,1.2,0.3,1.4v5.6h-1.2v-1.5h0c-0.7,1.1-1.6,1.7-2.9,1.7c-1.8,0-2.9-1.1-2.9-2.6v-0.1c0-1.9,1.9-2.5,3.5-2.5h2.4
				V887.5z M1251.5,889.1c-0.9,0-2.2,0.3-2.2,1.5c0,1,0.8,1.5,1.9,1.5c1.6,0,2.7-1.1,2.7-2.7v-0.3H1251.5z"/>
			<path d="M1265.1,888c0-1.6-0.8-2.7-2.4-2.7c-1.5,0-2.6,1.2-2.6,2.8v5h-1.3v-8.7h1.3v1.6c0.7-1.2,1.7-1.8,3-1.8
				c2.1,0,3.3,1.5,3.3,3.5v5.4h-1.3V888z"/>
			<path d="M1272.5,892.5l-4-8.2h1.5l3.2,6.8l3-6.8h1.4l-6,13h-1.4L1272.5,892.5z"/>
			<path d="M1288.7,884.2c1.7,0,2.7,0.9,3.4,2v-6.4h1.3v13.3h-1.2v-1.9c-0.7,1.1-1.7,2-3.4,2c-2.5,0-4.1-2.1-4.1-4.5
				C1284.6,886.5,1286.2,884.2,1288.7,884.2z M1292.1,888.7c0-1.7-1.3-3.4-3.1-3.4c-1.9,0-3.1,1.5-3.1,3.4c0,1.8,1.1,3.4,3.1,3.4
				C1290.8,892.1,1292.1,890.5,1292.1,888.7z"/>
			<path d="M1296.4,888.8c0-2.6,1.9-4.6,4.5-4.6c2.5,0,4.5,2,4.5,4.5c0,2.6-2,4.6-4.5,4.6C1298.4,893.3,1296.4,891.3,1296.4,888.8z
				 M1304.2,888.8c0-1.8-1.3-3.4-3.2-3.4c-1.9,0-3.2,1.5-3.2,3.4c0,1.8,1.3,3.4,3.2,3.4C1302.8,892.2,1304.2,890.6,1304.2,888.8z"/>
			<path d="M1310.2,893.1l-2.9-8.7h1.4l2.3,7.3h0l2.4-7.3h1.3l2.4,7.3h0l2.3-7.3h1.3l-2.9,8.7h-1.4l-2.3-7.1h0l-2.3,7.1H1310.2z"/>
			<path d="M1329.6,888c0-1.6-0.8-2.7-2.4-2.7c-1.5,0-2.6,1.2-2.6,2.8v5h-1.3v-8.7h1.3v1.6c0.7-1.2,1.7-1.8,3-1.8
				c2.1,0,3.3,1.5,3.3,3.5v5.4h-1.3V888z"/>
			<path d="M1335,890.9v-5.4h-1.6v-1.1h1.6v-2.5h1.3v2.5h2.2v1.1h-2.2v5.3c0,0.8,0.5,1.2,1.4,1.2c0.3,0,0.6,0,0.8-0.1v1.1
				c-0.3,0.1-0.8,0.1-1,0.1C1335.6,893.2,1335,892.2,1335,890.9z"/>
			<path d="M1342.1,880.3c0.5,0,1,0.4,1,1c0,0.5-0.4,0.9-1,0.9c-0.5,0-0.9-0.4-0.9-0.9C1341.1,880.7,1341.6,880.3,1342.1,880.3z
				 M1342.7,884.4v8.7h-1.3v-8.7H1342.7z"/>
			<path d="M1352.4,888c0-1.4-0.7-2.6-2.3-2.6c-1.5,0-2.4,1.3-2.4,2.8v5h-1.3v-8.7h1.3v1.5c0.7-1.1,1.5-1.7,2.8-1.7
				c1.3,0,2.3,0.6,2.8,1.8c0.7-1.1,1.7-1.7,3.1-1.7c2.1,0,3.2,1.5,3.2,3.5v5.4h-1.3V888c0-1.5-0.7-2.6-2.3-2.6
				c-1.5,0-2.4,1.2-2.4,2.7v5h-1.3V888z"/>
			<path d="M1363.9,889.2c0.1,1.7,1.4,3,3.1,3c1.3,0,2.3-0.6,2.7-1.9l1.1,0.4c-0.5,1.7-2.1,2.6-3.8,2.6c-2.5,0-4.4-2-4.4-4.5
				c0-2.4,1.8-4.5,4.3-4.5c2.7,0,4.1,1.9,4.1,4.5c0,0.1,0,0.3,0,0.4H1363.9z M1369.7,888.1c-0.2-1.6-1.2-2.7-2.8-2.7
				c-1.5,0-2.7,1.3-2.9,2.7H1369.7z"/>
		</g>
		<g>
			<g class="st4">
				<g>
					<g>
						<rect x="1345.2" y="738.5" width="71.4" height="86"/>
					</g>
				</g>
			</g>
			<g>
				<g>
					<g>
						<rect x="1273.8" y="459.1" class="st3" width="71.4" height="365.3"/>
					</g>
				</g>
			</g>
			<g>
				<g>
					<g>
						<rect x="1202.4" y="631" class="st2" width="71.4" height="193.4"/>
					</g>
				</g>
			</g>
			<g>
				<path class="st2" d="M1206.8,608.6l-3.5,2.1l-0.7-1.2l4.2-2.6h1.5v14.6h-1.5V608.6z"/>
				<path class="st2" d="M1211.5,617.6c0-1.5,1.1-2.9,3.1-3.6c-1.8-0.5-2.7-2.1-2.7-3.3c0-2.5,2.6-3.9,4.8-3.9
					c2.2,0,4.8,1.3,4.8,3.9c0,1.4-1,2.8-2.7,3.3c2,0.6,3.1,2,3.1,3.6c0,2.7-2.6,4.2-5.1,4.2C1214.2,621.8,1211.5,620.4,1211.5,617.6
					z M1220.3,617.6c0-1.9-2-2.8-3.6-2.8c-1.5,0-3.6,0.9-3.6,2.8c0,2,2,2.8,3.6,2.8C1218.2,620.4,1220.3,619.5,1220.3,617.6z
					 M1213.4,610.8c0,1.9,2,2.7,3.3,2.7c1.3,0,3.3-0.9,3.3-2.7c0-1.7-1.9-2.6-3.3-2.6C1215.3,608.2,1213.4,609,1213.4,610.8z"/>
				<path class="st2" d="M1225.3,614.9c-1.1,0-1.9-0.9-1.9-1.9c0-1.1,0.9-1.9,1.9-1.9c1.1,0,1.9,0.9,1.9,1.9
					C1227.2,614,1226.3,614.9,1225.3,614.9z M1225.3,611.7c-0.7,0-1.2,0.5-1.2,1.2c0,0.7,0.5,1.2,1.2,1.2c0.7,0,1.2-0.5,1.2-1.2
					C1226.5,612.3,1225.9,611.7,1225.3,611.7z M1230,611.1h0.9l-5.6,8.5h-0.9L1230,611.1z M1230,619.7c-1.1,0-1.9-0.9-1.9-1.9
					c0-1.1,0.9-1.9,1.9-1.9c1.1,0,1.9,0.9,1.9,1.9C1231.9,618.9,1231.1,619.7,1230,619.7z M1230,616.6c-0.7,0-1.2,0.5-1.2,1.2
					c0,0.7,0.5,1.2,1.2,1.2c0.7,0,1.2-0.5,1.2-1.2C1231.2,617.1,1230.7,616.6,1230,616.6z"/>
			</g>
			<g>
				<path class="st3" d="M1279.7,449.5c-2.6,0-4.8-1.6-5.1-4l1.5-0.3c0.3,1.7,1.6,2.9,3.6,2.9c2,0,3.5-1.1,3.5-2.7
					c0-1.7-1.3-2.7-3.5-2.7h-1.5v-1.4h1.4c2,0,3.3-1.2,3.3-2.6c0-1.5-1.1-2.6-3.2-2.6c-2,0-3.2,1.2-3.4,2.8l-1.5-0.3
					c0.3-2,2.2-3.8,4.9-3.8c3.2,0,4.8,1.9,4.8,3.9c0,1.7-0.9,2.7-2.3,3.4v0c1.7,0.5,2.7,1.8,2.7,3.5
					C1284.8,447.6,1282.8,449.5,1279.7,449.5z"/>
				<path class="st3" d="M1294.1,449.4v-3.5h-7.6v-1.7l7.2-9.4h1.9v9.8h2.5v1.3h-2.5v3.5H1294.1z M1294.1,444.6v-8.2l-6.2,8.2
					H1294.1z"/>
				<path class="st3" d="M1301,442.7c-1.1,0-1.9-0.9-1.9-1.9c0-1.1,0.9-1.9,1.9-1.9c1.1,0,1.9,0.9,1.9,1.9
					C1302.9,441.8,1302,442.7,1301,442.7z M1301,439.6c-0.7,0-1.2,0.5-1.2,1.2c0,0.7,0.5,1.2,1.2,1.2c0.7,0,1.2-0.5,1.2-1.2
					C1302.2,440.1,1301.6,439.6,1301,439.6z M1305.7,438.9h0.9l-5.6,8.5h-0.9L1305.7,438.9z M1305.7,447.5c-1.1,0-1.9-0.9-1.9-1.9
					c0-1.1,0.9-1.9,1.9-1.9c1.1,0,1.9,0.9,1.9,1.9C1307.6,446.7,1306.8,447.5,1305.7,447.5z M1305.7,444.4c-0.7,0-1.2,0.5-1.2,1.2
					c0,0.7,0.5,1.2,1.2,1.2c0.7,0,1.2-0.5,1.2-1.2C1306.9,444.9,1306.4,444.4,1305.7,444.4z"/>
			</g>
			<g>
				<path d="M1362.1,722.8c-1,1.6-2.9,2.2-4.2,2.2c-3.1,0-4.9-2.3-4.9-4.7c0-3.3,2.6-5,5.2-5c1.6,0,3.4,0.9,4.3,2.5
					c0.7,1.3,1,2.5,1,4.1c0,4.8-2.3,8.3-6.8,8.3c-0.8,0-2.4-0.2-3.4-0.9l0.6-1.4c1,0.6,2.2,0.8,2.8,0.8
					C1360,728.8,1361.8,726.2,1362.1,722.8z M1360.7,722.8c0.7-0.6,1.2-1.6,1.2-2.6c0-2.2-1.8-3.5-3.6-3.5c-1.9,0-3.6,1.2-3.6,3.5
					c0,1.8,1.3,3.4,3.6,3.4C1359.1,723.7,1360,723.4,1360.7,722.8z"/>
				<path d="M1367,723.4c-1.1,0-1.9-0.9-1.9-1.9c0-1.1,0.9-1.9,1.9-1.9c1.1,0,1.9,0.9,1.9,1.9C1369,722.5,1368.1,723.4,1367,723.4z
					 M1367,720.3c-0.7,0-1.2,0.5-1.2,1.2c0,0.7,0.5,1.2,1.2,1.2c0.7,0,1.2-0.5,1.2-1.2C1368.3,720.8,1367.7,720.3,1367,720.3z
					 M1371.8,719.6h0.9l-5.6,8.5h-0.9L1371.8,719.6z M1371.8,728.2c-1.1,0-1.9-0.9-1.9-1.9c0-1.1,0.9-1.9,1.9-1.9
					c1.1,0,1.9,0.9,1.9,1.9C1373.7,727.4,1372.8,728.2,1371.8,728.2z M1371.8,725.1c-0.7,0-1.2,0.5-1.2,1.2c0,0.7,0.5,1.2,1.2,1.2
					c0.7,0,1.2-0.5,1.2-1.2C1373,725.6,1372.4,725.1,1371.8,725.1z"/>
			</g>
		</g>
	</g>
</g>
</svg>
