<?xml version="1.0" encoding="utf-8"?>
<!-- Generator: Adobe Illustrator 21.1.0, SVG Export Plug-In . SVG Version: 6.00 Build 0)  -->
<svg version="1.1" id="Layer_1" xmlns="http://www.w3.org/2000/svg" xmlns:xlink="http://www.w3.org/1999/xlink" x="0px" y="0px"
	 viewBox="0 0 1500 1053" style="enable-background:new 0 0 1500 1053;" xml:space="preserve">
<style type="text/css">
	.st0{fill:none;}
	.st1{fill:none;stroke:#F6F6F8;stroke-width:2;stroke-linecap:round;stroke-miterlimit:10;}
	.st2{fill:none;stroke:#F6F6F8;stroke-width:2;stroke-linecap:round;stroke-miterlimit:10;stroke-dasharray:0,10;}
	.st3{fill:#8EFFDE;}
	.st4{fill:url(#SVGID_1_);}
	.st5{opacity:0.9;}
	.st6{fill:#FFFFFF;}
	.st7{fill:url(#SVGID_2_);}
	.st8{fill:url(#SVGID_3_);}
	.st9{fill:url(#SVGID_4_);}
	.st10{fill:url(#SVGID_5_);}
	.st11{fill:none;stroke:#000000;stroke-width:0.75;stroke-miterlimit:10;}
</style>
<pattern  y="1053" width="240" height="240" patternUnits="userSpaceOnUse" id="white_2" viewBox="1 -241 240 240" style="overflow:visible;">
	<g>
		<rect x="1" y="-241" class="st0" width="240" height="240"/>
		<g>
			<g>
				<line class="st1" x1="241" y1="-1" x2="241" y2="-1"/>
			</g>
		</g>
		<g>
			<g>
				<line class="st1" x1="1" y1="-1" x2="1" y2="-1"/>
				<line class="st2" x1="11" y1="-1" x2="236" y2="-1"/>
				<line class="st1" x1="241" y1="-1" x2="241" y2="-1"/>
			</g>
		</g>
		<g>
			<g>
				<line class="st1" x1="1" y1="-1" x2="1" y2="-1"/>
			</g>
		</g>
		<g>
			<g>
				<line class="st1" x1="241" y1="-241" x2="241" y2="-241"/>
			</g>
			<g>
				<line class="st1" x1="241" y1="-231" x2="241" y2="-231"/>
			</g>
			<g>
				<line class="st1" x1="241" y1="-221" x2="241" y2="-221"/>
			</g>
			<g>
				<line class="st1" x1="241" y1="-211" x2="241" y2="-211"/>
			</g>
			<g>
				<line class="st1" x1="241" y1="-201" x2="241" y2="-201"/>
			</g>
			<g>
				<line class="st1" x1="241" y1="-191" x2="241" y2="-191"/>
			</g>
			<g>
				<line class="st1" x1="241" y1="-181" x2="241" y2="-181"/>
			</g>
			<g>
				<line class="st1" x1="241" y1="-171" x2="241" y2="-171"/>
			</g>
			<g>
				<line class="st1" x1="241" y1="-161" x2="241" y2="-161"/>
			</g>
			<g>
				<line class="st1" x1="241" y1="-151" x2="241" y2="-151"/>
			</g>
			<g>
				<line class="st1" x1="241" y1="-141" x2="241" y2="-141"/>
			</g>
			<g>
				<line class="st1" x1="241" y1="-131" x2="241" y2="-131"/>
			</g>
			<g>
				<line class="st1" x1="241" y1="-121" x2="241" y2="-121"/>
			</g>
			<g>
				<line class="st1" x1="241" y1="-111" x2="241" y2="-111"/>
			</g>
			<g>
				<line class="st1" x1="241" y1="-101" x2="241" y2="-101"/>
			</g>
			<g>
				<line class="st1" x1="241" y1="-91" x2="241" y2="-91"/>
			</g>
			<g>
				<line class="st1" x1="241" y1="-81" x2="241" y2="-81"/>
			</g>
			<g>
				<line class="st1" x1="241" y1="-71" x2="241" y2="-71"/>
			</g>
			<g>
				<line class="st1" x1="241" y1="-61" x2="241" y2="-61"/>
			</g>
			<g>
				<line class="st1" x1="241" y1="-51" x2="241" y2="-51"/>
			</g>
			<g>
				<line class="st1" x1="241" y1="-41" x2="241" y2="-41"/>
			</g>
			<g>
				<line class="st1" x1="241" y1="-31" x2="241" y2="-31"/>
			</g>
			<g>
				<line class="st1" x1="241" y1="-21" x2="241" y2="-21"/>
			</g>
			<g>
				<line class="st1" x1="241" y1="-11" x2="241" y2="-11"/>
			</g>
			<g>
				<line class="st1" x1="241" y1="-1" x2="241" y2="-1"/>
			</g>
		</g>
		<g>
			<g>
				<line class="st1" x1="1" y1="-241" x2="1" y2="-241"/>
				<line class="st2" x1="11" y1="-241" x2="236" y2="-241"/>
				<line class="st1" x1="241" y1="-241" x2="241" y2="-241"/>
			</g>
			<g>
				<line class="st1" x1="1" y1="-231" x2="1" y2="-231"/>
				<line class="st2" x1="11" y1="-231" x2="236" y2="-231"/>
				<line class="st1" x1="241" y1="-231" x2="241" y2="-231"/>
			</g>
			<g>
				<line class="st1" x1="1" y1="-221" x2="1" y2="-221"/>
				<line class="st2" x1="11" y1="-221" x2="236" y2="-221"/>
				<line class="st1" x1="241" y1="-221" x2="241" y2="-221"/>
			</g>
			<g>
				<line class="st1" x1="1" y1="-211" x2="1" y2="-211"/>
				<line class="st2" x1="11" y1="-211" x2="236" y2="-211"/>
				<line class="st1" x1="241" y1="-211" x2="241" y2="-211"/>
			</g>
			<g>
				<line class="st1" x1="1" y1="-201" x2="1" y2="-201"/>
				<line class="st2" x1="11" y1="-201" x2="236" y2="-201"/>
				<line class="st1" x1="241" y1="-201" x2="241" y2="-201"/>
			</g>
			<g>
				<line class="st1" x1="1" y1="-191" x2="1" y2="-191"/>
				<line class="st2" x1="11" y1="-191" x2="236" y2="-191"/>
				<line class="st1" x1="241" y1="-191" x2="241" y2="-191"/>
			</g>
			<g>
				<line class="st1" x1="1" y1="-181" x2="1" y2="-181"/>
				<line class="st2" x1="11" y1="-181" x2="236" y2="-181"/>
				<line class="st1" x1="241" y1="-181" x2="241" y2="-181"/>
			</g>
			<g>
				<line class="st1" x1="1" y1="-171" x2="1" y2="-171"/>
				<line class="st2" x1="11" y1="-171" x2="236" y2="-171"/>
				<line class="st1" x1="241" y1="-171" x2="241" y2="-171"/>
			</g>
			<g>
				<line class="st1" x1="1" y1="-161" x2="1" y2="-161"/>
				<line class="st2" x1="11" y1="-161" x2="236" y2="-161"/>
				<line class="st1" x1="241" y1="-161" x2="241" y2="-161"/>
			</g>
			<g>
				<line class="st1" x1="1" y1="-151" x2="1" y2="-151"/>
				<line class="st2" x1="11" y1="-151" x2="236" y2="-151"/>
				<line class="st1" x1="241" y1="-151" x2="241" y2="-151"/>
			</g>
			<g>
				<line class="st1" x1="1" y1="-141" x2="1" y2="-141"/>
				<line class="st2" x1="11" y1="-141" x2="236" y2="-141"/>
				<line class="st1" x1="241" y1="-141" x2="241" y2="-141"/>
			</g>
			<g>
				<line class="st1" x1="1" y1="-131" x2="1" y2="-131"/>
				<line class="st2" x1="11" y1="-131" x2="236" y2="-131"/>
				<line class="st1" x1="241" y1="-131" x2="241" y2="-131"/>
			</g>
			<g>
				<line class="st1" x1="1" y1="-121" x2="1" y2="-121"/>
				<line class="st2" x1="11" y1="-121" x2="236" y2="-121"/>
				<line class="st1" x1="241" y1="-121" x2="241" y2="-121"/>
			</g>
			<g>
				<line class="st1" x1="1" y1="-111" x2="1" y2="-111"/>
				<line class="st2" x1="11" y1="-111" x2="236" y2="-111"/>
				<line class="st1" x1="241" y1="-111" x2="241" y2="-111"/>
			</g>
			<g>
				<line class="st1" x1="1" y1="-101" x2="1" y2="-101"/>
				<line class="st2" x1="11" y1="-101" x2="236" y2="-101"/>
				<line class="st1" x1="241" y1="-101" x2="241" y2="-101"/>
			</g>
			<g>
				<line class="st1" x1="1" y1="-91" x2="1" y2="-91"/>
				<line class="st2" x1="11" y1="-91" x2="236" y2="-91"/>
				<line class="st1" x1="241" y1="-91" x2="241" y2="-91"/>
			</g>
			<g>
				<line class="st1" x1="1" y1="-81" x2="1" y2="-81"/>
				<line class="st2" x1="11" y1="-81" x2="236" y2="-81"/>
				<line class="st1" x1="241" y1="-81" x2="241" y2="-81"/>
			</g>
			<g>
				<line class="st1" x1="1" y1="-71" x2="1" y2="-71"/>
				<line class="st2" x1="11" y1="-71" x2="236" y2="-71"/>
				<line class="st1" x1="241" y1="-71" x2="241" y2="-71"/>
			</g>
			<g>
				<line class="st1" x1="1" y1="-61" x2="1" y2="-61"/>
				<line class="st2" x1="11" y1="-61" x2="236" y2="-61"/>
				<line class="st1" x1="241" y1="-61" x2="241" y2="-61"/>
			</g>
			<g>
				<line class="st1" x1="1" y1="-51" x2="1" y2="-51"/>
				<line class="st2" x1="11" y1="-51" x2="236" y2="-51"/>
				<line class="st1" x1="241" y1="-51" x2="241" y2="-51"/>
			</g>
			<g>
				<line class="st1" x1="1" y1="-41" x2="1" y2="-41"/>
				<line class="st2" x1="11" y1="-41" x2="236" y2="-41"/>
				<line class="st1" x1="241" y1="-41" x2="241" y2="-41"/>
			</g>
			<g>
				<line class="st1" x1="1" y1="-31" x2="1" y2="-31"/>
				<line class="st2" x1="11" y1="-31" x2="236" y2="-31"/>
				<line class="st1" x1="241" y1="-31" x2="241" y2="-31"/>
			</g>
			<g>
				<line class="st1" x1="1" y1="-21" x2="1" y2="-21"/>
				<line class="st2" x1="11" y1="-21" x2="236" y2="-21"/>
				<line class="st1" x1="241" y1="-21" x2="241" y2="-21"/>
			</g>
			<g>
				<line class="st1" x1="1" y1="-11" x2="1" y2="-11"/>
				<line class="st2" x1="11" y1="-11" x2="236" y2="-11"/>
				<line class="st1" x1="241" y1="-11" x2="241" y2="-11"/>
			</g>
			<g>
				<line class="st1" x1="1" y1="-1" x2="1" y2="-1"/>
				<line class="st2" x1="11" y1="-1" x2="236" y2="-1"/>
				<line class="st1" x1="241" y1="-1" x2="241" y2="-1"/>
			</g>
		</g>
		<g>
			<g>
				<line class="st1" x1="1" y1="-241" x2="1" y2="-241"/>
			</g>
			<g>
				<line class="st1" x1="1" y1="-231" x2="1" y2="-231"/>
			</g>
			<g>
				<line class="st1" x1="1" y1="-221" x2="1" y2="-221"/>
			</g>
			<g>
				<line class="st1" x1="1" y1="-211" x2="1" y2="-211"/>
			</g>
			<g>
				<line class="st1" x1="1" y1="-201" x2="1" y2="-201"/>
			</g>
			<g>
				<line class="st1" x1="1" y1="-191" x2="1" y2="-191"/>
			</g>
			<g>
				<line class="st1" x1="1" y1="-181" x2="1" y2="-181"/>
			</g>
			<g>
				<line class="st1" x1="1" y1="-171" x2="1" y2="-171"/>
			</g>
			<g>
				<line class="st1" x1="1" y1="-161" x2="1" y2="-161"/>
			</g>
			<g>
				<line class="st1" x1="1" y1="-151" x2="1" y2="-151"/>
			</g>
			<g>
				<line class="st1" x1="1" y1="-141" x2="1" y2="-141"/>
			</g>
			<g>
				<line class="st1" x1="1" y1="-131" x2="1" y2="-131"/>
			</g>
			<g>
				<line class="st1" x1="1" y1="-121" x2="1" y2="-121"/>
			</g>
			<g>
				<line class="st1" x1="1" y1="-111" x2="1" y2="-111"/>
			</g>
			<g>
				<line class="st1" x1="1" y1="-101" x2="1" y2="-101"/>
			</g>
			<g>
				<line class="st1" x1="1" y1="-91" x2="1" y2="-91"/>
			</g>
			<g>
				<line class="st1" x1="1" y1="-81" x2="1" y2="-81"/>
			</g>
			<g>
				<line class="st1" x1="1" y1="-71" x2="1" y2="-71"/>
			</g>
			<g>
				<line class="st1" x1="1" y1="-61" x2="1" y2="-61"/>
			</g>
			<g>
				<line class="st1" x1="1" y1="-51" x2="1" y2="-51"/>
			</g>
			<g>
				<line class="st1" x1="1" y1="-41" x2="1" y2="-41"/>
			</g>
			<g>
				<line class="st1" x1="1" y1="-31" x2="1" y2="-31"/>
			</g>
			<g>
				<line class="st1" x1="1" y1="-21" x2="1" y2="-21"/>
			</g>
			<g>
				<line class="st1" x1="1" y1="-11" x2="1" y2="-11"/>
			</g>
			<g>
				<line class="st1" x1="1" y1="-1" x2="1" y2="-1"/>
			</g>
		</g>
		<g>
			<g>
				<line class="st1" x1="241" y1="-241" x2="241" y2="-241"/>
			</g>
		</g>
		<g>
			<g>
				<line class="st1" x1="1" y1="-241" x2="1" y2="-241"/>
				<line class="st2" x1="11" y1="-241" x2="236" y2="-241"/>
				<line class="st1" x1="241" y1="-241" x2="241" y2="-241"/>
			</g>
		</g>
		<g>
			<g>
				<line class="st1" x1="1" y1="-241" x2="1" y2="-241"/>
			</g>
		</g>
	</g>
</pattern>
<g>
	<g>
		<path d="M196.6,257.4l-5.1,7.5v5.5h-1.4v-5.5l-5-7.5h1.6l4.1,6.2l4.2-6.2H196.6z"/>
		<path d="M198,266.4c0.1,1.7,1.4,3,3.2,3c1.3,0,2.3-0.6,2.7-1.9l1.2,0.4c-0.5,1.7-2.1,2.7-3.9,2.7c-2.6,0-4.5-2-4.5-4.6
			c0-2.4,1.8-4.6,4.3-4.6c2.7,0,4.2,2,4.2,4.6c0,0.1,0,0.3,0,0.4H198z M203.9,265.3c-0.2-1.6-1.2-2.8-2.9-2.8c-1.5,0-2.8,1.3-3,2.8
			H203.9z"/>
		<path d="M211,270.5c-2.4,0-3.2-1.6-3.4-2.6l1.2-0.3c0.2,0.8,0.8,1.8,2.2,1.8c1,0,1.8-0.5,1.8-1.4c0-1.1-1.2-1.3-2.1-1.5
			c-1.5-0.2-2.9-0.7-2.9-2.5c0-1.7,1.5-2.6,3-2.6c2.3,0,3.1,1.6,3.2,2.4l-1.2,0.3c-0.1-0.6-0.6-1.6-2-1.6c-1,0-1.7,0.6-1.7,1.4
			c0,1.1,1.2,1.3,2.1,1.4c1.4,0.2,2.9,0.9,2.9,2.6C214.1,269.5,212.7,270.5,211,270.5z"/>
	</g>
</g>
<g>
	<circle class="st3" cx="155.2" cy="265.5" r="15.9"/>
</g>
<g>
	<g>
		<path d="M197.1,305.2v13h-1.5l-7.8-11.1v11.1h-1.3v-13h1.6l7.7,10.9v-10.9H197.1z"/>
		<path d="M200.6,313.9c0-2.6,2-4.6,4.6-4.6c2.6,0,4.6,2,4.6,4.6c0,2.6-2,4.6-4.6,4.6C202.6,318.4,200.6,316.4,200.6,313.9z
			 M208.4,313.9c0-1.9-1.3-3.5-3.3-3.5c-1.9,0-3.2,1.6-3.2,3.4c0,1.9,1.3,3.5,3.3,3.5C207.1,317.3,208.4,315.7,208.4,313.9z"/>
		<path d="M212.6,320.2c0.7-0.6,1.3-1.2,1.4-2c-0.1,0-0.3,0.1-0.4,0.1c-0.6,0-1.1-0.4-1.1-1.1c0-0.7,0.5-1.2,1.2-1.2
			c0.8,0,1.3,0.6,1.3,1.6v0.1c0,1.2-0.6,2.3-1.8,3.1L212.6,320.2z"/>
		<path d="M227.6,318.4c-1.7,0-2.7-0.8-3.4-2v1.9h-1.3v-13.6h1.3v6.6c0.7-1.1,1.8-2.1,3.4-2.1c2.5,0,4.2,2.3,4.2,4.6
			C231.7,316.2,230.1,318.4,227.6,318.4z M230.4,313.8c0-1.8-1.1-3.5-3.1-3.5c-1.8,0-3.2,1.6-3.2,3.4c0,1.8,1.3,3.5,3.2,3.5
			C229.3,317.3,230.4,315.7,230.4,313.8z"/>
		<path d="M236,314.6c0,1.6,0.8,2.7,2.5,2.7c1.5,0,2.6-1.2,2.6-2.8v-5.1h1.3v8.9h-1.3v-1.6c-0.7,1.2-1.7,1.8-3,1.8
			c-2.2,0-3.4-1.5-3.4-3.6v-5.5h1.3V314.6z"/>
		<path d="M246.8,316v-5.4h-1.6v-1.1h1.6v-2.6h1.3v2.6h2.2v1.1h-2.2v5.4c0,0.8,0.5,1.2,1.4,1.2c0.3,0,0.6,0,0.8-0.1v1.1
			c-0.3,0.1-0.8,0.1-1,0.1C247.4,318.3,246.8,317.3,246.8,316z"/>
		<path d="M260.8,318.3l-3-8.9h1.4l2.3,7.4h0l2.4-7.4h1.3l2.4,7.4h0l2.3-7.4h1.3l-3,8.9h-1.4l-2.3-7.2h0l-2.4,7.2H260.8z"/>
		<path d="M274.6,314.2c0.1,1.7,1.4,3,3.2,3c1.3,0,2.3-0.6,2.7-1.9l1.2,0.4c-0.5,1.7-2.1,2.7-3.9,2.7c-2.6,0-4.5-2-4.5-4.6
			c0-2.4,1.8-4.6,4.3-4.6c2.7,0,4.2,2,4.2,4.6c0,0.1,0,0.3,0,0.4H274.6z M280.5,313.1c-0.2-1.6-1.2-2.8-2.9-2.8
			c-1.5,0-2.8,1.3-3,2.8H280.5z"/>
		<path d="M292.2,318.3l-3-8.9h1.4l2.3,7.4h0l2.4-7.4h1.3l2.4,7.4h0l2.3-7.4h1.3l-3,8.9h-1.4l-2.3-7.2h0l-2.4,7.2H292.2z"/>
		<path d="M306.2,305.2c0.5,0,1,0.4,1,1c0,0.5-0.4,1-1,1c-0.5,0-1-0.4-1-1C305.2,305.6,305.7,305.2,306.2,305.2z M306.9,309.4v8.9
			h-1.3v-8.9H306.9z"/>
		<path d="M312,304.7v13.6h-1.3v-13.6H312z"/>
		<path d="M317,304.7v13.6h-1.3v-13.6H317z"/>
		<path d="M186.8,325.2c0.5,0,1,0.4,1,1c0,0.5-0.4,1-1,1c-0.5,0-1-0.4-1-1C185.8,325.6,186.2,325.2,186.8,325.2z M187.4,329.3v8.9
			h-1.3v-8.9H187.4z"/>
		<path d="M197.6,333.1c0-1.6-0.8-2.7-2.5-2.7c-1.5,0-2.6,1.2-2.6,2.8v5.1h-1.3v-8.9h1.3v1.6c0.7-1.2,1.7-1.8,3.1-1.8
			c2.2,0,3.4,1.5,3.4,3.6v5.5h-1.3V333.1z"/>
		<path d="M208.6,335.9v-5.4H207v-1.1h1.6v-2.6h1.3v2.6h2.2v1.1h-2.2v5.4c0,0.8,0.5,1.2,1.4,1.2c0.3,0,0.6,0,0.8-0.1v1.1
			c-0.3,0.1-0.8,0.1-1,0.1C209.2,338.3,208.6,337.2,208.6,335.9z"/>
		<path d="M221.6,333.1c0-1.6-0.8-2.7-2.5-2.7c-1.5,0-2.6,1.2-2.6,2.8v5.1h-1.3v-13.6h1.3v6.3c0.7-1.2,1.7-1.8,3-1.8
			c2.2,0,3.4,1.5,3.4,3.6v5.5h-1.3V333.1z"/>
		<path d="M227.2,334.2c0.1,1.7,1.4,3,3.2,3c1.3,0,2.3-0.6,2.7-1.9l1.2,0.4c-0.5,1.7-2.1,2.7-3.9,2.7c-2.6,0-4.5-2-4.5-4.6
			c0-2.4,1.8-4.6,4.3-4.6c2.7,0,4.2,2,4.2,4.6c0,0.1,0,0.3,0,0.4H227.2z M233.1,333.1c-0.2-1.6-1.2-2.8-2.9-2.8
			c-1.5,0-2.8,1.3-3,2.8H233.1z"/>
		<path d="M249.4,333.1c0-1.6-0.8-2.7-2.5-2.7c-1.5,0-2.6,1.2-2.6,2.8v5.1h-1.3v-8.9h1.3v1.6c0.7-1.2,1.7-1.8,3.1-1.8
			c2.2,0,3.4,1.5,3.4,3.6v5.5h-1.3V333.1z"/>
		<path d="M255,334.2c0.1,1.7,1.4,3,3.2,3c1.3,0,2.3-0.6,2.7-1.9l1.2,0.4c-0.5,1.7-2.1,2.7-3.9,2.7c-2.6,0-4.5-2-4.5-4.6
			c0-2.4,1.8-4.6,4.3-4.6c2.7,0,4.2,2,4.2,4.6c0,0.1,0,0.3,0,0.4H255z M260.9,333.1c-0.2-1.6-1.2-2.8-2.9-2.8c-1.5,0-2.8,1.3-3,2.8
			H260.9z"/>
		<path d="M265.3,338.2h-1.5l3.5-4.5l-3.4-4.4h1.5l2.6,3.4l2.6-3.4h1.5l-3.4,4.4l3.5,4.5h-1.5l-2.7-3.6L265.3,338.2z"/>
		<path d="M275.6,335.9v-5.4h-1.6v-1.1h1.6v-2.6h1.3v2.6h2.2v1.1h-2.2v5.4c0,0.8,0.5,1.2,1.4,1.2c0.3,0,0.6,0,0.8-0.1v1.1
			c-0.3,0.1-0.8,0.1-1,0.1C276.2,338.3,275.6,337.2,275.6,335.9z"/>
		<path d="M290.1,326.7l-3.1,1.9l-0.6-1l3.8-2.3h1.3v13h-1.4V326.7z"/>
		<path d="M295,337.8c0-1.5,0.7-3.2,3-4.6l2-1.2c1.2-0.8,2.3-1.6,2.3-3.1c0-1.3-1.2-2.6-2.9-2.6c-1.4,0-2.3,0.8-2.7,1.7
			c-0.2,0.5-0.3,1.1-0.3,1.3l-1.4-0.2c0-1.8,1.6-4,4.3-4c2.4,0,4.2,1.8,4.2,3.8c0,1.8-1,2.9-2.7,4l-2,1.3c-1.1,0.7-2.2,1.6-2.2,2.8
			h7.2v1.3H295V337.8z"/>
		<path d="M318.6,333c0-1.5-0.7-2.7-2.3-2.7c-1.5,0-2.5,1.4-2.5,2.8v5.1h-1.3v-8.9h1.3v1.5c0.7-1.1,1.5-1.7,2.9-1.7
			c1.3,0,2.3,0.6,2.8,1.8c0.7-1.1,1.7-1.8,3.1-1.8c2.1,0,3.3,1.5,3.3,3.5v5.5h-1.3v-5.2c0-1.5-0.7-2.7-2.3-2.7
			c-1.6,0-2.5,1.3-2.5,2.7v5.1h-1.3V333z"/>
		<path d="M328.9,333.8c0-2.6,2-4.6,4.6-4.6c2.6,0,4.6,2,4.6,4.6c0,2.6-2,4.6-4.6,4.6C330.9,338.4,328.9,336.4,328.9,333.8z
			 M336.8,333.8c0-1.9-1.3-3.5-3.3-3.5c-1.9,0-3.2,1.6-3.2,3.4c0,1.9,1.3,3.5,3.3,3.5C335.5,337.2,336.8,335.7,336.8,333.8z"/>
		<path d="M347.7,333.1c0-1.6-0.8-2.7-2.5-2.7c-1.5,0-2.6,1.2-2.6,2.8v5.1h-1.3v-8.9h1.3v1.6c0.7-1.2,1.7-1.8,3.1-1.8
			c2.2,0,3.4,1.5,3.4,3.6v5.5h-1.3V333.1z"/>
		<path d="M353.1,335.9v-5.4h-1.6v-1.1h1.6v-2.6h1.3v2.6h2.2v1.1h-2.2v5.4c0,0.8,0.5,1.2,1.4,1.2c0.3,0,0.6,0,0.8-0.1v1.1
			c-0.3,0.1-0.8,0.1-1,0.1C353.7,338.3,353.1,337.2,353.1,335.9z"/>
		<path d="M366.1,333.1c0-1.6-0.8-2.7-2.5-2.7c-1.5,0-2.6,1.2-2.6,2.8v5.1h-1.3v-13.6h1.3v6.3c0.7-1.2,1.7-1.8,3-1.8
			c2.2,0,3.4,1.5,3.4,3.6v5.5h-1.3V333.1z"/>
		<path d="M373.7,338.4c-2.4,0-3.2-1.6-3.4-2.6l1.2-0.3c0.2,0.8,0.8,1.8,2.2,1.8c1,0,1.8-0.5,1.8-1.4c0-1.1-1.2-1.3-2.1-1.5
			c-1.5-0.2-2.9-0.7-2.9-2.5c0-1.7,1.5-2.6,3-2.6c2.3,0,3.1,1.6,3.2,2.4l-1.2,0.3c-0.1-0.6-0.6-1.6-2-1.6c-1,0-1.7,0.6-1.7,1.4
			c0,1.1,1.2,1.3,2.1,1.4c1.4,0.2,2.9,0.9,2.9,2.6C376.9,337.3,375.4,338.4,373.7,338.4z"/>
	</g>
</g>
<g>
	<pattern  id="SVGID_1_" xlink:href="#white_2" patternTransform="matrix(0 1.1888 -1.1413 0 -19791.0098 -372.5957)">
	</pattern>
	<circle class="st4" cx="155.2" cy="323.4" r="15.9"/>
</g>
<g>
	<g>
		<path d="M197.1,363.1v13h-1.5l-7.8-11.1v11.1h-1.3v-13h1.6l7.7,10.9v-10.9H197.1z"/>
		<path d="M200.6,371.7c0-2.6,2-4.6,4.6-4.6c2.6,0,4.6,2,4.6,4.6c0,2.6-2,4.6-4.6,4.6C202.6,376.3,200.6,374.2,200.6,371.7z
			 M208.4,371.7c0-1.9-1.3-3.5-3.3-3.5c-1.9,0-3.2,1.6-3.2,3.4c0,1.9,1.3,3.5,3.3,3.5C207.1,375.1,208.4,373.6,208.4,371.7z"/>
		<path d="M212.6,378.1c0.7-0.6,1.3-1.2,1.4-2c-0.1,0-0.3,0.1-0.4,0.1c-0.6,0-1.1-0.4-1.1-1.1c0-0.7,0.5-1.2,1.2-1.2
			c0.8,0,1.3,0.6,1.3,1.6v0.1c0,1.2-0.6,2.3-1.8,3.1L212.6,378.1z"/>
		<path d="M228.2,370.4c0-1.4-0.8-2.2-2.3-2.2c-1.5,0-2.2,1-2.3,1.8l-1.2-0.3c0.1-0.7,1.1-2.7,3.6-2.7c1.9,0,2.8,0.8,3.2,1.8
			c0.2,0.5,0.3,1.2,0.3,1.5v5.7h-1.3v-1.6h0c-0.7,1.1-1.7,1.7-3,1.7c-1.8,0-3-1.1-3-2.6v-0.1c0-1.9,1.9-2.6,3.5-2.6h2.5V370.4z
			 M225.7,372.1c-0.9,0-2.2,0.3-2.2,1.5c0,1,0.8,1.6,1.9,1.6c1.6,0,2.8-1.1,2.8-2.7v-0.3H225.7z"/>
		<path d="M239.5,370.9c0-1.6-0.8-2.7-2.5-2.7c-1.5,0-2.6,1.2-2.6,2.8v5.1h-1.3v-8.9h1.3v1.6c0.7-1.2,1.7-1.8,3.1-1.8
			c2.2,0,3.4,1.5,3.4,3.6v5.5h-1.3V370.9z"/>
		<path d="M248,367.1c1.7,0,2.7,1,3.4,2v-6.5h1.3v13.6h-1.3v-1.9c-0.7,1.1-1.7,2-3.5,2c-2.5,0-4.2-2.2-4.2-4.6
			C243.8,369.3,245.5,367.1,248,367.1z M251.5,371.6c0-1.8-1.3-3.4-3.2-3.4c-1.9,0-3.1,1.5-3.1,3.5c0,1.8,1.2,3.4,3.1,3.4
			C250.1,375.1,251.5,373.5,251.5,371.6z"/>
		<path d="M263.9,376.1l-3-8.9h1.4l2.3,7.4h0l2.4-7.4h1.3l2.4,7.4h0l2.3-7.4h1.3l-3,8.9h-1.4l-2.3-7.2h0l-2.4,7.2H263.9z"/>
		<path d="M277.7,372.1c0.1,1.7,1.4,3,3.2,3c1.3,0,2.3-0.6,2.7-1.9l1.2,0.4c-0.5,1.7-2.1,2.7-3.9,2.7c-2.6,0-4.5-2-4.5-4.6
			c0-2.4,1.8-4.6,4.3-4.6c2.7,0,4.2,2,4.2,4.6c0,0.1,0,0.3,0,0.4H277.7z M283.6,371c-0.2-1.6-1.2-2.8-2.9-2.8c-1.5,0-2.8,1.3-3,2.8
			H283.6z"/>
		<path d="M287.1,367.2c0.7-0.6,1.3-1.2,1.4-2c-0.1,0.1-0.3,0.1-0.4,0.1c-0.6,0-1.1-0.4-1.1-1.1c0-0.7,0.5-1.2,1.2-1.2
			c0.8,0,1.3,0.6,1.3,1.6v0.1c0,1.2-0.6,2.3-1.8,3.1L287.1,367.2z"/>
		<path d="M293.8,369c0.7-1.4,1.8-1.9,2.9-1.9c0.1,0,0.3,0,0.4,0v1.4c-0.2,0-0.3,0-0.5,0c-2.1,0-2.8,1.7-2.8,3.3v4.3h-1.3v-8.9h1.3
			V369z"/>
		<path d="M300,372.1c0.1,1.7,1.4,3,3.2,3c1.3,0,2.3-0.6,2.7-1.9l1.2,0.4c-0.5,1.7-2.1,2.7-3.9,2.7c-2.6,0-4.5-2-4.5-4.6
			c0-2.4,1.8-4.6,4.3-4.6c2.7,0,4.2,2,4.2,4.6c0,0.1,0,0.3,0,0.4H300z M305.9,371c-0.2-1.6-1.2-2.8-2.9-2.8c-1.5,0-2.8,1.3-3,2.8
			H305.9z"/>
		<path d="M322.1,370.9c0-1.6-0.8-2.7-2.5-2.7c-1.5,0-2.6,1.2-2.6,2.8v5.1h-1.3v-8.9h1.3v1.6c0.7-1.2,1.7-1.8,3.1-1.8
			c2.2,0,3.4,1.5,3.4,3.6v5.5h-1.3V370.9z"/>
		<path d="M326.4,371.7c0-2.6,2-4.6,4.6-4.6c2.6,0,4.6,2,4.6,4.6c0,2.6-2,4.6-4.6,4.6C328.4,376.3,326.4,374.2,326.4,371.7z
			 M334.3,371.7c0-1.9-1.3-3.5-3.3-3.5c-1.9,0-3.2,1.6-3.2,3.4c0,1.9,1.3,3.5,3.3,3.5C332.9,375.1,334.3,373.6,334.3,371.7z"/>
		<path d="M339.2,373.8v-5.4h-1.6v-1.1h1.6v-2.6h1.3v2.6h2.2v1.1h-2.2v5.4c0,0.8,0.5,1.2,1.4,1.2c0.3,0,0.6,0,0.8-0.1v1.1
			c-0.3,0.1-0.8,0.1-1,0.1C339.8,376.2,339.2,375.1,339.2,373.8z"/>
		<path d="M190.9,396.2c-1.6,0-2.7-0.8-3.4-2v6.2h-1.3v-13.3h1.3v1.9c0.7-1.1,1.8-2.1,3.4-2.1c2.5,0,4.2,2.3,4.2,4.6
			C195,394,193.4,396.2,190.9,396.2z M193.7,391.7c0-1.8-1.1-3.5-3.1-3.5c-1.8,0-3.2,1.6-3.2,3.4c0,1.8,1.3,3.5,3.2,3.5
			C192.6,395.1,193.7,393.5,193.7,391.7z"/>
		<path d="M199.5,382.5v13.6h-1.3v-13.6H199.5z"/>
		<path d="M208.6,390.4c0-1.4-0.8-2.2-2.3-2.2c-1.5,0-2.2,1-2.3,1.8l-1.2-0.3c0.1-0.7,1.1-2.7,3.6-2.7c1.9,0,2.8,0.8,3.2,1.8
			c0.2,0.5,0.3,1.2,0.3,1.5v5.7h-1.3v-1.6h0c-0.7,1.1-1.7,1.7-3,1.7c-1.8,0-3-1.1-3-2.6v-0.1c0-1.9,1.9-2.6,3.5-2.6h2.5V390.4z
			 M206.1,392c-0.9,0-2.2,0.3-2.2,1.5c0,1,0.8,1.6,1.9,1.6c1.6,0,2.8-1.1,2.8-2.7V392H206.1z"/>
		<path d="M219.9,390.9c0-1.6-0.8-2.7-2.5-2.7c-1.5,0-2.6,1.2-2.6,2.8v5.1h-1.3v-8.9h1.3v1.6c0.7-1.2,1.7-1.8,3.1-1.8
			c2.2,0,3.4,1.5,3.4,3.6v5.5h-1.3V390.9z"/>
		<path d="M231.3,390.9c0-1.6-0.8-2.7-2.5-2.7c-1.5,0-2.6,1.2-2.6,2.8v5.1h-1.3v-8.9h1.3v1.6c0.7-1.2,1.7-1.8,3.1-1.8
			c2.2,0,3.4,1.5,3.4,3.6v5.5h-1.3V390.9z"/>
		<path d="M236.9,383c0.5,0,1,0.4,1,1c0,0.5-0.4,1-1,1c-0.5,0-1-0.4-1-1C235.9,383.5,236.3,383,236.9,383z M237.5,387.2v8.9h-1.3
			v-8.9H237.5z"/>
		<path d="M247.7,390.9c0-1.6-0.8-2.7-2.5-2.7c-1.5,0-2.6,1.2-2.6,2.8v5.1h-1.3v-8.9h1.3v1.6c0.7-1.2,1.7-1.8,3.1-1.8
			c2.2,0,3.4,1.5,3.4,3.6v5.5h-1.3V390.9z"/>
		<path d="M259.6,394.1c-0.7,1.1-1.8,2-3.4,2c-2.5,0-4.2-2.1-4.2-4.5c0-2.3,1.6-4.5,4.2-4.5c1.7,0,2.8,1,3.5,2v-1.9h1.3v8.9
			c0,2.9-1.8,4.4-4.5,4.4c-2.3,0-3.9-1.2-4.4-3l1.2-0.4c0.3,1,1.1,2.3,3.2,2.3c1.7,0,3.2-0.9,3.2-3.2V394.1z M259.6,391.6
			c0-1.7-1.3-3.4-3.2-3.4c-1.9,0-3.1,1.5-3.1,3.4c0,1.8,1.1,3.4,3.1,3.4C258.3,395,259.6,393.4,259.6,391.6z"/>
		<path d="M270.8,393.8v-5.4h-1.6v-1.1h1.6v-2.6h1.3v2.6h2.2v1.1H272v5.4c0,0.8,0.5,1.2,1.4,1.2c0.3,0,0.6,0,0.8-0.1v1.1
			c-0.3,0.1-0.8,0.1-1,0.1C271.3,396.2,270.8,395.1,270.8,393.8z"/>
		<path d="M276.5,391.7c0-2.6,2-4.6,4.6-4.6c2.6,0,4.6,2,4.6,4.6c0,2.6-2,4.6-4.6,4.6C278.5,396.2,276.5,394.2,276.5,391.7z
			 M284.3,391.7c0-1.9-1.3-3.5-3.3-3.5c-1.9,0-3.2,1.6-3.2,3.4c0,1.9,1.3,3.5,3.3,3.5C283,395.1,284.3,393.5,284.3,391.7z"/>
	</g>
</g>
<g class="st5">
	<circle cx="155.2" cy="381.2" r="15.9"/>
</g>
<g>
	<g>
		<path class="st6" d="M143.4,74.2l-3.1,1.9l-0.6-1l3.8-2.3h1.3v13h-1.4V74.2z"/>
		<path class="st6" d="M153.8,85.7v-3.1H147v-1.5l6.4-8.4h1.7v8.7h2.2v1.2h-2.2v3.1H153.8z M153.8,81.4v-7.3l-5.6,7.3H153.8z"/>
		<path class="st6" d="M163.3,85v10.2H161V72.9h2.3v9.9H176v-9.9h2.3v22.3H176V85H163.3z"/>
		<path class="st6" d="M193.2,85.4c0-2.5-1.3-3.7-3.9-3.7c-2.6,0-3.7,1.7-4,3.1l-2.1-0.5c0.1-1.3,1.8-4.6,6.2-4.6
			c3.2,0,4.8,1.5,5.6,3.1c0.3,0.8,0.5,2,0.5,2.5v9.8h-2.2v-2.7h0c-1.2,1.9-2.9,2.9-5.1,2.9c-3.1,0-5.1-1.9-5.1-4.5v-0.2
			c0-3.3,3.3-4.4,6-4.4h4.2V85.4z M188.9,88.3c-1.6,0-3.8,0.5-3.8,2.6c0,1.7,1.5,2.7,3.3,2.7c2.7,0,4.7-1.9,4.7-4.7v-0.5H188.9z"/>
		<path class="st6" d="M197.9,80h2.5l5.2,12.8l5.3-12.8h2.4l-6.5,15.2h-2.4L197.9,80z"/>
		<path class="st6" d="M217.1,88.3c0.2,3,2.5,5.2,5.5,5.2c2.3,0,4-1.1,4.7-3.3l2,0.6c-0.9,2.9-3.7,4.6-6.7,4.6
			c-4.4,0-7.7-3.5-7.7-7.9c0-4.1,3.1-7.8,7.4-7.8c4.7,0,7.2,3.4,7.2,7.8c0,0.3,0,0.5,0,0.7H217.1z M227.2,86.4
			c-0.3-2.8-2-4.7-4.9-4.7c-2.7,0-4.8,2.2-5.1,4.7H227.2z"/>
		<path class="st6" d="M245.6,94.2L238.6,80h2.6l5.6,11.8l5.3-11.8h2.4L244,102.7h-2.4L245.6,94.2z"/>
		<path class="st6" d="M255.8,87.7c0-4.5,3.4-7.9,7.9-7.9c4.4,0,7.8,3.5,7.8,7.8c0,4.5-3.5,7.9-7.9,7.9
			C259.3,95.5,255.8,92,255.8,87.7z M269.3,87.7c0-3.2-2.3-6-5.6-6c-3.3,0-5.6,2.7-5.6,5.9c0,3.2,2.3,6,5.6,6
			C267,93.5,269.3,90.8,269.3,87.7z"/>
		<path class="st6" d="M277.5,88.9c0,2.7,1.4,4.6,4.2,4.6c2.7,0,4.5-2.1,4.5-4.8V80h2.2v15.2h-2.2v-2.8c-1.2,2.1-3,3.1-5.2,3.1
			c-3.7,0-5.8-2.5-5.8-6.1V80h2.2V88.9z"/>
		<path class="st6" d="M303.7,83c1.1-2.4,3.2-3.3,4.9-3.3c0.1,0,0.6,0,0.7,0v2.4c-0.3,0-0.6-0.1-0.9-0.1c-3.6,0-4.8,3-4.8,5.7v7.4
			h-2.2V80h2.2V83z"/>
		<path class="st6" d="M312.9,88.3c0.2,3,2.5,5.2,5.5,5.2c2.3,0,4-1.1,4.7-3.3l2,0.6c-0.9,2.9-3.7,4.6-6.7,4.6
			c-4.4,0-7.7-3.5-7.7-7.9c0-4.1,3.1-7.8,7.4-7.8c4.7,0,7.2,3.4,7.2,7.8c0,0.3,0,0.5,0,0.7H312.9z M323,86.4c-0.3-2.8-2-4.7-4.9-4.7
			c-2.7,0-4.8,2.2-5.1,4.7H323z"/>
		<path class="st6" d="M336.9,85.1v2.4h-8.2v-2.4H336.9z"/>
		<path class="st6" d="M342.7,88.3c0.2,3,2.5,5.2,5.5,5.2c2.3,0,4-1.1,4.7-3.3l2,0.6c-0.9,2.9-3.7,4.6-6.7,4.6
			c-4.4,0-7.7-3.5-7.7-7.9c0-4.1,3.1-7.8,7.4-7.8c4.7,0,7.2,3.4,7.2,7.8c0,0.3,0,0.5,0,0.7H342.7z M352.8,86.4
			c-0.3-2.8-2-4.7-4.9-4.7c-2.7,0-4.8,2.2-5.1,4.7H352.8z"/>
		<path class="st6" d="M356.4,80h2.5l5.2,12.8l5.3-12.8h2.4l-6.5,15.2h-2.4L356.4,80z"/>
		<path class="st6" d="M383.5,85.4c0-2.5-1.3-3.7-3.9-3.7c-2.6,0-3.7,1.7-4,3.1l-2.1-0.5c0.1-1.3,1.8-4.6,6.2-4.6
			c3.2,0,4.8,1.5,5.6,3.1c0.3,0.8,0.5,2,0.5,2.5v9.8h-2.2v-2.7h0c-1.2,1.9-2.9,2.9-5.1,2.9c-3.1,0-5.1-1.9-5.1-4.5v-0.2
			c0-3.3,3.3-4.4,6-4.4h4.2V85.4z M379.3,88.3c-1.6,0-3.8,0.5-3.8,2.6c0,1.7,1.5,2.7,3.3,2.7c2.7,0,4.7-1.9,4.7-4.7v-0.5H379.3z"/>
		<path class="st6" d="M392.8,72v23.3h-2.3V72H392.8z"/>
		<path class="st6" d="M399.8,88.9c0,2.7,1.4,4.6,4.2,4.6c2.7,0,4.5-2.1,4.5-4.8V80h2.2v15.2h-2.2v-2.8c-1.2,2.1-3,3.1-5.2,3.1
			c-3.7,0-5.8-2.5-5.8-6.1V80h2.2V88.9z"/>
		<path class="st6" d="M425,85.4c0-2.5-1.3-3.7-3.9-3.7c-2.6,0-3.7,1.7-4,3.1l-2.1-0.5c0.1-1.3,1.8-4.6,6.2-4.6
			c3.2,0,4.8,1.5,5.6,3.1c0.3,0.8,0.5,2,0.5,2.5v9.8h-2.2v-2.7h0c-1.2,1.9-2.9,2.9-5.1,2.9c-3.1,0-5.1-1.9-5.1-4.5v-0.2
			c0-3.3,3.3-4.4,6-4.4h4.2V85.4z M420.8,88.3c-1.6,0-3.8,0.5-3.8,2.6c0,1.7,1.5,2.7,3.3,2.7c2.7,0,4.7-1.9,4.7-4.7v-0.5H420.8z"/>
		<path class="st6" d="M432.9,91.3V82h-2.8v-2h2.8v-4.4h2.2V80h3.9v2h-3.9v9.3c0,1.4,0.8,2.1,2.5,2.1c0.5,0,1,0,1.4-0.1v1.9
			c-0.5,0.1-1.3,0.2-1.7,0.2C433.9,95.3,432.9,93.5,432.9,91.3z"/>
		<path class="st6" d="M443.6,88.3c0.2,3,2.5,5.2,5.5,5.2c2.3,0,4-1.1,4.7-3.3l2,0.6c-0.9,2.9-3.7,4.6-6.7,4.6
			c-4.4,0-7.7-3.5-7.7-7.9c0-4.1,3.1-7.8,7.4-7.8c4.7,0,7.2,3.4,7.2,7.8c0,0.3,0,0.5,0,0.7H443.6z M453.7,86.4
			c-0.3-2.8-2-4.7-4.9-4.7c-2.7,0-4.8,2.2-5.1,4.7H453.7z"/>
		<path class="st6" d="M465.8,79.7c2.9,0,4.7,1.7,5.9,3.5V72h2.2v23.2h-2.2V92c-1.2,1.9-3,3.5-5.9,3.5c-4.4,0-7.1-3.7-7.1-7.9
			C458.7,83.6,461.5,79.7,465.8,79.7z M471.7,87.6c0-3-2.3-5.8-5.5-5.8c-3.3,0-5.3,2.7-5.3,5.9c0,3.1,2,5.8,5.3,5.8
			C469.5,93.5,471.7,90.7,471.7,87.6z"/>
		<path class="st6" d="M491.3,94.2L484.3,80h2.6l5.6,11.8l5.3-11.8h2.4l-10.4,22.7h-2.4L491.3,94.2z"/>
		<path class="st6" d="M501.5,87.7c0-4.5,3.4-7.9,7.9-7.9c4.4,0,7.8,3.5,7.8,7.8c0,4.5-3.5,7.9-7.9,7.9
			C505,95.5,501.5,92,501.5,87.7z M515,87.7c0-3.2-2.3-6-5.6-6c-3.3,0-5.6,2.7-5.6,5.9c0,3.2,2.3,6,5.6,6
			C512.7,93.5,515,90.8,515,87.7z"/>
		<path class="st6" d="M523.2,88.9c0,2.7,1.4,4.6,4.2,4.6c2.7,0,4.5-2.1,4.5-4.8V80h2.2v15.2H532v-2.8c-1.2,2.1-3,3.1-5.2,3.1
			c-3.7,0-5.8-2.5-5.8-6.1V80h2.2V88.9z"/>
		<path class="st6" d="M541.4,83c1.1-2.4,3.2-3.3,4.9-3.3c0.1,0,0.6,0,0.7,0v2.4c-0.3,0-0.6-0.1-0.9-0.1c-3.6,0-4.8,3-4.8,5.7v7.4
			h-2.2V80h2.2V83z"/>
		<path class="st6" d="M563.9,93.5c3.4,0,4.7-2.5,5.1-3.7l2.1,0.7c-0.7,2.3-3.2,4.9-7.2,4.9c-4.4,0-7.8-3.3-7.8-7.8
			c0-4.6,3.6-7.9,7.9-7.9c3.5,0,6.4,2.3,7,4.9l-2.1,0.7c-0.3-1.2-1.9-3.5-5-3.5c-3.3,0-5.5,2.7-5.5,5.8S560.4,93.5,563.9,93.5z"/>
		<path class="st6" d="M573.6,87.7c0-4.5,3.4-7.9,7.9-7.9c4.4,0,7.8,3.5,7.8,7.8c0,4.5-3.5,7.9-7.9,7.9
			C577,95.5,573.6,92,573.6,87.7z M587.1,87.7c0-3.2-2.3-6-5.6-6c-3.3,0-5.6,2.7-5.6,5.9c0,3.2,2.3,6,5.6,6
			C584.8,93.5,587.1,90.8,587.1,87.7z"/>
		<path class="st6" d="M604.3,86.4c0-2.7-1.4-4.6-4.2-4.6c-2.7,0-4.5,2.1-4.5,4.8v8.7h-2.2V80h2.2v2.8c1.2-2.1,3-3.1,5.3-3.1
			c3.7,0,5.8,2.5,5.8,6.1v9.4h-2.2V86.4z"/>
		<path class="st6" d="M612.2,91.3V82h-2.8v-2h2.8v-4.4h2.2V80h3.9v2h-3.9v9.3c0,1.4,0.8,2.1,2.5,2.1c0.5,0,1,0,1.4-0.1v1.9
			c-0.5,0.1-1.3,0.2-1.7,0.2C613.2,95.3,612.2,93.5,612.2,91.3z"/>
		<path class="st6" d="M623.1,72.9c0.9,0,1.7,0.7,1.7,1.7c0,0.9-0.7,1.7-1.7,1.7c-0.9,0-1.7-0.7-1.7-1.7
			C621.5,73.6,622.2,72.9,623.1,72.9z M624.3,80v15.2H622V80H624.3z"/>
		<path class="st6" d="M640.3,86.4c0-2.7-1.4-4.6-4.2-4.6c-2.7,0-4.5,2.1-4.5,4.8v8.7h-2.2V80h2.2v2.8c1.2-2.1,3-3.1,5.3-3.1
			c3.7,0,5.8,2.5,5.8,6.1v9.4h-2.2V86.4z"/>
		<path class="st6" d="M649.3,88.9c0,2.7,1.4,4.6,4.2,4.6c2.7,0,4.5-2.1,4.5-4.8V80h2.2v15.2h-2.2v-2.8c-1.2,2.1-3,3.1-5.2,3.1
			c-3.7,0-5.8-2.5-5.8-6.1V80h2.2V88.9z"/>
		<path class="st6" d="M666.5,72.9c0.9,0,1.7,0.7,1.7,1.7c0,0.9-0.7,1.7-1.7,1.7c-0.9,0-1.7-0.7-1.7-1.7
			C664.8,73.6,665.5,72.9,666.5,72.9z M667.6,80v15.2h-2.3V80H667.6z"/>
		<path class="st6" d="M673.6,91.3V82h-2.8v-2h2.8v-4.4h2.2V80h3.9v2h-3.9v9.3c0,1.4,0.8,2.1,2.5,2.1c0.5,0,1,0,1.4-0.1v1.9
			c-0.5,0.1-1.3,0.2-1.7,0.2C674.6,95.3,673.6,93.5,673.6,91.3z"/>
		<path class="st6" d="M688.5,94.2L681.5,80h2.6l5.6,11.8L695,80h2.4l-10.4,22.7h-2.4L688.5,94.2z"/>
		<path class="st6" d="M165.5,117.3c1.1-2.4,3.2-3.3,4.9-3.3c0.1,0,0.6,0,0.7,0v2.4c-0.3,0-0.6-0.1-0.9-0.1c-3.6,0-4.8,3-4.8,5.7
			v7.4h-2.2v-15.2h2.2V117.3z"/>
		<path class="st6" d="M175.3,107.1c0.9,0,1.7,0.7,1.7,1.7c0,0.9-0.7,1.7-1.7,1.7c-0.9,0-1.7-0.7-1.7-1.7
			C173.6,107.8,174.3,107.1,175.3,107.1z M176.4,114.2v15.2h-2.3v-15.2H176.4z"/>
		<path class="st6" d="M186.1,129.7c-4.1,0-5.5-2.8-5.8-4.5l2.1-0.5c0.3,1.4,1.3,3,3.7,3c1.7,0,3.2-0.9,3.2-2.5c0-1.9-2-2.3-3.6-2.5
			c-2.5-0.4-5-1.3-5-4.3c0-2.9,2.6-4.5,5.1-4.5c4,0,5.3,2.7,5.5,4.1l-2,0.5c-0.3-1-1.1-2.7-3.5-2.7c-1.7,0-2.9,1.1-2.9,2.4
			c0,1.9,2.1,2.2,3.6,2.4c2.5,0.3,5,1.6,5,4.4C191.5,127.9,189,129.7,186.1,129.7z"/>
		<path class="st6" d="M197.7,129.5h-2.2v-23.3h2.2v14.2l7.2-6.2h3.2l-8,6.8l8.4,8.4h-3.1l-7.6-7.6h-0.1V129.5z"/>
		<path class="st6" d="M215.2,129.7c-4.1,0-5.5-2.8-5.8-4.5l2.1-0.5c0.3,1.4,1.3,3,3.7,3c1.7,0,3.2-0.9,3.2-2.5c0-1.9-2-2.3-3.6-2.5
			c-2.5-0.4-5-1.3-5-4.3c0-2.9,2.6-4.5,5.1-4.5c4,0,5.3,2.7,5.5,4.1l-2,0.5c-0.3-1-1.1-2.7-3.5-2.7c-1.7,0-2.9,1.1-2.9,2.4
			c0,1.9,2.1,2.2,3.6,2.4c2.5,0.3,5,1.6,5,4.4C220.6,127.9,218.1,129.7,215.2,129.7z"/>
		<path class="st6" d="M233.6,125.5v-9.3h-2.8v-2h2.8v-4.4h2.2v4.4h3.9v2h-3.9v9.3c0,1.4,0.8,2.1,2.5,2.1c0.5,0,1,0,1.4-0.1v1.9
			c-0.5,0.1-1.3,0.2-1.7,0.2C234.5,129.6,233.6,127.8,233.6,125.5z"/>
		<path class="st6" d="M241.9,121.9c0-4.5,3.4-7.9,7.9-7.9c4.4,0,7.8,3.5,7.8,7.8c0,4.5-3.5,7.9-7.9,7.9
			C245.4,129.7,241.9,126.2,241.9,121.9z M255.4,121.9c0-3.2-2.3-6-5.6-6c-3.3,0-5.6,2.7-5.6,5.9c0,3.2,2.3,6,5.6,6
			C253.1,127.8,255.4,125.1,255.4,121.9z"/>
		<path class="st6" d="M270.7,107.1c0.9,0,1.7,0.7,1.7,1.7c0,0.9-0.7,1.7-1.7,1.7c-0.9,0-1.7-0.7-1.7-1.7
			C269,107.8,269.8,107.1,270.7,107.1z M271.8,114.2v15.2h-2.3v-15.2H271.8z"/>
		<path class="st6" d="M287.8,120.6c0-2.7-1.4-4.6-4.2-4.6c-2.7,0-4.5,2.1-4.5,4.8v8.7h-2.2v-15.2h2.2v2.8c1.2-2.1,3-3.1,5.3-3.1
			c3.7,0,5.8,2.5,5.8,6.1v9.4h-2.2V120.6z"/>
		<path class="st6" d="M301.5,127.8c3.4,0,4.7-2.5,5.1-3.7l2.1,0.7c-0.7,2.3-3.2,4.9-7.2,4.9c-4.4,0-7.8-3.3-7.8-7.8
			c0-4.6,3.6-7.9,7.9-7.9c3.5,0,6.4,2.3,7,4.9l-2.1,0.7c-0.3-1.2-1.9-3.5-5-3.5c-3.3,0-5.5,2.7-5.5,5.8
			C296,124.9,298.1,127.8,301.5,127.8z"/>
		<path class="st6" d="M314.7,106.2v23.3h-2.3v-23.3H314.7z"/>
		<path class="st6" d="M321.7,123.1c0,2.7,1.4,4.6,4.2,4.6c2.7,0,4.5-2.1,4.5-4.8v-8.7h2.2v15.2h-2.2v-2.8c-1.2,2.1-3,3.1-5.2,3.1
			c-3.7,0-5.8-2.5-5.8-6.1v-9.4h2.2V123.1z"/>
		<path class="st6" d="M343.8,114c2.9,0,4.7,1.7,5.9,3.5v-11.2h2.2v23.2h-2.2v-3.3c-1.2,1.9-3,3.5-5.9,3.5c-4.4,0-7.1-3.7-7.1-7.9
			C336.6,117.9,339.5,114,343.8,114z M349.7,121.8c0-3-2.3-5.8-5.5-5.8c-3.3,0-5.3,2.7-5.3,5.9c0,3.1,2,5.8,5.3,5.8
			C347.4,127.7,349.7,124.9,349.7,121.8z"/>
		<path class="st6" d="M358.1,122.5c0.2,3,2.5,5.2,5.5,5.2c2.3,0,4-1.1,4.7-3.3l2,0.6c-0.9,2.9-3.7,4.6-6.7,4.6
			c-4.4,0-7.7-3.5-7.7-7.9c0-4.1,3.1-7.8,7.4-7.8c4.7,0,7.2,3.4,7.2,7.8c0,0.3,0,0.5,0,0.7H358.1z M368.2,120.7
			c-0.3-2.8-2-4.7-4.9-4.7c-2.7,0-4.8,2.2-5.1,4.7H368.2z"/>
		<path class="st6" d="M388.9,127.8c3.4,0,4.7-2.5,5.1-3.7l2.1,0.7c-0.7,2.3-3.2,4.9-7.2,4.9c-4.4,0-7.8-3.3-7.8-7.8
			c0-4.6,3.6-7.9,7.9-7.9c3.5,0,6.4,2.3,7,4.9l-2.1,0.7c-0.3-1.2-1.9-3.5-5-3.5c-3.3,0-5.5,2.7-5.5,5.8
			C383.4,124.9,385.4,127.8,388.9,127.8z"/>
		<path class="st6" d="M402,106.2v23.3h-2.3v-23.3H402z"/>
		<path class="st6" d="M405.9,121.9c0-4.5,3.4-7.9,7.9-7.9c4.4,0,7.8,3.5,7.8,7.8c0,4.5-3.5,7.9-7.9,7.9
			C409.3,129.7,405.9,126.2,405.9,121.9z M419.4,121.9c0-3.2-2.3-6-5.6-6s-5.6,2.7-5.6,5.9c0,3.2,2.3,6,5.6,6
			C417.1,127.8,419.4,125.1,419.4,121.9z"/>
		<path class="st6" d="M427.6,123.1c0,2.7,1.4,4.6,4.2,4.6c2.7,0,4.5-2.1,4.5-4.8v-8.7h2.2v15.2h-2.2v-2.8c-1.2,2.1-3,3.1-5.2,3.1
			c-3.7,0-5.8-2.5-5.8-6.1v-9.4h2.2V123.1z"/>
		<path class="st6" d="M449.6,114c2.9,0,4.7,1.7,5.9,3.5v-11.2h2.2v23.2h-2.2v-3.3c-1.2,1.9-3,3.5-5.9,3.5c-4.4,0-7.1-3.7-7.1-7.9
			C442.5,117.9,445.3,114,449.6,114z M455.6,121.8c0-3-2.3-5.8-5.5-5.8c-3.3,0-5.3,2.7-5.3,5.9c0,3.1,2,5.8,5.3,5.8
			C453.3,127.7,455.6,124.9,455.6,121.8z"/>
		<path class="st6" d="M475.4,129.7c-4.1,0-5.5-2.8-5.8-4.5l2.1-0.5c0.3,1.4,1.3,3,3.7,3c1.7,0,3.2-0.9,3.2-2.5c0-1.9-2-2.3-3.6-2.5
			c-2.5-0.4-5-1.3-5-4.3c0-2.9,2.6-4.5,5.1-4.5c4,0,5.3,2.7,5.5,4.1l-2,0.5c-0.3-1-1.1-2.7-3.5-2.7c-1.7,0-2.9,1.1-2.9,2.4
			c0,1.9,2.1,2.2,3.6,2.4c2.5,0.3,5,1.6,5,4.4C480.8,127.9,478.3,129.7,475.4,129.7z"/>
		<path class="st6" d="M485.9,122.5c0.2,3,2.5,5.2,5.4,5.2c2.3,0,4-1.1,4.7-3.3l2,0.6c-0.9,2.9-3.7,4.6-6.7,4.6
			c-4.4,0-7.7-3.5-7.7-7.9c0-4.1,3.1-7.8,7.4-7.8c4.7,0,7.2,3.4,7.2,7.8c0,0.3,0,0.5,0,0.7H485.9z M496,120.7
			c-0.3-2.8-2-4.7-4.9-4.7c-2.7,0-4.8,2.2-5.1,4.7H496z"/>
		<path class="st6" d="M504.3,117.3c1.1-2.4,3.2-3.3,4.9-3.3c0.1,0,0.6,0,0.7,0v2.4c-0.3,0-0.6-0.1-0.9-0.1c-3.6,0-4.8,3-4.8,5.7
			v7.4h-2.2v-15.2h2.2V117.3z"/>
		<path class="st6" d="M511.1,114.2h2.5l5.2,12.8l5.3-12.8h2.4l-6.5,15.2h-2.4L511.1,114.2z"/>
		<path class="st6" d="M530.7,107.1c0.9,0,1.7,0.7,1.7,1.7c0,0.9-0.7,1.7-1.7,1.7c-0.9,0-1.7-0.7-1.7-1.7
			C529,107.8,529.8,107.1,530.7,107.1z M531.8,114.2v15.2h-2.3v-15.2H531.8z"/>
		<path class="st6" d="M543.5,127.8c3.4,0,4.7-2.5,5.1-3.7l2.1,0.7c-0.7,2.3-3.2,4.9-7.2,4.9c-4.4,0-7.8-3.3-7.8-7.8
			c0-4.6,3.6-7.9,7.9-7.9c3.5,0,6.4,2.3,7,4.9l-2.1,0.7c-0.3-1.2-1.9-3.5-5-3.5c-3.3,0-5.5,2.7-5.5,5.8
			C538,124.9,540.1,127.8,543.5,127.8z"/>
		<path class="st6" d="M555.5,122.5c0.2,3,2.5,5.2,5.4,5.2c2.3,0,4-1.1,4.7-3.3l2,0.6c-0.9,2.9-3.7,4.6-6.7,4.6
			c-4.4,0-7.7-3.5-7.7-7.9c0-4.1,3.1-7.8,7.4-7.8c4.7,0,7.2,3.4,7.2,7.8c0,0.3,0,0.5,0,0.7H555.5z M565.7,120.7
			c-0.3-2.8-2-4.7-4.9-4.7c-2.7,0-4.8,2.2-5.1,4.7H565.7z"/>
		<path class="st6" d="M576.4,129.7c-4.1,0-5.5-2.8-5.8-4.5l2.1-0.5c0.3,1.4,1.3,3,3.7,3c1.7,0,3.2-0.9,3.2-2.5c0-1.9-2-2.3-3.6-2.5
			c-2.5-0.4-5-1.3-5-4.3c0-2.9,2.6-4.5,5.1-4.5c4,0,5.3,2.7,5.5,4.1l-2,0.5c-0.3-1-1.1-2.7-3.5-2.7c-1.7,0-2.9,1.1-2.9,2.4
			c0,1.9,2.1,2.2,3.6,2.4c2.5,0.3,5,1.6,5,4.4C581.8,127.9,579.3,129.7,576.4,129.7z"/>
		<path class="st6" d="M589.5,123c0-0.2,0-0.3,0-0.5c0-2.7,1.6-3.9,2.9-5.2c1.3-1.4,2.8-2.6,2.8-4.5c0-1.9-1.3-3.7-4.2-3.7
			c-2.9,0-4.5,2.1-4.3,4.9l-2.3-0.1c0-0.2,0-0.4,0-0.7c0-3.7,3.1-6.3,6.6-6.3c4,0,6.6,2.8,6.6,5.8c0,2.2-1.3,3.7-3.3,5.6
			c-1.5,1.5-2.5,2.4-2.5,4.6H589.5z M590.5,129.7c0.9,0,1.7-0.7,1.7-1.7c0-0.9-0.7-1.7-1.7-1.7c-0.9,0-1.7,0.7-1.7,1.7
			C588.8,129,589.6,129.7,590.5,129.7z"/>
	</g>
</g>
<g>
	<path class="st3" d="M791.9,425v-3.6h-7.7v-1.7l7.3-9.6h2v10h2.5v1.4h-2.5v3.6H791.9z M791.9,420.1v-8.4l-6.4,8.4H791.9z"/>
	<path class="st3" d="M800.6,411.8l-3.6,2.1l-0.7-1.2l4.3-2.6h1.5V425h-1.6V411.8z"/>
	<path class="st3" d="M806.6,419.4c-1.1,0-2-0.9-2-2c0-1.1,0.9-2,2-2c1.1,0,2,0.9,2,2C808.6,418.5,807.7,419.4,806.6,419.4z
		 M806.6,416.2c-0.7,0-1.2,0.5-1.2,1.2c0,0.7,0.6,1.2,1.2,1.2c0.7,0,1.2-0.5,1.2-1.2C807.8,416.7,807.3,416.2,806.6,416.2z
		 M811.4,415.5h0.9l-5.7,8.7h-0.9L811.4,415.5z M811.4,424.3c-1.1,0-2-0.9-2-2c0-1.1,0.9-2,2-2c1.1,0,2,0.9,2,2
		C813.4,423.4,812.5,424.3,811.4,424.3z M811.4,421.1c-0.7,0-1.2,0.5-1.2,1.2c0,0.7,0.5,1.2,1.2,1.2c0.7,0,1.2-0.5,1.2-1.2
		C812.6,421.6,812.1,421.1,811.4,421.1z"/>
</g>
<g class="st5">
	<path class="st6" d="M419.9,546.6c0-1.7,0.8-3.6,3.4-5.2l2.3-1.4c1.4-0.9,2.6-1.8,2.6-3.5c0-1.5-1.4-3-3.3-3c-1.6,0-2.7,1-3.1,1.9
		c-0.3,0.6-0.3,1.2-0.3,1.5l-1.6-0.2c0-2.1,1.8-4.6,5-4.6c2.8,0,4.9,2.1,4.9,4.4c0,2.1-1.2,3.4-3.1,4.6l-2.3,1.5
		c-1.3,0.8-2.5,1.8-2.6,3.2h8.2v1.4h-10.1V546.6z"/>
	<path class="st6" d="M432.2,543c0-1.6,1.1-3,3.1-3.6c-1.8-0.5-2.8-2.1-2.8-3.4c0-2.6,2.7-4,4.9-4c2.2,0,4.9,1.3,4.9,4
		c0,1.4-1,2.9-2.8,3.4c2.1,0.6,3.1,2.1,3.1,3.6c0,2.7-2.6,4.2-5.2,4.2C434.8,547.2,432.2,545.8,432.2,543z M441,543
		c0-2-2.1-2.9-3.7-2.9c-1.6,0-3.7,0.9-3.7,2.9c0,2,2,2.9,3.7,2.9C438.9,545.8,441,544.9,441,543z M434.1,536c0,1.9,2.1,2.7,3.3,2.7
		c1.3,0,3.3-0.9,3.3-2.7c0-1.7-1.9-2.6-3.3-2.6C436,533.4,434.1,534.3,434.1,536z"/>
	<path class="st6" d="M446.1,541.4c-1.1,0-2-0.9-2-2c0-1.1,0.9-2,2-2c1.1,0,2,0.9,2,2C448.1,540.5,447.2,541.4,446.1,541.4z
		 M446.1,538.2c-0.7,0-1.2,0.5-1.2,1.2c0,0.7,0.6,1.2,1.2,1.2c0.7,0,1.2-0.5,1.2-1.2C447.4,538.8,446.8,538.2,446.1,538.2z
		 M450.9,537.6h0.9l-5.7,8.7h-0.9L450.9,537.6z M450.9,546.3c-1.1,0-2-0.9-2-2c0-1.1,0.9-2,2-2s2,0.9,2,2
		C452.9,545.4,452,546.3,450.9,546.3z M450.9,543.1c-0.7,0-1.2,0.5-1.2,1.2c0,0.7,0.5,1.2,1.2,1.2c0.7,0,1.2-0.5,1.2-1.2
		C452.2,543.7,451.6,543.1,450.9,543.1z"/>
</g>
<g class="st5">
	<path d="M471.2,255.6l-3.6,2.1l-0.7-1.2l4.3-2.6h1.5v14.9h-1.6V255.6z"/>
	<path d="M483.2,268.9v-3.6h-7.7v-1.7l7.3-9.6h2v10h2.5v1.4h-2.5v3.6H483.2z M483.2,263.9v-8.4l-6.4,8.4H483.2z"/>
	<path d="M490.2,263.2c-1.1,0-2-0.9-2-2c0-1.1,0.9-2,2-2c1.1,0,2,0.9,2,2C492.2,262.3,491.3,263.2,490.2,263.2z M490.2,260
		c-0.7,0-1.2,0.5-1.2,1.2c0,0.7,0.6,1.2,1.2,1.2c0.7,0,1.2-0.5,1.2-1.2C491.4,260.6,490.9,260,490.2,260z M495,259.4h0.9l-5.7,8.7
		h-0.9L495,259.4z M495,268.1c-1.1,0-2-0.9-2-2c0-1.1,0.9-2,2-2s2,0.9,2,2C497,267.3,496.1,268.1,495,268.1z M495,265
		c-0.7,0-1.2,0.5-1.2,1.2c0,0.7,0.5,1.2,1.2,1.2c0.7,0,1.2-0.5,1.2-1.2C496.2,265.5,495.7,265,495,265z"/>
</g>
<g>
	<path class="st3" d="M1332.5,324.9c-2.6,0-4.8-1.6-5.1-4.1l1.5-0.3c0.3,1.7,1.6,3,3.6,3c2,0,3.6-1.1,3.6-2.8s-1.3-2.8-3.6-2.8h-1.5
		v-1.4h1.4c2,0,3.3-1.3,3.3-2.7c0-1.5-1.1-2.6-3.3-2.6c-2,0-3.2,1.2-3.5,2.8l-1.5-0.3c0.3-2.1,2.2-3.9,5-3.9c3.2,0,4.8,2,4.8,3.9
		c0,1.7-1,2.8-2.4,3.4v0c1.7,0.5,2.7,1.8,2.7,3.6C1337.7,322.9,1335.6,324.9,1332.5,324.9z"/>
	<path class="st3" d="M1339.9,317.3c0-3.7,2.1-7.6,6.2-7.6c4.1,0,6.1,3.9,6.1,7.6c0,3.7-2.1,7.6-6.2,7.6
		C1342,324.9,1339.9,321,1339.9,317.3z M1341.5,317.3c0,2.7,1.4,6.2,4.6,6.2c3.2,0,4.6-3.5,4.6-6.1c0-2.7-1.4-6.2-4.6-6.2
		S1341.5,314.6,1341.5,317.3z"/>
	<path class="st3" d="M1355.8,319.1c-1.1,0-2-0.9-2-2c0-1.1,0.9-2,2-2c1.1,0,2,0.9,2,2C1357.8,318.2,1356.9,319.1,1355.8,319.1z
		 M1355.8,315.9c-0.7,0-1.2,0.5-1.2,1.2c0,0.7,0.6,1.2,1.2,1.2c0.7,0,1.2-0.5,1.2-1.2C1357,316.5,1356.5,315.9,1355.8,315.9z
		 M1360.6,315.3h0.9l-5.7,8.7h-0.9L1360.6,315.3z M1360.6,324c-1.1,0-2-0.9-2-2c0-1.1,0.9-2,2-2c1.1,0,2,0.9,2,2
		C1362.6,323.1,1361.7,324,1360.6,324z M1360.6,320.8c-0.7,0-1.2,0.5-1.2,1.2c0,0.7,0.5,1.2,1.2,1.2c0.7,0,1.2-0.5,1.2-1.2
		C1361.8,321.4,1361.3,320.8,1360.6,320.8z"/>
</g>
<g class="st5">
	<path class="st6" d="M1153.3,628.4c-2.6,0-4.8-1.6-5.1-4.1l1.5-0.3c0.3,1.7,1.6,3,3.6,3c2,0,3.6-1.1,3.6-2.8c0-1.7-1.3-2.8-3.6-2.8
		h-1.5V620h1.4c2,0,3.3-1.3,3.3-2.7c0-1.5-1.1-2.6-3.3-2.6c-2,0-3.2,1.2-3.5,2.8l-1.5-0.3c0.3-2.1,2.2-3.9,5-3.9
		c3.2,0,4.8,2,4.8,3.9c0,1.7-1,2.8-2.4,3.4v0c1.7,0.5,2.7,1.8,2.7,3.6C1158.5,626.5,1156.5,628.4,1153.3,628.4z"/>
	<path class="st6" d="M1160.7,620.9c0-3.7,2.1-7.6,6.2-7.6c4.1,0,6.1,3.9,6.1,7.6c0,3.7-2.1,7.6-6.2,7.6
		C1162.8,628.4,1160.7,624.6,1160.7,620.9z M1162.3,620.8c0,2.7,1.4,6.2,4.6,6.2c3.2,0,4.6-3.5,4.6-6.1s-1.4-6.2-4.6-6.2
		S1162.3,618.1,1162.3,620.8z"/>
	<path class="st6" d="M1176.6,622.6c-1.1,0-2-0.9-2-2c0-1.1,0.9-2,2-2c1.1,0,2,0.9,2,2C1178.6,621.8,1177.7,622.6,1176.6,622.6z
		 M1176.6,619.5c-0.7,0-1.2,0.5-1.2,1.2c0,0.7,0.6,1.2,1.2,1.2c0.7,0,1.2-0.5,1.2-1.2C1177.8,620,1177.3,619.5,1176.6,619.5z
		 M1181.4,618.8h0.9l-5.7,8.7h-0.9L1181.4,618.8z M1181.4,627.6c-1.1,0-2-0.9-2-2c0-1.1,0.9-2,2-2c1.1,0,2,0.9,2,2
		C1183.4,626.7,1182.5,627.6,1181.4,627.6z M1181.4,624.4c-0.7,0-1.2,0.5-1.2,1.2c0,0.7,0.5,1.2,1.2,1.2c0.7,0,1.2-0.5,1.2-1.2
		C1182.7,624.9,1182.1,624.4,1181.4,624.4z"/>
</g>
<g class="st5">
	<path d="M971.9,324.9c-2.6,0-4.8-1.6-5.1-4.1l1.5-0.3c0.3,1.7,1.6,3,3.6,3c2,0,3.6-1.1,3.6-2.8s-1.3-2.8-3.6-2.8h-1.5v-1.4h1.4
		c2,0,3.3-1.3,3.3-2.7c0-1.5-1.1-2.6-3.3-2.6c-2,0-3.2,1.2-3.5,2.8l-1.5-0.3c0.3-2.1,2.2-3.9,5-3.9c3.2,0,4.8,2,4.8,3.9
		c0,1.7-1,2.8-2.4,3.4v0c1.7,0.5,2.7,1.8,2.7,3.6C977.1,322.9,975,324.9,971.9,324.9z"/>
	<path d="M979.3,317.3c0-3.7,2.1-7.6,6.2-7.6c4.1,0,6.1,3.9,6.1,7.6c0,3.7-2.1,7.6-6.2,7.6C981.4,324.9,979.3,321,979.3,317.3z
		 M980.9,317.3c0,2.7,1.4,6.2,4.6,6.2c3.2,0,4.6-3.5,4.6-6.1c0-2.7-1.4-6.2-4.6-6.2C982.3,311.1,980.9,314.6,980.9,317.3z"/>
	<path d="M995.2,319.1c-1.1,0-2-0.9-2-2c0-1.1,0.9-2,2-2c1.1,0,2,0.9,2,2C997.1,318.2,996.3,319.1,995.2,319.1z M995.2,315.9
		c-0.7,0-1.2,0.5-1.2,1.2c0,0.7,0.6,1.2,1.2,1.2c0.7,0,1.2-0.5,1.2-1.2C996.4,316.5,995.9,315.9,995.2,315.9z M1000,315.3h0.9
		l-5.7,8.7h-0.9L1000,315.3z M1000,324c-1.1,0-2-0.9-2-2c0-1.1,0.9-2,2-2c1.1,0,2,0.9,2,2C1002,323.1,1001.1,324,1000,324z
		 M1000,320.8c-0.7,0-1.2,0.5-1.2,1.2c0,0.7,0.5,1.2,1.2,1.2c0.7,0,1.2-0.5,1.2-1.2C1001.2,321.4,1000.7,320.8,1000,320.8z"/>
</g>
<g>
	<path class="st3" d="M1066.3,886.9v-3.6h-7.7v-1.7l7.3-9.6h2v10h2.5v1.4h-2.5v3.6H1066.3z M1066.3,882v-8.4l-6.4,8.4H1066.3z"/>
	<path class="st3" d="M1081.2,879.5c-1,1.6-3,2.2-4.2,2.2c-3.2,0-4.9-2.4-4.9-4.8c0-3.4,2.6-5.1,5.3-5.1c1.6,0,3.5,0.9,4.4,2.5
		c0.7,1.3,1,2.5,1,4.2c0,4.9-2.4,8.5-7,8.5c-0.8,0-2.5-0.2-3.4-0.9l0.6-1.4c1,0.6,2.2,0.8,2.8,0.8
		C1079,885.5,1080.9,882.9,1081.2,879.5z M1079.7,879.5c0.7-0.6,1.2-1.6,1.2-2.6c0-2.2-1.8-3.5-3.7-3.5c-1.9,0-3.7,1.2-3.7,3.6
		c0,1.8,1.3,3.5,3.6,3.5C1078.1,880.4,1079,880,1079.7,879.5z"/>
	<path class="st3" d="M1086.2,881.2c-1.1,0-2-0.9-2-2c0-1.1,0.9-2,2-2c1.1,0,2,0.9,2,2C1088.2,880.4,1087.3,881.2,1086.2,881.2z
		 M1086.2,878.1c-0.7,0-1.2,0.5-1.2,1.2c0,0.7,0.6,1.2,1.2,1.2c0.7,0,1.2-0.5,1.2-1.2C1087.4,878.6,1086.9,878.1,1086.2,878.1z
		 M1091,877.4h0.9l-5.7,8.7h-0.9L1091,877.4z M1091,886.2c-1.1,0-2-0.9-2-2c0-1.1,0.9-2,2-2c1.1,0,2,0.9,2,2
		C1093,885.3,1092.1,886.2,1091,886.2z M1091,883c-0.7,0-1.2,0.5-1.2,1.2c0,0.7,0.5,1.2,1.2,1.2c0.7,0,1.2-0.5,1.2-1.2
		C1092.2,883.5,1091.7,883,1091,883z"/>
</g>
<g class="st5">
	<path class="st6" d="M673.9,770.3c0-1.7,0.8-3.6,3.4-5.2l2.3-1.4c1.4-0.9,2.6-1.8,2.6-3.5c0-1.5-1.4-3-3.3-3c-1.6,0-2.7,1-3.1,1.9
		c-0.3,0.6-0.3,1.2-0.3,1.5l-1.6-0.2c0-2.1,1.8-4.6,5-4.6c2.8,0,4.9,2.1,4.9,4.4c0,2.1-1.2,3.4-3.1,4.6l-2.3,1.5
		c-1.3,0.8-2.5,1.8-2.6,3.2h8.2v1.4h-10.1V770.3z"/>
	<path class="st6" d="M688.8,757.4l-0.9,5.1c0.9-0.9,2.5-1.2,3.2-1.2c2.8,0,4.9,1.8,4.9,4.8c0,3.2-2.7,4.9-5.2,4.9
		c-2.5,0-4.8-1.6-5.1-4.1l1.5-0.3c0.2,1.7,1.7,3,3.6,3c1.5,0,3.6-1,3.6-3.4c0-2.4-1.8-3.5-3.6-3.5c-1.1,0-2.4,0.6-3.1,1.5l-1.4-0.6
		l1.3-7.7h7.8v1.5H688.8z"/>
	<path class="st6" d="M699.5,765.1c-1.1,0-2-0.9-2-2c0-1.1,0.9-2,2-2c1.1,0,2,0.9,2,2C701.4,764.3,700.5,765.1,699.5,765.1z
		 M699.5,762c-0.7,0-1.2,0.5-1.2,1.2c0,0.7,0.6,1.2,1.2,1.2c0.7,0,1.2-0.5,1.2-1.2C700.7,762.5,700.1,762,699.5,762z M704.3,761.3
		h0.9l-5.7,8.7h-0.9L704.3,761.3z M704.3,770.1c-1.1,0-2-0.9-2-2c0-1.1,0.9-2,2-2s2,0.9,2,2C706.2,769.2,705.4,770.1,704.3,770.1z
		 M704.3,766.9c-0.7,0-1.2,0.5-1.2,1.2c0,0.7,0.5,1.2,1.2,1.2c0.7,0,1.2-0.5,1.2-1.2C705.5,767.4,705,766.9,704.3,766.9z"/>
</g>
<g class="st5">
	<path d="M851.6,622.6V619h-7.7v-1.7l7.3-9.6h2v10h2.5v1.4h-2.5v3.6H851.6z M851.6,617.7v-8.4l-6.4,8.4H851.6z"/>
	<path d="M858.7,616.9c-1.1,0-2-0.9-2-2c0-1.1,0.9-2,2-2c1.1,0,2,0.9,2,2C860.6,616.1,859.7,616.9,858.7,616.9z M858.7,613.8
		c-0.7,0-1.2,0.5-1.2,1.2c0,0.7,0.6,1.2,1.2,1.2c0.7,0,1.2-0.5,1.2-1.2C859.9,614.3,859.3,613.8,858.7,613.8z M863.4,613.1h0.9
		l-5.7,8.7h-0.9L863.4,613.1z M863.5,621.9c-1.1,0-2-0.9-2-2c0-1.1,0.9-2,2-2c1.1,0,2,0.9,2,2C865.4,621,864.6,621.9,863.5,621.9z
		 M863.5,618.7c-0.7,0-1.2,0.5-1.2,1.2c0,0.7,0.5,1.2,1.2,1.2c0.7,0,1.2-0.5,1.2-1.2C864.7,619.2,864.1,618.7,863.5,618.7z"/>
</g>
<g>
	<path class="st3" d="M509,808.4v-3.6h-7.7v-1.7l7.3-9.6h2v10h2.5v1.4h-2.5v3.6H509z M509,803.5v-8.4l-6.4,8.4H509z"/>
	<path class="st3" d="M517.7,795.2l-3.6,2.1l-0.7-1.2l4.3-2.6h1.5v14.9h-1.6V795.2z"/>
	<path class="st3" d="M523.7,802.8c-1.1,0-2-0.9-2-2c0-1.1,0.9-2,2-2c1.1,0,2,0.9,2,2C525.7,801.9,524.8,802.8,523.7,802.8z
		 M523.7,799.6c-0.7,0-1.2,0.5-1.2,1.2c0,0.7,0.6,1.2,1.2,1.2c0.7,0,1.2-0.5,1.2-1.2C524.9,800.1,524.4,799.6,523.7,799.6z
		 M528.5,799h0.9l-5.7,8.7h-0.9L528.5,799z M528.5,807.7c-1.1,0-2-0.9-2-2c0-1.1,0.9-2,2-2s2,0.9,2,2
		C530.5,806.8,529.6,807.7,528.5,807.7z M528.5,804.5c-0.7,0-1.2,0.5-1.2,1.2c0,0.7,0.5,1.2,1.2,1.2c0.7,0,1.2-0.5,1.2-1.2
		C529.7,805.1,529.2,804.5,528.5,804.5z"/>
</g>
<g class="st5">
	<path class="st6" d="M142.6,927.8c-2.6,0-4.8-1.6-5.1-4.1l1.5-0.3c0.3,1.7,1.6,3,3.6,3c2,0,3.6-1.1,3.6-2.8s-1.3-2.8-3.6-2.8h-1.5
		v-1.4h1.4c2,0,3.3-1.3,3.3-2.7c0-1.5-1.1-2.6-3.3-2.6c-2,0-3.2,1.2-3.5,2.8l-1.5-0.3c0.3-2.1,2.2-3.9,5-3.9c3.2,0,4.8,2,4.8,3.9
		c0,1.7-1,2.8-2.4,3.4v0c1.7,0.5,2.7,1.8,2.7,3.6C147.7,925.9,145.7,927.8,142.6,927.8z"/>
	<path class="st6" d="M150,920.3c0-3.7,2.1-7.6,6.2-7.6c4.1,0,6.1,3.9,6.1,7.6c0,3.7-2.1,7.6-6.2,7.6C152,927.9,150,924,150,920.3z
		 M151.6,920.2c0,2.7,1.4,6.2,4.6,6.2c3.2,0,4.6-3.5,4.6-6.1c0-2.7-1.4-6.2-4.6-6.2C152.9,914.1,151.6,917.6,151.6,920.2z"/>
	<path class="st6" d="M165.8,922.1c-1.1,0-2-0.9-2-2c0-1.1,0.9-2,2-2c1.1,0,2,0.9,2,2C167.8,921.2,166.9,922.1,165.8,922.1z
		 M165.8,918.9c-0.7,0-1.2,0.5-1.2,1.2c0,0.7,0.6,1.2,1.2,1.2c0.7,0,1.2-0.5,1.2-1.2C167.1,919.4,166.5,918.9,165.8,918.9z
		 M170.6,918.2h0.9l-5.7,8.7H165L170.6,918.2z M170.7,927c-1.1,0-2-0.9-2-2c0-1.1,0.9-2,2-2c1.1,0,2,0.9,2,2
		C172.6,926.1,171.7,927,170.7,927z M170.7,923.8c-0.7,0-1.2,0.5-1.2,1.2c0,0.7,0.5,1.2,1.2,1.2c0.7,0,1.2-0.5,1.2-1.2
		C171.9,924.3,171.3,923.8,170.7,923.8z"/>
</g>
<g class="st5">
	<path d="M204.6,636.7l-3.6,2.1l-0.7-1.2l4.3-2.6h1.5v14.9h-1.6V636.7z"/>
	<path d="M212.1,636.5l-0.9,5.1c0.9-0.9,2.5-1.2,3.2-1.2c2.8,0,4.9,1.8,4.9,4.8c0,3.2-2.7,4.9-5.2,4.9c-2.5,0-4.8-1.6-5.1-4.1
		l1.5-0.3c0.2,1.7,1.7,3,3.6,3c1.5,0,3.6-1,3.6-3.4c0-2.4-1.8-3.5-3.6-3.5c-1.1,0-2.4,0.6-3.1,1.5l-1.4-0.6l1.3-7.7h7.8v1.5H212.1z"
		/>
	<path d="M222.7,644.3c-1.1,0-2-0.9-2-2c0-1.1,0.9-2,2-2c1.1,0,2,0.9,2,2C224.7,643.4,223.8,644.3,222.7,644.3z M222.7,641.1
		c-0.7,0-1.2,0.5-1.2,1.2c0,0.7,0.6,1.2,1.2,1.2c0.7,0,1.2-0.5,1.2-1.2C224,641.6,223.4,641.1,222.7,641.1z M227.5,640.5h0.9
		l-5.7,8.7h-0.9L227.5,640.5z M227.5,649.2c-1.1,0-2-0.9-2-2c0-1.1,0.9-2,2-2s2,0.9,2,2C229.5,648.3,228.6,649.2,227.5,649.2z
		 M227.5,646c-0.7,0-1.2,0.5-1.2,1.2c0,0.7,0.5,1.2,1.2,1.2c0.7,0,1.2-0.5,1.2-1.2C228.8,646.6,228.2,646,227.5,646z"/>
</g>
<g>
	<g>
		<path class="st3" d="M594.6,250.3v61.9c0,0,0,0,0,0c55.8,0,102,41.4,109.5,95.2c0.7,5,1.1,10.2,1.1,15.4c0,36.8-18,69.4-45.6,89.5
			c-16.8,12.2-37.1,19.8-59.2,20.9l3.2,61.8C696.3,590,767,515.5,767,422.7C767,327.4,689.8,250.3,594.6,250.3z"/>
	</g>
	<g>
		<pattern  id="SVGID_2_" xlink:href="#white_2" patternTransform="matrix(0 1.1888 -1.1413 0 -19791.0098 -372.5957)">
		</pattern>
		<path class="st7" d="M594.6,533.2c-43,0-80.2-24.5-98.5-60.3c-7.7-15.1-12-32.1-12-50.2c0-19.5,5-37.7,13.9-53.6l-54.1-30
			c-16.1,29.1-23.1,59.4-21.4,92.6c5,95.1,86.1,168.1,181.2,163.1l-3.2-61.8C598.5,533.1,596.5,533.2,594.6,533.2z"/>
	</g>
	<g class="st5">
		<path d="M566,315.8c9.1-2.4,18.7-3.7,28.6-3.7c0,0,0,0,0,0c0,0,0,0,0,0v-61.9c-64.2,0-119.7,32.7-150.8,88.8l54.1,30
			C512.3,343.2,536.7,323.7,566,315.8z"/>
	</g>
</g>
<g>
	<g>
		<path class="st3" d="M1165.6,250.2v61.9h0c55.8,0,102,41.4,109.5,95.2c0.7,5,1.1,10.2,1.1,15.4c0,20.1-5.4,39-14.8,55.3l53.6,30.9
			c15.9-27.5,23.1-54.5,23.1-86.2C1338,327.4,1260.8,250.2,1165.6,250.2z"/>
	</g>
	<g>
		<pattern  id="SVGID_3_" xlink:href="#white_2" patternTransform="matrix(0 1.1888 -1.1413 0 -19791.0098 -372.5957)">
		</pattern>
		<path class="st8" d="M1230.5,512.1c-18.2,13.3-40.7,21.1-65,21.1c-40.9,0-76.6-22.2-95.7-55.3l-53.5,30.9
			c15.9,27.5,35.6,47.2,63.1,63.1c82.5,47.6,187.9,19.4,235.5-63.1l-53.6-30.9C1253.5,491.4,1243,503,1230.5,512.1z"/>
	</g>
	<g class="st5">
		<path d="M1067,472.9c-7.7-15.1-12-32.1-12-50.2c0-51.2,34.8-94.2,82-106.8c9.1-2.4,18.7-3.7,28.6-3.7c0,0,0,0,0,0c0,0,0,0,0,0
			v-61.9c-31.7,0-58.7,7.2-86.2,23.1c-82.5,47.6-110.7,153-63.1,235.5l53.5-30.9C1068.8,476.3,1067.9,474.6,1067,472.9z"/>
	</g>
</g>
<g>
	<g>
		<path class="st3" d="M315,636.2v61.9c55.8,0,101.9,41.4,109.4,95.2c0.7,5,1.1,10.2,1.1,15.4c0,36.8-18,69.4-45.6,89.5
			c-13.8,10-30,17-47.6,19.7l9.7,61.1c85.2-13.5,145.4-84,145.4-170.3C487.4,713.4,410.2,636.2,315,636.2z"/>
	</g>
	<g>
		<pattern  id="SVGID_4_" xlink:href="#white_2" patternTransform="matrix(0 1.1888 -1.1413 0 -19791.0098 -372.5957)">
		</pattern>
		<path class="st9" d="M314.9,919.2c-43,0-80.2-24.5-98.5-60.3c-7.7-15.1-12-32.1-12-50.2c0-18.1,4.4-35.2,12.1-50.2l-55-28
			c-17.1,33.5-22.6,68.1-16.7,105.2c14.9,94,103.2,158.2,197.2,143.3l-9.7-61.1C326.6,918.7,320.8,919.2,314.9,919.2z"/>
	</g>
	<g class="st5">
		<path d="M286.3,701.8c9.1-2.4,18.7-3.7,28.6-3.7c0,0,0,0,0,0c0,0,0,0,0,0c0,0,0,0,0.1,0v-61.9c-66.4,0-123.5,35-153.6,94.1l55,28
			C230.5,730.8,255.8,709.9,286.3,701.8z"/>
	</g>
</g>
<g>
	<g>
		<path class="st3" d="M886.1,636.2v61.8c0,0,0,0,0,0c55.8,0,102,41.4,109.5,95.2c0.7,5,1.1,10.2,1.1,15.4c0,36.8-18,69.4-45.6,89.5
			c-18.2,13.3-40.7,21.1-65,21.1c-31.2,0-59.4-13-79.5-33.8l-44.5,43c33.9,35.1,75.3,52.6,124,52.6c95.2,0,172.4-77.2,172.4-172.4
			C1058.5,713.4,981.4,636.2,886.1,636.2z"/>
	</g>
	<g>
		<pattern  id="SVGID_5_" xlink:href="#white_2" patternTransform="matrix(0 1.1888 -1.1413 0 -19791.0098 -372.5957)">
		</pattern>
		<path class="st10" d="M787.6,858.8c-7.7-15.1-12-32.1-12-50.2c0-48.5,31.2-89.6,74.6-104.5L830,645.6c-25.4,8.7-44.3,20.3-63.6,39
			c-68.5,66.1-70.4,175.3-4.3,243.8l44.5-43C799.1,877.6,792.6,868.6,787.6,858.8z"/>
	</g>
	<g class="st5">
		<path d="M857.5,701.8c9.1-2.4,18.7-3.7,28.6-3.7c0,0,0,0,0,0h0v-61.8c-19.5,0-37.7,3-56.1,9.4l20.1,58.5
			C852.6,703.2,855,702.5,857.5,701.8z"/>
	</g>
</g>
<g class="st5">
	<path d="M600.7,332.6l-1.9,3.4l-1.5-0.2l7.4-13.3l1.6,0.2l4.5,14.5l-1.5-0.2l-1.1-3.7L600.7,332.6z M601.4,331.3l6.5,0.7l-2.4-7.8
		L601.4,331.3z"/>
	<path d="M617.2,323.9l-3.1,14.2l-1.4-0.3l3.1-14.2L617.2,323.9z"/>
	<path d="M622.7,325.4l-3.9,14l-1.4-0.4l3.9-14L622.7,325.4z"/>
	<path d="M631.7,344.3c-1.6-0.8-2.3-2-2.5-3.5l-0.8,1.8l-1.2-0.6l6.1-13.2l1.3,0.6l-2.9,6.4c1.2-0.8,2.6-1.2,4.3-0.5
		c2.5,1.1,3.1,4.1,2,6.3C636.7,344,634.1,345.4,631.7,344.3z M636.5,341.1c0.8-1.8,0.4-3.9-1.5-4.8c-1.8-0.8-3.8,0.2-4.6,1.9
		c-0.8,1.8-0.3,4,1.5,4.8C633.8,343.9,635.6,343,636.5,341.1z"/>
	<path d="M641.2,344.7c-0.9,1.4-0.8,2.9,0.7,3.9c1.4,0.9,3.1,0.4,4-1l2.9-4.6l1.2,0.7l-5.1,8l-1.1-0.7l0.9-1.5
		c-1.3,0.7-2.6,0.6-3.8-0.1c-2-1.3-2.2-3.3-1-5.2l3.2-5l1.2,0.7L641.2,344.7z"/>
	<path d="M649.7,355.7c-2-1.6-1.6-3.5-1-4.5l1.2,0.6c-0.4,0.8-0.5,2,0.6,2.9c0.8,0.7,1.9,0.8,2.5,0c0.7-0.9-0.1-1.9-0.7-2.6
		c-1.1-1.2-1.9-2.6-0.8-4c1.1-1.4,3-1.2,4.3-0.2c1.9,1.6,1.5,3.4,1,4.2l-1.2-0.6c0.3-0.6,0.5-1.7-0.6-2.7c-0.8-0.7-1.8-0.6-2.4,0
		c-0.8,0.9,0.1,1.9,0.8,2.6c1.1,1.1,1.8,2.8,0.7,4.1C653,356.9,651.1,356.8,649.7,355.7z"/>
	<path d="M662,353.7l-6.6,6.9l-1-1l6.6-6.9L662,353.7z M664.6,350c0.4,0.4,0.4,1.1,0,1.5c-0.4,0.4-1.1,0.4-1.5,0
		c-0.4-0.4-0.4-1.1,0-1.5C663.5,349.6,664.2,349.6,664.6,350z"/>
	<path d="M666.6,364.5c1.3-1.1,1.6-2.5,0.5-3.9c-1.1-1.3-2.9-1.3-4.1-0.2l-4.1,3.5l-0.9-1.1l7.2-6.2l0.9,1l-1.3,1.1
		c1.5-0.3,2.7,0.2,3.6,1.2c1.5,1.8,1.2,3.8-0.5,5.2l-4.5,3.8l-0.9-1.1L666.6,364.5z"/>
	<path d="M669.2,369.9c-1.5,1.1-1.9,3.1-0.8,4.6c0.8,1.2,2,1.7,3.3,1.3l0.4,1.3c-1.8,0.5-3.7-0.3-4.7-1.9c-1.5-2.3-0.8-5.2,1.5-6.8
		c2.2-1.4,5.2-1.1,6.7,1.2c1.6,2.5,0.7,4.9-1.6,6.4c-0.1,0.1-0.3,0.2-0.4,0.2L669.2,369.9z M673.6,374.5c1.3-1.1,1.8-2.7,0.8-4.2
		c-0.9-1.4-2.8-1.7-4.2-1L673.6,374.5z"/>
	<path d="M672.2,383.7c-1.2-2.3,0-3.9,0.9-4.5l0.9,1c-0.7,0.6-1.3,1.6-0.6,2.9c0.5,0.9,1.4,1.5,2.3,1.1c1-0.5,0.7-1.8,0.4-2.7
		c-0.5-1.5-0.7-3.2,1-4c1.6-0.8,3.3,0.2,4,1.6c1.1,2.2,0,3.7-0.7,4.3l-0.8-1c0.5-0.4,1.2-1.4,0.5-2.7c-0.5-0.9-1.4-1.3-2.2-0.9
		c-1.1,0.5-0.6,1.8-0.3,2.7c0.5,1.5,0.5,3.2-1,4C674.7,386.2,673,385.3,672.2,383.7z"/>
	<path d="M675.8,391.9c-0.9-2.4,0.4-3.8,1.3-4.4l0.7,1.1c-0.7,0.5-1.5,1.5-0.9,2.8c0.4,1,1.2,1.7,2.2,1.3c1.1-0.4,0.9-1.7,0.7-2.6
		c-0.3-1.6-0.4-3.2,1.4-3.9c1.7-0.6,3.2,0.5,3.8,2c0.9,2.4-0.4,3.7-1.2,4.2l-0.7-1.1c0.5-0.4,1.3-1.2,0.8-2.6
		c-0.4-1-1.3-1.4-2.1-1.1c-1.1,0.4-0.8,1.7-0.6,2.6c0.4,1.5,0.2,3.3-1.5,3.9C678.1,394.6,676.5,393.6,675.8,391.9z"/>
	<path d="M679.7,405.6c-0.5-2.5,1-3.7,2.1-4.1l0.5,1.2c-0.8,0.4-1.7,1.2-1.4,2.6c0.2,1,0.9,1.8,1.9,1.6c1.1-0.2,1.2-1.5,1.1-2.5
		c-0.1-1.6,0.2-3.2,2-3.6c1.7-0.4,3.1,1,3.4,2.6c0.5,2.5-1,3.6-1.9,3.9l-0.5-1.2c0.6-0.3,1.5-1,1.2-2.5c-0.2-1-1-1.6-1.8-1.5
		c-1.2,0.2-1.1,1.5-1,2.5c0.1,1.6-0.4,3.3-2.1,3.6C681.5,408.6,680.1,407.4,679.7,405.6z"/>
	<path d="M690.5,411.8l-9.5,1.1l-0.2-1.4l9.5-1.1L690.5,411.8z M694.8,410.6c0.1,0.6-0.3,1.1-0.9,1.2c-0.6,0.1-1.1-0.3-1.1-0.9
		c-0.1-0.6,0.3-1.1,0.9-1.1C694.3,409.6,694.8,410,694.8,410.6z"/>
	<path d="M681.7,423.2l-0.3-7.6l1.2,0l7.3,5.7l-0.2-5.8l1.2,0l0.3,7.5l-1.2,0l-7.4-5.7l0.2,6L681.7,423.2z"/>
	<path d="M685.9,426.6c-1.9,0-3.4,1.3-3.5,3.1c-0.1,1.4,0.5,2.5,1.8,3.1l-0.5,1.2c-1.8-0.7-2.7-2.5-2.5-4.4c0.2-2.8,2.6-4.6,5.3-4.4
		c2.6,0.2,4.7,2.3,4.5,5c-0.2,2.9-2.4,4.3-5.2,4.1c-0.2,0-0.3,0-0.5-0.1L685.9,426.6z M686.6,433c1.7,0,3-1,3.2-2.8
		c0.1-1.7-1.1-3.1-2.7-3.4L686.6,433z"/>
	<path d="M679.8,439.3c0.5-2.5,2.4-3,3.5-3l0.1,1.3c-0.9,0-2,0.5-2.3,1.9c-0.2,1,0.2,2.1,1.1,2.2c1.1,0.2,1.6-1,2-1.9
		c0.5-1.5,1.4-2.9,3.2-2.6c1.8,0.3,2.5,2.1,2.2,3.7c-0.5,2.5-2.3,2.9-3.2,2.9l-0.1-1.3c0.7,0,1.8-0.3,2.1-1.8c0.2-1-0.3-1.9-1.1-2.1
		c-1.2-0.2-1.6,1-1.9,1.9c-0.5,1.5-1.6,2.9-3.3,2.5C680.2,442.9,679.4,441.1,679.8,439.3z"/>
</g>
<g>
	<g>
		<path class="st11" d="M677.4,454.9c-1.9,4.8-4.2,9.6-7,14.1c-25.7,41.8-80.4,54.9-122.3,29.2s-54.9-80.4-29.2-122.3
			c14.9-24.2,39.5-38.8,65.8-41.8"/>
		<g>
			<polygon points="583.5,329.8 584.4,338.8 588.5,333.9 			"/>
		</g>
	</g>
</g>
<g class="st5">
	<path d="M1169.5,332.2l1.4-0.2c0.2,1.6,1.6,3.1,3.3,3.3c1.6,0.1,3.2-0.5,3.4-2.3c0.2-1.6-1.3-2.4-2.3-2.7l-1.8-0.5
		c-0.6-0.2-1.6-0.6-2.2-1.4c-0.5-0.6-0.9-1.4-0.8-2.5c0.2-2.4,2.5-3.7,4.8-3.5c3,0.3,4.1,2.2,4.3,3.8l-1.4,0.3
		c-0.2-1-0.9-2.5-3.1-2.7c-1.5-0.1-3,0.7-3.1,2.2c-0.1,1,0.4,2,1.8,2.4l1.7,0.5c0.9,0.3,1.9,0.7,2.6,1.5c0.9,1,1,2.1,1,2.7
		c-0.2,2.5-2.4,3.9-5,3.7C1171.3,336.3,1169.5,334.2,1169.5,332.2z"/>
	<path d="M1189,333.4c0.4-1.5,0-2.9-1.7-3.4c-1.6-0.4-2.9,0.7-3.3,2.2l-1.4,5.2l-1.3-0.4l2.4-9.2l1.3,0.3l-0.4,1.6
		c1-0.9,2.1-1.4,3.4-1c1.3,0.4,2.2,1.3,2.5,2.6c1.1-1,2.3-1.4,3.7-1c2.2,0.6,3,2.4,2.4,4.6l-1.5,5.7l-1.3-0.4l1.4-5.4
		c0.4-1.5,0-3-1.6-3.4c-1.6-0.4-2.9,0.6-3.3,2.2l-1.4,5.3l-1.3-0.3L1189,333.4z"/>
	<path d="M1205.7,338.8c0.6-1.4,0.2-2.5-1.3-3.1c-1.5-0.7-2.6,0-3.1,0.8l-1.1-0.8c0.4-0.7,2.2-2.2,4.7-1.1c1.8,0.8,2.4,2.1,2.4,3.2
		c0,0.6-0.3,1.3-0.4,1.5l-2.5,5.6l-1.2-0.6l0.7-1.5l0,0c-1.2,0.8-2.4,1-3.7,0.4c-1.8-0.8-2.4-2.4-1.8-3.9l0-0.1c0.8-1.9,3-1.7,4.6-1
		l2.4,1.1L1205.7,338.8z M1202.6,339.4c-0.9-0.4-2.3-0.7-2.8,0.5c-0.4,1,0.1,1.9,1.2,2.4c1.5,0.7,3.2,0.1,3.9-1.5l0.1-0.3
		L1202.6,339.4z"/>
	<path d="M1215.6,334.5l-7.1,12.7l-1.2-0.7l7.1-12.7L1215.6,334.5z"/>
	<path d="M1220.6,337.5l-7.8,12.3l-1.2-0.8l7.8-12.3L1220.6,337.5z"/>
</g>
<g>
	<g>
		<path class="st11" d="M1221.1,353.1c34.6,27.6,43.9,77.3,20.2,115.9c-25.7,41.8-80.4,54.9-122.3,29.2
			c-41.8-25.7-54.9-80.4-29.2-122.3c14.9-24.2,39.5-38.8,65.8-41.8"/>
		<g>
			<polygon points="1154.5,329.8 1155.4,338.8 1159.5,333.9 			"/>
		</g>
	</g>
</g>
<g class="st5">
	<path d="M333.9,723.7l-1.4-0.2l1.5-11.9l0,0l-6.7,11.2l-1.3-0.2l-3.6-12.4l-1.5,11.8l-1.4-0.2l1.8-13.9l2.1,0.3l3.6,12.5l6.7-11.2
		l2.1,0.3L333.9,723.7z"/>
	<path d="M339.3,720.8c-0.4,1.8,0.5,3.6,2.3,4.1c1.3,0.4,2.6,0.1,3.4-1.1l1.1,0.7c-1.1,1.6-3,2.1-4.8,1.5c-2.6-0.8-4-3.5-3.2-6.1
		c0.8-2.5,3.3-4.1,5.9-3.3c2.8,0.9,3.7,3.3,2.8,6c0,0.2-0.1,0.3-0.2,0.4L339.3,720.8z M345.6,721.5c0.3-1.7-0.3-3.2-2.1-3.7
		c-1.6-0.5-3.2,0.4-3.9,1.9L345.6,721.5z"/>
	<path d="M355.2,720.9c1.7,0.8,2.2,2.2,2.4,3.5l2.9-6.3l1.2,0.6l-6.1,13.2l-1.2-0.6l0.9-1.8c-1.2,0.8-2.6,1.2-4.3,0.4
		c-2.5-1.1-3.1-4-2-6.3C350.2,721.3,352.8,719.8,355.2,720.9z M356.5,726.9c0.8-1.7,0.2-3.9-1.6-4.8c-1.9-0.9-3.7,0.1-4.6,2
		c-0.8,1.8-0.4,3.8,1.5,4.7C353.7,729.7,355.7,728.7,356.5,726.9z"/>
	<path d="M364.7,726.1l-4.8,8.2l-1.2-0.7l4.8-8.2L364.7,726.1z M366.4,721.9c0.5,0.3,0.7,0.9,0.4,1.4c-0.3,0.5-0.9,0.7-1.4,0.4
		c-0.5-0.3-0.7-0.9-0.4-1.4C365.3,721.8,365.9,721.6,366.4,721.9z"/>
	<path d="M366.2,733.6c-1,1.4-1,2.9,0.4,3.9c1.3,1,3.1,0.6,4.1-0.8l3.2-4.4l1.1,0.8l-5.6,7.7l-1.1-0.8l1-1.4
		c-1.4,0.6-2.6,0.5-3.8-0.4c-1.9-1.4-2-3.4-0.7-5.2l3.5-4.8l1.1,0.8L366.2,733.6z"/>
	<path d="M380.5,743.4c1.1-1.1,1.5-2.5,0.3-3.8c-1.2-1.2-2.9-0.9-4,0.2l-3.9,3.8l-1-1l6.8-6.7l1,1l-1.2,1.2c1.4-0.3,2.5-0.1,3.5,0.9
		c1,1,1.3,2.2,0.8,3.5c1.4-0.3,2.6,0,3.7,1.1c1.6,1.6,1.3,3.6-0.2,5.2l-4.2,4.1l-1-1l3.9-3.9c1.1-1.1,1.5-2.5,0.3-3.8
		c-1.2-1.2-2.8-0.9-3.9,0.2l-3.9,3.8l-1-1L380.5,743.4z"/>
</g>
<g>
	<g>
		<path class="st11" d="M388.9,759.3c18.5,27.9,20.4,65.3,1.7,95.7c-25.7,41.8-80.4,54.9-122.3,29.2s-54.9-80.4-29.2-122.3
			c14.9-24.2,39.5-38.8,65.8-41.8"/>
		<g>
			<polygon points="303.8,715.7 304.7,724.8 308.8,719.8 			"/>
		</g>
	</g>
</g>
<g class="st5">
	<path d="M893.5,708.3l-1.1,12.5l6.6,0.6l-0.1,1.4l-8.1-0.7l1.2-13.9L893.5,708.3z"/>
	<path d="M907.8,718.3c0.3-1.5-0.3-2.4-1.9-2.8c-1.6-0.3-2.5,0.5-2.8,1.4l-1.3-0.6c0.2-0.8,1.7-2.6,4.4-2c2,0.4,2.8,1.5,3,2.6
		c0.1,0.6,0,1.3,0,1.6l-1.3,6l-1.3-0.3l0.3-1.6l0,0c-1,1-2.1,1.4-3.5,1.1c-1.9-0.4-2.9-1.8-2.6-3.4l0-0.1c0.4-2,2.6-2.3,4.2-1.9
		l2.6,0.5L907.8,718.3z M904.9,719.5c-1-0.2-2.4-0.2-2.6,1.1c-0.2,1,0.5,1.8,1.7,2.1c1.7,0.3,3.1-0.6,3.5-2.3l0.1-0.3L904.9,719.5z"
		/>
	<path d="M914.7,718.6c1.1-1.2,2.5-1.3,3.5-1c0.1,0,0.3,0.1,0.4,0.2l-0.4,1.4c-0.2-0.1-0.3-0.1-0.5-0.2c-2.1-0.7-3.4,0.9-3.9,2.5
		l-1.4,4.4l-1.3-0.4l2.9-9.1l1.3,0.4L914.7,718.6z"/>
	<path d="M925.1,728.6c-1.2,0.8-2.6,1.2-4.2,0.5c-2.5-1.1-3.2-3.9-2.1-6.2c1-2.3,3.6-3.7,6-2.7c1.7,0.7,2.3,2.1,2.5,3.5l0.8-1.8
		l1.3,0.6l-3.8,8.8c-1.2,2.8-3.6,3.6-6.3,2.4c-2.3-1-3.4-2.8-3-4.9l1.3,0.1c-0.2,1.1,0.1,2.8,2.1,3.6c1.7,0.7,3.5,0.5,4.5-1.8
		L925.1,728.6z M926.2,726.1c0.8-1.7,0.1-3.9-1.7-4.7c-1.9-0.8-3.7,0.1-4.5,2c-0.8,1.8-0.3,3.8,1.6,4.6
		C923.4,728.9,925.4,727.9,926.2,726.1z"/>
	<path d="M931.2,729.3c-0.9,1.6-0.4,3.6,1.2,4.6c1.2,0.7,2.5,0.7,3.6-0.2l0.9,1c-1.4,1.3-3.4,1.3-5.1,0.3c-2.4-1.4-3-4.4-1.5-6.7
		c1.3-2.2,4.2-3.2,6.5-1.8c2.5,1.5,2.7,4.1,1.3,6.5c-0.1,0.1-0.2,0.3-0.3,0.4L931.2,729.3z M937.3,731.6c0.7-1.6,0.5-3.2-1.1-4.1
		c-1.4-0.9-3.3-0.4-4.3,0.9L937.3,731.6z"/>
</g>
<g>
	<g>
		<path class="st11" d="M943.7,740.7c32.9,27.9,41.5,76.4,18.2,114.3c-25.7,41.8-80.4,54.9-122.3,29.2s-54.9-80.4-29.2-122.3
			c14.9-24.2,39.5-38.8,65.8-41.8"/>
		<g>
			<polygon points="875.1,715.7 876,724.8 880.1,719.8 			"/>
		</g>
	</g>
</g>
</svg>
