<?xml version="1.0" encoding="utf-8"?>
<!-- Generator: Adobe Illustrator 21.1.0, SVG Export Plug-In . SVG Version: 6.00 Build 0)  -->
<svg version="1.1" id="graphNineCyber" xmlns="http://www.w3.org/2000/svg" xmlns:xlink="http://www.w3.org/1999/xlink" x="0px"
	 y="0px" viewBox="0 0 1500 1053" style="enable-background:new 0 0 1500 1053;" xml:space="preserve">
<style type="text/css">
	.st0{fill:none;}
	.st1{fill:none;stroke:#F6F6F8;stroke-width:2;stroke-linecap:round;stroke-miterlimit:10;}
	.st2{fill:none;stroke:#F6F6F8;stroke-width:2;stroke-linecap:round;stroke-miterlimit:10;stroke-dasharray:0,10;}
	.st3{fill:#37C0AA;}
	.st4{fill:#F6F6F8;}
	.st5{fill:#FFC940;}
	.st6{fill:#FFFFFF;}
	.st7{fill:url(#SVGID_1_);}
	.st8{fill:url(#SVGID_2_);}
	.st9{fill:url(#SVGID_3_);}
	.st10{fill:url(#SVGID_4_);}
	.st11{fill:url(#SVGID_5_);}
	.st12{opacity:0.9;}
	.st13{fill:url(#SVGID_6_);}
</style>
<pattern  y="1053" width="240" height="240" patternUnits="userSpaceOnUse" id="white" viewBox="1 -241 240 240" style="overflow:visible;">
	<g>
		<rect x="1" y="-241" class="st0" width="240" height="240"/>
		<g>
			<g>
				<line class="st1" x1="241" y1="-1" x2="241" y2="-1"/>
			</g>
		</g>
		<g>
			<g>
				<line class="st1" x1="1" y1="-1" x2="1" y2="-1"/>
				<line class="st2" x1="11" y1="-1" x2="236" y2="-1"/>
				<line class="st1" x1="241" y1="-1" x2="241" y2="-1"/>
			</g>
		</g>
		<g>
			<g>
				<line class="st1" x1="1" y1="-1" x2="1" y2="-1"/>
			</g>
		</g>
		<g>
			<g>
				<line class="st1" x1="241" y1="-241" x2="241" y2="-241"/>
			</g>
			<g>
				<line class="st1" x1="241" y1="-231" x2="241" y2="-231"/>
			</g>
			<g>
				<line class="st1" x1="241" y1="-221" x2="241" y2="-221"/>
			</g>
			<g>
				<line class="st1" x1="241" y1="-211" x2="241" y2="-211"/>
			</g>
			<g>
				<line class="st1" x1="241" y1="-201" x2="241" y2="-201"/>
			</g>
			<g>
				<line class="st1" x1="241" y1="-191" x2="241" y2="-191"/>
			</g>
			<g>
				<line class="st1" x1="241" y1="-181" x2="241" y2="-181"/>
			</g>
			<g>
				<line class="st1" x1="241" y1="-171" x2="241" y2="-171"/>
			</g>
			<g>
				<line class="st1" x1="241" y1="-161" x2="241" y2="-161"/>
			</g>
			<g>
				<line class="st1" x1="241" y1="-151" x2="241" y2="-151"/>
			</g>
			<g>
				<line class="st1" x1="241" y1="-141" x2="241" y2="-141"/>
			</g>
			<g>
				<line class="st1" x1="241" y1="-131" x2="241" y2="-131"/>
			</g>
			<g>
				<line class="st1" x1="241" y1="-121" x2="241" y2="-121"/>
			</g>
			<g>
				<line class="st1" x1="241" y1="-111" x2="241" y2="-111"/>
			</g>
			<g>
				<line class="st1" x1="241" y1="-101" x2="241" y2="-101"/>
			</g>
			<g>
				<line class="st1" x1="241" y1="-91" x2="241" y2="-91"/>
			</g>
			<g>
				<line class="st1" x1="241" y1="-81" x2="241" y2="-81"/>
			</g>
			<g>
				<line class="st1" x1="241" y1="-71" x2="241" y2="-71"/>
			</g>
			<g>
				<line class="st1" x1="241" y1="-61" x2="241" y2="-61"/>
			</g>
			<g>
				<line class="st1" x1="241" y1="-51" x2="241" y2="-51"/>
			</g>
			<g>
				<line class="st1" x1="241" y1="-41" x2="241" y2="-41"/>
			</g>
			<g>
				<line class="st1" x1="241" y1="-31" x2="241" y2="-31"/>
			</g>
			<g>
				<line class="st1" x1="241" y1="-21" x2="241" y2="-21"/>
			</g>
			<g>
				<line class="st1" x1="241" y1="-11" x2="241" y2="-11"/>
			</g>
			<g>
				<line class="st1" x1="241" y1="-1" x2="241" y2="-1"/>
			</g>
		</g>
		<g>
			<g>
				<line class="st1" x1="1" y1="-241" x2="1" y2="-241"/>
				<line class="st2" x1="11" y1="-241" x2="236" y2="-241"/>
				<line class="st1" x1="241" y1="-241" x2="241" y2="-241"/>
			</g>
			<g>
				<line class="st1" x1="1" y1="-231" x2="1" y2="-231"/>
				<line class="st2" x1="11" y1="-231" x2="236" y2="-231"/>
				<line class="st1" x1="241" y1="-231" x2="241" y2="-231"/>
			</g>
			<g>
				<line class="st1" x1="1" y1="-221" x2="1" y2="-221"/>
				<line class="st2" x1="11" y1="-221" x2="236" y2="-221"/>
				<line class="st1" x1="241" y1="-221" x2="241" y2="-221"/>
			</g>
			<g>
				<line class="st1" x1="1" y1="-211" x2="1" y2="-211"/>
				<line class="st2" x1="11" y1="-211" x2="236" y2="-211"/>
				<line class="st1" x1="241" y1="-211" x2="241" y2="-211"/>
			</g>
			<g>
				<line class="st1" x1="1" y1="-201" x2="1" y2="-201"/>
				<line class="st2" x1="11" y1="-201" x2="236" y2="-201"/>
				<line class="st1" x1="241" y1="-201" x2="241" y2="-201"/>
			</g>
			<g>
				<line class="st1" x1="1" y1="-191" x2="1" y2="-191"/>
				<line class="st2" x1="11" y1="-191" x2="236" y2="-191"/>
				<line class="st1" x1="241" y1="-191" x2="241" y2="-191"/>
			</g>
			<g>
				<line class="st1" x1="1" y1="-181" x2="1" y2="-181"/>
				<line class="st2" x1="11" y1="-181" x2="236" y2="-181"/>
				<line class="st1" x1="241" y1="-181" x2="241" y2="-181"/>
			</g>
			<g>
				<line class="st1" x1="1" y1="-171" x2="1" y2="-171"/>
				<line class="st2" x1="11" y1="-171" x2="236" y2="-171"/>
				<line class="st1" x1="241" y1="-171" x2="241" y2="-171"/>
			</g>
			<g>
				<line class="st1" x1="1" y1="-161" x2="1" y2="-161"/>
				<line class="st2" x1="11" y1="-161" x2="236" y2="-161"/>
				<line class="st1" x1="241" y1="-161" x2="241" y2="-161"/>
			</g>
			<g>
				<line class="st1" x1="1" y1="-151" x2="1" y2="-151"/>
				<line class="st2" x1="11" y1="-151" x2="236" y2="-151"/>
				<line class="st1" x1="241" y1="-151" x2="241" y2="-151"/>
			</g>
			<g>
				<line class="st1" x1="1" y1="-141" x2="1" y2="-141"/>
				<line class="st2" x1="11" y1="-141" x2="236" y2="-141"/>
				<line class="st1" x1="241" y1="-141" x2="241" y2="-141"/>
			</g>
			<g>
				<line class="st1" x1="1" y1="-131" x2="1" y2="-131"/>
				<line class="st2" x1="11" y1="-131" x2="236" y2="-131"/>
				<line class="st1" x1="241" y1="-131" x2="241" y2="-131"/>
			</g>
			<g>
				<line class="st1" x1="1" y1="-121" x2="1" y2="-121"/>
				<line class="st2" x1="11" y1="-121" x2="236" y2="-121"/>
				<line class="st1" x1="241" y1="-121" x2="241" y2="-121"/>
			</g>
			<g>
				<line class="st1" x1="1" y1="-111" x2="1" y2="-111"/>
				<line class="st2" x1="11" y1="-111" x2="236" y2="-111"/>
				<line class="st1" x1="241" y1="-111" x2="241" y2="-111"/>
			</g>
			<g>
				<line class="st1" x1="1" y1="-101" x2="1" y2="-101"/>
				<line class="st2" x1="11" y1="-101" x2="236" y2="-101"/>
				<line class="st1" x1="241" y1="-101" x2="241" y2="-101"/>
			</g>
			<g>
				<line class="st1" x1="1" y1="-91" x2="1" y2="-91"/>
				<line class="st2" x1="11" y1="-91" x2="236" y2="-91"/>
				<line class="st1" x1="241" y1="-91" x2="241" y2="-91"/>
			</g>
			<g>
				<line class="st1" x1="1" y1="-81" x2="1" y2="-81"/>
				<line class="st2" x1="11" y1="-81" x2="236" y2="-81"/>
				<line class="st1" x1="241" y1="-81" x2="241" y2="-81"/>
			</g>
			<g>
				<line class="st1" x1="1" y1="-71" x2="1" y2="-71"/>
				<line class="st2" x1="11" y1="-71" x2="236" y2="-71"/>
				<line class="st1" x1="241" y1="-71" x2="241" y2="-71"/>
			</g>
			<g>
				<line class="st1" x1="1" y1="-61" x2="1" y2="-61"/>
				<line class="st2" x1="11" y1="-61" x2="236" y2="-61"/>
				<line class="st1" x1="241" y1="-61" x2="241" y2="-61"/>
			</g>
			<g>
				<line class="st1" x1="1" y1="-51" x2="1" y2="-51"/>
				<line class="st2" x1="11" y1="-51" x2="236" y2="-51"/>
				<line class="st1" x1="241" y1="-51" x2="241" y2="-51"/>
			</g>
			<g>
				<line class="st1" x1="1" y1="-41" x2="1" y2="-41"/>
				<line class="st2" x1="11" y1="-41" x2="236" y2="-41"/>
				<line class="st1" x1="241" y1="-41" x2="241" y2="-41"/>
			</g>
			<g>
				<line class="st1" x1="1" y1="-31" x2="1" y2="-31"/>
				<line class="st2" x1="11" y1="-31" x2="236" y2="-31"/>
				<line class="st1" x1="241" y1="-31" x2="241" y2="-31"/>
			</g>
			<g>
				<line class="st1" x1="1" y1="-21" x2="1" y2="-21"/>
				<line class="st2" x1="11" y1="-21" x2="236" y2="-21"/>
				<line class="st1" x1="241" y1="-21" x2="241" y2="-21"/>
			</g>
			<g>
				<line class="st1" x1="1" y1="-11" x2="1" y2="-11"/>
				<line class="st2" x1="11" y1="-11" x2="236" y2="-11"/>
				<line class="st1" x1="241" y1="-11" x2="241" y2="-11"/>
			</g>
			<g>
				<line class="st1" x1="1" y1="-1" x2="1" y2="-1"/>
				<line class="st2" x1="11" y1="-1" x2="236" y2="-1"/>
				<line class="st1" x1="241" y1="-1" x2="241" y2="-1"/>
			</g>
		</g>
		<g>
			<g>
				<line class="st1" x1="1" y1="-241" x2="1" y2="-241"/>
			</g>
			<g>
				<line class="st1" x1="1" y1="-231" x2="1" y2="-231"/>
			</g>
			<g>
				<line class="st1" x1="1" y1="-221" x2="1" y2="-221"/>
			</g>
			<g>
				<line class="st1" x1="1" y1="-211" x2="1" y2="-211"/>
			</g>
			<g>
				<line class="st1" x1="1" y1="-201" x2="1" y2="-201"/>
			</g>
			<g>
				<line class="st1" x1="1" y1="-191" x2="1" y2="-191"/>
			</g>
			<g>
				<line class="st1" x1="1" y1="-181" x2="1" y2="-181"/>
			</g>
			<g>
				<line class="st1" x1="1" y1="-171" x2="1" y2="-171"/>
			</g>
			<g>
				<line class="st1" x1="1" y1="-161" x2="1" y2="-161"/>
			</g>
			<g>
				<line class="st1" x1="1" y1="-151" x2="1" y2="-151"/>
			</g>
			<g>
				<line class="st1" x1="1" y1="-141" x2="1" y2="-141"/>
			</g>
			<g>
				<line class="st1" x1="1" y1="-131" x2="1" y2="-131"/>
			</g>
			<g>
				<line class="st1" x1="1" y1="-121" x2="1" y2="-121"/>
			</g>
			<g>
				<line class="st1" x1="1" y1="-111" x2="1" y2="-111"/>
			</g>
			<g>
				<line class="st1" x1="1" y1="-101" x2="1" y2="-101"/>
			</g>
			<g>
				<line class="st1" x1="1" y1="-91" x2="1" y2="-91"/>
			</g>
			<g>
				<line class="st1" x1="1" y1="-81" x2="1" y2="-81"/>
			</g>
			<g>
				<line class="st1" x1="1" y1="-71" x2="1" y2="-71"/>
			</g>
			<g>
				<line class="st1" x1="1" y1="-61" x2="1" y2="-61"/>
			</g>
			<g>
				<line class="st1" x1="1" y1="-51" x2="1" y2="-51"/>
			</g>
			<g>
				<line class="st1" x1="1" y1="-41" x2="1" y2="-41"/>
			</g>
			<g>
				<line class="st1" x1="1" y1="-31" x2="1" y2="-31"/>
			</g>
			<g>
				<line class="st1" x1="1" y1="-21" x2="1" y2="-21"/>
			</g>
			<g>
				<line class="st1" x1="1" y1="-11" x2="1" y2="-11"/>
			</g>
			<g>
				<line class="st1" x1="1" y1="-1" x2="1" y2="-1"/>
			</g>
		</g>
		<g>
			<g>
				<line class="st1" x1="241" y1="-241" x2="241" y2="-241"/>
			</g>
		</g>
		<g>
			<g>
				<line class="st1" x1="1" y1="-241" x2="1" y2="-241"/>
				<line class="st2" x1="11" y1="-241" x2="236" y2="-241"/>
				<line class="st1" x1="241" y1="-241" x2="241" y2="-241"/>
			</g>
		</g>
		<g>
			<g>
				<line class="st1" x1="1" y1="-241" x2="1" y2="-241"/>
			</g>
		</g>
	</g>
</pattern>
<rect x="-26.1" y="-18.3" class="st3" width="1552.1" height="1089.6"/>
<rect x="1647.9" y="-18.3" class="st3" width="1552.1" height="1089.6"/>
<rect x="-26.1" y="1150.2" class="st4" width="1552.1" height="1089.6"/>
<g>
	<g>
		<g>
			<rect x="460.2" y="634" width="62.2" height="68.9"/>
		</g>
		<g>
			<path d="M475.4,606.6l-3.3,2l-0.7-1.1l4-2.4h1.4v13.8h-1.5V606.6z"/>
			<path d="M486.5,618.9v-3.3h-7.2V614l6.8-8.9h1.8v9.3h2.3v1.3h-2.3v3.3H486.5z M486.5,614.3v-7.8l-5.9,7.8H486.5z"/>
			<path d="M493,612.6c-1,0-1.8-0.8-1.8-1.8c0-1,0.8-1.8,1.8-1.8c1,0,1.8,0.8,1.8,1.8C494.9,611.7,494.1,612.6,493,612.6z
				 M493,609.6c-0.6,0-1.1,0.5-1.1,1.1c0,0.6,0.5,1.1,1.1,1.1s1.1-0.5,1.1-1.1C494.2,610.1,493.7,609.6,493,609.6z M497.5,609h0.8
				l-5.3,8.1h-0.8L497.5,609z M497.5,617.1c-1,0-1.8-0.8-1.8-1.8c0-1,0.8-1.8,1.8-1.8s1.8,0.8,1.8,1.8
				C499.3,616.3,498.5,617.1,497.5,617.1z M497.5,614.2c-0.6,0-1.1,0.5-1.1,1.1c0,0.6,0.5,1.1,1.1,1.1s1.1-0.5,1.1-1.1
				C498.7,614.7,498.2,614.2,497.5,614.2z"/>
		</g>
	</g>
	<g>
		<g>
			<path class="st5" d="M416.7,486.1v-3.3h-7.2v-1.6l6.8-8.9h1.8v9.3h2.3v1.3h-2.3v3.3H416.7z M416.7,481.5v-7.8l-5.9,7.8H416.7z"/>
			<path class="st5" d="M424.8,473.8l-3.3,2l-0.7-1.1l4-2.4h1.4v13.8h-1.5V473.8z"/>
			<path class="st5" d="M430.4,479.8c-1,0-1.8-0.8-1.8-1.8c0-1,0.8-1.8,1.8-1.8c1,0,1.8,0.8,1.8,1.8
				C432.2,478.9,431.4,479.8,430.4,479.8z M430.4,476.8c-0.6,0-1.1,0.5-1.1,1.1c0,0.6,0.5,1.1,1.1,1.1s1.1-0.5,1.1-1.1
				C431.6,477.3,431,476.8,430.4,476.8z M434.9,476.2h0.8l-5.3,8.1h-0.8L434.9,476.2z M434.9,484.3c-1,0-1.8-0.8-1.8-1.8
				c0-1,0.8-1.8,1.8-1.8s1.8,0.8,1.8,1.8C436.7,483.5,435.9,484.3,434.9,484.3z M434.9,481.4c-0.6,0-1.1,0.5-1.1,1.1
				c0,0.6,0.5,1.1,1.1,1.1s1.1-0.5,1.1-1.1C436,481.9,435.5,481.4,434.9,481.4z"/>
		</g>
		<rect x="397.9" y="501.2" class="st5" width="62.2" height="201.7"/>
	</g>
	<g>
		<g>
			<path class="st6" d="M54.2,300c-0.8,1.3-2.4,1.8-3.4,1.8c-2.6,0-4-1.9-4-3.9c0-2.8,2.1-4.2,4.3-4.2c1.3,0,2.8,0.8,3.6,2
				c0.6,1.1,0.8,2,0.8,3.4c0,3.9-1.9,6.9-5.7,6.9c-0.7,0-2-0.2-2.8-0.7l0.5-1.1c0.8,0.5,1.8,0.7,2.3,0.7
				C52.5,304.9,54,302.8,54.2,300z M53.1,299.9c0.6-0.5,1-1.3,1-2.1c0-1.8-1.5-2.9-3-2.9c-1.5,0-3,1-3,2.9c0,1.5,1.1,2.8,3,2.8
				C51.7,300.7,52.5,300.4,53.1,299.9z"/>
			<path class="st6" d="M59.9,294.1h2.3l5.4,17.6h0.1l5.5-17.6h2.5l5.5,17.7h0.1l5.5-17.7h2.2l-6.5,20.8h-2.4L74.4,297l-5.6,17.8
				h-2.4L59.9,294.1z"/>
			<path class="st6" d="M102.1,306.6c0-2.5-1.3-4.3-3.9-4.3c-2.5,0-4.2,2-4.2,4.5v8.1h-2.1v-21.6H94v10c1.1-1.9,2.8-2.8,4.9-2.8
				c3.5,0,5.4,2.4,5.4,5.7v8.8h-2.1V306.6z"/>
			<path class="st6" d="M117.2,305.7c0-2.3-1.2-3.4-3.6-3.4c-2.4,0-3.5,1.5-3.7,2.9l-2-0.4c0.1-1.2,1.7-4.3,5.8-4.3
				c3,0,4.5,1.4,5.2,2.9c0.3,0.8,0.4,1.9,0.4,2.3v9.1h-2v-2.5h0c-1.1,1.8-2.7,2.7-4.8,2.7c-2.9,0-4.7-1.8-4.7-4.2v-0.2
				c0-3.1,3.1-4.1,5.6-4.1h3.9V305.7z M113.3,308.4c-1.5,0-3.5,0.5-3.5,2.4c0,1.6,1.4,2.5,3,2.5c2.5,0,4.4-1.8,4.4-4.4v-0.5H113.3z"
				/>
			<path class="st6" d="M124.6,311.2v-8.7h-2.6v-1.8h2.6v-4.1h2v4.1h3.6v1.8h-3.6v8.6c0,1.3,0.7,2,2.3,2c0.5,0,1,0,1.3-0.1v1.7
				c-0.4,0.1-1.2,0.2-1.6,0.2C125.5,314.9,124.6,313.2,124.6,311.2z"/>
			<path class="st6" d="M142.1,294c0.9,0,1.6,0.7,1.6,1.6c0,0.8-0.7,1.5-1.6,1.5c-0.8,0-1.5-0.7-1.5-1.5
				C140.6,294.7,141.3,294,142.1,294z M143.2,300.7v14.2h-2.1v-14.2H143.2z"/>
			<path class="st6" d="M152.2,315.1c-3.8,0-5.1-2.6-5.4-4.2l1.9-0.5c0.3,1.3,1.2,2.8,3.4,2.8c1.5,0,2.9-0.8,2.9-2.3
				c0-1.7-1.9-2.1-3.3-2.3c-2.4-0.3-4.7-1.2-4.7-4c0-2.7,2.4-4.2,4.7-4.2c3.7,0,4.9,2.5,5.1,3.8l-1.9,0.5c-0.2-1-1-2.5-3.3-2.5
				c-1.5,0-2.7,1-2.7,2.3c0,1.8,1.9,2,3.4,2.2c2.3,0.3,4.6,1.5,4.6,4.1C157.2,313.4,154.9,315.1,152.2,315.1z"/>
			<path class="st6" d="M169.2,311.2v-8.7h-2.6v-1.8h2.6v-4.1h2v4.1h3.6v1.8h-3.6v8.6c0,1.3,0.7,2,2.3,2c0.5,0,1,0,1.3-0.1v1.7
				c-0.4,0.1-1.2,0.2-1.6,0.2C170.2,314.9,169.2,313.2,169.2,311.2z"/>
			<path class="st6" d="M188.6,306.6c0-2.5-1.3-4.3-3.9-4.3c-2.5,0-4.2,2-4.2,4.5v8.1h-2.1v-21.6h2.1v10c1.1-1.9,2.8-2.8,4.9-2.8
				c3.5,0,5.4,2.4,5.4,5.7v8.8h-2.1V306.6z"/>
			<path class="st6" d="M196.2,308.4c0.2,2.8,2.3,4.9,5.1,4.9c2.1,0,3.7-1,4.4-3l1.9,0.6c-0.8,2.7-3.4,4.3-6.2,4.3
				c-4.1,0-7.2-3.3-7.2-7.3c0-3.8,2.9-7.3,6.9-7.3c4.4,0,6.7,3.1,6.7,7.3c0,0.2,0,0.5,0,0.7H196.2z M205.6,306.6
				c-0.3-2.6-1.9-4.4-4.6-4.4c-2.5,0-4.4,2-4.8,4.4H205.6z"/>
			<path class="st6" d="M227.2,305.7c0-2.3-1.2-3.4-3.6-3.4c-2.4,0-3.5,1.5-3.7,2.9l-2-0.4c0.1-1.2,1.7-4.3,5.8-4.3
				c3,0,4.5,1.4,5.2,2.9c0.3,0.8,0.4,1.9,0.4,2.3v9.1h-2v-2.5h0c-1.1,1.8-2.7,2.7-4.8,2.7c-2.9,0-4.7-1.8-4.7-4.2v-0.2
				c0-3.1,3.1-4.1,5.6-4.1h3.9V305.7z M223.2,308.4c-1.5,0-3.5,0.5-3.5,2.4c0,1.6,1.4,2.5,3,2.5c2.5,0,4.4-1.8,4.4-4.4v-0.5H223.2z"
				/>
			<path class="st6" d="M231.6,300.7h2.3l4.9,11.9l4.9-11.9h2.2l-6,14.2h-2.2L231.6,300.7z"/>
			<path class="st6" d="M249.4,308.4c0.2,2.8,2.3,4.9,5.1,4.9c2.1,0,3.7-1,4.4-3l1.9,0.6c-0.8,2.7-3.4,4.3-6.2,4.3
				c-4.1,0-7.2-3.3-7.2-7.3c0-3.8,2.9-7.3,6.9-7.3c4.4,0,6.7,3.1,6.7,7.3c0,0.2,0,0.5,0,0.7H249.4z M258.8,306.6
				c-0.3-2.6-1.9-4.4-4.6-4.4c-2.5,0-4.4,2-4.8,4.4H258.8z"/>
			<path class="st6" d="M266.4,303.5c1.1-2.2,2.9-3,4.6-3c0.1,0,0.5,0,0.7,0v2.2c-0.3,0-0.5-0.1-0.8-0.1c-3.3,0-4.4,2.8-4.4,5.3v6.9
				h-2.1v-14.2h2V303.5z"/>
			<path class="st6" d="M282.7,305.7c0-2.3-1.2-3.4-3.6-3.4c-2.4,0-3.5,1.5-3.7,2.9l-2-0.4c0.1-1.2,1.7-4.3,5.8-4.3
				c3,0,4.5,1.4,5.2,2.9c0.3,0.8,0.4,1.9,0.4,2.3v9.1h-2v-2.5h0c-1.1,1.8-2.7,2.7-4.8,2.7c-2.9,0-4.7-1.8-4.7-4.2v-0.2
				c0-3.1,3.1-4.1,5.6-4.1h3.9V305.7z M278.7,308.4c-1.5,0-3.5,0.5-3.5,2.4c0,1.6,1.4,2.5,3,2.5c2.5,0,4.4-1.8,4.4-4.4v-0.5H278.7z"
				/>
			<path class="st6" d="M300.3,311.7c-1.1,1.8-2.8,3.2-5.5,3.2c-4.1,0-6.6-3.3-6.6-7.2c0-3.7,2.6-7.2,6.6-7.2c2.8,0,4.4,1.5,5.5,3.2
				v-3h2v14.2c0,4.6-2.8,7-7.1,7c-3.7,0-6.3-1.9-7-4.9l1.9-0.6c0.4,1.6,1.8,3.7,5.1,3.7c2.7,0,5.1-1.5,5.1-5.1V311.7z M300.3,307.6
				c0-2.8-2.1-5.4-5.1-5.4c-3.1,0-4.9,2.4-4.9,5.5c0,2.9,1.8,5.4,4.9,5.4C298.3,313.1,300.3,310.5,300.3,307.6z"/>
			<path class="st6" d="M308.1,308.4c0.2,2.8,2.3,4.9,5.1,4.9c2.1,0,3.7-1,4.4-3l1.9,0.6c-0.8,2.7-3.4,4.3-6.2,4.3
				c-4.1,0-7.2-3.3-7.2-7.3c0-3.8,2.9-7.3,6.9-7.3c4.4,0,6.7,3.1,6.7,7.3c0,0.2,0,0.5,0,0.7H308.1z M317.5,306.6
				c-0.3-2.6-1.9-4.4-4.6-4.4c-2.5,0-4.4,2-4.8,4.4H317.5z"/>
			<path class="st6" d="M336.8,313.2c3.1,0,4.3-2.3,4.7-3.4l1.9,0.6c-0.6,2.1-3,4.6-6.7,4.6c-4.1,0-7.2-3-7.2-7.3
				c0-4.3,3.3-7.4,7.3-7.4c3.3,0,5.9,2.1,6.5,4.5l-1.9,0.6c-0.3-1.1-1.7-3.3-4.7-3.3c-3,0-5.1,2.5-5.1,5.4
				C331.6,310.6,333.6,313.2,336.8,313.2z"/>
			<path class="st6" d="M345.8,307.8c0-4.2,3.2-7.4,7.3-7.4c4.1,0,7.3,3.2,7.3,7.3c0,4.2-3.2,7.4-7.3,7.4
				C349,315.1,345.8,311.8,345.8,307.8z M358.4,307.8c0-3-2.1-5.6-5.2-5.6c-3.1,0-5.2,2.5-5.2,5.5s2.1,5.5,5.2,5.5
				C356.2,313.2,358.4,310.7,358.4,307.8z"/>
			<path class="st6" d="M368.4,315.1c-3.8,0-5.1-2.6-5.4-4.2l1.9-0.5c0.3,1.3,1.2,2.8,3.4,2.8c1.5,0,2.9-0.8,2.9-2.3
				c0-1.7-1.9-2.1-3.3-2.3c-2.4-0.3-4.7-1.2-4.7-4c0-2.7,2.4-4.2,4.7-4.2c3.7,0,4.9,2.5,5.1,3.8l-1.9,0.5c-0.2-1-1-2.5-3.3-2.5
				c-1.5,0-2.7,1-2.7,2.3c0,1.8,1.9,2,3.4,2.2c2.3,0.3,4.6,1.5,4.6,4.1C373.4,313.4,371.2,315.1,368.4,315.1z"/>
			<path class="st6" d="M377.9,311.2v-8.7h-2.6v-1.8h2.6v-4.1h2v4.1h3.6v1.8h-3.6v8.6c0,1.3,0.7,2,2.3,2c0.5,0,1,0,1.3-0.1v1.7
				c-0.4,0.1-1.2,0.2-1.6,0.2C378.8,314.9,377.9,313.2,377.9,311.2z"/>
			<path class="st6" d="M402,315c-2.6,0-4.3-1.3-5.5-3.1v9.9h-2.1v-21.1h2v3.1c1.1-1.8,2.8-3.3,5.5-3.3c4,0,6.7,3.6,6.7,7.3
				C408.6,311.5,406,315,402,315z M406.5,307.8c0-2.9-1.8-5.5-5-5.5c-2.9,0-5.1,2.6-5.1,5.4c0,2.9,2.1,5.5,5.1,5.5
				C404.7,313.2,406.5,310.8,406.5,307.8z"/>
			<path class="st6" d="M413.3,308.4c0.2,2.8,2.3,4.9,5.1,4.9c2.1,0,3.7-1,4.4-3l1.9,0.6c-0.8,2.7-3.4,4.3-6.2,4.3
				c-4.1,0-7.2-3.3-7.2-7.3c0-3.8,2.9-7.3,6.9-7.3c4.4,0,6.7,3.1,6.7,7.3c0,0.2,0,0.5,0,0.7H413.3z M422.7,306.6
				c-0.3-2.6-1.9-4.4-4.6-4.4c-2.5,0-4.4,2-4.8,4.4H422.7z"/>
			<path class="st6" d="M430.4,303.5c1.1-2.2,2.9-3,4.6-3c0.1,0,0.5,0,0.7,0v2.2c-0.3,0-0.5-0.1-0.8-0.1c-3.3,0-4.4,2.8-4.4,5.3v6.9
				h-2.1v-14.2h2V303.5z"/>
			<path class="st6" d="M455.3,306.6c0-2.5-1.3-4.3-3.9-4.3c-2.5,0-4.2,2-4.2,4.5v8.1h-2.1v-21.6h2.1v10c1.1-1.9,2.8-2.8,4.9-2.8
				c3.5,0,5.4,2.4,5.4,5.7v8.8h-2.1V306.6z"/>
			<path class="st6" d="M460.8,307.8c0-4.2,3.2-7.4,7.3-7.4c4.1,0,7.3,3.2,7.3,7.3c0,4.2-3.2,7.4-7.3,7.4
				C464,315.1,460.8,311.8,460.8,307.8z M473.3,307.8c0-3-2.1-5.6-5.2-5.6s-5.2,2.5-5.2,5.5s2.1,5.5,5.2,5.5
				C471.2,313.2,473.3,310.7,473.3,307.8z"/>
			<path class="st6" d="M480.9,308.9c0,2.5,1.3,4.3,3.9,4.3c2.5,0,4.2-1.9,4.2-4.5v-8.1h2v14.2h-2v-2.6c-1.1,1.9-2.8,2.9-4.9,2.9
				c-3.5,0-5.4-2.4-5.4-5.7v-8.8h2V308.9z"/>
			<path class="st6" d="M497.9,303.5c1.1-2.2,2.9-3,4.6-3c0.1,0,0.5,0,0.7,0v2.2c-0.3,0-0.5-0.1-0.8-0.1c-3.3,0-4.4,2.8-4.4,5.3v6.9
				h-2.1v-14.2h2V303.5z"/>
			<path class="st6" d="M511.5,307.8c0-4.2,3.2-7.4,7.3-7.4c4.1,0,7.3,3.2,7.3,7.3c0,4.2-3.2,7.4-7.3,7.4
				C514.7,315.1,511.5,311.8,511.5,307.8z M524,307.8c0-3-2.1-5.6-5.2-5.6c-3.1,0-5.2,2.5-5.2,5.5s2.1,5.5,5.2,5.5
				C521.8,313.2,524,310.7,524,307.8z"/>
			<path class="st6" d="M532.6,298v2.7h3.7v1.8h-3.7v12.4h-2.1v-12.4h-2.7v-1.8h2.7V298c0-3.3,1.8-4.9,4.3-4.9c0.4,0,1,0.1,1.6,0.3
				v1.8c-0.6-0.2-1.2-0.2-1.5-0.2C533.9,295,532.6,295.6,532.6,298z"/>
			<path class="st6" d="M548.6,294.1v20.8h-2.2v-20.8H548.6z"/>
			<path class="st6" d="M559,314.8v-18.7h-6.9v-2h16.1v2h-6.9v18.7H559z"/>
			<path class="st6" d="M583.1,300.4c2.7,0,4.3,1.5,5.5,3.2v-10.4h2v21.6h-2v-3c-1.1,1.8-2.8,3.2-5.5,3.2c-4.1,0-6.6-3.4-6.6-7.3
				C576.5,304,579.1,300.4,583.1,300.4z M588.6,307.7c0-2.8-2.1-5.4-5.1-5.4c-3.1,0-5,2.5-5,5.5c0,2.9,1.9,5.4,5,5.4
				C586.5,313.2,588.6,310.6,588.6,307.7z"/>
			<path class="st6" d="M594.3,307.8c0-4.2,3.2-7.4,7.3-7.4c4.1,0,7.3,3.2,7.3,7.3c0,4.2-3.2,7.4-7.3,7.4
				C597.5,315.1,594.3,311.8,594.3,307.8z M606.8,307.8c0-3-2.1-5.6-5.2-5.6s-5.2,2.5-5.2,5.5s2.1,5.5,5.2,5.5
				C604.7,313.2,606.8,310.7,606.8,307.8z"/>
			<path class="st6" d="M615.3,314.8l-4.7-14.2h2.2l3.7,11.7h0l3.8-11.7h2.1l3.9,11.8h0l3.7-11.8h2.1l-4.8,14.2h-2.3l-3.7-11.5h0
				l-3.8,11.5H615.3z"/>
			<path class="st6" d="M645.4,306.6c0-2.5-1.3-4.3-3.9-4.3c-2.5,0-4.2,2-4.2,4.5v8.1h-2.1v-14.2h2v2.6c1.1-1.9,2.8-2.9,4.9-2.9
				c3.5,0,5.4,2.4,5.4,5.7v8.8h-2.1V306.6z"/>
			<path class="st6" d="M652.8,311.2v-8.7h-2.6v-1.8h2.6v-4.1h2v4.1h3.6v1.8h-3.6v8.6c0,1.3,0.7,2,2.3,2c0.5,0,1,0,1.3-0.1v1.7
				c-0.4,0.1-1.2,0.2-1.6,0.2C653.8,314.9,652.8,313.2,652.8,311.2z"/>
			<path class="st6" d="M663,294c0.9,0,1.6,0.7,1.6,1.6c0,0.8-0.7,1.5-1.6,1.5c-0.8,0-1.5-0.7-1.5-1.5
				C661.4,294.7,662.1,294,663,294z M664,300.7v14.2h-2.1v-14.2H664z"/>
			<path class="st6" d="M678.4,306.5c0-2.3-1.1-4.2-3.7-4.2c-2.5,0-3.9,2.2-3.9,4.5v8.1h-2.1v-14.2h2v2.5c1.1-1.7,2.4-2.7,4.6-2.7
				c2.1,0,3.7,1,4.5,2.8c1.2-1.8,2.8-2.8,5-2.8c3.4,0,5.2,2.4,5.2,5.6v8.8H688v-8.2c0-2.4-1.1-4.3-3.7-4.3c-2.5,0-3.9,2-3.9,4.4v8.1
				h-2V306.5z"/>
			<path class="st6" d="M695.6,308.4c0.2,2.8,2.3,4.9,5.1,4.9c2.1,0,3.7-1,4.4-3l1.9,0.6c-0.8,2.7-3.4,4.3-6.2,4.3
				c-4.1,0-7.2-3.3-7.2-7.3c0-3.8,2.9-7.3,6.9-7.3c4.4,0,6.7,3.1,6.7,7.3c0,0.2,0,0.5,0,0.7H695.6z M705,306.6
				c-0.3-2.6-1.9-4.4-4.6-4.4c-2.5,0-4.4,2-4.8,4.4H705z"/>
			<path class="st6" d="M713.5,308.8c0-0.2,0-0.3,0-0.5c0-2.5,1.5-3.7,2.7-4.9c1.2-1.3,2.6-2.4,2.6-4.2c0-1.7-1.2-3.4-3.9-3.4
				c-2.7,0-4.1,2-4,4.5l-2.1-0.1c0-0.2,0-0.4,0-0.6c0-3.4,2.8-5.8,6.1-5.8c3.7,0,6.1,2.6,6.1,5.4c0,2.1-1.2,3.4-3.1,5.3
				c-1.4,1.4-2.3,2.2-2.4,4.3H713.5z M714.4,315.1c0.9,0,1.5-0.7,1.5-1.6c0-0.8-0.7-1.5-1.5-1.5c-0.8,0-1.6,0.7-1.6,1.5
				C712.8,314.4,713.5,315.1,714.4,315.1z"/>
		</g>
	</g>
	<g>
		<g>
			<path d="M151.9,747.4v-1.2l7.2-9.8h-7v-1.2h8.5v1.2l-7.2,9.8h7.3v1.2H151.9z"/>
			<path d="M163.8,743.6c0.1,1.6,1.3,2.8,3,2.8c1.2,0,2.2-0.6,2.6-1.8l1.1,0.3c-0.5,1.6-2,2.5-3.6,2.5c-2.4,0-4.2-1.9-4.2-4.3
				c0-2.2,1.7-4.3,4-4.3c2.6,0,3.9,1.8,3.9,4.2c0,0.1,0,0.3,0,0.4H163.8z M169.3,742.6c-0.2-1.5-1.1-2.6-2.7-2.6
				c-1.4,0-2.6,1.2-2.8,2.6H169.3z"/>
			<path d="M174.5,740.8c0.6-1.3,1.7-1.8,2.7-1.8c0.1,0,0.3,0,0.4,0v1.3c-0.2,0-0.3,0-0.5,0c-1.9,0-2.6,1.6-2.6,3.1v4h-1.2v-8.3h1.2
				V740.8z"/>
			<path d="M179.1,743.3c0-2.4,1.8-4.3,4.3-4.3c2.4,0,4.3,1.9,4.3,4.2c0,2.4-1.9,4.3-4.3,4.3C181,747.5,179.1,745.6,179.1,743.3z
				 M186.4,743.3c0-1.7-1.3-3.2-3-3.2s-3,1.5-3,3.2c0,1.7,1.2,3.2,3,3.2C185.1,746.5,186.4,745,186.4,743.3z"/>
		</g>
	</g>
	<g>
		<g>
			<path class="st5" d="M124.7,496.1c-2.4,0-4.5-1.5-4.8-3.8l1.4-0.3c0.2,1.6,1.5,2.8,3.4,2.8c1.9,0,3.3-1,3.3-2.6s-1.2-2.6-3.3-2.6
				h-1.4v-1.3h1.3c1.9,0,3.1-1.2,3.1-2.5c0-1.4-1.1-2.5-3.1-2.5c-1.9,0-3,1.1-3.2,2.6l-1.4-0.3c0.2-1.9,2.1-3.6,4.6-3.6
				c3,0,4.5,1.8,4.5,3.7c0,1.6-0.9,2.6-2.2,3.2v0c1.6,0.4,2.5,1.7,2.5,3.3C129.5,494.3,127.6,496.1,124.7,496.1z"/>
			<path class="st5" d="M140.1,489.1c-0.9,1.5-2.8,2.1-3.9,2.1c-2.9,0-4.6-2.2-4.6-4.5c0-3.2,2.4-4.8,4.9-4.8c1.5,0,3.3,0.9,4.1,2.3
				c0.7,1.2,0.9,2.3,0.9,3.9c0,4.5-2.2,7.9-6.5,7.9c-0.8,0-2.3-0.2-3.2-0.8l0.5-1.3c0.9,0.6,2,0.8,2.6,0.8
				C138.1,494.7,139.8,492.3,140.1,489.1z M138.7,489c0.7-0.5,1.1-1.5,1.1-2.5c0-2.1-1.7-3.3-3.4-3.3c-1.8,0-3.4,1.1-3.4,3.3
				c0,1.7,1.2,3.3,3.4,3.3C137.2,489.9,138.1,489.6,138.7,489z"/>
			<path class="st5" d="M144.7,489.6c-1,0-1.8-0.8-1.8-1.8c0-1,0.8-1.8,1.8-1.8c1,0,1.8,0.8,1.8,1.8
				C146.6,488.8,145.8,489.6,144.7,489.6z M144.7,486.6c-0.6,0-1.1,0.5-1.1,1.1c0,0.6,0.5,1.1,1.1,1.1s1.1-0.5,1.1-1.1
				C145.9,487.1,145.4,486.6,144.7,486.6z M149.2,486h0.8l-5.3,8.1h-0.8L149.2,486z M149.2,494.2c-1,0-1.8-0.8-1.8-1.8
				c0-1,0.8-1.8,1.8-1.8s1.8,0.8,1.8,1.8C151,493.3,150.2,494.2,149.2,494.2z M149.2,491.2c-0.6,0-1.1,0.5-1.1,1.1
				c0,0.6,0.5,1.1,1.1,1.1s1.1-0.5,1.1-1.1C150.4,491.7,149.8,491.2,149.2,491.2z"/>
		</g>
		<rect x="108.1" y="511" class="st5" width="62.2" height="191.8"/>
	</g>
	<g>
		<g>
			<path class="st6" d="M61.2,582l-3.3,2l-0.7-1.1l4-2.4h1.4v13.8h-1.5V582z"/>
			<path class="st6" d="M74.1,587.5c-0.9,1.5-2.8,2.1-3.9,2.1c-2.9,0-4.6-2.2-4.6-4.5c0-3.2,2.4-4.8,4.9-4.8c1.5,0,3.3,0.9,4.1,2.3
				c0.7,1.2,0.9,2.3,0.9,3.9c0,4.5-2.2,7.9-6.5,7.9c-0.8,0-2.3-0.2-3.2-0.8l0.5-1.3c0.9,0.6,2,0.8,2.6,0.8
				C72.1,593.1,73.8,590.7,74.1,587.5z M72.7,587.4c0.7-0.5,1.1-1.5,1.1-2.5c0-2.1-1.7-3.3-3.4-3.3c-1.8,0-3.4,1.1-3.4,3.3
				c0,1.7,1.2,3.3,3.4,3.3C71.2,588.3,72.1,588,72.7,587.4z"/>
			<path class="st6" d="M78.8,588c-1,0-1.8-0.8-1.8-1.8c0-1,0.8-1.8,1.8-1.8c1,0,1.8,0.8,1.8,1.8C80.6,587.2,79.8,588,78.8,588z
				 M78.8,585c-0.6,0-1.1,0.5-1.1,1.1c0,0.6,0.5,1.1,1.1,1.1s1.1-0.5,1.1-1.1C79.9,585.5,79.4,585,78.8,585z M83.2,584.4H84
				l-5.3,8.1h-0.8L83.2,584.4z M83.2,592.5c-1,0-1.8-0.8-1.8-1.8c0-1,0.8-1.8,1.8-1.8s1.8,0.8,1.8,1.8
				C85.1,591.7,84.2,592.5,83.2,592.5z M83.2,589.6c-0.6,0-1.1,0.5-1.1,1.1c0,0.6,0.5,1.1,1.1,1.1s1.1-0.5,1.1-1.1
				C84.4,590.1,83.9,589.6,83.2,589.6z"/>
		</g>
		<g>
			<pattern  id="SVGID_1_" xlink:href="#white" patternTransform="matrix(1.1052 0 0 1.1052 -139.0905 785.0996)">
			</pattern>
			<rect x="45.9" y="609.4" class="st7" width="62.2" height="93.5"/>
		</g>
	</g>
	<g>
		<g>
			<rect x="170.3" y="619.2" width="62.2" height="83.6"/>
		</g>
		<g>
			<path d="M185.5,591.9l-3.3,2l-0.7-1.1l4-2.4h1.4v13.8h-1.5V591.9z"/>
			<path d="M189.4,591.7v-1.3h9.4v1.3l-6.4,12.5h-1.6l6.4-12.5H189.4z"/>
			<path d="M201.5,597.8c-1,0-1.8-0.8-1.8-1.8c0-1,0.8-1.8,1.8-1.8c1,0,1.8,0.8,1.8,1.8C203.4,597,202.6,597.8,201.5,597.8z
				 M201.5,594.8c-0.6,0-1.1,0.5-1.1,1.1c0,0.6,0.5,1.1,1.1,1.1c0.6,0,1.1-0.5,1.1-1.1C202.7,595.4,202.2,594.8,201.5,594.8z
				 M206,594.2h0.8l-5.3,8.1h-0.8L206,594.2z M206,602.4c-1,0-1.8-0.8-1.8-1.8c0-1,0.8-1.8,1.8-1.8s1.8,0.8,1.8,1.8
				C207.8,601.6,207,602.4,206,602.4z M206,599.4c-0.6,0-1.1,0.5-1.1,1.1c0,0.6,0.5,1.1,1.1,1.1c0.6,0,1.1-0.5,1.1-1.1
				C207.2,599.9,206.7,599.4,206,599.4z"/>
		</g>
	</g>
	<g>
		<g>
			<rect x="232.4" y="683.2" class="st6" width="62.2" height="19.7"/>
		</g>
		<g>
			<path class="st6" d="M251.2,668.1v-3.3H244v-1.6l6.8-8.9h1.8v9.3h2.3v1.3h-2.3v3.3H251.2z M251.2,663.5v-7.8l-5.9,7.8H251.2z"/>
			<path class="st6" d="M257.7,661.8c-1,0-1.8-0.8-1.8-1.8c0-1,0.8-1.8,1.8-1.8c1,0,1.8,0.8,1.8,1.8
				C259.5,660.9,258.7,661.8,257.7,661.8z M257.7,658.8c-0.6,0-1.1,0.5-1.1,1.1c0,0.6,0.5,1.1,1.1,1.1c0.6,0,1.1-0.5,1.1-1.1
				C258.8,659.3,258.3,658.8,257.7,658.8z M262.2,658.2h0.8l-5.3,8.1h-0.8L262.2,658.2z M262.2,666.3c-1,0-1.8-0.8-1.8-1.8
				c0-1,0.8-1.8,1.8-1.8s1.8,0.8,1.8,1.8C264,665.5,263.2,666.3,262.2,666.3z M262.2,663.4c-0.6,0-1.1,0.5-1.1,1.1
				c0,0.6,0.5,1.1,1.1,1.1c0.6,0,1.1-0.5,1.1-1.1C263.3,663.9,262.8,663.4,262.2,663.4z"/>
		</g>
	</g>
	<g>
		<g>
			<path d="M422.2,735.3v10.9h5.7v1.2h-7v-12.1H422.2z"/>
			<path d="M431.2,743.6c0.1,1.6,1.3,2.8,3,2.8c1.2,0,2.2-0.6,2.6-1.8l1.1,0.3c-0.5,1.6-2,2.5-3.6,2.5c-2.4,0-4.2-1.9-4.2-4.3
				c0-2.2,1.7-4.3,4-4.3c2.6,0,3.9,1.8,3.9,4.2c0,0.1,0,0.3,0,0.4H431.2z M436.6,742.6c-0.2-1.5-1.1-2.6-2.7-2.6
				c-1.4,0-2.6,1.2-2.8,2.6H436.6z"/>
			<path d="M443.5,747.5c-2.2,0-3-1.5-3.1-2.4l1.1-0.3c0.2,0.7,0.7,1.6,2,1.6c0.9,0,1.7-0.5,1.7-1.3c0-1-1.1-1.2-1.9-1.4
				c-1.4-0.2-2.7-0.7-2.7-2.3c0-1.5,1.4-2.5,2.8-2.5c2.2,0,2.9,1.5,3,2.2l-1.1,0.3c-0.1-0.6-0.6-1.5-1.9-1.5c-0.9,0-1.6,0.6-1.6,1.3
				c0,1,1.1,1.2,2,1.3c1.3,0.2,2.7,0.9,2.7,2.4C446.5,746.6,445.1,747.5,443.5,747.5z"/>
			<path d="M452.2,747.5c-2.2,0-3-1.5-3.1-2.4l1.1-0.3c0.2,0.7,0.7,1.6,2,1.6c0.9,0,1.7-0.5,1.7-1.3c0-1-1.1-1.2-1.9-1.4
				c-1.4-0.2-2.7-0.7-2.7-2.3c0-1.5,1.4-2.5,2.8-2.5c2.2,0,2.9,1.5,3,2.2l-1.1,0.3c-0.1-0.6-0.6-1.5-1.9-1.5c-0.9,0-1.6,0.6-1.6,1.3
				c0,1,1.1,1.2,2,1.3c1.3,0.2,2.7,0.9,2.7,2.4C455.2,746.6,453.8,747.5,452.2,747.5z"/>
			<path d="M464.3,745.3v-5.1h-1.5v-1.1h1.5v-2.4h1.2v2.4h2.1v1.1h-2.1v5c0,0.7,0.4,1.2,1.3,1.2c0.3,0,0.6,0,0.7-0.1v1
				c-0.2,0.1-0.7,0.1-0.9,0.1C464.9,747.5,464.3,746.5,464.3,745.3z"/>
			<path d="M476.7,742.6c0-1.5-0.8-2.5-2.3-2.5c-1.4,0-2.5,1.1-2.5,2.6v4.7h-1.2v-12.6h1.2v5.8c0.6-1.1,1.6-1.6,2.8-1.6
				c2,0,3.1,1.4,3.1,3.3v5.1h-1.2V742.6z"/>
			<path d="M486.6,742.1c0-1.3-0.7-2-2.1-2c-1.4,0-2,0.9-2.2,1.7l-1.2-0.2c0.1-0.7,1-2.5,3.4-2.5c1.7,0,2.6,0.8,3,1.7
				c0.2,0.4,0.2,1.1,0.2,1.4v5.3h-1.2v-1.5h0c-0.6,1-1.5,1.6-2.8,1.6c-1.7,0-2.8-1-2.8-2.4V745c0-1.8,1.8-2.4,3.3-2.4h2.3V742.1z
				 M484.3,743.6c-0.9,0-2,0.3-2,1.4c0,0.9,0.8,1.5,1.8,1.5c1.5,0,2.6-1,2.6-2.6v-0.3H484.3z"/>
			<path d="M497.4,742.6c0-1.5-0.8-2.5-2.3-2.5c-1.4,0-2.5,1.1-2.5,2.6v4.7h-1.2v-8.3h1.2v1.5c0.6-1.1,1.6-1.7,2.8-1.7
				c2,0,3.1,1.4,3.1,3.3v5.1h-1.2V742.6z"/>
			<path d="M436.5,763.1c0,1.4-1,2.8-3,2.8h-5.4v-1.2c1.1-0.6,1.9-1.8,1.9-3.1c0-0.4-0.1-0.7-0.2-1.1h-1.8v-1.2h1.4
				c-0.3-0.8-0.6-1.5-0.6-2.4c0-1.9,1.6-3.3,3.5-3.3c2.2,0,3.4,1.3,3.4,2.9l-1.2,0.2c0-0.9-0.5-2-2.2-2c-1.3,0-2.3,0.9-2.3,2.2
				c0,0.7,0.3,1.5,0.6,2.3h3.4v1.2h-3c0.1,0.4,0.1,0.7,0.1,1.1c0,1.3-0.5,2.3-1.5,3.1h3.5c1.6,0,1.9-1.1,1.9-1.8L436.5,763.1z"/>
			<path d="M441.4,755l-0.7,4.1c0.8-0.8,2.1-1,2.6-1c2.3,0,4,1.5,4,3.9c0,2.6-2.2,4-4.2,4c-2,0-3.9-1.3-4.1-3.3l1.2-0.3
				c0.2,1.4,1.4,2.4,2.9,2.4c1.2,0,2.9-0.8,2.9-2.8s-1.5-2.8-2.9-2.8c-0.9,0-1.9,0.4-2.6,1.2l-1.2-0.4l1-6.3h6.4v1.2H441.4z"/>
			<path d="M450.3,767.8c0.7-0.5,1.2-1.1,1.3-1.9c-0.1,0-0.2,0.1-0.4,0.1c-0.6,0-1-0.4-1-1c0-0.6,0.5-1.1,1.1-1.1
				c0.7,0,1.2,0.6,1.2,1.5v0.1c0,1.1-0.6,2.1-1.7,2.9L450.3,767.8z"/>
			<path d="M455.1,759.9c0-3,1.7-6.2,5.1-6.2c3.3,0,5,3.2,5,6.2c0,3-1.7,6.2-5.1,6.2C456.8,766.1,455.1,762.9,455.1,759.9z
				 M456.4,759.9c0,2.2,1.1,5,3.7,5c2.6,0,3.7-2.8,3.7-5s-1.1-5-3.7-5S456.4,757.7,456.4,759.9z"/>
			<path d="M468.1,759.9c0-3,1.7-6.2,5.1-6.2c3.3,0,5,3.2,5,6.2c0,3-1.7,6.2-5.1,6.2C469.7,766.1,468.1,762.9,468.1,759.9z
				 M469.4,759.9c0,2.2,1.1,5,3.7,5c2.6,0,3.7-2.8,3.7-5s-1.1-5-3.7-5S469.4,757.7,469.4,759.9z"/>
			<path d="M481,759.9c0-3,1.7-6.2,5.1-6.2c3.3,0,5,3.2,5,6.2c0,3-1.7,6.2-5.1,6.2C482.7,766.1,481,762.9,481,759.9z M482.3,759.9
				c0,2.2,1.1,5,3.7,5c2.6,0,3.7-2.8,3.7-5s-1.1-5-3.7-5S482.3,757.7,482.3,759.9z"/>
		</g>
	</g>
	<g>
		<g>
			<pattern  id="SVGID_2_" xlink:href="#white" patternTransform="matrix(1.1052 0 0 1.1052 -139.0905 785.0996)">
			</pattern>
			<rect x="335.8" y="594.6" class="st8" width="62.2" height="108.2"/>
		</g>
		<g>
			<path class="st6" d="M347.8,579.2c0-1.6,0.7-3.4,3.2-4.9l2.1-1.3c1.3-0.8,2.4-1.7,2.4-3.3c0-1.4-1.3-2.8-3-2.8
				c-1.5,0-2.5,0.9-2.8,1.8c-0.2,0.6-0.3,1.1-0.3,1.4l-1.5-0.2c0-2,1.7-4.3,4.6-4.3c2.6,0,4.5,1.9,4.5,4.1c0,2-1.1,3.1-2.9,4.3
				l-2.2,1.4c-1.2,0.7-2.3,1.7-2.4,3h7.6v1.3h-9.4V579.2z"/>
			<path class="st6" d="M359.1,579.2c0-1.6,0.7-3.4,3.2-4.9l2.1-1.3c1.3-0.8,2.4-1.7,2.4-3.3c0-1.4-1.3-2.8-3-2.8
				c-1.5,0-2.5,0.9-2.8,1.8c-0.2,0.6-0.3,1.1-0.3,1.4l-1.5-0.2c0-2,1.7-4.3,4.6-4.3c2.6,0,4.5,1.9,4.5,4.1c0,2-1.1,3.1-2.9,4.3
				l-2.2,1.4c-1.2,0.7-2.3,1.7-2.4,3h7.6v1.3h-9.4V579.2z"/>
			<path class="st6" d="M371.7,573.2c-1,0-1.8-0.8-1.8-1.8c0-1,0.8-1.8,1.8-1.8c1,0,1.8,0.8,1.8,1.8
				C373.5,572.4,372.7,573.2,371.7,573.2z M371.7,570.3c-0.6,0-1.1,0.5-1.1,1.1c0,0.6,0.5,1.1,1.1,1.1c0.6,0,1.1-0.5,1.1-1.1
				C372.9,570.8,372.4,570.3,371.7,570.3z M376.2,569.7h0.8l-5.3,8.1h-0.8L376.2,569.7z M376.2,577.8c-1,0-1.8-0.8-1.8-1.8
				c0-1,0.8-1.8,1.8-1.8s1.8,0.8,1.8,1.8C378,577,377.2,577.8,376.2,577.8z M376.2,574.8c-0.6,0-1.1,0.5-1.1,1.1
				c0,0.6,0.5,1.1,1.1,1.1c0.6,0,1.1-0.5,1.1-1.1C377.3,575.3,376.8,574.8,376.2,574.8z"/>
		</g>
	</g>
	<g>
		<g>
			<rect x="750" y="634" width="62.2" height="68.9"/>
		</g>
		<g>
			<path d="M765.3,606.6l-3.3,2l-0.7-1.1l4-2.4h1.4v13.8h-1.5V606.6z"/>
			<path d="M776.4,618.9v-3.3h-7.2V614l6.8-8.9h1.8v9.3h2.3v1.3h-2.3v3.3H776.4z M776.4,614.3v-7.8l-5.9,7.8H776.4z"/>
			<path d="M782.9,612.6c-1,0-1.8-0.8-1.8-1.8c0-1,0.8-1.8,1.8-1.8c1,0,1.8,0.8,1.8,1.8C784.7,611.7,783.9,612.6,782.9,612.6z
				 M782.9,609.6c-0.6,0-1.1,0.5-1.1,1.1c0,0.6,0.5,1.1,1.1,1.1s1.1-0.5,1.1-1.1C784.1,610.1,783.6,609.6,782.9,609.6z M787.4,609
				h0.8l-5.3,8.1h-0.8L787.4,609z M787.4,617.1c-1,0-1.8-0.8-1.8-1.8c0-1,0.8-1.8,1.8-1.8s1.8,0.8,1.8,1.8
				C789.2,616.3,788.4,617.1,787.4,617.1z M787.4,614.2c-0.6,0-1.1,0.5-1.1,1.1c0,0.6,0.5,1.1,1.1,1.1s1.1-0.5,1.1-1.1
				C788.5,614.7,788,614.2,787.4,614.2z"/>
		</g>
	</g>
	<g>
		<g>
			<rect x="522.3" y="653.6" class="st6" width="62.2" height="49.2"/>
		</g>
		<g>
			<path class="st6" d="M537.5,626.3l-3.3,2l-0.7-1.1l4-2.4h1.4v13.8h-1.5V626.3z"/>
			<path class="st6" d="M541.9,631.7c0-3.4,2-7.1,5.8-7.1c3.8,0,5.7,3.6,5.7,7s-1.9,7.1-5.8,7.1
				C543.9,638.7,541.9,635.2,541.9,631.7z M543.4,631.7c0,2.5,1.3,5.8,4.3,5.8c3,0,4.3-3.2,4.3-5.7c0-2.5-1.3-5.8-4.3-5.8
				S543.4,629.2,543.4,631.7z"/>
			<path class="st6" d="M556.7,632.2c-1,0-1.8-0.8-1.8-1.8c0-1,0.8-1.8,1.8-1.8c1,0,1.8,0.8,1.8,1.8
				C558.5,631.4,557.7,632.2,556.7,632.2z M556.7,629.3c-0.6,0-1.1,0.5-1.1,1.1c0,0.6,0.5,1.1,1.1,1.1s1.1-0.5,1.1-1.1
				C557.8,629.8,557.3,629.3,556.7,629.3z M561.2,628.7h0.8l-5.3,8.1h-0.8L561.2,628.7z M561.2,636.8c-1,0-1.8-0.8-1.8-1.8
				c0-1,0.8-1.8,1.8-1.8s1.8,0.8,1.8,1.8C563,636,562.2,636.8,561.2,636.8z M561.2,633.9c-0.6,0-1.1,0.5-1.1,1.1
				c0,0.6,0.5,1.1,1.1,1.1s1.1-0.5,1.1-1.1C562.3,634.4,561.8,633.9,561.2,633.9z"/>
		</g>
	</g>
	<g>
		<g>
			<rect x="1102" y="653.6" class="st6" width="62.2" height="49.2"/>
		</g>
		<g>
			<path class="st6" d="M1117.3,626.3l-3.3,2l-0.7-1.1l4-2.4h1.4v13.8h-1.5V626.3z"/>
			<path class="st6" d="M1121.7,631.7c0-3.4,2-7.1,5.8-7.1c3.8,0,5.7,3.6,5.7,7s-1.9,7.1-5.8,7.1
				C1123.6,638.7,1121.7,635.2,1121.7,631.7z M1123.2,631.7c0,2.5,1.3,5.8,4.3,5.8c3,0,4.3-3.2,4.3-5.7c0-2.5-1.3-5.8-4.3-5.8
				C1124.4,626,1123.2,629.2,1123.2,631.7z"/>
			<path class="st6" d="M1136.5,632.2c-1,0-1.8-0.8-1.8-1.8c0-1,0.8-1.8,1.8-1.8c1,0,1.8,0.8,1.8,1.8
				C1138.3,631.4,1137.5,632.2,1136.5,632.2z M1136.5,629.3c-0.6,0-1.1,0.5-1.1,1.1c0,0.6,0.5,1.1,1.1,1.1s1.1-0.5,1.1-1.1
				C1137.6,629.8,1137.1,629.3,1136.5,629.3z M1140.9,628.7h0.8l-5.3,8.1h-0.8L1140.9,628.7z M1140.9,636.8c-1,0-1.8-0.8-1.8-1.8
				c0-1,0.8-1.8,1.8-1.8s1.8,0.8,1.8,1.8C1142.8,636,1141.9,636.8,1140.9,636.8z M1140.9,633.9c-0.6,0-1.1,0.5-1.1,1.1
				c0,0.6,0.5,1.1,1.1,1.1s1.1-0.5,1.1-1.1C1142.1,634.4,1141.6,633.9,1140.9,633.9z"/>
		</g>
	</g>
	<g>
		<g>
			<path d="M712.1,735.3v10.9h5.7v1.2h-7v-12.1H712.1z"/>
			<path d="M721,743.6c0.1,1.6,1.3,2.8,3,2.8c1.2,0,2.2-0.6,2.6-1.8l1.1,0.3c-0.5,1.6-2,2.5-3.6,2.5c-2.4,0-4.2-1.9-4.2-4.3
				c0-2.2,1.7-4.3,4-4.3c2.6,0,3.9,1.8,3.9,4.2c0,0.1,0,0.3,0,0.4H721z M726.5,742.6c-0.2-1.5-1.1-2.6-2.7-2.6
				c-1.4,0-2.6,1.2-2.8,2.6H726.5z"/>
			<path d="M733.4,747.5c-2.2,0-3-1.5-3.1-2.4l1.1-0.3c0.2,0.7,0.7,1.6,2,1.6c0.9,0,1.7-0.5,1.7-1.3c0-1-1.1-1.2-1.9-1.4
				c-1.4-0.2-2.7-0.7-2.7-2.3c0-1.5,1.4-2.5,2.8-2.5c2.2,0,2.9,1.5,3,2.2l-1.1,0.3c-0.1-0.6-0.6-1.5-1.9-1.5c-0.9,0-1.6,0.6-1.6,1.3
				c0,1,1.1,1.2,2,1.3c1.3,0.2,2.7,0.9,2.7,2.4C736.3,746.6,735,747.5,733.4,747.5z"/>
			<path d="M742.1,747.5c-2.2,0-3-1.5-3.1-2.4l1.1-0.3c0.2,0.7,0.7,1.6,2,1.6c0.9,0,1.7-0.5,1.7-1.3c0-1-1.1-1.2-1.9-1.4
				c-1.4-0.2-2.7-0.7-2.7-2.3c0-1.5,1.4-2.5,2.8-2.5c2.2,0,2.9,1.5,3,2.2l-1.1,0.3c-0.1-0.6-0.6-1.5-1.9-1.5c-0.9,0-1.6,0.6-1.6,1.3
				c0,1,1.1,1.2,2,1.3c1.3,0.2,2.7,0.9,2.7,2.4C745,746.6,743.7,747.5,742.1,747.5z"/>
			<path d="M754.2,745.3v-5.1h-1.5v-1.1h1.5v-2.4h1.2v2.4h2.1v1.1h-2.1v5c0,0.7,0.4,1.2,1.3,1.2c0.3,0,0.6,0,0.7-0.1v1
				c-0.2,0.1-0.7,0.1-0.9,0.1C754.8,747.5,754.2,746.5,754.2,745.3z"/>
			<path d="M766.6,742.6c0-1.5-0.8-2.5-2.3-2.5c-1.4,0-2.5,1.1-2.5,2.6v4.7h-1.2v-12.6h1.2v5.8c0.7-1.1,1.6-1.6,2.8-1.6
				c2,0,3.1,1.4,3.1,3.3v5.1h-1.2V742.6z"/>
			<path d="M776.5,742.1c0-1.3-0.7-2-2.1-2c-1.4,0-2,0.9-2.2,1.7l-1.2-0.2c0.1-0.7,1-2.5,3.4-2.5c1.7,0,2.6,0.8,3,1.7
				c0.2,0.4,0.2,1.1,0.2,1.4v5.3h-1.2v-1.5h0c-0.7,1-1.5,1.6-2.8,1.6c-1.7,0-2.8-1-2.8-2.4V745c0-1.8,1.8-2.4,3.3-2.4h2.3V742.1z
				 M774.2,743.6c-0.9,0-2,0.3-2,1.4c0,0.9,0.8,1.5,1.8,1.5c1.5,0,2.6-1,2.6-2.6v-0.3H774.2z"/>
			<path d="M787.3,742.6c0-1.5-0.8-2.5-2.3-2.5c-1.4,0-2.5,1.1-2.5,2.6v4.7h-1.2v-8.3h1.2v1.5c0.7-1.1,1.6-1.7,2.8-1.7
				c2,0,3.1,1.4,3.1,3.3v5.1h-1.2V742.6z"/>
			<path d="M726.4,763.1c0,1.4-1,2.8-3,2.8H718v-1.2c1.1-0.6,1.9-1.8,1.9-3.1c0-0.4-0.1-0.7-0.2-1.1H718v-1.2h1.4
				c-0.3-0.8-0.6-1.5-0.6-2.4c0-1.9,1.6-3.3,3.5-3.3c2.2,0,3.4,1.3,3.4,2.9l-1.2,0.2c0-0.9-0.5-2-2.2-2c-1.3,0-2.3,0.9-2.3,2.2
				c0,0.7,0.3,1.5,0.6,2.3h3.4v1.2h-3c0.1,0.4,0.1,0.7,0.1,1.1c0,1.3-0.5,2.3-1.5,3.1h3.5c1.6,0,1.9-1.1,1.9-1.8L726.4,763.1z"/>
			<path d="M731.2,755l-0.7,4.1c0.8-0.8,2.1-1,2.6-1c2.3,0,4,1.5,4,3.9c0,2.6-2.2,4-4.2,4c-2,0-3.9-1.3-4.1-3.3l1.2-0.3
				c0.2,1.4,1.4,2.4,2.9,2.4c1.2,0,2.9-0.8,2.9-2.8s-1.5-2.8-2.9-2.8c-0.9,0-1.9,0.4-2.6,1.2l-1.2-0.4l1-6.3h6.4v1.2H731.2z"/>
			<path d="M740.1,767.8c0.7-0.5,1.2-1.1,1.3-1.9c-0.1,0-0.2,0.1-0.4,0.1c-0.6,0-1-0.4-1-1c0-0.6,0.5-1.1,1.1-1.1
				c0.7,0,1.2,0.6,1.2,1.5v0.1c0,1.1-0.6,2.1-1.7,2.9L740.1,767.8z"/>
			<path d="M745,759.9c0-3,1.7-6.2,5.1-6.2c3.3,0,5,3.2,5,6.2c0,3-1.7,6.2-5.1,6.2C746.7,766.1,745,762.9,745,759.9z M746.3,759.9
				c0,2.2,1.1,5,3.7,5c2.6,0,3.7-2.8,3.7-5s-1.1-5-3.7-5S746.3,757.7,746.3,759.9z"/>
			<path d="M757.9,759.9c0-3,1.7-6.2,5.1-6.2c3.3,0,5,3.2,5,6.2c0,3-1.7,6.2-5.1,6.2C759.6,766.1,757.9,762.9,757.9,759.9z
				 M759.3,759.9c0,2.2,1.1,5,3.7,5c2.6,0,3.7-2.8,3.7-5s-1.1-5-3.7-5C760.4,754.9,759.3,757.7,759.3,759.9z"/>
			<path d="M770.9,759.9c0-3,1.7-6.2,5.1-6.2c3.3,0,5,3.2,5,6.2c0,3-1.7,6.2-5.1,6.2C772.6,766.1,770.9,762.9,770.9,759.9z
				 M772.2,759.9c0,2.2,1.1,5,3.7,5c2.6,0,3.7-2.8,3.7-5s-1.1-5-3.7-5C773.3,754.9,772.2,757.7,772.2,759.9z"/>
		</g>
	</g>
	<g>
		<g>
			<pattern  id="SVGID_3_" xlink:href="#white" patternTransform="matrix(1.1052 0 0 1.1052 -139.0905 785.0996)">
			</pattern>
			<rect x="625.7" y="668.4" class="st9" width="62.2" height="34.4"/>
		</g>
		<g>
			<path class="st6" d="M637.2,640.9v-1.3h9.4v1.3l-6.4,12.5h-1.6l6.4-12.5H637.2z"/>
			<path class="st6" d="M649.4,647c-1,0-1.8-0.8-1.8-1.8c0-1,0.8-1.8,1.8-1.8c1,0,1.8,0.8,1.8,1.8C651.2,646.2,650.4,647,649.4,647z
				 M649.4,644c-0.6,0-1.1,0.5-1.1,1.1c0,0.6,0.5,1.1,1.1,1.1c0.6,0,1.1-0.5,1.1-1.1C650.5,644.5,650,644,649.4,644z M653.8,643.4
				h0.8l-5.3,8.1h-0.8L653.8,643.4z M653.9,651.6c-1,0-1.8-0.8-1.8-1.8c0-1,0.8-1.8,1.8-1.8s1.8,0.8,1.8,1.8
				C655.7,650.8,654.9,651.6,653.9,651.6z M653.9,648.6c-0.6,0-1.1,0.5-1.1,1.1c0,0.6,0.5,1.1,1.1,1.1c0.6,0,1.1-0.5,1.1-1.1
				C655,649.1,654.5,648.6,653.9,648.6z"/>
		</g>
	</g>
	<g>
		<g>
			<pattern  id="SVGID_4_" xlink:href="#white" patternTransform="matrix(1.1052 0 0 1.1052 -139.0905 785.0996)">
			</pattern>
			<rect x="915.6" y="668.4" class="st10" width="62.2" height="34.4"/>
		</g>
		<g>
			<path class="st6" d="M927.1,640.9v-1.3h9.4v1.3l-6.4,12.5h-1.6l6.4-12.5H927.1z"/>
			<path class="st6" d="M939.3,647c-1,0-1.8-0.8-1.8-1.8c0-1,0.8-1.8,1.8-1.8c1,0,1.8,0.8,1.8,1.8C941.1,646.2,940.3,647,939.3,647z
				 M939.3,644c-0.6,0-1.1,0.5-1.1,1.1c0,0.6,0.5,1.1,1.1,1.1s1.1-0.5,1.1-1.1C940.4,644.5,939.9,644,939.3,644z M943.7,643.4h0.8
				l-5.3,8.1h-0.8L943.7,643.4z M943.7,651.6c-1,0-1.8-0.8-1.8-1.8c0-1,0.8-1.8,1.8-1.8s1.8,0.8,1.8,1.8
				C945.6,650.8,944.7,651.6,943.7,651.6z M943.7,648.6c-0.6,0-1.1,0.5-1.1,1.1c0,0.6,0.5,1.1,1.1,1.1s1.1-0.5,1.1-1.1
				C944.9,649.1,944.4,648.6,943.7,648.6z"/>
		</g>
	</g>
	<g>
		<rect x="687.8" y="693" class="st5" width="62.2" height="9.8"/>
		<g>
			<path class="st5" d="M699.8,677.5c0-1.6,0.7-3.4,3.2-4.9l2.1-1.3c1.3-0.8,2.4-1.7,2.4-3.3c0-1.4-1.3-2.8-3-2.8
				c-1.5,0-2.5,0.9-2.8,1.8c-0.2,0.6-0.3,1.1-0.3,1.4l-1.5-0.2c0-2,1.7-4.3,4.6-4.3c2.6,0,4.5,1.9,4.5,4.1c0,2-1.1,3.1-2.9,4.3
				l-2.2,1.4c-1.2,0.7-2.3,1.7-2.4,3h7.6v1.3h-9.4V677.5z"/>
			<path class="st5" d="M712.4,671.6c-1,0-1.8-0.8-1.8-1.8c0-1,0.8-1.8,1.8-1.8c1,0,1.8,0.8,1.8,1.8
				C714.2,670.8,713.4,671.6,712.4,671.6z M712.4,668.6c-0.6,0-1.1,0.5-1.1,1.1c0,0.6,0.5,1.1,1.1,1.1s1.1-0.5,1.1-1.1
				C713.5,669.1,713,668.6,712.4,668.6z M716.9,668h0.8l-5.3,8.1h-0.8L716.9,668z M716.9,676.2c-1,0-1.8-0.8-1.8-1.8
				c0-1,0.8-1.8,1.8-1.8s1.8,0.8,1.8,1.8C718.7,675.3,717.9,676.2,716.9,676.2z M716.9,673.2c-0.6,0-1.1,0.5-1.1,1.1
				c0,0.6,0.5,1.1,1.1,1.1s1.1-0.5,1.1-1.1C718,673.7,717.5,673.2,716.9,673.2z"/>
		</g>
	</g>
	<g>
		<g>
			<rect x="812.1" y="663.5" class="st6" width="62.2" height="39.4"/>
		</g>
		<g>
			<path class="st6" d="M824.3,644.7c0-1.5,1-2.8,2.9-3.4c-1.7-0.5-2.6-2-2.6-3.2c0-2.4,2.5-3.7,4.5-3.7c2.1,0,4.5,1.2,4.5,3.7
				c0,1.3-0.9,2.7-2.6,3.2c1.9,0.5,2.9,1.9,2.9,3.4c0,2.5-2.5,3.9-4.9,3.9C826.7,648.6,824.3,647.3,824.3,644.7z M832.5,644.7
				c0-1.8-1.9-2.7-3.4-2.7c-1.5,0-3.4,0.8-3.4,2.7c0,1.9,1.9,2.7,3.4,2.7C830.6,647.3,832.5,646.5,832.5,644.7z M826,638.2
				c0,1.8,1.9,2.5,3.1,2.5c1.2,0,3.1-0.8,3.1-2.5c0-1.6-1.8-2.4-3.1-2.4C827.8,635.8,826,636.6,826,638.2z"/>
			<path class="st6" d="M837.3,642.1c-1,0-1.8-0.8-1.8-1.8c0-1,0.8-1.8,1.8-1.8c1,0,1.8,0.8,1.8,1.8
				C839.1,641.3,838.3,642.1,837.3,642.1z M837.3,639.1c-0.6,0-1.1,0.5-1.1,1.1c0,0.6,0.5,1.1,1.1,1.1s1.1-0.5,1.1-1.1
				C838.4,639.6,837.9,639.1,837.3,639.1z M841.7,638.5h0.8l-5.3,8.1h-0.8L841.7,638.5z M841.7,646.7c-1,0-1.8-0.8-1.8-1.8
				c0-1,0.8-1.8,1.8-1.8s1.8,0.8,1.8,1.8C843.6,645.8,842.7,646.7,841.7,646.7z M841.7,643.7c-0.6,0-1.1,0.5-1.1,1.1
				c0,0.6,0.5,1.1,1.1,1.1s1.1-0.5,1.1-1.1C842.9,644.2,842.4,643.7,841.7,643.7z"/>
		</g>
	</g>
	<g>
		<g>
			<path d="M1003.6,744.5c0,1.4-1,2.8-3,2.8h-5.4v-1.2c1.1-0.6,2-1.8,2-3.1c0-0.4-0.1-0.7-0.2-1.1h-1.8v-1.2h1.4
				c-0.3-0.8-0.6-1.5-0.6-2.4c0-1.9,1.6-3.3,3.5-3.3c2.2,0,3.4,1.3,3.4,2.9l-1.2,0.2c0-0.9-0.5-2-2.2-2c-1.3,0-2.3,0.9-2.3,2.2
				c0,0.7,0.3,1.5,0.6,2.3h3.4v1.2h-3c0.1,0.4,0.1,0.7,0.1,1.1c0,1.3-0.5,2.3-1.5,3.1h3.5c1.6,0,1.9-1.1,1.9-1.8L1003.6,744.5z"/>
			<path d="M1009.1,736.6l-2.9,1.7l-0.6-1l3.5-2.1h1.2v12.1h-1.3V736.6z"/>
			<path d="M1014,741.4c0-3,1.7-6.2,5.1-6.2c3.3,0,5,3.2,5,6.2c0,3-1.7,6.2-5.1,6.2C1015.7,747.5,1014,744.4,1014,741.4z
				 M1015.4,741.3c0,2.2,1.1,5,3.7,5c2.6,0,3.7-2.8,3.7-5s-1.1-5-3.7-5C1016.5,736.3,1015.4,739.1,1015.4,741.3z"/>
			<path d="M1026.7,749.2c0.7-0.5,1.2-1.1,1.3-1.9c-0.1,0-0.2,0.1-0.4,0.1c-0.6,0-1-0.4-1-1c0-0.6,0.5-1.1,1.1-1.1
				c0.7,0,1.2,0.6,1.2,1.5v0.1c0,1.1-0.6,2.1-1.7,2.9L1026.7,749.2z"/>
			<path d="M1031.5,741.4c0-3,1.7-6.2,5.1-6.2c3.3,0,5,3.2,5,6.2c0,3-1.7,6.2-5.1,6.2C1033.2,747.5,1031.5,744.4,1031.5,741.4z
				 M1032.8,741.3c0,2.2,1.1,5,3.7,5c2.6,0,3.7-2.8,3.7-5s-1.1-5-3.7-5C1033.9,736.3,1032.8,739.1,1032.8,741.3z"/>
			<path d="M1044.5,741.4c0-3,1.7-6.2,5.1-6.2c3.3,0,5,3.2,5,6.2c0,3-1.7,6.2-5.1,6.2C1046.2,747.5,1044.5,744.4,1044.5,741.4z
				 M1045.8,741.3c0,2.2,1.1,5,3.7,5c2.6,0,3.7-2.8,3.7-5s-1.1-5-3.7-5C1046.9,736.3,1045.8,739.1,1045.8,741.3z"/>
			<path d="M1057.5,741.4c0-3,1.7-6.2,5.1-6.2c3.3,0,5,3.2,5,6.2c0,3-1.7,6.2-5.1,6.2C1059.1,747.5,1057.5,744.4,1057.5,741.4z
				 M1058.8,741.3c0,2.2,1.1,5,3.7,5c2.6,0,3.7-2.8,3.7-5s-1.1-5-3.7-5C1059.9,736.3,1058.8,739.1,1058.8,741.3z"/>
			<path d="M1076.1,743.2v-1.2h7.1v1.2H1076.1z"/>
			<path d="M1010,763.1c0,1.4-1,2.8-3,2.8h-5.4v-1.2c1.1-0.6,2-1.8,2-3.1c0-0.4-0.1-0.7-0.2-1.1h-1.8v-1.2h1.4
				c-0.3-0.8-0.6-1.5-0.6-2.4c0-1.9,1.6-3.3,3.5-3.3c2.2,0,3.4,1.3,3.4,2.9l-1.2,0.2c0-0.9-0.5-2-2.2-2c-1.3,0-2.3,0.9-2.3,2.2
				c0,0.7,0.3,1.5,0.6,2.3h3.4v1.2h-3c0.1,0.4,0.1,0.7,0.1,1.1c0,1.3-0.5,2.3-1.5,3.1h3.5c1.6,0,1.9-1.1,1.9-1.8L1010,763.1z"/>
			<path d="M1014.9,755l-0.7,4.1c0.8-0.8,2.1-1,2.6-1c2.3,0,4,1.5,4,3.9c0,2.6-2.2,4-4.2,4c-2,0-3.9-1.3-4.1-3.3l1.2-0.3
				c0.2,1.4,1.4,2.4,2.9,2.4c1.2,0,2.9-0.8,2.9-2.8s-1.5-2.8-2.9-2.8c-0.9,0-1.9,0.4-2.6,1.2l-1.2-0.4l1-6.3h6.4v1.2H1014.9z"/>
			<path d="M1023.6,759.9c0-3,1.7-6.2,5.1-6.2c3.3,0,5,3.2,5,6.2c0,3-1.7,6.2-5.1,6.2C1025.3,766.1,1023.6,762.9,1023.6,759.9z
				 M1024.9,759.9c0,2.2,1.1,5,3.7,5c2.6,0,3.7-2.8,3.7-5s-1.1-5-3.7-5C1026,754.9,1024.9,757.7,1024.9,759.9z"/>
			<path d="M1036.2,767.8c0.7-0.5,1.2-1.1,1.3-1.9c-0.1,0-0.2,0.1-0.4,0.1c-0.6,0-1-0.4-1-1c0-0.6,0.5-1.1,1.1-1.1
				c0.7,0,1.2,0.6,1.2,1.5v0.1c0,1.1-0.6,2.1-1.7,2.9L1036.2,767.8z"/>
			<path d="M1041.1,759.9c0-3,1.7-6.2,5.1-6.2c3.3,0,5,3.2,5,6.2c0,3-1.7,6.2-5.1,6.2C1042.8,766.1,1041.1,762.9,1041.1,759.9z
				 M1042.4,759.9c0,2.2,1.1,5,3.7,5c2.6,0,3.7-2.8,3.7-5s-1.1-5-3.7-5C1043.5,754.9,1042.4,757.7,1042.4,759.9z"/>
			<path d="M1054,759.9c0-3,1.7-6.2,5.1-6.2c3.3,0,5,3.2,5,6.2c0,3-1.7,6.2-5.1,6.2C1055.7,766.1,1054,762.9,1054,759.9z
				 M1055.4,759.9c0,2.2,1.1,5,3.7,5c2.6,0,3.7-2.8,3.7-5s-1.1-5-3.7-5C1056.5,754.9,1055.4,757.7,1055.4,759.9z"/>
			<path d="M1067,759.9c0-3,1.7-6.2,5.1-6.2c3.3,0,5,3.2,5,6.2c0,3-1.7,6.2-5.1,6.2C1068.7,766.1,1067,762.9,1067,759.9z
				 M1068.3,759.9c0,2.2,1.1,5,3.7,5c2.6,0,3.7-2.8,3.7-5s-1.1-5-3.7-5C1069.4,754.9,1068.3,757.7,1068.3,759.9z"/>
		</g>
	</g>
	<g>
		<rect x="977.7" y="697.9" class="st5" width="62.2" height="4.9"/>
		<g>
			<path class="st5" d="M992.9,670.6l-3.3,2l-0.7-1.1l4-2.4h1.4v13.8h-1.5V670.6z"/>
			<path class="st5" d="M998.5,676.5c-1,0-1.8-0.8-1.8-1.8c0-1,0.8-1.8,1.8-1.8c1,0,1.8,0.8,1.8,1.8
				C1000.4,675.7,999.5,676.5,998.5,676.5z M998.5,673.5c-0.6,0-1.1,0.5-1.1,1.1c0,0.6,0.5,1.1,1.1,1.1s1.1-0.5,1.1-1.1
				C999.7,674,999.2,673.5,998.5,673.5z M1003,672.9h0.8l-5.3,8.1h-0.8L1003,672.9z M1003,681.1c-1,0-1.8-0.8-1.8-1.8
				c0-1,0.8-1.8,1.8-1.8s1.8,0.8,1.8,1.8C1004.8,680.3,1004,681.1,1003,681.1z M1003,678.1c-0.6,0-1.1,0.5-1.1,1.1
				c0,0.6,0.5,1.1,1.1,1.1s1.1-0.5,1.1-1.1C1004.2,678.6,1003.6,678.1,1003,678.1z"/>
		</g>
	</g>
	<g>
		<g>
			<rect x="1039.9" y="638.9" width="62.2" height="63.9"/>
		</g>
		<g>
			<path d="M1055.2,611.5l-3.3,2l-0.7-1.1l4-2.4h1.4v13.8h-1.5V611.5z"/>
			<path d="M1064.2,624c-2.4,0-4.5-1.5-4.8-3.8l1.4-0.3c0.2,1.6,1.5,2.8,3.4,2.8c1.9,0,3.3-1,3.3-2.6c0-1.6-1.2-2.6-3.3-2.6h-1.4
				v-1.3h1.3c1.9,0,3.1-1.2,3.1-2.5c0-1.4-1.1-2.5-3.1-2.5c-1.9,0-3,1.1-3.2,2.6l-1.4-0.3c0.2-1.9,2.1-3.6,4.6-3.6
				c3,0,4.5,1.8,4.5,3.7c0,1.6-0.9,2.6-2.2,3.2v0c1.6,0.4,2.5,1.7,2.5,3.3C1069,622.2,1067.1,624,1064.2,624z"/>
			<path d="M1072.2,617.5c-1,0-1.8-0.8-1.8-1.8c0-1,0.8-1.8,1.8-1.8c1,0,1.8,0.8,1.8,1.8C1074,616.7,1073.2,617.5,1072.2,617.5z
				 M1072.2,614.5c-0.6,0-1.1,0.5-1.1,1.1c0,0.6,0.5,1.1,1.1,1.1s1.1-0.5,1.1-1.1C1073.4,615,1072.8,614.5,1072.2,614.5z
				 M1076.7,613.9h0.8l-5.3,8.1h-0.8L1076.7,613.9z M1076.7,622.1c-1,0-1.8-0.8-1.8-1.8c0-1,0.8-1.8,1.8-1.8s1.8,0.8,1.8,1.8
				C1078.5,621.2,1077.7,622.1,1076.7,622.1z M1076.7,619.1c-0.6,0-1.1,0.5-1.1,1.1c0,0.6,0.5,1.1,1.1,1.1s1.1-0.5,1.1-1.1
				C1077.8,619.6,1077.3,619.1,1076.7,619.1z"/>
		</g>
	</g>
	<g>
		<g>
			<g>
				<path class="st6" d="M1407.1,582l-3.3,2l-0.7-1.1l4-2.4h1.4v13.8h-1.5V582z"/>
				<path class="st6" d="M1420,587.5c-0.9,1.5-2.8,2.1-3.9,2.1c-2.9,0-4.6-2.2-4.6-4.5c0-3.2,2.4-4.8,4.9-4.8c1.5,0,3.3,0.9,4.1,2.3
					c0.7,1.2,0.9,2.3,0.9,3.9c0,4.5-2.2,7.9-6.5,7.9c-0.8,0-2.3-0.2-3.2-0.8l0.5-1.3c0.9,0.6,2,0.8,2.6,0.8
					C1418,593.1,1419.8,590.7,1420,587.5z M1418.7,587.4c0.7-0.5,1.1-1.5,1.1-2.5c0-2.1-1.7-3.3-3.4-3.3c-1.8,0-3.4,1.1-3.4,3.3
					c0,1.7,1.2,3.3,3.4,3.3C1417.2,588.3,1418,588,1418.7,587.4z"/>
				<path class="st6" d="M1424.7,588c-1,0-1.8-0.8-1.8-1.8c0-1,0.8-1.8,1.8-1.8c1,0,1.8,0.8,1.8,1.8
					C1426.5,587.2,1425.7,588,1424.7,588z M1424.7,585c-0.6,0-1.1,0.5-1.1,1.1c0,0.6,0.5,1.1,1.1,1.1s1.1-0.5,1.1-1.1
					C1425.8,585.5,1425.3,585,1424.7,585z M1429.2,584.4h0.8l-5.3,8.1h-0.8L1429.2,584.4z M1429.2,592.5c-1,0-1.8-0.8-1.8-1.8
					c0-1,0.8-1.8,1.8-1.8s1.8,0.8,1.8,1.8C1431,591.7,1430.2,592.5,1429.2,592.5z M1429.2,589.6c-0.6,0-1.1,0.5-1.1,1.1
					c0,0.6,0.5,1.1,1.1,1.1s1.1-0.5,1.1-1.1C1430.3,590.1,1429.8,589.6,1429.2,589.6z"/>
			</g>
			<g>
				<rect x="1391.9" y="609.4" class="st6" width="62.2" height="93.5"/>
			</g>
		</g>
		<g>
			<g>
				<pattern  id="SVGID_5_" xlink:href="#white" patternTransform="matrix(1.1052 0 0 1.1052 -139.0905 785.0996)">
				</pattern>
				<rect x="1205.4" y="653.6" class="st11" width="62.2" height="49.2"/>
			</g>
			<g>
				<path class="st6" d="M1220.7,626.3l-3.3,2l-0.7-1.1l4-2.4h1.4v13.8h-1.5V626.3z"/>
				<path class="st6" d="M1225.1,631.7c0-3.4,2-7.1,5.8-7.1c3.8,0,5.7,3.6,5.7,7s-1.9,7.1-5.8,7.1
					C1227,638.7,1225.1,635.2,1225.1,631.7z M1226.6,631.7c0,2.5,1.3,5.8,4.3,5.8c3,0,4.3-3.2,4.3-5.7c0-2.5-1.3-5.8-4.3-5.8
					C1227.9,626,1226.6,629.2,1226.6,631.7z"/>
				<path class="st6" d="M1239.9,632.2c-1,0-1.8-0.8-1.8-1.8c0-1,0.8-1.8,1.8-1.8c1,0,1.8,0.8,1.8,1.8
					C1241.7,631.4,1240.9,632.2,1239.9,632.2z M1239.9,629.3c-0.6,0-1.1,0.5-1.1,1.1c0,0.6,0.5,1.1,1.1,1.1s1.1-0.5,1.1-1.1
					C1241,629.8,1240.5,629.3,1239.9,629.3z M1244.3,628.7h0.8l-5.3,8.1h-0.8L1244.3,628.7z M1244.4,636.8c-1,0-1.8-0.8-1.8-1.8
					c0-1,0.8-1.8,1.8-1.8s1.8,0.8,1.8,1.8C1246.2,636,1245.4,636.8,1244.4,636.8z M1244.4,633.9c-0.6,0-1.1,0.5-1.1,1.1
					c0,0.6,0.5,1.1,1.1,1.1s1.1-0.5,1.1-1.1C1245.5,634.4,1245,633.9,1244.4,633.9z"/>
			</g>
		</g>
		<g>
			<g>
				<rect x="1329.8" y="653.6" width="62.2" height="49.2"/>
			</g>
			<g>
				<path d="M1345,626.3l-3.3,2l-0.7-1.1l4-2.4h1.4v13.8h-1.5V626.3z"/>
				<path d="M1349.4,631.7c0-3.4,2-7.1,5.8-7.1c3.8,0,5.7,3.6,5.7,7s-1.9,7.1-5.8,7.1C1351.4,638.7,1349.4,635.2,1349.4,631.7z
					 M1350.9,631.7c0,2.5,1.3,5.8,4.3,5.8c3,0,4.3-3.2,4.3-5.7c0-2.5-1.3-5.8-4.3-5.8C1352.2,626,1350.9,629.2,1350.9,631.7z"/>
				<path d="M1364.2,632.2c-1,0-1.8-0.8-1.8-1.8c0-1,0.8-1.8,1.8-1.8c1,0,1.8,0.8,1.8,1.8C1366,631.4,1365.2,632.2,1364.2,632.2z
					 M1364.2,629.3c-0.6,0-1.1,0.5-1.1,1.1c0,0.6,0.5,1.1,1.1,1.1s1.1-0.5,1.1-1.1C1365.4,629.8,1364.8,629.3,1364.2,629.3z
					 M1368.7,628.7h0.8l-5.3,8.1h-0.8L1368.7,628.7z M1368.7,636.8c-1,0-1.8-0.8-1.8-1.8c0-1,0.8-1.8,1.8-1.8s1.8,0.8,1.8,1.8
					C1370.5,636,1369.7,636.8,1368.7,636.8z M1368.7,633.9c-0.6,0-1.1,0.5-1.1,1.1c0,0.6,0.5,1.1,1.1,1.1s1.1-0.5,1.1-1.1
					C1369.8,634.4,1369.3,633.9,1368.7,633.9z"/>
			</g>
		</g>
		<g>
			<rect x="1267.6" y="699.8" class="st5" width="62.2" height="3"/>
			<g>
				<path class="st5" d="M1279.6,677.9c0-3.4,2-7.1,5.8-7.1c3.8,0,5.7,3.6,5.7,7s-1.9,7.1-5.8,7.1
					C1281.6,684.9,1279.6,681.3,1279.6,677.9z M1281.1,677.8c0,2.5,1.3,5.8,4.3,5.8c3,0,4.3-3.2,4.3-5.7c0-2.5-1.3-5.8-4.3-5.8
					C1282.4,672.1,1281.1,675.3,1281.1,677.8z"/>
				<path class="st5" d="M1294.4,678.4c-1,0-1.8-0.8-1.8-1.8c0-1,0.8-1.8,1.8-1.8c1,0,1.8,0.8,1.8,1.8
					C1296.2,677.6,1295.4,678.4,1294.4,678.4z M1294.4,675.5c-0.6,0-1.1,0.5-1.1,1.1c0,0.6,0.5,1.1,1.1,1.1s1.1-0.5,1.1-1.1
					C1295.6,676,1295,675.5,1294.4,675.5z M1298.9,674.9h0.8l-5.3,8.1h-0.8L1298.9,674.9z M1298.9,683c-1,0-1.8-0.8-1.8-1.8
					c0-1,0.8-1.8,1.8-1.8s1.8,0.8,1.8,1.8C1300.7,682.2,1299.9,683,1298.9,683z M1298.9,680c-0.6,0-1.1,0.5-1.1,1.1
					c0,0.6,0.5,1.1,1.1,1.1s1.1-0.5,1.1-1.1C1300,680.5,1299.5,680,1298.9,680z"/>
			</g>
		</g>
	</g>
	<g>
		<path d="M1315.8,747.5c-3.5,0-6.1-2.7-6.1-6.1c0-3.5,2.6-6.2,6.1-6.2c3.5,0,6.1,2.7,6.1,6.1
			C1321.9,744.8,1319.3,747.5,1315.8,747.5z M1315.8,736.4c-2.8,0-4.8,2.2-4.8,5c0,2.7,2,5,4.8,5c2.8,0,4.8-2.2,4.8-5
			C1320.6,738.7,1318.6,736.4,1315.8,736.4z"/>
		<path d="M1324.2,739.1h1.3l2.8,6.9l2.9-6.9h1.3l-3.5,8.3h-1.3L1324.2,739.1z"/>
		<path d="M1335.6,743.6c0.1,1.6,1.3,2.8,3,2.8c1.2,0,2.2-0.6,2.6-1.8l1.1,0.3c-0.5,1.6-2,2.5-3.6,2.5c-2.4,0-4.2-1.9-4.2-4.3
			c0-2.2,1.7-4.3,4-4.3c2.6,0,3.9,1.8,3.9,4.2c0,0.1,0,0.3,0,0.4H1335.6z M1341.1,742.6c-0.2-1.5-1.1-2.6-2.7-2.6
			c-1.4,0-2.6,1.2-2.8,2.6H1341.1z"/>
		<path d="M1346.7,740.8c0.6-1.3,1.7-1.8,2.7-1.8c0.1,0,0.3,0,0.4,0v1.3c-0.2,0-0.3,0-0.5,0c-1.9,0-2.6,1.6-2.6,3.1v4h-1.2v-8.3h1.2
			V740.8z"/>
		<path d="M1299.9,763.1c0,1.4-1,2.8-3,2.8h-5.4v-1.2c1.1-0.6,2-1.8,2-3.1c0-0.4-0.1-0.7-0.2-1.1h-1.8v-1.2h1.4
			c-0.3-0.8-0.6-1.5-0.6-2.4c0-1.9,1.6-3.3,3.5-3.3c2.2,0,3.4,1.3,3.4,2.9l-1.2,0.2c0-0.9-0.5-2-2.2-2c-1.3,0-2.3,0.9-2.3,2.2
			c0,0.7,0.3,1.5,0.6,2.3h3.4v1.2h-3c0.1,0.4,0.1,0.7,0.1,1.1c0,1.3-0.5,2.3-1.5,3.1h3.5c1.6,0,1.9-1.1,1.9-1.8L1299.9,763.1z"/>
		<path d="M1304.8,755l-0.7,4.1c0.8-0.8,2.1-1,2.6-1c2.3,0,4,1.5,4,3.9c0,2.6-2.2,4-4.2,4c-2,0-3.9-1.3-4.1-3.3l1.2-0.3
			c0.2,1.4,1.4,2.4,2.9,2.4c1.2,0,2.9-0.8,2.9-2.8s-1.5-2.8-2.9-2.8c-0.9,0-1.9,0.4-2.6,1.2l-1.2-0.4l1-6.3h6.4v1.2H1304.8z"/>
		<path d="M1313.5,760c0-3,1.7-6.2,5.1-6.2c3.3,0,5,3.2,5,6.2c0,3-1.7,6.2-5.1,6.2C1315.1,766.1,1313.5,763,1313.5,760z
			 M1314.8,759.9c0,2.2,1.1,5,3.7,5c2.6,0,3.7-2.8,3.7-5s-1.1-5-3.7-5C1315.9,754.9,1314.8,757.7,1314.8,759.9z"/>
		<path d="M1326.1,767.8c0.7-0.5,1.2-1.1,1.3-1.9c-0.1,0-0.2,0.1-0.4,0.1c-0.6,0-1-0.4-1-1c0-0.6,0.5-1.1,1.1-1.1
			c0.7,0,1.2,0.6,1.2,1.5v0.1c0,1.1-0.6,2.1-1.7,2.9L1326.1,767.8z"/>
		<path d="M1330.9,760c0-3,1.7-6.2,5.1-6.2c3.3,0,5,3.2,5,6.2c0,3-1.7,6.2-5.1,6.2C1332.6,766.1,1330.9,763,1330.9,760z
			 M1332.3,759.9c0,2.2,1.1,5,3.7,5c2.6,0,3.7-2.8,3.7-5s-1.1-5-3.7-5C1333.4,754.9,1332.3,757.7,1332.3,759.9z"/>
		<path d="M1343.9,760c0-3,1.7-6.2,5.1-6.2c3.3,0,5,3.2,5,6.2c0,3-1.7,6.2-5.1,6.2C1345.6,766.1,1343.9,763,1343.9,760z
			 M1345.2,759.9c0,2.2,1.1,5,3.7,5c2.6,0,3.7-2.8,3.7-5s-1.1-5-3.7-5C1346.3,754.9,1345.2,757.7,1345.2,759.9z"/>
		<path d="M1356.9,760c0-3,1.7-6.2,5.1-6.2c3.3,0,5,3.2,5,6.2c0,3-1.7,6.2-5.1,6.2C1358.6,766.1,1356.9,763,1356.9,760z
			 M1358.2,759.9c0,2.2,1.1,5,3.7,5c2.6,0,3.7-2.8,3.7-5s-1.1-5-3.7-5C1359.3,754.9,1358.2,757.7,1358.2,759.9z"/>
	</g>
	<g>
		<g>
			<g>
				<path d="M1323.5,345.4h-1.3V335h0l-4.5,10.4h-1.1l-4.5-10.3v10.3h-1.3v-12.1h1.8l4.5,10.4l4.5-10.4h1.8V345.4z"/>
				<path d="M1328,341.6c0.1,1.6,1.3,2.8,3,2.8c1.2,0,2.2-0.6,2.6-1.8l1.1,0.3c-0.5,1.6-2,2.5-3.6,2.5c-2.4,0-4.2-1.9-4.2-4.3
					c0-2.2,1.7-4.3,4-4.3c2.6,0,3.9,1.8,3.9,4.2c0,0.1,0,0.3,0,0.4H1328z M1333.4,340.6c-0.2-1.5-1.1-2.6-2.7-2.6
					c-1.4,0-2.6,1.2-2.8,2.6H1333.4z"/>
				<path d="M1340.8,337c1.6,0,2.5,0.9,3.2,1.9v-6.1h1.2v12.6h-1.2v-1.8c-0.6,1.1-1.6,1.9-3.2,1.9c-2.4,0-3.9-2-3.9-4.3
					C1336.9,339.1,1338.4,337,1340.8,337z M1344,341.2c0-1.6-1.3-3.2-3-3.2c-1.8,0-2.9,1.4-2.9,3.2c0,1.7,1.1,3.2,2.9,3.2
					C1342.8,344.5,1344,342.9,1344,341.2z"/>
				<path d="M1349.3,333.3c0.5,0,0.9,0.4,0.9,0.9c0,0.5-0.4,0.9-0.9,0.9c-0.5,0-0.9-0.4-0.9-0.9
					C1348.4,333.7,1348.8,333.3,1349.3,333.3z M1349.9,337.1v8.3h-1.2v-8.3H1349.9z"/>
				<path d="M1354.5,342c0,1.5,0.8,2.5,2.3,2.5c1.4,0,2.5-1.1,2.5-2.6v-4.7h1.2v8.3h-1.2v-1.5c-0.6,1.1-1.6,1.7-2.8,1.7
					c-2,0-3.1-1.4-3.1-3.3v-5.1h1.2V342z"/>
				<path d="M1369.6,340.6c0-1.4-0.6-2.5-2.1-2.5c-1.4,0-2.3,1.3-2.3,2.6v4.7h-1.2v-8.3h1.2v1.4c0.7-1,1.4-1.6,2.7-1.6
					c1.2,0,2.2,0.6,2.6,1.7c0.7-1.1,1.6-1.6,2.9-1.6c2,0,3,1.4,3,3.3v5.1h-1.2v-4.8c0-1.4-0.6-2.5-2.1-2.5c-1.5,0-2.3,1.2-2.3,2.6
					v4.8h-1.2V340.6z"/>
			</g>
		</g>
		<g>
			<g>
				<path d="M1312.1,289.1V300h5.7v1.2h-7v-12.1H1312.1z"/>
				<path d="M1325.3,295.9c0-1.3-0.7-2-2.1-2c-1.4,0-2,0.9-2.2,1.7l-1.2-0.2c0.1-0.7,1-2.5,3.4-2.5c1.7,0,2.6,0.8,3,1.7
					c0.2,0.4,0.2,1.1,0.2,1.4v5.3h-1.2v-1.5h0c-0.7,1-1.5,1.6-2.8,1.6c-1.7,0-2.8-1-2.8-2.4v-0.1c0-1.8,1.8-2.4,3.3-2.4h2.3V295.9z
					 M1323,297.4c-0.9,0-2,0.3-2,1.4c0,0.9,0.8,1.5,1.8,1.5c1.5,0,2.6-1,2.6-2.6v-0.3H1323z"/>
				<path d="M1331.1,294.6c0.6-1.3,1.7-1.8,2.7-1.8c0.1,0,0.3,0,0.4,0v1.3c-0.2,0-0.3,0-0.5,0c-1.9,0-2.6,1.6-2.6,3.1v4h-1.2v-8.3
					h1.2V294.6z"/>
				<path d="M1342.7,299.4c-0.6,1.1-1.6,1.9-3.2,1.9c-2.4,0-3.9-1.9-3.9-4.2c0-2.2,1.5-4.2,3.9-4.2c1.6,0,2.6,0.9,3.2,1.9v-1.7h1.2
					v8.3c0,2.7-1.6,4.1-4.1,4.1c-2.1,0-3.7-1.1-4.1-2.8l1.1-0.4c0.2,1,1.1,2.2,3,2.2c1.6,0,3-0.9,3-3V299.4z M1342.8,297
					c0-1.6-1.3-3.1-3-3.1c-1.8,0-2.9,1.4-2.9,3.2c0,1.7,1.1,3.1,2.9,3.1C1341.5,300.2,1342.8,298.7,1342.8,297z"/>
				<path d="M1348.1,297.4c0.1,1.6,1.3,2.8,3,2.8c1.2,0,2.2-0.6,2.6-1.8l1.1,0.3c-0.5,1.6-2,2.5-3.6,2.5c-2.4,0-4.2-1.9-4.2-4.3
					c0-2.2,1.7-4.3,4-4.3c2.6,0,3.9,1.8,3.9,4.2c0,0.1,0,0.3,0,0.4H1348.1z M1353.5,296.4c-0.2-1.5-1.1-2.6-2.7-2.6
					c-1.4,0-2.6,1.2-2.8,2.6H1353.5z"/>
			</g>
		</g>
		<g class="st12">
			<circle cx="1281.8" cy="341.3" r="14.7"/>
		</g>
		<g>
			<g>
				<path d="M1309.9,384.8l1.2-0.3c0.3,1.4,1.6,2.6,3.1,2.6c1.4,0,2.7-0.7,2.7-2.2c0-1.4-1.3-2-2.2-2.2l-1.6-0.3
					c-0.5-0.1-1.4-0.4-2-1c-0.5-0.5-0.9-1.2-0.9-2.1c0-2.1,1.8-3.4,3.8-3.4c2.6,0,3.8,1.6,4,2.9l-1.2,0.4c-0.2-0.9-1-2.1-2.9-2.1
					c-1.3,0-2.5,0.9-2.5,2.2c0,0.9,0.5,1.7,1.8,1.9l1.5,0.3c0.8,0.2,1.7,0.4,2.4,1.1c0.8,0.8,1,1.7,1,2.2c0,2.2-1.7,3.6-4,3.6
					C1311.8,388.3,1310.1,386.5,1309.9,384.8z"/>
				<path d="M1326.9,383.3c0-1.4-0.6-2.5-2.1-2.5c-1.4,0-2.3,1.3-2.3,2.6v4.7h-1.2v-8.3h1.2v1.4c0.7-1,1.4-1.6,2.7-1.6
					c1.2,0,2.2,0.6,2.6,1.7c0.7-1.1,1.6-1.6,2.9-1.6c2,0,3,1.4,3,3.3v5.1h-1.2v-4.8c0-1.4-0.6-2.5-2.1-2.5c-1.5,0-2.3,1.2-2.3,2.6
					v4.8h-1.2V383.3z"/>
				<path d="M1342.1,382.8c0-1.3-0.7-2-2.1-2c-1.4,0-2,0.9-2.2,1.7l-1.2-0.2c0.1-0.7,1-2.5,3.4-2.5c1.7,0,2.6,0.8,3,1.7
					c0.2,0.4,0.2,1.1,0.2,1.4v5.3h-1.2v-1.5h0c-0.6,1-1.5,1.6-2.8,1.6c-1.7,0-2.8-1-2.8-2.4v-0.1c0-1.8,1.8-2.4,3.3-2.4h2.3V382.8z
					 M1339.8,384.4c-0.9,0-2,0.3-2,1.4c0,0.9,0.8,1.5,1.8,1.5c1.5,0,2.6-1,2.6-2.6v-0.3H1339.8z"/>
				<path d="M1347.9,375.5v12.6h-1.2v-12.6H1347.9z"/>
				<path d="M1352.6,375.5v12.6h-1.2v-12.6H1352.6z"/>
			</g>
		</g>
		<circle class="st5" cx="1281.8" cy="384" r="14.7"/>
		<g>
			<g>
				<path d="M1311.9,427.8l-1.3,3.1h-1.3l5.2-12.1h1.4l5.2,12.1h-1.3l-1.3-3.1H1311.9z M1312.3,426.6h5.6l-2.8-6.5L1312.3,426.6z"/>
				<path d="M1324.5,418.3v12.6h-1.2v-12.6H1324.5z"/>
				<path d="M1329.3,418.3v12.6h-1.2v-12.6H1329.3z"/>
				<path d="M1342.2,431c-1.6,0-2.5-0.8-3.2-1.9v1.7h-1.2v-12.6h1.2v6.1c0.7-1.1,1.6-1.9,3.2-1.9c2.4,0,3.9,2.1,3.9,4.3
					C1346.1,429,1344.6,431,1342.2,431z M1344.9,426.8c0-1.7-1.1-3.2-2.9-3.2c-1.7,0-3,1.5-3,3.2c0,1.7,1.2,3.2,3,3.2
					C1343.8,429.9,1344.9,428.5,1344.9,426.8z"/>
				<path d="M1350.1,427.4c0,1.5,0.8,2.5,2.3,2.5c1.4,0,2.5-1.1,2.5-2.6v-4.7h1.2v8.3h-1.2v-1.5c-0.6,1.1-1.6,1.7-2.8,1.7
					c-2,0-3.1-1.4-3.1-3.3v-5.1h1.2V427.4z"/>
				<path d="M1362.1,431c-2.2,0-3-1.5-3.1-2.4l1.1-0.3c0.2,0.7,0.7,1.6,2,1.6c0.9,0,1.7-0.5,1.7-1.3c0-1-1.1-1.2-1.9-1.4
					c-1.4-0.2-2.7-0.7-2.7-2.3c0-1.5,1.4-2.5,2.8-2.5c2.2,0,2.9,1.5,3,2.2l-1.1,0.3c-0.1-0.6-0.6-1.5-1.9-1.5
					c-0.9,0-1.6,0.6-1.6,1.3c0,1,1.1,1.2,2,1.3c1.3,0.2,2.7,0.9,2.7,2.4C1365,430,1363.7,431,1362.1,431z"/>
				<path d="M1368.6,418.7c0.5,0,0.9,0.4,0.9,0.9c0,0.5-0.4,0.9-0.9,0.9c-0.5,0-0.9-0.4-0.9-0.9
					C1367.7,419.1,1368.1,418.7,1368.6,418.7z M1369.2,422.6v8.3h-1.2v-8.3H1369.2z"/>
				<path d="M1378.6,426.1c0-1.5-0.8-2.5-2.3-2.5c-1.4,0-2.5,1.1-2.5,2.6v4.7h-1.2v-8.3h1.2v1.5c0.7-1.1,1.6-1.7,2.8-1.7
					c2,0,3.1,1.4,3.1,3.3v5.1h-1.2V426.1z"/>
				<path d="M1383.8,427.1c0.1,1.6,1.3,2.8,3,2.8c1.2,0,2.2-0.6,2.6-1.8l1.1,0.3c-0.5,1.6-2,2.5-3.6,2.5c-2.4,0-4.2-1.9-4.2-4.3
					c0-2.2,1.7-4.3,4-4.3c2.6,0,3.9,1.8,3.9,4.2c0,0.1,0,0.3,0,0.4H1383.8z M1389.3,426.1c-0.2-1.5-1.1-2.6-2.7-2.6
					c-1.4,0-2.6,1.2-2.8,2.6H1389.3z"/>
				<path d="M1395.9,431c-2.2,0-3-1.5-3.1-2.4l1.1-0.3c0.2,0.7,0.7,1.6,2,1.6c0.9,0,1.7-0.5,1.7-1.3c0-1-1.1-1.2-1.9-1.4
					c-1.4-0.2-2.7-0.7-2.7-2.3c0-1.5,1.4-2.5,2.8-2.5c2.2,0,2.9,1.5,3,2.2l-1.1,0.3c-0.1-0.6-0.6-1.5-1.9-1.5
					c-0.9,0-1.6,0.6-1.6,1.3c0,1,1.1,1.2,2,1.3c1.3,0.2,2.7,0.9,2.7,2.4C1398.8,430,1397.5,431,1395.9,431z"/>
				<path d="M1404.3,431c-2.2,0-3-1.5-3.1-2.4l1.1-0.3c0.2,0.7,0.7,1.6,2,1.6c0.9,0,1.7-0.5,1.7-1.3c0-1-1.1-1.2-1.9-1.4
					c-1.4-0.2-2.7-0.7-2.7-2.3c0-1.5,1.4-2.5,2.8-2.5c2.2,0,2.9,1.5,3,2.2l-1.1,0.3c-0.1-0.6-0.6-1.5-1.9-1.5
					c-0.9,0-1.6,0.6-1.6,1.3c0,1,1.1,1.2,2,1.3c1.3,0.2,2.7,0.9,2.7,2.4C1407.2,430,1405.9,431,1404.3,431z"/>
				<path d="M1417.7,431c-2.2,0-3-1.5-3.1-2.4l1.1-0.3c0.2,0.7,0.7,1.6,2,1.6c0.9,0,1.7-0.5,1.7-1.3c0-1-1.1-1.2-1.9-1.4
					c-1.4-0.2-2.7-0.7-2.7-2.3c0-1.5,1.4-2.5,2.8-2.5c2.2,0,2.9,1.5,3,2.2l-1.1,0.3c-0.1-0.6-0.6-1.5-1.9-1.5
					c-0.9,0-1.6,0.6-1.6,1.3c0,1,1.1,1.2,2,1.3c1.3,0.2,2.7,0.9,2.7,2.4C1420.7,430,1419.3,431,1417.7,431z"/>
				<path d="M1424.2,418.7c0.5,0,0.9,0.4,0.9,0.9c0,0.5-0.4,0.9-0.9,0.9c-0.5,0-0.9-0.4-0.9-0.9
					C1423.3,419.1,1423.7,418.7,1424.2,418.7z M1424.8,422.6v8.3h-1.2v-8.3H1424.8z"/>
				<path d="M1434.2,430.9h-6.6v-1l5.2-6.2h-5v-1h6.5v1l-5.2,6.2h5.2V430.9z"/>
				<path d="M1437.5,427.1c0.1,1.6,1.3,2.8,3,2.8c1.2,0,2.2-0.6,2.6-1.8l1.1,0.3c-0.5,1.6-2,2.5-3.6,2.5c-2.4,0-4.2-1.9-4.2-4.3
					c0-2.2,1.7-4.3,4-4.3c2.6,0,3.9,1.8,3.9,4.2c0,0.1,0,0.3,0,0.4H1437.5z M1443,426.1c-0.2-1.5-1.1-2.6-2.7-2.6
					c-1.4,0-2.6,1.2-2.8,2.6H1443z"/>
				<path d="M1449.6,431c-2.2,0-3-1.5-3.1-2.4l1.1-0.3c0.2,0.7,0.7,1.6,2,1.6c0.9,0,1.7-0.5,1.7-1.3c0-1-1.1-1.2-1.9-1.4
					c-1.4-0.2-2.7-0.7-2.7-2.3c0-1.5,1.4-2.5,2.8-2.5c2.2,0,2.9,1.5,3,2.2l-1.1,0.3c-0.1-0.6-0.6-1.5-1.9-1.5
					c-0.9,0-1.6,0.6-1.6,1.3c0,1,1.1,1.2,2,1.3c1.3,0.2,2.7,0.9,2.7,2.4C1452.5,430,1451.2,431,1449.6,431z"/>
			</g>
		</g>
		<g>
			<pattern  id="SVGID_6_" xlink:href="#white" patternTransform="matrix(1.1052 0 0 1.1052 -139.0905 785.0996)">
			</pattern>
			<circle class="st13" cx="1281.8" cy="426.8" r="14.7"/>
		</g>
		<g>
			<circle class="st6" cx="1281.8" cy="297.1" r="14.7"/>
		</g>
	</g>
</g>
</svg>
