<?xml version="1.0" encoding="utf-8"?>
<!-- Generator: Adobe Illustrator 21.1.0, SVG Export Plug-In . SVG Version: 6.00 Build 0)  -->
<svg version="1.1" id="Layer_1" xmlns="http://www.w3.org/2000/svg" xmlns:xlink="http://www.w3.org/1999/xlink" x="0px" y="0px"
	 viewBox="0 0 1500 1053" style="enable-background:new 0 0 1500 1053;" xml:space="preserve">
<style type="text/css">
	.st0{fill:none;}
	.st1{fill:none;stroke:#000000;stroke-width:2;stroke-linecap:round;stroke-miterlimit:10;}
	.st2{fill:none;stroke:#000000;stroke-width:2;stroke-linecap:round;stroke-miterlimit:10;stroke-dasharray:0,10;}
	.st3{opacity:0.2;}
	.st4{fill:url(#SVGID_1_);}
	.st5{fill:url(#SVGID_2_);}
	.st6{fill:url(#SVGID_3_);}
	.st7{fill:url(#SVGID_4_);}
	.st8{fill:url(#SVGID_5_);}
	.st9{opacity:0.1;}
	.st10{fill:#FF8F4E;}
	.st11{fill:url(#SVGID_6_);}
	.st12{fill:url(#SVGID_7_);}
	.st13{fill:url(#SVGID_8_);}
	.st14{fill:url(#SVGID_9_);}
	.st15{fill:url(#SVGID_10_);}
	.st16{fill:url(#SVGID_11_);}
	.st17{fill:#8EFFDE;}
	.st18{fill:url(#SVGID_12_);}
	.st19{fill:url(#SVGID_13_);}
	.st20{opacity:0.9;}
	.st21{fill:url(#SVGID_14_);}
	.st22{fill:#999999;}
	.st23{fill:url(#SVGID_15_);}
	.st24{fill:url(#SVGID_16_);}
	.st25{fill:url(#SVGID_17_);}
	.st26{fill:url(#SVGID_18_);}
	.st27{fill:url(#SVGID_19_);}
	.st28{fill:url(#SVGID_20_);}
</style>
<pattern  y="1053" width="240" height="240" patternUnits="userSpaceOnUse" id="Unnamed_Pattern_4" viewBox="1 -241 240 240" style="overflow:visible;">
	<g>
		<rect x="1" y="-241" class="st0" width="240" height="240"/>
		<g>
			<g>
				<line class="st1" x1="241" y1="-1" x2="241" y2="-1"/>
			</g>
		</g>
		<g>
			<g>
				<line class="st1" x1="1" y1="-1" x2="1" y2="-1"/>
				<line class="st2" x1="11" y1="-1" x2="236" y2="-1"/>
				<line class="st1" x1="241" y1="-1" x2="241" y2="-1"/>
			</g>
		</g>
		<g>
			<g>
				<line class="st1" x1="1" y1="-1" x2="1" y2="-1"/>
			</g>
		</g>
		<g>
			<g>
				<line class="st1" x1="241" y1="-241" x2="241" y2="-241"/>
			</g>
			<g>
				<line class="st1" x1="241" y1="-231" x2="241" y2="-231"/>
			</g>
			<g>
				<line class="st1" x1="241" y1="-221" x2="241" y2="-221"/>
			</g>
			<g>
				<line class="st1" x1="241" y1="-211" x2="241" y2="-211"/>
			</g>
			<g>
				<line class="st1" x1="241" y1="-201" x2="241" y2="-201"/>
			</g>
			<g>
				<line class="st1" x1="241" y1="-191" x2="241" y2="-191"/>
			</g>
			<g>
				<line class="st1" x1="241" y1="-181" x2="241" y2="-181"/>
			</g>
			<g>
				<line class="st1" x1="241" y1="-171" x2="241" y2="-171"/>
			</g>
			<g>
				<line class="st1" x1="241" y1="-161" x2="241" y2="-161"/>
			</g>
			<g>
				<line class="st1" x1="241" y1="-151" x2="241" y2="-151"/>
			</g>
			<g>
				<line class="st1" x1="241" y1="-141" x2="241" y2="-141"/>
			</g>
			<g>
				<line class="st1" x1="241" y1="-131" x2="241" y2="-131"/>
			</g>
			<g>
				<line class="st1" x1="241" y1="-121" x2="241" y2="-121"/>
			</g>
			<g>
				<line class="st1" x1="241" y1="-111" x2="241" y2="-111"/>
			</g>
			<g>
				<line class="st1" x1="241" y1="-101" x2="241" y2="-101"/>
			</g>
			<g>
				<line class="st1" x1="241" y1="-91" x2="241" y2="-91"/>
			</g>
			<g>
				<line class="st1" x1="241" y1="-81" x2="241" y2="-81"/>
			</g>
			<g>
				<line class="st1" x1="241" y1="-71" x2="241" y2="-71"/>
			</g>
			<g>
				<line class="st1" x1="241" y1="-61" x2="241" y2="-61"/>
			</g>
			<g>
				<line class="st1" x1="241" y1="-51" x2="241" y2="-51"/>
			</g>
			<g>
				<line class="st1" x1="241" y1="-41" x2="241" y2="-41"/>
			</g>
			<g>
				<line class="st1" x1="241" y1="-31" x2="241" y2="-31"/>
			</g>
			<g>
				<line class="st1" x1="241" y1="-21" x2="241" y2="-21"/>
			</g>
			<g>
				<line class="st1" x1="241" y1="-11" x2="241" y2="-11"/>
			</g>
			<g>
				<line class="st1" x1="241" y1="-1" x2="241" y2="-1"/>
			</g>
		</g>
		<g>
			<g>
				<line class="st1" x1="1" y1="-241" x2="1" y2="-241"/>
				<line class="st2" x1="11" y1="-241" x2="236" y2="-241"/>
				<line class="st1" x1="241" y1="-241" x2="241" y2="-241"/>
			</g>
			<g>
				<line class="st1" x1="1" y1="-231" x2="1" y2="-231"/>
				<line class="st2" x1="11" y1="-231" x2="236" y2="-231"/>
				<line class="st1" x1="241" y1="-231" x2="241" y2="-231"/>
			</g>
			<g>
				<line class="st1" x1="1" y1="-221" x2="1" y2="-221"/>
				<line class="st2" x1="11" y1="-221" x2="236" y2="-221"/>
				<line class="st1" x1="241" y1="-221" x2="241" y2="-221"/>
			</g>
			<g>
				<line class="st1" x1="1" y1="-211" x2="1" y2="-211"/>
				<line class="st2" x1="11" y1="-211" x2="236" y2="-211"/>
				<line class="st1" x1="241" y1="-211" x2="241" y2="-211"/>
			</g>
			<g>
				<line class="st1" x1="1" y1="-201" x2="1" y2="-201"/>
				<line class="st2" x1="11" y1="-201" x2="236" y2="-201"/>
				<line class="st1" x1="241" y1="-201" x2="241" y2="-201"/>
			</g>
			<g>
				<line class="st1" x1="1" y1="-191" x2="1" y2="-191"/>
				<line class="st2" x1="11" y1="-191" x2="236" y2="-191"/>
				<line class="st1" x1="241" y1="-191" x2="241" y2="-191"/>
			</g>
			<g>
				<line class="st1" x1="1" y1="-181" x2="1" y2="-181"/>
				<line class="st2" x1="11" y1="-181" x2="236" y2="-181"/>
				<line class="st1" x1="241" y1="-181" x2="241" y2="-181"/>
			</g>
			<g>
				<line class="st1" x1="1" y1="-171" x2="1" y2="-171"/>
				<line class="st2" x1="11" y1="-171" x2="236" y2="-171"/>
				<line class="st1" x1="241" y1="-171" x2="241" y2="-171"/>
			</g>
			<g>
				<line class="st1" x1="1" y1="-161" x2="1" y2="-161"/>
				<line class="st2" x1="11" y1="-161" x2="236" y2="-161"/>
				<line class="st1" x1="241" y1="-161" x2="241" y2="-161"/>
			</g>
			<g>
				<line class="st1" x1="1" y1="-151" x2="1" y2="-151"/>
				<line class="st2" x1="11" y1="-151" x2="236" y2="-151"/>
				<line class="st1" x1="241" y1="-151" x2="241" y2="-151"/>
			</g>
			<g>
				<line class="st1" x1="1" y1="-141" x2="1" y2="-141"/>
				<line class="st2" x1="11" y1="-141" x2="236" y2="-141"/>
				<line class="st1" x1="241" y1="-141" x2="241" y2="-141"/>
			</g>
			<g>
				<line class="st1" x1="1" y1="-131" x2="1" y2="-131"/>
				<line class="st2" x1="11" y1="-131" x2="236" y2="-131"/>
				<line class="st1" x1="241" y1="-131" x2="241" y2="-131"/>
			</g>
			<g>
				<line class="st1" x1="1" y1="-121" x2="1" y2="-121"/>
				<line class="st2" x1="11" y1="-121" x2="236" y2="-121"/>
				<line class="st1" x1="241" y1="-121" x2="241" y2="-121"/>
			</g>
			<g>
				<line class="st1" x1="1" y1="-111" x2="1" y2="-111"/>
				<line class="st2" x1="11" y1="-111" x2="236" y2="-111"/>
				<line class="st1" x1="241" y1="-111" x2="241" y2="-111"/>
			</g>
			<g>
				<line class="st1" x1="1" y1="-101" x2="1" y2="-101"/>
				<line class="st2" x1="11" y1="-101" x2="236" y2="-101"/>
				<line class="st1" x1="241" y1="-101" x2="241" y2="-101"/>
			</g>
			<g>
				<line class="st1" x1="1" y1="-91" x2="1" y2="-91"/>
				<line class="st2" x1="11" y1="-91" x2="236" y2="-91"/>
				<line class="st1" x1="241" y1="-91" x2="241" y2="-91"/>
			</g>
			<g>
				<line class="st1" x1="1" y1="-81" x2="1" y2="-81"/>
				<line class="st2" x1="11" y1="-81" x2="236" y2="-81"/>
				<line class="st1" x1="241" y1="-81" x2="241" y2="-81"/>
			</g>
			<g>
				<line class="st1" x1="1" y1="-71" x2="1" y2="-71"/>
				<line class="st2" x1="11" y1="-71" x2="236" y2="-71"/>
				<line class="st1" x1="241" y1="-71" x2="241" y2="-71"/>
			</g>
			<g>
				<line class="st1" x1="1" y1="-61" x2="1" y2="-61"/>
				<line class="st2" x1="11" y1="-61" x2="236" y2="-61"/>
				<line class="st1" x1="241" y1="-61" x2="241" y2="-61"/>
			</g>
			<g>
				<line class="st1" x1="1" y1="-51" x2="1" y2="-51"/>
				<line class="st2" x1="11" y1="-51" x2="236" y2="-51"/>
				<line class="st1" x1="241" y1="-51" x2="241" y2="-51"/>
			</g>
			<g>
				<line class="st1" x1="1" y1="-41" x2="1" y2="-41"/>
				<line class="st2" x1="11" y1="-41" x2="236" y2="-41"/>
				<line class="st1" x1="241" y1="-41" x2="241" y2="-41"/>
			</g>
			<g>
				<line class="st1" x1="1" y1="-31" x2="1" y2="-31"/>
				<line class="st2" x1="11" y1="-31" x2="236" y2="-31"/>
				<line class="st1" x1="241" y1="-31" x2="241" y2="-31"/>
			</g>
			<g>
				<line class="st1" x1="1" y1="-21" x2="1" y2="-21"/>
				<line class="st2" x1="11" y1="-21" x2="236" y2="-21"/>
				<line class="st1" x1="241" y1="-21" x2="241" y2="-21"/>
			</g>
			<g>
				<line class="st1" x1="1" y1="-11" x2="1" y2="-11"/>
				<line class="st2" x1="11" y1="-11" x2="236" y2="-11"/>
				<line class="st1" x1="241" y1="-11" x2="241" y2="-11"/>
			</g>
			<g>
				<line class="st1" x1="1" y1="-1" x2="1" y2="-1"/>
				<line class="st2" x1="11" y1="-1" x2="236" y2="-1"/>
				<line class="st1" x1="241" y1="-1" x2="241" y2="-1"/>
			</g>
		</g>
		<g>
			<g>
				<line class="st1" x1="1" y1="-241" x2="1" y2="-241"/>
			</g>
			<g>
				<line class="st1" x1="1" y1="-231" x2="1" y2="-231"/>
			</g>
			<g>
				<line class="st1" x1="1" y1="-221" x2="1" y2="-221"/>
			</g>
			<g>
				<line class="st1" x1="1" y1="-211" x2="1" y2="-211"/>
			</g>
			<g>
				<line class="st1" x1="1" y1="-201" x2="1" y2="-201"/>
			</g>
			<g>
				<line class="st1" x1="1" y1="-191" x2="1" y2="-191"/>
			</g>
			<g>
				<line class="st1" x1="1" y1="-181" x2="1" y2="-181"/>
			</g>
			<g>
				<line class="st1" x1="1" y1="-171" x2="1" y2="-171"/>
			</g>
			<g>
				<line class="st1" x1="1" y1="-161" x2="1" y2="-161"/>
			</g>
			<g>
				<line class="st1" x1="1" y1="-151" x2="1" y2="-151"/>
			</g>
			<g>
				<line class="st1" x1="1" y1="-141" x2="1" y2="-141"/>
			</g>
			<g>
				<line class="st1" x1="1" y1="-131" x2="1" y2="-131"/>
			</g>
			<g>
				<line class="st1" x1="1" y1="-121" x2="1" y2="-121"/>
			</g>
			<g>
				<line class="st1" x1="1" y1="-111" x2="1" y2="-111"/>
			</g>
			<g>
				<line class="st1" x1="1" y1="-101" x2="1" y2="-101"/>
			</g>
			<g>
				<line class="st1" x1="1" y1="-91" x2="1" y2="-91"/>
			</g>
			<g>
				<line class="st1" x1="1" y1="-81" x2="1" y2="-81"/>
			</g>
			<g>
				<line class="st1" x1="1" y1="-71" x2="1" y2="-71"/>
			</g>
			<g>
				<line class="st1" x1="1" y1="-61" x2="1" y2="-61"/>
			</g>
			<g>
				<line class="st1" x1="1" y1="-51" x2="1" y2="-51"/>
			</g>
			<g>
				<line class="st1" x1="1" y1="-41" x2="1" y2="-41"/>
			</g>
			<g>
				<line class="st1" x1="1" y1="-31" x2="1" y2="-31"/>
			</g>
			<g>
				<line class="st1" x1="1" y1="-21" x2="1" y2="-21"/>
			</g>
			<g>
				<line class="st1" x1="1" y1="-11" x2="1" y2="-11"/>
			</g>
			<g>
				<line class="st1" x1="1" y1="-1" x2="1" y2="-1"/>
			</g>
		</g>
		<g>
			<g>
				<line class="st1" x1="241" y1="-241" x2="241" y2="-241"/>
			</g>
		</g>
		<g>
			<g>
				<line class="st1" x1="1" y1="-241" x2="1" y2="-241"/>
				<line class="st2" x1="11" y1="-241" x2="236" y2="-241"/>
				<line class="st1" x1="241" y1="-241" x2="241" y2="-241"/>
			</g>
		</g>
		<g>
			<g>
				<line class="st1" x1="1" y1="-241" x2="1" y2="-241"/>
			</g>
		</g>
	</g>
</pattern>
<g class="st3">
	
		<pattern  id="SVGID_1_" xlink:href="#Unnamed_Pattern_4" patternTransform="matrix(0 1.4906 -1.431 0 -29809.9668 4167.1172)"  class="st3">
	</pattern>
	<polygon class="st4" points="909.4,555 909.4,597.5 1114.8,597.5 1159.9,597.5 1159.9,555 1114.8,555 	"/>
</g>
<g class="st3">
	
		<pattern  id="SVGID_2_" xlink:href="#Unnamed_Pattern_4" patternTransform="matrix(0 1.4906 -1.431 0 -29809.9668 4167.1172)"  class="st3">
	</pattern>
	<polygon class="st5" points="808.7,473 613.2,473 613.2,515.5 808.7,515.5 863.8,515.5 863.8,473 	"/>
</g>
<g class="st3">
	
		<pattern  id="SVGID_3_" xlink:href="#Unnamed_Pattern_4" patternTransform="matrix(0 1.4906 -1.431 0 -29809.9668 4167.1172)"  class="st3">
	</pattern>
	<polygon class="st6" points="512.6,473 382.3,473 382.3,515.5 512.6,515.5 567.7,515.5 567.7,473 	"/>
</g>
<g class="st3">
	
		<pattern  id="SVGID_4_" xlink:href="#Unnamed_Pattern_4" patternTransform="matrix(0 1.4906 -1.431 0 -29809.9668 4167.1172)"  class="st3">
	</pattern>
	<polygon class="st7" points="522.6,555 402.3,555 402.3,597.5 387,597.5 317.1,597.5 317.1,597.5 522.6,597.5 567.7,597.5 
		567.7,555 	"/>
</g>
<g class="st3">
	
		<pattern  id="SVGID_5_" xlink:href="#Unnamed_Pattern_4" patternTransform="matrix(0 1.4906 -1.431 0 -29809.9668 4167.1172)"  class="st3">
	</pattern>
	<polygon class="st8" points="344.7,679.4 318.2,679.4 317.1,679.4 317.1,679.4 327.2,679.4 567.7,679.4 567.7,637 344.7,637 	"/>
</g>
<g class="st9">
	<polygon points="402.3,576.2 387,576.2 317.1,576.2 317.1,576.2 402.3,576.2 	"/>
</g>
<g class="st9">
	<polygon points="402.3,597.5 402.3,555 317.1,555 317.1,597.5 387,597.5 	"/>
</g>
<g class="st9">
	<polygon points="344.7,637 344.7,637 318.2,637 317.1,637 317.1,637 327.2,637 	"/>
</g>
<g class="st9">
	<polygon points="344.7,679.4 344.7,637 327.2,637 317.1,637 317.1,679.4 318.2,679.4 	"/>
</g>
<g>
	<polygon class="st10" points="640.8,515.5 640.8,473 623.3,473 613.2,473 613.2,515.5 614.4,515.5 	"/>
</g>
<g class="st3">
	
		<pattern  id="SVGID_6_" xlink:href="#Unnamed_Pattern_4" patternTransform="matrix(0 1.4906 -1.431 0 -29809.9668 4167.1172)"  class="st3">
	</pattern>
	<polygon class="st11" points="384.8,719 384.8,761.5 522.6,761.5 567.7,761.5 567.7,719 522.6,719 	"/>
</g>
<g class="st3">
	
		<pattern  id="SVGID_7_" xlink:href="#Unnamed_Pattern_4" patternTransform="matrix(0 1.4906 -1.431 0 -29809.9668 4167.1172)"  class="st3">
	</pattern>
	<rect x="419.9" y="801" class="st12" width="147.8" height="42.5"/>
</g>
<g class="st3">
	
		<pattern  id="SVGID_8_" xlink:href="#Unnamed_Pattern_4" patternTransform="matrix(0 1.4906 -1.431 0 -29809.9668 4167.1172)"  class="st3">
	</pattern>
	<polygon class="st13" points="1205.5,719 1205.5,761.5 1255.6,761.5 1456,761.5 1456,719 1255.6,719 	"/>
</g>
<g>
	<g>
		<path d="M392.4,226.9l-3.9,2.3l-0.8-1.3l4.7-2.9h1.7v16.3h-1.7V226.9z"/>
		<path d="M401.3,226.9l-3.9,2.3l-0.8-1.3l4.7-2.9h1.7v16.3h-1.7V226.9z"/>
		<path d="M416.6,240.5v12.8h-2.9v-28h2.9v12.4h16v-12.4h2.9v28h-2.9v-12.8H416.6z"/>
		<path d="M454.1,241c0-3.1-1.7-4.7-4.9-4.7c-3.2,0-4.7,2.1-5,3.9l-2.7-0.6c0.1-1.6,2.3-5.8,7.8-5.8c4,0,6,1.8,7,3.9
			c0.4,1,0.6,2.5,0.6,3.1v12.3h-2.7V250h0c-1.5,2.4-3.6,3.7-6.4,3.7c-3.9,0-6.4-2.4-6.4-5.6v-0.2c0-4.2,4.2-5.5,7.6-5.5h5.3V241z
			 M448.7,244.6c-2,0-4.7,0.6-4.7,3.2c0,2.1,1.8,3.4,4.1,3.4c3.4,0,5.9-2.4,5.9-5.9v-0.7H448.7z"/>
		<path d="M460,234.2h3.1l6.5,16l6.7-16h3l-8.2,19.1h-3L460,234.2z"/>
		<path d="M484,244.6c0.2,3.7,3.1,6.5,6.8,6.5c2.8,0,5-1.4,5.9-4.1l2.5,0.8c-1.1,3.7-4.6,5.8-8.4,5.8c-5.5,0-9.7-4.4-9.7-9.9
			c0-5.2,3.9-9.8,9.3-9.8c5.9,0,9,4.2,9,9.8c0,0.3,0,0.6,0,0.9H484z M496.7,242.3c-0.4-3.5-2.5-5.9-6.2-5.9c-3.3,0-6,2.8-6.4,5.9
			H496.7z"/>
		<path d="M519.8,252l-8.7-17.8h3.2l7,14.8l6.6-14.8h3l-13.1,28.5h-3L519.8,252z"/>
		<path d="M532.6,243.8c0-5.7,4.3-9.9,9.9-9.9c5.5,0,9.8,4.3,9.8,9.8c0,5.7-4.3,9.9-9.9,9.9C536.9,253.6,532.6,249.3,532.6,243.8z
			 M549.5,243.8c0-4-2.9-7.5-7-7.5c-4.2,0-7,3.4-7,7.4c0,4,2.9,7.5,7,7.5C546.6,251.2,549.5,247.8,549.5,243.8z"/>
		<path d="M559.8,245.3c0,3.4,1.8,5.8,5.3,5.8c3.3,0,5.7-2.6,5.7-6v-10.9h2.8v19.1h-2.7v-3.5c-1.5,2.6-3.8,3.9-6.5,3.9
			c-4.7,0-7.2-3.2-7.2-7.7v-11.8h2.8V245.3z"/>
		<path d="M591.3,225.3c1.2,0,2.1,0.9,2.1,2.1c0,1.1-0.9,2.1-2.1,2.1c-1.1,0-2.1-0.9-2.1-2.1C589.2,226.2,590.1,225.3,591.3,225.3z
			 M592.7,234.2v19.1h-2.8v-19.1H592.7z"/>
		<path d="M612.8,242.2c0-3.4-1.8-5.8-5.3-5.8c-3.3,0-5.7,2.6-5.7,6v10.9H599v-19.1h2.8v3.5c1.5-2.6,3.8-3.9,6.6-3.9
			c4.7,0,7.2,3.2,7.2,7.7v11.8h-2.8V242.2z"/>
		<path d="M618.7,234.2h3.1l6.5,16l6.7-16h3l-8.2,19.1h-3L618.7,234.2z"/>
		<path d="M642.7,244.6c0.2,3.7,3.1,6.5,6.8,6.5c2.8,0,5-1.4,5.9-4.1l2.5,0.8c-1.1,3.7-4.6,5.8-8.4,5.8c-5.5,0-9.7-4.4-9.7-9.9
			c0-5.2,3.9-9.8,9.3-9.8c5.9,0,9,4.2,9,9.8c0,0.3,0,0.6,0,0.9H642.7z M655.4,242.3c-0.4-3.5-2.5-5.9-6.2-5.9c-3.3,0-6,2.8-6.4,5.9
			H655.4z"/>
		<path d="M668.8,253.6c-5.2,0-6.9-3.5-7.3-5.7l2.6-0.6c0.4,1.7,1.7,3.8,4.7,3.8c2.1,0,4-1.1,4-3.1c0-2.3-2.5-2.9-4.5-3.1
			c-3.2-0.5-6.3-1.6-6.3-5.3c0-3.6,3.3-5.7,6.4-5.7c5,0,6.7,3.4,6.9,5.2l-2.5,0.6c-0.3-1.3-1.4-3.4-4.4-3.4c-2.1,0-3.6,1.4-3.6,3
			c0,2.4,2.6,2.8,4.5,3c3.1,0.4,6.3,2,6.3,5.5C675.6,251.4,672.5,253.6,668.8,253.6z"/>
		<path d="M681.6,248.4v-11.7h-3.5v-2.5h3.5v-5.5h2.8v5.5h4.8v2.5h-4.8v11.6c0,1.7,1,2.7,3.1,2.7c0.6,0,1.3,0,1.7-0.1v2.3
			c-0.6,0.2-1.7,0.3-2.2,0.3C682.8,253.5,681.6,251.2,681.6,248.4z"/>
		<path d="M694.9,244.6c0.2,3.7,3.1,6.5,6.8,6.5c2.8,0,5-1.4,5.9-4.1l2.5,0.8c-1.1,3.7-4.6,5.8-8.4,5.8c-5.5,0-9.7-4.4-9.7-9.9
			c0-5.2,3.9-9.8,9.3-9.8c5.9,0,9,4.2,9,9.8c0,0.3,0,0.6,0,0.9H694.9z M707.6,242.3c-0.4-3.5-2.5-5.9-6.2-5.9c-3.3,0-6,2.8-6.4,5.9
			H707.6z"/>
		<path d="M722.8,233.9c3.7,0,5.9,2.1,7.4,4.3v-14h2.8v29.1h-2.7v-4.1c-1.5,2.4-3.8,4.4-7.4,4.4c-5.5,0-8.9-4.7-8.9-9.9
			C713.9,238.8,717.4,233.9,722.8,233.9z M730.3,243.7c0-3.8-2.9-7.3-6.9-7.3c-4.2,0-6.7,3.3-6.7,7.4c0,3.9,2.5,7.3,6.7,7.3
			C727.4,251.1,730.3,247.6,730.3,243.7z"/>
		<path d="M750.7,225.3c1.2,0,2.1,0.9,2.1,2.1c0,1.1-0.9,2.1-2.1,2.1c-1.1,0-2.1-0.9-2.1-2.1C748.6,226.2,749.5,225.3,750.7,225.3z
			 M752.1,234.2v19.1h-2.8v-19.1H752.1z"/>
		<path d="M772.2,242.2c0-3.4-1.8-5.8-5.3-5.8c-3.3,0-5.7,2.6-5.7,6v10.9h-2.8v-19.1h2.8v3.5c1.5-2.6,3.8-3.9,6.6-3.9
			c4.7,0,7.2,3.2,7.2,7.7v11.8h-2.8V242.2z"/>
		<path d="M796.8,253.6c-5.2,0-6.9-3.5-7.3-5.7l2.6-0.6c0.4,1.7,1.7,3.8,4.7,3.8c2.1,0,4-1.1,4-3.1c0-2.3-2.5-2.9-4.5-3.1
			c-3.2-0.5-6.3-1.6-6.3-5.3c0-3.6,3.3-5.7,6.4-5.7c5,0,6.7,3.4,6.9,5.2l-2.5,0.6c-0.3-1.3-1.4-3.4-4.4-3.4c-2.1,0-3.6,1.4-3.6,3
			c0,2.4,2.6,2.8,4.5,3c3.1,0.4,6.3,2,6.3,5.5C803.6,251.4,800.5,253.6,796.8,253.6z"/>
		<path d="M820.1,241c0-3.1-1.7-4.7-4.9-4.7c-3.2,0-4.7,2.1-5,3.9l-2.7-0.6c0.1-1.6,2.3-5.8,7.8-5.8c4,0,6,1.8,7,3.9
			c0.4,1,0.6,2.5,0.6,3.1v12.3h-2.7V250h0c-1.5,2.4-3.6,3.7-6.4,3.7c-3.9,0-6.4-2.4-6.4-5.6v-0.2c0-4.2,4.2-5.5,7.5-5.5h5.3V241z
			 M814.7,244.6c-2,0-4.7,0.6-4.7,3.2c0,2.1,1.8,3.4,4.1,3.4c3.4,0,5.9-2.4,5.9-5.9v-0.7H814.7z"/>
		<path d="M832.8,230.6v3.6h5v2.4h-5v16.7h-2.8v-16.7h-3.6v-2.4h3.6v-3.5c0-4.4,2.5-6.6,5.9-6.6c0.5,0,1.4,0.1,2.1,0.4v2.4
			c-0.8-0.3-1.6-0.3-2-0.3C834.6,226.6,832.8,227.3,832.8,230.6z"/>
		<path d="M842.5,244.6c0.2,3.7,3.1,6.5,6.8,6.5c2.8,0,5-1.4,5.9-4.1l2.5,0.8c-1.1,3.7-4.6,5.8-8.4,5.8c-5.5,0-9.7-4.4-9.7-9.9
			c0-5.2,3.9-9.8,9.3-9.8c5.9,0,9,4.2,9,9.8c0,0.3,0,0.6,0,0.9H842.5z M855.2,242.3c-0.4-3.5-2.5-5.9-6.2-5.9c-3.3,0-6,2.8-6.4,5.9
			H855.2z"/>
		<path d="M877.8,249.1c-1.5,2.4-3.8,4.3-7.4,4.3c-5.5,0-8.9-4.5-8.9-9.7c0-5,3.5-9.8,8.9-9.8c3.7,0,5.9,2.1,7.4,4.3v-4h2.8v19.2
			c0,6.2-3.8,9.5-9.6,9.5c-4.9,0-8.5-2.5-9.5-6.5l2.6-0.9c0.6,2.2,2.4,5,6.9,5c3.7,0,6.8-2,6.8-6.9V249.1z M877.9,243.6
			c0-3.8-2.9-7.3-6.9-7.3c-4.2,0-6.7,3.2-6.7,7.4c0,3.9,2.5,7.2,6.7,7.2C875,251,877.9,247.5,877.9,243.6z"/>
		<path d="M889.4,245.3c0,3.4,1.8,5.8,5.3,5.8c3.3,0,5.7-2.6,5.7-6v-10.9h2.8v19.1h-2.7v-3.5c-1.5,2.6-3.8,3.9-6.5,3.9
			c-4.7,0-7.2-3.2-7.2-7.7v-11.8h2.8V245.3z"/>
		<path d="M921,241c0-3.1-1.7-4.7-4.9-4.7c-3.2,0-4.7,2.1-5,3.9l-2.7-0.6c0.1-1.6,2.3-5.8,7.8-5.8c4,0,6,1.8,7,3.9
			c0.4,1,0.6,2.5,0.6,3.1v12.3h-2.7V250h0c-1.5,2.4-3.6,3.7-6.4,3.7c-3.9,0-6.4-2.4-6.4-5.6v-0.2c0-4.2,4.2-5.5,7.5-5.5h5.3V241z
			 M915.7,244.6c-2,0-4.7,0.6-4.7,3.2c0,2.1,1.8,3.4,4.1,3.4c3.4,0,5.9-2.4,5.9-5.9v-0.7H915.7z"/>
		<path d="M932.6,238c1.4-3,4-4.1,6.2-4.1c0.2,0,0.7,0,0.9,0v3c-0.4,0-0.7-0.1-1.1-0.1c-4.5,0-6,3.7-6,7.1v9.3h-2.8v-19.1h2.8V238z"
			/>
		<path d="M950.3,233.9c3.7,0,5.9,2.1,7.4,4.3v-14h2.8v29.1h-2.7v-4.1c-1.5,2.4-3.8,4.4-7.4,4.4c-5.5,0-8.9-4.7-8.9-9.9
			C941.4,238.8,944.9,233.9,950.3,233.9z M957.8,243.7c0-3.8-2.9-7.3-6.9-7.3c-4.2,0-6.7,3.3-6.7,7.4c0,3.9,2.5,7.3,6.7,7.3
			C954.9,251.1,957.8,247.6,957.8,243.7z"/>
		<path d="M972.7,253.6c-5.2,0-6.9-3.5-7.3-5.7l2.6-0.6c0.4,1.7,1.7,3.8,4.7,3.8c2.1,0,4-1.1,4-3.1c0-2.3-2.5-2.9-4.5-3.1
			c-3.2-0.5-6.3-1.6-6.3-5.3c0-3.6,3.3-5.7,6.4-5.7c5,0,6.7,3.4,6.9,5.2l-2.5,0.6c-0.3-1.3-1.4-3.4-4.4-3.4c-2.1,0-3.6,1.4-3.6,3
			c0,2.4,2.6,2.8,4.5,3c3.1,0.4,6.3,2,6.3,5.5C979.4,251.4,976.3,253.6,972.7,253.6z"/>
		<path d="M995.8,225.3c1.2,0,2.1,0.9,2.1,2.1c0,1.1-0.9,2.1-2.1,2.1c-1.1,0-2.1-0.9-2.1-2.1C993.7,226.2,994.6,225.3,995.8,225.3z
			 M997.2,234.2v19.1h-2.8v-19.1H997.2z"/>
		<path d="M1017.3,242.2c0-3.4-1.8-5.8-5.3-5.8c-3.3,0-5.7,2.6-5.7,6v10.9h-2.8v-19.1h2.8v3.5c1.5-2.6,3.8-3.9,6.6-3.9
			c4.7,0,7.2,3.2,7.2,7.7v11.8h-2.8V242.2z"/>
		<path d="M1037.4,248.4v-11.7h-3.5v-2.5h3.5v-5.5h2.8v5.5h4.8v2.5h-4.8v11.6c0,1.7,1,2.7,3.1,2.7c0.6,0,1.3,0,1.7-0.1v2.3
			c-0.6,0.2-1.7,0.3-2.2,0.3C1038.6,253.5,1037.4,251.2,1037.4,248.4z"/>
		<path d="M1063.4,242.2c0-3.4-1.8-5.8-5.3-5.8c-3.3,0-5.7,2.6-5.7,6v10.9h-2.8v-29.1h2.8v13.5c1.5-2.5,3.7-3.8,6.5-3.8
			c4.7,0,7.2,3.2,7.2,7.7v11.8h-2.8V242.2z"/>
		<path d="M1073.7,244.6c0.2,3.7,3.1,6.5,6.8,6.5c2.8,0,5-1.4,5.9-4.1l2.5,0.8c-1.1,3.7-4.6,5.8-8.4,5.8c-5.5,0-9.7-4.4-9.7-9.9
			c0-5.2,3.9-9.8,9.3-9.8c5.9,0,9,4.2,9,9.8c0,0.3,0,0.6,0,0.9H1073.7z M1086.4,242.3c-0.4-3.5-2.5-5.9-6.2-5.9
			c-3.3,0-6,2.8-6.4,5.9H1086.4z"/>
		<path d="M357.7,267.1v29.2h-2.8v-29.2H357.7z"/>
		<path d="M375.5,283.9c0-3.1-1.7-4.7-4.9-4.7c-3.2,0-4.7,2.1-5,3.9l-2.7-0.6c0.1-1.6,2.3-5.8,7.8-5.8c4,0,6,1.8,7,3.9
			c0.4,1,0.6,2.5,0.6,3.1v12.3h-2.7v-3.4h0c-1.5,2.4-3.6,3.7-6.4,3.7c-3.9,0-6.4-2.4-6.4-5.6v-0.2c0-4.2,4.2-5.5,7.6-5.5h5.3V283.9z
			 M370.2,287.5c-2,0-4.7,0.6-4.7,3.2c0,2.1,1.8,3.4,4.1,3.4c3.4,0,5.9-2.4,5.9-5.9v-0.7H370.2z"/>
		<path d="M390.1,296.6c-5.2,0-6.9-3.5-7.3-5.7l2.6-0.6c0.4,1.7,1.7,3.8,4.7,3.8c2.1,0,4-1.1,4-3.1c0-2.3-2.5-2.9-4.5-3.1
			c-3.2-0.5-6.3-1.6-6.3-5.3c0-3.6,3.3-5.7,6.4-5.7c5,0,6.7,3.4,6.9,5.2l-2.5,0.6c-0.3-1.3-1.4-3.4-4.4-3.4c-2.1,0-3.6,1.4-3.6,3
			c0,2.4,2.6,2.8,4.5,3c3.1,0.4,6.3,2,6.3,5.5C396.9,294.3,393.8,296.6,390.1,296.6z"/>
		<path d="M402.9,291.3v-11.7h-3.5v-2.5h3.5v-5.5h2.8v5.5h4.8v2.5h-4.8v11.6c0,1.7,1,2.7,3.1,2.7c0.6,0,1.3,0,1.7-0.1v2.3
			c-0.6,0.2-1.7,0.3-2.2,0.3C404.2,296.4,402.9,294.1,402.9,291.3z"/>
		<path d="M430.6,271.4l-6.7,4l-1.3-2.2l8.1-4.9h2.9v28h-2.9V271.4z"/>
		<path d="M439.3,295.4c0-3.3,1.5-6.8,6.5-9.8l4.3-2.6c2.7-1.6,4.9-3.4,4.9-6.7c0-2.9-2.5-5.6-6.2-5.6c-3.1,0-5,1.8-5.8,3.6
			c-0.5,1.2-0.5,2.3-0.6,2.8l-2.9-0.4c0-4,3.4-8.7,9.3-8.7c5.2,0,9.1,3.9,9.1,8.3c0,4-2.2,6.3-5.9,8.6l-4.4,2.8
			c-2.4,1.5-4.7,3.5-4.8,6h15.4v2.7h-18.9V295.4z"/>
		<path d="M486.5,285.1c0-3.1-1.5-5.7-4.9-5.7c-3.3,0-5.3,2.9-5.3,6v10.9h-2.8v-19.1h2.8v3.3c1.5-2.3,3.3-3.7,6.2-3.7
			c2.8,0,5,1.3,6.1,3.8c1.6-2.5,3.7-3.8,6.7-3.8c4.6,0,7,3.2,7,7.6v11.8h-2.8v-11.1c0-3.2-1.4-5.8-4.9-5.8c-3.4,0-5.3,2.7-5.3,5.9
			v11h-2.8V285.1z"/>
		<path d="M506.9,286.8c0-5.7,4.3-9.9,9.9-9.9c5.5,0,9.8,4.3,9.8,9.8c0,5.7-4.3,9.9-9.9,9.9C511.2,296.6,506.9,292.2,506.9,286.8z
			 M523.8,286.8c0-4-2.9-7.5-7-7.5s-7,3.4-7,7.4c0,4,2.9,7.5,7,7.5C520.9,294.1,523.8,290.7,523.8,286.8z"/>
		<path d="M545.3,285.1c0-3.4-1.8-5.8-5.3-5.8c-3.3,0-5.7,2.6-5.7,6v10.9h-2.8v-19.1h2.8v3.5c1.5-2.6,3.8-3.9,6.6-3.9
			c4.7,0,7.2,3.2,7.2,7.7v11.8h-2.8V285.1z"/>
		<path d="M555.3,291.3v-11.7h-3.5v-2.5h3.5v-5.5h2.8v5.5h4.8v2.5H558v11.6c0,1.7,1,2.7,3.1,2.7c0.6,0,1.3,0,1.7-0.1v2.3
			c-0.6,0.2-1.7,0.3-2.2,0.3C556.5,296.4,555.3,294.1,555.3,291.3z"/>
		<path d="M581.4,285.1c0-3.4-1.8-5.8-5.3-5.8c-3.3,0-5.7,2.6-5.7,6v10.9h-2.8v-29.1h2.8v13.5c1.5-2.5,3.7-3.8,6.5-3.8
			c4.7,0,7.2,3.2,7.2,7.7v11.8h-2.8V285.1z"/>
		<path d="M596,296.6c-5.2,0-6.9-3.5-7.3-5.7l2.6-0.6c0.4,1.7,1.7,3.8,4.7,3.8c2.1,0,4-1.1,4-3.1c0-2.3-2.5-2.9-4.5-3.1
			c-3.2-0.5-6.3-1.6-6.3-5.3c0-3.6,3.3-5.7,6.4-5.7c5,0,6.7,3.4,6.9,5.2l-2.5,0.6c-0.3-1.3-1.4-3.4-4.4-3.4c-2.1,0-3.6,1.4-3.6,3
			c0,2.4,2.6,2.8,4.5,3c3.1,0.4,6.3,2,6.3,5.5C602.8,294.3,599.7,296.6,596,296.6z"/>
		<path d="M619.1,268.2c1.2,0,2.1,0.9,2.1,2.1c0,1.1-0.9,2.1-2.1,2.1c-1.1,0-2.1-0.9-2.1-2.1C617.1,269.1,618,268.2,619.1,268.2z
			 M620.6,277.1v19.1h-2.8v-19.1H620.6z"/>
		<path d="M640.6,285.1c0-3.4-1.8-5.8-5.3-5.8c-3.3,0-5.7,2.6-5.7,6v10.9h-2.8v-19.1h2.8v3.5c1.5-2.6,3.8-3.9,6.6-3.9
			c4.7,0,7.2,3.2,7.2,7.7v11.8h-2.8V285.1z"/>
		<path d="M662.2,280.9c1.4-3,4-4.1,6.2-4.1c0.2,0,0.7,0,0.9,0v3c-0.4,0-0.7-0.1-1.1-0.1c-4.5,0-6,3.7-6,7.1v9.3h-2.8v-19.1h2.8
			V280.9z"/>
		<path d="M673.8,287.6c0.2,3.7,3.1,6.5,6.8,6.5c2.8,0,5-1.4,5.9-4.1l2.5,0.8c-1.1,3.7-4.6,5.8-8.4,5.8c-5.5,0-9.7-4.4-9.7-9.9
			c0-5.2,3.9-9.8,9.3-9.8c5.9,0,9,4.2,9,9.8c0,0.3,0,0.6,0,0.9H673.8z M686.5,285.2c-0.4-3.5-2.5-5.9-6.2-5.9c-3.3,0-6,2.8-6.4,5.9
			H686.5z"/>
		<path d="M699.9,296.6c-5.2,0-6.9-3.5-7.3-5.7l2.6-0.6c0.4,1.7,1.7,3.8,4.7,3.8c2.1,0,4-1.1,4-3.1c0-2.3-2.5-2.9-4.5-3.1
			c-3.2-0.5-6.3-1.6-6.3-5.3c0-3.6,3.3-5.7,6.4-5.7c5,0,6.7,3.4,6.9,5.2l-2.5,0.6c-0.3-1.3-1.4-3.4-4.4-3.4c-2.1,0-3.6,1.4-3.6,3
			c0,2.4,2.6,2.8,4.5,3c3.1,0.4,6.3,2,6.3,5.5C706.7,294.3,703.6,296.6,699.9,296.6z"/>
		<path d="M721.8,296.5c-3.5,0-5.8-1.8-7.4-4.2v13.3h-2.8v-28.5h2.8v4.2c1.5-2.4,3.8-4.5,7.4-4.5c5.4,0,9,4.9,9,9.8
			C730.8,291.8,727.2,296.5,721.8,296.5z M727.9,286.7c0-4-2.5-7.4-6.7-7.4c-3.9,0-6.8,3.5-6.8,7.3c0,3.9,2.8,7.4,6.8,7.4
			C725.5,294.1,727.9,290.8,727.9,286.7z"/>
		<path d="M734.3,286.8c0-5.7,4.3-9.9,9.9-9.9c5.5,0,9.8,4.3,9.8,9.8c0,5.7-4.3,9.9-9.9,9.9C738.6,296.6,734.3,292.2,734.3,286.8z
			 M751.2,286.8c0-4-2.9-7.5-7-7.5s-7,3.4-7,7.4c0,4,2.9,7.5,7,7.5C748.3,294.1,751.2,290.7,751.2,286.8z"/>
		<path d="M772.8,285.1c0-3.4-1.8-5.8-5.3-5.8c-3.3,0-5.7,2.6-5.7,6v10.9H759v-19.1h2.8v3.5c1.5-2.6,3.8-3.9,6.6-3.9
			c4.7,0,7.2,3.2,7.2,7.7v11.8h-2.8V285.1z"/>
		<path d="M787.4,296.6c-5.2,0-6.9-3.5-7.3-5.7l2.6-0.6c0.4,1.7,1.7,3.8,4.7,3.8c2.1,0,4-1.1,4-3.1c0-2.3-2.5-2.9-4.5-3.1
			c-3.2-0.5-6.3-1.6-6.3-5.3c0-3.6,3.3-5.7,6.4-5.7c5,0,6.7,3.4,6.9,5.2l-2.5,0.6c-0.3-1.3-1.4-3.4-4.4-3.4c-2.1,0-3.6,1.4-3.6,3
			c0,2.4,2.6,2.8,4.5,3c3.1,0.4,6.3,2,6.3,5.5C794.2,294.3,791.1,296.6,787.4,296.6z"/>
		<path d="M800.6,287.6c0.2,3.7,3.1,6.5,6.8,6.5c2.8,0,5-1.4,5.9-4.1l2.5,0.8c-1.1,3.7-4.6,5.8-8.4,5.8c-5.5,0-9.7-4.4-9.7-9.9
			c0-5.2,3.9-9.8,9.3-9.8c5.9,0,9,4.2,9,9.8c0,0.3,0,0.6,0,0.9H800.6z M813.2,285.2c-0.4-3.5-2.5-5.9-6.2-5.9c-3.3,0-6,2.8-6.4,5.9
			H813.2z"/>
		<path d="M832.1,291.3v-11.7h-3.5v-2.5h3.5v-5.5h2.8v5.5h4.8v2.5h-4.8v11.6c0,1.7,1,2.7,3.1,2.7c0.6,0,1.3,0,1.7-0.1v2.3
			c-0.6,0.2-1.7,0.3-2.2,0.3C833.4,296.4,832.1,294.1,832.1,291.3z"/>
		<path d="M842.6,286.8c0-5.7,4.3-9.9,9.9-9.9c5.5,0,9.8,4.3,9.8,9.8c0,5.7-4.3,9.9-9.9,9.9C846.9,296.6,842.6,292.2,842.6,286.8z
			 M859.5,286.8c0-4-2.9-7.5-7-7.5c-4.2,0-7,3.4-7,7.4c0,4,2.9,7.5,7,7.5C856.6,294.1,859.5,290.7,859.5,286.8z"/>
		<path d="M885.7,294.1c4.2,0,5.8-3.1,6.4-4.6l2.6,0.9c-0.9,2.9-4,6.2-9,6.2c-5.5,0-9.7-4.1-9.7-9.8c0-5.8,4.5-9.9,9.9-9.9
			c4.4,0,8,2.9,8.8,6.1l-2.6,0.8c-0.4-1.5-2.3-4.4-6.3-4.4c-4.1,0-6.9,3.3-6.9,7.3S881.3,294.1,885.7,294.1z"/>
		<path d="M904.9,295l-8.7-17.8h3.2l7,14.8l6.6-14.8h3L903,305.7h-3L904.9,295z"/>
		<path d="M930,296.5c-3.6,0-5.9-1.8-7.4-4.3v4h-2.8v-29.1h2.8v14.1c1.6-2.4,3.8-4.4,7.4-4.4c5.4,0,9,4.9,9,9.8
			C939,291.8,935.5,296.5,930,296.5z M936.1,286.7c0-4-2.5-7.4-6.7-7.4c-3.9,0-6.8,3.5-6.8,7.3c0,3.9,2.8,7.4,6.8,7.4
			C933.7,294.1,936.1,290.8,936.1,286.7z"/>
		<path d="M945.4,287.6c0.2,3.7,3.1,6.5,6.8,6.5c2.8,0,5-1.4,5.9-4.1l2.5,0.8c-1.1,3.7-4.6,5.8-8.4,5.8c-5.5,0-9.7-4.4-9.7-9.9
			c0-5.2,3.9-9.8,9.3-9.8c5.9,0,9,4.2,9,9.8c0,0.3,0,0.6,0,0.9H945.4z M958,285.2c-0.4-3.5-2.5-5.9-6.2-5.9c-3.3,0-6,2.8-6.4,5.9
			H958z"/>
		<path d="M968.4,280.9c1.4-3,4-4.1,6.2-4.1c0.2,0,0.7,0,0.9,0v3c-0.4,0-0.7-0.1-1.1-0.1c-4.5,0-6,3.7-6,7.1v9.3h-2.8v-19.1h2.8
			V280.9z"/>
		<path d="M989.4,291.3v-11.7h-3.5v-2.5h3.5v-5.5h2.8v5.5h4.8v2.5h-4.8v11.6c0,1.7,1,2.7,3.1,2.7c0.6,0,1.3,0,1.7-0.1v2.3
			c-0.6,0.2-1.7,0.3-2.2,0.3C990.7,296.4,989.4,294.1,989.4,291.3z"/>
		<path d="M1015.5,285.1c0-3.4-1.8-5.8-5.3-5.8c-3.3,0-5.7,2.6-5.7,6v10.9h-2.8v-29.1h2.8v13.5c1.5-2.5,3.7-3.8,6.5-3.8
			c4.7,0,7.2,3.2,7.2,7.7v11.8h-2.8V285.1z"/>
		<path d="M1027.1,280.9c1.4-3,4-4.1,6.2-4.1c0.2,0,0.7,0,0.9,0v3c-0.4,0-0.7-0.1-1.1-0.1c-4.5,0-6,3.7-6,7.1v9.3h-2.8v-19.1h2.8
			V280.9z"/>
		<path d="M1038.7,287.6c0.2,3.7,3.1,6.5,6.8,6.5c2.8,0,5-1.4,5.9-4.1l2.5,0.8c-1.1,3.7-4.6,5.8-8.4,5.8c-5.5,0-9.7-4.4-9.7-9.9
			c0-5.2,3.9-9.8,9.3-9.8c5.9,0,9,4.2,9,9.8c0,0.3,0,0.6,0,0.9H1038.7z M1051.4,285.2c-0.4-3.5-2.5-5.9-6.2-5.9
			c-3.3,0-6,2.8-6.4,5.9H1051.4z"/>
		<path d="M1070.5,283.9c0-3.1-1.7-4.7-4.9-4.7c-3.2,0-4.7,2.1-5,3.9l-2.7-0.6c0.1-1.6,2.3-5.8,7.8-5.8c4,0,6,1.8,7,3.9
			c0.4,1,0.6,2.5,0.6,3.1v12.3h-2.7v-3.4h0c-1.5,2.4-3.6,3.7-6.4,3.7c-3.9,0-6.4-2.4-6.4-5.6v-0.2c0-4.2,4.2-5.5,7.5-5.5h5.3V283.9z
			 M1065.2,287.5c-2,0-4.7,0.6-4.7,3.2c0,2.1,1.8,3.4,4.1,3.4c3.4,0,5.9-2.4,5.9-5.9v-0.7H1065.2z"/>
		<path d="M1080.4,291.3v-11.7h-3.5v-2.5h3.5v-5.5h2.8v5.5h4.8v2.5h-4.8v11.6c0,1.7,1,2.7,3.1,2.7c0.6,0,1.3,0,1.7-0.1v2.3
			c-0.6,0.2-1.7,0.3-2.2,0.3C1081.7,296.4,1080.4,294.1,1080.4,291.3z"/>
		<path d="M1098.5,296.6c-5.2,0-6.9-3.5-7.3-5.7l2.6-0.6c0.4,1.7,1.7,3.8,4.7,3.8c2.1,0,4-1.1,4-3.1c0-2.3-2.5-2.9-4.5-3.1
			c-3.2-0.5-6.3-1.6-6.3-5.3c0-3.6,3.3-5.7,6.4-5.7c5,0,6.7,3.4,6.9,5.2l-2.5,0.6c-0.3-1.3-1.4-3.4-4.4-3.4c-2.1,0-3.6,1.4-3.6,3
			c0,2.4,2.6,2.8,4.5,3c3.1,0.4,6.3,2,6.3,5.5C1105.3,294.3,1102.2,296.6,1098.5,296.6z"/>
		<path d="M1115,288.1c0-0.2,0-0.4,0-0.6c0-3.3,2-4.9,3.6-6.5c1.6-1.7,3.5-3.2,3.5-5.7c0-2.3-1.6-4.6-5.2-4.6
			c-3.6,0-5.6,2.6-5.4,6.1l-2.9-0.1c0-0.3,0-0.5,0-0.8c0-4.6,3.8-7.9,8.3-7.9c5,0,8.2,3.5,8.2,7.3c0,2.8-1.7,4.6-4.2,7.1
			c-1.8,1.8-3.1,3-3.2,5.8H1115z M1116.2,296.6c1.2,0,2.1-0.9,2.1-2.1c0-1.1-0.9-2.1-2.1-2.1c-1.1,0-2.1,0.9-2.1,2.1
			C1114.1,295.6,1115.1,296.6,1116.2,296.6z"/>
	</g>
</g>
<g>
	<g>
		<path d="M145,488c-4.7,0-8.2-3.6-8.2-8.3c0-4.7,3.5-8.4,8.2-8.4c4.7,0,8.2,3.6,8.2,8.3C153.2,484.3,149.7,488,145,488z M145,473
			c-3.8,0-6.4,3-6.4,6.7c0,3.7,2.7,6.8,6.5,6.8c3.8,0,6.4-3,6.4-6.7C151.4,476.1,148.8,473,145,473z"/>
		<path d="M159.7,487.9H158v-9.7h-2.1v-1.4h2.1v-2.1c0-2.6,1.4-3.8,3.4-3.8c0.3,0,0.8,0.1,1.2,0.2v1.4c-0.4-0.1-0.9-0.1-1.1-0.1
			c-0.8,0-1.9,0.5-1.9,2.4v2.1h5.1v-2.1c0-2.6,1.4-3.8,3.4-3.8c0.3,0,0.8,0.1,1.2,0.2v1.4c-0.4-0.1-0.9-0.1-1.1-0.1
			c-0.8,0-1.9,0.5-1.9,2.4v2.1h6.8v11.1h-1.6v-9.7h-5.1v9.7h-1.6v-9.7h-5.1V487.9z M172.4,471.5c0.7,0,1.2,0.5,1.2,1.2
			c0,0.7-0.5,1.2-1.2,1.2c-0.7,0-1.2-0.5-1.2-1.2C171.2,472,171.7,471.5,172.4,471.5z"/>
		<path d="M182.8,486.6c2.5,0,3.4-1.8,3.7-2.7l1.5,0.5c-0.5,1.7-2.3,3.6-5.3,3.6c-3.2,0-5.7-2.4-5.7-5.7c0-3.4,2.6-5.8,5.8-5.8
			c2.6,0,4.7,1.7,5.1,3.5l-1.5,0.5c-0.3-0.9-1.4-2.6-3.7-2.6c-2.4,0-4,1.9-4,4.3C178.8,484.6,180.3,486.6,182.8,486.6z"/>
		<path d="M192.6,471.5c0.7,0,1.2,0.5,1.2,1.2c0,0.7-0.5,1.2-1.2,1.2c-0.7,0-1.2-0.5-1.2-1.2C191.4,472,191.9,471.5,192.6,471.5z
			 M193.4,476.7v11.1h-1.6v-11.1H193.4z"/>
		<path d="M204.9,480.7c0-1.8-1-2.7-2.8-2.7c-1.9,0-2.7,1.2-2.9,2.3l-1.6-0.3c0.1-0.9,1.3-3.4,4.5-3.4c2.4,0,3.5,1.1,4.1,2.3
			c0.3,0.6,0.3,1.5,0.3,1.8v7.2h-1.6v-2h0c-0.9,1.4-2.1,2.1-3.8,2.1c-2.3,0-3.7-1.4-3.7-3.3v-0.1c0-2.4,2.4-3.2,4.4-3.2h3.1V480.7z
			 M201.8,482.8c-1.2,0-2.8,0.4-2.8,1.9c0,1.3,1.1,2,2.4,2c2,0,3.5-1.4,3.5-3.4v-0.4H201.8z"/>
		<path d="M212.7,470.9v17H211v-17H212.7z"/>
		<path d="M229.2,486.6c2.5,0,3.4-1.8,3.7-2.7l1.5,0.5c-0.5,1.7-2.3,3.6-5.3,3.6c-3.2,0-5.7-2.4-5.7-5.7c0-3.4,2.6-5.8,5.8-5.8
			c2.6,0,4.7,1.7,5.1,3.5l-1.5,0.5c-0.3-0.9-1.4-2.6-3.7-2.6c-2.4,0-4,1.9-4,4.3C225.1,484.6,226.6,486.6,229.2,486.6z"/>
		<path d="M241.4,487.1l-5.1-10.4h1.9l4.1,8.6l3.9-8.6h1.8l-7.6,16.6h-1.8L241.4,487.1z"/>
		<path d="M257.1,488c-2.1,0-3.4-1-4.3-2.5v2.3h-1.6v-17h1.6v8.2c0.9-1.4,2.2-2.6,4.3-2.6c3.2,0,5.2,2.8,5.2,5.7
			C262.4,485.3,260.3,488,257.1,488z M260.7,482.3c0-2.3-1.4-4.3-3.9-4.3c-2.3,0-4,2-4,4.3c0,2.3,1.6,4.3,4,4.3
			C259.3,486.6,260.7,484.7,260.7,482.3z"/>
		<path d="M267.1,482.8c0.1,2.2,1.8,3.8,4,3.8c1.6,0,2.9-0.8,3.4-2.4l1.5,0.5c-0.7,2.1-2.7,3.4-4.9,3.4c-3.2,0-5.7-2.6-5.7-5.8
			c0-3,2.3-5.7,5.4-5.7c3.4,0,5.3,2.5,5.3,5.7c0,0.2,0,0.4,0,0.5H267.1z M274.5,481.4c-0.2-2-1.5-3.5-3.6-3.5
			c-1.9,0-3.5,1.6-3.8,3.5H274.5z"/>
		<path d="M281.6,478.9c0.8-1.7,2.3-2.4,3.6-2.4c0.1,0,0.4,0,0.5,0v1.7c-0.2,0-0.4,0-0.6,0c-2.6,0-3.5,2.2-3.5,4.2v5.4H280v-11.1
			h1.6V478.9z"/>
		<path d="M125.5,513.1c-3,0-4-2-4.2-3.3l1.5-0.4c0.2,1,1,2.2,2.7,2.2c1.2,0,2.3-0.6,2.3-1.8c0-1.4-1.5-1.7-2.6-1.8
			c-1.9-0.3-3.7-0.9-3.7-3.1c0-2.1,1.9-3.3,3.7-3.3c2.9,0,3.9,2,4,3l-1.5,0.4c-0.2-0.8-0.8-2-2.6-2c-1.2,0-2.1,0.8-2.1,1.8
			c0,1.4,1.5,1.6,2.7,1.8c1.8,0.2,3.7,1.2,3.7,3.2C129.5,511.8,127.7,513.1,125.5,513.1z"/>
		<path d="M134.2,507.8c0.1,2.2,1.8,3.8,4,3.8c1.6,0,2.9-0.8,3.4-2.4l1.5,0.5c-0.7,2.1-2.7,3.4-4.9,3.4c-3.2,0-5.7-2.6-5.7-5.8
			c0-3,2.3-5.7,5.4-5.7c3.4,0,5.3,2.5,5.3,5.7c0,0.2,0,0.4,0,0.5H134.2z M141.6,506.5c-0.2-2-1.5-3.5-3.6-3.5
			c-1.9,0-3.5,1.6-3.8,3.5H141.6z"/>
		<path d="M152,511.7c2.5,0,3.4-1.8,3.7-2.7l1.5,0.5c-0.5,1.7-2.3,3.6-5.3,3.6c-3.2,0-5.7-2.4-5.7-5.7c0-3.4,2.6-5.8,5.8-5.8
			c2.6,0,4.7,1.7,5.1,3.5l-1.5,0.5c-0.3-0.9-1.4-2.6-3.7-2.6c-2.4,0-4,1.9-4,4.3C148,509.6,149.5,511.7,152,511.7z"/>
		<path d="M162.5,508.3c0,2,1,3.4,3.1,3.4c1.9,0,3.3-1.5,3.3-3.5v-6.4h1.6v11.1h-1.6v-2c-0.9,1.5-2.2,2.3-3.8,2.3
			c-2.7,0-4.2-1.9-4.2-4.5v-6.9h1.6V508.3z"/>
		<path d="M176.8,504c0.8-1.7,2.3-2.4,3.6-2.4c0.1,0,0.4,0,0.5,0v1.7c-0.2,0-0.4,0-0.6,0c-2.6,0-3.5,2.2-3.5,4.2v5.4h-1.6v-11.1h1.6
			V504z"/>
		<path d="M185,496.5c0.7,0,1.2,0.5,1.2,1.2c0,0.7-0.5,1.2-1.2,1.2c-0.7,0-1.2-0.5-1.2-1.2C183.8,497.1,184.3,496.5,185,496.5z
			 M185.8,501.8v11.1h-1.6v-11.1H185.8z"/>
		<path d="M191.3,510v-6.8h-2.1v-1.4h2.1v-3.2h1.6v3.2h2.8v1.4h-2.8v6.8c0,1,0.6,1.6,1.8,1.6c0.4,0,0.8,0,1-0.1v1.4
			c-0.3,0.1-1,0.2-1.3,0.2C192,513,191.3,511.7,191.3,510z"/>
		<path d="M203.2,512.2l-5.1-10.4h1.9l4.1,8.6l3.9-8.6h1.8l-7.6,16.6h-1.8L203.2,512.2z"/>
		<path d="M225.3,513.1c-2.1,0-3.4-1-4.3-2.5v7.8h-1.6v-16.6h1.6v2.4c0.9-1.4,2.2-2.6,4.3-2.6c3.2,0,5.2,2.8,5.2,5.7
			C230.6,510.3,228.5,513.1,225.3,513.1z M228.9,507.4c0-2.3-1.4-4.3-3.9-4.3c-2.3,0-4,2-4,4.3c0,2.3,1.6,4.3,4,4.3
			C227.5,511.6,228.9,509.7,228.9,507.4z"/>
		<path d="M233.7,507.4c0-3.3,2.5-5.8,5.8-5.8c3.2,0,5.7,2.5,5.7,5.7c0,3.3-2.5,5.8-5.8,5.8C236.2,513.1,233.7,510.6,233.7,507.4z
			 M243.5,507.4c0-2.3-1.7-4.4-4.1-4.4s-4.1,2-4.1,4.3s1.7,4.4,4.1,4.4C241.9,511.7,243.5,509.7,243.5,507.4z"/>
		<path d="M250.8,495.9v17h-1.6v-17H250.8z"/>
		<path d="M256.3,496.5c0.7,0,1.2,0.5,1.2,1.2c0,0.7-0.5,1.2-1.2,1.2c-0.7,0-1.2-0.5-1.2-1.2C255.1,497.1,255.6,496.5,256.3,496.5z
			 M257.1,501.8v11.1h-1.6v-11.1H257.1z"/>
		<path d="M266.7,511.7c2.5,0,3.4-1.8,3.7-2.7l1.5,0.5c-0.5,1.7-2.3,3.6-5.3,3.6c-3.2,0-5.7-2.4-5.7-5.7c0-3.4,2.6-5.8,5.8-5.8
			c2.6,0,4.7,1.7,5.1,3.5l-1.5,0.5c-0.3-0.9-1.4-2.6-3.7-2.6c-2.4,0-4,1.9-4,4.3C262.7,509.6,264.2,511.7,266.7,511.7z"/>
		<path d="M279,512.2l-5.1-10.4h1.9l4.1,8.6l3.9-8.6h1.8l-7.6,16.6h-1.8L279,512.2z"/>
	</g>
</g>
<g>
	<g>
		<path d="M348.5,431.9l-1.8,4.2H345l7.1-16.3h1.9L361,436h-1.8l-1.8-4.2H348.5z M349.2,430.3h7.6l-3.8-8.8L349.2,430.3z"/>
		<path d="M365.6,419v17H364v-17H365.6z"/>
		<path d="M372,419v17h-1.6v-17H372z"/>
		<path d="M389.5,436.2c-2.1,0-3.4-1-4.3-2.5v2.3h-1.6v-17h1.6v8.2c0.9-1.4,2.2-2.6,4.3-2.6c3.2,0,5.2,2.8,5.2,5.7
			C394.8,433.4,392.7,436.2,389.5,436.2z M393.1,430.5c0-2.3-1.4-4.3-3.9-4.3c-2.3,0-4,2-4,4.3c0,2.3,1.6,4.3,4,4.3
			C391.6,434.8,393.1,432.8,393.1,430.5z"/>
		<path d="M400.2,431.4c0,2,1,3.4,3.1,3.4c1.9,0,3.3-1.5,3.3-3.5v-6.4h1.6V436h-1.6v-2c-0.9,1.5-2.2,2.3-3.8,2.3
			c-2.7,0-4.2-1.9-4.2-4.5v-6.9h1.6V431.4z"/>
		<path d="M416.3,436.2c-3,0-4-2-4.2-3.3l1.5-0.4c0.2,1,1,2.2,2.7,2.2c1.2,0,2.3-0.6,2.3-1.8c0-1.4-1.5-1.7-2.6-1.8
			c-1.9-0.3-3.7-0.9-3.7-3.1c0-2.1,1.9-3.3,3.7-3.3c2.9,0,3.9,2,4,3l-1.5,0.4c-0.2-0.8-0.8-2-2.6-2c-1.2,0-2.1,0.8-2.1,1.8
			c0,1.4,1.5,1.6,2.7,1.8c1.8,0.2,3.7,1.2,3.7,3.2C420.3,434.9,418.5,436.2,416.3,436.2z"/>
		<path d="M425,419.7c0.7,0,1.2,0.5,1.2,1.2c0,0.7-0.5,1.2-1.2,1.2c-0.7,0-1.2-0.5-1.2-1.2C423.8,420.2,424.3,419.7,425,419.7z
			 M425.8,424.9V436h-1.6v-11.1H425.8z"/>
		<path d="M438.6,429.5c0-2-1-3.4-3.1-3.4c-1.9,0-3.3,1.5-3.3,3.5v6.3h-1.6v-11.1h1.6v2c0.9-1.5,2.2-2.3,3.8-2.3
			c2.7,0,4.2,1.9,4.2,4.5v6.9h-1.6V429.5z"/>
		<path d="M445.6,431c0.1,2.2,1.8,3.8,4,3.8c1.6,0,2.9-0.8,3.4-2.4l1.5,0.5c-0.7,2.1-2.7,3.4-4.9,3.4c-3.2,0-5.7-2.6-5.7-5.8
			c0-3,2.3-5.7,5.4-5.7c3.4,0,5.3,2.5,5.3,5.7c0,0.2,0,0.4,0,0.5H445.6z M453,429.6c-0.2-2-1.5-3.5-3.6-3.5c-1.9,0-3.5,1.6-3.8,3.5
			H453z"/>
		<path d="M461.9,436.2c-3,0-4-2-4.2-3.3l1.5-0.4c0.2,1,1,2.2,2.7,2.2c1.2,0,2.3-0.6,2.3-1.8c0-1.4-1.5-1.7-2.6-1.8
			c-1.9-0.3-3.7-0.9-3.7-3.1c0-2.1,1.9-3.3,3.7-3.3c2.9,0,3.9,2,4,3l-1.5,0.4c-0.2-0.8-0.8-2-2.6-2c-1.2,0-2.1,0.8-2.1,1.8
			c0,1.4,1.5,1.6,2.7,1.8c1.8,0.2,3.7,1.2,3.7,3.2C465.8,434.9,464.1,436.2,461.9,436.2z"/>
		<path d="M473.2,436.2c-3,0-4-2-4.2-3.3l1.5-0.4c0.2,1,1,2.2,2.7,2.2c1.2,0,2.3-0.6,2.3-1.8c0-1.4-1.5-1.7-2.6-1.8
			c-1.9-0.3-3.7-0.9-3.7-3.1c0-2.1,1.9-3.3,3.7-3.3c2.9,0,3.9,2,4,3l-1.5,0.4c-0.2-0.8-0.8-2-2.6-2c-1.2,0-2.1,0.8-2.1,1.8
			c0,1.4,1.5,1.6,2.7,1.8c1.8,0.2,3.7,1.2,3.7,3.2C477.1,434.9,475.3,436.2,473.2,436.2z"/>
		<path d="M491.3,436.2c-3,0-4-2-4.2-3.3l1.5-0.4c0.2,1,1,2.2,2.7,2.2c1.2,0,2.3-0.6,2.3-1.8c0-1.4-1.5-1.7-2.6-1.8
			c-1.9-0.3-3.7-0.9-3.7-3.1c0-2.1,1.9-3.3,3.7-3.3c2.9,0,3.9,2,4,3l-1.5,0.4c-0.2-0.8-0.8-2-2.6-2c-1.2,0-2.1,0.8-2.1,1.8
			c0,1.4,1.5,1.6,2.7,1.8c1.8,0.2,3.7,1.2,3.7,3.2C495.3,434.9,493.5,436.2,491.3,436.2z"/>
		<path d="M500,419.7c0.7,0,1.2,0.5,1.2,1.2c0,0.7-0.5,1.2-1.2,1.2c-0.7,0-1.2-0.5-1.2-1.2C498.8,420.2,499.4,419.7,500,419.7z
			 M500.9,424.9V436h-1.6v-11.1H500.9z"/>
		<path d="M513.6,436h-8.9v-1.4l7-8.3h-6.8v-1.4h8.7v1.4l-7,8.4h7V436z"/>
		<path d="M518,431c0.1,2.2,1.8,3.8,4,3.8c1.6,0,2.9-0.8,3.4-2.4l1.5,0.5c-0.7,2.1-2.7,3.4-4.9,3.4c-3.2,0-5.7-2.6-5.7-5.8
			c0-3,2.3-5.7,5.4-5.7c3.4,0,5.3,2.5,5.3,5.7c0,0.2,0,0.4,0,0.5H518z M525.4,429.6c-0.2-2-1.5-3.5-3.6-3.5c-1.9,0-3.5,1.6-3.8,3.5
			H525.4z"/>
		<path d="M534.3,436.2c-3,0-4-2-4.2-3.3l1.5-0.4c0.2,1,1,2.2,2.7,2.2c1.2,0,2.3-0.6,2.3-1.8c0-1.4-1.5-1.7-2.6-1.8
			c-1.9-0.3-3.7-0.9-3.7-3.1c0-2.1,1.9-3.3,3.7-3.3c2.9,0,3.9,2,4,3l-1.5,0.4c-0.2-0.8-0.8-2-2.6-2c-1.2,0-2.1,0.8-2.1,1.8
			c0,1.4,1.5,1.6,2.7,1.8c1.8,0.2,3.7,1.2,3.7,3.2C538.2,434.9,536.4,436.2,534.3,436.2z"/>
	</g>
</g>
<g>
	<g>
		<path d="M709,431.6l1.6-0.4c0.4,1.9,2.2,3.5,4.2,3.5c1.9,0,3.7-1,3.7-3c0-1.9-1.7-2.7-2.9-2.9l-2.2-0.4c-0.7-0.1-1.9-0.5-2.8-1.4
			c-0.7-0.6-1.1-1.6-1.1-2.8c0-2.8,2.5-4.6,5.2-4.6c3.5,0,5.1,2.2,5.4,3.9l-1.6,0.5c-0.3-1.1-1.3-2.8-3.9-2.8
			c-1.8,0-3.4,1.1-3.4,2.9c0,1.2,0.7,2.3,2.4,2.6l2.1,0.4c1.1,0.2,2.3,0.6,3.2,1.4c1.1,1,1.4,2.3,1.4,3c0,2.9-2.4,4.8-5.4,4.8
			C711.6,436.2,709.3,433.9,709,431.6z"/>
		<path d="M731.9,429.5c0-1.8-0.9-3.3-2.9-3.3c-1.9,0-3.1,1.7-3.1,3.5v6.3h-1.6v-11.1h1.6v1.9c0.9-1.4,1.9-2.1,3.6-2.1
			c1.6,0,2.9,0.8,3.6,2.2c0.9-1.4,2.2-2.2,3.9-2.2c2.7,0,4.1,1.9,4.1,4.4v6.9h-1.6v-6.5c0-1.9-0.8-3.4-2.9-3.4c-2,0-3.1,1.6-3.1,3.4
			v6.4h-1.6V429.5z"/>
		<path d="M752.4,428.8c0-1.8-1-2.7-2.8-2.7c-1.9,0-2.7,1.2-2.9,2.3l-1.6-0.3c0.1-0.9,1.3-3.4,4.5-3.4c2.4,0,3.5,1.1,4.1,2.3
			c0.3,0.6,0.3,1.5,0.3,1.8v7.2h-1.6v-2h0c-0.9,1.4-2.1,2.1-3.8,2.1c-2.3,0-3.7-1.4-3.7-3.3v-0.1c0-2.4,2.4-3.2,4.4-3.2h3.1V428.8z
			 M749.3,430.9c-1.2,0-2.8,0.4-2.8,1.9c0,1.3,1.1,2,2.4,2c2,0,3.5-1.4,3.5-3.4v-0.4H749.3z"/>
		<path d="M760.2,419v17h-1.6v-17H760.2z"/>
		<path d="M766.6,419v17h-1.6v-17H766.6z"/>
	</g>
</g>
<g>
	<g>
		<path d="M1007.4,436h-1.7v-14h0l-6.1,14h-1.5l-6-13.9V436h-1.7v-16.3h2.4l6.1,14l6.1-14h2.5V436z"/>
		<path d="M1013.4,431c0.1,2.2,1.8,3.8,4,3.8c1.6,0,2.9-0.8,3.4-2.4l1.5,0.5c-0.7,2.1-2.7,3.4-4.9,3.4c-3.2,0-5.7-2.6-5.7-5.8
			c0-3,2.3-5.7,5.4-5.7c3.4,0,5.3,2.5,5.3,5.7c0,0.2,0,0.4,0,0.5H1013.4z M1020.8,429.6c-0.2-2-1.5-3.5-3.6-3.5
			c-1.9,0-3.5,1.6-3.8,3.5H1020.8z"/>
		<path d="M1030.7,424.7c2.1,0,3.4,1.2,4.3,2.5V419h1.6v17h-1.6v-2.4c-0.9,1.4-2.2,2.5-4.3,2.5c-3.2,0-5.2-2.7-5.2-5.8
			C1025.5,427.5,1027.6,424.7,1030.7,424.7z M1035.1,430.4c0-2.2-1.7-4.3-4-4.3c-2.4,0-3.9,1.9-3.9,4.3c0,2.3,1.5,4.3,3.9,4.3
			C1033.4,434.8,1035.1,432.7,1035.1,430.4z"/>
		<path d="M1042.2,419.7c0.7,0,1.2,0.5,1.2,1.2c0,0.7-0.5,1.2-1.2,1.2c-0.7,0-1.2-0.5-1.2-1.2C1041,420.2,1041.5,419.7,1042.2,419.7
			z M1043,424.9V436h-1.6v-11.1H1043z"/>
		<path d="M1049.2,431.4c0,2,1,3.4,3.1,3.4c1.9,0,3.3-1.5,3.3-3.5v-6.4h1.6V436h-1.6v-2c-0.9,1.5-2.2,2.3-3.8,2.3
			c-2.7,0-4.2-1.9-4.2-4.5v-6.9h1.6V431.4z"/>
		<path d="M1069.6,429.5c0-1.8-0.9-3.3-2.9-3.3c-1.9,0-3.1,1.7-3.1,3.5v6.3h-1.6v-11.1h1.6v1.9c0.9-1.4,1.9-2.1,3.6-2.1
			c1.6,0,2.9,0.8,3.6,2.2c0.9-1.4,2.2-2.2,3.9-2.2c2.7,0,4.1,1.9,4.1,4.4v6.9h-1.6v-6.5c0-1.9-0.8-3.4-2.9-3.4c-2,0-3.1,1.6-3.1,3.4
			v6.4h-1.6V429.5z"/>
	</g>
</g>
<g>
	<g>
		<path d="M1303.2,419.7v14.7h7.7v1.6h-9.5v-16.3H1303.2z"/>
		<path d="M1321,428.8c0-1.8-1-2.7-2.8-2.7c-1.9,0-2.7,1.2-2.9,2.3l-1.6-0.3c0.1-0.9,1.3-3.4,4.5-3.4c2.4,0,3.5,1.1,4.1,2.3
			c0.3,0.6,0.3,1.5,0.3,1.8v7.2h-1.6v-2h0c-0.9,1.4-2.1,2.1-3.8,2.1c-2.3,0-3.7-1.4-3.7-3.3v-0.1c0-2.4,2.4-3.2,4.4-3.2h3.1V428.8z
			 M1317.9,430.9c-1.2,0-2.8,0.4-2.8,1.9c0,1.3,1.1,2,2.4,2c2,0,3.5-1.4,3.5-3.4v-0.4H1317.9z"/>
		<path d="M1328.7,427.1c0.8-1.7,2.3-2.4,3.6-2.4c0.1,0,0.4,0,0.5,0v1.7c-0.2,0-0.4,0-0.6,0c-2.6,0-3.5,2.2-3.5,4.2v5.4h-1.6v-11.1
			h1.6V427.1z"/>
		<path d="M1344.5,433.5c-0.9,1.4-2.2,2.5-4.3,2.5c-3.2,0-5.2-2.6-5.2-5.7c0-2.9,2.1-5.7,5.2-5.7c2.2,0,3.5,1.2,4.3,2.5v-2.3h1.6
			v11.2c0,3.6-2.2,5.5-5.6,5.5c-2.9,0-4.9-1.5-5.5-3.8l1.5-0.5c0.3,1.3,1.4,2.9,4,2.9c2.2,0,4-1.1,4-4V433.5z M1344.5,430.4
			c0-2.2-1.7-4.2-4-4.2c-2.4,0-3.9,1.9-3.9,4.3c0,2.3,1.4,4.2,3.9,4.2C1342.8,434.7,1344.5,432.6,1344.5,430.4z"/>
		<path d="M1351.6,431c0.1,2.2,1.8,3.8,4,3.8c1.6,0,2.9-0.8,3.4-2.4l1.5,0.5c-0.7,2.1-2.7,3.4-4.9,3.4c-3.2,0-5.7-2.6-5.7-5.8
			c0-3,2.3-5.7,5.4-5.7c3.4,0,5.3,2.5,5.3,5.7c0,0.2,0,0.4,0,0.5H1351.6z M1359,429.6c-0.2-2-1.5-3.5-3.6-3.5
			c-1.9,0-3.5,1.6-3.8,3.5H1359z"/>
	</g>
</g>
<g>
	<g>
		<path d="M78.4,570c-4.7,0-8.2-3.6-8.2-8.3c0-4.7,3.5-8.4,8.2-8.4c4.7,0,8.2,3.6,8.2,8.3C86.7,566.3,83.2,570,78.4,570z
			 M78.4,554.9c-3.8,0-6.4,3-6.4,6.7c0,3.7,2.7,6.8,6.5,6.8c3.8,0,6.4-3,6.4-6.7C84.9,558.1,82.2,554.9,78.4,554.9z"/>
		<path d="M98.7,563.4c0-2-1-3.4-3.1-3.4c-1.9,0-3.3,1.5-3.3,3.5v6.3h-1.6v-11.1h1.6v2c0.9-1.5,2.2-2.3,3.8-2.3
			c2.7,0,4.2,1.9,4.2,4.5v6.9h-1.6V563.4z"/>
		<path d="M113.7,567.4c-0.9,1.4-2.2,2.5-4.3,2.5c-3.2,0-5.2-2.6-5.2-5.7c0-2.9,2.1-5.7,5.2-5.7c2.2,0,3.5,1.2,4.3,2.5v-2.3h1.6
			v11.2c0,3.6-2.2,5.5-5.6,5.5c-2.9,0-4.9-1.5-5.5-3.8l1.5-0.5c0.3,1.3,1.4,2.9,4,2.9c2.1,0,4-1.1,4-4V567.4z M113.7,564.2
			c0-2.2-1.7-4.2-4-4.2c-2.4,0-3.9,1.9-3.9,4.3c0,2.3,1.4,4.2,3.9,4.2C112,568.5,113.7,566.5,113.7,564.2z"/>
		<path d="M119.2,564.3c0-3.3,2.5-5.8,5.8-5.8c3.2,0,5.7,2.5,5.7,5.7c0,3.3-2.5,5.8-5.8,5.8C121.7,570,119.2,567.5,119.2,564.3z
			 M129,564.3c0-2.3-1.7-4.4-4.1-4.4s-4.1,2-4.1,4.3s1.7,4.4,4.1,4.4C127.3,568.6,129,566.6,129,564.3z"/>
		<path d="M135.4,553.5c0.7,0,1.2,0.5,1.2,1.2c0,0.7-0.5,1.2-1.2,1.2c-0.7,0-1.2-0.5-1.2-1.2C134.2,554,134.8,553.5,135.4,553.5z
			 M136.3,558.7v11.1h-1.6v-11.1H136.3z"/>
		<path d="M149,563.4c0-2-1-3.4-3.1-3.4c-1.9,0-3.3,1.5-3.3,3.5v6.3H141v-11.1h1.6v2c0.9-1.5,2.2-2.3,3.8-2.3c2.7,0,4.2,1.9,4.2,4.5
			v6.9H149V563.4z"/>
		<path d="M164,567.4c-0.9,1.4-2.2,2.5-4.3,2.5c-3.2,0-5.2-2.6-5.2-5.7c0-2.9,2.1-5.7,5.2-5.7c2.2,0,3.5,1.2,4.3,2.5v-2.3h1.6v11.2
			c0,3.6-2.2,5.5-5.6,5.5c-2.9,0-4.9-1.5-5.5-3.8l1.5-0.5c0.3,1.3,1.4,2.9,4,2.9c2.1,0,4-1.1,4-4V567.4z M164,564.2
			c0-2.2-1.7-4.2-4-4.2c-2.4,0-3.9,1.9-3.9,4.3c0,2.3,1.4,4.2,3.9,4.2C162.3,568.5,164,566.5,164,564.2z"/>
		<path d="M178,564.8c0.1,2.2,1.8,3.8,4,3.8c1.6,0,2.9-0.8,3.4-2.4l1.5,0.5c-0.7,2.2-2.7,3.4-4.9,3.4c-3.2,0-5.7-2.6-5.7-5.8
			c0-3,2.3-5.7,5.4-5.7c3.4,0,5.3,2.5,5.3,5.7c0,0.2,0,0.4,0,0.5H178z M185.4,563.4c-0.2-2-1.5-3.5-3.6-3.5c-1.9,0-3.5,1.6-3.8,3.5
			H185.4z"/>
		<path d="M198.5,563.3c0-1.8-0.9-3.3-2.9-3.3c-1.9,0-3.1,1.7-3.1,3.5v6.3h-1.6v-11.1h1.6v1.9c0.9-1.4,1.9-2.2,3.6-2.2
			c1.6,0,2.9,0.8,3.6,2.2c0.9-1.4,2.2-2.2,3.9-2.2c2.7,0,4.1,1.9,4.1,4.4v6.9H206v-6.5c0-1.9-0.8-3.4-2.9-3.4c-2,0-3.1,1.6-3.1,3.4
			v6.4h-1.6V563.3z"/>
		<path d="M218.2,570c-2.1,0-3.4-1-4.3-2.5v7.8h-1.6v-16.6h1.6v2.4c0.9-1.4,2.2-2.6,4.3-2.6c3.2,0,5.2,2.8,5.2,5.7
			C223.4,567.3,221.4,570,218.2,570z M221.8,564.3c0-2.3-1.4-4.3-3.9-4.3c-2.3,0-4,2-4,4.3c0,2.3,1.6,4.3,4,4.3
			C220.3,568.6,221.8,566.7,221.8,564.3z"/>
		<path d="M229,552.8v17h-1.6v-17H229z"/>
		<path d="M232.9,564.3c0-3.3,2.5-5.8,5.8-5.8c3.2,0,5.7,2.5,5.7,5.7c0,3.3-2.5,5.8-5.8,5.8C235.4,570,232.9,567.5,232.9,564.3z
			 M242.8,564.3c0-2.3-1.7-4.4-4.1-4.4s-4.1,2-4.1,4.3s1.7,4.4,4.1,4.4C241.1,568.6,242.8,566.6,242.8,564.3z"/>
		<path d="M251.6,569.1l-5.1-10.4h1.9l4.1,8.6l3.9-8.6h1.8l-7.6,16.6h-1.8L251.6,569.1z"/>
		<path d="M261.8,564.8c0.1,2.2,1.8,3.8,4,3.8c1.6,0,2.9-0.8,3.4-2.4l1.5,0.5c-0.7,2.2-2.7,3.4-4.9,3.4c-3.2,0-5.7-2.6-5.7-5.8
			c0-3,2.3-5.7,5.4-5.7c3.4,0,5.3,2.5,5.3,5.7c0,0.2,0,0.4,0,0.5H261.8z M269.1,563.4c-0.2-2-1.5-3.5-3.6-3.5
			c-1.9,0-3.5,1.6-3.8,3.5H269.1z"/>
		<path d="M275.5,564.8c0.1,2.2,1.8,3.8,4,3.8c1.6,0,2.9-0.8,3.4-2.4l1.5,0.5c-0.7,2.2-2.7,3.4-4.9,3.4c-3.2,0-5.7-2.6-5.7-5.8
			c0-3,2.3-5.7,5.4-5.7c3.4,0,5.3,2.5,5.3,5.7c0,0.2,0,0.4,0,0.5H275.5z M282.9,563.4c-0.2-2-1.5-3.5-3.6-3.5
			c-1.9,0-3.5,1.6-3.8,3.5H282.9z"/>
		<path d="M84,587.7c0-1.8-1-2.7-2.8-2.7c-1.9,0-2.7,1.2-2.9,2.3l-1.6-0.3c0.1-0.9,1.3-3.4,4.5-3.4c2.4,0,3.5,1.1,4.1,2.3
			c0.3,0.6,0.3,1.5,0.3,1.8v7.2H84v-2h0c-0.9,1.4-2.1,2.1-3.8,2.1c-2.3,0-3.7-1.4-3.7-3.3v-0.1c0-2.4,2.4-3.2,4.4-3.2H84V587.7z
			 M80.9,589.8c-1.2,0-2.8,0.4-2.8,1.9c0,1.3,1.1,2,2.4,2c2,0,3.5-1.4,3.5-3.4v-0.4H80.9z"/>
		<path d="M92.6,594.9l-3.7-11.1h1.7l2.9,9.2h0l3-9.2h1.6l3,9.3h0l2.9-9.3h1.7l-3.8,11.1h-1.8l-2.9-9.1h0l-3,9.1H92.6z"/>
		<path d="M115.6,587.7c0-1.8-1-2.7-2.8-2.7c-1.9,0-2.7,1.2-2.9,2.3l-1.6-0.3c0.1-0.9,1.3-3.4,4.5-3.4c2.4,0,3.5,1.1,4.1,2.3
			c0.3,0.6,0.3,1.5,0.3,1.8v7.2h-1.6v-2h0c-0.9,1.4-2.1,2.1-3.8,2.1c-2.3,0-3.7-1.4-3.7-3.3v-0.1c0-2.4,2.4-3.2,4.4-3.2h3.1V587.7z
			 M112.5,589.8c-1.2,0-2.8,0.4-2.8,1.9c0,1.3,1.1,2,2.4,2c2,0,3.5-1.4,3.5-3.4v-0.4H112.5z"/>
		<path d="M123.4,586c0.8-1.7,2.3-2.4,3.6-2.4c0.1,0,0.4,0,0.5,0v1.7c-0.2,0-0.4,0-0.6,0c-2.6,0-3.5,2.2-3.5,4.2v5.4h-1.6v-11.1h1.6
			V586z"/>
		<path d="M131.2,589.8c0.1,2.2,1.8,3.8,4,3.8c1.6,0,2.9-0.8,3.4-2.4l1.5,0.5c-0.7,2.2-2.7,3.4-4.9,3.4c-3.2,0-5.7-2.6-5.7-5.8
			c0-3,2.3-5.7,5.4-5.7c3.4,0,5.3,2.5,5.3,5.7c0,0.2,0,0.4,0,0.5H131.2z M138.6,588.4c-0.2-2-1.5-3.5-3.6-3.5
			c-1.9,0-3.5,1.6-3.8,3.5H138.6z"/>
		<path d="M152.1,588.4c0-2-1-3.4-3.1-3.4c-1.9,0-3.3,1.5-3.3,3.5v6.3h-1.6v-11.1h1.6v2c0.9-1.5,2.2-2.3,3.8-2.3
			c2.7,0,4.2,1.9,4.2,4.5v6.9h-1.6V588.4z"/>
		<path d="M159.2,589.8c0.1,2.2,1.8,3.8,4,3.8c1.6,0,2.9-0.8,3.4-2.4l1.5,0.5c-0.7,2.2-2.7,3.4-4.9,3.4c-3.2,0-5.7-2.6-5.7-5.8
			c0-3,2.3-5.7,5.4-5.7c3.4,0,5.3,2.5,5.3,5.7c0,0.2,0,0.4,0,0.5H159.2z M166.6,588.4c-0.2-2-1.5-3.5-3.6-3.5
			c-1.9,0-3.5,1.6-3.8,3.5H166.6z"/>
		<path d="M175.4,595.1c-3,0-4-2-4.2-3.3l1.5-0.4c0.2,1,1,2.2,2.7,2.2c1.2,0,2.3-0.6,2.3-1.8c0-1.4-1.5-1.7-2.6-1.8
			c-1.9-0.3-3.7-0.9-3.7-3.1c0-2.1,1.9-3.3,3.7-3.3c2.9,0,3.9,2,4,3l-1.5,0.4c-0.2-0.8-0.8-2-2.6-2c-1.2,0-2.1,0.8-2.1,1.8
			c0,1.4,1.5,1.6,2.7,1.8c1.8,0.2,3.7,1.2,3.7,3.2C179.4,593.8,177.6,595.1,175.4,595.1z"/>
		<path d="M186.7,595.1c-3,0-4-2-4.2-3.3l1.5-0.4c0.2,1,1,2.2,2.7,2.2c1.2,0,2.3-0.6,2.3-1.8c0-1.4-1.5-1.7-2.6-1.8
			c-1.9-0.3-3.7-0.9-3.7-3.1c0-2.1,1.9-3.3,3.7-3.3c2.9,0,3.9,2,4,3l-1.5,0.4c-0.2-0.8-0.8-2-2.6-2c-1.2,0-2.1,0.8-2.1,1.8
			c0,1.4,1.5,1.6,2.7,1.8c1.8,0.2,3.7,1.2,3.7,3.2C190.7,593.8,188.9,595.1,186.7,595.1z"/>
		<path d="M202.2,592v-6.8h-2.1v-1.4h2.1v-3.2h1.6v3.2h2.8v1.4h-2.8v6.8c0,1,0.6,1.6,1.8,1.6c0.4,0,0.8,0,1-0.1v1.4
			c-0.3,0.1-1,0.2-1.3,0.2C203,595,202.2,593.6,202.2,592z"/>
		<path d="M212.1,586c0.8-1.7,2.3-2.4,3.6-2.4c0.1,0,0.4,0,0.5,0v1.7c-0.2,0-0.4,0-0.6,0c-2.6,0-3.5,2.2-3.5,4.2v5.4h-1.6v-11.1h1.6
			V586z"/>
		<path d="M225.9,587.7c0-1.8-1-2.7-2.8-2.7c-1.9,0-2.7,1.2-2.9,2.3l-1.6-0.3c0.1-0.9,1.3-3.4,4.5-3.4c2.4,0,3.5,1.1,4.1,2.3
			c0.3,0.6,0.3,1.5,0.3,1.8v7.2h-1.6v-2h0c-0.9,1.4-2.1,2.1-3.8,2.1c-2.3,0-3.7-1.4-3.7-3.3v-0.1c0-2.4,2.4-3.2,4.4-3.2h3.1V587.7z
			 M222.8,589.8c-1.2,0-2.8,0.4-2.8,1.9c0,1.3,1.1,2,2.4,2c2,0,3.5-1.4,3.5-3.4v-0.4H222.8z"/>
		<path d="M232.9,578.5c0.7,0,1.2,0.5,1.2,1.2c0,0.7-0.5,1.2-1.2,1.2c-0.7,0-1.2-0.5-1.2-1.2C231.7,579.1,232.2,578.5,232.9,578.5z
			 M233.7,583.7v11.1h-1.6v-11.1H233.7z"/>
		<path d="M246.5,588.4c0-2-1-3.4-3.1-3.4c-1.9,0-3.3,1.5-3.3,3.5v6.3h-1.6v-11.1h1.6v2c0.9-1.5,2.2-2.3,3.8-2.3
			c2.7,0,4.2,1.9,4.2,4.5v6.9h-1.6V588.4z"/>
		<path d="M253.5,578.5c0.7,0,1.2,0.5,1.2,1.2c0,0.7-0.5,1.2-1.2,1.2c-0.7,0-1.2-0.5-1.2-1.2C252.3,579.1,252.8,578.5,253.5,578.5z
			 M254.3,583.7v11.1h-1.6v-11.1H254.3z"/>
		<path d="M267.1,588.4c0-2-1-3.4-3.1-3.4c-1.9,0-3.3,1.5-3.3,3.5v6.3H259v-11.1h1.6v2c0.9-1.5,2.2-2.3,3.8-2.3
			c2.7,0,4.2,1.9,4.2,4.5v6.9h-1.6V588.4z"/>
		<path d="M282,592.4c-0.9,1.4-2.2,2.5-4.3,2.5c-3.2,0-5.2-2.6-5.2-5.7c0-2.9,2.1-5.7,5.2-5.7c2.2,0,3.5,1.2,4.3,2.5v-2.3h1.6v11.2
			c0,3.6-2.2,5.5-5.6,5.5c-2.9,0-4.9-1.5-5.5-3.8l1.5-0.5c0.3,1.3,1.4,2.9,4,2.9c2.1,0,4-1.1,4-4V592.4z M282,589.2
			c0-2.2-1.7-4.2-4-4.2c-2.4,0-3.9,1.9-3.9,4.3c0,2.3,1.4,4.2,3.9,4.2C280.4,593.5,282,591.5,282,589.2z"/>
	</g>
</g>
<g class="st3">
	
		<pattern  id="SVGID_9_" xlink:href="#Unnamed_Pattern_4" patternTransform="matrix(0 1.4906 -1.431 0 -29809.9668 4167.1172)"  class="st3">
	</pattern>
	<polygon class="st14" points="613.2,555 613.2,597.5 818.7,597.5 863.8,597.5 863.8,555 818.7,555 	"/>
</g>
<g>
	<polygon class="st10" points="613.2,555 613.2,597.5 646.1,597.5 653.3,597.5 653.3,555 646.1,555 	"/>
</g>
<g class="st3">
	
		<pattern  id="SVGID_10_" xlink:href="#Unnamed_Pattern_4" patternTransform="matrix(0 1.4906 -1.431 0 -29809.9668 4167.1172)"  class="st3">
	</pattern>
	<polygon class="st15" points="613.2,637 613.2,679.4 623.3,679.4 863.8,679.4 863.8,637 623.3,637 	"/>
</g>
<g>
	<polygon class="st10" points="613.2,637 613.2,679.4 613.5,679.4 620.8,679.4 620.8,637 613.5,637 	"/>
</g>
<g class="st3">
	
		<pattern  id="SVGID_11_" xlink:href="#Unnamed_Pattern_4" patternTransform="matrix(0 1.4906 -1.431 0 -29809.9668 4167.1172)"  class="st3">
	</pattern>
	<polygon class="st16" points="1245.5,637 1205.5,637 1205.5,679.4 1245.5,679.4 1456,679.4 1456,637 	"/>
</g>
<g>
	<polygon class="st17" points="1213.5,637 1205.5,637 1205.5,679.4 1213.5,679.4 1255.6,679.4 1255.6,637 	"/>
</g>
<g class="st3">
	
		<pattern  id="SVGID_12_" xlink:href="#Unnamed_Pattern_4" patternTransform="matrix(0 1.4906 -1.431 0 -29809.9668 4167.1172)"  class="st3">
	</pattern>
	<polygon class="st18" points="1225.5,473 1205.5,473 1205.5,515.5 1225.5,515.5 1456,515.5 1456,473 	"/>
</g>
<g>
	<polygon class="st17" points="1213.3,473 1205.5,473 1205.5,515.5 1213.3,515.5 1303.2,515.5 1303.2,473 	"/>
</g>
<g class="st3">
	
		<pattern  id="SVGID_13_" xlink:href="#Unnamed_Pattern_4" patternTransform="matrix(0 1.4906 -1.431 0 -29809.9668 4167.1172)"  class="st3">
	</pattern>
	<polygon class="st19" points="929.4,473 909.4,473 909.4,515.5 929.4,515.5 1159.9,515.5 1159.9,473 	"/>
</g>
<g class="st20">
	<polygon points="914.2,473 909.4,473 909.4,515.5 914.2,515.5 969.5,515.5 969.5,473 	"/>
</g>
<g class="st3">
	
		<pattern  id="SVGID_14_" xlink:href="#Unnamed_Pattern_4" patternTransform="matrix(0 1.4906 -1.431 0 -29809.9668 4167.1172)"  class="st3">
	</pattern>
	<polygon class="st21" points="1205.5,555 1205.5,597.5 1255.6,597.5 1456,597.5 1456,555 1255.6,555 	"/>
</g>
<g>
	<polygon class="st17" points="1205.5,555 1205.5,597.5 1229.5,597.5 1325.7,597.5 1325.7,555 1229.5,555 	"/>
</g>
<g>
	<g>
		<path class="st22" d="M395.7,501.2c0-2.2,1-4.5,4.3-6.6l2.8-1.8c1.8-1.1,3.3-2.2,3.3-4.4c0-1.9-1.7-3.7-4.1-3.7
			c-2.1,0-3.3,1.2-3.8,2.4c-0.3,0.8-0.4,1.6-0.4,1.8l-2-0.3c0-2.6,2.2-5.8,6.2-5.8c3.5,0,6.1,2.6,6.1,5.5c0,2.6-1.5,4.2-3.9,5.7
			l-2.9,1.8c-1.6,1-3.1,2.3-3.2,4h10.3v1.8h-12.6V501.2z"/>
		<path class="st22" d="M413.1,492.3c1.2-2,3.6-2.7,5.2-2.7c3.9,0,6.3,2.8,6.3,6c0,4.2-3.4,6.4-6.6,6.4c-2.1,0-4.5-1.2-5.6-3.1
			c-0.9-1.6-1.2-2.8-1.2-5.2c0-5.9,3.2-10.8,9.1-10.8c1,0,2.6,0.1,3.8,0.9l-0.7,1.8c-1-0.6-2.3-0.8-3.1-0.8
			C415.9,484.8,413.5,488.2,413.1,492.3z M414.8,492.5c-0.9,0.8-1.5,2-1.5,3.2c0,2.8,2.3,4.4,4.6,4.4c2.3,0,4.6-1.5,4.6-4.5
			c0-2.3-1.7-4.3-4.6-4.3C416.8,491.3,415.7,491.8,414.8,492.5z"/>
		<path class="st22" d="M428.8,494.7c-1.3,0-2.4-1.1-2.4-2.4c0-1.4,1.1-2.5,2.4-2.5c1.4,0,2.5,1.1,2.5,2.5
			C431.2,493.6,430.1,494.7,428.8,494.7z M428.8,490.7c-0.8,0-1.5,0.7-1.5,1.5c0,0.8,0.7,1.5,1.5,1.5c0.8,0,1.5-0.7,1.5-1.5
			C430.3,491.4,429.6,490.7,428.8,490.7z M434.8,489.9h1.1l-7.1,10.9h-1.1L434.8,489.9z M434.8,500.9c-1.4,0-2.5-1.1-2.5-2.4
			c0-1.4,1.1-2.5,2.5-2.5s2.5,1.1,2.5,2.5C437.3,499.8,436.2,500.9,434.8,500.9z M434.8,496.9c-0.8,0-1.5,0.7-1.5,1.5
			c0,0.8,0.7,1.5,1.5,1.5c0.8,0,1.5-0.7,1.5-1.5C436.3,497.5,435.6,496.9,434.8,496.9z"/>
	</g>
</g>
<g>
	<g>
		<path class="st22" d="M424,583.9c-3.3,0-6.1-2-6.4-5.1l1.9-0.4c0.3,2.1,2,3.7,4.6,3.7c2.5,0,4.5-1.4,4.5-3.5
			c0-2.1-1.6-3.5-4.5-3.5h-1.9v-1.8h1.8c2.6,0,4.1-1.6,4.1-3.4c0-1.9-1.4-3.3-4.1-3.3c-2.6,0-4,1.5-4.4,3.5l-1.9-0.4
			c0.3-2.6,2.8-4.9,6.2-4.9c4.1,0,6.1,2.5,6.1,4.9c0,2.1-1.2,3.5-3,4.3v0c2.1,0.6,3.4,2.3,3.4,4.5
			C430.5,581.5,427.9,583.9,424,583.9z"/>
		<path class="st22" d="M442.3,583.8v-4.5h-9.7v-2.1l9.2-12h2.5v12.5h3.1v1.7h-3.1v4.5H442.3z M442.3,577.6v-10.5l-8,10.5H442.3z"/>
		<path class="st22" d="M451.1,576.7c-1.3,0-2.4-1.1-2.4-2.4c0-1.4,1.1-2.5,2.4-2.5c1.4,0,2.5,1.1,2.5,2.5
			C453.6,575.6,452.5,576.7,451.1,576.7z M451.1,572.7c-0.8,0-1.5,0.7-1.5,1.5c0,0.8,0.7,1.5,1.5,1.5c0.8,0,1.5-0.7,1.5-1.5
			C452.7,573.4,452,572.7,451.1,572.7z M457.1,571.9h1.1l-7.1,10.9H450L457.1,571.9z M457.2,582.8c-1.4,0-2.5-1.1-2.5-2.4
			c0-1.4,1.1-2.5,2.5-2.5s2.5,1.1,2.5,2.5C459.6,581.7,458.5,582.8,457.2,582.8z M457.2,578.8c-0.8,0-1.5,0.7-1.5,1.5
			c0,0.8,0.7,1.5,1.5,1.5c0.8,0,1.5-0.7,1.5-1.5C458.7,579.5,458,578.8,457.2,578.8z"/>
	</g>
</g>
<g>
	<g>
		<path class="st10" d="M659.2,485.2l-4.5,2.7l-0.9-1.5l5.4-3.3h1.9v18.7h-2V485.2z"/>
		<path class="st10" d="M669.4,485.2l-4.5,2.7l-0.9-1.5l5.4-3.3h1.9v18.7h-2V485.2z"/>
		<path class="st10" d="M677,494.7c-1.3,0-2.4-1.1-2.4-2.4c0-1.4,1.1-2.5,2.4-2.5c1.4,0,2.5,1.1,2.5,2.5
			C679.4,493.6,678.3,494.7,677,494.7z M677,490.7c-0.8,0-1.5,0.7-1.5,1.5c0,0.8,0.7,1.5,1.5,1.5c0.8,0,1.5-0.7,1.5-1.5
			C678.5,491.4,677.8,490.7,677,490.7z M683,489.9h1.1l-7.1,10.9h-1.1L683,489.9z M683,500.9c-1.4,0-2.5-1.1-2.5-2.4
			c0-1.4,1.1-2.5,2.5-2.5s2.5,1.1,2.5,2.5C685.4,499.8,684.4,500.9,683,500.9z M683,496.9c-0.8,0-1.5,0.7-1.5,1.5
			c0,0.8,0.7,1.5,1.5,1.5c0.8,0,1.5-0.7,1.5-1.5C684.5,497.5,683.8,496.9,683,496.9z"/>
	</g>
</g>
<g>
	<g>
		<path class="st10" d="M669,567.2l-4.5,2.7l-0.9-1.5l5.4-3.3h1.9v18.7h-2V567.2z"/>
		<path class="st10" d="M676.9,574.3c1.2-2,3.6-2.7,5.2-2.7c3.9,0,6.3,2.8,6.3,6c0,4.2-3.4,6.4-6.6,6.4c-2.1,0-4.5-1.2-5.6-3.1
			c-0.9-1.6-1.2-2.8-1.2-5.2c0-5.9,3.2-10.8,9.1-10.8c1,0,2.6,0.1,3.8,0.9l-0.7,1.8c-1-0.6-2.3-0.8-3.1-0.8
			C679.8,566.7,677.3,570.1,676.9,574.3z M678.6,574.5c-0.9,0.8-1.5,2-1.5,3.2c0,2.8,2.3,4.4,4.6,4.4c2.3,0,4.6-1.5,4.6-4.5
			c0-2.3-1.7-4.3-4.6-4.3C680.6,573.3,679.5,573.8,678.6,574.5z"/>
		<path class="st10" d="M692.6,576.7c-1.3,0-2.4-1.1-2.4-2.4c0-1.4,1.1-2.5,2.4-2.5c1.4,0,2.5,1.1,2.5,2.5
			C695.1,575.6,694,576.7,692.6,576.7z M692.6,572.7c-0.8,0-1.5,0.7-1.5,1.5c0,0.8,0.7,1.5,1.5,1.5c0.8,0,1.5-0.7,1.5-1.5
			C694.1,573.4,693.4,572.7,692.6,572.7z M698.6,571.9h1.1l-7.1,10.9h-1.1L698.6,571.9z M698.6,582.8c-1.4,0-2.5-1.1-2.5-2.4
			c0-1.4,1.1-2.5,2.5-2.5s2.5,1.1,2.5,2.5C701.1,581.7,700,582.8,698.6,582.8z M698.6,578.8c-0.8,0-1.5,0.7-1.5,1.5
			c0,0.8,0.7,1.5,1.5,1.5c0.8,0,1.5-0.7,1.5-1.5C700.2,579.5,699.5,578.8,698.6,578.8z"/>
	</g>
</g>
<g>
	<g>
		<path class="st10" d="M639.3,667.7c-3.3,0-6.1-2-6.4-5.1l1.9-0.4c0.3,2.1,2,3.7,4.6,3.7c2.5,0,4.5-1.4,4.5-3.5
			c0-2.1-1.6-3.5-4.5-3.5h-1.9v-1.8h1.8c2.6,0,4.1-1.6,4.1-3.4c0-1.9-1.4-3.3-4.1-3.3c-2.6,0-4,1.5-4.4,3.5l-1.9-0.4
			c0.3-2.6,2.8-4.9,6.2-4.9c4.1,0,6.1,2.5,6.1,4.9c0,2.1-1.2,3.5-3,4.3v0c2.1,0.6,3.4,2.3,3.4,4.5
			C645.7,665.3,643.2,667.7,639.3,667.7z"/>
		<path class="st10" d="M650.1,660.5c-1.3,0-2.4-1.1-2.4-2.4c0-1.4,1.1-2.5,2.4-2.5c1.4,0,2.5,1.1,2.5,2.5
			C652.6,659.4,651.5,660.5,650.1,660.5z M650.1,656.5c-0.8,0-1.5,0.7-1.5,1.5c0,0.8,0.7,1.5,1.5,1.5c0.8,0,1.5-0.7,1.5-1.5
			C651.7,657.2,651,656.5,650.1,656.5z M656.1,655.7h1.1l-7.1,10.9H649L656.1,655.7z M656.1,666.7c-1.4,0-2.5-1.1-2.5-2.4
			c0-1.4,1.1-2.5,2.5-2.5s2.5,1.1,2.5,2.5C658.6,665.6,657.5,666.7,656.1,666.7z M656.1,662.7c-0.8,0-1.5,0.7-1.5,1.5
			c0,0.8,0.7,1.5,1.5,1.5c0.8,0,1.5-0.7,1.5-1.5C657.7,663.3,657,662.7,656.1,662.7z"/>
	</g>
</g>
<g>
	<g>
		<path class="st22" d="M363.3,651l-4.5,2.7l-0.9-1.5l5.4-3.3h1.9v18.7h-2V651z"/>
		<path class="st22" d="M373.5,651l-4.5,2.7l-0.9-1.5l5.4-3.3h1.9v18.7h-2V651z"/>
		<path class="st22" d="M381.1,660.5c-1.3,0-2.4-1.1-2.4-2.4c0-1.4,1.1-2.5,2.4-2.5c1.4,0,2.5,1.1,2.5,2.5
			C383.5,659.4,382.4,660.5,381.1,660.5z M381.1,656.5c-0.8,0-1.5,0.7-1.5,1.5c0,0.8,0.7,1.5,1.5,1.5c0.8,0,1.5-0.7,1.5-1.5
			C382.6,657.2,381.9,656.5,381.1,656.5z M387.1,655.7h1.1l-7.1,10.9H380L387.1,655.7z M387.1,666.7c-1.4,0-2.5-1.1-2.5-2.4
			c0-1.4,1.1-2.5,2.5-2.5s2.5,1.1,2.5,2.5C389.6,665.6,388.5,666.7,387.1,666.7z M387.1,662.7c-0.8,0-1.5,0.7-1.5,1.5
			c0,0.8,0.7,1.5,1.5,1.5c0.8,0,1.5-0.7,1.5-1.5C388.6,663.3,387.9,662.7,387.1,662.7z"/>
	</g>
</g>
<g>
	<g>
		<path d="M980.3,501.2c0-2.2,1-4.5,4.3-6.6l2.8-1.8c1.8-1.1,3.3-2.2,3.3-4.4c0-1.9-1.7-3.7-4.1-3.7c-2.1,0-3.3,1.2-3.8,2.4
			c-0.3,0.8-0.4,1.6-0.4,1.8l-2-0.3c0-2.6,2.2-5.8,6.2-5.8c3.5,0,6.1,2.6,6.1,5.5c0,2.6-1.5,4.2-3.9,5.7l-2.9,1.8
			c-1.6,1-3.1,2.3-3.2,4h10.3v1.8h-12.6V501.2z"/>
		<path d="M1004.3,501.8v-4.5h-9.7v-2.1l9.2-12h2.5v12.5h3.1v1.7h-3.1v4.5H1004.3z M1004.3,495.6v-10.5l-8,10.5H1004.3z"/>
		<path d="M1013.1,494.7c-1.3,0-2.4-1.1-2.4-2.4c0-1.4,1.1-2.5,2.4-2.5c1.4,0,2.5,1.1,2.5,2.5
			C1015.5,493.6,1014.4,494.7,1013.1,494.7z M1013.1,490.7c-0.8,0-1.5,0.7-1.5,1.5c0,0.8,0.7,1.5,1.5,1.5c0.8,0,1.5-0.7,1.5-1.5
			C1014.6,491.4,1013.9,490.7,1013.1,490.7z M1019.1,489.9h1.1l-7.1,10.9h-1.1L1019.1,489.9z M1019.1,500.9c-1.4,0-2.5-1.1-2.5-2.4
			c0-1.4,1.1-2.5,2.5-2.5s2.5,1.1,2.5,2.5C1021.6,499.8,1020.5,500.9,1019.1,500.9z M1019.1,496.9c-0.8,0-1.5,0.7-1.5,1.5
			c0,0.8,0.7,1.5,1.5,1.5s1.5-0.7,1.5-1.5C1020.7,497.5,1020,496.9,1019.1,496.9z"/>
	</g>
</g>
<g>
	<g>
		<path d="M1012.1,583.9c-3.3,0-6.1-2-6.4-5.1l1.9-0.4c0.3,2.1,2,3.7,4.6,3.7c2.5,0,4.5-1.4,4.5-3.5c0-2.1-1.6-3.5-4.5-3.5h-1.9
			v-1.8h1.8c2.6,0,4.2-1.6,4.2-3.4c0-1.9-1.4-3.3-4.1-3.3c-2.6,0-4,1.5-4.4,3.5l-1.9-0.4c0.3-2.6,2.8-4.9,6.2-4.9
			c4.1,0,6.1,2.5,6.1,4.9c0,2.1-1.2,3.5-3,4.3v0c2.1,0.6,3.4,2.3,3.4,4.5C1018.6,581.5,1016,583.9,1012.1,583.9z"/>
		<path d="M1027.6,583.9c-3.3,0-6.1-2-6.4-5.1l1.9-0.4c0.3,2.1,2,3.7,4.6,3.7c2.5,0,4.5-1.4,4.5-3.5c0-2.1-1.6-3.5-4.5-3.5h-1.9
			v-1.8h1.8c2.6,0,4.2-1.6,4.2-3.4c0-1.9-1.4-3.3-4.1-3.3c-2.6,0-4,1.5-4.4,3.5l-1.9-0.4c0.3-2.6,2.8-4.9,6.2-4.9
			c4.1,0,6.1,2.5,6.1,4.9c0,2.1-1.2,3.5-3,4.3v0c2.1,0.6,3.4,2.3,3.4,4.5C1034,581.5,1031.5,583.9,1027.6,583.9z"/>
		<path d="M1038.4,576.7c-1.3,0-2.4-1.1-2.4-2.4c0-1.4,1.1-2.5,2.4-2.5c1.4,0,2.5,1.1,2.5,2.5
			C1040.9,575.6,1039.8,576.7,1038.4,576.7z M1038.4,572.7c-0.8,0-1.5,0.7-1.5,1.5c0,0.8,0.7,1.5,1.5,1.5c0.8,0,1.5-0.7,1.5-1.5
			C1040,573.4,1039.3,572.7,1038.4,572.7z M1044.4,571.9h1.1l-7.1,10.9h-1.1L1044.4,571.9z M1044.5,582.8c-1.4,0-2.5-1.1-2.5-2.4
			c0-1.4,1.1-2.5,2.5-2.5s2.5,1.1,2.5,2.5C1046.9,581.7,1045.8,582.8,1044.5,582.8z M1044.5,578.8c-0.8,0-1.5,0.7-1.5,1.5
			c0,0.8,0.7,1.5,1.5,1.5s1.5-0.7,1.5-1.5C1046,579.5,1045.3,578.8,1044.5,578.8z"/>
	</g>
</g>
<g>
	<g>
		<path class="st17" d="M1319.3,501.9c-3.3,0-6.1-2-6.4-5.1l1.9-0.4c0.3,2.1,2,3.7,4.6,3.7c2.5,0,4.5-1.4,4.5-3.5s-1.6-3.5-4.5-3.5
			h-1.9v-1.8h1.8c2.6,0,4.2-1.6,4.2-3.4c0-1.9-1.4-3.3-4.1-3.3c-2.6,0-4,1.5-4.4,3.5l-1.9-0.4c0.3-2.6,2.8-4.9,6.2-4.9
			c4.1,0,6.1,2.5,6.1,4.9c0,2.1-1.2,3.5-3,4.3v0c2.1,0.6,3.4,2.3,3.4,4.5C1325.7,499.5,1323.2,501.9,1319.3,501.9z"/>
		<path class="st17" d="M1339.9,492.5c-1.3,2-3.7,2.8-5.3,2.8c-4,0-6.2-3-6.2-6c0-4.3,3.3-6.4,6.6-6.4c2.1,0,4.4,1.2,5.5,3.1
			c0.9,1.6,1.3,3.1,1.3,5.3c0,6.1-3,10.6-8.7,10.6c-1,0-3.1-0.3-4.3-1.1l0.7-1.8c1.2,0.8,2.7,1,3.5,1
			C1337.2,500.1,1339.6,496.8,1339.9,492.5z M1338.1,492.4c0.9-0.7,1.5-2,1.5-3.3c0-2.8-2.3-4.4-4.6-4.4c-2.4,0-4.6,1.5-4.6,4.5
			c0,2.3,1.7,4.4,4.6,4.4C1336.1,493.6,1337.2,493.2,1338.1,492.4z"/>
		<path class="st17" d="M1346.2,494.7c-1.3,0-2.4-1.1-2.4-2.4c0-1.4,1.1-2.5,2.4-2.5c1.4,0,2.5,1.1,2.5,2.5
			C1348.7,493.6,1347.6,494.7,1346.2,494.7z M1346.2,490.7c-0.8,0-1.5,0.7-1.5,1.5c0,0.8,0.7,1.5,1.5,1.5c0.8,0,1.5-0.7,1.5-1.5
			C1347.8,491.4,1347.1,490.7,1346.2,490.7z M1352.2,489.9h1.1l-7.1,10.9h-1.1L1352.2,489.9z M1352.3,500.9c-1.4,0-2.5-1.1-2.5-2.4
			c0-1.4,1.1-2.5,2.5-2.5s2.5,1.1,2.5,2.5C1354.7,499.8,1353.6,500.9,1352.3,500.9z M1352.3,496.9c-0.8,0-1.5,0.7-1.5,1.5
			c0,0.8,0.7,1.5,1.5,1.5s1.5-0.7,1.5-1.5C1353.8,497.5,1353.1,496.9,1352.3,496.9z"/>
	</g>
</g>
<g>
	<g>
		<path class="st17" d="M1344.6,583.8v-4.5h-9.7v-2.1l9.2-12h2.5v12.5h3.1v1.7h-3.1v4.5H1344.6z M1344.6,577.6v-10.5l-8,10.5H1344.6
			z"/>
		<path class="st17" d="M1351.8,578.6c0-2,1.4-3.7,3.9-4.5c-2.3-0.7-3.5-2.7-3.5-4.3c0-3.2,3.4-5,6.1-5c2.8,0,6.1,1.6,6.1,5
			c0,1.8-1.3,3.6-3.5,4.3c2.6,0.7,3.9,2.6,3.9,4.5c0,3.4-3.3,5.3-6.6,5.3C1355.2,583.9,1351.8,582.2,1351.8,578.6z M1362.9,578.6
			c0-2.5-2.6-3.6-4.6-3.6c-2,0-4.6,1.1-4.6,3.6c0,2.5,2.6,3.6,4.6,3.6C1360.3,582.2,1362.9,581.1,1362.9,578.6z M1354.2,569.9
			c0,2.4,2.6,3.4,4.2,3.4c1.6,0,4.2-1.1,4.2-3.4c0-2.2-2.4-3.3-4.2-3.3C1356.6,566.7,1354.2,567.8,1354.2,569.9z"/>
		<path class="st17" d="M1369.3,576.7c-1.3,0-2.4-1.1-2.4-2.4c0-1.4,1.1-2.5,2.4-2.5c1.4,0,2.5,1.1,2.5,2.5
			C1371.8,575.6,1370.7,576.7,1369.3,576.7z M1369.3,572.7c-0.8,0-1.5,0.7-1.5,1.5c0,0.8,0.7,1.5,1.5,1.5c0.8,0,1.5-0.7,1.5-1.5
			C1370.9,573.4,1370.2,572.7,1369.3,572.7z M1375.3,571.9h1.1l-7.1,10.9h-1.1L1375.3,571.9z M1375.4,582.8c-1.4,0-2.5-1.1-2.5-2.4
			c0-1.4,1.1-2.5,2.5-2.5s2.5,1.1,2.5,2.5C1377.8,581.7,1376.7,582.8,1375.4,582.8z M1375.4,578.8c-0.8,0-1.5,0.7-1.5,1.5
			c0,0.8,0.7,1.5,1.5,1.5s1.5-0.7,1.5-1.5C1376.9,579.5,1376.2,578.8,1375.4,578.8z"/>
	</g>
</g>
<g>
	<g>
		<path class="st17" d="M1267.7,667c0-2.2,1-4.5,4.3-6.6l2.8-1.8c1.8-1.1,3.3-2.2,3.3-4.4c0-1.9-1.7-3.7-4.1-3.7
			c-2.1,0-3.3,1.2-3.8,2.4c-0.3,0.8-0.4,1.5-0.4,1.8l-2-0.3c0-2.6,2.2-5.8,6.2-5.8c3.5,0,6.1,2.6,6.1,5.5c0,2.6-1.5,4.2-3.9,5.7
			l-2.9,1.8c-1.6,1-3.1,2.3-3.2,4h10.3v1.8h-12.6V667z"/>
		<path class="st17" d="M1283.1,658.3c0-4.6,2.6-9.6,7.8-9.6c5.1,0,7.7,4.9,7.7,9.5s-2.6,9.6-7.8,9.6
			C1285.7,667.8,1283.1,662.9,1283.1,658.3z M1285.1,658.2c0,3.4,1.7,7.8,5.7,7.8c4,0,5.7-4.3,5.7-7.7s-1.7-7.8-5.8-7.8
			C1286.8,650.5,1285.1,654.8,1285.1,658.2z"/>
		<path class="st17" d="M1303,660.5c-1.3,0-2.4-1.1-2.4-2.4c0-1.4,1.1-2.5,2.4-2.5c1.4,0,2.5,1.1,2.5,2.5
			C1305.5,659.4,1304.4,660.5,1303,660.5z M1303,656.5c-0.8,0-1.5,0.7-1.5,1.5c0,0.8,0.7,1.5,1.5,1.5c0.8,0,1.5-0.7,1.5-1.5
			C1304.5,657.2,1303.8,656.5,1303,656.5z M1309,655.7h1.1l-7.1,10.9h-1.1L1309,655.7z M1309,666.7c-1.4,0-2.5-1.1-2.5-2.4
			c0-1.4,1.1-2.5,2.5-2.5s2.5,1.1,2.5,2.5C1311.5,665.6,1310.4,666.7,1309,666.7z M1309,662.7c-0.8,0-1.5,0.7-1.5,1.5
			c0,0.8,0.7,1.5,1.5,1.5s1.5-0.7,1.5-1.5C1310.6,663.3,1309.9,662.7,1309,662.7z"/>
	</g>
</g>
<g>
	<g>
		<path d="M45.1,643.7c0-5,3.8-8.4,8.2-8.4s6.7,3.1,7.3,5.4l-1.6,0.6c-0.3-1.1-1.6-4.3-5.7-4.3c-3.5,0-6.4,2.7-6.4,6.7
			c0,3.9,2.7,6.8,6.4,6.8c3.9,0,5.3-3,5.7-4.4l1.6,0.6c-0.6,2-2.7,5.4-7.5,5.4C48.8,652,45.1,648.6,45.1,643.7z"/>
		<path d="M65.2,646.8c0.1,2.2,1.8,3.8,4,3.8c1.6,0,2.9-0.8,3.4-2.4l1.5,0.5c-0.7,2.2-2.7,3.4-4.9,3.4c-3.2,0-5.7-2.6-5.7-5.8
			c0-3,2.3-5.7,5.4-5.7c3.4,0,5.3,2.5,5.3,5.7c0,0.2,0,0.4,0,0.5H65.2z M72.6,645.4c-0.2-2-1.5-3.5-3.6-3.5c-1.9,0-3.5,1.6-3.8,3.5
			H72.6z"/>
		<path d="M79.7,642.9c0.8-1.7,2.3-2.4,3.6-2.4c0.1,0,0.4,0,0.5,0v1.7c-0.2,0-0.4,0-0.6,0c-2.6,0-3.5,2.2-3.5,4.2v5.4h-1.6v-11.1
			h1.6V642.9z"/>
		<path d="M87.8,649v-6.8h-2.1v-1.4h2.1v-3.2h1.6v3.2h2.8v1.4h-2.8v6.8c0,1,0.6,1.6,1.8,1.6c0.4,0,0.8,0,1-0.1v1.4
			c-0.3,0.1-1,0.2-1.3,0.2C88.6,651.9,87.8,650.6,87.8,649z"/>
		<path d="M96.9,635.5c0.7,0,1.2,0.5,1.2,1.2c0,0.7-0.5,1.2-1.2,1.2c-0.7,0-1.2-0.5-1.2-1.2C95.6,636,96.2,635.5,96.9,635.5z
			 M97.7,640.7v11.1H96v-11.1H97.7z"/>
		<path d="M101.1,640.7h2.1v-2.1c0-2.6,1.4-3.8,3.4-3.8c0.3,0,0.8,0.1,1.2,0.2v1.4c-0.4-0.1-0.9-0.1-1.2-0.1c-0.8,0-1.9,0.5-1.9,2.4
			v2.1h6.8v11.1H110v-9.7h-5.1v9.7h-1.6v-9.7h-2.1V640.7z M110.8,635.5c0.7,0,1.2,0.5,1.2,1.2c0,0.7-0.5,1.2-1.2,1.2
			c-0.7,0-1.2-0.5-1.2-1.2C109.6,636,110.1,635.5,110.8,635.5z"/>
		<path d="M121.2,650.6c2.5,0,3.4-1.8,3.7-2.7l1.5,0.5c-0.5,1.7-2.3,3.6-5.3,3.6c-3.2,0-5.7-2.4-5.7-5.7c0-3.4,2.6-5.8,5.8-5.8
			c2.6,0,4.7,1.7,5.1,3.5l-1.5,0.5c-0.3-0.9-1.4-2.6-3.7-2.6c-2.4,0-4,1.9-4,4.3C117.2,648.5,118.7,650.6,121.2,650.6z"/>
		<path d="M136.9,644.7c0-1.8-1-2.7-2.8-2.7c-1.9,0-2.7,1.2-2.9,2.3l-1.6-0.3c0.1-0.9,1.3-3.4,4.5-3.4c2.4,0,3.5,1.1,4.1,2.3
			c0.3,0.6,0.3,1.5,0.3,1.8v7.2H137v-2h0c-0.9,1.4-2.1,2.1-3.8,2.1c-2.3,0-3.7-1.4-3.7-3.3v-0.1c0-2.4,2.4-3.2,4.4-3.2h3.1V644.7z
			 M133.8,646.7c-1.2,0-2.8,0.4-2.8,1.9c0,1.3,1.1,2,2.4,2c2,0,3.5-1.4,3.5-3.4v-0.4H133.8z"/>
		<path d="M143.8,649v-6.8h-2.1v-1.4h2.1v-3.2h1.6v3.2h2.8v1.4h-2.8v6.8c0,1,0.6,1.6,1.8,1.6c0.4,0,0.8,0,1-0.1v1.4
			c-0.3,0.1-1,0.2-1.3,0.2C144.5,651.9,143.8,650.6,143.8,649z"/>
		<path d="M152.8,635.5c0.7,0,1.2,0.5,1.2,1.2c0,0.7-0.5,1.2-1.2,1.2c-0.7,0-1.2-0.5-1.2-1.2C151.6,636,152.1,635.5,152.8,635.5z
			 M153.6,640.7v11.1H152v-11.1H153.6z"/>
		<path d="M157.5,646.3c0-3.3,2.5-5.8,5.8-5.8c3.2,0,5.7,2.5,5.7,5.7c0,3.3-2.5,5.8-5.8,5.8C160,652,157.5,649.5,157.5,646.3z
			 M167.4,646.3c0-2.3-1.7-4.4-4.1-4.4s-4.1,2-4.1,4.3s1.7,4.4,4.1,4.4C165.7,650.6,167.4,648.6,167.4,646.3z"/>
		<path d="M181,645.3c0-2-1-3.4-3.1-3.4c-1.9,0-3.3,1.5-3.3,3.5v6.3H173v-11.1h1.6v2c0.9-1.5,2.2-2.3,3.8-2.3c2.7,0,4.2,1.9,4.2,4.5
			v6.9H181V645.3z"/>
		<path d="M194.8,649v-6.8h-2.1v-1.4h2.1v-3.2h1.6v3.2h2.8v1.4h-2.8v6.8c0,1,0.6,1.6,1.8,1.6c0.4,0,0.8,0,1-0.1v1.4
			c-0.3,0.1-1,0.2-1.3,0.2C195.5,651.9,194.8,650.6,194.8,649z"/>
		<path d="M202,646.3c0-3.3,2.5-5.8,5.8-5.8c3.2,0,5.7,2.5,5.7,5.7c0,3.3-2.5,5.8-5.8,5.8C204.5,652,202,649.5,202,646.3z
			 M211.8,646.3c0-2.3-1.7-4.4-4.1-4.4s-4.1,2-4.1,4.3s1.7,4.4,4.1,4.4C210.2,650.6,211.8,648.6,211.8,646.3z"/>
		<path d="M229.2,650.6c2.5,0,3.4-1.8,3.7-2.7l1.5,0.5c-0.5,1.7-2.3,3.6-5.3,3.6c-3.2,0-5.7-2.4-5.7-5.7c0-3.4,2.6-5.8,5.8-5.8
			c2.6,0,4.7,1.7,5.1,3.5l-1.5,0.5c-0.3-0.9-1.4-2.6-3.7-2.6c-2.4,0-4,1.9-4,4.3C225.1,648.5,226.6,650.6,229.2,650.6z"/>
		<path d="M241.4,651.1l-5.1-10.4h1.9l4.1,8.6l3.9-8.6h1.8l-7.6,16.6h-1.8L241.4,651.1z"/>
		<path d="M257.1,652c-2.1,0-3.4-1-4.3-2.5v2.3h-1.6v-17h1.6v8.2c0.9-1.4,2.2-2.6,4.3-2.6c3.2,0,5.2,2.8,5.2,5.7
			C262.4,649.2,260.3,652,257.1,652z M260.7,646.3c0-2.3-1.4-4.3-3.9-4.3c-2.3,0-4,2-4,4.3c0,2.3,1.6,4.3,4,4.3
			C259.3,650.6,260.7,648.6,260.7,646.3z"/>
		<path d="M267.1,646.8c0.1,2.2,1.8,3.8,4,3.8c1.6,0,2.9-0.8,3.4-2.4l1.5,0.5c-0.7,2.2-2.7,3.4-4.9,3.4c-3.2,0-5.7-2.6-5.7-5.8
			c0-3,2.3-5.7,5.4-5.7c3.4,0,5.3,2.5,5.3,5.7c0,0.2,0,0.4,0,0.5H267.1z M274.5,645.4c-0.2-2-1.5-3.5-3.6-3.5
			c-1.9,0-3.5,1.6-3.8,3.5H274.5z"/>
		<path d="M281.6,642.9c0.8-1.7,2.3-2.4,3.6-2.4c0.1,0,0.4,0,0.5,0v1.7c-0.2,0-0.4,0-0.6,0c-2.6,0-3.5,2.2-3.5,4.2v5.4H280v-11.1
			h1.6V642.9z"/>
		<path d="M68.2,669.7c0-1.8-1-2.7-2.8-2.7c-1.9,0-2.7,1.2-2.9,2.3l-1.6-0.3c0.1-0.9,1.3-3.4,4.5-3.4c2.4,0,3.5,1.1,4.1,2.3
			c0.3,0.6,0.3,1.5,0.3,1.8v7.2h-1.6v-2h0c-0.9,1.4-2.1,2.1-3.8,2.1c-2.3,0-3.7-1.4-3.7-3.3v-0.1c0-2.4,2.4-3.2,4.4-3.2h3.1V669.7z
			 M65.1,671.8c-1.2,0-2.8,0.4-2.8,1.9c0,1.3,1.1,2,2.4,2c2,0,3.5-1.4,3.5-3.4v-0.4H65.1z"/>
		<path d="M76.8,676.9l-3.7-11.1h1.7l2.9,9.2h0l3-9.2h1.6l3,9.3h0l2.9-9.3h1.7l-3.8,11.1h-1.8l-2.9-9.1h0l-3,9.1H76.8z"/>
		<path d="M99.9,669.7c0-1.8-1-2.7-2.8-2.7c-1.9,0-2.7,1.2-2.9,2.3l-1.6-0.3c0.1-0.9,1.3-3.4,4.5-3.4c2.4,0,3.5,1.1,4.1,2.3
			c0.3,0.6,0.3,1.5,0.3,1.8v7.2h-1.6v-2h0c-0.9,1.4-2.1,2.1-3.8,2.1c-2.3,0-3.7-1.4-3.7-3.3v-0.1c0-2.4,2.4-3.2,4.4-3.2h3.1V669.7z
			 M96.8,671.8c-1.2,0-2.8,0.4-2.8,1.9c0,1.3,1.1,2,2.4,2c2,0,3.5-1.4,3.5-3.4v-0.4H96.8z"/>
		<path d="M107.7,667.9c0.8-1.7,2.3-2.4,3.6-2.4c0.1,0,0.4,0,0.5,0v1.7c-0.2,0-0.4,0-0.6,0c-2.6,0-3.5,2.2-3.5,4.2v5.4h-1.6v-11.1
			h1.6V667.9z"/>
		<path d="M115.5,671.8c0.1,2.2,1.8,3.8,4,3.8c1.6,0,2.9-0.8,3.4-2.4l1.5,0.5c-0.7,2.2-2.7,3.4-4.9,3.4c-3.2,0-5.7-2.6-5.7-5.8
			c0-3,2.3-5.7,5.4-5.7c3.4,0,5.3,2.5,5.3,5.7c0,0.2,0,0.4,0,0.5H115.5z M122.9,670.4c-0.2-2-1.5-3.5-3.6-3.5
			c-1.9,0-3.5,1.6-3.8,3.5H122.9z"/>
		<path d="M136.4,670.4c0-2-1-3.4-3.1-3.4c-1.9,0-3.3,1.5-3.3,3.5v6.3h-1.6v-11.1h1.6v2c0.9-1.5,2.2-2.3,3.8-2.3
			c2.7,0,4.2,1.9,4.2,4.5v6.9h-1.6V670.4z"/>
		<path d="M143.5,671.8c0.1,2.2,1.8,3.8,4,3.8c1.6,0,2.9-0.8,3.4-2.4l1.5,0.5c-0.7,2.2-2.7,3.4-4.9,3.4c-3.2,0-5.7-2.6-5.7-5.8
			c0-3,2.3-5.7,5.4-5.7c3.4,0,5.3,2.5,5.3,5.7c0,0.2,0,0.4,0,0.5H143.5z M150.8,670.4c-0.2-2-1.5-3.5-3.6-3.5
			c-1.9,0-3.5,1.6-3.8,3.5H150.8z"/>
		<path d="M159.7,677.1c-3,0-4-2-4.2-3.3l1.5-0.4c0.2,1,1,2.2,2.7,2.2c1.2,0,2.3-0.6,2.3-1.8c0-1.4-1.5-1.7-2.6-1.8
			c-1.9-0.3-3.7-0.9-3.7-3.1c0-2.1,1.9-3.3,3.7-3.3c2.9,0,3.9,2,4,3l-1.5,0.4c-0.2-0.8-0.8-2-2.6-2c-1.2,0-2.1,0.8-2.1,1.8
			c0,1.4,1.5,1.6,2.7,1.8c1.8,0.2,3.7,1.2,3.7,3.2C163.7,675.8,161.9,677.1,159.7,677.1z"/>
		<path d="M171,677.1c-3,0-4-2-4.2-3.3l1.5-0.4c0.2,1,1,2.2,2.7,2.2c1.2,0,2.3-0.6,2.3-1.8c0-1.4-1.5-1.7-2.6-1.8
			c-1.9-0.3-3.7-0.9-3.7-3.1c0-2.1,1.9-3.3,3.7-3.3c2.9,0,3.9,2,4,3l-1.5,0.4c-0.2-0.8-0.8-2-2.6-2c-1.2,0-2.1,0.8-2.1,1.8
			c0,1.4,1.5,1.6,2.7,1.8c1.8,0.2,3.7,1.2,3.7,3.2C175,675.8,173.2,677.1,171,677.1z"/>
		<path d="M193.8,670.4c0-2-1-3.4-3.1-3.4c-1.9,0-3.3,1.5-3.3,3.5v6.3h-1.6v-11.1h1.6v2c0.9-1.5,2.2-2.3,3.8-2.3
			c2.7,0,4.2,1.9,4.2,4.5v6.9h-1.6V670.4z"/>
		<path d="M200.8,671.8c0.1,2.2,1.8,3.8,4,3.8c1.6,0,2.9-0.8,3.4-2.4l1.5,0.5c-0.7,2.2-2.7,3.4-4.9,3.4c-3.2,0-5.7-2.6-5.7-5.8
			c0-3,2.3-5.7,5.4-5.7c3.4,0,5.3,2.5,5.3,5.7c0,0.2,0,0.4,0,0.5H200.8z M208.2,670.4c-0.2-2-1.5-3.5-3.6-3.5
			c-1.9,0-3.5,1.6-3.8,3.5H208.2z"/>
		<path d="M214.3,674v-6.8h-2.1v-1.4h2.1v-3.2h1.6v3.2h2.8v1.4h-2.8v6.8c0,1,0.6,1.6,1.8,1.6c0.4,0,0.8,0,1-0.1v1.4
			c-0.3,0.1-1,0.2-1.3,0.2C215,677,214.3,675.6,214.3,674z"/>
		<path d="M224.9,676.9l-3.7-11.1h1.7l2.9,9.2h0l3-9.2h1.6l3,9.3h0l2.9-9.3h1.7l-3.8,11.1h-1.8l-2.9-9.1h0l-3,9.1H224.9z"/>
		<path d="M240.6,671.3c0-3.3,2.5-5.8,5.8-5.8c3.2,0,5.7,2.5,5.7,5.7c0,3.3-2.5,5.8-5.8,5.8C243.1,677.1,240.6,674.5,240.6,671.3z
			 M250.4,671.3c0-2.3-1.7-4.4-4.1-4.4s-4.1,2-4.1,4.3s1.7,4.4,4.1,4.4C248.7,675.6,250.4,673.7,250.4,671.3z"/>
		<path d="M257.6,667.9c0.8-1.7,2.3-2.4,3.6-2.4c0.1,0,0.4,0,0.5,0v1.7c-0.2,0-0.4,0-0.6,0c-2.6,0-3.5,2.2-3.5,4.2v5.4H256v-11.1
			h1.6V667.9z"/>
		<path d="M266.6,676.9H265v-17h1.6v10.4l5.3-4.5h2.3l-5.9,5l6.1,6.1h-2.3l-5.6-5.6h-0.1V676.9z"/>
		<path d="M280.5,677.1c-3,0-4-2-4.2-3.3l1.5-0.4c0.2,1,1,2.2,2.7,2.2c1.2,0,2.3-0.6,2.3-1.8c0-1.4-1.5-1.7-2.6-1.8
			c-1.9-0.3-3.7-0.9-3.7-3.1c0-2.1,1.9-3.3,3.7-3.3c2.9,0,3.9,2,4,3l-1.5,0.4c-0.2-0.8-0.8-2-2.6-2c-1.2,0-2.1,0.8-2.1,1.8
			c0,1.4,1.5,1.6,2.7,1.8c1.8,0.2,3.7,1.2,3.7,3.2C284.4,675.8,282.6,677.1,280.5,677.1z"/>
	</g>
</g>
<g>
	<g>
		<path d="M144.4,725.8c0-5,3.8-8.4,8.2-8.4s6.7,3.1,7.3,5.4l-1.6,0.6c-0.3-1.1-1.6-4.3-5.7-4.3c-3.5,0-6.4,2.7-6.4,6.7
			c0,3.9,2.7,6.8,6.4,6.8c3.9,0,5.3-3,5.7-4.4l1.6,0.6c-0.6,2-2.7,5.4-7.5,5.4C148,734.1,144.4,730.7,144.4,725.8z"/>
		<path d="M167.3,733.1l-5.1-10.4h1.9l4.1,8.6l3.9-8.6h1.8l-7.6,16.6h-1.8L167.3,733.1z"/>
		<path d="M183,734.1c-2.1,0-3.4-1-4.3-2.5v2.3h-1.6v-17h1.6v8.2c0.9-1.4,2.2-2.6,4.3-2.6c3.2,0,5.2,2.8,5.2,5.7
			C188.2,731.3,186.2,734.1,183,734.1z M186.6,728.3c0-2.3-1.4-4.3-3.9-4.3c-2.3,0-4,2-4,4.3c0,2.3,1.6,4.3,4,4.3
			C185.1,732.6,186.6,730.7,186.6,728.3z"/>
		<path d="M193,728.8c0.1,2.2,1.8,3.8,4,3.8c1.6,0,2.9-0.8,3.4-2.4l1.5,0.5c-0.7,2.2-2.7,3.4-4.9,3.4c-3.2,0-5.7-2.6-5.7-5.8
			c0-3,2.3-5.7,5.4-5.7c3.4,0,5.3,2.5,5.3,5.7c0,0.2,0,0.4,0,0.5H193z M200.4,727.4c-0.2-2-1.5-3.5-3.6-3.5c-1.9,0-3.5,1.6-3.8,3.5
			H200.4z"/>
		<path d="M207.5,725c0.8-1.7,2.3-2.4,3.6-2.4c0.1,0,0.4,0,0.5,0v1.7c-0.2,0-0.4,0-0.6,0c-2.6,0-3.5,2.2-3.5,4.2v5.4h-1.6v-11.1h1.6
			V725z"/>
		<path d="M221.8,731v-6.8h-2.1v-1.4h2.1v-3.2h1.6v3.2h2.8v1.4h-2.8v6.8c0,1,0.6,1.6,1.8,1.6c0.4,0,0.8,0,1-0.1v1.4
			c-0.3,0.1-1,0.2-1.3,0.2C222.6,734,221.8,732.6,221.8,731z"/>
		<path d="M238.1,727.4c0-2-1-3.4-3.1-3.4c-1.9,0-3.3,1.5-3.3,3.5v6.3h-1.6v-17h1.6v7.8c0.9-1.5,2.2-2.2,3.8-2.2
			c2.7,0,4.2,1.9,4.2,4.5v6.9h-1.6V727.4z"/>
		<path d="M245.9,725c0.8-1.7,2.3-2.4,3.6-2.4c0.1,0,0.4,0,0.5,0v1.7c-0.2,0-0.4,0-0.6,0c-2.6,0-3.5,2.2-3.5,4.2v5.4h-1.6v-11.1h1.6
			V725z"/>
		<path d="M253.7,728.8c0.1,2.2,1.8,3.8,4,3.8c1.6,0,2.9-0.8,3.4-2.4l1.5,0.5c-0.7,2.2-2.7,3.4-4.9,3.4c-3.2,0-5.7-2.6-5.7-5.8
			c0-3,2.3-5.7,5.4-5.7c3.4,0,5.3,2.5,5.3,5.7c0,0.2,0,0.4,0,0.5H253.7z M261.1,727.4c-0.2-2-1.5-3.5-3.6-3.5
			c-1.9,0-3.5,1.6-3.8,3.5H261.1z"/>
		<path d="M273.3,726.7c0-1.8-1-2.7-2.8-2.7c-1.9,0-2.7,1.2-2.9,2.3l-1.6-0.3c0.1-0.9,1.3-3.4,4.5-3.4c2.4,0,3.5,1.1,4.1,2.3
			c0.3,0.6,0.3,1.5,0.3,1.8v7.2h-1.6v-2h0c-0.9,1.4-2.1,2.1-3.8,2.1c-2.3,0-3.7-1.4-3.7-3.3v-0.1c0-2.4,2.4-3.2,4.4-3.2h3.1V726.7z
			 M270.2,728.8c-1.2,0-2.8,0.4-2.8,1.9c0,1.3,1.1,2,2.4,2c2,0,3.5-1.4,3.5-3.4v-0.4H270.2z"/>
		<path d="M280.1,731v-6.8h-2.1v-1.4h2.1v-3.2h1.6v3.2h2.8v1.4h-2.8v6.8c0,1,0.6,1.6,1.8,1.6c0.4,0,0.8,0,1-0.1v1.4
			c-0.3,0.1-1,0.2-1.3,0.2C280.9,734,280.1,732.6,280.1,731z"/>
		<path d="M67.2,752.4c0-1.8-0.9-3.3-2.9-3.3c-1.9,0-3.1,1.7-3.1,3.5v6.3h-1.6v-11.1h1.6v1.9c0.9-1.4,1.9-2.2,3.6-2.2
			c1.6,0,2.9,0.8,3.6,2.2c0.9-1.4,2.2-2.2,3.9-2.2c2.7,0,4.1,1.9,4.1,4.4v6.9h-1.6v-6.5c0-1.9-0.8-3.4-2.9-3.4c-2,0-3.1,1.6-3.1,3.4
			v6.4h-1.6V752.4z"/>
		<path d="M80.2,753.4c0-3.3,2.5-5.8,5.8-5.8c3.2,0,5.7,2.5,5.7,5.7c0,3.3-2.5,5.8-5.8,5.8C82.7,759.1,80.2,756.6,80.2,753.4z
			 M90.1,753.4c0-2.3-1.7-4.4-4.1-4.4s-4.1,2-4.1,4.3s1.7,4.4,4.1,4.4C88.4,757.7,90.1,755.7,90.1,753.4z"/>
		<path d="M103.7,752.4c0-2-1-3.4-3.1-3.4c-1.9,0-3.3,1.5-3.3,3.5v6.3h-1.6v-11.1h1.6v2c0.9-1.5,2.2-2.3,3.8-2.3
			c2.7,0,4.2,1.9,4.2,4.5v6.9h-1.6V752.4z"/>
		<path d="M110.7,742.6c0.7,0,1.2,0.5,1.2,1.2c0,0.7-0.5,1.2-1.2,1.2c-0.7,0-1.2-0.5-1.2-1.2C109.5,743.1,110,742.6,110.7,742.6z
			 M111.5,747.8v11.1h-1.6v-11.1H111.5z"/>
		<path d="M117,756v-6.8h-2.1v-1.4h2.1v-3.2h1.6v3.2h2.8v1.4h-2.8v6.8c0,1,0.6,1.6,1.8,1.6c0.4,0,0.8,0,1-0.1v1.4
			c-0.3,0.1-1,0.2-1.3,0.2C117.7,759,117,757.7,117,756z"/>
		<path d="M124.2,753.4c0-3.3,2.5-5.8,5.8-5.8c3.2,0,5.7,2.5,5.7,5.7c0,3.3-2.5,5.8-5.8,5.8C126.7,759.1,124.2,756.6,124.2,753.4z
			 M134,753.4c0-2.3-1.7-4.4-4.1-4.4s-4.1,2-4.1,4.3s1.7,4.4,4.1,4.4C132.3,757.7,134,755.7,134,753.4z"/>
		<path d="M141.2,750c0.8-1.7,2.3-2.4,3.6-2.4c0.1,0,0.4,0,0.5,0v1.7c-0.2,0-0.4,0-0.6,0c-2.6,0-3.5,2.2-3.5,4.2v5.4h-1.6v-11.1h1.6
			V750z"/>
		<path d="M149.4,742.6c0.7,0,1.2,0.5,1.2,1.2c0,0.7-0.5,1.2-1.2,1.2c-0.7,0-1.2-0.5-1.2-1.2C148.2,743.1,148.7,742.6,149.4,742.6z
			 M150.2,747.8v11.1h-1.6v-11.1H150.2z"/>
		<path d="M163,752.4c0-2-1-3.4-3.1-3.4c-1.9,0-3.3,1.5-3.3,3.5v6.3h-1.6v-11.1h1.6v2c0.9-1.5,2.2-2.3,3.8-2.3
			c2.7,0,4.2,1.9,4.2,4.5v6.9H163V752.4z"/>
		<path d="M177.9,756.4c-0.9,1.4-2.2,2.5-4.3,2.5c-3.2,0-5.2-2.6-5.2-5.7c0-2.9,2.1-5.7,5.2-5.7c2.2,0,3.5,1.2,4.3,2.5v-2.3h1.6V759
			c0,3.6-2.2,5.5-5.6,5.5c-2.9,0-4.9-1.5-5.5-3.8l1.5-0.5c0.3,1.3,1.4,2.9,4,2.9c2.1,0,4-1.1,4-4V756.4z M177.9,753.3
			c0-2.2-1.7-4.2-4-4.2c-2.4,0-3.9,1.9-3.9,4.3c0,2.3,1.4,4.2,3.9,4.2C176.3,757.5,177.9,755.5,177.9,753.3z"/>
		<path d="M194.5,759.1c-3,0-4-2-4.2-3.3l1.5-0.4c0.2,1,1,2.2,2.7,2.2c1.2,0,2.3-0.6,2.3-1.8c0-1.4-1.5-1.7-2.6-1.8
			c-1.9-0.3-3.7-0.9-3.7-3.1c0-2.1,1.9-3.3,3.7-3.3c2.9,0,3.9,2,4,3l-1.5,0.4c-0.2-0.8-0.8-2-2.6-2c-1.2,0-2.1,0.8-2.1,1.8
			c0,1.4,1.5,1.6,2.7,1.8c1.8,0.2,3.7,1.2,3.7,3.2C198.5,757.8,196.7,759.1,194.5,759.1z"/>
		<path d="M201.6,753.4c0-3.3,2.5-5.8,5.8-5.8c3.2,0,5.7,2.5,5.7,5.7c0,3.3-2.5,5.8-5.8,5.8C204.1,759.1,201.6,756.6,201.6,753.4z
			 M211.4,753.4c0-2.3-1.7-4.4-4.1-4.4s-4.1,2-4.1,4.3s1.7,4.4,4.1,4.4C209.8,757.7,211.4,755.7,211.4,753.4z"/>
		<path d="M219.3,745.7v2.1h2.9v1.4h-2.9v9.7h-1.6v-9.7h-2.1v-1.4h2.1v-2.1c0-2.6,1.4-3.8,3.4-3.8c0.3,0,0.8,0.1,1.2,0.2v1.4
			c-0.4-0.1-0.9-0.1-1.2-0.1C220.3,743.3,219.3,743.8,219.3,745.7z"/>
		<path d="M226.2,756v-6.8h-2.1v-1.4h2.1v-3.2h1.6v3.2h2.8v1.4h-2.8v6.8c0,1,0.6,1.6,1.8,1.6c0.4,0,0.8,0,1-0.1v1.4
			c-0.3,0.1-1,0.2-1.3,0.2C226.9,759,226.2,757.7,226.2,756z"/>
		<path d="M236.8,758.9l-3.7-11.1h1.7l2.9,9.2h0l3-9.2h1.6l3,9.3h0l2.9-9.3h1.7l-3.8,11.1h-1.8l-2.9-9.1h0l-3,9.1H236.8z"/>
		<path d="M259.9,751.7c0-1.8-1-2.7-2.8-2.7c-1.9,0-2.7,1.2-2.9,2.3l-1.6-0.3c0.1-0.9,1.3-3.4,4.5-3.4c2.4,0,3.5,1.1,4.1,2.3
			c0.3,0.6,0.3,1.5,0.3,1.8v7.2h-1.6v-2h0c-0.9,1.4-2.1,2.1-3.8,2.1c-2.3,0-3.7-1.4-3.7-3.3v-0.1c0-2.4,2.4-3.2,4.4-3.2h3.1V751.7z
			 M256.8,753.8c-1.2,0-2.8,0.4-2.8,1.9c0,1.3,1.1,2,2.4,2c2,0,3.5-1.4,3.5-3.4v-0.4H256.8z"/>
		<path d="M267.7,750c0.8-1.7,2.3-2.4,3.6-2.4c0.1,0,0.4,0,0.5,0v1.7c-0.2,0-0.4,0-0.6,0c-2.6,0-3.5,2.2-3.5,4.2v5.4h-1.6v-11.1h1.6
			V750z"/>
		<path d="M275.5,753.9c0.1,2.2,1.8,3.8,4,3.8c1.6,0,2.9-0.8,3.4-2.4l1.5,0.5c-0.7,2.2-2.7,3.4-4.9,3.4c-3.2,0-5.7-2.6-5.7-5.8
			c0-3,2.3-5.7,5.4-5.7c3.4,0,5.3,2.5,5.3,5.7c0,0.2,0,0.4,0,0.5H275.5z M282.9,752.5c-0.2-2-1.5-3.5-3.6-3.5
			c-1.9,0-3.5,1.6-3.8,3.5H282.9z"/>
	</g>
</g>
<g>
	<g>
		<path d="M240.6,812.3v16.3h-1.8l-9.8-13.9v13.9h-1.7v-16.3h2l9.6,13.7v-13.7H240.6z"/>
		<path d="M245,823.1c0-3.3,2.5-5.8,5.8-5.8c3.2,0,5.7,2.5,5.7,5.7c0,3.3-2.5,5.8-5.8,5.8C247.5,828.8,245,826.3,245,823.1z
			 M254.8,823.1c0-2.3-1.7-4.4-4.1-4.4s-4.1,2-4.1,4.3s1.7,4.4,4.1,4.4C253.1,827.4,254.8,825.4,254.8,823.1z"/>
		<path d="M268.4,822.1c0-2-1-3.4-3.1-3.4c-1.9,0-3.3,1.5-3.3,3.5v6.3h-1.6v-11.1h1.6v2c0.9-1.5,2.2-2.3,3.8-2.3
			c2.7,0,4.2,1.9,4.2,4.5v6.9h-1.6V822.1z"/>
		<path d="M275.5,823.5c0.1,2.2,1.8,3.8,4,3.8c1.6,0,2.9-0.8,3.4-2.4l1.5,0.5c-0.7,2.2-2.7,3.4-4.9,3.4c-3.2,0-5.7-2.6-5.7-5.8
			c0-3,2.3-5.7,5.4-5.7c3.4,0,5.3,2.5,5.3,5.7c0,0.2,0,0.4,0,0.5H275.5z M282.9,822.2c-0.2-2-1.5-3.5-3.6-3.5
			c-1.9,0-3.5,1.6-3.8,3.5H282.9z"/>
	</g>
</g>
<g class="st3">
	
		<pattern  id="SVGID_15_" xlink:href="#Unnamed_Pattern_4" patternTransform="matrix(0 1.4906 -1.431 0 -29809.9668 4167.1172)"  class="st3">
	</pattern>
	<polygon class="st23" points="613.2,719 613.2,761.5 818.7,761.5 863.8,761.5 863.8,719 818.7,719 	"/>
</g>
<g>
	<polygon class="st10" points="613.2,719 613.2,761.5 648.2,761.5 655.8,761.5 655.8,719 648.2,719 	"/>
</g>
<g class="st3">
	
		<pattern  id="SVGID_16_" xlink:href="#Unnamed_Pattern_4" patternTransform="matrix(0 1.4906 -1.431 0 -29809.9668 4167.1172)"  class="st3">
	</pattern>
	<polygon class="st24" points="613.2,801 613.2,843.5 623.3,843.5 863.8,843.5 863.8,801 623.3,801 	"/>
</g>
<g>
	<polygon class="st10" points="613.2,801 613.2,843.5 619.8,843.5 776.1,843.5 776.1,801 619.8,801 	"/>
</g>
<g class="st20">
	<polygon points="909.4,555 909.4,597.5 977.1,597.5 992,597.5 992,555 977.1,555 	"/>
</g>
<g class="st3">
	
		<pattern  id="SVGID_17_" xlink:href="#Unnamed_Pattern_4" patternTransform="matrix(0 1.4906 -1.431 0 -29809.9668 4167.1172)"  class="st3">
	</pattern>
	<polygon class="st25" points="909.4,637 909.4,679.4 919.4,679.4 1159.9,679.4 1159.9,637 919.4,637 	"/>
</g>
<g class="st20">
	<polygon points="909.4,637 909.4,679.4 910.2,679.4 929.4,679.4 929.4,637 910.2,637 	"/>
</g>
<g class="st3">
	
		<pattern  id="SVGID_18_" xlink:href="#Unnamed_Pattern_4" patternTransform="matrix(0 1.4906 -1.431 0 -29809.9668 4167.1172)"  class="st3">
	</pattern>
	<polygon class="st26" points="909.4,719 909.4,761.5 1114.8,761.5 1159.9,761.5 1159.9,719 1114.8,719 	"/>
</g>
<g class="st20">
	<polygon points="909.4,719 909.4,761.5 971,761.5 984.5,761.5 984.5,719 971,719 	"/>
</g>
<g class="st3">
	
		<pattern  id="SVGID_19_" xlink:href="#Unnamed_Pattern_4" patternTransform="matrix(0 1.4906 -1.431 0 -29809.9668 4167.1172)"  class="st3">
	</pattern>
	<polygon class="st27" points="909.4,801 909.4,843.5 919.4,843.5 1159.9,843.5 1159.9,801 919.4,801 	"/>
</g>
<g class="st20">
	<polygon points="909.4,801 909.4,843.5 912.7,843.5 992,843.5 992,801 912.7,801 	"/>
</g>
<g>
	<polygon class="st17" points="1205.5,719 1205.5,761.5 1275.3,761.5 1290.6,761.5 1290.6,719 1275.3,719 	"/>
</g>
<g class="st9">
	<polygon points="368,473 317.1,473 317.1,515.5 368,515.5 382.3,515.5 382.3,473 	"/>
</g>
<g class="st9">
	<polygon points="372.6,719 317.1,719 317.1,761.5 372.6,761.5 384.8,761.5 384.8,719 	"/>
</g>
<g class="st9">
	<polygon points="327.2,801 321.3,801 317.1,801 317.1,843.5 321.3,843.5 327.2,843.5 419.9,843.5 419.9,801 	"/>
</g>
<g class="st3">
	
		<pattern  id="SVGID_20_" xlink:href="#Unnamed_Pattern_4" patternTransform="matrix(0 1.4906 -1.431 0 -29809.9668 4167.1172)"  class="st3">
	</pattern>
	<polygon class="st28" points="1245.5,801 1205.5,801 1205.5,843.5 1245.5,843.5 1456,843.5 1456,801 	"/>
</g>
<g>
	<polygon class="st17" points="1215.5,801 1205.5,801 1205.5,843.5 1215.5,843.5 1268.1,843.5 1268.1,801 	"/>
</g>
<g>
	<g>
		<path class="st22" d="M399.2,749c0-2.2,1-4.5,4.3-6.6l2.8-1.8c1.8-1.1,3.3-2.2,3.3-4.4c0-1.9-1.7-3.7-4.1-3.7
			c-2.1,0-3.3,1.2-3.8,2.4c-0.3,0.8-0.4,1.5-0.4,1.8l-2-0.3c0-2.6,2.2-5.8,6.2-5.8c3.5,0,6.1,2.6,6.1,5.5c0,2.6-1.5,4.2-3.9,5.7
			l-2.9,1.8c-1.6,1-3.1,2.3-3.2,4h10.3v1.8h-12.6V749z"/>
		<path class="st22" d="M413.9,732.8v-1.8h12.7v1.8l-8.6,16.9h-2.2l8.7-16.9H413.9z"/>
		<path class="st22" d="M430.3,742.5c-1.3,0-2.4-1.1-2.4-2.4c0-1.4,1.1-2.5,2.4-2.5c1.4,0,2.5,1.1,2.5,2.5
			C432.7,741.4,431.6,742.5,430.3,742.5z M430.3,738.5c-0.8,0-1.5,0.7-1.5,1.5c0,0.8,0.7,1.5,1.5,1.5c0.8,0,1.5-0.7,1.5-1.5
			C431.8,739.2,431.1,738.5,430.3,738.5z M436.3,737.7h1.1l-7.1,10.9h-1.1L436.3,737.7z M436.3,748.7c-1.4,0-2.5-1.1-2.5-2.4
			c0-1.4,1.1-2.5,2.5-2.5s2.5,1.1,2.5,2.5C438.7,747.6,437.6,748.7,436.3,748.7z M436.3,744.7c-0.8,0-1.5,0.7-1.5,1.5
			c0,0.8,0.7,1.5,1.5,1.5c0.8,0,1.5-0.7,1.5-1.5C437.8,745.4,437.1,744.7,436.3,744.7z"/>
	</g>
</g>
<g>
	<g>
		<path class="st10" d="M672.5,733l-4.5,2.7l-0.9-1.5l5.4-3.3h1.9v18.7h-2V733z"/>
		<path class="st10" d="M677.7,732.8v-1.8h12.7v1.8l-8.6,16.9h-2.2l8.7-16.9H677.7z"/>
		<path class="st10" d="M694.1,742.5c-1.3,0-2.4-1.1-2.4-2.4c0-1.4,1.1-2.5,2.4-2.5c1.4,0,2.5,1.1,2.5,2.5
			C696.6,741.4,695.5,742.5,694.1,742.5z M694.1,738.5c-0.8,0-1.5,0.7-1.5,1.5c0,0.8,0.7,1.5,1.5,1.5c0.8,0,1.5-0.7,1.5-1.5
			C695.6,739.2,694.9,738.5,694.1,738.5z M700.1,737.7h1.1l-7.1,10.9H693L700.1,737.7z M700.1,748.7c-1.4,0-2.5-1.1-2.5-2.4
			c0-1.4,1.1-2.5,2.5-2.5s2.5,1.1,2.5,2.5C702.6,747.6,701.5,748.7,700.1,748.7z M700.1,744.7c-0.8,0-1.5,0.7-1.5,1.5
			c0,0.8,0.7,1.5,1.5,1.5c0.8,0,1.5-0.7,1.5-1.5C701.7,745.4,701,744.7,700.1,744.7z"/>
	</g>
</g>
<g>
	<g>
		<path class="st10" d="M785.2,822.2c1.2-2,3.6-2.7,5.2-2.7c3.9,0,6.3,2.8,6.3,6c0,4.2-3.4,6.4-6.6,6.4c-2.1,0-4.5-1.2-5.6-3.1
			c-0.9-1.6-1.2-2.8-1.2-5.2c0-5.9,3.2-10.8,9.1-10.8c1,0,2.6,0.1,3.8,0.9l-0.7,1.8c-1-0.6-2.3-0.8-3.1-0.8
			C788.1,814.6,785.7,818,785.2,822.2z M787,822.3c-0.9,0.8-1.5,2-1.5,3.2c0,2.8,2.3,4.4,4.6,4.4c2.3,0,4.6-1.5,4.6-4.5
			c0-2.3-1.7-4.3-4.6-4.3C789,821.2,787.8,821.6,787,822.3z"/>
		<path class="st10" d="M802.7,814.8l-1.1,6.3c1.2-1.2,3.2-1.5,4.1-1.5c3.5,0,6.1,2.3,6.1,6c0,4.1-3.3,6.1-6.5,6.1
			c-3.1,0-6-2-6.4-5.1l1.9-0.4c0.3,2.1,2.1,3.7,4.5,3.7c1.9,0,4.5-1.2,4.5-4.3s-2.3-4.3-4.5-4.3c-1.4,0-3,0.7-3.9,1.9l-1.8-0.7
			l1.6-9.6h9.8v1.8H802.7z"/>
		<path class="st10" d="M816.1,824.5c-1.3,0-2.4-1.1-2.4-2.4c0-1.4,1.1-2.5,2.4-2.5c1.4,0,2.5,1.1,2.5,2.5
			C818.5,823.4,817.4,824.5,816.1,824.5z M816.1,820.5c-0.8,0-1.5,0.7-1.5,1.5c0,0.8,0.7,1.5,1.5,1.5c0.8,0,1.5-0.7,1.5-1.5
			C817.6,821.2,816.9,820.5,816.1,820.5z M822.1,819.7h1.1l-7.1,10.9H815L822.1,819.7z M822.1,830.7c-1.4,0-2.5-1.1-2.5-2.4
			c0-1.4,1.1-2.5,2.5-2.5s2.5,1.1,2.5,2.5C824.6,829.6,823.5,830.7,822.1,830.7z M822.1,826.7c-0.8,0-1.5,0.7-1.5,1.5
			c0,0.8,0.7,1.5,1.5,1.5s1.5-0.7,1.5-1.5C823.6,827.4,822.9,826.7,822.1,826.7z"/>
	</g>
</g>
<g>
	<g>
		<path class="st22" d="M438.6,831.6v-4.5h-9.7V825l9.2-12h2.5v12.5h3.1v1.7h-3.1v4.5H438.6z M438.6,825.4V815l-8,10.5H438.6z"/>
		<path class="st22" d="M449.5,815l-4.5,2.7l-0.9-1.5l5.4-3.3h1.9v18.7h-2V815z"/>
		<path class="st22" d="M457.1,824.5c-1.3,0-2.4-1.1-2.4-2.4c0-1.4,1.1-2.5,2.4-2.5c1.4,0,2.5,1.1,2.5,2.5
			C459.5,823.4,458.4,824.5,457.1,824.5z M457.1,820.5c-0.8,0-1.5,0.7-1.5,1.5c0,0.8,0.7,1.5,1.5,1.5c0.8,0,1.5-0.7,1.5-1.5
			C458.6,821.2,457.9,820.5,457.1,820.5z M463.1,819.7h1.1l-7.1,10.9H456L463.1,819.7z M463.1,830.7c-1.4,0-2.5-1.1-2.5-2.4
			c0-1.4,1.1-2.5,2.5-2.5s2.5,1.1,2.5,2.5C465.6,829.6,464.5,830.7,463.1,830.7z M463.1,826.7c-0.8,0-1.5,0.7-1.5,1.5
			c0,0.8,0.7,1.5,1.5,1.5c0.8,0,1.5-0.7,1.5-1.5C464.7,827.4,464,826.7,463.1,826.7z"/>
	</g>
</g>
<g>
	<g>
		<path d="M943.4,662.5c0-2,1.4-3.7,3.9-4.5c-2.3-0.7-3.5-2.7-3.5-4.3c0-3.2,3.4-5,6.1-5c2.8,0,6.1,1.6,6.1,5c0,1.8-1.3,3.6-3.5,4.3
			c2.6,0.7,3.9,2.6,3.9,4.5c0,3.4-3.3,5.3-6.6,5.3C946.7,667.8,943.4,666.1,943.4,662.5z M954.5,662.5c0-2.5-2.6-3.6-4.6-3.6
			c-2,0-4.6,1.1-4.6,3.6c0,2.5,2.6,3.6,4.6,3.6C951.9,666.1,954.5,665,954.5,662.5z M945.8,653.8c0,2.4,2.6,3.4,4.2,3.4
			c1.6,0,4.2-1.1,4.2-3.4c0-2.2-2.4-3.3-4.2-3.3C948.2,650.5,945.8,651.6,945.8,653.8z"/>
		<path d="M960.9,660.5c-1.3,0-2.4-1.1-2.4-2.4c0-1.4,1.1-2.5,2.4-2.5c1.4,0,2.5,1.1,2.5,2.5C963.4,659.5,962.3,660.5,960.9,660.5z
			 M960.9,656.6c-0.8,0-1.5,0.7-1.5,1.5c0,0.8,0.7,1.5,1.5,1.5c0.8,0,1.5-0.7,1.5-1.5C962.5,657.2,961.8,656.6,960.9,656.6z
			 M966.9,655.8h1.1l-7.1,10.9h-1.1L966.9,655.8z M966.9,666.7c-1.4,0-2.5-1.1-2.5-2.4c0-1.4,1.1-2.5,2.5-2.5s2.5,1.1,2.5,2.5
			C969.4,665.6,968.3,666.7,966.9,666.7z M966.9,662.7c-0.8,0-1.5,0.7-1.5,1.5c0,0.8,0.7,1.5,1.5,1.5s1.5-0.7,1.5-1.5
			C968.5,663.4,967.8,662.7,966.9,662.7z"/>
	</g>
</g>
<g>
	<g>
		<path d="M1003.3,749.8c-3.3,0-6.1-2-6.4-5.1l1.9-0.4c0.3,2.1,2,3.7,4.6,3.7c2.5,0,4.5-1.4,4.5-3.5c0-2.1-1.6-3.5-4.5-3.5h-1.9
			v-1.8h1.8c2.6,0,4.2-1.6,4.2-3.4c0-1.9-1.4-3.3-4.1-3.3c-2.6,0-4,1.5-4.4,3.5l-1.9-0.4c0.3-2.6,2.8-4.9,6.2-4.9
			c4.1,0,6.1,2.5,6.1,4.9c0,2.1-1.2,3.5-3,4.3v0c2.1,0.6,3.4,2.3,3.4,4.5C1009.7,747.4,1007.2,749.8,1003.3,749.8z"/>
		<path d="M1012.5,740.3c0-4.6,2.6-9.6,7.8-9.6c5.1,0,7.7,4.9,7.7,9.5s-2.6,9.6-7.8,9.6C1015.1,749.8,1012.5,745,1012.5,740.3z
			 M1014.6,740.2c0,3.4,1.7,7.8,5.7,7.8c4,0,5.7-4.3,5.7-7.7s-1.7-7.8-5.8-7.8C1016.3,732.6,1014.6,736.9,1014.6,740.2z"/>
		<path d="M1032.5,742.5c-1.3,0-2.4-1.1-2.4-2.4c0-1.4,1.1-2.5,2.4-2.5c1.4,0,2.5,1.1,2.5,2.5
			C1034.9,741.4,1033.8,742.5,1032.5,742.5z M1032.5,738.5c-0.8,0-1.5,0.7-1.5,1.5c0,0.8,0.7,1.5,1.5,1.5c0.8,0,1.5-0.7,1.5-1.5
			C1034,739.2,1033.3,738.5,1032.5,738.5z M1038.5,737.7h1.1l-7.1,10.9h-1.1L1038.5,737.7z M1038.5,748.7c-1.4,0-2.5-1.1-2.5-2.4
			c0-1.4,1.1-2.5,2.5-2.5s2.5,1.1,2.5,2.5C1041,747.6,1039.9,748.7,1038.5,748.7z M1038.5,744.7c-0.8,0-1.5,0.7-1.5,1.5
			c0,0.8,0.7,1.5,1.5,1.5s1.5-0.7,1.5-1.5C1040,745.4,1039.3,744.7,1038.5,744.7z"/>
	</g>
</g>
<g>
	<g>
		<path class="st17" d="M1309.4,749.8c-3.3,0-6.1-2-6.4-5.1l1.9-0.4c0.3,2.1,2,3.7,4.6,3.7c2.5,0,4.5-1.4,4.5-3.5
			c0-2.1-1.6-3.5-4.5-3.5h-1.9v-1.8h1.8c2.6,0,4.2-1.6,4.2-3.4c0-1.9-1.4-3.3-4.1-3.3c-2.6,0-4,1.5-4.4,3.5l-1.9-0.4
			c0.3-2.6,2.8-4.9,6.2-4.9c4.1,0,6.1,2.5,6.1,4.9c0,2.1-1.2,3.5-3,4.3v0c2.1,0.6,3.4,2.3,3.4,4.5
			C1315.9,747.4,1313.4,749.8,1309.4,749.8z"/>
		<path class="st17" d="M1327.7,749.6v-4.5h-9.7V743l9.2-12h2.5v12.5h3.1v1.7h-3.1v4.5H1327.7z M1327.7,743.4V733l-8,10.5H1327.7z"
			/>
		<path class="st17" d="M1336.5,742.5c-1.3,0-2.4-1.1-2.4-2.4c0-1.4,1.1-2.5,2.4-2.5c1.4,0,2.5,1.1,2.5,2.5
			C1339,741.4,1337.9,742.5,1336.5,742.5z M1336.5,738.5c-0.8,0-1.5,0.7-1.5,1.5c0,0.8,0.7,1.5,1.5,1.5c0.8,0,1.5-0.7,1.5-1.5
			C1338.1,739.2,1337.4,738.5,1336.5,738.5z M1342.5,737.7h1.1l-7.1,10.9h-1.1L1342.5,737.7z M1342.6,748.7c-1.4,0-2.5-1.1-2.5-2.4
			c0-1.4,1.1-2.5,2.5-2.5s2.5,1.1,2.5,2.5C1345,747.6,1343.9,748.7,1342.6,748.7z M1342.6,744.7c-0.8,0-1.5,0.7-1.5,1.5
			c0,0.8,0.7,1.5,1.5,1.5s1.5-0.7,1.5-1.5C1344.1,745.4,1343.4,744.7,1342.6,744.7z"/>
	</g>
</g>
<g>
	<g>
		<path class="st17" d="M1281.3,831c0-2.2,1-4.5,4.3-6.6l2.8-1.8c1.8-1.1,3.3-2.2,3.3-4.4c0-1.9-1.7-3.7-4.1-3.7
			c-2.1,0-3.3,1.2-3.8,2.4c-0.3,0.8-0.4,1.5-0.4,1.8l-2-0.3c0-2.6,2.2-5.8,6.2-5.8c3.5,0,6.1,2.6,6.1,5.5c0,2.6-1.5,4.2-3.9,5.7
			l-2.9,1.8c-1.6,1-3.1,2.3-3.2,4h10.3v1.8h-12.6V831z"/>
		<path class="st17" d="M1300.1,814.8l-1.1,6.3c1.2-1.2,3.2-1.5,4.1-1.5c3.5,0,6.1,2.3,6.1,6c0,4.1-3.3,6.1-6.5,6.1
			c-3.1,0-6-2-6.4-5.1l1.9-0.4c0.3,2.1,2.1,3.7,4.5,3.7c1.9,0,4.5-1.2,4.5-4.3s-2.3-4.3-4.5-4.3c-1.4,0-3,0.7-3.9,1.9l-1.8-0.7
			l1.6-9.6h9.8v1.8H1300.1z"/>
		<path class="st17" d="M1313.4,824.5c-1.3,0-2.4-1.1-2.4-2.4c0-1.4,1.1-2.5,2.4-2.5c1.4,0,2.5,1.1,2.5,2.5
			C1315.9,823.4,1314.8,824.5,1313.4,824.5z M1313.4,820.5c-0.8,0-1.5,0.7-1.5,1.5c0,0.8,0.7,1.5,1.5,1.5c0.8,0,1.5-0.7,1.5-1.5
			C1315,821.2,1314.3,820.5,1313.4,820.5z M1319.4,819.7h1.1l-7.1,10.9h-1.1L1319.4,819.7z M1319.5,830.7c-1.4,0-2.5-1.1-2.5-2.4
			c0-1.4,1.1-2.5,2.5-2.5s2.5,1.1,2.5,2.5C1321.9,829.6,1320.8,830.7,1319.5,830.7z M1319.5,826.7c-0.8,0-1.5,0.7-1.5,1.5
			c0,0.8,0.7,1.5,1.5,1.5s1.5-0.7,1.5-1.5C1321,827.4,1320.3,826.7,1319.5,826.7z"/>
	</g>
</g>
<g>
	<g>
		<path d="M1010.6,831.8c-3.3,0-6.1-2-6.4-5.1l1.9-0.4c0.3,2.1,2,3.7,4.6,3.7c2.5,0,4.5-1.4,4.5-3.5c0-2.1-1.6-3.5-4.5-3.5h-1.9
			v-1.8h1.8c2.6,0,4.2-1.6,4.2-3.4c0-1.9-1.4-3.3-4.1-3.3c-2.6,0-4,1.5-4.4,3.5l-1.9-0.4c0.3-2.6,2.8-4.9,6.2-4.9
			c4.1,0,6.1,2.5,6.1,4.9c0,2.1-1.2,3.5-3,4.3v0c2.1,0.6,3.4,2.3,3.4,4.5C1017.1,829.3,1014.5,831.8,1010.6,831.8z"/>
		<path d="M1026.1,831.8c-3.3,0-6.1-2-6.4-5.1l1.9-0.4c0.3,2.1,2,3.7,4.6,3.7c2.5,0,4.5-1.4,4.5-3.5c0-2.1-1.6-3.5-4.5-3.5h-1.9
			v-1.8h1.8c2.6,0,4.2-1.6,4.2-3.4c0-1.9-1.4-3.3-4.1-3.3c-2.6,0-4,1.5-4.4,3.5l-1.9-0.4c0.3-2.6,2.8-4.9,6.2-4.9
			c4.1,0,6.1,2.5,6.1,4.9c0,2.1-1.2,3.5-3,4.3v0c2.1,0.6,3.4,2.3,3.4,4.5C1032.5,829.3,1030,831.8,1026.1,831.8z"/>
		<path d="M1036.9,824.5c-1.3,0-2.4-1.1-2.4-2.4c0-1.4,1.1-2.5,2.4-2.5c1.4,0,2.5,1.1,2.5,2.5
			C1039.4,823.4,1038.3,824.5,1036.9,824.5z M1036.9,820.5c-0.8,0-1.5,0.7-1.5,1.5c0,0.8,0.7,1.5,1.5,1.5c0.8,0,1.5-0.7,1.5-1.5
			C1038.5,821.2,1037.8,820.5,1036.9,820.5z M1042.9,819.7h1.1l-7.1,10.9h-1.1L1042.9,819.7z M1043,830.7c-1.4,0-2.5-1.1-2.5-2.4
			c0-1.4,1.1-2.5,2.5-2.5s2.5,1.1,2.5,2.5C1045.4,829.6,1044.3,830.7,1043,830.7z M1043,826.7c-0.8,0-1.5,0.7-1.5,1.5
			c0,0.8,0.7,1.5,1.5,1.5s1.5-0.7,1.5-1.5C1044.5,827.4,1043.8,826.7,1043,826.7z"/>
	</g>
</g>
</svg>
