<?xml version="1.0" encoding="utf-8"?>
<!-- Generator: Adobe Illustrator 21.1.0, SVG Export Plug-In . SVG Version: 6.00 Build 0)  -->
<svg version="1.1" id="graphFourBCP" xmlns="http://www.w3.org/2000/svg" xmlns:xlink="http://www.w3.org/1999/xlink" x="0px"
	 y="0px" viewBox="0 0 1500 1053" style="enable-background:new 0 0 1500 1053;" xml:space="preserve">
<style type="text/css">
	.st0-bcp4{fill:none;}
	.st1-bcp4{fill:none;stroke:#F6F6F8;stroke-width:2;stroke-linecap:round;stroke-miterlimit:10;}
	.st2-bcp4{fill:none;stroke:#F6F6F8;stroke-width:2;stroke-linecap:round;stroke-miterlimit:10;stroke-dasharray:0,10;}
	.st3-bcp4{fill:#F76C6C;}
	.st4-bcp4{fill:#0000FF;}
	.st5-bcp4{opacity:0.7;fill:#0000FF;}
	.st6-bcp4{fill:url(#SVGID-4-bcp4);}
	.st7-bcp4{fill:#FFFFFF;}
	.st8-bcp4{opacity:0.73;}
	.st9-bcp4{opacity:0.2;}
	.st10-bcp4{fill:url(#SVGID-5-bcp4);}
	.st11-bcp4{fill:url(#SVGID-6-bcp4);}
</style>
<pattern  y="1053" width="240" height="240" patternUnits="userSpaceOnUse" id="SVGID_1_" viewBox="1 -241 240 240" style="overflow:visible;">
	<g>
		<rect x="1" y="-241" class="st0-bcp4" width="240" height="240"/>
		<g>
			<rect x="1" y="-241" class="st0-bcp4" width="240" height="240"/>
			<g>
				<g>
					<line class="st1-bcp4" x1="241" y1="-241" x2="241" y2="-241"/>
				</g>
			</g>
			<g>
				<g>
					<line class="st1-bcp4" x1="1" y1="-241" x2="1" y2="-241"/>
					<line class="st2-bcp4" x1="11" y1="-241" x2="236" y2="-241"/>
					<line class="st1-bcp4" x1="241" y1="-241" x2="241" y2="-241"/>
				</g>
			</g>
			<g>
				<g>
					<line class="st1-bcp4" x1="1" y1="-241" x2="1" y2="-241"/>
				</g>
			</g>
			<g>
				<g>
					<line class="st1-bcp4" x1="241" y1="-1" x2="241" y2="-1"/>
				</g>
				<g>
					<line class="st1-bcp4" x1="241" y1="-11" x2="241" y2="-11"/>
				</g>
				<g>
					<line class="st1-bcp4" x1="241" y1="-21" x2="241" y2="-21"/>
				</g>
				<g>
					<line class="st1-bcp4" x1="241" y1="-31" x2="241" y2="-31"/>
				</g>
				<g>
					<line class="st1-bcp4" x1="241" y1="-41" x2="241" y2="-41"/>
				</g>
				<g>
					<line class="st1-bcp4" x1="241" y1="-51" x2="241" y2="-51"/>
				</g>
				<g>
					<line class="st1-bcp4" x1="241" y1="-61" x2="241" y2="-61"/>
				</g>
				<g>
					<line class="st1-bcp4" x1="241" y1="-71" x2="241" y2="-71"/>
				</g>
				<g>
					<line class="st1-bcp4" x1="241" y1="-81" x2="241" y2="-81"/>
				</g>
				<g>
					<line class="st1-bcp4" x1="241" y1="-91" x2="241" y2="-91"/>
				</g>
				<g>
					<line class="st1-bcp4" x1="241" y1="-101" x2="241" y2="-101"/>
				</g>
				<g>
					<line class="st1-bcp4" x1="241" y1="-111" x2="241" y2="-111"/>
				</g>
				<g>
					<line class="st1-bcp4" x1="241" y1="-121" x2="241" y2="-121"/>
				</g>
				<g>
					<line class="st1-bcp4" x1="241" y1="-131" x2="241" y2="-131"/>
				</g>
				<g>
					<line class="st1-bcp4" x1="241" y1="-141" x2="241" y2="-141"/>
				</g>
				<g>
					<line class="st1-bcp4" x1="241" y1="-151" x2="241" y2="-151"/>
				</g>
				<g>
					<line class="st1-bcp4" x1="241" y1="-161" x2="241" y2="-161"/>
				</g>
				<g>
					<line class="st1-bcp4" x1="241" y1="-171" x2="241" y2="-171"/>
				</g>
				<g>
					<line class="st1-bcp4" x1="241" y1="-181" x2="241" y2="-181"/>
				</g>
				<g>
					<line class="st1-bcp4" x1="241" y1="-191" x2="241" y2="-191"/>
				</g>
				<g>
					<line class="st1-bcp4" x1="241" y1="-201" x2="241" y2="-201"/>
				</g>
				<g>
					<line class="st1-bcp4" x1="241" y1="-211" x2="241" y2="-211"/>
				</g>
				<g>
					<line class="st1-bcp4" x1="241" y1="-221" x2="241" y2="-221"/>
				</g>
				<g>
					<line class="st1-bcp4" x1="241" y1="-231" x2="241" y2="-231"/>
				</g>
				<g>
					<line class="st1-bcp4" x1="241" y1="-241" x2="241" y2="-241"/>
				</g>
			</g>
			<g>
				<g>
					<line class="st1-bcp4" x1="1" y1="-1" x2="1" y2="-1"/>
					<line class="st2-bcp4" x1="11" y1="-1" x2="236" y2="-1"/>
					<line class="st1-bcp4" x1="241" y1="-1" x2="241" y2="-1"/>
				</g>
				<g>
					<line class="st1-bcp4" x1="1" y1="-11" x2="1" y2="-11"/>
					<line class="st2-bcp4" x1="11" y1="-11" x2="236" y2="-11"/>
					<line class="st1-bcp4" x1="241" y1="-11" x2="241" y2="-11"/>
				</g>
				<g>
					<line class="st1-bcp4" x1="1" y1="-21" x2="1" y2="-21"/>
					<line class="st2-bcp4" x1="11" y1="-21" x2="236" y2="-21"/>
					<line class="st1-bcp4" x1="241" y1="-21" x2="241" y2="-21"/>
				</g>
				<g>
					<line class="st1-bcp4" x1="1" y1="-31" x2="1" y2="-31"/>
					<line class="st2-bcp4" x1="11" y1="-31" x2="236" y2="-31"/>
					<line class="st1-bcp4" x1="241" y1="-31" x2="241" y2="-31"/>
				</g>
				<g>
					<line class="st1-bcp4" x1="1" y1="-41" x2="1" y2="-41"/>
					<line class="st2-bcp4" x1="11" y1="-41" x2="236" y2="-41"/>
					<line class="st1-bcp4" x1="241" y1="-41" x2="241" y2="-41"/>
				</g>
				<g>
					<line class="st1-bcp4" x1="1" y1="-51" x2="1" y2="-51"/>
					<line class="st2-bcp4" x1="11" y1="-51" x2="236" y2="-51"/>
					<line class="st1-bcp4" x1="241" y1="-51" x2="241" y2="-51"/>
				</g>
				<g>
					<line class="st1-bcp4" x1="1" y1="-61" x2="1" y2="-61"/>
					<line class="st2-bcp4" x1="11" y1="-61" x2="236" y2="-61"/>
					<line class="st1-bcp4" x1="241" y1="-61" x2="241" y2="-61"/>
				</g>
				<g>
					<line class="st1-bcp4" x1="1" y1="-71" x2="1" y2="-71"/>
					<line class="st2-bcp4" x1="11" y1="-71" x2="236" y2="-71"/>
					<line class="st1-bcp4" x1="241" y1="-71" x2="241" y2="-71"/>
				</g>
				<g>
					<line class="st1-bcp4" x1="1" y1="-81" x2="1" y2="-81"/>
					<line class="st2-bcp4" x1="11" y1="-81" x2="236" y2="-81"/>
					<line class="st1-bcp4" x1="241" y1="-81" x2="241" y2="-81"/>
				</g>
				<g>
					<line class="st1-bcp4" x1="1" y1="-91" x2="1" y2="-91"/>
					<line class="st2-bcp4" x1="11" y1="-91" x2="236" y2="-91"/>
					<line class="st1-bcp4" x1="241" y1="-91" x2="241" y2="-91"/>
				</g>
				<g>
					<line class="st1-bcp4" x1="1" y1="-101" x2="1" y2="-101"/>
					<line class="st2-bcp4" x1="11" y1="-101" x2="236" y2="-101"/>
					<line class="st1-bcp4" x1="241" y1="-101" x2="241" y2="-101"/>
				</g>
				<g>
					<line class="st1-bcp4" x1="1" y1="-111" x2="1" y2="-111"/>
					<line class="st2-bcp4" x1="11" y1="-111" x2="236" y2="-111"/>
					<line class="st1-bcp4" x1="241" y1="-111" x2="241" y2="-111"/>
				</g>
				<g>
					<line class="st1-bcp4" x1="1" y1="-121" x2="1" y2="-121"/>
					<line class="st2-bcp4" x1="11" y1="-121" x2="236" y2="-121"/>
					<line class="st1-bcp4" x1="241" y1="-121" x2="241" y2="-121"/>
				</g>
				<g>
					<line class="st1-bcp4" x1="1" y1="-131" x2="1" y2="-131"/>
					<line class="st2-bcp4" x1="11" y1="-131" x2="236" y2="-131"/>
					<line class="st1-bcp4" x1="241" y1="-131" x2="241" y2="-131"/>
				</g>
				<g>
					<line class="st1-bcp4" x1="1" y1="-141" x2="1" y2="-141"/>
					<line class="st2-bcp4" x1="11" y1="-141" x2="236" y2="-141"/>
					<line class="st1-bcp4" x1="241" y1="-141" x2="241" y2="-141"/>
				</g>
				<g>
					<line class="st1-bcp4" x1="1" y1="-151" x2="1" y2="-151"/>
					<line class="st2-bcp4" x1="11" y1="-151" x2="236" y2="-151"/>
					<line class="st1-bcp4" x1="241" y1="-151" x2="241" y2="-151"/>
				</g>
				<g>
					<line class="st1-bcp4" x1="1" y1="-161" x2="1" y2="-161"/>
					<line class="st2-bcp4" x1="11" y1="-161" x2="236" y2="-161"/>
					<line class="st1-bcp4" x1="241" y1="-161" x2="241" y2="-161"/>
				</g>
				<g>
					<line class="st1-bcp4" x1="1" y1="-171" x2="1" y2="-171"/>
					<line class="st2-bcp4" x1="11" y1="-171" x2="236" y2="-171"/>
					<line class="st1-bcp4" x1="241" y1="-171" x2="241" y2="-171"/>
				</g>
				<g>
					<line class="st1-bcp4" x1="1" y1="-181" x2="1" y2="-181"/>
					<line class="st2-bcp4" x1="11" y1="-181" x2="236" y2="-181"/>
					<line class="st1-bcp4" x1="241" y1="-181" x2="241" y2="-181"/>
				</g>
				<g>
					<line class="st1-bcp4" x1="1" y1="-191" x2="1" y2="-191"/>
					<line class="st2-bcp4" x1="11" y1="-191" x2="236" y2="-191"/>
					<line class="st1-bcp4" x1="241" y1="-191" x2="241" y2="-191"/>
				</g>
				<g>
					<line class="st1-bcp4" x1="1" y1="-201" x2="1" y2="-201"/>
					<line class="st2-bcp4" x1="11" y1="-201" x2="236" y2="-201"/>
					<line class="st1-bcp4" x1="241" y1="-201" x2="241" y2="-201"/>
				</g>
				<g>
					<line class="st1-bcp4" x1="1" y1="-211" x2="1" y2="-211"/>
					<line class="st2-bcp4" x1="11" y1="-211" x2="236" y2="-211"/>
					<line class="st1-bcp4" x1="241" y1="-211" x2="241" y2="-211"/>
				</g>
				<g>
					<line class="st1-bcp4" x1="1" y1="-221" x2="1" y2="-221"/>
					<line class="st2-bcp4" x1="11" y1="-221" x2="236" y2="-221"/>
					<line class="st1-bcp4" x1="241" y1="-221" x2="241" y2="-221"/>
				</g>
				<g>
					<line class="st1-bcp4" x1="1" y1="-231" x2="1" y2="-231"/>
					<line class="st2-bcp4" x1="11" y1="-231" x2="236" y2="-231"/>
					<line class="st1-bcp4" x1="241" y1="-231" x2="241" y2="-231"/>
				</g>
				<g>
					<line class="st1-bcp4" x1="1" y1="-241" x2="1" y2="-241"/>
					<line class="st2-bcp4" x1="11" y1="-241" x2="236" y2="-241"/>
					<line class="st1-bcp4" x1="241" y1="-241" x2="241" y2="-241"/>
				</g>
			</g>
			<g>
				<g>
					<line class="st1-bcp4" x1="1" y1="-1" x2="1" y2="-1"/>
				</g>
				<g>
					<line class="st1-bcp4" x1="1" y1="-11" x2="1" y2="-11"/>
				</g>
				<g>
					<line class="st1-bcp4" x1="1" y1="-21" x2="1" y2="-21"/>
				</g>
				<g>
					<line class="st1-bcp4" x1="1" y1="-31" x2="1" y2="-31"/>
				</g>
				<g>
					<line class="st1-bcp4" x1="1" y1="-41" x2="1" y2="-41"/>
				</g>
				<g>
					<line class="st1-bcp4" x1="1" y1="-51" x2="1" y2="-51"/>
				</g>
				<g>
					<line class="st1-bcp4" x1="1" y1="-61" x2="1" y2="-61"/>
				</g>
				<g>
					<line class="st1-bcp4" x1="1" y1="-71" x2="1" y2="-71"/>
				</g>
				<g>
					<line class="st1-bcp4" x1="1" y1="-81" x2="1" y2="-81"/>
				</g>
				<g>
					<line class="st1-bcp4" x1="1" y1="-91" x2="1" y2="-91"/>
				</g>
				<g>
					<line class="st1-bcp4" x1="1" y1="-101" x2="1" y2="-101"/>
				</g>
				<g>
					<line class="st1-bcp4" x1="1" y1="-111" x2="1" y2="-111"/>
				</g>
				<g>
					<line class="st1-bcp4" x1="1" y1="-121" x2="1" y2="-121"/>
				</g>
				<g>
					<line class="st1-bcp4" x1="1" y1="-131" x2="1" y2="-131"/>
				</g>
				<g>
					<line class="st1-bcp4" x1="1" y1="-141" x2="1" y2="-141"/>
				</g>
				<g>
					<line class="st1-bcp4" x1="1" y1="-151" x2="1" y2="-151"/>
				</g>
				<g>
					<line class="st1-bcp4" x1="1" y1="-161" x2="1" y2="-161"/>
				</g>
				<g>
					<line class="st1-bcp4" x1="1" y1="-171" x2="1" y2="-171"/>
				</g>
				<g>
					<line class="st1-bcp4" x1="1" y1="-181" x2="1" y2="-181"/>
				</g>
				<g>
					<line class="st1-bcp4" x1="1" y1="-191" x2="1" y2="-191"/>
				</g>
				<g>
					<line class="st1-bcp4" x1="1" y1="-201" x2="1" y2="-201"/>
				</g>
				<g>
					<line class="st1-bcp4" x1="1" y1="-211" x2="1" y2="-211"/>
				</g>
				<g>
					<line class="st1-bcp4" x1="1" y1="-221" x2="1" y2="-221"/>
				</g>
				<g>
					<line class="st1-bcp4" x1="1" y1="-231" x2="1" y2="-231"/>
				</g>
				<g>
					<line class="st1-bcp4" x1="1" y1="-241" x2="1" y2="-241"/>
				</g>
			</g>
			<g>
				<g>
					<line class="st1-bcp4" x1="241" y1="-1" x2="241" y2="-1"/>
				</g>
			</g>
			<g>
				<g>
					<line class="st1-bcp4" x1="1" y1="-1" x2="1" y2="-1"/>
					<line class="st2-bcp4" x1="11" y1="-1" x2="236" y2="-1"/>
					<line class="st1-bcp4" x1="241" y1="-1" x2="241" y2="-1"/>
				</g>
			</g>
			<g>
				<g>
					<line class="st1-bcp4" x1="1" y1="-1" x2="1" y2="-1"/>
				</g>
			</g>
		</g>
	</g>
</pattern>
<pattern  y="1053" width="240" height="240" patternUnits="userSpaceOnUse" id="SVGID_2_" viewBox="1 -241 240 240" style="overflow:visible;">
	<g>
		<rect x="1" y="-241" class="st0-bcp4" width="240" height="240"/>
		<g>
			<rect x="1" y="-241" class="st0-bcp4" width="240" height="240"/>
			<g>
				<g>
					<line class="st1-bcp4" x1="241" y1="-241" x2="241" y2="-241"/>
				</g>
			</g>
			<g>
				<g>
					<line class="st1-bcp4" x1="1" y1="-241" x2="1" y2="-241"/>
					<line class="st2-bcp4" x1="11" y1="-241" x2="236" y2="-241"/>
					<line class="st1-bcp4" x1="241" y1="-241" x2="241" y2="-241"/>
				</g>
			</g>
			<g>
				<g>
					<line class="st1-bcp4" x1="1" y1="-241" x2="1" y2="-241"/>
				</g>
			</g>
			<g>
				<g>
					<line class="st1-bcp4" x1="241" y1="-1" x2="241" y2="-1"/>
				</g>
				<g>
					<line class="st1-bcp4" x1="241" y1="-11" x2="241" y2="-11"/>
				</g>
				<g>
					<line class="st1-bcp4" x1="241" y1="-21" x2="241" y2="-21"/>
				</g>
				<g>
					<line class="st1-bcp4" x1="241" y1="-31" x2="241" y2="-31"/>
				</g>
				<g>
					<line class="st1-bcp4" x1="241" y1="-41" x2="241" y2="-41"/>
				</g>
				<g>
					<line class="st1-bcp4" x1="241" y1="-51" x2="241" y2="-51"/>
				</g>
				<g>
					<line class="st1-bcp4" x1="241" y1="-61" x2="241" y2="-61"/>
				</g>
				<g>
					<line class="st1-bcp4" x1="241" y1="-71" x2="241" y2="-71"/>
				</g>
				<g>
					<line class="st1-bcp4" x1="241" y1="-81" x2="241" y2="-81"/>
				</g>
				<g>
					<line class="st1-bcp4" x1="241" y1="-91" x2="241" y2="-91"/>
				</g>
				<g>
					<line class="st1-bcp4" x1="241" y1="-101" x2="241" y2="-101"/>
				</g>
				<g>
					<line class="st1-bcp4" x1="241" y1="-111" x2="241" y2="-111"/>
				</g>
				<g>
					<line class="st1-bcp4" x1="241" y1="-121" x2="241" y2="-121"/>
				</g>
				<g>
					<line class="st1-bcp4" x1="241" y1="-131" x2="241" y2="-131"/>
				</g>
				<g>
					<line class="st1-bcp4" x1="241" y1="-141" x2="241" y2="-141"/>
				</g>
				<g>
					<line class="st1-bcp4" x1="241" y1="-151" x2="241" y2="-151"/>
				</g>
				<g>
					<line class="st1-bcp4" x1="241" y1="-161" x2="241" y2="-161"/>
				</g>
				<g>
					<line class="st1-bcp4" x1="241" y1="-171" x2="241" y2="-171"/>
				</g>
				<g>
					<line class="st1-bcp4" x1="241" y1="-181" x2="241" y2="-181"/>
				</g>
				<g>
					<line class="st1-bcp4" x1="241" y1="-191" x2="241" y2="-191"/>
				</g>
				<g>
					<line class="st1-bcp4" x1="241" y1="-201" x2="241" y2="-201"/>
				</g>
				<g>
					<line class="st1-bcp4" x1="241" y1="-211" x2="241" y2="-211"/>
				</g>
				<g>
					<line class="st1-bcp4" x1="241" y1="-221" x2="241" y2="-221"/>
				</g>
				<g>
					<line class="st1-bcp4" x1="241" y1="-231" x2="241" y2="-231"/>
				</g>
				<g>
					<line class="st1-bcp4" x1="241" y1="-241" x2="241" y2="-241"/>
				</g>
			</g>
			<g>
				<g>
					<line class="st1-bcp4" x1="1" y1="-1" x2="1" y2="-1"/>
					<line class="st2-bcp4" x1="11" y1="-1" x2="236" y2="-1"/>
					<line class="st1-bcp4" x1="241" y1="-1" x2="241" y2="-1"/>
				</g>
				<g>
					<line class="st1-bcp4" x1="1" y1="-11" x2="1" y2="-11"/>
					<line class="st2-bcp4" x1="11" y1="-11" x2="236" y2="-11"/>
					<line class="st1-bcp4" x1="241" y1="-11" x2="241" y2="-11"/>
				</g>
				<g>
					<line class="st1-bcp4" x1="1" y1="-21" x2="1" y2="-21"/>
					<line class="st2-bcp4" x1="11" y1="-21" x2="236" y2="-21"/>
					<line class="st1-bcp4" x1="241" y1="-21" x2="241" y2="-21"/>
				</g>
				<g>
					<line class="st1-bcp4" x1="1" y1="-31" x2="1" y2="-31"/>
					<line class="st2-bcp4" x1="11" y1="-31" x2="236" y2="-31"/>
					<line class="st1-bcp4" x1="241" y1="-31" x2="241" y2="-31"/>
				</g>
				<g>
					<line class="st1-bcp4" x1="1" y1="-41" x2="1" y2="-41"/>
					<line class="st2-bcp4" x1="11" y1="-41" x2="236" y2="-41"/>
					<line class="st1-bcp4" x1="241" y1="-41" x2="241" y2="-41"/>
				</g>
				<g>
					<line class="st1-bcp4" x1="1" y1="-51" x2="1" y2="-51"/>
					<line class="st2-bcp4" x1="11" y1="-51" x2="236" y2="-51"/>
					<line class="st1-bcp4" x1="241" y1="-51" x2="241" y2="-51"/>
				</g>
				<g>
					<line class="st1-bcp4" x1="1" y1="-61" x2="1" y2="-61"/>
					<line class="st2-bcp4" x1="11" y1="-61" x2="236" y2="-61"/>
					<line class="st1-bcp4" x1="241" y1="-61" x2="241" y2="-61"/>
				</g>
				<g>
					<line class="st1-bcp4" x1="1" y1="-71" x2="1" y2="-71"/>
					<line class="st2-bcp4" x1="11" y1="-71" x2="236" y2="-71"/>
					<line class="st1-bcp4" x1="241" y1="-71" x2="241" y2="-71"/>
				</g>
				<g>
					<line class="st1-bcp4" x1="1" y1="-81" x2="1" y2="-81"/>
					<line class="st2-bcp4" x1="11" y1="-81" x2="236" y2="-81"/>
					<line class="st1-bcp4" x1="241" y1="-81" x2="241" y2="-81"/>
				</g>
				<g>
					<line class="st1-bcp4" x1="1" y1="-91" x2="1" y2="-91"/>
					<line class="st2-bcp4" x1="11" y1="-91" x2="236" y2="-91"/>
					<line class="st1-bcp4" x1="241" y1="-91" x2="241" y2="-91"/>
				</g>
				<g>
					<line class="st1-bcp4" x1="1" y1="-101" x2="1" y2="-101"/>
					<line class="st2-bcp4" x1="11" y1="-101" x2="236" y2="-101"/>
					<line class="st1-bcp4" x1="241" y1="-101" x2="241" y2="-101"/>
				</g>
				<g>
					<line class="st1-bcp4" x1="1" y1="-111" x2="1" y2="-111"/>
					<line class="st2-bcp4" x1="11" y1="-111" x2="236" y2="-111"/>
					<line class="st1-bcp4" x1="241" y1="-111" x2="241" y2="-111"/>
				</g>
				<g>
					<line class="st1-bcp4" x1="1" y1="-121" x2="1" y2="-121"/>
					<line class="st2-bcp4" x1="11" y1="-121" x2="236" y2="-121"/>
					<line class="st1-bcp4" x1="241" y1="-121" x2="241" y2="-121"/>
				</g>
				<g>
					<line class="st1-bcp4" x1="1" y1="-131" x2="1" y2="-131"/>
					<line class="st2-bcp4" x1="11" y1="-131" x2="236" y2="-131"/>
					<line class="st1-bcp4" x1="241" y1="-131" x2="241" y2="-131"/>
				</g>
				<g>
					<line class="st1-bcp4" x1="1" y1="-141" x2="1" y2="-141"/>
					<line class="st2-bcp4" x1="11" y1="-141" x2="236" y2="-141"/>
					<line class="st1-bcp4" x1="241" y1="-141" x2="241" y2="-141"/>
				</g>
				<g>
					<line class="st1-bcp4" x1="1" y1="-151" x2="1" y2="-151"/>
					<line class="st2-bcp4" x1="11" y1="-151" x2="236" y2="-151"/>
					<line class="st1-bcp4" x1="241" y1="-151" x2="241" y2="-151"/>
				</g>
				<g>
					<line class="st1-bcp4" x1="1" y1="-161" x2="1" y2="-161"/>
					<line class="st2-bcp4" x1="11" y1="-161" x2="236" y2="-161"/>
					<line class="st1-bcp4" x1="241" y1="-161" x2="241" y2="-161"/>
				</g>
				<g>
					<line class="st1-bcp4" x1="1" y1="-171" x2="1" y2="-171"/>
					<line class="st2-bcp4" x1="11" y1="-171" x2="236" y2="-171"/>
					<line class="st1-bcp4" x1="241" y1="-171" x2="241" y2="-171"/>
				</g>
				<g>
					<line class="st1-bcp4" x1="1" y1="-181" x2="1" y2="-181"/>
					<line class="st2-bcp4" x1="11" y1="-181" x2="236" y2="-181"/>
					<line class="st1-bcp4" x1="241" y1="-181" x2="241" y2="-181"/>
				</g>
				<g>
					<line class="st1-bcp4" x1="1" y1="-191" x2="1" y2="-191"/>
					<line class="st2-bcp4" x1="11" y1="-191" x2="236" y2="-191"/>
					<line class="st1-bcp4" x1="241" y1="-191" x2="241" y2="-191"/>
				</g>
				<g>
					<line class="st1-bcp4" x1="1" y1="-201" x2="1" y2="-201"/>
					<line class="st2-bcp4" x1="11" y1="-201" x2="236" y2="-201"/>
					<line class="st1-bcp4" x1="241" y1="-201" x2="241" y2="-201"/>
				</g>
				<g>
					<line class="st1-bcp4" x1="1" y1="-211" x2="1" y2="-211"/>
					<line class="st2-bcp4" x1="11" y1="-211" x2="236" y2="-211"/>
					<line class="st1-bcp4" x1="241" y1="-211" x2="241" y2="-211"/>
				</g>
				<g>
					<line class="st1-bcp4" x1="1" y1="-221" x2="1" y2="-221"/>
					<line class="st2-bcp4" x1="11" y1="-221" x2="236" y2="-221"/>
					<line class="st1-bcp4" x1="241" y1="-221" x2="241" y2="-221"/>
				</g>
				<g>
					<line class="st1-bcp4" x1="1" y1="-231" x2="1" y2="-231"/>
					<line class="st2-bcp4" x1="11" y1="-231" x2="236" y2="-231"/>
					<line class="st1-bcp4" x1="241" y1="-231" x2="241" y2="-231"/>
				</g>
				<g>
					<line class="st1-bcp4" x1="1" y1="-241" x2="1" y2="-241"/>
					<line class="st2-bcp4" x1="11" y1="-241" x2="236" y2="-241"/>
					<line class="st1-bcp4" x1="241" y1="-241" x2="241" y2="-241"/>
				</g>
			</g>
			<g>
				<g>
					<line class="st1-bcp4" x1="1" y1="-1" x2="1" y2="-1"/>
				</g>
				<g>
					<line class="st1-bcp4" x1="1" y1="-11" x2="1" y2="-11"/>
				</g>
				<g>
					<line class="st1-bcp4" x1="1" y1="-21" x2="1" y2="-21"/>
				</g>
				<g>
					<line class="st1-bcp4" x1="1" y1="-31" x2="1" y2="-31"/>
				</g>
				<g>
					<line class="st1-bcp4" x1="1" y1="-41" x2="1" y2="-41"/>
				</g>
				<g>
					<line class="st1-bcp4" x1="1" y1="-51" x2="1" y2="-51"/>
				</g>
				<g>
					<line class="st1-bcp4" x1="1" y1="-61" x2="1" y2="-61"/>
				</g>
				<g>
					<line class="st1-bcp4" x1="1" y1="-71" x2="1" y2="-71"/>
				</g>
				<g>
					<line class="st1-bcp4" x1="1" y1="-81" x2="1" y2="-81"/>
				</g>
				<g>
					<line class="st1-bcp4" x1="1" y1="-91" x2="1" y2="-91"/>
				</g>
				<g>
					<line class="st1-bcp4" x1="1" y1="-101" x2="1" y2="-101"/>
				</g>
				<g>
					<line class="st1-bcp4" x1="1" y1="-111" x2="1" y2="-111"/>
				</g>
				<g>
					<line class="st1-bcp4" x1="1" y1="-121" x2="1" y2="-121"/>
				</g>
				<g>
					<line class="st1-bcp4" x1="1" y1="-131" x2="1" y2="-131"/>
				</g>
				<g>
					<line class="st1-bcp4" x1="1" y1="-141" x2="1" y2="-141"/>
				</g>
				<g>
					<line class="st1-bcp4" x1="1" y1="-151" x2="1" y2="-151"/>
				</g>
				<g>
					<line class="st1-bcp4" x1="1" y1="-161" x2="1" y2="-161"/>
				</g>
				<g>
					<line class="st1-bcp4" x1="1" y1="-171" x2="1" y2="-171"/>
				</g>
				<g>
					<line class="st1-bcp4" x1="1" y1="-181" x2="1" y2="-181"/>
				</g>
				<g>
					<line class="st1-bcp4" x1="1" y1="-191" x2="1" y2="-191"/>
				</g>
				<g>
					<line class="st1-bcp4" x1="1" y1="-201" x2="1" y2="-201"/>
				</g>
				<g>
					<line class="st1-bcp4" x1="1" y1="-211" x2="1" y2="-211"/>
				</g>
				<g>
					<line class="st1-bcp4" x1="1" y1="-221" x2="1" y2="-221"/>
				</g>
				<g>
					<line class="st1-bcp4" x1="1" y1="-231" x2="1" y2="-231"/>
				</g>
				<g>
					<line class="st1-bcp4" x1="1" y1="-241" x2="1" y2="-241"/>
				</g>
			</g>
			<g>
				<g>
					<line class="st1-bcp4" x1="241" y1="-1" x2="241" y2="-1"/>
				</g>
			</g>
			<g>
				<g>
					<line class="st1-bcp4" x1="1" y1="-1" x2="1" y2="-1"/>
					<line class="st2-bcp4" x1="11" y1="-1" x2="236" y2="-1"/>
					<line class="st1-bcp4" x1="241" y1="-1" x2="241" y2="-1"/>
				</g>
			</g>
			<g>
				<g>
					<line class="st1-bcp4" x1="1" y1="-1" x2="1" y2="-1"/>
				</g>
			</g>
		</g>
	</g>
</pattern>
<pattern  y="1053" width="240" height="240" patternUnits="userSpaceOnUse" id="SVGID_3_" viewBox="1 -241 240 240" style="overflow:visible;">
	<g>
		<rect x="1" y="-241" class="st0-bcp4" width="240" height="240"/>
		<g>
			<rect x="1" y="-241" class="st0-bcp4" width="240" height="240"/>
			<g>
				<g>
					<line class="st1-bcp4" x1="241" y1="-241" x2="241" y2="-241"/>
				</g>
			</g>
			<g>
				<g>
					<line class="st1-bcp4" x1="1" y1="-241" x2="1" y2="-241"/>
					<line class="st2-bcp4" x1="11" y1="-241" x2="236" y2="-241"/>
					<line class="st1-bcp4" x1="241" y1="-241" x2="241" y2="-241"/>
				</g>
			</g>
			<g>
				<g>
					<line class="st1-bcp4" x1="1" y1="-241" x2="1" y2="-241"/>
				</g>
			</g>
			<g>
				<g>
					<line class="st1-bcp4" x1="241" y1="-1" x2="241" y2="-1"/>
				</g>
				<g>
					<line class="st1-bcp4" x1="241" y1="-11" x2="241" y2="-11"/>
				</g>
				<g>
					<line class="st1-bcp4" x1="241" y1="-21" x2="241" y2="-21"/>
				</g>
				<g>
					<line class="st1-bcp4" x1="241" y1="-31" x2="241" y2="-31"/>
				</g>
				<g>
					<line class="st1-bcp4" x1="241" y1="-41" x2="241" y2="-41"/>
				</g>
				<g>
					<line class="st1-bcp4" x1="241" y1="-51" x2="241" y2="-51"/>
				</g>
				<g>
					<line class="st1-bcp4" x1="241" y1="-61" x2="241" y2="-61"/>
				</g>
				<g>
					<line class="st1-bcp4" x1="241" y1="-71" x2="241" y2="-71"/>
				</g>
				<g>
					<line class="st1-bcp4" x1="241" y1="-81" x2="241" y2="-81"/>
				</g>
				<g>
					<line class="st1-bcp4" x1="241" y1="-91" x2="241" y2="-91"/>
				</g>
				<g>
					<line class="st1-bcp4" x1="241" y1="-101" x2="241" y2="-101"/>
				</g>
				<g>
					<line class="st1-bcp4" x1="241" y1="-111" x2="241" y2="-111"/>
				</g>
				<g>
					<line class="st1-bcp4" x1="241" y1="-121" x2="241" y2="-121"/>
				</g>
				<g>
					<line class="st1-bcp4" x1="241" y1="-131" x2="241" y2="-131"/>
				</g>
				<g>
					<line class="st1-bcp4" x1="241" y1="-141" x2="241" y2="-141"/>
				</g>
				<g>
					<line class="st1-bcp4" x1="241" y1="-151" x2="241" y2="-151"/>
				</g>
				<g>
					<line class="st1-bcp4" x1="241" y1="-161" x2="241" y2="-161"/>
				</g>
				<g>
					<line class="st1-bcp4" x1="241" y1="-171" x2="241" y2="-171"/>
				</g>
				<g>
					<line class="st1-bcp4" x1="241" y1="-181" x2="241" y2="-181"/>
				</g>
				<g>
					<line class="st1-bcp4" x1="241" y1="-191" x2="241" y2="-191"/>
				</g>
				<g>
					<line class="st1-bcp4" x1="241" y1="-201" x2="241" y2="-201"/>
				</g>
				<g>
					<line class="st1-bcp4" x1="241" y1="-211" x2="241" y2="-211"/>
				</g>
				<g>
					<line class="st1-bcp4" x1="241" y1="-221" x2="241" y2="-221"/>
				</g>
				<g>
					<line class="st1-bcp4" x1="241" y1="-231" x2="241" y2="-231"/>
				</g>
				<g>
					<line class="st1-bcp4" x1="241" y1="-241" x2="241" y2="-241"/>
				</g>
			</g>
			<g>
				<g>
					<line class="st1-bcp4" x1="1" y1="-1" x2="1" y2="-1"/>
					<line class="st2-bcp4" x1="11" y1="-1" x2="236" y2="-1"/>
					<line class="st1-bcp4" x1="241" y1="-1" x2="241" y2="-1"/>
				</g>
				<g>
					<line class="st1-bcp4" x1="1" y1="-11" x2="1" y2="-11"/>
					<line class="st2-bcp4" x1="11" y1="-11" x2="236" y2="-11"/>
					<line class="st1-bcp4" x1="241" y1="-11" x2="241" y2="-11"/>
				</g>
				<g>
					<line class="st1-bcp4" x1="1" y1="-21" x2="1" y2="-21"/>
					<line class="st2-bcp4" x1="11" y1="-21" x2="236" y2="-21"/>
					<line class="st1-bcp4" x1="241" y1="-21" x2="241" y2="-21"/>
				</g>
				<g>
					<line class="st1-bcp4" x1="1" y1="-31" x2="1" y2="-31"/>
					<line class="st2-bcp4" x1="11" y1="-31" x2="236" y2="-31"/>
					<line class="st1-bcp4" x1="241" y1="-31" x2="241" y2="-31"/>
				</g>
				<g>
					<line class="st1-bcp4" x1="1" y1="-41" x2="1" y2="-41"/>
					<line class="st2-bcp4" x1="11" y1="-41" x2="236" y2="-41"/>
					<line class="st1-bcp4" x1="241" y1="-41" x2="241" y2="-41"/>
				</g>
				<g>
					<line class="st1-bcp4" x1="1" y1="-51" x2="1" y2="-51"/>
					<line class="st2-bcp4" x1="11" y1="-51" x2="236" y2="-51"/>
					<line class="st1-bcp4" x1="241" y1="-51" x2="241" y2="-51"/>
				</g>
				<g>
					<line class="st1-bcp4" x1="1" y1="-61" x2="1" y2="-61"/>
					<line class="st2-bcp4" x1="11" y1="-61" x2="236" y2="-61"/>
					<line class="st1-bcp4" x1="241" y1="-61" x2="241" y2="-61"/>
				</g>
				<g>
					<line class="st1-bcp4" x1="1" y1="-71" x2="1" y2="-71"/>
					<line class="st2-bcp4" x1="11" y1="-71" x2="236" y2="-71"/>
					<line class="st1-bcp4" x1="241" y1="-71" x2="241" y2="-71"/>
				</g>
				<g>
					<line class="st1-bcp4" x1="1" y1="-81" x2="1" y2="-81"/>
					<line class="st2-bcp4" x1="11" y1="-81" x2="236" y2="-81"/>
					<line class="st1-bcp4" x1="241" y1="-81" x2="241" y2="-81"/>
				</g>
				<g>
					<line class="st1-bcp4" x1="1" y1="-91" x2="1" y2="-91"/>
					<line class="st2-bcp4" x1="11" y1="-91" x2="236" y2="-91"/>
					<line class="st1-bcp4" x1="241" y1="-91" x2="241" y2="-91"/>
				</g>
				<g>
					<line class="st1-bcp4" x1="1" y1="-101" x2="1" y2="-101"/>
					<line class="st2-bcp4" x1="11" y1="-101" x2="236" y2="-101"/>
					<line class="st1-bcp4" x1="241" y1="-101" x2="241" y2="-101"/>
				</g>
				<g>
					<line class="st1-bcp4" x1="1" y1="-111" x2="1" y2="-111"/>
					<line class="st2-bcp4" x1="11" y1="-111" x2="236" y2="-111"/>
					<line class="st1-bcp4" x1="241" y1="-111" x2="241" y2="-111"/>
				</g>
				<g>
					<line class="st1-bcp4" x1="1" y1="-121" x2="1" y2="-121"/>
					<line class="st2-bcp4" x1="11" y1="-121" x2="236" y2="-121"/>
					<line class="st1-bcp4" x1="241" y1="-121" x2="241" y2="-121"/>
				</g>
				<g>
					<line class="st1-bcp4" x1="1" y1="-131" x2="1" y2="-131"/>
					<line class="st2-bcp4" x1="11" y1="-131" x2="236" y2="-131"/>
					<line class="st1-bcp4" x1="241" y1="-131" x2="241" y2="-131"/>
				</g>
				<g>
					<line class="st1-bcp4" x1="1" y1="-141" x2="1" y2="-141"/>
					<line class="st2-bcp4" x1="11" y1="-141" x2="236" y2="-141"/>
					<line class="st1-bcp4" x1="241" y1="-141" x2="241" y2="-141"/>
				</g>
				<g>
					<line class="st1-bcp4" x1="1" y1="-151" x2="1" y2="-151"/>
					<line class="st2-bcp4" x1="11" y1="-151" x2="236" y2="-151"/>
					<line class="st1-bcp4" x1="241" y1="-151" x2="241" y2="-151"/>
				</g>
				<g>
					<line class="st1-bcp4" x1="1" y1="-161" x2="1" y2="-161"/>
					<line class="st2-bcp4" x1="11" y1="-161" x2="236" y2="-161"/>
					<line class="st1-bcp4" x1="241" y1="-161" x2="241" y2="-161"/>
				</g>
				<g>
					<line class="st1-bcp4" x1="1" y1="-171" x2="1" y2="-171"/>
					<line class="st2-bcp4" x1="11" y1="-171" x2="236" y2="-171"/>
					<line class="st1-bcp4" x1="241" y1="-171" x2="241" y2="-171"/>
				</g>
				<g>
					<line class="st1-bcp4" x1="1" y1="-181" x2="1" y2="-181"/>
					<line class="st2-bcp4" x1="11" y1="-181" x2="236" y2="-181"/>
					<line class="st1-bcp4" x1="241" y1="-181" x2="241" y2="-181"/>
				</g>
				<g>
					<line class="st1-bcp4" x1="1" y1="-191" x2="1" y2="-191"/>
					<line class="st2-bcp4" x1="11" y1="-191" x2="236" y2="-191"/>
					<line class="st1-bcp4" x1="241" y1="-191" x2="241" y2="-191"/>
				</g>
				<g>
					<line class="st1-bcp4" x1="1" y1="-201" x2="1" y2="-201"/>
					<line class="st2-bcp4" x1="11" y1="-201" x2="236" y2="-201"/>
					<line class="st1-bcp4" x1="241" y1="-201" x2="241" y2="-201"/>
				</g>
				<g>
					<line class="st1-bcp4" x1="1" y1="-211" x2="1" y2="-211"/>
					<line class="st2-bcp4" x1="11" y1="-211" x2="236" y2="-211"/>
					<line class="st1-bcp4" x1="241" y1="-211" x2="241" y2="-211"/>
				</g>
				<g>
					<line class="st1-bcp4" x1="1" y1="-221" x2="1" y2="-221"/>
					<line class="st2-bcp4" x1="11" y1="-221" x2="236" y2="-221"/>
					<line class="st1-bcp4" x1="241" y1="-221" x2="241" y2="-221"/>
				</g>
				<g>
					<line class="st1-bcp4" x1="1" y1="-231" x2="1" y2="-231"/>
					<line class="st2-bcp4" x1="11" y1="-231" x2="236" y2="-231"/>
					<line class="st1-bcp4" x1="241" y1="-231" x2="241" y2="-231"/>
				</g>
				<g>
					<line class="st1-bcp4" x1="1" y1="-241" x2="1" y2="-241"/>
					<line class="st2-bcp4" x1="11" y1="-241" x2="236" y2="-241"/>
					<line class="st1-bcp4" x1="241" y1="-241" x2="241" y2="-241"/>
				</g>
			</g>
			<g>
				<g>
					<line class="st1-bcp4" x1="1" y1="-1" x2="1" y2="-1"/>
				</g>
				<g>
					<line class="st1-bcp4" x1="1" y1="-11" x2="1" y2="-11"/>
				</g>
				<g>
					<line class="st1-bcp4" x1="1" y1="-21" x2="1" y2="-21"/>
				</g>
				<g>
					<line class="st1-bcp4" x1="1" y1="-31" x2="1" y2="-31"/>
				</g>
				<g>
					<line class="st1-bcp4" x1="1" y1="-41" x2="1" y2="-41"/>
				</g>
				<g>
					<line class="st1-bcp4" x1="1" y1="-51" x2="1" y2="-51"/>
				</g>
				<g>
					<line class="st1-bcp4" x1="1" y1="-61" x2="1" y2="-61"/>
				</g>
				<g>
					<line class="st1-bcp4" x1="1" y1="-71" x2="1" y2="-71"/>
				</g>
				<g>
					<line class="st1-bcp4" x1="1" y1="-81" x2="1" y2="-81"/>
				</g>
				<g>
					<line class="st1-bcp4" x1="1" y1="-91" x2="1" y2="-91"/>
				</g>
				<g>
					<line class="st1-bcp4" x1="1" y1="-101" x2="1" y2="-101"/>
				</g>
				<g>
					<line class="st1-bcp4" x1="1" y1="-111" x2="1" y2="-111"/>
				</g>
				<g>
					<line class="st1-bcp4" x1="1" y1="-121" x2="1" y2="-121"/>
				</g>
				<g>
					<line class="st1-bcp4" x1="1" y1="-131" x2="1" y2="-131"/>
				</g>
				<g>
					<line class="st1-bcp4" x1="1" y1="-141" x2="1" y2="-141"/>
				</g>
				<g>
					<line class="st1-bcp4" x1="1" y1="-151" x2="1" y2="-151"/>
				</g>
				<g>
					<line class="st1-bcp4" x1="1" y1="-161" x2="1" y2="-161"/>
				</g>
				<g>
					<line class="st1-bcp4" x1="1" y1="-171" x2="1" y2="-171"/>
				</g>
				<g>
					<line class="st1-bcp4" x1="1" y1="-181" x2="1" y2="-181"/>
				</g>
				<g>
					<line class="st1-bcp4" x1="1" y1="-191" x2="1" y2="-191"/>
				</g>
				<g>
					<line class="st1-bcp4" x1="1" y1="-201" x2="1" y2="-201"/>
				</g>
				<g>
					<line class="st1-bcp4" x1="1" y1="-211" x2="1" y2="-211"/>
				</g>
				<g>
					<line class="st1-bcp4" x1="1" y1="-221" x2="1" y2="-221"/>
				</g>
				<g>
					<line class="st1-bcp4" x1="1" y1="-231" x2="1" y2="-231"/>
				</g>
				<g>
					<line class="st1-bcp4" x1="1" y1="-241" x2="1" y2="-241"/>
				</g>
			</g>
			<g>
				<g>
					<line class="st1-bcp4" x1="241" y1="-1" x2="241" y2="-1"/>
				</g>
			</g>
			<g>
				<g>
					<line class="st1-bcp4" x1="1" y1="-1" x2="1" y2="-1"/>
					<line class="st2-bcp4" x1="11" y1="-1" x2="236" y2="-1"/>
					<line class="st1-bcp4" x1="241" y1="-1" x2="241" y2="-1"/>
				</g>
			</g>
			<g>
				<g>
					<line class="st1-bcp4" x1="1" y1="-1" x2="1" y2="-1"/>
				</g>
			</g>
		</g>
	</g>
</pattern>
<g id="redChartBCP4">
	<path class="st3-bcp4" d="M111.9,262.9C193.7,364.8,276.7,465.7,359,567.1c59.4,73.1,106.7,165.4,196.7,197.6
		c111.2,39.7,230.9,101.7,347,122.4c124.2,22.2,261.1,13.5,387.3,20.1v10.5H111.9V262.9z"/>
	<path class="st4-bcp4" d="M132,250.9c0.9-1.4,2.5-1.9,3.6-1.9c2.8,0,4.4,2,4.4,4.2c0,3-2.4,4.5-4.7,4.5c-1.4,0-3.2-0.8-3.9-2.2
		c-0.6-1.1-0.8-2-0.8-3.6c0-4.2,2.2-7.6,6.5-7.6c0.7,0,1.8,0.1,2.7,0.6l-0.5,1.2c-0.7-0.4-1.6-0.6-2.2-0.6
		C134,245.6,132.2,248,132,250.9z M133.2,251c-0.6,0.5-1,1.4-1,2.3c0,2,1.6,3.1,3.3,3.1s3.3-1.1,3.3-3.2c0-1.6-1.2-3.1-3.3-3.1
		C134.6,250.2,133.8,250.5,133.2,251z"/>
	<path class="st4-bcp4" d="M148.3,257.6v-3.2h-6.9v-1.5l6.5-8.5h1.7v8.8h2.2v1.2h-2.2v3.2H148.3z M148.3,253.2v-7.4l-5.6,7.4H148.3z"/>
	<path class="st4-bcp4" d="M154.5,251.5c-1,0-1.7-0.8-1.7-1.7c0-1,0.8-1.7,1.7-1.7c1,0,1.7,0.8,1.7,1.7S155.5,251.5,154.5,251.5z
		 M154.5,248.7c-0.6,0-1.1,0.5-1.1,1.1s0.5,1.1,1.1,1.1s1.1-0.5,1.1-1.1S155.1,248.7,154.5,248.7z M158.7,248.1h0.8l-5,7.7h-0.8
		L158.7,248.1z M158.8,255.9c-1,0-1.7-0.8-1.7-1.7c0-1,0.8-1.7,1.7-1.7c1,0,1.7,0.8,1.7,1.7C160.5,255.1,159.7,255.9,158.8,255.9z
		 M158.8,253.1c-0.6,0-1.1,0.5-1.1,1.1s0.5,1.1,1.1,1.1s1.1-0.5,1.1-1.1C159.8,253.5,159.4,253.1,158.8,253.1z"/>
	<path class="st4-bcp4" d="M516.2,715.8l-3.2,1.9l-0.6-1l3.8-2.3h1.3v13.2h-1.4v-11.8H516.2z"/>
	<path class="st4-bcp4" d="M520.4,723.9c0-1.4,1-2.6,2.8-3.2c-1.6-0.5-2.4-1.9-2.4-3c0-2.3,2.4-3.5,4.3-3.5c2,0,4.3,1.2,4.3,3.5
		c0,1.2-0.9,2.5-2.5,3c1.8,0.5,2.8,1.8,2.8,3.2c0,2.4-2.3,3.7-4.6,3.7C522.8,727.6,520.4,726.4,520.4,723.9z M528.3,723.9
		c0-1.7-1.8-2.6-3.2-2.6s-3.2,0.8-3.2,2.5c0,1.8,1.8,2.5,3.2,2.5C526.4,726.4,528.3,725.6,528.3,723.9z M522.1,717.7
		c0,1.7,1.8,2.4,2.9,2.4c1.1,0,3-0.8,3-2.4c0-1.5-1.7-2.3-3-2.3C523.8,715.4,522.1,716.2,522.1,717.7z"/>
	<path class="st4-bcp4" d="M532.8,721.4c-1,0-1.7-0.8-1.7-1.7c0-1,0.8-1.7,1.7-1.7c1,0,1.7,0.8,1.7,1.7
		C534.5,720.7,533.7,721.4,532.8,721.4z M532.8,718.6c-0.6,0-1.1,0.5-1.1,1.1s0.5,1.1,1.1,1.1s1.1-0.5,1.1-1.1
		C533.9,719.1,533.4,718.6,532.8,718.6z M537,718.1h0.8l-5,7.7H532L537,718.1z M537,725.8c-1,0-1.7-0.8-1.7-1.7c0-1,0.8-1.7,1.7-1.7
		s1.7,0.8,1.7,1.7C538.8,725,538,725.8,537,725.8z M537,723c-0.6,0-1.1,0.5-1.1,1.1s0.5,1.1,1.1,1.1s1.1-0.5,1.1-1.1
		S537.6,723,537,723z"/>
	<path class="st4-bcp4" d="M1310.1,902.6c0-1.5,0.7-3.2,3-4.6l2-1.2c1.3-0.8,2.3-1.6,2.3-3.1c0-1.3-1.2-2.6-2.9-2.6
		c-1.4,0-2.4,0.9-2.7,1.7c-0.2,0.6-0.3,1.1-0.3,1.3l-1.4-0.2c0-1.9,1.6-4.1,4.4-4.1c2.4,0,4.3,1.9,4.3,3.9c0,1.9-1,3-2.8,4.1
		l-2.1,1.3c-1.1,0.7-2.2,1.6-2.3,2.8h7.2v1.3h-8.9v-0.6H1310.1z"/>
	<path class="st4-bcp4" d="M1322,896.9c-1,0-1.7-0.8-1.7-1.7c0-1,0.8-1.7,1.7-1.7c1,0,1.7,0.8,1.7,1.7
		C1323.8,896.1,1323,896.9,1322,896.9z M1322,894.1c-0.6,0-1.1,0.5-1.1,1.1s0.5,1.1,1.1,1.1s1.1-0.5,1.1-1.1
		S1322.6,894.1,1322,894.1z M1326.3,893.5h0.8l-5,7.7h-0.8L1326.3,893.5z M1326.3,901.3c-1,0-1.7-0.8-1.7-1.7c0-1,0.8-1.7,1.7-1.7
		s1.7,0.8,1.7,1.7S1327.3,901.3,1326.3,901.3z M1326.3,898.5c-0.6,0-1.1,0.5-1.1,1.1s0.5,1.1,1.1,1.1s1.1-0.5,1.1-1.1
		C1327.4,898.9,1326.9,898.5,1326.3,898.5z"/>
</g>
<g id="blueChartBCP4">
	<path class="st5-bcp4" d="M112,586.4c103.7,59.7,207.1,120.1,310.7,180.2c26.5,15.4,57.6,41.2,87.3,47.2c53.3,10.8,126.6-9.3,180.8-10.1
		C808.2,802,895.3,811.8,969,752c95.3-77.3,210.2-132.6,321-180.3v346H111.9L112,586.4z"/>
	<pattern  id="SVGID-4-bcp4" xlink:href="#SVGID_1_" patternTransform="matrix(1.0528 0 0 -1.0528 6470.1934 -17667.4258)">
	</pattern>
	<path class="st6-bcp4" d="M112,586.4c103.7,59.7,207.1,120.1,310.7,180.2c26.5,15.4,57.6,41.2,87.3,47.2c53.3,10.8,126.6-9.3,180.8-10.1
		C808.2,802,895.3,811.8,969,752c95.3-77.3,210.2-132.6,321-180.3v346H111.9L112,586.4z"/>
	<path class="st7-bcp4" d="M135.1,580.6c-2.3,0-4.3-1.4-4.6-3.6l1.3-0.3c0.2,1.5,1.4,2.6,3.2,2.6s3.2-1,3.2-2.5s-1.1-2.4-3.2-2.4h-1.3
		v-1.3h1.3c1.8,0,2.9-1.1,2.9-2.4c0-1.3-1-2.3-2.9-2.3c-1.8,0-2.8,1.1-3.1,2.5l-1.3-0.3c0.2-1.8,2-3.5,4.4-3.5
		c2.9,0,4.3,1.8,4.3,3.5c0,1.5-0.8,2.5-2.1,3l0,0c1.5,0.4,2.4,1.6,2.4,3.2C139.7,578.9,137.9,580.6,135.1,580.6z"/>
	<path class="st7-bcp4" d="M148.1,580.5v-3.2h-6.9v-1.5l6.5-8.5h1.7v8.8h2.2v1.2h-2.2v3.2H148.1z M148.1,576.1v-7.4l-5.6,7.4H148.1z"/>
	<path class="st7-bcp4" d="M154.3,574.4c-1,0-1.7-0.8-1.7-1.7c0-1,0.8-1.7,1.7-1.7c1,0,1.7,0.8,1.7,1.7
		C156,573.6,155.2,574.4,154.3,574.4z M154.3,571.6c-0.6,0-1.1,0.5-1.1,1.1s0.5,1.1,1.1,1.1s1.1-0.5,1.1-1.1
		C155.4,572.1,154.9,571.6,154.3,571.6z M158.5,571h0.8l-5,7.7h-0.8L158.5,571z M158.5,578.8c-1,0-1.7-0.8-1.7-1.7
		c0-1,0.8-1.7,1.7-1.7c1,0,1.7,0.8,1.7,1.7C160.3,578,159.5,578.8,158.5,578.8z M158.5,575.9c-0.6,0-1.1,0.5-1.1,1.1
		s0.5,1.1,1.1,1.1s1.1-0.5,1.1-1.1S159.1,575.9,158.5,575.9z"/>
	<path class="st7-bcp4" d="M518.2,793l-3.2,1.9l-0.6-1l3.8-2.3h1.3v13.2h-1.4V793H518.2z"/>
	<path class="st7-bcp4" d="M525.4,793l-3.2,1.9l-0.6-1l3.8-2.3h1.3v13.2h-1.4V793H525.4z"/>
	<path class="st7-bcp4" d="M530.7,798.6c-1,0-1.7-0.8-1.7-1.7c0-1,0.8-1.7,1.7-1.7c1,0,1.7,0.8,1.7,1.7
		C532.5,797.9,531.7,798.6,530.7,798.6z M530.7,795.8c-0.6,0-1.1,0.5-1.1,1.1s0.5,1.1,1.1,1.1s1.1-0.5,1.1-1.1
		S531.3,795.8,530.7,795.8z M535,795.3h0.8l-5,7.7H530L535,795.3z M535,803c-1,0-1.7-0.8-1.7-1.7c0-1,0.8-1.7,1.7-1.7
		s1.7,0.8,1.7,1.7S536,803,535,803z M535,800.2c-0.6,0-1.1,0.5-1.1,1.1s0.5,1.1,1.1,1.1s1.1-0.5,1.1-1.1S535.6,800.2,535,800.2z"/>
	<path class="st3-bcp4" d="M905.5,758.9l-3.2,1.9l-0.6-1l3.8-2.3h1.3v13.2h-1.4v-11.8H905.5z"/>
	<path class="st3-bcp4" d="M914.1,770.8c-2.3,0-4.3-1.4-4.5-3.6l1.3-0.3c0.2,1.5,1.4,2.6,3.2,2.6s3.2-1,3.2-2.5s-1.1-2.4-3.2-2.4h-1.3
		v-1.3h1.3c1.8,0,2.9-1.1,2.9-2.4c0-1.3-1-2.3-2.9-2.3c-1.8,0-2.8,1.1-3.1,2.5l-1.3-0.3c0.2-1.8,2-3.5,4.4-3.5
		c2.9,0,4.3,1.8,4.3,3.5c0,1.5-0.8,2.5-2.1,3l0,0c1.5,0.4,2.4,1.6,2.4,3.2C918.7,769.1,916.9,770.8,914.1,770.8z"/>
	<path class="st3-bcp4" d="M921.8,764.6c-1,0-1.7-0.8-1.7-1.7c0-1,0.8-1.7,1.7-1.7c1,0,1.7,0.8,1.7,1.7S922.7,764.6,921.8,764.6z
		 M921.8,761.8c-0.6,0-1.1,0.5-1.1,1.1s0.5,1.1,1.1,1.1s1.1-0.5,1.1-1.1C922.9,762.3,922.4,761.8,921.8,761.8z M926,761.2h0.8
		l-5,7.7H921L926,761.2z M926,769c-1,0-1.7-0.8-1.7-1.7c0-1,0.8-1.7,1.7-1.7c1,0,1.7,0.8,1.7,1.7C927.8,768.2,927,769,926,769z
		 M926,766.1c-0.6,0-1.1,0.5-1.1,1.1s0.5,1.1,1.1,1.1s1.1-0.5,1.1-1.1S926.6,766.1,926,766.1z"/>
	<path class="st3-bcp4" d="M1308.8,564.8c-2.3,0-4.3-1.4-4.5-3.6l1.3-0.3c0.2,1.5,1.4,2.6,3.2,2.6c1.8,0,3.2-1,3.2-2.5s-1.1-2.4-3.2-2.4
		h-1.3v-1.3h1.3c1.8,0,2.9-1.1,2.9-2.4c0-1.3-1-2.3-2.9-2.3c-1.8,0-2.8,1.1-3.1,2.5l-1.3-0.3c0.2-1.8,2-3.5,4.4-3.5
		c2.9,0,4.3,1.8,4.3,3.5c0,1.5-0.8,2.5-2.1,3l0,0c1.5,0.4,2.4,1.6,2.4,3.2C1313.3,563.1,1311.5,564.8,1308.8,564.8z"/>
	<path class="st3-bcp4" d="M1316.7,558c0.9-1.4,2.5-1.9,3.6-1.9c2.8,0,4.4,2,4.4,4.2c0,3-2.4,4.5-4.7,4.5c-1.4,0-3.2-0.8-3.9-2.2
		c-0.6-1.1-0.8-2-0.8-3.6c0-4.2,2.2-7.6,6.5-7.6c0.7,0,1.8,0.1,2.7,0.6l-0.5,1.2c-0.7-0.4-1.6-0.6-2.2-0.6
		C1318.7,552.6,1317,555,1316.7,558z M1317.9,558.1c-0.6,0.5-1,1.4-1,2.3c0,2,1.6,3.1,3.3,3.1c1.7,0,3.3-1.1,3.3-3.2
		c0-1.6-1.2-3.1-3.3-3.1C1319.3,557.3,1318.5,557.6,1317.9,558.1z"/>
	<path class="st3-bcp4" d="M1327.8,558.6c-1,0-1.7-0.8-1.7-1.7c0-1,0.8-1.7,1.7-1.7c1,0,1.7,0.8,1.7,1.7S1328.8,558.6,1327.8,558.6z
		 M1327.8,555.8c-0.6,0-1.1,0.5-1.1,1.1s0.5,1.1,1.1,1.1s1.1-0.5,1.1-1.1S1328.4,555.8,1327.8,555.8z M1332,555.2h0.8l-5,7.7h-0.8
		L1332,555.2z M1332,563c-1,0-1.7-0.8-1.7-1.7c0-1,0.8-1.7,1.7-1.7c1,0,1.7,0.8,1.7,1.7C1333.8,562.2,1333,563,1332,563z
		 M1332,560.1c-0.6,0-1.1,0.5-1.1,1.1s0.5,1.1,1.1,1.1s1.1-0.5,1.1-1.1S1332.6,560.1,1332,560.1z"/>
</g>
<g id="redChart2BCP4">
	<path class="st7-bcp4" d="M912.2,880.9v-3.2h-6.9v-1.5l6.5-8.5h1.7v8.8h2.2v1.2h-2.2v3.2H912.2z M912.2,876.5v-7.4l-5.6,7.4H912.2z"/>
	<path class="st7-bcp4" d="M918.4,874.8c-1,0-1.7-0.8-1.7-1.7c0-1,0.8-1.7,1.7-1.7c1,0,1.7,0.8,1.7,1.7
		C920.2,874,919.4,874.8,918.4,874.8z M918.4,872c-0.6,0-1.1,0.5-1.1,1.1s0.5,1.1,1.1,1.1s1.1-0.5,1.1-1.1S919,872,918.4,872z
		 M922.7,871.4h0.8l-5,7.7h-0.8L922.7,871.4z M922.7,879.2c-1,0-1.7-0.8-1.7-1.7c0-1,0.8-1.7,1.7-1.7c1,0,1.7,0.8,1.7,1.7
		S923.7,879.2,922.7,879.2z M922.7,876.3c-0.6,0-1.1,0.5-1.1,1.1s0.5,1.1,1.1,1.1s1.1-0.5,1.1-1.1S923.3,876.3,922.7,876.3z"/>
</g>
<g id="chartTitlesBCP4">
	<path d="M110.1,955.8l-4.5,6.7v4.9h-1.2v-4.9l-4.5-6.7h1.5l3.6,5.5l3.7-5.5H110.1z"/>
	<path d="M110.6,963.8c0.1,1.5,1.3,2.7,2.8,2.7c1.2,0,2.1-0.6,2.4-1.7l1,0.3c-0.5,1.5-1.9,2.4-3.5,2.4c-2.3,0-4-1.8-4-4.1
		c0-2.1,1.6-4.1,3.8-4.1c2.4,0,3.7,1.7,3.7,4c0,0.1,0,0.3,0,0.4L110.6,963.8L110.6,963.8z M115.8,962.8c-0.1-1.4-1-2.4-2.6-2.4
		c-1.4,0-2.5,1.1-2.7,2.4H115.8z"/>
	<path d="M121.4,967.5c-2.1,0-2.8-1.4-3-2.3l1.1-0.3c0.2,0.7,0.7,1.6,1.9,1.6c0.9,0,1.6-0.5,1.6-1.3c0-1-1-1.2-1.8-1.3
		c-1.3-0.2-2.6-0.7-2.6-2.2s1.3-2.3,2.6-2.3c2.1,0,2.7,1.4,2.9,2.1l-1,0.3c-0.1-0.5-0.6-1.4-1.8-1.4c-0.9,0-1.5,0.6-1.5,1.3
		c0,1,1.1,1.1,1.9,1.2c1.3,0.2,2.6,0.8,2.6,2.3C124.2,966.6,122.9,967.5,121.4,967.5z"/>
	<path d="M438.1,955.8l-4.5,6.7v4.9h-1.2v-4.9l-4.5-6.7h1.5l3.6,5.5l3.7-5.5H438.1z"/>
	<path d="M438.6,963.8c0.1,1.5,1.3,2.7,2.8,2.7c1.2,0,2.1-0.6,2.4-1.7l1,0.3c-0.5,1.5-1.9,2.4-3.5,2.4c-2.3,0-4-1.8-4-4.1
		c0-2.1,1.6-4.1,3.8-4.1c2.4,0,3.7,1.7,3.7,4c0,0.1,0,0.3,0,0.4L438.6,963.8L438.6,963.8z M443.8,962.8c-0.1-1.4-1-2.4-2.6-2.4
		c-1.4,0-2.5,1.1-2.7,2.4H443.8z"/>
	<path d="M449.4,967.5c-2.1,0-2.8-1.4-3-2.3l1.1-0.3c0.2,0.7,0.7,1.6,1.9,1.6c0.9,0,1.6-0.5,1.6-1.3c0-1-1-1.2-1.8-1.3
		c-1.3-0.2-2.6-0.7-2.6-2.2s1.3-2.3,2.6-2.3c2.1,0,2.7,1.4,2.9,2.1l-1,0.3c-0.1-0.5-0.6-1.4-1.8-1.4c-0.9,0-1.5,0.6-1.5,1.3
		c0,1,1.1,1.1,1.9,1.2c1.3,0.2,2.6,0.8,2.6,2.3C452.2,966.6,450.9,967.5,449.4,967.5z"/>
	<path d="M454,969.1c0.7-0.5,1.2-1.1,1.3-1.8c-0.1,0-0.2,0.1-0.4,0.1c-0.6,0-1-0.4-1-1s0.5-1,1-1c0.7,0,1.2,0.6,1.2,1.4v0.1
		c0,1-0.5,2-1.6,2.7L454,969.1z"/>
	<path d="M465.8,967.5c-1.5,0-2.4-0.7-3.1-1.8v1.7h-1.1v-12h1.1v5.8c0.6-1,1.6-1.8,3-1.8c2.2,0,3.7,2,3.7,4.1
		C469.5,965.5,468,967.5,465.8,967.5z M468.3,963.5c0-1.6-1-3.1-2.8-3.1c-1.6,0-2.8,1.4-2.8,3s1.2,3.1,2.8,3.1
		C467.3,966.5,468.3,965.1,468.3,963.5z"/>
	<path d="M472.5,964.1c0,1.4,0.7,2.4,2.2,2.4c1.4,0,2.3-1.1,2.3-2.5v-4.5h1.1v7.9H477V966c-0.6,1.1-1.5,1.6-2.7,1.6
		c-1.9,0-3-1.3-3-3.2v-4.9h1.1v4.6H472.5z"/>
	<path d="M481.3,965.3v-4.8h-1.5v-1h1.5v-2.3h1.1v2.3h2v1h-2v4.8c0,0.7,0.4,1.1,1.3,1.1c0.3,0,0.5,0,0.7-0.1v1
		c-0.2,0.1-0.7,0.1-0.9,0.1C481.8,967.4,481.3,966.5,481.3,965.3z"/>
	<path d="M491.1,955.8c0.5,0,0.9,0.4,0.9,0.9s-0.4,0.9-0.9,0.9s-0.9-0.4-0.9-0.9S490.6,955.8,491.1,955.8z M491.7,959.5v7.9h-1.2
		v-7.9H491.7z"/>
	<path d="M494.8,965.3v-4.8h-1.5v-1h1.5v-2.3h1.1v2.3h2v1h-2v4.8c0,0.7,0.4,1.1,1.3,1.1c0.3,0,0.5,0,0.7-0.1v1
		c-0.2,0.1-0.7,0.1-0.9,0.1C495.3,967.4,494.8,966.5,494.8,965.3z"/>
	<path d="M499.7,959.5c0.7-0.5,1.2-1.1,1.3-1.8c-0.1,0-0.2,0.1-0.4,0.1c-0.6,0-1-0.4-1-1s0.5-1,1-1c0.7,0,1.2,0.6,1.2,1.4v0.1
		c0,1-0.5,2-1.6,2.7L499.7,959.5z"/>
	<path d="M505.8,967.5c-2.1,0-2.8-1.4-3-2.3l1.1-0.3c0.2,0.7,0.7,1.6,1.9,1.6c0.9,0,1.6-0.5,1.6-1.3c0-1-1-1.2-1.8-1.3
		c-1.3-0.2-2.6-0.7-2.6-2.2s1.3-2.3,2.6-2.3c2.1,0,2.7,1.4,2.9,2.1l-1,0.3c-0.1-0.5-0.6-1.4-1.8-1.4c-0.9,0-1.5,0.6-1.5,1.3
		c0,1,1.1,1.1,1.9,1.2c1.3,0.2,2.6,0.8,2.6,2.3C508.5,966.6,507.3,967.5,505.8,967.5z"/>
	<path d="M514.1,963.5c0-2.3,1.8-4.1,4.1-4.1s4.1,1.8,4.1,4c0,2.3-1.8,4.1-4.1,4.1C515.9,967.5,514.1,965.7,514.1,963.5z
		 M521.1,963.5c0-1.7-1.2-3.1-2.9-3.1s-2.9,1.4-2.9,3c0,1.7,1.2,3.1,2.9,3.1C519.9,966.5,521.1,965.1,521.1,963.5z"/>
	<path d="M525.3,964.1c0,1.4,0.7,2.4,2.2,2.4c1.4,0,2.3-1.1,2.3-2.5v-4.5h1.1v7.9h-1.1V966c-0.6,1.1-1.5,1.6-2.7,1.6
		c-1.9,0-3-1.3-3-3.2v-4.9h1.1v4.6H525.3z"/>
	<path d="M534.1,965.3v-4.8h-1.5v-1h1.5v-2.3h1.1v2.3h2v1h-2v4.8c0,0.7,0.4,1.1,1.3,1.1c0.3,0,0.5,0,0.7-0.1v1
		c-0.2,0.1-0.7,0.1-0.9,0.1C534.6,967.4,534.1,966.5,534.1,965.3z"/>
	<path d="M542.2,959.4c1.5,0,2.4,0.9,3.1,1.8v-5.8h1.1v12h-1.1v-1.7c-0.6,1-1.5,1.8-3.1,1.8c-2.3,0-3.7-1.9-3.7-4.1
		C538.5,961.4,539.9,959.4,542.2,959.4z M545.2,963.4c0-1.6-1.2-3-2.8-3c-1.7,0-2.8,1.4-2.8,3.1c0,1.6,1,3,2.8,3
		C544.1,966.5,545.2,965,545.2,963.4z"/>
	<path d="M553.7,962.3c0-1.3-0.7-1.9-2-1.9s-1.9,0.9-2.1,1.6l-1.1-0.2c0.1-0.7,0.9-2.4,3.2-2.4c1.7,0,2.5,0.8,2.9,1.6
		c0.2,0.4,0.2,1,0.2,1.3v5.1h-1.1V966l0,0c-0.6,1-1.5,1.5-2.7,1.5c-1.6,0-2.6-1-2.6-2.3v-0.1c0-1.7,1.7-2.3,3.1-2.3h2.2L553.7,962.3
		L553.7,962.3z M551.5,963.8c-0.8,0-1.9,0.3-1.9,1.3c0,0.9,0.8,1.4,1.7,1.4c1.4,0,2.4-1,2.4-2.4v-0.3H551.5z"/>
	<path d="M557.8,965.3v-4.8h-1.5v-1h1.5v-2.3h1.1v2.3h2v1h-2v4.8c0,0.7,0.4,1.1,1.3,1.1c0.3,0,0.5,0,0.7-0.1v1
		c-0.2,0.1-0.7,0.1-0.9,0.1C558.3,967.4,557.8,966.5,557.8,965.3z"/>
	<path d="M563.3,963.8c0.1,1.5,1.3,2.7,2.8,2.7c1.2,0,2.1-0.6,2.4-1.7l1,0.3c-0.5,1.5-1.9,2.4-3.5,2.4c-2.3,0-4-1.8-4-4.1
		c0-2.1,1.6-4.1,3.8-4.1c2.4,0,3.7,1.7,3.7,4c0,0.1,0,0.3,0,0.4L563.3,963.8L563.3,963.8z M568.5,962.8c-0.1-1.4-1-2.4-2.6-2.4
		c-1.4,0-2.5,1.1-2.7,2.4H568.5z"/>
	<path d="M574.8,959.4c1.5,0,2.4,0.9,3.1,1.8v-5.8h1.1v12h-1.1v-1.7c-0.6,1-1.5,1.8-3.1,1.8c-2.3,0-3.7-1.9-3.7-4.1
		C571.1,961.4,572.5,959.4,574.8,959.4z M577.8,963.4c0-1.6-1.2-3-2.8-3c-1.7,0-2.8,1.4-2.8,3.1c0,1.6,1,3,2.8,3
		C576.7,966.5,577.8,965,577.8,963.4z"/>
	<path d="M822.4,955.8v11.5h-1.3l-6.9-9.8v9.8H813v-11.5h1.4l6.8,9.6v-9.6H822.4z"/>
	<path d="M824.7,963.5c0-2.3,1.8-4.1,4.1-4.1s4.1,1.8,4.1,4c0,2.3-1.8,4.1-4.1,4.1S824.7,965.7,824.7,963.5z M831.7,963.5
		c0-1.7-1.2-3.1-2.9-3.1s-2.9,1.4-2.9,3c0,1.7,1.2,3.1,2.9,3.1S831.7,965.1,831.7,963.5z"/>
	<path d="M834.6,969.1c0.7-0.5,1.2-1.1,1.3-1.8c-0.1,0-0.2,0.1-0.4,0.1c-0.6,0-1-0.4-1-1s0.5-1,1-1c0.7,0,1.2,0.6,1.2,1.4v0.1
		c0,1-0.5,2-1.6,2.7L834.6,969.1z"/>
	<path d="M846.4,967.5c-1.5,0-2.4-0.7-3.1-1.8v1.7h-1.1v-12h1.1v5.8c0.6-1,1.6-1.8,3-1.8c2.2,0,3.7,2,3.7,4.1
		C850.1,965.5,848.6,967.5,846.4,967.5z M848.9,963.5c0-1.6-1-3.1-2.8-3.1c-1.6,0-2.8,1.4-2.8,3s1.2,3.1,2.8,3.1
		C847.9,966.5,848.9,965.1,848.9,963.5z"/>
	<path d="M853.2,964.1c0,1.4,0.7,2.4,2.2,2.4c1.4,0,2.3-1.1,2.3-2.5v-4.5h1.1v7.9h-1.1V966c-0.6,1.1-1.5,1.6-2.7,1.6
		c-1.9,0-3-1.3-3-3.2v-4.9h1.1v4.6H853.2z"/>
	<path d="M862,965.3v-4.8h-1.5v-1h1.5v-2.3h1.1v2.3h2v1h-2v4.8c0,0.7,0.4,1.1,1.3,1.1c0.3,0,0.5,0,0.7-0.1v1
		c-0.2,0.1-0.7,0.1-0.9,0.1C862.5,967.4,862,966.5,862,965.3z"/>
	<path d="M872.9,967.4l-2.6-7.9h1.2l2.1,6.5l0,0l2.1-6.5h1.2l2.2,6.5l0,0l2.1-6.5h1.2l-2.7,7.9h-1.3l-2.1-6.4l0,0l-2.1,6.4H872.9z"
		/>
	<path d="M884.4,963.8c0.1,1.5,1.3,2.7,2.8,2.7c1.2,0,2.1-0.6,2.4-1.7l1,0.3c-0.5,1.5-1.9,2.4-3.5,2.4c-2.3,0-4-1.8-4-4.1
		c0-2.1,1.6-4.1,3.8-4.1c2.4,0,3.7,1.7,3.7,4c0,0.1,0,0.3,0,0.4L884.4,963.8L884.4,963.8z M889.6,962.8c-0.1-1.4-1-2.4-2.6-2.4
		c-1.4,0-2.5,1.1-2.7,2.4H889.6z"/>
	<path d="M898.5,967.4l-2.6-7.9h1.2l2.1,6.5l0,0l2.1-6.5h1.2l2.2,6.5l0,0l2.1-6.5h1.2l-2.7,7.9H904l-2.1-6.4l0,0l-2.1,6.4H898.5z"/>
	<path d="M910.2,955.8c0.5,0,0.9,0.4,0.9,0.9s-0.4,0.9-0.9,0.9s-0.9-0.4-0.9-0.9S909.7,955.8,910.2,955.8z M910.8,959.5v7.9h-1.2
		v-7.9H910.8z"/>
	<path d="M914.5,955.4v12h-1.2v-12H914.5z"/>
	<path d="M918.3,955.4v12h-1.2v-12H918.3z"/>
	<path d="M925.6,955.8c0.5,0,0.9,0.4,0.9,0.9s-0.4,0.9-0.9,0.9s-0.9-0.4-0.9-0.9C924.7,956.2,925.1,955.8,925.6,955.8z M926.1,959.5
		v7.9H925v-7.9H926.1z"/>
	<path d="M934.4,962.8c0-1.4-0.7-2.4-2.2-2.4c-1.4,0-2.3,1.1-2.3,2.5v4.5h-1.2v-7.9h1.1v1.4c0.6-1.1,1.5-1.6,2.7-1.6
		c1.9,0,3,1.3,3,3.2v4.9h-1.2v-4.6H934.4z"/>
	<path d="M946.9,962.3c0-1.3-0.7-1.9-2-1.9s-1.9,0.9-2.1,1.6l-1.1-0.2c0.1-0.7,0.9-2.4,3.2-2.4c1.7,0,2.5,0.8,2.9,1.6
		c0.2,0.4,0.2,1,0.2,1.3v5.1h-1.1V966l0,0c-0.6,1-1.5,1.5-2.7,1.5c-1.6,0-2.6-1-2.6-2.3v-0.1c0-1.7,1.7-2.3,3.1-2.3h2.2L946.9,962.3
		L946.9,962.3z M944.7,963.8c-0.8,0-1.9,0.3-1.9,1.3c0,0.9,0.8,1.4,1.7,1.4c1.4,0,2.4-1,2.4-2.4v-0.3H944.7z"/>
	<path d="M956.9,966.8l-3.6-7.3h1.3l2.9,6.1l2.7-6.1h1.2l-5.4,11.8h-1.2L956.9,966.8z"/>
	<path d="M963.4,963.8c0.1,1.5,1.3,2.7,2.8,2.7c1.2,0,2.1-0.6,2.4-1.7l1,0.3c-0.5,1.5-1.9,2.4-3.5,2.4c-2.3,0-4-1.8-4-4.1
		c0-2.1,1.6-4.1,3.8-4.1c2.4,0,3.7,1.7,3.7,4c0,0.1,0,0.3,0,0.4L963.4,963.8L963.4,963.8z M968.6,962.8c-0.1-1.4-1-2.4-2.6-2.4
		c-1.4,0-2.5,1.1-2.7,2.4H968.6z"/>
	<path d="M976.5,962.3c0-1.3-0.7-1.9-2-1.9s-1.9,0.9-2.1,1.6l-1.1-0.2c0.1-0.7,0.9-2.4,3.2-2.4c1.7,0,2.5,0.8,2.9,1.6
		c0.2,0.4,0.2,1,0.2,1.3v5.1h-1.1V966l0,0c-0.6,1-1.5,1.5-2.7,1.5c-1.6,0-2.6-1-2.6-2.3v-0.1c0-1.7,1.7-2.3,3.1-2.3h2.2L976.5,962.3
		L976.5,962.3z M974.3,963.8c-0.8,0-1.9,0.3-1.9,1.3c0,0.9,0.8,1.4,1.7,1.4c1.4,0,2.4-1,2.4-2.4v-0.3H974.3z"/>
	<path d="M981.2,961.1c0.6-1.2,1.6-1.7,2.5-1.7c0.1,0,0.3,0,0.4,0v1.2c-0.1,0-0.3,0-0.4,0c-1.9,0-2.5,1.5-2.5,2.9v3.8h-1.1v-7.9h1.1
		V961.1z"/>
	<path d="M1191,955.8v11.5h-1.3l-6.9-9.8v9.8h-1.2v-11.5h1.4l6.8,9.6v-9.6H1191z"/>
	<path d="M1193.4,963.5c0-2.3,1.8-4.1,4.1-4.1c2.3,0,4.1,1.8,4.1,4c0,2.3-1.8,4.1-4.1,4.1C1195.1,967.5,1193.4,965.7,1193.4,963.5z
		 M1200.3,963.5c0-1.7-1.2-3.1-2.9-3.1c-1.7,0-2.9,1.4-2.9,3c0,1.7,1.2,3.1,2.9,3.1C1199.1,966.5,1200.3,965.1,1200.3,963.5z"/>
	<path d="M1203.3,969.1c0.7-0.5,1.2-1.1,1.3-1.8c-0.1,0-0.2,0.1-0.4,0.1c-0.6,0-1-0.4-1-1s0.5-1,1-1c0.7,0,1.2,0.6,1.2,1.4v0.1
		c0,1-0.5,2-1.6,2.7L1203.3,969.1z"/>
	<path d="M1215.6,962.3c0-1.3-0.7-1.9-2-1.9s-1.9,0.9-2.1,1.6l-1.1-0.2c0.1-0.7,0.9-2.4,3.2-2.4c1.7,0,2.5,0.8,2.9,1.6
		c0.2,0.4,0.2,1,0.2,1.3v5.1h-1.1V966l0,0c-0.6,1-1.5,1.5-2.7,1.5c-1.6,0-2.6-1-2.6-2.3v-0.1c0-1.7,1.7-2.3,3.1-2.3h2.2V962.3z
		 M1213.4,963.8c-0.8,0-1.9,0.3-1.9,1.3c0,0.9,0.8,1.4,1.7,1.4c1.4,0,2.4-1,2.4-2.4v-0.3H1213.4z"/>
	<path d="M1224.9,962.8c0-1.4-0.7-2.4-2.2-2.4c-1.4,0-2.3,1.1-2.3,2.5v4.5h-1.2v-7.9h1.1v1.4c0.6-1.1,1.5-1.6,2.7-1.6
		c1.9,0,3,1.3,3,3.2v4.9h-1.2L1224.9,962.8L1224.9,962.8z"/>
	<path d="M1231.7,959.4c1.5,0,2.4,0.9,3.1,1.8v-5.8h1.1v12h-1.1v-1.7c-0.6,1-1.5,1.8-3.1,1.8c-2.3,0-3.7-1.9-3.7-4.1
		C1228,961.4,1229.5,959.4,1231.7,959.4z M1234.8,963.4c0-1.6-1.2-3-2.8-3c-1.7,0-2.8,1.4-2.8,3.1c0,1.6,1,3,2.8,3
		C1233.6,966.5,1234.8,965,1234.8,963.4z"/>
	<path d="M1244.3,967.4l-2.6-7.9h1.2l2.1,6.5l0,0l2.1-6.5h1.1l2.2,6.5l0,0l2.1-6.5h1.2l-2.7,7.9h-1.3l-2.1-6.4l0,0l-2.1,6.4H1244.3z
		"/>
	<path d="M1255.8,963.8c0.1,1.5,1.3,2.7,2.8,2.7c1.2,0,2.1-0.6,2.4-1.7l1,0.3c-0.5,1.5-1.9,2.4-3.5,2.4c-2.3,0-4-1.8-4-4.1
		c0-2.1,1.6-4.1,3.8-4.1c2.4,0,3.7,1.7,3.7,4c0,0.1,0,0.3,0,0.4L1255.8,963.8L1255.8,963.8z M1261,962.8c-0.1-1.4-1-2.4-2.6-2.4
		c-1.4,0-2.5,1.1-2.7,2.4H1261z"/>
	<path d="M1270,967.4l-2.6-7.9h1.2l2.1,6.5l0,0l2.1-6.5h1.2l2.2,6.5l0,0l2.1-6.5h1.2l-2.7,7.9h-1.3l-2.1-6.4l0,0l-2.1,6.4H1270z"/>
	<path d="M1280.3,963.5c0-2.3,1.8-4.1,4.1-4.1c2.3,0,4.1,1.8,4.1,4c0,2.3-1.8,4.1-4.1,4.1C1282,967.5,1280.3,965.7,1280.3,963.5z
		 M1287.2,963.5c0-1.7-1.2-3.1-2.9-3.1c-1.7,0-2.9,1.4-2.9,3c0,1.7,1.2,3.1,2.9,3.1S1287.2,965.1,1287.2,963.5z"/>
	<path d="M1296.1,962.8c0-1.4-0.7-2.4-2.2-2.4c-1.4,0-2.3,1.1-2.3,2.5v4.5h-1.1v-7.9h1.1v1.4c0.6-1.1,1.5-1.6,2.7-1.6
		c1.9,0,3,1.3,3,3.2v4.9h-1.1L1296.1,962.8L1296.1,962.8z"/>
	<path d="M1299.1,959.5c0.7-0.5,1.2-1.1,1.3-1.8c-0.1,0-0.2,0.1-0.4,0.1c-0.6,0-1-0.4-1-1s0.5-1,1-1c0.7,0,1.2,0.6,1.2,1.4v0.1
		c0,1-0.5,2-1.6,2.7L1299.1,959.5z"/>
	<path d="M1303.9,965.3v-4.8h-1.5v-1h1.5v-2.3h1.1v2.3h2v1h-2v4.8c0,0.7,0.4,1.1,1.3,1.1c0.3,0,0.5,0,0.7-0.1v1
		c-0.2,0.1-0.7,0.1-0.9,0.1C1304.4,967.4,1303.9,966.5,1303.9,965.3z"/>
	<path d="M1313.7,955.8c0.5,0,0.9,0.4,0.9,0.9s-0.4,0.9-0.9,0.9s-0.9-0.4-0.9-0.9C1312.8,956.2,1313.2,955.8,1313.7,955.8z
		 M1314.3,959.5v7.9h-1.2v-7.9H1314.3z"/>
	<path d="M1322.5,962.8c0-1.4-0.7-2.4-2.2-2.4c-1.4,0-2.3,1.1-2.3,2.5v4.5h-1.2v-7.9h1.1v1.4c0.6-1.1,1.5-1.6,2.7-1.6
		c1.9,0,3,1.3,3,3.2v4.9h-1.2L1322.5,962.8L1322.5,962.8z"/>
	<path d="M1330.8,965.3v-4.8h-1.5v-1h1.5v-2.3h1.1v2.3h2v1h-2v4.8c0,0.7,0.4,1.1,1.3,1.1c0.3,0,0.5,0,0.7-0.1v1
		c-0.2,0.1-0.7,0.1-0.9,0.1C1331.3,967.4,1330.8,966.5,1330.8,965.3z"/>
	<path d="M1341.6,962.8c0-1.4-0.7-2.4-2.2-2.4c-1.4,0-2.3,1.1-2.3,2.5v4.5h-1.2v-12h1.2v5.5c0.6-1,1.5-1.6,2.7-1.6
		c1.9,0,3,1.3,3,3.2v4.9h-1.2V962.8z"/>
	<path d="M1345.8,963.8c0.1,1.5,1.3,2.7,2.8,2.7c1.2,0,2.1-0.6,2.4-1.7l1,0.3c-0.5,1.5-1.9,2.4-3.5,2.4c-2.3,0-4-1.8-4-4.1
		c0-2.1,1.6-4.1,3.8-4.1c2.4,0,3.7,1.7,3.7,4c0,0.1,0,0.3,0,0.4L1345.8,963.8L1345.8,963.8z M1351,962.8c-0.1-1.4-1-2.4-2.6-2.4
		c-1.4,0-2.5,1.1-2.7,2.4H1351z"/>
	<path d="M1360,958v1.5h2.1v1h-2.1v6.9h-1.2v-6.9h-1.5v-1h1.5V958c0-1.8,1-2.7,2.4-2.7c0.2,0,0.6,0,0.9,0.1v1
		c-0.3-0.1-0.6-0.1-0.8-0.1C1360.7,956.3,1360,956.7,1360,958z"/>
	<path d="M1364.6,964.1c0,1.4,0.7,2.4,2.2,2.4c1.4,0,2.3-1.1,2.3-2.5v-4.5h1.1v7.9h-1.1V966c-0.6,1.1-1.5,1.6-2.7,1.6
		c-1.9,0-3-1.3-3-3.2v-4.9h1.1L1364.6,964.1L1364.6,964.1z"/>
	<path d="M1373.4,965.3v-4.8h-1.5v-1h1.5v-2.3h1.1v2.3h2v1h-2v4.8c0,0.7,0.4,1.1,1.3,1.1c0.3,0,0.5,0,0.7-0.1v1
		c-0.2,0.1-0.7,0.1-0.9,0.1C1374,967.4,1373.4,966.5,1373.4,965.3z"/>
	<path d="M1379.5,964.1c0,1.4,0.7,2.4,2.2,2.4c1.4,0,2.3-1.1,2.3-2.5v-4.5h1.1v7.9h-1.1V966c-0.6,1.1-1.5,1.6-2.7,1.6
		c-1.9,0-3-1.3-3-3.2v-4.9h1.1L1379.5,964.1L1379.5,964.1z"/>
	<path d="M1388.9,961.1c0.6-1.2,1.6-1.7,2.5-1.7c0.1,0,0.3,0,0.4,0v1.2c-0.1,0-0.3,0-0.4,0c-1.9,0-2.5,1.5-2.5,2.9v3.8h-1.2v-7.9
		h1.1L1388.9,961.1L1388.9,961.1z"/>
	<path d="M1393.7,963.8c0.1,1.5,1.3,2.7,2.8,2.7c1.2,0,2.1-0.6,2.4-1.7l1,0.3c-0.5,1.5-1.9,2.4-3.5,2.4c-2.3,0-4-1.8-4-4.1
		c0-2.1,1.6-4.1,3.8-4.1c2.4,0,3.7,1.7,3.7,4c0,0.1,0,0.3,0,0.4L1393.7,963.8L1393.7,963.8z M1398.9,962.8c-0.1-1.4-1-2.4-2.6-2.4
		c-1.4,0-2.5,1.1-2.7,2.4H1398.9z"/>
	<path d="M114.9,83.5l-0.7,3.9c0.7-0.7,2-0.9,2.5-0.9c2.2,0,3.8,1.4,3.8,3.7c0,2.5-2.1,3.8-4,3.8s-3.7-1.2-3.9-3.2l1.2-0.3
		c0.2,1.3,1.3,2.3,2.8,2.3c1.1,0,2.8-0.8,2.8-2.6s-1.4-2.7-2.8-2.7c-0.8,0-1.8,0.4-2.4,1.2l-1.1-0.4l1-6h6.1v1.1L114.9,83.5
		L114.9,83.5z"/>
	<path d="M136.9,82.6c6.2,0,10.4,4.3,10.4,9.9c0,5.9-4.6,9.9-10.4,9.9H131V82.6H136.9z M136.9,100.4c5,0,8.4-3.3,8.4-7.9
		c0-4.5-3.2-8-8.4-8h-3.7v15.9H136.9z"/>
	<path d="M150,95.6c0-4,3-7,7-7c3.9,0,6.9,3.1,6.9,6.9c0,4-3.1,7-7,7C153,102.6,150,99.5,150,95.6z M161.9,95.6c0-2.8-2-5.3-5-5.3
		s-4.9,2.4-4.9,5.2c0,2.8,2,5.3,5,5.3C159.9,100.8,161.9,98.4,161.9,95.6z"/>
	<path d="M178.3,101.4l-6.1-12.6h2.3l5,10.4l4.7-10.4h2.1l-9.2,20.1H175L178.3,101.4z"/>
	<path d="M187.4,95.6c0-4,3-7,7-7c3.9,0,6.9,3.1,6.9,6.9c0,4-3.1,7-7,7C190.4,102.6,187.4,99.5,187.4,95.6z M199.3,95.6
		c0-2.8-2-5.3-5-5.3c-2.9,0-4.9,2.4-4.9,5.2c0,2.8,2,5.3,5,5.3C197.3,100.8,199.3,98.4,199.3,95.6z"/>
	<path d="M206.6,96.7c0,2.4,1.2,4.1,3.7,4.1c2.4,0,4-1.8,4-4.2v-7.7h1.9v13.5h-1.9v-2.5c-1.1,1.8-2.7,2.7-4.6,2.7
		c-3.3,0-5.1-2.2-5.1-5.4v-8.3h1.9v7.8H206.6z"/>
	<path d="M237.6,94.5c0-2.4-1.2-4.1-3.7-4.1c-2.4,0-4,1.9-4,4.3v7.7h-2V81.8h2v9.5c1.1-1.8,2.6-2.7,4.6-2.7c3.3,0,5.1,2.2,5.1,5.4
		v8.3h-2L237.6,94.5L237.6,94.5z"/>
	<path d="M251.9,93.6c0-2.2-1.2-3.3-3.4-3.3c-2.3,0-3.3,1.5-3.5,2.8l-1.9-0.4c0.1-1.1,1.6-4.1,5.5-4.1c2.9,0,4.3,1.3,4.9,2.8
		c0.3,0.7,0.4,1.8,0.4,2.2v8.7H252V100l0,0c-1.1,1.7-2.5,2.6-4.5,2.6c-2.7,0-4.5-1.7-4.5-4v-0.2c0-2.9,2.9-3.9,5.3-3.9h3.7v-0.9
		H251.9z M248.2,96.2c-1.4,0-3.3,0.5-3.3,2.3c0,1.5,1.3,2.4,2.9,2.4c2.4,0,4.2-1.7,4.2-4.2v-0.5C252,96.2,248.2,96.2,248.2,96.2z"/>
	<path d="M256.2,88.8h2.2l4.6,11.3l4.7-11.3h2.1l-5.8,13.5h-2.1L256.2,88.8z"/>
	<path d="M273.1,96.2c0.2,2.6,2.2,4.6,4.8,4.6c2,0,3.5-1,4.2-2.9l1.8,0.6c-0.8,2.6-3.2,4.1-5.9,4.1c-3.9,0-6.8-3.1-6.8-7
		c0-3.7,2.8-6.9,6.6-6.9c4.2,0,6.4,3,6.4,6.9c0,0.2,0,0.5,0,0.7L273.1,96.2L273.1,96.2z M282,94.5c-0.3-2.5-1.8-4.2-4.4-4.2
		c-2.3,0-4.2,1.9-4.5,4.2H282z"/>
	<path d="M302.6,93.6c0-2.2-1.2-3.3-3.4-3.3c-2.3,0-3.3,1.5-3.5,2.8l-1.9-0.4c0.1-1.1,1.6-4.1,5.5-4.1c2.9,0,4.3,1.3,4.9,2.8
		c0.3,0.7,0.4,1.8,0.4,2.2v8.7h-1.9V100l0,0c-1.1,1.7-2.5,2.6-4.5,2.6c-2.7,0-4.5-1.7-4.5-4v-0.2c0-2.9,2.9-3.9,5.3-3.9h3.7v-0.9
		H302.6z M298.8,96.2c-1.4,0-3.3,0.5-3.3,2.3c0,1.5,1.3,2.4,2.9,2.4c2.4,0,4.2-1.7,4.2-4.2v-0.5C302.6,96.2,298.8,96.2,298.8,96.2z"
		/>
	<path d="M316.4,82.6h7.1c3.6,0,6.4,1.7,6.4,5c0,0.9-0.2,3.3-3,4.5c2.9,0.8,3.9,3.3,3.9,4.9c0,3.8-3.3,5.4-7,5.4h-7.4V82.6z
		 M318.4,91.3h4.7c3.3,0,4.6-1.6,4.6-3.6c0-2.4-2.2-3.3-4.4-3.3h-4.9L318.4,91.3L318.4,91.3z M318.4,100.4h5.4
		c2.1,0,4.8-0.9,4.8-3.7c0-2.8-2.9-3.6-5.2-3.6h-5L318.4,100.4L318.4,100.4z"/>
	<path d="M336.2,96.7c0,2.4,1.2,4.1,3.7,4.1c2.4,0,4-1.8,4-4.2v-7.7h1.9v13.5H344v-2.5c-1.1,1.8-2.7,2.7-4.6,2.7
		c-3.3,0-5.1-2.2-5.1-5.4v-8.3h1.9L336.2,96.7L336.2,96.7z"/>
	<path d="M354.5,102.6c-3.7,0-4.9-2.5-5.1-4l1.8-0.4c0.3,1.2,1.2,2.7,3.3,2.7c1.5,0,2.8-0.8,2.8-2.2c0-1.6-1.8-2-3.2-2.2
		c-2.2-0.3-4.4-1.1-4.4-3.8c0-2.5,2.3-4,4.5-4c3.6,0,4.7,2.4,4.9,3.7l-1.8,0.4c-0.2-0.9-1-2.4-3.1-2.4c-1.5,0-2.6,1-2.6,2.1
		c0,1.7,1.8,1.9,3.2,2.1c2.2,0.3,4.4,1.4,4.4,3.9C359.3,101,357.1,102.6,354.5,102.6z"/>
	<path d="M363.7,82.5c0.8,0,1.5,0.7,1.5,1.5s-0.7,1.5-1.5,1.5s-1.5-0.7-1.5-1.5C362.3,83.2,362.9,82.5,363.7,82.5z M364.8,88.8v13.5
		h-2V88.8H364.8z"/>
	<path d="M378.9,94.5c0-2.4-1.2-4.1-3.7-4.1c-2.4,0-4,1.9-4,4.3v7.7h-2V88.8h1.9v2.5c1.1-1.8,2.7-2.7,4.6-2.7c3.3,0,5.1,2.2,5.1,5.4
		v8.3h-2v-7.8H378.9z"/>
	<path d="M386.2,96.2c0.2,2.6,2.2,4.6,4.8,4.6c2,0,3.5-1,4.2-2.9l1.8,0.6c-0.8,2.6-3.2,4.1-5.9,4.1c-3.9,0-6.8-3.1-6.8-7
		c0-3.7,2.8-6.9,6.6-6.9c4.2,0,6.4,3,6.4,6.9c0,0.2,0,0.5,0,0.7L386.2,96.2L386.2,96.2z M395.1,94.5c-0.3-2.5-1.8-4.2-4.4-4.2
		c-2.3,0-4.2,1.9-4.5,4.2H395.1z"/>
	<path d="M404.6,102.6c-3.7,0-4.9-2.5-5.1-4l1.8-0.4c0.3,1.2,1.2,2.7,3.3,2.7c1.5,0,2.8-0.8,2.8-2.2c0-1.6-1.8-2-3.2-2.2
		c-2.2-0.3-4.4-1.1-4.4-3.8c0-2.5,2.3-4,4.5-4c3.6,0,4.7,2.4,4.9,3.7l-1.8,0.4c-0.2-0.9-1-2.4-3.1-2.4c-1.5,0-2.6,1-2.6,2.1
		c0,1.7,1.8,1.9,3.2,2.1c2.2,0.3,4.4,1.4,4.4,3.9C409.4,101,407.2,102.6,404.6,102.6z"/>
	<path d="M417,102.6c-3.7,0-4.9-2.5-5.1-4l1.8-0.4c0.3,1.2,1.2,2.7,3.3,2.7c1.5,0,2.8-0.8,2.8-2.2c0-1.6-1.8-2-3.2-2.2
		c-2.2-0.3-4.4-1.1-4.4-3.8c0-2.5,2.3-4,4.5-4c3.6,0,4.7,2.4,4.9,3.7l-1.8,0.4c-0.2-0.9-1-2.4-3.1-2.4c-1.5,0-2.6,1-2.6,2.1
		c0,1.7,1.8,1.9,3.2,2.1c2.2,0.3,4.4,1.4,4.4,3.9C421.8,101,419.6,102.6,417,102.6z"/>
	<path d="M431.5,92.5c0-6,4.5-10.2,10-10.2c5.4,0,8.2,3.8,8.8,6.5l-2,0.7c-0.3-1.3-2-5.2-6.9-5.2c-4.2,0-7.7,3.3-7.7,8.1
		c0,4.7,3.3,8.2,7.8,8.2c4.8,0,6.4-3.6,6.9-5.3l2,0.7c-0.7,2.4-3.3,6.5-9,6.5C435.9,102.5,431.5,98.5,431.5,92.5z"/>
	<path d="M452.6,95.6c0-4,3-7,7-7c3.9,0,6.9,3.1,6.9,6.9c0,4-3.1,7-7,7C455.6,102.6,452.6,99.5,452.6,95.6z M464.5,95.6
		c0-2.8-2-5.3-5-5.3s-4.9,2.4-4.9,5.2c0,2.8,2,5.3,5,5.3C462.5,100.8,464.5,98.4,464.5,95.6z"/>
	<path d="M479.7,94.5c0-2.4-1.2-4.1-3.7-4.1c-2.4,0-4,1.9-4,4.3v7.7h-2V88.8h1.9v2.5c1.1-1.8,2.7-2.7,4.7-2.7c3.3,0,5.1,2.2,5.1,5.4
		v8.3h-2V94.5z"/>
	<path d="M486.8,98.9v-8.3h-2.5v-1.7h2.5V85h1.9v3.9h3.4v1.7h-3.4v8.2c0,1.2,0.7,1.9,2.2,1.9c0.4,0,0.9,0,1.2-0.1v1.6
		c-0.4,0.1-1.2,0.2-1.5,0.2C487.6,102.4,486.8,100.8,486.8,98.9z"/>
	<path d="M496.4,82.5c0.8,0,1.5,0.7,1.5,1.5s-0.7,1.5-1.5,1.5s-1.5-0.7-1.5-1.5C495,83.2,495.6,82.5,496.4,82.5z M497.4,88.8v13.5
		h-2V88.8H497.4z"/>
	<path d="M511.6,94.5c0-2.4-1.2-4.1-3.7-4.1c-2.4,0-4,1.9-4,4.3v7.7h-2V88.8h1.9v2.5c1.1-1.8,2.7-2.7,4.7-2.7c3.3,0,5.1,2.2,5.1,5.4
		v8.3h-2L511.6,94.5L511.6,94.5z"/>
	<path d="M519.7,96.7c0,2.4,1.2,4.1,3.7,4.1c2.4,0,4-1.8,4-4.2v-7.7h1.9v13.5h-1.9v-2.5c-1.1,1.8-2.7,2.7-4.6,2.7
		c-3.3,0-5.1-2.2-5.1-5.4v-8.3h1.9L519.7,96.7L519.7,96.7z"/>
	<path d="M534.8,82.5c0.8,0,1.5,0.7,1.5,1.5s-0.7,1.5-1.5,1.5s-1.5-0.7-1.5-1.5S534,82.5,534.8,82.5z M535.8,88.8v13.5h-2V88.8
		H535.8z"/>
	<path d="M541.2,98.9v-8.3h-2.5v-1.7h2.5V85h1.9v3.9h3.4v1.7h-3.4v8.2c0,1.2,0.7,1.9,2.2,1.9c0.4,0,0.9,0,1.2-0.1v1.6
		c-0.4,0.1-1.2,0.2-1.5,0.2C542.1,102.4,541.2,100.8,541.2,98.9z"/>
	<path d="M554.3,101.4l-6.1-12.6h2.3l5,10.4l4.7-10.4h2.1L553,109h-2.1L554.3,101.4z"/>
	<path d="M574,102.3h-2V82.6h6.6c4.8,0,6.9,2.9,6.9,5.9c0,3.4-2.5,6.1-7.3,6.1H574V102.3z M574,92.7h4.3c3.6,0,5.1-2.1,5.1-4.1
		c0-1.9-1.1-4.1-5-4.1H574V92.7z"/>
	<path d="M590.6,81.7v20.6h-2V81.7H590.6z"/>
	<path d="M603.2,93.6c0-2.2-1.2-3.3-3.4-3.3c-2.3,0-3.3,1.5-3.5,2.8l-1.9-0.4c0.1-1.1,1.6-4.1,5.5-4.1c2.9,0,4.3,1.3,4.9,2.8
		c0.3,0.7,0.4,1.8,0.4,2.2v8.7h-1.9V100l0,0c-1.1,1.7-2.5,2.6-4.5,2.6c-2.7,0-4.5-1.7-4.5-4v-0.2c0-2.9,2.9-3.9,5.3-3.9h3.7
		L603.2,93.6L603.2,93.6z M599.4,96.2c-1.4,0-3.3,0.5-3.3,2.3c0,1.5,1.3,2.4,2.9,2.4c2.4,0,4.2-1.7,4.2-4.2v-0.5
		C603.2,96.2,599.4,96.2,599.4,96.2z"/>
	<path d="M619.2,94.5c0-2.4-1.2-4.1-3.7-4.1c-2.4,0-4,1.9-4,4.3v7.7h-2V88.8h1.9v2.5c1.1-1.8,2.7-2.7,4.7-2.7c3.3,0,5.1,2.2,5.1,5.4
		v8.3h-2V94.5z"/>
	<path d="M628.1,96.6c0-0.2,0-0.3,0-0.5c0-2.3,1.4-3.5,2.5-4.6c1.1-1.2,2.5-2.3,2.5-4c0-1.6-1.1-3.2-3.7-3.2c-2.6,0-3.9,1.9-3.8,4.3
		l-2-0.1c0-0.2,0-0.4,0-0.6c0-3.3,2.7-5.6,5.8-5.6c3.5,0,5.8,2.5,5.8,5.2c0,2-1.2,3.2-3,5c-1.3,1.3-2.2,2.1-2.2,4.1
		C630,96.6,628.1,96.6,628.1,96.6z M629,102.6c0.8,0,1.5-0.7,1.5-1.5s-0.6-1.5-1.5-1.5c-0.8,0-1.5,0.7-1.5,1.5
		S628.2,102.6,629,102.6z"/>
	<path d="M132.2,123c0-5.3,2.7-9.7,7.2-12.3l0.8,1.3c-4.1,2.6-6,6.2-6,11v0.6c0,4.8,1.9,8.4,6,11l-0.8,1.3
		c-4.5-2.7-7.2-7.1-7.2-12.3V123z"/>
	<path d="M150.3,132.9c-2.6,0-4.1-1.3-5.2-3v2.8h-1.9v-20.6h2v10c1.1-1.7,2.7-3.1,5.2-3.1c3.8,0,6.3,3.4,6.3,6.9
		C156.6,129.5,154.1,132.9,150.3,132.9z M154.6,125.9c0-2.8-1.7-5.3-4.7-5.3c-2.8,0-4.8,2.5-4.8,5.2c0,2.8,2,5.3,4.8,5.3
		C152.9,131.1,154.6,128.8,154.6,125.9z"/>
	<path d="M164,131.8l-6.1-12.6h2.3l5,10.4l4.7-10.4h2.1l-9.2,20.1h-2.1L164,131.8z"/>
	<path d="M185.3,132.9c-3.7,0-4.9-2.5-5.1-4l1.8-0.4c0.3,1.2,1.2,2.7,3.3,2.7c1.5,0,2.8-0.8,2.8-2.2c0-1.6-1.8-2-3.2-2.2
		c-2.2-0.3-4.4-1.1-4.4-3.8c0-2.5,2.3-4,4.5-4c3.6,0,4.7,2.4,4.9,3.7l-1.8,0.4c-0.2-0.9-1-2.4-3.1-2.4c-1.5,0-2.6,1-2.6,2.1
		c0,1.7,1.8,1.9,3.2,2.1c2.2,0.3,4.4,1.4,4.4,3.9C190,131.3,187.9,132.9,185.3,132.9z"/>
	<path d="M194.5,112.8c0.8,0,1.5,0.7,1.5,1.5s-0.7,1.5-1.5,1.5s-1.5-0.7-1.5-1.5C193.1,113.5,193.7,112.8,194.5,112.8z M195.5,119.2
		v13.5h-2v-13.5H195.5z"/>
	<path d="M209.6,132.7h-10.8V131l8.4-10.1H199v-1.7h10.6v1.7l-8.4,10.1h8.4V132.7z"/>
	<path d="M213.7,126.5c0.2,2.6,2.2,4.6,4.8,4.6c2,0,3.5-1,4.2-2.9l1.8,0.6c-0.8,2.6-3.2,4.1-5.9,4.1c-3.9,0-6.8-3.1-6.8-7
		c0-3.7,2.8-6.9,6.6-6.9c4.2,0,6.4,3,6.4,6.9c0,0.2,0,0.5,0,0.7h-11.1V126.5z M222.7,124.9c-0.3-2.5-1.8-4.2-4.4-4.2
		c-2.3,0-4.2,1.9-4.5,4.2H222.7z"/>
	<path d="M234.1,126c0-4,3-7,7-7c3.9,0,6.9,3.1,6.9,6.9c0,4-3.1,7-7,7C237.2,132.9,234.1,129.8,234.1,126z M246,126
		c0-2.8-2-5.3-5-5.3s-4.9,2.4-4.9,5.2c0,2.8,2,5.3,5,5.3C244,131.1,246,128.8,246,126z"/>
	<path d="M254.2,116.6v2.6h3.5v1.7h-3.5v11.8h-2v-11.8h-2.6v-1.7h2.6v-2.5c0-3.1,1.7-4.6,4.1-4.6c0.4,0,1,0.1,1.5,0.3v1.7
		c-0.5-0.2-1.1-0.2-1.4-0.2C255.5,113.8,254.2,114.3,254.2,116.6z"/>
	<path d="M269.5,112.9v19.8h-2.1v-19.8C267.4,112.9,269.5,112.9,269.5,112.9z"/>
	<path d="M279.4,132.7v-17.8h-6.6V113h15.3v1.9h-6.6v17.8H279.4z"/>
	<path d="M297.9,129.2v-8.3h-2.5v-1.7h2.5v-3.9h1.9v3.9h3.4v1.7h-3.4v8.2c0,1.2,0.7,1.9,2.2,1.9c0.4,0,0.9,0,1.2-0.1v1.6
		c-0.4,0.1-1.2,0.2-1.5,0.2C298.8,132.8,297.9,131.1,297.9,129.2z"/>
	<path d="M307.3,126.5c0.2,2.6,2.2,4.6,4.8,4.6c2,0,3.5-1,4.2-2.9l1.8,0.6c-0.8,2.6-3.2,4.1-5.9,4.1c-3.9,0-6.8-3.1-6.8-7
		c0-3.7,2.8-6.9,6.6-6.9c4.2,0,6.4,3,6.4,6.9c0,0.2,0,0.5,0,0.7h-11.1V126.5z M316.3,124.9c-0.3-2.5-1.8-4.2-4.4-4.2
		c-2.3,0-4.2,1.9-4.5,4.2H316.3z"/>
	<path d="M329.8,124c0-2.2-1.2-3.3-3.4-3.3c-2.3,0-3.3,1.5-3.5,2.8l-1.9-0.4c0.1-1.1,1.6-4.1,5.5-4.1c2.9,0,4.3,1.3,4.9,2.8
		c0.3,0.7,0.4,1.8,0.4,2.2v8.7h-1.9v-2.4l0,0c-1.1,1.7-2.5,2.6-4.5,2.6c-2.7,0-4.5-1.7-4.5-4v-0.2c0-2.9,2.9-3.9,5.3-3.9h3.7V124
		H329.8z M326,126.5c-1.4,0-3.3,0.5-3.3,2.3c0,1.5,1.3,2.4,2.9,2.4c2.4,0,4.2-1.7,4.2-4.2v-0.5H326z"/>
	<path d="M345.2,124.8c0-2.2-1.1-4-3.5-4c-2.3,0-3.7,2.1-3.7,4.3v7.7h-2v-13.5h1.9v2.4c1.1-1.6,2.3-2.6,4.3-2.6s3.5,0.9,4.3,2.7
		c1.1-1.7,2.6-2.7,4.8-2.7c3.3,0,5,2.2,5,5.4v8.3h-2v-7.9c0-2.2-1-4.1-3.5-4.1c-2.4,0-3.7,1.9-3.7,4.2v7.8h-1.9L345.2,124.8
		L345.2,124.8z"/>
	<path d="M366.1,123.6c0,5.3-2.7,9.7-7.2,12.3l-0.8-1.3c4.1-2.6,6-6.2,6-11V123c0-4.8-1.9-8.4-6-11l0.9-1.3
		c4.5,2.6,7.2,7.1,7.2,12.3v0.6H366.1z"/>
	<g>
		<path d="M1217.2,271.1v1.1l-6.4,3l6.4,3v1.2l-7.6-3.6v-1.1L1217.2,271.1z"/>
		<path d="M1222.6,270.4l-0.7,3.9c0.7-0.7,2-0.9,2.5-0.9c2.2,0,3.8,1.4,3.8,3.7c0,2.5-2.1,3.8-4,3.8s-3.7-1.2-4-3.2l1.2-0.3
			c0.2,1.3,1.3,2.3,2.8,2.3c1.2,0,2.8-0.8,2.8-2.6c0-1.9-1.4-2.7-2.8-2.7c-0.8,0-1.8,0.4-2.4,1.2l-1.1-0.4l1-6h6.1v1.1h-5.2V270.4z"
			/>
		<path d="M1240,280.9c-1.5,0-2.4-0.7-3-1.7v5.5h-1.2v-11.8h1.1v1.7c0.6-1,1.6-1.8,3.1-1.8c2.2,0,3.7,2,3.7,4.1
			C1243.7,279,1242.3,280.9,1240,280.9z M1242.6,276.9c0-1.6-1-3.1-2.8-3.1c-1.6,0-2.8,1.4-2.8,3s1.2,3.1,2.8,3.1
			C1241.6,279.9,1242.6,278.6,1242.6,276.9z"/>
		<path d="M1247.1,277.2c0.1,1.5,1.3,2.7,2.8,2.7c1.2,0,2.1-0.6,2.4-1.7l1,0.3c-0.5,1.5-1.9,2.4-3.5,2.4c-2.3,0-4-1.8-4-4.1
			c0-2.1,1.6-4.1,3.8-4.1c2.4,0,3.7,1.7,3.7,4c0,0.1,0,0.3,0,0.4h-6.2V277.2z M1252.3,276.3c-0.1-1.4-1-2.4-2.6-2.4
			c-1.4,0-2.5,1.1-2.7,2.4H1252.3z"/>
		<path d="M1255.6,276.9c0-2.3,1.8-4.1,4.1-4.1c2.3,0,4.1,1.8,4.1,4c0,2.3-1.8,4.1-4.1,4.1S1255.6,279.1,1255.6,276.9z
			 M1262.6,276.9c0-1.7-1.2-3.1-2.9-3.1c-1.7,0-2.9,1.4-2.9,3c0,1.7,1.2,3.1,2.9,3.1S1262.6,278.5,1262.6,276.9z"/>
		<path d="M1270.7,280.9c-1.5,0-2.4-0.7-3-1.7v5.5h-1.2v-11.8h1.1v1.7c0.6-1,1.6-1.8,3.1-1.8c2.2,0,3.7,2,3.7,4.1
			C1274.4,279,1272.9,280.9,1270.7,280.9z M1273.2,276.9c0-1.6-1-3.1-2.8-3.1c-1.6,0-2.8,1.4-2.8,3s1.2,3.1,2.8,3.1
			C1272.2,279.9,1273.2,278.6,1273.2,276.9z"/>
		<path d="M1278.3,268.8v12h-1.2v-12H1278.3z"/>
		<path d="M1282.3,277.2c0.1,1.5,1.3,2.7,2.8,2.7c1.2,0,2.1-0.6,2.4-1.7l1,0.3c-0.5,1.5-1.9,2.4-3.5,2.4c-2.3,0-4-1.8-4-4.1
			c0-2.1,1.6-4.1,3.8-4.1c2.4,0,3.7,1.7,3.7,4c0,0.1,0,0.3,0,0.4h-6.2V277.2z M1287.5,276.3c-0.1-1.4-1-2.4-2.6-2.4
			c-1.4,0-2.5,1.1-2.7,2.4H1287.5z"/>
	</g>
	<g>
		<path d="M1212,311.1l-0.7,3.9c0.7-0.7,2-0.9,2.5-0.9c2.2,0,3.8,1.4,3.8,3.7c0,2.5-2.1,3.8-4,3.8s-3.7-1.2-4-3.2l1.2-0.3
			c0.2,1.3,1.3,2.3,2.8,2.3c1.2,0,2.8-0.8,2.8-2.6c0-1.9-1.4-2.7-2.8-2.7c-0.8,0-1.8,0.4-2.4,1.2l-1.1-0.4l1-6h6.1v1.1h-5.2V311.1z"
			/>
		<path d="M1223.1,319.6v-3.1h-3.1v-1.1h3.1v-3h1.1v3h3.1v1.1h-3.1v3.1H1223.1z"/>
		<path d="M1239.1,321.6c-1.5,0-2.4-0.7-3-1.7v5.5h-1.2v-11.8h1.1v1.7c0.6-1,1.6-1.8,3.1-1.8c2.2,0,3.7,2,3.7,4.1
			C1242.8,319.7,1241.3,321.6,1239.1,321.6z M1241.6,317.6c0-1.6-1-3.1-2.8-3.1c-1.6,0-2.8,1.4-2.8,3s1.2,3.1,2.8,3.1
			C1240.6,320.6,1241.6,319.3,1241.6,317.6z"/>
		<path d="M1246.1,317.9c0.1,1.5,1.3,2.7,2.8,2.7c1.2,0,2.1-0.6,2.4-1.7l1,0.3c-0.5,1.5-1.9,2.4-3.5,2.4c-2.3,0-4-1.8-4-4.1
			c0-2.1,1.6-4.1,3.8-4.1c2.4,0,3.7,1.7,3.7,4c0,0.1,0,0.3,0,0.4h-6.2V317.9z M1251.4,317c-0.1-1.4-1-2.4-2.6-2.4
			c-1.4,0-2.5,1.1-2.7,2.4H1251.4z"/>
		<path d="M1254.7,317.6c0-2.3,1.8-4.1,4.1-4.1c2.3,0,4.1,1.8,4.1,4c0,2.3-1.8,4.1-4.1,4.1C1256.4,321.7,1254.7,319.9,1254.7,317.6z
			 M1261.6,317.6c0-1.7-1.2-3.1-2.9-3.1c-1.7,0-2.9,1.4-2.9,3c0,1.7,1.2,3.1,2.9,3.1S1261.6,319.2,1261.6,317.6z"/>
		<path d="M1269.7,321.6c-1.5,0-2.4-0.7-3-1.7v5.5h-1.2v-11.8h1.1v1.7c0.6-1,1.6-1.8,3.1-1.8c2.2,0,3.7,2,3.7,4.1
			C1273.4,319.7,1272,321.6,1269.7,321.6z M1272.3,317.6c0-1.6-1-3.1-2.8-3.1c-1.6,0-2.8,1.4-2.8,3s1.2,3.1,2.8,3.1
			C1271.3,320.6,1272.3,319.3,1272.3,317.6z"/>
		<path d="M1277.4,309.5v12h-1.2v-12H1277.4z"/>
		<path d="M1281.3,317.9c0.1,1.5,1.3,2.7,2.8,2.7c1.2,0,2.1-0.6,2.4-1.7l1,0.3c-0.5,1.5-1.9,2.4-3.5,2.4c-2.3,0-4-1.8-4-4.1
			c0-2.1,1.6-4.1,3.8-4.1c2.4,0,3.7,1.7,3.7,4c0,0.1,0,0.3,0,0.4h-6.2V317.9z M1286.5,317c-0.1-1.4-1-2.4-2.6-2.4
			c-1.4,0-2.5,1.1-2.7,2.4H1286.5z"/>
	</g>
</g>
<g id="redCircleBCP4">
	<circle class="st3-bcp4" cx="1182.9" cy="317.6" r="14"/>
</g>
<g id="blueCircleBCP4">
	<g class="st8-bcp4">
		<circle class="st4-bcp4" cx="1182.9" cy="276.9" r="14"/>
	</g>
	<g class="st9-bcp4">
		<circle class="st4-bcp4" cx="1182.9" cy="276.9" r="14"/>
	</g>
	<g class="st8-bcp4">
		
			<pattern  id="SVGID-5-bcp4" xlink:href="#SVGID_2_" patternTransform="matrix(1.0528 0 0 -1.0528 5359.8706 -19952.2324)"  class="st8-bcp4">
		</pattern>
		<circle class="st10-bcp4" cx="1182.9" cy="276.9" r="14"/>
	</g>
	<g class="st9-bcp4">
		
			<pattern  id="SVGID-6-bcp4" xlink:href="#SVGID_3_" patternTransform="matrix(1.0528 0 0 -1.0528 5359.8706 -19952.2324)"  class="st9-bcp4">
		</pattern>
		<circle class="st11-bcp4" cx="1182.9" cy="276.9" r="14"/>
	</g>
</g>
</svg>
