<?xml version="1.0" encoding="utf-8"?>
<!-- Generator: Adobe Illustrator 21.1.0, SVG Export Plug-In . SVG Version: 6.00 Build 0)  -->
<svg version="1.1" id="Layer_1" xmlns="http://www.w3.org/2000/svg" xmlns:xlink="http://www.w3.org/1999/xlink" x="0px" y="0px"
	 viewBox="0 0 1500 1053" style="enable-background:new 0 0 1500 1053;" xml:space="preserve">
<style type="text/css">
	.st0{fill:none;}
	.st1{fill:none;stroke:#0000FF;stroke-width:2;stroke-linecap:round;stroke-miterlimit:10;}
	.st2{fill:none;stroke:#0000FF;stroke-width:2;stroke-linecap:round;stroke-miterlimit:10;stroke-dasharray:0,10;}
	.st3{fill:#FFFFFF;}
	.st4{fill:#F76C6C;}
	.st5{opacity:0.73;}
	.st6{opacity:0.2;}
	.st7{fill:url(#SVGID_5_);}
	.st8{fill:url(#SVGID_6_);}
	.st9{fill:url(#SVGID_7_);}
	.st10{fill:url(#SVGID_8_);}
</style>
<pattern  y="1053" width="240" height="240" patternUnits="userSpaceOnUse" id="SVGID_3_" viewBox="1 -241 240 240" style="overflow:visible;">
	<g>
		<rect x="1" y="-241" class="st0" width="240" height="240"/>
		<g>
			<rect x="1" y="-241" class="st0" width="240" height="240"/>
			<g>
				<g>
					<line class="st1" x1="241" y1="-241" x2="241" y2="-241"/>
				</g>
			</g>
			<g>
				<g>
					<line class="st1" x1="1" y1="-241" x2="1" y2="-241"/>
					<line class="st2" x1="11" y1="-241" x2="236" y2="-241"/>
					<line class="st1" x1="241" y1="-241" x2="241" y2="-241"/>
				</g>
			</g>
			<g>
				<g>
					<line class="st1" x1="1" y1="-241" x2="1" y2="-241"/>
				</g>
			</g>
			<g>
				<g>
					<line class="st1" x1="241" y1="-1" x2="241" y2="-1"/>
				</g>
				<g>
					<line class="st1" x1="241" y1="-11" x2="241" y2="-11"/>
				</g>
				<g>
					<line class="st1" x1="241" y1="-21" x2="241" y2="-21"/>
				</g>
				<g>
					<line class="st1" x1="241" y1="-31" x2="241" y2="-31"/>
				</g>
				<g>
					<line class="st1" x1="241" y1="-41" x2="241" y2="-41"/>
				</g>
				<g>
					<line class="st1" x1="241" y1="-51" x2="241" y2="-51"/>
				</g>
				<g>
					<line class="st1" x1="241" y1="-61" x2="241" y2="-61"/>
				</g>
				<g>
					<line class="st1" x1="241" y1="-71" x2="241" y2="-71"/>
				</g>
				<g>
					<line class="st1" x1="241" y1="-81" x2="241" y2="-81"/>
				</g>
				<g>
					<line class="st1" x1="241" y1="-91" x2="241" y2="-91"/>
				</g>
				<g>
					<line class="st1" x1="241" y1="-101" x2="241" y2="-101"/>
				</g>
				<g>
					<line class="st1" x1="241" y1="-111" x2="241" y2="-111"/>
				</g>
				<g>
					<line class="st1" x1="241" y1="-121" x2="241" y2="-121"/>
				</g>
				<g>
					<line class="st1" x1="241" y1="-131" x2="241" y2="-131"/>
				</g>
				<g>
					<line class="st1" x1="241" y1="-141" x2="241" y2="-141"/>
				</g>
				<g>
					<line class="st1" x1="241" y1="-151" x2="241" y2="-151"/>
				</g>
				<g>
					<line class="st1" x1="241" y1="-161" x2="241" y2="-161"/>
				</g>
				<g>
					<line class="st1" x1="241" y1="-171" x2="241" y2="-171"/>
				</g>
				<g>
					<line class="st1" x1="241" y1="-181" x2="241" y2="-181"/>
				</g>
				<g>
					<line class="st1" x1="241" y1="-191" x2="241" y2="-191"/>
				</g>
				<g>
					<line class="st1" x1="241" y1="-201" x2="241" y2="-201"/>
				</g>
				<g>
					<line class="st1" x1="241" y1="-211" x2="241" y2="-211"/>
				</g>
				<g>
					<line class="st1" x1="241" y1="-221" x2="241" y2="-221"/>
				</g>
				<g>
					<line class="st1" x1="241" y1="-231" x2="241" y2="-231"/>
				</g>
				<g>
					<line class="st1" x1="241" y1="-241" x2="241" y2="-241"/>
				</g>
			</g>
			<g>
				<g>
					<line class="st1" x1="1" y1="-1" x2="1" y2="-1"/>
					<line class="st2" x1="11" y1="-1" x2="236" y2="-1"/>
					<line class="st1" x1="241" y1="-1" x2="241" y2="-1"/>
				</g>
				<g>
					<line class="st1" x1="1" y1="-11" x2="1" y2="-11"/>
					<line class="st2" x1="11" y1="-11" x2="236" y2="-11"/>
					<line class="st1" x1="241" y1="-11" x2="241" y2="-11"/>
				</g>
				<g>
					<line class="st1" x1="1" y1="-21" x2="1" y2="-21"/>
					<line class="st2" x1="11" y1="-21" x2="236" y2="-21"/>
					<line class="st1" x1="241" y1="-21" x2="241" y2="-21"/>
				</g>
				<g>
					<line class="st1" x1="1" y1="-31" x2="1" y2="-31"/>
					<line class="st2" x1="11" y1="-31" x2="236" y2="-31"/>
					<line class="st1" x1="241" y1="-31" x2="241" y2="-31"/>
				</g>
				<g>
					<line class="st1" x1="1" y1="-41" x2="1" y2="-41"/>
					<line class="st2" x1="11" y1="-41" x2="236" y2="-41"/>
					<line class="st1" x1="241" y1="-41" x2="241" y2="-41"/>
				</g>
				<g>
					<line class="st1" x1="1" y1="-51" x2="1" y2="-51"/>
					<line class="st2" x1="11" y1="-51" x2="236" y2="-51"/>
					<line class="st1" x1="241" y1="-51" x2="241" y2="-51"/>
				</g>
				<g>
					<line class="st1" x1="1" y1="-61" x2="1" y2="-61"/>
					<line class="st2" x1="11" y1="-61" x2="236" y2="-61"/>
					<line class="st1" x1="241" y1="-61" x2="241" y2="-61"/>
				</g>
				<g>
					<line class="st1" x1="1" y1="-71" x2="1" y2="-71"/>
					<line class="st2" x1="11" y1="-71" x2="236" y2="-71"/>
					<line class="st1" x1="241" y1="-71" x2="241" y2="-71"/>
				</g>
				<g>
					<line class="st1" x1="1" y1="-81" x2="1" y2="-81"/>
					<line class="st2" x1="11" y1="-81" x2="236" y2="-81"/>
					<line class="st1" x1="241" y1="-81" x2="241" y2="-81"/>
				</g>
				<g>
					<line class="st1" x1="1" y1="-91" x2="1" y2="-91"/>
					<line class="st2" x1="11" y1="-91" x2="236" y2="-91"/>
					<line class="st1" x1="241" y1="-91" x2="241" y2="-91"/>
				</g>
				<g>
					<line class="st1" x1="1" y1="-101" x2="1" y2="-101"/>
					<line class="st2" x1="11" y1="-101" x2="236" y2="-101"/>
					<line class="st1" x1="241" y1="-101" x2="241" y2="-101"/>
				</g>
				<g>
					<line class="st1" x1="1" y1="-111" x2="1" y2="-111"/>
					<line class="st2" x1="11" y1="-111" x2="236" y2="-111"/>
					<line class="st1" x1="241" y1="-111" x2="241" y2="-111"/>
				</g>
				<g>
					<line class="st1" x1="1" y1="-121" x2="1" y2="-121"/>
					<line class="st2" x1="11" y1="-121" x2="236" y2="-121"/>
					<line class="st1" x1="241" y1="-121" x2="241" y2="-121"/>
				</g>
				<g>
					<line class="st1" x1="1" y1="-131" x2="1" y2="-131"/>
					<line class="st2" x1="11" y1="-131" x2="236" y2="-131"/>
					<line class="st1" x1="241" y1="-131" x2="241" y2="-131"/>
				</g>
				<g>
					<line class="st1" x1="1" y1="-141" x2="1" y2="-141"/>
					<line class="st2" x1="11" y1="-141" x2="236" y2="-141"/>
					<line class="st1" x1="241" y1="-141" x2="241" y2="-141"/>
				</g>
				<g>
					<line class="st1" x1="1" y1="-151" x2="1" y2="-151"/>
					<line class="st2" x1="11" y1="-151" x2="236" y2="-151"/>
					<line class="st1" x1="241" y1="-151" x2="241" y2="-151"/>
				</g>
				<g>
					<line class="st1" x1="1" y1="-161" x2="1" y2="-161"/>
					<line class="st2" x1="11" y1="-161" x2="236" y2="-161"/>
					<line class="st1" x1="241" y1="-161" x2="241" y2="-161"/>
				</g>
				<g>
					<line class="st1" x1="1" y1="-171" x2="1" y2="-171"/>
					<line class="st2" x1="11" y1="-171" x2="236" y2="-171"/>
					<line class="st1" x1="241" y1="-171" x2="241" y2="-171"/>
				</g>
				<g>
					<line class="st1" x1="1" y1="-181" x2="1" y2="-181"/>
					<line class="st2" x1="11" y1="-181" x2="236" y2="-181"/>
					<line class="st1" x1="241" y1="-181" x2="241" y2="-181"/>
				</g>
				<g>
					<line class="st1" x1="1" y1="-191" x2="1" y2="-191"/>
					<line class="st2" x1="11" y1="-191" x2="236" y2="-191"/>
					<line class="st1" x1="241" y1="-191" x2="241" y2="-191"/>
				</g>
				<g>
					<line class="st1" x1="1" y1="-201" x2="1" y2="-201"/>
					<line class="st2" x1="11" y1="-201" x2="236" y2="-201"/>
					<line class="st1" x1="241" y1="-201" x2="241" y2="-201"/>
				</g>
				<g>
					<line class="st1" x1="1" y1="-211" x2="1" y2="-211"/>
					<line class="st2" x1="11" y1="-211" x2="236" y2="-211"/>
					<line class="st1" x1="241" y1="-211" x2="241" y2="-211"/>
				</g>
				<g>
					<line class="st1" x1="1" y1="-221" x2="1" y2="-221"/>
					<line class="st2" x1="11" y1="-221" x2="236" y2="-221"/>
					<line class="st1" x1="241" y1="-221" x2="241" y2="-221"/>
				</g>
				<g>
					<line class="st1" x1="1" y1="-231" x2="1" y2="-231"/>
					<line class="st2" x1="11" y1="-231" x2="236" y2="-231"/>
					<line class="st1" x1="241" y1="-231" x2="241" y2="-231"/>
				</g>
				<g>
					<line class="st1" x1="1" y1="-241" x2="1" y2="-241"/>
					<line class="st2" x1="11" y1="-241" x2="236" y2="-241"/>
					<line class="st1" x1="241" y1="-241" x2="241" y2="-241"/>
				</g>
			</g>
			<g>
				<g>
					<line class="st1" x1="1" y1="-1" x2="1" y2="-1"/>
				</g>
				<g>
					<line class="st1" x1="1" y1="-11" x2="1" y2="-11"/>
				</g>
				<g>
					<line class="st1" x1="1" y1="-21" x2="1" y2="-21"/>
				</g>
				<g>
					<line class="st1" x1="1" y1="-31" x2="1" y2="-31"/>
				</g>
				<g>
					<line class="st1" x1="1" y1="-41" x2="1" y2="-41"/>
				</g>
				<g>
					<line class="st1" x1="1" y1="-51" x2="1" y2="-51"/>
				</g>
				<g>
					<line class="st1" x1="1" y1="-61" x2="1" y2="-61"/>
				</g>
				<g>
					<line class="st1" x1="1" y1="-71" x2="1" y2="-71"/>
				</g>
				<g>
					<line class="st1" x1="1" y1="-81" x2="1" y2="-81"/>
				</g>
				<g>
					<line class="st1" x1="1" y1="-91" x2="1" y2="-91"/>
				</g>
				<g>
					<line class="st1" x1="1" y1="-101" x2="1" y2="-101"/>
				</g>
				<g>
					<line class="st1" x1="1" y1="-111" x2="1" y2="-111"/>
				</g>
				<g>
					<line class="st1" x1="1" y1="-121" x2="1" y2="-121"/>
				</g>
				<g>
					<line class="st1" x1="1" y1="-131" x2="1" y2="-131"/>
				</g>
				<g>
					<line class="st1" x1="1" y1="-141" x2="1" y2="-141"/>
				</g>
				<g>
					<line class="st1" x1="1" y1="-151" x2="1" y2="-151"/>
				</g>
				<g>
					<line class="st1" x1="1" y1="-161" x2="1" y2="-161"/>
				</g>
				<g>
					<line class="st1" x1="1" y1="-171" x2="1" y2="-171"/>
				</g>
				<g>
					<line class="st1" x1="1" y1="-181" x2="1" y2="-181"/>
				</g>
				<g>
					<line class="st1" x1="1" y1="-191" x2="1" y2="-191"/>
				</g>
				<g>
					<line class="st1" x1="1" y1="-201" x2="1" y2="-201"/>
				</g>
				<g>
					<line class="st1" x1="1" y1="-211" x2="1" y2="-211"/>
				</g>
				<g>
					<line class="st1" x1="1" y1="-221" x2="1" y2="-221"/>
				</g>
				<g>
					<line class="st1" x1="1" y1="-231" x2="1" y2="-231"/>
				</g>
				<g>
					<line class="st1" x1="1" y1="-241" x2="1" y2="-241"/>
				</g>
			</g>
			<g>
				<g>
					<line class="st1" x1="241" y1="-1" x2="241" y2="-1"/>
				</g>
			</g>
			<g>
				<g>
					<line class="st1" x1="1" y1="-1" x2="1" y2="-1"/>
					<line class="st2" x1="11" y1="-1" x2="236" y2="-1"/>
					<line class="st1" x1="241" y1="-1" x2="241" y2="-1"/>
				</g>
			</g>
			<g>
				<g>
					<line class="st1" x1="1" y1="-1" x2="1" y2="-1"/>
				</g>
			</g>
		</g>
	</g>
</pattern>
<pattern  y="1053" width="240" height="240" patternUnits="userSpaceOnUse" id="SVGID_4_" viewBox="1 -241 240 240" style="overflow:visible;">
	<g>
		<rect x="1" y="-241" class="st0" width="240" height="240"/>
		<g>
			<rect x="1" y="-241" class="st0" width="240" height="240"/>
			<g>
				<g>
					<line class="st1" x1="241" y1="-241" x2="241" y2="-241"/>
				</g>
			</g>
			<g>
				<g>
					<line class="st1" x1="1" y1="-241" x2="1" y2="-241"/>
					<line class="st2" x1="11" y1="-241" x2="236" y2="-241"/>
					<line class="st1" x1="241" y1="-241" x2="241" y2="-241"/>
				</g>
			</g>
			<g>
				<g>
					<line class="st1" x1="1" y1="-241" x2="1" y2="-241"/>
				</g>
			</g>
			<g>
				<g>
					<line class="st1" x1="241" y1="-1" x2="241" y2="-1"/>
				</g>
				<g>
					<line class="st1" x1="241" y1="-11" x2="241" y2="-11"/>
				</g>
				<g>
					<line class="st1" x1="241" y1="-21" x2="241" y2="-21"/>
				</g>
				<g>
					<line class="st1" x1="241" y1="-31" x2="241" y2="-31"/>
				</g>
				<g>
					<line class="st1" x1="241" y1="-41" x2="241" y2="-41"/>
				</g>
				<g>
					<line class="st1" x1="241" y1="-51" x2="241" y2="-51"/>
				</g>
				<g>
					<line class="st1" x1="241" y1="-61" x2="241" y2="-61"/>
				</g>
				<g>
					<line class="st1" x1="241" y1="-71" x2="241" y2="-71"/>
				</g>
				<g>
					<line class="st1" x1="241" y1="-81" x2="241" y2="-81"/>
				</g>
				<g>
					<line class="st1" x1="241" y1="-91" x2="241" y2="-91"/>
				</g>
				<g>
					<line class="st1" x1="241" y1="-101" x2="241" y2="-101"/>
				</g>
				<g>
					<line class="st1" x1="241" y1="-111" x2="241" y2="-111"/>
				</g>
				<g>
					<line class="st1" x1="241" y1="-121" x2="241" y2="-121"/>
				</g>
				<g>
					<line class="st1" x1="241" y1="-131" x2="241" y2="-131"/>
				</g>
				<g>
					<line class="st1" x1="241" y1="-141" x2="241" y2="-141"/>
				</g>
				<g>
					<line class="st1" x1="241" y1="-151" x2="241" y2="-151"/>
				</g>
				<g>
					<line class="st1" x1="241" y1="-161" x2="241" y2="-161"/>
				</g>
				<g>
					<line class="st1" x1="241" y1="-171" x2="241" y2="-171"/>
				</g>
				<g>
					<line class="st1" x1="241" y1="-181" x2="241" y2="-181"/>
				</g>
				<g>
					<line class="st1" x1="241" y1="-191" x2="241" y2="-191"/>
				</g>
				<g>
					<line class="st1" x1="241" y1="-201" x2="241" y2="-201"/>
				</g>
				<g>
					<line class="st1" x1="241" y1="-211" x2="241" y2="-211"/>
				</g>
				<g>
					<line class="st1" x1="241" y1="-221" x2="241" y2="-221"/>
				</g>
				<g>
					<line class="st1" x1="241" y1="-231" x2="241" y2="-231"/>
				</g>
				<g>
					<line class="st1" x1="241" y1="-241" x2="241" y2="-241"/>
				</g>
			</g>
			<g>
				<g>
					<line class="st1" x1="1" y1="-1" x2="1" y2="-1"/>
					<line class="st2" x1="11" y1="-1" x2="236" y2="-1"/>
					<line class="st1" x1="241" y1="-1" x2="241" y2="-1"/>
				</g>
				<g>
					<line class="st1" x1="1" y1="-11" x2="1" y2="-11"/>
					<line class="st2" x1="11" y1="-11" x2="236" y2="-11"/>
					<line class="st1" x1="241" y1="-11" x2="241" y2="-11"/>
				</g>
				<g>
					<line class="st1" x1="1" y1="-21" x2="1" y2="-21"/>
					<line class="st2" x1="11" y1="-21" x2="236" y2="-21"/>
					<line class="st1" x1="241" y1="-21" x2="241" y2="-21"/>
				</g>
				<g>
					<line class="st1" x1="1" y1="-31" x2="1" y2="-31"/>
					<line class="st2" x1="11" y1="-31" x2="236" y2="-31"/>
					<line class="st1" x1="241" y1="-31" x2="241" y2="-31"/>
				</g>
				<g>
					<line class="st1" x1="1" y1="-41" x2="1" y2="-41"/>
					<line class="st2" x1="11" y1="-41" x2="236" y2="-41"/>
					<line class="st1" x1="241" y1="-41" x2="241" y2="-41"/>
				</g>
				<g>
					<line class="st1" x1="1" y1="-51" x2="1" y2="-51"/>
					<line class="st2" x1="11" y1="-51" x2="236" y2="-51"/>
					<line class="st1" x1="241" y1="-51" x2="241" y2="-51"/>
				</g>
				<g>
					<line class="st1" x1="1" y1="-61" x2="1" y2="-61"/>
					<line class="st2" x1="11" y1="-61" x2="236" y2="-61"/>
					<line class="st1" x1="241" y1="-61" x2="241" y2="-61"/>
				</g>
				<g>
					<line class="st1" x1="1" y1="-71" x2="1" y2="-71"/>
					<line class="st2" x1="11" y1="-71" x2="236" y2="-71"/>
					<line class="st1" x1="241" y1="-71" x2="241" y2="-71"/>
				</g>
				<g>
					<line class="st1" x1="1" y1="-81" x2="1" y2="-81"/>
					<line class="st2" x1="11" y1="-81" x2="236" y2="-81"/>
					<line class="st1" x1="241" y1="-81" x2="241" y2="-81"/>
				</g>
				<g>
					<line class="st1" x1="1" y1="-91" x2="1" y2="-91"/>
					<line class="st2" x1="11" y1="-91" x2="236" y2="-91"/>
					<line class="st1" x1="241" y1="-91" x2="241" y2="-91"/>
				</g>
				<g>
					<line class="st1" x1="1" y1="-101" x2="1" y2="-101"/>
					<line class="st2" x1="11" y1="-101" x2="236" y2="-101"/>
					<line class="st1" x1="241" y1="-101" x2="241" y2="-101"/>
				</g>
				<g>
					<line class="st1" x1="1" y1="-111" x2="1" y2="-111"/>
					<line class="st2" x1="11" y1="-111" x2="236" y2="-111"/>
					<line class="st1" x1="241" y1="-111" x2="241" y2="-111"/>
				</g>
				<g>
					<line class="st1" x1="1" y1="-121" x2="1" y2="-121"/>
					<line class="st2" x1="11" y1="-121" x2="236" y2="-121"/>
					<line class="st1" x1="241" y1="-121" x2="241" y2="-121"/>
				</g>
				<g>
					<line class="st1" x1="1" y1="-131" x2="1" y2="-131"/>
					<line class="st2" x1="11" y1="-131" x2="236" y2="-131"/>
					<line class="st1" x1="241" y1="-131" x2="241" y2="-131"/>
				</g>
				<g>
					<line class="st1" x1="1" y1="-141" x2="1" y2="-141"/>
					<line class="st2" x1="11" y1="-141" x2="236" y2="-141"/>
					<line class="st1" x1="241" y1="-141" x2="241" y2="-141"/>
				</g>
				<g>
					<line class="st1" x1="1" y1="-151" x2="1" y2="-151"/>
					<line class="st2" x1="11" y1="-151" x2="236" y2="-151"/>
					<line class="st1" x1="241" y1="-151" x2="241" y2="-151"/>
				</g>
				<g>
					<line class="st1" x1="1" y1="-161" x2="1" y2="-161"/>
					<line class="st2" x1="11" y1="-161" x2="236" y2="-161"/>
					<line class="st1" x1="241" y1="-161" x2="241" y2="-161"/>
				</g>
				<g>
					<line class="st1" x1="1" y1="-171" x2="1" y2="-171"/>
					<line class="st2" x1="11" y1="-171" x2="236" y2="-171"/>
					<line class="st1" x1="241" y1="-171" x2="241" y2="-171"/>
				</g>
				<g>
					<line class="st1" x1="1" y1="-181" x2="1" y2="-181"/>
					<line class="st2" x1="11" y1="-181" x2="236" y2="-181"/>
					<line class="st1" x1="241" y1="-181" x2="241" y2="-181"/>
				</g>
				<g>
					<line class="st1" x1="1" y1="-191" x2="1" y2="-191"/>
					<line class="st2" x1="11" y1="-191" x2="236" y2="-191"/>
					<line class="st1" x1="241" y1="-191" x2="241" y2="-191"/>
				</g>
				<g>
					<line class="st1" x1="1" y1="-201" x2="1" y2="-201"/>
					<line class="st2" x1="11" y1="-201" x2="236" y2="-201"/>
					<line class="st1" x1="241" y1="-201" x2="241" y2="-201"/>
				</g>
				<g>
					<line class="st1" x1="1" y1="-211" x2="1" y2="-211"/>
					<line class="st2" x1="11" y1="-211" x2="236" y2="-211"/>
					<line class="st1" x1="241" y1="-211" x2="241" y2="-211"/>
				</g>
				<g>
					<line class="st1" x1="1" y1="-221" x2="1" y2="-221"/>
					<line class="st2" x1="11" y1="-221" x2="236" y2="-221"/>
					<line class="st1" x1="241" y1="-221" x2="241" y2="-221"/>
				</g>
				<g>
					<line class="st1" x1="1" y1="-231" x2="1" y2="-231"/>
					<line class="st2" x1="11" y1="-231" x2="236" y2="-231"/>
					<line class="st1" x1="241" y1="-231" x2="241" y2="-231"/>
				</g>
				<g>
					<line class="st1" x1="1" y1="-241" x2="1" y2="-241"/>
					<line class="st2" x1="11" y1="-241" x2="236" y2="-241"/>
					<line class="st1" x1="241" y1="-241" x2="241" y2="-241"/>
				</g>
			</g>
			<g>
				<g>
					<line class="st1" x1="1" y1="-1" x2="1" y2="-1"/>
				</g>
				<g>
					<line class="st1" x1="1" y1="-11" x2="1" y2="-11"/>
				</g>
				<g>
					<line class="st1" x1="1" y1="-21" x2="1" y2="-21"/>
				</g>
				<g>
					<line class="st1" x1="1" y1="-31" x2="1" y2="-31"/>
				</g>
				<g>
					<line class="st1" x1="1" y1="-41" x2="1" y2="-41"/>
				</g>
				<g>
					<line class="st1" x1="1" y1="-51" x2="1" y2="-51"/>
				</g>
				<g>
					<line class="st1" x1="1" y1="-61" x2="1" y2="-61"/>
				</g>
				<g>
					<line class="st1" x1="1" y1="-71" x2="1" y2="-71"/>
				</g>
				<g>
					<line class="st1" x1="1" y1="-81" x2="1" y2="-81"/>
				</g>
				<g>
					<line class="st1" x1="1" y1="-91" x2="1" y2="-91"/>
				</g>
				<g>
					<line class="st1" x1="1" y1="-101" x2="1" y2="-101"/>
				</g>
				<g>
					<line class="st1" x1="1" y1="-111" x2="1" y2="-111"/>
				</g>
				<g>
					<line class="st1" x1="1" y1="-121" x2="1" y2="-121"/>
				</g>
				<g>
					<line class="st1" x1="1" y1="-131" x2="1" y2="-131"/>
				</g>
				<g>
					<line class="st1" x1="1" y1="-141" x2="1" y2="-141"/>
				</g>
				<g>
					<line class="st1" x1="1" y1="-151" x2="1" y2="-151"/>
				</g>
				<g>
					<line class="st1" x1="1" y1="-161" x2="1" y2="-161"/>
				</g>
				<g>
					<line class="st1" x1="1" y1="-171" x2="1" y2="-171"/>
				</g>
				<g>
					<line class="st1" x1="1" y1="-181" x2="1" y2="-181"/>
				</g>
				<g>
					<line class="st1" x1="1" y1="-191" x2="1" y2="-191"/>
				</g>
				<g>
					<line class="st1" x1="1" y1="-201" x2="1" y2="-201"/>
				</g>
				<g>
					<line class="st1" x1="1" y1="-211" x2="1" y2="-211"/>
				</g>
				<g>
					<line class="st1" x1="1" y1="-221" x2="1" y2="-221"/>
				</g>
				<g>
					<line class="st1" x1="1" y1="-231" x2="1" y2="-231"/>
				</g>
				<g>
					<line class="st1" x1="1" y1="-241" x2="1" y2="-241"/>
				</g>
			</g>
			<g>
				<g>
					<line class="st1" x1="241" y1="-1" x2="241" y2="-1"/>
				</g>
			</g>
			<g>
				<g>
					<line class="st1" x1="1" y1="-1" x2="1" y2="-1"/>
					<line class="st2" x1="11" y1="-1" x2="236" y2="-1"/>
					<line class="st1" x1="241" y1="-1" x2="241" y2="-1"/>
				</g>
			</g>
			<g>
				<g>
					<line class="st1" x1="1" y1="-1" x2="1" y2="-1"/>
				</g>
			</g>
		</g>
	</g>
</pattern>
<g>
	<g>
		<g>
			<path class="st3" d="M419.7,233.6l-1,5.7c1-1,2.8-1.3,3.6-1.3c3.1,0,5.5,2.1,5.5,5.4c0,3.6-3,5.4-5.8,5.4s-5.4-1.8-5.7-4.6
				l1.7-0.4c0.3,1.9,1.9,3.3,4,3.3c1.7,0,4-1.1,4-3.8c0-2.7-2-3.9-4-3.9c-1.2,0-2.6,0.6-3.5,1.7l-1.6-0.6l1.4-8.6h8.7v1.6h-7.3
				L419.7,233.6L419.7,233.6z"/>
			<path class="st3" d="M430,248.2c0-1.9,0.9-4,3.8-5.8l2.5-1.6c1.6-1,2.9-2,2.9-4c0-1.7-1.5-3.3-3.7-3.3c-1.8,0-3,1.1-3.4,2.1
				c-0.3,0.7-0.3,1.4-0.3,1.6l-1.7-0.3c0-2.4,2-5.1,5.6-5.1c3.1,0,5.4,2.3,5.4,4.9c0,2.4-1.3,3.8-3.5,5.1l-2.6,1.6
				c-1.4,0.9-2.8,2.1-2.9,3.6h9.1v1.6h-11.3v-0.4H430L430,248.2z"/>
			<path class="st3" d="M445.2,242.3c-1.2,0-2.2-1-2.2-2.2c0-1.2,1-2.2,2.2-2.2s2.2,1,2.2,2.2C447.4,241.4,446.4,242.3,445.2,242.3z
				 M445.2,238.8c-0.8,0-1.4,0.6-1.4,1.4s0.6,1.4,1.4,1.4c0.8,0,1.4-0.6,1.4-1.4C446.5,239.4,445.9,238.8,445.2,238.8z M450.5,238.1
				h1l-6.3,9.7h-1L450.5,238.1z M450.5,247.8c-1.2,0-2.2-1-2.2-2.2c0-1.2,1-2.2,2.2-2.2s2.2,1,2.2,2.2
				C452.7,246.9,451.8,247.8,450.5,247.8z M450.5,244.3c-0.8,0-1.4,0.6-1.4,1.4s0.6,1.4,1.4,1.4c0.8,0,1.4-0.6,1.4-1.4
				C451.9,244.9,451.3,244.3,450.5,244.3z"/>
		</g>
	</g>
	<g>
		<g>
			<path class="st3" d="M824.9,829.3c-1.7,0-3.5-0.8-5.1-3.4l-1.4-2.2c-0.9-1.4-1.7-2.5-3.5-2.5c-1.5,0-2.9,1.3-2.9,3.2
				c0,1.6,0.9,2.6,1.9,3c0.6,0.3,1.2,0.3,1.4,0.3l-0.2,1.5c-2.1,0-4.5-1.8-4.5-4.9c0-2.7,2-4.7,4.3-4.7c2.1,0,3.3,1.2,4.5,3.1
				l1.4,2.3c0.8,1.2,1.8,2.4,3.1,2.5v-8h1.4v9.8L824.9,829.3L824.9,829.3z"/>
			<path class="st3" d="M818.1,817.3c-3.6,0-7.5-2.1-7.5-6.1s3.8-6,7.4-6c3.6,0,7.5,2,7.5,6.1C825.5,815.3,821.7,817.3,818.1,817.3z
				 M818,815.8c2.6,0,6.1-1.3,6.1-4.5c0-3.1-3.4-4.5-6-4.5s-6.1,1.4-6.1,4.5C812,814.4,815.4,815.8,818,815.8z"/>
			<path class="st3" d="M812.4,799.7l2.1,3.5l-1.2,0.7l-2.6-4.2v-1.5h14.6v1.5H812.4z"/>
			<path class="st3" d="M812.1,795.6h-1.4v-9.9h1.4l13.2,6.7v1.7l-13.2-6.8V795.6z"/>
		</g>
	</g>
	<g>
		<g>
			<path class="st3" d="M221.4,829.3c-1.7,0-3.5-0.8-5.1-3.4l-1.4-2.2c-0.9-1.4-1.7-2.5-3.5-2.5c-1.5,0-2.9,1.3-2.9,3.2
				c0,1.6,0.9,2.6,1.9,3c0.6,0.3,1.2,0.3,1.4,0.3l-0.2,1.5c-2.1,0-4.5-1.8-4.5-4.9c0-2.7,2-4.7,4.3-4.7c2.1,0,3.3,1.2,4.5,3.1
				l1.4,2.3c0.8,1.2,1.8,2.4,3.1,2.5v-8h1.4v9.8L221.4,829.3L221.4,829.3z"/>
			<path class="st3" d="M214.6,817.3c-3.6,0-7.5-2.1-7.5-6.1s3.8-6,7.4-6s7.5,2,7.5,6.1C222,815.3,218.2,817.3,214.6,817.3z
				 M214.5,815.8c2.6,0,6.1-1.3,6.1-4.5c0-3.1-3.4-4.5-6-4.5s-6.1,1.4-6.1,4.5C208.6,814.4,211.9,815.8,214.5,815.8z"/>
			<path class="st3" d="M208.9,799.7l2.1,3.5l-1.2,0.7l-2.5-4.2v-1.5h14.6v1.5H208.9z"/>
			<path class="st3" d="M214.5,793.5c-1.6-1-2.1-2.8-2.1-4c0-3.1,2.2-4.9,4.7-4.9c3.3,0,5,2.6,5,5.2c0,1.6-0.9,3.5-2.5,4.4
				c-1.3,0.7-2.2,0.9-4,0.9c-4.6,0-8.4-2.5-8.4-7.1c0-0.8,0.1-2,0.7-3l1.4,0.6c-0.5,0.8-0.6,1.8-0.6,2.4
				C208.6,791.3,211.2,793.2,214.5,793.5z M214.6,792.2c0.6,0.7,1.5,1.2,2.5,1.2c2.2,0,3.5-1.8,3.5-3.6s-1.2-3.6-3.5-3.6
				c-1.8,0-3.4,1.4-3.4,3.6C213.7,790.6,214.1,791.5,214.6,792.2z"/>
		</g>
	</g>
	<g>
		<g>
			<path class="st4" d="M636.3,590.1l-4,2.4l-0.8-1.3l4.8-2.9h1.7V605h-1.7V590.1z"/>
			<path class="st4" d="M644.8,589.9l-1,5.7c1-1,2.8-1.3,3.6-1.3c3.1,0,5.5,2.1,5.5,5.4c0,3.6-3,5.4-5.8,5.4s-5.4-1.8-5.7-4.6
				l1.7-0.4c0.3,1.9,1.9,3.3,4,3.3c1.7,0,4-1.1,4-3.8s-2-3.9-4-3.9c-1.2,0-2.6,0.6-3.5,1.7l-1.6-0.6l1.4-8.6h8.7v1.6L644.8,589.9
				L644.8,589.9z"/>
			<path class="st4" d="M656.6,598.6c-1.2,0-2.2-1-2.2-2.2s1-2.2,2.2-2.2s2.2,1,2.2,2.2S657.8,598.6,656.6,598.6z M656.6,595
				c-0.8,0-1.4,0.6-1.4,1.4c0,0.8,0.6,1.4,1.4,1.4c0.8,0,1.4-0.6,1.4-1.4C658,595.6,657.3,595,656.6,595z M662,594.3h1l-6.3,9.7h-1
				L662,594.3z M662,604.1c-1.2,0-2.2-1-2.2-2.2s1-2.2,2.2-2.2s2.2,1,2.2,2.2C664.1,603.1,663.3,604.1,662,604.1z M662,600.5
				c-0.8,0-1.4,0.6-1.4,1.4c0,0.8,0.6,1.4,1.4,1.4c0.8,0,1.4-0.6,1.4-1.4C663.3,601.1,662.8,600.5,662,600.5z"/>
		</g>
	</g>
	<g>
		<g>
			<path class="st4" d="M1239.6,590.1l-4,2.4l-0.8-1.3l4.8-2.9h1.7V605h-1.7V590.1z"/>
			<path class="st4" d="M1247.8,589.9l-1,5.7c1-1,2.8-1.3,3.6-1.3c3.1,0,5.5,2.1,5.5,5.4c0,3.6-3,5.4-5.8,5.4s-5.4-1.8-5.7-4.6
				l1.7-0.4c0.3,1.9,1.9,3.3,4,3.3c1.7,0,4-1.1,4-3.8s-2-3.9-4-3.9c-1.2,0-2.6,0.6-3.5,1.7l-1.6-0.6l1.4-8.6h8.7v1.6L1247.8,589.9
				L1247.8,589.9z"/>
			<path class="st4" d="M1259.8,598.6c-1.2,0-2.2-1-2.2-2.2s1-2.2,2.2-2.2s2.2,1,2.2,2.2S1260.9,598.6,1259.8,598.6z M1259.8,595
				c-0.8,0-1.4,0.6-1.4,1.4c0,0.8,0.6,1.4,1.4,1.4s1.4-0.6,1.4-1.4C1261.2,595.6,1260.6,595,1259.8,595z M1265.2,594.3h1l-6.3,9.7
				h-1L1265.2,594.3z M1265.2,604.1c-1.2,0-2.2-1-2.2-2.2s1-2.2,2.2-2.2s2.2,1,2.2,2.2S1266.3,604.1,1265.2,604.1z M1265.2,600.5
				c-0.8,0-1.4,0.6-1.4,1.4c0,0.8,0.6,1.4,1.4,1.4s1.4-0.6,1.4-1.4C1266.6,601.1,1265.8,600.5,1265.2,600.5z"/>
		</g>
	</g>
	<g>
		<g>
			<path class="st3" d="M1022.7,228.3l-1,5.7c1-1,2.8-1.3,3.6-1.3c3.1,0,5.5,2.1,5.5,5.4c0,3.6-3,5.4-5.8,5.4
				c-2.8,0-5.4-1.8-5.7-4.6l1.7-0.4c0.3,1.9,1.9,3.3,4,3.3c1.7,0,4-1.1,4-3.8c0-2.7-2-3.9-4-3.9c-1.2,0-2.6,0.6-3.5,1.7l-1.6-0.6
				l1.4-8.6h8.7v1.6h-7.3L1022.7,228.3L1022.7,228.3z"/>
			<path class="st3" d="M1038.7,243.5c-2.9,0-5.4-1.8-5.7-4.6l1.7-0.4c0.3,1.9,1.8,3.3,4.1,3.3c2.2,0,4-1.2,4-3.1s-1.4-3.1-4-3.1
				h-1.7V234h1.6c2.3,0,3.7-1.4,3.7-3c0-1.7-1.3-3-3.7-3c-2.3,0-3.6,1.4-3.9,3.1l-1.7-0.4c0.3-2.3,2.5-4.4,5.6-4.4
				c3.6,0,5.4,2.2,5.4,4.4c0,1.9-1.1,3.1-2.7,3.8l0,0c1.9,0.5,3,2,3,4C1044.5,241.3,1042.2,243.5,1038.7,243.5z"/>
			<path class="st3" d="M1048.4,237c-1.2,0-2.2-1-2.2-2.2c0-1.2,1-2.2,2.2-2.2s2.2,1,2.2,2.2C1050.6,236,1049.6,237,1048.4,237z
				 M1048.4,233.5c-0.8,0-1.4,0.6-1.4,1.4c0,0.8,0.6,1.4,1.4,1.4s1.4-0.6,1.4-1.4S1049.1,233.5,1048.4,233.5z M1053.7,232.8h1
				l-6.3,9.7h-1L1053.7,232.8z M1053.8,242.5c-1.2,0-2.2-1-2.2-2.2c0-1.2,1-2.2,2.2-2.2s2.2,1,2.2,2.2
				C1055.9,241.5,1055,242.5,1053.8,242.5z M1053.8,239c-0.8,0-1.4,0.6-1.4,1.4c0,0.8,0.6,1.4,1.4,1.4s1.4-0.6,1.4-1.4
				C1055.1,239.6,1054.5,239,1053.8,239z"/>
		</g>
	</g>
	<g class="st5">
		<g>
			<rect x="240.8" y="266.8" class="st3" width="211.4" height="563.6"/>
		</g>
	</g>
	<g>
		<g>
			<rect x="452.2" y="621.8" class="st4" width="211.4" height="208.6"/>
		</g>
	</g>
	<g>
		<g>
			<path class="st3" d="M1095.5,916.8l-5.7,8.4v6.2h-1.5v-6.1l-5.6-8.4h1.8l4.6,7l4.7-7h1.7V916.8z"/>
			<path class="st3" d="M1097.1,926.8c0.1,1.9,1.6,3.4,3.6,3.4c1.5,0,2.6-0.7,3.1-2.1l1.3,0.4c-0.6,1.9-2.4,3-4.4,3
				c-2.9,0-5-2.3-5-5.2c0-2.7,2-5.1,4.8-5.1c3.1,0,4.7,2.2,4.7,5.1c0,0.2,0,0.3,0,0.5L1097.1,926.8L1097.1,926.8z M1103.7,925.6
				c-0.2-1.8-1.3-3.1-3.2-3.1c-1.7,0-3.1,1.4-3.4,3.1H1103.7z"/>
			<path class="st3" d="M1111.6,931.5c-2.7,0-3.6-1.8-3.8-2.9l1.3-0.3c0.2,0.9,0.9,2,2.4,2c1.1,0,2.1-0.6,2.1-1.6
				c0-1.2-1.3-1.5-2.3-1.6c-1.7-0.2-3.3-0.8-3.3-2.8c0-1.9,1.7-3,3.3-3c2.6,0,3.5,1.8,3.6,2.7l-1.3,0.3c-0.2-0.7-0.7-1.7-2.3-1.7
				c-1.1,0-1.9,0.7-1.9,1.6c0,1.2,1.3,1.4,2.4,1.6c1.6,0.2,3.3,1.1,3.3,2.9C1115.1,930.3,1113.5,931.5,1111.6,931.5z"/>
		</g>
	</g>
	<g class="st5">
		<g class="st5">
			<g>
				<circle class="st3" cx="1049.3" cy="926.4" r="17.7"/>
			</g>
		</g>
		<g class="st6">
			<g>
				<circle class="st3" cx="1049.3" cy="926.4" r="17.7"/>
			</g>
		</g>
	</g>
	<g>
		<g>
			<path class="st3" d="M1095.5,968.2l-5.7,8.4v6.2h-1.5v-6.1l-5.6-8.4h1.8l4.6,7l4.7-7L1095.5,968.2L1095.5,968.2z"/>
			<path class="st3" d="M1097.1,978.2c0.1,1.9,1.6,3.4,3.6,3.4c1.5,0,2.6-0.7,3.1-2.1l1.3,0.4c-0.6,1.9-2.4,3-4.4,3
				c-2.9,0-5-2.3-5-5.2c0-2.7,2-5.1,4.8-5.1c3.1,0,4.7,2.2,4.7,5.1c0,0.2,0,0.3,0,0.5L1097.1,978.2L1097.1,978.2z M1103.7,977
				c-0.2-1.8-1.3-3.1-3.2-3.1c-1.7,0-3.1,1.4-3.4,3.1H1103.7z"/>
			<path class="st3" d="M1111.6,982.9c-2.7,0-3.6-1.8-3.8-2.9l1.3-0.3c0.2,0.9,0.9,2,2.4,2c1.1,0,2.1-0.6,2.1-1.6
				c0-1.2-1.3-1.5-2.3-1.6c-1.7-0.2-3.3-0.8-3.3-2.8c0-1.9,1.7-3,3.3-3c2.6,0,3.5,1.8,3.6,2.7l-1.3,0.3c-0.2-0.7-0.7-1.7-2.3-1.7
				c-1.1,0-1.9,0.7-1.9,1.6c0,1.2,1.3,1.4,2.4,1.6c1.6,0.2,3.3,1.1,3.3,2.9C1115.1,981.7,1113.5,982.9,1111.6,982.9z"/>
			<path class="st3" d="M1118.3,984.9c0.8-0.6,1.5-1.4,1.6-2.2c-0.1,0.1-0.3,0.1-0.4,0.1c-0.7,0-1.2-0.5-1.2-1.2
				c0-0.8,0.6-1.3,1.3-1.3c0.9,0,1.5,0.7,1.5,1.8v0.1c0,1.3-0.7,2.5-2,3.5L1118.3,984.9z"/>
			<path class="st3" d="M1135.1,982.9c-1.9,0-3.1-0.9-3.9-2.2v2.1h-1.4v-15.1h1.5v7.4c0.8-1.3,2-2.3,3.8-2.3c2.8,0,4.7,2.5,4.7,5.1
				C1139.8,980.4,1137.9,982.9,1135.1,982.9z M1138.3,977.8c0-2.1-1.3-3.9-3.5-3.9c-2,0-3.6,1.8-3.6,3.8s1.5,3.9,3.6,3.9
				C1137,981.6,1138.3,979.9,1138.3,977.8z"/>
			<path class="st3" d="M1144.6,978.6c0,1.8,0.9,3,2.8,3c1.7,0,3-1.4,3-3.1v-5.7h1.4v9.9h-1.4v-1.8c-0.8,1.4-2,2-3.4,2
				c-2.4,0-3.8-1.7-3.8-4v-6.1h1.4V978.6z"/>
			<path class="st3" d="M1156.6,980.2v-6.1h-1.8v-1.3h1.8v-2.9h1.4v2.9h2.5v1.3h-2.5v6c0,0.9,0.5,1.4,1.6,1.4c0.3,0,0.7,0,0.9-0.1
				v1.2c-0.3,0.1-0.9,0.1-1.1,0.1C1157.3,982.8,1156.6,981.6,1156.6,980.2z"/>
			<path class="st3" d="M1170.8,968.1c0.6,0,1.1,0.5,1.1,1.1s-0.5,1.1-1.1,1.1s-1.1-0.5-1.1-1.1S1170.2,968.1,1170.8,968.1z
				 M1171.5,972.8v9.9h-1.5v-9.9H1171.5z"/>
			<path class="st3" d="M1176.4,980.2v-6.1h-1.8v-1.3h1.8v-2.9h1.4v2.9h2.5v1.3h-2.5v6c0,0.9,0.5,1.4,1.6,1.4c0.3,0,0.7,0,0.9-0.1
				v1.2c-0.3,0.1-0.9,0.1-1.1,0.1C1177.1,982.8,1176.4,981.6,1176.4,980.2z"/>
			<path class="st3" d="M1183.5,972.8c0.8-0.6,1.5-1.4,1.6-2.2c-0.1,0.1-0.3,0.1-0.4,0.1c-0.7,0-1.2-0.5-1.2-1.2
				c0-0.8,0.6-1.3,1.3-1.3c0.9,0,1.5,0.7,1.5,1.8v0.1c0,1.3-0.7,2.5-2,3.5L1183.5,972.8z"/>
			<path class="st3" d="M1192.1,982.9c-2.7,0-3.6-1.8-3.8-2.9l1.3-0.3c0.2,0.9,0.9,2,2.4,2c1.1,0,2.1-0.6,2.1-1.6
				c0-1.2-1.3-1.5-2.3-1.6c-1.7-0.2-3.3-0.8-3.3-2.8c0-1.9,1.7-3,3.3-3c2.6,0,3.5,1.8,3.6,2.7l-1.3,0.3c-0.2-0.7-0.7-1.7-2.3-1.7
				c-1.1,0-1.9,0.7-1.9,1.6c0,1.2,1.3,1.4,2.4,1.6c1.6,0.2,3.3,1.1,3.3,2.9C1195.6,981.7,1194,982.9,1192.1,982.9z"/>
			<path class="st3" d="M1204.5,977.8c0-2.9,2.2-5.2,5.2-5.2c2.9,0,5.1,2.3,5.1,5.1c0,2.9-2.3,5.2-5.2,5.2
				C1206.8,982.9,1204.5,980.6,1204.5,977.8z M1213.3,977.8c0-2.1-1.5-3.9-3.7-3.9s-3.6,1.7-3.6,3.8s1.5,3.9,3.7,3.9
				C1211.8,981.6,1213.3,979.9,1213.3,977.8z"/>
			<path class="st3" d="M1219.6,978.6c0,1.8,0.9,3,2.8,3c1.7,0,3-1.4,3-3.1v-5.7h1.4v9.9h-1.4v-1.8c-0.8,1.4-2,2-3.4,2
				c-2.4,0-3.8-1.7-3.8-4v-6.1h1.4V978.6z"/>
			<path class="st3" d="M1231.6,980.2v-6.1h-1.8v-1.3h1.8v-2.9h1.4v2.9h2.5v1.3h-2.5v6c0,0.9,0.5,1.4,1.6,1.4c0.3,0,0.7,0,0.9-0.1
				v1.2c-0.3,0.1-0.9,0.1-1.1,0.1C1232.3,982.8,1231.6,981.6,1231.6,980.2z"/>
			<path class="st3" d="M1242.7,972.6c1.9,0,3.1,1.1,3.9,2.3v-7.3h1.4v15.1h-1.4v-2.1c-0.8,1.3-2,2.3-3.9,2.3
				c-2.8,0-4.7-2.4-4.7-5.1C1238.1,975.2,1239.9,972.6,1242.7,972.6z M1246.6,977.7c0-2-1.5-3.8-3.6-3.8c-2.2,0-3.5,1.7-3.5,3.9
				c0,2,1.3,3.8,3.5,3.8C1245.1,981.6,1246.6,979.8,1246.6,977.7z"/>
			<path class="st3" d="M1258.2,976.3c0-1.6-0.9-2.4-2.5-2.4c-1.7,0-2.4,1.1-2.6,2l-1.4-0.3c0.1-0.8,1.2-3,4-3c2.1,0,3.1,0.9,3.6,2
				c0.2,0.5,0.3,1.3,0.3,1.6v6.4h-1.4v-1.7l0,0c-0.8,1.2-1.9,1.9-3.4,1.9c-2,0-3.3-1.2-3.3-2.9v-0.1c0-2.2,2.2-2.9,3.9-2.9h2.8
				V976.3z M1255.4,978.2c-1.1,0-2.5,0.3-2.5,1.7c0,1.1,1,1.7,2.1,1.7c1.8,0,3.1-1.2,3.1-3.1v-0.4L1255.4,978.2L1255.4,978.2z"/>
			<path class="st3" d="M1264.3,980.2v-6.1h-1.8v-1.3h1.8v-2.9h1.4v2.9h2.5v1.3h-2.5v6c0,0.9,0.5,1.4,1.6,1.4c0.3,0,0.7,0,0.9-0.1
				v1.2c-0.3,0.1-0.9,0.1-1.1,0.1C1264.9,982.8,1264.3,981.6,1264.3,980.2z"/>
			<path class="st3" d="M1272.2,978.2c0.1,1.9,1.6,3.4,3.6,3.4c1.5,0,2.6-0.7,3.1-2.1l1.3,0.4c-0.6,1.9-2.4,3-4.4,3
				c-2.9,0-5-2.3-5-5.2c0-2.7,2-5.1,4.8-5.1c3.1,0,4.7,2.2,4.7,5.1c0,0.2,0,0.3,0,0.5L1272.2,978.2L1272.2,978.2z M1278.8,977
				c-0.2-1.8-1.3-3.1-3.2-3.1c-1.7,0-3.1,1.4-3.4,3.1H1278.8z"/>
			<path class="st3" d="M1287.6,972.6c1.9,0,3.1,1.1,3.9,2.3v-7.3h1.4v15.1h-1.4v-2.1c-0.8,1.3-2,2.3-3.9,2.3
				c-2.8,0-4.7-2.4-4.7-5.1C1282.9,975.2,1284.8,972.6,1287.6,972.6z M1291.5,977.7c0-2-1.5-3.8-3.6-3.8c-2.2,0-3.5,1.7-3.5,3.9
				c0,2,1.3,3.8,3.5,3.8C1290,981.6,1291.5,979.8,1291.5,977.7z"/>
		</g>
	</g>
	<g>
		<circle class="st4" cx="1049.3" cy="977.8" r="17.7"/>
	</g>
	<g>
		<g class="st5">
			<g>
				<pattern  id="SVGID_5_" xlink:href="#SVGID_3_" patternTransform="matrix(1 0 0 -1 -207.5805 -18734.2109)">
				</pattern>
				<circle class="st7" cx="1049.3" cy="926.4" r="17.7"/>
			</g>
		</g>
		<g class="st6">
			<g>
				<pattern  id="SVGID_6_" xlink:href="#SVGID_4_" patternTransform="matrix(1 0 0 -1 -207.5805 -18734.2109)">
				</pattern>
				<circle class="st8" cx="1049.3" cy="926.4" r="17.7"/>
			</g>
		</g>
	</g>
	<g>
		<g>
			<path class="st3" d="M243,72.4c0-1.7,0.8-3.5,3.4-5.1l2.2-1.4c1.4-0.9,2.5-1.7,2.5-3.5c0-1.5-1.3-2.9-3.2-2.9
				c-1.6,0-2.6,0.9-3,1.9c-0.3,0.6-0.3,1.2-0.3,1.4l-1.5-0.2c0-2.1,1.7-4.5,4.9-4.5c2.7,0,4.7,2,4.7,4.3c0,2.1-1.2,3.3-3.1,4.5
				l-2.3,1.4c-1.2,0.8-2.4,1.8-2.5,3.1h8v1.4H243L243,72.4L243,72.4z"/>
			<path class="st3" d="M266.5,58.5c7.8,0,13.2,5.4,13.2,12.4c0,7.4-5.9,12.5-13.2,12.5h-7.4v-25L266.5,58.5L266.5,58.5z M266.4,81
				c6.3,0,10.6-4.2,10.6-10c0-5.7-4.1-10.1-10.6-10.1h-4.7V81H266.4z"/>
			<path class="st3" d="M283,75c0-5,3.8-8.9,8.8-8.9c4.9,0,8.8,3.9,8.8,8.7c0,5-3.9,8.9-8.8,8.9C286.8,83.8,283,79.9,283,75z
				 M298,75c0-3.6-2.6-6.7-6.3-6.7s-6.2,3-6.2,6.6s2.6,6.7,6.3,6.7C295.5,81.6,298,78.6,298,75z"/>
			<path class="st3" d="M318.7,82.3l-7.8-15.9h2.9l6.3,13.2l5.9-13.2h2.7L317,91.8h-2.7L318.7,82.3z"/>
			<path class="st3" d="M330.2,75c0-5,3.8-8.9,8.8-8.9c4.9,0,8.8,3.9,8.8,8.7c0,5-3.9,8.9-8.8,8.9C334.1,83.8,330.2,79.9,330.2,75z
				 M345.3,75c0-3.6-2.6-6.7-6.3-6.7c-3.7,0-6.2,3-6.2,6.6s2.6,6.7,6.3,6.7C342.7,81.6,345.3,78.6,345.3,75z"/>
			<path class="st3" d="M354.5,76.4c0,3,1.6,5.2,4.7,5.2c3,0,5.1-2.3,5.1-5.4v-9.7h2.5v17h-2.4v-3.1c-1.3,2.3-3.4,3.4-5.8,3.4
				c-4.2,0-6.4-2.8-6.4-6.8V66.5h2.5v9.9C354.7,76.4,354.5,76.4,354.5,76.4z"/>
			<path class="st3" d="M393.6,73.6c0-3-1.6-5.2-4.7-5.2c-3,0-5.1,2.4-5.1,5.4v9.7h-2.5v-26h2.5v12c1.3-2.2,3.3-3.4,5.8-3.4
				c4.2,0,6.4,2.8,6.4,6.8v10.5h-2.5v-9.8H393.6z"/>
			<path class="st3" d="M411.7,72.5c0-2.7-1.5-4.1-4.3-4.1c-2.9,0-4.2,1.9-4.5,3.5l-2.4-0.5c0.1-1.4,2-5.2,6.9-5.2
				c3.6,0,5.4,1.6,6.2,3.5c0.4,0.9,0.5,2.3,0.5,2.8v11h-2.4v-3l0,0c-1.3,2.1-3.2,3.3-5.7,3.3c-3.4,0-5.7-2.1-5.7-5v-0.2
				c0-3.7,3.7-4.9,6.7-4.9h4.7L411.7,72.5L411.7,72.5z M407,75.7c-1.8,0-4.2,0.6-4.2,2.9c0,1.9,1.6,3,3.7,3c3,0,5.3-2.1,5.3-5.3
				v-0.6H407z"/>
			<path class="st3" d="M417,66.5h2.7l5.8,14.3l5.9-14.3h2.6l-7.3,17h-2.6L417,66.5z"/>
			<path class="st3" d="M438.4,75.7c0.2,3.3,2.8,5.8,6.1,5.8c2.5,0,4.5-1.2,5.3-3.6l2.2,0.7c-1,3.3-4.1,5.1-7.5,5.1
				c-4.9,0-8.6-3.9-8.6-8.8c0-4.6,3.5-8.8,8.3-8.8c5.3,0,8,3.8,8,8.7c0,0.3,0,0.6,0,0.8h-13.8V75.7z M449.7,73.6
				c-0.3-3.1-2.3-5.3-5.5-5.3c-3,0-5.3,2.5-5.7,5.3H449.7z"/>
			<path class="st3" d="M475.7,72.5c0-2.7-1.5-4.1-4.3-4.1c-2.9,0-4.2,1.9-4.5,3.5l-2.4-0.5c0.1-1.4,2-5.2,6.9-5.2
				c3.6,0,5.4,1.6,6.2,3.5c0.4,0.9,0.5,2.3,0.5,2.8v11h-2.4v-3l0,0c-1.3,2.1-3.2,3.3-5.7,3.3c-3.4,0-5.7-2.1-5.7-5v-0.2
				c0-3.7,3.7-4.9,6.7-4.9h4.7L475.7,72.5L475.7,72.5z M470.9,75.7c-1.8,0-4.2,0.6-4.2,2.9c0,1.9,1.6,3,3.7,3c3,0,5.3-2.1,5.3-5.3
				v-0.6H470.9z"/>
			<path class="st3" d="M259.5,96.8h9c4.6,0,8,2.2,8,6.3c0,1.1-0.3,4.1-3.8,5.7c3.7,1,4.9,4.2,4.9,6.1c0,4.8-4.1,6.9-8.8,6.9h-9.3
				L259.5,96.8L259.5,96.8z M262.1,107.9h6c4.1,0,5.8-2.1,5.8-4.5c0-3-2.7-4.2-5.6-4.2h-6.2L262.1,107.9L262.1,107.9z M262.1,119.4
				h6.8c2.7,0,6.1-1.1,6.1-4.7c0-3.5-3.7-4.5-6.6-4.5h-6.3V119.4z"/>
			<path class="st3" d="M284.5,114.7c0,3,1.6,5.2,4.7,5.2c3,0,5.1-2.3,5.1-5.4v-9.8h2.5v17h-2.4v-3.1c-1.3,2.3-3.4,3.4-5.8,3.4
				c-4.2,0-6.4-2.8-6.4-6.8v-10.5h2.5v10H284.5z"/>
			<path class="st3" d="M307.5,122.1c-4.6,0-6.2-3.1-6.5-5l2.3-0.5c0.4,1.5,1.5,3.4,4.1,3.4c1.9,0,3.5-1,3.5-2.8
				c0-2.1-2.2-2.6-4-2.8c-2.8-0.4-5.6-1.4-5.6-4.8c0-3.2,2.9-5.1,5.7-5.1c4.5,0,5.9,3,6.2,4.6l-2.3,0.5c-0.3-1.1-1.2-3-3.9-3
				c-1.9,0-3.2,1.2-3.2,2.7c0,2.1,2.3,2.5,4.1,2.7c2.8,0.4,5.6,1.8,5.6,4.9C313.6,120,310.8,122.1,307.5,122.1z"/>
			<path class="st3" d="M319.3,96.8c1.1,0,1.9,0.8,1.9,1.9c0,1-0.8,1.9-1.9,1.9c-1,0-1.9-0.8-1.9-1.9S318.2,96.8,319.3,96.8z
				 M320.5,104.7v17H318v-17H320.5z"/>
			<path class="st3" d="M338.4,111.8c0-3-1.6-5.2-4.7-5.2c-3,0-5.1,2.4-5.1,5.4v9.7h-2.5v-17h2.5v3.1c1.3-2.3,3.4-3.4,5.9-3.4
				c4.2,0,6.4,2.8,6.4,6.8v10.5h-2.5V111.8z"/>
			<path class="st3" d="M347.6,114c0.2,3.3,2.8,5.8,6.1,5.8c2.5,0,4.5-1.2,5.3-3.6l2.2,0.7c-1,3.3-4.1,5.1-7.5,5.1
				c-4.9,0-8.6-3.9-8.6-8.8c0-4.6,3.5-8.8,8.3-8.8c5.3,0,8,3.8,8,8.7c0,0.3,0,0.6,0,0.8h-13.8V114z M358.9,111.9
				c-0.3-3.1-2.3-5.3-5.5-5.3c-3,0-5.3,2.5-5.7,5.3H358.9z"/>
			<path class="st3" d="M370.9,122.1c-4.6,0-6.2-3.1-6.5-5l2.3-0.5c0.4,1.5,1.5,3.4,4.1,3.4c1.9,0,3.5-1,3.5-2.8
				c0-2.1-2.2-2.6-4-2.8c-2.8-0.4-5.6-1.4-5.6-4.8c0-3.2,2.9-5.1,5.7-5.1c4.5,0,5.9,3,6.2,4.6l-2.3,0.5c-0.3-1.1-1.2-3-3.9-3
				c-1.9,0-3.2,1.2-3.2,2.7c0,2.1,2.3,2.5,4.1,2.7c2.8,0.4,5.6,1.8,5.6,4.9C376.9,120,374.2,122.1,370.9,122.1z"/>
			<path class="st3" d="M386.5,122.1c-4.6,0-6.2-3.1-6.5-5l2.3-0.5c0.4,1.5,1.5,3.4,4.1,3.4c1.9,0,3.5-1,3.5-2.8
				c0-2.1-2.2-2.6-4-2.8c-2.8-0.4-5.6-1.4-5.6-4.8c0-3.2,2.9-5.1,5.7-5.1c4.5,0,5.9,3,6.2,4.6l-2.3,0.5c-0.3-1.1-1.2-3-3.9-3
				c-1.9,0-3.2,1.2-3.2,2.7c0,2.1,2.3,2.5,4.1,2.7c2.8,0.4,5.6,1.8,5.6,4.9C392.6,120,389.8,122.1,386.5,122.1z"/>
			<path class="st3" d="M404.8,109.4c0-7.6,5.7-12.9,12.6-12.9c6.8,0,10.3,4.8,11.2,8.2l-2.5,0.9c-0.4-1.6-2.5-6.6-8.7-6.6
				c-5.3,0-9.8,4.1-9.8,10.2c0,5.9,4.1,10.3,9.8,10.3c6,0,8.1-4.6,8.8-6.7l2.5,0.9c-0.9,3.1-4.1,8.3-11.4,8.3
				C410.4,122,404.8,116.9,404.8,109.4z"/>
			<path class="st3" d="M431.4,113.3c0-5,3.8-8.9,8.8-8.9c4.9,0,8.8,3.9,8.8,8.7c0,5-3.9,8.9-8.8,8.9
				C435.2,122.1,431.4,118.2,431.4,113.3z M446.5,113.3c0-3.6-2.6-6.7-6.3-6.7c-3.7,0-6.2,3-6.2,6.6s2.6,6.7,6.3,6.7
				C443.9,119.9,446.5,116.9,446.5,113.3z"/>
			<path class="st3" d="M465.7,111.8c0-3-1.6-5.2-4.7-5.2c-3,0-5.1,2.4-5.1,5.4v9.7h-2.5v-17h2.5v3.1c1.3-2.3,3.4-3.4,5.9-3.4
				c4.2,0,6.4,2.8,6.4,6.8v10.5h-2.5V111.8z"/>
			<path class="st3" d="M474.5,117.4V107h-3.1v-2.3h3.2v-4.9h2.5v4.9h4.3v2.2h-4.3v10.4c0,1.5,0.9,2.4,2.8,2.4c0.5,0,1.1,0,1.5-0.1
				v2.1c-0.5,0.2-1.5,0.3-1.9,0.3C475.7,121.9,474.5,119.9,474.5,117.4z"/>
			<path class="st3" d="M486.8,96.8c1.1,0,1.9,0.8,1.9,1.9c0,1-0.8,1.9-1.9,1.9c-1,0-1.9-0.8-1.9-1.9S485.7,96.8,486.8,96.8z
				 M488,104.7v17h-2.5v-17H488z"/>
			<path class="st3" d="M505.9,111.8c0-3-1.6-5.2-4.7-5.2c-3,0-5.1,2.4-5.1,5.4v9.7h-2.5v-17h2.5v3.1c1.3-2.3,3.4-3.4,5.9-3.4
				c4.2,0,6.4,2.8,6.4,6.8v10.5h-2.5L505.9,111.8L505.9,111.8z"/>
			<path class="st3" d="M516.1,114.7c0,3,1.6,5.2,4.7,5.2c3,0,5.1-2.3,5.1-5.4v-9.8h2.5v17H526v-3.1c-1.3,2.3-3.3,3.4-5.8,3.4
				c-4.2,0-6.4-2.8-6.4-6.8v-10.5h2.5v10H516.1z"/>
			<path class="st3" d="M535.2,96.8c1.1,0,1.9,0.8,1.9,1.9c0,1-0.8,1.9-1.9,1.9c-1,0-1.9-0.8-1.9-1.9
				C533.4,97.6,534.2,96.8,535.2,96.8z M536.5,104.7v17H534v-17H536.5z"/>
			<path class="st3" d="M543.3,117.4V107h-3.2v-2.3h3.2v-4.9h2.5v4.9h4.3v2.2h-4.3v10.4c0,1.5,0.9,2.4,2.8,2.4c0.5,0,1.1,0,1.5-0.1
				v2.1c-0.5,0.2-1.5,0.3-1.9,0.3C544.4,121.9,543.3,119.9,543.3,117.4z"/>
			<path class="st3" d="M559.8,120.6l-7.8-15.9h2.9l6.3,13.2l5.9-13.2h2.7l-11.7,25.4h-2.7L559.8,120.6z"/>
			<path class="st3" d="M584.7,121.8h-2.6v-25h8.4c6.1,0,8.8,3.6,8.8,7.5c0,4.2-3.2,7.7-9.2,7.7h-5.3v9.8H584.7z M584.7,109.6h5.4
				c4.6,0,6.4-2.7,6.4-5.2s-1.4-5.1-6.3-5.1h-5.5L584.7,109.6L584.7,109.6z"/>
			<path class="st3" d="M605.7,95.8v26h-2.5v-26C603.2,95.8,605.7,95.8,605.7,95.8z"/>
			<path class="st3" d="M621.6,110.8c0-2.7-1.5-4.1-4.3-4.1c-2.9,0-4.2,1.9-4.5,3.5l-2.4-0.5c0.1-1.4,2-5.2,6.9-5.2
				c3.6,0,5.4,1.6,6.2,3.5c0.4,0.9,0.5,2.3,0.5,2.8v11h-2.4v-3l0,0c-1.3,2.1-3.2,3.3-5.7,3.3c-3.4,0-5.7-2.1-5.7-5v-0.2
				c0-3.7,3.7-4.9,6.7-4.9h4.7V110.8z M616.8,114c-1.8,0-4.2,0.6-4.2,2.9c0,1.9,1.6,3,3.7,3c3,0,5.3-2.1,5.3-5.3V114H616.8z"/>
			<path class="st3" d="M641.7,111.8c0-3-1.6-5.2-4.7-5.2c-3,0-5.1,2.4-5.1,5.4v9.7h-2.5v-17h2.5v3.1c1.3-2.3,3.4-3.4,5.9-3.4
				c4.2,0,6.4,2.8,6.4,6.8v10.5h-2.5L641.7,111.8L641.7,111.8z"/>
			<path class="st3" d="M653,114.5c0-0.2,0-0.4,0-0.6c0-3,1.8-4.4,3.2-5.8c1.4-1.5,3.2-2.9,3.2-5.1c0-2.1-1.4-4.1-4.7-4.1
				c-3.2,0-5,2.4-4.8,5.4l-2.6-0.1c0-0.3,0-0.5,0-0.7c0-4.1,3.4-7,7.4-7c4.5,0,7.3,3.1,7.3,6.5c0,2.5-1.5,4.1-3.7,6.3
				c-1.6,1.6-2.8,2.6-2.8,5.2C655.5,114.5,653,114.5,653,114.5z M654.1,122.1c1.1,0,1.9-0.8,1.9-1.9c0-1-0.8-1.9-1.9-1.9
				c-1,0-1.9,0.8-1.9,1.9C652.2,121.2,653.1,122.1,654.1,122.1z"/>
		</g>
	</g>
	<pattern  id="SVGID_7_" xlink:href="#SVGID_4_" patternTransform="matrix(1 0 0 1 -143.6 -102.3)">
	</pattern>
	<rect x="240.8" y="266.8" class="st9" width="210.4" height="563.6"/>
	<g class="st5">
		<g>
			<rect x="844.5" y="261.1" class="st3" width="211.4" height="569.3"/>
		</g>
	</g>
	<g>
		<g>
			<rect x="1055.9" y="621.8" class="st4" width="211.4" height="208.6"/>
		</g>
	</g>
	<pattern  id="SVGID_8_" xlink:href="#SVGID_4_" patternTransform="matrix(1 0 0 1.0101 -18.85 -98.646)">
	</pattern>
	<rect x="845.5" y="261.1" class="st10" width="210.4" height="569.3"/>
</g>
</svg>
