<?xml version="1.0" encoding="utf-8"?>
<!-- Generator: Adobe Illustrator 21.1.0, SVG Export Plug-In . SVG Version: 6.00 Build 0)  -->
<svg version="1.1" id="graphNineCyber" xmlns="http://www.w3.org/2000/svg" xmlns:xlink="http://www.w3.org/1999/xlink" x="0px"
	 y="0px" viewBox="0 0 1500 1053" style="enable-background:new 0 0 1500 1053;" xml:space="preserve">
<style type="text/css">
	.st0{fill:none;}
	.st1{fill:none;stroke:#F6F6F8;stroke-width:2;stroke-linecap:round;stroke-miterlimit:10;}
	.st2{fill:none;stroke:#F6F6F8;stroke-width:2;stroke-linecap:round;stroke-miterlimit:10;stroke-dasharray:0,10;}
	.st3{fill:#F6F6F8;}
	.st4{fill:#FFC940;}
	.st5{fill:#37C0AA;}
	.st6{fill:url(#SVGID_1_);}
	.st7{opacity:0.73;}
	.st8{fill:url(#SVGID_2_);}
	.st9{opacity:0.2;}
	.st10{fill:url(#SVGID_3_);}
	.st11{fill:url(#SVGID_4_);}
	.st12{fill:url(#SVGID_5_);}
	.st13{fill:url(#SVGID_6_);}
</style>
<pattern  y="1053" width="240" height="240" patternUnits="userSpaceOnUse" id="white" viewBox="1 -241 240 240" style="overflow:visible;">
	<g>
		<rect x="1" y="-241" class="st0" width="240" height="240"/>
		<g>
			<g>
				<line class="st1" x1="241" y1="-1" x2="241" y2="-1"/>
			</g>
		</g>
		<g>
			<g>
				<line class="st1" x1="1" y1="-1" x2="1" y2="-1"/>
				<line class="st2" x1="11" y1="-1" x2="236" y2="-1"/>
				<line class="st1" x1="241" y1="-1" x2="241" y2="-1"/>
			</g>
		</g>
		<g>
			<g>
				<line class="st1" x1="1" y1="-1" x2="1" y2="-1"/>
			</g>
		</g>
		<g>
			<g>
				<line class="st1" x1="241" y1="-241" x2="241" y2="-241"/>
			</g>
			<g>
				<line class="st1" x1="241" y1="-231" x2="241" y2="-231"/>
			</g>
			<g>
				<line class="st1" x1="241" y1="-221" x2="241" y2="-221"/>
			</g>
			<g>
				<line class="st1" x1="241" y1="-211" x2="241" y2="-211"/>
			</g>
			<g>
				<line class="st1" x1="241" y1="-201" x2="241" y2="-201"/>
			</g>
			<g>
				<line class="st1" x1="241" y1="-191" x2="241" y2="-191"/>
			</g>
			<g>
				<line class="st1" x1="241" y1="-181" x2="241" y2="-181"/>
			</g>
			<g>
				<line class="st1" x1="241" y1="-171" x2="241" y2="-171"/>
			</g>
			<g>
				<line class="st1" x1="241" y1="-161" x2="241" y2="-161"/>
			</g>
			<g>
				<line class="st1" x1="241" y1="-151" x2="241" y2="-151"/>
			</g>
			<g>
				<line class="st1" x1="241" y1="-141" x2="241" y2="-141"/>
			</g>
			<g>
				<line class="st1" x1="241" y1="-131" x2="241" y2="-131"/>
			</g>
			<g>
				<line class="st1" x1="241" y1="-121" x2="241" y2="-121"/>
			</g>
			<g>
				<line class="st1" x1="241" y1="-111" x2="241" y2="-111"/>
			</g>
			<g>
				<line class="st1" x1="241" y1="-101" x2="241" y2="-101"/>
			</g>
			<g>
				<line class="st1" x1="241" y1="-91" x2="241" y2="-91"/>
			</g>
			<g>
				<line class="st1" x1="241" y1="-81" x2="241" y2="-81"/>
			</g>
			<g>
				<line class="st1" x1="241" y1="-71" x2="241" y2="-71"/>
			</g>
			<g>
				<line class="st1" x1="241" y1="-61" x2="241" y2="-61"/>
			</g>
			<g>
				<line class="st1" x1="241" y1="-51" x2="241" y2="-51"/>
			</g>
			<g>
				<line class="st1" x1="241" y1="-41" x2="241" y2="-41"/>
			</g>
			<g>
				<line class="st1" x1="241" y1="-31" x2="241" y2="-31"/>
			</g>
			<g>
				<line class="st1" x1="241" y1="-21" x2="241" y2="-21"/>
			</g>
			<g>
				<line class="st1" x1="241" y1="-11" x2="241" y2="-11"/>
			</g>
			<g>
				<line class="st1" x1="241" y1="-1" x2="241" y2="-1"/>
			</g>
		</g>
		<g>
			<g>
				<line class="st1" x1="1" y1="-241" x2="1" y2="-241"/>
				<line class="st2" x1="11" y1="-241" x2="236" y2="-241"/>
				<line class="st1" x1="241" y1="-241" x2="241" y2="-241"/>
			</g>
			<g>
				<line class="st1" x1="1" y1="-231" x2="1" y2="-231"/>
				<line class="st2" x1="11" y1="-231" x2="236" y2="-231"/>
				<line class="st1" x1="241" y1="-231" x2="241" y2="-231"/>
			</g>
			<g>
				<line class="st1" x1="1" y1="-221" x2="1" y2="-221"/>
				<line class="st2" x1="11" y1="-221" x2="236" y2="-221"/>
				<line class="st1" x1="241" y1="-221" x2="241" y2="-221"/>
			</g>
			<g>
				<line class="st1" x1="1" y1="-211" x2="1" y2="-211"/>
				<line class="st2" x1="11" y1="-211" x2="236" y2="-211"/>
				<line class="st1" x1="241" y1="-211" x2="241" y2="-211"/>
			</g>
			<g>
				<line class="st1" x1="1" y1="-201" x2="1" y2="-201"/>
				<line class="st2" x1="11" y1="-201" x2="236" y2="-201"/>
				<line class="st1" x1="241" y1="-201" x2="241" y2="-201"/>
			</g>
			<g>
				<line class="st1" x1="1" y1="-191" x2="1" y2="-191"/>
				<line class="st2" x1="11" y1="-191" x2="236" y2="-191"/>
				<line class="st1" x1="241" y1="-191" x2="241" y2="-191"/>
			</g>
			<g>
				<line class="st1" x1="1" y1="-181" x2="1" y2="-181"/>
				<line class="st2" x1="11" y1="-181" x2="236" y2="-181"/>
				<line class="st1" x1="241" y1="-181" x2="241" y2="-181"/>
			</g>
			<g>
				<line class="st1" x1="1" y1="-171" x2="1" y2="-171"/>
				<line class="st2" x1="11" y1="-171" x2="236" y2="-171"/>
				<line class="st1" x1="241" y1="-171" x2="241" y2="-171"/>
			</g>
			<g>
				<line class="st1" x1="1" y1="-161" x2="1" y2="-161"/>
				<line class="st2" x1="11" y1="-161" x2="236" y2="-161"/>
				<line class="st1" x1="241" y1="-161" x2="241" y2="-161"/>
			</g>
			<g>
				<line class="st1" x1="1" y1="-151" x2="1" y2="-151"/>
				<line class="st2" x1="11" y1="-151" x2="236" y2="-151"/>
				<line class="st1" x1="241" y1="-151" x2="241" y2="-151"/>
			</g>
			<g>
				<line class="st1" x1="1" y1="-141" x2="1" y2="-141"/>
				<line class="st2" x1="11" y1="-141" x2="236" y2="-141"/>
				<line class="st1" x1="241" y1="-141" x2="241" y2="-141"/>
			</g>
			<g>
				<line class="st1" x1="1" y1="-131" x2="1" y2="-131"/>
				<line class="st2" x1="11" y1="-131" x2="236" y2="-131"/>
				<line class="st1" x1="241" y1="-131" x2="241" y2="-131"/>
			</g>
			<g>
				<line class="st1" x1="1" y1="-121" x2="1" y2="-121"/>
				<line class="st2" x1="11" y1="-121" x2="236" y2="-121"/>
				<line class="st1" x1="241" y1="-121" x2="241" y2="-121"/>
			</g>
			<g>
				<line class="st1" x1="1" y1="-111" x2="1" y2="-111"/>
				<line class="st2" x1="11" y1="-111" x2="236" y2="-111"/>
				<line class="st1" x1="241" y1="-111" x2="241" y2="-111"/>
			</g>
			<g>
				<line class="st1" x1="1" y1="-101" x2="1" y2="-101"/>
				<line class="st2" x1="11" y1="-101" x2="236" y2="-101"/>
				<line class="st1" x1="241" y1="-101" x2="241" y2="-101"/>
			</g>
			<g>
				<line class="st1" x1="1" y1="-91" x2="1" y2="-91"/>
				<line class="st2" x1="11" y1="-91" x2="236" y2="-91"/>
				<line class="st1" x1="241" y1="-91" x2="241" y2="-91"/>
			</g>
			<g>
				<line class="st1" x1="1" y1="-81" x2="1" y2="-81"/>
				<line class="st2" x1="11" y1="-81" x2="236" y2="-81"/>
				<line class="st1" x1="241" y1="-81" x2="241" y2="-81"/>
			</g>
			<g>
				<line class="st1" x1="1" y1="-71" x2="1" y2="-71"/>
				<line class="st2" x1="11" y1="-71" x2="236" y2="-71"/>
				<line class="st1" x1="241" y1="-71" x2="241" y2="-71"/>
			</g>
			<g>
				<line class="st1" x1="1" y1="-61" x2="1" y2="-61"/>
				<line class="st2" x1="11" y1="-61" x2="236" y2="-61"/>
				<line class="st1" x1="241" y1="-61" x2="241" y2="-61"/>
			</g>
			<g>
				<line class="st1" x1="1" y1="-51" x2="1" y2="-51"/>
				<line class="st2" x1="11" y1="-51" x2="236" y2="-51"/>
				<line class="st1" x1="241" y1="-51" x2="241" y2="-51"/>
			</g>
			<g>
				<line class="st1" x1="1" y1="-41" x2="1" y2="-41"/>
				<line class="st2" x1="11" y1="-41" x2="236" y2="-41"/>
				<line class="st1" x1="241" y1="-41" x2="241" y2="-41"/>
			</g>
			<g>
				<line class="st1" x1="1" y1="-31" x2="1" y2="-31"/>
				<line class="st2" x1="11" y1="-31" x2="236" y2="-31"/>
				<line class="st1" x1="241" y1="-31" x2="241" y2="-31"/>
			</g>
			<g>
				<line class="st1" x1="1" y1="-21" x2="1" y2="-21"/>
				<line class="st2" x1="11" y1="-21" x2="236" y2="-21"/>
				<line class="st1" x1="241" y1="-21" x2="241" y2="-21"/>
			</g>
			<g>
				<line class="st1" x1="1" y1="-11" x2="1" y2="-11"/>
				<line class="st2" x1="11" y1="-11" x2="236" y2="-11"/>
				<line class="st1" x1="241" y1="-11" x2="241" y2="-11"/>
			</g>
			<g>
				<line class="st1" x1="1" y1="-1" x2="1" y2="-1"/>
				<line class="st2" x1="11" y1="-1" x2="236" y2="-1"/>
				<line class="st1" x1="241" y1="-1" x2="241" y2="-1"/>
			</g>
		</g>
		<g>
			<g>
				<line class="st1" x1="1" y1="-241" x2="1" y2="-241"/>
			</g>
			<g>
				<line class="st1" x1="1" y1="-231" x2="1" y2="-231"/>
			</g>
			<g>
				<line class="st1" x1="1" y1="-221" x2="1" y2="-221"/>
			</g>
			<g>
				<line class="st1" x1="1" y1="-211" x2="1" y2="-211"/>
			</g>
			<g>
				<line class="st1" x1="1" y1="-201" x2="1" y2="-201"/>
			</g>
			<g>
				<line class="st1" x1="1" y1="-191" x2="1" y2="-191"/>
			</g>
			<g>
				<line class="st1" x1="1" y1="-181" x2="1" y2="-181"/>
			</g>
			<g>
				<line class="st1" x1="1" y1="-171" x2="1" y2="-171"/>
			</g>
			<g>
				<line class="st1" x1="1" y1="-161" x2="1" y2="-161"/>
			</g>
			<g>
				<line class="st1" x1="1" y1="-151" x2="1" y2="-151"/>
			</g>
			<g>
				<line class="st1" x1="1" y1="-141" x2="1" y2="-141"/>
			</g>
			<g>
				<line class="st1" x1="1" y1="-131" x2="1" y2="-131"/>
			</g>
			<g>
				<line class="st1" x1="1" y1="-121" x2="1" y2="-121"/>
			</g>
			<g>
				<line class="st1" x1="1" y1="-111" x2="1" y2="-111"/>
			</g>
			<g>
				<line class="st1" x1="1" y1="-101" x2="1" y2="-101"/>
			</g>
			<g>
				<line class="st1" x1="1" y1="-91" x2="1" y2="-91"/>
			</g>
			<g>
				<line class="st1" x1="1" y1="-81" x2="1" y2="-81"/>
			</g>
			<g>
				<line class="st1" x1="1" y1="-71" x2="1" y2="-71"/>
			</g>
			<g>
				<line class="st1" x1="1" y1="-61" x2="1" y2="-61"/>
			</g>
			<g>
				<line class="st1" x1="1" y1="-51" x2="1" y2="-51"/>
			</g>
			<g>
				<line class="st1" x1="1" y1="-41" x2="1" y2="-41"/>
			</g>
			<g>
				<line class="st1" x1="1" y1="-31" x2="1" y2="-31"/>
			</g>
			<g>
				<line class="st1" x1="1" y1="-21" x2="1" y2="-21"/>
			</g>
			<g>
				<line class="st1" x1="1" y1="-11" x2="1" y2="-11"/>
			</g>
			<g>
				<line class="st1" x1="1" y1="-1" x2="1" y2="-1"/>
			</g>
		</g>
		<g>
			<g>
				<line class="st1" x1="241" y1="-241" x2="241" y2="-241"/>
			</g>
		</g>
		<g>
			<g>
				<line class="st1" x1="1" y1="-241" x2="1" y2="-241"/>
				<line class="st2" x1="11" y1="-241" x2="236" y2="-241"/>
				<line class="st1" x1="241" y1="-241" x2="241" y2="-241"/>
			</g>
		</g>
		<g>
			<g>
				<line class="st1" x1="1" y1="-241" x2="1" y2="-241"/>
			</g>
		</g>
	</g>
</pattern>
<rect x="-26.1" y="-18.3" class="st3" width="1552.1" height="1089.6"/>
<g>
	<g>
		<g>
			<path class="st4" d="M1293.8,224v-3.7h-8v-1.8l7.6-10h2v10.3h2.6v1.4h-2.6v3.7H1293.8z M1293.8,218.9v-8.7l-6.6,8.7H1293.8z"/>
			<path class="st4" d="M1302.5,210.1l-0.9,5.2c1-1,2.6-1.2,3.4-1.2c2.9,0,5.1,1.9,5.1,5c0,3.4-2.8,5-5.4,5c-2.6,0-5-1.6-5.3-4.2
				l1.6-0.3c0.3,1.8,1.8,3.1,3.7,3.1c1.5,0,3.7-1,3.7-3.5s-1.9-3.6-3.7-3.6c-1.1,0-2.4,0.6-3.3,1.6l-1.5-0.6l1.3-8h8.1v1.5H1302.5z"
				/>
			<path class="st4" d="M1313.5,216.9c-1.1,0-2-0.9-2-2c0-1.1,0.9-2,2-2c1.1,0,2,0.9,2,2C1315.6,216,1314.7,216.9,1313.5,216.9z
				 M1313.5,213.6c-0.7,0-1.3,0.6-1.3,1.3c0,0.7,0.6,1.3,1.3,1.3c0.7,0,1.3-0.6,1.3-1.3C1314.8,214.2,1314.2,213.6,1313.5,213.6z
				 M1318.5,213h0.9l-5.9,9h-0.9L1318.5,213z M1318.5,222c-1.1,0-2-0.9-2-2c0-1.1,0.9-2,2-2c1.1,0,2,0.9,2,2
				C1320.6,221.1,1319.7,222,1318.5,222z M1318.5,218.7c-0.7,0-1.3,0.6-1.3,1.3c0,0.7,0.6,1.3,1.3,1.3c0.7,0,1.3-0.6,1.3-1.3
				C1319.8,219.3,1319.2,218.7,1318.5,218.7z"/>
		</g>
	</g>
	<g>
		<g>
			<path class="st5" d="M1256.9,337.3v-3.7h-8v-1.8l7.6-10h2v10.3h2.6v1.4h-2.6v3.7H1256.9z M1256.9,332.2v-8.7l-6.6,8.7H1256.9z"/>
			<path class="st5" d="M1268,337.4c-2.7,0-5-1.6-5.3-4.2l1.6-0.3c0.3,1.8,1.6,3.1,3.8,3.1c2.1,0,3.7-1.1,3.7-2.9s-1.3-2.9-3.7-2.9
				h-1.5v-1.5h1.5c2.1,0,3.4-1.3,3.4-2.8c0-1.6-1.2-2.7-3.4-2.7c-2.1,0-3.3,1.3-3.6,2.9l-1.6-0.3c0.3-2.1,2.3-4,5.2-4
				c3.4,0,5,2.1,5,4.1c0,1.8-1,2.9-2.5,3.5v0c1.8,0.5,2.8,1.9,2.8,3.7C1273.3,335.4,1271.2,337.4,1268,337.4z"/>
			<path class="st5" d="M1277,330.2c-1.1,0-2-0.9-2-2c0-1.1,0.9-2,2-2c1.1,0,2,0.9,2,2C1279,329.3,1278.1,330.2,1277,330.2z
				 M1277,326.9c-0.7,0-1.3,0.6-1.3,1.3c0,0.7,0.6,1.3,1.3,1.3c0.7,0,1.3-0.6,1.3-1.3C1278.2,327.5,1277.7,326.9,1277,326.9z
				 M1281.9,326.2h0.9l-5.9,9h-0.9L1281.9,326.2z M1281.9,335.3c-1.1,0-2-0.9-2-2c0-1.1,0.9-2,2-2c1.1,0,2,0.9,2,2
				C1284,334.4,1283.1,335.3,1281.9,335.3z M1281.9,332c-0.7,0-1.3,0.6-1.3,1.3c0,0.7,0.6,1.3,1.3,1.3c0.7,0,1.3-0.6,1.3-1.3
				C1283.2,332.6,1282.6,332,1281.9,332z"/>
		</g>
	</g>
	<g>
		
			<rect x="753.9" y="-232.1" transform="matrix(-1.836970e-16 1 -1 -1.836970e-16 1025.7322 -548.9724)" class="st4" width="67" height="940.9"/>
		<g>
			<pattern  id="SVGID_1_" xlink:href="#white" patternTransform="matrix(0 1.2315 -1.1823 0 -19816.4961 1032.3363)">
			</pattern>
			<rect x="316.9" y="204.9" class="st6" width="940.9" height="67"/>
		</g>
	</g>
	
		<rect x="735.1" y="-146.3" transform="matrix(-1.836970e-16 1 -1 -1.836970e-16 1073.8749 -463.1934)" class="st5" width="67" height="903.3"/>
	<g>
		<g>
			<path class="st4" d="M685.7,430.7l-3.7,2.2l-0.7-1.2l4.5-2.7h1.6v15.4h-1.6V430.7z"/>
			<path class="st4" d="M690.7,440.2c0-1.6,1.1-3.1,3.2-3.7c-1.9-0.6-2.9-2.2-2.9-3.5c0-2.7,2.8-4.1,5-4.1c2.3,0,5.1,1.4,5.1,4.1
				c0,1.5-1,3-2.9,3.5c2.1,0.6,3.2,2.1,3.2,3.7c0,2.8-2.7,4.4-5.4,4.4C693.4,444.6,690.7,443.1,690.7,440.2z M699.9,440.2
				c0-2-2.1-3-3.8-3c-1.6,0-3.8,0.9-3.8,3c0,2.1,2.1,3,3.8,3C697.7,443.1,699.9,442.2,699.9,440.2z M692.6,433c0,2,2.1,2.8,3.4,2.8
				c1.3,0,3.5-0.9,3.5-2.8c0-1.8-2-2.7-3.5-2.7C694.6,430.3,692.6,431.2,692.6,433z"/>
			<path class="st4" d="M705.1,437.3c-1.1,0-2-0.9-2-2c0-1.1,0.9-2,2-2c1.1,0,2,0.9,2,2C707.2,436.4,706.3,437.3,705.1,437.3z
				 M705.1,434c-0.7,0-1.3,0.6-1.3,1.3c0,0.7,0.6,1.3,1.3,1.3c0.7,0,1.3-0.6,1.3-1.3C706.4,434.6,705.8,434,705.1,434z M710.1,433.4
				h0.9l-5.9,9h-0.9L710.1,433.4z M710.1,442.4c-1.1,0-2-0.9-2-2c0-1.1,0.9-2,2-2c1.1,0,2,0.9,2,2
				C712.2,441.5,711.2,442.4,710.1,442.4z M710.1,439.1c-0.7,0-1.3,0.6-1.3,1.3c0,0.7,0.6,1.3,1.3,1.3c0.7,0,1.3-0.6,1.3-1.3
				C711.4,439.7,710.8,439.1,710.1,439.1z"/>
		</g>
	</g>
	<g>
		<g>
			<path class="st5" d="M816.9,555.1c0-1.8,0.8-3.7,3.6-5.4l2.3-1.5c1.5-0.9,2.7-1.9,2.7-3.7c0-1.6-1.4-3.1-3.4-3.1
				c-1.7,0-2.8,1-3.2,2c-0.3,0.7-0.3,1.3-0.3,1.5l-1.6-0.2c0-2.2,1.9-4.8,5.1-4.8c2.9,0,5,2.2,5,4.6c0,2.2-1.2,3.5-3.3,4.8l-2.4,1.5
				c-1.3,0.8-2.6,1.9-2.7,3.3h8.5v1.5h-10.4V555.1z"/>
			<path class="st5" d="M832.4,541.7l-0.9,5.2c1-1,2.6-1.2,3.4-1.2c2.9,0,5.1,1.9,5.1,5c0,3.4-2.8,5-5.4,5c-2.6,0-5-1.6-5.3-4.2
				l1.6-0.3c0.3,1.8,1.8,3.1,3.7,3.1c1.5,0,3.7-1,3.7-3.5s-1.9-3.6-3.7-3.6c-1.1,0-2.4,0.6-3.3,1.6l-1.5-0.6l1.3-8h8.1v1.5H832.4z"
				/>
			<path class="st5" d="M843.4,548.5c-1.1,0-2-0.9-2-2c0-1.1,0.9-2,2-2c1.1,0,2,0.9,2,2C845.5,547.6,844.6,548.5,843.4,548.5z
				 M843.4,545.2c-0.7,0-1.3,0.6-1.3,1.3c0,0.7,0.6,1.3,1.3,1.3c0.7,0,1.3-0.6,1.3-1.3C844.7,545.8,844.1,545.2,843.4,545.2z
				 M848.4,544.6h0.9l-5.9,9h-0.9L848.4,544.6z M848.4,553.6c-1.1,0-2-0.9-2-2c0-1.1,0.9-2,2-2c1.1,0,2,0.9,2,2
				C850.5,552.7,849.5,553.6,848.4,553.6z M848.4,550.3c-0.7,0-1.3,0.6-1.3,1.3c0,0.7,0.6,1.3,1.3,1.3c0.7,0,1.3-0.6,1.3-1.3
				C849.7,550.9,849.1,550.3,848.4,550.3z"/>
		</g>
	</g>
	<g>
		<g>
			<path class="st4" d="M795,663.1c0-1.8,0.8-3.7,3.6-5.4l2.3-1.5c1.5-0.9,2.7-1.9,2.7-3.7c0-1.6-1.4-3.1-3.4-3.1
				c-1.7,0-2.8,1-3.2,2c-0.3,0.7-0.3,1.3-0.3,1.5l-1.6-0.2c0-2.2,1.9-4.8,5.1-4.8c2.9,0,5,2.2,5,4.6c0,2.2-1.2,3.5-3.3,4.8l-2.4,1.5
				c-1.3,0.8-2.6,1.9-2.7,3.3h8.5v1.5H795V663.1z"/>
			<path class="st4" d="M814.9,663.6v-3.7h-8v-1.8l7.6-10h2v10.3h2.6v1.4h-2.6v3.7H814.9z M814.9,658.5v-8.7l-6.6,8.7H814.9z"/>
			<path class="st4" d="M822.1,656.5c-1.1,0-2-0.9-2-2c0-1.1,0.9-2,2-2c1.1,0,2,0.9,2,2C824.2,655.6,823.3,656.5,822.1,656.5z
				 M822.1,653.2c-0.7,0-1.3,0.6-1.3,1.3c0,0.7,0.6,1.3,1.3,1.3c0.7,0,1.3-0.6,1.3-1.3C823.4,653.8,822.8,653.2,822.1,653.2z
				 M827.1,652.6h0.9l-5.9,9h-0.9L827.1,652.6z M827.1,661.6c-1.1,0-2-0.9-2-2c0-1.1,0.9-2,2-2c1.1,0,2,0.9,2,2
				C829.2,660.7,828.2,661.6,827.1,661.6z M827.1,658.3c-0.7,0-1.3,0.6-1.3,1.3c0,0.7,0.6,1.3,1.3,1.3c0.7,0,1.3-0.6,1.3-1.3
				C828.4,658.9,827.8,658.3,827.1,658.3z"/>
		</g>
	</g>
	<g>
		<g>
			<path class="st5" d="M744.6,774.3c0-1.8,0.8-3.7,3.6-5.4l2.3-1.5c1.5-0.9,2.7-1.9,2.7-3.7c0-1.6-1.4-3.1-3.4-3.1
				c-1.7,0-2.8,1-3.2,2c-0.3,0.7-0.3,1.3-0.3,1.5l-1.6-0.2c0-2.2,1.9-4.8,5.1-4.8c2.9,0,5,2.2,5,4.6c0,2.2-1.2,3.5-3.3,4.8l-2.4,1.5
				c-1.3,0.8-2.6,1.9-2.7,3.3h8.5v1.5h-10.4V774.3z"/>
			<path class="st5" d="M760.8,761.1l-3.7,2.2l-0.7-1.2l4.5-2.7h1.6v15.4h-1.6V761.1z"/>
			<path class="st5" d="M767.1,767.7c-1.1,0-2-0.9-2-2c0-1.1,0.9-2,2-2c1.1,0,2,0.9,2,2C769.1,766.8,768.2,767.7,767.1,767.7z
				 M767.1,764.4c-0.7,0-1.3,0.6-1.3,1.3c0,0.7,0.6,1.3,1.3,1.3c0.7,0,1.3-0.6,1.3-1.3C768.4,765,767.8,764.4,767.1,764.4z
				 M772,763.7h0.9l-5.9,9h-0.9L772,763.7z M772.1,772.8c-1.1,0-2-0.9-2-2c0-1.1,0.9-2,2-2c1.1,0,2,0.9,2,2
				C774.1,771.9,773.2,772.8,772.1,772.8z M772.1,769.5c-0.7,0-1.3,0.6-1.3,1.3c0,0.7,0.6,1.3,1.3,1.3c0.7,0,1.3-0.6,1.3-1.3
				C773.3,770.1,772.8,769.5,772.1,769.5z"/>
		</g>
	</g>
	<g>
		<g>
			<path class="st4" d="M593.8,871.6l-3.7,2.2l-0.7-1.2l4.5-2.7h1.6v15.4h-1.6V871.6z"/>
			<path class="st4" d="M603.8,885.4c-2.7,0-5-1.6-5.3-4.2l1.6-0.3c0.3,1.8,1.6,3.1,3.8,3.1c2.1,0,3.7-1.1,3.7-2.9
				c0-1.8-1.3-2.9-3.7-2.9h-1.5v-1.5h1.5c2.1,0,3.4-1.3,3.4-2.8c0-1.6-1.2-2.7-3.4-2.7c-2.1,0-3.3,1.3-3.6,2.9l-1.6-0.3
				c0.3-2.1,2.3-4,5.2-4c3.4,0,5,2.1,5,4.1c0,1.8-1,2.9-2.5,3.5v0c1.8,0.5,2.8,1.9,2.8,3.7C609.1,883.4,607,885.4,603.8,885.4z"/>
			<path class="st4" d="M612.8,878.2c-1.1,0-2-0.9-2-2c0-1.1,0.9-2,2-2c1.1,0,2,0.9,2,2C614.8,877.3,613.9,878.2,612.8,878.2z
				 M612.8,874.9c-0.7,0-1.3,0.6-1.3,1.3c0,0.7,0.6,1.3,1.3,1.3c0.7,0,1.3-0.6,1.3-1.3C614,875.5,613.5,874.9,612.8,874.9z
				 M617.7,874.2h0.9l-5.9,9h-0.9L617.7,874.2z M617.8,883.3c-1.1,0-2-0.9-2-2c0-1.1,0.9-2,2-2c1.1,0,2,0.9,2,2
				C619.8,882.4,618.9,883.3,617.8,883.3z M617.8,880c-0.7,0-1.3,0.6-1.3,1.3c0,0.7,0.6,1.3,1.3,1.3c0.7,0,1.3-0.6,1.3-1.3
				C619,880.6,618.5,880,617.8,880z"/>
		</g>
	</g>
	<g>
		<g>
			<path class="st5" d="M555.3,982.7l-3.7,2.2l-0.7-1.2l4.5-2.7h1.6v15.4h-1.6V982.7z"/>
			<path class="st5" d="M563.8,982.7l-3.7,2.2l-0.7-1.2l4.5-2.7h1.6v15.4h-1.6V982.7z"/>
			<path class="st5" d="M570,989.4c-1.1,0-2-0.9-2-2c0-1.1,0.9-2,2-2c1.1,0,2,0.9,2,2C572.1,988.5,571.1,989.4,570,989.4z
				 M570,986.1c-0.7,0-1.3,0.6-1.3,1.3c0,0.7,0.6,1.3,1.3,1.3s1.3-0.6,1.3-1.3C571.3,986.6,570.7,986.1,570,986.1z M575,985.4h0.9
				l-5.9,9h-0.9L575,985.4z M575,994.5c-1.1,0-2-0.9-2-2c0-1.1,0.9-2,2-2c1.1,0,2,0.9,2,2C577,993.6,576.1,994.5,575,994.5z
				 M575,991.2c-0.7,0-1.3,0.6-1.3,1.3c0,0.7,0.6,1.3,1.3,1.3c0.7,0,1.3-0.6,1.3-1.3C576.3,991.7,575.7,991.2,575,991.2z"/>
		</g>
	</g>
	<g>
		<g>
			<path d="M1223.9,937.8c0-1.6,0.7-3.3,3.1-4.7l2.1-1.3c1.3-0.8,2.4-1.6,2.4-3.2c0-1.4-1.2-2.7-3-2.7c-1.5,0-2.4,0.9-2.8,1.7
				c-0.2,0.6-0.3,1.1-0.3,1.3l-1.4-0.2c0-1.9,1.6-4.2,4.5-4.2c2.5,0,4.4,1.9,4.4,4c0,1.9-1.1,3.1-2.8,4.2l-2.1,1.3
				c-1.2,0.7-2.2,1.7-2.3,2.9h7.4v1.3h-9.1V937.8z"/>
			<path d="M1235.9,931.5c0-3.3,1.9-6.9,5.7-6.9c3.7,0,5.6,3.5,5.6,6.9s-1.9,6.9-5.6,6.9C1237.8,938.3,1235.9,934.8,1235.9,931.5z
				 M1237.3,931.4c0,2.4,1.2,5.6,4.2,5.6c2.9,0,4.2-3.1,4.2-5.6c0-2.4-1.3-5.6-4.2-5.6C1238.6,925.8,1237.3,929,1237.3,931.4z"/>
			<path d="M1253.1,926.2l-3.2,1.9l-0.6-1.1l3.9-2.4h1.4v13.5h-1.4V926.2z"/>
			<path d="M1259.7,931.4c0.9-1.4,2.6-1.9,3.7-1.9c2.8,0,4.5,2,4.5,4.3c0,3.1-2.4,4.6-4.8,4.6c-1.5,0-3.2-0.9-4-2.3
				c-0.7-1.2-0.8-2.1-0.8-3.7c0-4.3,2.3-7.8,6.6-7.8c0.8,0,1.9,0.1,2.8,0.6l-0.5,1.3c-0.7-0.4-1.7-0.6-2.2-0.6
				C1261.7,925.9,1260,928.3,1259.7,931.4z M1260.9,931.5c-0.7,0.6-1.1,1.4-1.1,2.3c0,2,1.7,3.2,3.3,3.2c1.7,0,3.3-1.1,3.3-3.2
				c0-1.7-1.3-3.1-3.3-3.1C1262.4,930.6,1261.6,931,1260.9,931.5z"/>
		</g>
	</g>
	<g>
		<circle class="st4" cx="1192.5" cy="933.6" r="16.4"/>
	</g>
	<g>
		<g>
			<path d="M1223.9,985.4c0-1.6,0.7-3.3,3.1-4.7l2.1-1.3c1.3-0.8,2.4-1.6,2.4-3.2c0-1.4-1.2-2.7-3-2.7c-1.5,0-2.4,0.9-2.8,1.7
				c-0.2,0.6-0.3,1.1-0.3,1.3l-1.4-0.2c0-1.9,1.6-4.2,4.5-4.2c2.5,0,4.4,1.9,4.4,4c0,1.9-1.1,3.1-2.8,4.2l-2.1,1.3
				c-1.2,0.7-2.2,1.7-2.3,2.9h7.4v1.3h-9.1V985.4z"/>
			<path d="M1235.9,979.1c0-3.3,1.9-6.9,5.7-6.9c3.7,0,5.6,3.5,5.6,6.9s-1.9,6.9-5.6,6.9C1237.8,985.9,1235.9,982.4,1235.9,979.1z
				 M1237.3,979c0,2.4,1.2,5.6,4.2,5.6c2.9,0,4.2-3.1,4.2-5.6s-1.3-5.6-4.2-5.6C1238.6,973.5,1237.3,976.6,1237.3,979z"/>
			<path d="M1253.1,973.8l-3.2,1.9l-0.6-1.1l3.9-2.4h1.4v13.5h-1.4V973.8z"/>
			<path d="M1257.7,973.6v-1.3h9.2v1.3l-6.2,12.2h-1.6l6.3-12.2H1257.7z"/>
		</g>
	</g>
	<g>
		<circle class="st5" cx="1192.5" cy="981.2" r="16.4"/>
	</g>
	<g>
		<g class="st7">
			<pattern  id="SVGID_2_" xlink:href="#white" patternTransform="matrix(1.2315 0 0 1.2315 7263.3628 5832.7656)"  class="st7">
			</pattern>
			<circle class="st8" cx="1192.5" cy="933.6" r="16.4"/>
		</g>
		<g class="st9">
			<pattern  id="SVGID_3_" xlink:href="#white" patternTransform="matrix(1.2315 0 0 1.2315 7263.3628 5832.7656)"  class="st9">
			</pattern>
			<circle class="st10" cx="1192.5" cy="933.6" r="16.4"/>
		</g>
	</g>
	<g>
		
			<rect x="509.2" y="452.2" transform="matrix(-1.836970e-16 1 -1 -1.836970e-16 1220.7141 135.2816)" class="st4" width="67" height="451.6"/>
		<g>
			<pattern  id="SVGID_4_" xlink:href="#white" patternTransform="matrix(0 1.2315 -1.1823 0 -19816.4961 1176.3726)">
			</pattern>
			<rect x="316.9" y="644.5" class="st11" width="451.6" height="67"/>
		</g>
	</g>
	
		<rect x="481" y="547.4" transform="matrix(-1.836970e-16 1 -1 -1.836970e-16 1259.4476 230.4696)" class="st5" width="67" height="395.2"/>
	<g>
		
			<rect x="452.8" y="289.4" transform="matrix(-1.836970e-16 1 -1 -1.836970e-16 945.0604 -27.4632)" class="st4" width="67" height="338.7"/>
		<g>
			<pattern  id="SVGID_5_" xlink:href="#white" patternTransform="matrix(0 1.2315 -1.1823 0 -19816.4961 1080.3484)">
			</pattern>
			<rect x="316.9" y="425.3" class="st12" width="338.7" height="67"/>
		</g>
	</g>
	
		<rect x="518.4" y="290.7" transform="matrix(-1.836970e-16 1 -1 -1.836970e-16 1077.6748 -26.1559)" class="st5" width="67" height="470"/>
	<g>
		
			<rect x="405.7" y="777.3" transform="matrix(-1.836970e-16 1 -1 -1.836970e-16 1338.871 460.4382)" class="st4" width="67" height="244.6"/>
		<g>
			<pattern  id="SVGID_6_" xlink:href="#white" patternTransform="matrix(0 1.2315 -1.1823 0 -19816.4961 1176.3726)">
			</pattern>
			<rect x="316.9" y="866.2" class="st13" width="244.6" height="67"/>
		</g>
	</g>
	
		<rect x="386.9" y="863.1" transform="matrix(-1.836970e-16 1 -1 -1.836970e-16 1387.0137 546.2172)" class="st5" width="67" height="207"/>
	<g>
		<g>
			<path d="M273.5,206.2l-5.2,7.8v5.7h-1.4V214l-5.2-7.8h1.7l4.3,6.5l4.3-6.5H273.5z"/>
			<path d="M275,215.5c0.1,1.8,1.5,3.2,3.3,3.2c1.4,0,2.4-0.7,2.8-2l1.2,0.4c-0.6,1.8-2.2,2.8-4,2.8c-2.7,0-4.7-2.1-4.7-4.8
				c0-2.5,1.9-4.7,4.5-4.7c2.8,0,4.3,2,4.3,4.7c0,0.2,0,0.3,0,0.4H275z M281.1,214.4c-0.2-1.7-1.2-2.9-3-2.9c-1.6,0-2.9,1.3-3.1,2.9
				H281.1z"/>
			<path d="M288.4,219.9c-2.5,0-3.3-1.7-3.5-2.7l1.2-0.3c0.2,0.8,0.8,1.8,2.2,1.8c1,0,1.9-0.5,1.9-1.5c0-1.1-1.2-1.4-2.2-1.5
				c-1.5-0.2-3-0.8-3-2.6c0-1.7,1.6-2.7,3.1-2.7c2.4,0,3.2,1.6,3.3,2.5l-1.2,0.3c-0.2-0.6-0.7-1.6-2.1-1.6c-1,0-1.7,0.7-1.7,1.5
				c0,1.2,1.2,1.3,2.2,1.4c1.5,0.2,3,1,3,2.7C291.7,218.8,290.2,219.9,288.4,219.9z"/>
		</g>
	</g>
	<g>
		<g>
			<path d="M180.9,867.5V881h-1.4v-13.5H180.9z"/>
			<path d="M194.4,871.6c1.8,0,2.8,1,3.6,2.1v-6.8h1.3v14H198v-2c-0.7,1.2-1.8,2.1-3.6,2.1c-2.6,0-4.3-2.2-4.3-4.8
				C190.1,874,191.8,871.6,194.4,871.6z M198,876.3c0-1.8-1.4-3.5-3.3-3.5c-2,0-3.2,1.6-3.2,3.6c0,1.9,1.2,3.5,3.2,3.5
				C196.7,879.9,198,878.2,198,876.3z"/>
			<path d="M202.6,876.4c0-2.7,2.1-4.8,4.8-4.8c2.7,0,4.7,2.1,4.7,4.7c0,2.7-2.1,4.8-4.8,4.8C204.6,881.1,202.6,879,202.6,876.4z
				 M210.7,876.4c0-1.9-1.4-3.6-3.4-3.6c-2,0-3.4,1.6-3.4,3.6c0,1.9,1.4,3.6,3.4,3.6C209.3,879.9,210.7,878.3,210.7,876.4z"/>
			<path d="M222,875.6c0-1.6-0.8-2.8-2.6-2.8c-1.6,0-2.7,1.3-2.7,2.9v5.2h-1.3v-9.2h1.3v1.7c0.7-1.2,1.8-1.9,3.2-1.9
				c2.3,0,3.5,1.5,3.5,3.7v5.7H222V875.6z"/>
			<path d="M226.3,871.7c0.8-0.6,1.4-1.3,1.5-2.1c-0.1,0.1-0.3,0.1-0.4,0.1c-0.7,0-1.1-0.4-1.1-1.1c0-0.7,0.6-1.2,1.2-1.2
				c0.8,0,1.4,0.7,1.4,1.7v0.1c0,1.2-0.6,2.3-1.8,3.2L226.3,871.7z"/>
			<path d="M232.8,878.6V873h-1.7v-1.2h1.7v-2.7h1.3v2.7h2.3v1.2h-2.3v5.6c0,0.8,0.5,1.3,1.5,1.3c0.3,0,0.6,0,0.8-0.1v1.1
				c-0.3,0.1-0.8,0.1-1.1,0.1C233.4,881,232.8,879.9,232.8,878.6z"/>
			<path d="M246.6,881h-1.3v-14.1h1.3v8.6l4.4-3.7h1.9l-4.8,4.1l5.1,5.1h-1.9l-4.6-4.6h-0.1V881z"/>
			<path d="M262.2,875.6c0-1.6-0.8-2.8-2.6-2.8c-1.6,0-2.7,1.3-2.7,2.9v5.2h-1.3v-9.2h1.3v1.7c0.7-1.2,1.8-1.9,3.2-1.9
				c2.3,0,3.5,1.5,3.5,3.7v5.7h-1.3V875.6z"/>
			<path d="M266.6,876.4c0-2.7,2.1-4.8,4.8-4.8c2.7,0,4.7,2.1,4.7,4.7c0,2.7-2.1,4.8-4.8,4.8C268.7,881.1,266.6,879,266.6,876.4z
				 M274.8,876.4c0-1.9-1.4-3.6-3.4-3.6s-3.4,1.6-3.4,3.6c0,1.9,1.4,3.6,3.4,3.6C273.4,879.9,274.8,878.3,274.8,876.4z"/>
			<path d="M281.2,881l-3.1-9.2h1.4l2.4,7.6h0l2.5-7.6h1.3l2.5,7.7h0l2.4-7.7h1.4L289,881h-1.5l-2.4-7.5h0l-2.4,7.5H281.2z"/>
		</g>
	</g>
	<g>
		<g>
			<path d="M236.7,426.6v13.5h-1.5l-8.1-11.5v11.5h-1.4v-13.5h1.6l8,11.3v-11.3H236.7z"/>
			<path d="M240.2,435.6c0-2.7,2.1-4.8,4.8-4.8c2.7,0,4.7,2.1,4.7,4.7c0,2.7-2.1,4.8-4.8,4.8C242.3,440.3,240.2,438.2,240.2,435.6z
				 M248.4,435.6c0-1.9-1.4-3.6-3.4-3.6c-2,0-3.4,1.6-3.4,3.6c0,1.9,1.4,3.6,3.4,3.6C247,439.1,248.4,437.5,248.4,435.6z"/>
			<path d="M252.7,442.1c0.8-0.6,1.4-1.3,1.5-2.1c-0.1,0.1-0.3,0.1-0.4,0.1c-0.7,0-1.1-0.4-1.1-1.1c0-0.7,0.6-1.2,1.2-1.2
				c0.8,0,1.4,0.7,1.4,1.7v0.1c0,1.2-0.6,2.3-1.8,3.2L252.7,442.1z"/>
			<path d="M268.2,440.3c-1.7,0-2.8-0.9-3.6-2.1v1.9h-1.3v-14h1.3v6.8c0.8-1.2,1.8-2.1,3.6-2.1c2.6,0,4.3,2.3,4.3,4.7
				C272.5,438,270.8,440.3,268.2,440.3z M271.2,435.5c0-1.9-1.2-3.6-3.2-3.6c-1.9,0-3.3,1.7-3.3,3.5c0,1.9,1.3,3.6,3.3,3.6
				C270,439.1,271.2,437.5,271.2,435.5z"/>
			<path d="M277,436.3c0,1.6,0.8,2.8,2.6,2.8c1.6,0,2.7-1.3,2.7-2.9v-5.3h1.3v9.2h-1.3v-1.7c-0.7,1.3-1.8,1.9-3.2,1.9
				c-2.3,0-3.5-1.5-3.5-3.7v-5.7h1.3V436.3z"/>
			<path d="M288.2,437.7v-5.6h-1.7v-1.2h1.7v-2.7h1.3v2.7h2.3v1.2h-2.3v5.6c0,0.8,0.5,1.3,1.5,1.3c0.3,0,0.6,0,0.8-0.1v1.1
				c-0.3,0.1-0.8,0.1-1.1,0.1C288.8,440.2,288.2,439.1,288.2,437.7z"/>
			<path d="M232.8,460.8l-3.1-9.2h1.4l2.4,7.6h0l2.5-7.6h1.3l2.5,7.7h0l2.4-7.7h1.4l-3.1,9.2h-1.5l-2.4-7.5h0l-2.4,7.5H232.8z"/>
			<path d="M247.1,456.6c0.1,1.8,1.5,3.2,3.3,3.2c1.4,0,2.4-0.7,2.8-2l1.2,0.4c-0.6,1.8-2.2,2.8-4,2.8c-2.7,0-4.7-2.1-4.7-4.8
				c0-2.5,1.9-4.7,4.5-4.7c2.8,0,4.3,2,4.3,4.7c0,0.2,0,0.3,0,0.4H247.1z M253.2,455.5c-0.2-1.7-1.2-2.9-3-2.9
				c-1.6,0-2.9,1.3-3.1,2.9H253.2z"/>
			<path d="M265.4,460.8l-3.1-9.2h1.4l2.4,7.6h0l2.5-7.6h1.3l2.5,7.7h0l2.4-7.7h1.4l-3.1,9.2h-1.5l-2.4-7.5h0l-2.4,7.5H265.4z"/>
			<path d="M279.9,447.3c0.6,0,1,0.4,1,1c0,0.6-0.4,1-1,1c-0.6,0-1-0.4-1-1C278.8,447.7,279.3,447.3,279.9,447.3z M280.5,451.6v9.2
				h-1.4v-9.2H280.5z"/>
			<path d="M285.8,446.8v14.1h-1.4v-14.1H285.8z"/>
			<path d="M291.1,446.8v14.1h-1.4v-14.1H291.1z"/>
			<path d="M217.4,468c0.6,0,1,0.4,1,1c0,0.6-0.4,1-1,1c-0.6,0-1-0.4-1-1C216.4,468.4,216.8,468,217.4,468z M218,472.3v9.2h-1.4
				v-9.2H218z"/>
			<path d="M228.6,476.1c0-1.6-0.8-2.8-2.6-2.8c-1.6,0-2.7,1.3-2.7,2.9v5.2h-1.3v-9.2h1.3v1.7c0.7-1.2,1.8-1.9,3.2-1.9
				c2.3,0,3.5,1.5,3.5,3.7v5.7h-1.3V476.1z"/>
			<path d="M244.9,475.6c0-1.5-0.8-2.2-2.3-2.2c-1.6,0-2.3,1-2.4,1.9l-1.3-0.3c0.1-0.8,1.1-2.8,3.7-2.8c1.9,0,2.9,0.9,3.4,1.9
				c0.2,0.5,0.3,1.2,0.3,1.5v6h-1.3v-1.6h0c-0.7,1.1-1.7,1.8-3.1,1.8c-1.9,0-3.1-1.2-3.1-2.7v-0.1c0-2,2-2.7,3.6-2.7h2.6V475.6z
				 M242.4,477.3c-1,0-2.3,0.3-2.3,1.6c0,1,0.9,1.6,2,1.6c1.6,0,2.9-1.2,2.9-2.8v-0.3H242.4z"/>
			<path d="M258.3,480.9l-4.2-8.6h1.6l3.4,7.1l3.2-7.1h1.4l-6.3,13.7H256L258.3,480.9z"/>
			<path d="M266.8,477.3c0.1,1.8,1.5,3.2,3.3,3.2c1.4,0,2.4-0.7,2.8-2l1.2,0.4c-0.6,1.8-2.2,2.8-4,2.8c-2.7,0-4.7-2.1-4.7-4.8
				c0-2.5,1.9-4.7,4.5-4.7c2.8,0,4.3,2,4.3,4.7c0,0.2,0,0.3,0,0.4H266.8z M272.9,476.2c-0.2-1.7-1.2-2.9-3-2.9
				c-1.6,0-2.9,1.3-3.1,2.9H272.9z"/>
			<path d="M283,475.6c0-1.5-0.8-2.2-2.3-2.2c-1.6,0-2.3,1-2.4,1.9l-1.3-0.3c0.1-0.8,1.1-2.8,3.7-2.8c1.9,0,2.9,0.9,3.4,1.9
				c0.2,0.5,0.3,1.2,0.3,1.5v6H283v-1.6h0c-0.7,1.1-1.7,1.8-3.1,1.8c-1.9,0-3.1-1.2-3.1-2.7v-0.1c0-2,2-2.7,3.6-2.7h2.6V475.6z
				 M280.4,477.3c-1,0-2.3,0.3-2.3,1.6c0,1,0.9,1.6,2,1.6c1.6,0,2.9-1.2,2.9-2.8v-0.3H280.4z"/>
			<path d="M289.4,474.1c0.7-1.4,1.9-2,3-2c0.1,0,0.3,0,0.4,0v1.4c-0.2,0-0.3,0-0.5,0c-2.2,0-2.9,1.8-2.9,3.4v4.5h-1.3v-9.2h1.3
				V474.1z"/>
		</g>
	</g>
	<g>
		<g>
			<path d="M233.4,645.8v13.5h-1.5l-8.1-11.5v11.5h-1.4v-13.5h1.6l8,11.3v-11.3H233.4z"/>
			<path d="M237,654.8c0-2.7,2.1-4.8,4.8-4.8c2.7,0,4.7,2.1,4.7,4.7c0,2.7-2.1,4.8-4.8,4.8C239.1,659.5,237,657.4,237,654.8z
				 M245.1,654.8c0-1.9-1.4-3.6-3.4-3.6c-2,0-3.4,1.6-3.4,3.6c0,1.9,1.4,3.6,3.4,3.6C243.8,658.3,245.1,656.7,245.1,654.8z"/>
			<path d="M249.5,661.3c0.8-0.6,1.4-1.3,1.5-2.1c-0.1,0.1-0.3,0.1-0.4,0.1c-0.7,0-1.1-0.4-1.1-1.1c0-0.7,0.6-1.2,1.2-1.2
				c0.8,0,1.4,0.7,1.4,1.7v0.1c0,1.2-0.6,2.3-1.8,3.2L249.5,661.3z"/>
			<path d="M265.6,653.4c0-1.5-0.8-2.2-2.3-2.2c-1.6,0-2.3,1-2.4,1.9l-1.3-0.3c0.1-0.8,1.1-2.8,3.7-2.8c1.9,0,2.9,0.9,3.4,1.9
				c0.2,0.5,0.3,1.2,0.3,1.5v6h-1.3v-1.6h0c-0.7,1.1-1.7,1.8-3.1,1.8c-1.9,0-3.1-1.2-3.1-2.7v-0.1c0-2,2-2.7,3.6-2.7h2.6V653.4z
				 M263.1,655.1c-1,0-2.3,0.3-2.3,1.6c0,1,0.9,1.6,2,1.6c1.6,0,2.9-1.2,2.9-2.8v-0.3H263.1z"/>
			<path d="M277.4,654c0-1.6-0.8-2.8-2.6-2.8c-1.6,0-2.7,1.3-2.7,2.9v5.2h-1.3v-9.2h1.3v1.7c0.7-1.2,1.8-1.9,3.2-1.9
				c2.3,0,3.5,1.5,3.5,3.7v5.7h-1.3V654z"/>
			<path d="M286.1,650c1.8,0,2.8,1,3.6,2.1v-6.8h1.3v14h-1.3v-2c-0.7,1.2-1.8,2.1-3.6,2.1c-2.6,0-4.3-2.2-4.3-4.8
				C281.8,652.3,283.5,650,286.1,650z M289.7,654.7c0-1.8-1.4-3.5-3.3-3.5c-2,0-3.2,1.6-3.2,3.6c0,1.9,1.2,3.5,3.2,3.5
				C288.4,658.3,289.7,656.6,289.7,654.7z"/>
			<path d="M210.2,680l-3.1-9.2h1.4l2.4,7.6h0l2.5-7.6h1.3l2.5,7.7h0l2.4-7.7h1.4L218,680h-1.5l-2.4-7.5h0l-2.4,7.5H210.2z"/>
			<path d="M224.5,675.8c0.1,1.8,1.5,3.2,3.3,3.2c1.4,0,2.4-0.7,2.8-2l1.2,0.4c-0.6,1.8-2.2,2.8-4,2.8c-2.7,0-4.7-2.1-4.7-4.8
				c0-2.5,1.9-4.7,4.5-4.7c2.8,0,4.3,2,4.3,4.7c0,0.2,0,0.3,0,0.4H224.5z M230.6,674.7c-0.2-1.7-1.2-2.9-3-2.9
				c-1.6,0-2.9,1.3-3.1,2.9H230.6z"/>
			<path d="M234.2,670.8c0.8-0.6,1.4-1.3,1.5-2.1c-0.1,0.1-0.3,0.1-0.4,0.1c-0.7,0-1.1-0.4-1.1-1.1c0-0.7,0.6-1.2,1.2-1.2
				c0.8,0,1.4,0.7,1.4,1.7v0.1c0,1.2-0.6,2.3-1.8,3.2L234.2,670.8z"/>
			<path d="M241.1,672.6c0.7-1.4,1.9-2,3-2c0.1,0,0.3,0,0.4,0v1.4c-0.2,0-0.3,0-0.5,0c-2.2,0-2.9,1.8-2.9,3.4v4.5h-1.3v-9.2h1.3
				V672.6z"/>
			<path d="M247.5,675.8c0.1,1.8,1.5,3.2,3.3,3.2c1.4,0,2.4-0.7,2.8-2l1.2,0.4c-0.6,1.8-2.2,2.8-4,2.8c-2.7,0-4.7-2.1-4.7-4.8
				c0-2.5,1.9-4.7,4.5-4.7c2.8,0,4.3,2,4.3,4.7c0,0.2,0,0.3,0,0.4H247.5z M253.6,674.7c-0.2-1.7-1.2-2.9-3-2.9
				c-1.6,0-2.9,1.3-3.1,2.9H253.6z"/>
			<path d="M270.5,674.6c0-1.6-0.8-2.8-2.6-2.8c-1.6,0-2.7,1.3-2.7,2.9v5.2h-1.3v-9.2h1.3v1.7c0.7-1.2,1.8-1.9,3.2-1.9
				c2.3,0,3.5,1.5,3.5,3.7v5.7h-1.3V674.6z"/>
			<path d="M274.9,675.4c0-2.7,2.1-4.8,4.8-4.8c2.7,0,4.7,2.1,4.7,4.7c0,2.7-2.1,4.8-4.8,4.8C277,680.2,274.9,678.1,274.9,675.4z
				 M283.1,675.4c0-1.9-1.4-3.6-3.4-3.6c-2,0-3.4,1.6-3.4,3.6c0,1.9,1.4,3.6,3.4,3.6C281.7,679,283.1,677.4,283.1,675.4z"/>
			<path d="M288.2,677.6V672h-1.7v-1.2h1.7v-2.7h1.3v2.7h2.3v1.2h-2.3v5.6c0,0.8,0.5,1.3,1.5,1.3c0.3,0,0.6,0,0.8-0.1v1.1
				c-0.3,0.1-0.8,0.1-1.1,0.1C288.8,680.1,288.2,679,288.2,677.6z"/>
			<path d="M193.5,700.8c-1.7,0-2.8-0.9-3.6-2v6.4h-1.3v-13.7h1.3v2c0.7-1.2,1.8-2.2,3.6-2.2c2.6,0,4.3,2.3,4.3,4.7
				C197.8,698.6,196.1,700.8,193.5,700.8z M196.5,696.1c0-1.9-1.2-3.6-3.2-3.6c-1.9,0-3.3,1.7-3.3,3.5c0,1.9,1.3,3.6,3.3,3.6
				C195.3,699.6,196.5,698.1,196.5,696.1z"/>
			<path d="M202.4,686.6v14.1h-1.4v-14.1H202.4z"/>
			<path d="M211.9,694.8c0-1.5-0.8-2.2-2.3-2.2c-1.6,0-2.3,1-2.4,1.9l-1.3-0.3c0.1-0.8,1.1-2.8,3.7-2.8c1.9,0,2.9,0.9,3.4,1.9
				c0.2,0.5,0.3,1.2,0.3,1.5v6h-1.3v-1.6h0c-0.7,1.1-1.7,1.8-3.1,1.8c-1.9,0-3.1-1.2-3.1-2.7V698c0-2,2-2.7,3.6-2.7h2.6V694.8z
				 M209.3,696.5c-1,0-2.3,0.3-2.3,1.6c0,1,0.9,1.6,2,1.6c1.6,0,2.9-1.2,2.9-2.8v-0.3H209.3z"/>
			<path d="M223.6,695.3c0-1.6-0.8-2.8-2.6-2.8c-1.6,0-2.7,1.3-2.7,2.9v5.2H217v-9.2h1.3v1.7c0.7-1.2,1.8-1.9,3.2-1.9
				c2.3,0,3.5,1.5,3.5,3.7v5.7h-1.3V695.3z"/>
			<path d="M235.4,695.3c0-1.6-0.8-2.8-2.6-2.8c-1.6,0-2.7,1.3-2.7,2.9v5.2h-1.3v-9.2h1.3v1.7c0.7-1.2,1.8-1.9,3.2-1.9
				c2.3,0,3.5,1.5,3.5,3.7v5.7h-1.3V695.3z"/>
			<path d="M241.2,687.2c0.6,0,1,0.4,1,1c0,0.6-0.4,1-1,1c-0.6,0-1-0.4-1-1C240.2,687.6,240.6,687.2,241.2,687.2z M241.9,691.5v9.2
				h-1.4v-9.2H241.9z"/>
			<path d="M252.4,695.3c0-1.6-0.8-2.8-2.6-2.8c-1.6,0-2.7,1.3-2.7,2.9v5.2h-1.3v-9.2h1.3v1.7c0.7-1.2,1.8-1.9,3.2-1.9
				c2.3,0,3.5,1.5,3.5,3.7v5.7h-1.3V695.3z"/>
			<path d="M264.8,698.6c-0.7,1.2-1.8,2.1-3.6,2.1c-2.6,0-4.3-2.2-4.3-4.7c0-2.4,1.7-4.7,4.3-4.7c1.8,0,2.9,1,3.6,2.1v-1.9h1.3v9.2
				c0,3-1.8,4.6-4.6,4.6c-2.4,0-4.1-1.2-4.6-3.2l1.2-0.4c0.3,1.1,1.2,2.4,3.3,2.4c1.8,0,3.3-0.9,3.3-3.3V698.6z M264.8,696
				c0-1.8-1.4-3.5-3.3-3.5c-2,0-3.2,1.6-3.2,3.6c0,1.9,1.2,3.5,3.2,3.5C263.4,699.6,264.8,697.9,264.8,696z"/>
			<path d="M276.3,698.3v-5.6h-1.7v-1.2h1.7v-2.7h1.3v2.7h2.3v1.2h-2.3v5.6c0,0.8,0.5,1.3,1.5,1.3c0.3,0,0.6,0,0.8-0.1v1.1
				c-0.3,0.1-0.8,0.1-1.1,0.1C276.9,700.8,276.3,699.7,276.3,698.3z"/>
			<path d="M282.2,696.1c0-2.7,2.1-4.8,4.8-4.8c2.7,0,4.7,2.1,4.7,4.7c0,2.7-2.1,4.8-4.8,4.8C284.3,700.9,282.2,698.8,282.2,696.1z
				 M290.4,696.1c0-1.9-1.4-3.6-3.4-3.6s-3.4,1.6-3.4,3.6c0,1.9,1.4,3.6,3.4,3.6C289,699.7,290.4,698,290.4,696.1z"/>
		</g>
	</g>
	<g>
		<g>
			<path d="M321.2,60.3c0.9-1.4,2.6-1.9,3.7-1.9c2.8,0,4.5,2,4.5,4.3c0,3.1-2.4,4.6-4.8,4.6c-1.5,0-3.2-0.9-4-2.3
				c-0.7-1.2-0.8-2.1-0.8-3.7c0-4.3,2.3-7.8,6.6-7.8c0.8,0,1.9,0.1,2.8,0.6l-0.5,1.3c-0.7-0.4-1.7-0.6-2.2-0.6
				C323.2,54.8,321.5,57.3,321.2,60.3z M322.4,60.4c-0.7,0.6-1.1,1.4-1.1,2.3c0,2,1.7,3.2,3.3,3.2c1.7,0,3.3-1.1,3.3-3.2
				c0-1.7-1.3-3.1-3.3-3.1C323.9,59.6,323.1,59.9,322.4,60.4z"/>
			<path d="M340.8,66.4V77h-2.4V53.8h2.4V64H354V53.8h2.4V77H354V66.4H340.8z"/>
			<path d="M371.8,66.8c0-2.5-1.4-3.8-4-3.8c-2.7,0-3.9,1.7-4.1,3.2l-2.2-0.5c0.1-1.3,1.9-4.8,6.4-4.8c3.3,0,5,1.5,5.8,3.3
				c0.4,0.9,0.5,2.1,0.5,2.6V77h-2.2v-2.8h0c-1.2,2-3,3-5.3,3c-3.2,0-5.3-2-5.3-4.6v-0.2c0-3.4,3.4-4.6,6.2-4.6h4.4V66.8z
				 M367.4,69.8c-1.7,0-3.9,0.5-3.9,2.7c0,1.8,1.5,2.8,3.4,2.8c2.8,0,4.9-2,4.9-4.9v-0.6H367.4z"/>
			<path d="M376.7,61.2h2.5l5.4,13.2l5.5-13.2h2.5L385.9,77h-2.5L376.7,61.2z"/>
			<path d="M396.5,69.8c0.2,3.1,2.6,5.4,5.6,5.4c2.3,0,4.1-1.2,4.9-3.4l2.1,0.7c-0.9,3-3.8,4.8-6.9,4.8c-4.6,0-8-3.6-8-8.2
				c0-4.3,3.3-8.1,7.7-8.1c4.9,0,7.4,3.5,7.4,8.1c0,0.3,0,0.5,0,0.8H396.5z M407,67.8c-0.3-2.9-2.1-4.9-5.1-4.9
				c-2.7,0-4.9,2.3-5.3,4.9H407z"/>
			<path d="M426,75.9l-7.2-14.7h2.7l5.8,12.2l5.5-12.2h2.5l-10.8,23.6h-2.5L426,75.9z"/>
			<path d="M436.7,69.1c0-4.7,3.5-8.2,8.2-8.2c4.6,0,8.1,3.6,8.1,8.1c0,4.7-3.6,8.2-8.2,8.2C440.2,77.2,436.7,73.6,436.7,69.1z
				 M450.6,69.1c0-3.3-2.4-6.2-5.8-6.2c-3.4,0-5.8,2.8-5.8,6.1c0,3.3,2.4,6.2,5.8,6.2C448.2,75.2,450.6,72.4,450.6,69.1z"/>
			<path d="M459.1,70.4c0,2.8,1.4,4.8,4.4,4.8c2.7,0,4.7-2.2,4.7-5v-9h2.3V77h-2.2v-2.9c-1.2,2.2-3.1,3.2-5.4,3.2
				c-3.9,0-6-2.6-6-6.3v-9.8h2.3V70.4z"/>
			<path d="M485,72.9v-9.7h-2.9v-2h2.9v-4.6h2.3v4.6h4v2h-4v9.6c0,1.4,0.8,2.2,2.6,2.2c0.5,0,1.1,0,1.4-0.1v1.9
				c-0.5,0.1-1.4,0.2-1.8,0.2C486.1,77.1,485,75.2,485,72.9z"/>
			<path d="M496,69.8c0.2,3.1,2.6,5.4,5.6,5.4c2.3,0,4.1-1.2,4.9-3.4l2.1,0.7c-0.9,3-3.8,4.8-6.9,4.8c-4.6,0-8-3.6-8-8.2
				c0-4.3,3.3-8.1,7.7-8.1c4.9,0,7.4,3.5,7.4,8.1c0,0.3,0,0.5,0,0.8H496z M506.5,67.8c-0.3-2.9-2.1-4.9-5.1-4.9
				c-2.7,0-4.9,2.3-5.3,4.9H506.5z"/>
			<path d="M517.6,77.2c-4.3,0-5.7-2.9-6-4.7l2.1-0.5c0.3,1.4,1.4,3.1,3.8,3.1c1.7,0,3.3-0.9,3.3-2.6c0-1.9-2.1-2.4-3.7-2.6
				c-2.6-0.4-5.2-1.3-5.2-4.4c0-3,2.7-4.7,5.3-4.7c4.2,0,5.5,2.8,5.7,4.3l-2.1,0.5c-0.3-1.1-1.1-2.8-3.6-2.8c-1.7,0-3,1.2-3,2.5
				c0,2,2.1,2.3,3.8,2.5c2.6,0.3,5.2,1.7,5.2,4.6C523.2,75.4,520.7,77.2,517.6,77.2z"/>
			<path d="M528.2,72.9v-9.7h-2.9v-2h2.9v-4.6h2.3v4.6h4v2h-4v9.6c0,1.4,0.8,2.2,2.6,2.2c0.5,0,1.1,0,1.4-0.1v1.9
				c-0.5,0.1-1.4,0.2-1.8,0.2C529.2,77.1,528.2,75.2,528.2,72.9z"/>
			<path d="M539.2,69.8c0.2,3.1,2.6,5.4,5.6,5.4c2.3,0,4.1-1.2,4.9-3.4l2.1,0.7c-0.9,3-3.8,4.8-6.9,4.8c-4.6,0-8-3.6-8-8.2
				c0-4.3,3.3-8.1,7.7-8.1c4.9,0,7.4,3.5,7.4,8.1c0,0.3,0,0.5,0,0.8H539.2z M549.7,67.8c-0.3-2.9-2.1-4.9-5.1-4.9
				c-2.7,0-4.9,2.3-5.3,4.9H549.7z"/>
			<path d="M562.2,60.9c3,0,4.8,1.7,6.1,3.6V52.9h2.3V77h-2.2v-3.4c-1.2,2-3.1,3.6-6.1,3.6c-4.5,0-7.4-3.8-7.4-8.2
				C554.8,64.9,557.8,60.9,562.2,60.9z M568.4,69c0-3.1-2.4-6.1-5.7-6.1c-3.5,0-5.5,2.7-5.5,6.1c0,3.3,2.1,6.1,5.5,6.1
				C566,75.2,568.4,72.3,568.4,69z"/>
			<path d="M588.6,75.9l-7.2-14.7h2.7l5.8,12.2l5.5-12.2h2.5L587,84.7h-2.5L588.6,75.9z"/>
			<path d="M599.3,69.1c0-4.7,3.5-8.2,8.2-8.2c4.6,0,8.1,3.6,8.1,8.1c0,4.7-3.6,8.2-8.2,8.2C602.8,77.2,599.3,73.6,599.3,69.1z
				 M613.2,69.1c0-3.3-2.4-6.2-5.8-6.2c-3.4,0-5.8,2.8-5.8,6.1c0,3.3,2.4,6.2,5.8,6.2C610.8,75.2,613.2,72.4,613.2,69.1z"/>
			<path d="M621.7,70.4c0,2.8,1.4,4.8,4.4,4.8c2.7,0,4.7-2.2,4.7-5v-9h2.3V77h-2.2v-2.9c-1.2,2.2-3.1,3.2-5.4,3.2
				c-3.9,0-6-2.6-6-6.3v-9.8h2.3V70.4z"/>
			<path d="M640.6,64.3c1.2-2.5,3.3-3.4,5.1-3.4c0.1,0,0.6,0,0.8,0v2.5c-0.3,0-0.6-0.1-0.9-0.1c-3.7,0-4.9,3.1-4.9,5.9V77h-2.3V61.2
				h2.3V64.3z"/>
			<path d="M663.2,60.9c3,0,4.8,1.7,6.1,3.6V52.9h2.3V77h-2.2v-3.4c-1.2,2-3.1,3.6-6.1,3.6c-4.5,0-7.4-3.8-7.4-8.2
				C655.8,64.9,658.7,60.9,663.2,60.9z M669.3,69c0-3.1-2.4-6.1-5.7-6.1c-3.5,0-5.5,2.7-5.5,6.1c0,3.3,2.1,6.1,5.5,6.1
				C667,75.2,669.3,72.3,669.3,69z"/>
			<path d="M677.9,53.8c1,0,1.7,0.8,1.7,1.7c0,0.9-0.8,1.7-1.7,1.7c-0.9,0-1.7-0.8-1.7-1.7C676.2,54.6,677,53.8,677.9,53.8z
				 M679.1,61.2V77h-2.3V61.2H679.1z"/>
			<path d="M689.1,77.2c-4.3,0-5.7-2.9-6-4.7l2.1-0.5c0.3,1.4,1.4,3.1,3.8,3.1c1.7,0,3.3-0.9,3.3-2.6c0-1.9-2.1-2.4-3.7-2.6
				c-2.6-0.4-5.2-1.3-5.2-4.4c0-3,2.7-4.7,5.3-4.7c4.2,0,5.5,2.8,5.7,4.3l-2.1,0.5c-0.3-1.1-1.1-2.8-3.6-2.8c-1.7,0-3,1.2-3,2.5
				c0,2,2.1,2.3,3.8,2.5c2.6,0.3,5.2,1.7,5.2,4.6C694.7,75.4,692.2,77.2,689.1,77.2z"/>
			<path d="M708.3,66.8c0-2.5-1.4-3.8-4-3.8c-2.7,0-3.9,1.7-4.1,3.2l-2.2-0.5c0.1-1.3,1.9-4.8,6.4-4.8c3.3,0,5,1.5,5.8,3.3
				c0.4,0.9,0.5,2.1,0.5,2.6V77h-2.2v-2.8h0c-1.2,2-3,3-5.3,3c-3.2,0-5.3-2-5.3-4.6v-0.2c0-3.4,3.4-4.6,6.2-4.6h4.4V66.8z
				 M703.9,69.8c-1.7,0-3.9,0.5-3.9,2.7c0,1.8,1.5,2.8,3.4,2.8c2.8,0,4.9-2,4.9-4.9v-0.6H703.9z"/>
			<path d="M720.4,77.2c-4.3,0-5.7-2.9-6-4.7l2.1-0.5c0.3,1.4,1.4,3.1,3.8,3.1c1.7,0,3.3-0.9,3.3-2.6c0-1.9-2.1-2.4-3.7-2.6
				c-2.6-0.4-5.2-1.3-5.2-4.4c0-3,2.7-4.7,5.3-4.7c4.2,0,5.5,2.8,5.7,4.3l-2.1,0.5c-0.3-1.1-1.1-2.8-3.6-2.8c-1.7,0-3,1.2-3,2.5
				c0,2,2.1,2.3,3.8,2.5c2.6,0.3,5.2,1.7,5.2,4.6C726,75.4,723.5,77.2,720.4,77.2z"/>
			<path d="M731,72.9v-9.7h-2.9v-2h2.9v-4.6h2.3v4.6h4v2h-4v9.6c0,1.4,0.8,2.2,2.6,2.2c0.5,0,1.1,0,1.4-0.1v1.9
				c-0.5,0.1-1.4,0.2-1.8,0.2C732,77.1,731,75.2,731,72.9z"/>
			<path d="M742,69.8c0.2,3.1,2.6,5.4,5.6,5.4c2.3,0,4.1-1.2,4.9-3.4l2.1,0.7c-0.9,3-3.8,4.8-6.9,4.8c-4.6,0-8-3.6-8-8.2
				c0-4.3,3.3-8.1,7.7-8.1c4.9,0,7.4,3.5,7.4,8.1c0,0.3,0,0.5,0,0.8H742z M752.5,67.8c-0.3-2.9-2.1-4.9-5.1-4.9
				c-2.7,0-4.9,2.3-5.3,4.9H752.5z"/>
			<path d="M761,64.3c1.2-2.5,3.3-3.4,5.1-3.4c0.1,0,0.6,0,0.8,0v2.5c-0.3,0-0.6-0.1-0.9-0.1c-3.7,0-4.9,3.1-4.9,5.9V77h-2.3V61.2
				h2.3V64.3z"/>
			<path d="M779.6,64.3c1.2-2.5,3.3-3.4,5.1-3.4c0.1,0,0.6,0,0.8,0v2.5c-0.3,0-0.6-0.1-0.9-0.1c-3.7,0-4.9,3.1-4.9,5.9V77h-2.3V61.2
				h2.3V64.3z"/>
			<path d="M789.2,69.8c0.2,3.1,2.6,5.4,5.6,5.4c2.3,0,4.1-1.2,4.9-3.4l2.1,0.7c-0.9,3-3.8,4.8-6.9,4.8c-4.6,0-8-3.6-8-8.2
				c0-4.3,3.3-8.1,7.7-8.1c4.9,0,7.4,3.5,7.4,8.1c0,0.3,0,0.5,0,0.8H789.2z M799.7,67.8c-0.3-2.9-2.1-4.9-5.1-4.9
				c-2.7,0-4.9,2.3-5.3,4.9H799.7z"/>
			<path d="M812.9,75.2c3.5,0,4.8-2.6,5.3-3.8l2.2,0.7c-0.7,2.4-3.3,5.1-7.4,5.1c-4.6,0-8-3.4-8-8.1c0-4.8,3.7-8.2,8.2-8.2
				c3.7,0,6.6,2.4,7.2,5l-2.1,0.7c-0.4-1.2-1.9-3.7-5.2-3.7c-3.4,0-5.7,2.7-5.7,6C807.2,72.3,809.3,75.2,812.9,75.2z"/>
			<path d="M823,69.1c0-4.7,3.5-8.2,8.2-8.2c4.6,0,8.1,3.6,8.1,8.1c0,4.7-3.6,8.2-8.2,8.2C826.5,77.2,823,73.6,823,69.1z
				 M836.9,69.1c0-3.3-2.4-6.2-5.8-6.2s-5.8,2.8-5.8,6.1c0,3.3,2.4,6.2,5.8,6.2C834.6,75.2,836.9,72.4,836.9,69.1z"/>
			<path d="M840.9,61.2h2.5l5.4,13.2l5.5-13.2h2.5L850,77h-2.5L840.9,61.2z"/>
			<path d="M860.7,69.8c0.2,3.1,2.6,5.4,5.6,5.4c2.3,0,4.1-1.2,4.9-3.4l2.1,0.7c-0.9,3-3.8,4.8-6.9,4.8c-4.6,0-8-3.6-8-8.2
				c0-4.3,3.3-8.1,7.7-8.1c4.9,0,7.4,3.5,7.4,8.1c0,0.3,0,0.5,0,0.8H860.7z M871.1,67.8c-0.3-2.9-2.1-4.9-5.1-4.9
				c-2.7,0-4.9,2.3-5.3,4.9H871.1z"/>
			<path d="M879.7,64.3c1.2-2.5,3.3-3.4,5.1-3.4c0.1,0,0.6,0,0.8,0v2.5c-0.3,0-0.6-0.1-0.9-0.1c-3.7,0-4.9,3.1-4.9,5.9V77h-2.3V61.2
				h2.3V64.3z"/>
			<path d="M893.9,75.9l-7.2-14.7h2.7l5.8,12.2l5.5-12.2h2.5l-10.8,23.6h-2.5L893.9,75.9z"/>
			<path d="M347,112.7c-2.9,0-4.8-1.5-6.1-3.5v11h-2.3V96.6h2.3v3.4c1.3-2,3.1-3.7,6.1-3.7c4.5,0,7.4,4,7.4,8.1
				C354.4,108.8,351.5,112.7,347,112.7z M352,104.6c0-3.3-2-6.1-5.5-6.1c-3.3,0-5.6,2.9-5.6,6.1c0,3.3,2.3,6.1,5.6,6.1
				C350,110.6,352,107.9,352,104.6z"/>
			<path d="M360.8,99.8c1.2-2.5,3.3-3.4,5.1-3.4c0.1,0,0.6,0,0.8,0v2.5c-0.3,0-0.6-0.1-0.9-0.1c-3.7,0-4.9,3.1-4.9,5.9v7.7h-2.3
				V96.6h2.3V99.8z"/>
			<path d="M368,104.6c0-4.7,3.5-8.2,8.2-8.2c4.6,0,8.1,3.6,8.1,8.1c0,4.7-3.6,8.2-8.2,8.2C371.5,112.7,368,109.1,368,104.6z
				 M381.9,104.6c0-3.3-2.4-6.2-5.8-6.2c-3.4,0-5.8,2.8-5.8,6.1c0,3.3,2.4,6.2,5.8,6.2C379.6,110.7,381.9,107.9,381.9,104.6z"/>
			<path d="M395.3,110.7c3.5,0,4.8-2.6,5.3-3.8l2.2,0.7c-0.7,2.4-3.3,5.1-7.4,5.1c-4.6,0-8-3.4-8-8.1c0-4.8,3.7-8.2,8.2-8.2
				c3.7,0,6.6,2.4,7.2,5l-2.1,0.7c-0.4-1.2-1.9-3.7-5.2-3.7c-3.4,0-5.7,2.7-5.7,6S391.7,110.7,395.3,110.7z"/>
			<path d="M407.7,105.3c0.2,3.1,2.6,5.4,5.6,5.4c2.3,0,4.1-1.2,4.9-3.4l2.1,0.7c-0.9,3-3.8,4.8-6.9,4.8c-4.6,0-8-3.6-8-8.2
				c0-4.3,3.3-8.1,7.7-8.1c4.9,0,7.4,3.5,7.4,8.1c0,0.3,0,0.5,0,0.8H407.7z M418.2,103.3c-0.3-2.9-2.1-4.9-5.1-4.9
				c-2.7,0-4.9,2.3-5.3,4.9H418.2z"/>
			<path d="M429.3,112.7c-4.3,0-5.7-2.9-6-4.7l2.1-0.5c0.3,1.4,1.4,3.1,3.8,3.1c1.7,0,3.3-0.9,3.3-2.6c0-1.9-2.1-2.4-3.7-2.6
				c-2.6-0.4-5.2-1.3-5.2-4.4c0-3,2.7-4.7,5.3-4.7c4.2,0,5.5,2.8,5.7,4.3l-2.1,0.5c-0.3-1.1-1.1-2.8-3.6-2.8c-1.7,0-3,1.2-3,2.5
				c0,2,2.1,2.3,3.8,2.5c2.6,0.3,5.2,1.7,5.2,4.6C434.9,110.8,432.3,112.7,429.3,112.7z"/>
			<path d="M443.8,112.7c-4.3,0-5.7-2.9-6-4.7l2.1-0.5c0.3,1.4,1.4,3.1,3.8,3.1c1.7,0,3.3-0.9,3.3-2.6c0-1.9-2.1-2.4-3.7-2.6
				c-2.6-0.4-5.2-1.3-5.2-4.4c0-3,2.7-4.7,5.3-4.7c4.2,0,5.5,2.8,5.7,4.3l-2.1,0.5c-0.3-1.1-1.1-2.8-3.6-2.8c-1.7,0-3,1.2-3,2.5
				c0,2,2.1,2.3,3.8,2.5c2.6,0.3,5.2,1.7,5.2,4.6C449.4,110.8,446.9,112.7,443.8,112.7z"/>
			<path d="M454.7,105.3c0.2,3.1,2.6,5.4,5.6,5.4c2.3,0,4.1-1.2,4.9-3.4l2.1,0.7c-0.9,3-3.8,4.8-6.9,4.8c-4.6,0-8-3.6-8-8.2
				c0-4.3,3.3-8.1,7.7-8.1c4.9,0,7.4,3.5,7.4,8.1c0,0.3,0,0.5,0,0.8H454.7z M465.2,103.3c-0.3-2.9-2.1-4.9-5.1-4.9
				c-2.7,0-4.9,2.3-5.3,4.9H465.2z"/>
			<path d="M476.3,112.7c-4.3,0-5.7-2.9-6-4.7l2.1-0.5c0.3,1.4,1.4,3.1,3.8,3.1c1.7,0,3.3-0.9,3.3-2.6c0-1.9-2.1-2.4-3.7-2.6
				c-2.6-0.4-5.2-1.3-5.2-4.4c0-3,2.7-4.7,5.3-4.7c4.2,0,5.5,2.8,5.7,4.3l-2.1,0.5c-0.3-1.1-1.1-2.8-3.6-2.8c-1.7,0-3,1.2-3,2.5
				c0,2,2.1,2.3,3.8,2.5c2.6,0.3,5.2,1.7,5.2,4.6C481.8,110.8,479.3,112.7,476.3,112.7z"/>
			<path d="M495.4,89.3c1,0,1.7,0.8,1.7,1.7c0,0.9-0.8,1.7-1.7,1.7c-0.9,0-1.7-0.8-1.7-1.7C493.6,90,494.4,89.3,495.4,89.3z
				 M496.5,96.6v15.8h-2.3V96.6H496.5z"/>
			<path d="M513.1,103.2c0-2.8-1.4-4.8-4.4-4.8c-2.7,0-4.7,2.2-4.7,5v9h-2.3V96.6h2.3v2.9c1.2-2.1,3.1-3.2,5.4-3.2
				c3.9,0,6,2.6,6,6.3v9.8h-2.3V103.2z"/>
			<path d="M529.7,108.4v-9.7h-2.9v-2h2.9v-4.6h2.3v4.6h4v2h-4v9.6c0,1.4,0.8,2.2,2.6,2.2c0.5,0,1.1,0,1.4-0.1v1.9
				c-0.5,0.1-1.4,0.2-1.8,0.2C530.8,112.6,529.7,110.7,529.7,108.4z"/>
			<path d="M551.3,103.2c0-2.8-1.4-4.8-4.4-4.8c-2.7,0-4.7,2.2-4.7,5v9h-2.3V88.4h2.3v11.1c1.2-2.1,3.1-3.1,5.4-3.1
				c3.9,0,6,2.6,6,6.3v9.8h-2.3V103.2z"/>
			<path d="M559.8,105.3c0.2,3.1,2.6,5.4,5.6,5.4c2.3,0,4.1-1.2,4.9-3.4l2.1,0.7c-0.9,3-3.8,4.8-6.9,4.8c-4.6,0-8-3.6-8-8.2
				c0-4.3,3.3-8.1,7.7-8.1c4.9,0,7.4,3.5,7.4,8.1c0,0.3,0,0.5,0,0.8H559.8z M570.2,103.3c-0.3-2.9-2.1-4.9-5.1-4.9
				c-2.7,0-4.9,2.3-5.3,4.9H570.2z"/>
			<path d="M587.1,88.3v24.1h-2.3V88.3H587.1z"/>
			<path d="M601.8,102.3c0-2.5-1.4-3.8-4-3.8c-2.7,0-3.9,1.7-4.1,3.2l-2.2-0.5c0.1-1.3,1.9-4.8,6.4-4.8c3.3,0,5,1.5,5.8,3.3
				c0.4,0.9,0.5,2.1,0.5,2.6v10.2h-2.2v-2.8h0c-1.2,2-3,3-5.3,3c-3.2,0-5.3-2-5.3-4.6v-0.2c0-3.4,3.4-4.6,6.2-4.6h4.4V102.3z
				 M597.4,105.2c-1.7,0-3.9,0.5-3.9,2.7c0,1.8,1.5,2.8,3.4,2.8c2.8,0,4.9-2,4.9-4.9v-0.6H597.4z"/>
			<path d="M613.9,112.7c-4.3,0-5.7-2.9-6-4.7l2.1-0.5c0.3,1.4,1.4,3.1,3.8,3.1c1.7,0,3.3-0.9,3.3-2.6c0-1.9-2.1-2.4-3.7-2.6
				c-2.6-0.4-5.2-1.3-5.2-4.4c0-3,2.7-4.7,5.3-4.7c4.2,0,5.5,2.8,5.7,4.3l-2.1,0.5c-0.3-1.1-1.1-2.8-3.6-2.8c-1.7,0-3,1.2-3,2.5
				c0,2,2.1,2.3,3.8,2.5c2.6,0.3,5.2,1.7,5.2,4.6C619.5,110.8,616.9,112.7,613.9,112.7z"/>
			<path d="M624.5,108.4v-9.7h-2.9v-2h2.9v-4.6h2.3v4.6h4v2h-4v9.6c0,1.4,0.8,2.2,2.6,2.2c0.5,0,1.1,0,1.4-0.1v1.9
				c-0.5,0.1-1.4,0.2-1.8,0.2C625.5,112.6,624.5,110.7,624.5,108.4z"/>
			<path d="M647.4,111.4l-7.2-14.7h2.7l5.8,12.2l5.5-12.2h2.5l-10.8,23.6h-2.5L647.4,111.4z"/>
			<path d="M660.4,105.3c0.2,3.1,2.6,5.4,5.6,5.4c2.3,0,4.1-1.2,4.9-3.4l2.1,0.7c-0.9,3-3.8,4.8-6.9,4.8c-4.6,0-8-3.6-8-8.2
				c0-4.3,3.3-8.1,7.7-8.1c4.9,0,7.4,3.5,7.4,8.1c0,0.3,0,0.5,0,0.8H660.4z M670.8,103.3c-0.3-2.9-2.1-4.9-5.1-4.9
				c-2.7,0-4.9,2.3-5.3,4.9H670.8z"/>
			<path d="M686.6,102.3c0-2.5-1.4-3.8-4-3.8c-2.7,0-3.9,1.7-4.1,3.2l-2.2-0.5c0.1-1.3,1.9-4.8,6.4-4.8c3.3,0,5,1.5,5.8,3.3
				c0.4,0.9,0.5,2.1,0.5,2.6v10.2h-2.2v-2.8h0c-1.2,2-3,3-5.3,3c-3.2,0-5.3-2-5.3-4.6v-0.2c0-3.4,3.4-4.6,6.2-4.6h4.4V102.3z
				 M682.2,105.2c-1.7,0-3.9,0.5-3.9,2.7c0,1.8,1.5,2.8,3.4,2.8c2.8,0,4.9-2,4.9-4.9v-0.6H682.2z"/>
			<path d="M696.2,99.8c1.2-2.5,3.3-3.4,5.1-3.4c0.1,0,0.6,0,0.8,0v2.5c-0.3,0-0.6-0.1-0.9-0.1c-3.7,0-4.9,3.1-4.9,5.9v7.7h-2.3
				V96.6h2.3V99.8z"/>
			<path d="M709,105.7c0-0.2,0-0.4,0-0.5c0-2.7,1.7-4.1,3-5.4c1.3-1.4,2.9-2.7,2.9-4.7c0-1.9-1.3-3.8-4.3-3.8c-3,0-4.6,2.2-4.4,5
				l-2.4-0.1c0-0.2,0-0.4,0-0.7c0-3.8,3.2-6.5,6.8-6.5c4.1,0,6.8,2.9,6.8,6.1c0,2.3-1.4,3.8-3.5,5.9c-1.5,1.5-2.6,2.5-2.6,4.8H709z
				 M710.1,112.7c1,0,1.7-0.8,1.7-1.7c0-0.9-0.7-1.7-1.7-1.7c-0.9,0-1.7,0.8-1.7,1.7C708.3,111.9,709.1,112.7,710.1,112.7z"/>
		</g>
	</g>
</g>
</svg>
