<?xml version="1.0" encoding="utf-8"?>
<!-- Generator: Adobe Illustrator 21.1.0, SVG Export Plug-In . SVG Version: 6.00 Build 0)  -->
<svg version="1.1" id="Layer_1" xmlns="http://www.w3.org/2000/svg" xmlns:xlink="http://www.w3.org/1999/xlink" x="0px" y="0px"
	 viewBox="0 0 1500 1053" style="enable-background:new 0 0 1500 1053;" xml:space="preserve">
<style type="text/css">
	.st0{fill:none;}
	.st1{fill:none;stroke:#000000;stroke-width:2;stroke-linecap:round;stroke-miterlimit:10;}
	.st2{fill:none;stroke:#000000;stroke-width:2;stroke-linecap:round;stroke-miterlimit:10;stroke-dasharray:0,10;}
	.st3{opacity:0.2;}
	.st4{fill:url(#SVGID_1_);}
	.st5{fill:url(#SVGID_2_);}
	.st6{opacity:0.73;fill:#37C0AA;}
	.st7{opacity:0.2;fill:#37C0AA;}
	.st8{opacity:0.73;}
	.st9{fill:url(#SVGID_3_);}
	.st10{fill:url(#SVGID_4_);}
	.st11{fill:#F6F6F8;}
	.st12{fill:#FFC940;}
	.st13{fill:#37C0AA;}
	.st14{fill:#FFFFFF;}
	.st15{fill:none;stroke:#000000;stroke-width:0.75;stroke-miterlimit:10;}
</style>
<pattern  y="1053" width="240" height="240" patternUnits="userSpaceOnUse" id="Unnamed_Pattern_2" viewBox="1 -241 240 240" style="overflow:visible;">
	<g>
		<rect x="1" y="-241" class="st0" width="240" height="240"/>
		<g>
			<g>
				<line class="st1" x1="241" y1="-1" x2="241" y2="-1"/>
			</g>
		</g>
		<g>
			<g>
				<line class="st1" x1="1" y1="-1" x2="1" y2="-1"/>
				<line class="st2" x1="11" y1="-1" x2="236" y2="-1"/>
				<line class="st1" x1="241" y1="-1" x2="241" y2="-1"/>
			</g>
		</g>
		<g>
			<g>
				<line class="st1" x1="1" y1="-1" x2="1" y2="-1"/>
			</g>
		</g>
		<g>
			<g>
				<line class="st1" x1="241" y1="-241" x2="241" y2="-241"/>
			</g>
			<g>
				<line class="st1" x1="241" y1="-231" x2="241" y2="-231"/>
			</g>
			<g>
				<line class="st1" x1="241" y1="-221" x2="241" y2="-221"/>
			</g>
			<g>
				<line class="st1" x1="241" y1="-211" x2="241" y2="-211"/>
			</g>
			<g>
				<line class="st1" x1="241" y1="-201" x2="241" y2="-201"/>
			</g>
			<g>
				<line class="st1" x1="241" y1="-191" x2="241" y2="-191"/>
			</g>
			<g>
				<line class="st1" x1="241" y1="-181" x2="241" y2="-181"/>
			</g>
			<g>
				<line class="st1" x1="241" y1="-171" x2="241" y2="-171"/>
			</g>
			<g>
				<line class="st1" x1="241" y1="-161" x2="241" y2="-161"/>
			</g>
			<g>
				<line class="st1" x1="241" y1="-151" x2="241" y2="-151"/>
			</g>
			<g>
				<line class="st1" x1="241" y1="-141" x2="241" y2="-141"/>
			</g>
			<g>
				<line class="st1" x1="241" y1="-131" x2="241" y2="-131"/>
			</g>
			<g>
				<line class="st1" x1="241" y1="-121" x2="241" y2="-121"/>
			</g>
			<g>
				<line class="st1" x1="241" y1="-111" x2="241" y2="-111"/>
			</g>
			<g>
				<line class="st1" x1="241" y1="-101" x2="241" y2="-101"/>
			</g>
			<g>
				<line class="st1" x1="241" y1="-91" x2="241" y2="-91"/>
			</g>
			<g>
				<line class="st1" x1="241" y1="-81" x2="241" y2="-81"/>
			</g>
			<g>
				<line class="st1" x1="241" y1="-71" x2="241" y2="-71"/>
			</g>
			<g>
				<line class="st1" x1="241" y1="-61" x2="241" y2="-61"/>
			</g>
			<g>
				<line class="st1" x1="241" y1="-51" x2="241" y2="-51"/>
			</g>
			<g>
				<line class="st1" x1="241" y1="-41" x2="241" y2="-41"/>
			</g>
			<g>
				<line class="st1" x1="241" y1="-31" x2="241" y2="-31"/>
			</g>
			<g>
				<line class="st1" x1="241" y1="-21" x2="241" y2="-21"/>
			</g>
			<g>
				<line class="st1" x1="241" y1="-11" x2="241" y2="-11"/>
			</g>
			<g>
				<line class="st1" x1="241" y1="-1" x2="241" y2="-1"/>
			</g>
		</g>
		<g>
			<g>
				<line class="st1" x1="1" y1="-241" x2="1" y2="-241"/>
				<line class="st2" x1="11" y1="-241" x2="236" y2="-241"/>
				<line class="st1" x1="241" y1="-241" x2="241" y2="-241"/>
			</g>
			<g>
				<line class="st1" x1="1" y1="-231" x2="1" y2="-231"/>
				<line class="st2" x1="11" y1="-231" x2="236" y2="-231"/>
				<line class="st1" x1="241" y1="-231" x2="241" y2="-231"/>
			</g>
			<g>
				<line class="st1" x1="1" y1="-221" x2="1" y2="-221"/>
				<line class="st2" x1="11" y1="-221" x2="236" y2="-221"/>
				<line class="st1" x1="241" y1="-221" x2="241" y2="-221"/>
			</g>
			<g>
				<line class="st1" x1="1" y1="-211" x2="1" y2="-211"/>
				<line class="st2" x1="11" y1="-211" x2="236" y2="-211"/>
				<line class="st1" x1="241" y1="-211" x2="241" y2="-211"/>
			</g>
			<g>
				<line class="st1" x1="1" y1="-201" x2="1" y2="-201"/>
				<line class="st2" x1="11" y1="-201" x2="236" y2="-201"/>
				<line class="st1" x1="241" y1="-201" x2="241" y2="-201"/>
			</g>
			<g>
				<line class="st1" x1="1" y1="-191" x2="1" y2="-191"/>
				<line class="st2" x1="11" y1="-191" x2="236" y2="-191"/>
				<line class="st1" x1="241" y1="-191" x2="241" y2="-191"/>
			</g>
			<g>
				<line class="st1" x1="1" y1="-181" x2="1" y2="-181"/>
				<line class="st2" x1="11" y1="-181" x2="236" y2="-181"/>
				<line class="st1" x1="241" y1="-181" x2="241" y2="-181"/>
			</g>
			<g>
				<line class="st1" x1="1" y1="-171" x2="1" y2="-171"/>
				<line class="st2" x1="11" y1="-171" x2="236" y2="-171"/>
				<line class="st1" x1="241" y1="-171" x2="241" y2="-171"/>
			</g>
			<g>
				<line class="st1" x1="1" y1="-161" x2="1" y2="-161"/>
				<line class="st2" x1="11" y1="-161" x2="236" y2="-161"/>
				<line class="st1" x1="241" y1="-161" x2="241" y2="-161"/>
			</g>
			<g>
				<line class="st1" x1="1" y1="-151" x2="1" y2="-151"/>
				<line class="st2" x1="11" y1="-151" x2="236" y2="-151"/>
				<line class="st1" x1="241" y1="-151" x2="241" y2="-151"/>
			</g>
			<g>
				<line class="st1" x1="1" y1="-141" x2="1" y2="-141"/>
				<line class="st2" x1="11" y1="-141" x2="236" y2="-141"/>
				<line class="st1" x1="241" y1="-141" x2="241" y2="-141"/>
			</g>
			<g>
				<line class="st1" x1="1" y1="-131" x2="1" y2="-131"/>
				<line class="st2" x1="11" y1="-131" x2="236" y2="-131"/>
				<line class="st1" x1="241" y1="-131" x2="241" y2="-131"/>
			</g>
			<g>
				<line class="st1" x1="1" y1="-121" x2="1" y2="-121"/>
				<line class="st2" x1="11" y1="-121" x2="236" y2="-121"/>
				<line class="st1" x1="241" y1="-121" x2="241" y2="-121"/>
			</g>
			<g>
				<line class="st1" x1="1" y1="-111" x2="1" y2="-111"/>
				<line class="st2" x1="11" y1="-111" x2="236" y2="-111"/>
				<line class="st1" x1="241" y1="-111" x2="241" y2="-111"/>
			</g>
			<g>
				<line class="st1" x1="1" y1="-101" x2="1" y2="-101"/>
				<line class="st2" x1="11" y1="-101" x2="236" y2="-101"/>
				<line class="st1" x1="241" y1="-101" x2="241" y2="-101"/>
			</g>
			<g>
				<line class="st1" x1="1" y1="-91" x2="1" y2="-91"/>
				<line class="st2" x1="11" y1="-91" x2="236" y2="-91"/>
				<line class="st1" x1="241" y1="-91" x2="241" y2="-91"/>
			</g>
			<g>
				<line class="st1" x1="1" y1="-81" x2="1" y2="-81"/>
				<line class="st2" x1="11" y1="-81" x2="236" y2="-81"/>
				<line class="st1" x1="241" y1="-81" x2="241" y2="-81"/>
			</g>
			<g>
				<line class="st1" x1="1" y1="-71" x2="1" y2="-71"/>
				<line class="st2" x1="11" y1="-71" x2="236" y2="-71"/>
				<line class="st1" x1="241" y1="-71" x2="241" y2="-71"/>
			</g>
			<g>
				<line class="st1" x1="1" y1="-61" x2="1" y2="-61"/>
				<line class="st2" x1="11" y1="-61" x2="236" y2="-61"/>
				<line class="st1" x1="241" y1="-61" x2="241" y2="-61"/>
			</g>
			<g>
				<line class="st1" x1="1" y1="-51" x2="1" y2="-51"/>
				<line class="st2" x1="11" y1="-51" x2="236" y2="-51"/>
				<line class="st1" x1="241" y1="-51" x2="241" y2="-51"/>
			</g>
			<g>
				<line class="st1" x1="1" y1="-41" x2="1" y2="-41"/>
				<line class="st2" x1="11" y1="-41" x2="236" y2="-41"/>
				<line class="st1" x1="241" y1="-41" x2="241" y2="-41"/>
			</g>
			<g>
				<line class="st1" x1="1" y1="-31" x2="1" y2="-31"/>
				<line class="st2" x1="11" y1="-31" x2="236" y2="-31"/>
				<line class="st1" x1="241" y1="-31" x2="241" y2="-31"/>
			</g>
			<g>
				<line class="st1" x1="1" y1="-21" x2="1" y2="-21"/>
				<line class="st2" x1="11" y1="-21" x2="236" y2="-21"/>
				<line class="st1" x1="241" y1="-21" x2="241" y2="-21"/>
			</g>
			<g>
				<line class="st1" x1="1" y1="-11" x2="1" y2="-11"/>
				<line class="st2" x1="11" y1="-11" x2="236" y2="-11"/>
				<line class="st1" x1="241" y1="-11" x2="241" y2="-11"/>
			</g>
			<g>
				<line class="st1" x1="1" y1="-1" x2="1" y2="-1"/>
				<line class="st2" x1="11" y1="-1" x2="236" y2="-1"/>
				<line class="st1" x1="241" y1="-1" x2="241" y2="-1"/>
			</g>
		</g>
		<g>
			<g>
				<line class="st1" x1="1" y1="-241" x2="1" y2="-241"/>
			</g>
			<g>
				<line class="st1" x1="1" y1="-231" x2="1" y2="-231"/>
			</g>
			<g>
				<line class="st1" x1="1" y1="-221" x2="1" y2="-221"/>
			</g>
			<g>
				<line class="st1" x1="1" y1="-211" x2="1" y2="-211"/>
			</g>
			<g>
				<line class="st1" x1="1" y1="-201" x2="1" y2="-201"/>
			</g>
			<g>
				<line class="st1" x1="1" y1="-191" x2="1" y2="-191"/>
			</g>
			<g>
				<line class="st1" x1="1" y1="-181" x2="1" y2="-181"/>
			</g>
			<g>
				<line class="st1" x1="1" y1="-171" x2="1" y2="-171"/>
			</g>
			<g>
				<line class="st1" x1="1" y1="-161" x2="1" y2="-161"/>
			</g>
			<g>
				<line class="st1" x1="1" y1="-151" x2="1" y2="-151"/>
			</g>
			<g>
				<line class="st1" x1="1" y1="-141" x2="1" y2="-141"/>
			</g>
			<g>
				<line class="st1" x1="1" y1="-131" x2="1" y2="-131"/>
			</g>
			<g>
				<line class="st1" x1="1" y1="-121" x2="1" y2="-121"/>
			</g>
			<g>
				<line class="st1" x1="1" y1="-111" x2="1" y2="-111"/>
			</g>
			<g>
				<line class="st1" x1="1" y1="-101" x2="1" y2="-101"/>
			</g>
			<g>
				<line class="st1" x1="1" y1="-91" x2="1" y2="-91"/>
			</g>
			<g>
				<line class="st1" x1="1" y1="-81" x2="1" y2="-81"/>
			</g>
			<g>
				<line class="st1" x1="1" y1="-71" x2="1" y2="-71"/>
			</g>
			<g>
				<line class="st1" x1="1" y1="-61" x2="1" y2="-61"/>
			</g>
			<g>
				<line class="st1" x1="1" y1="-51" x2="1" y2="-51"/>
			</g>
			<g>
				<line class="st1" x1="1" y1="-41" x2="1" y2="-41"/>
			</g>
			<g>
				<line class="st1" x1="1" y1="-31" x2="1" y2="-31"/>
			</g>
			<g>
				<line class="st1" x1="1" y1="-21" x2="1" y2="-21"/>
			</g>
			<g>
				<line class="st1" x1="1" y1="-11" x2="1" y2="-11"/>
			</g>
			<g>
				<line class="st1" x1="1" y1="-1" x2="1" y2="-1"/>
			</g>
		</g>
		<g>
			<g>
				<line class="st1" x1="241" y1="-241" x2="241" y2="-241"/>
			</g>
		</g>
		<g>
			<g>
				<line class="st1" x1="1" y1="-241" x2="1" y2="-241"/>
				<line class="st2" x1="11" y1="-241" x2="236" y2="-241"/>
				<line class="st1" x1="241" y1="-241" x2="241" y2="-241"/>
			</g>
		</g>
		<g>
			<g>
				<line class="st1" x1="1" y1="-241" x2="1" y2="-241"/>
			</g>
		</g>
	</g>
</pattern>
<g class="st3">
	
		<pattern  id="SVGID_1_" xlink:href="#Unnamed_Pattern_2" patternTransform="matrix(1.2457 0 0 1.2457 2715.2021 6088.9785)"  class="st3">
	</pattern>
	<path class="st4" d="M962.3,766.5l79,66.3c-68.5,81.7-153,128.5-258.5,143.3L768.4,874C847.6,862.9,910.9,827.7,962.3,766.5z"/>
</g>
<g class="st3">
	
		<pattern  id="SVGID_2_" xlink:href="#Unnamed_Pattern_2" patternTransform="matrix(1.2457 0 0 1.2457 2715.2021 6088.9785)"  class="st3">
	</pattern>
	<path class="st5" d="M539.3,567.9c0-74.7,44-139.1,107.4-168.7l-38.6-82.8c-113.6,53-176.4,171.1-156.8,295l90.3-14.3
		C540.1,587.5,539.3,577.8,539.3,567.9z"/>
</g>
<g>
	<g>
		<path d="M506.5,463.6h-4.1v-1.7c3-0.2,4.1-0.5,4.7-3.2h1.7v17.3h-2.3V463.6z"/>
		<path d="M512.6,471c0-1.9,1-3.6,3.1-4.5c-1.6-0.7-2.3-2.1-2.3-3.7c0-2.5,2.2-4.4,5.2-4.4s5.1,1.8,5.1,4.4c0,1.6-0.7,2.8-2.3,3.7
			c2.3,0.8,3.1,2.6,3.1,4.5c0,3.1-2.5,5.3-5.9,5.3C514.9,476.3,512.6,474.2,512.6,471z M522,470.9c0-2-1.3-3.4-3.5-3.4
			s-3.5,1.4-3.5,3.4c0,2,1.4,3.3,3.5,3.3C520.7,474.2,522,472.9,522,470.9z M521.3,463c0-1.5-0.9-2.6-2.8-2.6c-1.8,0-2.8,1-2.8,2.6
			c0,1.5,1.2,2.5,2.8,2.5S521.3,464.5,521.3,463z"/>
		<path d="M526.1,467.9c0-1.5,1.2-2.6,2.6-2.6c1.5,0,2.6,1.2,2.6,2.6c0,1.5-1.2,2.6-2.6,2.6C527.3,470.5,526.1,469.4,526.1,467.9z
			 M530.3,467.9c0-0.9-0.7-1.6-1.6-1.6c-0.9,0-1.6,0.7-1.6,1.6c0,0.9,0.7,1.6,1.6,1.6C529.6,469.5,530.3,468.8,530.3,467.9z
			 M534.5,465.1h1l-6,10.9h-0.9L534.5,465.1z M532.8,473.1c0-1.5,1.2-2.6,2.6-2.6c1.5,0,2.6,1.2,2.6,2.6c0,1.5-1.2,2.6-2.6,2.6
			C533.9,475.7,532.8,474.5,532.8,473.1z M537,473.1c0-0.9-0.7-1.6-1.6-1.6c-0.9,0-1.6,0.7-1.6,1.6c0,0.9,0.7,1.6,1.6,1.6
			C536.2,474.6,537,473.9,537,473.1z"/>
	</g>
</g>
<g>
	<g>
		<path d="M895.8,878h-4.1v-1.7c3-0.2,4.1-0.5,4.7-3.2h1.7v17.3h-2.3V878z"/>
		<path d="M905.4,878h-4.1v-1.7c3-0.2,4.1-0.5,4.7-3.2h1.7v17.3h-2.3V878z"/>
		<path d="M910.8,882.3c0-1.5,1.2-2.6,2.6-2.6c1.5,0,2.6,1.2,2.6,2.6c0,1.5-1.2,2.6-2.6,2.6C911.9,884.9,910.8,883.8,910.8,882.3z
			 M915,882.3c0-0.9-0.7-1.6-1.6-1.6c-0.9,0-1.6,0.7-1.6,1.6c0,0.9,0.7,1.6,1.6,1.6C914.2,883.9,915,883.2,915,882.3z M919.2,879.5
			h1l-6,10.9h-0.9L919.2,879.5z M917.4,887.5c0-1.5,1.2-2.6,2.6-2.6c1.5,0,2.6,1.2,2.6,2.6c0,1.5-1.2,2.6-2.6,2.6
			C918.6,890.1,917.4,888.9,917.4,887.5z M921.6,887.5c0-0.9-0.7-1.6-1.6-1.6c-0.9,0-1.6,0.7-1.6,1.6c0,0.9,0.7,1.6,1.6,1.6
			C920.9,889,921.6,888.3,921.6,887.5z"/>
	</g>
</g>
<g>
	<g>
		<path d="M1170.4,875.1l-4.6-7.5h2l3.5,5.9l3.5-5.9h1.9l-4.6,7.5v5h-1.7V875.1z"/>
		<path d="M1180.2,878.8c1.2,0,2-0.5,2.2-1.4h1.5c-0.3,1.8-1.8,2.9-3.8,2.9c-2.4,0-4.2-1.7-4.2-4.7c0-2.8,1.8-4.7,4.2-4.7
			c2.5,0,4,1.8,4,4.5c0,0.2,0,0.5,0,0.8h-6.6C1177.7,877.8,1178.8,878.8,1180.2,878.8z M1177.6,874.7h4.9c-0.1-1.3-0.9-2.4-2.4-2.4
			C1178.8,872.4,1177.8,873.2,1177.6,874.7z"/>
		<path d="M1185.5,877.3h1.6c0.1,1.1,0.8,1.6,2,1.6c1.3,0,1.9-0.4,1.9-1.2c0-0.6-0.4-0.9-1.5-1.2l-1.2-0.4c-1.4-0.5-2.7-1-2.7-2.5
			c0-1.8,1.5-2.7,3.3-2.7c1.9,0,3.4,0.8,3.4,2.9h-1.6c-0.1-1-0.8-1.5-1.8-1.5c-1.2,0-1.7,0.4-1.7,1.1c0,0.6,0.4,0.8,1.5,1.2l1.7,0.6
			c1.3,0.5,2.1,1,2.1,2.4c0,2.1-1.7,2.8-3.5,2.8C1187.1,880.3,1185.5,879.5,1185.5,877.3z"/>
	</g>
</g>
<g>
	<circle class="st6" cx="1134.8" cy="876.7" r="16.6"/>
	<circle class="st7" cx="1134.8" cy="876.7" r="16.6"/>
</g>
<g>
	<g>
		<path d="M1170.4,923.3l-4.6-7.5h2l3.5,5.9l3.5-5.9h1.9l-4.6,7.5v5h-1.7V923.3z"/>
		<path d="M1180.2,927c1.2,0,2-0.5,2.2-1.4h1.5c-0.3,1.8-1.8,2.9-3.8,2.9c-2.4,0-4.2-1.7-4.2-4.7c0-2.8,1.8-4.7,4.2-4.7
			c2.5,0,4,1.8,4,4.5c0,0.2,0,0.5,0,0.8h-6.6C1177.7,926,1178.8,927,1180.2,927z M1177.6,922.9h4.9c-0.1-1.3-0.9-2.4-2.4-2.4
			C1178.8,920.5,1177.8,921.4,1177.6,922.9z"/>
		<path d="M1185.5,925.5h1.6c0.1,1.1,0.8,1.6,2,1.6c1.3,0,1.9-0.4,1.9-1.2c0-0.6-0.4-0.9-1.5-1.2l-1.2-0.4c-1.4-0.5-2.7-1-2.7-2.5
			c0-1.8,1.5-2.7,3.3-2.7c1.9,0,3.4,0.8,3.4,2.9h-1.6c-0.1-1-0.8-1.5-1.8-1.5c-1.2,0-1.7,0.4-1.7,1.1c0,0.6,0.4,0.8,1.5,1.2l1.7,0.6
			c1.3,0.5,2.1,1,2.1,2.4c0,2.1-1.7,2.8-3.5,2.8C1187.1,928.5,1185.5,927.7,1185.5,925.5z"/>
		<path d="M1194.3,929.9c0.5,0,1.1-0.5,1.1-1.3h0c-0.6,0-1-0.4-1-1.1c0-0.7,0.5-1.1,1.1-1.1c0.6,0,1.1,0.4,1.1,1.4
			c0,1.8-1.1,2.9-2.2,2.9V929.9z"/>
		<path d="M1210.1,923.7c0,2.8-1.6,4.8-3.9,4.8c-1.2,0-2.1-0.4-2.7-1.2v1h-1.5v-12.5h1.6l0,4.4c0.6-0.8,1.5-1.1,2.6-1.1
			C1208.5,919,1210.1,921,1210.1,923.7z M1208.5,923.7c0-1.8-0.9-3.2-2.4-3.2c-1.6,0-2.6,1.2-2.6,3.2c0,2.1,1.1,3.3,2.6,3.3
			C1207.6,927,1208.5,925.6,1208.5,923.7z"/>
		<path d="M1212,925v-5.7h1.6l0,5.4c0,1.7,0.9,2.3,2,2.3c1.6,0,2.3-1.4,2.3-2.7v-5h1.6v9h-1.5v-0.9c-0.4,0.6-1.5,1.1-2.7,1.1
			C1213.1,928.5,1212,927.2,1212,925z"/>
		<path d="M1222.6,926.2v-5.5h-1.7v-1.4h1.7v-2.5h1.6v2.5h2.2v1.4h-2.2v5.2c0,0.8,0.3,1,1.1,1h1.1v1.4h-1.5
			C1223.6,928.3,1222.6,927.9,1222.6,926.2z"/>
		<path d="M1232.2,916.7c0-0.6,0.5-1,1-1c0.6,0,1.1,0.5,1.1,1c0,0.6-0.5,1-1.1,1C1232.7,917.8,1232.2,917.3,1232.2,916.7z
			 M1232.4,919.3h1.6v9h-1.6V919.3z"/>
		<path d="M1237.3,926.2v-5.5h-1.7v-1.4h1.7v-2.5h1.6v2.5h2.2v1.4h-2.2v5.2c0,0.8,0.3,1,1.1,1h1.1v1.4h-1.5
			C1238.3,928.3,1237.3,927.9,1237.3,926.2z"/>
		<path d="M1244.8,917.2c0,1.7-1.1,2.7-2.2,2.8v-0.8c0.5,0,1.1-0.5,1.1-1.2h0c-0.6,0-1-0.4-1-1.1c0-0.6,0.5-1,1-1
			C1244.3,915.8,1244.8,916.2,1244.8,917.2z"/>
		<path d="M1245.8,925.5h1.6c0.1,1.1,0.8,1.6,2,1.6c1.3,0,1.9-0.4,1.9-1.2c0-0.6-0.4-0.9-1.5-1.2l-1.2-0.4c-1.4-0.5-2.7-1-2.7-2.5
			c0-1.8,1.5-2.7,3.3-2.7c1.9,0,3.4,0.8,3.4,2.9h-1.6c-0.1-1-0.8-1.5-1.8-1.5c-1.2,0-1.7,0.4-1.7,1.1c0,0.6,0.4,0.8,1.5,1.2l1.7,0.6
			c1.3,0.5,2.1,1,2.1,2.4c0,2.1-1.7,2.8-3.5,2.8C1247.4,928.5,1245.8,927.7,1245.8,925.5z"/>
		<path d="M1258.6,923.8c0-2.6,1.6-4.7,4.2-4.7c2.6,0,4.2,2,4.2,4.7c0,2.6-1.6,4.7-4.2,4.7C1260.2,928.5,1258.6,926.5,1258.6,923.8z
			 M1265.4,923.8c0-1.9-1-3.3-2.7-3.3s-2.6,1.3-2.6,3.3c0,1.9,1,3.3,2.6,3.3S1265.4,925.7,1265.4,923.8z"/>
		<path d="M1268.9,925v-5.7h1.6l0,5.4c0,1.7,0.9,2.3,2,2.3c1.6,0,2.3-1.4,2.3-2.7v-5h1.6v9h-1.5v-0.9c-0.4,0.6-1.5,1.1-2.7,1.1
			C1270.1,928.5,1268.9,927.2,1268.9,925z"/>
		<path d="M1279.6,926.2v-5.5h-1.7v-1.4h1.7v-2.5h1.6v2.5h2.2v1.4h-2.2v5.2c0,0.8,0.3,1,1.1,1h1.1v1.4h-1.5
			C1280.6,928.3,1279.6,927.9,1279.6,926.2z"/>
		<path d="M1292.6,915.8v12.5h-1.5v-0.9c-0.6,0.8-1.5,1.2-2.6,1.2c-2.5,0-4-1.8-4-4.7c0-2.8,1.6-4.7,4-4.7c1,0,1.9,0.4,2.5,1.1
			l0-4.4H1292.6z M1291,923.7c0-2-1-3.2-2.5-3.2c-1.6,0-2.5,1.4-2.5,3.2c0,1.9,1,3.3,2.5,3.3C1290,927,1291,925.9,1291,923.7
			L1291,923.7z"/>
		<path d="M1294.4,925.9c0-1.8,1.2-2.5,2.9-2.9l1.9-0.4c0.9-0.2,1-0.4,1-0.9c0-0.6-0.4-1.2-1.9-1.2c-1.3,0-1.9,0.5-1.9,1.4h-1.6
			c0-1.8,1.4-2.9,3.5-2.9c2,0,3.5,0.7,3.5,3.2v4.1c0,0.4,0.2,0.6,0.6,0.6h0.2v1.3h-1.3c-0.7,0-1-0.3-1-1v-0.2
			c-0.7,0.9-1.7,1.4-3.1,1.4C1295.8,928.5,1294.4,927.5,1294.4,925.9z M1300.3,924.8v-1.1c-0.2,0.1-0.5,0.2-0.8,0.3l-1.6,0.3
			c-1.3,0.3-1.8,0.6-1.8,1.4c0,0.8,0.5,1.3,1.5,1.3C1299.3,927,1300.3,926,1300.3,924.8z"/>
		<path d="M1305.2,926.2v-5.5h-1.7v-1.4h1.7v-2.5h1.6v2.5h2.2v1.4h-2.2v5.2c0,0.8,0.3,1,1.1,1h1.1v1.4h-1.5
			C1306.2,928.3,1305.2,927.9,1305.2,926.2z"/>
		<path d="M1314.3,927c1.2,0,2-0.5,2.2-1.4h1.5c-0.3,1.8-1.8,2.9-3.8,2.9c-2.4,0-4.2-1.7-4.2-4.7c0-2.8,1.8-4.7,4.2-4.7
			c2.5,0,4,1.8,4,4.5c0,0.2,0,0.5,0,0.8h-6.6C1311.8,926,1312.9,927,1314.3,927z M1311.7,922.9h4.9c-0.1-1.3-0.9-2.4-2.4-2.4
			C1312.9,920.5,1311.9,921.4,1311.7,922.9z"/>
		<path d="M1327.7,915.8v12.5h-1.5v-0.9c-0.6,0.8-1.5,1.2-2.6,1.2c-2.5,0-4-1.8-4-4.7c0-2.8,1.6-4.7,4-4.7c1,0,1.9,0.4,2.5,1.1
			l0-4.4H1327.7z M1326.2,923.7c0-2-1-3.2-2.5-3.2c-1.6,0-2.5,1.4-2.5,3.2c0,1.9,1,3.3,2.5,3.3
			C1325.1,927,1326.2,925.9,1326.2,923.7L1326.2,923.7z"/>
	</g>
</g>
<g class="st3">
	<g class="st8">
		
			<pattern  id="SVGID_3_" xlink:href="#Unnamed_Pattern_2" patternTransform="matrix(1.2457 0 0 1.2457 2615.54 6224.4619)"  class="st8">
		</pattern>
		<circle class="st9" cx="1134.8" cy="924.9" r="16.6"/>
	</g>
	<g class="st3">
		
			<pattern  id="SVGID_4_" xlink:href="#Unnamed_Pattern_2" patternTransform="matrix(1.2457 0 0 1.2457 2615.54 6224.4619)"  class="st3">
		</pattern>
		<circle class="st10" cx="1134.8" cy="924.9" r="16.6"/>
	</g>
</g>
<g>
	<g>
		<path d="M1167.2,963.9h1.6l6.7,9.6v-9.6h1.6v12.5h-1.6l-6.7-9.6v9.6h-1.6V963.9z"/>
		<path d="M1179.4,971.9c0-2.6,1.6-4.7,4.2-4.7c2.6,0,4.2,2,4.2,4.7c0,2.6-1.6,4.7-4.2,4.7C1181,976.7,1179.4,974.6,1179.4,971.9z
			 M1186.2,971.9c0-1.9-1-3.3-2.7-3.3s-2.6,1.3-2.6,3.3c0,1.9,1,3.3,2.6,3.3S1186.2,973.9,1186.2,971.9z"/>
		<path d="M1189.2,978c0.5,0,1.1-0.5,1.1-1.3h0c-0.6,0-1-0.4-1-1.1c0-0.7,0.5-1.1,1.1-1.1c0.6,0,1.1,0.4,1.1,1.4
			c0,1.8-1.1,2.9-2.2,2.9V978z"/>
		<path d="M1205,971.9c0,2.8-1.6,4.8-3.9,4.8c-1.2,0-2.1-0.4-2.7-1.2v1h-1.5v-12.5h1.6l0,4.4c0.6-0.8,1.5-1.1,2.6-1.1
			C1203.5,967.2,1205,969.1,1205,971.9z M1203.4,971.9c0-1.8-0.9-3.2-2.4-3.2c-1.6,0-2.6,1.2-2.6,3.2c0,2.1,1.1,3.3,2.6,3.3
			C1202.5,975.2,1203.4,973.8,1203.4,971.9z"/>
		<path d="M1206.9,973.1v-5.7h1.6l0,5.4c0,1.7,0.9,2.3,2,2.3c1.6,0,2.3-1.4,2.3-2.7v-5h1.6v9h-1.5v-0.9c-0.4,0.6-1.5,1.1-2.7,1.1
			C1208,976.7,1206.9,975.4,1206.9,973.1z"/>
		<path d="M1217.6,974.4v-5.5h-1.7v-1.4h1.7v-2.5h1.6v2.5h2.2v1.4h-2.2v5.2c0,0.8,0.3,1,1.1,1h1.1v1.4h-1.5
			C1218.5,976.4,1217.6,976.1,1217.6,974.4z"/>
		<path d="M1226.5,967.4h1.6l1.6,7.2l2-7.2h1.6l1.9,7.2l1.7-7.2h1.6l-2.4,9h-1.7l-1.1-4l-0.8-2.9h0l-0.8,2.9l-1.1,4h-1.7
			L1226.5,967.4z"/>
		<path d="M1243.8,975.2c1.2,0,2-0.5,2.2-1.4h1.5c-0.3,1.8-1.8,2.9-3.8,2.9c-2.4,0-4.2-1.7-4.2-4.7c0-2.8,1.8-4.7,4.2-4.7
			c2.5,0,4,1.8,4,4.5c0,0.2,0,0.5,0,0.8h-6.6C1241.3,974.1,1242.4,975.2,1243.8,975.2z M1241.3,971.1h4.9c-0.1-1.3-0.9-2.4-2.4-2.4
			C1242.4,968.7,1241.4,969.6,1241.3,971.1z"/>
		<path d="M1253.1,967.4h1.6l1.6,7.2l2-7.2h1.6l1.9,7.2l1.7-7.2h1.6l-2.4,9h-1.7l-1.1-4l-0.8-2.9h0l-0.8,2.9l-1.1,4h-1.7
			L1253.1,967.4z"/>
		<path d="M1266.6,964.9c0-0.6,0.5-1,1-1c0.6,0,1.1,0.5,1.1,1c0,0.6-0.5,1-1.1,1C1267,965.9,1266.6,965.5,1266.6,964.9z
			 M1266.8,967.4h1.6v9h-1.6V967.4z"/>
		<path d="M1270.8,974.7v-10.8h1.6v10.6c0,0.5,0.3,0.6,0.6,0.6h0.7v1.3h-1C1271.7,976.4,1270.8,976,1270.8,974.7z"/>
		<path d="M1275.3,974.7v-10.8h1.6v10.6c0,0.5,0.3,0.6,0.6,0.6h0.7v1.3h-1C1276.2,976.4,1275.3,976,1275.3,974.7z"/>
		<path d="M1283.8,964.9c0-0.6,0.5-1,1-1c0.6,0,1.1,0.5,1.1,1c0,0.6-0.5,1-1.1,1C1284.3,965.9,1283.8,965.5,1283.8,964.9z
			 M1284,967.4h1.6v9h-1.6V967.4z"/>
		<path d="M1288.1,967.4h1.5v0.9c0.5-0.7,1.5-1.2,2.6-1.2c2.1,0,3.3,1.4,3.3,3.7v5.5h-1.6l0-5.3c0-1.6-0.8-2.4-1.9-2.4
			c-1.4,0-2.4,1-2.4,2.6v5.1h-1.6V967.4z"/>
		<path d="M1301.6,974.1c0-1.8,1.2-2.5,2.9-2.9l1.9-0.4c0.9-0.2,1-0.4,1-0.9c0-0.6-0.4-1.2-1.9-1.2c-1.3,0-1.9,0.5-1.9,1.4h-1.6
			c0-1.8,1.4-2.9,3.5-2.9c2,0,3.5,0.7,3.5,3.2v4.1c0,0.4,0.2,0.6,0.6,0.6h0.2v1.3h-1.3c-0.7,0-1-0.3-1-1v-0.2
			c-0.7,0.9-1.7,1.4-3.1,1.4C1303,976.7,1301.6,975.7,1301.6,974.1z M1307.5,972.9v-1.1c-0.2,0.1-0.5,0.2-0.8,0.3l-1.6,0.3
			c-1.3,0.3-1.8,0.6-1.8,1.4c0,0.8,0.5,1.3,1.5,1.3C1306.4,975.2,1307.5,974.1,1307.5,972.9z"/>
		<path d="M1315.6,978.7h1.3c0.5,0,0.8-0.1,1-0.3c0.2-0.2,0.3-0.4,0.3-0.8c0-0.3-0.1-0.7-0.3-1.3l-3.2-8.9h1.8l1.5,4.7l1.1,3.3
			l1-3.3l1.2-4.7h1.7l-3.3,10.5c-0.5,1.7-1.2,2.2-2.5,2.2h-1.6V978.7z"/>
		<path d="M1328.2,975.2c1.2,0,2-0.5,2.2-1.4h1.5c-0.3,1.8-1.8,2.9-3.8,2.9c-2.4,0-4.2-1.7-4.2-4.7c0-2.8,1.8-4.7,4.2-4.7
			c2.5,0,4,1.8,4,4.5c0,0.2,0,0.5,0,0.8h-6.6C1325.6,974.1,1326.7,975.2,1328.2,975.2z M1325.6,971.1h4.9c-0.1-1.3-0.9-2.4-2.4-2.4
			C1326.7,968.7,1325.7,969.6,1325.6,971.1z"/>
		<path d="M1333.4,974.1c0-1.8,1.2-2.5,2.9-2.9l1.9-0.4c0.9-0.2,1-0.4,1-0.9c0-0.6-0.4-1.2-1.9-1.2c-1.3,0-1.9,0.5-1.9,1.4h-1.6
			c0-1.8,1.4-2.9,3.5-2.9c2,0,3.5,0.7,3.5,3.2v4.1c0,0.4,0.2,0.6,0.6,0.6h0.2v1.3h-1.3c-0.7,0-1-0.3-1-1v-0.2
			c-0.7,0.9-1.7,1.4-3.1,1.4C1334.7,976.7,1333.4,975.7,1333.4,974.1z M1339.2,972.9v-1.1c-0.2,0.1-0.5,0.2-0.8,0.3l-1.6,0.3
			c-1.3,0.3-1.8,0.6-1.8,1.4c0,0.8,0.5,1.3,1.5,1.3C1338.2,975.2,1339.2,974.1,1339.2,972.9z"/>
		<path d="M1343.4,967.4h1.5v1.1c0.5-0.8,1.4-1.3,2.6-1.3h0.7v1.5h-0.8c-1.1,0-2.3,0.9-2.3,2.8v4.8h-1.6V967.4z"/>
	</g>
</g>
<g>
	<g class="st8">
		<circle class="st11" cx="1134.8" cy="973" r="16.6"/>
	</g>
	<g class="st3">
		<circle class="st11" cx="1134.8" cy="973" r="16.6"/>
	</g>
</g>
<g>
	<g>
		<path d="M1167.2,1012.1h1.6l6.7,9.6v-9.6h1.6v12.5h-1.6l-6.7-9.6v9.6h-1.6V1012.1z"/>
		<path d="M1179.4,1020.1c0-2.6,1.6-4.7,4.2-4.7c2.6,0,4.2,2,4.2,4.7c0,2.6-1.6,4.7-4.2,4.7
			C1181,1024.8,1179.4,1022.8,1179.4,1020.1z M1186.2,1020.1c0-1.9-1-3.3-2.7-3.3s-2.6,1.3-2.6,3.3c0,1.9,1,3.3,2.6,3.3
			S1186.2,1022,1186.2,1020.1z"/>
		<path d="M1189.2,1026.2c0.5,0,1.1-0.5,1.1-1.3h0c-0.6,0-1-0.4-1-1.1c0-0.7,0.5-1.1,1.1-1.1c0.6,0,1.1,0.4,1.1,1.4
			c0,1.8-1.1,2.9-2.2,2.9V1026.2z"/>
		<path d="M1196.3,1022.2c0-1.8,1.2-2.5,2.9-2.9l1.9-0.4c0.9-0.2,1-0.4,1-0.9c0-0.6-0.4-1.2-1.9-1.2c-1.3,0-1.9,0.5-1.9,1.4h-1.6
			c0-1.8,1.4-2.9,3.5-2.9c2,0,3.5,0.7,3.5,3.2v4.1c0,0.4,0.2,0.6,0.6,0.6h0.2v1.3h-1.3c-0.7,0-1-0.3-1-1v-0.2
			c-0.7,0.9-1.7,1.4-3.1,1.4C1197.6,1024.8,1196.3,1023.9,1196.3,1022.2z M1202.1,1021.1v-1.1c-0.2,0.1-0.5,0.2-0.8,0.3l-1.6,0.3
			c-1.3,0.3-1.8,0.6-1.8,1.4c0,0.8,0.5,1.3,1.5,1.3C1201.1,1023.4,1202.1,1022.3,1202.1,1021.1z"/>
		<path d="M1206.3,1015.6h1.5v0.9c0.5-0.7,1.5-1.2,2.6-1.2c2.1,0,3.3,1.4,3.3,3.7v5.5h-1.6l0-5.3c0-1.6-0.8-2.4-1.9-2.4
			c-1.4,0-2.4,1-2.4,2.6v5.1h-1.6V1015.6z"/>
		<path d="M1223.8,1012.1v12.5h-1.5v-0.9c-0.6,0.8-1.5,1.2-2.6,1.2c-2.5,0-4-1.8-4-4.7c0-2.8,1.6-4.7,4-4.7c1,0,1.9,0.4,2.5,1.1
			l0-4.4H1223.8z M1222.2,1020.1c0-2-1-3.2-2.5-3.2c-1.6,0-2.5,1.4-2.5,3.2c0,1.9,1,3.3,2.5,3.3
			C1221.2,1023.4,1222.2,1022.2,1222.2,1020.1L1222.2,1020.1z"/>
		<path d="M1229.7,1015.6h1.6l1.6,7.2l2-7.2h1.6l1.9,7.2l1.7-7.2h1.6l-2.4,9h-1.7l-1.1-4l-0.8-2.9h0l-0.8,2.9l-1.1,4h-1.7
			L1229.7,1015.6z"/>
		<path d="M1247,1023.3c1.2,0,2-0.5,2.2-1.4h1.5c-0.3,1.8-1.8,2.9-3.8,2.9c-2.4,0-4.2-1.7-4.2-4.7c0-2.8,1.8-4.7,4.2-4.7
			c2.5,0,4,1.8,4,4.5c0,0.2,0,0.5,0,0.8h-6.6C1244.5,1022.3,1245.6,1023.3,1247,1023.3z M1244.4,1019.2h4.9
			c-0.1-1.3-0.9-2.4-2.4-2.4C1245.6,1016.9,1244.6,1017.7,1244.4,1019.2z"/>
		<path d="M1256.3,1015.6h1.6l1.6,7.2l2-7.2h1.6l1.9,7.2l1.7-7.2h1.6l-2.4,9h-1.7l-1.1-4l-0.8-2.9h0l-0.8,2.9l-1.1,4h-1.7
			L1256.3,1015.6z"/>
		<path d="M1269.3,1020.1c0-2.6,1.6-4.7,4.2-4.7c2.6,0,4.2,2,4.2,4.7c0,2.6-1.6,4.7-4.2,4.7
			C1271,1024.8,1269.3,1022.8,1269.3,1020.1z M1276.2,1020.1c0-1.9-1-3.3-2.7-3.3s-2.6,1.3-2.6,3.3c0,1.9,1,3.3,2.6,3.3
			S1276.2,1022,1276.2,1020.1z"/>
		<path d="M1279.8,1015.6h1.5v0.9c0.5-0.7,1.5-1.2,2.6-1.2c2.1,0,3.3,1.4,3.3,3.7v5.5h-1.6l0-5.3c0-1.6-0.8-2.4-1.9-2.4
			c-1.4,0-2.4,1-2.4,2.6v5.1h-1.6V1015.6z"/>
		<path d="M1291.3,1013.5c0,1.7-1.1,2.7-2.2,2.8v-0.8c0.5,0,1.1-0.5,1.1-1.2h0c-0.6,0-1-0.4-1-1.1c0-0.6,0.5-1,1-1
			C1290.8,1012.2,1291.3,1012.6,1291.3,1013.5z"/>
		<path d="M1294.1,1022.6v-5.5h-1.7v-1.4h1.7v-2.5h1.6v2.5h2.2v1.4h-2.2v5.2c0,0.8,0.3,1,1.1,1h1.1v1.4h-1.5
			C1295.1,1024.6,1294.1,1024.3,1294.1,1022.6z"/>
		<path d="M1303.6,1013.1c0-0.6,0.5-1,1-1c0.6,0,1.1,0.5,1.1,1c0,0.6-0.5,1-1.1,1C1304.1,1014.1,1303.6,1013.7,1303.6,1013.1z
			 M1303.9,1015.6h1.6v9h-1.6V1015.6z"/>
		<path d="M1308,1015.6h1.5v0.9c0.5-0.7,1.5-1.2,2.6-1.2c2.1,0,3.3,1.4,3.3,3.7v5.5h-1.6l0-5.3c0-1.6-0.8-2.4-1.9-2.4
			c-1.4,0-2.4,1-2.4,2.6v5.1h-1.6V1015.6z"/>
		<path d="M1322.8,1017h-1.6v-1.4h1.6v-0.8c0-1.8,0.8-2.7,2.8-2.7h1.5v1.5h-1.5c-0.8,0-1.2,0.3-1.2,1.2v0.9h1.9v1.4h-1.9v7.6h-1.6
			V1017z"/>
		<path d="M1327.7,1021.3v-5.7h1.6l0,5.4c0,1.7,0.9,2.3,2,2.3c1.6,0,2.3-1.4,2.3-2.7v-5h1.6v9h-1.5v-0.9c-0.4,0.6-1.5,1.1-2.7,1.1
			C1328.9,1024.8,1327.7,1023.5,1327.7,1021.3z"/>
		<path d="M1338.4,1022.6v-5.5h-1.7v-1.4h1.7v-2.5h1.6v2.5h2.2v1.4h-2.2v5.2c0,0.8,0.3,1,1.1,1h1.1v1.4h-1.5
			C1339.4,1024.6,1338.4,1024.3,1338.4,1022.6z"/>
		<path d="M1343.9,1021.3v-5.7h1.6l0,5.4c0,1.7,0.9,2.3,2,2.3c1.6,0,2.3-1.4,2.3-2.7v-5h1.6v9h-1.5v-0.9c-0.4,0.6-1.5,1.1-2.7,1.1
			C1345,1024.8,1343.9,1023.5,1343.9,1021.3z"/>
		<path d="M1353.8,1015.6h1.5v1.1c0.5-0.8,1.4-1.3,2.6-1.3h0.7v1.5h-0.8c-1.1,0-2.3,0.9-2.3,2.8v4.8h-1.6V1015.6z"/>
		<path d="M1363.4,1023.3c1.2,0,2-0.5,2.2-1.4h1.5c-0.3,1.8-1.8,2.9-3.8,2.9c-2.4,0-4.2-1.7-4.2-4.7c0-2.8,1.8-4.7,4.2-4.7
			c2.5,0,4,1.8,4,4.5c0,0.2,0,0.5,0,0.8h-6.6C1360.9,1022.3,1362,1023.3,1363.4,1023.3z M1360.8,1019.2h4.9
			c-0.1-1.3-0.9-2.4-2.4-2.4C1362,1016.9,1361,1017.7,1360.8,1019.2z"/>
	</g>
</g>
<circle class="st12" cx="1134.8" cy="1021.2" r="16.6"/>
<g>
	<path class="st11" d="M768.4,874l14.3,102.1C658,993.6,543,958.4,449.4,874.2l69-76.6C588.6,860.8,674.8,887.1,768.4,874z"/>
</g>
<path class="st13" d="M518.4,797.5l-69,76.6C280.1,721.7,266.4,461,418.8,291.7c80.9-89.9,185.5-136.5,306.5-136.5v103.1
	C554.5,258.3,416,396.8,416,567.7C416,658.4,450.9,736.8,518.4,797.5z"/>
<path class="st12" d="M725.3,258.3V155.2c227.8,0,412.4,184.7,412.4,412.4c0,101.6-31.2,187.3-96.5,265.1l-79-66.3
	c109.8-130.9,92.7-326-38.1-435.8C865.8,281.7,801.5,258.3,725.3,258.3z"/>
<g>
	<path class="st11" d="M696.3,384L682,293.7c-27.4,4.3-48.7,10.9-73.9,22.6l38.6,82.8C662.2,391.9,678.8,386.8,696.3,384z"/>
</g>
<path class="st13" d="M725.4,381.7v-91.4c-13.8,0-29.8,1.3-43.4,3.4l14.3,90.3C705.8,382.5,715.5,381.7,725.4,381.7z"/>
<path class="st12" d="M725.4,290.3v91.4c102.8,0,186.1,83.3,186.1,186.1S828.2,754,725.4,754c-92.9,0-169.9-68-183.8-157l-90.3,14.3
	c21.8,137.6,134.8,234.1,274.1,234.1c153.3,0,277.5-124.3,277.5-277.5S878.7,290.3,725.4,290.3z"/>
<g>
	<path d="M731.5,405.1l1.6,0.1c0,1.1,0.8,2.3,2.4,2.4c1.6,0.1,2.6-0.9,2.7-2.7c0.1-1.6-0.7-2.8-2.4-2.9c-1.1-0.1-1.9,0.3-2.4,0.9
		l-1.5-0.1l1.3-6.4l6.4,0.4l-0.1,1.5l-5.2-0.3l-0.7,3.4c0.3-0.3,1.1-0.8,2.4-0.7c2.4,0.1,3.9,1.7,3.7,4.3c-0.1,2.4-1.8,4.1-4.3,3.9
		C732.8,408.8,731.4,407.2,731.5,405.1z"/>
	<path d="M745.7,404.4l-3.6-0.4l0.1-1.2l3.5,0.4l0.5-3.8l1.2,0.1l-0.5,3.8l3.6,0.4l-0.1,1.2l-3.6-0.4l-0.5,3.8l-1.2-0.1L745.7,404.4
		z"/>
	<path d="M759.6,399.3l4.6,1c2.7,0.6,3.6,2.3,3.2,4.3c-0.4,2-2,3.3-4.2,2.8l-3.4-0.8l-1.1,5.2l-1.7-0.4L759.6,399.3z M763.2,405.7
		c1.2,0.3,2.2-0.1,2.5-1.5c0.3-1.2-0.5-2-1.8-2.3l-2.9-0.6l-0.8,3.8L763.2,405.7z"/>
	<path d="M770.7,413.5c1.1,0.3,2,0.1,2.5-0.8l1.5,0.4c-0.8,1.6-2.5,2.3-4.4,1.8c-2.3-0.7-3.6-2.7-2.7-5.7c0.8-2.7,3-4.1,5.3-3.4
		c2.4,0.7,3.3,2.9,2.6,5.4c-0.1,0.2-0.1,0.5-0.2,0.7l-6.3-1.8C768.6,411.8,769.4,413.1,770.7,413.5z M769.4,408.8l4.7,1.4
		c0.3-1.3-0.3-2.5-1.6-2.9C771.2,406.9,770,407.4,769.4,408.8z"/>
	<path d="M777,412c0.9-2.4,3.1-3.9,5.5-3c2.4,0.9,3.3,3.3,2.4,5.9c-0.9,2.5-3.1,3.9-5.6,3C777,417,776.1,414.5,777,412z
		 M783.5,414.3c0.6-1.8,0.1-3.4-1.4-4c-1.5-0.5-2.9,0.4-3.6,2.2c-0.6,1.8-0.1,3.4,1.4,4C781.4,417,782.8,416.1,783.5,414.3z"/>
	<path d="M794.5,418.7c-1.1,2.6-3.3,3.8-5.5,2.8c-1-0.4-1.7-1.2-2-2.1l-1.8,4.3l-1.4-0.6l5-11.7l1.4,0.6l-0.4,0.9
		c0.9-0.5,1.9-0.4,2.9,0C794.8,413.8,795.5,416.2,794.5,418.7z M793,418.1c0.7-1.7,0.4-3.3-0.9-3.9c-1.4-0.6-2.8,0.1-3.6,2
		c-0.8,1.9-0.3,3.5,1.1,4C790.9,420.8,792.3,419.9,793,418.1z"/>
	<path d="M795.2,422.3l4.7-9.7l1.4,0.7l-4.6,9.5c-0.2,0.5,0,0.7,0.3,0.8l0.6,0.3l-0.6,1.2l-0.9-0.4
		C795.3,424.2,794.6,423.5,795.2,422.3z"/>
	<path d="M802.4,426.4c1,0.5,2,0.5,2.6-0.2l1.4,0.7c-1.1,1.4-3,1.8-4.7,0.8c-2.1-1.1-2.9-3.4-1.4-6.1c1.3-2.5,3.8-3.3,5.9-2.2
		c2.2,1.2,2.6,3.5,1.4,5.9c-0.1,0.2-0.3,0.5-0.4,0.7l-5.8-3.1C800.7,424.3,801.2,425.7,802.4,426.4z M802.1,421.6l4.3,2.3
		c0.5-1.2,0.3-2.5-1-3.2C804.2,420.1,802.9,420.4,802.1,421.6z"/>
</g>
<g>
	<g>
		<path class="st14" d="M1029.6,418.3h2.4c0.1,2.2,1.3,3.7,3.8,3.7c2.1,0,3.7-1.2,3.7-3.4c0-1.7-0.6-3.2-4.3-3.2h-0.6v-1.8h0.8
			c2.4,0,3.6-0.9,3.6-2.8c0-1.7-1.4-2.7-3.1-2.7c-1.5,0-3.5,0.4-3.7,3.6h-2.4c0-3.6,2.2-5.6,6-5.6c3.4,0,5.5,1.6,5.5,4.6
			c0,1.7-0.7,2.8-2.2,3.5l-0.2,0.1l0.2,0c1.3,0.4,2.9,1.5,2.9,4.1c0,3.7-2.7,5.6-6.3,5.6C1031.9,423.9,1029.7,421.9,1029.6,418.3z"
			/>
		<path class="st14" d="M1052.3,419.6h-8.4v-2.1l8.3-11.1h2.2v11.2h2.4v2h-2.4v4h-2.1V419.6z M1052.3,417.6v-8.1h-0.1l-6,8.1H1052.3
			z"/>
		<path class="st14" d="M1058.2,415.6c0-1.5,1.2-2.6,2.6-2.6c1.5,0,2.6,1.2,2.6,2.6c0,1.5-1.2,2.6-2.6,2.6
			C1059.4,418.2,1058.2,417,1058.2,415.6z M1062.4,415.6c0-0.9-0.7-1.6-1.6-1.6c-0.9,0-1.6,0.7-1.6,1.6c0,0.9,0.7,1.6,1.6,1.6
			C1061.7,417.2,1062.4,416.4,1062.4,415.6z M1066.7,412.7h1l-6,10.9h-0.9L1066.7,412.7z M1064.9,420.7c0-1.5,1.2-2.6,2.6-2.6
			c1.5,0,2.6,1.2,2.6,2.6c0,1.5-1.2,2.6-2.6,2.6C1066.1,423.4,1064.9,422.2,1064.9,420.7z M1069.1,420.7c0-0.9-0.7-1.6-1.6-1.6
			c-0.9,0-1.6,0.7-1.6,1.6c0,0.9,0.7,1.6,1.6,1.6C1068.4,422.3,1069.1,421.6,1069.1,420.7z"/>
	</g>
</g>
<g>
	<g>
		<path class="st14" d="M371.3,436.9h2.4c0.1,2.2,1.3,3.7,3.8,3.7c2.1,0,3.7-1.2,3.7-3.4c0-1.7-0.6-3.2-4.3-3.2h-0.6v-1.8h0.8
			c2.4,0,3.6-0.9,3.6-2.8c0-1.7-1.4-2.7-3.1-2.7c-1.5,0-3.5,0.4-3.7,3.6h-2.4c0-3.6,2.2-5.6,6-5.6c3.4,0,5.5,1.6,5.5,4.6
			c0,1.7-0.7,2.8-2.2,3.5l-0.2,0.1l0.2,0c1.3,0.4,2.9,1.5,2.9,4.1c0,3.7-2.7,5.6-6.3,5.6C373.6,442.6,371.4,440.6,371.3,436.9z"/>
		<path class="st14" d="M386.3,434.6c0-5.9,1.9-9.8,6.3-9.8c3.1,0,5,1.9,5,4.5h-2.4c0-1.4-0.9-2.5-2.6-2.5c-2.7,0-3.6,2.4-4,6.3
			l0,0.3l0.1-0.2c0.6-1.1,2.1-2.1,4-2.1c3.3,0,5.4,2.2,5.4,5.6c0,3.5-2.3,5.9-5.8,5.9C388.1,442.6,386.3,439.4,386.3,434.6z
			 M395.8,436.8c0-2.4-1.3-3.7-3.5-3.7c-2.2,0-3.3,1.7-3.3,3.8c0,2.3,1.2,3.8,3.3,3.8C394.4,440.7,395.8,439.1,395.8,436.8z"/>
		<path class="st14" d="M400.2,434.3c0-1.5,1.2-2.6,2.6-2.6c1.5,0,2.6,1.2,2.6,2.6c0,1.5-1.2,2.6-2.6,2.6
			C401.4,436.9,400.2,435.7,400.2,434.3z M404.4,434.3c0-0.9-0.7-1.6-1.6-1.6c-0.9,0-1.6,0.7-1.6,1.6c0,0.9,0.7,1.6,1.6,1.6
			C403.7,435.8,404.4,435.1,404.4,434.3z M408.7,431.4h1l-6,10.9h-0.9L408.7,431.4z M406.9,439.4c0-1.5,1.2-2.6,2.6-2.6
			c1.5,0,2.6,1.2,2.6,2.6c0,1.5-1.2,2.6-2.6,2.6C408.1,442.1,406.9,440.9,406.9,439.4z M411.1,439.4c0-0.9-0.7-1.6-1.6-1.6
			c-0.9,0-1.6,0.7-1.6,1.6c0,0.9,0.7,1.6,1.6,1.6C410.4,441,411.1,440.3,411.1,439.4z"/>
	</g>
</g>
<g>
	<g>
		<path class="st14" d="M703,338.3c2.3-1.4,3.4-2.6,3.4-4.4c0-1.8-1-2.9-3.2-2.9c-2.6,0-3.4,1.7-3.4,4.2h-2.4c0-4.1,2.3-6.4,5.9-6.4
			c3.5,0,5.5,1.9,5.5,5c0,2.6-2.2,4.6-5.4,6.6c-1.8,1.1-3.1,2.6-3.4,3.8h9v2.1h-11.8C697.2,343.3,698.5,341.1,703,338.3z"/>
		<path class="st14" d="M710.6,338.3c0-1.5,1.2-2.6,2.6-2.6c1.5,0,2.6,1.2,2.6,2.6c0,1.5-1.2,2.6-2.6,2.6
			C711.8,341,710.6,339.8,710.6,338.3z M714.8,338.3c0-0.9-0.7-1.6-1.6-1.6c-0.9,0-1.6,0.7-1.6,1.6c0,0.9,0.7,1.6,1.6,1.6
			C714.1,339.9,714.8,339.2,714.8,338.3z M719,335.5h1l-6,10.9h-0.9L719,335.5z M717.3,343.5c0-1.5,1.2-2.6,2.6-2.6
			c1.5,0,2.6,1.2,2.6,2.6c0,1.5-1.2,2.6-2.6,2.6C718.5,346.1,717.3,345,717.3,343.5z M721.5,343.5c0-0.9-0.7-1.6-1.6-1.6
			c-0.9,0-1.6,0.7-1.6,1.6c0,0.9,0.7,1.6,1.6,1.6C720.8,345.1,721.5,344.4,721.5,343.5z"/>
	</g>
</g>
<g>
	<g>
		<path class="st14" d="M880.1,721.1c0-5.9,1.9-9.8,6.3-9.8c3.1,0,5,1.9,5,4.5H889c0-1.4-0.9-2.5-2.6-2.5c-2.7,0-3.6,2.4-4,6.3
			l0,0.3l0.1-0.2c0.6-1.1,2.1-2.1,4-2.1c3.3,0,5.4,2.2,5.4,5.6c0,3.5-2.3,5.9-5.8,5.9C881.9,729.1,880.1,725.9,880.1,721.1z
			 M889.6,723.3c0-2.4-1.3-3.7-3.5-3.7c-2.2,0-3.3,1.7-3.3,3.8c0,2.3,1.2,3.8,3.3,3.8C888.2,727.2,889.6,725.6,889.6,723.3z"/>
		<path class="st14" d="M902.1,724.8h-8.4v-2.1l8.3-11.1h2.2v11.2h2.4v2h-2.4v4h-2.1V724.8z M902.1,722.8v-8.1h-0.1l-6,8.1H902.1z"
			/>
		<path class="st14" d="M908.1,720.8c0-1.5,1.2-2.6,2.6-2.6c1.5,0,2.6,1.2,2.6,2.6c0,1.5-1.2,2.6-2.6,2.6
			C909.3,723.4,908.1,722.2,908.1,720.8z M912.3,720.8c0-0.9-0.7-1.6-1.6-1.6c-0.9,0-1.6,0.7-1.6,1.6c0,0.9,0.7,1.6,1.6,1.6
			C911.6,722.3,912.3,721.6,912.3,720.8z M916.5,717.9h1l-6,10.9h-0.9L916.5,717.9z M914.8,725.9c0-1.5,1.2-2.6,2.6-2.6
			c1.5,0,2.6,1.2,2.6,2.6c0,1.5-1.2,2.6-2.6,2.6C916,728.6,914.8,727.4,914.8,725.9z M919,725.9c0-0.9-0.7-1.6-1.6-1.6
			c-0.9,0-1.6,0.7-1.6,1.6c0,0.9,0.7,1.6,1.6,1.6C918.3,727.5,919,726.8,919,725.9z"/>
	</g>
</g>
<g>
	<path d="M135.4,20.5h8.7c7.1,0,13.4,4.6,13.4,13.4c0,7.8-5.5,13.4-13.7,13.4h-8.4V20.5z M143.8,43.9c5.4,0,10-3.4,10-10.1
		s-4.3-10-10.4-10h-4.3v20.1H143.8z"/>
	<path d="M161.9,37.6c0-5.6,3.5-10.1,9-10.1s9,4.4,9,10.1c0,5.6-3.5,10.1-9,10.1C165.4,47.8,161.9,43.4,161.9,37.6z M176.6,37.6
		c0-4.1-2.2-7-5.7-7s-5.6,2.9-5.6,7c0,4.1,2.2,7,5.6,7S176.6,41.8,176.6,37.6z"/>
	<path d="M194.9,52.1h2.7c1,0,1.8-0.2,2.2-0.6c0.4-0.4,0.7-0.9,0.7-1.6c0-0.7-0.2-1.6-0.6-2.8L193.1,28h3.9l3.2,10l2.4,7.2l2.1-7.2
		l2.7-10h3.7l-7.1,22.6c-1.1,3.6-2.6,4.7-5.5,4.7h-3.5V52.1z"/>
	<path d="M213.9,37.6c0-5.6,3.5-10.1,9-10.1s9,4.4,9,10.1c0,5.6-3.5,10.1-9,10.1C217.4,47.8,213.9,43.4,213.9,37.6z M228.6,37.6
		c0-4.1-2.2-7-5.7-7s-5.6,2.9-5.6,7c0,4.1,2.2,7,5.6,7S228.6,41.8,228.6,37.6z"/>
	<path d="M237.2,40.2V28h3.4l0,11.5c0,3.7,1.9,5,4.3,5c3.5,0,4.8-3,4.8-5.8V28h3.4v19.3h-3.3v-1.9c-0.9,1.4-3.2,2.4-5.8,2.4
		C239.6,47.8,237.2,45,237.2,40.2z"/>
	<path d="M269.7,20.5h3.3v9.3c1.2-1.5,3.3-2.3,5.5-2.3c4.5,0,7.2,2.8,7.2,7.6v12.2h-3.4l0-11.4c0-3.1-1.6-5.2-4.6-5.2
		c-1.9,0-3.5,1.3-4.1,2.7c-0.4,1-0.6,1.9-0.6,3.5v10.4h-3.4V20.5z"/>
	<path d="M290.6,42.2c0-3.8,2.7-5.5,6.3-6.1l4.1-0.8c1.8-0.3,2.1-0.9,2.1-1.9c0-1.3-0.9-2.6-4-2.6c-2.9,0-4.1,1.1-4.1,3h-3.5
		c0-3.9,3-6.2,7.5-6.2c4.2,0,7.5,1.5,7.5,6.9v8.7c0,0.9,0.3,1.3,1.3,1.3h0.4v2.8h-2.7c-1.4,0-2.2-0.7-2.2-2.1v-0.4
		c-1.5,2-3.7,3-6.6,3C293.6,47.8,290.6,45.7,290.6,42.2z M303.2,39.8v-2.3c-0.4,0.3-1,0.4-1.6,0.6l-3.3,0.7
		c-2.7,0.6-3.9,1.3-3.9,3.1c0,1.7,1.1,2.8,3.2,2.8C301,44.6,303.2,42.4,303.2,39.8z"/>
	<path d="M310.7,28h3.7l3.3,9.8l2,6h0l1.8-6l3.3-9.8h3.4l-6.8,19.3h-3.8L310.7,28z"/>
	<path d="M340.3,44.5c2.5,0,4.3-1.1,4.7-3.1h3.3c-0.7,3.8-3.8,6.3-8.1,6.3c-5.1,0-8.9-3.6-8.9-10.1c0-6.1,3.8-10.1,8.9-10.1
		c5.4,0,8.6,3.9,8.6,9.6c0,0.5,0,1.2,0,1.6h-14.1C334.8,42.3,337.2,44.5,340.3,44.5z M334.7,35.8h10.5c-0.2-2.8-2-5-5.1-5
		C337.2,30.7,335.1,32.6,334.7,35.8z"/>
	<path d="M362.8,42.2c0-3.8,2.7-5.5,6.3-6.1l4.1-0.8c1.8-0.3,2.1-0.9,2.1-1.9c0-1.3-0.9-2.6-4-2.6c-2.9,0-4.1,1.1-4.1,3h-3.5
		c0-3.9,3-6.2,7.5-6.2c4.2,0,7.5,1.5,7.5,6.9v8.7c0,0.9,0.3,1.3,1.3,1.3h0.4v2.8h-2.7c-1.4,0-2.2-0.7-2.2-2.1v-0.4
		c-1.5,2-3.7,3-6.6,3C365.7,47.8,362.8,45.7,362.8,42.2z M375.4,39.8v-2.3c-0.4,0.3-1,0.4-1.6,0.6l-3.3,0.7
		c-2.7,0.6-3.9,1.3-3.9,3.1c0,1.7,1.1,2.8,3.2,2.8C373.2,44.6,375.4,42.4,375.4,39.8z"/>
	<path d="M135.4,65.3H146c5,0,8.3,2.4,8.3,7c0,2.7-1.3,4.5-3,5.6v0c2.1,0.9,3.8,2.8,3.8,6.2c0,5.3-4.1,7.9-9.1,7.9h-10.5V65.3z
		 M146.2,76.8c2.8,0,4.5-1.4,4.5-4.3c0-2.7-2-3.9-5.1-3.9h-6.5v8.1H146.2z M145.7,88.8c3.2,0,5.6-1.2,5.6-4.5c0-3.1-2.3-4.2-5.4-4.2
		h-6.8v8.7H145.7z"/>
	<path d="M160.6,85.1V72.8h3.4l0,11.5c0,3.7,1.9,5,4.3,5c3.5,0,4.8-3,4.8-5.8V72.8h3.4v19.3h-3.3v-1.9c-0.9,1.4-3.2,2.4-5.8,2.4
		C163.1,92.6,160.6,89.8,160.6,85.1z"/>
	<path d="M181.7,86.1h3.5c0.2,2.4,1.6,3.4,4.3,3.4s4.1-0.8,4.1-2.5c0-1.4-0.9-1.8-3.2-2.7l-2.5-0.9c-3.1-1-5.7-2.1-5.7-5.5
		c0-3.8,3.2-5.7,7.1-5.7c4,0,7.2,1.6,7.3,6.2h-3.5c-0.1-2.2-1.7-3.2-3.9-3.2c-2.6,0-3.6,0.9-3.6,2.3c0,1.3,0.8,1.7,3.1,2.5l3.5,1.3
		c2.7,1,4.6,2.2,4.6,5.1c0,4.4-3.6,6-7.5,6C185.2,92.6,181.7,90.9,181.7,86.1z"/>
	<path d="M201.8,67.4c0-1.2,1-2.2,2.2-2.2c1.3,0,2.3,1,2.3,2.2c0,1.3-1,2.2-2.3,2.2C202.8,69.7,201.8,68.7,201.8,67.4z M202.3,72.8
		h3.4v19.3h-3.4V72.8z"/>
	<path d="M212.2,72.8h3.3v2c1.1-1.4,3.3-2.5,5.6-2.5c4.5,0,7.1,2.9,7.1,7.9v11.9h-3.4l0-11.3c0-3.4-1.7-5.2-4.1-5.2
		c-3.1,0-5.2,2.2-5.2,5.6v10.9h-3.4V72.8z"/>
	<path d="M242.4,89.4c2.5,0,4.3-1.1,4.7-3.1h3.3c-0.7,3.8-3.8,6.3-8.1,6.3c-5.1,0-8.9-3.6-8.9-10.1c0-6.1,3.8-10.1,8.9-10.1
		c5.4,0,8.6,3.9,8.6,9.6c0,0.5,0,1.2,0,1.6h-14.1C237,87.2,239.4,89.4,242.4,89.4z M236.9,80.6h10.5c-0.2-2.8-2-5-5.1-5
		C239.4,75.6,237.2,77.4,236.9,80.6z"/>
	<path d="M254.8,86.1h3.5c0.2,2.4,1.6,3.4,4.3,3.4s4.1-0.8,4.1-2.5c0-1.4-0.9-1.8-3.2-2.7l-2.5-0.9c-3.1-1-5.7-2.1-5.7-5.5
		c0-3.8,3.2-5.7,7.1-5.7c4,0,7.2,1.6,7.3,6.2h-3.5c-0.1-2.2-1.7-3.2-3.9-3.2c-2.6,0-3.6,0.9-3.6,2.3c0,1.3,0.8,1.7,3.1,2.5l3.5,1.3
		c2.7,1,4.6,2.2,4.6,5.1c0,4.4-3.6,6-7.5,6C258.3,92.6,254.8,90.9,254.8,86.1z"/>
	<path d="M274.2,86.1h3.5c0.2,2.4,1.6,3.4,4.3,3.4s4.1-0.8,4.1-2.5c0-1.4-0.9-1.8-3.2-2.7l-2.5-0.9c-3.1-1-5.7-2.1-5.7-5.5
		c0-3.8,3.2-5.7,7.1-5.7c4,0,7.2,1.6,7.3,6.2h-3.5c-0.1-2.2-1.7-3.2-3.9-3.2c-2.6,0-3.6,0.9-3.6,2.3c0,1.3,0.8,1.7,3.1,2.5l3.5,1.3
		c2.7,1,4.6,2.2,4.6,5.1c0,4.4-3.6,6-7.5,6C277.7,92.6,274.2,90.9,274.2,86.1z"/>
	<path d="M304.1,78.9c0-7.6,5-14.1,12.6-14.1c7.2,0,10.7,4.7,11.3,9.7h-3.6c-0.7-3.6-3.6-6.2-7.8-6.2c-6,0-8.8,5.2-8.8,10.6
		c0,5.7,3.3,10.4,8.9,10.4c5,0,6.8-3.3,7.7-5.5h3.5c-1,4.4-4.9,9-11.3,9C309.3,92.8,304.1,87.3,304.1,78.9z"/>
	<path d="M332,82.5c0-5.6,3.5-10.1,9-10.1s9,4.4,9,10.1c0,5.6-3.5,10.1-9,10.1C335.5,92.6,332,88.3,332,82.5z M346.7,82.5
		c0-4.1-2.2-7-5.7-7s-5.6,2.9-5.6,7c0,4.1,2.2,7,5.6,7S346.7,86.6,346.7,82.5z"/>
	<path d="M355.4,72.8h3.3v2c1.1-1.4,3.3-2.5,5.6-2.5c4.5,0,7.1,2.9,7.1,7.9v11.9h-3.4l0-11.3c0-3.4-1.7-5.2-4.1-5.2
		c-3.1,0-5.2,2.2-5.2,5.6v10.9h-3.4V72.8z"/>
	<path d="M379.1,87.7V75.9h-3.6v-3.1h3.6v-5.5h3.4v5.5h4.7v3.1h-4.7V87c0,1.8,0.7,2.1,2.4,2.1h2.4v3H384
		C381.2,92.1,379.1,91.4,379.1,87.7z"/>
	<path d="M391.6,67.4c0-1.2,1-2.2,2.2-2.2c1.3,0,2.3,1,2.3,2.2c0,1.3-1,2.2-2.3,2.2C392.6,69.7,391.6,68.7,391.6,67.4z M392.1,72.8
		h3.4v19.3h-3.4V72.8z"/>
	<path d="M402,72.8h3.3v2c1.1-1.4,3.3-2.5,5.6-2.5c4.5,0,7.1,2.9,7.1,7.9v11.9h-3.4l0-11.3c0-3.4-1.7-5.2-4.1-5.2
		c-3.1,0-5.2,2.2-5.2,5.6v10.9H402V72.8z"/>
	<path d="M424.1,85.1V72.8h3.4l0,11.5c0,3.7,1.9,5,4.3,5c3.5,0,4.8-3,4.8-5.8V72.8h3.4v19.3h-3.3v-1.9c-0.9,1.4-3.2,2.4-5.8,2.4
		C426.6,92.6,424.1,89.8,424.1,85.1z"/>
	<path d="M445.9,67.4c0-1.2,1-2.2,2.2-2.2c1.3,0,2.3,1,2.3,2.2c0,1.3-1,2.2-2.3,2.2C447,69.7,445.9,68.7,445.9,67.4z M446.5,72.8
		h3.4v19.3h-3.4V72.8z"/>
	<path d="M458,87.7V75.9h-3.6v-3.1h3.6v-5.5h3.4v5.5h4.7v3.1h-4.7V87c0,1.8,0.7,2.1,2.4,2.1h2.4v3h-3.3
		C460.1,92.1,458,91.4,458,87.7z"/>
	<path d="M470.9,96.9h2.7c1,0,1.8-0.2,2.2-0.6c0.4-0.4,0.7-0.9,0.7-1.6c0-0.7-0.2-1.6-0.6-2.8L469,72.8h3.9l3.2,10l2.4,7.2l2.1-7.2
		l2.7-10h3.7l-7.1,22.6c-1.1,3.6-2.6,4.7-5.5,4.7h-3.5V96.9z"/>
	<path d="M501.8,65.4h10.1c5.9,0,8.6,3.1,8.6,7.5c0,4.3-2.7,7.8-7.6,7.8h-7.5v11.3h-3.7V65.4z M512.2,77.3c2.5,0,4.5-1.2,4.5-4.3
		c0-2.6-1.9-4.1-4.9-4.1h-6.3v8.4H512.2z"/>
	<path d="M525.3,88.5V65.3h3.3V88c0,1.1,0.6,1.3,1.4,1.3h1.4v2.8h-2.2C527.2,92.1,525.3,91.3,525.3,88.5z"/>
	<path d="M534.7,87c0-3.8,2.7-5.5,6.3-6.1l4.1-0.8c1.8-0.3,2.1-0.9,2.1-1.9c0-1.3-0.9-2.6-4-2.6c-2.9,0-4.1,1.1-4.1,3h-3.5
		c0-3.9,3-6.2,7.5-6.2c4.2,0,7.5,1.5,7.5,6.9V88c0,0.9,0.3,1.3,1.3,1.3h0.4v2.8h-2.7c-1.4,0-2.2-0.7-2.2-2.1v-0.4
		c-1.5,2-3.7,3-6.6,3C537.6,92.6,534.7,90.5,534.7,87z M547.3,84.6v-2.3c-0.4,0.3-1,0.4-1.6,0.6l-3.3,0.7c-2.7,0.6-3.9,1.3-3.9,3.1
		c0,1.7,1.1,2.8,3.2,2.8C545.1,89.5,547.3,87.2,547.3,84.6z"/>
	<path d="M557.4,72.8h3.3v2c1.1-1.4,3.3-2.5,5.6-2.5c4.5,0,7.1,2.9,7.1,7.9v11.9H570l0-11.3c0-3.4-1.7-5.2-4.1-5.2
		c-3.1,0-5.2,2.2-5.2,5.6v10.9h-3.4V72.8z"/>
	<path d="M583.9,84c0.1-2.6,0.8-4,3.3-6.5l1.5-1.5c0.5-0.5,1.8-1.8,1.8-3.7c0-2.7-1.5-4.3-4.4-4.3c-3.3,0-4.7,1.3-5,5.2h-3.6
		c0.1-5.3,3.3-8.3,8.6-8.3c4.6,0,8.1,2.2,8.1,6.6c0,2.9-0.9,4.4-3.3,6.8l-1.9,1.9c-1,1-1.5,2.1-1.7,3.9c0,0.4,0,0.7,0,1.2h-3.5
		C583.9,84.8,583.9,84.4,583.9,84z M583.4,90.3c0-1.2,1-2.3,2.3-2.3c1.3,0,2.3,1,2.3,2.3c0,1.3-1,2.3-2.3,2.3
		C584.5,92.6,583.4,91.6,583.4,90.3z"/>
	<path d="M133.8,126.7c0-5.7,1.5-12.1,4.4-17.1h2.9c-2.7,5.2-4,11-4,16.9c0,6,1.3,11.8,4,17.2h-2.9
		C135.4,138.3,133.8,132.8,133.8,126.7z"/>
	<path d="M163.5,127.2c0,6-3.4,10.2-8.4,10.2c-2.5,0-4.4-0.9-5.7-2.6v2.1h-3.2v-26.8h3.4l0,9.5c1.4-1.6,3.3-2.4,5.6-2.4
		C160.3,117.2,163.5,121.3,163.5,127.2z M160.2,127.3c0-4-2-7-5.1-7c-3.4,0-5.6,2.6-5.5,7c0,4.5,2.3,7,5.5,7
		C158.2,134.3,160.2,131.4,160.2,127.3z"/>
	<path d="M168.4,141.7h2.7c1,0,1.8-0.2,2.2-0.6c0.4-0.4,0.7-0.9,0.7-1.6c0-0.7-0.2-1.6-0.6-2.8l-6.9-19.1h3.9l3.2,10l2.4,7.2
		l2.1-7.2l2.7-10h3.7l-7.1,22.6c-1.1,3.6-2.6,4.7-5.5,4.7h-3.5V141.7z"/>
	<path d="M197.3,130.9h3.5c0.2,2.4,1.6,3.4,4.3,3.4s4.1-0.8,4.1-2.5c0-1.4-0.9-1.8-3.2-2.7l-2.5-0.9c-3.1-1-5.7-2.1-5.7-5.5
		c0-3.8,3.2-5.7,7.1-5.7c4,0,7.2,1.6,7.3,6.2h-3.5c-0.1-2.2-1.7-3.2-3.9-3.2c-2.6,0-3.6,0.9-3.6,2.3c0,1.3,0.8,1.7,3.1,2.5l3.5,1.3
		c2.7,1,4.6,2.2,4.6,5.1c0,4.4-3.6,6-7.5,6C200.8,137.4,197.3,135.7,197.3,130.9z"/>
	<path d="M217.4,112.3c0-1.2,1-2.2,2.2-2.2c1.3,0,2.3,1,2.3,2.2c0,1.3-1,2.2-2.3,2.2C218.4,114.5,217.4,113.5,217.4,112.3z
		 M218,117.7h3.4V137H218V117.7z"/>
	<path d="M226.4,134.3l10.7-13.7h-10.2v-3h14.5v2.6L230.6,134H242v3h-15.6V134.3z"/>
	<path d="M254.6,134.2c2.5,0,4.3-1.1,4.7-3.1h3.3c-0.7,3.8-3.8,6.3-8.1,6.3c-5.1,0-8.9-3.6-8.9-10.1c0-6.1,3.8-10.1,8.9-10.1
		c5.4,0,8.6,3.9,8.6,9.6c0,0.5,0,1.2,0,1.6H249C249.2,132,251.6,134.2,254.6,134.2z M249.1,125.5h10.5c-0.2-2.8-2-5-5.1-5
		C251.6,120.4,249.5,122.3,249.1,125.5z"/>
	<path d="M277.4,127.3c0-5.6,3.5-10.1,9-10.1s9,4.4,9,10.1c0,5.6-3.5,10.1-9,10.1C280.9,137.4,277.4,133.1,277.4,127.3z
		 M292.1,127.3c0-4.1-2.2-7-5.7-7s-5.6,2.9-5.6,7c0,4.1,2.2,7,5.6,7S292.1,131.5,292.1,127.3z"/>
	<path d="M302.1,120.7h-3.5v-3.1h3.5V116c0-4,1.8-5.8,5.9-5.8h3.2v3.2h-3.2c-1.8,0-2.5,0.7-2.5,2.5v1.9h4v3.1h-4V137h-3.4V120.7z"/>
	<path d="M324.3,110.2h3.7V137h-3.7V110.2z"/>
	<path d="M341.3,113.5h-8.2v-3.3h20.1v3.3H345V137h-3.7V113.5z"/>
	<path d="M367.7,132.6v-11.8h-3.6v-3.1h3.6v-5.5h3.4v5.5h4.7v3.1h-4.7v11.1c0,1.8,0.7,2.1,2.4,2.1h2.4v3h-3.3
		C369.8,137,367.7,136.3,367.7,132.6z"/>
	<path d="M388.4,134.2c2.5,0,4.3-1.1,4.7-3.1h3.3c-0.7,3.8-3.8,6.3-8.1,6.3c-5.1,0-8.9-3.6-8.9-10.1c0-6.1,3.8-10.1,8.9-10.1
		c5.4,0,8.6,3.9,8.6,9.6c0,0.5,0,1.2,0,1.6h-14.1C383,132,385.3,134.2,388.4,134.2z M382.9,125.5h10.5c-0.2-2.8-2-5-5.1-5
		C385.4,120.4,383.2,122.3,382.9,125.5z"/>
	<path d="M400.7,131.9c0-3.8,2.7-5.5,6.3-6.1l4.1-0.8c1.8-0.3,2.1-0.9,2.1-1.9c0-1.3-0.9-2.6-4-2.6c-2.9,0-4.1,1.1-4.1,3h-3.5
		c0-3.9,3-6.2,7.5-6.2c4.2,0,7.5,1.5,7.5,6.9v8.7c0,0.9,0.3,1.3,1.3,1.3h0.4v2.8h-2.7c-1.4,0-2.2-0.7-2.2-2.1v-0.4
		c-1.5,2-3.7,3-6.6,3C403.6,137.4,400.7,135.4,400.7,131.9z M413.3,129.4v-2.3c-0.4,0.3-1,0.4-1.6,0.6l-3.3,0.7
		c-2.7,0.6-3.9,1.3-3.9,3.1c0,1.7,1.1,2.8,3.2,2.8C411.1,134.3,413.3,132.1,413.3,129.4z"/>
	<path d="M423.4,117.6h3.3v1.9c0.9-1.4,2.9-2.4,5.1-2.4c2.5,0,4.4,1,5.4,3c1.4-2.2,3.6-3,5.9-3c4.2,0,6.9,2.9,6.9,7.7V137h-3.4
		l0-11.4c0-3.1-1.5-5.1-4.1-5.1c-2.6,0-4.1,2.2-4.1,5.2V137H435v-11.4c0-3.1-1.5-5.1-4.1-5.1c-2.5,0-4.1,2.1-4.1,4.9V137h-3.4V117.6
		z"/>
	<path d="M457.9,126.8c0-6-1.3-11.8-4-17.2h2.8c2.8,5.3,4.5,10.9,4.5,17c0,5.7-1.5,12.2-4.5,17.1H454
		C456.6,138.5,457.9,132.7,457.9,126.8z"/>
</g>
<g>
	<path d="M725.9,135.5l0-1.4l8.5-3.7l0,1.3l-6.9,3.1l6.8,3.4l0,1.3L725.9,135.5z"/>
	<path d="M736.9,137.3l1.6,0.1c0,1.1,0.8,2.3,2.5,2.4c1.6,0.1,2.5-1,2.6-2.7c0.1-1.6-0.8-2.7-2.4-2.8c-1.1,0-1.9,0.4-2.4,0.9
		l-1.5-0.1l1.2-6.4l6.4,0.2l-0.1,1.5l-5.2-0.2l-0.6,3.4c0.3-0.3,1.1-0.8,2.3-0.8c2.4,0.1,3.9,1.6,3.8,4.2c-0.1,2.4-1.8,4.1-4.2,4
		C738.3,141,736.8,139.4,736.9,137.3z"/>
	<path d="M753.5,129l4.7,0.3c2.8,0.2,3.9,1.8,3.8,3.8c-0.1,2-1.5,3.5-3.8,3.4l-3.5-0.3l-0.4,5.3l-1.7-0.1L753.5,129z M757.9,134.9
		c1.2,0.1,2.1-0.4,2.3-1.9c0.1-1.2-0.8-2-2.1-2.1l-2.9-0.2l-0.3,3.9L757.9,134.9z"/>
	<path d="M766.7,141.3c1.1,0.1,2-0.3,2.3-1.2l1.5,0.1c-0.5,1.7-2,2.8-4,2.6c-2.4-0.2-4-2-3.7-5.1c0.3-2.8,2.2-4.5,4.6-4.3
		c2.5,0.2,3.8,2.2,3.6,4.9c0,0.2-0.1,0.5-0.1,0.8l-6.5-0.6C764.2,140,765.2,141.1,766.7,141.3z M764.5,137l4.9,0.5
		c0-1.3-0.7-2.4-2.2-2.6C765.9,134.7,764.8,135.5,764.5,137z"/>
	<path d="M772.5,138.6c0.3-2.6,2.2-4.5,4.7-4.2c2.5,0.3,4,2.5,3.6,5.2c-0.3,2.6-2.2,4.5-4.7,4.2
		C773.6,143.5,772.2,141.3,772.5,138.6z M779.3,139.4c0.2-1.9-0.7-3.4-2.3-3.5c-1.6-0.2-2.8,1-3,2.9c-0.2,1.9,0.6,3.4,2.2,3.5
		C777.9,142.5,779.1,141.3,779.3,139.4z"/>
	<path d="M791,141c-0.4,2.8-2.2,4.5-4.5,4.2c-1.1-0.2-1.9-0.7-2.4-1.5l-0.6,4.6l-1.6-0.2l1.8-12.6l1.5,0.2l-0.1,0.9
		c0.8-0.7,1.7-0.9,2.8-0.8C790.1,136.1,791.4,138.3,791,141z M789.5,140.8c0.3-1.8-0.4-3.3-1.9-3.6c-1.5-0.2-2.7,0.8-3,2.9
		c-0.3,2.1,0.6,3.4,2.1,3.6C788.1,143.9,789.2,142.7,789.5,140.8z"/>
	<path d="M792.7,144.1l1.7-10.7l1.5,0.2l-1.7,10.4c-0.1,0.5,0.2,0.6,0.5,0.7l0.7,0.1l-0.2,1.3l-1-0.2
		C793.3,146,792.5,145.4,792.7,144.1z"/>
	<path d="M800.8,145.9c1.1,0.2,2-0.1,2.4-1l1.5,0.3c-0.6,1.7-2.3,2.6-4.2,2.2c-2.3-0.4-3.8-2.4-3.3-5.4c0.5-2.8,2.6-4.3,4.9-3.9
		c2.5,0.4,3.6,2.5,3.1,5.1c0,0.2-0.1,0.5-0.2,0.8l-6.5-1.1C798.5,144.5,799.4,145.7,800.8,145.9z M799,141.5l4.8,0.9
		c0.1-1.3-0.5-2.5-1.9-2.7C800.6,139.3,799.4,140,799,141.5z"/>
</g>
<g>
	<g>
		<path class="st15" d="M822.3,147.7c225.5,51.9,370.9,273.6,326.4,502.5c-45.5,233.8-271.8,386.4-505.6,341s-386.4-271.8-341-505.6
			c38.7-198.8,208.1-338.9,401.7-348.5"/>
		<g>
			<polygon points="702.9,132.6 703.4,141.7 707.7,136.9 			"/>
		</g>
	</g>
</g>
<g>
	<g>
		<path class="st15" d="M820.9,434.8c69.3,49.6,89.4,145,44.1,218.7c-47.3,77.1-148.1,101.2-225.2,53.9
			c-77.1-47.3-101.2-148.1-53.9-225.2c28-45.7,74.9-72.8,124.4-77.4"/>
		<g>
			<polygon points="709.3,400.4 710.2,409.4 714.3,404.5 			"/>
		</g>
	</g>
</g>
<g>
	<g>
		<path d="M657,354h-8.4v-2.1l8.3-11.1h2.2V352h2.4v2h-2.4v4H657V354z M657,352V344H657l-6,8.1H657z"/>
		<path d="M663,350c0-1.5,1.2-2.6,2.6-2.6c1.5,0,2.6,1.2,2.6,2.6s-1.2,2.6-2.6,2.6C664.2,352.6,663,351.4,663,350z M667.2,350
			c0-0.9-0.7-1.6-1.6-1.6c-0.9,0-1.6,0.7-1.6,1.6c0,0.9,0.7,1.6,1.6,1.6C666.5,351.5,667.2,350.8,667.2,350z M671.4,347.1h1l-6,10.9
			h-0.9L671.4,347.1z M669.7,355.1c0-1.5,1.2-2.6,2.6-2.6c1.5,0,2.6,1.2,2.6,2.6c0,1.5-1.2,2.6-2.6,2.6
			C670.9,357.8,669.7,356.6,669.7,355.1z M673.9,355.1c0-0.9-0.7-1.6-1.6-1.6c-0.9,0-1.6,0.7-1.6,1.6c0,0.9,0.7,1.6,1.6,1.6
			C673.2,356.7,673.9,356,673.9,355.1z"/>
	</g>
</g>
<g>
	<g>
		<path d="M596.9,903.8h-4.1V902c3-0.2,4.1-0.5,4.7-3.2h1.7v17.3h-2.3V903.8z"/>
		<path d="M603,910.7h2.4c0.1,2.2,1.3,3.7,3.8,3.7c2.1,0,3.7-1.2,3.7-3.4c0-1.7-0.6-3.2-4.3-3.2h-0.6v-1.8h0.8
			c2.4,0,3.6-0.9,3.6-2.8c0-1.7-1.4-2.7-3.1-2.7c-1.5,0-3.5,0.4-3.7,3.6h-2.4c0-3.6,2.2-5.6,6-5.6c3.4,0,5.5,1.6,5.5,4.6
			c0,1.7-0.7,2.8-2.2,3.5l-0.2,0.1l0.2,0c1.3,0.4,2.9,1.5,2.9,4.1c0,3.7-2.7,5.6-6.3,5.6C605.3,916.4,603,914.3,603,910.7z"/>
		<path d="M617.5,908c0-1.5,1.2-2.6,2.6-2.6c1.5,0,2.6,1.2,2.6,2.6c0,1.5-1.2,2.6-2.6,2.6C618.7,910.7,617.5,909.5,617.5,908z
			 M621.7,908c0-0.9-0.7-1.6-1.6-1.6c-0.9,0-1.6,0.7-1.6,1.6c0,0.9,0.7,1.6,1.6,1.6C621,909.6,621.7,908.9,621.7,908z M625.9,905.2
			h1l-6,10.9H620L625.9,905.2z M624.2,913.2c0-1.5,1.2-2.6,2.6-2.6c1.5,0,2.6,1.2,2.6,2.6c0,1.5-1.2,2.6-2.6,2.6
			C625.4,915.8,624.2,914.7,624.2,913.2z M628.4,913.2c0-0.9-0.7-1.6-1.6-1.6c-0.9,0-1.6,0.7-1.6,1.6c0,0.9,0.7,1.6,1.6,1.6
			C627.7,914.8,628.4,914.1,628.4,913.2z"/>
	</g>
</g>
</svg>
