<?xml version="1.0" encoding="utf-8"?>
<!-- Generator: Adobe Illustrator 21.1.0, SVG Export Plug-In . SVG Version: 6.00 Build 0)  -->
<svg version="1.1" id="graphNineCyber" xmlns="http://www.w3.org/2000/svg" xmlns:xlink="http://www.w3.org/1999/xlink" x="0px"
	 y="0px" viewBox="0 0 1500 1053" style="enable-background:new 0 0 1500 1053;" xml:space="preserve">
<style type="text/css">
	.st0{fill:none;}
	.st1{fill:none;stroke:#000000;stroke-width:2;stroke-linecap:round;stroke-miterlimit:10;}
	.st2{fill:none;stroke:#000000;stroke-width:2;stroke-linecap:round;stroke-miterlimit:10;stroke-dasharray:0,10;}
	.st3{fill:#F6F6F8;}
	.st4{opacity:0.9;}
	.st5{fill:#FF8F4E;}
	.st6{fill:url(#SVGID_1_);}
	.st7{fill:#CCCCCC;}
	.st8{fill:#8EFFDE;}
	.st9{fill:url(#SVGID_2_);}
	.st10{fill:url(#SVGID_3_);}
	.st11{fill:url(#SVGID_4_);}
	.st12{fill:url(#SVGID_5_);}
</style>
<pattern  y="1053" width="240" height="240" patternUnits="userSpaceOnUse" id="Unnamed_Pattern_4" viewBox="1 -241 240 240" style="overflow:visible;">
	<g>
		<rect x="1" y="-241" class="st0" width="240" height="240"/>
		<g>
			<g>
				<line class="st1" x1="241" y1="-1" x2="241" y2="-1"/>
			</g>
		</g>
		<g>
			<g>
				<line class="st1" x1="1" y1="-1" x2="1" y2="-1"/>
				<line class="st2" x1="11" y1="-1" x2="236" y2="-1"/>
				<line class="st1" x1="241" y1="-1" x2="241" y2="-1"/>
			</g>
		</g>
		<g>
			<g>
				<line class="st1" x1="1" y1="-1" x2="1" y2="-1"/>
			</g>
		</g>
		<g>
			<g>
				<line class="st1" x1="241" y1="-241" x2="241" y2="-241"/>
			</g>
			<g>
				<line class="st1" x1="241" y1="-231" x2="241" y2="-231"/>
			</g>
			<g>
				<line class="st1" x1="241" y1="-221" x2="241" y2="-221"/>
			</g>
			<g>
				<line class="st1" x1="241" y1="-211" x2="241" y2="-211"/>
			</g>
			<g>
				<line class="st1" x1="241" y1="-201" x2="241" y2="-201"/>
			</g>
			<g>
				<line class="st1" x1="241" y1="-191" x2="241" y2="-191"/>
			</g>
			<g>
				<line class="st1" x1="241" y1="-181" x2="241" y2="-181"/>
			</g>
			<g>
				<line class="st1" x1="241" y1="-171" x2="241" y2="-171"/>
			</g>
			<g>
				<line class="st1" x1="241" y1="-161" x2="241" y2="-161"/>
			</g>
			<g>
				<line class="st1" x1="241" y1="-151" x2="241" y2="-151"/>
			</g>
			<g>
				<line class="st1" x1="241" y1="-141" x2="241" y2="-141"/>
			</g>
			<g>
				<line class="st1" x1="241" y1="-131" x2="241" y2="-131"/>
			</g>
			<g>
				<line class="st1" x1="241" y1="-121" x2="241" y2="-121"/>
			</g>
			<g>
				<line class="st1" x1="241" y1="-111" x2="241" y2="-111"/>
			</g>
			<g>
				<line class="st1" x1="241" y1="-101" x2="241" y2="-101"/>
			</g>
			<g>
				<line class="st1" x1="241" y1="-91" x2="241" y2="-91"/>
			</g>
			<g>
				<line class="st1" x1="241" y1="-81" x2="241" y2="-81"/>
			</g>
			<g>
				<line class="st1" x1="241" y1="-71" x2="241" y2="-71"/>
			</g>
			<g>
				<line class="st1" x1="241" y1="-61" x2="241" y2="-61"/>
			</g>
			<g>
				<line class="st1" x1="241" y1="-51" x2="241" y2="-51"/>
			</g>
			<g>
				<line class="st1" x1="241" y1="-41" x2="241" y2="-41"/>
			</g>
			<g>
				<line class="st1" x1="241" y1="-31" x2="241" y2="-31"/>
			</g>
			<g>
				<line class="st1" x1="241" y1="-21" x2="241" y2="-21"/>
			</g>
			<g>
				<line class="st1" x1="241" y1="-11" x2="241" y2="-11"/>
			</g>
			<g>
				<line class="st1" x1="241" y1="-1" x2="241" y2="-1"/>
			</g>
		</g>
		<g>
			<g>
				<line class="st1" x1="1" y1="-241" x2="1" y2="-241"/>
				<line class="st2" x1="11" y1="-241" x2="236" y2="-241"/>
				<line class="st1" x1="241" y1="-241" x2="241" y2="-241"/>
			</g>
			<g>
				<line class="st1" x1="1" y1="-231" x2="1" y2="-231"/>
				<line class="st2" x1="11" y1="-231" x2="236" y2="-231"/>
				<line class="st1" x1="241" y1="-231" x2="241" y2="-231"/>
			</g>
			<g>
				<line class="st1" x1="1" y1="-221" x2="1" y2="-221"/>
				<line class="st2" x1="11" y1="-221" x2="236" y2="-221"/>
				<line class="st1" x1="241" y1="-221" x2="241" y2="-221"/>
			</g>
			<g>
				<line class="st1" x1="1" y1="-211" x2="1" y2="-211"/>
				<line class="st2" x1="11" y1="-211" x2="236" y2="-211"/>
				<line class="st1" x1="241" y1="-211" x2="241" y2="-211"/>
			</g>
			<g>
				<line class="st1" x1="1" y1="-201" x2="1" y2="-201"/>
				<line class="st2" x1="11" y1="-201" x2="236" y2="-201"/>
				<line class="st1" x1="241" y1="-201" x2="241" y2="-201"/>
			</g>
			<g>
				<line class="st1" x1="1" y1="-191" x2="1" y2="-191"/>
				<line class="st2" x1="11" y1="-191" x2="236" y2="-191"/>
				<line class="st1" x1="241" y1="-191" x2="241" y2="-191"/>
			</g>
			<g>
				<line class="st1" x1="1" y1="-181" x2="1" y2="-181"/>
				<line class="st2" x1="11" y1="-181" x2="236" y2="-181"/>
				<line class="st1" x1="241" y1="-181" x2="241" y2="-181"/>
			</g>
			<g>
				<line class="st1" x1="1" y1="-171" x2="1" y2="-171"/>
				<line class="st2" x1="11" y1="-171" x2="236" y2="-171"/>
				<line class="st1" x1="241" y1="-171" x2="241" y2="-171"/>
			</g>
			<g>
				<line class="st1" x1="1" y1="-161" x2="1" y2="-161"/>
				<line class="st2" x1="11" y1="-161" x2="236" y2="-161"/>
				<line class="st1" x1="241" y1="-161" x2="241" y2="-161"/>
			</g>
			<g>
				<line class="st1" x1="1" y1="-151" x2="1" y2="-151"/>
				<line class="st2" x1="11" y1="-151" x2="236" y2="-151"/>
				<line class="st1" x1="241" y1="-151" x2="241" y2="-151"/>
			</g>
			<g>
				<line class="st1" x1="1" y1="-141" x2="1" y2="-141"/>
				<line class="st2" x1="11" y1="-141" x2="236" y2="-141"/>
				<line class="st1" x1="241" y1="-141" x2="241" y2="-141"/>
			</g>
			<g>
				<line class="st1" x1="1" y1="-131" x2="1" y2="-131"/>
				<line class="st2" x1="11" y1="-131" x2="236" y2="-131"/>
				<line class="st1" x1="241" y1="-131" x2="241" y2="-131"/>
			</g>
			<g>
				<line class="st1" x1="1" y1="-121" x2="1" y2="-121"/>
				<line class="st2" x1="11" y1="-121" x2="236" y2="-121"/>
				<line class="st1" x1="241" y1="-121" x2="241" y2="-121"/>
			</g>
			<g>
				<line class="st1" x1="1" y1="-111" x2="1" y2="-111"/>
				<line class="st2" x1="11" y1="-111" x2="236" y2="-111"/>
				<line class="st1" x1="241" y1="-111" x2="241" y2="-111"/>
			</g>
			<g>
				<line class="st1" x1="1" y1="-101" x2="1" y2="-101"/>
				<line class="st2" x1="11" y1="-101" x2="236" y2="-101"/>
				<line class="st1" x1="241" y1="-101" x2="241" y2="-101"/>
			</g>
			<g>
				<line class="st1" x1="1" y1="-91" x2="1" y2="-91"/>
				<line class="st2" x1="11" y1="-91" x2="236" y2="-91"/>
				<line class="st1" x1="241" y1="-91" x2="241" y2="-91"/>
			</g>
			<g>
				<line class="st1" x1="1" y1="-81" x2="1" y2="-81"/>
				<line class="st2" x1="11" y1="-81" x2="236" y2="-81"/>
				<line class="st1" x1="241" y1="-81" x2="241" y2="-81"/>
			</g>
			<g>
				<line class="st1" x1="1" y1="-71" x2="1" y2="-71"/>
				<line class="st2" x1="11" y1="-71" x2="236" y2="-71"/>
				<line class="st1" x1="241" y1="-71" x2="241" y2="-71"/>
			</g>
			<g>
				<line class="st1" x1="1" y1="-61" x2="1" y2="-61"/>
				<line class="st2" x1="11" y1="-61" x2="236" y2="-61"/>
				<line class="st1" x1="241" y1="-61" x2="241" y2="-61"/>
			</g>
			<g>
				<line class="st1" x1="1" y1="-51" x2="1" y2="-51"/>
				<line class="st2" x1="11" y1="-51" x2="236" y2="-51"/>
				<line class="st1" x1="241" y1="-51" x2="241" y2="-51"/>
			</g>
			<g>
				<line class="st1" x1="1" y1="-41" x2="1" y2="-41"/>
				<line class="st2" x1="11" y1="-41" x2="236" y2="-41"/>
				<line class="st1" x1="241" y1="-41" x2="241" y2="-41"/>
			</g>
			<g>
				<line class="st1" x1="1" y1="-31" x2="1" y2="-31"/>
				<line class="st2" x1="11" y1="-31" x2="236" y2="-31"/>
				<line class="st1" x1="241" y1="-31" x2="241" y2="-31"/>
			</g>
			<g>
				<line class="st1" x1="1" y1="-21" x2="1" y2="-21"/>
				<line class="st2" x1="11" y1="-21" x2="236" y2="-21"/>
				<line class="st1" x1="241" y1="-21" x2="241" y2="-21"/>
			</g>
			<g>
				<line class="st1" x1="1" y1="-11" x2="1" y2="-11"/>
				<line class="st2" x1="11" y1="-11" x2="236" y2="-11"/>
				<line class="st1" x1="241" y1="-11" x2="241" y2="-11"/>
			</g>
			<g>
				<line class="st1" x1="1" y1="-1" x2="1" y2="-1"/>
				<line class="st2" x1="11" y1="-1" x2="236" y2="-1"/>
				<line class="st1" x1="241" y1="-1" x2="241" y2="-1"/>
			</g>
		</g>
		<g>
			<g>
				<line class="st1" x1="1" y1="-241" x2="1" y2="-241"/>
			</g>
			<g>
				<line class="st1" x1="1" y1="-231" x2="1" y2="-231"/>
			</g>
			<g>
				<line class="st1" x1="1" y1="-221" x2="1" y2="-221"/>
			</g>
			<g>
				<line class="st1" x1="1" y1="-211" x2="1" y2="-211"/>
			</g>
			<g>
				<line class="st1" x1="1" y1="-201" x2="1" y2="-201"/>
			</g>
			<g>
				<line class="st1" x1="1" y1="-191" x2="1" y2="-191"/>
			</g>
			<g>
				<line class="st1" x1="1" y1="-181" x2="1" y2="-181"/>
			</g>
			<g>
				<line class="st1" x1="1" y1="-171" x2="1" y2="-171"/>
			</g>
			<g>
				<line class="st1" x1="1" y1="-161" x2="1" y2="-161"/>
			</g>
			<g>
				<line class="st1" x1="1" y1="-151" x2="1" y2="-151"/>
			</g>
			<g>
				<line class="st1" x1="1" y1="-141" x2="1" y2="-141"/>
			</g>
			<g>
				<line class="st1" x1="1" y1="-131" x2="1" y2="-131"/>
			</g>
			<g>
				<line class="st1" x1="1" y1="-121" x2="1" y2="-121"/>
			</g>
			<g>
				<line class="st1" x1="1" y1="-111" x2="1" y2="-111"/>
			</g>
			<g>
				<line class="st1" x1="1" y1="-101" x2="1" y2="-101"/>
			</g>
			<g>
				<line class="st1" x1="1" y1="-91" x2="1" y2="-91"/>
			</g>
			<g>
				<line class="st1" x1="1" y1="-81" x2="1" y2="-81"/>
			</g>
			<g>
				<line class="st1" x1="1" y1="-71" x2="1" y2="-71"/>
			</g>
			<g>
				<line class="st1" x1="1" y1="-61" x2="1" y2="-61"/>
			</g>
			<g>
				<line class="st1" x1="1" y1="-51" x2="1" y2="-51"/>
			</g>
			<g>
				<line class="st1" x1="1" y1="-41" x2="1" y2="-41"/>
			</g>
			<g>
				<line class="st1" x1="1" y1="-31" x2="1" y2="-31"/>
			</g>
			<g>
				<line class="st1" x1="1" y1="-21" x2="1" y2="-21"/>
			</g>
			<g>
				<line class="st1" x1="1" y1="-11" x2="1" y2="-11"/>
			</g>
			<g>
				<line class="st1" x1="1" y1="-1" x2="1" y2="-1"/>
			</g>
		</g>
		<g>
			<g>
				<line class="st1" x1="241" y1="-241" x2="241" y2="-241"/>
			</g>
		</g>
		<g>
			<g>
				<line class="st1" x1="1" y1="-241" x2="1" y2="-241"/>
				<line class="st2" x1="11" y1="-241" x2="236" y2="-241"/>
				<line class="st1" x1="241" y1="-241" x2="241" y2="-241"/>
			</g>
		</g>
		<g>
			<g>
				<line class="st1" x1="1" y1="-241" x2="1" y2="-241"/>
			</g>
		</g>
	</g>
</pattern>
<rect x="-26.1" y="-18.3" class="st3" width="1552.1" height="1089.6"/>
<g class="st4">
	<rect x="1647.9" y="-18.3" class="st5" width="1552.1" height="1089.6"/>
</g>
<rect x="-26.1" y="1150.2" class="st3" width="1552.1" height="1089.6"/>
<g>
	<g>
		<g>
			<path d="M104.4,139.6l-3.4,2.1l-0.7-1.1l4.2-2.5h1.5v14.4h-1.5V139.6z"/>
			<path d="M108.4,139.4V138h9.8v1.4l-6.6,13h-1.7l6.7-13H108.4z"/>
			<path d="M134.6,138.2c7.7,0,13,5.3,13,12.3c0,7.3-5.8,12.4-13,12.4h-7.3v-24.6H134.6z M134.5,160.4c6.2,0,10.4-4.1,10.4-9.9
				c0-5.7-4-9.9-10.4-9.9h-4.6v19.8H134.5z"/>
			<path d="M150.8,154.5c0-5,3.7-8.7,8.7-8.7c4.8,0,8.7,3.8,8.7,8.6c0,5-3.8,8.7-8.7,8.7C154.6,163.1,150.8,159.3,150.8,154.5z
				 M165.6,154.5c0-3.5-2.5-6.6-6.2-6.6c-3.7,0-6.1,3-6.1,6.5c0,3.5,2.5,6.6,6.2,6.6C163.1,160.9,165.6,158,165.6,154.5z"/>
			<path d="M186.1,161.7l-7.6-15.7h2.8l6.2,13l5.8-13h2.6l-11.5,25.1h-2.6L186.1,161.7z"/>
			<path d="M197.4,154.5c0-5,3.7-8.7,8.7-8.7c4.8,0,8.7,3.8,8.7,8.6c0,5-3.8,8.7-8.7,8.7C201.2,163.1,197.4,159.3,197.4,154.5z
				 M212.3,154.5c0-3.5-2.5-6.6-6.2-6.6c-3.7,0-6.1,3-6.1,6.5c0,3.5,2.5,6.6,6.2,6.6C209.7,160.9,212.3,158,212.3,154.5z"/>
			<path d="M221.3,155.8c0,3,1.5,5.1,4.7,5.1c2.9,0,5-2.3,5-5.3V146h2.4v16.8H231v-3.1c-1.3,2.3-3.3,3.4-5.8,3.4
				c-4.1,0-6.4-2.8-6.4-6.7V146h2.4V155.8z"/>
			<path d="M250,155.8c0,3,1.5,5.1,4.7,5.1c2.9,0,5-2.3,5-5.3V146h2.4v16.8h-2.4v-3.1c-1.3,2.3-3.3,3.4-5.8,3.4
				c-4.1,0-6.4-2.8-6.4-6.7V146h2.4V155.8z"/>
			<path d="M272.8,163.1c-4.6,0-6.1-3.1-6.4-5l2.3-0.5c0.3,1.5,1.5,3.3,4.1,3.3c1.8,0,3.5-1,3.5-2.7c0-2-2.2-2.5-3.9-2.8
				c-2.8-0.4-5.5-1.4-5.5-4.7c0-3.1,2.9-5,5.6-5c4.4,0,5.9,3,6.1,4.6l-2.2,0.5c-0.3-1.1-1.2-3-3.9-3c-1.8,0-3.2,1.2-3.2,2.7
				c0,2.1,2.3,2.4,4,2.6c2.7,0.3,5.5,1.8,5.5,4.8C278.7,161.1,276,163.1,272.8,163.1z"/>
			<path d="M284.3,155.2c0.2,3.3,2.7,5.8,6,5.8c2.5,0,4.4-1.2,5.2-3.6l2.2,0.7c-1,3.2-4,5.1-7.4,5.1c-4.9,0-8.5-3.9-8.5-8.7
				c0-4.6,3.5-8.7,8.2-8.7c5.2,0,7.9,3.7,7.9,8.6c0,0.3,0,0.6,0,0.8H284.3z M295.5,153.1c-0.3-3.1-2.2-5.2-5.4-5.2
				c-2.9,0-5.3,2.4-5.7,5.2H295.5z"/>
			<path d="M321.1,152c0-2.7-1.5-4.1-4.3-4.1c-2.8,0-4.1,1.8-4.4,3.4l-2.4-0.5c0.1-1.4,2-5.1,6.8-5.1c3.6,0,5.3,1.6,6.1,3.5
				c0.4,0.9,0.5,2.2,0.5,2.8v10.9h-2.4v-3h0c-1.3,2.1-3.1,3.2-5.7,3.2c-3.4,0-5.6-2.1-5.6-4.9V158c0-3.7,3.7-4.8,6.6-4.8h4.7V152z
				 M316.4,155.2c-1.8,0-4.2,0.6-4.2,2.8c0,1.9,1.6,3,3.6,3c3,0,5.2-2.1,5.2-5.2v-0.6H316.4z"/>
			<path d="M341,153c0-3-1.5-5.1-4.7-5.1c-2.9,0-5,2.3-5,5.3v9.6h-2.5V146h2.4v3.1c1.3-2.3,3.3-3.4,5.8-3.4c4.1,0,6.4,2.8,6.4,6.7
				v10.4H341V153z"/>
			<path d="M353.7,161.7l-7.6-15.7h2.8l6.2,13l5.8-13h2.6L352,171.1h-2.6L353.7,161.7z"/>
			<path d="M385.1,152c0-2.7-1.5-4.1-4.3-4.1c-2.8,0-4.1,1.8-4.4,3.4l-2.4-0.5c0.1-1.4,2-5.1,6.8-5.1c3.6,0,5.3,1.6,6.1,3.5
				c0.4,0.9,0.5,2.2,0.5,2.8v10.9h-2.4v-3h0c-1.3,2.1-3.1,3.2-5.7,3.2c-3.4,0-5.6-2.1-5.6-4.9V158c0-3.7,3.7-4.8,6.6-4.8h4.7V152z
				 M380.4,155.2c-1.8,0-4.2,0.6-4.2,2.8c0,1.9,1.6,3,3.6,3c3,0,5.2-2.1,5.2-5.2v-0.6H380.4z"/>
			<path d="M399.6,145.7c3.2,0,5.2,1.8,6.5,3.8v-12.3h2.4v25.6h-2.4v-3.6c-1.3,2.1-3.3,3.8-6.5,3.8c-4.8,0-7.9-4.1-7.9-8.7
				C391.7,150,394.8,145.7,399.6,145.7z M406.1,154.4c0-3.3-2.5-6.5-6-6.5c-3.7,0-5.9,2.9-5.9,6.5c0,3.5,2.2,6.5,5.9,6.5
				C403.6,160.9,406.1,157.8,406.1,154.4z"/>
			<path d="M420.7,145.7c3.2,0,5.2,1.8,6.5,3.8v-12.3h2.4v25.6h-2.4v-3.6c-1.3,2.1-3.3,3.8-6.5,3.8c-4.8,0-7.9-4.1-7.9-8.7
				C412.9,150,416,145.7,420.7,145.7z M427.3,154.4c0-3.3-2.5-6.5-6-6.5c-3.7,0-5.9,2.9-5.9,6.5c0,3.5,2.2,6.5,5.9,6.5
				C424.8,160.9,427.3,157.8,427.3,154.4z"/>
			<path d="M436.5,138.2c1,0,1.9,0.8,1.9,1.9c0,1-0.8,1.8-1.9,1.8c-1,0-1.8-0.8-1.8-1.8C434.6,139,435.5,138.2,436.5,138.2z
				 M437.7,146v16.8h-2.5V146H437.7z"/>
			<path d="M444.4,158.5v-10.3h-3.1V146h3.1v-4.8h2.4v4.8h4.2v2.2h-4.2v10.2c0,1.5,0.9,2.4,2.7,2.4c0.5,0,1.1,0,1.5-0.1v2
				c-0.5,0.2-1.5,0.3-1.9,0.3C445.5,163,444.4,160.9,444.4,158.5z"/>
			<path d="M456.4,138.2c1,0,1.9,0.8,1.9,1.9c0,1-0.8,1.8-1.9,1.8c-1,0-1.8-0.8-1.8-1.8C454.6,139,455.4,138.2,456.4,138.2z
				 M457.7,146v16.8h-2.5V146H457.7z"/>
			<path d="M462,154.5c0-5,3.7-8.7,8.7-8.7c4.8,0,8.7,3.8,8.7,8.6c0,5-3.8,8.7-8.7,8.7C465.8,163.1,462,159.3,462,154.5z
				 M476.9,154.5c0-3.5-2.5-6.6-6.2-6.6c-3.7,0-6.1,3-6.1,6.5c0,3.5,2.5,6.6,6.2,6.6C474.3,160.9,476.9,158,476.9,154.5z"/>
			<path d="M495.8,153c0-3-1.5-5.1-4.7-5.1c-2.9,0-5,2.3-5,5.3v9.6h-2.5V146h2.4v3.1c1.3-2.3,3.3-3.4,5.8-3.4c4.1,0,6.4,2.8,6.4,6.7
				v10.4h-2.5V153z"/>
			<path d="M513.7,152c0-2.7-1.5-4.1-4.3-4.1c-2.8,0-4.1,1.8-4.4,3.4l-2.4-0.5c0.1-1.4,2-5.1,6.8-5.1c3.6,0,5.3,1.6,6.1,3.5
				c0.4,0.9,0.5,2.2,0.5,2.8v10.9h-2.4v-3h0c-1.3,2.1-3.1,3.2-5.7,3.2c-3.4,0-5.6-2.1-5.6-4.9V158c0-3.7,3.7-4.8,6.6-4.8h4.7V152z
				 M509,155.2c-1.8,0-4.2,0.6-4.2,2.8c0,1.9,1.6,3,3.6,3c3,0,5.2-2.1,5.2-5.2v-0.6H509z"/>
			<path d="M523.9,137.2v25.6h-2.5v-25.6H523.9z"/>
			<path d="M547.2,163.1c-3.2,0-5.2-1.6-6.5-3.8v3.5h-2.4v-25.6h2.5v12.4c1.4-2.1,3.3-3.9,6.5-3.9c4.8,0,7.9,4.3,7.9,8.7
				C555.1,158.9,552,163.1,547.2,163.1z M552.6,154.5c0-3.5-2.2-6.5-5.9-6.5c-3.5,0-6,3.1-6,6.5c0,3.5,2.5,6.5,6,6.5
				C550.4,160.9,552.6,158,552.6,154.5z"/>
			<path d="M569.6,152c0-2.7-1.5-4.1-4.3-4.1c-2.8,0-4.1,1.8-4.4,3.4l-2.4-0.5c0.1-1.4,2-5.1,6.8-5.1c3.6,0,5.3,1.6,6.1,3.5
				c0.4,0.9,0.5,2.2,0.5,2.8v10.9h-2.4v-3h0c-1.3,2.1-3.1,3.2-5.7,3.2c-3.4,0-5.6-2.1-5.6-4.9V158c0-3.7,3.7-4.8,6.6-4.8h4.7V152z
				 M564.9,155.2c-1.8,0-4.2,0.6-4.2,2.8c0,1.9,1.6,3,3.6,3c3,0,5.2-2.1,5.2-5.2v-0.6H564.9z"/>
			<path d="M584.7,160.9c3.7,0,5.1-2.8,5.6-4l2.3,0.8c-0.8,2.5-3.5,5.4-7.9,5.4c-4.8,0-8.6-3.6-8.6-8.6c0-5.1,3.9-8.7,8.7-8.7
				c3.9,0,7,2.5,7.7,5.3l-2.3,0.7c-0.4-1.3-2-3.9-5.5-3.9c-3.6,0-6.1,2.9-6.1,6.4S580.9,160.9,584.7,160.9z"/>
			<path d="M599.1,162.8h-2.5v-25.6h2.5v15.7l8-6.8h3.5l-8.8,7.6l9.3,9.3h-3.4l-8.4-8.4h-0.1V162.8z"/>
			<path d="M616,155.8c0,3,1.5,5.1,4.7,5.1c2.9,0,5-2.3,5-5.3V146h2.4v16.8h-2.4v-3.1c-1.3,2.3-3.3,3.4-5.8,3.4
				c-4.1,0-6.4-2.8-6.4-6.7V146h2.4V155.8z"/>
			<path d="M642.6,163.1c-3.1,0-5.1-1.6-6.5-3.7v11.7h-2.5V146h2.4v3.7c1.4-2.1,3.3-3.9,6.5-3.9c4.8,0,7.9,4.3,7.9,8.7
				C650.5,158.9,647.4,163.1,642.6,163.1z M648,154.5c0-3.5-2.2-6.5-5.9-6.5c-3.5,0-6,3.1-6,6.5c0,3.5,2.5,6.5,6,6.5
				C645.9,160.9,648,158,648,154.5z"/>
			<path d="M662.4,154.5c0-5,3.7-8.7,8.7-8.7c4.8,0,8.7,3.8,8.7,8.6c0,5-3.8,8.7-8.7,8.7C666.2,163.1,662.4,159.3,662.4,154.5z
				 M677.3,154.5c0-3.5-2.5-6.6-6.2-6.6c-3.7,0-6.1,3-6.1,6.5c0,3.5,2.5,6.6,6.2,6.6C674.7,160.9,677.3,158,677.3,154.5z"/>
			<path d="M686.5,149.4c1.3-2.6,3.5-3.6,5.4-3.6c0.2,0,0.6,0,0.8,0v2.6c-0.3,0-0.6-0.1-0.9-0.1c-4,0-5.3,3.3-5.3,6.3v8.2h-2.5V146
				h2.4V149.4z"/>
			<path d="M706.3,149.4c1.3-2.6,3.5-3.6,5.4-3.6c0.2,0,0.6,0,0.8,0v2.6c-0.3,0-0.6-0.1-0.9-0.1c-4,0-5.3,3.3-5.3,6.3v8.2h-2.5V146
				h2.4V149.4z"/>
			<path d="M716.5,155.2c0.2,3.3,2.7,5.8,6,5.8c2.5,0,4.4-1.2,5.2-3.6l2.2,0.7c-1,3.2-4,5.1-7.4,5.1c-4.9,0-8.5-3.9-8.5-8.7
				c0-4.6,3.5-8.7,8.2-8.7c5.2,0,7.9,3.7,7.9,8.6c0,0.3,0,0.6,0,0.8H716.5z M727.7,153.1c-0.3-3.1-2.2-5.2-5.4-5.2
				c-2.9,0-5.3,2.4-5.7,5.2H727.7z"/>
			<path d="M741.7,160.9c3.7,0,5.1-2.8,5.6-4l2.3,0.8c-0.8,2.5-3.5,5.4-7.9,5.4c-4.8,0-8.6-3.6-8.6-8.6c0-5.1,3.9-8.7,8.7-8.7
				c3.9,0,7,2.5,7.7,5.3l-2.3,0.7c-0.4-1.3-2-3.9-5.5-3.9c-3.6,0-6.1,2.9-6.1,6.4S737.9,160.9,741.7,160.9z"/>
			<path d="M752.5,154.5c0-5,3.7-8.7,8.7-8.7c4.8,0,8.7,3.8,8.7,8.6c0,5-3.8,8.7-8.7,8.7C756.3,163.1,752.5,159.3,752.5,154.5z
				 M767.3,154.5c0-3.5-2.5-6.6-6.2-6.6s-6.1,3-6.1,6.5c0,3.5,2.5,6.6,6.2,6.6C764.8,160.9,767.3,158,767.3,154.5z"/>
			<path d="M771.5,146h2.7l5.8,14.1l5.9-14.1h2.6l-7.2,16.8h-2.6L771.5,146z"/>
			<path d="M792.6,155.2c0.2,3.3,2.7,5.8,6,5.8c2.5,0,4.4-1.2,5.2-3.6l2.2,0.7c-1,3.2-4,5.1-7.4,5.1c-4.9,0-8.5-3.9-8.5-8.7
				c0-4.6,3.5-8.7,8.2-8.7c5.2,0,7.9,3.7,7.9,8.6c0,0.3,0,0.6,0,0.8H792.6z M803.8,153.1c-0.3-3.1-2.2-5.2-5.4-5.2
				c-2.9,0-5.3,2.4-5.7,5.2H803.8z"/>
			<path d="M812.9,149.4c1.3-2.6,3.5-3.6,5.4-3.6c0.2,0,0.6,0,0.8,0v2.6c-0.3,0-0.6-0.1-0.9-0.1c-4,0-5.3,3.3-5.3,6.3v8.2h-2.5V146
				h2.4V149.4z"/>
			<path d="M828,161.7l-7.6-15.7h2.8l6.2,13l5.8-13h2.6l-11.5,25.1h-2.6L828,161.7z"/>
			<path d="M137.7,198.7c3.7,0,5.1-2.8,5.6-4l2.3,0.8c-0.8,2.5-3.5,5.4-7.9,5.4c-4.8,0-8.6-3.6-8.6-8.6c0-5.1,3.9-8.7,8.7-8.7
				c3.9,0,7,2.5,7.7,5.3l-2.3,0.7c-0.4-1.3-2-3.9-5.5-3.9c-3.6,0-6.1,2.9-6.1,6.4S133.9,198.7,137.7,198.7z"/>
			<path d="M159.8,189.8c0-2.7-1.5-4.1-4.3-4.1c-2.8,0-4.1,1.8-4.4,3.4l-2.4-0.5c0.1-1.4,2-5.1,6.8-5.1c3.6,0,5.3,1.6,6.1,3.5
				c0.4,0.9,0.5,2.2,0.5,2.8v10.9h-2.4v-3h0c-1.3,2.1-3.1,3.2-5.7,3.2c-3.4,0-5.6-2.1-5.6-4.9v-0.2c0-3.7,3.7-4.8,6.6-4.8h4.7V189.8
				z M155.1,192.9c-1.8,0-4.2,0.6-4.2,2.8c0,1.9,1.6,3,3.6,3c3,0,5.2-2.1,5.2-5.2v-0.6H155.1z"/>
			<path d="M176.5,200.8c-3.1,0-5.1-1.6-6.5-3.7v11.7h-2.5v-25.1h2.4v3.7c1.4-2.1,3.3-3.9,6.5-3.9c4.8,0,7.9,4.3,7.9,8.7
				C184.4,196.7,181.3,200.8,176.5,200.8z M181.9,192.2c0-3.5-2.2-6.5-5.9-6.5c-3.5,0-6,3.1-6,6.5c0,3.5,2.5,6.5,6,6.5
				C179.7,198.7,181.9,195.8,181.9,192.2z"/>
			<path d="M198.8,189.8c0-2.7-1.5-4.1-4.3-4.1c-2.8,0-4.1,1.8-4.4,3.4l-2.4-0.5c0.1-1.4,2-5.1,6.8-5.1c3.6,0,5.3,1.6,6.1,3.5
				c0.4,0.9,0.5,2.2,0.5,2.8v10.9h-2.4v-3h0c-1.3,2.1-3.1,3.2-5.7,3.2c-3.4,0-5.6-2.1-5.6-4.9v-0.2c0-3.7,3.7-4.8,6.6-4.8h4.7V189.8
				z M194.2,192.9c-1.8,0-4.2,0.6-4.2,2.8c0,1.9,1.6,3,3.6,3c3,0,5.2-2.1,5.2-5.2v-0.6H194.2z"/>
			<path d="M215.5,200.8c-3.2,0-5.2-1.6-6.5-3.8v3.5h-2.4V175h2.5v12.4c1.4-2.1,3.3-3.9,6.5-3.9c4.8,0,7.9,4.3,7.9,8.7
				C223.4,196.7,220.3,200.8,215.5,200.8z M220.9,192.2c0-3.5-2.2-6.5-5.9-6.5c-3.5,0-6,3.1-6,6.5c0,3.5,2.5,6.5,6,6.5
				C218.7,198.7,220.9,195.8,220.9,192.2z"/>
			<path d="M229,175.9c1,0,1.9,0.8,1.9,1.9c0,1-0.8,1.8-1.9,1.8c-1,0-1.8-0.8-1.8-1.8C227.2,176.7,228,175.9,229,175.9z
				 M230.2,183.8v16.8h-2.5v-16.8H230.2z"/>
			<path d="M238.3,174.9v25.6h-2.5v-25.6H238.3z"/>
			<path d="M245,175.9c1,0,1.9,0.8,1.9,1.9c0,1-0.8,1.8-1.9,1.8c-1,0-1.8-0.8-1.8-1.8C243.2,176.7,244,175.9,245,175.9z
				 M246.3,183.8v16.8h-2.5v-16.8H246.3z"/>
			<path d="M253,196.3V186h-3.1v-2.2h3.1v-4.8h2.4v4.8h4.2v2.2h-4.2v10.2c0,1.5,0.9,2.4,2.7,2.4c0.5,0,1.1,0,1.5-0.1v2
				c-0.5,0.2-1.5,0.3-1.9,0.3C254.1,200.7,253,198.7,253,196.3z"/>
			<path d="M265,175.9c1,0,1.9,0.8,1.9,1.9c0,1-0.8,1.8-1.9,1.8c-1,0-1.8-0.8-1.8-1.8C263.2,176.7,264,175.9,265,175.9z
				 M266.3,183.8v16.8h-2.5v-16.8H266.3z"/>
			<path d="M273.1,192.9c0.2,3.3,2.7,5.8,6,5.8c2.5,0,4.4-1.2,5.2-3.6l2.2,0.7c-1,3.2-4,5.1-7.4,5.1c-4.9,0-8.5-3.9-8.5-8.7
				c0-4.6,3.5-8.7,8.2-8.7c5.2,0,7.9,3.7,7.9,8.6c0,0.3,0,0.6,0,0.8H273.1z M284.2,190.9c-0.3-3.1-2.2-5.2-5.4-5.2
				c-2.9,0-5.3,2.4-5.7,5.2H284.2z"/>
			<path d="M296,200.9c-4.6,0-6.1-3.1-6.4-5l2.3-0.5c0.3,1.5,1.5,3.3,4.1,3.3c1.8,0,3.5-1,3.5-2.7c0-2-2.2-2.5-3.9-2.8
				c-2.8-0.4-5.5-1.4-5.5-4.7c0-3.1,2.9-5,5.6-5c4.4,0,5.9,3,6.1,4.6l-2.2,0.5c-0.3-1.1-1.2-3-3.9-3c-1.8,0-3.2,1.2-3.2,2.7
				c0,2.1,2.3,2.4,4,2.6c2.7,0.3,5.5,1.8,5.5,4.8C302,198.9,299.3,200.9,296,200.9z"/>
			<path d="M318.8,180.6v3.2h4.4v2.1h-4.4v14.7h-2.5v-14.7h-3.2v-2.1h3.2v-3.1c0-3.9,2.2-5.8,5.2-5.8c0.4,0,1.2,0.1,1.9,0.3v2.1
				c-0.7-0.2-1.4-0.2-1.8-0.2C320.4,177.1,318.8,177.7,318.8,180.6z"/>
			<path d="M324.9,192.3c0-5,3.7-8.7,8.7-8.7c4.8,0,8.7,3.8,8.7,8.6c0,5-3.8,8.7-8.7,8.7C328.6,200.9,324.9,197,324.9,192.3z
				 M339.7,192.3c0-3.5-2.5-6.6-6.2-6.6c-3.7,0-6.1,3-6.1,6.5c0,3.5,2.5,6.6,6.2,6.6C337.2,198.7,339.7,195.7,339.7,192.3z"/>
			<path d="M349,187.1c1.3-2.6,3.5-3.6,5.4-3.6c0.2,0,0.6,0,0.8,0v2.6c-0.3,0-0.6-0.1-0.9-0.1c-4,0-5.3,3.3-5.3,6.3v8.2h-2.5v-16.8
				h2.4V187.1z"/>
			<path d="M373.7,198.7c3.7,0,5.1-2.8,5.6-4l2.3,0.8c-0.8,2.5-3.5,5.4-7.9,5.4c-4.8,0-8.6-3.6-8.6-8.6c0-5.1,3.9-8.7,8.7-8.7
				c3.9,0,7,2.5,7.7,5.3l-2.3,0.7c-0.4-1.3-2-3.9-5.5-3.9c-3.6,0-6.1,2.9-6.1,6.4S369.9,198.7,373.7,198.7z"/>
			<path d="M388.2,174.9v25.6h-2.5v-25.6H388.2z"/>
			<path d="M392.5,192.3c0-5,3.7-8.7,8.7-8.7c4.8,0,8.7,3.8,8.7,8.6c0,5-3.8,8.7-8.7,8.7C396.3,200.9,392.5,197,392.5,192.3z
				 M407.3,192.3c0-3.5-2.5-6.6-6.2-6.6c-3.7,0-6.1,3-6.1,6.5c0,3.5,2.5,6.6,6.2,6.6C404.8,198.7,407.3,195.7,407.3,192.3z"/>
			<path d="M416.4,193.6c0,3,1.5,5.1,4.7,5.1c2.9,0,5-2.3,5-5.3v-9.6h2.4v16.8h-2.4v-3.1c-1.3,2.3-3.3,3.4-5.8,3.4
				c-4.1,0-6.4-2.8-6.4-6.7v-10.4h2.4V193.6z"/>
			<path d="M440.7,183.5c3.2,0,5.2,1.8,6.5,3.8V175h2.4v25.6h-2.4V197c-1.3,2.1-3.3,3.8-6.5,3.8c-4.8,0-7.9-4.1-7.9-8.7
				C432.9,187.8,436,183.5,440.7,183.5z M447.3,192.1c0-3.3-2.5-6.5-6-6.5c-3.7,0-5.9,2.9-5.9,6.5c0,3.5,2.2,6.5,5.9,6.5
				C444.8,198.7,447.3,195.6,447.3,192.1z"/>
			<path d="M463.8,189.5v2.6h-9v-2.6H463.8z"/>
			<path d="M477.9,200.8c-3.2,0-5.2-1.6-6.5-3.8v3.5H469V175h2.5v12.4c1.4-2.1,3.3-3.9,6.5-3.9c4.8,0,7.9,4.3,7.9,8.7
				C485.8,196.7,482.7,200.8,477.9,200.8z M483.3,192.2c0-3.5-2.2-6.5-5.9-6.5c-3.5,0-6,3.1-6,6.5c0,3.5,2.5,6.5,6,6.5
				C481.1,198.7,483.3,195.8,483.3,192.2z"/>
			<path d="M500.3,189.8c0-2.7-1.5-4.1-4.3-4.1c-2.8,0-4.1,1.8-4.4,3.4l-2.4-0.5c0.1-1.4,2-5.1,6.8-5.1c3.6,0,5.3,1.6,6.1,3.5
				c0.4,0.9,0.5,2.2,0.5,2.8v10.9h-2.4v-3h0c-1.3,2.1-3.1,3.2-5.7,3.2c-3.4,0-5.6-2.1-5.6-4.9v-0.2c0-3.7,3.7-4.8,6.6-4.8h4.7V189.8
				z M495.6,192.9c-1.8,0-4.2,0.6-4.2,2.8c0,1.9,1.6,3,3.6,3c3,0,5.2-2.1,5.2-5.2v-0.6H495.6z"/>
			<path d="M513.1,200.9c-4.6,0-6.1-3.1-6.4-5l2.3-0.5c0.3,1.5,1.5,3.3,4.1,3.3c1.8,0,3.5-1,3.5-2.7c0-2-2.2-2.5-3.9-2.8
				c-2.8-0.4-5.5-1.4-5.5-4.7c0-3.1,2.9-5,5.6-5c4.4,0,5.9,3,6.1,4.6l-2.2,0.5c-0.3-1.1-1.2-3-3.9-3c-1.8,0-3.2,1.2-3.2,2.7
				c0,2.1,2.3,2.4,4,2.6c2.7,0.3,5.5,1.8,5.5,4.8C519.1,198.9,516.4,200.9,513.1,200.9z"/>
			<path d="M524.7,192.9c0.2,3.3,2.7,5.8,6,5.8c2.5,0,4.4-1.2,5.2-3.6l2.2,0.7c-1,3.2-4,5.1-7.4,5.1c-4.9,0-8.5-3.9-8.5-8.7
				c0-4.6,3.5-8.7,8.2-8.7c5.2,0,7.9,3.7,7.9,8.6c0,0.3,0,0.6,0,0.8H524.7z M535.9,190.9c-0.3-3.1-2.2-5.2-5.4-5.2
				c-2.9,0-5.3,2.4-5.7,5.2H535.9z"/>
			<path d="M549.2,183.5c3.2,0,5.2,1.8,6.5,3.8V175h2.4v25.6h-2.4V197c-1.3,2.1-3.3,3.8-6.5,3.8c-4.8,0-7.9-4.1-7.9-8.7
				C541.4,187.8,544.5,183.5,549.2,183.5z M555.8,192.1c0-3.3-2.5-6.5-6-6.5c-3.7,0-5.9,2.9-5.9,6.5c0,3.5,2.2,6.5,5.9,6.5
				C553.3,198.7,555.8,195.6,555.8,192.1z"/>
			<path d="M575.8,176v24.6h-2.6V176H575.8z"/>
			<path d="M588.1,200.6v-22.2h-8.2V176h19.1v2.4h-8.2v22.2H588.1z"/>
			<path d="M615.1,200.9c-4.6,0-6.1-3.1-6.4-5l2.3-0.5c0.3,1.5,1.5,3.3,4.1,3.3c1.8,0,3.5-1,3.5-2.7c0-2-2.2-2.5-3.9-2.8
				c-2.8-0.4-5.5-1.4-5.5-4.7c0-3.1,2.9-5,5.6-5c4.4,0,5.9,3,6.1,4.6l-2.2,0.5c-0.3-1.1-1.2-3-3.9-3c-1.8,0-3.2,1.2-3.2,2.7
				c0,2.1,2.3,2.4,4,2.6c2.7,0.3,5.5,1.8,5.5,4.8C621.1,198.9,618.4,200.9,615.1,200.9z"/>
			<path d="M630.3,199.5l-7.6-15.7h2.8l6.2,13l5.8-13h2.6l-11.5,25.1h-2.6L630.3,199.5z"/>
			<path d="M648,200.9c-4.6,0-6.1-3.1-6.4-5l2.3-0.5c0.3,1.5,1.5,3.3,4.1,3.3c1.8,0,3.5-1,3.5-2.7c0-2-2.2-2.5-3.9-2.8
				c-2.8-0.4-5.5-1.4-5.5-4.7c0-3.1,2.9-5,5.6-5c4.4,0,5.9,3,6.1,4.6l-2.2,0.5c-0.3-1.1-1.2-3-3.9-3c-1.8,0-3.2,1.2-3.2,2.7
				c0,2.1,2.3,2.4,4,2.6c2.7,0.3,5.5,1.8,5.5,4.8C653.9,198.9,651.2,200.9,648,200.9z"/>
			<path d="M659.2,196.3V186h-3.1v-2.2h3.1v-4.8h2.4v4.8h4.2v2.2h-4.2v10.2c0,1.5,0.9,2.4,2.7,2.4c0.5,0,1.1,0,1.5-0.1v2
				c-0.5,0.2-1.5,0.3-1.9,0.3C660.3,200.7,659.2,198.7,659.2,196.3z"/>
			<path d="M671,192.9c0.2,3.3,2.7,5.8,6,5.8c2.5,0,4.4-1.2,5.2-3.6l2.2,0.7c-1,3.2-4,5.1-7.4,5.1c-4.9,0-8.5-3.9-8.5-8.7
				c0-4.6,3.5-8.7,8.2-8.7c5.2,0,7.9,3.7,7.9,8.6c0,0.3,0,0.6,0,0.8H671z M682.1,190.9c-0.3-3.1-2.2-5.2-5.4-5.2
				c-2.9,0-5.3,2.4-5.7,5.2H682.1z"/>
			<path d="M700.3,190.7c0-2.8-1.3-5-4.3-5c-2.9,0-4.7,2.6-4.7,5.3v9.6h-2.5v-16.8h2.4v2.9c1.4-2,2.9-3.2,5.4-3.2
				c2.5,0,4.4,1.2,5.4,3.4c1.4-2.2,3.3-3.3,5.9-3.3c4.1,0,6.2,2.8,6.2,6.7v10.4h-2.5v-9.8c0-2.8-1.3-5.1-4.3-5.1
				c-3,0-4.7,2.4-4.7,5.2v9.7h-2.4V190.7z"/>
			<path d="M724.6,200.9c-4.6,0-6.1-3.1-6.4-5l2.3-0.5c0.3,1.5,1.5,3.3,4.1,3.3c1.8,0,3.5-1,3.5-2.7c0-2-2.2-2.5-3.9-2.8
				c-2.8-0.4-5.5-1.4-5.5-4.7c0-3.1,2.9-5,5.6-5c4.4,0,5.9,3,6.1,4.6l-2.2,0.5c-0.3-1.1-1.2-3-3.9-3c-1.8,0-3.2,1.2-3.2,2.7
				c0,2.1,2.3,2.4,4,2.6c2.7,0.3,5.5,1.8,5.5,4.8C730.6,198.9,727.9,200.9,724.6,200.9z"/>
			<path d="M752.7,200.8c-3.2,0-5.2-1.6-6.5-3.8v3.5h-2.4V175h2.5v12.4c1.4-2.1,3.3-3.9,6.5-3.9c4.8,0,7.9,4.3,7.9,8.7
				C760.5,196.7,757.4,200.8,752.7,200.8z M758,192.2c0-3.5-2.2-6.5-5.9-6.5c-3.5,0-6,3.1-6,6.5c0,3.5,2.5,6.5,6,6.5
				C755.9,198.7,758,195.8,758,192.2z"/>
			<path d="M766.1,192.9c0.2,3.3,2.7,5.8,6,5.8c2.5,0,4.4-1.2,5.2-3.6l2.2,0.7c-1,3.2-4,5.1-7.4,5.1c-4.9,0-8.5-3.9-8.5-8.7
				c0-4.6,3.5-8.7,8.2-8.7c5.2,0,7.9,3.7,7.9,8.6c0,0.3,0,0.6,0,0.8H766.1z M777.3,190.9c-0.3-3.1-2.2-5.2-5.4-5.2
				c-2.9,0-5.3,2.4-5.7,5.2H777.3z"/>
			<path d="M788.9,199.5l-7.6-15.7h2.8l6.2,13l5.8-13h2.6l-11.5,25.1h-2.6L788.9,199.5z"/>
			<path d="M800.2,192.3c0-5,3.7-8.7,8.7-8.7c4.8,0,8.7,3.8,8.7,8.6c0,5-3.8,8.7-8.7,8.7C804,200.9,800.2,197,800.2,192.3z
				 M815.1,192.3c0-3.5-2.5-6.6-6.2-6.6s-6.1,3-6.1,6.5c0,3.5,2.5,6.6,6.2,6.6C812.5,198.7,815.1,195.7,815.1,192.3z"/>
			<path d="M834,190.8c0-3-1.5-5.1-4.7-5.1c-2.9,0-5,2.3-5,5.3v9.6h-2.5v-16.8h2.4v3.1c1.3-2.3,3.3-3.4,5.8-3.4
				c4.1,0,6.4,2.8,6.4,6.7v10.4H834V190.8z"/>
			<path d="M848.4,183.5c3.2,0,5.2,1.8,6.5,3.8V175h2.4v25.6H855V197c-1.3,2.1-3.3,3.8-6.5,3.8c-4.8,0-7.9-4.1-7.9-8.7
				C840.6,187.8,843.7,183.5,848.4,183.5z M855,192.1c0-3.3-2.5-6.5-6-6.5c-3.7,0-5.9,2.9-5.9,6.5c0,3.5,2.2,6.5,5.9,6.5
				C852.5,198.7,855,195.6,855,192.1z"/>
			<path d="M131.4,234v-10.3h-3.1v-2.2h3.1v-4.8h2.4v4.8h4.2v2.2h-4.2V234c0,1.5,0.9,2.4,2.7,2.4c0.5,0,1.1,0,1.5-0.1v2
				c-0.5,0.2-1.5,0.3-1.9,0.3C132.5,238.5,131.4,236.5,131.4,234z"/>
			<path d="M154.4,228.6c0-3-1.5-5.1-4.7-5.1c-2.9,0-5,2.3-5,5.3v9.6h-2.5v-25.6h2.5v11.8c1.3-2.2,3.3-3.3,5.8-3.3
				c4.1,0,6.4,2.8,6.4,6.7v10.4h-2.5V228.6z"/>
			<path d="M160.9,230c0-5,3.7-8.7,8.7-8.7c4.8,0,8.7,3.8,8.7,8.6c0,5-3.8,8.7-8.7,8.7C164.7,238.6,160.9,234.8,160.9,230z
				 M175.8,230c0-3.5-2.5-6.6-6.2-6.6c-3.7,0-6.1,3-6.1,6.5c0,3.5,2.5,6.6,6.2,6.6C173.2,236.5,175.8,233.5,175.8,230z"/>
			<path d="M187.7,238.6c-4.6,0-6.1-3.1-6.4-5l2.3-0.5c0.3,1.5,1.5,3.3,4.1,3.3c1.8,0,3.5-1,3.5-2.7c0-2-2.2-2.5-3.9-2.8
				c-2.8-0.4-5.5-1.4-5.5-4.7c0-3.1,2.9-5,5.6-5c4.4,0,5.9,3,6.1,4.6l-2.2,0.5c-0.3-1.1-1.2-3-3.9-3c-1.8,0-3.2,1.2-3.2,2.7
				c0,2.1,2.3,2.4,4,2.6c2.7,0.3,5.5,1.8,5.5,4.8C193.7,236.7,191,238.6,187.7,238.6z"/>
			<path d="M199.3,230.7c0.2,3.3,2.7,5.8,6,5.8c2.5,0,4.4-1.2,5.2-3.6l2.2,0.7c-1,3.2-4,5.1-7.4,5.1c-4.9,0-8.5-3.9-8.5-8.7
				c0-4.6,3.5-8.7,8.2-8.7c5.2,0,7.9,3.7,7.9,8.6c0,0.3,0,0.6,0,0.8H199.3z M210.5,228.6c-0.3-3.1-2.2-5.2-5.4-5.2
				c-2.9,0-5.3,2.4-5.7,5.2H210.5z"/>
			<path d="M227.2,213.7c1,0,1.9,0.8,1.9,1.9c0,1-0.8,1.8-1.9,1.8c-1,0-1.8-0.8-1.8-1.8C225.3,214.5,226.2,213.7,227.2,213.7z
				 M228.4,221.6v16.8h-2.5v-16.8H228.4z"/>
			<path d="M246.1,228.6c0-3-1.5-5.1-4.7-5.1c-2.9,0-5,2.3-5,5.3v9.6H234v-16.8h2.4v3.1c1.3-2.3,3.3-3.4,5.8-3.4
				c4.1,0,6.4,2.8,6.4,6.7v10.4h-2.5V228.6z"/>
			<path d="M261.2,236.5c3.7,0,5.1-2.8,5.6-4l2.3,0.8c-0.8,2.5-3.5,5.4-7.9,5.4c-4.8,0-8.6-3.6-8.6-8.6c0-5.1,3.9-8.7,8.7-8.7
				c3.9,0,7,2.5,7.7,5.3l-2.3,0.7c-0.4-1.3-2-3.9-5.5-3.9c-3.6,0-6.1,2.9-6.1,6.4S257.4,236.5,261.2,236.5z"/>
			<path d="M275.7,212.7v25.6h-2.5v-25.6H275.7z"/>
			<path d="M283.5,231.3c0,3,1.5,5.1,4.7,5.1c2.9,0,5-2.3,5-5.3v-9.6h2.4v16.8h-2.4v-3.1c-1.3,2.3-3.3,3.4-5.8,3.4
				c-4.1,0-6.4-2.8-6.4-6.7v-10.4h2.4V231.3z"/>
			<path d="M307.8,221.3c3.2,0,5.2,1.8,6.5,3.8v-12.3h2.4v25.6h-2.4v-3.6c-1.3,2.1-3.3,3.8-6.5,3.8c-4.8,0-7.9-4.1-7.9-8.7
				C299.9,225.5,303,221.3,307.8,221.3z M314.3,229.9c0-3.3-2.5-6.5-6-6.5c-3.7,0-5.9,2.9-5.9,6.5c0,3.5,2.2,6.5,5.9,6.5
				C311.8,236.4,314.3,233.4,314.3,229.9z"/>
			<path d="M323.5,230.7c0.2,3.3,2.7,5.8,6,5.8c2.5,0,4.4-1.2,5.2-3.6l2.2,0.7c-1,3.2-4,5.1-7.4,5.1c-4.9,0-8.5-3.9-8.5-8.7
				c0-4.6,3.5-8.7,8.2-8.7c5.2,0,7.9,3.7,7.9,8.6c0,0.3,0,0.6,0,0.8H323.5z M334.7,228.6c-0.3-3.1-2.2-5.2-5.4-5.2
				c-2.9,0-5.3,2.4-5.7,5.2H334.7z"/>
			<path d="M348.1,221.3c3.2,0,5.2,1.8,6.5,3.8v-12.3h2.4v25.6h-2.4v-3.6c-1.3,2.1-3.3,3.8-6.5,3.8c-4.8,0-7.9-4.1-7.9-8.7
				C340.2,225.5,343.3,221.3,348.1,221.3z M354.6,229.9c0-3.3-2.5-6.5-6-6.5c-3.7,0-5.9,2.9-5.9,6.5c0,3.5,2.2,6.5,5.9,6.5
				C352.1,236.4,354.6,233.4,354.6,229.9z"/>
			<path d="M375,238.4l-5.6-16.8h2.6l4.4,13.9h0l4.6-13.9h2.5l4.6,14h0l4.4-14h2.5l-5.7,16.8h-2.7l-4.4-13.7h0l-4.5,13.7H375z"/>
			<path d="M399.8,213.7c1,0,1.9,0.8,1.9,1.9c0,1-0.8,1.8-1.9,1.8c-1,0-1.8-0.8-1.8-1.8C398,214.5,398.8,213.7,399.8,213.7z
				 M401.1,221.6v16.8h-2.5v-16.8H401.1z"/>
			<path d="M407.8,234v-10.3h-3.1v-2.2h3.1v-4.8h2.4v4.8h4.2v2.2h-4.2V234c0,1.5,0.9,2.4,2.7,2.4c0.5,0,1.1,0,1.5-0.1v2
				c-0.5,0.2-1.5,0.3-1.9,0.3C408.9,238.5,407.8,236.5,407.8,234z"/>
			<path d="M430.7,228.6c0-3-1.5-5.1-4.7-5.1c-2.9,0-5,2.3-5,5.3v9.6h-2.5v-25.6h2.5v11.8c1.3-2.2,3.3-3.3,5.8-3.3
				c4.1,0,6.4,2.8,6.4,6.7v10.4h-2.5V228.6z"/>
			<path d="M448.4,234v-10.3h-3.1v-2.2h3.1v-4.8h2.4v4.8h4.2v2.2h-4.2V234c0,1.5,0.9,2.4,2.7,2.4c0.5,0,1.1,0,1.5-0.1v2
				c-0.5,0.2-1.5,0.3-1.9,0.3C449.5,238.5,448.4,236.5,448.4,234z"/>
			<path d="M471.3,228.6c0-3-1.5-5.1-4.7-5.1c-2.9,0-5,2.3-5,5.3v9.6h-2.5v-25.6h2.5v11.8c1.3-2.2,3.3-3.3,5.8-3.3
				c4.1,0,6.4,2.8,6.4,6.7v10.4h-2.5V228.6z"/>
			<path d="M480.4,230.7c0.2,3.3,2.7,5.8,6,5.8c2.5,0,4.4-1.2,5.2-3.6l2.2,0.7c-1,3.2-4,5.1-7.4,5.1c-4.9,0-8.5-3.9-8.5-8.7
				c0-4.6,3.5-8.7,8.2-8.7c5.2,0,7.9,3.7,7.9,8.6c0,0.3,0,0.6,0,0.8H480.4z M491.5,228.6c-0.3-3.1-2.2-5.2-5.4-5.2
				c-2.9,0-5.3,2.4-5.7,5.2H491.5z"/>
			<path d="M512.1,238.6c-4.6,0-6.1-3.1-6.4-5l2.3-0.5c0.3,1.5,1.5,3.3,4.1,3.3c1.8,0,3.5-1,3.5-2.7c0-2-2.2-2.5-3.9-2.8
				c-2.8-0.4-5.5-1.4-5.5-4.7c0-3.1,2.9-5,5.6-5c4.4,0,5.9,3,6.1,4.6l-2.2,0.5c-0.3-1.1-1.2-3-3.9-3c-1.8,0-3.2,1.2-3.2,2.7
				c0,2.1,2.3,2.4,4,2.6c2.7,0.3,5.5,1.8,5.5,4.8C518.1,236.7,515.3,238.6,512.1,238.6z"/>
			<path d="M523.7,230.7c0.2,3.3,2.7,5.8,6,5.8c2.5,0,4.4-1.2,5.2-3.6l2.2,0.7c-1,3.2-4,5.1-7.4,5.1c-4.9,0-8.5-3.9-8.5-8.7
				c0-4.6,3.5-8.7,8.2-8.7c5.2,0,7.9,3.7,7.9,8.6c0,0.3,0,0.6,0,0.8H523.7z M534.8,228.6c-0.3-3.1-2.2-5.2-5.4-5.2
				c-2.9,0-5.3,2.4-5.7,5.2H534.8z"/>
			<path d="M544,224.9c1.3-2.6,3.5-3.6,5.4-3.6c0.2,0,0.6,0,0.8,0v2.6c-0.3,0-0.6-0.1-0.9-0.1c-4,0-5.3,3.3-5.3,6.3v8.2h-2.5v-16.8
				h2.4V224.9z"/>
			<path d="M551.4,221.6h2.7l5.8,14.1l5.9-14.1h2.6l-7.2,16.8h-2.6L551.4,221.6z"/>
			<path d="M573.1,213.7c1,0,1.9,0.8,1.9,1.9c0,1-0.8,1.8-1.9,1.8c-1,0-1.8-0.8-1.8-1.8C571.3,214.5,572.1,213.7,573.1,213.7z
				 M574.4,221.6v16.8h-2.5v-16.8H574.4z"/>
			<path d="M587.3,236.5c3.7,0,5.1-2.8,5.6-4l2.3,0.8c-0.8,2.5-3.5,5.4-7.9,5.4c-4.8,0-8.6-3.6-8.6-8.6c0-5.1,3.9-8.7,8.7-8.7
				c3.9,0,7,2.5,7.7,5.3l-2.3,0.7c-0.4-1.3-2-3.9-5.5-3.9c-3.6,0-6.1,2.9-6.1,6.4S583.4,236.5,587.3,236.5z"/>
			<path d="M600.5,230.7c0.2,3.3,2.7,5.8,6,5.8c2.5,0,4.4-1.2,5.2-3.6l2.2,0.7c-1,3.2-4,5.1-7.4,5.1c-4.9,0-8.5-3.9-8.5-8.7
				c0-4.6,3.5-8.7,8.2-8.7c5.2,0,7.9,3.7,7.9,8.6c0,0.3,0,0.6,0,0.8H600.5z M611.6,228.6c-0.3-3.1-2.2-5.2-5.4-5.2
				c-2.9,0-5.3,2.4-5.7,5.2H611.6z"/>
			<path d="M621.6,231.2c0-0.2,0-0.4,0-0.6c0-2.9,1.8-4.3,3.1-5.8c1.4-1.5,3.1-2.8,3.1-5c0-2-1.4-4-4.6-4c-3.2,0-4.9,2.3-4.7,5.3
				l-2.5-0.1c0-0.3,0-0.5,0-0.7c0-4.1,3.4-6.9,7.3-6.9c4.4,0,7.2,3.1,7.2,6.5c0,2.5-1.5,4-3.7,6.2c-1.6,1.6-2.7,2.6-2.8,5.1H621.6z
				 M622.7,238.6c1,0,1.8-0.8,1.8-1.9c0-1-0.8-1.8-1.8-1.8c-1,0-1.9,0.8-1.9,1.8C620.9,237.8,621.7,238.6,622.7,238.6z"/>
		</g>
	</g>
	<g>
		<g>
			<g>
				<pattern  id="SVGID_1_" xlink:href="#Unnamed_Pattern_4" patternTransform="matrix(0 1.3112 -1.2587 0 -25673.6367 1669.2273)">
				</pattern>
				<rect x="100" y="654.5" class="st6" width="71.3" height="189.3"/>
			</g>
			<g class="st4">
				<path class="st7" d="M115.2,623l-3.9,2.4l-0.8-1.3l4.8-2.9h1.7v16.4h-1.7V623z"/>
				<path class="st7" d="M120.4,633.1c0-1.7,1.2-3.3,3.4-4c-2-0.6-3-2.4-3-3.8c0-2.9,3-4.4,5.4-4.4c2.5,0,5.4,1.4,5.4,4.4
					c0,1.6-1.1,3.2-3.1,3.8c2.3,0.7,3.4,2.3,3.4,4c0,3-2.9,4.7-5.8,4.7C123.4,637.8,120.4,636.2,120.4,633.1z M130.2,633.1
					c0-2.2-2.3-3.2-4-3.2c-1.7,0-4,1-4,3.1c0,2.2,2.2,3.1,4,3.1C127.9,636.2,130.2,635.3,130.2,633.1z M122.5,625.4
					c0,2.1,2.3,3,3.7,3c1.4,0,3.7-1,3.7-3c0-1.9-2.1-2.9-3.7-2.9C124.6,622.6,122.5,623.5,122.5,625.4z"/>
				<path class="st7" d="M135.8,630.1c-1.2,0-2.2-1-2.2-2.2c0-1.2,1-2.2,2.2-2.2c1.2,0,2.2,1,2.2,2.2
					C138,629.1,137,630.1,135.8,630.1z M135.8,626.6c-0.7,0-1.4,0.6-1.4,1.4c0,0.7,0.6,1.3,1.4,1.3s1.4-0.6,1.4-1.3
					C137.2,627.1,136.6,626.6,135.8,626.6z M141.1,625.8h1l-6.2,9.6h-1L141.1,625.8z M141.1,635.5c-1.2,0-2.2-1-2.2-2.2
					c0-1.2,1-2.2,2.2-2.2c1.2,0,2.2,1,2.2,2.2C143.3,634.5,142.3,635.5,141.1,635.5z M141.1,632c-0.7,0-1.3,0.6-1.3,1.4
					c0,0.7,0.6,1.3,1.3,1.3s1.4-0.6,1.4-1.3C142.5,632.6,141.9,632,141.1,632z"/>
			</g>
		</g>
		<g>
			<g class="st4">
				<rect x="242.6" y="633.5" width="71.3" height="210.4"/>
			</g>
			<g class="st4">
				<path d="M254.5,621.4c0-1.9,0.9-4,3.8-5.8l2.5-1.6c1.6-1,2.9-2,2.9-3.9c0-1.7-1.5-3.3-3.6-3.3c-1.8,0-2.9,1.1-3.4,2.1
					c-0.3,0.7-0.3,1.4-0.3,1.6l-1.7-0.3c0-2.3,2-5.1,5.5-5.1c3,0,5.4,2.3,5.4,4.8c0,2.3-1.3,3.7-3.5,5.1l-2.6,1.6
					c-1.4,0.9-2.7,2-2.8,3.5h9v1.6h-11.1V621.4z"/>
				<path d="M268,613.7c0-4.1,2.3-8.4,6.9-8.4c4.5,0,6.8,4.3,6.8,8.4c0,4.1-2.3,8.4-6.9,8.4C270.3,622,268,617.8,268,613.7z
					 M269.8,613.6c0,3,1.5,6.8,5.1,6.8c3.5,0,5.1-3.8,5.1-6.8s-1.5-6.8-5.1-6.8C271.3,606.9,269.8,610.7,269.8,613.6z"/>
				<path d="M285.5,614.3c-1.2,0-2.2-1-2.2-2.2c0-1.2,1-2.2,2.2-2.2c1.2,0,2.2,1,2.2,2.2C287.7,613.4,286.7,614.3,285.5,614.3z
					 M285.5,610.8c-0.7,0-1.4,0.6-1.4,1.4c0,0.7,0.6,1.3,1.4,1.3c0.7,0,1.4-0.6,1.4-1.3C286.9,611.4,286.3,610.8,285.5,610.8z
					 M290.8,610.1h1l-6.2,9.6h-1L290.8,610.1z M290.8,619.7c-1.2,0-2.2-1-2.2-2.2c0-1.2,1-2.2,2.2-2.2c1.2,0,2.2,1,2.2,2.2
					C293,618.8,292,619.7,290.8,619.7z M290.8,616.2c-0.7,0-1.3,0.6-1.3,1.4c0,0.7,0.6,1.3,1.3,1.3c0.7,0,1.4-0.6,1.4-1.3
					C292.2,616.8,291.6,616.2,290.8,616.2z"/>
			</g>
		</g>
		<g>
			<g>
				<rect x="313.9" y="633.5" class="st8" width="71.3" height="210.4"/>
			</g>
			<g class="st4">
				<path d="M324.8,622.9c0-1.9,0.9-4,3.8-5.8l2.5-1.6c1.6-1,2.9-2,2.9-3.9c0-1.7-1.5-3.3-3.6-3.3c-1.8,0-2.9,1.1-3.4,2.1
					c-0.3,0.7-0.3,1.4-0.3,1.6l-1.7-0.3c0-2.3,2-5.1,5.5-5.1c3,0,5.4,2.3,5.4,4.8c0,2.3-1.3,3.7-3.5,5.1l-2.6,1.6
					c-1.4,0.9-2.7,2-2.8,3.5h9v1.6h-11.1V622.9z"/>
				<path d="M338.3,615.3c0-4.1,2.3-8.4,6.9-8.4c4.5,0,6.8,4.3,6.8,8.4c0,4.1-2.3,8.4-6.9,8.4C340.6,623.6,338.3,619.3,338.3,615.3z
					 M340.1,615.2c0,3,1.5,6.8,5.1,6.8c3.5,0,5.1-3.8,5.1-6.8s-1.5-6.8-5.1-6.8C341.6,608.4,340.1,612.2,340.1,615.2z"/>
				<path d="M355.9,615.9c-1.2,0-2.2-1-2.2-2.2c0-1.2,1-2.2,2.2-2.2c1.2,0,2.2,1,2.2,2.2C358,614.9,357.1,615.9,355.9,615.9z
					 M355.9,612.4c-0.7,0-1.4,0.6-1.4,1.4c0,0.7,0.6,1.3,1.4,1.3c0.7,0,1.4-0.6,1.4-1.3C357.2,613,356.6,612.4,355.9,612.4z
					 M361.1,611.7h1l-6.2,9.6h-1L361.1,611.7z M361.2,621.3c-1.2,0-2.2-1-2.2-2.2c0-1.2,1-2.2,2.2-2.2c1.2,0,2.2,1,2.2,2.2
					C363.3,620.4,362.4,621.3,361.2,621.3z M361.2,617.8c-0.7,0-1.3,0.6-1.3,1.4c0,0.7,0.6,1.3,1.3,1.3c0.7,0,1.4-0.6,1.4-1.3
					C362.5,618.4,361.9,617.8,361.2,617.8z"/>
			</g>
		</g>
		<g>
			<g>
				<rect x="171.3" y="707.1" class="st5" width="71.3" height="136.7"/>
			</g>
			<g>
				<path class="st5" d="M185.2,681.2l-3.9,2.4l-0.8-1.3l4.8-2.9h1.7v16.4h-1.7V681.2z"/>
				<path class="st5" d="M195.9,695.9c-2.9,0-5.3-1.7-5.7-4.5l1.7-0.4c0.3,1.9,1.7,3.3,4,3.3c2.2,0,4-1.2,4-3.1c0-1.9-1.4-3-4-3
					h-1.6v-1.6h1.6c2.2,0,3.7-1.4,3.7-3c0-1.7-1.3-2.9-3.6-2.9c-2.2,0-3.5,1.3-3.8,3.1l-1.7-0.4c0.3-2.3,2.5-4.3,5.5-4.3
					c3.6,0,5.3,2.2,5.3,4.3c0,1.9-1,3.1-2.6,3.8v0c1.9,0.5,3,2,3,3.9C201.6,693.8,199.3,695.9,195.9,695.9z"/>
				<path class="st5" d="M205.4,688.2c-1.2,0-2.2-1-2.2-2.2c0-1.2,1-2.2,2.2-2.2c1.2,0,2.2,1,2.2,2.2
					C207.6,687.3,206.6,688.2,205.4,688.2z M205.4,684.7c-0.7,0-1.4,0.6-1.4,1.4c0,0.7,0.6,1.3,1.4,1.3s1.4-0.6,1.4-1.3
					C206.8,685.3,206.2,684.7,205.4,684.7z M210.7,684h1l-6.2,9.6h-1L210.7,684z M210.7,693.7c-1.2,0-2.2-1-2.2-2.2
					c0-1.2,1-2.2,2.2-2.2c1.2,0,2.2,1,2.2,2.2C212.9,692.7,211.9,693.7,210.7,693.7z M210.7,690.1c-0.7,0-1.3,0.6-1.3,1.4
					c0,0.7,0.6,1.3,1.3,1.3s1.4-0.6,1.4-1.3C212.1,690.7,211.5,690.1,210.7,690.1z"/>
			</g>
		</g>
		<g>
			<g>
				<path d="M183.3,886.7l-5.6,8.3v6.1h-1.5V895l-5.6-8.3h1.8l4.5,6.9l4.6-6.9H183.3z"/>
				<path d="M184.9,896.6c0.1,1.9,1.6,3.4,3.5,3.4c1.5,0,2.6-0.7,3-2.1l1.3,0.4c-0.6,1.9-2.4,3-4.3,3c-2.8,0-5-2.3-5-5.1
					c0-2.7,2-5.1,4.8-5.1c3,0,4.6,2.2,4.6,5c0,0.2,0,0.3,0,0.5H184.9z M191.4,895.4c-0.2-1.8-1.3-3-3.2-3c-1.7,0-3.1,1.4-3.3,3
					H191.4z"/>
				<path d="M199.2,901.2c-2.7,0-3.5-1.8-3.7-2.9l1.3-0.3c0.2,0.9,0.9,1.9,2.4,1.9c1.1,0,2-0.6,2-1.6c0-1.2-1.3-1.5-2.3-1.6
					c-1.6-0.2-3.2-0.8-3.2-2.7c0-1.8,1.7-2.9,3.3-2.9c2.6,0,3.4,1.7,3.6,2.7l-1.3,0.3c-0.2-0.7-0.7-1.7-2.3-1.7
					c-1.1,0-1.9,0.7-1.9,1.6c0,1.2,1.3,1.4,2.3,1.5c1.6,0.2,3.2,1,3.2,2.8C202.7,900,201.1,901.2,199.2,901.2z"/>
				<path d="M205.8,903.2c0.8-0.6,1.5-1.4,1.6-2.2c-0.1,0.1-0.3,0.1-0.4,0.1c-0.7,0-1.2-0.5-1.2-1.2c0-0.8,0.6-1.3,1.3-1.3
					c0.8,0,1.5,0.7,1.5,1.8v0.1c0,1.3-0.7,2.5-2,3.4L205.8,903.2z"/>
				<path d="M219.3,901l-3.3-9.8h1.5l2.6,8.1h0l2.7-8.1h1.4l2.7,8.2h0l2.6-8.2h1.5l-3.3,9.8h-1.6l-2.6-8h0l-2.6,8H219.3z"/>
				<path d="M234.7,886.6c0.6,0,1.1,0.5,1.1,1.1c0,0.6-0.5,1.1-1.1,1.1c-0.6,0-1.1-0.5-1.1-1.1C233.6,887.1,234.1,886.6,234.7,886.6
					z M235.4,891.2v9.8H234v-9.8H235.4z"/>
				<path d="M240.2,898.5v-6h-1.8v-1.3h1.8v-2.8h1.4v2.8h2.5v1.3h-2.5v6c0,0.9,0.5,1.4,1.6,1.4c0.3,0,0.7,0,0.9-0.1v1.2
					c-0.3,0.1-0.9,0.1-1.1,0.1C240.9,901.1,240.2,899.9,240.2,898.5z"/>
				<path d="M254.5,895.3c0-1.7-0.9-3-2.7-3c-1.7,0-2.9,1.4-2.9,3.1v5.6h-1.4v-15h1.4v6.9c0.8-1.3,1.9-1.9,3.4-1.9
					c2.4,0,3.7,1.6,3.7,3.9v6.1h-1.4V895.3z"/>
				<path d="M260.7,886.6c0.6,0,1.1,0.5,1.1,1.1c0,0.6-0.5,1.1-1.1,1.1c-0.6,0-1.1-0.5-1.1-1.1C259.6,887.1,260.1,886.6,260.7,886.6
					z M261.4,891.2v9.8H260v-9.8H261.4z"/>
				<path d="M272.6,895.3c0-1.7-0.9-3-2.7-3c-1.7,0-2.9,1.4-2.9,3.1v5.6h-1.4v-9.8h1.4v1.8c0.8-1.3,1.9-2,3.4-2
					c2.4,0,3.7,1.6,3.7,3.9v6.1h-1.4V895.3z"/>
				<path d="M284.8,898.5v-6H283v-1.3h1.8v-2.8h1.4v2.8h2.5v1.3h-2.5v6c0,0.9,0.5,1.4,1.6,1.4c0.3,0,0.7,0,0.9-0.1v1.2
					c-0.3,0.1-0.9,0.1-1.1,0.1C285.4,901.1,284.8,899.9,284.8,898.5z"/>
				<path d="M299.1,895.3c0-1.7-0.9-3-2.7-3c-1.7,0-2.9,1.4-2.9,3.1v5.6H292v-15h1.4v6.9c0.8-1.3,1.9-1.9,3.4-1.9
					c2.4,0,3.7,1.6,3.7,3.9v6.1h-1.4V895.3z"/>
				<path d="M305.3,896.6c0.1,1.9,1.6,3.4,3.5,3.4c1.5,0,2.6-0.7,3-2.1l1.3,0.4c-0.6,1.9-2.4,3-4.3,3c-2.8,0-5-2.3-5-5.1
					c0-2.7,2-5.1,4.8-5.1c3,0,4.6,2.2,4.6,5c0,0.2,0,0.3,0,0.5H305.3z M311.8,895.4c-0.2-1.8-1.3-3-3.2-3c-1.7,0-3.1,1.4-3.3,3
					H311.8z"/>
				<path d="M189.9,923.2c-2.7,0-3.5-1.8-3.7-2.9l1.3-0.3c0.2,0.9,0.9,1.9,2.4,1.9c1.1,0,2-0.6,2-1.6c0-1.2-1.3-1.5-2.3-1.6
					c-1.6-0.2-3.2-0.8-3.2-2.7c0-1.8,1.7-2.9,3.3-2.9c2.6,0,3.4,1.7,3.6,2.7l-1.3,0.3c-0.2-0.7-0.7-1.7-2.3-1.7
					c-1.1,0-1.9,0.7-1.9,1.6c0,1.2,1.3,1.4,2.3,1.5c1.6,0.2,3.2,1,3.2,2.8C193.4,922.1,191.8,923.2,189.9,923.2z"/>
				<path d="M202.7,916.7c0-1.6-0.9-2.4-2.5-2.4c-1.7,0-2.4,1.1-2.6,2l-1.4-0.3c0.1-0.8,1.2-3,4-3c2.1,0,3.1,0.9,3.6,2
					c0.2,0.5,0.3,1.3,0.3,1.6v6.3h-1.4v-1.7h0c-0.8,1.2-1.8,1.9-3.3,1.9c-2,0-3.3-1.2-3.3-2.9v-0.1c0-2.1,2.1-2.8,3.9-2.8h2.7V916.7
					z M200,918.6c-1,0-2.4,0.3-2.4,1.7c0,1.1,0.9,1.7,2.1,1.7c1.7,0,3-1.2,3-3v-0.3H200z"/>
				<path d="M214.9,917.3c0-1.6-0.8-2.9-2.5-2.9c-1.7,0-2.7,1.5-2.7,3.1v5.6h-1.4v-9.8h1.4v1.7c0.8-1.2,1.7-1.9,3.2-1.9
					c1.4,0,2.6,0.7,3.1,2c0.8-1.3,1.9-1.9,3.5-1.9c2.4,0,3.6,1.6,3.6,3.9v6.1h-1.4v-5.7c0-1.6-0.7-3-2.5-3c-1.7,0-2.7,1.4-2.7,3v5.6
					h-1.4V917.3z"/>
				<path d="M227.7,918.6c0.1,1.9,1.6,3.4,3.5,3.4c1.5,0,2.6-0.7,3-2.1l1.3,0.4c-0.6,1.9-2.4,3-4.3,3c-2.8,0-5-2.3-5-5.1
					c0-2.7,2-5.1,4.8-5.1c3,0,4.6,2.2,4.6,5c0,0.2,0,0.3,0,0.5H227.7z M234.2,917.4c-0.2-1.8-1.3-3-3.2-3c-1.7,0-3.1,1.4-3.3,3
					H234.2z"/>
				<path d="M249.4,922c2.2,0,3-1.6,3.3-2.4l1.3,0.4c-0.4,1.5-2.1,3.2-4.6,3.2c-2.8,0-5-2.1-5-5c0-3,2.3-5.1,5.1-5.1
					c2.3,0,4.1,1.5,4.5,3.1l-1.3,0.4c-0.2-0.8-1.2-2.3-3.2-2.3c-2.1,0-3.5,1.7-3.5,3.7C245.8,920.1,247.2,922,249.4,922z"/>
				<path d="M258.7,908.1v15h-1.5v-15H258.7z"/>
				<path d="M262.2,918.2c0-2.9,2.2-5.1,5.1-5.1c2.8,0,5.1,2.2,5.1,5c0,2.9-2.2,5.1-5.1,5.1C264.4,923.2,262.2,921,262.2,918.2z
					 M270.8,918.2c0-2.1-1.5-3.9-3.6-3.9s-3.6,1.7-3.6,3.8c0,2.1,1.5,3.8,3.6,3.8C269.4,922,270.8,920.2,270.8,918.2z"/>
				<path d="M277,919c0,1.7,0.9,3,2.7,3c1.7,0,2.9-1.3,2.9-3.1v-5.6h1.4v9.8h-1.4v-1.8c-0.8,1.3-1.9,2-3.4,2c-2.4,0-3.7-1.6-3.7-3.9
					v-6.1h1.4V919z"/>
				<path d="M292.1,913.1c1.9,0,3,1.1,3.8,2.2v-7.2h1.4v15H296V921c-0.8,1.2-1.9,2.2-3.8,2.2c-2.8,0-4.6-2.4-4.6-5.1
					C287.6,915.6,289.4,913.1,292.1,913.1z M296,918.1c0-1.9-1.5-3.8-3.5-3.8c-2.1,0-3.4,1.7-3.4,3.8c0,2,1.3,3.8,3.4,3.8
					C294.5,921.9,296,920.1,296,918.1z"/>
			</g>
		</g>
	</g>
	<g>
		<g>
			<g class="st4">
				<path class="st7" d="M455.1,490.5c-2.9,0-5.3-1.7-5.7-4.5l1.7-0.4c0.3,1.9,1.7,3.3,4,3.3c2.2,0,4-1.2,4-3.1c0-1.9-1.4-3-4-3
					h-1.6v-1.6h1.6c2.2,0,3.7-1.4,3.7-3c0-1.7-1.3-2.9-3.6-2.9c-2.2,0-3.5,1.3-3.8,3.1l-1.7-0.4c0.3-2.3,2.5-4.3,5.5-4.3
					c3.6,0,5.3,2.2,5.3,4.3c0,1.9-1,3.1-2.6,3.8v0c1.9,0.5,3,2,3,3.9C460.8,488.4,458.5,490.5,455.1,490.5z"/>
				<path class="st7" d="M463.2,489.8c0-1.9,0.9-4,3.8-5.8l2.5-1.6c1.6-1,2.9-2,2.9-3.9c0-1.7-1.5-3.3-3.6-3.3
					c-1.8,0-2.9,1.1-3.4,2.1c-0.3,0.7-0.3,1.4-0.3,1.6l-1.7-0.3c0-2.3,2-5.1,5.5-5.1c3,0,5.4,2.3,5.4,4.8c0,2.3-1.3,3.7-3.5,5.1
					l-2.6,1.6c-1.4,0.9-2.7,2-2.8,3.5h9v1.6h-11.1V489.8z"/>
				<path class="st7" d="M478.1,482.8c-1.2,0-2.2-1-2.2-2.2c0-1.2,1-2.2,2.2-2.2c1.2,0,2.2,1,2.2,2.2
					C480.2,481.8,479.3,482.8,478.1,482.8z M478.1,479.3c-0.7,0-1.4,0.6-1.4,1.4c0,0.7,0.6,1.3,1.4,1.3c0.7,0,1.4-0.6,1.4-1.3
					C479.4,479.9,478.8,479.3,478.1,479.3z M483.4,478.6h1l-6.2,9.6h-1L483.4,478.6z M483.4,488.2c-1.2,0-2.2-1-2.2-2.2
					c0-1.2,1-2.2,2.2-2.2c1.2,0,2.2,1,2.2,2.2C485.6,487.3,484.6,488.2,483.4,488.2z M483.4,484.7c-0.7,0-1.3,0.6-1.3,1.4
					c0,0.7,0.6,1.3,1.3,1.3c0.7,0,1.4-0.6,1.4-1.3C484.7,485.3,484.1,484.7,483.4,484.7z"/>
			</g>
			<g>
				<pattern  id="SVGID_2_" xlink:href="#Unnamed_Pattern_4" patternTransform="matrix(0 1.3112 -1.2587 0 -25673.6367 1669.2273)">
				</pattern>
				<rect x="438.3" y="507.2" class="st9" width="71.3" height="336.6"/>
			</g>
		</g>
		<g>
			<g class="st4">
				<rect x="580.9" y="412.6" width="71.3" height="431.3"/>
			</g>
			<g class="st4">
				<path d="M600.8,401V397h-8.5v-1.9l8.1-10.6h2.2v11h2.7v1.5h-2.7v3.9H600.8z M600.8,395.5v-9.2l-7,9.2H600.8z"/>
				<path d="M610.4,386.4l-3.9,2.4l-0.8-1.3l4.8-2.9h1.7V401h-1.7V386.4z"/>
				<path d="M617.1,393.4c-1.2,0-2.2-1-2.2-2.2c0-1.2,1-2.2,2.2-2.2c1.2,0,2.2,1,2.2,2.2C619.2,392.5,618.3,393.4,617.1,393.4z
					 M617.1,389.9c-0.7,0-1.4,0.6-1.4,1.4c0,0.7,0.6,1.3,1.4,1.3s1.4-0.6,1.4-1.3C618.4,390.5,617.8,389.9,617.1,389.9z
					 M622.3,389.2h1l-6.2,9.6h-1L622.3,389.2z M622.4,398.9c-1.2,0-2.2-1-2.2-2.2c0-1.2,1-2.2,2.2-2.2c1.2,0,2.2,1,2.2,2.2
					C624.5,397.9,623.6,398.9,622.4,398.9z M622.4,395.3c-0.7,0-1.3,0.6-1.3,1.4c0,0.7,0.6,1.3,1.3,1.3c0.7,0,1.4-0.6,1.4-1.3
					C623.7,395.9,623.1,395.3,622.4,395.3z"/>
			</g>
		</g>
		<g>
			<g>
				<rect x="652.2" y="517.8" class="st8" width="71.3" height="326.1"/>
			</g>
			<g class="st4">
				<path d="M668.6,507.9c-2.9,0-5.3-1.7-5.7-4.5l1.7-0.4c0.3,1.9,1.7,3.3,4,3.3c2.2,0,4-1.2,4-3.1c0-1.9-1.4-3-4-3H667v-1.6h1.6
					c2.2,0,3.7-1.4,3.7-3c0-1.7-1.3-2.9-3.6-2.9c-2.2,0-3.5,1.3-3.8,3.1l-1.7-0.4c0.3-2.3,2.5-4.3,5.5-4.3c3.6,0,5.3,2.2,5.3,4.3
					c0,1.9-1,3.1-2.6,3.8v0c1.9,0.5,3,2,3,3.9C674.3,505.7,672.1,507.9,668.6,507.9z"/>
				<path d="M680.6,493.1l-3.9,2.4l-0.8-1.3l4.8-2.9h1.7v16.4h-1.7V493.1z"/>
				<path d="M687.2,500.2c-1.2,0-2.2-1-2.2-2.2c0-1.2,1-2.2,2.2-2.2c1.2,0,2.2,1,2.2,2.2C689.4,499.2,688.4,500.2,687.2,500.2z
					 M687.2,496.7c-0.7,0-1.4,0.6-1.4,1.4c0,0.7,0.6,1.3,1.4,1.3c0.7,0,1.4-0.6,1.4-1.3C688.6,497.3,687.9,496.7,687.2,496.7z
					 M692.5,496h1l-6.2,9.6h-1L692.5,496z M692.5,505.6c-1.2,0-2.2-1-2.2-2.2c0-1.2,1-2.2,2.2-2.2s2.2,1,2.2,2.2
					C694.7,504.6,693.7,505.6,692.5,505.6z M692.5,502.1c-0.7,0-1.3,0.6-1.3,1.4c0,0.7,0.6,1.3,1.3,1.3c0.7,0,1.4-0.6,1.4-1.3
					C693.9,502.7,693.2,502.1,692.5,502.1z"/>
			</g>
		</g>
		<g>
			<g>
				<rect x="509.6" y="538.8" class="st5" width="71.3" height="305"/>
			</g>
			<g>
				<path class="st5" d="M519.6,527c0-1.9,0.9-4,3.8-5.8l2.5-1.6c1.6-1,2.9-2,2.9-3.9c0-1.7-1.5-3.3-3.6-3.3c-1.8,0-2.9,1.1-3.4,2.1
					c-0.3,0.7-0.3,1.4-0.3,1.6l-1.7-0.3c0-2.3,2-5.1,5.5-5.1c3,0,5.4,2.3,5.4,4.8c0,2.3-1.3,3.7-3.5,5.1l-2.6,1.6
					c-1.4,0.9-2.7,2-2.8,3.5h9v1.6h-11.1V527z"/>
				<path class="st5" d="M543.2,519.3c-1.1,1.8-3.3,2.5-4.7,2.5c-3.5,0-5.5-2.6-5.5-5.3c0-3.8,2.9-5.6,5.8-5.6c1.8,0,3.9,1,4.8,2.8
					c0.8,1.4,1.1,2.7,1.1,4.6c0,5.4-2.6,9.4-7.7,9.4c-0.9,0-2.7-0.3-3.8-1l0.6-1.6c1.1,0.7,2.4,0.9,3.1,0.9
					C540.8,526,542.9,523.1,543.2,519.3z M541.6,519.3c0.8-0.7,1.3-1.8,1.3-2.9c0-2.5-2-3.9-4.1-3.9c-2.1,0-4.1,1.3-4.1,3.9
					c0,2,1.5,3.9,4,3.9C539.8,520.3,540.8,519.9,541.6,519.3z"/>
				<path class="st5" d="M548.7,519.9c-1.2,0-2.2-1-2.2-2.2c0-1.2,1-2.2,2.2-2.2c1.2,0,2.2,1,2.2,2.2
					C550.9,519,549.9,519.9,548.7,519.9z M548.7,516.4c-0.7,0-1.4,0.6-1.4,1.4c0,0.7,0.6,1.3,1.4,1.3c0.7,0,1.4-0.6,1.4-1.3
					C550.1,517,549.5,516.4,548.7,516.4z M554,515.7h1l-6.2,9.6h-1L554,515.7z M554,525.4c-1.2,0-2.2-1-2.2-2.2c0-1.2,1-2.2,2.2-2.2
					s2.2,1,2.2,2.2C556.2,524.4,555.2,525.4,554,525.4z M554,521.8c-0.7,0-1.3,0.6-1.3,1.4c0,0.7,0.6,1.3,1.3,1.3s1.4-0.6,1.4-1.3
					C555.4,522.4,554.8,521.8,554,521.8z"/>
			</g>
		</g>
		<g>
			<g>
				<path d="M534.2,886.7l-5.6,8.3v6.1h-1.5V895l-5.6-8.3h1.8l4.5,6.9l4.6-6.9H534.2z"/>
				<path d="M535.7,896.6c0.1,1.9,1.6,3.4,3.5,3.4c1.5,0,2.6-0.7,3-2.1l1.3,0.4c-0.6,1.9-2.4,3-4.3,3c-2.8,0-5-2.3-5-5.1
					c0-2.7,2-5.1,4.8-5.1c3,0,4.6,2.2,4.6,5c0,0.2,0,0.3,0,0.5H535.7z M542.2,895.4c-0.2-1.8-1.3-3-3.2-3c-1.7,0-3.1,1.4-3.3,3
					H542.2z"/>
				<path d="M550.1,901.2c-2.7,0-3.5-1.8-3.7-2.9l1.3-0.3c0.2,0.9,0.9,1.9,2.4,1.9c1.1,0,2-0.6,2-1.6c0-1.2-1.3-1.5-2.3-1.6
					c-1.6-0.2-3.2-0.8-3.2-2.7c0-1.8,1.7-2.9,3.3-2.9c2.6,0,3.4,1.7,3.6,2.7l-1.3,0.3c-0.2-0.7-0.7-1.7-2.3-1.7
					c-1.1,0-1.9,0.7-1.9,1.6c0,1.2,1.3,1.4,2.3,1.5c1.6,0.2,3.2,1,3.2,2.8C553.5,900,551.9,901.2,550.1,901.2z"/>
				<path d="M556.7,903.2c0.8-0.6,1.5-1.4,1.6-2.2c-0.1,0.1-0.3,0.1-0.4,0.1c-0.7,0-1.2-0.5-1.2-1.2c0-0.8,0.6-1.3,1.3-1.3
					c0.8,0,1.5,0.7,1.5,1.8v0.1c0,1.3-0.7,2.5-2,3.4L556.7,903.2z"/>
				<path d="M573.2,901.2c-1.9,0-3-0.9-3.8-2.2v2.1H568v-15h1.4v7.3c0.8-1.2,1.9-2.3,3.8-2.3c2.8,0,4.6,2.5,4.6,5.1
					C577.8,898.8,576,901.2,573.2,901.2z M576.3,896.1c0-2-1.3-3.8-3.4-3.8c-2,0-3.5,1.8-3.5,3.8c0,2,1.4,3.8,3.5,3.8
					C575.1,899.9,576.3,898.2,576.3,896.1z"/>
				<path d="M587.2,894.7c0-1.6-0.9-2.4-2.5-2.4c-1.7,0-2.4,1.1-2.6,2l-1.4-0.3c0.1-0.8,1.2-3,4-3c2.1,0,3.1,0.9,3.6,2
					c0.2,0.5,0.3,1.3,0.3,1.6v6.3h-1.4v-1.7h0c-0.8,1.2-1.8,1.9-3.3,1.9c-2,0-3.3-1.2-3.3-2.9v-0.1c0-2.1,2.1-2.8,3.9-2.8h2.7V894.7
					z M584.4,896.6c-1,0-2.4,0.3-2.4,1.7c0,1.1,0.9,1.7,2.1,1.7c1.7,0,3-1.2,3-3v-0.3H584.4z"/>
				<path d="M596.9,899.9c2.2,0,3-1.6,3.3-2.4l1.3,0.4c-0.4,1.5-2.1,3.2-4.6,3.2c-2.8,0-5-2.1-5-5c0-3,2.3-5.1,5.1-5.1
					c2.3,0,4.1,1.5,4.5,3.1l-1.3,0.4c-0.2-0.8-1.2-2.3-3.2-2.3c-2.1,0-3.5,1.7-3.5,3.7C593.4,898.1,594.7,899.9,596.9,899.9z"/>
				<path d="M606.2,901h-1.4v-15h1.4v9.1l4.7-4h2l-5.2,4.4l5.4,5.4h-2l-4.9-4.9h-0.1V901z"/>
				<path d="M622.4,898.5v-6h-1.8v-1.3h1.8v-2.8h1.4v2.8h2.5v1.3h-2.5v6c0,0.9,0.5,1.4,1.6,1.4c0.3,0,0.7,0,0.9-0.1v1.2
					c-0.3,0.1-0.9,0.1-1.1,0.1C623.1,901.1,622.4,899.9,622.4,898.5z"/>
				<path d="M628.7,896.2c0-2.9,2.2-5.1,5.1-5.1c2.8,0,5.1,2.2,5.1,5c0,2.9-2.2,5.1-5.1,5.1C631,901.2,628.7,899,628.7,896.2z
					 M637.4,896.2c0-2.1-1.5-3.9-3.6-3.9c-2.1,0-3.6,1.7-3.6,3.8c0,2.1,1.5,3.8,3.6,3.8C635.9,899.9,637.4,898.2,637.4,896.2z"/>
				<path d="M525,918.2c0-2.9,2.2-5.1,5.1-5.1c2.8,0,5.1,2.2,5.1,5c0,2.9-2.2,5.1-5.1,5.1C527.2,923.2,525,921,525,918.2z
					 M533.6,918.2c0-2.1-1.5-3.9-3.6-3.9s-3.6,1.7-3.6,3.8c0,2.1,1.5,3.8,3.6,3.8C532.2,922,533.6,920.2,533.6,918.2z"/>
				<path d="M545.6,917.4c0-1.7-0.9-3-2.7-3c-1.7,0-2.9,1.4-2.9,3.1v5.6h-1.4v-9.8h1.4v1.8c0.8-1.3,1.9-2,3.4-2
					c2.4,0,3.7,1.6,3.7,3.9v6.1h-1.4V917.4z"/>
				<path d="M556.1,916.6v1.5h-5.3v-1.5H556.1z"/>
				<path d="M565.2,923.2c-1.8,0-3-0.9-3.8-2.2v6.9H560v-14.6h1.4v2.1c0.8-1.2,1.9-2.3,3.8-2.3c2.8,0,4.6,2.5,4.6,5.1
					C569.8,920.8,568,923.2,565.2,923.2z M568.3,918.2c0-2-1.3-3.8-3.4-3.8c-2,0-3.5,1.8-3.5,3.8c0,2,1.4,3.8,3.5,3.8
					C567.1,921.9,568.3,920.3,568.3,918.2z"/>
				<path d="M574.7,915.2c0.7-1.5,2-2.1,3.2-2.1c0.1,0,0.4,0,0.5,0v1.5c-0.2,0-0.4,0-0.6,0c-2.3,0-3.1,1.9-3.1,3.7v4.8h-1.4v-9.8
					h1.4V915.2z"/>
				<path d="M581.5,918.6c0.1,1.9,1.6,3.4,3.5,3.4c1.5,0,2.6-0.7,3-2.1l1.3,0.4c-0.6,1.9-2.4,3-4.3,3c-2.8,0-5-2.3-5-5.1
					c0-2.7,2-5.1,4.8-5.1c3,0,4.6,2.2,4.6,5c0,0.2,0,0.3,0,0.5H581.5z M588,917.4c-0.2-1.8-1.3-3-3.2-3c-1.7,0-3.1,1.4-3.3,3H588z"
					/>
				<path d="M599.5,917.3c0-1.6-0.8-2.9-2.5-2.9c-1.7,0-2.7,1.5-2.7,3.1v5.6h-1.4v-9.8h1.4v1.7c0.8-1.2,1.7-1.9,3.2-1.9
					c1.4,0,2.6,0.7,3.1,2c0.8-1.3,1.9-1.9,3.5-1.9c2.4,0,3.6,1.6,3.6,3.9v6.1h-1.4v-5.7c0-1.6-0.7-3-2.5-3c-1.7,0-2.7,1.4-2.7,3v5.6
					h-1.4V917.3z"/>
				<path d="M612.4,908.7c0.6,0,1.1,0.5,1.1,1.1c0,0.6-0.5,1.1-1.1,1.1c-0.6,0-1.1-0.5-1.1-1.1C611.3,909.1,611.8,908.7,612.4,908.7
					z M613.1,913.3v9.8h-1.5v-9.8H613.1z"/>
				<path d="M620.3,923.2c-2.7,0-3.5-1.8-3.7-2.9l1.3-0.3c0.2,0.9,0.9,1.9,2.4,1.9c1.1,0,2-0.6,2-1.6c0-1.2-1.3-1.5-2.3-1.6
					c-1.6-0.2-3.2-0.8-3.2-2.7c0-1.8,1.7-2.9,3.3-2.9c2.6,0,3.4,1.7,3.6,2.7l-1.3,0.3c-0.2-0.7-0.7-1.7-2.3-1.7
					c-1.1,0-1.9,0.7-1.9,1.6c0,1.2,1.3,1.4,2.3,1.5c1.6,0.2,3.2,1,3.2,2.8C623.7,922.1,622.2,923.2,620.3,923.2z"/>
				<path d="M627.9,918.6c0.1,1.9,1.6,3.4,3.5,3.4c1.5,0,2.6-0.7,3-2.1l1.3,0.4c-0.6,1.9-2.4,3-4.3,3c-2.8,0-5-2.3-5-5.1
					c0-2.7,2-5.1,4.8-5.1c3,0,4.6,2.2,4.6,5c0,0.2,0,0.3,0,0.5H627.9z M634.4,917.4c-0.2-1.8-1.3-3-3.2-3c-1.7,0-3.1,1.4-3.3,3
					H634.4z"/>
			</g>
		</g>
	</g>
	<g>
		<g>
			<pattern  id="SVGID_3_" xlink:href="#Unnamed_Pattern_4" patternTransform="matrix(0 1.3112 -1.2587 0 -25673.6367 1669.2273)">
			</pattern>
			<rect x="776.5" y="705.2" class="st10" width="72.3" height="138.6"/>
		</g>
		<g class="st4">
			<path class="st7" d="M791.9,673.3l-4,2.4l-0.8-1.3l4.8-2.9h1.7v16.7h-1.7V673.3z"/>
			<path class="st7" d="M797.1,687.6c0-1.9,0.9-4,3.8-5.8l2.5-1.6c1.6-1,2.9-2,2.9-4c0-1.7-1.5-3.3-3.7-3.3c-1.8,0-3,1.1-3.4,2.1
				c-0.3,0.7-0.3,1.4-0.3,1.6l-1.7-0.3c0-2.4,2-5.1,5.6-5.1c3.1,0,5.4,2.3,5.4,4.9c0,2.4-1.3,3.8-3.5,5.1l-2.6,1.6
				c-1.4,0.9-2.8,2.1-2.9,3.6h9.1v1.6h-11.3V687.6z"/>
			<path class="st7" d="M812.2,680.4c-1.2,0-2.2-1-2.2-2.2c0-1.2,1-2.2,2.2-2.2c1.2,0,2.2,1,2.2,2.2
				C814.4,679.5,813.5,680.4,812.2,680.4z M812.2,676.9c-0.8,0-1.4,0.6-1.4,1.4c0,0.8,0.6,1.4,1.4,1.4c0.8,0,1.4-0.6,1.4-1.4
				C813.6,677.5,813,676.9,812.2,676.9z M817.6,676.2h1l-6.3,9.7h-1L817.6,676.2z M817.6,686c-1.2,0-2.2-1-2.2-2.2
				c0-1.2,1-2.2,2.2-2.2c1.2,0,2.2,1,2.2,2.2C819.8,685,818.8,686,817.6,686z M817.6,682.4c-0.8,0-1.4,0.6-1.4,1.4
				c0,0.8,0.6,1.4,1.4,1.4s1.4-0.6,1.4-1.4C819,683,818.4,682.4,817.6,682.4z"/>
		</g>
	</g>
	<g>
		<g class="st4">
			<rect x="919.1" y="717.6" width="71.3" height="126.2"/>
		</g>
		<g class="st4">
			<path d="M934.9,691.4l-3.9,2.4l-0.8-1.3l4.8-2.9h1.7V706h-1.7V691.4z"/>
			<path d="M945.6,706.2c-2.9,0-5.3-1.7-5.7-4.5l1.7-0.4c0.3,1.9,1.7,3.3,4,3.3c2.2,0,4-1.2,4-3.1c0-1.9-1.4-3-4-3H944v-1.6h1.6
				c2.2,0,3.7-1.4,3.7-3c0-1.7-1.3-2.9-3.6-2.9c-2.2,0-3.5,1.3-3.8,3.1l-1.7-0.4c0.3-2.3,2.5-4.3,5.5-4.3c3.6,0,5.3,2.2,5.3,4.3
				c0,1.9-1,3.1-2.6,3.8v0c1.9,0.5,3,2,3,3.9C951.3,704,949,706.2,945.6,706.2z"/>
			<path d="M955.1,698.5c-1.2,0-2.2-1-2.2-2.2c0-1.2,1-2.2,2.2-2.2c1.2,0,2.2,1,2.2,2.2C957.3,697.5,956.3,698.5,955.1,698.5z
				 M955.1,695c-0.7,0-1.4,0.6-1.4,1.4c0,0.7,0.6,1.3,1.4,1.3c0.7,0,1.4-0.6,1.4-1.3C956.5,695.6,955.9,695,955.1,695z M960.4,694.3
				h1l-6.2,9.6h-1L960.4,694.3z M960.4,703.9c-1.2,0-2.2-1-2.2-2.2c0-1.2,1-2.2,2.2-2.2c1.2,0,2.2,1,2.2,2.2
				C962.6,702.9,961.6,703.9,960.4,703.9z M960.4,700.4c-0.7,0-1.3,0.6-1.3,1.4c0,0.7,0.6,1.3,1.3,1.3c0.7,0,1.4-0.6,1.4-1.3
				C961.8,701,961.2,700.4,960.4,700.4z"/>
		</g>
	</g>
	<g>
		<g>
			<rect x="990.4" y="696.6" class="st8" width="71.3" height="147.3"/>
		</g>
		<g class="st4">
			<path d="M1005.2,671.9l-3.9,2.4l-0.8-1.3l4.8-2.9h1.7v16.4h-1.7V671.9z"/>
			<path d="M1018.4,686.5v-3.9h-8.5v-1.9l8.1-10.6h2.2v11h2.7v1.5h-2.7v3.9H1018.4z M1018.4,681.1v-9.2l-7,9.2H1018.4z"/>
			<path d="M1026.2,679c-1.2,0-2.2-1-2.2-2.2c0-1.2,1-2.2,2.2-2.2c1.2,0,2.2,1,2.2,2.2C1028.3,678,1027.4,679,1026.2,679z
				 M1026.2,675.5c-0.7,0-1.4,0.6-1.4,1.4c0,0.7,0.6,1.3,1.4,1.3c0.7,0,1.4-0.6,1.4-1.3C1027.5,676.1,1026.9,675.5,1026.2,675.5z
				 M1031.4,674.8h1l-6.2,9.6h-1L1031.4,674.8z M1031.5,684.4c-1.2,0-2.2-1-2.2-2.2c0-1.2,1-2.2,2.2-2.2c1.2,0,2.2,1,2.2,2.2
				C1033.6,683.5,1032.7,684.4,1031.5,684.4z M1031.5,680.9c-0.7,0-1.3,0.6-1.3,1.4c0,0.7,0.6,1.3,1.3,1.3c0.7,0,1.4-0.6,1.4-1.3
				C1032.8,681.5,1032.2,680.9,1031.5,680.9z"/>
		</g>
	</g>
	<g>
		<g>
			<rect x="848.8" y="769.2" class="st5" width="72.3" height="74.6"/>
		</g>
		<g>
			<path class="st5" d="M858.4,742.7v-1.6h11.3v1.6l-7.7,15h-1.9l7.7-15H858.4z"/>
			<path class="st5" d="M873,750.1c-1.2,0-2.2-1-2.2-2.2c0-1.2,1-2.2,2.2-2.2c1.2,0,2.2,1,2.2,2.2
				C875.2,749.1,874.2,750.1,873,750.1z M873,746.5c-0.8,0-1.4,0.6-1.4,1.4c0,0.8,0.6,1.4,1.4,1.4c0.8,0,1.4-0.6,1.4-1.4
				C874.4,747.1,873.8,746.5,873,746.5z M878.4,745.8h1l-6.3,9.7h-1L878.4,745.8z M878.4,755.6c-1.2,0-2.2-1-2.2-2.2
				c0-1.2,1-2.2,2.2-2.2c1.2,0,2.2,1,2.2,2.2C880.6,754.6,879.6,755.6,878.4,755.6z M878.4,752c-0.8,0-1.4,0.6-1.4,1.4
				c0,0.8,0.6,1.4,1.4,1.4c0.8,0,1.4-0.6,1.4-1.4C879.8,752.6,879.2,752,878.4,752z"/>
		</g>
	</g>
	<g>
		<g>
			<path d="M858.1,886.7l-5.6,8.3v6.1H851V895l-5.6-8.3h1.8l4.5,6.9l4.6-6.9H858.1z"/>
			<path d="M859.7,896.6c0.1,1.9,1.6,3.4,3.5,3.4c1.5,0,2.6-0.7,3-2.1l1.3,0.4c-0.6,1.9-2.4,3-4.3,3c-2.8,0-5-2.3-5-5.1
				c0-2.7,2-5.1,4.8-5.1c3,0,4.6,2.2,4.6,5c0,0.2,0,0.3,0,0.5H859.7z M866.2,895.4c-0.2-1.8-1.3-3-3.2-3c-1.7,0-3.1,1.4-3.3,3H866.2
				z"/>
			<path d="M874,901.2c-2.7,0-3.5-1.8-3.7-2.9l1.3-0.3c0.2,0.9,0.9,1.9,2.4,1.9c1.1,0,2-0.6,2-1.6c0-1.2-1.3-1.5-2.3-1.6
				c-1.6-0.2-3.2-0.8-3.2-2.7c0-1.8,1.7-2.9,3.3-2.9c2.6,0,3.4,1.7,3.6,2.7l-1.3,0.3c-0.2-0.7-0.7-1.7-2.3-1.7
				c-1.1,0-1.9,0.7-1.9,1.6c0,1.2,1.3,1.4,2.3,1.5c1.6,0.2,3.2,1,3.2,2.8C877.5,900,875.9,901.2,874,901.2z"/>
			<path d="M880.6,903.2c0.8-0.6,1.5-1.4,1.6-2.2c-0.1,0.1-0.3,0.1-0.4,0.1c-0.7,0-1.2-0.5-1.2-1.2c0-0.8,0.6-1.3,1.3-1.3
				c0.8,0,1.5,0.7,1.5,1.8v0.1c0,1.3-0.7,2.5-2,3.4L880.6,903.2z"/>
			<path d="M892.6,898.5v-6h-1.8v-1.3h1.8v-2.8h1.4v2.8h2.5v1.3H894v6c0,0.9,0.5,1.4,1.6,1.4c0.3,0,0.7,0,0.9-0.1v1.2
				c-0.3,0.1-0.9,0.1-1.1,0.1C893.2,901.1,892.6,899.9,892.6,898.5z"/>
			<path d="M898.9,896.2c0-2.9,2.2-5.1,5.1-5.1c2.8,0,5.1,2.2,5.1,5c0,2.9-2.2,5.1-5.1,5.1C901.1,901.2,898.9,899,898.9,896.2z
				 M907.6,896.2c0-2.1-1.5-3.9-3.6-3.9s-3.6,1.7-3.6,3.8c0,2.1,1.5,3.8,3.6,3.8C906.1,899.9,907.6,898.2,907.6,896.2z"/>
			<path d="M924.4,894.7c0-1.6-0.9-2.4-2.5-2.4c-1.7,0-2.4,1.1-2.6,2L918,894c0.1-0.8,1.2-3,4-3c2.1,0,3.1,0.9,3.6,2
				c0.2,0.5,0.3,1.3,0.3,1.6v6.3h-1.4v-1.7h0c-0.8,1.2-1.8,1.9-3.3,1.9c-2,0-3.3-1.2-3.3-2.9v-0.1c0-2.1,2.1-2.8,3.9-2.8h2.7V894.7z
				 M921.7,896.6c-1,0-2.4,0.3-2.4,1.7c0,1.1,0.9,1.7,2.1,1.7c1.7,0,3-1.2,3-3v-0.3H921.7z"/>
			<path d="M936.9,895.3c0-1.7-0.9-3-2.7-3c-1.7,0-2.9,1.4-2.9,3.1v5.6h-1.4v-9.8h1.4v1.8c0.8-1.3,1.9-2,3.4-2
				c2.4,0,3.7,1.6,3.7,3.9v6.1h-1.4V895.3z"/>
			<path d="M941.7,896.2c0-2.9,2.2-5.1,5.1-5.1c2.8,0,5.1,2.2,5.1,5c0,2.9-2.2,5.1-5.1,5.1C943.9,901.2,941.7,899,941.7,896.2z
				 M950.3,896.2c0-2.1-1.5-3.9-3.6-3.9s-3.6,1.7-3.6,3.8c0,2.1,1.5,3.8,3.6,3.8C948.9,899.9,950.3,898.2,950.3,896.2z"/>
			<path d="M955.8,898.5v-6h-1.8v-1.3h1.8v-2.8h1.4v2.8h2.5v1.3h-2.5v6c0,0.9,0.5,1.4,1.6,1.4c0.3,0,0.7,0,0.9-0.1v1.2
				c-0.3,0.1-0.9,0.1-1.1,0.1C956.4,901.1,955.8,899.9,955.8,898.5z"/>
			<path d="M970.1,895.3c0-1.7-0.9-3-2.7-3c-1.7,0-2.9,1.4-2.9,3.1v5.6H963v-15h1.4v6.9c0.8-1.3,1.9-1.9,3.4-1.9
				c2.4,0,3.7,1.6,3.7,3.9v6.1h-1.4V895.3z"/>
			<path d="M976.2,896.6c0.1,1.9,1.6,3.4,3.5,3.4c1.5,0,2.6-0.7,3-2.1l1.3,0.4c-0.6,1.9-2.4,3-4.3,3c-2.8,0-5-2.3-5-5.1
				c0-2.7,2-5.1,4.8-5.1c3,0,4.6,2.2,4.6,5c0,0.2,0,0.3,0,0.5H976.2z M982.7,895.4c-0.2-1.8-1.3-3-3.2-3c-1.7,0-3.1,1.4-3.3,3H982.7
				z"/>
			<path d="M989,893.2c0.7-1.5,2-2.1,3.2-2.1c0.1,0,0.4,0,0.5,0v1.5c-0.2,0-0.4,0-0.6,0c-2.3,0-3.1,1.9-3.1,3.7v4.8h-1.4v-9.8h1.4
				V893.2z"/>
			<path d="M852.2,922c2.2,0,3-1.6,3.3-2.4l1.3,0.4c-0.4,1.5-2.1,3.2-4.6,3.2c-2.8,0-5-2.1-5-5c0-3,2.3-5.1,5.1-5.1
				c2.3,0,4.1,1.5,4.5,3.1l-1.3,0.4c-0.2-0.8-1.2-2.3-3.2-2.3c-2.1,0-3.5,1.7-3.5,3.7C848.7,920.1,850,922,852.2,922z"/>
			<path d="M861.6,908.1v15h-1.5v-15H861.6z"/>
			<path d="M865,918.2c0-2.9,2.2-5.1,5.1-5.1c2.8,0,5.1,2.2,5.1,5c0,2.9-2.2,5.1-5.1,5.1C867.2,923.2,865,921,865,918.2z
				 M873.7,918.2c0-2.1-1.5-3.9-3.6-3.9c-2.1,0-3.6,1.7-3.6,3.8c0,2.1,1.5,3.8,3.6,3.8C872.2,922,873.7,920.2,873.7,918.2z"/>
			<path d="M879.9,919c0,1.7,0.9,3,2.7,3c1.7,0,2.9-1.3,2.9-3.1v-5.6h1.4v9.8h-1.4v-1.8c-0.8,1.3-1.9,2-3.4,2
				c-2.4,0-3.7-1.6-3.7-3.9v-6.1h1.4V919z"/>
			<path d="M895,913.1c1.9,0,3,1.1,3.8,2.2v-7.2h1.4v15h-1.4V921c-0.8,1.2-1.9,2.2-3.8,2.2c-2.8,0-4.6-2.4-4.6-5.1
				C890.4,915.6,892.2,913.1,895,913.1z M898.8,918.1c0-1.9-1.5-3.8-3.5-3.8c-2.1,0-3.4,1.7-3.4,3.8c0,2,1.3,3.8,3.4,3.8
				C897.3,921.9,898.8,920.1,898.8,918.1z"/>
			<path d="M915.6,923.2c-1.8,0-3-0.9-3.8-2.2v6.9h-1.4v-14.6h1.4v2.1c0.8-1.2,1.9-2.3,3.8-2.3c2.8,0,4.6,2.5,4.6,5.1
				C920.2,920.8,918.4,923.2,915.6,923.2z M918.7,918.2c0-2-1.3-3.8-3.4-3.8c-2,0-3.5,1.8-3.5,3.8c0,2,1.4,3.8,3.5,3.8
				C917.5,921.9,918.7,920.3,918.7,918.2z"/>
			<path d="M925.1,915.2c0.7-1.5,2-2.1,3.2-2.1c0.1,0,0.4,0,0.5,0v1.5c-0.2,0-0.4,0-0.6,0c-2.3,0-3.1,1.9-3.1,3.7v4.8h-1.4v-9.8h1.4
				V915.2z"/>
			<path d="M930.5,918.2c0-2.9,2.2-5.1,5.1-5.1c2.8,0,5.1,2.2,5.1,5c0,2.9-2.2,5.1-5.1,5.1C932.7,923.2,930.5,921,930.5,918.2z
				 M939.2,918.2c0-2.1-1.5-3.9-3.6-3.9c-2.1,0-3.6,1.7-3.6,3.8c0,2.1,1.5,3.8,3.6,3.8C937.7,922,939.2,920.2,939.2,918.2z"/>
			<path d="M942.5,913.3h1.6l3.4,8.2l3.4-8.2h1.5l-4.2,9.8h-1.5L942.5,913.3z"/>
			<path d="M956.1,908.7c0.6,0,1.1,0.5,1.1,1.1c0,0.6-0.5,1.1-1.1,1.1c-0.6,0-1.1-0.5-1.1-1.1C955,909.1,955.5,908.7,956.1,908.7z
				 M956.8,913.3v9.8h-1.5v-9.8H956.8z"/>
			<path d="M964.8,913.1c1.9,0,3,1.1,3.8,2.2v-7.2h1.4v15h-1.4V921c-0.8,1.2-1.9,2.2-3.8,2.2c-2.8,0-4.6-2.4-4.6-5.1
				C960.2,915.6,962.1,913.1,964.8,913.1z M968.7,918.1c0-1.9-1.5-3.8-3.5-3.8c-2.1,0-3.4,1.7-3.4,3.8c0,2,1.3,3.8,3.4,3.8
				C967.2,921.9,968.7,920.1,968.7,918.1z"/>
			<path d="M974.9,918.6c0.1,1.9,1.6,3.4,3.5,3.4c1.5,0,2.6-0.7,3-2.1l1.3,0.4c-0.6,1.9-2.4,3-4.3,3c-2.8,0-5-2.3-5-5.1
				c0-2.7,2-5.1,4.8-5.1c3,0,4.6,2.2,4.6,5c0,0.2,0,0.3,0,0.5H974.9z M981.4,917.4c-0.2-1.8-1.3-3-3.2-3c-1.7,0-3.1,1.4-3.3,3H981.4
				z"/>
			<path d="M987.7,915.2c0.7-1.5,2-2.1,3.2-2.1c0.1,0,0.4,0,0.5,0v1.5c-0.2,0-0.4,0-0.6,0c-2.3,0-3.1,1.9-3.1,3.7v4.8h-1.4v-9.8h1.4
				V915.2z"/>
		</g>
	</g>
	<g>
		<g>
			<pattern  id="SVGID_4_" xlink:href="#Unnamed_Pattern_4" patternTransform="matrix(0 1.3112 -1.2587 0 -25673.6367 1669.2273)">
			</pattern>
			<rect x="1115.3" y="665" class="st11" width="71.3" height="178.8"/>
		</g>
		<g class="st4">
			<path class="st7" d="M1130.2,633.1l-4,2.4l-0.8-1.3l4.8-2.9h1.7v16.7h-1.7V633.1z"/>
			<path class="st7" d="M1134.8,632.9v-1.6h11.3v1.6l-7.7,15h-1.9l7.7-15H1134.8z"/>
			<path class="st7" d="M1149.4,640.2c-1.2,0-2.2-1-2.2-2.2c0-1.2,1-2.2,2.2-2.2c1.2,0,2.2,1,2.2,2.2
				C1151.6,639.3,1150.6,640.2,1149.4,640.2z M1149.4,636.7c-0.8,0-1.4,0.6-1.4,1.4c0,0.8,0.6,1.4,1.4,1.4c0.8,0,1.4-0.6,1.4-1.4
				C1150.8,637.3,1150.2,636.7,1149.4,636.7z M1154.8,636h1l-6.3,9.7h-1L1154.8,636z M1154.8,645.7c-1.2,0-2.2-1-2.2-2.2
				c0-1.2,1-2.2,2.2-2.2s2.2,1,2.2,2.2C1157,644.8,1156,645.7,1154.8,645.7z M1154.8,642.2c-0.8,0-1.4,0.6-1.4,1.4
				c0,0.8,0.6,1.4,1.4,1.4c0.8,0,1.4-0.6,1.4-1.4C1156.2,642.8,1155.6,642.2,1154.8,642.2z"/>
		</g>
	</g>
	<g>
		<g class="st4">
			<rect x="1257.4" y="717.6" width="71.3" height="126.2"/>
		</g>
		<g class="st4">
			<path d="M1273.2,691.4l-3.9,2.4l-0.8-1.3l4.8-2.9h1.7V706h-1.7V691.4z"/>
			<path d="M1283.9,706.2c-2.9,0-5.3-1.7-5.7-4.5l1.7-0.4c0.3,1.9,1.7,3.3,4,3.3c2.2,0,4-1.2,4-3.1c0-1.9-1.4-3-4-3h-1.6v-1.6h1.6
				c2.2,0,3.7-1.4,3.7-3c0-1.7-1.3-2.9-3.6-2.9c-2.2,0-3.5,1.3-3.8,3.1l-1.7-0.4c0.3-2.3,2.5-4.3,5.5-4.3c3.6,0,5.3,2.2,5.3,4.3
				c0,1.9-1.1,3.1-2.6,3.8v0c1.9,0.5,3,2,3,3.9C1289.5,704,1287.3,706.2,1283.9,706.2z"/>
			<path d="M1293.4,698.5c-1.2,0-2.2-1-2.2-2.2c0-1.2,1-2.2,2.2-2.2c1.2,0,2.2,1,2.2,2.2C1295.6,697.5,1294.6,698.5,1293.4,698.5z
				 M1293.4,695c-0.7,0-1.4,0.6-1.4,1.4c0,0.7,0.6,1.3,1.4,1.3c0.7,0,1.4-0.6,1.4-1.3C1294.8,695.6,1294.2,695,1293.4,695z
				 M1298.7,694.3h1l-6.2,9.6h-1L1298.7,694.3z M1298.7,703.9c-1.2,0-2.2-1-2.2-2.2c0-1.2,1-2.2,2.2-2.2c1.2,0,2.2,1,2.2,2.2
				C1300.9,702.9,1299.9,703.9,1298.7,703.9z M1298.7,700.4c-0.7,0-1.3,0.6-1.3,1.4c0,0.7,0.6,1.3,1.3,1.3c0.7,0,1.4-0.6,1.4-1.3
				C1300.1,701,1299.5,700.4,1298.7,700.4z"/>
		</g>
	</g>
	<g>
		<g>
			<rect x="1328.7" y="780.7" class="st8" width="71.3" height="63.1"/>
		</g>
		<g class="st4">
			<path d="M1341.5,762.4c1.1-1.8,3.1-2.4,4.5-2.4c3.5,0,5.5,2.5,5.5,5.2c0,3.7-3,5.6-5.8,5.6c-1.8,0-3.9-1-4.9-2.8
				c-0.8-1.4-1-2.5-1-4.5c0-5.2,2.8-9.5,8-9.5c0.9,0,2.3,0.1,3.4,0.8l-0.6,1.6c-0.9-0.5-2-0.7-2.7-0.7
				C1344,755.7,1341.9,758.7,1341.5,762.4z M1343,762.5c-0.8,0.7-1.3,1.7-1.3,2.9c0,2.5,2,3.9,4.1,3.9c2.1,0,4.1-1.3,4.1-3.9
				c0-2-1.5-3.8-4.1-3.8C1344.8,761.5,1343.8,761.9,1343,762.5z"/>
			<path d="M1355.3,763.2c-1.2,0-2.2-1-2.2-2.2c0-1.2,1-2.2,2.2-2.2c1.2,0,2.2,1,2.2,2.2C1357.5,762.2,1356.5,763.2,1355.3,763.2z
				 M1355.3,759.6c-0.7,0-1.4,0.6-1.4,1.4c0,0.7,0.6,1.3,1.4,1.3c0.7,0,1.4-0.6,1.4-1.3C1356.6,760.2,1356,759.6,1355.3,759.6z
				 M1360.6,758.9h1l-6.2,9.6h-1L1360.6,758.9z M1360.6,768.6c-1.2,0-2.2-1-2.2-2.2c0-1.2,1-2.2,2.2-2.2c1.2,0,2.2,1,2.2,2.2
				C1362.8,767.6,1361.8,768.6,1360.6,768.6z M1360.6,765.1c-0.7,0-1.3,0.6-1.3,1.4c0,0.7,0.6,1.3,1.3,1.3c0.7,0,1.4-0.6,1.4-1.3
				C1362,765.7,1361.3,765.1,1360.6,765.1z"/>
		</g>
	</g>
	<g>
		<g>
			<rect x="1187.6" y="465.2" class="st5" width="71.3" height="378.7"/>
		</g>
		<g>
			<path class="st5" d="M1202.9,453.8c-2.9,0-5.4-1.8-5.7-4.6l1.7-0.4c0.3,1.9,1.8,3.3,4.1,3.3c2.2,0,4-1.2,4-3.1
				c0-1.9-1.4-3.1-4-3.1h-1.7v-1.6h1.6c2.3,0,3.7-1.4,3.7-3c0-1.7-1.3-3-3.7-3c-2.3,0-3.6,1.4-3.9,3.1l-1.7-0.4
				c0.3-2.3,2.5-4.4,5.6-4.4c3.6,0,5.4,2.2,5.4,4.4c0,1.9-1.1,3.1-2.7,3.8v0c1.9,0.5,3,2,3,4
				C1208.6,451.7,1206.4,453.8,1202.9,453.8z"/>
			<path class="st5" d="M1212.9,445.3c1.1-1.8,3.2-2.4,4.6-2.4c3.5,0,5.6,2.5,5.6,5.3c0,3.8-3,5.7-5.9,5.7c-1.8,0-4-1.1-5-2.8
				c-0.8-1.4-1-2.5-1-4.6c0-5.3,2.8-9.6,8.1-9.6c0.9,0,2.3,0.1,3.4,0.8l-0.6,1.6c-0.9-0.6-2.1-0.7-2.8-0.7
				C1215.4,438.5,1213.3,441.5,1212.9,445.3z M1214.4,445.4c-0.8,0.7-1.3,1.7-1.3,2.9c0,2.5,2.1,4,4.1,4c2.1,0,4.1-1.4,4.1-4
				c0-2-1.6-3.9-4.1-3.9C1216.2,444.4,1215.2,444.8,1214.4,445.4z"/>
			<path class="st5" d="M1226.9,446c-1.2,0-2.2-1-2.2-2.2c0-1.2,1-2.2,2.2-2.2c1.2,0,2.2,1,2.2,2.2
				C1229.1,445.1,1228.1,446,1226.9,446z M1226.9,442.5c-0.8,0-1.4,0.6-1.4,1.4c0,0.8,0.6,1.4,1.4,1.4c0.8,0,1.4-0.6,1.4-1.4
				C1228.3,443.1,1227.6,442.5,1226.9,442.5z M1232.3,441.8h1l-6.3,9.7h-1L1232.3,441.8z M1232.3,451.5c-1.2,0-2.2-1-2.2-2.2
				c0-1.2,1-2.2,2.2-2.2s2.2,1,2.2,2.2C1234.5,450.6,1233.5,451.5,1232.3,451.5z M1232.3,448c-0.8,0-1.4,0.6-1.4,1.4
				c0,0.8,0.6,1.4,1.4,1.4c0.8,0,1.4-0.6,1.4-1.4C1233.7,448.6,1233,448,1232.3,448z"/>
		</g>
	</g>
	<g>
		<g>
			<g>
				<path d="M1318.5,195l1.4-0.4c0.3,1.7,1.9,3,3.7,3c1.6,0,3.2-0.9,3.2-2.6c0-1.7-1.5-2.3-2.6-2.5l-1.9-0.4
					c-0.6-0.1-1.7-0.5-2.4-1.2c-0.6-0.6-1-1.4-1-2.5c0-2.5,2.2-4,4.5-4c3.1,0,4.5,1.9,4.8,3.4l-1.4,0.4c-0.3-1-1.2-2.5-3.4-2.5
					c-1.5,0-3,1-3,2.6c0,1,0.7,2,2.1,2.3l1.8,0.4c1,0.2,2,0.5,2.8,1.2c1,0.9,1.2,2,1.2,2.6c0,2.6-2.1,4.2-4.8,4.2
					C1320.8,199.1,1318.7,197.1,1318.5,195z"/>
				<path d="M1338.6,193.1c0-1.6-0.8-2.9-2.5-2.9c-1.7,0-2.7,1.5-2.7,3.1l0,5.6l-1.4,0l0-9.8l1.4,0l0,1.7c0.8-1.2,1.7-1.9,3.2-1.9
					c1.4,0,2.6,0.7,3.1,2c0.8-1.3,1.9-2,3.4-2c2.4,0,3.6,1.6,3.6,3.9l0,6.1l-1.4,0l0-5.7c0-1.6-0.7-3-2.5-2.9c-1.7,0-2.7,1.4-2.7,3
					l0,5.6l-1.4,0L1338.6,193.1z"/>
				<path d="M1356.6,192.5c0-1.6-0.9-2.4-2.5-2.4c-1.7,0-2.4,1.1-2.6,2l-1.4-0.3c0.1-0.8,1.2-3,4-3c2.1,0,3.1,0.9,3.6,2
					c0.2,0.5,0.3,1.3,0.3,1.6l0,6.3l-1.4,0l0-1.7h0c-0.8,1.2-1.8,1.9-3.3,1.9c-2,0-3.3-1.2-3.3-2.9V196c0-2.1,2.1-2.8,3.9-2.8l2.7,0
					L1356.6,192.5z M1353.9,194.3c-1,0-2.4,0.3-2.4,1.7c0,1.1,0.9,1.7,2.1,1.7c1.7,0,3-1.2,3-3l0-0.3L1353.9,194.3z"/>
				<path d="M1363.5,183.8l0.1,15l-1.5,0l-0.1-15L1363.5,183.8z"/>
				<path d="M1369.1,183.8l0.1,15l-1.5,0l-0.1-15L1369.1,183.8z"/>
			</g>
		</g>
		<g>
			<g>
				<path d="M1320.6,142.8l-1.6,3.7l-1.5,0l6.2-14.4l1.7,0l6.3,14.4l-1.6,0l-1.6-3.7L1320.6,142.8z M1321.1,141.4l6.7,0l-3.4-7.8
					L1321.1,141.4z"/>
				<path d="M1335.6,131.5l0.1,15l-1.5,0l-0.1-15L1335.6,131.5z"/>
				<path d="M1341.2,131.5l0.1,15l-1.5,0l-0.1-15L1341.2,131.5z"/>
			</g>
		</g>
		<g>
			
				<ellipse transform="matrix(1 -3.820067e-03 3.820067e-03 1 -0.7326 4.9109)" class="st5" cx="1285.2" cy="194.2" rx="17.5" ry="17.5"/>
		</g>
		<g>
			<g>
				<path d="M1334.8,249.6l-1.5,0l0-12.3h0l-5.3,12.3l-1.4,0l-5.4-12.2l0,12.2l-1.5,0l-0.1-14.4l2.1,0l5.4,12.3l5.3-12.3l2.2,0
					L1334.8,249.6z"/>
				<path d="M1340,245.1c0.1,1.9,1.6,3.4,3.5,3.3c1.5,0,2.6-0.7,3-2.1l1.3,0.4c-0.6,1.9-2.3,3-4.3,3c-2.8,0-5-2.2-5-5.1
					c0-2.7,2-5.1,4.8-5.1c3,0,4.6,2.1,4.6,5c0,0.2,0,0.3,0,0.5L1340,245.1z M1346.5,243.9c-0.2-1.8-1.3-3-3.2-3
					c-1.7,0-3.1,1.4-3.3,3.1L1346.5,243.9z"/>
				<path d="M1355.2,239.5c1.9,0,3,1.1,3.8,2.2l0-7.2l1.4,0l0.1,15l-1.4,0l0-2.1c-0.7,1.3-1.9,2.2-3.8,2.3c-2.8,0-4.6-2.4-4.6-5.1
					C1350.7,242.1,1352.5,239.6,1355.2,239.5z M1359.1,244.6c0-1.9-1.5-3.8-3.5-3.8c-2.1,0-3.4,1.7-3.4,3.8c0,2,1.3,3.8,3.4,3.8
					C1357.6,248.4,1359.1,246.6,1359.1,244.6z"/>
				<path d="M1365.3,235.1c0.6,0,1.1,0.5,1.1,1.1c0,0.6-0.5,1.1-1.1,1.1c-0.6,0-1.1-0.5-1.1-1.1
					C1364.3,235.6,1364.7,235.1,1365.3,235.1z M1366.1,239.7l0,9.8l-1.5,0l0-9.8L1366.1,239.7z"/>
				<path d="M1371.5,245.4c0,1.7,0.9,3,2.7,3c1.7,0,2.9-1.4,2.9-3.1l0-5.6l1.4,0l0,9.8l-1.4,0l0-1.8c-0.8,1.3-1.9,2-3.4,2
					c-2.4,0-3.7-1.6-3.7-3.9l0-6.1l1.4,0L1371.5,245.4z"/>
				<path d="M1389.4,243.6c0-1.6-0.8-2.9-2.5-2.9c-1.7,0-2.7,1.5-2.7,3.1l0,5.6l-1.4,0l0-9.8l1.4,0l0,1.7c0.8-1.2,1.7-1.9,3.2-1.9
					c1.4,0,2.6,0.7,3.1,2c0.8-1.3,1.9-2,3.4-2c2.4,0,3.6,1.6,3.6,3.9l0,6.1l-1.4,0l0-5.7c0-1.6-0.7-3-2.5-2.9c-1.7,0-2.7,1.4-2.7,3
					l0,5.6l-1.4,0L1389.4,243.6z"/>
			</g>
		</g>
		<g class="st4">
			<ellipse transform="matrix(1 -3.820067e-03 3.820067e-03 1 -0.9263 4.912)" cx="1285.4" cy="244.9" rx="17.5" ry="17.5"/>
		</g>
		<g>
			<g>
				<path d="M1321.4,286l0,13l6.8,0l0,1.4l-8.3,0l-0.1-14.4L1321.4,286z"/>
				<path d="M1337.1,294c0-1.6-0.9-2.4-2.5-2.4c-1.7,0-2.4,1.1-2.6,2l-1.4-0.3c0.1-0.8,1.2-3,4-3c2.1,0,3.1,0.9,3.6,2
					c0.2,0.5,0.3,1.3,0.3,1.6l0,6.3l-1.4,0l0-1.7h0c-0.8,1.2-1.8,1.9-3.3,1.9c-2,0-3.3-1.2-3.3-2.9v-0.1c0-2.1,2.1-2.8,3.9-2.8
					l2.7,0L1337.1,294z M1334.4,295.8c-1,0-2.4,0.3-2.4,1.7c0,1.1,0.9,1.7,2.1,1.7c1.7,0,3-1.2,3-3l0-0.3L1334.4,295.8z"/>
				<path d="M1344,292.4c0.7-1.5,2-2.1,3.2-2.1c0.1,0,0.4,0,0.5,0l0,1.5c-0.2,0-0.4,0-0.6,0c-2.3,0-3.1,1.9-3.1,3.7l0,4.8l-1.4,0
					l0-9.8l1.4,0L1344,292.4z"/>
				<path d="M1357.8,298c-0.7,1.3-1.9,2.2-3.8,2.2c-2.8,0-4.6-2.3-4.6-5c0-2.6,1.8-5,4.6-5c1.9,0,3.1,1.1,3.8,2.2l0-2.1l1.4,0l0,9.8
					c0,3.2-1.9,4.9-4.9,4.9c-2.5,0-4.4-1.3-4.9-3.3l1.3-0.4c0.3,1.1,1.3,2.5,3.5,2.5c1.9,0,3.5-1,3.5-3.6L1357.8,298z M1357.8,295.2
					c0-1.9-1.5-3.7-3.5-3.7c-2.1,0-3.4,1.7-3.4,3.8c0,2,1.3,3.7,3.4,3.7C1356.4,299,1357.8,297.3,1357.8,295.2z"/>
				<path d="M1364.1,295.7c0.1,1.9,1.6,3.4,3.5,3.3c1.5,0,2.6-0.7,3-2.1l1.3,0.4c-0.6,1.9-2.3,3-4.3,3c-2.8,0-5-2.2-5-5.1
					c0-2.7,2-5.1,4.8-5.1c3,0,4.6,2.1,4.6,5c0,0.2,0,0.3,0,0.5L1364.1,295.7z M1370.6,294.5c-0.2-1.8-1.3-3-3.2-3
					c-1.7,0-3.1,1.4-3.3,3.1L1370.6,294.5z"/>
			</g>
		</g>
		<g>
			
				<ellipse transform="matrix(1 -3.820067e-03 3.820067e-03 1 -1.12 4.9131)" class="st8" cx="1285.6" cy="295.6" rx="17.5" ry="17.5"/>
		</g>
		<g>
			<pattern  id="SVGID_5_" xlink:href="#Unnamed_Pattern_4" patternTransform="matrix(0 1.3112 -1.2587 0 -25673.6367 1669.2273)">
			</pattern>
			<circle class="st12" cx="1285" cy="141.8" r="17.5"/>
		</g>
	</g>
	<g>
		<path d="M1200.7,886.2v14.4h-1.6l-8.6-12.3v12.3h-1.5v-14.4h1.7l8.5,12v-12H1200.7z"/>
		<path d="M1204.6,895.8c0-2.9,2.2-5.1,5.1-5.1c2.8,0,5.1,2.2,5.1,5c0,2.9-2.2,5.1-5.1,5.1C1206.8,900.8,1204.6,898.5,1204.6,895.8z
			 M1213.2,895.8c0-2.1-1.5-3.9-3.6-3.9c-2.1,0-3.6,1.7-3.6,3.8c0,2.1,1.5,3.8,3.6,3.8C1211.7,899.5,1213.2,897.8,1213.2,895.8z"/>
		<path d="M1223.9,895.6v-1.4h8.4v1.4H1223.9z"/>
		<path d="M1240.8,886.2h1.6l3.8,12.2h0l3.8-12.2h1.7l3.8,12.3h0l3.8-12.3h1.5l-4.5,14.4h-1.7l-3.8-12.3l-3.9,12.3h-1.7
			L1240.8,886.2z"/>
		<path d="M1263.9,896.2c0.1,1.9,1.6,3.4,3.5,3.4c1.5,0,2.6-0.7,3-2.1l1.3,0.4c-0.6,1.9-2.4,3-4.3,3c-2.8,0-5-2.3-5-5.1
			c0-2.7,2-5.1,4.8-5.1c3,0,4.6,2.2,4.6,5c0,0.2,0,0.3,0,0.5H1263.9z M1270.4,894.9c-0.2-1.8-1.3-3.1-3.2-3.1
			c-1.7,0-3.1,1.4-3.3,3.1H1270.4z"/>
		<path d="M1285.2,890.6c1.9,0,3,1.1,3.8,2.2v-7.2h1.4v15h-1.4v-2.1c-0.8,1.2-1.9,2.2-3.8,2.2c-2.8,0-4.6-2.4-4.6-5.1
			C1280.6,893.1,1282.4,890.6,1285.2,890.6z M1289,895.7c0-1.9-1.5-3.8-3.5-3.8c-2.1,0-3.4,1.7-3.4,3.8c0,2,1.3,3.8,3.4,3.8
			C1287.5,899.5,1289,897.7,1289,895.7z"/>
		<path d="M1293.8,895.8c0-2.9,2.2-5.1,5.1-5.1c2.8,0,5.1,2.2,5.1,5c0,2.9-2.2,5.1-5.1,5.1C1296,900.8,1293.8,898.5,1293.8,895.8z
			 M1302.5,895.8c0-2.1-1.5-3.9-3.6-3.9c-2.1,0-3.6,1.7-3.6,3.8c0,2.1,1.5,3.8,3.6,3.8C1301,899.5,1302.5,897.8,1302.5,895.8z"/>
		<path d="M1314.5,894.9c0-1.7-0.9-3-2.7-3c-1.7,0-2.9,1.4-2.9,3.1v5.6h-1.4v-9.8h1.4v1.8c0.8-1.3,1.9-2,3.4-2
			c2.4,0,3.7,1.6,3.7,3.9v6.1h-1.4V894.9z"/>
		<path d="M1319.1,890.8c0.8-0.6,1.5-1.4,1.6-2.2c-0.1,0.1-0.3,0.1-0.4,0.1c-0.7,0-1.2-0.5-1.2-1.2c0-0.8,0.6-1.3,1.3-1.3
			c0.8,0,1.5,0.7,1.5,1.8v0.1c0,1.3-0.7,2.5-2,3.4L1319.1,890.8z"/>
		<path d="M1326,898.1v-6h-1.8v-1.3h1.8V888h1.4v2.8h2.5v1.3h-2.5v6c0,0.9,0.5,1.4,1.6,1.4c0.3,0,0.7,0,0.9-0.1v1.2
			c-0.3,0.1-0.9,0.1-1.1,0.1C1326.7,900.7,1326,899.5,1326,898.1z"/>
		<path d="M1197.7,922.8c-1.9,0-3-0.9-3.8-2.2v2.1h-1.4v-15h1.4v7.3c0.8-1.2,1.9-2.3,3.8-2.3c2.8,0,4.6,2.5,4.6,5.1
			C1202.3,920.4,1200.5,922.8,1197.7,922.8z M1200.9,917.8c0-2-1.3-3.8-3.4-3.8c-2,0-3.5,1.8-3.5,3.8c0,2,1.4,3.8,3.5,3.8
			C1199.6,921.5,1200.9,919.8,1200.9,917.8z"/>
		<path d="M1211.7,916.3c0-1.6-0.9-2.4-2.5-2.4c-1.7,0-2.4,1.1-2.6,2l-1.4-0.3c0.1-0.8,1.2-3,4-3c2.1,0,3.1,0.9,3.6,2
			c0.2,0.5,0.3,1.3,0.3,1.6v6.3h-1.4v-1.7h0c-0.8,1.2-1.8,1.9-3.3,1.9c-2,0-3.3-1.2-3.3-2.9v-0.1c0-2.1,2.1-2.8,3.9-2.8h2.7V916.3z
			 M1208.9,918.2c-1,0-2.4,0.3-2.4,1.7c0,1.1,0.9,1.7,2.1,1.7c1.7,0,3-1.2,3-3v-0.3H1208.9z"/>
		<path d="M1221.4,921.5c2.2,0,3-1.6,3.3-2.4l1.3,0.4c-0.4,1.5-2.1,3.2-4.6,3.2c-2.8,0-5-2.1-5-5c0-3,2.3-5.1,5.1-5.1
			c2.3,0,4.1,1.5,4.5,3.1l-1.3,0.4c-0.2-0.8-1.2-2.3-3.2-2.3c-2.1,0-3.5,1.7-3.5,3.7C1217.9,919.7,1219.2,921.5,1221.4,921.5z"/>
		<path d="M1230.8,922.7h-1.4v-15h1.4v9.1l4.7-4h2l-5.2,4.4l5.4,5.4h-2l-4.9-4.9h-0.1V922.7z"/>
		<path d="M1246.9,920.1v-6h-1.8v-1.3h1.8V910h1.4v2.8h2.5v1.3h-2.5v6c0,0.9,0.5,1.4,1.6,1.4c0.3,0,0.7,0,0.9-0.1v1.2
			c-0.3,0.1-0.9,0.1-1.1,0.1C1247.6,922.7,1246.9,921.5,1246.9,920.1z"/>
		<path d="M1261.2,916.9c0-1.7-0.9-3-2.7-3c-1.7,0-2.9,1.4-2.9,3.1v5.6h-1.4v-15h1.4v6.9c0.8-1.3,1.9-1.9,3.4-1.9
			c2.4,0,3.7,1.6,3.7,3.9v6.1h-1.4V916.9z"/>
		<path d="M1267.4,918.2c0.1,1.9,1.6,3.4,3.5,3.4c1.5,0,2.6-0.7,3-2.1l1.3,0.4c-0.6,1.9-2.4,3-4.3,3c-2.8,0-5-2.3-5-5.1
			c0-2.7,2-5.1,4.8-5.1c3,0,4.6,2.2,4.6,5c0,0.2,0,0.3,0,0.5H1267.4z M1273.9,917c-0.2-1.8-1.3-3.1-3.2-3.1c-1.7,0-3.1,1.4-3.3,3.1
			H1273.9z"/>
		<path d="M1285.4,916.9c0-1.6-0.8-2.9-2.5-2.9c-1.7,0-2.7,1.5-2.7,3.1v5.6h-1.4v-9.8h1.4v1.7c0.8-1.2,1.7-1.9,3.2-1.9
			c1.4,0,2.6,0.7,3.1,2c0.8-1.3,1.9-1.9,3.5-1.9c2.4,0,3.6,1.6,3.6,3.9v6.1h-1.4v-5.7c0-1.6-0.7-3-2.5-3c-1.7,0-2.7,1.4-2.7,3v5.6
			h-1.4V916.9z"/>
		<path d="M1304.9,918.6c0,1.7,0.9,3,2.7,3c1.7,0,2.9-1.3,2.9-3.1v-5.6h1.4v9.8h-1.4v-1.8c-0.8,1.3-1.9,2-3.4,2
			c-2.4,0-3.7-1.6-3.7-3.9v-6.1h1.4V918.6z"/>
		<path d="M1321.3,922.8c-1.8,0-3-0.9-3.8-2.2v6.9h-1.4v-14.6h1.4v2.1c0.8-1.2,1.9-2.3,3.8-2.3c2.8,0,4.6,2.5,4.6,5.1
			C1326,920.4,1324.1,922.8,1321.3,922.8z M1324.5,917.8c0-2-1.3-3.8-3.4-3.8c-2,0-3.5,1.8-3.5,3.8c0,2,1.4,3.8,3.5,3.8
			C1323.2,921.5,1324.5,919.8,1324.5,917.8z"/>
	</g>
</g>
</svg>
