<?xml version="1.0" encoding="utf-8"?>
<!-- Generator: Adobe Illustrator 21.1.0, SVG Export Plug-In . SVG Version: 6.00 Build 0)  -->
<svg version="1.1" id="Layer_1" xmlns="http://www.w3.org/2000/svg" xmlns:xlink="http://www.w3.org/1999/xlink" x="0px" y="0px"
	 viewBox="0 0 1500 1053" style="enable-background:new 0 0 1500 1053;" xml:space="preserve">
<style type="text/css">
	.st0{fill:none;}
	.st1{fill:none;stroke:#000000;stroke-width:2;stroke-linecap:round;stroke-miterlimit:10;}
	.st2{fill:none;stroke:#000000;stroke-width:2;stroke-linecap:round;stroke-miterlimit:10;stroke-dasharray:0,10;}
	.st3{fill:#8EFFDE;}
	.st4{fill:#FF8F4E;}
	.st5{opacity:0.9;}
	.st6{opacity:0.1;}
	.st7{opacity:0.2;}
	.st8{fill:url(#SVGID_1_);}
	.st9{fill:url(#SVGID_2_);}
	.st10{fill:#CCCCCC;}
</style>
<pattern  y="1053" width="240" height="240" patternUnits="userSpaceOnUse" id="Unnamed_Pattern_4" viewBox="1 -241 240 240" style="overflow:visible;">
	<g>
		<rect x="1" y="-241" class="st0" width="240" height="240"/>
		<g>
			<g>
				<line class="st1" x1="241" y1="-1" x2="241" y2="-1"/>
			</g>
		</g>
		<g>
			<g>
				<line class="st1" x1="1" y1="-1" x2="1" y2="-1"/>
				<line class="st2" x1="11" y1="-1" x2="236" y2="-1"/>
				<line class="st1" x1="241" y1="-1" x2="241" y2="-1"/>
			</g>
		</g>
		<g>
			<g>
				<line class="st1" x1="1" y1="-1" x2="1" y2="-1"/>
			</g>
		</g>
		<g>
			<g>
				<line class="st1" x1="241" y1="-241" x2="241" y2="-241"/>
			</g>
			<g>
				<line class="st1" x1="241" y1="-231" x2="241" y2="-231"/>
			</g>
			<g>
				<line class="st1" x1="241" y1="-221" x2="241" y2="-221"/>
			</g>
			<g>
				<line class="st1" x1="241" y1="-211" x2="241" y2="-211"/>
			</g>
			<g>
				<line class="st1" x1="241" y1="-201" x2="241" y2="-201"/>
			</g>
			<g>
				<line class="st1" x1="241" y1="-191" x2="241" y2="-191"/>
			</g>
			<g>
				<line class="st1" x1="241" y1="-181" x2="241" y2="-181"/>
			</g>
			<g>
				<line class="st1" x1="241" y1="-171" x2="241" y2="-171"/>
			</g>
			<g>
				<line class="st1" x1="241" y1="-161" x2="241" y2="-161"/>
			</g>
			<g>
				<line class="st1" x1="241" y1="-151" x2="241" y2="-151"/>
			</g>
			<g>
				<line class="st1" x1="241" y1="-141" x2="241" y2="-141"/>
			</g>
			<g>
				<line class="st1" x1="241" y1="-131" x2="241" y2="-131"/>
			</g>
			<g>
				<line class="st1" x1="241" y1="-121" x2="241" y2="-121"/>
			</g>
			<g>
				<line class="st1" x1="241" y1="-111" x2="241" y2="-111"/>
			</g>
			<g>
				<line class="st1" x1="241" y1="-101" x2="241" y2="-101"/>
			</g>
			<g>
				<line class="st1" x1="241" y1="-91" x2="241" y2="-91"/>
			</g>
			<g>
				<line class="st1" x1="241" y1="-81" x2="241" y2="-81"/>
			</g>
			<g>
				<line class="st1" x1="241" y1="-71" x2="241" y2="-71"/>
			</g>
			<g>
				<line class="st1" x1="241" y1="-61" x2="241" y2="-61"/>
			</g>
			<g>
				<line class="st1" x1="241" y1="-51" x2="241" y2="-51"/>
			</g>
			<g>
				<line class="st1" x1="241" y1="-41" x2="241" y2="-41"/>
			</g>
			<g>
				<line class="st1" x1="241" y1="-31" x2="241" y2="-31"/>
			</g>
			<g>
				<line class="st1" x1="241" y1="-21" x2="241" y2="-21"/>
			</g>
			<g>
				<line class="st1" x1="241" y1="-11" x2="241" y2="-11"/>
			</g>
			<g>
				<line class="st1" x1="241" y1="-1" x2="241" y2="-1"/>
			</g>
		</g>
		<g>
			<g>
				<line class="st1" x1="1" y1="-241" x2="1" y2="-241"/>
				<line class="st2" x1="11" y1="-241" x2="236" y2="-241"/>
				<line class="st1" x1="241" y1="-241" x2="241" y2="-241"/>
			</g>
			<g>
				<line class="st1" x1="1" y1="-231" x2="1" y2="-231"/>
				<line class="st2" x1="11" y1="-231" x2="236" y2="-231"/>
				<line class="st1" x1="241" y1="-231" x2="241" y2="-231"/>
			</g>
			<g>
				<line class="st1" x1="1" y1="-221" x2="1" y2="-221"/>
				<line class="st2" x1="11" y1="-221" x2="236" y2="-221"/>
				<line class="st1" x1="241" y1="-221" x2="241" y2="-221"/>
			</g>
			<g>
				<line class="st1" x1="1" y1="-211" x2="1" y2="-211"/>
				<line class="st2" x1="11" y1="-211" x2="236" y2="-211"/>
				<line class="st1" x1="241" y1="-211" x2="241" y2="-211"/>
			</g>
			<g>
				<line class="st1" x1="1" y1="-201" x2="1" y2="-201"/>
				<line class="st2" x1="11" y1="-201" x2="236" y2="-201"/>
				<line class="st1" x1="241" y1="-201" x2="241" y2="-201"/>
			</g>
			<g>
				<line class="st1" x1="1" y1="-191" x2="1" y2="-191"/>
				<line class="st2" x1="11" y1="-191" x2="236" y2="-191"/>
				<line class="st1" x1="241" y1="-191" x2="241" y2="-191"/>
			</g>
			<g>
				<line class="st1" x1="1" y1="-181" x2="1" y2="-181"/>
				<line class="st2" x1="11" y1="-181" x2="236" y2="-181"/>
				<line class="st1" x1="241" y1="-181" x2="241" y2="-181"/>
			</g>
			<g>
				<line class="st1" x1="1" y1="-171" x2="1" y2="-171"/>
				<line class="st2" x1="11" y1="-171" x2="236" y2="-171"/>
				<line class="st1" x1="241" y1="-171" x2="241" y2="-171"/>
			</g>
			<g>
				<line class="st1" x1="1" y1="-161" x2="1" y2="-161"/>
				<line class="st2" x1="11" y1="-161" x2="236" y2="-161"/>
				<line class="st1" x1="241" y1="-161" x2="241" y2="-161"/>
			</g>
			<g>
				<line class="st1" x1="1" y1="-151" x2="1" y2="-151"/>
				<line class="st2" x1="11" y1="-151" x2="236" y2="-151"/>
				<line class="st1" x1="241" y1="-151" x2="241" y2="-151"/>
			</g>
			<g>
				<line class="st1" x1="1" y1="-141" x2="1" y2="-141"/>
				<line class="st2" x1="11" y1="-141" x2="236" y2="-141"/>
				<line class="st1" x1="241" y1="-141" x2="241" y2="-141"/>
			</g>
			<g>
				<line class="st1" x1="1" y1="-131" x2="1" y2="-131"/>
				<line class="st2" x1="11" y1="-131" x2="236" y2="-131"/>
				<line class="st1" x1="241" y1="-131" x2="241" y2="-131"/>
			</g>
			<g>
				<line class="st1" x1="1" y1="-121" x2="1" y2="-121"/>
				<line class="st2" x1="11" y1="-121" x2="236" y2="-121"/>
				<line class="st1" x1="241" y1="-121" x2="241" y2="-121"/>
			</g>
			<g>
				<line class="st1" x1="1" y1="-111" x2="1" y2="-111"/>
				<line class="st2" x1="11" y1="-111" x2="236" y2="-111"/>
				<line class="st1" x1="241" y1="-111" x2="241" y2="-111"/>
			</g>
			<g>
				<line class="st1" x1="1" y1="-101" x2="1" y2="-101"/>
				<line class="st2" x1="11" y1="-101" x2="236" y2="-101"/>
				<line class="st1" x1="241" y1="-101" x2="241" y2="-101"/>
			</g>
			<g>
				<line class="st1" x1="1" y1="-91" x2="1" y2="-91"/>
				<line class="st2" x1="11" y1="-91" x2="236" y2="-91"/>
				<line class="st1" x1="241" y1="-91" x2="241" y2="-91"/>
			</g>
			<g>
				<line class="st1" x1="1" y1="-81" x2="1" y2="-81"/>
				<line class="st2" x1="11" y1="-81" x2="236" y2="-81"/>
				<line class="st1" x1="241" y1="-81" x2="241" y2="-81"/>
			</g>
			<g>
				<line class="st1" x1="1" y1="-71" x2="1" y2="-71"/>
				<line class="st2" x1="11" y1="-71" x2="236" y2="-71"/>
				<line class="st1" x1="241" y1="-71" x2="241" y2="-71"/>
			</g>
			<g>
				<line class="st1" x1="1" y1="-61" x2="1" y2="-61"/>
				<line class="st2" x1="11" y1="-61" x2="236" y2="-61"/>
				<line class="st1" x1="241" y1="-61" x2="241" y2="-61"/>
			</g>
			<g>
				<line class="st1" x1="1" y1="-51" x2="1" y2="-51"/>
				<line class="st2" x1="11" y1="-51" x2="236" y2="-51"/>
				<line class="st1" x1="241" y1="-51" x2="241" y2="-51"/>
			</g>
			<g>
				<line class="st1" x1="1" y1="-41" x2="1" y2="-41"/>
				<line class="st2" x1="11" y1="-41" x2="236" y2="-41"/>
				<line class="st1" x1="241" y1="-41" x2="241" y2="-41"/>
			</g>
			<g>
				<line class="st1" x1="1" y1="-31" x2="1" y2="-31"/>
				<line class="st2" x1="11" y1="-31" x2="236" y2="-31"/>
				<line class="st1" x1="241" y1="-31" x2="241" y2="-31"/>
			</g>
			<g>
				<line class="st1" x1="1" y1="-21" x2="1" y2="-21"/>
				<line class="st2" x1="11" y1="-21" x2="236" y2="-21"/>
				<line class="st1" x1="241" y1="-21" x2="241" y2="-21"/>
			</g>
			<g>
				<line class="st1" x1="1" y1="-11" x2="1" y2="-11"/>
				<line class="st2" x1="11" y1="-11" x2="236" y2="-11"/>
				<line class="st1" x1="241" y1="-11" x2="241" y2="-11"/>
			</g>
			<g>
				<line class="st1" x1="1" y1="-1" x2="1" y2="-1"/>
				<line class="st2" x1="11" y1="-1" x2="236" y2="-1"/>
				<line class="st1" x1="241" y1="-1" x2="241" y2="-1"/>
			</g>
		</g>
		<g>
			<g>
				<line class="st1" x1="1" y1="-241" x2="1" y2="-241"/>
			</g>
			<g>
				<line class="st1" x1="1" y1="-231" x2="1" y2="-231"/>
			</g>
			<g>
				<line class="st1" x1="1" y1="-221" x2="1" y2="-221"/>
			</g>
			<g>
				<line class="st1" x1="1" y1="-211" x2="1" y2="-211"/>
			</g>
			<g>
				<line class="st1" x1="1" y1="-201" x2="1" y2="-201"/>
			</g>
			<g>
				<line class="st1" x1="1" y1="-191" x2="1" y2="-191"/>
			</g>
			<g>
				<line class="st1" x1="1" y1="-181" x2="1" y2="-181"/>
			</g>
			<g>
				<line class="st1" x1="1" y1="-171" x2="1" y2="-171"/>
			</g>
			<g>
				<line class="st1" x1="1" y1="-161" x2="1" y2="-161"/>
			</g>
			<g>
				<line class="st1" x1="1" y1="-151" x2="1" y2="-151"/>
			</g>
			<g>
				<line class="st1" x1="1" y1="-141" x2="1" y2="-141"/>
			</g>
			<g>
				<line class="st1" x1="1" y1="-131" x2="1" y2="-131"/>
			</g>
			<g>
				<line class="st1" x1="1" y1="-121" x2="1" y2="-121"/>
			</g>
			<g>
				<line class="st1" x1="1" y1="-111" x2="1" y2="-111"/>
			</g>
			<g>
				<line class="st1" x1="1" y1="-101" x2="1" y2="-101"/>
			</g>
			<g>
				<line class="st1" x1="1" y1="-91" x2="1" y2="-91"/>
			</g>
			<g>
				<line class="st1" x1="1" y1="-81" x2="1" y2="-81"/>
			</g>
			<g>
				<line class="st1" x1="1" y1="-71" x2="1" y2="-71"/>
			</g>
			<g>
				<line class="st1" x1="1" y1="-61" x2="1" y2="-61"/>
			</g>
			<g>
				<line class="st1" x1="1" y1="-51" x2="1" y2="-51"/>
			</g>
			<g>
				<line class="st1" x1="1" y1="-41" x2="1" y2="-41"/>
			</g>
			<g>
				<line class="st1" x1="1" y1="-31" x2="1" y2="-31"/>
			</g>
			<g>
				<line class="st1" x1="1" y1="-21" x2="1" y2="-21"/>
			</g>
			<g>
				<line class="st1" x1="1" y1="-11" x2="1" y2="-11"/>
			</g>
			<g>
				<line class="st1" x1="1" y1="-1" x2="1" y2="-1"/>
			</g>
		</g>
		<g>
			<g>
				<line class="st1" x1="241" y1="-241" x2="241" y2="-241"/>
			</g>
		</g>
		<g>
			<g>
				<line class="st1" x1="1" y1="-241" x2="1" y2="-241"/>
				<line class="st2" x1="11" y1="-241" x2="236" y2="-241"/>
				<line class="st1" x1="241" y1="-241" x2="241" y2="-241"/>
			</g>
		</g>
		<g>
			<g>
				<line class="st1" x1="1" y1="-241" x2="1" y2="-241"/>
			</g>
		</g>
	</g>
</pattern>
<g>
	<g>
		<path d="M1303.2,217.6v1.7l-9.8,4.6l9.8,4.6v1.8l-11.7-5.6v-1.6L1303.2,217.6z"/>
		<path d="M1310.8,216.6l-1,6c1.1-1.1,3-1.4,3.8-1.4c3.3,0,5.8,2.2,5.8,5.7c0,3.8-3.2,5.8-6.2,5.8c-2.9,0-5.7-1.9-6.1-4.8l1.8-0.4
			c0.3,2,2,3.5,4.3,3.5c1.8,0,4.3-1.2,4.3-4s-2.1-4.1-4.3-4.1c-1.3,0-2.8,0.7-3.7,1.8l-1.7-0.7l1.5-9.1h9.3v1.7H1310.8z"/>
		<path d="M1337.6,232.8c-2.2,0-3.7-1.1-4.7-2.7v8.4h-1.8v-18h1.7v2.6c1-1.5,2.4-2.8,4.7-2.8c3.4,0,5.7,3.1,5.7,6.2
			C1343.3,229.8,1341,232.8,1337.6,232.8z M1341.5,226.6c0-2.5-1.6-4.7-4.2-4.7c-2.5,0-4.3,2.2-4.3,4.6c0,2.5,1.8,4.7,4.3,4.7
			C1339.9,231.2,1341.5,229.1,1341.5,226.6z"/>
		<path d="M1348.4,227.1c0.1,2.4,2,4.1,4.3,4.1c1.8,0,3.2-0.9,3.7-2.6l1.6,0.5c-0.7,2.3-2.9,3.6-5.3,3.6c-3.5,0-6.1-2.8-6.1-6.3
			c0-3.3,2.5-6.2,5.9-6.2c3.7,0,5.7,2.7,5.7,6.2c0,0.2,0,0.4,0,0.6H1348.4z M1356.4,225.6c-0.2-2.2-1.6-3.8-3.9-3.8
			c-2.1,0-3.8,1.7-4.1,3.8H1356.4z"/>
		<path d="M1361.5,226.6c0-3.6,2.7-6.3,6.3-6.3c3.5,0,6.2,2.7,6.2,6.2c0,3.6-2.7,6.3-6.3,6.3C1364.2,232.8,1361.5,230,1361.5,226.6z
			 M1372.2,226.6c0-2.5-1.8-4.7-4.5-4.7c-2.6,0-4.4,2.1-4.4,4.7s1.8,4.7,4.5,4.7C1370.3,231.2,1372.2,229.1,1372.2,226.6z"/>
		<path d="M1384.6,232.8c-2.2,0-3.7-1.1-4.7-2.7v8.4h-1.8v-18h1.7v2.6c1-1.5,2.4-2.8,4.7-2.8c3.4,0,5.7,3.1,5.7,6.2
			C1390.3,229.8,1388.1,232.8,1384.6,232.8z M1388.5,226.6c0-2.5-1.6-4.7-4.2-4.7c-2.5,0-4.3,2.2-4.3,4.6c0,2.5,1.8,4.7,4.3,4.7
			C1386.9,231.2,1388.5,229.1,1388.5,226.6z"/>
		<path d="M1396.4,214.1v18.4h-1.8v-18.4H1396.4z"/>
		<path d="M1402.4,227.1c0.1,2.4,2,4.1,4.3,4.1c1.8,0,3.2-0.9,3.7-2.6l1.6,0.5c-0.7,2.3-2.9,3.6-5.3,3.6c-3.5,0-6.1-2.8-6.1-6.3
			c0-3.3,2.5-6.2,5.9-6.2c3.7,0,5.7,2.7,5.7,6.2c0,0.2,0,0.4,0,0.6H1402.4z M1410.4,225.6c-0.2-2.2-1.6-3.8-3.9-3.8
			c-2.1,0-3.8,1.7-4.1,3.8H1410.4z"/>
	</g>
</g>
<g>
	<g>
		<path d="M1294.5,163.4l-1.9,4.5h-1.9l7.6-17.7h2.1l7.6,17.7h-2l-1.9-4.5H1294.5z M1295.2,161.7h8.2l-4.1-9.6L1295.2,161.7z"/>
		<path d="M1313,149.5v18.4h-1.8v-18.4H1313z"/>
		<path d="M1319.9,149.5v18.4h-1.8v-18.4H1319.9z"/>
	</g>
</g>
<g>
	<circle class="st3" cx="1250.6" cy="226.6" r="21.5"/>
</g>
<g>
	<g>
		<path d="M1293.8,286.1c1.2-1.9,3.4-2.6,4.9-2.6c3.7,0,5.9,2.6,5.9,5.7c0,4-3.2,6-6.3,6c-1.9,0-4.3-1.1-5.3-3
			c-0.9-1.5-1.1-2.7-1.1-4.9c0-5.6,3-10.2,8.7-10.2c1,0,2.4,0.1,3.6,0.8l-0.7,1.7c-0.9-0.6-2.2-0.7-2.9-0.7
			C1296.5,278.9,1294.2,282.1,1293.8,286.1z M1295.4,286.2c-0.9,0.7-1.4,1.9-1.4,3.1c0,2.6,2.2,4.2,4.4,4.2c2.2,0,4.4-1.4,4.4-4.2
			c0-2.2-1.7-4.1-4.4-4.1C1297.3,285.2,1296.3,285.6,1295.4,286.2z"/>
		<path d="M1316.1,288.9v-1.8h10.4v1.8H1316.1z"/>
		<path d="M1344,295.2c-3.1,0-5.7-1.9-6.1-4.8l1.8-0.4c0.3,2,1.9,3.5,4.3,3.5c2.4,0,4.3-1.3,4.3-3.3s-1.5-3.3-4.3-3.3h-1.8v-1.7h1.7
			c2.4,0,3.9-1.5,3.9-3.2c0-1.8-1.4-3.1-3.9-3.1c-2.4,0-3.8,1.4-4.1,3.3l-1.8-0.4c0.3-2.5,2.6-4.6,5.9-4.6c3.8,0,5.7,2.4,5.7,4.7
			c0,2-1.1,3.3-2.8,4.1v0c2,0.6,3.2,2.1,3.2,4.2C1350.1,292.9,1347.7,295.2,1344,295.2z"/>
		<path d="M1353.9,286.2c0-4.4,2.5-9.1,7.4-9.1c4.9,0,7.3,4.6,7.3,9c0,4.4-2.5,9.1-7.4,9.1C1356.3,295.2,1353.9,290.6,1353.9,286.2z
			 M1355.8,286.2c0,3.2,1.6,7.4,5.5,7.4c3.8,0,5.5-4.1,5.5-7.3c0-3.2-1.7-7.4-5.5-7.4C1357.4,278.9,1355.8,283,1355.8,286.2z"/>
	</g>
</g>
<g>
	<circle class="st4" cx="1250.6" cy="289" r="21.5"/>
</g>
<g>
	<g>
		<path d="M1297.8,357.7c-3.1,0-5.7-1.9-6.1-4.8l1.8-0.4c0.3,2,1.9,3.5,4.3,3.5c2.4,0,4.3-1.3,4.3-3.3s-1.5-3.3-4.3-3.3h-1.8v-1.7
			h1.7c2.4,0,3.9-1.5,3.9-3.2c0-1.8-1.4-3.1-3.9-3.1c-2.4,0-3.8,1.4-4.1,3.3l-1.8-0.4c0.3-2.5,2.6-4.6,5.9-4.6
			c3.8,0,5.7,2.4,5.7,4.7c0,2-1.1,3.3-2.8,4.1v0c2,0.6,3.2,2.1,3.2,4.2C1303.9,355.4,1301.5,357.7,1297.8,357.7z"/>
		<path d="M1307.7,348.7c0-4.4,2.5-9.1,7.4-9.1c4.9,0,7.3,4.6,7.3,9c0,4.4-2.5,9.1-7.4,9.1C1310.2,357.7,1307.7,353.1,1307.7,348.7z
			 M1309.6,348.7c0,3.2,1.6,7.4,5.5,7.4c3.8,0,5.5-4.1,5.5-7.3c0-3.2-1.7-7.4-5.5-7.4C1311.2,341.4,1309.6,345.5,1309.6,348.7z"/>
		<path d="M1330.7,354.5v-4.7h-4.7v-1.7h4.7v-4.6h1.7v4.6h4.7v1.7h-4.7v4.7H1330.7z"/>
		<path d="M1355.2,357.7c-2.2,0-3.7-1.1-4.7-2.7v8.4h-1.8v-18h1.7v2.6c1-1.5,2.4-2.8,4.7-2.8c3.4,0,5.7,3.1,5.7,6.2
			C1360.9,354.7,1358.7,357.7,1355.2,357.7z M1359.1,351.5c0-2.5-1.6-4.7-4.2-4.7c-2.5,0-4.3,2.2-4.3,4.6c0,2.5,1.8,4.7,4.3,4.7
			C1357.6,356.2,1359.1,354.1,1359.1,351.5z"/>
		<path d="M1366.1,352c0.1,2.4,2,4.1,4.3,4.1c1.8,0,3.2-0.9,3.7-2.6l1.6,0.5c-0.7,2.3-2.9,3.6-5.3,3.6c-3.5,0-6.1-2.8-6.1-6.3
			c0-3.3,2.5-6.2,5.9-6.2c3.7,0,5.7,2.7,5.7,6.2c0,0.2,0,0.4,0,0.6H1366.1z M1374.1,350.6c-0.2-2.2-1.6-3.8-3.9-3.8
			c-2.1,0-3.8,1.7-4.1,3.8H1374.1z"/>
		<path d="M1379.2,351.6c0-3.6,2.7-6.3,6.3-6.3c3.5,0,6.2,2.7,6.2,6.2c0,3.6-2.7,6.3-6.3,6.3C1381.9,357.7,1379.2,355,1379.2,351.6z
			 M1389.8,351.6c0-2.5-1.8-4.7-4.5-4.7s-4.4,2.1-4.4,4.7s1.8,4.7,4.5,4.7C1388,356.2,1389.8,354.1,1389.8,351.6z"/>
		<path d="M1402.3,357.7c-2.2,0-3.7-1.1-4.7-2.7v8.4h-1.8v-18h1.7v2.6c1-1.5,2.4-2.8,4.7-2.8c3.4,0,5.7,3.1,5.7,6.2
			C1408,354.7,1405.7,357.7,1402.3,357.7z M1406.2,351.5c0-2.5-1.6-4.7-4.2-4.7c-2.5,0-4.3,2.2-4.3,4.6c0,2.5,1.8,4.7,4.3,4.7
			C1404.6,356.2,1406.2,354.1,1406.2,351.5z"/>
		<path d="M1414,339.1v18.4h-1.8v-18.4H1414z"/>
		<path d="M1420,352c0.1,2.4,2,4.1,4.3,4.1c1.8,0,3.2-0.9,3.7-2.6l1.6,0.5c-0.7,2.3-2.9,3.6-5.3,3.6c-3.5,0-6.1-2.8-6.1-6.3
			c0-3.3,2.5-6.2,5.9-6.2c3.7,0,5.7,2.7,5.7,6.2c0,0.2,0,0.4,0,0.6H1420z M1428,350.6c-0.2-2.2-1.6-3.8-3.9-3.8
			c-2.1,0-3.8,1.7-4.1,3.8H1428z"/>
	</g>
</g>
<g class="st5">
	<circle cx="1250.6" cy="351.5" r="21.5"/>
</g>
<g class="st6">
	<circle cx="1250.6" cy="161.9" r="21.5"/>
</g>
<g class="st7">
	
		<pattern  id="SVGID_1_" xlink:href="#Unnamed_Pattern_4" patternTransform="matrix(0 1.6157 -1.5511 0 -29727.3984 3343.3647)"  class="st7">
	</pattern>
	<rect x="834.8" y="736.9" class="st8" width="543.2" height="175.7"/>
</g>
<g class="st6">
	<polygon points="304,736.9 233.4,736.9 143.5,736.9 143.5,912.6 233.4,912.6 304,912.6 834.8,912.6 834.8,736.9 	"/>
</g>
<g class="st7">
	
		<pattern  id="SVGID_2_" xlink:href="#Unnamed_Pattern_4" patternTransform="matrix(0 1.6157 -1.5511 0 -29727.3984 3343.3647)"  class="st7">
	</pattern>
	<rect x="489.2" y="467.6" class="st9" width="888.8" height="175.7"/>
</g>
<g class="st6">
	<polygon points="304,467.6 188.5,467.6 143.5,467.6 143.5,643.3 188.5,643.3 304,643.3 489.2,643.3 489.2,467.6 	"/>
</g>
<g class="st5">
	<path class="st10" d="M500.6,447.3c0-2.4,1.1-4.9,4.7-7.1l3.1-1.9c1.9-1.2,3.5-2.4,3.5-4.8c0-2.1-1.8-4-4.4-4
		c-2.2,0-3.6,1.3-4.2,2.6c-0.4,0.9-0.4,1.7-0.4,2l-2.1-0.3c0-2.9,2.4-6.3,6.7-6.3c3.7,0,6.6,2.8,6.6,6c0,2.9-1.6,4.6-4.3,6.2l-3.2,2
		c-1.7,1.1-3.4,2.5-3.5,4.3h11.1v2h-13.7V447.3z"/>
	<path class="st10" d="M517.3,442.4c0-2.1,1.5-4,4.2-4.9c-2.5-0.7-3.7-2.9-3.7-4.6c0-3.5,3.6-5.4,6.6-5.4c3.1,0,6.6,1.8,6.6,5.4
		c0,1.9-1.4,3.9-3.8,4.6c2.8,0.8,4.2,2.8,4.2,4.9c0,3.7-3.6,5.7-7.1,5.7C521,448.1,517.3,446.2,517.3,442.4z M529.4,442.4
		c0-2.7-2.8-3.9-5-3.9c-2.1,0-5,1.2-5,3.9c0,2.7,2.8,3.9,5,3.9C526.6,446.2,529.4,445,529.4,442.4z M519.9,432.9
		c0,2.6,2.8,3.7,4.5,3.7s4.5-1.2,4.5-3.7c0-2.4-2.6-3.6-4.5-3.6C522.5,429.4,519.9,430.6,519.9,432.9z"/>
	<path class="st10" d="M536.3,438.6c-1.5,0-2.7-1.2-2.7-2.7c0-1.5,1.2-2.7,2.7-2.7c1.5,0,2.7,1.2,2.7,2.7
		C539,437.4,537.8,438.6,536.3,438.6z M536.3,434.3c-0.9,0-1.7,0.7-1.7,1.7c0,0.9,0.8,1.7,1.7,1.7c0.9,0,1.7-0.7,1.7-1.7
		C538,435,537.3,434.3,536.3,434.3z M542.8,433.4h1.2l-7.7,11.8h-1.2L542.8,433.4z M542.9,445.3c-1.5,0-2.7-1.2-2.7-2.7
		c0-1.5,1.2-2.7,2.7-2.7s2.7,1.2,2.7,2.7C545.5,444.1,544.4,445.3,542.9,445.3z M542.9,441c-0.9,0-1.7,0.7-1.7,1.7
		c0,0.9,0.7,1.7,1.7,1.7c0.9,0,1.7-0.7,1.7-1.7C544.6,441.7,543.8,441,542.9,441z"/>
</g>
<g class="st5">
	<path d="M148.9,222.7l-4.3,2.5l-0.8-1.4l5.1-3.1h1.8v17.7h-1.9V222.7z"/>
	<path d="M160.4,238.6c-3.1,0-5.7-1.9-6.1-4.8l1.8-0.4c0.3,2,1.9,3.5,4.3,3.5c2.4,0,4.3-1.3,4.3-3.3s-1.5-3.3-4.3-3.3h-1.8v-1.7h1.7
		c2.4,0,3.9-1.5,3.9-3.2c0-1.8-1.4-3.1-3.9-3.1c-2.4,0-3.8,1.4-4.1,3.3l-1.8-0.4c0.3-2.5,2.6-4.6,5.9-4.6c3.8,0,5.7,2.4,5.7,4.7
		c0,2-1.1,3.3-2.8,4.1v0c2,0.6,3.2,2.1,3.2,4.2C166.6,236.3,164.1,238.6,160.4,238.6z"/>
	<path d="M181.6,237.4v13.9h-3.2V221h3.2v13.4h17.3V221h3.2v30.4h-3.2v-13.9H181.6z"/>
	<path d="M222.2,238c0-3.3-1.8-5-5.3-5c-3.5,0-5.1,2.2-5.4,4.2l-2.9-0.6c0.2-1.7,2.5-6.3,8.4-6.3c4.4,0,6.6,2,7.6,4.3
		c0.5,1.1,0.6,2.8,0.6,3.4v13.4h-2.9v-3.6h0c-1.6,2.6-3.9,4-7,4c-4.2,0-6.9-2.6-6.9-6.1v-0.2c0-4.5,4.5-6,8.2-6h5.7V238z
		 M216.4,241.9c-2.2,0-5.1,0.7-5.1,3.5c0,2.3,2,3.6,4.5,3.6c3.7,0,6.4-2.6,6.4-6.4v-0.7H216.4z"/>
	<path d="M228.7,230.6h3.3l7.1,17.4l7.2-17.4h3.2l-8.8,20.7h-3.2L228.7,230.6z"/>
	<path d="M254.6,241.9c0.2,4,3.4,7.1,7.4,7.1c3.1,0,5.4-1.5,6.4-4.4l2.7,0.9c-1.2,4-5,6.2-9.1,6.2c-6,0-10.5-4.8-10.5-10.7
		c0-5.6,4.3-10.7,10.1-10.7c6.4,0,9.8,4.6,9.8,10.6c0,0.3,0,0.7,0,1H254.6z M268.4,239.3c-0.4-3.8-2.8-6.4-6.7-6.4
		c-3.6,0-6.5,3-7,6.4H268.4z"/>
	<path d="M293.4,249.9l-9.4-19.3h3.5l7.6,16l7.2-16h3.3l-14.2,30.9H288L293.4,249.9z"/>
	<path d="M307.3,241.1c0-6.1,4.6-10.8,10.7-10.8c6,0,10.7,4.7,10.7,10.6c0,6.1-4.7,10.8-10.7,10.8
		C312,251.7,307.3,246.9,307.3,241.1z M325.6,241.1c0-4.3-3.1-8.1-7.6-8.1c-4.5,0-7.6,3.6-7.6,8c0,4.3,3.1,8.1,7.6,8.1
		C322.5,249,325.6,245.4,325.6,241.1z"/>
	<path d="M336.8,242.7c0,3.7,1.9,6.3,5.7,6.3c3.6,0,6.2-2.8,6.2-6.5v-11.8h3v20.7h-2.9v-3.8c-1.6,2.8-4.1,4.2-7.1,4.2
		c-5.1,0-7.8-3.5-7.8-8.3v-12.8h3V242.7z"/>
	<path d="M380.4,251.6c-3.8,0-6.3-1.9-8-4.6v14.5h-3v-30.9h3v4.5c1.7-2.6,4.1-4.8,8-4.8c5.9,0,9.7,5.3,9.7,10.7
		C390.1,246.5,386.3,251.6,380.4,251.6z M387,241c0-4.3-2.7-8.1-7.3-8.1c-4.3,0-7.4,3.8-7.4,7.9c0,4.3,3,8.1,7.4,8.1
		C384.4,249,387,245.4,387,241z"/>
	<path d="M398.2,242.7c0,3.7,1.9,6.3,5.7,6.3c3.6,0,6.2-2.8,6.2-6.5v-11.8h3v20.7h-2.9v-3.8c-1.6,2.8-4.1,4.2-7.1,4.2
		c-5.1,0-7.8-3.5-7.8-8.3v-12.8h3V242.7z"/>
	<path d="M421.4,246v-12.7h-3.8v-2.7h3.8v-6h3v6h5.2v2.7h-5.2v12.6c0,1.9,1.1,2.9,3.4,2.9c0.7,0,1.4,0,1.9-0.2v2.5
		c-0.6,0.2-1.8,0.3-2.4,0.3C422.7,251.5,421.4,249,421.4,246z"/>
	<path d="M456.6,251.6c-3.8,0-6.3-1.9-8-4.6v14.5h-3v-30.9h3v4.5c1.7-2.6,4.1-4.8,8-4.8c5.9,0,9.7,5.3,9.7,10.7
		C466.3,246.5,462.5,251.6,456.6,251.6z M463.2,241c0-4.3-2.7-8.1-7.3-8.1c-4.3,0-7.4,3.8-7.4,7.9c0,4.3,3,8.1,7.4,8.1
		C460.5,249,463.2,245.4,463.2,241z"/>
	<path d="M470.1,241.1c0-6.1,4.6-10.8,10.7-10.8c6,0,10.7,4.7,10.7,10.6c0,6.1-4.7,10.8-10.7,10.8
		C474.8,251.7,470.1,246.9,470.1,241.1z M488.4,241.1c0-4.3-3.1-8.1-7.6-8.1c-4.5,0-7.6,3.6-7.6,8c0,4.3,3.1,8.1,7.6,8.1
		C485.3,249,488.4,245.4,488.4,241.1z"/>
	<path d="M499.9,219.7v31.6h-3.1v-31.6H499.9z"/>
	<path d="M508.2,220.9c1.3,0,2.3,1,2.3,2.3c0,1.2-1,2.2-2.3,2.2c-1.2,0-2.2-1-2.2-2.2C506,221.9,507,220.9,508.2,220.9z
		 M509.8,230.6v20.7h-3.1v-20.7H509.8z"/>
	<path d="M525.7,249c4.6,0,6.3-3.4,6.9-5l2.8,0.9c-0.9,3.1-4.3,6.7-9.8,6.7c-6,0-10.5-4.4-10.5-10.6c0-6.3,4.8-10.8,10.7-10.8
		c4.8,0,8.6,3.1,9.5,6.6l-2.8,0.9c-0.5-1.6-2.5-4.8-6.8-4.8c-4.4,0-7.5,3.6-7.5,7.9S521,249,525.7,249z"/>
	<path d="M542,220.9c1.3,0,2.3,1,2.3,2.3c0,1.2-1,2.2-2.3,2.2c-1.2,0-2.2-1-2.2-2.2C539.7,221.9,540.7,220.9,542,220.9z
		 M543.5,230.6v20.7h-3.1v-20.7H543.5z"/>
	<path d="M551.9,241.9c0.2,4,3.4,7.1,7.4,7.1c3.1,0,5.4-1.5,6.4-4.4l2.7,0.9c-1.2,4-5,6.2-9.1,6.2c-6,0-10.5-4.8-10.5-10.7
		c0-5.6,4.3-10.7,10.1-10.7c6.4,0,9.8,4.6,9.8,10.6c0,0.3,0,0.7,0,1H551.9z M565.6,239.3c-0.4-3.8-2.8-6.4-6.7-6.4
		c-3.6,0-6.5,3-7,6.4H565.6z"/>
	<path d="M580.2,251.7c-5.6,0-7.5-3.8-7.9-6.1l2.8-0.7c0.4,1.9,1.8,4.1,5,4.1c2.2,0,4.3-1.2,4.3-3.4c0-2.5-2.7-3.1-4.8-3.4
		c-3.5-0.5-6.8-1.7-6.8-5.8c0-3.9,3.5-6.2,6.9-6.2c5.5,0,7.2,3.6,7.5,5.6l-2.8,0.7c-0.3-1.4-1.5-3.6-4.8-3.6c-2.2,0-3.9,1.5-3.9,3.3
		c0,2.6,2.8,3,4.9,3.3c3.4,0.4,6.8,2.2,6.8,6C587.5,249.2,584.2,251.7,580.2,251.7z"/>
	<path d="M605.3,220.9c1.3,0,2.3,1,2.3,2.3c0,1.2-1,2.2-2.3,2.2c-1.2,0-2.2-1-2.2-2.2C603,221.9,604,220.9,605.3,220.9z
		 M606.8,230.6v20.7h-3.1v-20.7H606.8z"/>
	<path d="M628.6,239.3c0-3.7-1.9-6.3-5.7-6.3c-3.6,0-6.2,2.9-6.2,6.6v11.8h-3v-20.7h3v3.8c1.6-2.8,4.1-4.2,7.1-4.2
		c5.1,0,7.8,3.5,7.8,8.3v12.8h-3V239.3z"/>
	<path d="M660,251.6c-3.8,0-6.3-1.9-8-4.6v14.5h-3v-30.9h3v4.5c1.7-2.6,4.1-4.8,8-4.8c5.9,0,9.7,5.3,9.7,10.7
		C669.7,246.5,665.9,251.6,660,251.6z M666.6,241c0-4.3-2.7-8.1-7.3-8.1c-4.3,0-7.4,3.8-7.4,7.9c0,4.3,3,8.1,7.4,8.1
		C663.9,249,666.6,245.4,666.6,241z"/>
	<path d="M678.1,219.7v31.6h-3.1v-31.6H678.1z"/>
	<path d="M697.4,238c0-3.3-1.8-5-5.3-5c-3.5,0-5.1,2.2-5.4,4.2l-2.9-0.6c0.2-1.7,2.5-6.3,8.4-6.3c4.4,0,6.6,2,7.6,4.3
		c0.5,1.1,0.6,2.8,0.6,3.4v13.4h-2.9v-3.6h0c-1.6,2.6-3.9,4-7,4c-4.2,0-6.9-2.6-6.9-6.1v-0.2c0-4.5,4.5-6,8.2-6h5.7V238z
		 M691.7,241.9c-2.2,0-5.1,0.7-5.1,3.5c0,2.3,2,3.6,4.5,3.6c3.7,0,6.4-2.6,6.4-6.4v-0.7H691.7z"/>
	<path d="M716,249c4.6,0,6.3-3.4,6.9-5l2.8,0.9c-0.9,3.1-4.3,6.7-9.8,6.7c-6,0-10.5-4.4-10.5-10.6c0-6.3,4.8-10.8,10.7-10.8
		c4.8,0,8.6,3.1,9.5,6.6l-2.8,0.9c-0.5-1.6-2.5-4.8-6.8-4.8c-4.4,0-7.5,3.6-7.5,7.9S711.4,249,716,249z"/>
	<path d="M732.4,241.9c0.2,4,3.4,7.1,7.4,7.1c3.1,0,5.4-1.5,6.4-4.4l2.7,0.9c-1.2,4-5,6.2-9.1,6.2c-6,0-10.5-4.8-10.5-10.7
		c0-5.6,4.3-10.7,10.1-10.7c6.4,0,9.8,4.6,9.8,10.6c0,0.3,0,0.7,0,1H732.4z M746.1,239.3c-0.4-3.8-2.8-6.4-6.7-6.4
		c-3.6,0-6.5,3-7,6.4H746.1z"/>
	<path d="M180.7,292.5v-12.7h-3.8v-2.7h3.8v-6h3v6h5.2v2.7h-5.2v12.6c0,1.9,1.1,2.9,3.4,2.9c0.7,0,1.4,0,1.9-0.2v2.5
		c-0.6,0.2-1.8,0.3-2.4,0.3C182,298,180.7,295.5,180.7,292.5z"/>
	<path d="M192.1,287.6c0-6.1,4.6-10.8,10.7-10.8c6,0,10.7,4.7,10.7,10.6c0,6.1-4.7,10.8-10.7,10.8
		C196.7,298.2,192.1,293.5,192.1,287.6z M210.4,287.6c0-4.3-3.1-8.1-7.6-8.1c-4.5,0-7.6,3.6-7.6,8c0,4.3,3.1,8.1,7.6,8.1
		C207.2,295.5,210.4,291.9,210.4,287.6z"/>
	<path d="M240.6,298.2c-3.8,0-6.3-1.9-8-4.6v14.5h-3v-30.9h3v4.5c1.7-2.6,4.1-4.8,8-4.8c5.9,0,9.7,5.3,9.7,10.7
		C250.3,293.1,246.5,298.2,240.6,298.2z M247.2,287.5c0-4.3-2.7-8.1-7.3-8.1c-4.3,0-7.4,3.8-7.4,7.9c0,4.3,3,8.1,7.4,8.1
		C244.6,295.5,247.2,291.9,247.2,287.5z"/>
	<path d="M258.7,281.3c1.6-3.2,4.3-4.4,6.7-4.4c0.2,0,0.8,0,1,0v3.2c-0.4,0-0.8-0.1-1.2-0.1c-4.9,0-6.5,4-6.5,7.7v10.1h-3v-20.7h3
		V281.3z"/>
	<path d="M268.2,287.6c0-6.1,4.6-10.8,10.7-10.8c6,0,10.7,4.7,10.7,10.6c0,6.1-4.7,10.8-10.7,10.8
		C272.8,298.2,268.2,293.5,268.2,287.6z M286.5,287.6c0-4.3-3.1-8.1-7.6-8.1c-4.5,0-7.6,3.6-7.6,8c0,4.3,3.1,8.1,7.6,8.1
		C283.3,295.5,286.5,291.9,286.5,287.6z"/>
	<path d="M296,292.5v-12.7h-3.8v-2.7h3.8v-6h3v6h5.2v2.7H299v12.6c0,1.9,1.1,2.9,3.4,2.9c0.7,0,1.4,0,1.9-0.2v2.5
		c-0.6,0.2-1.8,0.3-2.4,0.3C297.3,298,296,295.5,296,292.5z"/>
	<path d="M310.4,288.4c0.2,4,3.4,7.1,7.4,7.1c3.1,0,5.4-1.5,6.4-4.4l2.7,0.9c-1.2,4-5,6.2-9.1,6.2c-6,0-10.5-4.8-10.5-10.7
		c0-5.6,4.3-10.7,10.1-10.7c6.4,0,9.8,4.6,9.8,10.6c0,0.3,0,0.7,0,1H310.4z M324.2,285.9c-0.4-3.8-2.8-6.4-6.7-6.4
		c-3.6,0-6.5,3-7,6.4H324.2z"/>
	<path d="M341.5,295.5c4.6,0,6.3-3.4,6.9-5l2.8,0.9c-0.9,3.1-4.3,6.7-9.8,6.7c-6,0-10.5-4.4-10.5-10.6c0-6.3,4.8-10.8,10.7-10.8
		c4.8,0,8.6,3.1,9.5,6.6l-2.8,0.9c-0.5-1.6-2.5-4.8-6.8-4.8c-4.4,0-7.5,3.6-7.5,7.9S336.8,295.5,341.5,295.5z"/>
	<path d="M357.4,292.5v-12.7h-3.8v-2.7h3.8v-6h3v6h5.2v2.7h-5.2v12.6c0,1.9,1.1,2.9,3.4,2.9c0.7,0,1.4,0,1.9-0.2v2.5
		c-0.6,0.2-1.8,0.3-2.4,0.3C358.8,298,357.4,295.5,357.4,292.5z"/>
	<path d="M394.1,284.5c0-3.3-1.8-5-5.3-5c-3.5,0-5.1,2.2-5.4,4.2l-2.9-0.6c0.2-1.7,2.5-6.3,8.4-6.3c4.4,0,6.6,2,7.6,4.3
		c0.5,1.1,0.6,2.8,0.6,3.4v13.4h-2.9v-3.6h0c-1.6,2.6-3.9,4-7,4c-4.2,0-6.9-2.6-6.9-6.1v-0.2c0-4.5,4.5-6,8.2-6h5.7V284.5z
		 M388.3,288.4c-2.2,0-5.1,0.7-5.1,3.5c0,2.3,2,3.6,4.5,3.6c3.7,0,6.4-2.6,6.4-6.4v-0.7H388.3z"/>
	<path d="M419.9,293.2c-1.6,2.6-4.1,4.7-8,4.7c-5.9,0-9.7-4.9-9.7-10.5c0-5.4,3.8-10.6,9.7-10.6c4,0,6.4,2.2,8.1,4.7v-4.3h3v20.8
		c0,6.7-4.1,10.3-10.4,10.3c-5.4,0-9.2-2.7-10.3-7.1l2.8-0.9c0.6,2.4,2.6,5.4,7.4,5.4c4,0,7.4-2.1,7.4-7.5V293.2z M419.9,287.4
		c0-4.1-3.1-7.9-7.4-7.9c-4.5,0-7.2,3.5-7.2,8c0,4.3,2.7,7.8,7.2,7.8C416.8,295.3,419.9,291.6,419.9,287.4z"/>
	<path d="M442.2,284.5c0-3.3-1.8-5-5.3-5c-3.5,0-5.1,2.2-5.4,4.2l-2.9-0.6c0.2-1.7,2.5-6.3,8.4-6.3c4.4,0,6.6,2,7.6,4.3
		c0.5,1.1,0.6,2.8,0.6,3.4v13.4h-2.9v-3.6h0c-1.6,2.6-3.9,4-7,4c-4.2,0-6.9-2.6-6.9-6.1v-0.2c0-4.5,4.5-6,8.2-6h5.7V284.5z
		 M436.4,288.4c-2.2,0-5.1,0.7-5.1,3.5c0,2.3,2,3.6,4.5,3.6c3.7,0,6.4-2.6,6.4-6.4v-0.7H436.4z"/>
	<path d="M453.3,267.5c1.3,0,2.3,1,2.3,2.3c0,1.2-1,2.2-2.3,2.2c-1.2,0-2.2-1-2.2-2.2C451,268.5,452,267.5,453.3,267.5z
		 M454.8,277.2v20.7h-3.1v-20.7H454.8z"/>
	<path d="M476.6,285.8c0-3.7-1.9-6.3-5.7-6.3c-3.6,0-6.2,2.9-6.2,6.6v11.8h-3v-20.7h3v3.8c1.6-2.8,4.1-4.2,7.1-4.2
		c5.1,0,7.8,3.5,7.8,8.3v12.8h-3V285.8z"/>
	<path d="M492.5,298.2c-5.6,0-7.5-3.8-7.9-6.1l2.8-0.7c0.4,1.9,1.8,4.1,5,4.1c2.2,0,4.3-1.2,4.3-3.4c0-2.5-2.7-3.1-4.8-3.4
		c-3.5-0.5-6.8-1.7-6.8-5.8c0-3.9,3.5-6.2,6.9-6.2c5.5,0,7.2,3.6,7.5,5.6l-2.8,0.7c-0.3-1.4-1.5-3.6-4.8-3.6c-2.2,0-3.9,1.5-3.9,3.3
		c0,2.6,2.8,3,4.9,3.3c3.4,0.4,6.8,2.2,6.8,6C499.8,295.8,496.5,298.2,492.5,298.2z"/>
	<path d="M506.3,292.5v-12.7h-3.8v-2.7h3.8v-6h3v6h5.2v2.7h-5.2v12.6c0,1.9,1.1,2.9,3.4,2.9c0.7,0,1.4,0,1.9-0.2v2.5
		c-0.6,0.2-1.8,0.3-2.4,0.3C507.7,298,506.3,295.5,506.3,292.5z"/>
	<path d="M534.5,267.5v30.4h-3.2v-30.4H534.5z"/>
	<path d="M540.6,287.6c0-6.1,4.6-10.8,10.7-10.8c6,0,10.7,4.7,10.7,10.6c0,6.1-4.7,10.8-10.7,10.8
		C545.2,298.2,540.6,293.5,540.6,287.6z M558.9,287.6c0-4.3-3.1-8.1-7.6-8.1c-4.5,0-7.6,3.6-7.6,8c0,4.3,3.1,8.1,7.6,8.1
		C555.7,295.5,558.9,291.9,558.9,287.6z"/>
	<path d="M570.9,297.9v-27.4h-10.2v-3h23.5v3h-10.1v27.4H570.9z"/>
	<path d="M599.2,292.5v-12.7h-3.8v-2.7h3.8v-6h3v6h5.2v2.7h-5.2v12.6c0,1.9,1.1,2.9,3.4,2.9c0.7,0,1.4,0,1.9-0.2v2.5
		c-0.6,0.2-1.8,0.3-2.4,0.3C600.6,298,599.2,295.5,599.2,292.5z"/>
	<path d="M627.5,285.8c0-3.7-1.9-6.3-5.7-6.3c-3.6,0-6.2,2.9-6.2,6.6v11.8h-3v-31.6h3v14.6c1.6-2.7,4-4.1,7.1-4.1
		c5.1,0,7.8,3.5,7.8,8.3v12.8h-3V285.8z"/>
	<path d="M640.1,281.3c1.6-3.2,4.3-4.4,6.7-4.4c0.2,0,0.8,0,1,0v3.2c-0.4,0-0.8-0.1-1.2-0.1c-4.9,0-6.5,4-6.5,7.7v10.1h-3v-20.7h3
		V281.3z"/>
	<path d="M652.6,288.4c0.2,4,3.4,7.1,7.4,7.1c3.1,0,5.4-1.5,6.4-4.4l2.7,0.9c-1.2,4-5,6.2-9.1,6.2c-6,0-10.5-4.8-10.5-10.7
		c0-5.6,4.3-10.7,10.1-10.7c6.4,0,9.8,4.6,9.8,10.6c0,0.3,0,0.7,0,1H652.6z M666.4,285.9c-0.4-3.8-2.8-6.4-6.7-6.4
		c-3.6,0-6.5,3-7,6.4H666.4z"/>
	<path d="M687.1,284.5c0-3.3-1.8-5-5.3-5c-3.5,0-5.1,2.2-5.4,4.2l-2.9-0.6c0.2-1.7,2.5-6.3,8.4-6.3c4.4,0,6.6,2,7.6,4.3
		c0.5,1.1,0.6,2.8,0.6,3.4v13.4h-2.9v-3.6h0c-1.6,2.6-3.9,4-7,4c-4.2,0-6.9-2.6-6.9-6.1v-0.2c0-4.5,4.5-6,8.2-6h5.7V284.5z
		 M681.3,288.4c-2.2,0-5.1,0.7-5.1,3.5c0,2.3,2,3.6,4.5,3.6c3.7,0,6.4-2.6,6.4-6.4v-0.7H681.3z"/>
	<path d="M697.9,292.5v-12.7H694v-2.7h3.8v-6h3v6h5.2v2.7h-5.2v12.6c0,1.9,1.1,2.9,3.4,2.9c0.7,0,1.4,0,1.9-0.2v2.5
		c-0.6,0.2-1.8,0.3-2.4,0.3C699.2,298,697.9,295.5,697.9,292.5z"/>
	<path d="M717.5,298.2c-5.6,0-7.5-3.8-7.9-6.1l2.8-0.7c0.4,1.9,1.8,4.1,5,4.1c2.2,0,4.3-1.2,4.3-3.4c0-2.5-2.7-3.1-4.8-3.4
		c-3.5-0.5-6.8-1.7-6.8-5.8c0-3.9,3.5-6.2,6.9-6.2c5.5,0,7.2,3.6,7.5,5.6l-2.8,0.7c-0.3-1.4-1.5-3.6-4.8-3.6c-2.2,0-3.9,1.5-3.9,3.3
		c0,2.6,2.8,3,4.9,3.3c3.4,0.4,6.8,2.2,6.8,6C724.8,295.8,721.5,298.2,717.5,298.2z"/>
	<path d="M735.3,289.1c0-0.2,0-0.5,0-0.7c0-3.6,2.2-5.4,3.9-7.1c1.7-1.9,3.8-3.5,3.8-6.2c0-2.5-1.7-5-5.7-5c-3.9,0-6,2.9-5.8,6.6
		l-3.1-0.2c0-0.3,0-0.6,0-0.9c0-5,4.1-8.5,9-8.5c5.4,0,8.9,3.8,8.9,7.9c0,3-1.8,5-4.5,7.7c-2,2-3.4,3.2-3.5,6.3H735.3z M736.7,298.2
		c1.3,0,2.2-1,2.2-2.3c0-1.2-1-2.2-2.2-2.2c-1.2,0-2.3,1-2.3,2.2C734.4,297.2,735.4,298.2,736.7,298.2z"/>
</g>
<g>
	<g>
		<path d="M84.2,469.4l-6.9,10.2v7.5h-1.9v-7.5l-6.9-10.2h2.2l5.6,8.5l5.7-8.5H84.2z"/>
		<path d="M86.1,481.6c0.1,2.4,2,4.1,4.3,4.1c1.8,0,3.2-0.9,3.7-2.6l1.6,0.5c-0.7,2.3-2.9,3.6-5.3,3.6c-3.5,0-6.1-2.8-6.1-6.3
			c0-3.3,2.5-6.2,5.9-6.2c3.7,0,5.7,2.7,5.7,6.2c0,0.2,0,0.4,0,0.6H86.1z M94.1,480.1c-0.2-2.2-1.6-3.8-3.9-3.8
			c-2.1,0-3.8,1.7-4.1,3.8H94.1z"/>
		<path d="M103.8,487.3c-3.3,0-4.4-2.2-4.6-3.6l1.6-0.4c0.2,1.1,1.1,2.4,2.9,2.4c1.3,0,2.5-0.7,2.5-2c0-1.5-1.6-1.8-2.8-2
			c-2-0.3-4-1-4-3.4c0-2.3,2.1-3.6,4-3.6c3.2,0,4.2,2.1,4.4,3.3l-1.6,0.4c-0.2-0.8-0.9-2.1-2.8-2.1c-1.3,0-2.3,0.9-2.3,1.9
			c0,1.5,1.6,1.7,2.9,1.9c2,0.2,4,1.3,4,3.5C108,485.8,106.1,487.3,103.8,487.3z"/>
	</g>
</g>
<g>
	<g>
		<path class="st4" d="M574.3,539.1c-3.5,0-6.6-2.1-7-5.5l2-0.4c0.4,2.3,2.1,4,4.9,4c2.7,0,4.9-1.5,4.9-3.8c0-2.3-1.7-3.7-4.9-3.7
			h-2v-2h2c2.8,0,4.5-1.7,4.5-3.6c0-2.1-1.6-3.6-4.5-3.6c-2.8,0-4.4,1.7-4.7,3.8l-2-0.4c0.4-2.8,3-5.3,6.8-5.3
			c4.4,0,6.6,2.7,6.6,5.4c0,2.3-1.3,3.8-3.2,4.7v0c2.3,0.6,3.7,2.5,3.7,4.8C581.3,536.5,578.5,539.1,574.3,539.1z"/>
		<path class="st4" d="M584.2,538.3c0-2.4,1.1-4.9,4.7-7.1l3.1-1.9c1.9-1.2,3.5-2.4,3.5-4.8c0-2.1-1.8-4-4.4-4
			c-2.2,0-3.6,1.3-4.2,2.6c-0.4,0.9-0.4,1.7-0.4,2l-2.1-0.3c0-2.9,2.4-6.3,6.7-6.3c3.7,0,6.6,2.8,6.6,6c0,2.9-1.6,4.6-4.3,6.2
			l-3.2,2c-1.7,1.1-3.4,2.5-3.5,4.3h11.1v2h-13.7V538.3z"/>
		<path class="st4" d="M602.6,529.6c-1.5,0-2.7-1.2-2.7-2.7c0-1.5,1.2-2.7,2.7-2.7c1.5,0,2.7,1.2,2.7,2.7
			C605.3,528.4,604.1,529.6,602.6,529.6z M602.6,525.3c-0.9,0-1.7,0.7-1.7,1.7c0,0.9,0.8,1.7,1.7,1.7s1.7-0.7,1.7-1.7
			C604.3,526,603.5,525.3,602.6,525.3z M609.1,524.4h1.2l-7.7,11.8h-1.2L609.1,524.4z M609.1,536.3c-1.5,0-2.7-1.2-2.7-2.7
			c0-1.5,1.2-2.7,2.7-2.7s2.7,1.2,2.7,2.7C611.8,535.1,610.6,536.3,609.1,536.3z M609.1,532c-0.9,0-1.7,0.7-1.7,1.7
			c0,0.9,0.7,1.7,1.7,1.7s1.7-0.7,1.7-1.7C610.8,532.7,610,532,609.1,532z"/>
	</g>
	<g>
		<circle class="st4" cx="537.5" cy="557.3" r="22"/>
	</g>
</g>
<g>
	<g>
		<g>
			<path class="st3" d="M350.1,475.4l-4.9,2.9l-1-1.6l5.9-3.5h2.1v20.2h-2.1V475.4z"/>
			<path class="st3" d="M366.3,493.4v-4.9h-10.5v-2.3l9.9-13.1h2.7v13.5h3.4v1.8h-3.4v4.9H366.3z M366.3,486.7v-11.3l-8.6,11.3
				H366.3z"/>
			<path class="st3" d="M375.9,484.1c-1.5,0-2.7-1.2-2.7-2.7c0-1.5,1.2-2.7,2.7-2.7c1.5,0,2.7,1.2,2.7,2.7
				C378.5,482.9,377.3,484.1,375.9,484.1z M375.9,479.8c-0.9,0-1.7,0.7-1.7,1.7c0,0.9,0.8,1.7,1.7,1.7s1.7-0.7,1.7-1.7
				C377.5,480.5,376.8,479.8,375.9,479.8z M382.4,478.9h1.2l-7.7,11.8h-1.2L382.4,478.9z M382.4,490.8c-1.5,0-2.7-1.2-2.7-2.7
				c0-1.5,1.2-2.7,2.7-2.7s2.7,1.2,2.7,2.7C385.1,489.6,383.9,490.8,382.4,490.8z M382.4,486.5c-0.9,0-1.7,0.7-1.7,1.7
				c0,0.9,0.7,1.7,1.7,1.7s1.7-0.7,1.7-1.7C384.1,487.2,383.3,486.5,382.4,486.5z"/>
		</g>
	</g>
	<g>
		<circle class="st3" cx="316.8" cy="515.1" r="22"/>
	</g>
</g>
<g>
	<g class="st5">
		<path d="M700.9,586.9V582h-10.5v-2.3l9.9-13.1h2.7v13.5h3.4v1.8H703v4.9H700.9z M700.9,580.2v-11.3l-8.6,11.3H700.9z"/>
		<path d="M708.6,586.2c0-2.4,1.1-4.9,4.7-7.1l3.1-1.9c1.9-1.2,3.5-2.4,3.5-4.8c0-2.1-1.8-4-4.4-4c-2.2,0-3.6,1.3-4.2,2.6
			c-0.4,0.9-0.4,1.7-0.4,2l-2.1-0.3c0-2.9,2.4-6.3,6.7-6.3c3.7,0,6.6,2.8,6.6,6c0,2.9-1.6,4.6-4.3,6.2l-3.2,2
			c-1.7,1.1-3.4,2.5-3.5,4.3h11.1v2h-13.7V586.2z"/>
		<path d="M727,577.6c-1.5,0-2.7-1.2-2.7-2.7c0-1.5,1.2-2.7,2.7-2.7c1.5,0,2.7,1.2,2.7,2.7C729.7,576.4,728.5,577.6,727,577.6z
			 M727,573.2c-0.9,0-1.7,0.7-1.7,1.7c0,0.9,0.8,1.7,1.7,1.7c0.9,0,1.7-0.7,1.7-1.7C728.7,574,727.9,573.2,727,573.2z M733.5,572.3
			h1.2l-7.7,11.8h-1.2L733.5,572.3z M733.5,584.2c-1.5,0-2.7-1.2-2.7-2.7c0-1.5,1.2-2.7,2.7-2.7s2.7,1.2,2.7,2.7
			C736.2,583.1,735,584.2,733.5,584.2z M733.5,579.9c-0.9,0-1.7,0.7-1.7,1.7c0,0.9,0.7,1.7,1.7,1.7c0.9,0,1.7-0.7,1.7-1.7
			C735.2,580.7,734.5,579.9,733.5,579.9z"/>
	</g>
	<g class="st5">
		<circle cx="661.9" cy="605.2" r="22"/>
	</g>
</g>
<g class="st5">
	<path class="st10" d="M847,698.9l-1.2,6.9c1.3-1.3,3.4-1.6,4.4-1.6c3.8,0,6.6,2.5,6.6,6.5c0,4.4-3.6,6.6-7.1,6.6
		c-3.4,0-6.5-2.1-6.9-5.5l2.1-0.4c0.3,2.3,2.3,4,4.9,4c2,0,4.9-1.3,4.9-4.6s-2.5-4.7-4.9-4.7c-1.5,0-3.2,0.7-4.3,2l-2-0.8l1.7-10.4
		H856v2H847z"/>
	<path class="st10" d="M861.9,707c1.3-2.2,3.9-2.9,5.6-2.9c4.3,0,6.8,3,6.8,6.5c0,4.6-3.7,6.9-7.2,6.9c-2.2,0-4.9-1.3-6-3.4
		c-1-1.8-1.3-3.1-1.3-5.6c0-6.4,3.4-11.7,9.9-11.7c1.1,0,2.8,0.1,4.2,1l-0.8,1.9c-1.1-0.7-2.5-0.9-3.4-0.9
		C864.9,698.8,862.3,702.4,861.9,707z M863.7,707.1c-1,0.8-1.6,2.1-1.6,3.5c0,3,2.5,4.8,5,4.8c2.5,0,5-1.7,5-4.8
		c0-2.5-1.9-4.7-5-4.7C865.9,705.9,864.7,706.4,863.7,707.1z"/>
	<path class="st10" d="M878.9,707.9c-1.5,0-2.7-1.2-2.7-2.7c0-1.5,1.2-2.7,2.7-2.7c1.5,0,2.7,1.2,2.7,2.7
		C881.5,706.7,880.3,707.9,878.9,707.9z M878.9,703.6c-0.9,0-1.7,0.7-1.7,1.7c0,0.9,0.8,1.7,1.7,1.7s1.7-0.7,1.7-1.7
		C880.5,704.3,879.8,703.6,878.9,703.6z M885.4,702.7h1.2l-7.7,11.8h-1.2L885.4,702.7z M885.4,714.6c-1.5,0-2.7-1.2-2.7-2.7
		c0-1.5,1.2-2.7,2.7-2.7s2.7,1.2,2.7,2.7C888.1,713.4,886.9,714.6,885.4,714.6z M885.4,710.3c-0.9,0-1.7,0.7-1.7,1.7
		c0,0.9,0.7,1.7,1.7,1.7s1.7-0.7,1.7-1.7C887.1,711,886.3,710.3,885.4,710.3z"/>
</g>
<g>
	<g>
		<path d="M90.9,738.6v17.7h-2l-10.6-15.1v15.1h-1.8v-17.7h2.1l10.4,14.8v-14.8H90.9z"/>
		<path d="M95.6,750.4c0-3.6,2.7-6.3,6.3-6.3c3.5,0,6.2,2.7,6.2,6.2c0,3.6-2.7,6.3-6.3,6.3C98.3,756.6,95.6,753.8,95.6,750.4z
			 M106.3,750.4c0-2.5-1.8-4.7-4.5-4.7s-4.4,2.1-4.4,4.7c0,2.5,1.8,4.7,4.5,4.7C104.4,755,106.3,752.9,106.3,750.4z"/>
	</g>
</g>
<g>
	<g>
		<path class="st4" d="M829.4,790l-1.2,6.9c1.3-1.3,3.4-1.6,4.4-1.6c3.8,0,6.6,2.5,6.6,6.5c0,4.4-3.6,6.6-7.1,6.6
			c-3.4,0-6.5-2.1-6.9-5.5l2.1-0.4c0.3,2.3,2.3,4,4.9,4c2,0,4.9-1.3,4.9-4.6s-2.5-4.7-4.9-4.7c-1.5,0-3.2,0.7-4.3,2l-2-0.8l1.7-10.4
			h10.6v2H829.4z"/>
		<path class="st4" d="M848.8,808.4c-3.5,0-6.6-2.1-7-5.5l2-0.4c0.4,2.3,2.1,4,4.9,4c2.7,0,4.9-1.5,4.9-3.8c0-2.3-1.7-3.7-4.9-3.7
			h-2v-2h2c2.8,0,4.5-1.7,4.5-3.6c0-2.1-1.6-3.6-4.5-3.6c-2.8,0-4.4,1.7-4.7,3.8l-2-0.4c0.4-2.8,3-5.3,6.8-5.3
			c4.4,0,6.6,2.7,6.6,5.4c0,2.3-1.3,3.8-3.2,4.7v0c2.3,0.6,3.7,2.5,3.7,4.8C855.8,805.8,853,808.4,848.8,808.4z"/>
		<path class="st4" d="M860.6,798.9c-1.5,0-2.7-1.2-2.7-2.7c0-1.5,1.2-2.7,2.7-2.7c1.5,0,2.7,1.2,2.7,2.7
			C863.2,797.7,862,798.9,860.6,798.9z M860.6,794.6c-0.9,0-1.7,0.7-1.7,1.7c0,0.9,0.8,1.7,1.7,1.7s1.7-0.7,1.7-1.7
			C862.2,795.3,861.5,794.6,860.6,794.6z M867.1,793.7h1.2l-7.7,11.8h-1.2L867.1,793.7z M867.1,805.6c-1.5,0-2.7-1.2-2.7-2.7
			c0-1.5,1.2-2.7,2.7-2.7s2.7,1.2,2.7,2.7C869.8,804.4,868.6,805.6,867.1,805.6z M867.1,801.3c-0.9,0-1.7,0.7-1.7,1.7
			c0,0.9,0.7,1.7,1.7,1.7s1.7-0.7,1.7-1.7C868.8,802,868,801.3,867.1,801.3z"/>
	</g>
	<g>
		<circle class="st4" cx="797.1" cy="826.5" r="22"/>
	</g>
</g>
<g>
	<g>
		<g>
			<path class="st3" d="M1142,744.4v-2h13.8v2l-9.3,18.3h-2.4l9.4-18.3H1142z"/>
			<path class="st3" d="M1170.4,752.6c-1.4,2.2-4,3-5.7,3c-4.3,0-6.7-3.2-6.7-6.5c0-4.6,3.6-7,7.2-7c2.2,0,4.8,1.3,5.9,3.4
				c1,1.8,1.4,3.4,1.4,5.7c0,6.6-3.2,11.5-9.5,11.5c-1.1,0-3.3-0.3-4.7-1.2l0.8-1.9c1.3,0.8,3,1.1,3.8,1.1
				C1167.5,760.8,1170,757.3,1170.4,752.6z M1168.4,752.6c1-0.8,1.6-2.2,1.6-3.6c0-3-2.5-4.8-5-4.8c-2.6,0-5,1.7-5,4.9
				c0,2.5,1.8,4.8,4.9,4.8C1166.2,753.8,1167.5,753.3,1168.4,752.6z"/>
			<path class="st3" d="M1177.2,753.4c-1.5,0-2.7-1.2-2.7-2.7c0-1.5,1.2-2.7,2.7-2.7c1.5,0,2.7,1.2,2.7,2.7
				C1179.9,752.2,1178.7,753.4,1177.2,753.4z M1177.2,749c-0.9,0-1.7,0.7-1.7,1.7c0,0.9,0.8,1.7,1.7,1.7s1.7-0.7,1.7-1.7
				C1178.9,749.8,1178.2,749,1177.2,749z M1183.8,748.2h1.2l-7.7,11.8h-1.2L1183.8,748.2z M1183.8,760.1c-1.5,0-2.7-1.2-2.7-2.7
				c0-1.5,1.2-2.7,2.7-2.7s2.7,1.2,2.7,2.7C1186.5,758.9,1185.3,760.1,1183.8,760.1z M1183.8,755.7c-0.9,0-1.7,0.7-1.7,1.7
				c0,0.9,0.7,1.7,1.7,1.7s1.7-0.7,1.7-1.7C1185.5,756.5,1184.7,755.7,1183.8,755.7z"/>
		</g>
	</g>
	<g>
		<circle class="st3" cx="1118.2" cy="784.4" r="22"/>
	</g>
</g>
<g>
	<g class="st5">
		<path d="M548.3,856.3c-3.5,0-6.6-2.1-7-5.5l2-0.4c0.4,2.3,2.1,4,4.9,4c2.7,0,4.9-1.5,4.9-3.8c0-2.3-1.7-3.7-4.9-3.7h-2v-2h2
			c2.8,0,4.5-1.7,4.5-3.6c0-2.1-1.6-3.6-4.5-3.6c-2.8,0-4.4,1.7-4.7,3.8l-2-0.4c0.4-2.8,3-5.3,6.8-5.3c4.4,0,6.6,2.7,6.6,5.4
			c0,2.3-1.3,3.8-3.2,4.7v0c2.3,0.6,3.7,2.5,3.7,4.8C555.3,853.7,552.6,856.3,548.3,856.3z"/>
		<path d="M558.4,846.1c0-5,2.9-10.4,8.5-10.4c5.6,0,8.3,5.3,8.3,10.3s-2.8,10.4-8.5,10.4C561.2,856.3,558.4,851.1,558.4,846.1z
			 M560.6,846c0,3.6,1.8,8.4,6.2,8.4c4.4,0,6.2-4.7,6.2-8.3c0-3.6-1.9-8.4-6.3-8.4C562.4,837.7,560.6,842.3,560.6,846z"/>
		<path d="M580,846.8c-1.5,0-2.7-1.2-2.7-2.7c0-1.5,1.2-2.7,2.7-2.7c1.5,0,2.7,1.2,2.7,2.7C582.6,845.6,581.4,846.8,580,846.8z
			 M580,842.5c-0.9,0-1.7,0.7-1.7,1.7c0,0.9,0.8,1.7,1.7,1.7c0.9,0,1.7-0.7,1.7-1.7C581.6,843.2,580.9,842.5,580,842.5z
			 M586.5,841.6h1.2l-7.7,11.8h-1.2L586.5,841.6z M586.5,853.5c-1.5,0-2.7-1.2-2.7-2.7c0-1.5,1.2-2.7,2.7-2.7s2.7,1.2,2.7,2.7
			C589.2,852.3,588,853.5,586.5,853.5z M586.5,849.2c-0.9,0-1.7,0.7-1.7,1.7c0,0.9,0.7,1.7,1.7,1.7c0.9,0,1.7-0.7,1.7-1.7
			C588.2,849.9,587.4,849.2,586.5,849.2z"/>
	</g>
	<g class="st5">
		<circle cx="513.2" cy="874.5" r="22"/>
	</g>
</g>
</svg>
