<?xml version="1.0" encoding="utf-8"?>
<!-- Generator: Adobe Illustrator 21.1.0, SVG Export Plug-In . SVG Version: 6.00 Build 0)  -->
<svg version="1.1" id="graphNineCyber" xmlns="http://www.w3.org/2000/svg" xmlns:xlink="http://www.w3.org/1999/xlink" x="0px"
	 y="0px" viewBox="0 0 1500 1053" style="enable-background:new 0 0 1500 1053;" xml:space="preserve">
<style type="text/css">
	.st0{fill:none;}
	.st1{fill:none;stroke:#F6F6F8;stroke-width:2;stroke-linecap:round;stroke-miterlimit:10;}
	.st2{fill:none;stroke:#F6F6F8;stroke-width:2;stroke-linecap:round;stroke-miterlimit:10;stroke-dasharray:0,10;}
	.st3{opacity:0.9;}
	.st4{fill:#FF8F4E;}
	.st5{fill:#F6F6F8;}
	.st6{fill:#FFFFFF;}
	.st7{fill:#8EFFDE;}
	.st8{fill:url(#SVGID_1_);}
	.st9{fill:url(#SVGID_2_);}
	.st10{fill:url(#SVGID_3_);}
	.st11{fill:url(#SVGID_4_);}
</style>
<pattern  y="1053" width="240" height="240" patternUnits="userSpaceOnUse" id="white" viewBox="1 -241 240 240" style="overflow:visible;">
	<g>
		<rect x="1" y="-241" class="st0" width="240" height="240"/>
		<g>
			<g>
				<line class="st1" x1="241" y1="-1" x2="241" y2="-1"/>
			</g>
		</g>
		<g>
			<g>
				<line class="st1" x1="1" y1="-1" x2="1" y2="-1"/>
				<line class="st2" x1="11" y1="-1" x2="236" y2="-1"/>
				<line class="st1" x1="241" y1="-1" x2="241" y2="-1"/>
			</g>
		</g>
		<g>
			<g>
				<line class="st1" x1="1" y1="-1" x2="1" y2="-1"/>
			</g>
		</g>
		<g>
			<g>
				<line class="st1" x1="241" y1="-241" x2="241" y2="-241"/>
			</g>
			<g>
				<line class="st1" x1="241" y1="-231" x2="241" y2="-231"/>
			</g>
			<g>
				<line class="st1" x1="241" y1="-221" x2="241" y2="-221"/>
			</g>
			<g>
				<line class="st1" x1="241" y1="-211" x2="241" y2="-211"/>
			</g>
			<g>
				<line class="st1" x1="241" y1="-201" x2="241" y2="-201"/>
			</g>
			<g>
				<line class="st1" x1="241" y1="-191" x2="241" y2="-191"/>
			</g>
			<g>
				<line class="st1" x1="241" y1="-181" x2="241" y2="-181"/>
			</g>
			<g>
				<line class="st1" x1="241" y1="-171" x2="241" y2="-171"/>
			</g>
			<g>
				<line class="st1" x1="241" y1="-161" x2="241" y2="-161"/>
			</g>
			<g>
				<line class="st1" x1="241" y1="-151" x2="241" y2="-151"/>
			</g>
			<g>
				<line class="st1" x1="241" y1="-141" x2="241" y2="-141"/>
			</g>
			<g>
				<line class="st1" x1="241" y1="-131" x2="241" y2="-131"/>
			</g>
			<g>
				<line class="st1" x1="241" y1="-121" x2="241" y2="-121"/>
			</g>
			<g>
				<line class="st1" x1="241" y1="-111" x2="241" y2="-111"/>
			</g>
			<g>
				<line class="st1" x1="241" y1="-101" x2="241" y2="-101"/>
			</g>
			<g>
				<line class="st1" x1="241" y1="-91" x2="241" y2="-91"/>
			</g>
			<g>
				<line class="st1" x1="241" y1="-81" x2="241" y2="-81"/>
			</g>
			<g>
				<line class="st1" x1="241" y1="-71" x2="241" y2="-71"/>
			</g>
			<g>
				<line class="st1" x1="241" y1="-61" x2="241" y2="-61"/>
			</g>
			<g>
				<line class="st1" x1="241" y1="-51" x2="241" y2="-51"/>
			</g>
			<g>
				<line class="st1" x1="241" y1="-41" x2="241" y2="-41"/>
			</g>
			<g>
				<line class="st1" x1="241" y1="-31" x2="241" y2="-31"/>
			</g>
			<g>
				<line class="st1" x1="241" y1="-21" x2="241" y2="-21"/>
			</g>
			<g>
				<line class="st1" x1="241" y1="-11" x2="241" y2="-11"/>
			</g>
			<g>
				<line class="st1" x1="241" y1="-1" x2="241" y2="-1"/>
			</g>
		</g>
		<g>
			<g>
				<line class="st1" x1="1" y1="-241" x2="1" y2="-241"/>
				<line class="st2" x1="11" y1="-241" x2="236" y2="-241"/>
				<line class="st1" x1="241" y1="-241" x2="241" y2="-241"/>
			</g>
			<g>
				<line class="st1" x1="1" y1="-231" x2="1" y2="-231"/>
				<line class="st2" x1="11" y1="-231" x2="236" y2="-231"/>
				<line class="st1" x1="241" y1="-231" x2="241" y2="-231"/>
			</g>
			<g>
				<line class="st1" x1="1" y1="-221" x2="1" y2="-221"/>
				<line class="st2" x1="11" y1="-221" x2="236" y2="-221"/>
				<line class="st1" x1="241" y1="-221" x2="241" y2="-221"/>
			</g>
			<g>
				<line class="st1" x1="1" y1="-211" x2="1" y2="-211"/>
				<line class="st2" x1="11" y1="-211" x2="236" y2="-211"/>
				<line class="st1" x1="241" y1="-211" x2="241" y2="-211"/>
			</g>
			<g>
				<line class="st1" x1="1" y1="-201" x2="1" y2="-201"/>
				<line class="st2" x1="11" y1="-201" x2="236" y2="-201"/>
				<line class="st1" x1="241" y1="-201" x2="241" y2="-201"/>
			</g>
			<g>
				<line class="st1" x1="1" y1="-191" x2="1" y2="-191"/>
				<line class="st2" x1="11" y1="-191" x2="236" y2="-191"/>
				<line class="st1" x1="241" y1="-191" x2="241" y2="-191"/>
			</g>
			<g>
				<line class="st1" x1="1" y1="-181" x2="1" y2="-181"/>
				<line class="st2" x1="11" y1="-181" x2="236" y2="-181"/>
				<line class="st1" x1="241" y1="-181" x2="241" y2="-181"/>
			</g>
			<g>
				<line class="st1" x1="1" y1="-171" x2="1" y2="-171"/>
				<line class="st2" x1="11" y1="-171" x2="236" y2="-171"/>
				<line class="st1" x1="241" y1="-171" x2="241" y2="-171"/>
			</g>
			<g>
				<line class="st1" x1="1" y1="-161" x2="1" y2="-161"/>
				<line class="st2" x1="11" y1="-161" x2="236" y2="-161"/>
				<line class="st1" x1="241" y1="-161" x2="241" y2="-161"/>
			</g>
			<g>
				<line class="st1" x1="1" y1="-151" x2="1" y2="-151"/>
				<line class="st2" x1="11" y1="-151" x2="236" y2="-151"/>
				<line class="st1" x1="241" y1="-151" x2="241" y2="-151"/>
			</g>
			<g>
				<line class="st1" x1="1" y1="-141" x2="1" y2="-141"/>
				<line class="st2" x1="11" y1="-141" x2="236" y2="-141"/>
				<line class="st1" x1="241" y1="-141" x2="241" y2="-141"/>
			</g>
			<g>
				<line class="st1" x1="1" y1="-131" x2="1" y2="-131"/>
				<line class="st2" x1="11" y1="-131" x2="236" y2="-131"/>
				<line class="st1" x1="241" y1="-131" x2="241" y2="-131"/>
			</g>
			<g>
				<line class="st1" x1="1" y1="-121" x2="1" y2="-121"/>
				<line class="st2" x1="11" y1="-121" x2="236" y2="-121"/>
				<line class="st1" x1="241" y1="-121" x2="241" y2="-121"/>
			</g>
			<g>
				<line class="st1" x1="1" y1="-111" x2="1" y2="-111"/>
				<line class="st2" x1="11" y1="-111" x2="236" y2="-111"/>
				<line class="st1" x1="241" y1="-111" x2="241" y2="-111"/>
			</g>
			<g>
				<line class="st1" x1="1" y1="-101" x2="1" y2="-101"/>
				<line class="st2" x1="11" y1="-101" x2="236" y2="-101"/>
				<line class="st1" x1="241" y1="-101" x2="241" y2="-101"/>
			</g>
			<g>
				<line class="st1" x1="1" y1="-91" x2="1" y2="-91"/>
				<line class="st2" x1="11" y1="-91" x2="236" y2="-91"/>
				<line class="st1" x1="241" y1="-91" x2="241" y2="-91"/>
			</g>
			<g>
				<line class="st1" x1="1" y1="-81" x2="1" y2="-81"/>
				<line class="st2" x1="11" y1="-81" x2="236" y2="-81"/>
				<line class="st1" x1="241" y1="-81" x2="241" y2="-81"/>
			</g>
			<g>
				<line class="st1" x1="1" y1="-71" x2="1" y2="-71"/>
				<line class="st2" x1="11" y1="-71" x2="236" y2="-71"/>
				<line class="st1" x1="241" y1="-71" x2="241" y2="-71"/>
			</g>
			<g>
				<line class="st1" x1="1" y1="-61" x2="1" y2="-61"/>
				<line class="st2" x1="11" y1="-61" x2="236" y2="-61"/>
				<line class="st1" x1="241" y1="-61" x2="241" y2="-61"/>
			</g>
			<g>
				<line class="st1" x1="1" y1="-51" x2="1" y2="-51"/>
				<line class="st2" x1="11" y1="-51" x2="236" y2="-51"/>
				<line class="st1" x1="241" y1="-51" x2="241" y2="-51"/>
			</g>
			<g>
				<line class="st1" x1="1" y1="-41" x2="1" y2="-41"/>
				<line class="st2" x1="11" y1="-41" x2="236" y2="-41"/>
				<line class="st1" x1="241" y1="-41" x2="241" y2="-41"/>
			</g>
			<g>
				<line class="st1" x1="1" y1="-31" x2="1" y2="-31"/>
				<line class="st2" x1="11" y1="-31" x2="236" y2="-31"/>
				<line class="st1" x1="241" y1="-31" x2="241" y2="-31"/>
			</g>
			<g>
				<line class="st1" x1="1" y1="-21" x2="1" y2="-21"/>
				<line class="st2" x1="11" y1="-21" x2="236" y2="-21"/>
				<line class="st1" x1="241" y1="-21" x2="241" y2="-21"/>
			</g>
			<g>
				<line class="st1" x1="1" y1="-11" x2="1" y2="-11"/>
				<line class="st2" x1="11" y1="-11" x2="236" y2="-11"/>
				<line class="st1" x1="241" y1="-11" x2="241" y2="-11"/>
			</g>
			<g>
				<line class="st1" x1="1" y1="-1" x2="1" y2="-1"/>
				<line class="st2" x1="11" y1="-1" x2="236" y2="-1"/>
				<line class="st1" x1="241" y1="-1" x2="241" y2="-1"/>
			</g>
		</g>
		<g>
			<g>
				<line class="st1" x1="1" y1="-241" x2="1" y2="-241"/>
			</g>
			<g>
				<line class="st1" x1="1" y1="-231" x2="1" y2="-231"/>
			</g>
			<g>
				<line class="st1" x1="1" y1="-221" x2="1" y2="-221"/>
			</g>
			<g>
				<line class="st1" x1="1" y1="-211" x2="1" y2="-211"/>
			</g>
			<g>
				<line class="st1" x1="1" y1="-201" x2="1" y2="-201"/>
			</g>
			<g>
				<line class="st1" x1="1" y1="-191" x2="1" y2="-191"/>
			</g>
			<g>
				<line class="st1" x1="1" y1="-181" x2="1" y2="-181"/>
			</g>
			<g>
				<line class="st1" x1="1" y1="-171" x2="1" y2="-171"/>
			</g>
			<g>
				<line class="st1" x1="1" y1="-161" x2="1" y2="-161"/>
			</g>
			<g>
				<line class="st1" x1="1" y1="-151" x2="1" y2="-151"/>
			</g>
			<g>
				<line class="st1" x1="1" y1="-141" x2="1" y2="-141"/>
			</g>
			<g>
				<line class="st1" x1="1" y1="-131" x2="1" y2="-131"/>
			</g>
			<g>
				<line class="st1" x1="1" y1="-121" x2="1" y2="-121"/>
			</g>
			<g>
				<line class="st1" x1="1" y1="-111" x2="1" y2="-111"/>
			</g>
			<g>
				<line class="st1" x1="1" y1="-101" x2="1" y2="-101"/>
			</g>
			<g>
				<line class="st1" x1="1" y1="-91" x2="1" y2="-91"/>
			</g>
			<g>
				<line class="st1" x1="1" y1="-81" x2="1" y2="-81"/>
			</g>
			<g>
				<line class="st1" x1="1" y1="-71" x2="1" y2="-71"/>
			</g>
			<g>
				<line class="st1" x1="1" y1="-61" x2="1" y2="-61"/>
			</g>
			<g>
				<line class="st1" x1="1" y1="-51" x2="1" y2="-51"/>
			</g>
			<g>
				<line class="st1" x1="1" y1="-41" x2="1" y2="-41"/>
			</g>
			<g>
				<line class="st1" x1="1" y1="-31" x2="1" y2="-31"/>
			</g>
			<g>
				<line class="st1" x1="1" y1="-21" x2="1" y2="-21"/>
			</g>
			<g>
				<line class="st1" x1="1" y1="-11" x2="1" y2="-11"/>
			</g>
			<g>
				<line class="st1" x1="1" y1="-1" x2="1" y2="-1"/>
			</g>
		</g>
		<g>
			<g>
				<line class="st1" x1="241" y1="-241" x2="241" y2="-241"/>
			</g>
		</g>
		<g>
			<g>
				<line class="st1" x1="1" y1="-241" x2="1" y2="-241"/>
				<line class="st2" x1="11" y1="-241" x2="236" y2="-241"/>
				<line class="st1" x1="241" y1="-241" x2="241" y2="-241"/>
			</g>
		</g>
		<g>
			<g>
				<line class="st1" x1="1" y1="-241" x2="1" y2="-241"/>
			</g>
		</g>
	</g>
</pattern>
<g class="st3">
	<rect x="-26.1" y="-18.3" class="st4" width="1552.1" height="1089.6"/>
</g>
<g class="st3">
	<rect x="1647.9" y="-18.3" class="st4" width="1552.1" height="1089.6"/>
</g>
<rect x="-26.1" y="1150.2" class="st5" width="1552.1" height="1089.6"/>
<g>
	<g>
		<g>
			<path class="st6" d="M226.1,81.8l-3.7,2.2l-0.7-1.2l4.4-2.7h1.6v15.2h-1.6V81.8z"/>
			<path class="st6" d="M238.3,95.4v-3.7h-7.9V90l7.5-9.8h2v10.2h2.5v1.4h-2.5v3.7H238.3z M238.3,90.3v-8.5l-6.5,8.5H238.3z"/>
			<path class="st6" d="M254.2,99.8l-2.9,6.7h-2.8l11.3-26.1h3.1l11.3,26.1h-2.9l-2.8-6.7H254.2z M255.3,97.3h12.1l-6.1-14.1
				L255.3,97.3z"/>
			<path class="st6" d="M279.8,92.2c1.3-2.8,3.7-3.8,5.7-3.8c0.2,0,0.7,0,0.9,0v2.8c-0.3,0-0.7-0.1-1-0.1c-4.2,0-5.6,3.5-5.6,6.6
				v8.7h-2.6V88.7h2.6V92.2z"/>
			<path class="st6" d="M290.6,98.4c0.2,3.5,2.9,6.1,6.4,6.1c2.6,0,4.7-1.3,5.5-3.8l2.3,0.7c-1.1,3.4-4.3,5.4-7.8,5.4
				c-5.2,0-9-4.1-9-9.2c0-4.8,3.7-9.2,8.7-9.2c5.5,0,8.4,3.9,8.4,9.1c0,0.3,0,0.6,0,0.9H290.6z M302.4,96.2
				c-0.3-3.2-2.4-5.5-5.8-5.5c-3.1,0-5.6,2.6-6,5.5H302.4z"/>
			<path class="st6" d="M324,105.3l-8.1-16.6h3l6.5,13.8l6.2-13.8h2.8l-12.2,26.6h-2.8L324,105.3z"/>
			<path class="st6" d="M336,97.7c0-5.3,4-9.3,9.2-9.3c5.1,0,9.2,4,9.2,9.1c0,5.3-4,9.3-9.2,9.3C340,106.8,336,102.7,336,97.7z
				 M351.7,97.7c0-3.7-2.7-7-6.6-7c-3.9,0-6.5,3.1-6.5,6.9s2.7,7,6.6,7C349,104.5,351.7,101.4,351.7,97.7z"/>
			<path class="st6" d="M361.3,99.1c0,3.2,1.6,5.4,4.9,5.4c3.1,0,5.3-2.4,5.3-5.6V88.7h2.6v17.8h-2.5v-3.3c-1.4,2.4-3.5,3.6-6.1,3.6
				c-4.4,0-6.7-3-6.7-7.1v-11h2.6V99.1z"/>
			<path class="st6" d="M397.1,104.5c3.9,0,5.4-2.9,5.9-4.3l2.4,0.8c-0.8,2.7-3.7,5.8-8.4,5.8c-5.1,0-9.1-3.8-9.1-9.1
				c0-5.4,4.2-9.3,9.2-9.3c4.1,0,7.4,2.7,8.2,5.7l-2.4,0.8c-0.4-1.4-2.2-4.1-5.9-4.1c-3.8,0-6.4,3.1-6.4,6.8
				C390.7,101.2,393.1,104.5,397.1,104.5z"/>
			<path class="st6" d="M408.6,97.7c0-5.3,4-9.3,9.2-9.3c5.1,0,9.2,4,9.2,9.1c0,5.3-4,9.3-9.2,9.3
				C412.6,106.8,408.6,102.7,408.6,97.7z M424.3,97.7c0-3.7-2.7-7-6.6-7s-6.5,3.1-6.5,6.9s2.7,7,6.6,7
				C421.6,104.5,424.3,101.4,424.3,97.7z"/>
			<path class="st6" d="M444.4,96.1c0-3.2-1.6-5.4-4.9-5.4c-3.1,0-5.3,2.5-5.3,5.6v10.1h-2.6V88.7h2.6V92c1.4-2.4,3.5-3.6,6.1-3.6
				c4.4,0,6.7,3,6.7,7.1v11h-2.6V96.1z"/>
			<path class="st6" d="M460.4,104.5c3.9,0,5.4-2.9,5.9-4.3l2.4,0.8c-0.8,2.7-3.7,5.8-8.4,5.8c-5.1,0-9.1-3.8-9.1-9.1
				c0-5.4,4.2-9.3,9.2-9.3c4.1,0,7.4,2.7,8.2,5.7l-2.4,0.8c-0.4-1.4-2.2-4.1-5.9-4.1c-3.8,0-6.4,3.1-6.4,6.8
				C454,101.2,456.4,104.5,460.4,104.5z"/>
			<path class="st6" d="M474.5,98.4c0.2,3.5,2.9,6.1,6.4,6.1c2.6,0,4.7-1.3,5.5-3.8l2.3,0.7c-1.1,3.4-4.3,5.4-7.8,5.4
				c-5.2,0-9-4.1-9-9.2c0-4.8,3.7-9.2,8.7-9.2c5.5,0,8.4,3.9,8.4,9.1c0,0.3,0,0.6,0,0.9H474.5z M486.3,96.2
				c-0.3-3.2-2.4-5.5-5.8-5.5c-3.1,0-5.6,2.6-6,5.5H486.3z"/>
			<path class="st6" d="M496,92.2c1.3-2.8,3.7-3.8,5.7-3.8c0.2,0,0.7,0,0.9,0v2.8c-0.3,0-0.7-0.1-1-0.1c-4.2,0-5.6,3.5-5.6,6.6v8.7
				h-2.6V88.7h2.6V92.2z"/>
			<path class="st6" d="M518.9,96.1c0-3.2-1.6-5.4-4.9-5.4c-3.1,0-5.3,2.5-5.3,5.6v10.1h-2.6V88.7h2.6V92c1.4-2.4,3.5-3.6,6.1-3.6
				c4.4,0,6.7,3,6.7,7.1v11h-2.6V96.1z"/>
			<path class="st6" d="M528.5,98.4c0.2,3.5,2.9,6.1,6.4,6.1c2.6,0,4.7-1.3,5.5-3.8l2.3,0.7c-1.1,3.4-4.3,5.4-7.8,5.4
				c-5.2,0-9-4.1-9-9.2c0-4.8,3.7-9.2,8.7-9.2c5.5,0,8.4,3.9,8.4,9.1c0,0.3,0,0.6,0,0.9H528.5z M540.3,96.2
				c-0.3-3.2-2.4-5.5-5.8-5.5c-3.1,0-5.6,2.6-6,5.5H540.3z"/>
			<path class="st6" d="M554.5,88.4c3.4,0,5.5,1.9,6.9,4V79.3h2.6v27.2h-2.5v-3.8c-1.4,2.3-3.5,4.1-6.9,4.1c-5.1,0-8.3-4.3-8.3-9.2
				C546.1,92.9,549.4,88.4,554.5,88.4z M561.4,97.5c0-3.5-2.7-6.8-6.4-6.8c-3.9,0-6.2,3.1-6.2,6.9c0,3.7,2.3,6.8,6.2,6.8
				C558.8,104.5,561.4,101.2,561.4,97.5z"/>
			<path class="st6" d="M589.9,95c0-2.9-1.6-4.3-4.5-4.3c-3,0-4.4,1.9-4.7,3.6l-2.5-0.5c0.1-1.5,2.1-5.4,7.2-5.4
				c3.8,0,5.6,1.7,6.5,3.7c0.4,1,0.5,2.4,0.5,2.9v11.5h-2.5v-3.1h0c-1.4,2.2-3.3,3.4-6,3.4c-3.6,0-6-2.2-6-5.2v-0.2
				c0-3.9,3.9-5.1,7-5.1h4.9V95z M584.9,98.4c-1.9,0-4.4,0.6-4.4,3c0,2,1.7,3.1,3.8,3.1c3.2,0,5.5-2.2,5.5-5.5v-0.6H584.9z"/>
			<path class="st6" d="M607.6,106.8c-3.4,0-5.5-1.7-6.9-4v3.7h-2.6V79.3h2.6v13.2c1.5-2.3,3.5-4.1,6.9-4.1c5.1,0,8.4,4.5,8.4,9.2
				C616,102.4,612.7,106.8,607.6,106.8z M613.3,97.6c0-3.7-2.3-6.9-6.2-6.9c-3.7,0-6.4,3.3-6.4,6.8c0,3.7,2.6,6.9,6.4,6.9
				C611,104.5,613.3,101.4,613.3,97.6z"/>
			<path class="st6" d="M619.3,97.7c0-5.3,4-9.3,9.2-9.3c5.1,0,9.2,4,9.2,9.1c0,5.3-4,9.3-9.2,9.3
				C623.3,106.8,619.3,102.7,619.3,97.7z M635,97.7c0-3.7-2.7-7-6.6-7s-6.5,3.1-6.5,6.9s2.7,7,6.6,7C632.3,104.5,635,101.4,635,97.7
				z"/>
			<path class="st6" d="M644.6,99.1c0,3.2,1.6,5.4,4.9,5.4c3.1,0,5.3-2.4,5.3-5.6V88.7h2.6v17.8h-2.5v-3.3c-1.4,2.4-3.5,3.6-6.1,3.6
				c-4.4,0-6.7-3-6.7-7.1v-11h2.6V99.1z"/>
			<path class="st6" d="M664.5,101.9V91h-3.3v-2.3h3.3v-5.1h2.6v5.1h4.5V91h-4.5v10.8c0,1.6,0.9,2.5,2.9,2.5c0.6,0,1.2,0,1.6-0.1
				v2.2c-0.5,0.2-1.6,0.3-2,0.3C665.7,106.6,664.5,104.5,664.5,101.9z"/>
			<path class="st6" d="M689.2,106.5l-6-17.8h2.8l4.7,14.8h0l4.8-14.8h2.6l4.9,14.8h0l4.7-14.8h2.7l-6,17.8h-2.9L696.8,92h0
				l-4.7,14.5H689.2z"/>
			<path class="st6" d="M727.1,96.1c0-3.2-1.6-5.4-4.9-5.4c-3.1,0-5.3,2.5-5.3,5.6v10.1h-2.6V79.3h2.6v12.5c1.4-2.3,3.5-3.5,6.1-3.5
				c4.4,0,6.7,3,6.7,7.1v11h-2.6V96.1z"/>
			<path class="st6" d="M746,95c0-2.9-1.6-4.3-4.5-4.3c-3,0-4.4,1.9-4.7,3.6l-2.5-0.5c0.1-1.5,2.1-5.4,7.2-5.4
				c3.8,0,5.6,1.7,6.5,3.7c0.4,1,0.5,2.4,0.5,2.9v11.5h-2.5v-3.1h0c-1.4,2.2-3.3,3.4-6,3.4c-3.6,0-6-2.2-6-5.2v-0.2
				c0-3.9,3.9-5.1,7-5.1h4.9V95z M741.1,98.4c-1.9,0-4.4,0.6-4.4,3c0,2,1.7,3.1,3.8,3.1c3.2,0,5.5-2.2,5.5-5.5v-0.6H741.1z"/>
			<path class="st6" d="M755.3,101.9V91H752v-2.3h3.3v-5.1h2.6v5.1h4.5V91h-4.5v10.8c0,1.6,0.9,2.5,2.9,2.5c0.6,0,1.2,0,1.6-0.1v2.2
				c-0.5,0.2-1.6,0.3-2,0.3C756.5,106.6,755.3,104.5,755.3,101.9z"/>
			<path class="st6" d="M250.6,141.9V131h-3.3v-2.3h3.3v-5.1h2.6v5.1h4.5v2.3h-4.5v10.8c0,1.6,0.9,2.5,2.9,2.5c0.6,0,1.2,0,1.6-0.1
				v2.2c-0.5,0.2-1.6,0.3-2,0.3C251.8,146.7,250.6,144.5,250.6,141.9z"/>
			<path class="st6" d="M274.9,136.2c0-3.2-1.6-5.4-4.9-5.4c-3.1,0-5.3,2.5-5.3,5.6v10.1h-2.6v-27.2h2.6v12.5
				c1.4-2.3,3.5-3.5,6.1-3.5c4.4,0,6.7,3,6.7,7.1v11h-2.6V136.2z"/>
			<path class="st6" d="M284.5,138.4c0.2,3.5,2.9,6.1,6.4,6.1c2.6,0,4.7-1.3,5.5-3.8l2.3,0.7c-1.1,3.4-4.3,5.4-7.8,5.4
				c-5.2,0-9-4.1-9-9.2c0-4.8,3.7-9.2,8.7-9.2c5.5,0,8.4,3.9,8.4,9.1c0,0.3,0,0.6,0,0.9H284.5z M296.3,136.2
				c-0.3-3.2-2.4-5.5-5.8-5.5c-3.1,0-5.6,2.6-6,5.5H296.3z"/>
			<path class="st6" d="M316.2,120.4v26.1h-2.7v-26.1H316.2z"/>
			<path class="st6" d="M321.4,137.7c0-5.3,4-9.3,9.2-9.3c5.1,0,9.2,4,9.2,9.1c0,5.3-4,9.3-9.2,9.3
				C325.4,146.8,321.4,142.8,321.4,137.7z M337.2,137.7c0-3.7-2.7-7-6.6-7s-6.5,3.1-6.5,6.9s2.7,7,6.6,7
				C334.5,144.5,337.2,141.4,337.2,137.7z"/>
			<path class="st6" d="M347.5,146.5V123h-8.7v-2.6H359v2.6h-8.7v23.5H347.5z"/>
			<path class="st6" d="M382.8,136.1c0-2.9-1.4-5.3-4.6-5.3c-3.1,0-4.9,2.7-4.9,5.6v10.1h-2.6v-17.8h2.6v3.1
				c1.4-2.2,3.1-3.4,5.7-3.4c2.6,0,4.6,1.2,5.7,3.6c1.5-2.3,3.5-3.5,6.3-3.5c4.3,0,6.6,3,6.6,7.1v11h-2.6v-10.4c0-3-1.3-5.4-4.6-5.4
				c-3.1,0-4.9,2.5-4.9,5.5v10.2h-2.6V136.1z"/>
			<path class="st6" d="M404.6,138.4c0.2,3.5,2.9,6.1,6.4,6.1c2.6,0,4.7-1.3,5.5-3.8l2.3,0.7c-1.1,3.4-4.3,5.4-7.8,5.4
				c-5.2,0-9-4.1-9-9.2c0-4.8,3.7-9.2,8.7-9.2c5.5,0,8.4,3.9,8.4,9.1c0,0.3,0,0.6,0,0.9H404.6z M416.4,136.2
				c-0.3-3.2-2.4-5.5-5.8-5.5c-3.1,0-5.6,2.6-6,5.5H416.4z"/>
			<path class="st6" d="M434.2,135.1c0-2.9-1.6-4.3-4.5-4.3c-3,0-4.4,1.9-4.7,3.6l-2.5-0.5c0.1-1.5,2.1-5.4,7.2-5.4
				c3.8,0,5.6,1.7,6.5,3.7c0.4,1,0.5,2.4,0.5,2.9v11.5h-2.5v-3.1h0c-1.4,2.2-3.3,3.4-6,3.4c-3.6,0-6-2.2-6-5.2v-0.2
				c0-3.9,3.9-5.1,7-5.1h4.9V135.1z M429.2,138.4c-1.9,0-4.4,0.6-4.4,3c0,2,1.7,3.1,3.8,3.1c3.2,0,5.5-2.2,5.5-5.5v-0.6H429.2z"/>
			<path class="st6" d="M455.3,136.2c0-3.2-1.6-5.4-4.9-5.4c-3.1,0-5.3,2.5-5.3,5.6v10.1h-2.6v-17.8h2.6v3.3
				c1.4-2.4,3.5-3.6,6.1-3.6c4.4,0,6.7,3,6.7,7.1v11h-2.6V136.2z"/>
			<path class="st6" d="M468.9,146.8c-4.8,0-6.4-3.3-6.8-5.3l2.4-0.6c0.4,1.6,1.6,3.5,4.3,3.5c1.9,0,3.7-1,3.7-2.9
				c0-2.2-2.3-2.7-4.2-2.9c-3-0.4-5.9-1.5-5.9-5c0-3.3,3-5.3,6-5.3c4.7,0,6.2,3.1,6.5,4.8l-2.4,0.6c-0.3-1.2-1.3-3.1-4.1-3.1
				c-1.9,0-3.4,1.3-3.4,2.8c0,2.2,2.4,2.6,4.2,2.8c2.9,0.4,5.8,1.9,5.8,5.1C475.3,144.7,472.4,146.8,468.9,146.8z"/>
			<path class="st6" d="M493.1,125.4v3.4h4.7v2.3h-4.7v15.5h-2.6V131h-3.4v-2.3h3.4v-3.3c0-4.1,2.3-6.1,5.5-6.1c0.5,0,1.3,0.1,2,0.3
				v2.2c-0.7-0.2-1.5-0.2-1.9-0.2C494.8,121.6,493.1,122.3,493.1,125.4z"/>
			<path class="st6" d="M499.5,137.7c0-5.3,4-9.3,9.2-9.3c5.1,0,9.2,4,9.2,9.1c0,5.3-4,9.3-9.2,9.3
				C503.5,146.8,499.5,142.8,499.5,137.7z M515.3,137.7c0-3.7-2.7-7-6.6-7c-3.9,0-6.5,3.1-6.5,6.9s2.7,7,6.6,7
				C512.6,144.5,515.3,141.4,515.3,137.7z"/>
			<path class="st6" d="M525.1,132.3c1.3-2.8,3.7-3.8,5.7-3.8c0.2,0,0.7,0,0.9,0v2.8c-0.3,0-0.7-0.1-1-0.1c-4.2,0-5.6,3.5-5.6,6.6
				v8.7h-2.6v-17.8h2.6V132.3z"/>
			<path class="st6" d="M544.8,120.4c1.1,0,2,0.9,2,2c0,1.1-0.9,1.9-2,1.9c-1.1,0-1.9-0.9-1.9-1.9
				C542.8,121.2,543.7,120.4,544.8,120.4z M546.1,128.7v17.8h-2.6v-17.8H546.1z"/>
			<path class="st6" d="M564.8,136.2c0-3.2-1.6-5.4-4.9-5.4c-3.1,0-5.3,2.5-5.3,5.6v10.1H552v-17.8h2.6v3.3c1.4-2.4,3.5-3.6,6.1-3.6
				c4.4,0,6.7,3,6.7,7.1v11h-2.6V136.2z"/>
			<path class="st6" d="M576.8,125.4v3.4h4.7v2.3h-4.7v15.5h-2.6V131h-3.4v-2.3h3.4v-3.3c0-4.1,2.3-6.1,5.5-6.1c0.5,0,1.3,0.1,2,0.3
				v2.2c-0.7-0.2-1.5-0.2-1.9-0.2C578.4,121.6,576.8,122.3,576.8,125.4z"/>
			<path class="st6" d="M583.2,137.7c0-5.3,4-9.3,9.2-9.3c5.1,0,9.2,4,9.2,9.1c0,5.3-4,9.3-9.2,9.3
				C587.2,146.8,583.2,142.8,583.2,137.7z M598.9,137.7c0-3.7-2.7-7-6.6-7s-6.5,3.1-6.5,6.9s2.7,7,6.6,7
				C596.2,144.5,598.9,141.4,598.9,137.7z"/>
			<path class="st6" d="M611.6,146.8c-4.8,0-6.4-3.3-6.8-5.3l2.4-0.6c0.4,1.6,1.6,3.5,4.3,3.5c1.9,0,3.7-1,3.7-2.9
				c0-2.2-2.3-2.7-4.2-2.9c-3-0.4-5.9-1.5-5.9-5c0-3.3,3-5.3,6-5.3c4.7,0,6.2,3.1,6.5,4.8l-2.4,0.6c-0.3-1.2-1.3-3.1-4.1-3.1
				c-1.9,0-3.4,1.3-3.4,2.8c0,2.2,2.4,2.6,4.2,2.8c2.9,0.4,5.8,1.9,5.8,5.1C617.9,144.7,615,146.8,611.6,146.8z"/>
			<path class="st6" d="M623.9,138.4c0.2,3.5,2.9,6.1,6.4,6.1c2.6,0,4.7-1.3,5.5-3.8l2.3,0.7c-1.1,3.4-4.3,5.4-7.8,5.4
				c-5.2,0-9-4.1-9-9.2c0-4.8,3.7-9.2,8.7-9.2c5.5,0,8.4,3.9,8.4,9.1c0,0.3,0,0.6,0,0.9H623.9z M635.7,136.2
				c-0.3-3.2-2.4-5.5-5.8-5.5c-3.1,0-5.6,2.6-6,5.5H635.7z"/>
			<path class="st6" d="M650.6,144.5c3.9,0,5.4-2.9,5.9-4.3l2.4,0.8c-0.8,2.7-3.7,5.8-8.4,5.8c-5.1,0-9.1-3.8-9.1-9.1
				c0-5.4,4.2-9.3,9.2-9.3c4.1,0,7.4,2.7,8.2,5.7l-2.4,0.8c-0.4-1.4-2.2-4.1-5.9-4.1c-3.8,0-6.4,3.1-6.4,6.8
				C644.2,141.2,646.6,144.5,650.6,144.5z"/>
			<path class="st6" d="M666.9,139c0-0.2,0-0.4,0-0.6c0-3.1,1.9-4.6,3.3-6.1c1.5-1.6,3.3-3,3.3-5.3c0-2.2-1.5-4.3-4.9-4.3
				c-3.4,0-5.2,2.5-5,5.7l-2.7-0.1c0-0.3,0-0.5,0-0.8c0-4.3,3.6-7.3,7.7-7.3c4.7,0,7.7,3.2,7.7,6.8c0,2.6-1.6,4.3-3.9,6.6
				c-1.7,1.7-2.9,2.8-3,5.4H666.9z M668.1,146.8c1.1,0,1.9-0.9,1.9-2c0-1.1-0.8-1.9-1.9-1.9c-1.1,0-2,0.9-2,1.9
				C666.1,146,667,146.8,668.1,146.8z"/>
		</g>
	</g>
	<g>
		<g>
			<g>
				<path class="st6" d="M237.5,695.7l-4.2,2.5l-0.8-1.4l5.1-3h1.8v17.4h-1.8V695.7z"/>
				<path class="st6" d="M248.8,711.4c-3,0-5.7-1.8-6-4.8l1.8-0.4c0.3,2,1.8,3.5,4.2,3.5c2.3,0,4.2-1.3,4.2-3.3c0-2-1.5-3.2-4.2-3.2
					h-1.7v-1.7h1.7c2.4,0,3.9-1.5,3.9-3.1c0-1.8-1.3-3.1-3.8-3.1c-2.4,0-3.8,1.4-4.1,3.3l-1.8-0.4c0.3-2.4,2.6-4.6,5.8-4.6
					c3.8,0,5.7,2.3,5.7,4.6c0,2-1.1,3.2-2.8,4v0c2,0.6,3.2,2.1,3.2,4.2C254.9,709.1,252.5,711.4,248.8,711.4z"/>
				<path class="st6" d="M258.9,703.2c-1.3,0-2.3-1-2.3-2.3c0-1.3,1-2.3,2.3-2.3c1.3,0,2.3,1,2.3,2.3
					C261.2,702.2,260.2,703.2,258.9,703.2z M258.9,699.5c-0.8,0-1.4,0.6-1.4,1.4c0,0.8,0.6,1.4,1.4,1.4s1.4-0.6,1.4-1.4
					C260.4,700.1,259.7,699.5,258.9,699.5z M264.6,698.7h1l-6.6,10.2h-1L264.6,698.7z M264.6,709c-1.3,0-2.3-1-2.3-2.3
					c0-1.3,1-2.3,2.3-2.3s2.3,1,2.3,2.3C266.9,708,265.8,709,264.6,709z M264.6,705.3c-0.8,0-1.4,0.6-1.4,1.4c0,0.8,0.6,1.4,1.4,1.4
					s1.4-0.6,1.4-1.4C266,705.9,265.4,705.3,264.6,705.3z"/>
			</g>
		</g>
		<g class="st3">
			<path d="M389.3,656.8l-4.2,2.5l-0.8-1.4l5.1-3h1.8v17.4h-1.8V656.8z"/>
			<path d="M394.2,656.5v-1.7h11.9v1.7l-8,15.7h-2l8.1-15.7H394.2z"/>
			<path d="M409.5,664.2c-1.3,0-2.3-1-2.3-2.3c0-1.3,1-2.3,2.3-2.3c1.3,0,2.3,1,2.3,2.3C411.8,663.2,410.7,664.2,409.5,664.2z
				 M409.5,660.5c-0.8,0-1.4,0.6-1.4,1.4c0,0.8,0.6,1.4,1.4,1.4s1.4-0.6,1.4-1.4C410.9,661.1,410.3,660.5,409.5,660.5z M415.1,659.8
				h1l-6.6,10.2h-1L415.1,659.8z M415.1,670c-1.3,0-2.3-1-2.3-2.3c0-1.3,1-2.3,2.3-2.3s2.3,1,2.3,2.3C417.4,669,416.4,670,415.1,670
				z M415.1,666.3c-0.8,0-1.4,0.6-1.4,1.4c0,0.8,0.6,1.4,1.4,1.4s1.4-0.6,1.4-1.4C416.5,666.9,415.9,666.3,415.1,666.3z"/>
		</g>
		<g>
			<path class="st6" d="M463.9,691.9l-4.2,2.5l-0.8-1.4l5.1-3h1.8v17.4h-1.8V691.9z"/>
			<path class="st6" d="M477.9,707.4v-4.2h-9.1v-2l8.5-11.2h2.3v11.7h2.9v1.6h-2.9v4.2H477.9z M477.9,701.6v-9.8l-7.4,9.8H477.9z"/>
			<path class="st6" d="M486.1,699.4c-1.3,0-2.3-1-2.3-2.3c0-1.3,1-2.3,2.3-2.3c1.3,0,2.3,1,2.3,2.3
				C488.4,698.3,487.3,699.4,486.1,699.4z M486.1,695.6c-0.8,0-1.4,0.6-1.4,1.4c0,0.8,0.6,1.4,1.4,1.4s1.4-0.6,1.4-1.4
				C487.5,696.3,486.9,695.6,486.1,695.6z M491.7,694.9h1l-6.6,10.2h-1L491.7,694.9z M491.7,705.1c-1.3,0-2.3-1-2.3-2.3
				c0-1.3,1-2.3,2.3-2.3s2.3,1,2.3,2.3C494,704.1,493,705.1,491.7,705.1z M491.7,701.4c-0.8,0-1.4,0.6-1.4,1.4
				c0,0.8,0.6,1.4,1.4,1.4s1.4-0.6,1.4-1.4C493.1,702,492.5,701.4,491.7,701.4z"/>
		</g>
		<g>
			<g>
				<path class="st7" d="M311.8,735.1l-4.2,2.5l-0.8-1.4l5.1-3h1.8v17.4h-1.8V735.1z"/>
				<path class="st7" d="M317.3,741.9c0-4.3,2.5-8.9,7.3-8.9c4.8,0,7.2,4.5,7.2,8.9s-2.4,8.9-7.3,8.9
					C319.7,750.8,317.3,746.3,317.3,741.9z M319.2,741.8c0,3.1,1.6,7.3,5.4,7.3c3.8,0,5.4-4,5.4-7.2s-1.6-7.3-5.4-7.3
					C320.8,734.7,319.2,738.7,319.2,741.8z"/>
				<path class="st7" d="M335.9,742.6c-1.3,0-2.3-1-2.3-2.3c0-1.3,1-2.3,2.3-2.3c1.3,0,2.3,1,2.3,2.3
					C338.2,741.6,337.1,742.6,335.9,742.6z M335.9,738.9c-0.8,0-1.4,0.6-1.4,1.4c0,0.8,0.6,1.4,1.4,1.4s1.4-0.6,1.4-1.4
					C337.3,739.5,336.7,738.9,335.9,738.9z M341.5,738.1h1l-6.6,10.2h-1L341.5,738.1z M341.5,748.3c-1.3,0-2.3-1-2.3-2.3
					c0-1.3,1-2.3,2.3-2.3s2.3,1,2.3,2.3C343.8,747.3,342.8,748.3,341.5,748.3z M341.5,744.6c-0.8,0-1.4,0.6-1.4,1.4
					c0,0.8,0.6,1.4,1.4,1.4s1.4-0.6,1.4-1.4C342.9,745.3,342.3,744.6,341.5,744.6z"/>
			</g>
		</g>
		<g>
			<pattern  id="SVGID_1_" xlink:href="#white" patternTransform="matrix(0 1.3901 -1.3345 0 -21908.0332 4137.5522)">
			</pattern>
			<rect x="221.4" y="729.1" class="st8" width="75.6" height="145"/>
		</g>
		<g>
			<rect x="297" y="762.6" class="st7" width="75.6" height="111.5"/>
		</g>
		<g class="st3">
			<rect x="372.6" y="684.5" width="75.6" height="189.6"/>
		</g>
		<g>
			<rect x="448.2" y="718" class="st6" width="75.6" height="156.1"/>
		</g>
		<g>
			<g>
				<path d="M331,919.5l-5.9,8.8v6.4h-1.6v-6.4l-5.9-8.8h1.9l4.8,7.3l4.9-7.3H331z"/>
				<path d="M332.7,930c0.1,2,1.7,3.6,3.7,3.6c1.5,0,2.7-0.8,3.2-2.2l1.4,0.4c-0.6,2-2.5,3.1-4.6,3.1c-3,0-5.3-2.4-5.3-5.4
					c0-2.8,2.1-5.4,5.1-5.4c3.2,0,4.9,2.3,4.9,5.3c0,0.2,0,0.4,0,0.5H332.7z M339.6,928.7c-0.2-1.9-1.4-3.2-3.4-3.2
					c-1.8,0-3.2,1.5-3.5,3.2H339.6z"/>
				<path d="M347.8,934.9c-2.8,0-3.8-1.9-3.9-3.1l1.4-0.3c0.2,0.9,0.9,2.1,2.5,2.1c1.1,0,2.2-0.6,2.2-1.7c0-1.3-1.4-1.6-2.4-1.7
					c-1.7-0.3-3.4-0.9-3.4-2.9c0-1.9,1.8-3.1,3.5-3.1c2.7,0,3.6,1.8,3.8,2.8l-1.4,0.3c-0.2-0.7-0.7-1.8-2.4-1.8c-1.1,0-2,0.8-2,1.7
					c0,1.3,1.4,1.5,2.5,1.6c1.7,0.2,3.4,1.1,3.4,3C351.5,933.7,349.8,934.9,347.8,934.9z"/>
				<path d="M354.9,937c0.9-0.7,1.6-1.4,1.7-2.3c-0.1,0.1-0.3,0.1-0.5,0.1c-0.7,0-1.3-0.5-1.3-1.3c0-0.8,0.6-1.4,1.4-1.4
					c0.9,0,1.5,0.7,1.5,1.9v0.1c0,1.4-0.7,2.6-2.1,3.6L354.9,937z"/>
				<path d="M368.9,919.5v15.2h-1.6v-15.2H368.9z"/>
				<path d="M387.6,928.7c0-1.8-1-3.2-2.9-3.2c-1.8,0-3.1,1.4-3.1,3.3v5.9h-1.5v-15.8h1.5v7.3c0.8-1.4,2-2.1,3.6-2.1
					c2.5,0,3.9,1.7,3.9,4.2v6.4h-1.5V928.7z"/>
				<path d="M399.6,928.1c0-1.7-0.9-2.5-2.6-2.5c-1.8,0-2.5,1.1-2.7,2.1l-1.5-0.3c0.1-0.9,1.2-3.2,4.2-3.2c2.2,0,3.3,1,3.8,2.1
					c0.2,0.6,0.3,1.4,0.3,1.7v6.7h-1.5v-1.8h0c-0.8,1.3-1.9,2-3.5,2c-2.1,0-3.5-1.3-3.5-3.1v-0.1c0-2.3,2.3-3,4.1-3h2.9V928.1z
					 M396.7,930c-1.1,0-2.6,0.4-2.6,1.8c0,1.2,1,1.8,2.2,1.8c1.8,0,3.2-1.3,3.2-3.2V930H396.7z"/>
				<path d="M403.8,924.4h1.7l3.6,8.7l3.6-8.7h1.6l-4.4,10.4h-1.6L403.8,924.4z"/>
				<path d="M417.8,930c0.1,2,1.7,3.6,3.7,3.6c1.5,0,2.7-0.8,3.2-2.2l1.4,0.4c-0.6,2-2.5,3.1-4.6,3.1c-3,0-5.3-2.4-5.3-5.4
					c0-2.8,2.1-5.4,5.1-5.4c3.2,0,4.9,2.3,4.9,5.3c0,0.2,0,0.4,0,0.5H417.8z M424.7,928.7c-0.2-1.9-1.4-3.2-3.4-3.2
					c-1.8,0-3.2,1.5-3.5,3.2H424.7z"/>
				<path d="M299.6,952c0-1.7-0.8-3.1-2.7-3.1c-1.8,0-2.9,1.6-2.9,3.3v5.9h-1.5v-10.4h1.5v1.8c0.8-1.3,1.8-2,3.3-2
					c1.5,0,2.7,0.7,3.3,2.1c0.9-1.3,2-2.1,3.7-2.1c2.5,0,3.8,1.7,3.8,4.1v6.4h-1.5v-6.1c0-1.7-0.8-3.1-2.7-3.1
					c-1.8,0-2.9,1.5-2.9,3.2v6h-1.5V952z"/>
				<path d="M318.7,951.4c0-1.7-0.9-2.5-2.6-2.5c-1.8,0-2.5,1.1-2.7,2.1l-1.5-0.3c0.1-0.9,1.2-3.2,4.2-3.2c2.2,0,3.3,1,3.8,2.1
					c0.2,0.6,0.3,1.4,0.3,1.7v6.7h-1.5v-1.8h0c-0.8,1.3-1.9,2-3.5,2c-2.1,0-3.5-1.3-3.5-3.1v-0.1c0-2.3,2.3-3,4.1-3h2.9V951.4z
					 M315.8,953.4c-1.1,0-2.6,0.4-2.6,1.8c0,1.2,1,1.8,2.2,1.8c1.8,0,3.2-1.3,3.2-3.2v-0.4H315.8z"/>
				<path d="M326.2,960.3c0,1.9-1,3-3,3c-0.3,0-0.7-0.1-1-0.2v-1.3c0.2,0.1,0.5,0.1,0.7,0.1c1.1,0,1.7-0.6,1.7-1.7v-12.6h1.5V960.3z
					 M325.4,942.9c0.6,0,1.1,0.5,1.1,1.1c0,0.6-0.5,1.1-1.1,1.1c-0.6,0-1.1-0.5-1.1-1.1C324.3,943.4,324.8,942.9,325.4,942.9z"/>
				<path d="M329.8,952.9c0-3.1,2.3-5.4,5.4-5.4c3,0,5.4,2.4,5.4,5.3c0,3.1-2.4,5.4-5.4,5.4C332.2,958.3,329.8,955.9,329.8,952.9z
					 M339,952.9c0-2.2-1.6-4.1-3.8-4.1c-2.3,0-3.8,1.8-3.8,4s1.6,4.1,3.8,4.1C337.4,956.9,339,955.1,339,952.9z"/>
				<path d="M345.7,949.8c0.8-1.6,2.2-2.2,3.3-2.2c0.1,0,0.4,0,0.5,0v1.6c-0.2,0-0.4,0-0.6,0c-2.5,0-3.2,2-3.2,3.9v5.1h-1.5v-10.4
					h1.5V949.8z"/>
				<path d="M362.9,956.9c2.3,0,3.2-1.7,3.5-2.5l1.4,0.5c-0.5,1.6-2.2,3.4-4.9,3.4c-3,0-5.3-2.2-5.3-5.3c0-3.2,2.4-5.4,5.4-5.4
					c2.4,0,4.3,1.6,4.8,3.3l-1.4,0.4c-0.2-0.8-1.3-2.4-3.4-2.4c-2.2,0-3.8,1.8-3.8,4S360.6,956.9,362.9,956.9z"/>
				<path d="M370.6,952.9c0-3.1,2.3-5.4,5.4-5.4c3,0,5.4,2.4,5.4,5.3c0,3.1-2.4,5.4-5.4,5.4C372.9,958.3,370.6,955.9,370.6,952.9z
					 M379.8,952.9c0-2.2-1.6-4.1-3.8-4.1s-3.8,1.8-3.8,4s1.6,4.1,3.8,4.1C378.2,956.9,379.8,955.1,379.8,952.9z"/>
				<path d="M392.4,952.1c0-1.8-1-3.2-2.9-3.2c-1.8,0-3.1,1.4-3.1,3.3v5.9H385v-10.4h1.5v1.9c0.8-1.4,2-2.1,3.6-2.1
					c2.5,0,3.9,1.7,3.9,4.2v6.4h-1.5V952.1z"/>
				<path d="M402.8,956.9c2.3,0,3.2-1.7,3.5-2.5l1.4,0.5c-0.5,1.6-2.2,3.4-4.9,3.4c-3,0-5.3-2.2-5.3-5.3c0-3.2,2.4-5.4,5.4-5.4
					c2.4,0,4.3,1.6,4.8,3.3l-1.4,0.4c-0.2-0.8-1.3-2.4-3.4-2.4c-2.2,0-3.8,1.8-3.8,4S400.4,956.9,402.8,956.9z"/>
				<path d="M411.9,953.4c0.1,2,1.7,3.6,3.7,3.6c1.5,0,2.7-0.8,3.2-2.2l1.4,0.4c-0.6,2-2.5,3.1-4.6,3.1c-3,0-5.3-2.4-5.3-5.4
					c0-2.8,2.1-5.4,5.1-5.4c3.2,0,4.9,2.3,4.9,5.3c0,0.2,0,0.4,0,0.5H411.9z M418.8,952.1c-0.2-1.9-1.4-3.2-3.4-3.2
					c-1.8,0-3.2,1.5-3.5,3.2H418.8z"/>
				<path d="M425.5,949.8c0.8-1.6,2.2-2.2,3.3-2.2c0.1,0,0.4,0,0.5,0v1.6c-0.2,0-0.4,0-0.6,0c-2.5,0-3.2,2-3.2,3.9v5.1H424v-10.4
					h1.5V949.8z"/>
				<path d="M439.8,952.1c0-1.8-1-3.2-2.9-3.2c-1.8,0-3.1,1.4-3.1,3.3v5.9h-1.5v-10.4h1.5v1.9c0.8-1.4,2-2.1,3.6-2.1
					c2.5,0,3.9,1.7,3.9,4.2v6.4h-1.5V952.1z"/>
				<path d="M448.8,958.3c-2.8,0-3.8-1.9-3.9-3.1l1.4-0.3c0.2,0.9,0.9,2.1,2.5,2.1c1.1,0,2.2-0.6,2.2-1.7c0-1.3-1.4-1.6-2.4-1.7
					c-1.7-0.3-3.4-0.9-3.4-2.9c0-1.9,1.8-3.1,3.5-3.1c2.7,0,3.6,1.8,3.8,2.8l-1.4,0.3c-0.2-0.7-0.7-1.8-2.4-1.8c-1.1,0-2,0.8-2,1.7
					c0,1.3,1.4,1.5,2.5,1.6c1.7,0.2,3.4,1.1,3.4,3C452.4,957.1,450.8,958.3,448.8,958.3z"/>
			</g>
		</g>
		<g>
			<g>
				<pattern  id="SVGID_2_" xlink:href="#white" patternTransform="matrix(0 1.3901 -1.3345 0 -21908.0332 4137.5522)">
				</pattern>
				<rect x="598.8" y="372.3" class="st9" width="75.6" height="501.8"/>
			</g>
			<g>
				<g>
					<path class="st6" d="M619.3,354.4v-4.2h-9.1v-2l8.5-11.2h2.3v11.7h2.9v1.6h-2.9v4.2H619.3z M619.3,348.6v-9.8l-7.4,9.8H619.3z"
						/>
					<path class="st6" d="M629.2,338.7l-1,5.9c1.1-1.1,3-1.4,3.8-1.4c3.3,0,5.7,2.2,5.7,5.6c0,3.8-3.1,5.7-6.1,5.7
						c-2.9,0-5.6-1.8-6-4.8l1.8-0.4c0.3,2,2,3.5,4.2,3.5c1.7,0,4.2-1.1,4.2-4s-2.1-4-4.2-4c-1.3,0-2.8,0.6-3.7,1.8l-1.7-0.6l1.5-9
						h9.1v1.7H629.2z"/>
					<path class="st6" d="M641.7,346.4c-1.3,0-2.3-1-2.3-2.3c0-1.3,1-2.3,2.3-2.3c1.3,0,2.3,1,2.3,2.3
						C644,345.3,642.9,346.4,641.7,346.4z M641.7,342.6c-0.8,0-1.4,0.6-1.4,1.4c0,0.8,0.6,1.4,1.4,1.4s1.4-0.6,1.4-1.4
						C643.1,343.3,642.4,342.6,641.7,342.6z M647.3,341.9h1l-6.6,10.2h-1L647.3,341.9z M647.3,352.1c-1.3,0-2.3-1-2.3-2.3
						c0-1.3,1-2.3,2.3-2.3s2.3,1,2.3,2.3C649.6,351.1,648.6,352.1,647.3,352.1z M647.3,348.4c-0.8,0-1.4,0.6-1.4,1.4
						c0,0.8,0.6,1.4,1.4,1.4s1.4-0.6,1.4-1.4C648.7,349,648.1,348.4,647.3,348.4z"/>
				</g>
			</g>
		</g>
		<g>
			<g class="st3">
				<rect x="750" y="316.5" width="75.6" height="557.6"/>
			</g>
			<g class="st3">
				<path d="M765.9,288.5l-1,5.9c1.1-1.1,3-1.4,3.8-1.4c3.3,0,5.7,2.2,5.7,5.6c0,3.8-3.1,5.7-6.1,5.7c-2.9,0-5.6-1.8-6-4.8l1.8-0.4
					c0.3,2,2,3.5,4.2,3.5c1.7,0,4.2-1.1,4.2-4s-2.1-4-4.2-4c-1.3,0-2.8,0.6-3.7,1.8l-1.7-0.6l1.5-9h9.1v1.7H765.9z"/>
				<path d="M776.8,295.6c0-4.3,2.5-8.9,7.3-8.9c4.8,0,7.2,4.5,7.2,8.9s-2.4,8.9-7.3,8.9C779.3,304.4,776.8,299.9,776.8,295.6z
					 M778.7,295.5c0,3.1,1.6,7.3,5.4,7.3c3.8,0,5.4-4,5.4-7.2s-1.6-7.3-5.4-7.3S778.7,292.4,778.7,295.5z"/>
				<path d="M795.4,296.2c-1.3,0-2.3-1-2.3-2.3c0-1.3,1-2.3,2.3-2.3c1.3,0,2.3,1,2.3,2.3C797.7,295.2,796.7,296.2,795.4,296.2z
					 M795.4,292.5c-0.8,0-1.4,0.6-1.4,1.4c0,0.8,0.6,1.4,1.4,1.4c0.8,0,1.4-0.6,1.4-1.4C796.9,293.1,796.2,292.5,795.4,292.5z
					 M801,291.8h1l-6.6,10.2h-1L801,291.8z M801,302c-1.3,0-2.3-1-2.3-2.3c0-1.3,1-2.3,2.3-2.3c1.3,0,2.3,1,2.3,2.3
					C803.3,301,802.3,302,801,302z M801,298.3c-0.8,0-1.4,0.6-1.4,1.4c0,0.8,0.6,1.4,1.4,1.4c0.8,0,1.4-0.6,1.4-1.4
					C802.5,298.9,801.8,298.3,801,298.3z"/>
			</g>
		</g>
		<g>
			<g>
				<rect x="825.6" y="283.1" class="st6" width="75.6" height="591"/>
			</g>
			<g>
				<path class="st6" d="M840.5,256.7l-1,5.9c1.1-1.1,3-1.4,3.8-1.4c3.3,0,5.7,2.2,5.7,5.6c0,3.8-3.1,5.7-6.1,5.7
					c-2.9,0-5.6-1.8-6-4.8l1.8-0.4c0.3,2,2,3.5,4.2,3.5c1.7,0,4.2-1.1,4.2-4s-2.1-4-4.2-4c-1.3,0-2.8,0.6-3.7,1.8l-1.7-0.6l1.5-9
					h9.1v1.7H840.5z"/>
				<path class="st6" d="M857.2,272.6c-3,0-5.7-1.8-6-4.8l1.8-0.4c0.3,2,1.8,3.5,4.2,3.5c2.3,0,4.2-1.3,4.2-3.3s-1.5-3.2-4.2-3.2
					h-1.7v-1.7h1.7c2.4,0,3.9-1.5,3.9-3.1c0-1.8-1.3-3.1-3.8-3.1c-2.4,0-3.8,1.4-4.1,3.3l-1.8-0.4c0.3-2.4,2.6-4.6,5.8-4.6
					c3.8,0,5.7,2.3,5.7,4.6c0,2-1.1,3.2-2.8,4v0c2,0.6,3.2,2.1,3.2,4.2C863.2,270.3,860.8,272.6,857.2,272.6z"/>
				<path class="st6" d="M867.3,264.4c-1.3,0-2.3-1-2.3-2.3c0-1.3,1-2.3,2.3-2.3c1.3,0,2.3,1,2.3,2.3
					C869.6,263.4,868.6,264.4,867.3,264.4z M867.3,260.7c-0.8,0-1.4,0.6-1.4,1.4c0,0.8,0.6,1.4,1.4,1.4c0.8,0,1.4-0.6,1.4-1.4
					C868.8,261.4,868.1,260.7,867.3,260.7z M872.9,260h1l-6.6,10.2h-1L872.9,260z M872.9,270.2c-1.3,0-2.3-1-2.3-2.3
					c0-1.3,1-2.3,2.3-2.3c1.3,0,2.3,1,2.3,2.3C875.2,269.2,874.2,270.2,872.9,270.2z M872.9,266.5c-0.8,0-1.4,0.6-1.4,1.4
					c0,0.8,0.6,1.4,1.4,1.4c0.8,0,1.4-0.6,1.4-1.4C874.4,267.1,873.7,266.5,872.9,266.5z"/>
			</g>
		</g>
		<g>
			<g>
				<rect x="674.4" y="472.7" class="st7" width="75.6" height="401.5"/>
			</g>
			<g>
				<g>
					<path class="st7" d="M690.9,460.8c-3,0-5.7-1.8-6-4.8l1.8-0.4c0.3,2,1.8,3.5,4.2,3.5c2.3,0,4.2-1.3,4.2-3.3s-1.5-3.2-4.2-3.2
						h-1.7v-1.7h1.7c2.4,0,3.9-1.5,3.9-3.1c0-1.8-1.3-3.1-3.8-3.1c-2.4,0-3.8,1.4-4.1,3.3l-1.8-0.4c0.3-2.4,2.6-4.6,5.8-4.6
						c3.8,0,5.7,2.3,5.7,4.6c0,2-1.1,3.2-2.8,4v0c2,0.6,3.2,2.1,3.2,4.2C697,458.5,694.6,460.8,690.9,460.8z"/>
					<path class="st7" d="M701.4,451.8c1.2-1.9,3.3-2.5,4.8-2.5c3.7,0,5.9,2.6,5.9,5.6c0,4-3.2,5.9-6.2,5.9c-1.9,0-4.2-1.1-5.2-2.9
						c-0.8-1.5-1.1-2.6-1.1-4.8c0-5.5,3-10,8.5-10c1,0,2.4,0.1,3.6,0.8l-0.7,1.6c-0.9-0.6-2.2-0.7-2.9-0.7
						C704.1,444.8,701.8,447.9,701.4,451.8z M703,452c-0.8,0.7-1.4,1.8-1.4,3c0,2.6,2.2,4.1,4.3,4.1c2.2,0,4.3-1.4,4.3-4.2
						c0-2.1-1.6-4-4.3-4C704.9,450.9,703.8,451.3,703,452z"/>
					<path class="st7" d="M716,452.6c-1.3,0-2.3-1-2.3-2.3c0-1.3,1-2.3,2.3-2.3c1.3,0,2.3,1,2.3,2.3
						C718.3,451.6,717.3,452.6,716,452.6z M716,448.9c-0.8,0-1.4,0.6-1.4,1.4c0,0.8,0.6,1.4,1.4,1.4s1.4-0.6,1.4-1.4
						C717.5,449.6,716.8,448.9,716,448.9z M721.6,448.2h1l-6.6,10.2h-1L721.6,448.2z M721.7,458.4c-1.3,0-2.3-1-2.3-2.3
						c0-1.3,1-2.3,2.3-2.3s2.3,1,2.3,2.3C724,457.4,722.9,458.4,721.7,458.4z M721.7,454.7c-0.8,0-1.4,0.6-1.4,1.4
						c0,0.8,0.6,1.4,1.4,1.4s1.4-0.6,1.4-1.4C723.1,455.3,722.5,454.7,721.7,454.7z"/>
				</g>
			</g>
		</g>
		<g>
			<g>
				<path d="M717.3,919.5l-5.9,8.8v6.4h-1.6v-6.4l-5.9-8.8h1.9l4.8,7.3l4.9-7.3H717.3z"/>
				<path d="M719,930c0.1,2,1.7,3.6,3.7,3.6c1.5,0,2.7-0.8,3.2-2.2l1.4,0.4c-0.6,2-2.5,3.1-4.6,3.1c-3,0-5.3-2.4-5.3-5.4
					c0-2.8,2.1-5.4,5.1-5.4c3.2,0,4.9,2.3,4.9,5.3c0,0.2,0,0.4,0,0.5H719z M725.8,928.7c-0.2-1.9-1.4-3.2-3.4-3.2
					c-1.8,0-3.2,1.5-3.5,3.2H725.8z"/>
				<path d="M734.1,934.9c-2.8,0-3.8-1.9-3.9-3.1l1.4-0.3c0.2,0.9,0.9,2.1,2.5,2.1c1.1,0,2.2-0.6,2.2-1.7c0-1.3-1.4-1.6-2.4-1.7
					c-1.7-0.3-3.4-0.9-3.4-2.9c0-1.9,1.8-3.1,3.5-3.1c2.7,0,3.6,1.8,3.8,2.8l-1.4,0.3c-0.2-0.7-0.7-1.8-2.4-1.8c-1.1,0-2,0.8-2,1.7
					c0,1.3,1.4,1.5,2.5,1.6c1.7,0.2,3.4,1.1,3.4,3C737.8,933.7,736.1,934.9,734.1,934.9z"/>
				<path d="M741.2,937c0.9-0.7,1.6-1.4,1.7-2.3c-0.1,0.1-0.3,0.1-0.5,0.1c-0.7,0-1.3-0.5-1.3-1.3c0-0.8,0.6-1.4,1.4-1.4
					c0.9,0,1.5,0.7,1.5,1.9v0.1c0,1.4-0.7,2.6-2.1,3.6L741.2,937z"/>
				<path d="M755.2,919.5v15.2h-1.6v-15.2H755.2z"/>
				<path d="M772.6,928.1c0-1.7-0.9-2.5-2.6-2.5c-1.8,0-2.5,1.1-2.7,2.1l-1.5-0.3c0.1-0.9,1.2-3.2,4.2-3.2c2.2,0,3.3,1,3.8,2.1
					c0.2,0.6,0.3,1.4,0.3,1.7v6.7h-1.5v-1.8h0c-0.8,1.3-1.9,2-3.5,2c-2.1,0-3.5-1.3-3.5-3.1v-0.1c0-2.3,2.3-3,4.1-3h2.9V928.1z
					 M769.7,930c-1.1,0-2.6,0.4-2.6,1.8c0,1.2,1,1.8,2.2,1.8c1.8,0,3.2-1.3,3.2-3.2V930H769.7z"/>
				<path d="M785.5,928.7c0-1.7-0.8-3.1-2.7-3.1c-1.8,0-2.9,1.6-2.9,3.3v5.9h-1.5v-10.4h1.5v1.8c0.8-1.3,1.8-2,3.3-2
					c1.5,0,2.7,0.7,3.3,2.1c0.9-1.3,2-2.1,3.7-2.1c2.5,0,3.8,1.7,3.8,4.1v6.4h-1.5v-6.1c0-1.7-0.8-3.1-2.7-3.1
					c-1.8,0-2.9,1.5-2.9,3.2v6h-1.5V928.7z"/>
				<path d="M700.9,958.3c-2.8,0-3.8-1.9-3.9-3.1l1.4-0.3c0.2,0.9,0.9,2.1,2.5,2.1c1.1,0,2.2-0.6,2.2-1.7c0-1.3-1.4-1.6-2.4-1.7
					c-1.7-0.3-3.4-0.9-3.4-2.9c0-1.9,1.8-3.1,3.5-3.1c2.7,0,3.6,1.8,3.8,2.8l-1.4,0.3c-0.2-0.7-0.7-1.8-2.4-1.8c-1.1,0-2,0.8-2,1.7
					c0,1.3,1.4,1.5,2.5,1.6c1.7,0.2,3.4,1.1,3.4,3C704.5,957.1,702.9,958.3,700.9,958.3z"/>
				<path d="M707.5,952.9c0-3.1,2.3-5.4,5.4-5.4c3,0,5.4,2.4,5.4,5.3c0,3.1-2.4,5.4-5.4,5.4C709.8,958.3,707.5,955.9,707.5,952.9z
					 M716.7,952.9c0-2.2-1.6-4.1-3.8-4.1c-2.3,0-3.8,1.8-3.8,4s1.6,4.1,3.8,4.1C715.1,956.9,716.7,955.1,716.7,952.9z"/>
				<path d="M728.9,952c0-1.7-0.8-3.1-2.7-3.1c-1.8,0-2.9,1.6-2.9,3.3v5.9h-1.5v-10.4h1.5v1.8c0.8-1.3,1.8-2,3.3-2
					c1.5,0,2.7,0.7,3.3,2.1c0.9-1.3,2-2.1,3.7-2.1c2.5,0,3.8,1.7,3.8,4.1v6.4H736v-6.1c0-1.7-0.8-3.1-2.7-3.1
					c-1.8,0-2.9,1.5-2.9,3.2v6h-1.5V952z"/>
				<path d="M742.6,953.4c0.1,2,1.7,3.6,3.7,3.6c1.5,0,2.7-0.8,3.2-2.2l1.4,0.4c-0.6,2-2.5,3.1-4.6,3.1c-3,0-5.3-2.4-5.3-5.4
					c0-2.8,2.1-5.4,5.1-5.4c3.2,0,4.9,2.3,4.9,5.3c0,0.2,0,0.4,0,0.5H742.6z M749.5,952.1c-0.2-1.9-1.4-3.2-3.4-3.2
					c-1.8,0-3.2,1.5-3.5,3.2H749.5z"/>
				<path d="M756.6,958.1l-3.5-10.4h1.6l2.7,8.6h0l2.8-8.6h1.5l2.8,8.6h0l2.7-8.6h1.6l-3.5,10.4h-1.7l-2.7-8.4h0l-2.8,8.4H756.6z"/>
				<path d="M779.6,952.1c0-1.8-1-3.2-2.9-3.2c-1.8,0-3.1,1.4-3.1,3.3v5.9h-1.5v-15.8h1.5v7.3c0.8-1.4,2-2.1,3.6-2.1
					c2.5,0,3.9,1.7,3.9,4.2v6.4h-1.5V952.1z"/>
				<path d="M791.7,951.4c0-1.7-0.9-2.5-2.6-2.5c-1.8,0-2.5,1.1-2.7,2.1l-1.5-0.3c0.1-0.9,1.2-3.2,4.2-3.2c2.2,0,3.3,1,3.8,2.1
					c0.2,0.6,0.3,1.4,0.3,1.7v6.7h-1.5v-1.8h0c-0.8,1.3-1.9,2-3.5,2c-2.1,0-3.5-1.3-3.5-3.1v-0.1c0-2.3,2.3-3,4.1-3h2.9V951.4z
					 M788.8,953.4c-1.1,0-2.6,0.4-2.6,1.8c0,1.2,1,1.8,2.2,1.8c1.8,0,3.2-1.3,3.2-3.2v-0.4H788.8z"/>
				<path d="M798.1,955.4v-6.4h-1.9v-1.3h1.9v-3h1.5v3h2.6v1.3h-2.6v6.3c0,0.9,0.5,1.5,1.7,1.5c0.3,0,0.7,0,0.9-0.1v1.3
					c-0.3,0.1-0.9,0.2-1.2,0.2C798.7,958.2,798.1,956.9,798.1,955.4z"/>
				<path d="M702.4,980.3c2.3,0,3.2-1.7,3.5-2.5l1.4,0.5c-0.5,1.6-2.2,3.4-4.9,3.4c-3,0-5.3-2.2-5.3-5.3c0-3.2,2.4-5.4,5.4-5.4
					c2.4,0,4.3,1.6,4.8,3.3l-1.4,0.4c-0.2-0.8-1.3-2.4-3.4-2.4c-2.2,0-3.8,1.8-3.8,4S700.1,980.3,702.4,980.3z"/>
				<path d="M710.1,976.3c0-3.1,2.3-5.4,5.4-5.4c3,0,5.4,2.4,5.4,5.3c0,3.1-2.4,5.4-5.4,5.4C712.4,981.6,710.1,979.3,710.1,976.3z
					 M719.3,976.3c0-2.2-1.6-4.1-3.8-4.1c-2.3,0-3.8,1.8-3.8,4s1.6,4.1,3.8,4.1C717.7,980.3,719.3,978.5,719.3,976.3z"/>
				<path d="M731.9,975.4c0-1.8-1-3.2-2.9-3.2c-1.8,0-3.1,1.4-3.1,3.3v5.9h-1.5v-10.4h1.5v1.9c0.8-1.4,2-2.1,3.6-2.1
					c2.5,0,3.9,1.7,3.9,4.2v6.4h-1.5V975.4z"/>
				<path d="M742.3,980.3c2.3,0,3.2-1.7,3.5-2.5l1.4,0.5c-0.5,1.6-2.2,3.4-4.9,3.4c-3,0-5.3-2.2-5.3-5.3c0-3.2,2.4-5.4,5.4-5.4
					c2.4,0,4.3,1.6,4.8,3.3l-1.4,0.4c-0.2-0.8-1.3-2.4-3.4-2.4c-2.2,0-3.8,1.8-3.8,4S739.9,980.3,742.3,980.3z"/>
				<path d="M751.4,976.7c0.1,2,1.7,3.6,3.7,3.6c1.5,0,2.7-0.8,3.2-2.2l1.4,0.4c-0.6,2-2.5,3.1-4.6,3.1c-3,0-5.3-2.4-5.3-5.4
					c0-2.8,2.1-5.4,5.1-5.4c3.2,0,4.9,2.3,4.9,5.3c0,0.2,0,0.4,0,0.5H751.4z M758.3,975.4c-0.2-1.9-1.4-3.2-3.4-3.2
					c-1.8,0-3.2,1.5-3.5,3.2H758.3z"/>
				<path d="M764.9,973.1c0.8-1.6,2.2-2.2,3.3-2.2c0.1,0,0.4,0,0.5,0v1.6c-0.2,0-0.4,0-0.6,0c-2.5,0-3.2,2-3.2,3.9v5.1h-1.5v-10.4
					h1.5V973.1z"/>
				<path d="M779.3,975.4c0-1.8-1-3.2-2.9-3.2c-1.8,0-3.1,1.4-3.1,3.3v5.9h-1.5v-10.4h1.5v1.9c0.8-1.4,2-2.1,3.6-2.1
					c2.5,0,3.9,1.7,3.9,4.2v6.4h-1.5V975.4z"/>
				<path d="M785.9,976.7c0.1,2,1.7,3.6,3.7,3.6c1.5,0,2.7-0.8,3.2-2.2l1.4,0.4c-0.6,2-2.5,3.1-4.6,3.1c-3,0-5.3-2.4-5.3-5.4
					c0-2.8,2.1-5.4,5.1-5.4c3.2,0,4.9,2.3,4.9,5.3c0,0.2,0,0.4,0,0.5H785.9z M792.8,975.4c-0.2-1.9-1.4-3.2-3.4-3.2
					c-1.8,0-3.2,1.5-3.5,3.2H792.8z"/>
				<path d="M802,970.9c2,0,3.2,1.1,4,2.4v-7.6h1.5v15.8H806v-2.2c-0.8,1.3-2,2.4-4,2.4c-3,0-4.9-2.5-4.9-5.4
					C797.1,973.5,799.1,970.9,802,970.9z M806,976.2c0-2.1-1.6-4-3.7-4c-2.3,0-3.6,1.8-3.6,4c0,2.1,1.4,4,3.6,4
					C804.5,980.3,806,978.4,806,976.2z"/>
			</g>
		</g>
		<g>
			<g>
				<pattern  id="SVGID_3_" xlink:href="#white" patternTransform="matrix(0 1.3901 -1.3345 0 -21908.0332 4137.5522)">
				</pattern>
				<rect x="976.2" y="561.9" class="st10" width="75.6" height="312.2"/>
			</g>
			<g>
				<g>
					<path class="st6" d="M988.2,543.4c0-2,0.9-4.2,4-6.1l2.6-1.6c1.7-1,3-2.1,3-4.1c0-1.8-1.6-3.5-3.8-3.5c-1.9,0-3.1,1.1-3.6,2.2
						c-0.3,0.7-0.3,1.4-0.4,1.7l-1.8-0.3c0-2.5,2.1-5.4,5.8-5.4c3.2,0,5.7,2.4,5.7,5.1c0,2.5-1.4,3.9-3.7,5.4l-2.7,1.7
						c-1.5,0.9-2.9,2.2-3,3.7h9.6v1.7h-11.8V543.4z"/>
					<path class="st6" d="M1002.6,539.2c0-1.8,1.3-3.5,3.6-4.2c-2.2-0.6-3.2-2.5-3.2-4c0-3,3.1-4.6,5.7-4.6c2.6,0,5.7,1.5,5.7,4.6
						c0,1.6-1.2,3.4-3.2,4c2.4,0.7,3.6,2.4,3.6,4.2c0,3.2-3.1,4.9-6.1,4.9C1005.7,544.1,1002.6,542.5,1002.6,539.2z M1013,539.2
						c0-2.3-2.4-3.4-4.3-3.4c-1.8,0-4.3,1.1-4.3,3.3c0,2.4,2.4,3.3,4.3,3.3C1010.5,542.5,1013,541.5,1013,539.2z M1004.8,531
						c0,2.2,2.4,3.2,3.9,3.2c1.5,0,3.9-1,3.9-3.2c0-2-2.2-3.1-3.9-3.1C1007,528,1004.8,529,1004.8,531z"/>
					<path class="st6" d="M1018.9,535.9c-1.3,0-2.3-1-2.3-2.3c0-1.3,1-2.3,2.3-2.3c1.3,0,2.3,1,2.3,2.3
						C1021.2,534.9,1020.2,535.9,1018.9,535.9z M1018.9,532.2c-0.8,0-1.4,0.6-1.4,1.4c0,0.8,0.6,1.4,1.4,1.4c0.8,0,1.4-0.6,1.4-1.4
						C1020.4,532.9,1019.7,532.2,1018.9,532.2z M1024.5,531.5h1l-6.6,10.2h-1L1024.5,531.5z M1024.5,541.7c-1.3,0-2.3-1-2.3-2.3
						c0-1.3,1-2.3,2.3-2.3c1.3,0,2.3,1,2.3,2.3C1026.8,540.7,1025.8,541.7,1024.5,541.7z M1024.5,538c-0.8,0-1.4,0.6-1.4,1.4
						c0,0.8,0.6,1.4,1.4,1.4c0.8,0,1.4-0.6,1.4-1.4C1026,538.6,1025.3,538,1024.5,538z"/>
				</g>
			</g>
		</g>
		<g>
			<g class="st3">
				<rect x="1127.4" y="617.6" width="75.6" height="256.5"/>
			</g>
			<g class="st3">
				<path d="M1140,604.8c0-2,0.9-4.2,4-6.1l2.6-1.6c1.7-1,3-2.1,3-4.1c0-1.8-1.6-3.5-3.8-3.5c-1.9,0-3.1,1.1-3.6,2.2
					c-0.3,0.7-0.3,1.4-0.4,1.7l-1.8-0.3c0-2.5,2.1-5.4,5.8-5.4c3.2,0,5.7,2.4,5.7,5.1c0,2.5-1.4,3.9-3.7,5.4l-2.7,1.7
					c-1.5,0.9-2.9,2.2-3,3.7h9.6v1.7H1140V604.8z"/>
				<path d="M1160.1,605.5c-3,0-5.7-1.8-6-4.8l1.8-0.4c0.3,2,1.8,3.5,4.2,3.5c2.3,0,4.2-1.3,4.2-3.3s-1.5-3.2-4.2-3.2h-1.7v-1.7h1.7
					c2.4,0,3.9-1.5,3.9-3.1c0-1.8-1.3-3.1-3.8-3.1c-2.4,0-3.8,1.4-4.1,3.3l-1.8-0.4c0.3-2.4,2.6-4.6,5.8-4.6c3.8,0,5.7,2.3,5.7,4.6
					c0,2-1.1,3.2-2.8,4v0c2,0.6,3.2,2.1,3.2,4.2C1166.2,603.2,1163.8,605.5,1160.1,605.5z"/>
				<path d="M1170.3,597.3c-1.3,0-2.3-1-2.3-2.3c0-1.3,1-2.3,2.3-2.3c1.3,0,2.3,1,2.3,2.3C1172.5,596.3,1171.5,597.3,1170.3,597.3z
					 M1170.3,593.6c-0.8,0-1.4,0.6-1.4,1.4c0,0.8,0.6,1.4,1.4,1.4c0.8,0,1.4-0.6,1.4-1.4C1171.7,594.2,1171,593.6,1170.3,593.6z
					 M1175.9,592.8h1l-6.6,10.2h-1L1175.9,592.8z M1175.9,603.1c-1.3,0-2.3-1-2.3-2.3c0-1.3,1-2.3,2.3-2.3c1.3,0,2.3,1,2.3,2.3
					C1178.2,602.1,1177.2,603.1,1175.9,603.1z M1175.9,599.4c-0.8,0-1.4,0.6-1.4,1.4c0,0.8,0.6,1.4,1.4,1.4c0.8,0,1.4-0.6,1.4-1.4
					C1177.3,600,1176.7,599.4,1175.9,599.4z"/>
			</g>
		</g>
		<g>
			<g>
				<rect x="1203" y="706.8" class="st6" width="75.6" height="167.3"/>
			</g>
			<g>
				<path class="st6" d="M1218.7,680.7l-4.2,2.5l-0.8-1.4l5-3h1.8v17.4h-1.8V680.7z"/>
				<path class="st6" d="M1227.4,680.5l-1,5.9c1.1-1.1,3-1.4,3.8-1.4c3.3,0,5.7,2.2,5.7,5.6c0,3.8-3.1,5.7-6.1,5.7
					c-2.9,0-5.6-1.8-6-4.8l1.8-0.4c0.3,2,2,3.5,4.2,3.5c1.7,0,4.2-1.1,4.2-4s-2.1-4-4.2-4c-1.3,0-2.8,0.6-3.7,1.8l-1.7-0.6l1.5-9
					h9.1v1.7H1227.4z"/>
				<path class="st6" d="M1239.8,688.2c-1.3,0-2.3-1-2.3-2.3c0-1.3,1-2.3,2.3-2.3c1.3,0,2.3,1,2.3,2.3
					C1242.1,687.2,1241.1,688.2,1239.8,688.2z M1239.8,684.5c-0.8,0-1.4,0.6-1.4,1.4c0,0.8,0.6,1.4,1.4,1.4c0.8,0,1.4-0.6,1.4-1.4
					C1241.3,685.1,1240.6,684.5,1239.8,684.5z M1245.4,683.7h1l-6.6,10.2h-1L1245.4,683.7z M1245.5,694c-1.3,0-2.3-1-2.3-2.3
					c0-1.3,1-2.3,2.3-2.3c1.3,0,2.3,1,2.3,2.3C1247.8,692.9,1246.7,694,1245.5,694z M1245.5,690.2c-0.8,0-1.4,0.6-1.4,1.4
					c0,0.8,0.6,1.4,1.4,1.4c0.8,0,1.4-0.6,1.4-1.4C1246.9,690.9,1246.3,690.2,1245.5,690.2z"/>
			</g>
		</g>
		<g>
			<g>
				<rect x="1051.8" y="405.7" class="st7" width="75.6" height="468.4"/>
			</g>
			<g>
				<g>
					<path class="st7" d="M1071,393.7v-4.2h-9.1v-2l8.5-11.2h2.3V388h2.9v1.6h-2.9v4.2H1071z M1071,388v-9.8l-7.4,9.8H1071z"/>
					<path class="st7" d="M1077.6,393.2c0-2,0.9-4.2,4-6.1l2.6-1.6c1.7-1,3-2.1,3-4.1c0-1.8-1.6-3.5-3.8-3.5c-1.9,0-3.1,1.1-3.6,2.2
						c-0.3,0.7-0.3,1.4-0.4,1.7l-1.8-0.3c0-2.5,2.1-5.4,5.8-5.4c3.2,0,5.7,2.4,5.7,5.1c0,2.5-1.4,3.9-3.7,5.4l-2.7,1.7
						c-1.5,0.9-2.9,2.2-3,3.7h9.6v1.7h-11.8V393.2z"/>
					<path class="st7" d="M1093.4,385.7c-1.3,0-2.3-1-2.3-2.3c0-1.3,1-2.3,2.3-2.3c1.3,0,2.3,1,2.3,2.3
						C1095.7,384.7,1094.7,385.7,1093.4,385.7z M1093.4,382c-0.8,0-1.4,0.6-1.4,1.4c0,0.8,0.6,1.4,1.4,1.4c0.8,0,1.4-0.6,1.4-1.4
						C1094.9,382.6,1094.2,382,1093.4,382z M1099,381.3h1l-6.6,10.2h-1L1099,381.3z M1099,391.5c-1.3,0-2.3-1-2.3-2.3
						c0-1.3,1-2.3,2.3-2.3c1.3,0,2.3,1,2.3,2.3C1101.3,390.5,1100.3,391.5,1099,391.5z M1099,387.8c-0.8,0-1.4,0.6-1.4,1.4
						c0,0.8,0.6,1.4,1.4,1.4c0.8,0,1.4-0.6,1.4-1.4C1100.5,388.4,1099.8,387.8,1099,387.8z"/>
				</g>
			</g>
		</g>
		<g>
			<g>
				<path d="M1089,919.5v15.2h-1.7l-9.1-13v13h-1.6v-15.2h1.8l9,12.7v-12.7H1089z"/>
				<path d="M1093,929.6c0-3.1,2.3-5.4,5.4-5.4c3,0,5.3,2.4,5.3,5.3c0,3.1-2.4,5.4-5.4,5.4C1095.4,934.9,1093,932.6,1093,929.6z
					 M1102.2,929.6c0-2.2-1.6-4.1-3.8-4.1s-3.8,1.8-3.8,4s1.6,4.1,3.8,4.1C1100.6,933.6,1102.2,931.8,1102.2,929.6z"/>
				<path d="M1107.1,937c0.9-0.7,1.6-1.4,1.7-2.3c-0.1,0.1-0.3,0.1-0.5,0.1c-0.7,0-1.3-0.5-1.3-1.3c0-0.8,0.6-1.4,1.4-1.4
					c0.9,0,1.5,0.7,1.5,1.9v0.1c0,1.4-0.7,2.6-2.1,3.6L1107.1,937z"/>
				<path d="M1121.1,919.5v15.2h-1.6v-15.2H1121.1z"/>
				<path d="M1139.8,928.7c0-1.8-1-3.2-2.9-3.2c-1.8,0-3.1,1.4-3.1,3.3v5.9h-1.5v-15.8h1.5v7.3c0.8-1.4,2-2.1,3.6-2.1
					c2.5,0,3.9,1.7,3.9,4.2v6.4h-1.5V928.7z"/>
				<path d="M1151.8,928.1c0-1.7-0.9-2.5-2.6-2.5c-1.8,0-2.5,1.1-2.7,2.1l-1.5-0.3c0.1-0.9,1.2-3.2,4.2-3.2c2.2,0,3.3,1,3.8,2.1
					c0.2,0.6,0.3,1.4,0.3,1.7v6.7h-1.5v-1.8h0c-0.8,1.3-1.9,2-3.5,2c-2.1,0-3.5-1.3-3.5-3.1v-0.1c0-2.3,2.3-3,4.1-3h2.9V928.1z
					 M1148.9,930c-1.1,0-2.6,0.4-2.6,1.8c0,1.2,1,1.8,2.2,1.8c1.8,0,3.2-1.3,3.2-3.2V930H1148.9z"/>
				<path d="M1156,924.4h1.7l3.6,8.7l3.6-8.7h1.6l-4.4,10.4h-1.6L1156,924.4z"/>
				<path d="M1170.1,930c0.1,2,1.7,3.6,3.7,3.6c1.5,0,2.7-0.8,3.2-2.2l1.4,0.4c-0.6,2-2.5,3.1-4.6,3.1c-3,0-5.3-2.4-5.3-5.4
					c0-2.8,2.1-5.4,5.1-5.4c3.2,0,4.9,2.3,4.9,5.3c0,0.2,0,0.4,0,0.5H1170.1z M1176.9,928.7c-0.2-1.9-1.4-3.2-3.4-3.2
					c-1.8,0-3.2,1.5-3.5,3.2H1176.9z"/>
				<path d="M1071.1,952.1c0-1.8-1-3.2-2.9-3.2c-1.8,0-3.1,1.4-3.1,3.3v5.9h-1.5v-10.4h1.5v1.9c0.8-1.4,2-2.1,3.6-2.1
					c2.5,0,3.9,1.7,3.9,4.2v6.4h-1.5V952.1z"/>
				<path d="M1076.1,952.9c0-3.1,2.3-5.4,5.4-5.4c3,0,5.3,2.4,5.3,5.3c0,3.1-2.4,5.4-5.4,5.4
					C1078.4,958.3,1076.1,955.9,1076.1,952.9z M1085.3,952.9c0-2.2-1.6-4.1-3.8-4.1s-3.8,1.8-3.8,4s1.6,4.1,3.8,4.1
					C1083.7,956.9,1085.3,955.1,1085.3,952.9z"/>
				<path d="M1101.4,956.9c2.3,0,3.2-1.7,3.5-2.5l1.4,0.5c-0.5,1.6-2.2,3.4-4.9,3.4c-3,0-5.3-2.2-5.3-5.3c0-3.2,2.4-5.4,5.4-5.4
					c2.4,0,4.3,1.6,4.8,3.3l-1.4,0.4c-0.2-0.8-1.3-2.4-3.4-2.4c-2.2,0-3.8,1.8-3.8,4S1099.1,956.9,1101.4,956.9z"/>
				<path d="M1109.1,952.9c0-3.1,2.3-5.4,5.4-5.4c3,0,5.3,2.4,5.3,5.3c0,3.1-2.4,5.4-5.4,5.4
					C1111.4,958.3,1109.1,955.9,1109.1,952.9z M1118.3,952.9c0-2.2-1.6-4.1-3.8-4.1s-3.8,1.8-3.8,4s1.6,4.1,3.8,4.1
					C1116.7,956.9,1118.3,955.1,1118.3,952.9z"/>
				<path d="M1130.9,952.1c0-1.8-1-3.2-2.9-3.2c-1.8,0-3.1,1.4-3.1,3.3v5.9h-1.5v-10.4h1.5v1.9c0.8-1.4,2-2.1,3.6-2.1
					c2.5,0,3.9,1.7,3.9,4.2v6.4h-1.5V952.1z"/>
				<path d="M1141.3,956.9c2.3,0,3.2-1.7,3.5-2.5l1.4,0.5c-0.5,1.6-2.2,3.4-4.9,3.4c-3,0-5.3-2.2-5.3-5.3c0-3.2,2.4-5.4,5.4-5.4
					c2.4,0,4.3,1.6,4.8,3.3l-1.4,0.4c-0.2-0.8-1.3-2.4-3.4-2.4c-2.2,0-3.8,1.8-3.8,4S1138.9,956.9,1141.3,956.9z"/>
				<path d="M1150.4,953.4c0.1,2,1.7,3.6,3.7,3.6c1.5,0,2.7-0.8,3.2-2.2l1.4,0.4c-0.6,2-2.5,3.1-4.6,3.1c-3,0-5.3-2.4-5.3-5.4
					c0-2.8,2.1-5.4,5.1-5.4c3.2,0,4.9,2.3,4.9,5.3c0,0.2,0,0.4,0,0.5H1150.4z M1157.3,952.1c-0.2-1.9-1.4-3.2-3.4-3.2
					c-1.8,0-3.2,1.5-3.5,3.2H1157.3z"/>
				<path d="M1164,949.8c0.8-1.6,2.2-2.2,3.3-2.2c0.1,0,0.4,0,0.5,0v1.6c-0.2,0-0.4,0-0.6,0c-2.5,0-3.2,2-3.2,3.9v5.1h-1.5v-10.4
					h1.5V949.8z"/>
				<path d="M1178.3,952.1c0-1.8-1-3.2-2.9-3.2c-1.8,0-3.1,1.4-3.1,3.3v5.9h-1.5v-10.4h1.5v1.9c0.8-1.4,2-2.1,3.6-2.1
					c2.5,0,3.9,1.7,3.9,4.2v6.4h-1.5V952.1z"/>
				<path d="M1187.3,958.3c-2.8,0-3.8-1.9-3.9-3.1l1.4-0.3c0.2,0.9,0.9,2.1,2.5,2.1c1.1,0,2.2-0.6,2.2-1.7c0-1.3-1.4-1.6-2.4-1.7
					c-1.7-0.3-3.4-0.9-3.4-2.9c0-1.9,1.8-3.1,3.5-3.1c2.7,0,3.6,1.8,3.8,2.8l-1.4,0.3c-0.2-0.7-0.7-1.8-2.4-1.8c-1.1,0-2,0.8-2,1.7
					c0,1.3,1.4,1.5,2.5,1.6c1.7,0.2,3.4,1.1,3.4,3C1190.9,957.1,1189.3,958.3,1187.3,958.3z"/>
			</g>
		</g>
		<g>
			<g>
				<g>
					<path d="M285.4,316.6l0,1.5l-8.4,4l8.4,3.9l0,1.5l-10.1-4.7l0-1.4L285.4,316.6z"/>
					<path d="M291.9,315.6l-0.9,5.2c0.9-1,2.6-1.2,3.3-1.2c2.9,0,5,1.9,5,4.9c0,3.3-2.7,5-5.3,5c-2.5,0-4.9-1.6-5.2-4.1l1.6-0.3
						c0.3,1.8,1.7,3,3.7,3c1.5,0,3.7-1,3.7-3.5c0-2.5-1.9-3.5-3.7-3.5c-1.1,0-2.4,0.6-3.2,1.5l-1.5-0.6l1.3-7.9l8,0l0,1.5
						L291.9,315.6z"/>
					<path d="M315,329.4c-1.9,0-3.2-1-4-2.3l0,7.3l-1.5,0l-0.1-15.5l1.5,0l0,2.3c0.8-1.3,2.1-2.4,4-2.4c3,0,4.9,2.6,4.9,5.3
						C319.9,326.9,317.9,329.4,315,329.4z M318.3,324.1c0-2.2-1.4-4-3.7-4c-2.1,0-3.7,1.9-3.7,4c0,2.1,1.5,4,3.7,4
						C317,328.1,318.3,326.3,318.3,324.1z"/>
					<path d="M324.3,324.5c0.1,2,1.7,3.6,3.7,3.5c1.5,0,2.7-0.8,3.2-2.2l1.4,0.4c-0.6,2-2.5,3.1-4.5,3.1c-3,0-5.3-2.4-5.3-5.4
						c0-2.8,2.1-5.4,5-5.4c3.2,0,4.9,2.3,4.9,5.3c0,0.2,0,0.4,0,0.5L324.3,324.5z M331.2,323.2c-0.2-1.9-1.4-3.2-3.4-3.2
						c-1.8,0-3.2,1.5-3.5,3.2L331.2,323.2z"/>
					<path d="M335.5,324.1c0-3.1,2.3-5.4,5.4-5.4c3,0,5.4,2.3,5.4,5.3c0,3.1-2.3,5.4-5.4,5.4C337.9,329.4,335.5,327,335.5,324.1z
						 M344.7,324c0-2.2-1.6-4.1-3.8-4.1c-2.3,0-3.8,1.8-3.8,4c0,2.2,1.6,4.1,3.8,4.1C343.2,328,344.7,326.2,344.7,324z"/>
					<path d="M355.5,329.3c-1.9,0-3.2-1-4-2.3l0,7.3l-1.5,0l-0.1-15.5l1.5,0l0,2.3c0.8-1.3,2.1-2.4,4-2.4c3,0,4.9,2.6,4.9,5.3
						C360.3,326.7,358.4,329.3,355.5,329.3z M358.8,323.9c0-2.2-1.4-4-3.7-4c-2.1,0-3.7,1.9-3.7,4c0,2.1,1.5,4,3.7,4
						C357.4,327.9,358.8,326.1,358.8,323.9z"/>
					<path d="M365.5,313.2l0.1,15.9l-1.5,0l-0.1-15.9L365.5,313.2z"/>
					<path d="M370.7,324.3c0.1,2,1.7,3.6,3.7,3.5c1.5,0,2.7-0.8,3.2-2.2l1.4,0.4c-0.6,2-2.5,3.1-4.5,3.1c-3,0-5.3-2.4-5.3-5.4
						c0-2.8,2.1-5.4,5-5.4c3.2,0,4.9,2.3,4.9,5.3c0,0.2,0,0.4,0,0.5L370.7,324.3z M377.6,323c-0.2-1.9-1.4-3.2-3.4-3.2
						c-1.8,0-3.2,1.5-3.5,3.2L377.6,323z"/>
				</g>
			</g>
			<g>
				<g>
					<path d="M277.7,269.9l-1.7,3.9l-1.6,0l6.5-15.3l1.8,0l6.6,15.2l-1.7,0l-1.7-3.9L277.7,269.9z M278.3,268.5l7.1,0l-3.6-8.2
						L278.3,268.5z"/>
					<path d="M293.6,257.9l0.1,15.9l-1.5,0l-0.1-15.9L293.6,257.9z"/>
					<path d="M299.5,257.9l0.1,15.9l-1.5,0l-0.1-15.9L299.5,257.9z"/>
				</g>
			</g>
			<g>
				
					<ellipse transform="matrix(1 -3.820067e-03 3.820067e-03 1 -1.2376 0.9199)" class="st7" cx="240.2" cy="324.4" rx="18.5" ry="18.5"/>
			</g>
			<g>
				<g>
					<path d="M277.5,375.5c1-1.6,2.9-2.2,4.2-2.2c3.2,0,5.1,2.3,5.1,4.8c0,3.5-2.7,5.2-5.4,5.2c-1.7,0-3.7-1-4.6-2.6
						c-0.7-1.3-1-2.3-1-4.2c0-4.8,2.6-8.8,7.4-8.8c0.9,0,2.1,0.1,3.1,0.7l-0.6,1.4c-0.8-0.5-1.9-0.6-2.5-0.6
						C279.8,369.3,277.8,372.1,277.5,375.5z M278.9,375.6c-0.7,0.6-1.2,1.6-1.2,2.7c0,2.3,1.9,3.6,3.8,3.6c1.9,0,3.8-1.3,3.8-3.7
						c0-1.9-1.4-3.5-3.8-3.5C280.5,374.7,279.6,375,278.9,375.6z"/>
					<path d="M296.7,377.8l0-1.5l8.9,0l0,1.5L296.7,377.8z"/>
					<path d="M320.7,383.2c-2.7,0-4.9-1.6-5.3-4.1l1.5-0.3c0.3,1.8,1.6,3,3.7,3c2,0,3.7-1.1,3.7-2.9c0-1.7-1.3-2.8-3.7-2.8l-1.5,0
						l0-1.5l1.5,0c2.1,0,3.4-1.3,3.4-2.8c0-1.6-1.2-2.7-3.4-2.7c-2.1,0-3.3,1.3-3.5,2.9l-1.5-0.3c0.3-2.1,2.3-4,5.1-4
						c3.3,0,4.9,2,5,4c0,1.7-1,2.8-2.4,3.5v0c1.7,0.5,2.8,1.8,2.8,3.6C325.9,381.2,323.9,383.1,320.7,383.2z"/>
					<path d="M329.2,375.4c0-3.8,2.1-7.8,6.4-7.8c4.2,0,6.3,3.9,6.3,7.7c0,3.8-2.1,7.8-6.3,7.8C331.3,383.1,329.2,379.2,329.2,375.4
						z M330.8,375.3c0,2.7,1.4,6.3,4.7,6.3c3.3,0,4.7-3.6,4.7-6.3s-1.4-6.3-4.7-6.3C332.2,369.1,330.8,372.6,330.8,375.3z"/>
				</g>
			</g>
			<g class="st3">
				<ellipse transform="matrix(1 -3.820067e-03 3.820067e-03 1 -1.4429 0.9211)" cx="240.4" cy="378.2" rx="18.5" ry="18.5"/>
			</g>
			<g>
				<g>
					<path d="M281.2,437.1c-2.7,0-4.9-1.6-5.3-4.1l1.5-0.3c0.3,1.8,1.6,3,3.7,3c2,0,3.7-1.1,3.7-2.9c0-1.7-1.3-2.8-3.7-2.8l-1.5,0
						l0-1.5l1.5,0c2.1,0,3.4-1.3,3.4-2.8c0-1.6-1.2-2.7-3.4-2.7c-2.1,0-3.3,1.3-3.5,2.9l-1.5-0.3c0.3-2.1,2.3-4,5.1-4
						c3.3,0,4.9,2,5,4c0,1.7-1,2.8-2.4,3.5l0,0c1.7,0.5,2.8,1.8,2.8,3.6C286.4,435.1,284.4,437.1,281.2,437.1z"/>
					<path d="M289.7,429.3c0-3.8,2.1-7.8,6.4-7.8c4.2,0,6.3,3.9,6.3,7.7c0,3.8-2.1,7.8-6.3,7.8C291.8,437.1,289.7,433.1,289.7,429.3
						z M291.3,429.3c0,2.7,1.4,6.3,4.7,6.3c3.3,0,4.7-3.6,4.7-6.3c0-2.7-1.4-6.3-4.7-6.3C292.7,423,291.3,426.5,291.3,429.3z"/>
					<path d="M309.5,434.2l0-4l-4,0l0-1.4l4,0l0-4l1.5,0l0,4l4,0l0,1.4l-4,0l0,4L309.5,434.2z"/>
					<path d="M330.6,436.9c-1.9,0-3.2-1-4-2.3l0,7.3l-1.5,0l-0.1-15.5l1.5,0l0,2.3c0.8-1.3,2.1-2.4,4-2.4c3,0,4.9,2.6,4.9,5.3
						C335.5,434.3,333.6,436.9,330.6,436.9z M333.9,431.6c0-2.2-1.4-4-3.7-4c-2.1,0-3.7,1.9-3.7,4c0,2.1,1.5,4,3.7,4
						C332.6,435.6,333.9,433.8,333.9,431.6z"/>
					<path d="M339.9,432c0.1,2,1.7,3.6,3.7,3.5c1.5,0,2.7-0.8,3.2-2.2l1.4,0.4c-0.6,2-2.5,3.1-4.5,3.1c-3,0-5.3-2.4-5.3-5.4
						c0-2.8,2.1-5.4,5-5.4c3.2,0,4.9,2.3,4.9,5.3c0,0.2,0,0.4,0,0.5L339.9,432z M346.8,430.7c-0.2-1.9-1.4-3.2-3.4-3.2
						c-1.8,0-3.2,1.5-3.5,3.2L346.8,430.7z"/>
					<path d="M351.1,431.5c0-3.1,2.3-5.4,5.4-5.4c3,0,5.4,2.3,5.4,5.3c0,3.1-2.3,5.4-5.4,5.4C353.5,436.8,351.2,434.5,351.1,431.5z
						 M360.3,431.5c0-2.2-1.6-4.1-3.8-4.1c-2.3,0-3.8,1.8-3.8,4c0,2.2,1.6,4.1,3.8,4.1C358.8,435.5,360.3,433.6,360.3,431.5z"/>
					<path d="M371.1,436.8c-1.9,0-3.2-1-4-2.3l0,7.3l-1.5,0l-0.1-15.5l1.5,0l0,2.3c0.8-1.3,2.1-2.4,4-2.4c3,0,4.9,2.6,4.9,5.3
						C375.9,434.2,374,436.7,371.1,436.8z M374.4,431.4c0-2.2-1.4-4-3.7-4c-2.1,0-3.7,1.9-3.7,4c0,2.1,1.5,4,3.7,4
						C373.1,435.4,374.4,433.6,374.4,431.4z"/>
					<path d="M381.1,420.7l0.1,15.9l-1.5,0l-0.1-15.9L381.1,420.7z"/>
					<path d="M386.3,431.8c0.1,2,1.7,3.6,3.7,3.5c1.5,0,2.7-0.8,3.2-2.2l1.4,0.4c-0.6,2-2.5,3.1-4.5,3.1c-3,0-5.3-2.4-5.3-5.4
						c0-2.8,2.1-5.4,5-5.4c3.2,0,4.9,2.3,4.9,5.3c0,0.2,0,0.4,0,0.5L386.3,431.8z M393.2,430.5c-0.2-1.9-1.4-3.2-3.4-3.2
						c-1.8,0-3.2,1.5-3.5,3.2L393.2,430.5z"/>
				</g>
			</g>
			<g>
				
					<ellipse transform="matrix(1 -3.820067e-03 3.820067e-03 1 -1.6483 0.9222)" class="st6" cx="240.6" cy="432" rx="18.5" ry="18.5"/>
			</g>
			<g>
				<pattern  id="SVGID_4_" xlink:href="#white" patternTransform="matrix(0 1.3901 -1.3345 0 -21908.0332 4137.5522)">
				</pattern>
				<circle class="st11" cx="240" cy="268.8" r="18.5"/>
			</g>
		</g>
	</g>
</g>
</svg>
