<?xml version="1.0" encoding="utf-8"?>
<!-- Generator: Adobe Illustrator 21.1.0, SVG Export Plug-In . SVG Version: 6.00 Build 0)  -->
<svg version="1.1" id="graphNineCyber" xmlns="http://www.w3.org/2000/svg" xmlns:xlink="http://www.w3.org/1999/xlink" x="0px"
	 y="0px" viewBox="0 0 1500 1053" style="enable-background:new 0 0 1500 1053;" xml:space="preserve">
<style type="text/css">
	.st0{fill:none;}
	.st1{fill:none;stroke:#000000;stroke-width:2;stroke-linecap:round;stroke-miterlimit:10;}
	.st2{fill:none;stroke:#000000;stroke-width:2;stroke-linecap:round;stroke-miterlimit:10;stroke-dasharray:0,10;}
	.st3{fill:#F6F6F8;}
	.st4{fill:#37C0AA;}
	.st5{fill:#8EFFDE;}
	.st6{fill:url(#SVGID_1_);}
	.st7{opacity:0.9;}
	.st8{fill:#FF8F4E;}
	.st9{fill:none;stroke:#000000;stroke-width:0.75;stroke-miterlimit:10;}
	.st10{fill:url(#SVGID_2_);}
	.st11{fill:url(#SVGID_3_);}
	.st12{fill:url(#SVGID_4_);}
	.st13{fill:url(#SVGID_5_);}
</style>
<pattern  y="1053" width="240" height="240" patternUnits="userSpaceOnUse" id="Unnamed_Pattern_4" viewBox="1 -241 240 240" style="overflow:visible;">
	<g>
		<rect x="1" y="-241" class="st0" width="240" height="240"/>
		<g>
			<g>
				<line class="st1" x1="241" y1="-1" x2="241" y2="-1"/>
			</g>
		</g>
		<g>
			<g>
				<line class="st1" x1="1" y1="-1" x2="1" y2="-1"/>
				<line class="st2" x1="11" y1="-1" x2="236" y2="-1"/>
				<line class="st1" x1="241" y1="-1" x2="241" y2="-1"/>
			</g>
		</g>
		<g>
			<g>
				<line class="st1" x1="1" y1="-1" x2="1" y2="-1"/>
			</g>
		</g>
		<g>
			<g>
				<line class="st1" x1="241" y1="-241" x2="241" y2="-241"/>
			</g>
			<g>
				<line class="st1" x1="241" y1="-231" x2="241" y2="-231"/>
			</g>
			<g>
				<line class="st1" x1="241" y1="-221" x2="241" y2="-221"/>
			</g>
			<g>
				<line class="st1" x1="241" y1="-211" x2="241" y2="-211"/>
			</g>
			<g>
				<line class="st1" x1="241" y1="-201" x2="241" y2="-201"/>
			</g>
			<g>
				<line class="st1" x1="241" y1="-191" x2="241" y2="-191"/>
			</g>
			<g>
				<line class="st1" x1="241" y1="-181" x2="241" y2="-181"/>
			</g>
			<g>
				<line class="st1" x1="241" y1="-171" x2="241" y2="-171"/>
			</g>
			<g>
				<line class="st1" x1="241" y1="-161" x2="241" y2="-161"/>
			</g>
			<g>
				<line class="st1" x1="241" y1="-151" x2="241" y2="-151"/>
			</g>
			<g>
				<line class="st1" x1="241" y1="-141" x2="241" y2="-141"/>
			</g>
			<g>
				<line class="st1" x1="241" y1="-131" x2="241" y2="-131"/>
			</g>
			<g>
				<line class="st1" x1="241" y1="-121" x2="241" y2="-121"/>
			</g>
			<g>
				<line class="st1" x1="241" y1="-111" x2="241" y2="-111"/>
			</g>
			<g>
				<line class="st1" x1="241" y1="-101" x2="241" y2="-101"/>
			</g>
			<g>
				<line class="st1" x1="241" y1="-91" x2="241" y2="-91"/>
			</g>
			<g>
				<line class="st1" x1="241" y1="-81" x2="241" y2="-81"/>
			</g>
			<g>
				<line class="st1" x1="241" y1="-71" x2="241" y2="-71"/>
			</g>
			<g>
				<line class="st1" x1="241" y1="-61" x2="241" y2="-61"/>
			</g>
			<g>
				<line class="st1" x1="241" y1="-51" x2="241" y2="-51"/>
			</g>
			<g>
				<line class="st1" x1="241" y1="-41" x2="241" y2="-41"/>
			</g>
			<g>
				<line class="st1" x1="241" y1="-31" x2="241" y2="-31"/>
			</g>
			<g>
				<line class="st1" x1="241" y1="-21" x2="241" y2="-21"/>
			</g>
			<g>
				<line class="st1" x1="241" y1="-11" x2="241" y2="-11"/>
			</g>
			<g>
				<line class="st1" x1="241" y1="-1" x2="241" y2="-1"/>
			</g>
		</g>
		<g>
			<g>
				<line class="st1" x1="1" y1="-241" x2="1" y2="-241"/>
				<line class="st2" x1="11" y1="-241" x2="236" y2="-241"/>
				<line class="st1" x1="241" y1="-241" x2="241" y2="-241"/>
			</g>
			<g>
				<line class="st1" x1="1" y1="-231" x2="1" y2="-231"/>
				<line class="st2" x1="11" y1="-231" x2="236" y2="-231"/>
				<line class="st1" x1="241" y1="-231" x2="241" y2="-231"/>
			</g>
			<g>
				<line class="st1" x1="1" y1="-221" x2="1" y2="-221"/>
				<line class="st2" x1="11" y1="-221" x2="236" y2="-221"/>
				<line class="st1" x1="241" y1="-221" x2="241" y2="-221"/>
			</g>
			<g>
				<line class="st1" x1="1" y1="-211" x2="1" y2="-211"/>
				<line class="st2" x1="11" y1="-211" x2="236" y2="-211"/>
				<line class="st1" x1="241" y1="-211" x2="241" y2="-211"/>
			</g>
			<g>
				<line class="st1" x1="1" y1="-201" x2="1" y2="-201"/>
				<line class="st2" x1="11" y1="-201" x2="236" y2="-201"/>
				<line class="st1" x1="241" y1="-201" x2="241" y2="-201"/>
			</g>
			<g>
				<line class="st1" x1="1" y1="-191" x2="1" y2="-191"/>
				<line class="st2" x1="11" y1="-191" x2="236" y2="-191"/>
				<line class="st1" x1="241" y1="-191" x2="241" y2="-191"/>
			</g>
			<g>
				<line class="st1" x1="1" y1="-181" x2="1" y2="-181"/>
				<line class="st2" x1="11" y1="-181" x2="236" y2="-181"/>
				<line class="st1" x1="241" y1="-181" x2="241" y2="-181"/>
			</g>
			<g>
				<line class="st1" x1="1" y1="-171" x2="1" y2="-171"/>
				<line class="st2" x1="11" y1="-171" x2="236" y2="-171"/>
				<line class="st1" x1="241" y1="-171" x2="241" y2="-171"/>
			</g>
			<g>
				<line class="st1" x1="1" y1="-161" x2="1" y2="-161"/>
				<line class="st2" x1="11" y1="-161" x2="236" y2="-161"/>
				<line class="st1" x1="241" y1="-161" x2="241" y2="-161"/>
			</g>
			<g>
				<line class="st1" x1="1" y1="-151" x2="1" y2="-151"/>
				<line class="st2" x1="11" y1="-151" x2="236" y2="-151"/>
				<line class="st1" x1="241" y1="-151" x2="241" y2="-151"/>
			</g>
			<g>
				<line class="st1" x1="1" y1="-141" x2="1" y2="-141"/>
				<line class="st2" x1="11" y1="-141" x2="236" y2="-141"/>
				<line class="st1" x1="241" y1="-141" x2="241" y2="-141"/>
			</g>
			<g>
				<line class="st1" x1="1" y1="-131" x2="1" y2="-131"/>
				<line class="st2" x1="11" y1="-131" x2="236" y2="-131"/>
				<line class="st1" x1="241" y1="-131" x2="241" y2="-131"/>
			</g>
			<g>
				<line class="st1" x1="1" y1="-121" x2="1" y2="-121"/>
				<line class="st2" x1="11" y1="-121" x2="236" y2="-121"/>
				<line class="st1" x1="241" y1="-121" x2="241" y2="-121"/>
			</g>
			<g>
				<line class="st1" x1="1" y1="-111" x2="1" y2="-111"/>
				<line class="st2" x1="11" y1="-111" x2="236" y2="-111"/>
				<line class="st1" x1="241" y1="-111" x2="241" y2="-111"/>
			</g>
			<g>
				<line class="st1" x1="1" y1="-101" x2="1" y2="-101"/>
				<line class="st2" x1="11" y1="-101" x2="236" y2="-101"/>
				<line class="st1" x1="241" y1="-101" x2="241" y2="-101"/>
			</g>
			<g>
				<line class="st1" x1="1" y1="-91" x2="1" y2="-91"/>
				<line class="st2" x1="11" y1="-91" x2="236" y2="-91"/>
				<line class="st1" x1="241" y1="-91" x2="241" y2="-91"/>
			</g>
			<g>
				<line class="st1" x1="1" y1="-81" x2="1" y2="-81"/>
				<line class="st2" x1="11" y1="-81" x2="236" y2="-81"/>
				<line class="st1" x1="241" y1="-81" x2="241" y2="-81"/>
			</g>
			<g>
				<line class="st1" x1="1" y1="-71" x2="1" y2="-71"/>
				<line class="st2" x1="11" y1="-71" x2="236" y2="-71"/>
				<line class="st1" x1="241" y1="-71" x2="241" y2="-71"/>
			</g>
			<g>
				<line class="st1" x1="1" y1="-61" x2="1" y2="-61"/>
				<line class="st2" x1="11" y1="-61" x2="236" y2="-61"/>
				<line class="st1" x1="241" y1="-61" x2="241" y2="-61"/>
			</g>
			<g>
				<line class="st1" x1="1" y1="-51" x2="1" y2="-51"/>
				<line class="st2" x1="11" y1="-51" x2="236" y2="-51"/>
				<line class="st1" x1="241" y1="-51" x2="241" y2="-51"/>
			</g>
			<g>
				<line class="st1" x1="1" y1="-41" x2="1" y2="-41"/>
				<line class="st2" x1="11" y1="-41" x2="236" y2="-41"/>
				<line class="st1" x1="241" y1="-41" x2="241" y2="-41"/>
			</g>
			<g>
				<line class="st1" x1="1" y1="-31" x2="1" y2="-31"/>
				<line class="st2" x1="11" y1="-31" x2="236" y2="-31"/>
				<line class="st1" x1="241" y1="-31" x2="241" y2="-31"/>
			</g>
			<g>
				<line class="st1" x1="1" y1="-21" x2="1" y2="-21"/>
				<line class="st2" x1="11" y1="-21" x2="236" y2="-21"/>
				<line class="st1" x1="241" y1="-21" x2="241" y2="-21"/>
			</g>
			<g>
				<line class="st1" x1="1" y1="-11" x2="1" y2="-11"/>
				<line class="st2" x1="11" y1="-11" x2="236" y2="-11"/>
				<line class="st1" x1="241" y1="-11" x2="241" y2="-11"/>
			</g>
			<g>
				<line class="st1" x1="1" y1="-1" x2="1" y2="-1"/>
				<line class="st2" x1="11" y1="-1" x2="236" y2="-1"/>
				<line class="st1" x1="241" y1="-1" x2="241" y2="-1"/>
			</g>
		</g>
		<g>
			<g>
				<line class="st1" x1="1" y1="-241" x2="1" y2="-241"/>
			</g>
			<g>
				<line class="st1" x1="1" y1="-231" x2="1" y2="-231"/>
			</g>
			<g>
				<line class="st1" x1="1" y1="-221" x2="1" y2="-221"/>
			</g>
			<g>
				<line class="st1" x1="1" y1="-211" x2="1" y2="-211"/>
			</g>
			<g>
				<line class="st1" x1="1" y1="-201" x2="1" y2="-201"/>
			</g>
			<g>
				<line class="st1" x1="1" y1="-191" x2="1" y2="-191"/>
			</g>
			<g>
				<line class="st1" x1="1" y1="-181" x2="1" y2="-181"/>
			</g>
			<g>
				<line class="st1" x1="1" y1="-171" x2="1" y2="-171"/>
			</g>
			<g>
				<line class="st1" x1="1" y1="-161" x2="1" y2="-161"/>
			</g>
			<g>
				<line class="st1" x1="1" y1="-151" x2="1" y2="-151"/>
			</g>
			<g>
				<line class="st1" x1="1" y1="-141" x2="1" y2="-141"/>
			</g>
			<g>
				<line class="st1" x1="1" y1="-131" x2="1" y2="-131"/>
			</g>
			<g>
				<line class="st1" x1="1" y1="-121" x2="1" y2="-121"/>
			</g>
			<g>
				<line class="st1" x1="1" y1="-111" x2="1" y2="-111"/>
			</g>
			<g>
				<line class="st1" x1="1" y1="-101" x2="1" y2="-101"/>
			</g>
			<g>
				<line class="st1" x1="1" y1="-91" x2="1" y2="-91"/>
			</g>
			<g>
				<line class="st1" x1="1" y1="-81" x2="1" y2="-81"/>
			</g>
			<g>
				<line class="st1" x1="1" y1="-71" x2="1" y2="-71"/>
			</g>
			<g>
				<line class="st1" x1="1" y1="-61" x2="1" y2="-61"/>
			</g>
			<g>
				<line class="st1" x1="1" y1="-51" x2="1" y2="-51"/>
			</g>
			<g>
				<line class="st1" x1="1" y1="-41" x2="1" y2="-41"/>
			</g>
			<g>
				<line class="st1" x1="1" y1="-31" x2="1" y2="-31"/>
			</g>
			<g>
				<line class="st1" x1="1" y1="-21" x2="1" y2="-21"/>
			</g>
			<g>
				<line class="st1" x1="1" y1="-11" x2="1" y2="-11"/>
			</g>
			<g>
				<line class="st1" x1="1" y1="-1" x2="1" y2="-1"/>
			</g>
		</g>
		<g>
			<g>
				<line class="st1" x1="241" y1="-241" x2="241" y2="-241"/>
			</g>
		</g>
		<g>
			<g>
				<line class="st1" x1="1" y1="-241" x2="1" y2="-241"/>
				<line class="st2" x1="11" y1="-241" x2="236" y2="-241"/>
				<line class="st1" x1="241" y1="-241" x2="241" y2="-241"/>
			</g>
		</g>
		<g>
			<g>
				<line class="st1" x1="1" y1="-241" x2="1" y2="-241"/>
			</g>
		</g>
	</g>
</pattern>
<rect x="-26.1" y="-18.3" class="st3" width="1552.1" height="1089.6"/>
<rect x="1647.9" y="-18.3" class="st4" width="1552.1" height="1089.6"/>
<rect x="-26.1" y="1150.2" class="st3" width="1552.1" height="1089.6"/>
<g>
	<g>
		<g>
			<path d="M209,254.8l-5.2,7.7v5.7h-1.4v-5.6l-5.2-7.7h1.7l4.2,6.4l4.3-6.4H209z"/>
			<path d="M210.5,264c0.1,1.8,1.5,3.1,3.3,3.1c1.3,0,2.4-0.7,2.8-1.9l1.2,0.4c-0.5,1.8-2.2,2.7-4,2.7c-2.6,0-4.6-2.1-4.6-4.7
				c0-2.5,1.9-4.7,4.4-4.7c2.8,0,4.3,2,4.3,4.7c0,0.2,0,0.3,0,0.4H210.5z M216.5,262.9c-0.2-1.7-1.2-2.8-3-2.8
				c-1.6,0-2.9,1.3-3.1,2.8H216.5z"/>
			<path d="M223.8,268.3c-2.5,0-3.3-1.7-3.5-2.7l1.2-0.3c0.2,0.8,0.8,1.8,2.2,1.8c1,0,1.9-0.5,1.9-1.5c0-1.1-1.2-1.4-2.1-1.5
				c-1.5-0.2-3-0.8-3-2.5c0-1.7,1.6-2.7,3.1-2.7c2.4,0,3.2,1.6,3.3,2.5l-1.2,0.3c-0.2-0.6-0.6-1.6-2.1-1.6c-1,0-1.7,0.7-1.7,1.5
				c0,1.1,1.2,1.3,2.2,1.4c1.5,0.2,3,1,3,2.6C227,267.2,225.5,268.3,223.8,268.3z"/>
			<path d="M229.9,270.2c0.8-0.6,1.4-1.3,1.5-2c-0.1,0.1-0.3,0.1-0.4,0.1c-0.6,0-1.1-0.4-1.1-1.1c0-0.7,0.5-1.2,1.2-1.2
				c0.8,0,1.3,0.6,1.3,1.7v0.1c0,1.2-0.6,2.3-1.8,3.2L229.9,270.2z"/>
			<path d="M239.8,263.6c0-2.7,2-4.7,4.7-4.7c2.6,0,4.7,2.1,4.7,4.7c0,2.7-2.1,4.7-4.7,4.7C241.8,268.3,239.8,266.2,239.8,263.6z
				 M247.8,263.6c0-1.9-1.4-3.6-3.4-3.6c-2,0-3.3,1.6-3.3,3.5c0,1.9,1.4,3.6,3.4,3.6C246.5,267.1,247.8,265.5,247.8,263.6z"/>
			<path d="M259,262.8c0-1.6-0.8-2.8-2.5-2.8c-1.6,0-2.7,1.3-2.7,2.9v5.2h-1.3V259h1.3v1.7c0.7-1.2,1.8-1.8,3.1-1.8
				c2.2,0,3.4,1.5,3.4,3.7v5.6H259V262.8z"/>
			<path d="M268,267.1c2,0,2.8-1.5,3-2.2l1.2,0.4c-0.4,1.4-1.9,3-4.3,3c-2.6,0-4.6-1.9-4.6-4.7c0-2.8,2.1-4.7,4.7-4.7
				c2.1,0,3.8,1.4,4.2,2.9l-1.2,0.4c-0.2-0.7-1.1-2.1-3-2.1c-1.9,0-3.3,1.6-3.3,3.5C264.7,265.4,266,267.1,268,267.1z"/>
			<path d="M276.1,264c0.1,1.8,1.5,3.1,3.3,3.1c1.3,0,2.4-0.7,2.8-1.9l1.2,0.4c-0.5,1.8-2.2,2.7-4,2.7c-2.6,0-4.6-2.1-4.6-4.7
				c0-2.5,1.9-4.7,4.4-4.7c2.8,0,4.3,2,4.3,4.7c0,0.2,0,0.3,0,0.4H276.1z M282.1,262.9c-0.2-1.7-1.2-2.8-3-2.8
				c-1.6,0-2.9,1.3-3.1,2.8H282.1z"/>
		</g>
	</g>
	<g>
		<circle class="st5" cx="166.6" cy="263.6" r="16.3"/>
	</g>
	<g>
		<g>
			<path d="M212.6,315.3h-1.4v-11.5h0l-5,11.5H205l-4.9-11.4v11.4h-1.4v-13.4h2l5,11.5l5-11.5h2V315.3z"/>
			<path d="M218,311.5c0,1.6,0.8,2.8,2.5,2.8c1.6,0,2.7-1.2,2.7-2.9v-5.2h1.3v9.1h-1.3v-1.7c-0.7,1.2-1.8,1.8-3.1,1.8
				c-2.2,0-3.4-1.5-3.4-3.7v-5.6h1.3V311.5z"/>
			<path d="M229.8,301.4v13.9h-1.3v-13.9H229.8z"/>
			<path d="M234.3,312.9v-5.6h-1.7v-1.2h1.7v-2.6h1.3v2.6h2.3v1.2h-2.3v5.6c0,0.8,0.5,1.3,1.5,1.3c0.3,0,0.6,0,0.8-0.1v1.1
				c-0.3,0.1-0.8,0.1-1,0.1C234.9,315.4,234.3,314.3,234.3,312.9z"/>
			<path d="M241.7,301.9c0.6,0,1,0.4,1,1c0,0.5-0.4,1-1,1c-0.5,0-1-0.4-1-1C240.7,302.4,241.1,301.9,241.7,301.9z M242.3,306.2v9.1
				H241v-9.1H242.3z"/>
			<path d="M251.1,315.4c-1.7,0-2.8-0.9-3.5-2v6.4h-1.3v-13.6h1.3v2c0.7-1.1,1.8-2.1,3.5-2.1c2.6,0,4.3,2.3,4.3,4.7
				C255.3,313.2,253.6,315.4,251.1,315.4z M254,310.8c0-1.9-1.2-3.6-3.2-3.6c-1.9,0-3.3,1.7-3.3,3.5c0,1.9,1.3,3.6,3.3,3.6
				C252.8,314.3,254,312.7,254,310.8z"/>
			<path d="M259.9,301.4v13.9h-1.3v-13.9H259.9z"/>
			<path d="M264.4,311.2c0.1,1.8,1.5,3.1,3.3,3.1c1.3,0,2.4-0.7,2.8-1.9l1.2,0.4c-0.5,1.8-2.2,2.7-4,2.7c-2.6,0-4.6-2.1-4.6-4.7
				c0-2.5,1.9-4.7,4.4-4.7c2.8,0,4.3,2,4.3,4.7c0,0.2,0,0.3,0,0.4H264.4z M270.5,310c-0.2-1.7-1.2-2.8-3-2.8c-1.6,0-2.9,1.3-3.1,2.8
				H270.5z"/>
			<path d="M281.2,312.9v-5.6h-1.7v-1.2h1.7v-2.6h1.3v2.6h2.3v1.2h-2.3v5.6c0,0.8,0.5,1.3,1.5,1.3c0.3,0,0.6,0,0.8-0.1v1.1
				c-0.3,0.1-0.8,0.1-1,0.1C281.8,315.4,281.2,314.3,281.2,312.9z"/>
			<path d="M288.6,301.9c0.6,0,1,0.4,1,1c0,0.5-0.4,1-1,1c-0.5,0-1-0.4-1-1C287.6,302.4,288,301.9,288.6,301.9z M289.3,306.2v9.1
				h-1.3v-9.1H289.3z"/>
			<path d="M299.3,310c0-1.5-0.7-2.7-2.4-2.7c-1.6,0-2.5,1.4-2.5,2.9v5.2h-1.3v-9.1h1.3v1.6c0.7-1.1,1.6-1.8,2.9-1.8
				c1.3,0,2.4,0.6,2.9,1.8c0.8-1.2,1.8-1.8,3.2-1.8c2.2,0,3.4,1.5,3.4,3.6v5.6h-1.3V310c0-1.5-0.7-2.7-2.4-2.7
				c-1.6,0-2.5,1.3-2.5,2.8v5.2h-1.3V310z"/>
			<path d="M311.3,311.2c0.1,1.8,1.5,3.1,3.3,3.1c1.3,0,2.4-0.7,2.8-1.9l1.2,0.4c-0.5,1.8-2.2,2.7-4,2.7c-2.6,0-4.6-2.1-4.6-4.7
				c0-2.5,1.9-4.7,4.4-4.7c2.8,0,4.3,2,4.3,4.7c0,0.2,0,0.3,0,0.4H311.3z M317.3,310c-0.2-1.7-1.2-2.8-3-2.8c-1.6,0-2.9,1.3-3.1,2.8
				H317.3z"/>
			<path d="M324.6,315.5c-2.5,0-3.3-1.7-3.5-2.7l1.2-0.3c0.2,0.8,0.8,1.8,2.2,1.8c1,0,1.9-0.5,1.9-1.5c0-1.1-1.2-1.4-2.1-1.5
				c-1.5-0.2-3-0.8-3-2.5c0-1.7,1.6-2.7,3.1-2.7c2.4,0,3.2,1.6,3.3,2.5l-1.2,0.3c-0.2-0.6-0.6-1.6-2.1-1.6c-1,0-1.7,0.7-1.7,1.5
				c0,1.1,1.2,1.3,2.2,1.4c1.5,0.2,3,1,3,2.6C327.8,314.4,326.4,315.5,324.6,315.5z"/>
		</g>
	</g>
	<g>
		<pattern  id="SVGID_1_" xlink:href="#Unnamed_Pattern_4" patternTransform="matrix(0 1.2193 -1.1705 0 -22537.9336 812.8091)">
		</pattern>
		<circle class="st6" cx="166.6" cy="310.8" r="16.3"/>
	</g>
	<g>
		<g>
			<path d="M209.5,349.1v13.4H208l-8-11.4v11.4h-1.4v-13.4h1.6l7.9,11.2v-11.2H209.5z"/>
			<path d="M213.1,357.9c0-2.7,2-4.7,4.7-4.7c2.6,0,4.7,2.1,4.7,4.7c0,2.7-2.1,4.7-4.7,4.7C215.1,362.6,213.1,360.5,213.1,357.9z
				 M221.1,357.9c0-1.9-1.4-3.6-3.4-3.6c-2,0-3.3,1.6-3.3,3.5c0,1.9,1.4,3.6,3.4,3.6C219.8,361.4,221.1,359.8,221.1,357.9z"/>
		</g>
	</g>
	<g class="st7">
		<circle class="st8" cx="166.6" cy="357.9" r="16.3"/>
	</g>
	<g>
		<g>
			<path d="M154.4,67.4l-3.2,1.9l-0.6-1.1l3.9-2.3h1.4v13.4h-1.4V67.4z"/>
			<path d="M161.7,67.4l-3.2,1.9l-0.6-1.1l3.9-2.3h1.4v13.4h-1.4V67.4z"/>
			<path d="M175.3,78.5V89h-2.4V66.1h2.4v10.1h13.1V66.1h2.4V89h-2.4V78.5H175.3z"/>
			<path d="M206,78.9c0-2.5-1.4-3.8-4-3.8c-2.6,0-3.8,1.7-4.1,3.2l-2.2-0.5c0.1-1.3,1.9-4.7,6.4-4.7c3.3,0,4.9,1.5,5.7,3.2
				c0.4,0.8,0.5,2.1,0.5,2.6V89H206v-2.8h0c-1.2,1.9-2.9,3-5.3,3c-3.2,0-5.2-2-5.2-4.6v-0.2c0-3.4,3.4-4.5,6.2-4.5h4.3V78.9z
				 M201.6,81.9c-1.7,0-3.9,0.5-3.9,2.6c0,1.8,1.5,2.8,3.4,2.8c2.8,0,4.9-2,4.9-4.8v-0.6H201.6z"/>
			<path d="M210.9,73.4h2.5l5.4,13.1l5.4-13.1h2.4L219.9,89h-2.4L210.9,73.4z"/>
			<path d="M230.5,81.9c0.2,3,2.5,5.4,5.6,5.4c2.3,0,4.1-1.1,4.8-3.3l2,0.6c-0.9,3-3.7,4.7-6.8,4.7c-4.5,0-7.9-3.6-7.9-8.1
				c0-4.2,3.2-8,7.6-8c4.8,0,7.4,3.5,7.4,8c0,0.3,0,0.5,0,0.8H230.5z M240.8,79.9c-0.3-2.8-2.1-4.9-5.1-4.9c-2.7,0-4.9,2.3-5.3,4.9
				H240.8z"/>
			<path d="M259.7,87.9l-7.1-14.6h2.6l5.7,12.1l5.4-12.1h2.5l-10.7,23.3h-2.5L259.7,87.9z"/>
			<path d="M270.2,81.2c0-4.6,3.5-8.1,8.1-8.1c4.5,0,8,3.5,8,8c0,4.6-3.5,8.1-8.1,8.1C273.8,89.3,270.2,85.7,270.2,81.2z
				 M284.1,81.2c0-3.3-2.4-6.1-5.8-6.1s-5.7,2.8-5.7,6c0,3.3,2.3,6.1,5.8,6.1C281.7,87.2,284.1,84.5,284.1,81.2z"/>
			<path d="M292.5,82.5c0,2.8,1.4,4.7,4.3,4.7c2.7,0,4.7-2.1,4.7-4.9v-8.9h2.3V89h-2.2v-2.9c-1.2,2.1-3.1,3.2-5.4,3.2
				c-3.8,0-5.9-2.6-5.9-6.3v-9.7h2.3V82.5z"/>
			<path d="M325.4,89.2c-3,0-4.8-1.5-6.1-3.5V89h-2.3V65.2h2.3v11.6c1.3-2,3.1-3.6,6-3.6c4.4,0,7.3,4,7.3,8
				C332.7,85.4,329.8,89.2,325.4,89.2z M330.4,81.2c0-3.2-2-6.1-5.5-6.1c-3.2,0-5.6,2.9-5.6,6c0,3.2,2.3,6.1,5.6,6.1
				C328.4,87.2,330.4,84.5,330.4,81.2z"/>
			<path d="M337.9,81.9c0.2,3,2.5,5.4,5.6,5.4c2.3,0,4.1-1.1,4.8-3.3l2,0.6c-0.9,3-3.7,4.7-6.8,4.7c-4.5,0-7.9-3.6-7.9-8.1
				c0-4.2,3.2-8,7.6-8c4.8,0,7.4,3.5,7.4,8c0,0.3,0,0.5,0,0.8H337.9z M348.3,79.9c-0.3-2.8-2.1-4.9-5.1-4.9c-2.7,0-4.9,2.3-5.3,4.9
				H348.3z"/>
			<path d="M355.7,81.9c0.2,3,2.5,5.4,5.6,5.4c2.3,0,4.1-1.1,4.8-3.3l2,0.6c-0.9,3-3.7,4.7-6.8,4.7c-4.5,0-7.9-3.6-7.9-8.1
				c0-4.2,3.2-8,7.6-8c4.8,0,7.4,3.5,7.4,8c0,0.3,0,0.5,0,0.8H355.7z M366,79.9c-0.3-2.8-2.1-4.9-5.1-4.9c-2.7,0-4.9,2.3-5.3,4.9
				H366z"/>
			<path d="M383.5,79.9c0-2.8-1.4-4.7-4.3-4.7c-2.7,0-4.7,2.2-4.7,4.9V89h-2.3V73.4h2.3v2.9c1.2-2.1,3.1-3.2,5.4-3.2
				c3.8,0,5.9,2.6,5.9,6.3V89h-2.3V79.9z"/>
			<path d="M400.1,66c1,0,1.7,0.8,1.7,1.7c0,0.9-0.8,1.7-1.7,1.7c-0.9,0-1.7-0.8-1.7-1.7C398.4,66.8,399.1,66,400.1,66z M401.2,73.4
				V89h-2.3V73.4H401.2z"/>
			<path d="M417.1,79.8c0-2.6-1.2-4.7-4-4.7c-2.7,0-4.3,2.4-4.3,4.9V89h-2.3V73.4h2.3v2.7c1.3-1.9,2.7-3,5-3c2.3,0,4.1,1.1,5,3.1
				c1.3-2,3-3.1,5.5-3.1c3.8,0,5.8,2.6,5.8,6.2V89h-2.3v-9.1c0-2.6-1.2-4.7-4-4.7c-2.8,0-4.3,2.2-4.3,4.8v9h-2.3V79.8z"/>
			<path d="M443.2,89.2c-2.9,0-4.8-1.5-6-3.5v10.9h-2.3V73.4h2.3v3.4c1.3-2,3.1-3.7,6.1-3.7c4.4,0,7.3,4,7.3,8
				C450.6,85.4,447.7,89.2,443.2,89.2z M448.2,81.2c0-3.2-2-6.1-5.5-6.1c-3.2,0-5.6,2.9-5.6,6c0,3.2,2.3,6.1,5.6,6.1
				C446.2,87.2,448.2,84.5,448.2,81.2z"/>
			<path d="M464,78.9c0-2.5-1.4-3.8-4-3.8c-2.6,0-3.8,1.7-4.1,3.2l-2.2-0.5c0.1-1.3,1.9-4.7,6.4-4.7c3.3,0,4.9,1.5,5.7,3.2
				c0.4,0.8,0.5,2.1,0.5,2.6V89h-2.2v-2.8h0c-1.2,1.9-2.9,3-5.3,3c-3.2,0-5.2-2-5.2-4.6v-0.2c0-3.4,3.4-4.5,6.2-4.5h4.3V78.9z
				 M459.7,81.9c-1.7,0-3.9,0.5-3.9,2.6c0,1.8,1.5,2.8,3.4,2.8c2.8,0,4.9-2,4.9-4.8v-0.6H459.7z"/>
			<path d="M478.1,87.2c3.5,0,4.8-2.6,5.2-3.7l2.1,0.7c-0.7,2.3-3.3,5.1-7.4,5.1c-4.5,0-8-3.3-8-8c0-4.7,3.7-8.1,8.1-8.1
				c3.6,0,6.5,2.3,7.2,5l-2.1,0.7c-0.4-1.2-1.9-3.6-5.2-3.6c-3.3,0-5.6,2.7-5.6,6C472.4,84.3,474.5,87.2,478.1,87.2z"/>
			<path d="M490.1,85v-9.6h-2.9v-2h2.9v-4.5h2.3v4.5h4v2h-4v9.5c0,1.4,0.8,2.2,2.5,2.2c0.5,0,1.1,0,1.4-0.1v1.9
				c-0.5,0.1-1.4,0.2-1.8,0.2C491.1,89.1,490.1,87.2,490.1,85z"/>
			<path d="M501,81.9c0.2,3,2.5,5.4,5.6,5.4c2.3,0,4.1-1.1,4.8-3.3l2,0.6c-0.9,3-3.7,4.7-6.8,4.7c-4.5,0-7.9-3.6-7.9-8.1
				c0-4.2,3.2-8,7.6-8c4.8,0,7.4,3.5,7.4,8c0,0.3,0,0.5,0,0.8H501z M511.4,79.9c-0.3-2.8-2.1-4.9-5.1-4.9c-2.7,0-4.9,2.3-5.3,4.9
				H511.4z"/>
			<path d="M523.8,73.1c3,0,4.8,1.7,6.1,3.5V65.2h2.3V89h-2.2v-3.3c-1.2,2-3.1,3.6-6.1,3.6c-4.5,0-7.3-3.8-7.3-8.1
				C516.5,77.1,519.4,73.1,523.8,73.1z M529.9,81.1c0-3.1-2.4-6-5.6-6c-3.4,0-5.5,2.7-5.5,6.1c0,3.2,2,6,5.5,6
				C527.6,87.2,529.9,84.3,529.9,81.1z"/>
			<path d="M553.8,89.2c-3,0-4.8-1.5-6.1-3.5V89h-2.3V65.2h2.3v11.6c1.3-2,3.1-3.6,6-3.6c4.4,0,7.3,4,7.3,8
				C561.1,85.4,558.2,89.2,553.8,89.2z M558.8,81.2c0-3.2-2-6.1-5.5-6.1c-3.2,0-5.6,2.9-5.6,6c0,3.2,2.3,6.1,5.6,6.1
				C556.8,87.2,558.8,84.5,558.8,81.2z"/>
			<path d="M569.7,87.9l-7.1-14.6h2.6l5.7,12.1l5.4-12.1h2.5l-10.7,23.3h-2.5L569.7,87.9z"/>
			<path d="M598.9,78.9c0-2.5-1.4-3.8-4-3.8c-2.6,0-3.8,1.7-4.1,3.2l-2.2-0.5c0.1-1.3,1.9-4.7,6.4-4.7c3.3,0,4.9,1.5,5.7,3.2
				c0.4,0.8,0.5,2.1,0.5,2.6V89H599v-2.8h0c-1.2,1.9-2.9,3-5.3,3c-3.2,0-5.2-2-5.2-4.6v-0.2c0-3.4,3.4-4.5,6.2-4.5h4.3V78.9z
				 M594.6,81.9c-1.7,0-3.9,0.5-3.9,2.6c0,1.8,1.5,2.8,3.4,2.8c2.8,0,4.9-2,4.9-4.8v-0.6H594.6z"/>
			<path d="M617.4,79.9c0-2.8-1.4-4.7-4.3-4.7c-2.7,0-4.7,2.2-4.7,4.9V89h-2.3V73.4h2.3v2.9c1.2-2.1,3.1-3.2,5.4-3.2
				c3.8,0,5.9,2.6,5.9,6.3V89h-2.3V79.9z"/>
			<path d="M629.3,87.9l-7.1-14.6h2.6l5.7,12.1l5.4-12.1h2.5l-10.7,23.3h-2.5L629.3,87.9z"/>
			<path d="M184.2,122.4c3.5,0,4.8-2.6,5.2-3.7l2.1,0.7c-0.7,2.3-3.3,5.1-7.4,5.1c-4.5,0-8-3.3-8-8c0-4.7,3.7-8.1,8.1-8.1
				c3.6,0,6.5,2.3,7.2,5l-2.1,0.7c-0.4-1.2-1.9-3.6-5.2-3.6c-3.3,0-5.6,2.7-5.6,6S180.6,122.4,184.2,122.4z"/>
			<path d="M199.9,123.1l-7.1-14.6h2.6l5.7,12.1l5.4-12.1h2.5l-10.7,23.3h-2.5L199.9,123.1z"/>
			<path d="M220.5,124.3c-3,0-4.8-1.5-6.1-3.5v3.3h-2.3v-23.8h2.3v11.6c1.3-2,3.1-3.6,6-3.6c4.4,0,7.3,4,7.3,8
				C227.8,120.5,224.9,124.3,220.5,124.3z M225.5,116.3c0-3.2-2-6.1-5.5-6.1c-3.2,0-5.6,2.9-5.6,6c0,3.2,2.3,6.1,5.6,6.1
				C223.4,122.3,225.5,119.6,225.5,116.3z"/>
			<path d="M233,117c0.2,3,2.5,5.4,5.6,5.4c2.3,0,4.1-1.1,4.8-3.3l2,0.6c-0.9,3-3.7,4.7-6.8,4.7c-4.5,0-7.9-3.6-7.9-8.1
				c0-4.2,3.2-8,7.6-8c4.8,0,7.4,3.5,7.4,8c0,0.3,0,0.5,0,0.8H233z M243.4,115.1c-0.3-2.8-2.1-4.9-5.1-4.9c-2.7,0-4.9,2.3-5.3,4.9
				H243.4z"/>
			<path d="M251.9,111.6c1.2-2.4,3.2-3.3,5-3.3c0.1,0,0.6,0,0.8,0v2.4c-0.3,0-0.6-0.1-0.9-0.1c-3.7,0-4.9,3-4.9,5.8v7.6h-2.3v-15.6
				h2.3V111.6z"/>
			<path d="M269.1,120.1v-9.6h-2.9v-2h2.9V104h2.3v4.5h4v2h-4v9.5c0,1.4,0.8,2.2,2.5,2.2c0.5,0,1.1,0,1.4-0.1v1.9
				c-0.5,0.1-1.4,0.2-1.8,0.2C270.1,124.2,269.1,122.4,269.1,120.1z"/>
			<path d="M290.4,115c0-2.8-1.4-4.7-4.3-4.7c-2.7,0-4.7,2.2-4.7,4.9v8.9h-2.3v-23.8h2.3v11c1.2-2,3-3.1,5.4-3.1
				c3.8,0,5.9,2.6,5.9,6.3v9.7h-2.3V115z"/>
			<path d="M299.9,111.6c1.2-2.4,3.2-3.3,5-3.3c0.1,0,0.6,0,0.8,0v2.4c-0.3,0-0.6-0.1-0.9-0.1c-3.7,0-4.9,3-4.9,5.8v7.6h-2.3v-15.6
				h2.3V111.6z"/>
			<path d="M309.4,117c0.2,3,2.5,5.4,5.6,5.4c2.3,0,4.1-1.1,4.8-3.3l2,0.6c-0.9,3-3.7,4.7-6.8,4.7c-4.5,0-7.9-3.6-7.9-8.1
				c0-4.2,3.2-8,7.6-8c4.8,0,7.4,3.5,7.4,8c0,0.3,0,0.5,0,0.8H309.4z M319.7,115.1c-0.3-2.8-2.1-4.9-5.1-4.9c-2.7,0-4.9,2.3-5.3,4.9
				H319.7z"/>
			<path d="M335.4,114c0-2.5-1.4-3.8-4-3.8c-2.6,0-3.8,1.7-4.1,3.2l-2.2-0.5c0.1-1.3,1.9-4.7,6.4-4.7c3.3,0,4.9,1.5,5.7,3.2
				c0.4,0.8,0.5,2.1,0.5,2.6v10.1h-2.2v-2.8h0c-1.2,1.9-2.9,3-5.3,3c-3.2,0-5.2-2-5.2-4.6v-0.2c0-3.4,3.4-4.5,6.2-4.5h4.3V114z
				 M331,117c-1.7,0-3.9,0.5-3.9,2.6c0,1.8,1.5,2.8,3.4,2.8c2.8,0,4.9-2,4.9-4.8V117H331z"/>
			<path d="M343.5,120.1v-9.6h-2.9v-2h2.9V104h2.3v4.5h4v2h-4v9.5c0,1.4,0.8,2.2,2.5,2.2c0.5,0,1.1,0,1.4-0.1v1.9
				c-0.5,0.1-1.4,0.2-1.8,0.2C344.5,124.2,343.5,122.4,343.5,120.1z"/>
			<path d="M358.3,124.4c-4.2,0-5.6-2.9-5.9-4.6l2.1-0.5c0.3,1.4,1.4,3.1,3.8,3.1c1.7,0,3.2-0.9,3.2-2.5c0-1.9-2-2.3-3.7-2.6
				c-2.6-0.4-5.2-1.3-5.2-4.4c0-2.9,2.7-4.7,5.2-4.7c4.1,0,5.4,2.8,5.7,4.2l-2.1,0.5c-0.3-1.1-1.1-2.8-3.6-2.8c-1.7,0-3,1.1-3,2.5
				c0,2,2.1,2.3,3.7,2.5c2.5,0.3,5.1,1.7,5.1,4.5C363.8,122.5,361.3,124.4,358.3,124.4z"/>
			<path d="M377.2,101.2c1,0,1.7,0.8,1.7,1.7c0,0.9-0.8,1.7-1.7,1.7c-0.9,0-1.7-0.8-1.7-1.7C375.5,101.9,376.3,101.2,377.2,101.2z
				 M378.4,108.5v15.6h-2.3v-15.6H378.4z"/>
			<path d="M394.8,115c0-2.8-1.4-4.7-4.3-4.7c-2.7,0-4.7,2.2-4.7,4.9v8.9h-2.3v-15.6h2.3v2.9c1.2-2.1,3.1-3.2,5.4-3.2
				c3.8,0,5.9,2.6,5.9,6.3v9.7h-2.3V115z"/>
			<path d="M411.2,120.1v-9.6h-2.9v-2h2.9V104h2.3v4.5h4v2h-4v9.5c0,1.4,0.8,2.2,2.5,2.2c0.5,0,1.1,0,1.4-0.1v1.9
				c-0.5,0.1-1.4,0.2-1.8,0.2C412.3,124.2,411.2,122.4,411.2,120.1z"/>
			<path d="M432.6,115c0-2.8-1.4-4.7-4.3-4.7c-2.7,0-4.7,2.2-4.7,4.9v8.9h-2.3v-23.8h2.3v11c1.2-2,3-3.1,5.4-3.1
				c3.8,0,5.9,2.6,5.9,6.3v9.7h-2.3V115z"/>
			<path d="M441,117c0.2,3,2.5,5.4,5.6,5.4c2.3,0,4.1-1.1,4.8-3.3l2,0.6c-0.9,3-3.7,4.7-6.8,4.7c-4.5,0-7.9-3.6-7.9-8.1
				c0-4.2,3.2-8,7.6-8c4.8,0,7.4,3.5,7.4,8c0,0.3,0,0.5,0,0.8H441z M451.3,115.1c-0.3-2.8-2.1-4.9-5.1-4.9c-2.7,0-4.9,2.3-5.3,4.9
				H451.3z"/>
			<path d="M468,100.3v23.9h-2.3v-23.9H468z"/>
			<path d="M482.6,114c0-2.5-1.4-3.8-4-3.8c-2.6,0-3.8,1.7-4.1,3.2l-2.2-0.5c0.1-1.3,1.9-4.7,6.4-4.7c3.3,0,4.9,1.5,5.7,3.2
				c0.4,0.8,0.5,2.1,0.5,2.6v10.1h-2.2v-2.8h0c-1.2,1.9-2.9,3-5.3,3c-3.2,0-5.2-2-5.2-4.6v-0.2c0-3.4,3.4-4.5,6.2-4.5h4.3V114z
				 M478.2,117c-1.7,0-3.9,0.5-3.9,2.6c0,1.8,1.5,2.8,3.4,2.8c2.8,0,4.9-2,4.9-4.8V117H478.2z"/>
			<path d="M494.6,124.4c-4.2,0-5.6-2.9-5.9-4.6l2.1-0.5c0.3,1.4,1.4,3.1,3.8,3.1c1.7,0,3.2-0.9,3.2-2.5c0-1.9-2-2.3-3.7-2.6
				c-2.6-0.4-5.2-1.3-5.2-4.4c0-2.9,2.7-4.7,5.2-4.7c4.1,0,5.4,2.8,5.7,4.2l-2.1,0.5c-0.3-1.1-1.1-2.8-3.6-2.8c-1.7,0-3,1.1-3,2.5
				c0,2,2.1,2.3,3.7,2.5c2.5,0.3,5.1,1.7,5.1,4.5C500.1,122.5,497.6,124.4,494.6,124.4z"/>
			<path d="M505,120.1v-9.6h-2.9v-2h2.9V104h2.3v4.5h4v2h-4v9.5c0,1.4,0.8,2.2,2.5,2.2c0.5,0,1.1,0,1.4-0.1v1.9
				c-0.5,0.1-1.4,0.2-1.8,0.2C506,124.2,505,122.4,505,120.1z"/>
			<path d="M527.6,103.7l-5.5,3.3l-1.1-1.8l6.6-4h2.3v22.9h-2.4V103.7z"/>
			<path d="M534.8,123.4c0-2.7,1.2-5.6,5.3-8l3.5-2.2c2.2-1.3,4-2.8,4-5.4c0-2.3-2.1-4.6-5-4.6c-2.5,0-4.1,1.5-4.7,2.9
				c-0.4,1-0.4,1.9-0.5,2.3L535,108c0-3.2,2.8-7.1,7.6-7.1c4.2,0,7.5,3.2,7.5,6.8c0,3.2-1.8,5.2-4.8,7.1l-3.6,2.3
				c-2,1.2-3.8,2.8-4,4.9h12.6v2.2h-15.5V123.4z"/>
			<path d="M573.3,114.9c0-2.6-1.2-4.7-4-4.7c-2.7,0-4.3,2.4-4.3,4.9v8.9h-2.3v-15.6h2.3v2.7c1.3-1.9,2.7-3,5-3c2.3,0,4.1,1.1,5,3.1
				c1.3-2,3-3.1,5.5-3.1c3.8,0,5.8,2.6,5.8,6.2v9.7H584V115c0-2.6-1.2-4.7-4-4.7c-2.8,0-4.3,2.2-4.3,4.8v9h-2.3V114.9z"/>
			<path d="M590.1,116.4c0-4.6,3.5-8.1,8.1-8.1c4.5,0,8,3.5,8,8c0,4.6-3.5,8.1-8.1,8.1C593.6,124.4,590.1,120.8,590.1,116.4z
				 M603.9,116.4c0-3.3-2.4-6.1-5.8-6.1c-3.4,0-5.7,2.8-5.7,6c0,3.3,2.3,6.1,5.8,6.1C601.5,122.4,603.9,119.6,603.9,116.4z"/>
			<path d="M621.5,115c0-2.8-1.4-4.7-4.3-4.7c-2.7,0-4.7,2.2-4.7,4.9v8.9h-2.3v-15.6h2.3v2.9c1.2-2.1,3.1-3.2,5.4-3.2
				c3.8,0,5.9,2.6,5.9,6.3v9.7h-2.3V115z"/>
			<path d="M629.6,120.1v-9.6h-2.9v-2h2.9V104h2.3v4.5h4v2h-4v9.5c0,1.4,0.8,2.2,2.5,2.2c0.5,0,1.1,0,1.4-0.1v1.9
				c-0.5,0.1-1.4,0.2-1.8,0.2C630.7,124.2,629.6,122.4,629.6,120.1z"/>
			<path d="M651,115c0-2.8-1.4-4.7-4.3-4.7c-2.7,0-4.7,2.2-4.7,4.9v8.9h-2.3v-23.8h2.3v11c1.2-2,3-3.1,5.4-3.1
				c3.8,0,5.9,2.6,5.9,6.3v9.7H651V115z"/>
			<path d="M663,124.4c-4.2,0-5.6-2.9-5.9-4.6l2.1-0.5c0.3,1.4,1.4,3.1,3.8,3.1c1.7,0,3.2-0.9,3.2-2.5c0-1.9-2-2.3-3.7-2.6
				c-2.6-0.4-5.1-1.3-5.1-4.4c0-2.9,2.7-4.7,5.2-4.7c4.1,0,5.4,2.8,5.7,4.2l-2.1,0.5c-0.3-1.1-1.1-2.8-3.6-2.8c-1.7,0-3,1.1-3,2.5
				c0,2,2.1,2.3,3.7,2.5c2.5,0.3,5.1,1.7,5.1,4.5C668.5,122.5,666,124.4,663,124.4z"/>
			<path d="M676.4,117.5c0-0.2,0-0.4,0-0.5c0-2.7,1.7-4,2.9-5.4c1.3-1.4,2.9-2.6,2.9-4.7c0-1.9-1.3-3.7-4.3-3.7c-3,0-4.6,2.2-4.4,5
				l-2.3-0.1c0-0.2,0-0.4,0-0.7c0-3.8,3.1-6.4,6.8-6.4c4.1,0,6.7,2.8,6.7,6c0,2.3-1.4,3.7-3.4,5.8c-1.5,1.5-2.5,2.4-2.6,4.7H676.4z
				 M677.4,124.4c1,0,1.7-0.8,1.7-1.7c0-0.9-0.7-1.7-1.7-1.7c-0.9,0-1.7,0.8-1.7,1.7C675.7,123.6,676.5,124.4,677.4,124.4z"/>
		</g>
	</g>
	<g>
		<path d="M733.3,264.6c0-1.8,0.8-3.7,3.5-5.4l2.3-1.4c1.5-0.9,2.7-1.8,2.7-3.6c0-1.6-1.4-3-3.4-3c-1.7,0-2.7,1-3.1,2
			c-0.3,0.6-0.3,1.3-0.3,1.5l-1.6-0.2c0-2.2,1.8-4.7,5.1-4.7c2.8,0,5,2.1,5,4.5c0,2.2-1.2,3.5-3.2,4.7l-2.4,1.5
			c-1.3,0.8-2.5,1.9-2.6,3.3h8.4v1.5h-10.3V264.6z"/>
		<path d="M745.9,257.5c0-3.8,2.2-7.8,6.4-7.8c4.2,0,6.3,4,6.3,7.8c0,3.8-2.1,7.8-6.4,7.8C748,265.2,745.9,261.2,745.9,257.5z
			 M747.6,257.4c0,2.8,1.4,6.4,4.7,6.4c3.3,0,4.7-3.6,4.7-6.3s-1.4-6.4-4.7-6.4C748.9,251.1,747.6,254.6,747.6,257.4z"/>
		<path d="M762.2,259.3c-1.1,0-2-0.9-2-2c0-1.1,0.9-2,2-2c1.1,0,2,0.9,2,2C764.2,258.4,763.3,259.3,762.2,259.3z M762.2,256
			c-0.7,0-1.3,0.6-1.3,1.3c0,0.7,0.6,1.3,1.3,1.3c0.7,0,1.3-0.6,1.3-1.3C763.5,256.5,762.9,256,762.2,256z M767.1,255.3h0.9
			l-5.8,8.9h-0.9L767.1,255.3z M767.1,264.3c-1.1,0-2-0.9-2-2c0-1.1,0.9-2,2-2c1.1,0,2,0.9,2,2C769.1,263.4,768.2,264.3,767.1,264.3
			z M767.1,261c-0.7,0-1.3,0.6-1.3,1.3c0,0.7,0.6,1.3,1.3,1.3c0.7,0,1.3-0.6,1.3-1.3C768.4,261.6,767.8,261,767.1,261z"/>
	</g>
	<g>
		<path d="M825.2,425.4l-3.7,2.2l-0.7-1.2l4.4-2.7h1.6V439h-1.6V425.4z"/>
		<path d="M833.6,425.4l-3.7,2.2l-0.7-1.2l4.4-2.7h1.6V439h-1.6V425.4z"/>
		<path d="M839.7,433.2c-1.1,0-2-0.9-2-2c0-1.1,0.9-2,2-2c1.1,0,2,0.9,2,2C841.7,432.3,840.9,433.2,839.7,433.2z M839.7,429.9
			c-0.7,0-1.3,0.6-1.3,1.3c0,0.7,0.6,1.3,1.3,1.3c0.7,0,1.3-0.6,1.3-1.3C841,430.5,840.4,429.9,839.7,429.9z M844.6,429.3h0.9
			l-5.8,8.9h-0.9L844.6,429.3z M844.7,438.2c-1.1,0-2-0.9-2-2c0-1.1,0.9-2,2-2c1.1,0,2,0.9,2,2C846.7,437.3,845.8,438.2,844.7,438.2
			z M844.7,435c-0.7,0-1.3,0.6-1.3,1.3c0,0.7,0.6,1.3,1.3,1.3c0.7,0,1.3-0.6,1.3-1.3C845.9,435.5,845.4,435,844.7,435z"/>
	</g>
	<g class="st7">
		<path class="st8" d="M414.5,511.7c1-1.6,2.9-2.2,4.2-2.2c3.2,0,5.1,2.3,5.1,4.9c0,3.5-2.8,5.2-5.4,5.2c-1.7,0-3.7-1-4.6-2.6
			c-0.7-1.3-1-2.3-1-4.2c0-4.8,2.6-8.8,7.5-8.8c0.9,0,2.1,0.1,3.1,0.7l-0.6,1.4c-0.8-0.5-1.9-0.6-2.5-0.6
			C416.9,505.6,414.9,508.3,414.5,511.7z M416,511.9c-0.7,0.6-1.2,1.6-1.2,2.7c0,2.3,1.9,3.6,3.8,3.6c1.9,0,3.8-1.2,3.8-3.6
			c0-1.9-1.4-3.6-3.8-3.6C417.6,510.9,416.7,511.3,416,511.9z"/>
		<path class="st8" d="M435.4,511.9c-1,1.6-3,2.3-4.3,2.3c-3.2,0-5.1-2.4-5.1-4.9c0-3.5,2.7-5.2,5.4-5.2c1.7,0,3.6,1,4.5,2.6
			c0.7,1.3,1,2.6,1,4.3c0,5-2.4,8.7-7.1,8.7c-0.8,0-2.5-0.3-3.5-0.9l0.6-1.4c1,0.6,2.2,0.8,2.9,0.8
			C433.2,518.1,435.1,515.4,435.4,511.9z M433.9,511.8c0.8-0.6,1.2-1.7,1.2-2.7c0-2.3-1.9-3.6-3.8-3.6c-1.9,0-3.8,1.2-3.8,3.7
			c0,1.9,1.4,3.6,3.7,3.6C432.2,512.8,433.2,512.4,433.9,511.8z"/>
		<path class="st8" d="M440.6,513.7c-1.1,0-2-0.9-2-2c0-1.1,0.9-2,2-2c1.1,0,2,0.9,2,2C442.6,512.8,441.7,513.7,440.6,513.7z
			 M440.6,510.4c-0.7,0-1.3,0.6-1.3,1.3c0,0.7,0.6,1.3,1.3,1.3s1.3-0.6,1.3-1.3C441.8,511,441.3,510.4,440.6,510.4z M445.5,509.7
			h0.9l-5.8,8.9h-0.9L445.5,509.7z M445.5,518.7c-1.1,0-2-0.9-2-2c0-1.1,0.9-2,2-2c1.1,0,2,0.9,2,2
			C447.5,517.8,446.6,518.7,445.5,518.7z M445.5,515.5c-0.7,0-1.3,0.6-1.3,1.3c0,0.7,0.6,1.3,1.3,1.3s1.3-0.6,1.3-1.3
			C446.8,516,446.2,515.5,445.5,515.5z"/>
	</g>
	<g>
		<path d="M1275.9,230.3l-3.7,2.2l-0.7-1.2l4.4-2.7h1.6v15.3h-1.6V230.3z"/>
		<path d="M1280.7,243.4c0-1.8,0.8-3.7,3.5-5.4l2.3-1.4c1.5-0.9,2.7-1.8,2.7-3.6c0-1.6-1.4-3-3.4-3c-1.7,0-2.7,1-3.1,2
			c-0.3,0.6-0.3,1.3-0.3,1.5l-1.6-0.2c0-2.2,1.8-4.7,5.1-4.7c2.8,0,5,2.1,5,4.5c0,2.2-1.2,3.5-3.2,4.7l-2.4,1.5
			c-1.3,0.8-2.5,1.9-2.6,3.3h8.4v1.5h-10.3V243.4z"/>
		<path d="M1294.5,238.1c-1.1,0-2-0.9-2-2c0-1.1,0.9-2,2-2c1.1,0,2,0.9,2,2C1296.6,237.2,1295.7,238.1,1294.5,238.1z M1294.5,234.9
			c-0.7,0-1.3,0.6-1.3,1.3c0,0.7,0.6,1.3,1.3,1.3c0.7,0,1.3-0.6,1.3-1.3C1295.8,235.4,1295.2,234.9,1294.5,234.9z M1299.5,234.2h0.9
			l-5.8,8.9h-0.9L1299.5,234.2z M1299.5,243.2c-1.1,0-2-0.9-2-2c0-1.1,0.9-2,2-2c1.1,0,2,0.9,2,2
			C1301.5,242.3,1300.6,243.2,1299.5,243.2z M1299.5,239.9c-0.7,0-1.3,0.6-1.3,1.3c0,0.7,0.6,1.3,1.3,1.3c0.7,0,1.3-0.6,1.3-1.3
			C1300.7,240.5,1300.2,239.9,1299.5,239.9z"/>
	</g>
	<g>
		<path d="M1364,306.5v-3.7h-7.9v-1.8l7.5-9.9h2v10.2h2.6v1.4h-2.6v3.7H1364z M1364,301.4v-8.6l-6.5,8.6H1364z"/>
		<path d="M1371.2,300.7c-1.1,0-2-0.9-2-2c0-1.1,0.9-2,2-2c1.1,0,2,0.9,2,2C1373.2,299.8,1372.3,300.7,1371.2,300.7z M1371.2,297.4
			c-0.7,0-1.3,0.6-1.3,1.3c0,0.7,0.6,1.3,1.3,1.3c0.7,0,1.3-0.6,1.3-1.3C1372.5,298,1371.9,297.4,1371.2,297.4z M1376.1,296.8h0.9
			l-5.8,8.9h-0.9L1376.1,296.8z M1376.2,305.8c-1.1,0-2-0.9-2-2c0-1.1,0.9-2,2-2c1.1,0,2,0.9,2,2
			C1378.2,304.9,1377.3,305.8,1376.2,305.8z M1376.2,302.5c-0.7,0-1.3,0.6-1.3,1.3c0,0.7,0.6,1.3,1.3,1.3c0.7,0,1.3-0.6,1.3-1.3
			C1377.4,303,1376.9,302.5,1376.2,302.5z"/>
	</g>
	<g class="st7">
		<path class="st8" d="M987.6,515.3c0-1.6,1.1-3,3.2-3.7c-1.9-0.5-2.8-2.2-2.8-3.5c0-2.7,2.8-4.1,5-4.1c2.3,0,5,1.3,5,4.1
			c0,1.4-1,2.9-2.9,3.5c2.1,0.6,3.2,2.1,3.2,3.7c0,2.8-2.7,4.3-5.4,4.3C990.4,519.6,987.6,518.2,987.6,515.3z M996.7,515.3
			c0-2-2.1-3-3.7-3c-1.6,0-3.7,0.9-3.7,2.9c0,2.1,2.1,2.9,3.7,2.9C994.6,518.2,996.7,517.3,996.7,515.3z M989.6,508.1
			c0,1.9,2.1,2.8,3.4,2.8c1.3,0,3.4-0.9,3.4-2.8c0-1.8-2-2.7-3.4-2.7C991.5,505.5,989.6,506.4,989.6,508.1z"/>
		<path class="st8" d="M1008,519.5v-3.7h-7.9V514l7.5-9.9h2v10.2h2.6v1.4h-2.6v3.7H1008z M1008,514.4v-8.6l-6.5,8.6H1008z"/>
		<path class="st8" d="M1015.2,513.7c-1.1,0-2-0.9-2-2c0-1.1,0.9-2,2-2c1.1,0,2,0.9,2,2C1017.3,512.8,1016.4,513.7,1015.2,513.7z
			 M1015.2,510.4c-0.7,0-1.3,0.6-1.3,1.3c0,0.7,0.6,1.3,1.3,1.3c0.7,0,1.3-0.6,1.3-1.3C1016.5,511,1015.9,510.4,1015.2,510.4z
			 M1020.2,509.7h0.9l-5.8,8.9h-0.9L1020.2,509.7z M1020.2,518.7c-1.1,0-2-0.9-2-2c0-1.1,0.9-2,2-2c1.1,0,2,0.9,2,2
			C1022.2,517.8,1021.3,518.7,1020.2,518.7z M1020.2,515.5c-0.7,0-1.3,0.6-1.3,1.3c0,0.7,0.6,1.3,1.3,1.3c0.7,0,1.3-0.6,1.3-1.3
			C1021.4,516,1020.9,515.5,1020.2,515.5z"/>
	</g>
	<g class="st7">
		<path d="M623.5,332.4l-1.9,3.5l-1.5-0.2l7.6-13.6l1.7,0.2l4.7,14.9l-1.6-0.2l-1.2-3.8L623.5,332.4z M624.2,331.1l6.6,0.7l-2.5-8
			L624.2,331.1z"/>
		<path d="M640.4,323.6l-3.1,14.6l-1.4-0.3l3.1-14.6L640.4,323.6z"/>
		<path d="M646.1,325l-4,14.4l-1.4-0.4l4-14.4L646.1,325z"/>
		<path d="M655.2,344.4c-1.7-0.8-2.3-2.1-2.5-3.6l-0.9,1.9l-1.3-0.6l6.2-13.5l1.3,0.6l-3,6.6c1.3-0.8,2.7-1.3,4.4-0.5
			c2.5,1.2,3.1,4.2,2.1,6.5C660.4,344.2,657.8,345.6,655.2,344.4z M660.2,341.2c0.8-1.8,0.4-4-1.5-4.9c-1.8-0.8-3.9,0.2-4.7,1.9
			c-0.8,1.8-0.3,4.1,1.6,4.9C657.5,344.1,659.3,343.1,660.2,341.2z"/>
		<path d="M665,344.8c-0.9,1.5-0.8,3,0.7,4c1.4,0.9,3.2,0.4,4.1-1l3-4.7l1.2,0.8l-5.2,8.2l-1.2-0.7l1-1.5c-1.4,0.7-2.7,0.6-3.9-0.1
			c-2-1.3-2.2-3.4-1-5.3l3.2-5.1l1.2,0.8L665,344.8z"/>
		<path d="M673.7,356.1c-2.1-1.7-1.6-3.6-1.1-4.6l1.2,0.6c-0.4,0.8-0.6,2,0.6,3c0.8,0.7,1.9,0.8,2.6,0c0.8-0.9-0.1-1.9-0.8-2.7
			c-1.1-1.2-2-2.7-0.8-4.1c1.2-1.4,3.1-1.2,4.4-0.2c2,1.6,1.5,3.5,1.1,4.3l-1.2-0.6c0.3-0.6,0.5-1.8-0.7-2.8c-0.8-0.7-1.9-0.6-2.4,0
			c-0.8,0.9,0.1,1.9,0.8,2.7c1.1,1.2,1.8,2.8,0.7,4.2C677.1,357.4,675.2,357.3,673.7,356.1z"/>
		<path d="M686.3,354.1l-6.8,7.1l-1-1l6.8-7.1L686.3,354.1z M689,350.3c0.4,0.4,0.5,1.1,0,1.5c-0.4,0.4-1.1,0.4-1.5,0
			c-0.4-0.4-0.4-1.1,0-1.5C687.9,349.9,688.6,349.9,689,350.3z"/>
		<path d="M691,365.2c1.3-1.1,1.7-2.6,0.5-4c-1.1-1.3-2.9-1.3-4.2-0.2l-4.2,3.6l-0.9-1.1l7.4-6.4l0.9,1.1l-1.4,1.2
			c1.5-0.3,2.8,0.2,3.7,1.3c1.6,1.8,1.2,3.9-0.5,5.4l-4.6,3.9l-0.9-1.1L691,365.2z"/>
		<path d="M693.7,370.7c-1.5,1.1-1.9,3.2-0.9,4.8c0.8,1.2,2,1.7,3.4,1.4l0.4,1.3c-1.9,0.6-3.7-0.3-4.8-1.9c-1.6-2.4-0.9-5.4,1.5-6.9
			c2.2-1.5,5.3-1.1,6.8,1.2c1.7,2.5,0.7,5-1.6,6.6c-0.1,0.1-0.3,0.2-0.4,0.2L693.7,370.7z M698.3,375.4c1.4-1.1,1.8-2.8,0.8-4.3
			c-0.9-1.4-2.9-1.8-4.4-1.1L698.3,375.4z"/>
		<path d="M696.8,384.8c-1.2-2.4,0-4,0.9-4.6l0.9,1c-0.7,0.6-1.3,1.6-0.7,3c0.5,0.9,1.4,1.6,2.3,1.1c1.1-0.5,0.7-1.8,0.4-2.8
			c-0.5-1.6-0.7-3.2,1-4.1c1.6-0.8,3.3,0.2,4.1,1.6c1.2,2.3,0,3.8-0.8,4.4l-0.9-1c0.5-0.4,1.2-1.4,0.5-2.8c-0.5-0.9-1.5-1.3-2.2-0.9
			c-1.1,0.6-0.7,1.8-0.3,2.8c0.5,1.5,0.5,3.3-1.1,4.1C699.4,387.4,697.7,386.5,696.8,384.8z"/>
		<path d="M700.5,393.2c-0.9-2.5,0.4-3.9,1.4-4.5l0.8,1.1c-0.7,0.5-1.5,1.5-1,2.9c0.4,1,1.3,1.7,2.2,1.3c1.1-0.4,0.9-1.7,0.7-2.7
			c-0.4-1.6-0.4-3.3,1.4-4c1.7-0.7,3.3,0.5,3.9,2c0.9,2.4-0.4,3.8-1.2,4.3l-0.8-1.1c0.6-0.4,1.4-1.3,0.8-2.7c-0.4-1-1.3-1.5-2.1-1.2
			c-1.1,0.4-0.8,1.7-0.6,2.7c0.4,1.6,0.2,3.4-1.5,4C702.8,396,701.2,395,700.5,393.2z"/>
		<path d="M704.5,407.3c-0.5-2.6,1.1-3.8,2.1-4.2l0.6,1.2c-0.8,0.4-1.7,1.2-1.4,2.7c0.2,1,1,1.9,2,1.7c1.2-0.2,1.2-1.5,1.1-2.6
			c-0.1-1.6,0.2-3.3,2-3.7c1.8-0.4,3.2,1.1,3.5,2.6c0.5,2.5-1,3.7-1.9,4l-0.6-1.2c0.6-0.3,1.5-1,1.2-2.5c-0.2-1-1.1-1.7-1.9-1.5
			c-1.2,0.2-1.1,1.6-1,2.6c0.1,1.6-0.4,3.3-2.1,3.7C706.4,410.4,704.9,409.1,704.5,407.3z"/>
		<path d="M715.6,413.7l-9.7,1.1l-0.2-1.4l9.7-1.1L715.6,413.7z M720,412.5c0.1,0.6-0.3,1.1-0.9,1.2c-0.6,0.1-1.1-0.3-1.2-0.9
			c-0.1-0.6,0.3-1.1,0.9-1.2C719.4,411.5,720,411.9,720,412.5z"/>
		<path d="M706.5,425.3l-0.3-7.8l1.2,0l7.5,5.8l-0.2-6l1.2,0l0.3,7.7l-1.2,0l-7.5-5.8l0.2,6.1L706.5,425.3z"/>
		<path d="M710.8,428.9c-1.9,0-3.5,1.3-3.6,3.2c-0.1,1.4,0.5,2.6,1.8,3.2l-0.5,1.2c-1.8-0.7-2.8-2.6-2.6-4.5
			c0.2-2.8,2.6-4.8,5.4-4.5c2.6,0.2,4.9,2.4,4.6,5.1c-0.2,3-2.5,4.4-5.4,4.2c-0.2,0-0.3,0-0.5-0.1L710.8,428.9z M711.5,435.4
			c1.8,0,3.1-1.1,3.3-2.9c0.1-1.7-1.2-3.2-2.8-3.5L711.5,435.4z"/>
		<path d="M704.6,441.9c0.5-2.6,2.4-3.1,3.5-3.1l0.1,1.4c-0.9,0-2.1,0.5-2.4,2c-0.2,1,0.2,2.1,1.2,2.3c1.2,0.2,1.7-1,2-1.9
			c0.5-1.6,1.4-3,3.3-2.6c1.8,0.4,2.5,2.2,2.2,3.8c-0.5,2.5-2.3,3-3.3,3l-0.1-1.3c0.7,0,1.8-0.4,2.1-1.9c0.2-1-0.3-2-1.2-2.1
			c-1.2-0.2-1.6,1-2,2c-0.5,1.5-1.6,2.9-3.4,2.6C705.1,445.5,704.2,443.7,704.6,441.9z"/>
	</g>
	<g>
		<g>
			<path class="st9" d="M702.1,457.9c-1.9,4.9-4.3,9.8-7.2,14.5c-26.3,42.9-82.5,56.3-125.4,30c-42.9-26.3-56.3-82.5-30-125.4
				c15.3-24.9,40.6-39.9,67.6-42.9"/>
			<g>
				<polygon points="606,329.6 606.9,338.7 611,333.7 				"/>
			</g>
		</g>
	</g>
	<g class="st7">
		<path d="M1206.9,332l1.4-0.3c0.2,1.7,1.6,3.2,3.3,3.4c1.6,0.2,3.3-0.5,3.4-2.3c0.2-1.7-1.3-2.5-2.3-2.8l-1.9-0.6
			c-0.6-0.2-1.6-0.6-2.3-1.4c-0.5-0.6-0.9-1.5-0.8-2.6c0.2-2.4,2.5-3.8,4.9-3.6c3.1,0.3,4.3,2.3,4.4,3.9l-1.4,0.3
			c-0.2-1-0.9-2.6-3.2-2.8c-1.5-0.1-3.1,0.7-3.2,2.3c-0.1,1,0.5,2,1.9,2.4l1.8,0.5c1,0.3,1.9,0.7,2.7,1.5c0.9,1,1,2.1,1,2.7
			c-0.2,2.6-2.4,4-5.1,3.8C1208.7,336.3,1206.9,334,1206.9,332z"/>
		<path d="M1226.8,333.2c0.4-1.6,0-3-1.7-3.5c-1.6-0.4-3,0.8-3.4,2.3l-1.4,5.4l-1.4-0.4l2.5-9.4l1.4,0.4l-0.4,1.6
			c1.1-1,2.1-1.4,3.5-1c1.4,0.4,2.3,1.3,2.5,2.7c1.1-1,2.3-1.4,3.8-1c2.3,0.6,3.1,2.5,2.5,4.7l-1.5,5.8l-1.4-0.4l1.4-5.5
			c0.4-1.6,0-3-1.7-3.5c-1.7-0.4-3,0.7-3.4,2.2l-1.4,5.4l-1.4-0.4L1226.8,333.2z"/>
		<path d="M1244,338.8c0.6-1.4,0.2-2.5-1.3-3.2c-1.5-0.7-2.6,0-3.1,0.8l-1.1-0.8c0.4-0.7,2.3-2.2,4.8-1.1c1.9,0.8,2.4,2.1,2.4,3.3
			c0,0.6-0.3,1.3-0.4,1.6l-2.6,5.8l-1.3-0.6l0.7-1.6l0,0c-1.2,0.8-2.4,1-3.8,0.4c-1.8-0.8-2.5-2.4-1.8-4l0-0.1
			c0.9-1.9,3.1-1.7,4.7-1l2.5,1.1L1244,338.8z M1240.8,339.4c-1-0.4-2.3-0.7-2.9,0.5c-0.4,1,0.2,1.9,1.2,2.4c1.6,0.7,3.3,0.1,4-1.5
			l0.1-0.3L1240.8,339.4z"/>
		<path d="M1254.2,334.4l-7.2,13l-1.3-0.7l7.2-13L1254.2,334.4z"/>
		<path d="M1259.2,337.4l-8,12.6l-1.2-0.8l8-12.6L1259.2,337.4z"/>
	</g>
	<g>
		<g>
			<path class="st9" d="M1259.8,353.5c35.4,28.3,45.1,79.2,20.7,118.9c-26.3,42.9-82.5,56.3-125.4,30s-56.3-82.5-30-125.4
				c15.3-24.9,40.6-39.9,67.6-42.9"/>
			<g>
				<polygon points="1191.6,329.6 1192.5,338.7 1196.6,333.7 				"/>
			</g>
		</g>
	</g>
	<g class="st7">
		<path class="st8" d="M617.2,538.2c-62.6,0-113.4-50.8-113.4-113.4c0-62.5,50.6-113.2,113.1-113.4v-63.7
			c-74.3,0-138.6,44.2-165.3,113.6c-35,91.3,10.6,193.7,101.8,228.7c91.3,35,193.7-10.6,228.7-101.8l-59.1-22.7
			C706.7,508,665.5,538.2,617.2,538.2z"/>
	</g>
	<g>
		<pattern  id="SVGID_2_" xlink:href="#Unnamed_Pattern_4" patternTransform="matrix(0 1.2193 -1.1705 0 -22537.9336 812.8091)">
		</pattern>
		<path class="st10" d="M785.3,370.1L725,389.7c3.6,11.1,5.6,22.9,5.6,35.1c0,14.4-2.7,28.1-7.5,40.7l59.1,22.7
			C797.6,448.1,798.6,411,785.3,370.1z"/>
	</g>
	<g>
		<path class="st5" d="M617.2,311.4c50.4,0,93,32.8,107.8,78.2l60.3-19.6c-24.2-74.4-90.2-122.3-168.4-122.3v63.7
			C617,311.4,617.1,311.4,617.2,311.4z"/>
	</g>
	<g class="st7">
		<path class="st8" d="M1351.3,328.4l-53.4,34.7c11.6,17.8,18.3,39,18.3,61.8c0,62.6-50.8,113.4-113.4,113.4
			c-62.6,0-113.4-50.8-113.4-113.4c0-62.6,50.8-113.4,113.4-113.4v-63.7c-35.2,0-66.9,9.4-96.4,28.6
			c-82,53.3-105.3,162.9-52.1,244.9c53.3,82,162.9,105.3,244.9,52.1S1404.5,410.4,1351.3,328.4z"/>
	</g>
	<g>
		<pattern  id="SVGID_3_" xlink:href="#Unnamed_Pattern_4" patternTransform="matrix(0 1.2193 -1.1705 0 -22537.9336 812.8091)">
		</pattern>
		<path class="st11" d="M1297.9,363l53.4-34.7c-8.5-13.1-16.3-22.4-27.7-33.1l-43.4,46.6C1286.9,348.2,1292.8,355.3,1297.9,363z"/>
	</g>
	<g>
		<path class="st5" d="M1280.1,341.9l43.4-46.6c-34.3-32-73.8-47.6-120.7-47.6v63.7C1232.7,311.4,1259.9,323,1280.1,341.9z"/>
	</g>
	<g class="st7">
		<path class="st8" d="M330.3,934C267.7,934,217,883.3,217,820.6s50.8-113.4,113.4-113.4c0,0,0,0,0,0v-63.7
			c-39.1,0-72.4,10.8-104.1,33.8c-79.1,57.5-96.6,168.2-39.2,247.3c57.5,79.1,168.2,96.6,247.3,39.2L397,912.4
			C378.3,926,355.3,934,330.3,934z"/>
	</g>
	<g>
		<pattern  id="SVGID_4_" xlink:href="#Unnamed_Pattern_4" patternTransform="matrix(0 1.2193 -1.1705 0 -22537.9336 812.8091)">
		</pattern>
		<path class="st12" d="M397,912.4l37.4,51.5c31.6-23,52.2-51.3,64.3-88.5l-60.5-19.7C430.7,878.7,416.1,898.4,397,912.4z"/>
	</g>
	<g>
		<path class="st5" d="M330.4,643.6v63.7c62.6,0,113.4,50.8,113.4,113.4c0,12.2-1.9,24-5.5,35l60.5,19.7c6-18.6,8.7-35.2,8.7-54.7
			C507.4,722.9,428.1,643.6,330.4,643.6z"/>
	</g>
	<g>
		<path d="M491.4,703.1c-2.7,0-5-1.6-5.3-4.2l1.5-0.3c0.3,1.8,1.6,3,3.7,3c2,0,3.7-1.1,3.7-2.9c0-1.7-1.3-2.8-3.7-2.8h-1.5v-1.5h1.5
			c2.1,0,3.4-1.3,3.4-2.8c0-1.6-1.2-2.7-3.4-2.7c-2.1,0-3.3,1.2-3.6,2.9l-1.5-0.3c0.3-2.1,2.3-4,5.1-4c3.3,0,5,2,5,4
			c0,1.7-1,2.8-2.4,3.5v0c1.7,0.5,2.8,1.9,2.8,3.6C496.6,701.2,494.6,703.1,491.4,703.1z"/>
		<path d="M498.9,695.4c0-3.8,2.2-7.8,6.4-7.8c4.2,0,6.3,4,6.3,7.8c0,3.8-2.1,7.8-6.4,7.8C501.1,703.2,498.9,699.2,498.9,695.4z
			 M500.6,695.3c0,2.8,1.4,6.4,4.7,6.4c3.3,0,4.7-3.6,4.7-6.3s-1.4-6.4-4.7-6.4S500.6,692.6,500.6,695.3z"/>
		<path d="M515.2,697.2c-1.1,0-2-0.9-2-2c0-1.1,0.9-2,2-2c1.1,0,2,0.9,2,2C517.2,696.3,516.3,697.2,515.2,697.2z M515.2,694
			c-0.7,0-1.3,0.6-1.3,1.3c0,0.7,0.6,1.3,1.3,1.3c0.7,0,1.3-0.6,1.3-1.3C516.5,694.5,515.9,694,515.2,694z M520.1,693.3h0.9
			l-5.8,8.9h-0.9L520.1,693.3z M520.2,702.3c-1.1,0-2-0.9-2-2c0-1.1,0.9-2,2-2c1.1,0,2,0.9,2,2C522.2,701.4,521.3,702.3,520.2,702.3
			z M520.2,699c-0.7,0-1.3,0.6-1.3,1.3c0,0.7,0.6,1.3,1.3,1.3c0.7,0,1.3-0.6,1.3-1.3C521.4,699.6,520.8,699,520.2,699z"/>
	</g>
	<g>
		<path d="M491.1,931.7l-3.7,2.2l-0.7-1.2l4.4-2.7h1.6v15.3h-1.6V931.7z"/>
		<path d="M496,937.6c0-3.8,2.2-7.8,6.4-7.8c4.2,0,6.3,4,6.3,7.8c0,3.8-2.1,7.8-6.4,7.8C498.1,945.4,496,941.4,496,937.6z
			 M497.6,937.6c0,2.8,1.4,6.4,4.7,6.4c3.3,0,4.7-3.6,4.7-6.3s-1.4-6.4-4.7-6.4C499,931.3,497.6,934.8,497.6,937.6z"/>
		<path d="M512.3,939.4c-1.1,0-2-0.9-2-2c0-1.1,0.9-2,2-2c1.1,0,2,0.9,2,2C514.3,938.5,513.4,939.4,512.3,939.4z M512.3,936.2
			c-0.7,0-1.3,0.6-1.3,1.3c0,0.7,0.6,1.3,1.3,1.3c0.7,0,1.3-0.6,1.3-1.3C513.5,936.7,513,936.2,512.3,936.2z M517.2,935.5h0.9
			l-5.8,8.9h-0.9L517.2,935.5z M517.2,944.5c-1.1,0-2-0.9-2-2c0-1.1,0.9-2,2-2s2,0.9,2,2C519.2,943.6,518.3,944.5,517.2,944.5z
			 M517.2,941.2c-0.7,0-1.3,0.6-1.3,1.3c0,0.7,0.6,1.3,1.3,1.3s1.3-0.6,1.3-1.3C518.5,941.8,517.9,941.2,517.2,941.2z"/>
	</g>
	<g class="st7">
		<path class="st8" d="M122.7,905c1-1.6,2.9-2.2,4.2-2.2c3.2,0,5.1,2.3,5.1,4.9c0,3.5-2.8,5.2-5.4,5.2c-1.7,0-3.7-1-4.6-2.6
			c-0.7-1.3-1-2.3-1-4.2c0-4.8,2.6-8.8,7.5-8.8c0.9,0,2.1,0.1,3.1,0.7l-0.6,1.4c-0.8-0.5-1.9-0.6-2.5-0.6
			C125,898.8,123,901.6,122.7,905z M124.1,905.1c-0.7,0.6-1.2,1.6-1.2,2.7c0,2.3,1.9,3.6,3.8,3.6c1.9,0,3.8-1.2,3.8-3.6
			c0-1.9-1.4-3.6-3.8-3.6C125.7,904.2,124.8,904.5,124.1,905.1z"/>
		<path class="st8" d="M134.2,905.1c0-3.8,2.2-7.8,6.4-7.8c4.2,0,6.3,4,6.3,7.8c0,3.8-2.1,7.8-6.4,7.8
			C136.3,912.9,134.2,908.9,134.2,905.1z M135.9,905.1c0,2.8,1.4,6.4,4.7,6.4c3.3,0,4.7-3.6,4.7-6.3s-1.4-6.4-4.7-6.4
			C137.3,898.8,135.9,902.3,135.9,905.1z"/>
		<path class="st8" d="M150.5,906.9c-1.1,0-2-0.9-2-2c0-1.1,0.9-2,2-2c1.1,0,2,0.9,2,2C152.5,906,151.6,906.9,150.5,906.9z
			 M150.5,903.7c-0.7,0-1.3,0.6-1.3,1.3c0,0.7,0.6,1.3,1.3,1.3s1.3-0.6,1.3-1.3C151.8,904.2,151.2,903.7,150.5,903.7z M155.4,903
			h0.9l-5.8,8.9h-0.9L155.4,903z M155.4,912c-1.1,0-2-0.9-2-2c0-1.1,0.9-2,2-2s2,0.9,2,2C157.5,911.1,156.6,912,155.4,912z
			 M155.4,908.7c-0.7,0-1.3,0.6-1.3,1.3c0,0.7,0.6,1.3,1.3,1.3s1.3-0.6,1.3-1.3C156.7,909.3,156.1,908.7,155.4,908.7z"/>
	</g>
	<g>
		<path d="M1041.8,672.5c0-1.8,0.8-3.7,3.5-5.4l2.3-1.4c1.5-0.9,2.7-1.8,2.7-3.6c0-1.6-1.4-3-3.4-3c-1.7,0-2.7,1-3.1,2
			c-0.3,0.6-0.3,1.3-0.3,1.5l-1.6-0.2c0-2.2,1.8-4.7,5.1-4.7c2.8,0,5,2.1,5,4.5c0,2.2-1.2,3.5-3.2,4.7l-2.4,1.5
			c-1.3,0.8-2.5,1.9-2.6,3.3h8.4v1.5h-10.3V672.5z"/>
		<path d="M1059.4,673.1c-2.7,0-5-1.6-5.3-4.2l1.5-0.3c0.3,1.8,1.6,3,3.7,3c2.1,0,3.7-1.1,3.7-2.9s-1.3-2.8-3.7-2.8h-1.5v-1.5h1.5
			c2.1,0,3.4-1.3,3.4-2.8c0-1.6-1.2-2.7-3.4-2.7c-2.1,0-3.3,1.2-3.6,2.9l-1.5-0.3c0.3-2.1,2.3-4,5.1-4c3.3,0,5,2,5,4
			c0,1.7-1,2.8-2.4,3.5v0c1.7,0.5,2.8,1.9,2.8,3.6C1064.7,671.1,1062.6,673.1,1059.4,673.1z"/>
		<path d="M1068.3,667.1c-1.1,0-2-0.9-2-2c0-1.1,0.9-2,2-2c1.1,0,2,0.9,2,2C1070.3,666.2,1069.4,667.1,1068.3,667.1z M1068.3,663.9
			c-0.7,0-1.3,0.6-1.3,1.3c0,0.7,0.6,1.3,1.3,1.3s1.3-0.6,1.3-1.3C1069.6,664.4,1069,663.9,1068.3,663.9z M1073.2,663.2h0.9
			l-5.8,8.9h-0.9L1073.2,663.2z M1073.3,672.2c-1.1,0-2-0.9-2-2c0-1.1,0.9-2,2-2c1.1,0,2,0.9,2,2
			C1075.3,671.3,1074.4,672.2,1073.3,672.2z M1073.3,668.9c-0.7,0-1.3,0.6-1.3,1.3c0,0.7,0.6,1.3,1.3,1.3c0.7,0,1.3-0.6,1.3-1.3
			C1074.5,669.5,1073.9,668.9,1073.3,668.9z"/>
	</g>
	<g>
		<path d="M1096,904.8l-3.7,2.2l-0.7-1.2l4.4-2.7h1.6v15.3h-1.6V904.8z"/>
		<path d="M1100.3,904.6v-1.5h10.4v1.5l-7,13.8h-1.8l7.1-13.8H1100.3z"/>
		<path d="M1113.6,912.6c-1.1,0-2-0.9-2-2c0-1.1,0.9-2,2-2c1.1,0,2,0.9,2,2C1115.7,911.7,1114.8,912.6,1113.6,912.6z M1113.6,909.4
			c-0.7,0-1.3,0.6-1.3,1.3c0,0.7,0.6,1.3,1.3,1.3c0.7,0,1.3-0.6,1.3-1.3C1114.9,909.9,1114.3,909.4,1113.6,909.4z M1118.6,908.7h0.9
			l-5.8,8.9h-0.9L1118.6,908.7z M1118.6,917.7c-1.1,0-2-0.9-2-2c0-1.1,0.9-2,2-2c1.1,0,2,0.9,2,2
			C1120.6,916.8,1119.7,917.7,1118.6,917.7z M1118.6,914.4c-0.7,0-1.3,0.6-1.3,1.3c0,0.7,0.6,1.3,1.3,1.3c0.7,0,1.3-0.6,1.3-1.3
			C1119.8,915,1119.3,914.4,1118.6,914.4z"/>
	</g>
	<g class="st7">
		<path class="st8" d="M710.4,905c1-1.6,2.9-2.2,4.2-2.2c3.2,0,5.1,2.3,5.1,4.9c0,3.5-2.8,5.2-5.4,5.2c-1.7,0-3.7-1-4.6-2.6
			c-0.7-1.3-1-2.3-1-4.2c0-4.8,2.6-8.8,7.5-8.8c0.9,0,2.1,0.1,3.1,0.7l-0.6,1.4c-0.8-0.5-1.9-0.6-2.5-0.6
			C712.7,898.8,710.7,901.6,710.4,905z M711.8,905.1c-0.7,0.6-1.2,1.6-1.2,2.7c0,2.3,1.9,3.6,3.8,3.6c1.9,0,3.8-1.2,3.8-3.6
			c0-1.9-1.4-3.6-3.8-3.6C713.4,904.2,712.5,904.5,711.8,905.1z"/>
		<path class="st8" d="M721.9,905.1c0-3.8,2.2-7.8,6.4-7.8c4.2,0,6.3,4,6.3,7.8c0,3.8-2.1,7.8-6.4,7.8
			C724,912.9,721.9,908.9,721.9,905.1z M723.6,905.1c0,2.8,1.4,6.4,4.7,6.4c3.3,0,4.7-3.6,4.7-6.3s-1.4-6.4-4.7-6.4
			S723.6,902.3,723.6,905.1z"/>
		<path class="st8" d="M738.2,906.9c-1.1,0-2-0.9-2-2c0-1.1,0.9-2,2-2c1.1,0,2,0.9,2,2C740.2,906,739.3,906.9,738.2,906.9z
			 M738.2,903.7c-0.7,0-1.3,0.6-1.3,1.3c0,0.7,0.6,1.3,1.3,1.3c0.7,0,1.3-0.6,1.3-1.3C739.4,904.2,738.9,903.7,738.2,903.7z
			 M743.1,903h0.9l-5.8,8.9h-0.9L743.1,903z M743.1,912c-1.1,0-2-0.9-2-2c0-1.1,0.9-2,2-2c1.1,0,2,0.9,2,2
			C745.1,911.1,744.2,912,743.1,912z M743.1,908.7c-0.7,0-1.3,0.6-1.3,1.3c0,0.7,0.6,1.3,1.3,1.3c0.7,0,1.3-0.6,1.3-1.3
			C744.4,909.3,743.8,908.7,743.1,908.7z"/>
	</g>
	<g class="st7">
		<path d="M349.8,733.5l-1.5-0.2l1.6-12.2l0,0l-6.9,11.5l-1.3-0.2l-3.7-12.8l-1.6,12.1l-1.5-0.2l1.8-14.2l2.1,0.3l3.7,12.9l6.8-11.5
			l2.1,0.3L349.8,733.5z"/>
		<path d="M355.4,730.6c-0.5,1.8,0.5,3.7,2.3,4.2c1.4,0.4,2.7,0.1,3.5-1.1l1.1,0.8c-1.1,1.6-3.1,2.1-5,1.5c-2.7-0.8-4.1-3.6-3.2-6.3
			c0.8-2.5,3.4-4.2,6-3.4c2.9,0.9,3.8,3.4,2.9,6.1c0,0.2-0.1,0.3-0.2,0.4L355.4,730.6z M361.9,731.3c0.3-1.7-0.3-3.3-2.1-3.8
			c-1.6-0.5-3.3,0.4-4,1.9L361.9,731.3z"/>
		<path d="M371.7,730.7c1.7,0.8,2.3,2.2,2.5,3.6l3-6.5l1.3,0.6l-6.3,13.5l-1.3-0.6l0.9-1.9c-1.2,0.8-2.7,1.2-4.4,0.4
			c-2.5-1.2-3.1-4.1-2-6.5C366.5,731.1,369.2,729.6,371.7,730.7z M373.1,736.9c0.8-1.8,0.2-4-1.6-4.9c-1.9-0.9-3.8,0.1-4.7,2
			c-0.8,1.8-0.4,3.9,1.5,4.8C370.2,739.7,372.2,738.7,373.1,736.9z"/>
		<path d="M381.5,736l-5,8.4l-1.2-0.7l5-8.4L381.5,736z M383.2,731.7c0.5,0.3,0.7,1,0.4,1.5c-0.3,0.5-0.9,0.7-1.5,0.4
			c-0.5-0.3-0.7-0.9-0.4-1.5C382,731.6,382.7,731.4,383.2,731.7z"/>
		<path d="M382.9,743.7c-1,1.4-1,2.9,0.5,4c1.4,1,3.1,0.6,4.2-0.8l3.3-4.5l1.1,0.8l-5.7,7.9l-1.1-0.8l1.1-1.5
			c-1.4,0.6-2.7,0.5-3.9-0.4c-1.9-1.4-2-3.5-0.7-5.3l3.5-4.9l1.1,0.8L382.9,743.7z"/>
		<path d="M397.6,753.8c1.1-1.1,1.5-2.6,0.3-3.9c-1.2-1.2-3-0.9-4.1,0.2l-4,3.9l-1-1l6.9-6.9l1,1l-1.2,1.2c1.4-0.3,2.5-0.1,3.6,0.9
			c1,1,1.3,2.3,0.8,3.6c1.5-0.3,2.7,0,3.8,1.1c1.7,1.7,1.4,3.7-0.2,5.3l-4.3,4.2l-1-1l4-4c1.2-1.1,1.6-2.6,0.3-3.9
			c-1.2-1.2-2.9-0.9-4,0.2l-4,3.9l-1-1L397.6,753.8z"/>
	</g>
	<g>
		<g>
			<path class="st9" d="M406.3,770.1c19,28.7,20.9,66.9,1.7,98.2c-26.3,42.9-82.5,56.3-125.4,30s-56.3-82.5-30-125.4
				c15.3-24.9,40.6-39.9,67.6-42.9"/>
			<g>
				<polygon points="319.1,725.5 320,734.5 324.1,729.6 				"/>
			</g>
		</g>
	</g>
	<g class="st7">
		<path d="M923.8,717.7l-1.1,12.9l6.8,0.6l-0.1,1.4l-8.3-0.7l1.2-14.3L923.8,717.7z"/>
		<path d="M938.5,728c0.3-1.5-0.4-2.5-2-2.8c-1.6-0.3-2.6,0.6-2.9,1.4l-1.3-0.6c0.2-0.8,1.7-2.7,4.5-2.1c2,0.4,2.8,1.5,3.1,2.7
			c0.1,0.6,0,1.3,0,1.6l-1.3,6.2l-1.4-0.3l0.4-1.7l0,0c-1,1-2.2,1.5-3.6,1.2c-1.9-0.4-3-1.9-2.6-3.5l0-0.1c0.4-2.1,2.7-2.3,4.4-2
			l2.6,0.6L938.5,728z M935.4,729.2c-1-0.2-2.4-0.2-2.7,1.1c-0.2,1.1,0.6,1.9,1.7,2.1c1.7,0.4,3.2-0.6,3.6-2.3l0.1-0.3L935.4,729.2z
			"/>
		<path d="M945.5,728.3c1.2-1.2,2.6-1.4,3.6-1c0.1,0,0.4,0.1,0.4,0.2l-0.5,1.4c-0.2-0.1-0.3-0.1-0.5-0.2c-2.2-0.7-3.5,0.9-4,2.6
			l-1.4,4.6l-1.4-0.4l2.9-9.3l1.3,0.4L945.5,728.3z"/>
		<path d="M956.2,738.6c-1.2,0.8-2.7,1.2-4.4,0.5c-2.6-1.1-3.3-3.9-2.2-6.4c1-2.3,3.7-3.8,6.2-2.7c1.7,0.8,2.4,2.2,2.6,3.6l0.8-1.9
			l1.3,0.6l-3.9,9c-1.3,2.9-3.7,3.7-6.4,2.5c-2.3-1-3.5-2.9-3.1-5l1.4,0.1c-0.2,1.2,0.1,2.8,2.2,3.7c1.7,0.8,3.6,0.5,4.6-1.8
			L956.2,738.6z M957.3,736c0.8-1.8,0.1-4-1.7-4.8c-2-0.9-3.8,0.1-4.6,2.1c-0.8,1.8-0.3,3.9,1.6,4.8
			C954.5,738.9,956.5,737.8,957.3,736z"/>
		<path d="M962.5,739.3c-0.9,1.7-0.4,3.7,1.2,4.7c1.2,0.8,2.6,0.7,3.7-0.2l0.9,1c-1.5,1.3-3.5,1.3-5.2,0.3c-2.4-1.5-3.1-4.5-1.6-6.9
			c1.4-2.3,4.3-3.2,6.7-1.8c2.6,1.6,2.8,4.2,1.3,6.7c-0.1,0.1-0.2,0.3-0.3,0.4L962.5,739.3z M968.7,741.6c0.8-1.6,0.5-3.3-1.1-4.2
			c-1.5-0.9-3.3-0.4-4.4,0.9L968.7,741.6z"/>
	</g>
	<g>
		<g>
			<path class="st9" d="M975.2,751c33.8,28.6,42.6,78.3,18.7,117.2c-26.3,42.9-82.5,56.3-125.4,30c-42.9-26.3-56.3-82.5-30-125.4
				c15.3-24.9,40.6-39.9,67.6-42.9"/>
			<g>
				<polygon points="905,725.5 905.9,734.5 910,729.6 				"/>
			</g>
		</g>
	</g>
	<g class="st7">
		<path class="st8" d="M916.2,934c-62.6,0-113.4-50.8-113.4-113.4c0-62.6,50.7-113.4,113.4-113.4v-63.7
			c-39.1,0-72.4,10.8-104.1,33.8C733,734.9,715.5,845.6,773,924.7c57.5,79.1,168.2,96.6,247.3,39.2l-37.4-51.5
			C964.2,926,941.1,934,916.2,934z"/>
	</g>
	<g>
		<pattern  id="SVGID_5_" xlink:href="#Unnamed_Pattern_4" patternTransform="matrix(0 1.2193 -1.1705 0 -22537.9336 812.8091)">
		</pattern>
		<path class="st13" d="M1091.5,796l-63,8.9c0.7,5.2,1.1,10.4,1.1,15.8c0,37.7-18.4,71.1-46.8,91.7l37.4,51.5
			C1074,924.8,1100.8,861.8,1091.5,796z"/>
	</g>
	<g>
		<path class="st5" d="M916.2,707.3c57.3,0,104.6,42.4,112.3,97.6l63-8.9c-12.5-89.1-85.4-152.4-175.3-152.4L916.2,707.3
			C916.2,707.3,916.2,707.3,916.2,707.3z"/>
	</g>
</g>
</svg>
