<?xml version="1.0" encoding="utf-8"?>
<!-- Generator: Adobe Illustrator 21.1.0, SVG Export Plug-In . SVG Version: 6.00 Build 0)  -->
<svg version="1.1" id="graphNineCyber" xmlns="http://www.w3.org/2000/svg" xmlns:xlink="http://www.w3.org/1999/xlink" x="0px"
	 y="0px" viewBox="0 0 1500 1053" style="enable-background:new 0 0 1500 1053;" xml:space="preserve">
<style type="text/css">
	.st0{fill:none;}
	.st1{fill:none;stroke:#F6F6F8;stroke-width:2;stroke-linecap:round;stroke-miterlimit:10;}
	.st2{fill:none;stroke:#F6F6F8;stroke-width:2;stroke-linecap:round;stroke-miterlimit:10;stroke-dasharray:0,10;}
	.st3{opacity:0.9;}
	.st4{fill:#FF8F4E;}
	.st5{fill:#F6F6F8;}
	.st6{fill:#8EFFDE;}
	.st7{fill:#FFFFFF;}
	.st8{fill:none;stroke:#000000;stroke-width:0.75;stroke-miterlimit:10;}
	.st9{fill:url(#SVGID_1_);}
	.st10{fill:url(#SVGID_2_);}
	.st11{fill:url(#SVGID_3_);}
	.st12{fill:url(#SVGID_4_);}
	.st13{fill:url(#SVGID_5_);}
</style>
<pattern  y="1053" width="240" height="240" patternUnits="userSpaceOnUse" id="white" viewBox="1 -241 240 240" style="overflow:visible;">
	<g>
		<rect x="1" y="-241" class="st0" width="240" height="240"/>
		<g>
			<g>
				<line class="st1" x1="241" y1="-1" x2="241" y2="-1"/>
			</g>
		</g>
		<g>
			<g>
				<line class="st1" x1="1" y1="-1" x2="1" y2="-1"/>
				<line class="st2" x1="11" y1="-1" x2="236" y2="-1"/>
				<line class="st1" x1="241" y1="-1" x2="241" y2="-1"/>
			</g>
		</g>
		<g>
			<g>
				<line class="st1" x1="1" y1="-1" x2="1" y2="-1"/>
			</g>
		</g>
		<g>
			<g>
				<line class="st1" x1="241" y1="-241" x2="241" y2="-241"/>
			</g>
			<g>
				<line class="st1" x1="241" y1="-231" x2="241" y2="-231"/>
			</g>
			<g>
				<line class="st1" x1="241" y1="-221" x2="241" y2="-221"/>
			</g>
			<g>
				<line class="st1" x1="241" y1="-211" x2="241" y2="-211"/>
			</g>
			<g>
				<line class="st1" x1="241" y1="-201" x2="241" y2="-201"/>
			</g>
			<g>
				<line class="st1" x1="241" y1="-191" x2="241" y2="-191"/>
			</g>
			<g>
				<line class="st1" x1="241" y1="-181" x2="241" y2="-181"/>
			</g>
			<g>
				<line class="st1" x1="241" y1="-171" x2="241" y2="-171"/>
			</g>
			<g>
				<line class="st1" x1="241" y1="-161" x2="241" y2="-161"/>
			</g>
			<g>
				<line class="st1" x1="241" y1="-151" x2="241" y2="-151"/>
			</g>
			<g>
				<line class="st1" x1="241" y1="-141" x2="241" y2="-141"/>
			</g>
			<g>
				<line class="st1" x1="241" y1="-131" x2="241" y2="-131"/>
			</g>
			<g>
				<line class="st1" x1="241" y1="-121" x2="241" y2="-121"/>
			</g>
			<g>
				<line class="st1" x1="241" y1="-111" x2="241" y2="-111"/>
			</g>
			<g>
				<line class="st1" x1="241" y1="-101" x2="241" y2="-101"/>
			</g>
			<g>
				<line class="st1" x1="241" y1="-91" x2="241" y2="-91"/>
			</g>
			<g>
				<line class="st1" x1="241" y1="-81" x2="241" y2="-81"/>
			</g>
			<g>
				<line class="st1" x1="241" y1="-71" x2="241" y2="-71"/>
			</g>
			<g>
				<line class="st1" x1="241" y1="-61" x2="241" y2="-61"/>
			</g>
			<g>
				<line class="st1" x1="241" y1="-51" x2="241" y2="-51"/>
			</g>
			<g>
				<line class="st1" x1="241" y1="-41" x2="241" y2="-41"/>
			</g>
			<g>
				<line class="st1" x1="241" y1="-31" x2="241" y2="-31"/>
			</g>
			<g>
				<line class="st1" x1="241" y1="-21" x2="241" y2="-21"/>
			</g>
			<g>
				<line class="st1" x1="241" y1="-11" x2="241" y2="-11"/>
			</g>
			<g>
				<line class="st1" x1="241" y1="-1" x2="241" y2="-1"/>
			</g>
		</g>
		<g>
			<g>
				<line class="st1" x1="1" y1="-241" x2="1" y2="-241"/>
				<line class="st2" x1="11" y1="-241" x2="236" y2="-241"/>
				<line class="st1" x1="241" y1="-241" x2="241" y2="-241"/>
			</g>
			<g>
				<line class="st1" x1="1" y1="-231" x2="1" y2="-231"/>
				<line class="st2" x1="11" y1="-231" x2="236" y2="-231"/>
				<line class="st1" x1="241" y1="-231" x2="241" y2="-231"/>
			</g>
			<g>
				<line class="st1" x1="1" y1="-221" x2="1" y2="-221"/>
				<line class="st2" x1="11" y1="-221" x2="236" y2="-221"/>
				<line class="st1" x1="241" y1="-221" x2="241" y2="-221"/>
			</g>
			<g>
				<line class="st1" x1="1" y1="-211" x2="1" y2="-211"/>
				<line class="st2" x1="11" y1="-211" x2="236" y2="-211"/>
				<line class="st1" x1="241" y1="-211" x2="241" y2="-211"/>
			</g>
			<g>
				<line class="st1" x1="1" y1="-201" x2="1" y2="-201"/>
				<line class="st2" x1="11" y1="-201" x2="236" y2="-201"/>
				<line class="st1" x1="241" y1="-201" x2="241" y2="-201"/>
			</g>
			<g>
				<line class="st1" x1="1" y1="-191" x2="1" y2="-191"/>
				<line class="st2" x1="11" y1="-191" x2="236" y2="-191"/>
				<line class="st1" x1="241" y1="-191" x2="241" y2="-191"/>
			</g>
			<g>
				<line class="st1" x1="1" y1="-181" x2="1" y2="-181"/>
				<line class="st2" x1="11" y1="-181" x2="236" y2="-181"/>
				<line class="st1" x1="241" y1="-181" x2="241" y2="-181"/>
			</g>
			<g>
				<line class="st1" x1="1" y1="-171" x2="1" y2="-171"/>
				<line class="st2" x1="11" y1="-171" x2="236" y2="-171"/>
				<line class="st1" x1="241" y1="-171" x2="241" y2="-171"/>
			</g>
			<g>
				<line class="st1" x1="1" y1="-161" x2="1" y2="-161"/>
				<line class="st2" x1="11" y1="-161" x2="236" y2="-161"/>
				<line class="st1" x1="241" y1="-161" x2="241" y2="-161"/>
			</g>
			<g>
				<line class="st1" x1="1" y1="-151" x2="1" y2="-151"/>
				<line class="st2" x1="11" y1="-151" x2="236" y2="-151"/>
				<line class="st1" x1="241" y1="-151" x2="241" y2="-151"/>
			</g>
			<g>
				<line class="st1" x1="1" y1="-141" x2="1" y2="-141"/>
				<line class="st2" x1="11" y1="-141" x2="236" y2="-141"/>
				<line class="st1" x1="241" y1="-141" x2="241" y2="-141"/>
			</g>
			<g>
				<line class="st1" x1="1" y1="-131" x2="1" y2="-131"/>
				<line class="st2" x1="11" y1="-131" x2="236" y2="-131"/>
				<line class="st1" x1="241" y1="-131" x2="241" y2="-131"/>
			</g>
			<g>
				<line class="st1" x1="1" y1="-121" x2="1" y2="-121"/>
				<line class="st2" x1="11" y1="-121" x2="236" y2="-121"/>
				<line class="st1" x1="241" y1="-121" x2="241" y2="-121"/>
			</g>
			<g>
				<line class="st1" x1="1" y1="-111" x2="1" y2="-111"/>
				<line class="st2" x1="11" y1="-111" x2="236" y2="-111"/>
				<line class="st1" x1="241" y1="-111" x2="241" y2="-111"/>
			</g>
			<g>
				<line class="st1" x1="1" y1="-101" x2="1" y2="-101"/>
				<line class="st2" x1="11" y1="-101" x2="236" y2="-101"/>
				<line class="st1" x1="241" y1="-101" x2="241" y2="-101"/>
			</g>
			<g>
				<line class="st1" x1="1" y1="-91" x2="1" y2="-91"/>
				<line class="st2" x1="11" y1="-91" x2="236" y2="-91"/>
				<line class="st1" x1="241" y1="-91" x2="241" y2="-91"/>
			</g>
			<g>
				<line class="st1" x1="1" y1="-81" x2="1" y2="-81"/>
				<line class="st2" x1="11" y1="-81" x2="236" y2="-81"/>
				<line class="st1" x1="241" y1="-81" x2="241" y2="-81"/>
			</g>
			<g>
				<line class="st1" x1="1" y1="-71" x2="1" y2="-71"/>
				<line class="st2" x1="11" y1="-71" x2="236" y2="-71"/>
				<line class="st1" x1="241" y1="-71" x2="241" y2="-71"/>
			</g>
			<g>
				<line class="st1" x1="1" y1="-61" x2="1" y2="-61"/>
				<line class="st2" x1="11" y1="-61" x2="236" y2="-61"/>
				<line class="st1" x1="241" y1="-61" x2="241" y2="-61"/>
			</g>
			<g>
				<line class="st1" x1="1" y1="-51" x2="1" y2="-51"/>
				<line class="st2" x1="11" y1="-51" x2="236" y2="-51"/>
				<line class="st1" x1="241" y1="-51" x2="241" y2="-51"/>
			</g>
			<g>
				<line class="st1" x1="1" y1="-41" x2="1" y2="-41"/>
				<line class="st2" x1="11" y1="-41" x2="236" y2="-41"/>
				<line class="st1" x1="241" y1="-41" x2="241" y2="-41"/>
			</g>
			<g>
				<line class="st1" x1="1" y1="-31" x2="1" y2="-31"/>
				<line class="st2" x1="11" y1="-31" x2="236" y2="-31"/>
				<line class="st1" x1="241" y1="-31" x2="241" y2="-31"/>
			</g>
			<g>
				<line class="st1" x1="1" y1="-21" x2="1" y2="-21"/>
				<line class="st2" x1="11" y1="-21" x2="236" y2="-21"/>
				<line class="st1" x1="241" y1="-21" x2="241" y2="-21"/>
			</g>
			<g>
				<line class="st1" x1="1" y1="-11" x2="1" y2="-11"/>
				<line class="st2" x1="11" y1="-11" x2="236" y2="-11"/>
				<line class="st1" x1="241" y1="-11" x2="241" y2="-11"/>
			</g>
			<g>
				<line class="st1" x1="1" y1="-1" x2="1" y2="-1"/>
				<line class="st2" x1="11" y1="-1" x2="236" y2="-1"/>
				<line class="st1" x1="241" y1="-1" x2="241" y2="-1"/>
			</g>
		</g>
		<g>
			<g>
				<line class="st1" x1="1" y1="-241" x2="1" y2="-241"/>
			</g>
			<g>
				<line class="st1" x1="1" y1="-231" x2="1" y2="-231"/>
			</g>
			<g>
				<line class="st1" x1="1" y1="-221" x2="1" y2="-221"/>
			</g>
			<g>
				<line class="st1" x1="1" y1="-211" x2="1" y2="-211"/>
			</g>
			<g>
				<line class="st1" x1="1" y1="-201" x2="1" y2="-201"/>
			</g>
			<g>
				<line class="st1" x1="1" y1="-191" x2="1" y2="-191"/>
			</g>
			<g>
				<line class="st1" x1="1" y1="-181" x2="1" y2="-181"/>
			</g>
			<g>
				<line class="st1" x1="1" y1="-171" x2="1" y2="-171"/>
			</g>
			<g>
				<line class="st1" x1="1" y1="-161" x2="1" y2="-161"/>
			</g>
			<g>
				<line class="st1" x1="1" y1="-151" x2="1" y2="-151"/>
			</g>
			<g>
				<line class="st1" x1="1" y1="-141" x2="1" y2="-141"/>
			</g>
			<g>
				<line class="st1" x1="1" y1="-131" x2="1" y2="-131"/>
			</g>
			<g>
				<line class="st1" x1="1" y1="-121" x2="1" y2="-121"/>
			</g>
			<g>
				<line class="st1" x1="1" y1="-111" x2="1" y2="-111"/>
			</g>
			<g>
				<line class="st1" x1="1" y1="-101" x2="1" y2="-101"/>
			</g>
			<g>
				<line class="st1" x1="1" y1="-91" x2="1" y2="-91"/>
			</g>
			<g>
				<line class="st1" x1="1" y1="-81" x2="1" y2="-81"/>
			</g>
			<g>
				<line class="st1" x1="1" y1="-71" x2="1" y2="-71"/>
			</g>
			<g>
				<line class="st1" x1="1" y1="-61" x2="1" y2="-61"/>
			</g>
			<g>
				<line class="st1" x1="1" y1="-51" x2="1" y2="-51"/>
			</g>
			<g>
				<line class="st1" x1="1" y1="-41" x2="1" y2="-41"/>
			</g>
			<g>
				<line class="st1" x1="1" y1="-31" x2="1" y2="-31"/>
			</g>
			<g>
				<line class="st1" x1="1" y1="-21" x2="1" y2="-21"/>
			</g>
			<g>
				<line class="st1" x1="1" y1="-11" x2="1" y2="-11"/>
			</g>
			<g>
				<line class="st1" x1="1" y1="-1" x2="1" y2="-1"/>
			</g>
		</g>
		<g>
			<g>
				<line class="st1" x1="241" y1="-241" x2="241" y2="-241"/>
			</g>
		</g>
		<g>
			<g>
				<line class="st1" x1="1" y1="-241" x2="1" y2="-241"/>
				<line class="st2" x1="11" y1="-241" x2="236" y2="-241"/>
				<line class="st1" x1="241" y1="-241" x2="241" y2="-241"/>
			</g>
		</g>
		<g>
			<g>
				<line class="st1" x1="1" y1="-241" x2="1" y2="-241"/>
			</g>
		</g>
	</g>
</pattern>
<g class="st3">
	<rect x="-26.1" y="-18.3" class="st4" width="1552.1" height="1089.6"/>
</g>
<g class="st3">
	<rect x="1647.9" y="-18.3" class="st4" width="1552.1" height="1089.6"/>
</g>
<rect x="-26.1" y="1150.2" class="st5" width="1552.1" height="1089.6"/>
<g>
	<g>
		<g>
			<path class="st6" d="M1087.1,889.7l-0.9,5.2c1-1,2.6-1.2,3.3-1.2c2.9,0,5,1.9,5,4.9c0,3.3-2.7,5-5.4,5c-2.5,0-4.9-1.6-5.2-4.2
				l1.6-0.3c0.3,1.8,1.7,3,3.7,3c1.5,0,3.7-1,3.7-3.5s-1.9-3.6-3.7-3.6c-1.1,0-2.4,0.6-3.2,1.5l-1.5-0.6l1.3-7.9h8v1.5H1087.1z"/>
			<path class="st6" d="M1096.7,903c0-1.8,0.8-3.7,3.5-5.4l2.3-1.4c1.5-0.9,2.7-1.8,2.7-3.6c0-1.6-1.4-3-3.4-3c-1.7,0-2.7,1-3.1,2
				c-0.3,0.6-0.3,1.3-0.3,1.5l-1.6-0.2c0-2.2,1.8-4.7,5.1-4.7c2.8,0,5,2.1,5,4.5c0,2.2-1.2,3.5-3.2,4.7l-2.4,1.5
				c-1.3,0.8-2.5,1.9-2.6,3.3h8.4v1.5h-10.3V903z"/>
			<path class="st6" d="M1110.6,897.7c-1.1,0-2-0.9-2-2c0-1.1,0.9-2,2-2c1.1,0,2,0.9,2,2C1112.6,896.8,1111.7,897.7,1110.6,897.7z
				 M1110.6,894.4c-0.7,0-1.3,0.6-1.3,1.3c0,0.7,0.6,1.3,1.3,1.3s1.3-0.6,1.3-1.3C1111.8,895,1111.3,894.4,1110.6,894.4z
				 M1115.5,893.8h0.9l-5.8,8.9h-0.9L1115.5,893.8z M1115.5,902.7c-1.1,0-2-0.9-2-2c0-1.1,0.9-2,2-2s2,0.9,2,2
				C1117.5,901.8,1116.6,902.7,1115.5,902.7z M1115.5,899.5c-0.7,0-1.3,0.6-1.3,1.3c0,0.7,0.6,1.3,1.3,1.3s1.3-0.6,1.3-1.3
				C1116.8,900,1116.2,899.5,1115.5,899.5z"/>
		</g>
		<g class="st3">
			<path class="st7" d="M750,957.9c0-1.8,0.8-3.7,3.5-5.4l2.3-1.4c1.5-0.9,2.7-1.8,2.7-3.6c0-1.6-1.4-3-3.4-3c-1.7,0-2.7,1-3.1,2
				c-0.3,0.6-0.3,1.3-0.3,1.5l-1.6-0.2c0-2.2,1.8-4.7,5.1-4.7c2.8,0,5,2.1,5,4.5c0,2.2-1.2,3.5-3.2,4.7l-2.4,1.5
				c-1.3,0.8-2.5,1.9-2.6,3.3h8.4v1.5H750V957.9z"/>
			<path class="st7" d="M762.5,957.9c0-1.8,0.8-3.7,3.5-5.4l2.3-1.4c1.5-0.9,2.7-1.8,2.7-3.6c0-1.6-1.4-3-3.4-3c-1.7,0-2.7,1-3.1,2
				c-0.3,0.6-0.3,1.3-0.3,1.5l-1.6-0.2c0-2.2,1.8-4.7,5.1-4.7c2.8,0,5,2.1,5,4.5c0,2.2-1.2,3.5-3.2,4.7l-2.4,1.5
				c-1.3,0.8-2.5,1.9-2.6,3.3h8.4v1.5h-10.3V957.9z"/>
			<path class="st7" d="M776.4,952.6c-1.1,0-2-0.9-2-2c0-1.1,0.9-2,2-2c1.1,0,2,0.9,2,2C778.4,951.7,777.5,952.6,776.4,952.6z
				 M776.4,949.3c-0.7,0-1.3,0.6-1.3,1.3c0,0.7,0.6,1.3,1.3,1.3s1.3-0.6,1.3-1.3C777.7,949.9,777.1,949.3,776.4,949.3z M781.3,948.6
				h0.9l-5.8,8.9h-0.9L781.3,948.6z M781.4,957.6c-1.1,0-2-0.9-2-2c0-1.1,0.9-2,2-2s2,0.9,2,2C783.4,956.7,782.5,957.6,781.4,957.6z
				 M781.4,954.4c-0.7,0-1.3,0.6-1.3,1.3c0,0.7,0.6,1.3,1.3,1.3s1.3-0.6,1.3-1.3C782.6,954.9,782.1,954.4,781.4,954.4z"/>
		</g>
		<g class="st3">
			<path class="st7" d="M767.6,660.5c0-1.8,0.8-3.7,3.5-5.4l2.3-1.4c1.5-0.9,2.7-1.8,2.7-3.6c0-1.6-1.4-3-3.4-3c-1.7,0-2.7,1-3.1,2
				c-0.3,0.6-0.3,1.3-0.3,1.5l-1.6-0.2c0-2.2,1.8-4.7,5.1-4.7c2.8,0,5,2.1,5,4.5c0,2.2-1.2,3.5-3.2,4.7l-2.4,1.5
				c-1.3,0.8-2.5,1.9-2.6,3.3h8.4v1.5h-10.3V660.5z"/>
			<path class="st7" d="M785.3,661.1c-2.7,0-5-1.6-5.3-4.2l1.5-0.3c0.3,1.8,1.6,3,3.7,3c2.1,0,3.7-1.1,3.7-2.9
				c0-1.7-1.3-2.8-3.7-2.8h-1.5v-1.5h1.5c2.1,0,3.4-1.3,3.4-2.8c0-1.6-1.2-2.7-3.4-2.7c-2.1,0-3.3,1.3-3.6,2.9l-1.5-0.3
				c0.3-2.1,2.3-4,5.1-4c3.3,0,5,2,5,4c0,1.7-1,2.9-2.4,3.5v0c1.7,0.5,2.8,1.9,2.8,3.7C790.6,659.1,788.5,661.1,785.3,661.1z"/>
			<path class="st7" d="M794.2,655.2c-1.1,0-2-0.9-2-2c0-1.1,0.9-2,2-2c1.1,0,2,0.9,2,2C796.2,654.3,795.3,655.2,794.2,655.2z
				 M794.2,651.9c-0.7,0-1.3,0.6-1.3,1.3c0,0.7,0.6,1.3,1.3,1.3s1.3-0.6,1.3-1.3C795.4,652.5,794.9,651.9,794.2,651.9z M799.1,651.3
				h0.9l-5.8,8.9h-0.9L799.1,651.3z M799.1,660.2c-1.1,0-2-0.9-2-2c0-1.1,0.9-2,2-2s2,0.9,2,2C801.1,659.3,800.2,660.2,799.1,660.2z
				 M799.1,657c-0.7,0-1.3,0.6-1.3,1.3c0,0.7,0.6,1.3,1.3,1.3s1.3-0.6,1.3-1.3C800.4,657.5,799.8,657,799.1,657z"/>
		</g>
		<g>
			<path d="M708.5,815.6c-2.7,0-5-1.6-5.3-4.2l1.5-0.3c0.3,1.8,1.6,3,3.7,3c2.1,0,3.7-1.1,3.7-2.9c0-1.7-1.3-2.8-3.7-2.8H707v-1.5
				h1.5c2.1,0,3.4-1.3,3.4-2.8c0-1.6-1.2-2.7-3.4-2.7c-2.1,0-3.3,1.3-3.6,2.9l-1.5-0.3c0.3-2.1,2.3-4,5.1-4c3.3,0,5,2,5,4
				c0,1.7-1,2.9-2.4,3.5v0c1.7,0.5,2.8,1.9,2.8,3.7C713.8,813.6,711.7,815.6,708.5,815.6z"/>
			<path d="M717.4,809.6c-1.1,0-2-0.9-2-2c0-1.1,0.9-2,2-2c1.1,0,2,0.9,2,2C719.4,808.7,718.5,809.6,717.4,809.6z M717.4,806.3
				c-0.7,0-1.3,0.6-1.3,1.3c0,0.7,0.6,1.3,1.3,1.3s1.3-0.6,1.3-1.3C718.7,806.9,718.1,806.3,717.4,806.3z M722.3,805.7h0.9l-5.8,8.9
				h-0.9L722.3,805.7z M722.4,814.7c-1.1,0-2-0.9-2-2c0-1.1,0.9-2,2-2s2,0.9,2,2C724.4,813.8,723.5,814.7,722.4,814.7z M722.4,811.4
				c-0.7,0-1.3,0.6-1.3,1.3c0,0.7,0.6,1.3,1.3,1.3s1.3-0.6,1.3-1.3C723.6,812,723,811.4,722.4,811.4z"/>
		</g>
		<g>
			<g class="st3">
				<path d="M919.9,723c-2.5-0.2-4.5-1.9-4.6-4.4l1.5-0.2c0.1,1.7,1.3,3,3.2,3.2c1.9,0.2,3.5-0.7,3.7-2.4c0.2-1.6-1-2.8-3.2-3
					l-1.4-0.1l0.1-1.4l1.4,0.1c2,0.2,3.3-0.9,3.4-2.3c0.1-1.5-0.9-2.6-2.9-2.8c-2-0.2-3.2,0.9-3.6,2.4l-1.4-0.4
					c0.4-2,2.5-3.5,5.1-3.3c3.1,0.3,4.5,2.3,4.3,4.2c-0.1,1.6-1.2,2.6-2.6,3.1l0,0c1.6,0.6,2.5,2,2.3,3.7
					C925,721.6,922.9,723.3,919.9,723z"/>
				<path d="M928.7,716.7c0.8-3.5,3.7-6.7,7.6-5.7c3.8,0.9,4.9,5,4,8.5c-0.8,3.5-3.7,6.7-7.6,5.7C929,724.3,927.9,720.2,928.7,716.7
					z M930.3,717c-0.6,2.5-0.1,6.1,2.9,6.9c3,0.7,5.1-2.2,5.7-4.7c0.6-2.5,0.1-6.1-2.9-6.9C932.9,711.6,930.9,714.5,930.3,717z"/>
				<path d="M945.1,726.4l1.4-3.5l-3.5-1.4l0.5-1.3l3.5,1.4l1.4-3.5l1.3,0.5l-1.4,3.5l3.5,1.4l-0.5,1.3l-3.5-1.4l-1.4,3.5
					L945.1,726.4z"/>
				<path d="M960.5,737.2c-1.5-1-2-2.4-2-3.9l-3.7,5.7l-1.2-0.8l7.9-12.3l1.2,0.8l-1.2,1.8c1.3-0.6,2.9-0.9,4.4,0.1
					c2.3,1.5,2.5,4.6,1.1,6.7C965.7,737.7,962.8,738.8,960.5,737.2z M965.9,734.7c1.1-1.7,1-3.9-0.8-5.1c-1.7-1.1-3.9-0.4-5,1.3
					c-1.1,1.7-0.9,4,0.9,5.1C962.8,737.2,964.7,736.5,965.9,734.7z"/>
				<path d="M970,738.4c-1.2,1.5-1,3.6,0.5,4.8c1.1,0.9,2.4,1.1,3.7,0.4l0.7,1.1c-1.7,1.1-3.7,0.7-5.2-0.5c-2.2-1.8-2.3-4.9-0.5-7.1
					c1.7-2,4.8-2.5,6.9-0.7c2.3,2,2.1,4.6,0.2,6.8c-0.1,0.1-0.2,0.3-0.3,0.4L970,738.4z M975.7,741.7c1-1.5,1-3.2-0.4-4.4
					c-1.3-1.1-3.2-0.9-4.5,0.2L975.7,741.7z"/>
				<path d="M978.1,745c2.2-1.9,5.2-1.8,7.2,0.4c1.9,2.1,1.7,5.2-0.4,7.1c-2.2,1.9-5.3,1.8-7.2-0.4C975.8,750,976,746.8,978.1,745z
					 M983.9,751.4c1.5-1.4,1.9-3.7,0.4-5.3c-1.4-1.6-3.7-1.5-5.2-0.1c-1.5,1.4-1.9,3.7-0.4,5.2C980.1,752.8,982.4,752.8,983.9,751.4
					z"/>
				<path d="M985.7,762.2c-1-1.5-0.9-3-0.3-4.3l-5.7,3.8l-0.8-1.2l12.1-8.2l0.8,1.2l-1.8,1.2c1.5,0,3,0.3,4,1.9
					c1.6,2.3,0.5,5.2-1.6,6.6C990.2,764.7,987.2,764.5,985.7,762.2z M991.6,762c1.7-1.1,2.4-3.2,1.2-5c-1.1-1.7-3.5-1.9-5.1-0.8
					c-1.7,1.1-2.4,3.3-1.2,5C987.8,763.1,989.9,763.2,991.6,762z"/>
				<path d="M1003.4,762.6l-13.1,7.1l-0.7-1.3l13.1-7.1L1003.4,762.6z"/>
				<path d="M996.3,771.7c-1.7,0.9-2.5,2.8-1.7,4.5c0.6,1.3,1.7,2.1,3.1,2l0.1,1.3c-2,0.2-3.6-1-4.4-2.8c-1.1-2.6,0.1-5.5,2.7-6.6
					c2.4-1.1,5.4-0.1,6.5,2.4c1.2,2.8-0.2,5.1-2.8,6.2c-0.2,0.1-0.3,0.1-0.4,0.2L996.3,771.7z M1000,777.2c1.6-0.9,2.3-2.4,1.5-4.1
					c-0.7-1.6-2.5-2.3-4.1-1.8L1000,777.2z"/>
			</g>
			<g>
				<g>
					<path class="st8" d="M1001,793.7c4.3,21.8,0.8,45.2-11.8,65.6c-26.4,43-82.7,56.5-125.7,30.1c-43-26.4-56.5-82.7-30.1-125.7
						c15.3-25,40.7-40,67.7-43"/>
					<g>
						<polygon points="900.1,716.2 901,725.3 905.1,720.3 						"/>
					</g>
				</g>
			</g>
		</g>
		<g>
			<g>
				<path class="st6" d="M911.4,634.3v63.8c62.7,0,113.5,50.8,113.5,113.5S974,925.1,911.4,925.1c-4.7,0-9.3-0.3-13.8-0.8l-7.8,63.3
					c7.8,1,13.8,1.3,21.6,1.3c97.9,0,177.2-79.4,177.2-177.2S1009.3,634.3,911.4,634.3z"/>
			</g>
			<g>
				<pattern  id="SVGID_1_" xlink:href="#white" patternTransform="matrix(0 1.2221 -1.1732 0 -20565.1504 254.2204)">
				</pattern>
				<path class="st9" d="M797.8,819.5l-63.6,4.4c6,85.9,69.7,153.1,155.2,163.6l7.8-63.3C843.6,917.7,801.5,873.9,797.8,819.5z"/>
			</g>
			<g>
				<path d="M797.8,811.6c0-4.7,0.3-9.3,0.8-13.8l-63.3-7.8c-1.4,11.7-1.7,22.2-0.9,34l63.6-4.4
					C797.9,816.9,797.8,814.2,797.8,811.6z"/>
			</g>
			<g>
				<path class="st7" d="M911.3,698.1v-63.8c-90.1,0-165,66.3-175.9,155.6l63.3,7.8C805.5,741.6,853.3,698.1,911.3,698.1z"/>
			</g>
		</g>
	</g>
	<g>
		<g>
			<path class="st6" d="M511.7,756.8c-2.7,0-5-1.6-5.3-4.2l1.5-0.3c0.3,1.8,1.6,3,3.7,3c2.1,0,3.7-1.1,3.7-2.9
				c0-1.7-1.3-2.8-3.7-2.8h-1.5v-1.5h1.5c2.1,0,3.4-1.3,3.4-2.8c0-1.6-1.2-2.7-3.4-2.7c-2.1,0-3.3,1.3-3.6,2.9l-1.5-0.3
				c0.3-2.1,2.3-4,5.1-4c3.3,0,5,2,5,4c0,1.7-1,2.9-2.4,3.5v0c1.7,0.5,2.8,1.9,2.8,3.7C517,754.8,514.9,756.8,511.7,756.8z"/>
			<path class="st6" d="M519.4,752.5c0-1.6,1.1-3,3.2-3.7c-1.9-0.5-2.8-2.2-2.8-3.5c0-2.7,2.8-4.1,5-4.1c2.3,0,5,1.3,5,4.1
				c0,1.4-1,3-2.9,3.5c2.1,0.6,3.2,2.1,3.2,3.7c0,2.8-2.7,4.3-5.4,4.3C522.1,756.8,519.4,755.4,519.4,752.5z M528.5,752.5
				c0-2-2.1-3-3.8-3c-1.6,0-3.8,0.9-3.8,2.9c0,2.1,2.1,2.9,3.8,2.9C526.3,755.4,528.5,754.5,528.5,752.5z M521.3,745.3
				c0,1.9,2.1,2.8,3.4,2.8c1.3,0,3.4-0.9,3.4-2.8c0-1.8-2-2.7-3.4-2.7C523.3,742.7,521.3,743.6,521.3,745.3z"/>
			<path class="st6" d="M533.7,750.9c-1.1,0-2-0.9-2-2c0-1.1,0.9-2,2-2c1.1,0,2,0.9,2,2C535.8,750,534.9,750.9,533.7,750.9z
				 M533.7,747.6c-0.7,0-1.3,0.6-1.3,1.3c0,0.7,0.6,1.3,1.3,1.3s1.3-0.6,1.3-1.3C535,748.2,534.4,747.6,533.7,747.6z M538.7,746.9
				h0.9l-5.8,8.9h-0.9L538.7,746.9z M538.7,755.9c-1.1,0-2-0.9-2-2c0-1.1,0.9-2,2-2s2,0.9,2,2C540.7,755,539.8,755.9,538.7,755.9z
				 M538.7,752.7c-0.7,0-1.3,0.6-1.3,1.3c0,0.7,0.6,1.3,1.3,1.3s1.3-0.6,1.3-1.3C540,753.2,539.4,752.7,538.7,752.7z"/>
		</g>
		<g class="st3">
			<path class="st7" d="M240,1004.9c-2.7,0-5-1.6-5.3-4.2l1.5-0.3c0.3,1.8,1.6,3,3.7,3c2.1,0,3.7-1.1,3.7-2.9c0-1.7-1.3-2.8-3.7-2.8
				h-1.5v-1.5h1.5c2.1,0,3.4-1.3,3.4-2.8c0-1.6-1.2-2.7-3.4-2.7c-2.1,0-3.3,1.3-3.6,2.9l-1.5-0.3c0.3-2.1,2.3-4,5.1-4c3.3,0,5,2,5,4
				c0,1.7-1,2.9-2.4,3.5v0c1.7,0.5,2.8,1.9,2.8,3.7C245.2,1002.9,243.2,1004.9,240,1004.9z"/>
			<path class="st7" d="M252.6,1004.9c-2.7,0-5-1.6-5.3-4.2l1.5-0.3c0.3,1.8,1.6,3,3.7,3c2.1,0,3.7-1.1,3.7-2.9
				c0-1.7-1.3-2.8-3.7-2.8h-1.5v-1.5h1.5c2.1,0,3.4-1.3,3.4-2.8c0-1.6-1.2-2.7-3.4-2.7c-2.1,0-3.3,1.3-3.6,2.9l-1.5-0.3
				c0.3-2.1,2.3-4,5.1-4c3.3,0,5,2,5,4c0,1.7-1,2.9-2.4,3.5v0c1.7,0.5,2.8,1.9,2.8,3.7C257.9,1002.9,255.8,1004.9,252.6,1004.9z"/>
			<path class="st7" d="M261.5,999c-1.1,0-2-0.9-2-2c0-1.1,0.9-2,2-2c1.1,0,2,0.9,2,2C263.5,998.1,262.6,999,261.5,999z
				 M261.5,995.7c-0.7,0-1.3,0.6-1.3,1.3c0,0.7,0.6,1.3,1.3,1.3s1.3-0.6,1.3-1.3C262.8,996.2,262.2,995.7,261.5,995.7z M266.5,995
				h0.9l-5.8,8.9h-0.9L266.5,995z M266.5,1004c-1.1,0-2-0.9-2-2c0-1.1,0.9-2,2-2s2,0.9,2,2C268.5,1003.1,267.6,1004,266.5,1004z
				 M266.5,1000.7c-0.7,0-1.3,0.6-1.3,1.3c0,0.7,0.6,1.3,1.3,1.3s1.3-0.6,1.3-1.3C267.7,1001.3,267.2,1000.7,266.5,1000.7z"/>
		</g>
		<g class="st3">
			<path d="M115.1,763l-3.7,2.2l-0.7-1.2l4.4-2.7h1.6v15.3h-1.6V763z"/>
			<path d="M121.6,768.9c1-1.6,2.9-2.2,4.2-2.2c3.2,0,5.1,2.3,5.1,4.9c0,3.5-2.8,5.2-5.4,5.2c-1.7,0-3.7-1-4.6-2.6
				c-0.7-1.3-1-2.3-1-4.2c0-4.8,2.6-8.8,7.5-8.8c0.9,0,2.1,0.1,3.1,0.7l-0.6,1.4c-0.8-0.5-1.9-0.6-2.5-0.6
				C123.9,762.7,121.9,765.4,121.6,768.9z M123,769c-0.7,0.6-1.2,1.6-1.2,2.7c0,2.3,1.9,3.6,3.8,3.6c1.9,0,3.8-1.3,3.8-3.7
				c0-1.9-1.4-3.6-3.8-3.6C124.7,768.1,123.7,768.4,123,769z"/>
			<path d="M134.5,770.8c-1.1,0-2-0.9-2-2c0-1.1,0.9-2,2-2c1.1,0,2,0.9,2,2C136.5,769.9,135.6,770.8,134.5,770.8z M134.5,767.5
				c-0.7,0-1.3,0.6-1.3,1.3c0,0.7,0.6,1.3,1.3,1.3s1.3-0.6,1.3-1.3C135.7,768.1,135.2,767.5,134.5,767.5z M139.4,766.9h0.9l-5.8,8.9
				h-0.9L139.4,766.9z M139.4,775.9c-1.1,0-2-0.9-2-2c0-1.1,0.9-2,2-2s2,0.9,2,2C141.4,775,140.5,775.9,139.4,775.9z M139.4,772.6
				c-0.7,0-1.3,0.6-1.3,1.3c0,0.7,0.6,1.3,1.3,1.3s1.3-0.6,1.3-1.3C140.7,773.1,140.1,772.6,139.4,772.6z"/>
		</g>
		<g>
			<path class="st7" d="M249.3,618.8l-3.7,2.2l-0.7-1.2l4.4-2.7h1.6v15.3h-1.6V618.8z"/>
			<path class="st7" d="M259.2,632.6c-2.7,0-5-1.6-5.3-4.2l1.5-0.3c0.3,1.8,1.6,3,3.7,3c2.1,0,3.7-1.1,3.7-2.9
				c0-1.7-1.3-2.8-3.7-2.8h-1.5v-1.5h1.5c2.1,0,3.4-1.3,3.4-2.8c0-1.6-1.2-2.7-3.4-2.7c-2.1,0-3.3,1.3-3.6,2.9l-1.5-0.3
				c0.3-2.1,2.3-4,5.1-4c3.3,0,5,2,5,4c0,1.7-1,2.9-2.4,3.5v0c1.7,0.5,2.8,1.9,2.8,3.7C264.5,630.6,262.4,632.6,259.2,632.6z"/>
			<path class="st7" d="M268.1,626.6c-1.1,0-2-0.9-2-2c0-1.1,0.9-2,2-2c1.1,0,2,0.9,2,2C270.2,625.7,269.3,626.6,268.1,626.6z
				 M268.1,623.3c-0.7,0-1.3,0.6-1.3,1.3c0,0.7,0.6,1.3,1.3,1.3s1.3-0.6,1.3-1.3C269.4,623.9,268.8,623.3,268.1,623.3z M273.1,622.7
				h0.9l-5.8,8.9h-0.9L273.1,622.7z M273.1,631.7c-1.1,0-2-0.9-2-2c0-1.1,0.9-2,2-2s2,0.9,2,2C275.1,630.8,274.2,631.7,273.1,631.7z
				 M273.1,628.4c-0.7,0-1.3,0.6-1.3,1.3c0,0.7,0.6,1.3,1.3,1.3s1.3-0.6,1.3-1.3C274.3,629,273.8,628.4,273.1,628.4z"/>
		</g>
		<g>
			<g class="st3">
				<path d="M333.3,717.1c1.1-1.4,3-1.7,4.2-1.6c3,0.4,4.5,2.7,4.3,5.1c-0.4,3.2-3.2,4.6-5.6,4.3c-1.6-0.2-3.3-1.3-4-2.9
					c-0.5-1.3-0.6-2.3-0.4-4c0.5-4.5,3.4-7.9,7.9-7.4c0.8,0.1,2,0.3,2.9,1l-0.7,1.3c-0.7-0.6-1.7-0.8-2.3-0.9
					C336.1,711.5,334,713.9,333.3,717.1z M334.6,717.3c-0.8,0.5-1.3,1.4-1.4,2.3c-0.2,2.1,1.4,3.6,3.1,3.8c1.8,0.2,3.7-0.8,3.9-3
					c0.2-1.7-0.9-3.5-3.1-3.7C336.2,716.6,335.3,716.9,334.6,717.3z"/>
				<path d="M350.5,722.3l0.4-1.4l8,2.6l-0.4,1.4L350.5,722.3z"/>
				<path d="M368.4,735.2c-2.2-1.2-3.3-3.6-2.4-5.8l1.4,0.4c-0.6,1.6-0.1,3.2,1.7,4.2c1.7,0.9,3.5,0.7,4.3-0.7
					c0.8-1.4,0.2-2.9-1.7-4l-1.3-0.7l0.7-1.2l1.2,0.7c1.7,0.9,3.4,0.5,4-0.7c0.7-1.3,0.3-2.8-1.5-3.8c-1.7-0.9-3.3-0.5-4.2,0.7
					l-1.1-1c1.2-1.6,3.7-2.3,6-1c2.7,1.5,3.2,3.9,2.2,5.6c-0.8,1.4-2.1,1.9-3.6,1.8l0,0c1.2,1.2,1.5,2.8,0.6,4.3
					C373.7,736,371.1,736.7,368.4,735.2z"/>
				<path d="M379.1,733c2.2-2.8,6.1-4.6,9.2-2.2c3.1,2.4,2.4,6.6,0.3,9.4c-2.2,2.8-6.1,4.6-9.2,2.2C376.3,740,376.9,735.8,379.1,733
					z M380.4,733.9c-1.6,2.1-2.6,5.5-0.1,7.4c2.5,1.9,5.5,0,7.1-2c1.6-2,2.6-5.6,0.1-7.4C385,730,381.9,731.8,380.4,733.9z"/>
			</g>
			<g>
				<g>
					<path class="st8" d="M320.9,720.5c-49.2,2.1-88.5,42.6-88.5,92.4c0,51.1,41.4,92.5,92.5,92.5s92.5-41.4,92.5-92.5
						c0-25.1-10-47.9-26.3-64.6"/>
					<g>
						<polygon points="320.4,725.1 320.1,716 324.8,720.4 						"/>
					</g>
				</g>
			</g>
		</g>
		<g>
			<g>
				<path class="st7" d="M325,699v-63.5c-51,0-95,19.2-129.8,56.4l46.5,43.3C262.5,713,292.1,699,325,699z"/>
			</g>
			<g>
				<path d="M211.1,812.9c0-30,11.6-57.3,30.6-77.7l-46.5-43.3c-42.8,45.9-57.9,106.3-41.6,166.9l61.4-16.4
					C212.4,833,211.1,823.1,211.1,812.9z"/>
			</g>
			<g>
				<path class="st6" d="M325,635.5V699c62.9,0,113.9,51,113.9,113.9c0,32.2-13.3,61.2-34.8,81.9l44.1,45.7
					c36.7-35.4,54.2-76.7,54.2-127.6C502.4,714.9,423,635.5,325,635.5z"/>
			</g>
			<g>
				<pattern  id="SVGID_2_" xlink:href="#white" patternTransform="matrix(0 1.2221 -1.1732 0 -20681.5195 163.776)">
				</pattern>
				<path class="st10" d="M404.1,894.7c-20.5,19.8-48.4,32-79.1,32c-52.7,0-97-35.8-110-84.4l-61.4,16.4c8.1,30.3,22,54.8,43.8,77.3
					c68.1,70.5,180.4,72.4,250.9,4.4L404.1,894.7z"/>
			</g>
		</g>
	</g>
	<g>
		<g>
			<path class="st6" d="M1323.6,272.1c0-1.8,0.8-3.7,3.5-5.4l2.3-1.4c1.5-0.9,2.7-1.8,2.7-3.6c0-1.6-1.4-3-3.4-3c-1.7,0-2.7,1-3.1,2
				c-0.3,0.6-0.3,1.3-0.3,1.5l-1.6-0.2c0-2.2,1.8-4.7,5.1-4.7c2.8,0,5,2.2,5,4.5c0,2.2-1.2,3.5-3.2,4.7l-2.4,1.5
				c-1.3,0.8-2.5,1.9-2.6,3.3h8.4v1.5h-10.3V272.1z"/>
			<path class="st6" d="M1337.8,264.8c1-1.6,2.9-2.2,4.2-2.2c3.2,0,5.1,2.3,5.1,4.9c0,3.5-2.8,5.2-5.4,5.2c-1.7,0-3.7-1-4.6-2.6
				c-0.7-1.3-1-2.3-1-4.2c0-4.8,2.6-8.8,7.5-8.8c0.9,0,2.1,0.1,3.1,0.7l-0.6,1.4c-0.8-0.5-1.9-0.6-2.5-0.6
				C1340.2,258.6,1338.2,261.4,1337.8,264.8z M1339.2,264.9c-0.7,0.6-1.2,1.6-1.2,2.7c0,2.3,1.9,3.6,3.8,3.6c1.9,0,3.8-1.3,3.8-3.7
				c0-1.9-1.4-3.6-3.8-3.6C1340.9,264,1339.9,264.3,1339.2,264.9z"/>
			<path class="st6" d="M1350.7,266.7c-1.1,0-2-0.9-2-2c0-1.1,0.9-2,2-2c1.1,0,2,0.9,2,2C1352.7,265.8,1351.8,266.7,1350.7,266.7z
				 M1350.7,263.4c-0.7,0-1.3,0.6-1.3,1.3c0,0.7,0.6,1.3,1.3,1.3s1.3-0.6,1.3-1.3C1352,264,1351.4,263.4,1350.7,263.4z
				 M1355.6,262.8h0.9l-5.8,8.9h-0.9L1355.6,262.8z M1355.6,271.8c-1.1,0-2-0.9-2-2c0-1.1,0.9-2,2-2s2,0.9,2,2
				C1357.7,270.9,1356.8,271.8,1355.6,271.8z M1355.6,268.5c-0.7,0-1.3,0.6-1.3,1.3c0,0.7,0.6,1.3,1.3,1.3s1.3-0.6,1.3-1.3
				C1356.9,269.1,1356.3,268.5,1355.6,268.5z"/>
		</g>
		<g>
			<path class="st7" d="M1180.6,225.6c-2.7,0-5-1.6-5.3-4.2l1.5-0.3c0.3,1.8,1.6,3,3.7,3c2.1,0,3.7-1.1,3.7-2.9s-1.3-2.8-3.7-2.8
				h-1.5v-1.5h1.5c2.1,0,3.4-1.3,3.4-2.8c0-1.6-1.2-2.7-3.4-2.7c-2.1,0-3.3,1.3-3.6,2.9l-1.5-0.3c0.3-2.1,2.3-4,5.1-4c3.3,0,5,2,5,4
				c0,1.7-1,2.9-2.4,3.5v0c1.7,0.5,2.8,1.9,2.8,3.7C1185.8,223.6,1183.8,225.6,1180.6,225.6z"/>
			<path class="st7" d="M1189.5,219.6c-1.1,0-2-0.9-2-2c0-1.1,0.9-2,2-2c1.1,0,2,0.9,2,2C1191.5,218.7,1190.6,219.6,1189.5,219.6z
				 M1189.5,216.4c-0.7,0-1.3,0.6-1.3,1.3c0,0.7,0.6,1.3,1.3,1.3s1.3-0.6,1.3-1.3C1190.7,216.9,1190.2,216.4,1189.5,216.4z
				 M1194.4,215.7h0.9l-5.8,8.9h-0.9L1194.4,215.7z M1194.4,224.7c-1.1,0-2-0.9-2-2c0-1.1,0.9-2,2-2s2,0.9,2,2
				C1196.4,223.8,1195.5,224.7,1194.4,224.7z M1194.4,221.4c-0.7,0-1.3,0.6-1.3,1.3c0,0.7,0.6,1.3,1.3,1.3s1.3-0.6,1.3-1.3
				C1195.7,222,1195.1,221.4,1194.4,221.4z"/>
		</g>
		<g class="st3">
			<path class="st7" d="M1353.2,540.2c0-1.8,0.8-3.7,3.5-5.4l2.3-1.4c1.5-0.9,2.7-1.8,2.7-3.6c0-1.6-1.4-3-3.4-3c-1.7,0-2.7,1-3.1,2
				c-0.3,0.6-0.3,1.3-0.3,1.5l-1.6-0.2c0-2.2,1.8-4.7,5.1-4.7c2.8,0,5,2.1,5,4.5c0,2.2-1.2,3.5-3.2,4.7l-2.4,1.5
				c-1.3,0.8-2.5,1.9-2.6,3.3h8.4v1.5h-10.3V540.2z"/>
			<path class="st7" d="M1365.8,533.1c0-3.8,2.2-7.9,6.4-7.9c4.2,0,6.3,4,6.3,7.8s-2.2,7.8-6.4,7.8
				C1368,540.9,1365.8,536.9,1365.8,533.1z M1367.5,533c0,2.8,1.4,6.4,4.7,6.4c3.3,0,4.7-3.6,4.7-6.3s-1.4-6.4-4.7-6.4
				S1367.5,530.3,1367.5,533z"/>
			<path class="st7" d="M1382.2,534.9c-1.1,0-2-0.9-2-2c0-1.1,0.9-2,2-2c1.1,0,2,0.9,2,2C1384.2,534,1383.3,534.9,1382.2,534.9z
				 M1382.2,531.6c-0.7,0-1.3,0.6-1.3,1.3c0,0.7,0.6,1.3,1.3,1.3s1.3-0.6,1.3-1.3C1383.4,532.2,1382.9,531.6,1382.2,531.6z
				 M1387.1,531h0.9l-5.8,8.9h-0.9L1387.1,531z M1387.1,539.9c-1.1,0-2-0.9-2-2c0-1.1,0.9-2,2-2s2,0.9,2,2
				C1389.1,539,1388.2,539.9,1387.1,539.9z M1387.1,536.7c-0.7,0-1.3,0.6-1.3,1.3c0,0.7,0.6,1.3,1.3,1.3s1.3-0.6,1.3-1.3
				C1388.4,537.2,1387.8,536.7,1387.1,536.7z"/>
		</g>
		<g class="st3">
			<path d="M1008.9,515.1l-0.9,5.2c1-1,2.6-1.2,3.3-1.2c2.9,0,5,1.9,5,4.9c0,3.3-2.7,5-5.4,5c-2.5,0-4.9-1.6-5.2-4.2l1.6-0.3
				c0.3,1.8,1.7,3,3.7,3c1.5,0,3.7-1,3.7-3.5s-1.9-3.6-3.7-3.6c-1.1,0-2.4,0.6-3.2,1.5l-1.5-0.6l1.3-7.9h8v1.5H1008.9z"/>
			<path d="M1022.1,515.3l-3.7,2.2l-0.7-1.2l4.4-2.7h1.6v15.3h-1.6V515.3z"/>
			<path d="M1028.3,523.1c-1.1,0-2-0.9-2-2c0-1.1,0.9-2,2-2c1.1,0,2,0.9,2,2C1030.3,522.2,1029.4,523.1,1028.3,523.1z M1028.3,519.8
				c-0.7,0-1.3,0.6-1.3,1.3c0,0.7,0.6,1.3,1.3,1.3s1.3-0.6,1.3-1.3C1029.5,520.4,1029,519.8,1028.3,519.8z M1033.2,519.1h0.9
				l-5.8,8.9h-0.9L1033.2,519.1z M1033.2,528.1c-1.1,0-2-0.9-2-2c0-1.1,0.9-2,2-2s2,0.9,2,2C1035.2,527.2,1034.3,528.1,1033.2,528.1
				z M1033.2,524.9c-0.7,0-1.3,0.6-1.3,1.3c0,0.7,0.6,1.3,1.3,1.3s1.3-0.6,1.3-1.3C1034.5,525.4,1033.9,524.9,1033.2,524.9z"/>
		</g>
		<g>
			<g class="st3">
				<path d="M1211.7,316.7l-0.1,1.4l-8.2,3l7.5,4.4l-0.1,1.4l-9-5.4l0.1-1.3L1211.7,316.7z"/>
				<path d="M1218.7,317.1l-1.9,4.6c1.1-0.7,2.6-0.6,3.3-0.4c2.6,0.6,4.2,2.8,3.6,5.6c-0.7,3-3.5,4-5.9,3.5
					c-2.3-0.5-4.2-2.5-3.9-4.9l1.5,0c-0.1,1.7,1,3.1,2.8,3.6c1.4,0.3,3.6-0.1,4.1-2.4c0.5-2.3-1-3.6-2.6-4c-1-0.2-2.3,0-3.3,0.7
					l-1.2-0.8l2.8-6.9l7.3,1.7l-0.3,1.4L1218.7,317.1z"/>
				<path d="M1235.1,336.1c-1.7-0.7-2.3-2.1-2.6-3.5l-2.8,6.2l-1.3-0.6l6-13.3l1.3,0.6l-0.9,1.9c1.2-0.8,2.7-1.3,4.4-0.5
					c2.5,1.1,3.2,4.2,2.1,6.5C1240.3,335.8,1237.6,337.3,1235.1,336.1z M1240,332.8c0.8-1.9,0.4-4-1.6-4.9c-1.8-0.8-3.9,0.2-4.7,2
					c-0.8,1.8-0.3,4.1,1.6,4.9C1237.3,335.7,1239.2,334.7,1240,332.8z"/>
				<path d="M1244.6,335.8c-0.9,1.7-0.4,3.7,1.2,4.7c1.2,0.8,2.6,0.7,3.7-0.2l0.9,1c-1.5,1.3-3.6,1.3-5.2,0.2
					c-2.4-1.5-3-4.5-1.5-6.9c1.4-2.3,4.4-3.2,6.7-1.8c2.6,1.6,2.8,4.3,1.3,6.7c-0.1,0.1-0.2,0.3-0.3,0.4L1244.6,335.8z
					 M1250.8,338.2c0.8-1.6,0.5-3.3-1.1-4.3c-1.4-0.9-3.3-0.4-4.4,0.8L1250.8,338.2z"/>
				<path d="M1253.6,341.1c1.8-2.2,4.9-2.6,7.2-0.7c2.2,1.8,2.5,4.9,0.7,7.1c-1.8,2.2-4.9,2.5-7.2,0.7
					C1252.1,346.4,1251.9,343.3,1253.6,341.1z M1260.3,346.6c1.3-1.6,1.3-3.9-0.3-5.3c-1.6-1.3-3.9-0.9-5.2,0.7
					c-1.3,1.6-1.3,3.9,0.4,5.3C1256.8,348.6,1259,348.2,1260.3,346.6z"/>
				<path d="M1263.7,357c-1.2-1.3-1.4-2.8-1-4.2l-5,4.6l-1-1l10.7-9.9l1,1l-1.6,1.4c1.4-0.3,3-0.1,4.3,1.2c1.9,2,1.3,5.1-0.6,6.8
					C1268.6,358.8,1265.6,359.1,1263.7,357z M1269.5,355.9c1.5-1.4,1.9-3.5,0.5-5.1c-1.4-1.5-3.7-1.3-5.1,0
					c-1.5,1.4-1.8,3.6-0.4,5.2C1265.9,357.6,1268,357.3,1269.5,355.9z"/>
				<path d="M1281.3,354.7l-11.9,9l-0.9-1.2l11.9-9L1281.3,354.7z"/>
				<path d="M1275.7,364.8c-1.6,1.1-2,3.1-1,4.7c0.8,1.2,2,1.8,3.4,1.5l0.3,1.3c-1.9,0.5-3.7-0.4-4.8-2.1c-1.5-2.4-0.7-5.4,1.7-6.9
					c2.3-1.4,5.3-1,6.8,1.4c1.6,2.6,0.6,5.1-1.8,6.6c-0.1,0.1-0.3,0.2-0.4,0.2L1275.7,364.8z M1280.1,369.7c1.4-1.1,1.9-2.7,0.9-4.3
					c-0.9-1.4-2.8-1.9-4.3-1.2L1280.1,369.7z"/>
			</g>
			<g>
				<g>
					<path class="st8" d="M1282.6,383.1c10.3,25.9,8.7,56.1-7,81.6c-26.4,43-82.7,56.5-125.7,30.1s-56.5-82.7-30.1-125.7
						c15.3-25,40.7-40,67.7-43"/>
					<g>
						<polygon points="1186.4,321.6 1187.3,330.7 1191.4,325.7 						"/>
					</g>
				</g>
			</g>
		</g>
		<g>
			<g>
				<path d="M1197.7,529.4c-62.8,0-113.6-50.9-113.6-113.6c0-55.4,39.6-101.5,92-111.6l-12.1-62.5c-3.8,0.7-8.3,1.8-12.1,2.8
					c-94.6,25.3-150.7,122.6-125.4,217.1c25.3,94.6,122.6,150.7,217.1,125.4l-16.5-61.4C1217.7,528.1,1207.8,529.4,1197.7,529.4z"/>
			</g>
			<g>
				<path class="st7" d="M1197.7,303.3C1197.7,303.3,1197.7,303.3,1197.7,303.3l0-63.7c-11.8,0-22.3,1-33.8,3.3l12.1,62.5
					C1183,304,1190.2,303.3,1197.7,303.3z"/>
			</g>
			<g>
				<path class="st6" d="M1197.7,239.7v63.7c62.8,0,113.6,50.9,113.6,113.6c0,2-0.1,4-0.2,5.9l63.6,3.3c0.2-3.9,0.2-5.4,0.2-9.3
					C1375,319,1295.6,239.7,1197.7,239.7z"/>
			</g>
			<g>
				<pattern  id="SVGID_3_" xlink:href="#white" patternTransform="matrix(0 1.2221 -1.1732 0 -20371.832 283.7674)">
				</pattern>
				<path class="st11" d="M1311.4,422.7c-2.6,50-37.4,91.4-84.1,103.9l16.5,61.4c75.7-20.3,127.1-83.7,131.2-162L1311.4,422.7z"/>
			</g>
		</g>
	</g>
	<g>
		<g>
			<path class="st6" d="M804.4,377.8c-2.7,0-5-1.6-5.3-4.2l1.5-0.3c0.3,1.8,1.6,3,3.7,3c2.1,0,3.7-1.1,3.7-2.9s-1.3-2.8-3.7-2.8
				h-1.5v-1.5h1.5c2.1,0,3.4-1.3,3.4-2.8c0-1.6-1.2-2.7-3.4-2.7c-2.1,0-3.3,1.3-3.6,2.9l-1.5-0.3c0.3-2.1,2.3-4,5.1-4c3.3,0,5,2,5,4
				c0,1.7-1,2.9-2.4,3.5v0c1.7,0.5,2.8,1.9,2.8,3.7C809.7,375.8,807.6,377.8,804.4,377.8z"/>
			<path class="st6" d="M813.6,370c1-1.6,2.9-2.2,4.2-2.2c3.2,0,5.1,2.3,5.1,4.9c0,3.5-2.8,5.2-5.4,5.2c-1.7,0-3.7-1-4.6-2.6
				c-0.7-1.3-1-2.3-1-4.2c0-4.8,2.6-8.8,7.5-8.8c0.9,0,2.1,0.1,3.1,0.7l-0.6,1.4c-0.8-0.5-1.9-0.6-2.5-0.6
				C815.9,363.8,813.9,366.5,813.6,370z M815,370.1c-0.7,0.6-1.2,1.6-1.2,2.7c0,2.3,1.9,3.6,3.8,3.6c1.9,0,3.8-1.3,3.8-3.7
				c0-1.9-1.4-3.6-3.8-3.6C816.7,369.2,815.7,369.5,815,370.1z"/>
			<path class="st6" d="M826.5,371.9c-1.1,0-2-0.9-2-2c0-1.1,0.9-2,2-2c1.1,0,2,0.9,2,2C828.5,371,827.6,371.9,826.5,371.9z
				 M826.5,368.6c-0.7,0-1.3,0.6-1.3,1.3c0,0.7,0.6,1.3,1.3,1.3s1.3-0.6,1.3-1.3C827.7,369.2,827.2,368.6,826.5,368.6z M831.4,368
				h0.9l-5.8,8.9h-0.9L831.4,368z M831.4,376.9c-1.1,0-2-0.9-2-2c0-1.1,0.9-2,2-2s2,0.9,2,2C833.4,376,832.5,376.9,831.4,376.9z
				 M831.4,373.7c-0.7,0-1.3,0.6-1.3,1.3c0,0.7,0.6,1.3,1.3,1.3s1.3-0.6,1.3-1.3C832.7,374.2,832.1,373.7,831.4,373.7z"/>
		</g>
		<g class="st3">
			<path class="st7" d="M605,619.7c0-1.8,0.8-3.7,3.5-5.4l2.3-1.4c1.5-0.9,2.7-1.8,2.7-3.6c0-1.6-1.4-3-3.4-3c-1.7,0-2.7,1-3.1,2
				c-0.3,0.6-0.3,1.3-0.3,1.5l-1.6-0.2c0-2.2,1.8-4.7,5.1-4.7c2.8,0,5,2.1,5,4.5c0,2.2-1.2,3.5-3.2,4.7l-2.4,1.5
				c-1.3,0.8-2.5,1.9-2.6,3.3h8.4v1.5H605V619.7z"/>
			<path class="st7" d="M620.3,606.4l-0.9,5.2c1-1,2.6-1.2,3.3-1.2c2.9,0,5,1.9,5,4.9c0,3.3-2.7,5-5.4,5c-2.5,0-4.9-1.6-5.2-4.2
				l1.6-0.3c0.3,1.8,1.7,3,3.7,3c1.5,0,3.7-1,3.7-3.5s-1.9-3.6-3.7-3.6c-1.1,0-2.4,0.6-3.2,1.5l-1.5-0.6l1.3-7.9h8v1.5H620.3z"/>
			<path class="st7" d="M631.3,614.3c-1.1,0-2-0.9-2-2c0-1.1,0.9-2,2-2c1.1,0,2,0.9,2,2C633.3,613.4,632.4,614.3,631.3,614.3z
				 M631.3,611.1c-0.7,0-1.3,0.6-1.3,1.3c0,0.7,0.6,1.3,1.3,1.3s1.3-0.6,1.3-1.3C632.5,611.6,632,611.1,631.3,611.1z M636.2,610.4
				h0.9l-5.8,8.9h-0.9L636.2,610.4z M636.2,619.4c-1.1,0-2-0.9-2-2c0-1.1,0.9-2,2-2s2,0.9,2,2C638.2,618.5,637.3,619.4,636.2,619.4z
				 M636.2,616.1c-0.7,0-1.3,0.6-1.3,1.3c0,0.7,0.6,1.3,1.3,1.3s1.3-0.6,1.3-1.3C637.5,616.7,636.9,616.1,636.2,616.1z"/>
		</g>
		<g class="st3">
			<path d="M393.9,363.9c0-1.8,0.8-3.7,3.5-5.4l2.3-1.4c1.5-0.9,2.7-1.8,2.7-3.6c0-1.6-1.4-3-3.4-3c-1.7,0-2.7,1-3.1,2
				c-0.3,0.6-0.3,1.3-0.3,1.5l-1.6-0.2c0-2.2,1.8-4.7,5.1-4.7c2.8,0,5,2.2,5,4.5c0,2.2-1.2,3.5-3.2,4.7l-2.4,1.5
				c-1.3,0.8-2.5,1.9-2.6,3.3h8.4v1.5h-10.3V363.9z"/>
			<path d="M409.3,350.6l-0.9,5.2c1-1,2.6-1.2,3.3-1.2c2.9,0,5,1.9,5,4.9c0,3.3-2.7,5-5.4,5c-2.5,0-4.9-1.6-5.2-4.2l1.6-0.3
				c0.3,1.8,1.7,3,3.7,3c1.5,0,3.7-1,3.7-3.5s-1.9-3.6-3.7-3.6c-1.1,0-2.4,0.6-3.2,1.5l-1.5-0.6l1.3-7.9h8v1.5H409.3z"/>
			<path d="M420.3,358.6c-1.1,0-2-0.9-2-2c0-1.1,0.9-2,2-2c1.1,0,2,0.9,2,2C422.3,357.7,421.4,358.6,420.3,358.6z M420.3,355.3
				c-0.7,0-1.3,0.6-1.3,1.3c0,0.7,0.6,1.3,1.3,1.3s1.3-0.6,1.3-1.3C421.5,355.9,421,355.3,420.3,355.3z M425.2,354.6h0.9l-5.8,8.9
				h-0.9L425.2,354.6z M425.2,363.6c-1.1,0-2-0.9-2-2c0-1.1,0.9-2,2-2s2,0.9,2,2C427.2,362.7,426.3,363.6,425.2,363.6z M425.2,360.4
				c-0.7,0-1.3,0.6-1.3,1.3c0,0.7,0.6,1.3,1.3,1.3s1.3-0.6,1.3-1.3C426.5,360.9,425.9,360.4,425.2,360.4z"/>
		</g>
		<g>
			<path class="st7" d="M513.9,226.5l-3.7,2.2l-0.7-1.2l4.4-2.7h1.6v15.3h-1.6V226.5z"/>
			<path class="st7" d="M526.1,240.1v-3.7h-8v-1.8l7.5-9.9h2v10.2h2.6v1.4h-2.6v3.7H526.1z M526.1,235.1v-8.6l-6.5,8.6H526.1z"/>
			<path class="st7" d="M533.4,234.3c-1.1,0-2-0.9-2-2c0-1.1,0.9-2,2-2c1.1,0,2,0.9,2,2C535.4,233.4,534.5,234.3,533.4,234.3z
				 M533.4,231.1c-0.7,0-1.3,0.6-1.3,1.3c0,0.7,0.6,1.3,1.3,1.3s1.3-0.6,1.3-1.3C534.6,231.6,534.1,231.1,533.4,231.1z M538.3,230.4
				h0.9l-5.8,8.9h-0.9L538.3,230.4z M538.3,239.4c-1.1,0-2-0.9-2-2c0-1.1,0.9-2,2-2s2,0.9,2,2C540.3,238.5,539.4,239.4,538.3,239.4z
				 M538.3,236.1c-0.7,0-1.3,0.6-1.3,1.3c0,0.7,0.6,1.3,1.3,1.3s1.3-0.6,1.3-1.3C539.6,236.7,539,236.1,538.3,236.1z"/>
		</g>
		<g>
			<g class="st3">
				<path d="M618.8,322.6l-2,3.5l-1.5-0.2l7.7-13.6l1.7,0.2l4.7,14.9l-1.6-0.2l-1.2-3.8L618.8,322.6z M619.6,321.3l6.6,0.7l-2.5-8.1
					L619.6,321.3z"/>
				<path d="M635.8,313.7l-3.2,14.6l-1.4-0.3l3.2-14.6L635.8,313.7z"/>
				<path d="M641.5,315.2l-4,14.4l-1.4-0.4l4-14.4L641.5,315.2z"/>
				<path d="M650.6,334.7c-1.7-0.8-2.3-2.1-2.5-3.6l-0.9,1.9l-1.3-0.6l6.2-13.6l1.3,0.6l-3,6.6c1.3-0.8,2.7-1.3,4.4-0.5
					c2.5,1.2,3.1,4.2,2.1,6.5C655.8,334.4,653.2,335.8,650.6,334.7z M655.6,331.4c0.8-1.8,0.4-4-1.5-4.9c-1.8-0.8-3.9,0.2-4.7,2
					c-0.8,1.8-0.3,4.1,1.6,4.9C652.9,334.3,654.7,333.3,655.6,331.4z"/>
				<path d="M660.5,335c-0.9,1.5-0.8,3,0.7,4c1.4,0.9,3.2,0.4,4.1-1l3-4.7l1.2,0.8l-5.3,8.3l-1.2-0.7l1-1.5
					c-1.4,0.7-2.7,0.6-3.9-0.1c-2-1.3-2.2-3.4-1-5.3l3.2-5.1l1.2,0.8L660.5,335z"/>
				<path d="M669.2,346.3c-2.1-1.7-1.6-3.6-1.1-4.6l1.2,0.6c-0.4,0.8-0.6,2,0.6,3c0.8,0.7,1.9,0.8,2.6,0.1c0.8-0.9-0.1-1.9-0.8-2.7
					c-1.1-1.2-2-2.7-0.8-4.2c1.2-1.4,3.1-1.2,4.4-0.2c2,1.6,1.6,3.5,1.1,4.3l-1.2-0.6c0.3-0.6,0.5-1.8-0.7-2.8
					c-0.8-0.7-1.9-0.6-2.4,0c-0.8,1,0.1,1.9,0.8,2.7c1.1,1.2,1.8,2.8,0.7,4.2C672.6,347.6,670.6,347.5,669.2,346.3z"/>
				<path d="M681.8,344.3l-6.8,7.1l-1-1l6.8-7.1L681.8,344.3z M684.5,340.5c0.4,0.4,0.5,1.1,0,1.5c-0.4,0.4-1.1,0.4-1.5,0
					c-0.4-0.4-0.4-1.1,0-1.5C683.4,340.1,684.1,340.1,684.5,340.5z"/>
				<path d="M686.5,355.4c1.3-1.1,1.7-2.6,0.5-4c-1.1-1.3-2.9-1.3-4.3-0.2l-4.2,3.6l-0.9-1.1l7.4-6.4l0.9,1.1l-1.4,1.2
					c1.5-0.3,2.8,0.2,3.7,1.3c1.6,1.8,1.2,3.9-0.5,5.4l-4.6,4l-0.9-1.1L686.5,355.4z"/>
				<path d="M689.2,361c-1.5,1.1-1.9,3.2-0.9,4.8c0.8,1.2,2,1.7,3.4,1.4l0.4,1.3c-1.9,0.6-3.8-0.3-4.8-1.9c-1.6-2.4-0.9-5.4,1.5-6.9
					c2.2-1.5,5.3-1.1,6.8,1.2c1.7,2.5,0.7,5-1.6,6.6c-0.1,0.1-0.3,0.2-0.4,0.2L689.2,361z M693.8,365.7c1.4-1.1,1.8-2.8,0.8-4.3
					c-0.9-1.4-2.9-1.8-4.4-1.1L693.8,365.7z"/>
				<path d="M692.3,375.1c-1.2-2.4,0-4,0.9-4.6l0.9,1c-0.7,0.6-1.3,1.6-0.7,3c0.5,0.9,1.4,1.6,2.3,1.1c1.1-0.5,0.7-1.8,0.4-2.8
					c-0.5-1.6-0.7-3.2,1-4.1c1.6-0.8,3.4,0.2,4.1,1.6c1.2,2.3,0,3.8-0.8,4.4l-0.9-1c0.5-0.4,1.2-1.4,0.5-2.8
					c-0.5-0.9-1.5-1.3-2.2-0.9c-1.1,0.6-0.7,1.8-0.3,2.8c0.5,1.5,0.5,3.3-1.1,4.1C694.9,377.7,693.1,376.8,692.3,375.1z"/>
				<path d="M696,383.5c-0.9-2.5,0.4-3.9,1.4-4.5l0.8,1.1c-0.8,0.5-1.5,1.5-1,2.9c0.4,1,1.3,1.7,2.2,1.3c1.1-0.4,0.9-1.7,0.7-2.7
					c-0.4-1.6-0.4-3.3,1.4-4c1.7-0.7,3.3,0.5,3.9,2c0.9,2.4-0.4,3.8-1.2,4.3l-0.8-1.1c0.6-0.4,1.4-1.3,0.8-2.7
					c-0.4-1-1.3-1.5-2.1-1.2c-1.1,0.4-0.8,1.7-0.6,2.7c0.4,1.6,0.2,3.4-1.5,4C698.3,386.4,696.7,385.3,696,383.5z"/>
				<path d="M700.1,397.6c-0.5-2.6,1.1-3.8,2.1-4.2l0.6,1.2c-0.8,0.4-1.7,1.2-1.4,2.7c0.2,1,1,1.9,2,1.7c1.2-0.2,1.2-1.5,1.1-2.6
					c-0.1-1.6,0.2-3.3,2-3.7c1.8-0.4,3.2,1.1,3.5,2.6c0.5,2.5-1,3.7-1.9,4l-0.6-1.2c0.6-0.3,1.6-1,1.2-2.6c-0.2-1-1.1-1.7-1.9-1.5
					c-1.2,0.2-1.1,1.6-1,2.6c0.1,1.6-0.4,3.4-2.1,3.7C701.9,400.8,700.4,399.4,700.1,397.6z"/>
				<path d="M711.1,404.1l-9.7,1.2l-0.2-1.4l9.7-1.2L711.1,404.1z M715.6,402.8c0.1,0.6-0.3,1.1-0.9,1.2c-0.6,0.1-1.1-0.3-1.2-0.9
					c-0.1-0.6,0.3-1.1,0.9-1.2C715,401.8,715.5,402.2,715.6,402.8z"/>
				<path d="M702,415.7l-0.3-7.8l1.2,0l7.6,5.8l-0.2-6l1.2,0l0.3,7.7l-1.2,0l-7.6-5.8l0.2,6.1L702,415.7z"/>
				<path d="M706.4,419.2c-1.9,0-3.5,1.3-3.6,3.2c-0.1,1.4,0.5,2.6,1.9,3.2l-0.5,1.2c-1.8-0.7-2.8-2.6-2.6-4.5
					c0.2-2.8,2.6-4.8,5.4-4.6c2.7,0.2,4.9,2.4,4.7,5.1c-0.2,3-2.5,4.4-5.4,4.2c-0.2,0-0.3,0-0.5-0.1L706.4,419.2z M707.1,425.8
					c1.8,0,3.1-1.1,3.3-2.9c0.1-1.7-1.2-3.2-2.8-3.5L707.1,425.8z"/>
				<path d="M700.1,432.3c0.5-2.6,2.4-3.1,3.6-3.1l0.1,1.4c-0.9,0-2.1,0.5-2.4,2c-0.2,1,0.2,2.1,1.2,2.3c1.2,0.2,1.7-1,2-1.9
					c0.5-1.6,1.4-3,3.3-2.6c1.8,0.4,2.5,2.2,2.2,3.8c-0.5,2.5-2.3,3-3.3,3l-0.1-1.3c0.7,0,1.8-0.4,2.1-1.9c0.2-1-0.3-2-1.2-2.1
					c-1.2-0.2-1.6,1-2,2c-0.5,1.5-1.6,2.9-3.4,2.6C700.6,435.9,699.8,434.2,700.1,432.3z"/>
			</g>
			<g>
				<g>
					<path class="st8" d="M697.7,448.4c-1.9,5-4.4,9.8-7.2,14.5c-26.4,43-82.7,56.5-125.7,30.1c-43-26.4-56.5-82.7-30.1-125.7
						c15.3-25,40.7-40,67.7-43"/>
					<g>
						<polygon points="601.4,319.8 602.3,328.9 606.4,323.9 						"/>
					</g>
				</g>
			</g>
		</g>
		<g>
			<g>
				<path class="st6" d="M611.6,238.1v63.5c62.8,0,113.6,50.9,113.6,113.6c0,27.1-9.5,52-25.3,71.5l49.3,40
					c27.1-33.5,39.5-68.4,39.5-111.5C788.7,317.4,709.4,238.1,611.6,238.1z"/>
			</g>
			<g>
				<path class="st7" d="M611.6,301.7C611.6,301.7,611.6,301.7,611.6,301.7l0-63.5c-54.8,0-103.2,23.1-137.7,65.7l49.3,40
					C544.1,318.1,575.9,301.7,611.6,301.7z"/>
			</g>
			<g>
				<path d="M498,415.3c0-27.1,9.5-52,25.3-71.5l-49.3-40c-61.6,76-49.8,187.6,26.2,249.1l40-49.3C514.4,482.8,498,451,498,415.3z"
					/>
			</g>
			<g>
				<pattern  id="SVGID_4_" xlink:href="#white" patternTransform="matrix(0 1.2221 -1.1732 0 -20574.3066 -133.9077)">
				</pattern>
				<path class="st12" d="M699.9,486.7c-20.8,25.7-52.7,42.1-88.3,42.1c-27.1,0-52-9.5-71.5-25.3l-40,49.3
					c76,61.6,187.6,49.8,249.1-26.2L699.9,486.7z"/>
			</g>
		</g>
	</g>
	<g>
		<g>
			<path d="M202.7,234.6l-5.2,7.7v5.7h-1.4v-5.6l-5.2-7.7h1.7l4.2,6.4l4.3-6.4H202.7z"/>
			<path d="M204.2,243.9c0.1,1.8,1.5,3.1,3.3,3.1c1.4,0,2.4-0.7,2.8-1.9l1.2,0.4c-0.5,1.8-2.2,2.8-4,2.8c-2.7,0-4.6-2.1-4.6-4.7
				c0-2.5,1.9-4.7,4.4-4.7c2.8,0,4.3,2,4.3,4.7c0,0.2,0,0.3,0,0.4H204.2z M210.3,242.7c-0.2-1.7-1.2-2.8-3-2.8
				c-1.6,0-2.9,1.3-3.1,2.8H210.3z"/>
			<path d="M217.5,248.2c-2.5,0-3.3-1.7-3.5-2.7l1.2-0.3c0.2,0.8,0.8,1.8,2.2,1.8c1,0,1.9-0.5,1.9-1.5c0-1.1-1.2-1.4-2.1-1.5
				c-1.5-0.2-3-0.8-3-2.5c0-1.7,1.6-2.7,3.1-2.7c2.4,0,3.2,1.6,3.3,2.5l-1.2,0.3c-0.2-0.6-0.6-1.6-2.1-1.6c-1,0-1.7,0.7-1.7,1.5
				c0,1.1,1.2,1.3,2.2,1.4c1.5,0.2,3,1,3,2.6C220.8,247.1,219.3,248.2,217.5,248.2z"/>
			<path d="M223.7,250c0.8-0.6,1.4-1.3,1.5-2.1c-0.1,0.1-0.3,0.1-0.4,0.1c-0.6,0-1.1-0.4-1.1-1.1c0-0.7,0.5-1.2,1.2-1.2
				c0.8,0,1.4,0.6,1.4,1.7v0.1c0,1.2-0.6,2.3-1.8,3.2L223.7,250z"/>
			<path d="M239.8,242.1c0-1.5-0.8-2.2-2.3-2.2c-1.5,0-2.2,1-2.4,1.9l-1.3-0.3c0.1-0.8,1.1-2.8,3.7-2.8c1.9,0,2.9,0.9,3.3,1.9
				c0.2,0.5,0.3,1.2,0.3,1.5v5.9h-1.3v-1.6h0c-0.7,1.1-1.7,1.8-3.1,1.8c-1.8,0-3.1-1.1-3.1-2.7v-0.1c0-2,2-2.6,3.6-2.6h2.5V242.1z
				 M237.2,243.9c-1,0-2.3,0.3-2.3,1.5c0,1,0.9,1.6,2,1.6c1.6,0,2.8-1.1,2.8-2.8v-0.3H237.2z"/>
			<path d="M251.4,242.7c0-1.6-0.8-2.8-2.5-2.8c-1.6,0-2.7,1.3-2.7,2.9v5.2h-1.3v-9.1h1.3v1.7c0.7-1.2,1.8-1.8,3.1-1.8
				c2.2,0,3.5,1.5,3.5,3.7v5.6h-1.3V242.7z"/>
			<path d="M260.1,238.7c1.8,0,2.8,1,3.5,2.1v-6.7h1.3V248h-1.3v-2c-0.7,1.2-1.8,2.1-3.6,2.1c-2.6,0-4.3-2.2-4.3-4.7
				C255.9,241.1,257.6,238.7,260.1,238.7z M263.7,243.4c0-1.8-1.4-3.5-3.3-3.5c-2,0-3.2,1.6-3.2,3.6c0,1.9,1.2,3.5,3.2,3.5
				C262.3,247,263.7,245.3,263.7,243.4z"/>
			<path d="M276.5,248l-3.1-9.1h1.4l2.4,7.6h0l2.5-7.6h1.3l2.5,7.6h0l2.4-7.6h1.4l-3.1,9.1h-1.5l-2.4-7.4h0L278,248H276.5z"/>
			<path d="M290.7,243.9c0.1,1.8,1.5,3.1,3.3,3.1c1.4,0,2.4-0.7,2.8-1.9l1.2,0.4c-0.5,1.8-2.2,2.8-4,2.8c-2.7,0-4.6-2.1-4.6-4.7
				c0-2.5,1.9-4.7,4.4-4.7c2.8,0,4.3,2,4.3,4.7c0,0.2,0,0.3,0,0.4H290.7z M296.7,242.7c-0.2-1.7-1.2-2.8-3-2.8
				c-1.6,0-2.9,1.3-3.1,2.8H296.7z"/>
			<path d="M300.4,238.9c0.8-0.6,1.4-1.3,1.5-2.1c-0.1,0.1-0.3,0.1-0.4,0.1c-0.6,0-1.1-0.4-1.1-1.1c0-0.7,0.5-1.2,1.2-1.2
				c0.8,0,1.4,0.7,1.4,1.7v0.1c0,1.2-0.6,2.3-1.8,3.2L300.4,238.9z"/>
			<path d="M305.1,238.9h1.5l3.1,7.7l3.2-7.7h1.4l-3.9,9.1H309L305.1,238.9z"/>
			<path d="M317.4,243.9c0.1,1.8,1.5,3.1,3.3,3.1c1.4,0,2.4-0.7,2.8-1.9l1.2,0.4c-0.5,1.8-2.2,2.8-4,2.8c-2.7,0-4.6-2.1-4.6-4.7
				c0-2.5,1.9-4.7,4.4-4.7c2.8,0,4.3,2,4.3,4.7c0,0.2,0,0.3,0,0.4H317.4z M323.5,242.7c-0.2-1.7-1.2-2.8-3-2.8
				c-1.6,0-2.9,1.3-3.1,2.8H323.5z"/>
			<path d="M198.2,263.2c0-1.5-0.7-2.7-2.4-2.7c-1.6,0-2.5,1.4-2.5,2.9v5.2H192v-9.1h1.3v1.6c0.7-1.1,1.6-1.8,2.9-1.8
				c1.3,0,2.4,0.6,2.9,1.8c0.8-1.2,1.8-1.8,3.2-1.8c2.2,0,3.4,1.5,3.4,3.6v5.6h-1.3v-5.3c0-1.5-0.7-2.8-2.4-2.8
				c-1.6,0-2.5,1.3-2.5,2.8v5.3h-1.3V263.2z"/>
			<path d="M215.1,262.7c0-1.5-0.8-2.2-2.3-2.2c-1.5,0-2.2,1-2.4,1.9L209,262c0.1-0.8,1.1-2.8,3.7-2.8c1.9,0,2.9,0.9,3.3,1.9
				c0.2,0.5,0.3,1.2,0.3,1.5v5.9h-1.3V267h0c-0.7,1.1-1.7,1.8-3.1,1.8c-1.8,0-3.1-1.1-3.1-2.7v-0.1c0-2,2-2.6,3.6-2.6h2.5V262.7z
				 M212.5,264.4c-1,0-2.3,0.3-2.3,1.5c0,1,0.9,1.6,2,1.6c1.6,0,2.8-1.1,2.8-2.8v-0.3H212.5z"/>
			<path d="M223.7,259.3c1.8,0,2.8,1,3.5,2.1v-6.7h1.3v13.9h-1.3v-2c-0.7,1.2-1.8,2.1-3.6,2.1c-2.6,0-4.3-2.2-4.3-4.7
				C219.5,261.6,221.2,259.3,223.7,259.3z M227.3,264c0-1.8-1.4-3.5-3.3-3.5c-2,0-3.2,1.6-3.2,3.6c0,1.9,1.2,3.5,3.2,3.5
				C225.9,267.5,227.3,265.8,227.3,264z"/>
			<path d="M233.2,264.4c0.1,1.8,1.5,3.1,3.3,3.1c1.4,0,2.4-0.7,2.8-1.9l1.2,0.4c-0.5,1.8-2.2,2.8-4,2.8c-2.7,0-4.6-2.1-4.6-4.7
				c0-2.5,1.9-4.7,4.4-4.7c2.8,0,4.3,2,4.3,4.7c0,0.2,0,0.3,0,0.4H233.2z M239.2,263.3c-0.2-1.7-1.2-2.8-3-2.8
				c-1.6,0-2.9,1.3-3.1,2.8H239.2z"/>
			<path d="M253.4,267.5c2,0,2.8-1.5,3-2.2l1.2,0.4c-0.4,1.4-1.9,3-4.3,3c-2.6,0-4.7-1.9-4.7-4.7c0-2.8,2.1-4.8,4.7-4.8
				c2.1,0,3.8,1.4,4.2,2.9l-1.2,0.4c-0.2-0.7-1.1-2.1-3-2.1c-1.9,0-3.3,1.6-3.3,3.5C250.1,265.8,251.3,267.5,253.4,267.5z"/>
			<path d="M267.3,263.2c0-1.6-0.8-2.8-2.5-2.8c-1.6,0-2.7,1.3-2.7,2.9v5.2h-1.3v-13.9h1.3v6.4c0.7-1.2,1.8-1.8,3.1-1.8
				c2.2,0,3.5,1.5,3.5,3.7v5.6h-1.3V263.2z"/>
			<path d="M277.9,262.7c0-1.5-0.8-2.2-2.3-2.2c-1.5,0-2.2,1-2.4,1.9l-1.3-0.3c0.1-0.8,1.1-2.8,3.7-2.8c1.9,0,2.9,0.9,3.3,1.9
				c0.2,0.5,0.3,1.2,0.3,1.5v5.9h-1.3V267h0c-0.7,1.1-1.7,1.8-3.1,1.8c-1.8,0-3.1-1.1-3.1-2.7v-0.1c0-2,2-2.6,3.6-2.6h2.5V262.7z
				 M275.4,264.4c-1,0-2.3,0.3-2.3,1.5c0,1,0.9,1.6,2,1.6c1.6,0,2.8-1.1,2.8-2.8v-0.3H275.4z"/>
			<path d="M289.6,263.2c0-1.6-0.8-2.8-2.5-2.8c-1.6,0-2.7,1.3-2.7,2.9v5.2H283v-9.1h1.3v1.7c0.7-1.2,1.8-1.8,3.1-1.8
				c2.2,0,3.5,1.5,3.5,3.7v5.6h-1.3V263.2z"/>
			<path d="M301.8,266.5c-0.7,1.2-1.8,2.1-3.5,2.1c-2.6,0-4.3-2.2-4.3-4.7c0-2.4,1.7-4.7,4.3-4.7c1.8,0,2.8,1,3.6,2.1v-1.9h1.3v9.2
				c0,2.9-1.8,4.5-4.6,4.5c-2.4,0-4.1-1.2-4.5-3.1l1.2-0.4c0.3,1.1,1.2,2.4,3.3,2.4c1.8,0,3.3-0.9,3.3-3.3V266.5z M301.8,263.9
				c0-1.8-1.4-3.5-3.3-3.5c-2,0-3.2,1.5-3.2,3.5c0,1.9,1.2,3.5,3.2,3.5C300.5,267.4,301.8,265.8,301.8,263.9z"/>
			<path d="M307.7,264.4c0.1,1.8,1.5,3.1,3.3,3.1c1.4,0,2.4-0.7,2.8-1.9l1.2,0.4c-0.5,1.8-2.2,2.8-4,2.8c-2.7,0-4.6-2.1-4.6-4.7
				c0-2.5,1.9-4.7,4.4-4.7c2.8,0,4.3,2,4.3,4.7c0,0.2,0,0.3,0,0.4H307.7z M313.8,263.3c-0.2-1.7-1.2-2.8-3-2.8
				c-1.6,0-2.9,1.3-3.1,2.8H313.8z"/>
			<path d="M321,268.7c-2.5,0-3.3-1.7-3.5-2.7l1.2-0.3c0.2,0.8,0.8,1.8,2.2,1.8c1,0,1.9-0.5,1.9-1.5c0-1.1-1.2-1.4-2.1-1.5
				c-1.5-0.2-3-0.8-3-2.5c0-1.7,1.6-2.7,3.1-2.7c2.4,0,3.2,1.6,3.3,2.5l-1.2,0.3c-0.2-0.6-0.6-1.6-2.1-1.6c-1,0-1.7,0.7-1.7,1.5
				c0,1.1,1.2,1.3,2.2,1.4c1.5,0.2,3,1,3,2.6C324.3,267.6,322.8,268.7,321,268.7z"/>
		</g>
	</g>
	<g>
		<circle class="st6" cx="160.3" cy="253.3" r="16.3"/>
	</g>
	<g>
		<g>
			<path d="M202.7,294.1l-5.2,7.7v5.7h-1.4v-5.6l-5.2-7.7h1.7l4.2,6.4l4.3-6.4H202.7z"/>
			<path d="M204.2,303.3c0.1,1.8,1.5,3.1,3.3,3.1c1.4,0,2.4-0.7,2.8-1.9l1.2,0.4c-0.5,1.8-2.2,2.8-4,2.8c-2.7,0-4.6-2.1-4.6-4.7
				c0-2.5,1.9-4.7,4.4-4.7c2.8,0,4.3,2,4.3,4.7c0,0.2,0,0.3,0,0.4H204.2z M210.3,302.2c-0.2-1.7-1.2-2.8-3-2.8
				c-1.6,0-2.9,1.3-3.1,2.8H210.3z"/>
			<path d="M217.5,307.7c-2.5,0-3.3-1.7-3.5-2.7l1.2-0.3c0.2,0.8,0.8,1.8,2.2,1.8c1,0,1.9-0.5,1.9-1.5c0-1.1-1.2-1.4-2.1-1.5
				c-1.5-0.2-3-0.8-3-2.5c0-1.7,1.6-2.7,3.1-2.7c2.4,0,3.2,1.6,3.3,2.5l-1.2,0.3c-0.2-0.6-0.6-1.6-2.1-1.6c-1,0-1.7,0.7-1.7,1.5
				c0,1.1,1.2,1.3,2.2,1.4c1.5,0.2,3,1,3,2.6C220.8,306.6,219.3,307.7,217.5,307.7z"/>
			<path d="M223.7,309.5c0.8-0.6,1.4-1.3,1.5-2.1c-0.1,0.1-0.3,0.1-0.4,0.1c-0.6,0-1.1-0.4-1.1-1.1c0-0.7,0.5-1.2,1.2-1.2
				c0.8,0,1.4,0.6,1.4,1.7v0.1c0,1.2-0.6,2.3-1.8,3.2L223.7,309.5z"/>
			<path d="M239.8,301.6c0-1.5-0.8-2.2-2.3-2.2c-1.5,0-2.2,1-2.4,1.9l-1.3-0.3c0.1-0.8,1.1-2.8,3.7-2.8c1.9,0,2.9,0.9,3.3,1.9
				c0.2,0.5,0.3,1.2,0.3,1.5v5.9h-1.3v-1.6h0c-0.7,1.1-1.7,1.8-3.1,1.8c-1.8,0-3.1-1.1-3.1-2.7v-0.1c0-2,2-2.6,3.6-2.6h2.5V301.6z
				 M237.2,303.3c-1,0-2.3,0.3-2.3,1.5c0,1,0.9,1.6,2,1.6c1.6,0,2.8-1.1,2.8-2.8v-0.3H237.2z"/>
			<path d="M251.4,302.2c0-1.6-0.8-2.8-2.5-2.8c-1.6,0-2.7,1.3-2.7,2.9v5.2h-1.3v-9.1h1.3v1.7c0.7-1.2,1.8-1.8,3.1-1.8
				c2.2,0,3.5,1.5,3.5,3.7v5.6h-1.3V302.2z"/>
			<path d="M260.1,298.2c1.8,0,2.8,1,3.5,2.1v-6.7h1.3v13.9h-1.3v-2c-0.7,1.2-1.8,2.1-3.6,2.1c-2.6,0-4.3-2.2-4.3-4.7
				C255.9,300.5,257.6,298.2,260.1,298.2z M263.7,302.9c0-1.8-1.4-3.5-3.3-3.5c-2,0-3.2,1.6-3.2,3.6c0,1.9,1.2,3.5,3.2,3.5
				C262.3,306.5,263.7,304.8,263.7,302.9z"/>
			<path d="M276.5,307.5l-3.1-9.1h1.4l2.4,7.6h0l2.5-7.6h1.3l2.5,7.6h0l2.4-7.6h1.4l-3.1,9.1h-1.5l-2.4-7.4h0l-2.4,7.4H276.5z"/>
			<path d="M290.7,303.3c0.1,1.8,1.5,3.1,3.3,3.1c1.4,0,2.4-0.7,2.8-1.9l1.2,0.4c-0.5,1.8-2.2,2.8-4,2.8c-2.7,0-4.6-2.1-4.6-4.7
				c0-2.5,1.9-4.7,4.4-4.7c2.8,0,4.3,2,4.3,4.7c0,0.2,0,0.3,0,0.4H290.7z M296.7,302.2c-0.2-1.7-1.2-2.8-3-2.8
				c-1.6,0-2.9,1.3-3.1,2.8H296.7z"/>
			<path d="M313.1,302.1c0-1.5-0.7-2.7-2.4-2.7c-1.6,0-2.5,1.4-2.5,2.9v5.2h-1.3v-9.1h1.3v1.6c0.7-1.1,1.6-1.8,2.9-1.8
				c1.3,0,2.4,0.6,2.9,1.8c0.8-1.2,1.8-1.8,3.2-1.8c2.2,0,3.4,1.5,3.4,3.6v5.6h-1.3v-5.3c0-1.5-0.7-2.8-2.4-2.8
				c-1.6,0-2.5,1.3-2.5,2.8v5.3h-1.3V302.1z"/>
			<path d="M329.9,301.6c0-1.5-0.8-2.2-2.3-2.2c-1.5,0-2.2,1-2.4,1.9l-1.3-0.3c0.1-0.8,1.1-2.8,3.7-2.8c1.9,0,2.9,0.9,3.3,1.9
				c0.2,0.5,0.3,1.2,0.3,1.5v5.9h-1.3v-1.6h0c-0.7,1.1-1.7,1.8-3.1,1.8c-1.8,0-3.1-1.1-3.1-2.7v-0.1c0-2,2-2.6,3.6-2.6h2.5V301.6z
				 M327.4,303.3c-1,0-2.3,0.3-2.3,1.5c0,1,0.9,1.6,2,1.6c1.6,0,2.8-1.1,2.8-2.8v-0.3H327.4z"/>
			<path d="M338.6,298.2c1.8,0,2.8,1,3.5,2.1v-6.7h1.3v13.9h-1.3v-2c-0.7,1.2-1.8,2.1-3.6,2.1c-2.6,0-4.3-2.2-4.3-4.7
				C334.3,300.5,336,298.2,338.6,298.2z M342.2,302.9c0-1.8-1.4-3.5-3.3-3.5c-2,0-3.2,1.6-3.2,3.6c0,1.9,1.2,3.5,3.2,3.5
				C340.8,306.5,342.2,304.8,342.2,302.9z"/>
			<path d="M348,303.3c0.1,1.8,1.5,3.1,3.3,3.1c1.4,0,2.4-0.7,2.8-1.9l1.2,0.4c-0.5,1.8-2.2,2.8-4,2.8c-2.7,0-4.6-2.1-4.6-4.7
				c0-2.5,1.9-4.7,4.4-4.7c2.8,0,4.3,2,4.3,4.7c0,0.2,0,0.3,0,0.4H348z M354.1,302.2c-0.2-1.7-1.2-2.8-3-2.8c-1.6,0-2.9,1.3-3.1,2.8
				H354.1z"/>
			<path d="M198.6,322.7c0-1.6-0.8-2.8-2.5-2.8c-1.6,0-2.7,1.3-2.7,2.9v5.2H192v-9.1h1.3v1.7c0.7-1.2,1.8-1.8,3.1-1.8
				c2.2,0,3.5,1.5,3.5,3.7v5.6h-1.3V322.7z"/>
			<path d="M203,323.5c0-2.7,2-4.8,4.7-4.8c2.6,0,4.7,2.1,4.7,4.7c0,2.7-2.1,4.8-4.7,4.8C205.1,328.2,203,326.1,203,323.5z
				 M211.1,323.5c0-1.9-1.4-3.6-3.4-3.6c-2,0-3.3,1.6-3.3,3.5c0,1.9,1.4,3.6,3.4,3.6C209.7,327,211.1,325.4,211.1,323.5z"/>
			<path d="M225.3,327c2,0,2.8-1.5,3-2.2l1.2,0.4c-0.4,1.4-1.9,3-4.3,3c-2.6,0-4.7-1.9-4.7-4.7c0-2.8,2.1-4.8,4.7-4.8
				c2.1,0,3.8,1.4,4.2,2.9l-1.2,0.4c-0.2-0.7-1.1-2.1-3-2.1c-2,0-3.3,1.6-3.3,3.5C222,325.3,223.2,327,225.3,327z"/>
			<path d="M239.2,322.7c0-1.6-0.8-2.8-2.5-2.8c-1.6,0-2.7,1.3-2.7,2.9v5.2h-1.3v-13.9h1.3v6.4c0.7-1.2,1.8-1.8,3.1-1.8
				c2.2,0,3.5,1.5,3.5,3.7v5.6h-1.3V322.7z"/>
			<path d="M249.8,322.2c0-1.5-0.8-2.2-2.3-2.2c-1.5,0-2.2,1-2.4,1.9l-1.3-0.3c0.1-0.8,1.1-2.8,3.7-2.8c1.9,0,2.9,0.9,3.3,1.9
				c0.2,0.5,0.3,1.2,0.3,1.5v5.9h-1.3v-1.6h0c-0.7,1.1-1.7,1.8-3.1,1.8c-1.8,0-3.1-1.1-3.1-2.7v-0.1c0-2,2-2.6,3.6-2.6h2.5V322.2z
				 M247.3,323.9c-1,0-2.3,0.3-2.3,1.5c0,1,0.9,1.6,2,1.6c1.6,0,2.8-1.1,2.8-2.8v-0.3H247.3z"/>
			<path d="M261.5,322.7c0-1.6-0.8-2.8-2.5-2.8c-1.6,0-2.7,1.3-2.7,2.9v5.2h-1.3v-9.1h1.3v1.7c0.7-1.2,1.8-1.8,3.1-1.8
				c2.2,0,3.5,1.5,3.5,3.7v5.6h-1.3V322.7z"/>
			<path d="M273.7,326c-0.7,1.2-1.8,2.1-3.5,2.1c-2.6,0-4.3-2.2-4.3-4.7c0-2.4,1.7-4.7,4.3-4.7c1.8,0,2.8,1,3.6,2.1v-1.9h1.3v9.2
				c0,2.9-1.8,4.5-4.6,4.5c-2.4,0-4.1-1.2-4.5-3.1l1.2-0.4c0.3,1.1,1.2,2.4,3.3,2.4c1.8,0,3.3-0.9,3.3-3.3V326z M273.8,323.4
				c0-1.8-1.4-3.5-3.3-3.5c-2,0-3.2,1.5-3.2,3.5c0,1.9,1.2,3.5,3.2,3.5C272.4,326.9,273.8,325.3,273.8,323.4z"/>
			<path d="M279.6,323.9c0.1,1.8,1.5,3.1,3.3,3.1c1.4,0,2.4-0.7,2.8-1.9l1.2,0.4c-0.5,1.8-2.2,2.8-4,2.8c-2.7,0-4.6-2.1-4.6-4.7
				c0-2.5,1.9-4.7,4.4-4.7c2.8,0,4.3,2,4.3,4.7c0,0.2,0,0.3,0,0.4H279.6z M285.7,322.7c-0.2-1.7-1.2-2.8-3-2.8
				c-1.6,0-2.9,1.3-3.1,2.8H285.7z"/>
			<path d="M293,328.2c-2.5,0-3.3-1.7-3.5-2.7l1.2-0.3c0.2,0.8,0.8,1.8,2.2,1.8c1,0,1.9-0.5,1.9-1.5c0-1.1-1.2-1.4-2.1-1.5
				c-1.5-0.2-3-0.8-3-2.5c0-1.7,1.6-2.7,3.1-2.7c2.4,0,3.2,1.6,3.3,2.5l-1.2,0.3c-0.2-0.6-0.6-1.6-2.1-1.6c-1,0-1.7,0.7-1.7,1.5
				c0,1.1,1.2,1.3,2.2,1.4c1.5,0.2,3,1,3,2.6C296.2,327.1,294.7,328.2,293,328.2z"/>
		</g>
	</g>
	<g>
		<pattern  id="SVGID_5_" xlink:href="#white" patternTransform="matrix(0 1.2221 -1.1732 0 -20344.6797 513.443)">
		</pattern>
		<circle class="st13" cx="160.3" cy="312.7" r="16.3"/>
	</g>
	<g>
		<g>
			<path d="M203.3,363.4v13.4h-1.5l-8-11.4v11.4h-1.4v-13.4h1.6l7.9,11.2v-11.2H203.3z"/>
			<path d="M206.8,372.2c0-2.7,2-4.8,4.7-4.8c2.6,0,4.7,2.1,4.7,4.7c0,2.7-2.1,4.8-4.7,4.8C208.9,376.9,206.8,374.8,206.8,372.2z
				 M214.9,372.2c0-1.9-1.4-3.6-3.4-3.6s-3.3,1.6-3.3,3.5c0,1.9,1.4,3.6,3.4,3.6C213.5,375.7,214.9,374.1,214.9,372.2z"/>
		</g>
	</g>
	<g class="st3">
		<circle cx="160.3" cy="372.2" r="16.3"/>
	</g>
	<g>
		<g>
			<path d="M193.8,422.6V436h-1.4v-13.4H193.8z"/>
			<path d="M207.2,426.7c1.8,0,2.8,1,3.5,2.1v-6.7h1.3V436h-1.3v-2c-0.7,1.2-1.8,2.1-3.6,2.1c-2.6,0-4.3-2.2-4.3-4.7
				C203,429,204.7,426.7,207.2,426.7z M210.8,431.4c0-1.8-1.4-3.5-3.3-3.5c-2,0-3.2,1.6-3.2,3.6c0,1.9,1.2,3.5,3.2,3.5
				C209.5,434.9,210.8,433.3,210.8,431.4z"/>
			<path d="M215.3,431.5c0-2.7,2-4.8,4.7-4.8c2.6,0,4.7,2.1,4.7,4.7c0,2.7-2.1,4.8-4.7,4.8C217.4,436.1,215.3,434.1,215.3,431.5z
				 M223.4,431.5c0-1.9-1.4-3.6-3.4-3.6c-2,0-3.3,1.6-3.3,3.5c0,1.9,1.4,3.6,3.4,3.6C222,435,223.4,433.4,223.4,431.5z"/>
			<path d="M234.6,430.7c0-1.6-0.8-2.8-2.5-2.8c-1.6,0-2.7,1.3-2.7,2.9v5.2H228v-9.1h1.3v1.7c0.7-1.2,1.8-1.8,3.1-1.8
				c2.2,0,3.5,1.5,3.5,3.7v5.6h-1.3V430.7z"/>
			<path d="M238.9,426.8c0.8-0.6,1.4-1.3,1.5-2.1c-0.1,0.1-0.3,0.1-0.4,0.1c-0.6,0-1.1-0.4-1.1-1.1c0-0.7,0.5-1.2,1.2-1.2
				c0.8,0,1.4,0.7,1.4,1.7v0.1c0,1.2-0.6,2.3-1.8,3.2L238.9,426.8z"/>
			<path d="M245.3,433.6V428h-1.7v-1.2h1.7v-2.6h1.3v2.6h2.3v1.2h-2.3v5.6c0,0.8,0.5,1.3,1.5,1.3c0.3,0,0.6,0,0.8-0.1v1.1
				c-0.3,0.1-0.8,0.1-1,0.1C245.9,436.1,245.3,435,245.3,433.6z"/>
			<path d="M259,436h-1.3V422h1.3v8.5l4.3-3.7h1.9l-4.8,4.1l5,5h-1.9l-4.6-4.6H259V436z"/>
			<path d="M274.5,430.7c0-1.6-0.8-2.8-2.5-2.8c-1.6,0-2.7,1.3-2.7,2.9v5.2h-1.3v-9.1h1.3v1.7c0.7-1.2,1.8-1.8,3.1-1.8
				c2.2,0,3.5,1.5,3.5,3.7v5.6h-1.3V430.7z"/>
			<path d="M278.9,431.5c0-2.7,2-4.8,4.7-4.8c2.6,0,4.7,2.1,4.7,4.7c0,2.7-2.1,4.8-4.7,4.8C280.9,436.1,278.9,434.1,278.9,431.5z
				 M286.9,431.5c0-1.9-1.4-3.6-3.4-3.6s-3.3,1.6-3.3,3.5c0,1.9,1.4,3.6,3.4,3.6C285.6,435,286.9,433.4,286.9,431.5z"/>
			<path d="M293.3,436l-3.1-9.1h1.4l2.4,7.6h0l2.5-7.6h1.3l2.5,7.6h0l2.4-7.6h1.4l-3.1,9.1h-1.5l-2.4-7.4h0l-2.4,7.4H293.3z"/>
		</g>
	</g>
	<g>
		<circle class="st7" cx="160.3" cy="431.4" r="16.3"/>
	</g>
	<g>
		<g>
			<path class="st7" d="M148,56.6l-3.2,1.9l-0.6-1.1l3.9-2.3h1.4v13.4H148V56.6z"/>
			<path class="st7" d="M152.2,68c0-1.6,0.7-3.3,3.1-4.7l2-1.3c1.3-0.8,2.3-1.6,2.3-3.2c0-1.4-1.2-2.7-2.9-2.7
				c-1.5,0-2.4,0.9-2.8,1.7c-0.2,0.6-0.3,1.1-0.3,1.3l-1.4-0.2c0-1.9,1.6-4.1,4.5-4.1c2.5,0,4.4,1.9,4.4,4c0,1.9-1.1,3-2.8,4.1
				l-2.1,1.3c-1.1,0.7-2.2,1.7-2.3,2.9h7.4v1.3h-9V68z"/>
			<path class="st7" d="M172.6,67.7v10.5h-2.4v-23h2.4v10.1h13.1V55.3h2.4v23h-2.4V67.7H172.6z"/>
			<path class="st7" d="M203.3,68.1c0-2.5-1.4-3.8-4-3.8c-2.6,0-3.8,1.7-4.1,3.2L193,67c0.1-1.3,1.9-4.8,6.4-4.8
				c3.3,0,5,1.5,5.7,3.2c0.4,0.9,0.5,2.1,0.5,2.6v10.1h-2.2v-2.8h0c-1.2,1.9-2.9,3-5.3,3c-3.2,0-5.2-2-5.2-4.6v-0.2
				c0-3.4,3.4-4.5,6.2-4.5h4.3V68.1z M199,71.1c-1.7,0-3.9,0.5-3.9,2.6c0,1.8,1.5,2.8,3.4,2.8c2.8,0,4.9-2,4.9-4.8v-0.6H199z"/>
			<path class="st7" d="M208.2,62.6h2.5l5.4,13.1l5.5-13.1h2.4l-6.7,15.7h-2.4L208.2,62.6z"/>
			<path class="st7" d="M227.9,71.1c0.2,3,2.6,5.4,5.6,5.4c2.3,0,4.1-1.1,4.8-3.3l2.1,0.6c-0.9,3-3.8,4.7-6.9,4.7
				c-4.5,0-7.9-3.6-7.9-8.1c0-4.3,3.2-8.1,7.6-8.1c4.8,0,7.4,3.5,7.4,8c0,0.3,0,0.5,0,0.8H227.9z M238.3,69.2
				c-0.3-2.8-2.1-4.9-5.1-4.9c-2.7,0-4.9,2.3-5.3,4.9H238.3z"/>
			<path class="st7" d="M257.2,77.2l-7.1-14.6h2.6l5.7,12.1l5.4-12.1h2.5l-10.7,23.4h-2.5L257.2,77.2z"/>
			<path class="st7" d="M267.7,70.5c0-4.6,3.5-8.2,8.1-8.2c4.5,0,8.1,3.5,8.1,8c0,4.6-3.5,8.2-8.1,8.2
				C271.3,78.5,267.7,74.9,267.7,70.5z M281.6,70.5c0-3.3-2.4-6.2-5.8-6.2s-5.7,2.8-5.7,6s2.3,6.1,5.8,6.1
				C279.2,76.5,281.6,73.7,281.6,70.5z"/>
			<path class="st7" d="M290,71.7c0,2.8,1.4,4.8,4.3,4.8c2.7,0,4.7-2.1,4.7-4.9v-8.9h2.3v15.7h-2.2v-2.9c-1.2,2.1-3.1,3.2-5.4,3.2
				c-3.8,0-5.9-2.6-5.9-6.3v-9.7h2.3V71.7z"/>
			<path class="st7" d="M316.9,65.7c1.2-2.4,3.3-3.3,5-3.3c0.1,0,0.6,0,0.8,0v2.4c-0.3,0-0.6-0.1-0.9-0.1c-3.7,0-4.9,3.1-4.9,5.8
				v7.7h-2.3V62.6h2.3V65.7z"/>
			<path class="st7" d="M326.4,71.1c0.2,3,2.6,5.4,5.6,5.4c2.3,0,4.1-1.1,4.8-3.3l2.1,0.6c-0.9,3-3.8,4.7-6.9,4.7
				c-4.5,0-7.9-3.6-7.9-8.1c0-4.3,3.2-8.1,7.6-8.1c4.8,0,7.4,3.5,7.4,8c0,0.3,0,0.5,0,0.8H326.4z M336.8,69.2
				c-0.3-2.8-2.1-4.9-5.1-4.9c-2.7,0-4.9,2.3-5.3,4.9H336.8z"/>
			<path class="st7" d="M340.6,62.6h2.5l5.4,13.1l5.5-13.1h2.4l-6.7,15.7h-2.4L340.6,62.6z"/>
			<path class="st7" d="M360.7,55.2c1,0,1.7,0.8,1.7,1.7c0,0.9-0.8,1.7-1.7,1.7c-0.9,0-1.7-0.8-1.7-1.7
				C359,56,359.8,55.2,360.7,55.2z M361.9,62.6v15.7h-2.3V62.6H361.9z"/>
			<path class="st7" d="M368.3,71.1c0.2,3,2.6,5.4,5.6,5.4c2.3,0,4.1-1.1,4.8-3.3l2.1,0.6c-0.9,3-3.8,4.7-6.9,4.7
				c-4.5,0-7.9-3.6-7.9-8.1c0-4.3,3.2-8.1,7.6-8.1c4.8,0,7.4,3.5,7.4,8c0,0.3,0,0.5,0,0.8H368.3z M378.6,69.2
				c-0.3-2.8-2.1-4.9-5.1-4.9c-2.7,0-4.9,2.3-5.3,4.9H378.6z"/>
			<path class="st7" d="M387.9,78.2l-5.2-15.7h2.4l4.1,13h0l4.3-13h2.3l4.3,13h0l4.1-13h2.4l-5.3,15.7h-2.6l-4.1-12.7h0l-4.2,12.7
				H387.9z"/>
			<path class="st7" d="M410.8,71.1c0.2,3,2.6,5.4,5.6,5.4c2.3,0,4.1-1.1,4.8-3.3l2.1,0.6c-0.9,3-3.8,4.7-6.9,4.7
				c-4.5,0-7.9-3.6-7.9-8.1c0-4.3,3.2-8.1,7.6-8.1c4.8,0,7.4,3.5,7.4,8c0,0.3,0,0.5,0,0.8H410.8z M421.1,69.2
				c-0.3-2.8-2.1-4.9-5.1-4.9c-2.7,0-4.9,2.3-5.3,4.9H421.1z"/>
			<path class="st7" d="M433.6,62.3c3,0,4.8,1.7,6.1,3.5V54.4h2.3v23.9h-2.2v-3.3c-1.2,2-3.1,3.6-6.1,3.6c-4.5,0-7.3-3.8-7.3-8.1
				C426.3,66.3,429.2,62.3,433.6,62.3z M439.7,70.3c0-3.1-2.4-6-5.6-6c-3.4,0-5.5,2.7-5.5,6.1c0,3.2,2.1,6,5.5,6
				C437.4,76.4,439.7,73.6,439.7,70.3z"/>
			<path class="st7" d="M459.8,77.2l-7.1-14.6h2.6l5.7,12.1l5.4-12.1h2.5l-10.7,23.4h-2.5L459.8,77.2z"/>
			<path class="st7" d="M470.4,70.5c0-4.6,3.5-8.2,8.1-8.2c4.5,0,8.1,3.5,8.1,8c0,4.6-3.5,8.2-8.1,8.2
				C473.9,78.5,470.4,74.9,470.4,70.5z M484.2,70.5c0-3.3-2.4-6.2-5.8-6.2c-3.4,0-5.7,2.8-5.7,6s2.3,6.1,5.8,6.1
				C481.8,76.5,484.2,73.7,484.2,70.5z"/>
			<path class="st7" d="M492.6,71.7c0,2.8,1.4,4.8,4.3,4.8c2.7,0,4.7-2.1,4.7-4.9v-8.9h2.3v15.7h-2.2v-2.9c-1.2,2.1-3.1,3.2-5.4,3.2
				c-3.8,0-5.9-2.6-5.9-6.3v-9.7h2.3V71.7z"/>
			<path class="st7" d="M511.4,65.7c1.2-2.4,3.3-3.3,5-3.3c0.1,0,0.6,0,0.8,0v2.4c-0.3,0-0.6-0.1-0.9-0.1c-3.7,0-4.9,3.1-4.9,5.8
				v7.7h-2.3V62.6h2.3V65.7z"/>
			<path class="st7" d="M532.3,78.5c-4.3,0-5.7-2.9-6-4.6l2.1-0.5c0.3,1.4,1.4,3.1,3.8,3.1c1.7,0,3.3-0.9,3.3-2.6
				c0-1.9-2.1-2.3-3.7-2.6c-2.6-0.4-5.2-1.3-5.2-4.4c0-2.9,2.7-4.7,5.2-4.7c4.1,0,5.5,2.8,5.7,4.3l-2.1,0.5
				c-0.3-1.1-1.1-2.8-3.6-2.8c-1.7,0-3,1.1-3,2.5c0,2,2.1,2.3,3.7,2.5c2.6,0.3,5.1,1.7,5.1,4.5C537.9,76.6,535.3,78.5,532.3,78.5z"
				/>
			<path class="st7" d="M543.1,71.1c0.2,3,2.6,5.4,5.6,5.4c2.3,0,4.1-1.1,4.8-3.3l2.1,0.6c-0.9,3-3.8,4.7-6.9,4.7
				c-4.5,0-7.9-3.6-7.9-8.1c0-4.3,3.2-8.1,7.6-8.1c4.8,0,7.4,3.5,7.4,8c0,0.3,0,0.5,0,0.8H543.1z M553.5,69.2
				c-0.3-2.8-2.1-4.9-5.1-4.9c-2.7,0-4.9,2.3-5.3,4.9H553.5z"/>
			<path class="st7" d="M566.6,76.5c3.5,0,4.8-2.6,5.2-3.8l2.1,0.7c-0.7,2.3-3.3,5.1-7.4,5.1c-4.5,0-8-3.3-8-8
				c0-4.8,3.7-8.2,8.1-8.2c3.6,0,6.5,2.3,7.2,5l-2.1,0.7c-0.4-1.2-1.9-3.6-5.2-3.6c-3.3,0-5.7,2.7-5.7,6S563.1,76.5,566.6,76.5z"/>
			<path class="st7" d="M579.9,71.7c0,2.8,1.4,4.8,4.3,4.8c2.7,0,4.7-2.1,4.7-4.9v-8.9h2.3v15.7h-2.2v-2.9c-1.2,2.1-3.1,3.2-5.4,3.2
				c-3.8,0-5.9-2.6-5.9-6.3v-9.7h2.3V71.7z"/>
			<path class="st7" d="M598.6,65.7c1.2-2.4,3.3-3.3,5-3.3c0.1,0,0.6,0,0.8,0v2.4c-0.3,0-0.6-0.1-0.9-0.1c-3.7,0-4.9,3.1-4.9,5.8
				v7.7h-2.3V62.6h2.3V65.7z"/>
			<path class="st7" d="M608.6,55.2c1,0,1.7,0.8,1.7,1.7c0,0.9-0.8,1.7-1.7,1.7c-0.9,0-1.7-0.8-1.7-1.7
				C606.9,56,607.7,55.2,608.6,55.2z M609.8,62.6v15.7h-2.3V62.6H609.8z"/>
			<path class="st7" d="M616,74.2v-9.6h-2.9v-2h2.9V58h2.3v4.5h4v2h-4v9.5c0,1.4,0.8,2.2,2.6,2.2c0.5,0,1.1,0,1.4-0.1v1.9
				c-0.5,0.1-1.4,0.2-1.8,0.2C617,78.3,616,76.5,616,74.2z"/>
			<path class="st7" d="M631.3,77.2l-7.1-14.6h2.6l5.7,12.1l5.4-12.1h2.5l-10.7,23.4h-2.5L631.3,77.2z"/>
			<path class="st7" d="M179.3,113.7c-2.9,0-4.8-1.5-6-3.5v10.9H171V97.8h2.3v3.4c1.3-2,3.1-3.7,6.1-3.7c4.5,0,7.4,4,7.4,8.1
				C186.7,109.8,183.8,113.7,179.3,113.7z M184.3,105.6c0-3.3-2-6.1-5.5-6.1c-3.2,0-5.6,2.9-5.6,6c0,3.2,2.3,6.1,5.6,6.1
				C182.3,111.6,184.3,108.9,184.3,105.6z"/>
			<path class="st7" d="M189.6,105.6c0-4.6,3.5-8.2,8.1-8.2c4.5,0,8.1,3.5,8.1,8c0,4.6-3.5,8.2-8.1,8.2
				C193.1,113.7,189.6,110.1,189.6,105.6z M203.4,105.6c0-3.3-2.4-6.2-5.8-6.2c-3.4,0-5.7,2.8-5.7,6s2.3,6.1,5.8,6.1
				C201.1,111.7,203.4,108.9,203.4,105.6z"/>
			<path class="st7" d="M212.1,89.5v23.9h-2.3V89.5H212.1z"/>
			<path class="st7" d="M218.4,90.4c1,0,1.7,0.8,1.7,1.7c0,0.9-0.8,1.7-1.7,1.7c-0.9,0-1.7-0.8-1.7-1.7
				C216.7,91.2,217.5,90.4,218.4,90.4z M219.6,97.8v15.7h-2.3V97.8H219.6z"/>
			<path class="st7" d="M231.6,111.7c3.5,0,4.8-2.6,5.2-3.8l2.1,0.7c-0.7,2.3-3.3,5.1-7.4,5.1c-4.5,0-8-3.3-8-8
				c0-4.8,3.7-8.2,8.1-8.2c3.6,0,6.5,2.3,7.2,5l-2.1,0.7c-0.4-1.2-1.9-3.6-5.2-3.6c-3.3,0-5.7,2.7-5.7,6S228.1,111.7,231.6,111.7z"
				/>
			<path class="st7" d="M243.9,90.4c1,0,1.7,0.8,1.7,1.7c0,0.9-0.8,1.7-1.7,1.7c-0.9,0-1.7-0.8-1.7-1.7
				C242.2,91.2,243,90.4,243.9,90.4z M245.1,97.8v15.7h-2.3V97.8H245.1z"/>
			<path class="st7" d="M251.4,106.3c0.2,3,2.6,5.4,5.6,5.4c2.3,0,4.1-1.1,4.8-3.3l2.1,0.6c-0.9,3-3.8,4.7-6.9,4.7
				c-4.5,0-7.9-3.6-7.9-8.1c0-4.3,3.2-8.1,7.6-8.1c4.8,0,7.4,3.5,7.4,8c0,0.3,0,0.5,0,0.8H251.4z M261.8,104.4
				c-0.3-2.8-2.1-4.9-5.1-4.9c-2.7,0-4.9,2.3-5.3,4.9H261.8z"/>
			<path class="st7" d="M272.9,113.7c-4.3,0-5.7-2.9-6-4.6l2.1-0.5c0.3,1.4,1.4,3.1,3.8,3.1c1.7,0,3.3-0.9,3.3-2.6
				c0-1.9-2.1-2.3-3.7-2.6c-2.6-0.4-5.2-1.3-5.2-4.4c0-2.9,2.7-4.7,5.2-4.7c4.1,0,5.5,2.8,5.7,4.3l-2.1,0.5
				c-0.3-1.1-1.1-2.8-3.6-2.8c-1.7,0-3,1.1-3,2.5c0,2,2.1,2.3,3.7,2.5c2.6,0.3,5.1,1.7,5.1,4.5C278.4,111.8,275.9,113.7,272.9,113.7
				z"/>
			<path class="st7" d="M291.8,90.4c1,0,1.7,0.8,1.7,1.7c0,0.9-0.8,1.7-1.7,1.7c-0.9,0-1.7-0.8-1.7-1.7
				C290.1,91.2,290.9,90.4,291.8,90.4z M293,97.8v15.7h-2.3V97.8H293z"/>
			<path class="st7" d="M309.4,104.3c0-2.8-1.4-4.8-4.3-4.8c-2.7,0-4.7,2.2-4.7,5v8.9h-2.3V97.8h2.3v2.9c1.2-2.1,3.1-3.2,5.4-3.2
				c3.8,0,5.9,2.6,5.9,6.3v9.7h-2.3V104.3z"/>
			<path class="st7" d="M327.1,100.9c1.2-2.4,3.3-3.3,5-3.3c0.1,0,0.6,0,0.8,0v2.4c-0.3,0-0.6-0.1-0.9-0.1c-3.7,0-4.9,3.1-4.9,5.8
				v7.7h-2.3V97.8h2.3V100.9z"/>
			<path class="st7" d="M336.6,106.3c0.2,3,2.6,5.4,5.6,5.4c2.3,0,4.1-1.1,4.8-3.3l2.1,0.6c-0.9,3-3.8,4.7-6.9,4.7
				c-4.5,0-7.9-3.6-7.9-8.1c0-4.3,3.2-8.1,7.6-8.1c4.8,0,7.4,3.5,7.4,8c0,0.3,0,0.5,0,0.8H336.6z M347,104.4
				c-0.3-2.8-2.1-4.9-5.1-4.9c-2.7,0-4.9,2.3-5.3,4.9H347z"/>
			<path class="st7" d="M358,113.7c-4.3,0-5.7-2.9-6-4.6l2.1-0.5c0.3,1.4,1.4,3.1,3.8,3.1c1.7,0,3.3-0.9,3.3-2.6
				c0-1.9-2.1-2.3-3.7-2.6c-2.6-0.4-5.2-1.3-5.2-4.4c0-2.9,2.7-4.7,5.2-4.7c4.1,0,5.5,2.8,5.7,4.3l-2.1,0.5
				c-0.3-1.1-1.1-2.8-3.6-2.8c-1.7,0-3,1.1-3,2.5c0,2,2.1,2.3,3.7,2.5c2.6,0.3,5.1,1.7,5.1,4.5C363.6,111.8,361,113.7,358,113.7z"/>
			<path class="st7" d="M376,113.7c-2.9,0-4.8-1.5-6-3.5v10.9h-2.3V97.8h2.3v3.4c1.3-2,3.1-3.7,6.1-3.7c4.5,0,7.4,4,7.4,8.1
				C383.3,109.8,380.4,113.7,376,113.7z M381,105.6c0-3.3-2-6.1-5.5-6.1c-3.2,0-5.6,2.9-5.6,6c0,3.2,2.3,6.1,5.6,6.1
				C379,111.6,381,108.9,381,105.6z"/>
			<path class="st7" d="M386.2,105.6c0-4.6,3.5-8.2,8.1-8.2c4.5,0,8.1,3.5,8.1,8c0,4.6-3.5,8.2-8.1,8.2
				C389.8,113.7,386.2,110.1,386.2,105.6z M400.1,105.6c0-3.3-2.4-6.2-5.8-6.2s-5.7,2.8-5.7,6s2.3,6.1,5.8,6.1
				C397.7,111.7,400.1,108.9,400.1,105.6z"/>
			<path class="st7" d="M417.7,104.3c0-2.8-1.4-4.8-4.3-4.8c-2.7,0-4.7,2.2-4.7,5v8.9h-2.3V97.8h2.3v2.9c1.2-2.1,3.1-3.2,5.4-3.2
				c3.8,0,5.9,2.6,5.9,6.3v9.7h-2.3V104.3z"/>
			<path class="st7" d="M429.8,113.7c-4.3,0-5.7-2.9-6-4.6l2.1-0.5c0.3,1.4,1.4,3.1,3.8,3.1c1.7,0,3.3-0.9,3.3-2.6
				c0-1.9-2.1-2.3-3.7-2.6c-2.6-0.4-5.2-1.3-5.2-4.4c0-2.9,2.7-4.7,5.2-4.7c4.1,0,5.5,2.8,5.7,4.3l-2.1,0.5
				c-0.3-1.1-1.1-2.8-3.6-2.8c-1.7,0-3,1.1-3,2.5c0,2,2.1,2.3,3.7,2.5c2.6,0.3,5.1,1.7,5.1,4.5C435.3,111.8,432.8,113.7,429.8,113.7
				z"/>
			<path class="st7" d="M440.6,106.3c0.2,3,2.6,5.4,5.6,5.4c2.3,0,4.1-1.1,4.8-3.3l2.1,0.6c-0.9,3-3.8,4.7-6.9,4.7
				c-4.5,0-7.9-3.6-7.9-8.1c0-4.3,3.2-8.1,7.6-8.1c4.8,0,7.4,3.5,7.4,8c0,0.3,0,0.5,0,0.8H440.6z M450.9,104.4
				c-0.3-2.8-2.1-4.9-5.1-4.9c-2.7,0-4.9,2.3-5.3,4.9H450.9z"/>
			<path class="st7" d="M466.4,109.4v-9.6h-2.9v-2h2.9v-4.5h2.3v4.5h4v2h-4v9.5c0,1.4,0.8,2.2,2.6,2.2c0.5,0,1.1,0,1.4-0.1v1.9
				c-0.5,0.1-1.4,0.2-1.8,0.2C467.5,113.5,466.4,111.7,466.4,109.4z"/>
			<path class="st7" d="M475.1,105.6c0-4.6,3.5-8.2,8.1-8.2c4.5,0,8.1,3.5,8.1,8c0,4.6-3.5,8.2-8.1,8.2
				C478.6,113.7,475.1,110.1,475.1,105.6z M488.9,105.6c0-3.3-2.4-6.2-5.8-6.2s-5.7,2.8-5.7,6s2.3,6.1,5.8,6.1
				C486.5,111.7,488.9,108.9,488.9,105.6z"/>
			<path class="st7" d="M510.3,111.7c3.5,0,4.8-2.6,5.2-3.8l2.1,0.7c-0.7,2.3-3.3,5.1-7.4,5.1c-4.5,0-8-3.3-8-8
				c0-4.8,3.7-8.2,8.1-8.2c3.6,0,6.5,2.3,7.2,5l-2.1,0.7c-0.4-1.2-1.9-3.6-5.2-3.6c-3.3,0-5.7,2.7-5.7,6S506.8,111.7,510.3,111.7z"
				/>
			<path class="st7" d="M526.1,112.4L519,97.8h2.6l5.7,12.1l5.4-12.1h2.5l-10.7,23.4H522L526.1,112.4z"/>
			<path class="st7" d="M546.7,113.7c-3,0-4.8-1.5-6.1-3.5v3.3h-2.3V89.5h2.3v11.6c1.3-2,3.1-3.6,6-3.6c4.5,0,7.4,4,7.4,8.1
				C554,109.8,551.1,113.7,546.7,113.7z M551.7,105.6c0-3.3-2-6.1-5.5-6.1c-3.2,0-5.6,2.9-5.6,6c0,3.2,2.3,6.1,5.6,6.1
				C549.7,111.6,551.7,108.9,551.7,105.6z"/>
			<path class="st7" d="M559.3,106.3c0.2,3,2.6,5.4,5.6,5.4c2.3,0,4.1-1.1,4.8-3.3l2.1,0.6c-0.9,3-3.8,4.7-6.9,4.7
				c-4.5,0-7.9-3.6-7.9-8.1c0-4.3,3.2-8.1,7.6-8.1c4.8,0,7.4,3.5,7.4,8c0,0.3,0,0.5,0,0.8H559.3z M569.6,104.4
				c-0.3-2.8-2.1-4.9-5.1-4.9c-2.7,0-4.9,2.3-5.3,4.9H569.6z"/>
			<path class="st7" d="M578.1,100.9c1.2-2.4,3.3-3.3,5-3.3c0.1,0,0.6,0,0.8,0v2.4c-0.3,0-0.6-0.1-0.9-0.1c-3.7,0-4.9,3.1-4.9,5.8
				v7.7h-2.3V97.8h2.3V100.9z"/>
			<path class="st7" d="M595.4,109.4v-9.6h-2.9v-2h2.9v-4.5h2.3v4.5h4v2h-4v9.5c0,1.4,0.8,2.2,2.6,2.2c0.5,0,1.1,0,1.4-0.1v1.9
				c-0.5,0.1-1.4,0.2-1.8,0.2C596.4,113.5,595.4,111.7,595.4,109.4z"/>
			<path class="st7" d="M616.8,104.3c0-2.8-1.4-4.8-4.3-4.8c-2.7,0-4.7,2.2-4.7,5v8.9h-2.3V89.5h2.3v11c1.2-2.1,3.1-3.1,5.4-3.1
				c3.8,0,5.9,2.6,5.9,6.3v9.7h-2.3V104.3z"/>
			<path class="st7" d="M626.3,100.9c1.2-2.4,3.3-3.3,5-3.3c0.1,0,0.6,0,0.8,0v2.4c-0.3,0-0.6-0.1-0.9-0.1c-3.7,0-4.9,3.1-4.9,5.8
				v7.7H624V97.8h2.3V100.9z"/>
			<path class="st7" d="M635.8,106.3c0.2,3,2.6,5.4,5.6,5.4c2.3,0,4.1-1.1,4.8-3.3l2.1,0.6c-0.9,3-3.8,4.7-6.9,4.7
				c-4.5,0-7.9-3.6-7.9-8.1c0-4.3,3.2-8.1,7.6-8.1c4.8,0,7.4,3.5,7.4,8c0,0.3,0,0.5,0,0.8H635.8z M646.2,104.4
				c-0.3-2.8-2.1-4.9-5.1-4.9c-2.7,0-4.9,2.3-5.3,4.9H646.2z"/>
			<path class="st7" d="M661.9,103.3c0-2.5-1.4-3.8-4-3.8c-2.6,0-3.8,1.7-4.1,3.2l-2.2-0.5c0.1-1.3,1.9-4.8,6.4-4.8
				c3.3,0,5,1.5,5.7,3.2c0.4,0.9,0.5,2.1,0.5,2.6v10.1h-2.2v-2.8h0c-1.2,1.9-2.9,3-5.3,3c-3.2,0-5.2-2-5.2-4.6v-0.2
				c0-3.4,3.4-4.5,6.2-4.5h4.3V103.3z M657.5,106.3c-1.7,0-3.9,0.5-3.9,2.6c0,1.8,1.5,2.8,3.4,2.8c2.8,0,4.9-2,4.9-4.8v-0.6H657.5z"
				/>
			<path class="st7" d="M670,109.4v-9.6h-2.9v-2h2.9v-4.5h2.3v4.5h4v2h-4v9.5c0,1.4,0.8,2.2,2.6,2.2c0.5,0,1.1,0,1.4-0.1v1.9
				c-0.5,0.1-1.4,0.2-1.8,0.2C671,113.5,670,111.7,670,109.4z"/>
			<path class="st7" d="M684.9,113.7c-4.3,0-5.7-2.9-6-4.6l2.1-0.5c0.3,1.4,1.4,3.1,3.8,3.1c1.7,0,3.3-0.9,3.3-2.6
				c0-1.9-2.1-2.3-3.7-2.6c-2.6-0.4-5.2-1.3-5.2-4.4c0-2.9,2.7-4.7,5.2-4.7c4.1,0,5.5,2.8,5.7,4.3l-2.1,0.5
				c-0.3-1.1-1.1-2.8-3.6-2.8c-1.7,0-3,1.1-3,2.5c0,2,2.1,2.3,3.7,2.5c2.6,0.3,5.1,1.7,5.1,4.5C690.4,111.8,687.9,113.7,684.9,113.7
				z"/>
			<path class="st7" d="M698.3,106.8c0-0.2,0-0.4,0-0.5c0-2.7,1.7-4,2.9-5.4c1.3-1.4,2.9-2.6,2.9-4.7c0-1.9-1.3-3.8-4.3-3.8
				c-3,0-4.6,2.2-4.4,5l-2.3-0.1c0-0.2,0-0.4,0-0.7c0-3.8,3.1-6.5,6.8-6.5c4.1,0,6.7,2.8,6.7,6c0,2.3-1.4,3.8-3.4,5.8
				c-1.5,1.5-2.6,2.4-2.6,4.8H698.3z M699.3,113.7c1,0,1.7-0.8,1.7-1.7c0-0.9-0.7-1.7-1.7-1.7c-0.9,0-1.7,0.8-1.7,1.7
				C697.6,112.9,698.4,113.7,699.3,113.7z"/>
		</g>
	</g>
	<g class="st3">
		<path d="M882.7,619.3c-2.7,0-5-1.6-5.3-4.2l1.5-0.3c0.3,1.8,1.6,3,3.7,3c2.1,0,3.7-1.1,3.7-2.9c0-1.7-1.3-2.8-3.7-2.8h-1.5v-1.5
			h1.5c2.1,0,3.4-1.3,3.4-2.8c0-1.6-1.2-2.7-3.4-2.7c-2.1,0-3.3,1.3-3.6,2.9l-1.5-0.3c0.3-2.1,2.3-4,5.1-4c3.3,0,5,2,5,4
			c0,1.7-1,2.9-2.4,3.5v0c1.7,0.5,2.8,1.9,2.8,3.7C888,617.3,885.9,619.3,882.7,619.3z"/>
		<path d="M891.6,613.3c-1.1,0-2-0.9-2-2c0-1.1,0.9-2,2-2c1.1,0,2,0.9,2,2C893.6,612.4,892.7,613.3,891.6,613.3z M891.6,610
			c-0.7,0-1.3,0.6-1.3,1.3c0,0.7,0.6,1.3,1.3,1.3s1.3-0.6,1.3-1.3C892.9,610.6,892.3,610,891.6,610z M896.5,609.4h0.9l-5.8,8.9h-0.9
			L896.5,609.4z M896.6,618.4c-1.1,0-2-0.9-2-2c0-1.1,0.9-2,2-2s2,0.9,2,2C898.6,617.5,897.7,618.4,896.6,618.4z M896.6,615.1
			c-0.7,0-1.3,0.6-1.3,1.3c0,0.7,0.6,1.3,1.3,1.3s1.3-0.6,1.3-1.3C897.8,615.7,897.3,615.1,896.6,615.1z"/>
	</g>
</g>
</svg>
