<?xml version="1.0" encoding="utf-8"?>
<!-- Generator: Adobe Illustrator 21.1.0, SVG Export Plug-In . SVG Version: 6.00 Build 0)  -->
<svg version="1.1" id="Layer_1" xmlns="http://www.w3.org/2000/svg" xmlns:xlink="http://www.w3.org/1999/xlink" x="0px" y="0px"
	 viewBox="0 0 1500 1053" style="enable-background:new 0 0 1500 1053;" xml:space="preserve">
<style type="text/css">
	.st0{fill:none;}
	.st1{fill:none;stroke:#000000;stroke-width:2;stroke-linecap:round;stroke-miterlimit:10;}
	.st2{fill:none;stroke:#000000;stroke-width:2;stroke-linecap:round;stroke-miterlimit:10;stroke-dasharray:0,10;}
	.st3{opacity:0.9;}
	.st4{fill:#E83D4A;}
	.st5{opacity:0.2;}
	.st6{fill:url(#SVGID_1_);}
	.st7{fill:#FF0000;}
	.st8{fill:url(#SVGID_2_);}
	.st9{fill:#1A1A1A;}
	.st10{opacity:0.73;}
	.st11{fill:#ED1C24;}
	.st12{fill:url(#SVGID_3_);}
	.st13{fill:url(#SVGID_4_);}
</style>
<pattern  y="1053" width="240" height="240" patternUnits="userSpaceOnUse" id="Unnamed_Pattern_2" viewBox="1 -241 240 240" style="overflow:visible;">
	<g>
		<rect x="1" y="-241" class="st0" width="240" height="240"/>
		<g>
			<g>
				<line class="st1" x1="241" y1="-1" x2="241" y2="-1"/>
			</g>
		</g>
		<g>
			<g>
				<line class="st1" x1="1" y1="-1" x2="1" y2="-1"/>
				<line class="st2" x1="11" y1="-1" x2="236" y2="-1"/>
				<line class="st1" x1="241" y1="-1" x2="241" y2="-1"/>
			</g>
		</g>
		<g>
			<g>
				<line class="st1" x1="1" y1="-1" x2="1" y2="-1"/>
			</g>
		</g>
		<g>
			<g>
				<line class="st1" x1="241" y1="-241" x2="241" y2="-241"/>
			</g>
			<g>
				<line class="st1" x1="241" y1="-231" x2="241" y2="-231"/>
			</g>
			<g>
				<line class="st1" x1="241" y1="-221" x2="241" y2="-221"/>
			</g>
			<g>
				<line class="st1" x1="241" y1="-211" x2="241" y2="-211"/>
			</g>
			<g>
				<line class="st1" x1="241" y1="-201" x2="241" y2="-201"/>
			</g>
			<g>
				<line class="st1" x1="241" y1="-191" x2="241" y2="-191"/>
			</g>
			<g>
				<line class="st1" x1="241" y1="-181" x2="241" y2="-181"/>
			</g>
			<g>
				<line class="st1" x1="241" y1="-171" x2="241" y2="-171"/>
			</g>
			<g>
				<line class="st1" x1="241" y1="-161" x2="241" y2="-161"/>
			</g>
			<g>
				<line class="st1" x1="241" y1="-151" x2="241" y2="-151"/>
			</g>
			<g>
				<line class="st1" x1="241" y1="-141" x2="241" y2="-141"/>
			</g>
			<g>
				<line class="st1" x1="241" y1="-131" x2="241" y2="-131"/>
			</g>
			<g>
				<line class="st1" x1="241" y1="-121" x2="241" y2="-121"/>
			</g>
			<g>
				<line class="st1" x1="241" y1="-111" x2="241" y2="-111"/>
			</g>
			<g>
				<line class="st1" x1="241" y1="-101" x2="241" y2="-101"/>
			</g>
			<g>
				<line class="st1" x1="241" y1="-91" x2="241" y2="-91"/>
			</g>
			<g>
				<line class="st1" x1="241" y1="-81" x2="241" y2="-81"/>
			</g>
			<g>
				<line class="st1" x1="241" y1="-71" x2="241" y2="-71"/>
			</g>
			<g>
				<line class="st1" x1="241" y1="-61" x2="241" y2="-61"/>
			</g>
			<g>
				<line class="st1" x1="241" y1="-51" x2="241" y2="-51"/>
			</g>
			<g>
				<line class="st1" x1="241" y1="-41" x2="241" y2="-41"/>
			</g>
			<g>
				<line class="st1" x1="241" y1="-31" x2="241" y2="-31"/>
			</g>
			<g>
				<line class="st1" x1="241" y1="-21" x2="241" y2="-21"/>
			</g>
			<g>
				<line class="st1" x1="241" y1="-11" x2="241" y2="-11"/>
			</g>
			<g>
				<line class="st1" x1="241" y1="-1" x2="241" y2="-1"/>
			</g>
		</g>
		<g>
			<g>
				<line class="st1" x1="1" y1="-241" x2="1" y2="-241"/>
				<line class="st2" x1="11" y1="-241" x2="236" y2="-241"/>
				<line class="st1" x1="241" y1="-241" x2="241" y2="-241"/>
			</g>
			<g>
				<line class="st1" x1="1" y1="-231" x2="1" y2="-231"/>
				<line class="st2" x1="11" y1="-231" x2="236" y2="-231"/>
				<line class="st1" x1="241" y1="-231" x2="241" y2="-231"/>
			</g>
			<g>
				<line class="st1" x1="1" y1="-221" x2="1" y2="-221"/>
				<line class="st2" x1="11" y1="-221" x2="236" y2="-221"/>
				<line class="st1" x1="241" y1="-221" x2="241" y2="-221"/>
			</g>
			<g>
				<line class="st1" x1="1" y1="-211" x2="1" y2="-211"/>
				<line class="st2" x1="11" y1="-211" x2="236" y2="-211"/>
				<line class="st1" x1="241" y1="-211" x2="241" y2="-211"/>
			</g>
			<g>
				<line class="st1" x1="1" y1="-201" x2="1" y2="-201"/>
				<line class="st2" x1="11" y1="-201" x2="236" y2="-201"/>
				<line class="st1" x1="241" y1="-201" x2="241" y2="-201"/>
			</g>
			<g>
				<line class="st1" x1="1" y1="-191" x2="1" y2="-191"/>
				<line class="st2" x1="11" y1="-191" x2="236" y2="-191"/>
				<line class="st1" x1="241" y1="-191" x2="241" y2="-191"/>
			</g>
			<g>
				<line class="st1" x1="1" y1="-181" x2="1" y2="-181"/>
				<line class="st2" x1="11" y1="-181" x2="236" y2="-181"/>
				<line class="st1" x1="241" y1="-181" x2="241" y2="-181"/>
			</g>
			<g>
				<line class="st1" x1="1" y1="-171" x2="1" y2="-171"/>
				<line class="st2" x1="11" y1="-171" x2="236" y2="-171"/>
				<line class="st1" x1="241" y1="-171" x2="241" y2="-171"/>
			</g>
			<g>
				<line class="st1" x1="1" y1="-161" x2="1" y2="-161"/>
				<line class="st2" x1="11" y1="-161" x2="236" y2="-161"/>
				<line class="st1" x1="241" y1="-161" x2="241" y2="-161"/>
			</g>
			<g>
				<line class="st1" x1="1" y1="-151" x2="1" y2="-151"/>
				<line class="st2" x1="11" y1="-151" x2="236" y2="-151"/>
				<line class="st1" x1="241" y1="-151" x2="241" y2="-151"/>
			</g>
			<g>
				<line class="st1" x1="1" y1="-141" x2="1" y2="-141"/>
				<line class="st2" x1="11" y1="-141" x2="236" y2="-141"/>
				<line class="st1" x1="241" y1="-141" x2="241" y2="-141"/>
			</g>
			<g>
				<line class="st1" x1="1" y1="-131" x2="1" y2="-131"/>
				<line class="st2" x1="11" y1="-131" x2="236" y2="-131"/>
				<line class="st1" x1="241" y1="-131" x2="241" y2="-131"/>
			</g>
			<g>
				<line class="st1" x1="1" y1="-121" x2="1" y2="-121"/>
				<line class="st2" x1="11" y1="-121" x2="236" y2="-121"/>
				<line class="st1" x1="241" y1="-121" x2="241" y2="-121"/>
			</g>
			<g>
				<line class="st1" x1="1" y1="-111" x2="1" y2="-111"/>
				<line class="st2" x1="11" y1="-111" x2="236" y2="-111"/>
				<line class="st1" x1="241" y1="-111" x2="241" y2="-111"/>
			</g>
			<g>
				<line class="st1" x1="1" y1="-101" x2="1" y2="-101"/>
				<line class="st2" x1="11" y1="-101" x2="236" y2="-101"/>
				<line class="st1" x1="241" y1="-101" x2="241" y2="-101"/>
			</g>
			<g>
				<line class="st1" x1="1" y1="-91" x2="1" y2="-91"/>
				<line class="st2" x1="11" y1="-91" x2="236" y2="-91"/>
				<line class="st1" x1="241" y1="-91" x2="241" y2="-91"/>
			</g>
			<g>
				<line class="st1" x1="1" y1="-81" x2="1" y2="-81"/>
				<line class="st2" x1="11" y1="-81" x2="236" y2="-81"/>
				<line class="st1" x1="241" y1="-81" x2="241" y2="-81"/>
			</g>
			<g>
				<line class="st1" x1="1" y1="-71" x2="1" y2="-71"/>
				<line class="st2" x1="11" y1="-71" x2="236" y2="-71"/>
				<line class="st1" x1="241" y1="-71" x2="241" y2="-71"/>
			</g>
			<g>
				<line class="st1" x1="1" y1="-61" x2="1" y2="-61"/>
				<line class="st2" x1="11" y1="-61" x2="236" y2="-61"/>
				<line class="st1" x1="241" y1="-61" x2="241" y2="-61"/>
			</g>
			<g>
				<line class="st1" x1="1" y1="-51" x2="1" y2="-51"/>
				<line class="st2" x1="11" y1="-51" x2="236" y2="-51"/>
				<line class="st1" x1="241" y1="-51" x2="241" y2="-51"/>
			</g>
			<g>
				<line class="st1" x1="1" y1="-41" x2="1" y2="-41"/>
				<line class="st2" x1="11" y1="-41" x2="236" y2="-41"/>
				<line class="st1" x1="241" y1="-41" x2="241" y2="-41"/>
			</g>
			<g>
				<line class="st1" x1="1" y1="-31" x2="1" y2="-31"/>
				<line class="st2" x1="11" y1="-31" x2="236" y2="-31"/>
				<line class="st1" x1="241" y1="-31" x2="241" y2="-31"/>
			</g>
			<g>
				<line class="st1" x1="1" y1="-21" x2="1" y2="-21"/>
				<line class="st2" x1="11" y1="-21" x2="236" y2="-21"/>
				<line class="st1" x1="241" y1="-21" x2="241" y2="-21"/>
			</g>
			<g>
				<line class="st1" x1="1" y1="-11" x2="1" y2="-11"/>
				<line class="st2" x1="11" y1="-11" x2="236" y2="-11"/>
				<line class="st1" x1="241" y1="-11" x2="241" y2="-11"/>
			</g>
			<g>
				<line class="st1" x1="1" y1="-1" x2="1" y2="-1"/>
				<line class="st2" x1="11" y1="-1" x2="236" y2="-1"/>
				<line class="st1" x1="241" y1="-1" x2="241" y2="-1"/>
			</g>
		</g>
		<g>
			<g>
				<line class="st1" x1="1" y1="-241" x2="1" y2="-241"/>
			</g>
			<g>
				<line class="st1" x1="1" y1="-231" x2="1" y2="-231"/>
			</g>
			<g>
				<line class="st1" x1="1" y1="-221" x2="1" y2="-221"/>
			</g>
			<g>
				<line class="st1" x1="1" y1="-211" x2="1" y2="-211"/>
			</g>
			<g>
				<line class="st1" x1="1" y1="-201" x2="1" y2="-201"/>
			</g>
			<g>
				<line class="st1" x1="1" y1="-191" x2="1" y2="-191"/>
			</g>
			<g>
				<line class="st1" x1="1" y1="-181" x2="1" y2="-181"/>
			</g>
			<g>
				<line class="st1" x1="1" y1="-171" x2="1" y2="-171"/>
			</g>
			<g>
				<line class="st1" x1="1" y1="-161" x2="1" y2="-161"/>
			</g>
			<g>
				<line class="st1" x1="1" y1="-151" x2="1" y2="-151"/>
			</g>
			<g>
				<line class="st1" x1="1" y1="-141" x2="1" y2="-141"/>
			</g>
			<g>
				<line class="st1" x1="1" y1="-131" x2="1" y2="-131"/>
			</g>
			<g>
				<line class="st1" x1="1" y1="-121" x2="1" y2="-121"/>
			</g>
			<g>
				<line class="st1" x1="1" y1="-111" x2="1" y2="-111"/>
			</g>
			<g>
				<line class="st1" x1="1" y1="-101" x2="1" y2="-101"/>
			</g>
			<g>
				<line class="st1" x1="1" y1="-91" x2="1" y2="-91"/>
			</g>
			<g>
				<line class="st1" x1="1" y1="-81" x2="1" y2="-81"/>
			</g>
			<g>
				<line class="st1" x1="1" y1="-71" x2="1" y2="-71"/>
			</g>
			<g>
				<line class="st1" x1="1" y1="-61" x2="1" y2="-61"/>
			</g>
			<g>
				<line class="st1" x1="1" y1="-51" x2="1" y2="-51"/>
			</g>
			<g>
				<line class="st1" x1="1" y1="-41" x2="1" y2="-41"/>
			</g>
			<g>
				<line class="st1" x1="1" y1="-31" x2="1" y2="-31"/>
			</g>
			<g>
				<line class="st1" x1="1" y1="-21" x2="1" y2="-21"/>
			</g>
			<g>
				<line class="st1" x1="1" y1="-11" x2="1" y2="-11"/>
			</g>
			<g>
				<line class="st1" x1="1" y1="-1" x2="1" y2="-1"/>
			</g>
		</g>
		<g>
			<g>
				<line class="st1" x1="241" y1="-241" x2="241" y2="-241"/>
			</g>
		</g>
		<g>
			<g>
				<line class="st1" x1="1" y1="-241" x2="1" y2="-241"/>
				<line class="st2" x1="11" y1="-241" x2="236" y2="-241"/>
				<line class="st1" x1="241" y1="-241" x2="241" y2="-241"/>
			</g>
		</g>
		<g>
			<g>
				<line class="st1" x1="1" y1="-241" x2="1" y2="-241"/>
			</g>
		</g>
	</g>
</pattern>
<g class="st3">
	<rect x="852.4" y="248.2" class="st4" width="318.4" height="606"/>
</g>
<g class="st5">
	
		<pattern  id="SVGID_1_" xlink:href="#Unnamed_Pattern_2" patternTransform="matrix(1.4151 0 0 1.4151 5123.7388 11096.0771)"  class="st5">
	</pattern>
	<rect x="852.4" y="248.2" class="st6" width="318.4" height="606"/>
</g>
<g>
	<g>
		<path class="st7" d="M480,229.4h2.6c0.1,1.8,1.4,3.7,4.2,3.7c2.6,0,4.1-1.8,4.1-4.6c0-2.6-1.4-4.4-4.1-4.4c-1.8,0-3.1,0.7-3.8,1.6
			h-2.4l1.5-10.4h10.4v2.4h-8.4l-0.8,5.6c0.4-0.5,1.7-1.4,3.8-1.4c3.8,0,6.4,2.4,6.4,6.6c0,3.9-2.6,6.7-6.6,6.7
			C482.4,235.3,480,232.8,480,229.4z"/>
		<path class="st7" d="M502.8,225.7c2.7-1.6,3.8-3,3.8-5c0-2.1-1.2-3.3-3.7-3.3c-3,0-3.9,1.9-3.9,4.8h-2.7c0-4.7,2.6-7.3,6.7-7.3
			c4,0,6.3,2.2,6.3,5.7c0,3-2.5,5.2-6.1,7.5c-2,1.3-3.5,2.9-3.8,4.4h10.2v2.4h-13.4C496.2,231.4,497.7,228.9,502.8,225.7z"/>
		<path class="st7" d="M511.5,225.8c0-1.7,1.3-3,3-3c1.6,0,3,1.3,3,3s-1.3,3-3,3C512.8,228.7,511.5,227.4,511.5,225.8z M516.2,225.8
			c0-1-0.8-1.8-1.8-1.8c-1,0-1.8,0.8-1.8,1.8c0,1,0.8,1.8,1.8,1.8C515.4,227.6,516.2,226.8,516.2,225.8z M521,222.5h1.1l-6.8,12.4
			h-1.1L521,222.5z M519,231.6c0-1.7,1.3-3,3-3c1.6,0,3,1.3,3,3c0,1.6-1.3,3-3,3C520.4,234.6,519,233.3,519,231.6z M523.8,231.6
			c0-1-0.8-1.8-1.8-1.8c-1,0-1.8,0.8-1.8,1.8c0,1,0.8,1.8,1.8,1.8C523,233.4,523.8,232.6,523.8,231.6z"/>
	</g>
</g>
<g>
	<g>
		<path d="M823.2,849.2c-0.9-1.3-1.9-2.8-3.5-2.8c-1.3,0-2,0.8-2,2.2c0,1.6,1.1,2.2,2.7,2.2v2.5c-3.2,0.1-5-1.7-5-4.9
			c0-2.6,1.4-4.6,4.1-4.6c2.7,0,4,1.8,5.2,3.5c0.9,1.2,1.9,2.4,2.6,2.6v-6.3h2.2v9.6C826.4,853.3,825,851.7,823.2,849.2z"/>
		<path d="M822.5,841.9c-5.2,0-7.2-2.2-7.2-5s2-5,7.2-5c5.3,0,7.2,2.3,7.2,5S827.8,841.9,822.5,841.9z M822.5,834.6
			c-1.8,0-5,0.2-5,2.3c0,2,3.3,2.2,5,2.2c1.8,0,5-0.2,5-2.2C827.6,834.8,824.4,834.6,822.5,834.6z"/>
		<path d="M820.3,827.1v3.4h-2c0-2.1-0.6-3.6-2.7-4v-2h13.8v2.6H820.3z"/>
		<path d="M818,815.8v6.6h-2.4v-9.5h2.2c3.3,3.1,7.3,4.6,11.6,4.6v2.8C825,820.1,821,818.6,818,815.8z"/>
	</g>
</g>
<g>
	<g>
		<path d="M180.7,849.2c-0.9-1.3-1.9-2.8-3.5-2.8c-1.3,0-2,0.8-2,2.2c0,1.6,1.1,2.2,2.7,2.2v2.5c-3.2,0.1-5-1.7-5-4.9
			c0-2.6,1.4-4.6,4.1-4.6c2.7,0,4,1.8,5.2,3.5c0.9,1.2,1.9,2.4,2.6,2.6v-6.3h2.2v9.6C183.9,853.3,182.5,851.7,180.7,849.2z"/>
		<path d="M180.1,841.9c-5.2,0-7.2-2.2-7.2-5s2-5,7.2-5c5.3,0,7.2,2.3,7.2,5S185.4,841.9,180.1,841.9z M180.1,834.6
			c-1.8,0-5,0.2-5,2.3c0,2,3.3,2.2,5,2.2c1.8,0,5-0.2,5-2.2C185.1,834.8,181.9,834.6,180.1,834.6z"/>
		<path d="M177.8,827.1v3.4h-2c0-2.1-0.6-3.6-2.7-4v-2H187v2.6H177.8z"/>
		<path d="M180.3,821.9c-3.9,0-7.4-1.2-7.4-5.1c0-2.8,1.4-4.1,3.8-4.3v2.5c-0.9,0.1-1.7,0.7-1.7,1.9c0,1.4,1.4,2.4,4.1,2.4h0.2
			l-0.1-0.1c-0.8-0.5-1.4-1.6-1.4-2.9c0-2.9,2-4.2,4.6-4.2c3,0,4.9,1.9,4.9,4.8C187.3,820.9,184,821.9,180.3,821.9z M182.5,814.8
			c-1.5,0-2.6,0.7-2.6,2.1c0,1.5,1.2,2.2,2.6,2.2c1.6,0,2.7-0.8,2.7-2.2C185.1,815.6,184,814.8,182.5,814.8z"/>
	</g>
</g>
<g>
	<g>
		<path d="M647.3,600.2h-4.7v-2c3.4-0.2,4.6-0.6,5.4-3.7h2v19.6h-2.7V600.2z"/>
		<path d="M654.1,608.7h2.6c0.1,1.8,1.4,3.7,4.2,3.7c2.6,0,4.1-1.8,4.1-4.6c0-2.6-1.4-4.4-4.1-4.4c-1.8,0-3.1,0.7-3.8,1.6h-2.4
			l1.5-10.4h10.4v2.4h-8.4l-0.8,5.6c0.4-0.5,1.7-1.4,3.8-1.4c3.8,0,6.4,2.4,6.4,6.6c0,3.9-2.6,6.7-6.6,6.7
			C656.5,614.5,654.1,612,654.1,608.7z"/>
		<path d="M669.3,605c0-1.7,1.3-3,3-3c1.6,0,3,1.3,3,3s-1.3,3-3,3C670.6,608,669.3,606.7,669.3,605z M674,605c0-1-0.8-1.8-1.8-1.8
			c-1,0-1.8,0.8-1.8,1.8c0,1,0.8,1.8,1.8,1.8C673.2,606.8,674,606,674,605z M678.8,601.8h1.1l-6.8,12.4h-1.1L678.8,601.8z
			 M676.8,610.9c0-1.7,1.3-3,3-3c1.6,0,3,1.3,3,3c0,1.7-1.3,3-3,3C678.2,613.9,676.8,612.5,676.8,610.9z M681.6,610.9
			c0-1-0.8-1.8-1.8-1.8c-1,0-1.8,0.8-1.8,1.8c0,1,0.8,1.8,1.8,1.8C680.8,612.7,681.6,611.9,681.6,610.9z"/>
	</g>
</g>
<g>
	<g>
		<path d="M1294,600.2h-4.7v-2c3.4-0.2,4.6-0.6,5.4-3.7h2v19.6h-2.7V600.2z"/>
		<path d="M1300.8,608.7h2.6c0.1,1.8,1.4,3.7,4.2,3.7c2.6,0,4.1-1.8,4.1-4.6c0-2.6-1.4-4.4-4.1-4.4c-1.8,0-3.1,0.7-3.8,1.6h-2.4
			l1.5-10.4h10.4v2.4h-8.4l-0.8,5.6c0.4-0.5,1.7-1.4,3.8-1.4c3.8,0,6.4,2.4,6.4,6.6c0,3.9-2.6,6.7-6.6,6.7
			C1303.2,614.5,1300.8,612,1300.8,608.7z"/>
		<path d="M1316,605c0-1.7,1.3-3,3-3c1.6,0,3,1.3,3,3s-1.3,3-3,3C1317.3,608,1316,606.7,1316,605z M1320.7,605c0-1-0.8-1.8-1.8-1.8
			c-1,0-1.8,0.8-1.8,1.8c0,1,0.8,1.8,1.8,1.8C1319.9,606.8,1320.7,606,1320.7,605z M1325.5,601.8h1.1l-6.8,12.4h-1.1L1325.5,601.8z
			 M1323.5,610.9c0-1.7,1.3-3,3-3s3,1.3,3,3c0,1.7-1.3,3-3,3S1323.5,612.5,1323.5,610.9z M1328.3,610.9c0-1-0.8-1.8-1.8-1.8
			c-1,0-1.8,0.8-1.8,1.8c0,1,0.8,1.8,1.8,1.8C1327.5,612.7,1328.3,611.9,1328.3,610.9z"/>
	</g>
</g>
<g>
	<g>
		<path class="st7" d="M1124.8,223.8h2.6c0.1,1.8,1.4,3.7,4.2,3.7c2.6,0,4.1-1.8,4.1-4.6c0-2.6-1.4-4.4-4.1-4.4
			c-1.8,0-3.1,0.7-3.8,1.6h-2.4l1.5-10.4h10.4v2.4h-8.4l-0.8,5.6c0.4-0.5,1.7-1.4,3.8-1.4c3.8,0,6.4,2.4,6.4,6.6
			c0,3.9-2.6,6.7-6.6,6.7C1127.2,229.6,1124.8,227.1,1124.8,223.8z"/>
		<path class="st7" d="M1140.8,223.2h2.7c0.2,2.5,1.5,4.2,4.3,4.2c2.4,0,4.2-1.4,4.2-3.8c0-1.9-0.7-3.7-4.9-3.7h-0.7v-2h0.9
			c2.7,0,4.1-1.1,4.1-3.2c0-2-1.6-3.1-3.5-3.1c-1.8,0-4,0.4-4.2,4.1h-2.7c0-4,2.5-6.3,6.8-6.3c3.9,0,6.3,1.9,6.3,5.2
			c0,1.9-0.8,3.2-2.5,4l-0.2,0.1l0.2,0.1c1.5,0.5,3.3,1.7,3.3,4.6c0,4.2-3.1,6.3-7.1,6.3C1143.4,229.6,1140.9,227.3,1140.8,223.2z"
			/>
		<path class="st7" d="M1156.8,220.1c0-1.7,1.3-3,3-3c1.6,0,3,1.3,3,3s-1.3,3-3,3C1158.1,223.1,1156.8,221.8,1156.8,220.1z
			 M1161.5,220.1c0-1-0.8-1.8-1.8-1.8c-1,0-1.8,0.8-1.8,1.8c0,1,0.8,1.8,1.8,1.8C1160.7,221.9,1161.5,221.1,1161.5,220.1z
			 M1166.3,216.9h1.1l-6.8,12.4h-1.1L1166.3,216.9z M1164.3,226c0-1.7,1.3-3,3-3s3,1.3,3,3c0,1.6-1.3,3-3,3S1164.3,227.6,1164.3,226
			z M1169.1,226c0-1-0.8-1.8-1.8-1.8c-1,0-1.8,0.8-1.8,1.8c0,1,0.8,1.8,1.8,1.8C1168.3,227.8,1169.1,227,1169.1,226z"/>
	</g>
</g>
<g class="st3">
	<rect x="207.1" y="254.2" class="st4" width="318.4" height="600"/>
</g>
<g class="st5">
	
		<pattern  id="SVGID_2_" xlink:href="#Unnamed_Pattern_2" patternTransform="matrix(1.4151 0 0 1.4151 4987.8828 11096.0771)"  class="st5">
	</pattern>
	<rect x="207.1" y="254.2" class="st8" width="318.4" height="600"/>
</g>
<g class="st3">
	<rect x="366.3" y="632.2" class="st9" width="318.4" height="222"/>
</g>
<g class="st3">
	<rect x="1011.6" y="632.2" class="st9" width="318.4" height="222"/>
</g>
<g>
	<g>
		<g>
			<path d="M1149.8,955l-5.2-8.5h2.2l4,6.7l4-6.7h2.2l-5.2,8.5v5.7h-2V955z"/>
			<path d="M1161,959.2c1.3,0,2.3-0.6,2.5-1.6h1.7c-0.4,2-2,3.3-4.3,3.3c-2.7,0-4.7-1.9-4.7-5.4c0-3.2,2-5.4,4.7-5.4
				c2.9,0,4.5,2.1,4.5,5.1c0,0.3,0,0.6,0,0.9h-7.4C1158.1,958.1,1159.4,959.2,1161,959.2z M1158.1,954.6h5.6
				c-0.1-1.5-1.1-2.7-2.7-2.7C1159.4,951.9,1158.3,952.9,1158.1,954.6z"/>
			<path d="M1167,957.5h1.8c0.1,1.2,0.9,1.8,2.3,1.8c1.4,0,2.2-0.4,2.2-1.3c0-0.7-0.5-1-1.7-1.4l-1.3-0.5c-1.6-0.6-3-1.1-3-2.9
				c0-2,1.7-3,3.8-3c2.1,0,3.8,0.9,3.9,3.3h-1.8c-0.1-1.2-0.9-1.7-2.1-1.7c-1.4,0-1.9,0.5-1.9,1.2c0,0.7,0.4,0.9,1.7,1.3l1.9,0.7
				c1.4,0.5,2.4,1.2,2.4,2.7c0,2.3-1.9,3.2-4,3.2C1168.9,960.9,1167,960,1167,957.5z"/>
		</g>
	</g>
	<g class="st10">
		<g class="st10">
			<circle class="st11" cx="1109.4" cy="956.8" r="18.9"/>
		</g>
		<g class="st5">
			<circle class="st11" cx="1109.4" cy="956.8" r="18.9"/>
		</g>
	</g>
	<g>
		<g>
			<path d="M1149.8,1009.8l-5.2-8.5h2.2l4,6.7l4-6.7h2.2l-5.2,8.5v5.7h-2V1009.8z"/>
			<path d="M1161,1013.9c1.3,0,2.3-0.6,2.5-1.6h1.7c-0.4,2-2,3.3-4.3,3.3c-2.7,0-4.7-1.9-4.7-5.4c0-3.2,2-5.4,4.7-5.4
				c2.9,0,4.5,2.1,4.5,5.1c0,0.3,0,0.6,0,0.9h-7.4C1158.1,1012.8,1159.4,1013.9,1161,1013.9z M1158.1,1009.3h5.6
				c-0.1-1.5-1.1-2.7-2.7-2.7C1159.4,1006.6,1158.3,1007.6,1158.1,1009.3z"/>
			<path d="M1167,1012.2h1.8c0.1,1.2,0.9,1.8,2.3,1.8c1.4,0,2.2-0.4,2.2-1.3c0-0.7-0.5-1-1.7-1.4l-1.3-0.5c-1.6-0.6-3-1.1-3-2.9
				c0-2,1.7-3,3.8-3c2.1,0,3.8,0.9,3.9,3.3h-1.8c-0.1-1.2-0.9-1.7-2.1-1.7c-1.4,0-1.9,0.5-1.9,1.2c0,0.7,0.4,0.9,1.7,1.3l1.9,0.7
				c1.4,0.5,2.4,1.2,2.4,2.7c0,2.3-1.9,3.2-4,3.2C1168.9,1015.6,1167,1014.7,1167,1012.2z"/>
			<path d="M1177,1017.2c0.6,0,1.3-0.6,1.2-1.5h0c-0.6,0-1.2-0.4-1.2-1.2c0-0.8,0.6-1.2,1.2-1.2c0.7,0,1.2,0.5,1.2,1.6
				c0,2.1-1.2,3.3-2.5,3.3V1017.2z"/>
			<path d="M1194.9,1010.2c0,3.2-1.8,5.4-4.4,5.4c-1.3,0-2.3-0.5-3-1.4v1.1h-1.7v-14.2h1.8l0,5c0.7-0.9,1.7-1.3,3-1.3
				C1193.2,1004.9,1194.9,1007.1,1194.9,1010.2z M1193.1,1010.3c0-2.1-1-3.7-2.7-3.7c-1.8,0-3,1.4-2.9,3.7c0,2.4,1.2,3.7,2.9,3.7
				C1192.1,1014,1193.1,1012.4,1193.1,1010.3z"/>
			<path d="M1197.1,1011.6v-6.5h1.8l0,6.1c0,1.9,1,2.7,2.3,2.7c1.8,0,2.6-1.6,2.6-3.1v-5.7h1.8v10.2h-1.7v-1
				c-0.5,0.7-1.7,1.3-3.1,1.3C1198.4,1015.6,1197.1,1014.2,1197.1,1011.6z"/>
			<path d="M1209.2,1013.1v-6.3h-1.9v-1.6h1.9v-2.9h1.8v2.9h2.5v1.6h-2.5v5.9c0,1,0.4,1.1,1.2,1.1h1.3v1.6h-1.7
				C1210.3,1015.4,1209.2,1015,1209.2,1013.1z"/>
			<path d="M1220,1002.3c0-0.7,0.6-1.2,1.2-1.2c0.7,0,1.2,0.5,1.2,1.2c0,0.7-0.5,1.2-1.2,1.2C1220.6,1003.5,1220,1003,1220,1002.3z
				 M1220.3,1005.2h1.8v10.2h-1.8V1005.2z"/>
			<path d="M1225.8,1013.1v-6.3h-1.9v-1.6h1.9v-2.9h1.8v2.9h2.5v1.6h-2.5v5.9c0,1,0.4,1.1,1.2,1.1h1.3v1.6h-1.7
				C1226.9,1015.4,1225.8,1015,1225.8,1013.1z"/>
			<path d="M1234.4,1002.8c0,1.9-1.2,3.1-2.5,3.1v-0.9c0.6,0,1.2-0.6,1.2-1.4h0c-0.6,0-1.2-0.4-1.2-1.2c0-0.7,0.6-1.2,1.2-1.2
				C1233.8,1001.3,1234.4,1001.7,1234.4,1002.8z"/>
			<path d="M1235.5,1012.2h1.8c0.1,1.2,0.9,1.8,2.3,1.8c1.4,0,2.2-0.4,2.2-1.3c0-0.7-0.5-1-1.7-1.4l-1.3-0.5c-1.6-0.6-3-1.1-3-2.9
				c0-2,1.7-3,3.8-3c2.1,0,3.8,0.9,3.9,3.3h-1.8c-0.1-1.2-0.9-1.7-2.1-1.7c-1.4,0-1.9,0.5-1.9,1.2c0,0.7,0.4,0.9,1.7,1.3l1.9,0.7
				c1.4,0.5,2.4,1.2,2.4,2.7c0,2.3-1.9,3.2-4,3.2C1237.3,1015.6,1235.5,1014.7,1235.5,1012.2z"/>
			<path d="M1250,1010.3c0-3,1.9-5.4,4.8-5.4c2.9,0,4.8,2.3,4.8,5.4c0,3-1.9,5.4-4.8,5.4C1251.9,1015.6,1250,1013.3,1250,1010.3z
				 M1257.8,1010.3c0-2.2-1.2-3.7-3-3.7c-1.8,0-3,1.5-3,3.7c0,2.2,1.2,3.7,3,3.7C1256.6,1014,1257.8,1012.5,1257.8,1010.3z"/>
			<path d="M1261.8,1011.6v-6.5h1.8l0,6.1c0,1.9,1,2.7,2.3,2.7c1.8,0,2.6-1.6,2.6-3.1v-5.7h1.8v10.2h-1.7v-1
				c-0.5,0.7-1.7,1.3-3.1,1.3C1263.1,1015.6,1261.8,1014.2,1261.8,1011.6z"/>
			<path d="M1273.9,1013.1v-6.3h-1.9v-1.6h1.9v-2.9h1.8v2.9h2.5v1.6h-2.5v5.9c0,1,0.4,1.1,1.2,1.1h1.3v1.6h-1.7
				C1275,1015.4,1273.9,1015,1273.9,1013.1z"/>
			<path d="M1288.7,1001.2v14.2h-1.7v-1.1c-0.7,0.9-1.7,1.3-2.9,1.3c-2.9,0-4.5-2.1-4.5-5.4c0-3.1,1.8-5.3,4.5-5.3
				c1.2,0,2.2,0.5,2.9,1.3l0-5H1288.7z M1286.9,1010.3c0-2.3-1.1-3.7-2.8-3.7c-1.8,0-2.8,1.6-2.8,3.7c0,2.2,1.1,3.7,2.8,3.7
				C1285.7,1014,1286.9,1012.7,1286.9,1010.3L1286.9,1010.3z"/>
			<path d="M1290.8,1012.7c0-2,1.4-2.9,3.3-3.2l2.2-0.4c1-0.2,1.1-0.5,1.1-1c0-0.7-0.5-1.4-2.1-1.4c-1.5,0-2.2,0.6-2.2,1.6h-1.8
				c0-2.1,1.6-3.3,4-3.3c2.2,0,4,0.8,4,3.6v4.6c0,0.5,0.2,0.7,0.7,0.7h0.2v1.5h-1.4c-0.8,0-1.2-0.4-1.2-1.1v-0.2
				c-0.8,1-2,1.6-3.5,1.6C1292.3,1015.6,1290.8,1014.6,1290.8,1012.7z M1297.4,1011.4v-1.2c-0.2,0.1-0.6,0.2-0.9,0.3l-1.8,0.4
				c-1.4,0.3-2.1,0.7-2.1,1.6c0,0.9,0.6,1.5,1.7,1.5C1296.3,1014,1297.4,1012.8,1297.4,1011.4z"/>
			<path d="M1303,1013.1v-6.3h-1.9v-1.6h1.9v-2.9h1.8v2.9h2.5v1.6h-2.5v5.9c0,1,0.4,1.1,1.2,1.1h1.3v1.6h-1.7
				C1304.1,1015.4,1303,1015,1303,1013.1z"/>
			<path d="M1313.3,1013.9c1.3,0,2.3-0.6,2.5-1.6h1.7c-0.4,2-2,3.3-4.3,3.3c-2.7,0-4.7-1.9-4.7-5.4c0-3.2,2-5.4,4.7-5.4
				c2.9,0,4.5,2.1,4.5,5.1c0,0.3,0,0.6,0,0.9h-7.4C1310.5,1012.8,1311.7,1013.9,1313.3,1013.9z M1310.4,1009.3h5.6
				c-0.1-1.5-1.1-2.7-2.7-2.7C1311.7,1006.6,1310.6,1007.6,1310.4,1009.3z"/>
			<path d="M1328.6,1001.2v14.2h-1.7v-1.1c-0.7,0.9-1.7,1.3-2.9,1.3c-2.9,0-4.5-2.1-4.5-5.4c0-3.1,1.8-5.3,4.5-5.3
				c1.2,0,2.2,0.5,2.9,1.3l0-5H1328.6z M1326.8,1010.3c0-2.3-1.1-3.7-2.8-3.7c-1.8,0-2.8,1.6-2.8,3.7c0,2.2,1.1,3.7,2.8,3.7
				C1325.6,1014,1326.8,1012.7,1326.8,1010.3L1326.8,1010.3z"/>
		</g>
	</g>
	<g class="st3">
		<g class="st10">
			<circle class="st9" cx="1109.4" cy="1011.5" r="18.9"/>
		</g>
		<g class="st5">
			<circle class="st9" cx="1109.4" cy="1011.5" r="18.9"/>
		</g>
	</g>
	<g class="st5">
		<g class="st10">
			
				<pattern  id="SVGID_3_" xlink:href="#Unnamed_Pattern_2" patternTransform="matrix(1.4151 0 0 1.4151 4948.4175 11256.4521)"  class="st10">
			</pattern>
			<circle class="st12" cx="1109.4" cy="956.8" r="18.9"/>
		</g>
		<g class="st5">
			
				<pattern  id="SVGID_4_" xlink:href="#Unnamed_Pattern_2" patternTransform="matrix(1.4151 0 0 1.4151 4948.4175 11256.4521)"  class="st5">
			</pattern>
			<circle class="st13" cx="1109.4" cy="956.8" r="18.9"/>
		</g>
	</g>
</g>
<g>
	<path d="M212.4,28.6h9.9c8.1,0,15.2,5.3,15.2,15.2c0,8.8-6.2,15.2-15.6,15.2h-9.5V28.6z M221.9,55.3c6.2,0,11.4-3.9,11.4-11.5
		c0-7.6-4.8-11.4-11.8-11.4h-4.9v22.8H221.9z"/>
	<path d="M242.5,48.1c0-6.3,4-11.5,10.2-11.5s10.3,5,10.3,11.5c0,6.3-4,11.5-10.3,11.5C246.5,59.6,242.5,54.7,242.5,48.1z
		 M259.2,48.1c0-4.7-2.5-7.9-6.5-7.9c-3.9,0-6.4,3.3-6.4,7.9c0,4.7,2.5,7.9,6.4,7.9C256.6,56,259.2,52.8,259.2,48.1z"/>
	<path d="M279.9,64.5h3.1c1.1,0,2-0.2,2.5-0.6c0.5-0.4,0.8-1.1,0.8-1.8c0-0.8-0.3-1.8-0.7-3.1l-7.8-21.7h4.4l3.7,11.3l2.7,8.2
		l2.4-8.2l3-11.3h4.2l-8,25.6c-1.3,4.1-2.9,5.3-6.2,5.3h-4V64.5z"/>
	<path d="M301.5,48.1c0-6.3,4-11.5,10.2-11.5s10.3,5,10.3,11.5c0,6.3-4,11.5-10.3,11.5C305.5,59.6,301.5,54.7,301.5,48.1z
		 M318.2,48.1c0-4.7-2.5-7.9-6.5-7.9c-3.9,0-6.4,3.3-6.4,7.9c0,4.7,2.5,7.9,6.4,7.9C315.7,56,318.2,52.8,318.2,48.1z"/>
	<path d="M327.9,51V37.1h3.8l0,13.1c0,4.2,2.2,5.7,4.9,5.7c3.9,0,5.5-3.4,5.5-6.6V37.1h3.8V59h-3.7v-2.2c-1,1.6-3.6,2.8-6.5,2.8
		C330.7,59.6,327.9,56.5,327.9,51z"/>
	<path d="M364.9,28.6h3.8v10.6c1.4-1.7,3.7-2.6,6.2-2.6c5.1,0,8.2,3.2,8.2,8.6V59h-3.8l0-12.9c0-3.6-1.9-5.9-5.3-5.9
		c-2.1,0-4,1.4-4.7,3c-0.5,1.1-0.6,2.2-0.6,3.9V59h-3.8V28.6z"/>
	<path d="M388.7,53.3c0-4.3,3-6.2,7.1-7l4.7-0.9c2.1-0.4,2.3-1,2.3-2.2c0-1.4-1-3-4.5-3c-3.3,0-4.7,1.2-4.7,3.4h-3.9
		c0-4.4,3.4-7.1,8.5-7.1c4.8,0,8.5,1.7,8.5,7.8v9.9c0,1.1,0.4,1.5,1.5,1.5h0.5V59h-3.1c-1.6,0-2.5-0.8-2.5-2.3v-0.5
		c-1.7,2.3-4.2,3.4-7.5,3.4C392,59.6,388.7,57.3,388.7,53.3z M403,50.5v-2.6c-0.5,0.3-1.2,0.5-1.8,0.6l-3.8,0.8
		c-3.1,0.6-4.4,1.5-4.4,3.5c0,2,1.3,3.1,3.6,3.1C400.5,56,403,53.5,403,50.5z"/>
	<path d="M411.5,37.1h4.2l3.8,11.1l2.3,6.8h0l2.1-6.8l3.7-11.1h3.9L423.8,59h-4.3L411.5,37.1z"/>
	<path d="M445.1,56c2.8,0,4.8-1.2,5.3-3.5h3.7c-0.8,4.3-4.3,7.2-9.2,7.2c-5.8,0-10.1-4-10.1-11.5c0-6.9,4.3-11.5,10.1-11.5
		c6.1,0,9.7,4.5,9.7,11c0,0.6,0,1.3,0,1.9h-16C438.9,53.4,441.6,56,445.1,56z M438.8,46h12c-0.2-3.1-2.3-5.7-5.8-5.7
		C441.6,40.2,439.2,42.4,438.8,46z"/>
	<path d="M470.6,53.3c0-4.3,3-6.2,7.1-7l4.7-0.9c2.1-0.4,2.3-1,2.3-2.2c0-1.4-1-3-4.5-3c-3.3,0-4.7,1.2-4.7,3.4h-3.9
		c0-4.4,3.4-7.1,8.5-7.1c4.8,0,8.5,1.7,8.5,7.8v9.9c0,1.1,0.4,1.5,1.5,1.5h0.5V59h-3.1c-1.6,0-2.5-0.8-2.5-2.3v-0.5
		c-1.7,2.3-4.2,3.4-7.5,3.4C473.9,59.6,470.6,57.3,470.6,53.3z M484.9,50.5v-2.6c-0.5,0.3-1.2,0.5-1.8,0.6l-3.8,0.8
		c-3.1,0.6-4.4,1.5-4.4,3.5c0,2,1.3,3.1,3.6,3.1C482.4,56,484.9,53.5,484.9,50.5z"/>
	<path d="M212.4,79.6h12c5.7,0,9.5,2.8,9.5,8c0,3.1-1.4,5.1-3.4,6.3v0c2.4,1,4.3,3.2,4.3,7.1c0,6-4.6,9-10.3,9h-12V79.6z
		 M224.6,92.6c3.2,0,5.1-1.6,5.1-4.8c0-3-2.3-4.4-5.8-4.4h-7.3v9.3H224.6z M224,106.2c3.7,0,6.4-1.4,6.4-5.1c0-3.5-2.6-4.8-6.2-4.8
		h-7.7v9.9H224z"/>
	<path d="M241,102V88.1h3.8l0,13.1c0,4.2,2.2,5.7,4.9,5.7c3.9,0,5.5-3.4,5.5-6.6V88.1h3.8V110h-3.7v-2.2c-1,1.6-3.6,2.8-6.5,2.8
		C243.8,110.5,241,107.4,241,102z"/>
	<path d="M264.9,103.2h3.9c0.2,2.7,1.8,3.9,4.9,3.9c3.1,0,4.7-0.9,4.7-2.9c0-1.6-1-2.1-3.7-3l-2.8-1c-3.5-1.2-6.5-2.4-6.5-6.2
		c0-4.3,3.6-6.5,8.1-6.5c4.5,0,8.2,1.9,8.3,7.1H278c-0.1-2.5-1.9-3.6-4.4-3.6c-2.9,0-4.1,1-4.1,2.6c0,1.5,0.9,1.9,3.6,2.8l4,1.4
		c3.1,1.1,5.2,2.5,5.2,5.8c0,5-4.1,6.8-8.5,6.8C268.9,110.5,264.9,108.6,264.9,103.2z"/>
	<path d="M287.7,81.9c0-1.4,1.2-2.5,2.5-2.5c1.4,0,2.6,1.1,2.6,2.5c0,1.4-1.1,2.5-2.6,2.5C288.9,84.5,287.7,83.4,287.7,81.9z
		 M288.4,88.1h3.8V110h-3.8V88.1z"/>
	<path d="M299.6,88.1h3.7v2.3c1.2-1.6,3.7-2.8,6.4-2.8c5.1,0,8.1,3.3,8.1,9V110h-3.8l0-12.9c0-3.8-1.9-5.9-4.7-5.9
		c-3.5,0-5.9,2.5-5.9,6.4V110h-3.8V88.1z"/>
	<path d="M333.9,106.9c2.8,0,4.8-1.2,5.3-3.5h3.7c-0.8,4.3-4.3,7.2-9.2,7.2c-5.8,0-10.1-4-10.1-11.5c0-6.9,4.3-11.5,10.1-11.5
		c6.1,0,9.7,4.5,9.7,11c0,0.6,0,1.3,0,1.9h-16C327.8,104.4,330.4,106.9,333.9,106.9z M327.6,96.9h12c-0.2-3.1-2.3-5.7-5.8-5.7
		C330.5,91.2,328,93.3,327.6,96.9z"/>
	<path d="M348,103.2h3.9c0.2,2.7,1.8,3.9,4.9,3.9c3.1,0,4.7-0.9,4.7-2.9c0-1.6-1-2.1-3.7-3l-2.8-1c-3.5-1.2-6.5-2.4-6.5-6.2
		c0-4.3,3.6-6.5,8.1-6.5c4.5,0,8.2,1.9,8.3,7.1h-3.9c-0.1-2.5-1.9-3.6-4.4-3.6c-2.9,0-4.1,1-4.1,2.6c0,1.5,0.9,1.9,3.6,2.8l4,1.4
		c3.1,1.1,5.2,2.5,5.2,5.8c0,5-4.1,6.8-8.5,6.8C352,110.5,348,108.6,348,103.2z"/>
	<path d="M370,103.2h3.9c0.2,2.7,1.8,3.9,4.9,3.9c3.1,0,4.7-0.9,4.7-2.9c0-1.6-1-2.1-3.7-3l-2.8-1c-3.5-1.2-6.5-2.4-6.5-6.2
		c0-4.3,3.6-6.5,8.1-6.5c4.5,0,8.2,1.9,8.3,7.1h-3.9c-0.1-2.5-1.9-3.6-4.4-3.6c-2.9,0-4.1,1-4.1,2.6c0,1.5,0.9,1.9,3.6,2.8l4,1.4
		c3.1,1.1,5.2,2.5,5.2,5.8c0,5-4.1,6.8-8.5,6.8C374,110.5,370,108.6,370,103.2z"/>
	<path d="M403.9,95c0-8.7,5.7-16,14.3-16c8.2,0,12.2,5.3,12.8,11h-4c-0.8-4.1-4.1-7-8.9-7c-6.8,0-10,5.9-10,12.1
		c0,6.5,3.7,11.8,10.1,11.8c5.7,0,7.7-3.7,8.7-6.2h4c-1.1,5-5.6,10.2-12.8,10.2C409.9,110.7,403.9,104.6,403.9,95z"/>
	<path d="M435.7,99c0-6.3,4-11.5,10.2-11.5s10.3,5,10.3,11.5c0,6.3-4,11.5-10.3,11.5C439.7,110.5,435.7,105.6,435.7,99z M452.4,99
		c0-4.7-2.5-7.9-6.5-7.9c-3.9,0-6.4,3.3-6.4,7.9c0,4.7,2.5,7.9,6.4,7.9C449.8,107,452.4,103.8,452.4,99z"/>
	<path d="M462.3,88.1h3.7v2.3c1.2-1.6,3.7-2.8,6.4-2.8c5.1,0,8.1,3.3,8.1,9V110h-3.8l0-12.9c0-3.8-1.9-5.9-4.7-5.9
		c-3.5,0-5.9,2.5-5.9,6.4V110h-3.8V88.1z"/>
	<path d="M489.2,105V91.6h-4.1v-3.5h4.1v-6.2h3.8v6.2h5.3v3.5H493v12.6c0,2,0.8,2.4,2.7,2.4h2.8v3.4h-3.7
		C491.6,110,489.2,109.2,489.2,105z"/>
	<path d="M503.3,81.9c0-1.4,1.2-2.5,2.5-2.5c1.4,0,2.6,1.1,2.6,2.5c0,1.4-1.1,2.5-2.6,2.5C504.5,84.5,503.3,83.4,503.3,81.9z
		 M504,88.1h3.8V110H504V88.1z"/>
	<path d="M515.2,88.1h3.7v2.3c1.2-1.6,3.7-2.8,6.4-2.8c5.1,0,8.1,3.3,8.1,9V110h-3.8l0-12.9c0-3.8-1.9-5.9-4.7-5.9
		c-3.5,0-5.9,2.5-5.9,6.4V110h-3.8V88.1z"/>
	<path d="M540.3,102V88.1h3.8l0,13.1c0,4.2,2.2,5.7,4.9,5.7c3.9,0,5.5-3.4,5.5-6.6V88.1h3.8V110h-3.7v-2.2c-1,1.6-3.6,2.8-6.5,2.8
		C543.1,110.5,540.3,107.4,540.3,102z"/>
	<path d="M565.1,81.9c0-1.4,1.2-2.5,2.5-2.5c1.4,0,2.6,1.1,2.6,2.5c0,1.4-1.1,2.5-2.6,2.5C566.3,84.5,565.1,83.4,565.1,81.9z
		 M565.7,88.1h3.8V110h-3.8V88.1z"/>
	<path d="M578.8,105V91.6h-4.1v-3.5h4.1v-6.2h3.8v6.2h5.3v3.5h-5.3v12.6c0,2,0.8,2.4,2.7,2.4h2.8v3.4h-3.7
		C581.2,110,578.8,109.2,578.8,105z"/>
	<path d="M593.4,115.4h3.1c1.1,0,2-0.2,2.5-0.6c0.5-0.4,0.8-1.1,0.8-1.8c0-0.8-0.3-1.8-0.7-3.1l-7.8-21.7h4.4l3.7,11.3l2.7,8.2
		l2.4-8.2l3-11.3h4.2l-8,25.6c-1.3,4.1-2.9,5.3-6.2,5.3h-4V115.4z"/>
	<path d="M628.6,79.7h11.5c6.7,0,9.8,3.6,9.8,8.6c0,4.9-3.1,8.9-8.6,8.9h-8.5V110h-4.2V79.7z M640.3,93.2c2.9,0,5.1-1.4,5.1-4.9
		c0-2.9-2.2-4.6-5.6-4.6h-7.2v9.6H640.3z"/>
	<path d="M655.3,105.9V79.6h3.8v25.7c0,1.3,0.7,1.5,1.6,1.5h1.6v3.2h-2.5C657.4,110,655.3,109.1,655.3,105.9z"/>
	<path d="M665.9,104.2c0-4.3,3-6.2,7.1-7l4.7-0.9c2.1-0.4,2.3-1,2.3-2.2c0-1.4-1-3-4.5-3c-3.3,0-4.7,1.2-4.7,3.4H667
		c0-4.4,3.4-7.1,8.5-7.1c4.8,0,8.5,1.7,8.5,7.8v9.9c0,1.1,0.4,1.5,1.5,1.5h0.5v3.2h-3.1c-1.6,0-2.5-0.8-2.5-2.3v-0.5
		c-1.7,2.3-4.2,3.4-7.5,3.4C669.3,110.5,665.9,108.2,665.9,104.2z M680.2,101.5v-2.6c-0.5,0.3-1.2,0.5-1.8,0.6l-3.8,0.8
		c-3.1,0.6-4.4,1.5-4.4,3.5c0,2,1.3,3.1,3.6,3.1C677.7,107,680.2,104.4,680.2,101.5z"/>
	<path d="M691.7,88.1h3.7v2.3c1.2-1.6,3.7-2.8,6.4-2.8c5.1,0,8.1,3.3,8.1,9V110h-3.8l0-12.9c0-3.8-1.9-5.9-4.7-5.9
		c-3.5,0-5.9,2.5-5.9,6.4V110h-3.8V88.1z"/>
	<path d="M721.8,100.8c0.1-3,0.9-4.6,3.7-7.4l1.7-1.7c0.6-0.6,2-2.1,2-4.2c0-3-1.7-4.9-5-4.9c-3.7,0-5.4,1.5-5.6,5.9h-4.1
		c0.2-6,3.7-9.5,9.8-9.5c5.2,0,9.3,2.5,9.3,7.5c0,3.3-1.1,5.1-3.7,7.8l-2.1,2.2c-1.2,1.2-1.7,2.4-1.9,4.5c0,0.4,0,0.8,0,1.3h-4
		C721.8,101.7,721.8,101.2,721.8,100.8z M721.3,108c0-1.4,1.2-2.6,2.6-2.6c1.4,0,2.6,1.2,2.6,2.6c0,1.4-1.2,2.6-2.6,2.6
		C722.5,110.5,721.3,109.4,721.3,108z"/>
</g>
</svg>
