<?xml version="1.0" encoding="utf-8"?>
<!-- Generator: Adobe Illustrator 21.1.0, SVG Export Plug-In . SVG Version: 6.00 Build 0)  -->
<svg version="1.1" id="Layer_1" xmlns="http://www.w3.org/2000/svg" xmlns:xlink="http://www.w3.org/1999/xlink" x="0px" y="0px"
	 viewBox="0 0 1500 1053" style="enable-background:new 0 0 1500 1053;" xml:space="preserve">
<style type="text/css">
	.st0{fill:none;}
	.st1{fill:none;stroke:#F6F6F8;stroke-width:2;stroke-linecap:round;stroke-miterlimit:10;}
	.st2{fill:none;stroke:#F6F6F8;stroke-width:2;stroke-linecap:round;stroke-miterlimit:10;stroke-dasharray:0,10;}
	.st3{fill:#F76C6C;}
	.st4{opacity:0.73;}
	.st5{fill:#0000FF;}
	.st6{fill:url(#SVGID_1_);}
	.st7{fill:#FFFFFF;}
	.st8{opacity:0.9;}
	.st9{opacity:0.2;}
	.st10{fill:url(#SVGID_2_);}
	.st11{fill:url(#SVGID_3_);}
</style>
<pattern  y="1053" width="240" height="240" patternUnits="userSpaceOnUse" id="white" viewBox="1 -241 240 240" style="overflow:visible;">
	<g>
		<rect x="1" y="-241" class="st0" width="240" height="240"/>
		<g>
			<g>
				<line class="st1" x1="241" y1="-1" x2="241" y2="-1"/>
			</g>
		</g>
		<g>
			<g>
				<line class="st1" x1="1" y1="-1" x2="1" y2="-1"/>
				<line class="st2" x1="11" y1="-1" x2="236" y2="-1"/>
				<line class="st1" x1="241" y1="-1" x2="241" y2="-1"/>
			</g>
		</g>
		<g>
			<g>
				<line class="st1" x1="1" y1="-1" x2="1" y2="-1"/>
			</g>
		</g>
		<g>
			<g>
				<line class="st1" x1="241" y1="-241" x2="241" y2="-241"/>
			</g>
			<g>
				<line class="st1" x1="241" y1="-231" x2="241" y2="-231"/>
			</g>
			<g>
				<line class="st1" x1="241" y1="-221" x2="241" y2="-221"/>
			</g>
			<g>
				<line class="st1" x1="241" y1="-211" x2="241" y2="-211"/>
			</g>
			<g>
				<line class="st1" x1="241" y1="-201" x2="241" y2="-201"/>
			</g>
			<g>
				<line class="st1" x1="241" y1="-191" x2="241" y2="-191"/>
			</g>
			<g>
				<line class="st1" x1="241" y1="-181" x2="241" y2="-181"/>
			</g>
			<g>
				<line class="st1" x1="241" y1="-171" x2="241" y2="-171"/>
			</g>
			<g>
				<line class="st1" x1="241" y1="-161" x2="241" y2="-161"/>
			</g>
			<g>
				<line class="st1" x1="241" y1="-151" x2="241" y2="-151"/>
			</g>
			<g>
				<line class="st1" x1="241" y1="-141" x2="241" y2="-141"/>
			</g>
			<g>
				<line class="st1" x1="241" y1="-131" x2="241" y2="-131"/>
			</g>
			<g>
				<line class="st1" x1="241" y1="-121" x2="241" y2="-121"/>
			</g>
			<g>
				<line class="st1" x1="241" y1="-111" x2="241" y2="-111"/>
			</g>
			<g>
				<line class="st1" x1="241" y1="-101" x2="241" y2="-101"/>
			</g>
			<g>
				<line class="st1" x1="241" y1="-91" x2="241" y2="-91"/>
			</g>
			<g>
				<line class="st1" x1="241" y1="-81" x2="241" y2="-81"/>
			</g>
			<g>
				<line class="st1" x1="241" y1="-71" x2="241" y2="-71"/>
			</g>
			<g>
				<line class="st1" x1="241" y1="-61" x2="241" y2="-61"/>
			</g>
			<g>
				<line class="st1" x1="241" y1="-51" x2="241" y2="-51"/>
			</g>
			<g>
				<line class="st1" x1="241" y1="-41" x2="241" y2="-41"/>
			</g>
			<g>
				<line class="st1" x1="241" y1="-31" x2="241" y2="-31"/>
			</g>
			<g>
				<line class="st1" x1="241" y1="-21" x2="241" y2="-21"/>
			</g>
			<g>
				<line class="st1" x1="241" y1="-11" x2="241" y2="-11"/>
			</g>
			<g>
				<line class="st1" x1="241" y1="-1" x2="241" y2="-1"/>
			</g>
		</g>
		<g>
			<g>
				<line class="st1" x1="1" y1="-241" x2="1" y2="-241"/>
				<line class="st2" x1="11" y1="-241" x2="236" y2="-241"/>
				<line class="st1" x1="241" y1="-241" x2="241" y2="-241"/>
			</g>
			<g>
				<line class="st1" x1="1" y1="-231" x2="1" y2="-231"/>
				<line class="st2" x1="11" y1="-231" x2="236" y2="-231"/>
				<line class="st1" x1="241" y1="-231" x2="241" y2="-231"/>
			</g>
			<g>
				<line class="st1" x1="1" y1="-221" x2="1" y2="-221"/>
				<line class="st2" x1="11" y1="-221" x2="236" y2="-221"/>
				<line class="st1" x1="241" y1="-221" x2="241" y2="-221"/>
			</g>
			<g>
				<line class="st1" x1="1" y1="-211" x2="1" y2="-211"/>
				<line class="st2" x1="11" y1="-211" x2="236" y2="-211"/>
				<line class="st1" x1="241" y1="-211" x2="241" y2="-211"/>
			</g>
			<g>
				<line class="st1" x1="1" y1="-201" x2="1" y2="-201"/>
				<line class="st2" x1="11" y1="-201" x2="236" y2="-201"/>
				<line class="st1" x1="241" y1="-201" x2="241" y2="-201"/>
			</g>
			<g>
				<line class="st1" x1="1" y1="-191" x2="1" y2="-191"/>
				<line class="st2" x1="11" y1="-191" x2="236" y2="-191"/>
				<line class="st1" x1="241" y1="-191" x2="241" y2="-191"/>
			</g>
			<g>
				<line class="st1" x1="1" y1="-181" x2="1" y2="-181"/>
				<line class="st2" x1="11" y1="-181" x2="236" y2="-181"/>
				<line class="st1" x1="241" y1="-181" x2="241" y2="-181"/>
			</g>
			<g>
				<line class="st1" x1="1" y1="-171" x2="1" y2="-171"/>
				<line class="st2" x1="11" y1="-171" x2="236" y2="-171"/>
				<line class="st1" x1="241" y1="-171" x2="241" y2="-171"/>
			</g>
			<g>
				<line class="st1" x1="1" y1="-161" x2="1" y2="-161"/>
				<line class="st2" x1="11" y1="-161" x2="236" y2="-161"/>
				<line class="st1" x1="241" y1="-161" x2="241" y2="-161"/>
			</g>
			<g>
				<line class="st1" x1="1" y1="-151" x2="1" y2="-151"/>
				<line class="st2" x1="11" y1="-151" x2="236" y2="-151"/>
				<line class="st1" x1="241" y1="-151" x2="241" y2="-151"/>
			</g>
			<g>
				<line class="st1" x1="1" y1="-141" x2="1" y2="-141"/>
				<line class="st2" x1="11" y1="-141" x2="236" y2="-141"/>
				<line class="st1" x1="241" y1="-141" x2="241" y2="-141"/>
			</g>
			<g>
				<line class="st1" x1="1" y1="-131" x2="1" y2="-131"/>
				<line class="st2" x1="11" y1="-131" x2="236" y2="-131"/>
				<line class="st1" x1="241" y1="-131" x2="241" y2="-131"/>
			</g>
			<g>
				<line class="st1" x1="1" y1="-121" x2="1" y2="-121"/>
				<line class="st2" x1="11" y1="-121" x2="236" y2="-121"/>
				<line class="st1" x1="241" y1="-121" x2="241" y2="-121"/>
			</g>
			<g>
				<line class="st1" x1="1" y1="-111" x2="1" y2="-111"/>
				<line class="st2" x1="11" y1="-111" x2="236" y2="-111"/>
				<line class="st1" x1="241" y1="-111" x2="241" y2="-111"/>
			</g>
			<g>
				<line class="st1" x1="1" y1="-101" x2="1" y2="-101"/>
				<line class="st2" x1="11" y1="-101" x2="236" y2="-101"/>
				<line class="st1" x1="241" y1="-101" x2="241" y2="-101"/>
			</g>
			<g>
				<line class="st1" x1="1" y1="-91" x2="1" y2="-91"/>
				<line class="st2" x1="11" y1="-91" x2="236" y2="-91"/>
				<line class="st1" x1="241" y1="-91" x2="241" y2="-91"/>
			</g>
			<g>
				<line class="st1" x1="1" y1="-81" x2="1" y2="-81"/>
				<line class="st2" x1="11" y1="-81" x2="236" y2="-81"/>
				<line class="st1" x1="241" y1="-81" x2="241" y2="-81"/>
			</g>
			<g>
				<line class="st1" x1="1" y1="-71" x2="1" y2="-71"/>
				<line class="st2" x1="11" y1="-71" x2="236" y2="-71"/>
				<line class="st1" x1="241" y1="-71" x2="241" y2="-71"/>
			</g>
			<g>
				<line class="st1" x1="1" y1="-61" x2="1" y2="-61"/>
				<line class="st2" x1="11" y1="-61" x2="236" y2="-61"/>
				<line class="st1" x1="241" y1="-61" x2="241" y2="-61"/>
			</g>
			<g>
				<line class="st1" x1="1" y1="-51" x2="1" y2="-51"/>
				<line class="st2" x1="11" y1="-51" x2="236" y2="-51"/>
				<line class="st1" x1="241" y1="-51" x2="241" y2="-51"/>
			</g>
			<g>
				<line class="st1" x1="1" y1="-41" x2="1" y2="-41"/>
				<line class="st2" x1="11" y1="-41" x2="236" y2="-41"/>
				<line class="st1" x1="241" y1="-41" x2="241" y2="-41"/>
			</g>
			<g>
				<line class="st1" x1="1" y1="-31" x2="1" y2="-31"/>
				<line class="st2" x1="11" y1="-31" x2="236" y2="-31"/>
				<line class="st1" x1="241" y1="-31" x2="241" y2="-31"/>
			</g>
			<g>
				<line class="st1" x1="1" y1="-21" x2="1" y2="-21"/>
				<line class="st2" x1="11" y1="-21" x2="236" y2="-21"/>
				<line class="st1" x1="241" y1="-21" x2="241" y2="-21"/>
			</g>
			<g>
				<line class="st1" x1="1" y1="-11" x2="1" y2="-11"/>
				<line class="st2" x1="11" y1="-11" x2="236" y2="-11"/>
				<line class="st1" x1="241" y1="-11" x2="241" y2="-11"/>
			</g>
			<g>
				<line class="st1" x1="1" y1="-1" x2="1" y2="-1"/>
				<line class="st2" x1="11" y1="-1" x2="236" y2="-1"/>
				<line class="st1" x1="241" y1="-1" x2="241" y2="-1"/>
			</g>
		</g>
		<g>
			<g>
				<line class="st1" x1="1" y1="-241" x2="1" y2="-241"/>
			</g>
			<g>
				<line class="st1" x1="1" y1="-231" x2="1" y2="-231"/>
			</g>
			<g>
				<line class="st1" x1="1" y1="-221" x2="1" y2="-221"/>
			</g>
			<g>
				<line class="st1" x1="1" y1="-211" x2="1" y2="-211"/>
			</g>
			<g>
				<line class="st1" x1="1" y1="-201" x2="1" y2="-201"/>
			</g>
			<g>
				<line class="st1" x1="1" y1="-191" x2="1" y2="-191"/>
			</g>
			<g>
				<line class="st1" x1="1" y1="-181" x2="1" y2="-181"/>
			</g>
			<g>
				<line class="st1" x1="1" y1="-171" x2="1" y2="-171"/>
			</g>
			<g>
				<line class="st1" x1="1" y1="-161" x2="1" y2="-161"/>
			</g>
			<g>
				<line class="st1" x1="1" y1="-151" x2="1" y2="-151"/>
			</g>
			<g>
				<line class="st1" x1="1" y1="-141" x2="1" y2="-141"/>
			</g>
			<g>
				<line class="st1" x1="1" y1="-131" x2="1" y2="-131"/>
			</g>
			<g>
				<line class="st1" x1="1" y1="-121" x2="1" y2="-121"/>
			</g>
			<g>
				<line class="st1" x1="1" y1="-111" x2="1" y2="-111"/>
			</g>
			<g>
				<line class="st1" x1="1" y1="-101" x2="1" y2="-101"/>
			</g>
			<g>
				<line class="st1" x1="1" y1="-91" x2="1" y2="-91"/>
			</g>
			<g>
				<line class="st1" x1="1" y1="-81" x2="1" y2="-81"/>
			</g>
			<g>
				<line class="st1" x1="1" y1="-71" x2="1" y2="-71"/>
			</g>
			<g>
				<line class="st1" x1="1" y1="-61" x2="1" y2="-61"/>
			</g>
			<g>
				<line class="st1" x1="1" y1="-51" x2="1" y2="-51"/>
			</g>
			<g>
				<line class="st1" x1="1" y1="-41" x2="1" y2="-41"/>
			</g>
			<g>
				<line class="st1" x1="1" y1="-31" x2="1" y2="-31"/>
			</g>
			<g>
				<line class="st1" x1="1" y1="-21" x2="1" y2="-21"/>
			</g>
			<g>
				<line class="st1" x1="1" y1="-11" x2="1" y2="-11"/>
			</g>
			<g>
				<line class="st1" x1="1" y1="-1" x2="1" y2="-1"/>
			</g>
		</g>
		<g>
			<g>
				<line class="st1" x1="241" y1="-241" x2="241" y2="-241"/>
			</g>
		</g>
		<g>
			<g>
				<line class="st1" x1="1" y1="-241" x2="1" y2="-241"/>
				<line class="st2" x1="11" y1="-241" x2="236" y2="-241"/>
				<line class="st1" x1="241" y1="-241" x2="241" y2="-241"/>
			</g>
		</g>
		<g>
			<g>
				<line class="st1" x1="1" y1="-241" x2="1" y2="-241"/>
			</g>
		</g>
	</g>
</pattern>
<g>
	<path class="st3" d="M105.8,265.2C188.3,368,272.1,469.9,355.2,572.3c59.9,73.8,107.7,167,198.6,199.5
		C666,811.9,786.8,874.4,904.1,895.3c125.4,22.4,263.6,13.7,391,20.3v10.6H105.7L105.8,265.2z"/>
</g>
<g class="st4">
	<path class="st5" d="M105.8,591.8c104.7,60.3,209.1,121.3,313.7,181.9c26.8,15.5,58.1,41.6,88.1,47.7
		c53.9,10.9,127.8-9.4,182.6-10.2c118.5-1.7,206.4,8.1,280.8-52.2c96.2-78.1,212.2-133.9,324-182v349.3H105.7L105.8,591.8z"/>
</g>
<g>
	<pattern  id="SVGID_1_" xlink:href="#white" patternTransform="matrix(1.0628 0 0 1.0628 4951.4502 -1500.7267)">
	</pattern>
	<path class="st6" d="M105.8,591.8c104.7,60.3,209.1,121.3,313.7,181.9c26.8,15.5,58.1,41.6,88.1,47.7
		c53.9,10.9,127.8-9.4,182.6-10.2c118.5-1.7,206.4,8.1,280.8-52.2c96.2-78.1,212.2-133.9,324-182v349.3H105.7L105.8,591.8z"/>
</g>
<g>
	<g>
		<path class="st5" d="M126,253.1c0.9-1.4,2.6-1.9,3.7-1.9c2.8,0,4.5,2,4.5,4.3c0,3-2.4,4.5-4.7,4.5c-1.5,0-3.2-0.8-4-2.2
			c-0.6-1.2-0.8-2-0.8-3.7c0-4.2,2.3-7.7,6.5-7.7c0.7,0,1.8,0.1,2.7,0.6l-0.5,1.3c-0.7-0.4-1.6-0.6-2.2-0.6
			C128,247.7,126.3,250.1,126,253.1z M127.2,253.2c-0.6,0.5-1.1,1.4-1.1,2.3c0,2,1.6,3.2,3.3,3.2c1.7,0,3.3-1.1,3.3-3.2
			c0-1.6-1.2-3.1-3.3-3.1C128.6,252.4,127.8,252.7,127.2,253.2z"/>
		<path class="st5" d="M142.4,259.8v-3.2h-6.9v-1.5l6.5-8.6h1.8v8.9h2.2v1.2h-2.2v3.2H142.4z M142.4,255.4V248l-5.7,7.5H142.4z"/>
		<path class="st5" d="M148.7,253.7c-1,0-1.7-0.8-1.7-1.7c0-1,0.8-1.8,1.7-1.8c1,0,1.8,0.8,1.8,1.8
			C150.5,252.9,149.7,253.7,148.7,253.7z M148.7,250.9c-0.6,0-1.1,0.5-1.1,1.1c0,0.6,0.5,1.1,1.1,1.1s1.1-0.5,1.1-1.1
			C149.8,251.4,149.3,250.9,148.7,250.9z M153,250.3h0.8l-5.1,7.8h-0.8L153,250.3z M153,258.1c-1,0-1.8-0.8-1.8-1.7
			c0-1,0.8-1.8,1.8-1.8s1.8,0.8,1.8,1.8C154.8,257.3,154,258.1,153,258.1z M153,255.3c-0.6,0-1.1,0.5-1.1,1.1c0,0.6,0.5,1.1,1.1,1.1
			c0.6,0,1.1-0.5,1.1-1.1C154.1,255.8,153.6,255.3,153,255.3z"/>
	</g>
</g>
<g>
	<path class="st7" d="M129.2,585.9c-2.3,0-4.3-1.4-4.6-3.6l1.3-0.3c0.2,1.5,1.4,2.7,3.2,2.7c1.8,0,3.2-1,3.2-2.5s-1.1-2.5-3.2-2.5
		h-1.3v-1.3h1.3c1.8,0,3-1.1,3-2.4c0-1.4-1-2.4-2.9-2.4c-1.8,0-2.9,1.1-3.1,2.5l-1.3-0.3c0.2-1.9,2-3.5,4.5-3.5
		c2.9,0,4.3,1.8,4.3,3.5c0,1.5-0.9,2.5-2.1,3.1v0c1.5,0.4,2.4,1.6,2.4,3.2C133.8,584.1,132,585.9,129.2,585.9z"/>
	<path class="st7" d="M142.2,585.8v-3.2h-6.9V581l6.5-8.6h1.8v8.9h2.2v1.2h-2.2v3.2H142.2z M142.2,581.4v-7.5l-5.7,7.5H142.2z"/>
	<path class="st7" d="M148.5,579.6c-1,0-1.7-0.8-1.7-1.7c0-1,0.8-1.8,1.7-1.8c1,0,1.8,0.8,1.8,1.8
		C150.3,578.9,149.5,579.6,148.5,579.6z M148.5,576.8c-0.6,0-1.1,0.5-1.1,1.1c0,0.6,0.5,1.1,1.1,1.1c0.6,0,1.1-0.5,1.1-1.1
		C149.6,577.3,149.1,576.8,148.5,576.8z M152.8,576.2h0.8l-5.1,7.8h-0.8L152.8,576.2z M152.8,584c-1,0-1.8-0.8-1.8-1.7
		c0-1,0.8-1.8,1.8-1.8s1.8,0.8,1.8,1.8C154.6,583.3,153.8,584,152.8,584z M152.8,581.2c-0.6,0-1.1,0.5-1.1,1.1
		c0,0.6,0.5,1.1,1.1,1.1s1.1-0.5,1.1-1.1C153.9,581.7,153.4,581.2,152.8,581.2z"/>
</g>
<g>
	<g>
		<path class="st5" d="M513.8,722.4l-3.2,1.9l-0.6-1.1l3.9-2.3h1.4v13.3h-1.4V722.4z"/>
		<path class="st5" d="M518.1,730.6c0-1.4,1-2.7,2.8-3.2c-1.6-0.5-2.5-1.9-2.5-3c0-2.3,2.4-3.5,4.4-3.5c2,0,4.4,1.2,4.4,3.5
			c0,1.3-0.9,2.6-2.5,3c1.8,0.5,2.8,1.8,2.8,3.2c0,2.4-2.4,3.8-4.7,3.8C520.5,734.3,518.1,733.1,518.1,730.6z M526,730.6
			c0-1.8-1.8-2.6-3.3-2.6c-1.4,0-3.3,0.8-3.3,2.6c0,1.8,1.8,2.6,3.3,2.6C524.1,733.1,526,732.3,526,730.6z M519.8,724.3
			c0,1.7,1.8,2.4,3,2.4c1.1,0,3-0.8,3-2.4c0-1.5-1.7-2.3-3-2.3C521.5,722,519.8,722.8,519.8,724.3z"/>
		<path class="st5" d="M530.6,728.1c-1,0-1.7-0.8-1.7-1.7c0-1,0.8-1.8,1.7-1.8c1,0,1.8,0.8,1.8,1.8
			C532.3,727.3,531.5,728.1,530.6,728.1z M530.6,725.2c-0.6,0-1.1,0.5-1.1,1.1c0,0.6,0.5,1.1,1.1,1.1c0.6,0,1.1-0.5,1.1-1.1
			C531.7,725.7,531.2,725.2,530.6,725.2z M534.9,724.7h0.8l-5.1,7.8h-0.8L534.9,724.7z M534.9,732.5c-1,0-1.8-0.8-1.8-1.7
			c0-1,0.8-1.8,1.8-1.8c1,0,1.8,0.8,1.8,1.8C536.6,731.7,535.8,732.5,534.9,732.5z M534.9,729.6c-0.6,0-1.1,0.5-1.1,1.1
			c0,0.6,0.5,1.1,1.1,1.1c0.6,0,1.1-0.5,1.1-1.1C536,730.1,535.5,729.6,534.9,729.6z"/>
	</g>
</g>
<g>
	<path class="st7" d="M515.8,800.3l-3.2,1.9l-0.6-1.1l3.9-2.3h1.4v13.3h-1.4V800.3z"/>
	<path class="st7" d="M523.1,800.3l-3.2,1.9l-0.6-1.1l3.9-2.3h1.4v13.3h-1.4V800.3z"/>
	<path class="st7" d="M528.5,806c-1,0-1.7-0.8-1.7-1.7c0-1,0.8-1.8,1.7-1.8c1,0,1.8,0.8,1.8,1.8C530.3,805.2,529.5,806,528.5,806z
		 M528.5,803.2c-0.6,0-1.1,0.5-1.1,1.1c0,0.6,0.5,1.1,1.1,1.1s1.1-0.5,1.1-1.1C529.6,803.7,529.1,803.2,528.5,803.2z M532.8,802.6
		h0.8l-5.1,7.8h-0.8L532.8,802.6z M532.8,810.4c-1,0-1.8-0.8-1.8-1.7c0-1,0.8-1.8,1.8-1.8c1,0,1.8,0.8,1.8,1.8
		C534.6,809.6,533.8,810.4,532.8,810.4z M532.8,807.6c-0.6,0-1.1,0.5-1.1,1.1c0,0.6,0.5,1.1,1.1,1.1c0.6,0,1.1-0.5,1.1-1.1
		C533.9,808.1,533.4,807.6,532.8,807.6z"/>
</g>
<g>
	<g>
		<path d="M103.9,964.7l-4.5,6.7v4.9h-1.2v-4.9l-4.5-6.7h1.5l3.7,5.6l3.7-5.6H103.9z"/>
		<path d="M104.4,972.7c0.1,1.5,1.3,2.7,2.8,2.7c1.2,0,2.1-0.6,2.5-1.7l1,0.3c-0.5,1.5-1.9,2.4-3.5,2.4c-2.3,0-4-1.8-4-4.1
			c0-2.2,1.6-4.1,3.9-4.1c2.5,0,3.7,1.8,3.7,4.1c0,0.1,0,0.3,0,0.4H104.4z M109.7,971.8c-0.1-1.4-1.1-2.5-2.6-2.5
			c-1.4,0-2.5,1.1-2.7,2.5H109.7z"/>
		<path d="M115.3,976.5c-2.2,0-2.9-1.5-3-2.4l1.1-0.3c0.2,0.7,0.7,1.6,1.9,1.6c0.9,0,1.7-0.5,1.7-1.3c0-1-1-1.2-1.9-1.3
			c-1.3-0.2-2.6-0.7-2.6-2.2c0-1.5,1.4-2.4,2.7-2.4c2.1,0,2.8,1.4,2.9,2.2l-1.1,0.3c-0.1-0.5-0.6-1.4-1.8-1.4
			c-0.9,0-1.5,0.6-1.5,1.3c0,1,1.1,1.1,1.9,1.2c1.3,0.2,2.6,0.8,2.6,2.3C118.1,975.5,116.8,976.5,115.3,976.5z"/>
	</g>
</g>
<g>
	<g>
		<path d="M435,964.7l-4.5,6.7v4.9h-1.2v-4.9l-4.5-6.7h1.5l3.7,5.6l3.7-5.6H435z"/>
		<path d="M435.5,972.7c0.1,1.5,1.3,2.7,2.8,2.7c1.2,0,2.1-0.6,2.5-1.7l1,0.3c-0.5,1.5-1.9,2.4-3.5,2.4c-2.3,0-4-1.8-4-4.1
			c0-2.2,1.6-4.1,3.9-4.1c2.5,0,3.7,1.8,3.7,4.1c0,0.1,0,0.3,0,0.4H435.5z M440.8,971.8c-0.1-1.4-1.1-2.5-2.6-2.5
			c-1.4,0-2.5,1.1-2.7,2.5H440.8z"/>
		<path d="M446.4,976.5c-2.2,0-2.9-1.5-3-2.4l1.1-0.3c0.2,0.7,0.7,1.6,1.9,1.6c0.9,0,1.7-0.5,1.7-1.3c0-1-1-1.2-1.9-1.3
			c-1.3-0.2-2.6-0.7-2.6-2.2c0-1.5,1.4-2.4,2.7-2.4c2.1,0,2.8,1.4,2.9,2.2l-1.1,0.3c-0.1-0.5-0.6-1.4-1.8-1.4
			c-0.9,0-1.5,0.6-1.5,1.3c0,1,1.1,1.1,1.9,1.2c1.3,0.2,2.6,0.8,2.6,2.3C449.2,975.5,447.9,976.5,446.4,976.5z"/>
		<path d="M451,978.1c0.7-0.5,1.2-1.1,1.3-1.8c-0.1,0-0.2,0.1-0.4,0.1c-0.6,0-1-0.4-1-1c0-0.6,0.5-1.1,1-1.1c0.7,0,1.2,0.6,1.2,1.5
			v0.1c0,1-0.6,2-1.6,2.8L451,978.1z"/>
		<path d="M462.9,976.5c-1.5,0-2.4-0.7-3.1-1.8v1.7h-1.1v-12.1h1.2v5.9c0.7-1,1.6-1.8,3.1-1.8c2.3,0,3.7,2,3.7,4.1
			C466.6,974.5,465.2,976.5,462.9,976.5z M465.5,972.4c0-1.7-1-3.1-2.8-3.1c-1.6,0-2.8,1.5-2.8,3c0,1.6,1.2,3.1,2.8,3.1
			C464.4,975.4,465.5,974.1,465.5,972.4z"/>
		<path d="M469.8,973c0,1.4,0.7,2.4,2.2,2.4c1.4,0,2.4-1.1,2.4-2.5v-4.5h1.1v7.9h-1.1v-1.5c-0.6,1.1-1.6,1.6-2.7,1.6
			c-1.9,0-3-1.3-3-3.2v-4.9h1.1V973z"/>
		<path d="M478.6,974.3v-4.9h-1.5v-1h1.5v-2.3h1.1v2.3h2v1h-2v4.8c0,0.7,0.4,1.1,1.3,1.1c0.3,0,0.5,0,0.7-0.1v1
			c-0.2,0.1-0.7,0.1-0.9,0.1C479.2,976.4,478.6,975.5,478.6,974.3z"/>
		<path d="M488.5,964.7c0.5,0,0.9,0.4,0.9,0.9c0,0.5-0.4,0.9-0.9,0.9c-0.5,0-0.9-0.4-0.9-0.9C487.6,965.1,488,964.7,488.5,964.7z
			 M489.1,968.4v7.9h-1.2v-7.9H489.1z"/>
		<path d="M492.2,974.3v-4.9h-1.5v-1h1.5v-2.3h1.1v2.3h2v1h-2v4.8c0,0.7,0.4,1.1,1.3,1.1c0.3,0,0.5,0,0.7-0.1v1
			c-0.2,0.1-0.7,0.1-0.9,0.1C492.8,976.4,492.2,975.5,492.2,974.3z"/>
		<path d="M497.2,968.4c0.7-0.5,1.2-1.1,1.3-1.8c-0.1,0-0.2,0.1-0.4,0.1c-0.6,0-1-0.4-1-1c0-0.6,0.5-1.1,1-1.1
			c0.7,0,1.2,0.6,1.2,1.5v0.1c0,1-0.6,2-1.6,2.8L497.2,968.4z"/>
		<path d="M503.3,976.5c-2.2,0-2.9-1.5-3-2.4l1.1-0.3c0.2,0.7,0.7,1.6,1.9,1.6c0.9,0,1.7-0.5,1.7-1.3c0-1-1-1.2-1.9-1.3
			c-1.3-0.2-2.6-0.7-2.6-2.2c0-1.5,1.4-2.4,2.7-2.4c2.1,0,2.8,1.4,2.9,2.2l-1.1,0.3c-0.1-0.5-0.6-1.4-1.8-1.4
			c-0.9,0-1.5,0.6-1.5,1.3c0,1,1.1,1.1,1.9,1.2c1.3,0.2,2.6,0.8,2.6,2.3C506.1,975.5,504.8,976.5,503.3,976.5z"/>
		<path d="M511.7,972.4c0-2.3,1.8-4.1,4.1-4.1c2.3,0,4.1,1.8,4.1,4.1c0,2.3-1.8,4.1-4.1,4.1C513.5,976.5,511.7,974.7,511.7,972.4z
			 M518.8,972.4c0-1.7-1.2-3.1-2.9-3.1c-1.7,0-2.9,1.4-2.9,3.1c0,1.7,1.2,3.1,2.9,3.1C517.6,975.5,518.8,974.1,518.8,972.4z"/>
		<path d="M523.1,973c0,1.4,0.7,2.4,2.2,2.4c1.4,0,2.4-1.1,2.4-2.5v-4.5h1.1v7.9h-1.1v-1.5c-0.6,1.1-1.6,1.6-2.7,1.6
			c-1.9,0-3-1.3-3-3.2v-4.9h1.1V973z"/>
		<path d="M531.9,974.3v-4.9h-1.5v-1h1.5v-2.3h1.1v2.3h2v1h-2v4.8c0,0.7,0.4,1.1,1.3,1.1c0.3,0,0.5,0,0.7-0.1v1
			c-0.2,0.1-0.7,0.1-0.9,0.1C532.5,976.4,531.9,975.5,531.9,974.3z"/>
		<path d="M540,968.3c1.5,0,2.4,0.9,3.1,1.8v-5.8h1.1v12.1h-1.1v-1.7c-0.6,1-1.6,1.8-3.1,1.8c-2.3,0-3.7-1.9-3.7-4.1
			C536.3,970.3,537.8,968.3,540,968.3z M543.1,972.3c0-1.6-1.2-3-2.9-3c-1.7,0-2.8,1.4-2.8,3.1c0,1.6,1,3,2.8,3
			C542,975.4,543.1,974,543.1,972.3z"/>
		<path d="M551.7,971.2c0-1.3-0.7-1.9-2-1.9c-1.3,0-1.9,0.9-2.1,1.6l-1.1-0.2c0.1-0.7,1-2.4,3.2-2.4c1.7,0,2.5,0.8,2.9,1.6
			c0.2,0.4,0.2,1.1,0.2,1.3v5.1h-1.1V975h0c-0.6,1-1.5,1.5-2.7,1.5c-1.6,0-2.7-1-2.7-2.3v-0.1c0-1.7,1.7-2.3,3.1-2.3h2.2V971.2z
			 M549.5,972.7c-0.8,0-2,0.3-2,1.3c0,0.9,0.8,1.4,1.7,1.4c1.4,0,2.5-1,2.5-2.5v-0.3H549.5z"/>
		<path d="M555.8,974.3v-4.9h-1.5v-1h1.5v-2.3h1.1v2.3h2v1h-2v4.8c0,0.7,0.4,1.1,1.3,1.1c0.3,0,0.5,0,0.7-0.1v1
			c-0.2,0.1-0.7,0.1-0.9,0.1C556.3,976.4,555.8,975.5,555.8,974.3z"/>
		<path d="M561.4,972.7c0.1,1.5,1.3,2.7,2.8,2.7c1.2,0,2.1-0.6,2.5-1.7l1,0.3c-0.5,1.5-1.9,2.4-3.5,2.4c-2.3,0-4-1.8-4-4.1
			c0-2.2,1.6-4.1,3.9-4.1c2.5,0,3.7,1.8,3.7,4.1c0,0.1,0,0.3,0,0.4H561.4z M566.6,971.8c-0.1-1.4-1.1-2.5-2.6-2.5
			c-1.4,0-2.5,1.1-2.7,2.5H566.6z"/>
		<path d="M573,968.3c1.5,0,2.4,0.9,3.1,1.8v-5.8h1.1v12.1h-1.1v-1.7c-0.6,1-1.6,1.8-3.1,1.8c-2.3,0-3.7-1.9-3.7-4.1
			C569.2,970.3,570.7,968.3,573,968.3z M576.1,972.3c0-1.6-1.2-3-2.9-3c-1.7,0-2.8,1.4-2.8,3.1c0,1.6,1,3,2.8,3
			C574.9,975.4,576.1,974,576.1,972.3z"/>
	</g>
</g>
<g>
	<g>
		<path d="M822.9,964.7v11.6h-1.3l-7-9.9v9.9h-1.2v-11.6h1.4l6.9,9.7v-9.7H822.9z"/>
		<path d="M825.3,972.4c0-2.3,1.8-4.1,4.1-4.1c2.3,0,4.1,1.8,4.1,4.1c0,2.3-1.8,4.1-4.1,4.1C827.1,976.5,825.3,974.7,825.3,972.4z
			 M832.3,972.4c0-1.7-1.2-3.1-2.9-3.1c-1.7,0-2.9,1.4-2.9,3.1c0,1.7,1.2,3.1,2.9,3.1C831.1,975.5,832.3,974.1,832.3,972.4z"/>
		<path d="M835.3,978.1c0.7-0.5,1.2-1.1,1.3-1.8c-0.1,0-0.2,0.1-0.4,0.1c-0.6,0-1-0.4-1-1c0-0.6,0.5-1.1,1-1.1
			c0.7,0,1.2,0.6,1.2,1.5v0.1c0,1-0.6,2-1.6,2.8L835.3,978.1z"/>
		<path d="M847.2,976.5c-1.5,0-2.4-0.7-3.1-1.8v1.7h-1.1v-12.1h1.2v5.9c0.7-1,1.6-1.8,3.1-1.8c2.3,0,3.7,2,3.7,4.1
			C850.9,974.5,849.4,976.5,847.2,976.5z M849.7,972.4c0-1.7-1-3.1-2.8-3.1c-1.6,0-2.8,1.5-2.8,3c0,1.6,1.2,3.1,2.8,3.1
			C848.7,975.4,849.7,974.1,849.7,972.4z"/>
		<path d="M854,973c0,1.4,0.7,2.4,2.2,2.4c1.4,0,2.4-1.1,2.4-2.5v-4.5h1.1v7.9h-1.1v-1.5c-0.6,1.1-1.6,1.6-2.7,1.6
			c-1.9,0-3-1.3-3-3.2v-4.9h1.1V973z"/>
		<path d="M862.9,974.3v-4.9h-1.5v-1h1.5v-2.3h1.1v2.3h2v1h-2v4.8c0,0.7,0.4,1.1,1.3,1.1c0.3,0,0.5,0,0.7-0.1v1
			c-0.2,0.1-0.7,0.1-0.9,0.1C863.4,976.4,862.9,975.5,862.9,974.3z"/>
		<path d="M873.9,976.3l-2.7-7.9h1.2l2.1,6.6h0l2.2-6.6h1.2l2.2,6.6h0l2.1-6.6h1.2l-2.7,7.9h-1.3l-2.1-6.5h0l-2.1,6.5H873.9z"/>
		<path d="M885.5,972.7c0.1,1.5,1.3,2.7,2.8,2.7c1.2,0,2.1-0.6,2.5-1.7l1,0.3c-0.5,1.5-1.9,2.4-3.5,2.4c-2.3,0-4-1.8-4-4.1
			c0-2.2,1.6-4.1,3.9-4.1c2.5,0,3.7,1.8,3.7,4.1c0,0.1,0,0.3,0,0.4H885.5z M890.7,971.8c-0.1-1.4-1.1-2.5-2.6-2.5
			c-1.4,0-2.5,1.1-2.7,2.5H890.7z"/>
		<path d="M899.8,976.3l-2.7-7.9h1.2l2.1,6.6h0l2.2-6.6h1.2l2.2,6.6h0l2.1-6.6h1.2l-2.7,7.9h-1.3l-2.1-6.5h0l-2.1,6.5H899.8z"/>
		<path d="M911.5,964.7c0.5,0,0.9,0.4,0.9,0.9c0,0.5-0.4,0.9-0.9,0.9c-0.5,0-0.9-0.4-0.9-0.9C910.7,965.1,911.1,964.7,911.5,964.7z
			 M912.1,968.4v7.9H911v-7.9H912.1z"/>
		<path d="M915.9,964.2v12.1h-1.2v-12.1H915.9z"/>
		<path d="M919.7,964.2v12.1h-1.2v-12.1H919.7z"/>
		<path d="M927.1,964.7c0.5,0,0.9,0.4,0.9,0.9c0,0.5-0.4,0.9-0.9,0.9c-0.5,0-0.9-0.4-0.9-0.9C926.2,965.1,926.6,964.7,927.1,964.7z
			 M927.7,968.4v7.9h-1.2v-7.9H927.7z"/>
		<path d="M936,971.7c0-1.4-0.7-2.4-2.2-2.4c-1.4,0-2.4,1.1-2.4,2.5v4.5h-1.2v-7.9h1.1v1.5c0.6-1.1,1.6-1.6,2.7-1.6
			c1.9,0,3,1.3,3,3.2v4.9H936V971.7z"/>
		<path d="M948.6,971.2c0-1.3-0.7-1.9-2-1.9c-1.3,0-1.9,0.9-2.1,1.6l-1.1-0.2c0.1-0.7,1-2.4,3.2-2.4c1.7,0,2.5,0.8,2.9,1.6
			c0.2,0.4,0.2,1.1,0.2,1.3v5.1h-1.1V975h0c-0.6,1-1.5,1.5-2.7,1.5c-1.6,0-2.7-1-2.7-2.3v-0.1c0-1.7,1.7-2.3,3.1-2.3h2.2V971.2z
			 M946.4,972.7c-0.8,0-2,0.3-2,1.3c0,0.9,0.8,1.4,1.7,1.4c1.4,0,2.5-1,2.5-2.5v-0.3H946.4z"/>
		<path d="M958.7,975.8l-3.6-7.4h1.3l2.9,6.1l2.8-6.1h1.2l-5.4,11.9h-1.2L958.7,975.8z"/>
		<path d="M965.2,972.7c0.1,1.5,1.3,2.7,2.8,2.7c1.2,0,2.1-0.6,2.5-1.7l1,0.3c-0.5,1.5-1.9,2.4-3.5,2.4c-2.3,0-4-1.8-4-4.1
			c0-2.2,1.6-4.1,3.9-4.1c2.5,0,3.7,1.8,3.7,4.1c0,0.1,0,0.3,0,0.4H965.2z M970.5,971.8c-0.1-1.4-1.1-2.5-2.6-2.5
			c-1.4,0-2.5,1.1-2.7,2.5H970.5z"/>
		<path d="M978.5,971.2c0-1.3-0.7-1.9-2-1.9c-1.3,0-1.9,0.9-2.1,1.6l-1.1-0.2c0.1-0.7,1-2.4,3.2-2.4c1.7,0,2.5,0.8,2.9,1.6
			c0.2,0.4,0.2,1.1,0.2,1.3v5.1h-1.1V975h0c-0.6,1-1.5,1.5-2.7,1.5c-1.6,0-2.7-1-2.7-2.3v-0.1c0-1.7,1.7-2.3,3.1-2.3h2.2V971.2z
			 M976.3,972.7c-0.8,0-2,0.3-2,1.3c0,0.9,0.8,1.4,1.7,1.4c1.4,0,2.5-1,2.5-2.5v-0.3H976.3z"/>
		<path d="M983.3,970c0.6-1.2,1.7-1.7,2.6-1.7c0.1,0,0.3,0,0.4,0v1.2c-0.1,0-0.3,0-0.4,0c-1.9,0-2.5,1.5-2.5,3v3.9h-1.2v-7.9h1.1
			V970z"/>
	</g>
</g>
<g>
	<g>
		<path d="M1195.1,964.7v11.6h-1.3l-7-9.9v9.9h-1.2v-11.6h1.4l6.9,9.7v-9.7H1195.1z"/>
		<path d="M1197.4,972.4c0-2.3,1.8-4.1,4.1-4.1c2.3,0,4.1,1.8,4.1,4.1c0,2.3-1.8,4.1-4.1,4.1
			C1199.2,976.5,1197.4,974.7,1197.4,972.4z M1204.4,972.4c0-1.7-1.2-3.1-2.9-3.1c-1.7,0-2.9,1.4-2.9,3.1c0,1.7,1.2,3.1,2.9,3.1
			C1203.2,975.5,1204.4,974.1,1204.4,972.4z"/>
		<path d="M1207.4,978.1c0.7-0.5,1.2-1.1,1.3-1.8c-0.1,0-0.2,0.1-0.4,0.1c-0.6,0-1-0.4-1-1c0-0.6,0.5-1.1,1-1.1
			c0.7,0,1.2,0.6,1.2,1.5v0.1c0,1-0.6,2-1.6,2.8L1207.4,978.1z"/>
		<path d="M1219.9,971.2c0-1.3-0.7-1.9-2-1.9c-1.3,0-1.9,0.9-2.1,1.6l-1.1-0.2c0.1-0.7,1-2.4,3.2-2.4c1.7,0,2.5,0.8,2.9,1.6
			c0.2,0.4,0.2,1.1,0.2,1.3v5.1h-1.1V975h0c-0.6,1-1.5,1.5-2.7,1.5c-1.6,0-2.7-1-2.7-2.3v-0.1c0-1.7,1.7-2.3,3.1-2.3h2.2V971.2z
			 M1217.7,972.7c-0.8,0-2,0.3-2,1.3c0,0.9,0.8,1.4,1.7,1.4c1.4,0,2.5-1,2.5-2.5v-0.3H1217.7z"/>
		<path d="M1229.3,971.7c0-1.4-0.7-2.4-2.2-2.4c-1.4,0-2.4,1.1-2.4,2.5v4.5h-1.2v-7.9h1.1v1.5c0.6-1.1,1.6-1.6,2.7-1.6
			c1.9,0,3,1.3,3,3.2v4.9h-1.2V971.7z"/>
		<path d="M1236.1,968.3c1.5,0,2.4,0.9,3.1,1.8v-5.8h1.1v12.1h-1.1v-1.7c-0.6,1-1.6,1.8-3.1,1.8c-2.3,0-3.7-1.9-3.7-4.1
			C1232.4,970.3,1233.8,968.3,1236.1,968.3z M1239.2,972.3c0-1.6-1.2-3-2.9-3c-1.7,0-2.8,1.4-2.8,3.1c0,1.6,1,3,2.8,3
			C1238,975.4,1239.2,974,1239.2,972.3z"/>
		<path d="M1248.8,976.3l-2.7-7.9h1.2l2.1,6.6h0l2.2-6.6h1.2l2.2,6.6h0l2.1-6.6h1.2l-2.7,7.9h-1.3l-2.1-6.5h0l-2.1,6.5H1248.8z"/>
		<path d="M1260.4,972.7c0.1,1.5,1.3,2.7,2.8,2.7c1.2,0,2.1-0.6,2.5-1.7l1,0.3c-0.5,1.5-1.9,2.4-3.5,2.4c-2.3,0-4-1.8-4-4.1
			c0-2.2,1.6-4.1,3.9-4.1c2.5,0,3.7,1.8,3.7,4.1c0,0.1,0,0.3,0,0.4H1260.4z M1265.7,971.8c-0.1-1.4-1.1-2.5-2.6-2.5
			c-1.4,0-2.5,1.1-2.7,2.5H1265.7z"/>
		<path d="M1274.7,976.3l-2.7-7.9h1.2l2.1,6.6h0l2.2-6.6h1.2l2.2,6.6h0l2.1-6.6h1.2l-2.7,7.9h-1.3l-2.1-6.5h0l-2.1,6.5H1274.7z"/>
		<path d="M1285.2,972.4c0-2.3,1.8-4.1,4.1-4.1c2.3,0,4.1,1.8,4.1,4.1c0,2.3-1.8,4.1-4.1,4.1
			C1286.9,976.5,1285.2,974.7,1285.2,972.4z M1292.2,972.4c0-1.7-1.2-3.1-2.9-3.1c-1.7,0-2.9,1.4-2.9,3.1c0,1.7,1.2,3.1,2.9,3.1
			C1291,975.5,1292.2,974.1,1292.2,972.4z"/>
		<path d="M1301.1,971.7c0-1.4-0.7-2.4-2.2-2.4c-1.4,0-2.4,1.1-2.4,2.5v4.5h-1.2v-7.9h1.1v1.5c0.6-1.1,1.6-1.6,2.7-1.6
			c1.9,0,3,1.3,3,3.2v4.9h-1.2V971.7z"/>
		<path d="M1304.1,968.4c0.7-0.5,1.2-1.1,1.3-1.8c-0.1,0-0.2,0.1-0.4,0.1c-0.6,0-1-0.4-1-1c0-0.6,0.5-1.1,1-1.1
			c0.7,0,1.2,0.6,1.2,1.5v0.1c0,1-0.6,2-1.6,2.8L1304.1,968.4z"/>
		<path d="M1309,974.3v-4.9h-1.5v-1h1.5v-2.3h1.1v2.3h2v1h-2v4.8c0,0.7,0.4,1.1,1.3,1.1c0.3,0,0.5,0,0.7-0.1v1
			c-0.2,0.1-0.7,0.1-0.9,0.1C1309.5,976.4,1309,975.5,1309,974.3z"/>
		<path d="M1318.9,964.7c0.5,0,0.9,0.4,0.9,0.9c0,0.5-0.4,0.9-0.9,0.9c-0.5,0-0.9-0.4-0.9-0.9C1318,965.1,1318.4,964.7,1318.9,964.7
			z M1319.4,968.4v7.9h-1.2v-7.9H1319.4z"/>
		<path d="M1327.8,971.7c0-1.4-0.7-2.4-2.2-2.4c-1.4,0-2.4,1.1-2.4,2.5v4.5h-1.2v-7.9h1.1v1.5c0.6-1.1,1.6-1.6,2.7-1.6
			c1.9,0,3,1.3,3,3.2v4.9h-1.2V971.7z"/>
		<path d="M1336.2,974.3v-4.9h-1.5v-1h1.5v-2.3h1.1v2.3h2v1h-2v4.8c0,0.7,0.4,1.1,1.3,1.1c0.3,0,0.5,0,0.7-0.1v1
			c-0.2,0.1-0.7,0.1-0.9,0.1C1336.7,976.4,1336.2,975.5,1336.2,974.3z"/>
		<path d="M1347,971.7c0-1.4-0.7-2.4-2.2-2.4c-1.4,0-2.4,1.1-2.4,2.5v4.5h-1.2v-12.1h1.2v5.6c0.6-1,1.5-1.6,2.7-1.6
			c1.9,0,3,1.3,3,3.2v4.9h-1.2V971.7z"/>
		<path d="M1351.3,972.7c0.1,1.5,1.3,2.7,2.8,2.7c1.2,0,2.1-0.6,2.5-1.7l1,0.3c-0.5,1.5-1.9,2.4-3.5,2.4c-2.3,0-4-1.8-4-4.1
			c0-2.2,1.6-4.1,3.9-4.1c2.5,0,3.7,1.8,3.7,4.1c0,0.1,0,0.3,0,0.4H1351.3z M1356.5,971.8c-0.1-1.4-1.1-2.5-2.6-2.5
			c-1.4,0-2.5,1.1-2.7,2.5H1356.5z"/>
		<path d="M1365.6,966.9v1.5h2.1v1h-2.1v6.9h-1.2v-6.9h-1.5v-1h1.5v-1.5c0-1.8,1-2.7,2.4-2.7c0.2,0,0.6,0,0.9,0.1v1
			c-0.3-0.1-0.7-0.1-0.8-0.1C1366.3,965.2,1365.6,965.5,1365.6,966.9z"/>
		<path d="M1370.3,973c0,1.4,0.7,2.4,2.2,2.4c1.4,0,2.4-1.1,2.4-2.5v-4.5h1.1v7.9h-1.1v-1.5c-0.6,1.1-1.6,1.6-2.7,1.6
			c-1.9,0-3-1.3-3-3.2v-4.9h1.1V973z"/>
		<path d="M1379.2,974.3v-4.9h-1.5v-1h1.5v-2.3h1.1v2.3h2v1h-2v4.8c0,0.7,0.4,1.1,1.3,1.1c0.3,0,0.5,0,0.7-0.1v1
			c-0.2,0.1-0.7,0.1-0.9,0.1C1379.7,976.4,1379.2,975.5,1379.2,974.3z"/>
		<path d="M1385.3,973c0,1.4,0.7,2.4,2.2,2.4c1.4,0,2.4-1.1,2.4-2.5v-4.5h1.1v7.9h-1.1v-1.5c-0.6,1.1-1.6,1.6-2.7,1.6
			c-1.9,0-3-1.3-3-3.2v-4.9h1.1V973z"/>
		<path d="M1394.8,970c0.6-1.2,1.7-1.7,2.6-1.7c0.1,0,0.3,0,0.4,0v1.2c-0.1,0-0.3,0-0.4,0c-1.9,0-2.5,1.5-2.5,3v3.9h-1.2v-7.9h1.1
			V970z"/>
		<path d="M1399.6,972.7c0.1,1.5,1.3,2.7,2.8,2.7c1.2,0,2.1-0.6,2.5-1.7l1,0.3c-0.5,1.5-1.9,2.4-3.5,2.4c-2.3,0-4-1.8-4-4.1
			c0-2.2,1.6-4.1,3.9-4.1c2.5,0,3.7,1.8,3.7,4.1c0,0.1,0,0.3,0,0.4H1399.6z M1404.9,971.8c-0.1-1.4-1.1-2.5-2.6-2.5
			c-1.4,0-2.5,1.1-2.7,2.5H1404.9z"/>
	</g>
</g>
<g>
	<g>
		<path class="st7" d="M913.6,889v-3.2h-6.9v-1.5l6.5-8.6h1.8v8.9h2.2v1.2H915v3.2H913.6z M913.6,884.6v-7.5l-5.7,7.5H913.6z"/>
		<path class="st7" d="M919.9,882.9c-1,0-1.7-0.8-1.7-1.7c0-1,0.8-1.8,1.7-1.8c1,0,1.8,0.8,1.8,1.8
			C921.7,882.1,920.9,882.9,919.9,882.9z M919.9,880.1c-0.6,0-1.1,0.5-1.1,1.1c0,0.6,0.5,1.1,1.1,1.1c0.6,0,1.1-0.5,1.1-1.1
			C921,880.5,920.5,880.1,919.9,880.1z M924.2,879.5h0.8l-5.1,7.8h-0.8L924.2,879.5z M924.2,887.3c-1,0-1.8-0.8-1.8-1.7
			c0-1,0.8-1.8,1.8-1.8c1,0,1.8,0.8,1.8,1.8C926,886.5,925.2,887.3,924.2,887.3z M924.2,884.5c-0.6,0-1.1,0.5-1.1,1.1
			c0,0.6,0.5,1.1,1.1,1.1c0.6,0,1.1-0.5,1.1-1.1C925.3,884.9,924.8,884.5,924.2,884.5z"/>
	</g>
</g>
<g>
	<path class="st3" d="M906.9,765.9l-3.2,1.9l-0.6-1.1l3.9-2.3h1.4v13.3h-1.4V765.9z"/>
	<path class="st3" d="M915.5,777.9c-2.3,0-4.3-1.4-4.6-3.6l1.3-0.3c0.2,1.5,1.4,2.7,3.2,2.7c1.8,0,3.2-1,3.2-2.5
		c0-1.5-1.1-2.5-3.2-2.5h-1.3v-1.3h1.3c1.8,0,3-1.1,3-2.4c0-1.4-1-2.4-2.9-2.4c-1.8,0-2.9,1.1-3.1,2.5l-1.3-0.3
		c0.2-1.9,2-3.5,4.5-3.5c2.9,0,4.3,1.8,4.3,3.5c0,1.5-0.8,2.5-2.1,3.1v0c1.5,0.4,2.4,1.6,2.4,3.2
		C920.1,776.2,918.3,777.9,915.5,777.9z"/>
	<path class="st3" d="M923.3,771.7c-1,0-1.7-0.8-1.7-1.7c0-1,0.8-1.8,1.7-1.8c1,0,1.8,0.8,1.8,1.8
		C925,770.9,924.2,771.7,923.3,771.7z M923.3,768.8c-0.6,0-1.1,0.5-1.1,1.1c0,0.6,0.5,1.1,1.1,1.1c0.6,0,1.1-0.5,1.1-1.1
		C924.4,769.3,923.9,768.8,923.3,768.8z M927.5,768.2h0.8l-5.1,7.8h-0.8L927.5,768.2z M927.6,776.1c-1,0-1.8-0.8-1.8-1.7
		c0-1,0.8-1.8,1.8-1.8c1,0,1.8,0.8,1.8,1.8C929.3,775.3,928.5,776.1,927.6,776.1z M927.6,773.2c-0.6,0-1.1,0.5-1.1,1.1
		c0,0.6,0.5,1.1,1.1,1.1c0.6,0,1.1-0.5,1.1-1.1C928.7,773.7,928.2,773.2,927.6,773.2z"/>
</g>
<g>
	<g>
		<path class="st5" d="M1315.2,910.9c0-1.5,0.7-3.2,3.1-4.7l2-1.3c1.3-0.8,2.3-1.6,2.3-3.2c0-1.4-1.2-2.7-2.9-2.7
			c-1.5,0-2.4,0.9-2.7,1.7c-0.2,0.6-0.3,1.1-0.3,1.3l-1.4-0.2c0-1.9,1.6-4.1,4.4-4.1c2.5,0,4.3,1.9,4.3,3.9c0,1.9-1.1,3-2.8,4.1
			l-2.1,1.3c-1.1,0.7-2.2,1.6-2.3,2.8h7.3v1.3h-9V910.9z"/>
		<path class="st5" d="M1327.3,905.2c-1,0-1.7-0.8-1.7-1.7c0-1,0.8-1.8,1.7-1.8c1,0,1.8,0.8,1.8,1.8
			C1329.1,904.4,1328.3,905.2,1327.3,905.2z M1327.3,902.4c-0.6,0-1.1,0.5-1.1,1.1c0,0.6,0.5,1.1,1.1,1.1c0.6,0,1.1-0.5,1.1-1.1
			C1328.4,902.9,1327.9,902.4,1327.3,902.4z M1331.6,901.8h0.8l-5.1,7.8h-0.8L1331.6,901.8z M1331.6,909.6c-1,0-1.8-0.8-1.8-1.7
			c0-1,0.8-1.8,1.8-1.8c1,0,1.8,0.8,1.8,1.8C1333.4,908.8,1332.6,909.6,1331.6,909.6z M1331.6,906.8c-0.6,0-1.1,0.5-1.1,1.1
			c0,0.6,0.5,1.1,1.1,1.1c0.6,0,1.1-0.5,1.1-1.1C1332.7,907.3,1332.2,906.8,1331.6,906.8z"/>
	</g>
</g>
<g>
	<path class="st3" d="M1313.9,569.9c-2.3,0-4.3-1.4-4.6-3.6l1.3-0.3c0.2,1.5,1.4,2.7,3.2,2.7c1.8,0,3.2-1,3.2-2.5s-1.1-2.5-3.2-2.5
		h-1.3v-1.3h1.3c1.8,0,3-1.1,3-2.4c0-1.4-1-2.4-2.9-2.4c-1.8,0-2.9,1.1-3.1,2.5l-1.3-0.3c0.2-1.9,2-3.5,4.5-3.5
		c2.9,0,4.3,1.8,4.3,3.5c0,1.5-0.8,2.5-2.1,3.1v0c1.5,0.4,2.4,1.6,2.4,3.2C1318.5,568.2,1316.7,569.9,1313.9,569.9z"/>
	<path class="st3" d="M1321.9,563.1c0.9-1.4,2.6-1.9,3.7-1.9c2.8,0,4.5,2,4.5,4.3c0,3-2.4,4.5-4.7,4.5c-1.5,0-3.2-0.9-4-2.2
		c-0.6-1.2-0.8-2-0.8-3.7c0-4.2,2.3-7.7,6.5-7.7c0.7,0,1.8,0.1,2.7,0.6l-0.5,1.3c-0.7-0.4-1.6-0.6-2.2-0.6
		C1324,557.7,1322.2,560.1,1321.9,563.1z M1323.2,563.2c-0.6,0.5-1.1,1.4-1.1,2.3c0,2,1.6,3.2,3.3,3.2c1.7,0,3.3-1.1,3.3-3.2
		c0-1.6-1.2-3.1-3.3-3.1C1324.6,562.4,1323.8,562.7,1323.2,563.2z"/>
	<path class="st3" d="M1333.1,563.7c-1,0-1.7-0.8-1.7-1.7c0-1,0.8-1.8,1.7-1.8c1,0,1.8,0.8,1.8,1.8
		C1334.9,562.9,1334.1,563.7,1333.1,563.7z M1333.1,560.9c-0.6,0-1.1,0.5-1.1,1.1c0,0.6,0.5,1.1,1.1,1.1c0.6,0,1.1-0.5,1.1-1.1
		C1334.2,561.3,1333.7,560.9,1333.1,560.9z M1337.4,560.3h0.8l-5.1,7.8h-0.8L1337.4,560.3z M1337.4,568.1c-1,0-1.8-0.8-1.8-1.7
		c0-1,0.8-1.8,1.8-1.8c1,0,1.8,0.8,1.8,1.8C1339.2,567.3,1338.4,568.1,1337.4,568.1z M1337.4,565.3c-0.6,0-1.1,0.5-1.1,1.1
		c0,0.6,0.5,1.1,1.1,1.1c0.6,0,1.1-0.5,1.1-1.1C1338.5,565.7,1338,565.3,1337.4,565.3z"/>
</g>
<g>
	<g>
		<path d="M110.4,94.7c-2,0-3.8-1.2-4-3.2l1.2-0.3c0.2,1.3,1.2,2.3,2.8,2.3c1.6,0,2.8-0.9,2.8-2.2s-1-2.2-2.8-2.2h-1.2v-1.1h1.1
			c1.6,0,2.6-1,2.6-2.1c0-1.2-0.9-2.1-2.6-2.1c-1.6,0-2.5,1-2.7,2.2l-1.2-0.3c0.2-1.6,1.7-3,3.9-3c2.5,0,3.8,1.5,3.8,3.1
			c0,1.3-0.7,2.2-1.9,2.7v0c1.3,0.4,2.1,1.4,2.1,2.8C114.5,93.2,112.9,94.7,110.4,94.7z"/>
		<path d="M124.8,83.2c6.2,0,10.5,4.3,10.5,9.9c0,5.9-4.7,10-10.5,10h-5.9v-20H124.8z M124.7,101.2c5.1,0,8.4-3.3,8.4-8
			c0-4.6-3.3-8-8.5-8H121v16H124.7z"/>
		<path d="M138,96.4c0-4,3-7.1,7.1-7.1c3.9,0,7,3.1,7,7c0,4-3.1,7.1-7.1,7.1C141,103.4,138,100.2,138,96.4z M150,96.4
			c0-2.9-2.1-5.4-5-5.4s-5,2.4-5,5.3c0,2.9,2,5.3,5,5.3C148,101.6,150,99.2,150,96.4z"/>
		<path d="M166.6,102.2l-6.2-12.7h2.3l5,10.5l4.7-10.5h2.1l-9.3,20.3h-2.1L166.6,102.2z"/>
		<path d="M175.8,96.4c0-4,3-7.1,7.1-7.1c3.9,0,7,3.1,7,7c0,4-3.1,7.1-7.1,7.1C178.8,103.4,175.8,100.2,175.8,96.4z M187.8,96.4
			c0-2.9-2.1-5.4-5-5.4c-3,0-5,2.4-5,5.3c0,2.9,2,5.3,5,5.3C185.7,101.6,187.8,99.2,187.8,96.4z"/>
		<path d="M195.1,97.4c0,2.4,1.2,4.1,3.8,4.1c2.4,0,4.1-1.9,4.1-4.3v-7.8h2v13.6H203v-2.5c-1.1,1.9-2.7,2.8-4.7,2.8
			c-3.3,0-5.2-2.3-5.2-5.5v-8.4h2V97.4z"/>
		<path d="M226.4,95.2c0-2.4-1.3-4.1-3.8-4.1c-2.4,0-4.1,1.9-4.1,4.3v7.8h-2V82.4h2V92c1.1-1.8,2.7-2.7,4.7-2.7
			c3.3,0,5.2,2.3,5.2,5.5v8.4h-2V95.2z"/>
		<path d="M240.9,94.3c0-2.2-1.2-3.3-3.5-3.3c-2.3,0-3.3,1.5-3.6,2.8l-1.9-0.4c0.1-1.1,1.6-4.1,5.5-4.1c2.9,0,4.3,1.3,5,2.8
			c0.3,0.7,0.4,1.8,0.4,2.2v8.8h-1.9v-2.4h0c-1.1,1.7-2.6,2.6-4.6,2.6c-2.8,0-4.6-1.7-4.6-4v-0.2c0-3,3-3.9,5.4-3.9h3.8V94.3z
			 M237.1,96.9c-1.5,0-3.4,0.5-3.4,2.3c0,1.5,1.3,2.4,2.9,2.4c2.4,0,4.2-1.7,4.2-4.2v-0.5H237.1z"/>
		<path d="M245.2,89.5h2.2l4.7,11.4l4.7-11.4h2.1l-5.8,13.6H251L245.2,89.5z"/>
		<path d="M262.3,96.9c0.2,2.7,2.2,4.7,4.9,4.7c2,0,3.6-1,4.2-2.9l1.8,0.6c-0.8,2.6-3.3,4.1-6,4.1c-4,0-6.9-3.1-6.9-7.1
			c0-3.7,2.8-7,6.6-7c4.2,0,6.4,3,6.4,7c0,0.2,0,0.5,0,0.7H262.3z M271.3,95.2c-0.3-2.5-1.8-4.2-4.4-4.2c-2.4,0-4.3,2-4.6,4.2H271.3
			z"/>
		<path d="M292,94.3c0-2.2-1.2-3.3-3.5-3.3c-2.3,0-3.3,1.5-3.6,2.8l-1.9-0.4c0.1-1.1,1.6-4.1,5.5-4.1c2.9,0,4.3,1.3,5,2.8
			c0.3,0.7,0.4,1.8,0.4,2.2v8.8h-1.9v-2.4h0c-1.1,1.7-2.6,2.6-4.6,2.6c-2.8,0-4.6-1.7-4.6-4v-0.2c0-3,3-3.9,5.4-3.9h3.8V94.3z
			 M288.2,96.9c-1.5,0-3.4,0.5-3.4,2.3c0,1.5,1.3,2.4,2.9,2.4c2.4,0,4.2-1.7,4.2-4.2v-0.5H288.2z"/>
		<path d="M306,83.2h7.2c3.6,0,6.4,1.8,6.4,5c0,0.9-0.2,3.3-3,4.6c3,0.8,3.9,3.4,3.9,4.9c0,3.9-3.3,5.5-7.1,5.5H306V83.2z M308,92
			h4.8c3.3,0,4.6-1.7,4.6-3.6c0-2.4-2.2-3.3-4.5-3.3H308V92z M308,101.2h5.4c2.2,0,4.9-0.9,4.9-3.7c0-2.8-2.9-3.6-5.3-3.6h-5V101.2z
			"/>
		<path d="M325.9,97.4c0,2.4,1.3,4.1,3.8,4.1c2.4,0,4.1-1.9,4.1-4.3v-7.8h2v13.6h-1.9v-2.5c-1.1,1.9-2.7,2.8-4.7,2.8
			c-3.3,0-5.2-2.3-5.2-5.5v-8.4h2V97.4z"/>
		<path d="M344.4,103.4c-3.7,0-4.9-2.5-5.2-4l1.8-0.4c0.3,1.2,1.2,2.7,3.3,2.7c1.5,0,2.8-0.8,2.8-2.2c0-1.7-1.8-2-3.2-2.2
			c-2.3-0.3-4.5-1.1-4.5-3.8c0-2.6,2.3-4.1,4.6-4.1c3.6,0,4.7,2.4,4.9,3.7l-1.8,0.4c-0.2-0.9-1-2.4-3.1-2.4c-1.5,0-2.6,1-2.6,2.2
			c0,1.7,1.8,2,3.2,2.1c2.2,0.3,4.5,1.5,4.5,3.9C349.2,101.7,347,103.4,344.4,103.4z"/>
		<path d="M353.8,83.1c0.8,0,1.5,0.7,1.5,1.5c0,0.8-0.7,1.5-1.5,1.5c-0.8,0-1.5-0.7-1.5-1.5C352.3,83.8,353,83.1,353.8,83.1z
			 M354.8,89.5v13.6h-2V89.5H354.8z"/>
		<path d="M369.1,95.2c0-2.4-1.3-4.1-3.8-4.1c-2.4,0-4.1,1.9-4.1,4.3v7.8h-2V89.5h2V92c1.1-1.8,2.7-2.8,4.7-2.8
			c3.3,0,5.2,2.3,5.2,5.5v8.4h-2V95.2z"/>
		<path d="M376.4,96.9c0.2,2.7,2.2,4.7,4.9,4.7c2,0,3.6-1,4.2-2.9l1.8,0.6c-0.8,2.6-3.3,4.1-6,4.1c-4,0-6.9-3.1-6.9-7.1
			c0-3.7,2.8-7,6.6-7c4.2,0,6.4,3,6.4,7c0,0.2,0,0.5,0,0.7H376.4z M385.5,95.2c-0.3-2.5-1.8-4.2-4.4-4.2c-2.4,0-4.3,2-4.6,4.2H385.5
			z"/>
		<path d="M395,103.4c-3.7,0-4.9-2.5-5.2-4l1.8-0.4c0.3,1.2,1.2,2.7,3.3,2.7c1.5,0,2.8-0.8,2.8-2.2c0-1.7-1.8-2-3.2-2.2
			c-2.3-0.3-4.5-1.1-4.5-3.8c0-2.6,2.3-4.1,4.6-4.1c3.6,0,4.7,2.4,4.9,3.7l-1.8,0.4c-0.2-0.9-1-2.4-3.1-2.4c-1.5,0-2.6,1-2.6,2.2
			c0,1.7,1.8,2,3.2,2.1c2.2,0.3,4.5,1.5,4.5,3.9C399.9,101.7,397.7,103.4,395,103.4z"/>
		<path d="M407.6,103.4c-3.7,0-4.9-2.5-5.2-4l1.8-0.4c0.3,1.2,1.2,2.7,3.3,2.7c1.5,0,2.8-0.8,2.8-2.2c0-1.7-1.8-2-3.2-2.2
			c-2.3-0.3-4.5-1.1-4.5-3.8c0-2.6,2.3-4.1,4.6-4.1c3.6,0,4.7,2.4,4.9,3.7l-1.8,0.4c-0.2-0.9-1-2.4-3.1-2.4c-1.5,0-2.6,1-2.6,2.2
			c0,1.7,1.8,2,3.2,2.1c2.2,0.3,4.5,1.5,4.5,3.9C412.4,101.7,410.2,103.4,407.6,103.4z"/>
		<path d="M422.2,93.2c0-6.1,4.6-10.3,10-10.3c5.5,0,8.2,3.8,8.9,6.6l-2,0.7c-0.3-1.3-2-5.3-7-5.3c-4.2,0-7.8,3.3-7.8,8.1
			c0,4.7,3.3,8.3,7.8,8.3c4.8,0,6.5-3.7,7-5.4l2,0.7c-0.7,2.4-3.3,6.6-9.1,6.6C426.6,103.3,422.2,99.2,422.2,93.2z"/>
		<path d="M443.5,96.4c0-4,3-7.1,7.1-7.1c3.9,0,7,3.1,7,7c0,4-3.1,7.1-7.1,7.1C446.5,103.4,443.5,100.2,443.5,96.4z M455.5,96.4
			c0-2.9-2.1-5.4-5-5.4c-3,0-5,2.4-5,5.3c0,2.9,2,5.3,5,5.3C453.4,101.6,455.5,99.2,455.5,96.4z"/>
		<path d="M470.8,95.2c0-2.4-1.3-4.1-3.8-4.1c-2.4,0-4.1,1.9-4.1,4.3v7.8h-2V89.5h2V92c1.1-1.8,2.7-2.8,4.7-2.8
			c3.3,0,5.2,2.3,5.2,5.5v8.4h-2V95.2z"/>
		<path d="M477.9,99.6v-8.3h-2.5v-1.8h2.5v-3.9h2v3.9h3.4v1.8h-3.4v8.3c0,1.2,0.7,1.9,2.2,1.9c0.4,0,0.9,0,1.2-0.1v1.7
			c-0.4,0.1-1.2,0.2-1.6,0.2C478.8,103.2,477.9,101.6,477.9,99.6z"/>
		<path d="M487.7,83.1c0.8,0,1.5,0.7,1.5,1.5c0,0.8-0.7,1.5-1.5,1.5c-0.8,0-1.5-0.7-1.5-1.5C486.2,83.8,486.9,83.1,487.7,83.1z
			 M488.7,89.5v13.6h-2V89.5H488.7z"/>
		<path d="M503,95.2c0-2.4-1.3-4.1-3.8-4.1c-2.4,0-4.1,1.9-4.1,4.3v7.8h-2V89.5h2V92c1.1-1.8,2.7-2.8,4.7-2.8c3.3,0,5.2,2.3,5.2,5.5
			v8.4h-2V95.2z"/>
		<path d="M511.1,97.4c0,2.4,1.3,4.1,3.8,4.1c2.4,0,4.1-1.9,4.1-4.3v-7.8h2v13.6H519v-2.5c-1.1,1.9-2.7,2.8-4.7,2.8
			c-3.3,0-5.2-2.3-5.2-5.5v-8.4h2V97.4z"/>
		<path d="M526.5,83.1c0.8,0,1.5,0.7,1.5,1.5c0,0.8-0.7,1.5-1.5,1.5c-0.8,0-1.5-0.7-1.5-1.5C525,83.8,525.6,83.1,526.5,83.1z
			 M527.5,89.5v13.6h-2V89.5H527.5z"/>
		<path d="M532.9,99.6v-8.3h-2.5v-1.8h2.5v-3.9h2v3.9h3.4v1.8h-3.4v8.3c0,1.2,0.7,1.9,2.2,1.9c0.4,0,0.9,0,1.2-0.1v1.7
			c-0.4,0.1-1.2,0.2-1.6,0.2C533.8,103.2,532.9,101.6,532.9,99.6z"/>
		<path d="M546.1,102.2l-6.2-12.7h2.3l5,10.5l4.7-10.5h2.1l-9.3,20.3h-2.1L546.1,102.2z"/>
		<path d="M566,103.1h-2.1v-20h6.7c4.9,0,7,2.9,7,6c0,3.4-2.5,6.2-7.4,6.2H566V103.1z M566,93.4h4.3c3.7,0,5.2-2.1,5.2-4.2
			c0-2-1.1-4.1-5.1-4.1H566V93.4z"/>
		<path d="M582.8,82.3v20.8h-2V82.3H582.8z"/>
		<path d="M595.5,94.3c0-2.2-1.2-3.3-3.5-3.3c-2.3,0-3.3,1.5-3.6,2.8l-1.9-0.4c0.1-1.1,1.6-4.1,5.5-4.1c2.9,0,4.3,1.3,5,2.8
			c0.3,0.7,0.4,1.8,0.4,2.2v8.8h-1.9v-2.4h0c-1.1,1.7-2.6,2.6-4.6,2.6c-2.8,0-4.6-1.7-4.6-4v-0.2c0-3,3-3.9,5.4-3.9h3.8V94.3z
			 M591.7,96.9c-1.5,0-3.4,0.5-3.4,2.3c0,1.5,1.3,2.4,2.9,2.4c2.4,0,4.2-1.7,4.2-4.2v-0.5H591.7z"/>
		<path d="M611.6,95.2c0-2.4-1.3-4.1-3.8-4.1c-2.4,0-4.1,1.9-4.1,4.3v7.8h-2V89.5h2V92c1.1-1.8,2.7-2.8,4.7-2.8
			c3.3,0,5.2,2.3,5.2,5.5v8.4h-2V95.2z"/>
		<path d="M620.6,97.3c0-0.2,0-0.3,0-0.5c0-2.4,1.5-3.5,2.6-4.7c1.1-1.2,2.5-2.3,2.5-4.1c0-1.7-1.1-3.3-3.7-3.3
			c-2.6,0-4,1.9-3.8,4.3l-2-0.1c0-0.2,0-0.4,0-0.6c0-3.3,2.7-5.6,5.9-5.6c3.6,0,5.9,2.5,5.9,5.2c0,2-1.2,3.3-3,5.1
			c-1.3,1.3-2.2,2.1-2.3,4.1H620.6z M621.5,103.4c0.8,0,1.5-0.7,1.5-1.5c0-0.8-0.6-1.5-1.5-1.5c-0.8,0-1.5,0.7-1.5,1.5
			C620,102.7,620.7,103.4,621.5,103.4z"/>
		<path d="M118.3,124c0-5.3,2.7-9.8,7.2-12.4l0.8,1.3c-4.1,2.7-6.1,6.3-6.1,11.1v0.6c0,4.9,1.9,8.5,6,11.1l-0.8,1.4
			c-4.6-2.7-7.2-7.1-7.2-12.4V124z"/>
		<path d="M136.5,133.9c-2.6,0-4.2-1.3-5.3-3.1v2.9h-2V113h2V123c1.1-1.7,2.7-3.2,5.3-3.2c3.9,0,6.4,3.5,6.4,7
			C142.9,130.6,140.4,133.9,136.5,133.9z M140.9,126.9c0-2.8-1.8-5.3-4.8-5.3c-2.8,0-4.9,2.5-4.9,5.2c0,2.8,2,5.3,4.9,5.3
			C139.1,132.2,140.9,129.8,140.9,126.9z"/>
		<path d="M150.4,132.8l-6.2-12.7h2.3l5,10.5l4.7-10.5h2.1l-9.3,20.3h-2.1L150.4,132.8z"/>
		<path d="M171.8,134c-3.7,0-4.9-2.5-5.2-4l1.8-0.4c0.3,1.2,1.2,2.7,3.3,2.7c1.5,0,2.8-0.8,2.8-2.2c0-1.7-1.8-2-3.2-2.2
			c-2.3-0.3-4.5-1.1-4.5-3.8c0-2.6,2.3-4.1,4.6-4.1c3.6,0,4.7,2.4,4.9,3.7l-1.8,0.4c-0.2-0.9-1-2.4-3.1-2.4c-1.5,0-2.6,1-2.6,2.2
			c0,1.7,1.8,2,3.2,2.1c2.2,0.3,4.5,1.5,4.5,3.9C176.6,132.4,174.4,134,171.8,134z"/>
		<path d="M181.2,113.7c0.8,0,1.5,0.7,1.5,1.5c0,0.8-0.7,1.5-1.5,1.5c-0.8,0-1.5-0.7-1.5-1.5C179.7,114.4,180.3,113.7,181.2,113.7z
			 M182.2,120.1v13.6h-2v-13.6H182.2z"/>
		<path d="M196.4,133.7h-10.9V132l8.5-10.2h-8.3v-1.7h10.7v1.7l-8.5,10.2h8.5V133.7z"/>
		<path d="M200.5,127.5c0.2,2.7,2.2,4.7,4.9,4.7c2,0,3.6-1,4.2-2.9l1.8,0.6c-0.8,2.6-3.3,4.1-6,4.1c-4,0-6.9-3.1-6.9-7.1
			c0-3.7,2.8-7,6.6-7c4.2,0,6.4,3,6.4,7c0,0.2,0,0.5,0,0.7H200.5z M209.6,125.9c-0.3-2.5-1.8-4.2-4.4-4.2c-2.4,0-4.3,2-4.6,4.2
			H209.6z"/>
		<path d="M221.1,127c0-4,3-7.1,7.1-7.1c3.9,0,7,3.1,7,7c0,4-3.1,7.1-7.1,7.1C224.2,134,221.1,130.9,221.1,127z M233.2,127
			c0-2.9-2.1-5.4-5-5.4s-5,2.4-5,5.3c0,2.9,2,5.3,5,5.3C231.1,132.2,233.2,129.8,233.2,127z"/>
		<path d="M241.4,117.5v2.6h3.6v1.7h-3.6v11.9h-2v-11.9h-2.6v-1.7h2.6v-2.5c0-3.2,1.8-4.7,4.2-4.7c0.4,0,1,0.1,1.5,0.3v1.7
			c-0.5-0.2-1.1-0.2-1.4-0.2C242.7,114.7,241.4,115.2,241.4,117.5z"/>
		<path d="M256.8,113.8v20h-2.1v-20H256.8z"/>
		<path d="M266.8,133.7v-18h-6.7v-2h15.5v2H269v18H266.8z"/>
		<path d="M285.5,130.2v-8.3H283v-1.8h2.5v-3.9h2v3.9h3.4v1.8h-3.4v8.3c0,1.2,0.7,1.9,2.2,1.9c0.4,0,0.9,0,1.2-0.1v1.7
			c-0.4,0.1-1.2,0.2-1.6,0.2C286.4,133.8,285.5,132.2,285.5,130.2z"/>
		<path d="M295,127.5c0.2,2.7,2.2,4.7,4.9,4.7c2,0,3.6-1,4.2-2.9l1.8,0.6c-0.8,2.6-3.3,4.1-6,4.1c-4,0-6.9-3.1-6.9-7.1
			c0-3.7,2.8-7,6.6-7c4.2,0,6.4,3,6.4,7c0,0.2,0,0.5,0,0.7H295z M304,125.9c-0.3-2.5-1.8-4.2-4.4-4.2c-2.4,0-4.3,2-4.6,4.2H304z"/>
		<path d="M317.7,125c0-2.2-1.2-3.3-3.5-3.3c-2.3,0-3.3,1.5-3.6,2.8l-1.9-0.4c0.1-1.1,1.6-4.1,5.5-4.1c2.9,0,4.3,1.3,5,2.8
			c0.3,0.7,0.4,1.8,0.4,2.2v8.8h-1.9v-2.4h0c-1.1,1.7-2.6,2.6-4.6,2.6c-2.8,0-4.6-1.7-4.6-4v-0.2c0-3,3-3.9,5.4-3.9h3.8V125z
			 M313.9,127.5c-1.5,0-3.4,0.5-3.4,2.3c0,1.5,1.3,2.4,2.9,2.4c2.4,0,4.2-1.7,4.2-4.2v-0.5H313.9z"/>
		<path d="M333.3,125.7c0-2.2-1.1-4.1-3.5-4.1c-2.4,0-3.8,2.1-3.8,4.3v7.8h-2v-13.6h2v2.4c1.1-1.7,2.3-2.6,4.4-2.6
			c2,0,3.5,0.9,4.4,2.7c1.1-1.8,2.7-2.7,4.8-2.7c3.3,0,5,2.3,5,5.4v8.4h-2v-7.9c0-2.3-1-4.1-3.5-4.1c-2.4,0-3.8,1.9-3.8,4.2v7.8h-2
			V125.7z"/>
		<path d="M354.4,124.6c0,5.3-2.7,9.8-7.2,12.4l-0.8-1.4c4.1-2.6,6-6.2,6-11.1V124c0-4.9-2-8.5-6.1-11.1l0.9-1.3
			c4.6,2.7,7.2,7.1,7.2,12.4V124.6z"/>
	</g>
</g>
<g>
	<g>
		<g>
			<path d="M1221.5,273.5v1.1l-6.4,3l6.4,3v1.2l-7.7-3.7v-1.1L1221.5,273.5z"/>
			<path d="M1226.9,272.8l-0.7,4c0.7-0.7,2-0.9,2.5-0.9c2.2,0,3.8,1.4,3.8,3.8c0,2.5-2.1,3.8-4.1,3.8c-1.9,0-3.7-1.2-4-3.2l1.2-0.3
				c0.2,1.3,1.3,2.3,2.8,2.3c1.2,0,2.8-0.8,2.8-2.7s-1.4-2.7-2.8-2.7c-0.8,0-1.8,0.4-2.5,1.2l-1.1-0.4l1-6h6.1v1.1H1226.9z"/>
			<path d="M1244.5,283.4c-1.5,0-2.4-0.7-3.1-1.8v5.5h-1.2v-11.9h1.1v1.7c0.6-1,1.6-1.9,3.1-1.9c2.3,0,3.7,2,3.7,4.1
				C1248.3,281.4,1246.8,283.4,1244.5,283.4z M1247.1,279.3c0-1.7-1-3.1-2.8-3.1c-1.6,0-2.8,1.5-2.8,3c0,1.6,1.2,3.1,2.8,3.1
				C1246.1,282.4,1247.1,281,1247.1,279.3z"/>
			<path d="M1251.7,279.7c0.1,1.5,1.3,2.7,2.8,2.7c1.2,0,2.1-0.6,2.5-1.7l1,0.3c-0.5,1.5-1.9,2.4-3.5,2.4c-2.3,0-4-1.8-4-4.1
				c0-2.2,1.6-4.1,3.9-4.1c2.5,0,3.7,1.8,3.7,4.1c0,0.1,0,0.3,0,0.4H1251.7z M1256.9,278.7c-0.1-1.4-1.1-2.5-2.6-2.5
				c-1.4,0-2.5,1.1-2.7,2.5H1256.9z"/>
			<path d="M1260.3,279.3c0-2.4,1.8-4.1,4.1-4.1c2.3,0,4.1,1.8,4.1,4.1c0,2.4-1.8,4.1-4.1,4.1C1262,283.4,1260.3,281.6,1260.3,279.3
				z M1267.3,279.3c0-1.7-1.2-3.1-2.9-3.1c-1.7,0-2.9,1.4-2.9,3.1c0,1.7,1.2,3.1,2.9,3.1C1266.1,282.4,1267.3,281,1267.3,279.3z"/>
			<path d="M1275.5,283.4c-1.5,0-2.4-0.7-3.1-1.8v5.5h-1.2v-11.9h1.1v1.7c0.6-1,1.6-1.9,3.1-1.9c2.3,0,3.7,2,3.7,4.1
				C1279.2,281.4,1277.7,283.4,1275.5,283.4z M1278,279.3c0-1.7-1-3.1-2.8-3.1c-1.6,0-2.8,1.5-2.8,3c0,1.6,1.2,3.1,2.8,3.1
				C1277,282.4,1278,281,1278,279.3z"/>
			<path d="M1283.2,271.2v12.1h-1.2v-12.1H1283.2z"/>
			<path d="M1287.2,279.7c0.1,1.5,1.3,2.7,2.8,2.7c1.2,0,2.1-0.6,2.5-1.7l1,0.3c-0.5,1.5-1.9,2.4-3.5,2.4c-2.3,0-4-1.8-4-4.1
				c0-2.2,1.6-4.1,3.9-4.1c2.5,0,3.7,1.8,3.7,4.1c0,0.1,0,0.3,0,0.4H1287.2z M1292.4,278.7c-0.1-1.4-1.1-2.5-2.6-2.5
				c-1.4,0-2.5,1.1-2.7,2.5H1292.4z"/>
		</g>
	</g>
	<g class="st8">
		<g class="st4">
			<circle class="st5" cx="1186.9" cy="279.3" r="14.2"/>
		</g>
		<g class="st9">
			<circle class="st5" cx="1186.9" cy="279.3" r="14.2"/>
		</g>
	</g>
	<g>
		<g>
			<path d="M1216.2,313.9l-0.7,4c0.7-0.7,2-0.9,2.5-0.9c2.2,0,3.8,1.4,3.8,3.8c0,2.5-2.1,3.8-4.1,3.8c-1.9,0-3.7-1.2-4-3.2l1.2-0.3
				c0.2,1.3,1.3,2.3,2.8,2.3c1.2,0,2.8-0.8,2.8-2.7c0-1.9-1.4-2.7-2.8-2.7c-0.8,0-1.8,0.4-2.5,1.2l-1.1-0.4l1-6h6.1v1.1H1216.2z"/>
			<path d="M1227.4,322.4v-3.1h-3.1v-1.1h3.1v-3h1.1v3h3.1v1.1h-3.1v3.1H1227.4z"/>
			<path d="M1243.6,324.5c-1.5,0-2.4-0.7-3.1-1.8v5.5h-1.2v-11.9h1.1v1.7c0.6-1,1.6-1.9,3.1-1.9c2.3,0,3.7,2,3.7,4.1
				C1247.3,322.5,1245.8,324.5,1243.6,324.5z M1246.1,320.4c0-1.7-1-3.1-2.8-3.1c-1.6,0-2.8,1.5-2.8,3c0,1.6,1.2,3.1,2.8,3.1
				C1245.1,323.5,1246.1,322.1,1246.1,320.4z"/>
			<path d="M1250.7,320.8c0.1,1.5,1.3,2.7,2.8,2.7c1.2,0,2.1-0.6,2.5-1.7l1,0.3c-0.5,1.5-1.9,2.4-3.5,2.4c-2.3,0-4-1.8-4-4.1
				c0-2.2,1.6-4.1,3.9-4.1c2.5,0,3.7,1.8,3.7,4.1c0,0.1,0,0.3,0,0.4H1250.7z M1256,319.8c-0.1-1.4-1.1-2.5-2.6-2.5
				c-1.4,0-2.5,1.1-2.7,2.5H1256z"/>
			<path d="M1259.3,320.4c0-2.4,1.8-4.1,4.1-4.1c2.3,0,4.1,1.8,4.1,4.1c0,2.4-1.8,4.1-4.1,4.1
				C1261.1,324.5,1259.3,322.7,1259.3,320.4z M1266.3,320.4c0-1.7-1.2-3.1-2.9-3.1c-1.7,0-2.9,1.4-2.9,3.1c0,1.7,1.2,3.1,2.9,3.1
				C1265.1,323.5,1266.3,322.1,1266.3,320.4z"/>
			<path d="M1274.5,324.5c-1.5,0-2.4-0.7-3.1-1.8v5.5h-1.2v-11.9h1.1v1.7c0.6-1,1.6-1.9,3.1-1.9c2.3,0,3.7,2,3.7,4.1
				C1278.3,322.5,1276.8,324.5,1274.5,324.5z M1277.1,320.4c0-1.7-1-3.1-2.8-3.1c-1.6,0-2.8,1.5-2.8,3c0,1.6,1.2,3.1,2.8,3.1
				C1276,323.5,1277.1,322.1,1277.1,320.4z"/>
			<path d="M1282.2,312.3v12.1h-1.2v-12.1H1282.2z"/>
			<path d="M1286.2,320.8c0.1,1.5,1.3,2.7,2.8,2.7c1.2,0,2.1-0.6,2.5-1.7l1,0.3c-0.5,1.5-1.9,2.4-3.5,2.4c-2.3,0-4-1.8-4-4.1
				c0-2.2,1.6-4.1,3.9-4.1c2.5,0,3.7,1.8,3.7,4.1c0,0.1,0,0.3,0,0.4H1286.2z M1291.4,319.8c-0.1-1.4-1.1-2.5-2.6-2.5
				c-1.4,0-2.5,1.1-2.7,2.5H1291.4z"/>
		</g>
	</g>
	<g>
		<circle class="st3" cx="1186.9" cy="320.4" r="14.2"/>
	</g>
	<g>
		<g class="st4">
			<pattern  id="SVGID_2_" xlink:href="#white" patternTransform="matrix(1.0628 0 0 1.0628 3830.6228 805.695)"  class="st4">
			</pattern>
			<circle class="st10" cx="1186.9" cy="279.3" r="14.2"/>
		</g>
		<g class="st9">
			<pattern  id="SVGID_3_" xlink:href="#white" patternTransform="matrix(1.0628 0 0 1.0628 3830.6228 805.695)"  class="st9">
			</pattern>
			<circle class="st11" cx="1186.9" cy="279.3" r="14.2"/>
		</g>
	</g>
</g>
</svg>
