<?xml version="1.0" encoding="utf-8"?>
<!-- Generator: Adobe Illustrator 21.1.0, SVG Export Plug-In . SVG Version: 6.00 Build 0)  -->
<svg version="1.1" id="graphNineCyber" xmlns="http://www.w3.org/2000/svg" xmlns:xlink="http://www.w3.org/1999/xlink" x="0px"
	 y="0px" viewBox="0 0 1500 1053" style="enable-background:new 0 0 1500 1053;" xml:space="preserve">
<style type="text/css">
	.st0{fill:none;}
	.st1{fill:none;stroke:#000000;stroke-width:2;stroke-linecap:round;stroke-miterlimit:10;}
	.st2{fill:none;stroke:#000000;stroke-width:2;stroke-linecap:round;stroke-miterlimit:10;stroke-dasharray:0,10;}
	.st3{fill:#F6F6F8;}
	.st4{opacity:0.9;}
	.st5{fill:#FF8F4E;}
	.st6{fill:#8EFFDE;}
	.st7{fill:#E5E5E5;}
	.st8{opacity:0.2;}
	.st9{fill:url(#SVGID_1_);}
	.st10{fill:url(#SVGID_2_);}
	.st11{fill:#D3D3D3;}
</style>
<pattern  y="1053" width="240" height="240" patternUnits="userSpaceOnUse" id="Unnamed_Pattern_4" viewBox="1 -241 240 240" style="overflow:visible;">
	<g>
		<rect x="1" y="-241" class="st0" width="240" height="240"/>
		<g>
			<g>
				<line class="st1" x1="241" y1="-1" x2="241" y2="-1"/>
			</g>
		</g>
		<g>
			<g>
				<line class="st1" x1="1" y1="-1" x2="1" y2="-1"/>
				<line class="st2" x1="11" y1="-1" x2="236" y2="-1"/>
				<line class="st1" x1="241" y1="-1" x2="241" y2="-1"/>
			</g>
		</g>
		<g>
			<g>
				<line class="st1" x1="1" y1="-1" x2="1" y2="-1"/>
			</g>
		</g>
		<g>
			<g>
				<line class="st1" x1="241" y1="-241" x2="241" y2="-241"/>
			</g>
			<g>
				<line class="st1" x1="241" y1="-231" x2="241" y2="-231"/>
			</g>
			<g>
				<line class="st1" x1="241" y1="-221" x2="241" y2="-221"/>
			</g>
			<g>
				<line class="st1" x1="241" y1="-211" x2="241" y2="-211"/>
			</g>
			<g>
				<line class="st1" x1="241" y1="-201" x2="241" y2="-201"/>
			</g>
			<g>
				<line class="st1" x1="241" y1="-191" x2="241" y2="-191"/>
			</g>
			<g>
				<line class="st1" x1="241" y1="-181" x2="241" y2="-181"/>
			</g>
			<g>
				<line class="st1" x1="241" y1="-171" x2="241" y2="-171"/>
			</g>
			<g>
				<line class="st1" x1="241" y1="-161" x2="241" y2="-161"/>
			</g>
			<g>
				<line class="st1" x1="241" y1="-151" x2="241" y2="-151"/>
			</g>
			<g>
				<line class="st1" x1="241" y1="-141" x2="241" y2="-141"/>
			</g>
			<g>
				<line class="st1" x1="241" y1="-131" x2="241" y2="-131"/>
			</g>
			<g>
				<line class="st1" x1="241" y1="-121" x2="241" y2="-121"/>
			</g>
			<g>
				<line class="st1" x1="241" y1="-111" x2="241" y2="-111"/>
			</g>
			<g>
				<line class="st1" x1="241" y1="-101" x2="241" y2="-101"/>
			</g>
			<g>
				<line class="st1" x1="241" y1="-91" x2="241" y2="-91"/>
			</g>
			<g>
				<line class="st1" x1="241" y1="-81" x2="241" y2="-81"/>
			</g>
			<g>
				<line class="st1" x1="241" y1="-71" x2="241" y2="-71"/>
			</g>
			<g>
				<line class="st1" x1="241" y1="-61" x2="241" y2="-61"/>
			</g>
			<g>
				<line class="st1" x1="241" y1="-51" x2="241" y2="-51"/>
			</g>
			<g>
				<line class="st1" x1="241" y1="-41" x2="241" y2="-41"/>
			</g>
			<g>
				<line class="st1" x1="241" y1="-31" x2="241" y2="-31"/>
			</g>
			<g>
				<line class="st1" x1="241" y1="-21" x2="241" y2="-21"/>
			</g>
			<g>
				<line class="st1" x1="241" y1="-11" x2="241" y2="-11"/>
			</g>
			<g>
				<line class="st1" x1="241" y1="-1" x2="241" y2="-1"/>
			</g>
		</g>
		<g>
			<g>
				<line class="st1" x1="1" y1="-241" x2="1" y2="-241"/>
				<line class="st2" x1="11" y1="-241" x2="236" y2="-241"/>
				<line class="st1" x1="241" y1="-241" x2="241" y2="-241"/>
			</g>
			<g>
				<line class="st1" x1="1" y1="-231" x2="1" y2="-231"/>
				<line class="st2" x1="11" y1="-231" x2="236" y2="-231"/>
				<line class="st1" x1="241" y1="-231" x2="241" y2="-231"/>
			</g>
			<g>
				<line class="st1" x1="1" y1="-221" x2="1" y2="-221"/>
				<line class="st2" x1="11" y1="-221" x2="236" y2="-221"/>
				<line class="st1" x1="241" y1="-221" x2="241" y2="-221"/>
			</g>
			<g>
				<line class="st1" x1="1" y1="-211" x2="1" y2="-211"/>
				<line class="st2" x1="11" y1="-211" x2="236" y2="-211"/>
				<line class="st1" x1="241" y1="-211" x2="241" y2="-211"/>
			</g>
			<g>
				<line class="st1" x1="1" y1="-201" x2="1" y2="-201"/>
				<line class="st2" x1="11" y1="-201" x2="236" y2="-201"/>
				<line class="st1" x1="241" y1="-201" x2="241" y2="-201"/>
			</g>
			<g>
				<line class="st1" x1="1" y1="-191" x2="1" y2="-191"/>
				<line class="st2" x1="11" y1="-191" x2="236" y2="-191"/>
				<line class="st1" x1="241" y1="-191" x2="241" y2="-191"/>
			</g>
			<g>
				<line class="st1" x1="1" y1="-181" x2="1" y2="-181"/>
				<line class="st2" x1="11" y1="-181" x2="236" y2="-181"/>
				<line class="st1" x1="241" y1="-181" x2="241" y2="-181"/>
			</g>
			<g>
				<line class="st1" x1="1" y1="-171" x2="1" y2="-171"/>
				<line class="st2" x1="11" y1="-171" x2="236" y2="-171"/>
				<line class="st1" x1="241" y1="-171" x2="241" y2="-171"/>
			</g>
			<g>
				<line class="st1" x1="1" y1="-161" x2="1" y2="-161"/>
				<line class="st2" x1="11" y1="-161" x2="236" y2="-161"/>
				<line class="st1" x1="241" y1="-161" x2="241" y2="-161"/>
			</g>
			<g>
				<line class="st1" x1="1" y1="-151" x2="1" y2="-151"/>
				<line class="st2" x1="11" y1="-151" x2="236" y2="-151"/>
				<line class="st1" x1="241" y1="-151" x2="241" y2="-151"/>
			</g>
			<g>
				<line class="st1" x1="1" y1="-141" x2="1" y2="-141"/>
				<line class="st2" x1="11" y1="-141" x2="236" y2="-141"/>
				<line class="st1" x1="241" y1="-141" x2="241" y2="-141"/>
			</g>
			<g>
				<line class="st1" x1="1" y1="-131" x2="1" y2="-131"/>
				<line class="st2" x1="11" y1="-131" x2="236" y2="-131"/>
				<line class="st1" x1="241" y1="-131" x2="241" y2="-131"/>
			</g>
			<g>
				<line class="st1" x1="1" y1="-121" x2="1" y2="-121"/>
				<line class="st2" x1="11" y1="-121" x2="236" y2="-121"/>
				<line class="st1" x1="241" y1="-121" x2="241" y2="-121"/>
			</g>
			<g>
				<line class="st1" x1="1" y1="-111" x2="1" y2="-111"/>
				<line class="st2" x1="11" y1="-111" x2="236" y2="-111"/>
				<line class="st1" x1="241" y1="-111" x2="241" y2="-111"/>
			</g>
			<g>
				<line class="st1" x1="1" y1="-101" x2="1" y2="-101"/>
				<line class="st2" x1="11" y1="-101" x2="236" y2="-101"/>
				<line class="st1" x1="241" y1="-101" x2="241" y2="-101"/>
			</g>
			<g>
				<line class="st1" x1="1" y1="-91" x2="1" y2="-91"/>
				<line class="st2" x1="11" y1="-91" x2="236" y2="-91"/>
				<line class="st1" x1="241" y1="-91" x2="241" y2="-91"/>
			</g>
			<g>
				<line class="st1" x1="1" y1="-81" x2="1" y2="-81"/>
				<line class="st2" x1="11" y1="-81" x2="236" y2="-81"/>
				<line class="st1" x1="241" y1="-81" x2="241" y2="-81"/>
			</g>
			<g>
				<line class="st1" x1="1" y1="-71" x2="1" y2="-71"/>
				<line class="st2" x1="11" y1="-71" x2="236" y2="-71"/>
				<line class="st1" x1="241" y1="-71" x2="241" y2="-71"/>
			</g>
			<g>
				<line class="st1" x1="1" y1="-61" x2="1" y2="-61"/>
				<line class="st2" x1="11" y1="-61" x2="236" y2="-61"/>
				<line class="st1" x1="241" y1="-61" x2="241" y2="-61"/>
			</g>
			<g>
				<line class="st1" x1="1" y1="-51" x2="1" y2="-51"/>
				<line class="st2" x1="11" y1="-51" x2="236" y2="-51"/>
				<line class="st1" x1="241" y1="-51" x2="241" y2="-51"/>
			</g>
			<g>
				<line class="st1" x1="1" y1="-41" x2="1" y2="-41"/>
				<line class="st2" x1="11" y1="-41" x2="236" y2="-41"/>
				<line class="st1" x1="241" y1="-41" x2="241" y2="-41"/>
			</g>
			<g>
				<line class="st1" x1="1" y1="-31" x2="1" y2="-31"/>
				<line class="st2" x1="11" y1="-31" x2="236" y2="-31"/>
				<line class="st1" x1="241" y1="-31" x2="241" y2="-31"/>
			</g>
			<g>
				<line class="st1" x1="1" y1="-21" x2="1" y2="-21"/>
				<line class="st2" x1="11" y1="-21" x2="236" y2="-21"/>
				<line class="st1" x1="241" y1="-21" x2="241" y2="-21"/>
			</g>
			<g>
				<line class="st1" x1="1" y1="-11" x2="1" y2="-11"/>
				<line class="st2" x1="11" y1="-11" x2="236" y2="-11"/>
				<line class="st1" x1="241" y1="-11" x2="241" y2="-11"/>
			</g>
			<g>
				<line class="st1" x1="1" y1="-1" x2="1" y2="-1"/>
				<line class="st2" x1="11" y1="-1" x2="236" y2="-1"/>
				<line class="st1" x1="241" y1="-1" x2="241" y2="-1"/>
			</g>
		</g>
		<g>
			<g>
				<line class="st1" x1="1" y1="-241" x2="1" y2="-241"/>
			</g>
			<g>
				<line class="st1" x1="1" y1="-231" x2="1" y2="-231"/>
			</g>
			<g>
				<line class="st1" x1="1" y1="-221" x2="1" y2="-221"/>
			</g>
			<g>
				<line class="st1" x1="1" y1="-211" x2="1" y2="-211"/>
			</g>
			<g>
				<line class="st1" x1="1" y1="-201" x2="1" y2="-201"/>
			</g>
			<g>
				<line class="st1" x1="1" y1="-191" x2="1" y2="-191"/>
			</g>
			<g>
				<line class="st1" x1="1" y1="-181" x2="1" y2="-181"/>
			</g>
			<g>
				<line class="st1" x1="1" y1="-171" x2="1" y2="-171"/>
			</g>
			<g>
				<line class="st1" x1="1" y1="-161" x2="1" y2="-161"/>
			</g>
			<g>
				<line class="st1" x1="1" y1="-151" x2="1" y2="-151"/>
			</g>
			<g>
				<line class="st1" x1="1" y1="-141" x2="1" y2="-141"/>
			</g>
			<g>
				<line class="st1" x1="1" y1="-131" x2="1" y2="-131"/>
			</g>
			<g>
				<line class="st1" x1="1" y1="-121" x2="1" y2="-121"/>
			</g>
			<g>
				<line class="st1" x1="1" y1="-111" x2="1" y2="-111"/>
			</g>
			<g>
				<line class="st1" x1="1" y1="-101" x2="1" y2="-101"/>
			</g>
			<g>
				<line class="st1" x1="1" y1="-91" x2="1" y2="-91"/>
			</g>
			<g>
				<line class="st1" x1="1" y1="-81" x2="1" y2="-81"/>
			</g>
			<g>
				<line class="st1" x1="1" y1="-71" x2="1" y2="-71"/>
			</g>
			<g>
				<line class="st1" x1="1" y1="-61" x2="1" y2="-61"/>
			</g>
			<g>
				<line class="st1" x1="1" y1="-51" x2="1" y2="-51"/>
			</g>
			<g>
				<line class="st1" x1="1" y1="-41" x2="1" y2="-41"/>
			</g>
			<g>
				<line class="st1" x1="1" y1="-31" x2="1" y2="-31"/>
			</g>
			<g>
				<line class="st1" x1="1" y1="-21" x2="1" y2="-21"/>
			</g>
			<g>
				<line class="st1" x1="1" y1="-11" x2="1" y2="-11"/>
			</g>
			<g>
				<line class="st1" x1="1" y1="-1" x2="1" y2="-1"/>
			</g>
		</g>
		<g>
			<g>
				<line class="st1" x1="241" y1="-241" x2="241" y2="-241"/>
			</g>
		</g>
		<g>
			<g>
				<line class="st1" x1="1" y1="-241" x2="1" y2="-241"/>
				<line class="st2" x1="11" y1="-241" x2="236" y2="-241"/>
				<line class="st1" x1="241" y1="-241" x2="241" y2="-241"/>
			</g>
		</g>
		<g>
			<g>
				<line class="st1" x1="1" y1="-241" x2="1" y2="-241"/>
			</g>
		</g>
	</g>
</pattern>
<rect x="-26.1" y="-18.3" class="st3" width="1552.1" height="1089.6"/>
<g class="st4">
	<rect x="1647.9" y="-18.3" class="st5" width="1552.1" height="1089.6"/>
</g>
<rect x="-26.1" y="1150.2" class="st3" width="1552.1" height="1089.6"/>
<g>
	<g>
		<g>
			<g>
				<path d="M1304.1,217.2v1.7l-9.8,4.6l9.8,4.6v1.8l-11.7-5.6v-1.6L1304.1,217.2z"/>
				<path d="M1311.7,216.1l-1,6c1.1-1.1,3-1.4,3.9-1.4c3.3,0,5.8,2.2,5.8,5.7c0,3.9-3.2,5.8-6.2,5.8c-2.9,0-5.7-1.9-6.1-4.8l1.8-0.4
					c0.3,2,2,3.5,4.3,3.5c1.8,0,4.3-1.2,4.3-4.1s-2.2-4.1-4.3-4.1c-1.3,0-2.8,0.7-3.7,1.8l-1.7-0.7l1.5-9.2h9.3v1.7H1311.7z"/>
				<path d="M1338.5,232.3c-2.2,0-3.7-1.1-4.7-2.7v8.5h-1.8V220h1.7v2.6c1-1.5,2.4-2.8,4.7-2.8c3.4,0,5.7,3.1,5.7,6.2
					C1344.2,229.3,1341.9,232.3,1338.5,232.3z M1342.4,226.1c0-2.5-1.6-4.7-4.2-4.7c-2.5,0-4.3,2.2-4.3,4.6c0,2.5,1.8,4.7,4.3,4.7
					C1340.8,230.7,1342.4,228.6,1342.4,226.1z"/>
				<path d="M1349.3,226.6c0.1,2.4,2,4.1,4.3,4.1c1.8,0,3.2-0.9,3.7-2.6l1.6,0.5c-0.7,2.3-2.9,3.6-5.3,3.6c-3.5,0-6.1-2.8-6.1-6.3
					c0-3.3,2.5-6.2,5.9-6.2c3.7,0,5.7,2.7,5.7,6.2c0,0.2,0,0.4,0,0.6H1349.3z M1357.4,225.1c-0.2-2.2-1.6-3.8-3.9-3.8
					c-2.1,0-3.8,1.7-4.1,3.8H1357.4z"/>
				<path d="M1362.4,226.1c0-3.6,2.7-6.3,6.3-6.3c3.5,0,6.2,2.7,6.2,6.2c0,3.6-2.7,6.3-6.3,6.3
					C1365.2,232.3,1362.4,229.6,1362.4,226.1z M1373.1,226.1c0-2.5-1.8-4.8-4.5-4.8c-2.6,0-4.4,2.1-4.4,4.7c0,2.5,1.8,4.7,4.5,4.7
					C1371.3,230.8,1373.1,228.6,1373.1,226.1z"/>
				<path d="M1385.6,232.3c-2.2,0-3.7-1.1-4.7-2.7v8.5h-1.8V220h1.7v2.6c1-1.5,2.4-2.8,4.7-2.8c3.4,0,5.7,3.1,5.7,6.2
					C1391.3,229.3,1389.1,232.3,1385.6,232.3z M1389.5,226.1c0-2.5-1.6-4.7-4.2-4.7c-2.5,0-4.3,2.2-4.3,4.6c0,2.5,1.8,4.7,4.3,4.7
					C1387.9,230.7,1389.5,228.6,1389.5,226.1z"/>
				<path d="M1397.4,213.6v18.5h-1.8v-18.5H1397.4z"/>
				<path d="M1403.4,226.6c0.1,2.4,2,4.1,4.3,4.1c1.8,0,3.2-0.9,3.7-2.6l1.6,0.5c-0.7,2.3-2.9,3.6-5.3,3.6c-3.5,0-6.1-2.8-6.1-6.3
					c0-3.3,2.5-6.2,5.9-6.2c3.7,0,5.7,2.7,5.7,6.2c0,0.2,0,0.4,0,0.6H1403.4z M1411.4,225.1c-0.2-2.2-1.6-3.8-3.9-3.8
					c-2.1,0-3.8,1.7-4.1,3.8H1411.4z"/>
			</g>
		</g>
		<g>
			<g>
				<path d="M1295.4,162.9l-1.9,4.5h-1.9l7.7-17.7h2.1l7.7,17.7h-2l-1.9-4.5H1295.4z M1296.1,161.2h8.2l-4.1-9.6L1296.1,161.2z"/>
				<path d="M1313.9,148.9v18.5h-1.8v-18.5H1313.9z"/>
				<path d="M1320.8,148.9v18.5h-1.8v-18.5H1320.8z"/>
			</g>
		</g>
		<g>
			<circle class="st6" cx="1251.4" cy="226.1" r="21.6"/>
		</g>
		<g>
			<g>
				<path d="M1294.7,285.7c1.2-1.9,3.4-2.6,4.9-2.6c3.7,0,6,2.7,6,5.7c0,4-3.2,6-6.3,6c-1.9,0-4.3-1.1-5.3-3
					c-0.9-1.5-1.1-2.7-1.1-4.9c0-5.6,3-10.2,8.7-10.2c1,0,2.4,0.1,3.6,0.8l-0.7,1.7c-0.9-0.6-2.2-0.7-2.9-0.7
					C1297.4,278.5,1295,281.7,1294.7,285.7z M1296.3,285.9c-0.9,0.7-1.4,1.9-1.4,3.1c0,2.7,2.2,4.2,4.4,4.2c2.2,0,4.4-1.5,4.4-4.2
					c0-2.2-1.7-4.1-4.4-4.1C1298.2,284.8,1297.1,285.2,1296.3,285.9z"/>
				<path d="M1317,288.5v-1.8h10.4v1.8H1317z"/>
				<path d="M1344.9,294.8c-3.1,0-5.8-1.9-6.1-4.8l1.8-0.4c0.3,2,1.9,3.5,4.3,3.5c2.4,0,4.3-1.3,4.3-3.3s-1.5-3.3-4.3-3.3h-1.8v-1.7
					h1.7c2.4,0,3.9-1.5,3.9-3.2c0-1.8-1.4-3.1-3.9-3.1c-2.4,0-3.8,1.5-4.1,3.3l-1.8-0.4c0.3-2.5,2.7-4.6,5.9-4.6
					c3.9,0,5.8,2.4,5.8,4.7c0,2-1.1,3.3-2.8,4.1v0c2,0.6,3.2,2.2,3.2,4.2C1351,292.5,1348.6,294.8,1344.9,294.8z"/>
				<path d="M1354.8,285.9c0-4.4,2.5-9.1,7.4-9.1c4.9,0,7.3,4.6,7.3,9c0,4.4-2.5,9.1-7.4,9.1
					C1357.3,294.9,1354.8,290.3,1354.8,285.9z M1356.7,285.8c0,3.2,1.6,7.4,5.5,7.4c3.8,0,5.5-4.1,5.5-7.3s-1.7-7.4-5.5-7.4
					C1358.3,278.5,1356.7,282.6,1356.7,285.8z"/>
			</g>
		</g>
		<g>
			<circle class="st5" cx="1251.4" cy="288.7" r="21.6"/>
		</g>
		<g>
			<g>
				<path d="M1298.6,357.4c-3.1,0-5.8-1.9-6.1-4.8l1.8-0.4c0.3,2,1.9,3.5,4.3,3.5c2.4,0,4.3-1.3,4.3-3.3s-1.5-3.3-4.3-3.3h-1.8v-1.7
					h1.7c2.4,0,3.9-1.5,3.9-3.2c0-1.8-1.4-3.1-3.9-3.1c-2.4,0-3.8,1.5-4.1,3.3l-1.8-0.4c0.3-2.5,2.7-4.6,5.9-4.6
					c3.9,0,5.8,2.4,5.8,4.7c0,2-1.1,3.3-2.8,4.1v0c2,0.6,3.2,2.2,3.2,4.2C1304.8,355.1,1302.4,357.4,1298.6,357.4z"/>
				<path d="M1308.6,348.5c0-4.4,2.5-9.1,7.4-9.1c4.9,0,7.3,4.6,7.3,9c0,4.4-2.5,9.1-7.4,9.1C1311,357.5,1308.6,352.9,1308.6,348.5z
					 M1310.5,348.4c0,3.2,1.6,7.4,5.5,7.4c3.8,0,5.5-4.1,5.5-7.3s-1.7-7.4-5.5-7.4C1312.1,341.1,1310.5,345.2,1310.5,348.4z"/>
				<path d="M1331.6,354.3v-4.7h-4.7v-1.7h4.7v-4.6h1.7v4.6h4.7v1.7h-4.7v4.7H1331.6z"/>
				<path d="M1356.2,357.5c-2.2,0-3.7-1.1-4.7-2.7v8.5h-1.8v-18.1h1.7v2.6c1-1.5,2.4-2.8,4.7-2.8c3.4,0,5.7,3.1,5.7,6.2
					C1361.9,354.5,1359.6,357.5,1356.2,357.5z M1360.1,351.3c0-2.5-1.6-4.7-4.2-4.7c-2.5,0-4.3,2.2-4.3,4.6c0,2.5,1.8,4.7,4.3,4.7
					C1358.5,355.9,1360.1,353.8,1360.1,351.3z"/>
				<path d="M1367,351.8c0.1,2.4,2,4.1,4.3,4.1c1.8,0,3.2-0.9,3.7-2.6l1.6,0.5c-0.7,2.3-2.9,3.6-5.3,3.6c-3.5,0-6.1-2.8-6.1-6.3
					c0-3.3,2.5-6.2,5.9-6.2c3.7,0,5.7,2.7,5.7,6.2c0,0.2,0,0.4,0,0.6H1367z M1375.1,350.3c-0.2-2.2-1.6-3.8-3.9-3.8
					c-2.1,0-3.8,1.7-4.1,3.8H1375.1z"/>
				<path d="M1380.1,351.3c0-3.6,2.7-6.3,6.3-6.3c3.5,0,6.2,2.7,6.2,6.2c0,3.6-2.7,6.3-6.3,6.3
					C1382.9,357.5,1380.1,354.7,1380.1,351.3z M1390.8,351.3c0-2.5-1.8-4.8-4.5-4.8c-2.6,0-4.4,2.1-4.4,4.7c0,2.5,1.8,4.7,4.5,4.7
					C1389,355.9,1390.8,353.8,1390.8,351.3z"/>
				<path d="M1403.3,357.5c-2.2,0-3.7-1.1-4.7-2.7v8.5h-1.8v-18.1h1.7v2.6c1-1.5,2.4-2.8,4.7-2.8c3.4,0,5.7,3.1,5.7,6.2
					C1409,354.5,1406.8,357.5,1403.3,357.5z M1407.2,351.3c0-2.5-1.6-4.7-4.2-4.7c-2.5,0-4.3,2.2-4.3,4.6c0,2.5,1.8,4.7,4.3,4.7
					C1405.6,355.9,1407.2,353.8,1407.2,351.3z"/>
				<path d="M1415,338.8v18.5h-1.8v-18.5H1415z"/>
				<path d="M1421.1,351.8c0.1,2.4,2,4.1,4.3,4.1c1.8,0,3.2-0.9,3.7-2.6l1.6,0.5c-0.7,2.3-2.9,3.6-5.3,3.6c-3.5,0-6.1-2.8-6.1-6.3
					c0-3.3,2.5-6.2,5.9-6.2c3.7,0,5.7,2.7,5.7,6.2c0,0.2,0,0.4,0,0.6H1421.1z M1429.1,350.3c-0.2-2.2-1.6-3.8-3.9-3.8
					c-2.1,0-3.8,1.7-4.1,3.8H1429.1z"/>
			</g>
		</g>
		<g class="st4">
			<circle cx="1251.4" cy="351.3" r="21.6"/>
		</g>
		<g>
			<circle class="st7" cx="1251.4" cy="161.4" r="21.6"/>
		</g>
	</g>
	<g>
		<g class="st8">
			
				<pattern  id="SVGID_1_" xlink:href="#Unnamed_Pattern_4" patternTransform="matrix(0 1.6182 -1.5535 0 -30147.4375 2961.3596)"  class="st8">
			</pattern>
			<rect x="834.9" y="737.3" class="st9" width="544" height="176"/>
		</g>
		<g>
			<polygon class="st7" points="303.3,737.3 232.6,737.3 142.6,737.3 142.6,913.2 232.6,913.2 303.3,913.2 834.9,913.2 834.9,737.3 
							"/>
		</g>
	</g>
	<g>
		<g class="st8">
			
				<pattern  id="SVGID_2_" xlink:href="#Unnamed_Pattern_4" patternTransform="matrix(0 1.6182 -1.5535 0 -30147.4375 2961.3596)"  class="st8">
			</pattern>
			<rect x="488.8" y="467.6" class="st10" width="890.2" height="176"/>
		</g>
		<g>
			<polygon class="st7" points="303.3,467.6 187.6,467.6 142.6,467.6 142.6,643.5 187.6,643.5 303.3,643.5 488.8,643.5 488.8,467.6 
							"/>
		</g>
	</g>
	<g>
		<g>
			<path class="st11" d="M500.2,447.2c0-2.4,1.1-4.9,4.7-7.1l3.1-1.9c1.9-1.2,3.5-2.4,3.5-4.8c0-2.1-1.8-4-4.5-4
				c-2.2,0-3.6,1.3-4.2,2.6c-0.4,0.9-0.4,1.7-0.4,2l-2.1-0.3c0-2.9,2.4-6.3,6.8-6.3c3.8,0,6.6,2.8,6.6,6c0,2.9-1.6,4.6-4.3,6.2
				l-3.2,2c-1.7,1.1-3.4,2.5-3.5,4.3h11.1v2h-13.7V447.2z"/>
		</g>
		<g>
			<path class="st11" d="M517,442.2c0-2.1,1.5-4,4.2-4.9c-2.5-0.7-3.8-2.9-3.8-4.6c0-3.5,3.7-5.4,6.6-5.4c3.1,0,6.7,1.8,6.7,5.4
				c0,1.9-1.4,3.9-3.8,4.6c2.8,0.8,4.2,2.8,4.2,4.9c0,3.7-3.6,5.7-7.1,5.7C520.6,448,517,446.1,517,442.2z M529.1,442.2
				c0-2.7-2.8-3.9-5-3.9c-2.1,0-5,1.2-5,3.9c0,2.7,2.8,3.9,5,3.9C526.2,446.1,529.1,444.9,529.1,442.2z M519.6,432.8
				c0,2.6,2.8,3.7,4.5,3.7c1.7,0,4.6-1.2,4.6-3.7c0-2.4-2.6-3.6-4.6-3.6C522.2,429.2,519.6,430.4,519.6,432.8z"/>
		</g>
		<g>
			<path class="st11" d="M536,438.5c-1.5,0-2.7-1.2-2.7-2.7c0-1.5,1.2-2.7,2.7-2.7c1.5,0,2.7,1.2,2.7,2.7
				C538.7,437.3,537.5,438.5,536,438.5z M536,434.1c-0.9,0-1.7,0.7-1.7,1.7c0,0.9,0.8,1.7,1.7,1.7s1.7-0.7,1.7-1.7
				C537.7,434.9,536.9,434.1,536,434.1z M542.5,433.3h1.2l-7.7,11.8h-1.2L542.5,433.3z M542.6,445.2c-1.5,0-2.7-1.2-2.7-2.7
				c0-1.5,1.2-2.7,2.7-2.7s2.7,1.2,2.7,2.7C545.2,444,544,445.2,542.6,445.2z M542.6,440.8c-0.9,0-1.7,0.7-1.7,1.7
				c0,0.9,0.7,1.7,1.7,1.7s1.7-0.7,1.7-1.7C544.2,441.6,543.5,440.8,542.6,440.8z"/>
		</g>
	</g>
	<g class="st4">
		<path d="M148,222.2l-4.3,2.5l-0.8-1.4l5.1-3.1h1.8V238H148V222.2z"/>
		<path d="M156.9,222l-1,6c1.1-1.1,3-1.4,3.8-1.4c3.3,0,5.8,2.2,5.8,5.7c0,3.8-3.2,5.8-6.2,5.8c-2.9,0-5.7-1.9-6.1-4.8l1.8-0.4
			c0.3,2,2,3.5,4.3,3.5c1.8,0,4.3-1.2,4.3-4.1s-2.2-4.1-4.3-4.1c-1.3,0-2.8,0.7-3.7,1.8l-1.7-0.7l1.5-9.1h9.3v1.7H156.9z"/>
		<path d="M180.4,237v13.9h-3.2v-30.4h3.2v13.4h17.3v-13.4h3.2v30.4h-3.2V237H180.4z"/>
		<path d="M221.1,237.5c0-3.3-1.8-5-5.3-5c-3.5,0-5.1,2.3-5.4,4.2l-2.9-0.6c0.2-1.7,2.5-6.3,8.4-6.3c4.4,0,6.6,2,7.6,4.3
			c0.5,1.1,0.6,2.8,0.6,3.4v13.4h-3v-3.7h0c-1.6,2.6-3.9,4-7,4c-4.2,0-7-2.6-7-6.1v-0.2c0-4.5,4.5-6,8.2-6h5.7V237.5z M215.3,241.4
			c-2.2,0-5.1,0.7-5.1,3.5c0,2.3,2,3.7,4.5,3.7c3.7,0,6.4-2.6,6.4-6.4v-0.7H215.3z"/>
		<path d="M227.6,230.2h3.3l7.1,17.4l7.2-17.4h3.2l-8.9,20.7h-3.2L227.6,230.2z"/>
		<path d="M253.6,241.5c0.2,4,3.4,7.1,7.4,7.1c3.1,0,5.4-1.5,6.4-4.4l2.7,0.9c-1.2,4-5,6.3-9.1,6.3c-6,0-10.5-4.8-10.5-10.8
			c0-5.6,4.3-10.7,10.1-10.7c6.4,0,9.8,4.6,9.8,10.6c0,0.3,0,0.7,0,1H253.6z M267.3,238.9c-0.4-3.8-2.8-6.4-6.7-6.4
			c-3.6,0-6.5,3-7,6.4H267.3z"/>
		<path d="M292.4,249.5l-9.4-19.3h3.5l7.6,16l7.2-16h3.3l-14.2,31H287L292.4,249.5z"/>
		<path d="M306.4,240.6c0-6.1,4.6-10.8,10.8-10.8c6,0,10.7,4.7,10.7,10.6c0,6.1-4.7,10.8-10.8,10.8
			C311,251.3,306.4,246.5,306.4,240.6z M324.7,240.6c0-4.3-3.1-8.2-7.7-8.2c-4.5,0-7.6,3.7-7.6,8c0,4.3,3.1,8.1,7.6,8.1
			C321.6,248.6,324.7,244.9,324.7,240.6z"/>
		<path d="M335.9,242.2c0,3.7,1.9,6.3,5.7,6.3c3.6,0,6.2-2.8,6.2-6.5v-11.8h3v20.7h-3v-3.8c-1.6,2.8-4.1,4.2-7.1,4.2
			c-5.1,0-7.8-3.5-7.8-8.3v-12.8h3V242.2z"/>
		<path d="M379.5,251.2c-3.8,0-6.3-1.9-8-4.6v14.5h-3v-31h3v4.5c1.7-2.6,4.1-4.9,8-4.9c5.9,0,9.7,5.3,9.7,10.7
			C389.3,246.1,385.4,251.2,379.5,251.2z M386.2,240.6c0-4.3-2.7-8.1-7.3-8.1c-4.3,0-7.4,3.8-7.4,8c0,4.3,3,8.1,7.4,8.1
			C383.5,248.5,386.2,245,386.2,240.6z"/>
		<path d="M397.4,242.2c0,3.7,1.9,6.3,5.7,6.3c3.6,0,6.2-2.8,6.2-6.5v-11.8h3v20.7h-3v-3.8c-1.6,2.8-4.1,4.2-7.1,4.2
			c-5.1,0-7.8-3.5-7.8-8.3v-12.8h3V242.2z"/>
		<path d="M420.6,245.5v-12.7h-3.8v-2.7h3.8v-6h3v6h5.2v2.7h-5.2v12.6c0,1.9,1.1,2.9,3.4,2.9c0.7,0,1.4,0,1.9-0.2v2.5
			c-0.6,0.2-1.8,0.3-2.4,0.3C421.9,251.1,420.6,248.6,420.6,245.5z"/>
		<path d="M455.8,251.2c-3.8,0-6.3-1.9-8-4.6v14.5h-3v-31h3v4.5c1.7-2.6,4.1-4.9,8-4.9c5.9,0,9.7,5.3,9.7,10.7
			C465.6,246.1,461.7,251.2,455.8,251.2z M462.4,240.6c0-4.3-2.7-8.1-7.3-8.1c-4.3,0-7.4,3.8-7.4,8c0,4.3,3,8.1,7.4,8.1
			C459.8,248.5,462.4,245,462.4,240.6z"/>
		<path d="M469.4,240.6c0-6.1,4.6-10.8,10.8-10.8c6,0,10.7,4.7,10.7,10.6c0,6.1-4.7,10.8-10.8,10.8
			C474.1,251.3,469.4,246.5,469.4,240.6z M487.7,240.6c0-4.3-3.1-8.2-7.7-8.2s-7.6,3.7-7.6,8c0,4.3,3.1,8.1,7.6,8.1
			C484.6,248.6,487.7,244.9,487.7,240.6z"/>
		<path d="M499.2,219.3v31.6h-3.1v-31.6H499.2z"/>
		<path d="M507.6,220.5c1.3,0,2.3,1,2.3,2.3c0,1.2-1,2.3-2.3,2.3c-1.2,0-2.3-1-2.3-2.3C505.3,221.5,506.3,220.5,507.6,220.5z
			 M509.1,230.2v20.7h-3.1v-20.7H509.1z"/>
		<path d="M525.1,248.6c4.6,0,6.3-3.4,6.9-5l2.8,0.9c-0.9,3.1-4.3,6.7-9.8,6.7c-6,0-10.6-4.4-10.6-10.6c0-6.3,4.9-10.8,10.7-10.8
			c4.8,0,8.7,3.1,9.5,6.6l-2.8,0.9c-0.5-1.6-2.5-4.8-6.8-4.8c-4.4,0-7.5,3.6-7.5,7.9S520.4,248.6,525.1,248.6z"/>
		<path d="M541.4,220.5c1.3,0,2.3,1,2.3,2.3c0,1.2-1,2.3-2.3,2.3c-1.2,0-2.3-1-2.3-2.3C539.1,221.5,540.1,220.5,541.4,220.5z
			 M542.9,230.2v20.7h-3.1v-20.7H542.9z"/>
		<path d="M551.3,241.5c0.2,4,3.4,7.1,7.4,7.1c3.1,0,5.4-1.5,6.4-4.4l2.7,0.9c-1.2,4-5,6.3-9.1,6.3c-6,0-10.5-4.8-10.5-10.8
			c0-5.6,4.3-10.7,10.1-10.7c6.4,0,9.8,4.6,9.8,10.6c0,0.3,0,0.7,0,1H551.3z M565.1,238.9c-0.4-3.8-2.8-6.4-6.7-6.4
			c-3.6,0-6.5,3-7,6.4H565.1z"/>
		<path d="M579.7,251.3c-5.6,0-7.5-3.8-7.9-6.1l2.8-0.7c0.4,1.9,1.8,4.1,5,4.1c2.3,0,4.3-1.2,4.3-3.4c0-2.5-2.7-3.1-4.9-3.4
			c-3.5-0.5-6.8-1.7-6.8-5.8c0-3.9,3.5-6.2,7-6.2c5.5,0,7.2,3.6,7.5,5.6l-2.8,0.7c-0.3-1.4-1.5-3.7-4.8-3.7c-2.3,0-3.9,1.5-3.9,3.3
			c0,2.6,2.8,3,4.9,3.3c3.4,0.4,6.8,2.2,6.8,6C587,248.8,583.7,251.3,579.7,251.3z"/>
		<path d="M604.7,220.5c1.3,0,2.3,1,2.3,2.3c0,1.2-1,2.3-2.3,2.3c-1.2,0-2.3-1-2.3-2.3C602.5,221.5,603.5,220.5,604.7,220.5z
			 M606.3,230.2v20.7h-3.1v-20.7H606.3z"/>
		<path d="M628.1,238.8c0-3.7-1.9-6.3-5.7-6.3c-3.6,0-6.2,2.9-6.2,6.6v11.8h-3v-20.7h3v3.8c1.6-2.8,4.1-4.2,7.1-4.2
			c5.1,0,7.8,3.5,7.8,8.3v12.8h-3V238.8z"/>
		<path d="M659.5,251.2c-3.8,0-6.3-1.9-8-4.6v14.5h-3v-31h3v4.5c1.7-2.6,4.1-4.9,8-4.9c5.9,0,9.7,5.3,9.7,10.7
			C669.3,246.1,665.4,251.2,659.5,251.2z M666.2,240.6c0-4.3-2.7-8.1-7.3-8.1c-4.3,0-7.4,3.8-7.4,8c0,4.3,3,8.1,7.4,8.1
			C663.5,248.5,666.2,245,666.2,240.6z"/>
		<path d="M677.7,219.3v31.6h-3.1v-31.6H677.7z"/>
		<path d="M697.1,237.5c0-3.3-1.8-5-5.3-5c-3.5,0-5.1,2.3-5.4,4.2l-2.9-0.6c0.2-1.7,2.5-6.3,8.4-6.3c4.4,0,6.6,2,7.6,4.3
			c0.5,1.1,0.6,2.8,0.6,3.4v13.4h-3v-3.7h0c-1.6,2.6-3.9,4-7,4c-4.2,0-7-2.6-7-6.1v-0.2c0-4.5,4.5-6,8.2-6h5.7V237.5z M691.3,241.4
			c-2.2,0-5.1,0.7-5.1,3.5c0,2.3,2,3.7,4.5,3.7c3.7,0,6.4-2.6,6.4-6.4v-0.7H691.3z"/>
		<path d="M715.7,248.6c4.6,0,6.3-3.4,6.9-5l2.8,0.9c-0.9,3.1-4.3,6.7-9.8,6.7c-6,0-10.6-4.4-10.6-10.6c0-6.3,4.9-10.8,10.7-10.8
			c4.8,0,8.7,3.1,9.5,6.6l-2.8,0.9c-0.5-1.6-2.5-4.8-6.8-4.8c-4.4,0-7.5,3.6-7.5,7.9S711,248.6,715.7,248.6z"/>
		<path d="M732.1,241.5c0.2,4,3.4,7.1,7.4,7.1c3.1,0,5.4-1.5,6.4-4.4l2.7,0.9c-1.2,4-5,6.3-9.1,6.3c-6,0-10.5-4.8-10.5-10.8
			c0-5.6,4.3-10.7,10.1-10.7c6.4,0,9.8,4.6,9.8,10.6c0,0.3,0,0.7,0,1H732.1z M745.8,238.9c-0.4-3.8-2.8-6.4-6.7-6.4
			c-3.6,0-6.5,3-7,6.4H745.8z"/>
		<path d="M179.8,292.1v-12.7h-3.8v-2.7h3.8v-6h3v6h5.2v2.7h-5.2v12.6c0,1.9,1.1,2.9,3.4,2.9c0.7,0,1.4,0,1.9-0.2v2.5
			c-0.6,0.2-1.8,0.3-2.4,0.3C181.1,297.7,179.8,295.2,179.8,292.1z"/>
		<path d="M191.2,287.2c0-6.1,4.6-10.8,10.8-10.8c6,0,10.7,4.7,10.7,10.6c0,6.1-4.7,10.8-10.8,10.8
			C195.9,297.9,191.2,293.1,191.2,287.2z M209.5,287.2c0-4.3-3.1-8.2-7.7-8.2s-7.6,3.7-7.6,8c0,4.3,3.1,8.1,7.6,8.1
			C206.4,295.2,209.5,291.5,209.5,287.2z"/>
		<path d="M239.8,297.8c-3.8,0-6.3-1.9-8-4.6v14.5h-3v-31h3v4.5c1.7-2.6,4.1-4.9,8-4.9c5.9,0,9.7,5.3,9.7,10.7
			C249.6,292.7,245.7,297.8,239.8,297.8z M246.5,287.2c0-4.3-2.7-8.1-7.3-8.1c-4.3,0-7.4,3.8-7.4,8c0,4.3,3,8.1,7.4,8.1
			C243.8,295.1,246.5,291.6,246.5,287.2z"/>
		<path d="M257.9,280.9c1.6-3.2,4.3-4.4,6.7-4.4c0.2,0,0.8,0,1,0v3.2c-0.4,0-0.8-0.1-1.2-0.1c-4.9,0-6.5,4-6.5,7.7v10.1h-3v-20.7h3
			V280.9z"/>
		<path d="M267.4,287.2c0-6.1,4.6-10.8,10.8-10.8c6,0,10.7,4.7,10.7,10.6c0,6.1-4.7,10.8-10.8,10.8
			C272.1,297.9,267.4,293.1,267.4,287.2z M285.8,287.2c0-4.3-3.1-8.2-7.7-8.2s-7.6,3.7-7.6,8c0,4.3,3.1,8.1,7.6,8.1
			C282.6,295.2,285.8,291.5,285.8,287.2z"/>
		<path d="M295.3,292.1v-12.7h-3.8v-2.7h3.8v-6h3v6h5.2v2.7h-5.2v12.6c0,1.9,1.1,2.9,3.4,2.9c0.7,0,1.4,0,1.9-0.2v2.5
			c-0.6,0.2-1.8,0.3-2.4,0.3C296.6,297.7,295.3,295.2,295.3,292.1z"/>
		<path d="M309.8,288.1c0.2,4,3.4,7.1,7.4,7.1c3.1,0,5.4-1.5,6.4-4.4l2.7,0.9c-1.2,4-5,6.3-9.1,6.3c-6,0-10.5-4.8-10.5-10.8
			c0-5.6,4.3-10.7,10.1-10.7c6.4,0,9.8,4.6,9.8,10.6c0,0.3,0,0.7,0,1H309.8z M323.5,285.5c-0.4-3.8-2.8-6.4-6.7-6.4
			c-3.6,0-6.5,3-7,6.4H323.5z"/>
		<path d="M340.9,295.2c4.6,0,6.3-3.4,6.9-5l2.8,0.9c-0.9,3.1-4.3,6.7-9.8,6.7c-6,0-10.6-4.4-10.6-10.6c0-6.3,4.9-10.8,10.7-10.8
			c4.8,0,8.7,3.1,9.5,6.6l-2.8,0.9c-0.5-1.6-2.5-4.8-6.8-4.8c-4.4,0-7.5,3.6-7.5,7.9S336.2,295.2,340.9,295.2z"/>
		<path d="M356.8,292.1v-12.7H353v-2.7h3.8v-6h3v6h5.2v2.7h-5.2v12.6c0,1.9,1.1,2.9,3.4,2.9c0.7,0,1.4,0,1.9-0.2v2.5
			c-0.6,0.2-1.8,0.3-2.4,0.3C358.2,297.7,356.8,295.2,356.8,292.1z"/>
		<path d="M393.5,284.1c0-3.3-1.8-5-5.3-5c-3.5,0-5.1,2.3-5.4,4.2l-2.9-0.6c0.2-1.7,2.5-6.3,8.4-6.3c4.4,0,6.6,2,7.6,4.3
			c0.5,1.1,0.6,2.8,0.6,3.4v13.4h-3v-3.7h0c-1.6,2.6-3.9,4-7,4c-4.2,0-7-2.6-7-6.1v-0.2c0-4.5,4.5-6,8.2-6h5.7V284.1z M387.7,288
			c-2.2,0-5.1,0.7-5.1,3.5c0,2.3,2,3.7,4.5,3.7c3.7,0,6.4-2.6,6.4-6.4V288H387.7z"/>
		<path d="M419.4,292.9c-1.6,2.6-4.1,4.7-8,4.7c-5.9,0-9.7-4.9-9.7-10.6c0-5.4,3.8-10.6,9.7-10.6c4,0,6.4,2.3,8.1,4.7v-4.3h3v20.8
			c0,6.7-4.1,10.3-10.4,10.3c-5.4,0-9.2-2.7-10.3-7.1l2.8-0.9c0.6,2.4,2.6,5.4,7.5,5.4c4,0,7.4-2.1,7.4-7.5V292.9z M419.4,287
			c0-4.1-3.1-7.9-7.5-7.9c-4.5,0-7.2,3.5-7.2,8c0,4.3,2.7,7.8,7.2,7.8C416.3,294.9,419.4,291.2,419.4,287z"/>
		<path d="M441.7,284.1c0-3.3-1.8-5-5.3-5c-3.5,0-5.1,2.3-5.4,4.2l-2.9-0.6c0.2-1.7,2.5-6.3,8.4-6.3c4.4,0,6.6,2,7.6,4.3
			c0.5,1.1,0.6,2.8,0.6,3.4v13.4h-3v-3.7h0c-1.6,2.6-3.9,4-7,4c-4.2,0-7-2.6-7-6.1v-0.2c0-4.5,4.5-6,8.2-6h5.7V284.1z M435.9,288
			c-2.2,0-5.1,0.7-5.1,3.5c0,2.3,2,3.7,4.5,3.7c3.7,0,6.4-2.6,6.4-6.4V288H435.9z"/>
		<path d="M452.8,267.1c1.3,0,2.3,1,2.3,2.3c0,1.2-1,2.3-2.3,2.3c-1.2,0-2.3-1-2.3-2.3C450.5,268.1,451.6,267.1,452.8,267.1z
			 M454.3,276.8v20.7h-3.1v-20.7H454.3z"/>
		<path d="M476.1,285.4c0-3.7-1.9-6.3-5.7-6.3c-3.6,0-6.2,2.9-6.2,6.6v11.8h-3v-20.7h3v3.8c1.6-2.8,4.1-4.2,7.1-4.2
			c5.1,0,7.8,3.5,7.8,8.3v12.8h-3V285.4z"/>
		<path d="M492.1,297.9c-5.6,0-7.5-3.8-7.9-6.1l2.8-0.7c0.4,1.9,1.8,4.1,5,4.1c2.3,0,4.3-1.2,4.3-3.4c0-2.5-2.7-3.1-4.9-3.4
			c-3.5-0.5-6.8-1.7-6.8-5.8c0-3.9,3.5-6.2,7-6.2c5.5,0,7.2,3.6,7.5,5.6l-2.8,0.7c-0.3-1.4-1.5-3.7-4.8-3.7c-2.3,0-3.9,1.5-3.9,3.3
			c0,2.6,2.8,3,4.9,3.3c3.4,0.4,6.8,2.2,6.8,6C499.4,295.4,496.1,297.9,492.1,297.9z"/>
		<path d="M505.9,292.1v-12.7h-3.8v-2.7h3.8v-6h3v6h5.2v2.7h-5.2v12.6c0,1.9,1.1,2.9,3.4,2.9c0.7,0,1.4,0,1.9-0.2v2.5
			c-0.6,0.2-1.8,0.3-2.4,0.3C507.3,297.7,505.9,295.2,505.9,292.1z"/>
		<path d="M534.1,267.1v30.4h-3.2v-30.4H534.1z"/>
		<path d="M540.3,287.2c0-6.1,4.6-10.8,10.8-10.8c6,0,10.7,4.7,10.7,10.6c0,6.1-4.7,10.8-10.8,10.8
			C544.9,297.9,540.3,293.1,540.3,287.2z M558.6,287.2c0-4.3-3.1-8.2-7.7-8.2s-7.6,3.7-7.6,8c0,4.3,3.1,8.1,7.6,8.1
			C555.4,295.2,558.6,291.5,558.6,287.2z"/>
		<path d="M570.6,297.5v-27.4h-10.2v-3h23.5v3h-10.1v27.4H570.6z"/>
		<path d="M599,292.1v-12.7h-3.8v-2.7h3.8v-6h3v6h5.2v2.7H602v12.6c0,1.9,1.1,2.9,3.4,2.9c0.7,0,1.4,0,1.9-0.2v2.5
			c-0.6,0.2-1.8,0.3-2.4,0.3C600.4,297.7,599,295.2,599,292.1z"/>
		<path d="M627.3,285.4c0-3.7-1.9-6.3-5.7-6.3c-3.6,0-6.2,2.9-6.2,6.6v11.8h-3v-31.6h3v14.6c1.6-2.7,4-4.1,7.1-4.1
			c5.1,0,7.8,3.5,7.8,8.3v12.8h-3V285.4z"/>
		<path d="M639.9,280.9c1.6-3.2,4.3-4.4,6.7-4.4c0.2,0,0.8,0,1,0v3.2c-0.4,0-0.8-0.1-1.2-0.1c-4.9,0-6.5,4-6.5,7.7v10.1h-3v-20.7h3
			V280.9z"/>
		<path d="M652.5,288.1c0.2,4,3.4,7.1,7.4,7.1c3.1,0,5.4-1.5,6.4-4.4l2.7,0.9c-1.2,4-5,6.3-9.1,6.3c-6,0-10.5-4.8-10.5-10.8
			c0-5.6,4.3-10.7,10.1-10.7c6.4,0,9.8,4.6,9.8,10.6c0,0.3,0,0.7,0,1H652.5z M666.2,285.5c-0.4-3.8-2.8-6.4-6.7-6.4
			c-3.6,0-6.5,3-7,6.4H666.2z"/>
		<path d="M687,284.1c0-3.3-1.8-5-5.3-5c-3.5,0-5.1,2.3-5.4,4.2l-2.9-0.6c0.2-1.7,2.5-6.3,8.4-6.3c4.4,0,6.6,2,7.6,4.3
			c0.5,1.1,0.6,2.8,0.6,3.4v13.4h-3v-3.7h0c-1.6,2.6-3.9,4-7,4c-4.2,0-7-2.6-7-6.1v-0.2c0-4.5,4.5-6,8.2-6h5.7V284.1z M681.2,288
			c-2.2,0-5.1,0.7-5.1,3.5c0,2.3,2,3.7,4.5,3.7c3.7,0,6.4-2.6,6.4-6.4V288H681.2z"/>
		<path d="M697.8,292.1v-12.7h-3.8v-2.7h3.8v-6h3v6h5.2v2.7h-5.2v12.6c0,1.9,1.1,2.9,3.4,2.9c0.7,0,1.4,0,1.9-0.2v2.5
			c-0.6,0.2-1.8,0.3-2.4,0.3C699.1,297.7,697.8,295.2,697.8,292.1z"/>
		<path d="M717.5,297.9c-5.6,0-7.5-3.8-7.9-6.1l2.8-0.7c0.4,1.9,1.8,4.1,5,4.1c2.3,0,4.3-1.2,4.3-3.4c0-2.5-2.7-3.1-4.9-3.4
			c-3.5-0.5-6.8-1.7-6.8-5.8c0-3.9,3.5-6.2,7-6.2c5.5,0,7.2,3.6,7.5,5.6l-2.8,0.7c-0.3-1.4-1.5-3.7-4.8-3.7c-2.3,0-3.9,1.5-3.9,3.3
			c0,2.6,2.8,3,4.9,3.3c3.4,0.4,6.8,2.2,6.8,6C724.8,295.4,721.5,297.9,717.5,297.9z"/>
		<path d="M735.3,288.7c0-0.2,0-0.5,0-0.7c0-3.6,2.2-5.4,3.9-7.1c1.7-1.9,3.8-3.5,3.8-6.2c0-2.5-1.7-5-5.7-5c-3.9,0-6.1,2.9-5.8,6.6
			l-3.1-0.2c0-0.3,0-0.6,0-0.9c0-5,4.2-8.5,9-8.5c5.4,0,8.9,3.8,8.9,8c0,3-1.8,5-4.5,7.7c-2,2-3.4,3.2-3.5,6.3H735.3z M736.7,297.9
			c1.3,0,2.3-1,2.3-2.3c0-1.2-1-2.3-2.3-2.3c-1.2,0-2.3,1-2.3,2.3C734.4,296.8,735.4,297.9,736.7,297.9z"/>
	</g>
	<g>
		<g>
			<path d="M83.2,469.3l-6.9,10.2v7.5h-1.9v-7.5l-6.9-10.3h2.2l5.6,8.5l5.7-8.5H83.2z"/>
			<path d="M85.1,481.5c0.1,2.4,2,4.1,4.3,4.1c1.8,0,3.2-0.9,3.7-2.6l1.6,0.5c-0.7,2.3-2.9,3.6-5.3,3.6c-3.5,0-6.1-2.8-6.1-6.3
				c0-3.3,2.5-6.2,5.9-6.2c3.7,0,5.7,2.7,5.7,6.2c0,0.2,0,0.4,0,0.6H85.1z M93.1,480c-0.2-2.2-1.6-3.8-3.9-3.8
				c-2.1,0-3.8,1.7-4.1,3.8H93.1z"/>
			<path d="M102.8,487.2c-3.3,0-4.4-2.2-4.6-3.6l1.6-0.4c0.2,1.1,1.1,2.4,2.9,2.4c1.3,0,2.5-0.7,2.5-2c0-1.5-1.6-1.8-2.8-2
				c-2-0.3-4-1-4-3.4c0-2.3,2.1-3.6,4.1-3.6c3.2,0,4.2,2.1,4.4,3.3l-1.6,0.4c-0.2-0.8-0.9-2.1-2.8-2.1c-1.3,0-2.3,0.9-2.3,1.9
				c0,1.5,1.6,1.7,2.9,1.9c2,0.2,4,1.3,4,3.5C107,485.8,105.1,487.2,102.8,487.2z"/>
		</g>
	</g>
	<g>
		<g>
			<path class="st5" d="M574,539.1c-3.5,0-6.6-2.1-7-5.5l2-0.4c0.4,2.3,2.1,4,4.9,4c2.7,0,4.9-1.5,4.9-3.8s-1.7-3.8-4.9-3.8h-2v-2h2
				c2.8,0,4.5-1.7,4.5-3.7c0-2.1-1.6-3.6-4.5-3.6c-2.8,0-4.4,1.7-4.7,3.8l-2-0.4c0.4-2.8,3-5.3,6.8-5.3c4.4,0,6.6,2.7,6.6,5.4
				c0,2.3-1.3,3.8-3.2,4.7v0c2.3,0.6,3.7,2.5,3.7,4.8C581,536.5,578.2,539.1,574,539.1z"/>
			<path class="st5" d="M583.9,538.3c0-2.4,1.1-4.9,4.7-7.1l3.1-1.9c1.9-1.2,3.5-2.4,3.5-4.8c0-2.1-1.8-4-4.5-4
				c-2.2,0-3.6,1.3-4.2,2.6c-0.4,0.9-0.4,1.7-0.4,2l-2.1-0.3c0-2.9,2.4-6.3,6.8-6.3c3.8,0,6.6,2.8,6.6,6c0,2.9-1.6,4.6-4.3,6.2
				l-3.2,2c-1.7,1.1-3.4,2.5-3.5,4.3h11.1v2h-13.7V538.3z"/>
			<path class="st5" d="M602.4,529.6c-1.5,0-2.7-1.2-2.7-2.7c0-1.5,1.2-2.7,2.7-2.7c1.5,0,2.7,1.2,2.7,2.7
				C605,528.4,603.8,529.6,602.4,529.6z M602.4,525.3c-0.9,0-1.7,0.7-1.7,1.7c0,0.9,0.8,1.7,1.7,1.7s1.7-0.7,1.7-1.7
				C604,526,603.3,525.3,602.4,525.3z M608.9,524.4h1.2l-7.7,11.8h-1.2L608.9,524.4z M608.9,536.3c-1.5,0-2.7-1.2-2.7-2.7
				c0-1.5,1.2-2.7,2.7-2.7s2.7,1.2,2.7,2.7C611.6,535.1,610.4,536.3,608.9,536.3z M608.9,532c-0.9,0-1.7,0.7-1.7,1.7
				c0,0.9,0.7,1.7,1.7,1.7s1.7-0.7,1.7-1.7C610.6,532.7,609.8,532,608.9,532z"/>
		</g>
		<g>
			<circle class="st5" cx="537.1" cy="557.3" r="22"/>
		</g>
	</g>
	<g>
		<g>
			<path d="M349.5,475.3l-4.9,2.9l-1-1.6l5.9-3.5h2.1v20.3h-2.1V475.3z"/>
			<path d="M365.7,493.3v-4.9h-10.5v-2.3l9.9-13.1h2.7v13.6h3.4v1.8h-3.4v4.9H365.7z M365.7,486.6v-11.4l-8.6,11.4H365.7z"/>
			<path d="M375.3,484c-1.5,0-2.7-1.2-2.7-2.7c0-1.5,1.2-2.7,2.7-2.7c1.5,0,2.7,1.2,2.7,2.7C377.9,482.8,376.8,484,375.3,484z
				 M375.3,479.7c-0.9,0-1.7,0.7-1.7,1.7c0,0.9,0.8,1.7,1.7,1.7s1.7-0.7,1.7-1.7C376.9,480.4,376.2,479.7,375.3,479.7z M381.8,478.8
				h1.2l-7.7,11.8h-1.2L381.8,478.8z M381.8,490.7c-1.5,0-2.7-1.2-2.7-2.7c0-1.5,1.2-2.7,2.7-2.7s2.7,1.2,2.7,2.7
				C384.5,489.5,383.3,490.7,381.8,490.7z M381.8,486.4c-0.9,0-1.7,0.7-1.7,1.7c0,0.9,0.7,1.7,1.7,1.7s1.7-0.7,1.7-1.7
				C383.5,487.1,382.7,486.4,381.8,486.4z"/>
		</g>
	</g>
	<g>
		<circle class="st6" cx="316.1" cy="515.1" r="22"/>
	</g>
	<g>
		<g class="st4">
			<path d="M700.8,586.9v-4.9h-10.5v-2.3l9.9-13.1h2.7v13.6h3.4v1.8h-3.4v4.9H700.8z M700.8,580.2v-11.4l-8.6,11.4H700.8z"/>
			<path d="M708.5,586.3c0-2.4,1.1-4.9,4.7-7.1l3.1-1.9c1.9-1.2,3.5-2.4,3.5-4.8c0-2.1-1.8-4-4.5-4c-2.2,0-3.6,1.3-4.2,2.6
				c-0.4,0.9-0.4,1.7-0.4,2l-2.1-0.3c0-2.9,2.4-6.3,6.8-6.3c3.8,0,6.6,2.8,6.6,6c0,2.9-1.6,4.6-4.3,6.2l-3.2,2
				c-1.7,1.1-3.4,2.5-3.5,4.3h11.1v2h-13.7V586.3z"/>
			<path d="M727,577.6c-1.5,0-2.7-1.2-2.7-2.7c0-1.5,1.2-2.7,2.7-2.7c1.5,0,2.7,1.2,2.7,2.7C729.6,576.4,728.4,577.6,727,577.6z
				 M727,573.3c-0.9,0-1.7,0.7-1.7,1.7c0,0.9,0.8,1.7,1.7,1.7s1.7-0.7,1.7-1.7C728.6,574,727.9,573.3,727,573.3z M733.5,572.4h1.2
				l-7.7,11.8h-1.2L733.5,572.4z M733.5,584.3c-1.5,0-2.7-1.2-2.7-2.7c0-1.5,1.2-2.7,2.7-2.7s2.7,1.2,2.7,2.7
				C736.2,583.1,735,584.3,733.5,584.3z M733.5,580c-0.9,0-1.7,0.7-1.7,1.7c0,0.9,0.7,1.7,1.7,1.7s1.7-0.7,1.7-1.7
				C735.2,580.7,734.4,580,733.5,580z"/>
		</g>
		<g class="st4">
			<circle cx="661.7" cy="605.3" r="22"/>
		</g>
	</g>
	<g>
		<g>
			<path class="st11" d="M847.1,699.2l-1.2,6.9c1.3-1.3,3.4-1.6,4.4-1.6c3.8,0,6.7,2.5,6.7,6.6c0,4.4-3.6,6.6-7.1,6.6
				c-3.4,0-6.5-2.1-6.9-5.5l2.1-0.4c0.3,2.3,2.3,4,4.9,4c2,0,4.9-1.3,4.9-4.6s-2.5-4.7-4.9-4.7c-1.5,0-3.2,0.8-4.3,2l-2-0.8
				l1.7-10.5h10.6v2H847.1z"/>
		</g>
		<g>
			<path class="st11" d="M862,707.2c1.3-2.2,3.9-2.9,5.6-2.9c4.3,0,6.8,3,6.8,6.5c0,4.6-3.7,6.9-7.2,6.9c-2.2,0-4.9-1.3-6.1-3.4
				c-1-1.8-1.3-3.1-1.3-5.6c0-6.4,3.4-11.7,9.9-11.7c1.1,0,2.8,0.1,4.2,1l-0.8,1.9c-1.1-0.7-2.5-0.9-3.4-0.9
				C865.1,699,862.5,702.7,862,707.2z M863.9,707.4c-1,0.8-1.6,2.1-1.6,3.5c0,3,2.5,4.8,5,4.8c2.5,0,5-1.7,5-4.8
				c0-2.5-1.9-4.7-5-4.7C866.1,706.2,864.8,706.6,863.9,707.4z"/>
		</g>
		<g>
			<path class="st11" d="M879.1,708.2c-1.5,0-2.7-1.2-2.7-2.7c0-1.5,1.2-2.7,2.7-2.7c1.5,0,2.7,1.2,2.7,2.7
				C881.7,707,880.5,708.2,879.1,708.2z M879.1,703.8c-0.9,0-1.7,0.7-1.7,1.7c0,0.9,0.8,1.7,1.7,1.7c0.9,0,1.7-0.7,1.7-1.7
				C880.7,704.6,880,703.8,879.1,703.8z M885.6,703h1.2l-7.7,11.8h-1.2L885.6,703z M885.6,714.9c-1.5,0-2.7-1.2-2.7-2.7
				c0-1.5,1.2-2.7,2.7-2.7s2.7,1.2,2.7,2.7C888.3,713.7,887.1,714.9,885.6,714.9z M885.6,710.5c-0.9,0-1.7,0.7-1.7,1.7
				c0,0.9,0.7,1.7,1.7,1.7s1.7-0.7,1.7-1.7C887.3,711.3,886.5,710.5,885.6,710.5z"/>
		</g>
	</g>
	<g>
		<g>
			<path d="M89.9,739v17.7h-2l-10.6-15.1v15.1h-1.8V739h2.2L88,753.8V739H89.9z"/>
			<path d="M94.6,750.7c0-3.6,2.7-6.3,6.3-6.3c3.5,0,6.2,2.7,6.2,6.2c0,3.6-2.7,6.3-6.3,6.3C97.3,756.9,94.6,754.1,94.6,750.7z
				 M105.3,750.7c0-2.5-1.8-4.8-4.5-4.8c-2.6,0-4.4,2.1-4.4,4.7c0,2.5,1.8,4.7,4.5,4.7C103.4,755.3,105.3,753.2,105.3,750.7z"/>
		</g>
	</g>
	<g>
		<g>
			<path class="st5" d="M829.5,790.4l-1.2,6.9c1.3-1.3,3.4-1.6,4.4-1.6c3.8,0,6.7,2.5,6.7,6.6c0,4.4-3.6,6.6-7.1,6.6
				c-3.4,0-6.5-2.1-6.9-5.5l2.1-0.4c0.3,2.3,2.3,4,4.9,4c2,0,4.9-1.3,4.9-4.6s-2.5-4.7-4.9-4.7c-1.5,0-3.2,0.8-4.3,2l-2-0.8
				l1.7-10.5h10.6v2H829.5z"/>
			<path class="st5" d="M848.9,808.8c-3.5,0-6.6-2.1-7-5.5l2-0.4c0.4,2.3,2.1,4,4.9,4c2.7,0,4.9-1.5,4.9-3.8s-1.7-3.8-4.9-3.8h-2v-2
				h2c2.8,0,4.5-1.7,4.5-3.7c0-2.1-1.6-3.6-4.5-3.6c-2.8,0-4.4,1.7-4.7,3.8l-2-0.4c0.4-2.8,3-5.3,6.8-5.3c4.4,0,6.6,2.7,6.6,5.4
				c0,2.3-1.3,3.8-3.2,4.7v0c2.3,0.6,3.7,2.5,3.7,4.8C856,806.2,853.2,808.8,848.9,808.8z"/>
			<path class="st5" d="M860.7,799.3c-1.5,0-2.7-1.2-2.7-2.7c0-1.5,1.2-2.7,2.7-2.7c1.5,0,2.7,1.2,2.7,2.7
				C863.4,798.1,862.2,799.3,860.7,799.3z M860.7,795c-0.9,0-1.7,0.7-1.7,1.7c0,0.9,0.8,1.7,1.7,1.7c0.9,0,1.7-0.7,1.7-1.7
				C862.4,795.7,861.7,795,860.7,795z M867.3,794.1h1.2l-7.7,11.8h-1.2L867.3,794.1z M867.3,806c-1.5,0-2.7-1.2-2.7-2.7
				c0-1.5,1.2-2.7,2.7-2.7s2.7,1.2,2.7,2.7C870,804.8,868.8,806,867.3,806z M867.3,801.7c-0.9,0-1.7,0.7-1.7,1.7
				c0,0.9,0.7,1.7,1.7,1.7s1.7-0.7,1.7-1.7C869,802.4,868.2,801.7,867.3,801.7z"/>
		</g>
		<g>
			<circle class="st5" cx="797.1" cy="827" r="22"/>
		</g>
	</g>
	<g>
		<g>
			<path d="M1142.6,744.7v-2h13.8v2l-9.3,18.3h-2.4l9.4-18.3H1142.6z"/>
			<path d="M1171.1,753c-1.4,2.2-4,3.1-5.7,3.1c-4.3,0-6.7-3.2-6.7-6.5c0-4.6,3.6-7,7.2-7c2.2,0,4.8,1.3,6,3.4
				c1,1.8,1.4,3.4,1.4,5.7c0,6.6-3.2,11.5-9.5,11.5c-1.1,0-3.3-0.3-4.7-1.2l0.8-1.9c1.3,0.8,3,1.1,3.8,1.1
				C1168.1,761.2,1170.7,757.7,1171.1,753z M1169.1,752.9c1-0.8,1.6-2.2,1.6-3.6c0-3-2.5-4.8-5-4.8c-2.6,0-5,1.7-5,4.9
				c0,2.5,1.8,4.8,4.9,4.8C1166.9,754.2,1168.1,753.7,1169.1,752.9z"/>
			<path d="M1177.9,753.7c-1.5,0-2.7-1.2-2.7-2.7c0-1.5,1.2-2.7,2.7-2.7c1.5,0,2.7,1.2,2.7,2.7
				C1180.6,752.5,1179.4,753.7,1177.9,753.7z M1177.9,749.4c-0.9,0-1.7,0.7-1.7,1.7c0,0.9,0.8,1.7,1.7,1.7c0.9,0,1.7-0.7,1.7-1.7
				C1179.6,750.1,1178.8,749.4,1177.9,749.4z M1184.4,748.5h1.2l-7.7,11.8h-1.2L1184.4,748.5z M1184.5,760.4c-1.5,0-2.7-1.2-2.7-2.7
				c0-1.5,1.2-2.7,2.7-2.7s2.7,1.2,2.7,2.7C1187.1,759.2,1185.9,760.4,1184.5,760.4z M1184.5,756.1c-0.9,0-1.7,0.7-1.7,1.7
				c0,0.9,0.7,1.7,1.7,1.7s1.7-0.7,1.7-1.7C1186.1,756.8,1185.4,756.1,1184.5,756.1z"/>
		</g>
	</g>
	<g>
		<circle class="st6" cx="1118.8" cy="784.8" r="22"/>
	</g>
	<g>
		<g class="st4">
			<path d="M548,856.8c-3.5,0-6.6-2.1-7-5.5l2-0.4c0.4,2.3,2.1,4,4.9,4c2.7,0,4.9-1.5,4.9-3.8s-1.7-3.8-4.9-3.8h-2v-2h2
				c2.8,0,4.5-1.7,4.5-3.7c0-2.1-1.6-3.6-4.5-3.6c-2.8,0-4.4,1.7-4.7,3.8l-2-0.4c0.4-2.8,3-5.3,6.8-5.3c4.4,0,6.6,2.7,6.6,5.4
				c0,2.3-1.3,3.8-3.2,4.7v0c2.3,0.6,3.7,2.5,3.7,4.8C555,854.2,552.3,856.8,548,856.8z"/>
			<path d="M558.1,846.6c0-5,2.9-10.4,8.5-10.4c5.6,0,8.4,5.3,8.4,10.3s-2.8,10.4-8.5,10.4C560.9,856.9,558.1,851.6,558.1,846.6z
				 M560.3,846.5c0,3.7,1.8,8.4,6.2,8.4c4.4,0,6.2-4.7,6.2-8.3c0-3.6-1.9-8.4-6.3-8.4S560.3,842.8,560.3,846.5z"/>
			<path d="M579.7,847.3c-1.5,0-2.7-1.2-2.7-2.7c0-1.5,1.2-2.7,2.7-2.7c1.5,0,2.7,1.2,2.7,2.7C582.4,846.1,581.2,847.3,579.7,847.3z
				 M579.7,843c-0.9,0-1.7,0.7-1.7,1.7c0,0.9,0.8,1.7,1.7,1.7s1.7-0.7,1.7-1.7C581.4,843.7,580.6,843,579.7,843z M586.2,842.1h1.2
				l-7.7,11.8h-1.2L586.2,842.1z M586.3,854c-1.5,0-2.7-1.2-2.7-2.7c0-1.5,1.2-2.7,2.7-2.7s2.7,1.2,2.7,2.7
				C588.9,852.8,587.7,854,586.3,854z M586.3,849.7c-0.9,0-1.7,0.7-1.7,1.7c0,0.9,0.7,1.7,1.7,1.7s1.7-0.7,1.7-1.7
				C587.9,850.4,587.2,849.7,586.3,849.7z"/>
		</g>
		<g class="st4">
			<circle cx="512.9" cy="875" r="22"/>
		</g>
	</g>
</g>
</svg>
