<?xml version="1.0" encoding="utf-8"?>
<!-- Generator: Adobe Illustrator 21.1.0, SVG Export Plug-In . SVG Version: 6.00 Build 0)  -->
<svg version="1.1" id="Layer_1" xmlns="http://www.w3.org/2000/svg" xmlns:xlink="http://www.w3.org/1999/xlink" x="0px" y="0px"
	 viewBox="0 0 1500 1053" style="enable-background:new 0 0 1500 1053;" xml:space="preserve">
<style type="text/css">
	.st0{fill:#8EFFDE;}
	.st1{opacity:0.9;}
	.st2{fill:#FFFFFF;}
	.st3{fill:none;stroke:#000000;stroke-miterlimit:10;}
	.st4{fill:#F6F6F8;}
</style>
<g>
	<circle class="st0" cx="888.9" cy="568.8" r="231.1"/>
</g>
<g class="st1">
	<circle cx="513.4" cy="672.5" r="231.1"/>
</g>
<g>
	<circle class="st2" cx="619.8" cy="387.6" r="138.6"/>
</g>
<g>
	<path d="M855.2,585.7c-7.2,0-13.3-4.4-14.2-11.2l4.1-0.9c0.7,4.7,4.4,8.2,10,8.2c5.5,0,9.9-3,9.9-7.7c0-4.7-3.5-7.6-9.9-7.6h-4.1
		v-4h4c5.6,0,9.1-3.5,9.1-7.4c0-4.2-3.2-7.3-9.1-7.3c-5.6,0-8.9,3.4-9.6,7.7l-4.1-0.9c0.7-5.7,6.1-10.8,13.8-10.8
		c8.9,0,13.3,5.5,13.3,10.9c0,4.7-2.6,7.7-6.6,9.5v0.1c4.7,1.3,7.5,5,7.5,9.8C869.4,580.3,863.8,585.7,855.2,585.7z"/>
	<path d="M875.6,564.9c0-10.2,5.8-21.1,17.2-21.1c11.3,0,17,10.7,17,20.9c0,10.2-5.8,21.1-17.2,21.1
		C881.3,585.7,875.6,575,875.6,564.9z M880,564.6c0,7.4,3.7,17.1,12.7,17.1c8.9,0,12.7-9.6,12.7-16.9c0-7.4-3.8-17.1-12.7-17.1
		S880,557.2,880,564.6z"/>
	<path d="M919.4,571c-3,0-5.4-2.4-5.4-5.4c0-3,2.4-5.4,5.4-5.4c3,0,5.4,2.4,5.4,5.4C924.9,568.6,922.4,571,919.4,571z M919.4,562.2
		c-1.9,0-3.4,1.5-3.4,3.4c0,1.9,1.5,3.4,3.4,3.4c1.9,0,3.4-1.5,3.4-3.4C922.8,563.7,921.3,562.2,919.4,562.2z M932.7,560.4h2.4
		l-15.6,24H917L932.7,560.4z M932.7,584.6c-3,0-5.4-2.4-5.4-5.4c0-3,2.4-5.4,5.4-5.4c3,0,5.4,2.4,5.4,5.4
		C938.1,582.2,935.7,584.6,932.7,584.6z M932.7,575.8c-1.9,0-3.4,1.5-3.4,3.4c0,1.9,1.5,3.4,3.4,3.4c1.9,0,3.4-1.5,3.4-3.4
		C936.1,577.3,934.6,575.8,932.7,575.8z"/>
</g>
<g>
	<path class="st2" d="M479.7,688.8c-7.2,0-13.3-4.4-14.2-11.2l4.1-0.9c0.7,4.7,4.4,8.2,10,8.2c5.5,0,9.9-3,9.9-7.7
		c0-4.7-3.5-7.6-9.9-7.6h-4.1v-4h4c5.6,0,9.1-3.5,9.1-7.4c0-4.2-3.2-7.3-9.1-7.3c-5.6,0-8.9,3.4-9.6,7.7l-4.1-0.9
		c0.7-5.7,6.1-10.8,13.8-10.8c8.9,0,13.3,5.5,13.3,10.9c0,4.7-2.6,7.7-6.6,9.5v0.1c4.7,1.3,7.5,5,7.5,9.8
		C494,683.4,488.3,688.8,479.7,688.8z"/>
	<path class="st2" d="M500.1,668c0-10.2,5.8-21.1,17.2-21.1c11.3,0,17,10.7,17,20.9c0,10.2-5.8,21.1-17.2,21.1
		C505.8,688.8,500.1,678.2,500.1,668z M504.6,667.8c0,7.4,3.7,17.1,12.7,17.1c8.9,0,12.7-9.6,12.7-16.9c0-7.4-3.8-17.1-12.7-17.1
		C508.3,650.9,504.6,660.4,504.6,667.8z"/>
	<path class="st2" d="M544,674.1c-3,0-5.4-2.4-5.4-5.4c0-3,2.4-5.4,5.4-5.4c3,0,5.4,2.4,5.4,5.4C549.4,671.7,547,674.1,544,674.1z
		 M544,665.3c-1.9,0-3.4,1.5-3.4,3.4c0,1.9,1.5,3.4,3.4,3.4c1.9,0,3.4-1.5,3.4-3.4C547.4,666.8,545.8,665.3,544,665.3z M557.2,663.6
		h2.4l-15.6,24h-2.4L557.2,663.6z M557.3,687.7c-3,0-5.4-2.4-5.4-5.4c0-3,2.4-5.4,5.4-5.4c3,0,5.4,2.4,5.4,5.4
		C562.7,685.3,560.3,687.7,557.3,687.7z M557.3,678.9c-1.9,0-3.4,1.5-3.4,3.4c0,1.9,1.5,3.4,3.4,3.4c1.9,0,3.4-1.5,3.4-3.4
		C560.7,680.4,559.1,678.9,557.3,678.9z"/>
</g>
<g>
	<path d="M590.8,367l-9.9,5.9l-1.9-3.3l11.9-7.2h4.2v41.1h-4.3V367z"/>
	<path d="M617.5,403.9c-7.2,0-13.3-4.4-14.2-11.2l4.1-0.9c0.7,4.7,4.4,8.2,10,8.2c5.5,0,9.9-3,9.9-7.7s-3.5-7.6-9.9-7.6h-4.1v-4h4
		c5.6,0,9.1-3.5,9.1-7.4c0-4.2-3.2-7.3-9.1-7.3c-5.6,0-8.9,3.4-9.6,7.7l-4.1-0.9c0.7-5.7,6.1-10.8,13.8-10.8
		c8.9,0,13.3,5.5,13.3,10.9c0,4.7-2.6,7.7-6.6,9.5v0.1c4.7,1.3,7.5,5,7.5,9.8C631.7,398.6,626.1,403.9,617.5,403.9z"/>
	<path d="M641.4,389.2c-3,0-5.4-2.4-5.4-5.4c0-3,2.4-5.4,5.4-5.4c3,0,5.4,2.4,5.4,5.4C646.8,386.8,644.4,389.2,641.4,389.2z
		 M641.4,380.5c-1.9,0-3.4,1.5-3.4,3.4c0,1.9,1.5,3.4,3.4,3.4c1.9,0,3.4-1.5,3.4-3.4C644.8,382,643.3,380.5,641.4,380.5z
		 M654.6,378.7h2.4l-15.6,24H639L654.6,378.7z M654.7,402.8c-3,0-5.4-2.4-5.4-5.4c0-3,2.4-5.4,5.4-5.4c3,0,5.4,2.4,5.4,5.4
		C660.1,400.4,657.7,402.8,654.7,402.8z M654.7,394c-1.9,0-3.4,1.5-3.4,3.4c0,1.9,1.5,3.4,3.4,3.4c1.9,0,3.4-1.5,3.4-3.4
		C658.1,395.5,656.6,394,654.7,394z"/>
</g>
<g>
	<path d="M269.5,79.1l-4.8,7.1v5.2h-1.3v-5.2l-4.8-7.1h1.6L264,85l3.9-5.9H269.5z"/>
	<path d="M270.8,87.6c0.1,1.6,1.4,2.9,3,2.9c1.2,0,2.2-0.6,2.6-1.8l1.1,0.3c-0.5,1.6-2,2.5-3.7,2.5c-2.4,0-4.3-1.9-4.3-4.4
		c0-2.3,1.7-4.3,4.1-4.3c2.6,0,4,1.9,4,4.3c0,0.1,0,0.3,0,0.4H270.8z M276.4,86.6c-0.2-1.5-1.1-2.6-2.7-2.6c-1.5,0-2.6,1.2-2.8,2.6
		H276.4z"/>
	<path d="M283.1,91.6c-2.3,0-3-1.5-3.2-2.5l1.1-0.3c0.2,0.8,0.7,1.7,2,1.7c0.9,0,1.7-0.5,1.7-1.4c0-1-1.1-1.3-2-1.4
		c-1.4-0.2-2.8-0.7-2.8-2.3c0-1.6,1.4-2.5,2.8-2.5c2.2,0,2.9,1.5,3.1,2.3l-1.1,0.3c-0.1-0.6-0.6-1.5-1.9-1.5c-0.9,0-1.6,0.6-1.6,1.3
		c0,1.1,1.1,1.2,2,1.3c1.4,0.2,2.8,0.9,2.8,2.4C286.1,90.6,284.7,91.6,283.1,91.6z"/>
	<path d="M288.8,93.3c0.7-0.5,1.3-1.2,1.4-1.9c-0.1,0-0.3,0.1-0.4,0.1c-0.6,0-1-0.4-1-1c0-0.6,0.5-1.1,1.1-1.1
		c0.7,0,1.2,0.6,1.2,1.5v0.1c0,1.1-0.6,2.1-1.7,2.9L288.8,93.3z"/>
	<path d="M300.3,91.4l-2.8-8.4h1.3l2.2,7h0l2.3-7h1.2l2.3,7h0l2.2-7h1.3l-2.8,8.4h-1.4l-2.2-6.8h0l-2.2,6.8H300.3z"/>
	<path d="M313.4,87.6c0.1,1.6,1.4,2.9,3,2.9c1.2,0,2.2-0.6,2.6-1.8l1.1,0.3c-0.5,1.6-2,2.5-3.7,2.5c-2.4,0-4.3-1.9-4.3-4.4
		c0-2.3,1.7-4.3,4.1-4.3c2.6,0,4,1.9,4,4.3c0,0.1,0,0.3,0,0.4H313.4z M318.9,86.6c-0.2-1.5-1.1-2.6-2.7-2.6c-1.5,0-2.6,1.2-2.8,2.6
		H318.9z"/>
	<path d="M334.3,86.5c0-1.5-0.8-2.6-2.3-2.6c-1.5,0-2.5,1.2-2.5,2.7v4.8h-1.2V78.6h1.2v5.9c0.7-1.1,1.6-1.7,2.9-1.7
		c2.1,0,3.2,1.4,3.2,3.4v5.2h-1.2V86.5z"/>
	<path d="M344.1,86c0-1.4-0.7-2-2.1-2c-1.4,0-2.1,0.9-2.2,1.7l-1.2-0.3c0.1-0.7,1-2.6,3.4-2.6c1.8,0,2.7,0.8,3.1,1.7
		c0.2,0.5,0.3,1.1,0.3,1.4v5.4h-1.2V90h0c-0.7,1-1.6,1.6-2.8,1.6c-1.7,0-2.8-1.1-2.8-2.5V89c0-1.8,1.8-2.4,3.3-2.4h2.3V86z
		 M341.7,87.6c-0.9,0-2.1,0.3-2.1,1.4c0,0.9,0.8,1.5,1.8,1.5c1.5,0,2.6-1.1,2.6-2.6v-0.3H341.7z"/>
	<path d="M347.5,83h1.4l2.9,7.1l2.9-7.1h1.3l-3.6,8.4h-1.3L347.5,83z"/>
	<path d="M358.9,87.6c0.1,1.6,1.4,2.9,3,2.9c1.2,0,2.2-0.6,2.6-1.8l1.1,0.3c-0.5,1.6-2,2.5-3.7,2.5c-2.4,0-4.3-1.9-4.3-4.4
		c0-2.3,1.7-4.3,4.1-4.3c2.6,0,4,1.9,4,4.3c0,0.1,0,0.3,0,0.4H358.9z M364.4,86.6c-0.2-1.5-1.1-2.6-2.7-2.6c-1.5,0-2.6,1.2-2.8,2.6
		H364.4z"/>
	<path d="M374.4,79.1c0.5,0,0.9,0.4,0.9,0.9c0,0.5-0.4,0.9-0.9,0.9c-0.5,0-0.9-0.4-0.9-0.9C373.5,79.5,373.9,79.1,374.4,79.1z
		 M375,83v8.4h-1.2V83H375z"/>
	<path d="M384.6,86.5c0-1.5-0.8-2.6-2.3-2.6c-1.5,0-2.5,1.2-2.5,2.7v4.8h-1.2V83h1.2v1.5c0.7-1.1,1.7-1.7,2.9-1.7
		c2.1,0,3.2,1.4,3.2,3.4v5.2h-1.2V86.5z"/>
	<path d="M389.8,89.3v-5.1h-1.6V83h1.6v-2.4h1.2V83h2.1v1.1H391v5.1c0,0.8,0.4,1.2,1.4,1.2c0.3,0,0.6,0,0.8-0.1v1
		c-0.3,0.1-0.7,0.1-1,0.1C390.3,91.5,389.8,90.5,389.8,89.3z"/>
	<path d="M397.2,84.7c0.6-1.3,1.7-1.8,2.7-1.8c0.1,0,0.3,0,0.4,0v1.3c-0.2,0-0.3,0-0.5,0c-2,0-2.6,1.6-2.6,3.1v4.1H396V83h1.2V84.7z
		"/>
	<path d="M401.9,87.3c0-2.5,1.9-4.4,4.4-4.4c2.4,0,4.3,1.9,4.3,4.3c0,2.5-1.9,4.4-4.4,4.4C403.7,91.6,401.9,89.7,401.9,87.3z
		 M409.3,87.3c0-1.8-1.3-3.3-3.1-3.3c-1.8,0-3.1,1.5-3.1,3.2c0,1.8,1.3,3.3,3.1,3.3C408,90.5,409.3,89,409.3,87.3z"/>
	<path d="M416.8,82.9c1.6,0,2.6,0.9,3.3,1.9v-6.2h1.2v12.8h-1.2v-1.8c-0.6,1.1-1.7,1.9-3.3,1.9c-2.4,0-3.9-2-3.9-4.3
		C412.9,85,414.5,82.9,416.8,82.9z M420.1,87.2c0-1.7-1.3-3.2-3-3.2c-1.8,0-2.9,1.5-2.9,3.3c0,1.7,1.1,3.2,2.9,3.2
		C418.9,90.5,420.1,88.9,420.1,87.2z"/>
	<path d="M426,87.9c0,1.5,0.8,2.6,2.3,2.6c1.5,0,2.5-1.2,2.5-2.6V83h1.2v8.4h-1.2v-1.5c-0.7,1.2-1.7,1.7-2.9,1.7
		c-2.1,0-3.2-1.4-3.2-3.4V83h1.2V87.9z"/>
	<path d="M439.3,90.5c1.9,0,2.6-1.4,2.8-2l1.1,0.4c-0.4,1.3-1.8,2.7-4,2.7c-2.4,0-4.3-1.8-4.3-4.3c0-2.6,2-4.4,4.3-4.4
		c2,0,3.5,1.3,3.9,2.7l-1.1,0.4c-0.2-0.6-1-2-2.8-2c-1.8,0-3,1.5-3,3.2C436.3,88.9,437.4,90.5,439.3,90.5z"/>
	<path d="M446.7,87.6c0.1,1.6,1.4,2.9,3,2.9c1.2,0,2.2-0.6,2.6-1.8l1.1,0.3c-0.5,1.6-2,2.5-3.7,2.5c-2.4,0-4.3-1.9-4.3-4.4
		c0-2.3,1.7-4.3,4.1-4.3c2.6,0,4,1.9,4,4.3c0,0.1,0,0.3,0,0.4H446.7z M452.3,86.6c-0.2-1.5-1.1-2.6-2.7-2.6c-1.5,0-2.6,1.2-2.8,2.6
		H452.3z"/>
	<path d="M459.8,82.9c1.6,0,2.6,0.9,3.3,1.9v-6.2h1.2v12.8h-1.2v-1.8c-0.6,1.1-1.7,1.9-3.3,1.9c-2.4,0-3.9-2-3.9-4.3
		C455.9,85,457.4,82.9,459.8,82.9z M463.1,87.2c0-1.7-1.3-3.2-3-3.2c-1.8,0-2.9,1.5-2.9,3.3c0,1.7,1.1,3.2,2.9,3.2
		C461.8,90.5,463.1,88.9,463.1,87.2z"/>
	<path d="M352.6,105.4c0-1.5-0.8-2.6-2.3-2.6c-1.5,0-2.5,1.2-2.5,2.7v4.8h-1.2v-8.4h1.2v1.5c0.7-1.1,1.7-1.7,2.9-1.7
		c2.1,0,3.2,1.4,3.2,3.4v5.2h-1.2V105.4z"/>
	<path d="M357.9,106.5c0.1,1.6,1.4,2.9,3,2.9c1.2,0,2.2-0.6,2.6-1.8l1.1,0.3c-0.5,1.6-2,2.5-3.7,2.5c-2.4,0-4.3-1.9-4.3-4.4
		c0-2.3,1.7-4.3,4.1-4.3c2.6,0,4,1.9,4,4.3c0,0.1,0,0.3,0,0.4H357.9z M363.4,105.5c-0.2-1.5-1.1-2.6-2.7-2.6c-1.5,0-2.6,1.2-2.8,2.6
		H363.4z"/>
	<path d="M369.2,110.3l-2.8-8.4h1.3l2.2,7h0l2.3-7h1.2l2.3,7h0l2.2-7h1.3l-2.8,8.4H375l-2.2-6.8h0l-2.2,6.8H369.2z"/>
	<path d="M392.7,105.4c0-1.4-0.7-2.5-2.2-2.5c-1.5,0-2.3,1.3-2.3,2.7v4.8H387v-8.4h1.2v1.5c0.7-1,1.4-1.6,2.7-1.6
		c1.2,0,2.2,0.6,2.7,1.7c0.7-1.1,1.6-1.7,3-1.7c2,0,3.1,1.4,3.1,3.4v5.2h-1.2v-4.9c0-1.4-0.6-2.5-2.2-2.5c-1.5,0-2.3,1.2-2.3,2.6
		v4.8h-1.2V105.4z"/>
	<path d="M403.8,106.5c0.1,1.6,1.4,2.9,3,2.9c1.2,0,2.2-0.6,2.6-1.8l1.1,0.3c-0.5,1.6-2,2.5-3.7,2.5c-2.4,0-4.3-1.9-4.3-4.4
		c0-2.3,1.7-4.3,4.1-4.3c2.6,0,4,1.9,4,4.3c0,0.1,0,0.3,0,0.4H403.8z M409.4,105.5c-0.2-1.5-1.1-2.6-2.7-2.6c-1.5,0-2.6,1.2-2.8,2.6
		H409.4z"/>
	<path d="M418.6,104.9c0-1.4-0.7-2-2.1-2c-1.4,0-2.1,0.9-2.2,1.7l-1.2-0.3c0.1-0.7,1-2.6,3.4-2.6c1.8,0,2.7,0.8,3.1,1.7
		c0.2,0.5,0.3,1.1,0.3,1.4v5.4h-1.2v-1.5h0c-0.7,1-1.6,1.6-2.8,1.6c-1.7,0-2.8-1.1-2.8-2.5v-0.1c0-1.8,1.8-2.4,3.3-2.4h2.3V104.9z
		 M416.2,106.5c-0.9,0-2.1,0.3-2.1,1.4c0,0.9,0.8,1.5,1.8,1.5c1.5,0,2.6-1.1,2.6-2.6v-0.3H416.2z"/>
	<path d="M425.8,110.5c-2.3,0-3-1.5-3.2-2.5l1.1-0.3c0.2,0.8,0.7,1.7,2,1.7c0.9,0,1.7-0.5,1.7-1.4c0-1-1.1-1.3-2-1.4
		c-1.4-0.2-2.8-0.7-2.8-2.3c0-1.6,1.4-2.5,2.8-2.5c2.2,0,2.9,1.5,3.1,2.3l-1.1,0.3c-0.1-0.6-0.6-1.5-1.9-1.5c-0.9,0-1.6,0.6-1.6,1.3
		c0,1.1,1.1,1.2,2,1.3c1.4,0.2,2.8,0.9,2.8,2.4C428.8,109.5,427.4,110.5,425.8,110.5z"/>
	<path d="M432.9,106.8c0,1.5,0.8,2.6,2.3,2.6c1.5,0,2.5-1.2,2.5-2.6v-4.8h1.2v8.4h-1.2v-1.5c-0.7,1.2-1.7,1.7-2.9,1.7
		c-2.1,0-3.2-1.4-3.2-3.4v-5.2h1.2V106.8z"/>
	<path d="M443.7,103.6c0.6-1.3,1.7-1.8,2.7-1.8c0.1,0,0.3,0,0.4,0v1.3c-0.2,0-0.3,0-0.5,0c-2,0-2.6,1.6-2.6,3.1v4.1h-1.2v-8.4h1.2
		V103.6z"/>
	<path d="M449.6,106.5c0.1,1.6,1.4,2.9,3,2.9c1.2,0,2.2-0.6,2.6-1.8l1.1,0.3c-0.5,1.6-2,2.5-3.7,2.5c-2.4,0-4.3-1.9-4.3-4.4
		c0-2.3,1.7-4.3,4.1-4.3c2.6,0,4,1.9,4,4.3c0,0.1,0,0.3,0,0.4H449.6z M455.2,105.5c-0.2-1.5-1.1-2.6-2.7-2.6c-1.5,0-2.6,1.2-2.8,2.6
		H455.2z"/>
	<path d="M461.9,110.5c-2.3,0-3-1.5-3.2-2.5l1.1-0.3c0.2,0.8,0.7,1.7,2,1.7c0.9,0,1.7-0.5,1.7-1.4c0-1-1.1-1.3-2-1.4
		c-1.4-0.2-2.8-0.7-2.8-2.3c0-1.6,1.4-2.5,2.8-2.5c2.2,0,2.9,1.5,3.1,2.3l-1.1,0.3c-0.1-0.6-0.6-1.5-1.9-1.5c-0.9,0-1.6,0.6-1.6,1.3
		c0,1.1,1.1,1.2,2,1.3c1.4,0.2,2.8,0.9,2.8,2.4C464.9,109.5,463.5,110.5,461.9,110.5z"/>
</g>
<g>
	<g>
		<path class="st3" d="M621.1,235.8c0-75.6-59.9-137.2-134.8-139.9"/>
		<g>
			<polygon points="487,102 487.3,89.8 481.1,95.8 			"/>
		</g>
	</g>
</g>
<g>
	<path d="M92,278.7V291h-1.4l-7.4-10.5V291h-1.3v-12.3h1.5l7.3,10.3v-10.3H92z"/>
	<path d="M95.3,286.8c0-2.5,1.9-4.4,4.4-4.4c2.4,0,4.3,1.9,4.3,4.3c0,2.5-1.9,4.4-4.4,4.4C97.2,291.1,95.3,289.2,95.3,286.8z
		 M102.7,286.8c0-1.8-1.3-3.3-3.1-3.3s-3.1,1.5-3.1,3.2c0,1.8,1.3,3.3,3.1,3.3C101.4,290,102.7,288.6,102.7,286.8z"/>
	<path d="M106.6,292.8c0.7-0.5,1.3-1.2,1.4-1.9c-0.1,0-0.3,0.1-0.4,0.1c-0.6,0-1-0.4-1-1c0-0.6,0.5-1.1,1.1-1.1
		c0.7,0,1.2,0.6,1.2,1.5v0.1c0,1.1-0.6,2.1-1.7,2.9L106.6,292.8z"/>
	<path d="M120.8,291.1c-1.6,0-2.6-0.8-3.3-1.9v1.8h-1.2v-12.8h1.2v6.2c0.7-1.1,1.7-2,3.2-2c2.4,0,4,2.1,4,4.3
		C124.8,289,123.2,291.1,120.8,291.1z M123.5,286.8c0-1.7-1.1-3.3-2.9-3.3c-1.7,0-3,1.5-3,3.2c0,1.7,1.2,3.3,3,3.3
		C122.4,290,123.5,288.6,123.5,286.8z"/>
	<path d="M128.9,287.5c0,1.5,0.8,2.6,2.3,2.6c1.5,0,2.5-1.2,2.5-2.6v-4.8h1.2v8.4h-1.2v-1.5c-0.7,1.1-1.7,1.7-2.9,1.7
		c-2.1,0-3.2-1.4-3.2-3.4v-5.2h1.2V287.5z"/>
	<path d="M139.1,288.8v-5.1h-1.6v-1.1h1.6v-2.4h1.2v2.4h2.1v1.1h-2.1v5.1c0,0.8,0.4,1.2,1.4,1.2c0.3,0,0.6,0,0.8-0.1v1
		c-0.3,0.1-0.7,0.1-1,0.1C139.6,291.1,139.1,290,139.1,288.8z"/>
	<path d="M152.3,291l-2.8-8.4h1.3l2.2,7h0l2.3-7h1.2l2.3,7h0l2.2-7h1.3l-2.8,8.4h-1.4l-2.2-6.8h0l-2.2,6.8H152.3z"/>
	<path d="M165.3,287.2c0.1,1.6,1.4,2.9,3,2.9c1.2,0,2.2-0.6,2.6-1.8l1.1,0.3c-0.5,1.6-2,2.5-3.7,2.5c-2.4,0-4.3-1.9-4.3-4.4
		c0-2.3,1.7-4.3,4.1-4.3c2.6,0,4,1.9,4,4.3c0,0.1,0,0.3,0,0.4H165.3z M170.9,286.1c-0.2-1.5-1.1-2.6-2.7-2.6c-1.5,0-2.6,1.2-2.8,2.6
		H170.9z"/>
	<path d="M174.3,282.6c0.7-0.5,1.3-1.2,1.4-1.9c-0.1,0-0.3,0.1-0.4,0.1c-0.6,0-1-0.4-1-1c0-0.6,0.5-1.1,1.1-1.1
		c0.7,0,1.2,0.6,1.2,1.5v0.1c0,1.1-0.6,2.1-1.7,2.9L174.3,282.6z"/>
	<path d="M180.5,284.3c0.6-1.3,1.7-1.8,2.7-1.8c0.1,0,0.3,0,0.4,0v1.3c-0.2,0-0.3,0-0.5,0c-2,0-2.6,1.6-2.6,3.1v4.1h-1.2v-8.4h1.2
		V284.3z"/>
	<path d="M186.4,287.2c0.1,1.6,1.4,2.9,3,2.9c1.2,0,2.2-0.6,2.6-1.8l1.1,0.3c-0.5,1.6-2,2.5-3.7,2.5c-2.4,0-4.3-1.9-4.3-4.4
		c0-2.3,1.7-4.3,4.1-4.3c2.6,0,4,1.9,4,4.3c0,0.1,0,0.3,0,0.4H186.4z M192,286.1c-0.2-1.5-1.1-2.6-2.7-2.6c-1.5,0-2.6,1.2-2.8,2.6
		H192z"/>
	<path d="M205.8,291.1c-1.6,0-2.6-0.8-3.2-1.9v5.9h-1.2v-12.5h1.2v1.8c0.7-1.1,1.7-2,3.3-2c2.4,0,4,2.1,4,4.3
		C209.8,289,208.2,291.1,205.8,291.1z M208.5,286.8c0-1.7-1.1-3.3-2.9-3.3c-1.7,0-3,1.5-3,3.2c0,1.7,1.2,3.3,3,3.3
		C207.4,290,208.5,288.6,208.5,286.8z"/>
	<path d="M214,278.2V291h-1.2v-12.8H214z"/>
	<path d="M222.6,285.6c0-1.4-0.7-2-2.1-2c-1.4,0-2.1,0.9-2.2,1.7l-1.2-0.3c0.1-0.7,1-2.6,3.4-2.6c1.8,0,2.7,0.8,3.1,1.7
		c0.2,0.5,0.3,1.1,0.3,1.4v5.4h-1.2v-1.5h0c-0.7,1-1.6,1.6-2.8,1.6c-1.7,0-2.8-1.1-2.8-2.5v-0.1c0-1.8,1.8-2.4,3.3-2.4h2.3V285.6z
		 M220.2,287.1c-0.9,0-2.1,0.3-2.1,1.4c0,0.9,0.8,1.5,1.8,1.5c1.5,0,2.6-1.1,2.6-2.6v-0.3H220.2z"/>
	<path d="M233.3,286.1c0-1.5-0.8-2.6-2.3-2.6c-1.5,0-2.5,1.2-2.5,2.7v4.8h-1.2v-8.4h1.2v1.5c0.7-1.1,1.7-1.7,2.9-1.7
		c2.1,0,3.2,1.4,3.2,3.4v5.2h-1.2V286.1z"/>
	<path d="M244.1,286.1c0-1.5-0.8-2.6-2.3-2.6c-1.5,0-2.5,1.2-2.5,2.7v4.8H238v-8.4h1.2v1.5c0.7-1.1,1.7-1.7,2.9-1.7
		c2.1,0,3.2,1.4,3.2,3.4v5.2h-1.2V286.1z"/>
	<path d="M249.4,278.6c0.5,0,0.9,0.4,0.9,0.9c0,0.5-0.4,0.9-0.9,0.9c-0.5,0-0.9-0.4-0.9-0.9C248.4,279.1,248.9,278.6,249.4,278.6z
		 M250,282.6v8.4h-1.2v-8.4H250z"/>
	<path d="M259.6,286.1c0-1.5-0.8-2.6-2.3-2.6c-1.5,0-2.5,1.2-2.5,2.7v4.8h-1.2v-8.4h1.2v1.5c0.7-1.1,1.7-1.7,2.9-1.7
		c2.1,0,3.2,1.4,3.2,3.4v5.2h-1.2V286.1z"/>
	<path d="M270.9,289.1c-0.6,1.1-1.7,1.9-3.3,1.9c-2.4,0-3.9-2-3.9-4.3c0-2.2,1.6-4.3,3.9-4.3c1.6,0,2.6,0.9,3.3,1.9v-1.8h1.2v8.4
		c0,2.7-1.7,4.2-4.2,4.2c-2.2,0-3.7-1.1-4.2-2.9l1.1-0.4c0.3,1,1.1,2.2,3,2.2c1.6,0,3-0.9,3-3.1V289.1z M270.9,286.7
		c0-1.7-1.3-3.2-3-3.2c-1.8,0-2.9,1.4-2.9,3.2c0,1.7,1.1,3.2,2.9,3.2C269.7,290,270.9,288.4,270.9,286.7z"/>
	<path d="M281.4,288.8v-5.1h-1.6v-1.1h1.6v-2.4h1.2v2.4h2.1v1.1h-2.1v5.1c0,0.8,0.4,1.2,1.4,1.2c0.3,0,0.6,0,0.8-0.1v1
		c-0.3,0.1-0.7,0.1-1,0.1C282,291.1,281.4,290,281.4,288.8z"/>
	<path d="M286.9,286.8c0-2.5,1.9-4.4,4.4-4.4c2.4,0,4.3,1.9,4.3,4.3c0,2.5-1.9,4.4-4.4,4.4C288.7,291.1,286.9,289.2,286.9,286.8z
		 M294.3,286.8c0-1.8-1.3-3.3-3.1-3.3c-1.8,0-3.1,1.5-3.1,3.2c0,1.8,1.3,3.3,3.1,3.3C293,290,294.3,288.6,294.3,286.8z"/>
	<path d="M103.6,305.7c0-2.5,1.9-4.4,4.4-4.4c2.4,0,4.3,1.9,4.3,4.3c0,2.5-1.9,4.4-4.4,4.4C105.5,310,103.6,308.1,103.6,305.7z
		 M111,305.7c0-1.8-1.3-3.3-3.1-3.3c-1.8,0-3.1,1.5-3.1,3.2c0,1.8,1.3,3.3,3.1,3.3C109.7,309,111,307.5,111,305.7z"/>
	<path d="M113.9,301.5h1.4l2.9,7.1l2.9-7.1h1.3l-3.6,8.4h-1.3L113.9,301.5z"/>
	<path d="M125.2,306.1c0.1,1.6,1.4,2.9,3,2.9c1.2,0,2.2-0.6,2.6-1.8l1.1,0.3c-0.5,1.6-2,2.5-3.7,2.5c-2.4,0-4.3-1.9-4.3-4.4
		c0-2.3,1.7-4.3,4.1-4.3c2.6,0,4,1.9,4,4.3c0,0.1,0,0.3,0,0.4H125.2z M130.8,305c-0.2-1.5-1.1-2.6-2.7-2.6c-1.5,0-2.6,1.2-2.8,2.6
		H130.8z"/>
	<path d="M136.2,303.2c0.6-1.3,1.7-1.8,2.7-1.8c0.1,0,0.3,0,0.4,0v1.3c-0.2,0-0.3,0-0.5,0c-2,0-2.6,1.6-2.6,3.1v4.1H135v-8.4h1.2
		V303.2z"/>
	<path d="M147,307.7v-5.1h-1.6v-1.1h1.6v-2.4h1.2v2.4h2.1v1.1h-2.1v5.1c0,0.8,0.4,1.2,1.4,1.2c0.3,0,0.6,0,0.8-0.1v1
		c-0.3,0.1-0.7,0.1-1,0.1C147.6,310,147,309,147,307.7z"/>
	<path d="M159.3,305c0-1.5-0.8-2.6-2.3-2.6c-1.5,0-2.5,1.2-2.5,2.7v4.8h-1.2v-12.8h1.2v5.9c0.7-1.1,1.6-1.7,2.9-1.7
		c2.1,0,3.2,1.4,3.2,3.4v5.2h-1.2V305z"/>
	<path d="M164.6,306.1c0.1,1.6,1.4,2.9,3,2.9c1.2,0,2.2-0.6,2.6-1.8l1.1,0.3c-0.5,1.6-2,2.5-3.7,2.5c-2.4,0-4.3-1.9-4.3-4.4
		c0-2.3,1.7-4.3,4.1-4.3c2.6,0,4,1.9,4,4.3c0,0.1,0,0.3,0,0.4H164.6z M170.2,305c-0.2-1.5-1.1-2.6-2.7-2.6c-1.5,0-2.6,1.2-2.8,2.6
		H170.2z"/>
	<path d="M180.1,306.1c0.1,1.6,1.4,2.9,3,2.9c1.2,0,2.2-0.6,2.6-1.8l1.1,0.3c-0.5,1.6-2,2.5-3.7,2.5c-2.4,0-4.3-1.9-4.3-4.4
		c0-2.3,1.7-4.3,4.1-4.3c2.6,0,4,1.9,4,4.3c0,0.1,0,0.3,0,0.4H180.1z M185.7,305c-0.2-1.5-1.1-2.6-2.7-2.6c-1.5,0-2.6,1.2-2.8,2.6
		H185.7z"/>
	<path d="M189.9,309.9h-1.4l3.3-4.3l-3.2-4.1h1.4l2.5,3.3l2.5-3.3h1.4l-3.2,4.1l3.3,4.3h-1.5l-2.6-3.4L189.9,309.9z"/>
	<path d="M199.6,307.7v-5.1h-1.6v-1.1h1.6v-2.4h1.2v2.4h2.1v1.1h-2.1v5.1c0,0.8,0.4,1.2,1.4,1.2c0.3,0,0.6,0,0.8-0.1v1
		c-0.3,0.1-0.7,0.1-1,0.1C200.2,310,199.6,309,199.6,307.7z"/>
	<path d="M213.4,298.9l-3,1.8l-0.6-1l3.6-2.2h1.3v12.3h-1.3V298.9z"/>
	<path d="M218,309.5c0-1.4,0.7-3,2.9-4.3l1.9-1.2c1.2-0.7,2.2-1.5,2.2-2.9c0-1.3-1.1-2.5-2.7-2.5c-1.4,0-2.2,0.8-2.5,1.6
		c-0.2,0.5-0.2,1-0.3,1.2l-1.3-0.2c0-1.7,1.5-3.8,4.1-3.8c2.3,0,4,1.7,4,3.6c0,1.7-1,2.8-2.6,3.8l-1.9,1.2c-1.1,0.7-2,1.5-2.1,2.6
		h6.8v1.2H218V309.5z"/>
	<path d="M240.3,305c0-1.4-0.7-2.5-2.2-2.5c-1.5,0-2.3,1.3-2.3,2.7v4.8h-1.2v-8.4h1.2v1.5c0.7-1,1.4-1.6,2.7-1.6
		c1.2,0,2.2,0.6,2.7,1.7c0.7-1.1,1.6-1.7,3-1.7c2,0,3.1,1.4,3.1,3.4v5.2h-1.2V305c0-1.4-0.6-2.5-2.2-2.5c-1.5,0-2.3,1.2-2.3,2.6v4.8
		h-1.2V305z"/>
	<path d="M250.1,305.7c0-2.5,1.9-4.4,4.4-4.4c2.4,0,4.3,1.9,4.3,4.3c0,2.5-1.9,4.4-4.4,4.4C252,310,250.1,308.1,250.1,305.7z
		 M257.6,305.7c0-1.8-1.3-3.3-3.1-3.3c-1.8,0-3.1,1.5-3.1,3.2c0,1.8,1.3,3.3,3.1,3.3C256.3,309,257.6,307.5,257.6,305.7z"/>
	<path d="M267.9,305c0-1.5-0.8-2.6-2.3-2.6c-1.5,0-2.5,1.2-2.5,2.7v4.8h-1.2v-8.4h1.2v1.5c0.7-1.1,1.7-1.7,2.9-1.7
		c2.1,0,3.2,1.4,3.2,3.4v5.2h-1.2V305z"/>
	<path d="M273,307.7v-5.1h-1.6v-1.1h1.6v-2.4h1.2v2.4h2.1v1.1h-2.1v5.1c0,0.8,0.4,1.2,1.4,1.2c0.3,0,0.6,0,0.8-0.1v1
		c-0.3,0.1-0.7,0.1-1,0.1C273.6,310,273,309,273,307.7z"/>
	<path d="M285.3,305c0-1.5-0.8-2.6-2.3-2.6c-1.5,0-2.5,1.2-2.5,2.7v4.8h-1.2v-12.8h1.2v5.9c0.7-1.1,1.6-1.7,2.9-1.7
		c2.1,0,3.2,1.4,3.2,3.4v5.2h-1.2V305z"/>
	<path d="M292.5,310c-2.3,0-3-1.5-3.2-2.5l1.1-0.3c0.2,0.8,0.7,1.7,2,1.7c0.9,0,1.7-0.5,1.7-1.4c0-1-1.1-1.3-2-1.4
		c-1.4-0.2-2.8-0.7-2.8-2.3c0-1.6,1.4-2.5,2.8-2.5c2.2,0,2.9,1.5,3.1,2.3l-1.1,0.3c-0.1-0.6-0.6-1.5-1.9-1.5c-0.9,0-1.6,0.6-1.6,1.3
		c0,1.1,1.1,1.2,2,1.3c1.4,0.2,2.8,0.9,2.8,2.4C295.5,309,294.2,310,292.5,310z"/>
</g>
<g>
	<g>
		<path class="st3" d="M450.5,434c0-75.6-59.9-137.2-134.8-139.9"/>
		<g>
			<polygon points="316.3,300.2 316.6,288.1 310.4,294 			"/>
		</g>
	</g>
</g>
<g>
	<path d="M1051.5,943v12.3h-1.4l-7.4-10.5v10.5h-1.3V943h1.5l7.3,10.3V943H1051.5z"/>
	<path d="M1054.8,951.2c0-2.5,1.9-4.4,4.4-4.4c2.4,0,4.3,1.9,4.3,4.3c0,2.5-1.9,4.4-4.4,4.4C1056.7,955.5,1054.8,953.5,1054.8,951.2
		z M1062.3,951.2c0-1.8-1.3-3.3-3.1-3.3c-1.8,0-3.1,1.5-3.1,3.2c0,1.8,1.3,3.3,3.1,3.3C1061,954.4,1062.3,952.9,1062.3,951.2z"/>
	<path d="M1066.2,957.2c0.7-0.5,1.3-1.2,1.4-1.9c-0.1,0-0.3,0.1-0.4,0.1c-0.6,0-1-0.4-1-1c0-0.6,0.5-1.1,1.1-1.1
		c0.7,0,1.2,0.6,1.2,1.5v0.1c0,1.1-0.6,2.1-1.7,2.9L1066.2,957.2z"/>
	<path d="M1081,949.9c0-1.4-0.7-2-2.1-2c-1.4,0-2.1,0.9-2.2,1.7l-1.2-0.3c0.1-0.7,1-2.6,3.4-2.6c1.8,0,2.7,0.8,3.1,1.7
		c0.2,0.5,0.3,1.1,0.3,1.4v5.4h-1.2v-1.5h0c-0.7,1-1.6,1.6-2.8,1.6c-1.7,0-2.8-1.1-2.8-2.5v-0.1c0-1.8,1.8-2.4,3.3-2.4h2.3V949.9z
		 M1078.6,951.5c-0.9,0-2.1,0.3-2.1,1.4c0,0.9,0.8,1.5,1.8,1.5c1.5,0,2.6-1.1,2.6-2.6v-0.3H1078.6z"/>
	<path d="M1091.7,950.4c0-1.5-0.8-2.6-2.3-2.6c-1.5,0-2.5,1.2-2.5,2.7v4.8h-1.2v-8.4h1.2v1.5c0.7-1.1,1.7-1.7,2.9-1.7
		c2.1,0,3.2,1.4,3.2,3.4v5.2h-1.2V950.4z"/>
	<path d="M1099.7,946.8c1.6,0,2.6,0.9,3.3,1.9v-6.2h1.2v12.8h-1.2v-1.8c-0.6,1.1-1.7,1.9-3.3,1.9c-2.4,0-3.9-2-3.9-4.3
		C1095.8,948.9,1097.4,946.8,1099.7,946.8z M1103,951.1c0-1.7-1.3-3.2-3-3.2c-1.8,0-2.9,1.5-2.9,3.3c0,1.7,1.1,3.2,2.9,3.2
		C1101.8,954.4,1103,952.8,1103,951.1z"/>
	<path d="M1114.8,955.3l-2.8-8.4h1.3l2.2,7h0l2.3-7h1.2l2.3,7h0l2.2-7h1.3l-2.8,8.4h-1.4l-2.2-6.8h0l-2.2,6.8H1114.8z"/>
	<path d="M1127.8,951.5c0.1,1.6,1.4,2.9,3,2.9c1.2,0,2.2-0.6,2.6-1.8l1.1,0.3c-0.5,1.6-2,2.5-3.7,2.5c-2.4,0-4.3-1.9-4.3-4.4
		c0-2.3,1.7-4.3,4.1-4.3c2.6,0,4,1.9,4,4.3c0,0.1,0,0.3,0,0.4H1127.8z M1133.4,950.5c-0.2-1.5-1.1-2.6-2.7-2.6
		c-1.5,0-2.6,1.2-2.8,2.6H1133.4z"/>
	<path d="M1147.8,949.9c0-1.4-0.7-2-2.1-2c-1.4,0-2.1,0.9-2.2,1.7l-1.2-0.3c0.1-0.7,1-2.6,3.4-2.6c1.8,0,2.7,0.8,3.1,1.7
		c0.2,0.5,0.3,1.1,0.3,1.4v5.4h-1.2v-1.5h0c-0.7,1-1.6,1.6-2.8,1.6c-1.7,0-2.8-1.1-2.8-2.5v-0.1c0-1.8,1.8-2.4,3.3-2.4h2.3V949.9z
		 M1145.5,951.5c-0.9,0-2.1,0.3-2.1,1.4c0,0.9,0.8,1.5,1.8,1.5c1.5,0,2.6-1.1,2.6-2.6v-0.3H1145.5z"/>
	<path d="M1153.7,948.6c0.6-1.3,1.7-1.8,2.7-1.8c0.1,0,0.3,0,0.4,0v1.3c-0.2,0-0.3,0-0.5,0c-2,0-2.6,1.6-2.6,3.1v4.1h-1.2v-8.4h1.2
		V948.6z"/>
	<path d="M1159.6,951.5c0.1,1.6,1.4,2.9,3,2.9c1.2,0,2.2-0.6,2.6-1.8l1.1,0.3c-0.5,1.6-2,2.5-3.7,2.5c-2.4,0-4.3-1.9-4.3-4.4
		c0-2.3,1.7-4.3,4.1-4.3c2.6,0,4,1.9,4,4.3c0,0.1,0,0.3,0,0.4H1159.6z M1165.2,950.5c-0.2-1.5-1.1-2.6-2.7-2.6
		c-1.5,0-2.6,1.2-2.8,2.6H1165.2z"/>
	<path d="M1175.4,950.4c0-1.5-0.8-2.6-2.3-2.6c-1.5,0-2.5,1.2-2.5,2.7v4.8h-1.2v-8.4h1.2v1.5c0.7-1.1,1.7-1.7,2.9-1.7
		c2.1,0,3.2,1.4,3.2,3.4v5.2h-1.2V950.4z"/>
	<path d="M1179.3,946.9c0.7-0.5,1.3-1.2,1.4-1.9c-0.1,0-0.3,0.1-0.4,0.1c-0.6,0-1-0.4-1-1c0-0.6,0.5-1.1,1.1-1.1
		c0.7,0,1.2,0.6,1.2,1.5v0.1c0,1.1-0.6,2.1-1.7,2.9L1179.3,946.9z"/>
	<path d="M1185.3,953.2V948h-1.6v-1.1h1.6v-2.4h1.2v2.4h2.1v1.1h-2.1v5.1c0,0.8,0.4,1.2,1.4,1.2c0.3,0,0.6,0,0.8-0.1v1
		c-0.3,0.1-0.7,0.1-1,0.1C1185.8,955.4,1185.3,954.4,1185.3,953.2z"/>
	<path d="M1201.1,955.5c-1.6,0-2.6-0.8-3.2-1.9v5.9h-1.2v-12.5h1.2v1.8c0.7-1.1,1.7-2,3.3-2c2.4,0,4,2.1,4,4.3
		C1205.1,953.4,1203.5,955.5,1201.1,955.5z M1203.8,951.1c0-1.7-1.1-3.3-2.9-3.3c-1.7,0-3,1.5-3,3.2c0,1.7,1.2,3.3,3,3.3
		C1202.8,954.4,1203.8,952.9,1203.8,951.1z"/>
	<path d="M1209.3,942.5v12.8h-1.2v-12.8H1209.3z"/>
	<path d="M1217.9,949.9c0-1.4-0.7-2-2.1-2c-1.4,0-2.1,0.9-2.2,1.7l-1.2-0.3c0.1-0.7,1-2.6,3.4-2.6c1.8,0,2.7,0.8,3.1,1.7
		c0.2,0.5,0.3,1.1,0.3,1.4v5.4h-1.2v-1.5h0c-0.7,1-1.6,1.6-2.8,1.6c-1.7,0-2.8-1.1-2.8-2.5v-0.1c0-1.8,1.8-2.4,3.3-2.4h2.3V949.9z
		 M1215.6,951.5c-0.9,0-2.1,0.3-2.1,1.4c0,0.9,0.8,1.5,1.8,1.5c1.5,0,2.6-1.1,2.6-2.6v-0.3H1215.6z"/>
	<path d="M1228.7,950.4c0-1.5-0.8-2.6-2.3-2.6c-1.5,0-2.5,1.2-2.5,2.7v4.8h-1.2v-8.4h1.2v1.5c0.7-1.1,1.7-1.7,2.9-1.7
		c2.1,0,3.2,1.4,3.2,3.4v5.2h-1.2V950.4z"/>
	<path d="M1239.4,950.4c0-1.5-0.8-2.6-2.3-2.6c-1.5,0-2.5,1.2-2.5,2.7v4.8h-1.2v-8.4h1.2v1.5c0.7-1.1,1.7-1.7,2.9-1.7
		c2.1,0,3.2,1.4,3.2,3.4v5.2h-1.2V950.4z"/>
	<path d="M1244.7,943c0.5,0,0.9,0.4,0.9,0.9c0,0.5-0.4,0.9-0.9,0.9c-0.5,0-0.9-0.4-0.9-0.9C1243.8,943.4,1244.2,943,1244.7,943z
		 M1245.3,946.9v8.4h-1.2v-8.4H1245.3z"/>
	<path d="M1255,950.4c0-1.5-0.8-2.6-2.3-2.6c-1.5,0-2.5,1.2-2.5,2.7v4.8h-1.2v-8.4h1.2v1.5c0.7-1.1,1.7-1.7,2.9-1.7
		c2.1,0,3.2,1.4,3.2,3.4v5.2h-1.2V950.4z"/>
	<path d="M1266.2,953.5c-0.6,1.1-1.7,1.9-3.3,1.9c-2.4,0-3.9-2-3.9-4.3c0-2.2,1.6-4.3,3.9-4.3c1.6,0,2.6,0.9,3.3,1.9v-1.8h1.2v8.4
		c0,2.7-1.7,4.2-4.2,4.2c-2.2,0-3.7-1.1-4.2-2.9l1.1-0.4c0.3,1,1.1,2.2,3,2.2c1.6,0,3-0.9,3-3.1V953.5z M1266.3,951.1
		c0-1.7-1.3-3.2-3-3.2c-1.8,0-2.9,1.4-2.9,3.2c0,1.7,1.1,3.2,2.9,3.2C1265,954.3,1266.3,952.8,1266.3,951.1z"/>
	<path d="M1041.7,972.1v-5.1h-1.6v-1.1h1.6v-2.4h1.2v2.4h2.1v1.1h-2.1v5.1c0,0.8,0.4,1.2,1.4,1.2c0.3,0,0.6,0,0.8-0.1v1
		c-0.3,0.1-0.7,0.1-1,0.1C1042.3,974.3,1041.7,973.3,1041.7,972.1z"/>
	<path d="M1047.2,970.1c0-2.5,1.9-4.4,4.4-4.4c2.4,0,4.3,1.9,4.3,4.3c0,2.5-1.9,4.4-4.4,4.4C1049,974.4,1047.2,972.5,1047.2,970.1z
		 M1054.6,970.1c0-1.8-1.3-3.3-3.1-3.3c-1.8,0-3.1,1.5-3.1,3.2c0,1.8,1.3,3.3,3.1,3.3C1053.3,973.3,1054.6,971.8,1054.6,970.1z"/>
	<path d="M1063.4,970.1c0-2.5,1.9-4.4,4.4-4.4c2.4,0,4.3,1.9,4.3,4.3c0,2.5-1.9,4.4-4.4,4.4C1065.3,974.4,1063.4,972.5,1063.4,970.1
		z M1070.8,970.1c0-1.8-1.3-3.3-3.1-3.3c-1.8,0-3.1,1.5-3.1,3.2c0,1.8,1.3,3.3,3.1,3.3C1069.5,973.3,1070.8,971.8,1070.8,970.1z"/>
	<path d="M1073.7,965.8h1.4l2.9,7.1l2.9-7.1h1.3l-3.6,8.4h-1.3L1073.7,965.8z"/>
	<path d="M1085,970.4c0.1,1.6,1.4,2.9,3,2.9c1.2,0,2.2-0.6,2.6-1.8l1.1,0.3c-0.5,1.6-2,2.5-3.7,2.5c-2.4,0-4.3-1.9-4.3-4.4
		c0-2.3,1.7-4.3,4.1-4.3c2.6,0,4,1.9,4,4.3c0,0.1,0,0.3,0,0.4H1085z M1090.6,969.4c-0.2-1.5-1.1-2.6-2.7-2.6c-1.5,0-2.6,1.2-2.8,2.6
		H1090.6z"/>
	<path d="M1096,967.5c0.6-1.3,1.7-1.8,2.7-1.8c0.1,0,0.3,0,0.4,0v1.3c-0.2,0-0.3,0-0.5,0c-2,0-2.6,1.6-2.6,3.1v4.1h-1.2v-8.4h1.2
		V967.5z"/>
	<path d="M1106.8,972.1v-5.1h-1.6v-1.1h1.6v-2.4h1.2v2.4h2.1v1.1h-2.1v5.1c0,0.8,0.4,1.2,1.4,1.2c0.3,0,0.6,0,0.8-0.1v1
		c-0.3,0.1-0.7,0.1-1,0.1C1107.4,974.3,1106.8,973.3,1106.8,972.1z"/>
	<path d="M1119.1,969.3c0-1.5-0.8-2.6-2.3-2.6c-1.5,0-2.5,1.2-2.5,2.7v4.8h-1.2v-12.8h1.2v5.9c0.7-1.1,1.6-1.7,2.9-1.7
		c2.1,0,3.2,1.4,3.2,3.4v5.2h-1.2V969.3z"/>
	<path d="M1124.4,970.4c0.1,1.6,1.4,2.9,3,2.9c1.2,0,2.2-0.6,2.6-1.8l1.1,0.3c-0.5,1.6-2,2.5-3.7,2.5c-2.4,0-4.3-1.9-4.3-4.4
		c0-2.3,1.7-4.3,4.1-4.3c2.6,0,4,1.9,4,4.3c0,0.1,0,0.3,0,0.4H1124.4z M1130,969.4c-0.2-1.5-1.1-2.6-2.7-2.6c-1.5,0-2.6,1.2-2.8,2.6
		H1130z"/>
	<path d="M1145.3,969.3c0-1.5-0.8-2.6-2.3-2.6c-1.5,0-2.5,1.2-2.5,2.7v4.8h-1.2v-8.4h1.2v1.5c0.7-1.1,1.7-1.7,2.9-1.7
		c2.1,0,3.2,1.4,3.2,3.4v5.2h-1.2V969.3z"/>
	<path d="M1150.7,970.4c0.1,1.6,1.4,2.9,3,2.9c1.2,0,2.2-0.6,2.6-1.8l1.1,0.3c-0.5,1.6-2,2.5-3.7,2.5c-2.4,0-4.3-1.9-4.3-4.4
		c0-2.3,1.7-4.3,4.1-4.3c2.6,0,4,1.9,4,4.3c0,0.1,0,0.3,0,0.4H1150.7z M1156.2,969.4c-0.2-1.5-1.1-2.6-2.7-2.6
		c-1.5,0-2.6,1.2-2.8,2.6H1156.2z"/>
	<path d="M1160.5,974.2h-1.4l3.3-4.3l-3.2-4.1h1.4l2.5,3.3l2.5-3.3h1.4l-3.2,4.1l3.3,4.3h-1.5l-2.6-3.4L1160.5,974.2z"/>
	<path d="M1170.2,972.1v-5.1h-1.6v-1.1h1.6v-2.4h1.2v2.4h2.1v1.1h-2.1v5.1c0,0.8,0.4,1.2,1.4,1.2c0.3,0,0.6,0,0.8-0.1v1
		c-0.3,0.1-0.7,0.1-1,0.1C1170.7,974.3,1170.2,973.3,1170.2,972.1z"/>
	<path d="M1183.9,963.3l-3,1.8l-0.6-1l3.6-2.2h1.3v12.3h-1.3V963.3z"/>
	<path d="M1188.6,973.9c0-1.4,0.7-3,2.9-4.3l1.9-1.2c1.2-0.7,2.2-1.5,2.2-2.9c0-1.3-1.1-2.5-2.7-2.5c-1.4,0-2.2,0.8-2.5,1.6
		c-0.2,0.5-0.2,1-0.3,1.2l-1.3-0.2c0-1.7,1.5-3.8,4.1-3.8c2.3,0,4,1.7,4,3.6c0,1.7-1,2.8-2.6,3.8l-1.9,1.2c-1.1,0.7-2,1.5-2.1,2.6
		h6.8v1.2h-8.3V973.9z"/>
	<path d="M1210.9,969.3c0-1.4-0.7-2.5-2.2-2.5c-1.5,0-2.3,1.3-2.3,2.7v4.8h-1.2v-8.4h1.2v1.5c0.7-1,1.4-1.6,2.7-1.6
		c1.2,0,2.2,0.6,2.7,1.7c0.7-1.1,1.6-1.7,3-1.7c2,0,3.1,1.4,3.1,3.4v5.2h-1.2v-4.9c0-1.4-0.6-2.5-2.2-2.5c-1.5,0-2.3,1.2-2.3,2.6
		v4.8h-1.2V969.3z"/>
	<path d="M1220.7,970.1c0-2.5,1.9-4.4,4.4-4.4c2.4,0,4.3,1.9,4.3,4.3c0,2.5-1.9,4.4-4.4,4.4C1222.6,974.4,1220.7,972.5,1220.7,970.1
		z M1228.1,970.1c0-1.8-1.3-3.3-3.1-3.3c-1.8,0-3.1,1.5-3.1,3.2c0,1.8,1.3,3.3,3.1,3.3C1226.8,973.3,1228.1,971.8,1228.1,970.1z"/>
	<path d="M1238.4,969.3c0-1.5-0.8-2.6-2.3-2.6c-1.5,0-2.5,1.2-2.5,2.7v4.8h-1.2v-8.4h1.2v1.5c0.7-1.1,1.7-1.7,2.9-1.7
		c2.1,0,3.2,1.4,3.2,3.4v5.2h-1.2V969.3z"/>
	<path d="M1243.6,972.1v-5.1h-1.6v-1.1h1.6v-2.4h1.2v2.4h2.1v1.1h-2.1v5.1c0,0.8,0.4,1.2,1.4,1.2c0.3,0,0.6,0,0.8-0.1v1
		c-0.3,0.1-0.7,0.1-1,0.1C1244.1,974.3,1243.6,973.3,1243.6,972.1z"/>
	<path d="M1255.8,969.3c0-1.5-0.8-2.6-2.3-2.6c-1.5,0-2.5,1.2-2.5,2.7v4.8h-1.2v-12.8h1.2v5.9c0.7-1.1,1.6-1.7,2.9-1.7
		c2.1,0,3.2,1.4,3.2,3.4v5.2h-1.2V969.3z"/>
	<path d="M1263.1,974.4c-2.3,0-3-1.5-3.2-2.5l1.1-0.3c0.2,0.8,0.7,1.7,2,1.7c0.9,0,1.7-0.5,1.7-1.4c0-1-1.1-1.3-2-1.4
		c-1.4-0.2-2.8-0.7-2.8-2.3c0-1.6,1.4-2.5,2.8-2.5c2.2,0,2.9,1.5,3.1,2.3l-1.1,0.3c-0.1-0.6-0.6-1.5-1.9-1.5c-0.9,0-1.6,0.6-1.6,1.3
		c0,1.1,1.1,1.2,2,1.3c1.4,0.2,2.8,0.9,2.8,2.4C1266.1,973.4,1264.7,974.4,1263.1,974.4z"/>
</g>
<g>
	<g>
		<path class="st3" d="M888.9,819.8c0,75.6,59.9,137.2,134.8,139.9"/>
		<g>
			<polygon points="1023,953.6 1022.7,965.7 1029,959.8 			"/>
		</g>
	</g>
</g>
<g>
	<path class="st4" d="M805.4,92.7l-3.5,2.1l-0.7-1.1l4.2-2.5h1.5v14.4h-1.5V92.7z"/>
	<path class="st4" d="M811.5,98.2c1-1.5,2.8-2.1,4-2.1c3,0,4.8,2.1,4.8,4.6c0,3.3-2.6,4.9-5.1,4.9c-1.6,0-3.5-0.9-4.3-2.4
		c-0.7-1.2-0.9-2.2-0.9-4c0-4.5,2.4-8.3,7-8.3c0.8,0,2,0.1,3,0.7l-0.6,1.4c-0.8-0.5-1.8-0.6-2.4-0.6C813.7,92.4,811.8,95,811.5,98.2
		z M812.8,98.3c-0.7,0.6-1.1,1.5-1.1,2.5c0,2.1,1.8,3.4,3.6,3.4c1.8,0,3.6-1.2,3.6-3.4c0-1.8-1.3-3.3-3.6-3.3
		C814.3,97.5,813.5,97.8,812.8,98.3z"/>
	<path class="st4" d="M831.3,104.7V116h-2.6V91.3h2.6v10.9h14.1V91.3h2.6V116h-2.6v-11.3H831.3z"/>
	<path class="st4" d="M864.3,105.1c0-2.7-1.5-4.1-4.3-4.1c-2.8,0-4.1,1.8-4.4,3.4l-2.4-0.5c0.1-1.4,2-5.1,6.8-5.1
		c3.6,0,5.3,1.6,6.1,3.5c0.4,0.9,0.5,2.2,0.5,2.8V116h-2.4v-3h0c-1.3,2.1-3.2,3.2-5.7,3.2c-3.4,0-5.6-2.1-5.6-4.9v-0.2
		c0-3.7,3.7-4.9,6.6-4.9h4.7V105.1z M859.6,108.3c-1.8,0-4.2,0.6-4.2,2.8c0,1.9,1.6,3,3.6,3c3,0,5.2-2.1,5.2-5.2v-0.6H859.6z"/>
	<path class="st4" d="M869.5,99.1h2.7l5.8,14.1l5.9-14.1h2.6l-7.2,16.8h-2.6L869.5,99.1z"/>
	<path class="st4" d="M890.7,108.3c0.2,3.3,2.7,5.8,6,5.8c2.5,0,4.4-1.2,5.2-3.6l2.2,0.7c-1,3.2-4,5.1-7.4,5.1
		c-4.9,0-8.5-3.9-8.5-8.7c0-4.6,3.5-8.7,8.2-8.7c5.2,0,7.9,3.7,7.9,8.6c0,0.3,0,0.6,0,0.8H890.7z M901.8,106.2
		c-0.3-3.1-2.2-5.2-5.5-5.2c-2.9,0-5.3,2.4-5.7,5.2H901.8z"/>
	<path class="st4" d="M922.1,114.8l-7.7-15.7h2.8l6.2,13l5.8-13h2.6l-11.5,25.1h-2.6L922.1,114.8z"/>
	<path class="st4" d="M933.5,107.6c0-5,3.7-8.8,8.7-8.8c4.9,0,8.7,3.8,8.7,8.6c0,5-3.8,8.8-8.7,8.8
		C937.3,116.3,933.5,112.4,933.5,107.6z M948.3,107.6c0-3.5-2.6-6.6-6.2-6.6s-6.1,3-6.1,6.5c0,3.5,2.5,6.6,6.2,6.6
		C945.8,114.1,948.3,111.1,948.3,107.6z"/>
	<path class="st4" d="M957.4,108.9c0,3,1.5,5.1,4.7,5.1c2.9,0,5-2.3,5-5.3v-9.6h2.4V116h-2.4v-3.1c-1.3,2.3-3.3,3.4-5.8,3.4
		c-4.1,0-6.4-2.8-6.4-6.7V99.1h2.4V108.9z"/>
	<path class="st4" d="M992.8,116.2c-3.1,0-5.1-1.6-6.5-3.7v11.8h-2.5V99.1h2.4v3.7c1.4-2.1,3.3-3.9,6.5-3.9c4.8,0,7.9,4.3,7.9,8.7
		C1000.7,112.1,997.6,116.2,992.8,116.2z M998.2,107.6c0-3.5-2.2-6.6-5.9-6.6c-3.5,0-6,3.1-6,6.5c0,3.5,2.5,6.6,6,6.6
		C996,114.1,998.2,111.2,998.2,107.6z"/>
	<path class="st4" d="M1007.3,108.9c0,3,1.5,5.1,4.7,5.1c2.9,0,5-2.3,5-5.3v-9.6h2.4V116h-2.4v-3.1c-1.3,2.3-3.3,3.4-5.8,3.4
		c-4.1,0-6.4-2.8-6.4-6.7V99.1h2.4V108.9z"/>
	<path class="st4" d="M1026.1,111.6v-10.3h-3.1v-2.2h3.1v-4.9h2.4v4.9h4.3v2.2h-4.3v10.2c0,1.5,0.9,2.4,2.7,2.4c0.5,0,1.1,0,1.5-0.1
		v2c-0.5,0.2-1.5,0.3-1.9,0.3C1027.2,116.1,1026.1,114.1,1026.1,111.6z"/>
	<path class="st4" d="M1055.9,105.1c0-2.7-1.5-4.1-4.3-4.1c-2.8,0-4.1,1.8-4.4,3.4l-2.4-0.5c0.1-1.4,2-5.1,6.8-5.1
		c3.6,0,5.3,1.6,6.1,3.5c0.4,0.9,0.5,2.2,0.5,2.8V116h-2.4v-3h0c-1.3,2.1-3.2,3.2-5.7,3.2c-3.4,0-5.6-2.1-5.6-4.9v-0.2
		c0-3.7,3.7-4.9,6.6-4.9h4.7V105.1z M1051.2,108.3c-1.8,0-4.2,0.6-4.2,2.8c0,1.9,1.6,3,3.6,3c3,0,5.2-2.1,5.2-5.2v-0.6H1051.2z"/>
	<path class="st4" d="M1075.8,106.2c0-3-1.5-5.1-4.7-5.1c-2.9,0-5,2.3-5,5.3v9.6h-2.5V99.1h2.4v3.1c1.3-2.3,3.3-3.4,5.8-3.4
		c4.1,0,6.4,2.8,6.4,6.7V116h-2.5V106.2z"/>
	<path class="st4" d="M1088.6,114.8l-7.7-15.7h2.8l6.2,13l5.8-13h2.6l-11.5,25.1h-2.6L1088.6,114.8z"/>
	<path class="st4" d="M1120,105.1c0-2.7-1.5-4.1-4.3-4.1c-2.8,0-4.1,1.8-4.4,3.4l-2.4-0.5c0.1-1.4,2-5.1,6.8-5.1
		c3.6,0,5.3,1.6,6.1,3.5c0.4,0.9,0.5,2.2,0.5,2.8V116h-2.4v-3h0c-1.3,2.1-3.2,3.2-5.7,3.2c-3.4,0-5.6-2.1-5.6-4.9v-0.2
		c0-3.7,3.7-4.9,6.6-4.9h4.7V105.1z M1115.3,108.3c-1.8,0-4.2,0.6-4.2,2.8c0,1.9,1.6,3,3.6,3c3,0,5.2-2.1,5.2-5.2v-0.6H1115.3z"/>
	<path class="st4" d="M1134.5,98.9c3.2,0,5.2,1.8,6.5,3.8V90.3h2.4V116h-2.4v-3.6c-1.3,2.1-3.3,3.8-6.6,3.8c-4.8,0-7.9-4.1-7.9-8.7
		C1126.6,103.2,1129.7,98.9,1134.5,98.9z M1141,107.5c0-3.3-2.6-6.5-6.1-6.5c-3.7,0-5.9,2.9-5.9,6.6c0,3.5,2.2,6.5,5.9,6.5
		C1138.5,114.1,1141,111,1141,107.5z"/>
	<path class="st4" d="M1155.7,98.9c3.2,0,5.2,1.8,6.5,3.8V90.3h2.4V116h-2.4v-3.6c-1.3,2.1-3.3,3.8-6.6,3.8c-4.8,0-7.9-4.1-7.9-8.7
		C1147.8,103.2,1150.9,98.9,1155.7,98.9z M1162.2,107.5c0-3.3-2.6-6.5-6.1-6.5c-3.7,0-5.9,2.9-5.9,6.6c0,3.5,2.2,6.5,5.9,6.5
		C1159.7,114.1,1162.2,111,1162.2,107.5z"/>
	<path class="st4" d="M1171.4,91.3c1,0,1.9,0.8,1.9,1.9c0,1-0.8,1.8-1.9,1.8c-1,0-1.8-0.8-1.8-1.8
		C1169.6,92.1,1170.4,91.3,1171.4,91.3z M1172.7,99.1V116h-2.5V99.1H1172.7z"/>
	<path class="st4" d="M1179.4,111.6v-10.3h-3.1v-2.2h3.1v-4.9h2.4v4.9h4.3v2.2h-4.3v10.2c0,1.5,0.9,2.4,2.7,2.4c0.5,0,1.1,0,1.5-0.1
		v2c-0.5,0.2-1.5,0.3-1.9,0.3C1180.5,116.1,1179.4,114.1,1179.4,111.6z"/>
	<path class="st4" d="M1191.4,91.3c1,0,1.9,0.8,1.9,1.9c0,1-0.8,1.8-1.9,1.8c-1,0-1.8-0.8-1.8-1.8
		C1189.6,92.1,1190.4,91.3,1191.4,91.3z M1192.7,99.1V116h-2.5V99.1H1192.7z"/>
	<path class="st4" d="M1197,107.6c0-5,3.7-8.8,8.7-8.8c4.9,0,8.7,3.8,8.7,8.6c0,5-3.8,8.8-8.7,8.8
		C1200.8,116.3,1197,112.4,1197,107.6z M1211.9,107.6c0-3.5-2.6-6.6-6.2-6.6c-3.7,0-6.1,3-6.1,6.5c0,3.5,2.5,6.6,6.2,6.6
		C1209.3,114.1,1211.9,111.1,1211.9,107.6z"/>
	<path class="st4" d="M1230.8,106.2c0-3-1.5-5.1-4.7-5.1c-2.9,0-5,2.3-5,5.3v9.6h-2.5V99.1h2.4v3.1c1.3-2.3,3.3-3.4,5.8-3.4
		c4.1,0,6.4,2.8,6.4,6.7V116h-2.5V106.2z"/>
	<path class="st4" d="M1248.8,105.1c0-2.7-1.5-4.1-4.3-4.1c-2.8,0-4.1,1.8-4.4,3.4l-2.4-0.5c0.1-1.4,2-5.1,6.8-5.1
		c3.6,0,5.3,1.6,6.1,3.5c0.4,0.9,0.5,2.2,0.5,2.8V116h-2.4v-3h0c-1.3,2.1-3.2,3.2-5.7,3.2c-3.4,0-5.6-2.1-5.6-4.9v-0.2
		c0-3.7,3.7-4.9,6.6-4.9h4.7V105.1z M1244.1,108.3c-1.8,0-4.2,0.6-4.2,2.8c0,1.9,1.6,3,3.6,3c3,0,5.2-2.1,5.2-5.2v-0.6H1244.1z"/>
	<path class="st4" d="M1259,90.3V116h-2.5V90.3H1259z"/>
	<path class="st4" d="M1284.8,106.1c0-2.8-1.3-5-4.3-5c-2.9,0-4.7,2.6-4.7,5.3v9.6h-2.5V99.1h2.4v2.9c1.4-2,2.9-3.2,5.4-3.2
		c2.5,0,4.4,1.2,5.4,3.4c1.4-2.2,3.3-3.3,5.9-3.3c4.1,0,6.2,2.8,6.2,6.7V116h-2.5v-9.8c0-2.8-1.3-5.1-4.3-5.1c-3,0-4.7,2.4-4.7,5.2
		v9.7h-2.4V106.1z"/>
	<path class="st4" d="M1305.3,108.3c0.2,3.3,2.7,5.8,6,5.8c2.5,0,4.4-1.2,5.2-3.6l2.2,0.7c-1,3.2-4,5.1-7.4,5.1
		c-4.9,0-8.5-3.9-8.5-8.7c0-4.6,3.5-8.7,8.2-8.7c5.2,0,7.9,3.7,7.9,8.6c0,0.3,0,0.6,0,0.8H1305.3z M1316.5,106.2
		c-0.3-3.1-2.2-5.2-5.5-5.2c-2.9,0-5.3,2.4-5.7,5.2H1316.5z"/>
	<path class="st4" d="M1333.3,105.1c0-2.7-1.5-4.1-4.3-4.1c-2.8,0-4.1,1.8-4.4,3.4l-2.4-0.5c0.1-1.4,2-5.1,6.8-5.1
		c3.6,0,5.3,1.6,6.1,3.5c0.4,0.9,0.5,2.2,0.5,2.8V116h-2.4v-3h0c-1.3,2.1-3.2,3.2-5.7,3.2c-3.4,0-5.6-2.1-5.6-4.9v-0.2
		c0-3.7,3.7-4.9,6.6-4.9h4.7V105.1z M1328.6,108.3c-1.8,0-4.2,0.6-4.2,2.8c0,1.9,1.6,3,3.6,3c3,0,5.2-2.1,5.2-5.2v-0.6H1328.6z"/>
	<path class="st4" d="M1346.2,116.3c-4.6,0-6.1-3.1-6.4-5l2.3-0.5c0.3,1.5,1.5,3.3,4.1,3.3c1.8,0,3.5-1,3.5-2.7c0-2-2.2-2.5-3.9-2.8
		c-2.8-0.4-5.5-1.4-5.5-4.7c0-3.2,2.9-5,5.6-5c4.4,0,5.9,3,6.1,4.6l-2.2,0.5c-0.3-1.1-1.2-3-3.9-3c-1.8,0-3.2,1.2-3.2,2.7
		c0,2.1,2.3,2.4,4,2.6c2.7,0.3,5.5,1.8,5.5,4.9C1352.2,114.3,1349.5,116.3,1346.2,116.3z"/>
	<path class="st4" d="M1358.8,108.9c0,3,1.5,5.1,4.7,5.1c2.9,0,5-2.3,5-5.3v-9.6h2.4V116h-2.4v-3.1c-1.3,2.3-3.3,3.4-5.8,3.4
		c-4.1,0-6.4-2.8-6.4-6.7V99.1h2.4V108.9z"/>
	<path class="st4" d="M1378.9,102.5c1.3-2.6,3.5-3.6,5.4-3.6c0.2,0,0.6,0,0.8,0v2.6c-0.3,0-0.6-0.1-0.9-0.1c-4,0-5.3,3.3-5.3,6.3
		v8.2h-2.5V99.1h2.4V102.5z"/>
	<path class="st4" d="M1389.1,108.3c0.2,3.3,2.7,5.8,6,5.8c2.5,0,4.4-1.2,5.2-3.6l2.2,0.7c-1,3.2-4,5.1-7.4,5.1
		c-4.9,0-8.5-3.9-8.5-8.7c0-4.6,3.5-8.7,8.2-8.7c5.2,0,7.9,3.7,7.9,8.6c0,0.3,0,0.6,0,0.8H1389.1z M1400.3,106.2
		c-0.3-3.1-2.2-5.2-5.5-5.2c-2.9,0-5.3,2.4-5.7,5.2H1400.3z"/>
	<path class="st4" d="M1412.1,116.3c-4.6,0-6.1-3.1-6.4-5l2.3-0.5c0.3,1.5,1.5,3.3,4.1,3.3c1.8,0,3.5-1,3.5-2.7c0-2-2.2-2.5-3.9-2.8
		c-2.8-0.4-5.5-1.4-5.5-4.7c0-3.2,2.9-5,5.6-5c4.4,0,5.9,3,6.1,4.6l-2.2,0.5c-0.3-1.1-1.2-3-3.9-3c-1.8,0-3.2,1.2-3.2,2.7
		c0,2.1,2.3,2.4,4,2.6c2.7,0.3,5.5,1.8,5.5,4.9C1418.1,114.3,1415.3,116.3,1412.1,116.3z"/>
	<path class="st4" d="M831.2,129.1c1,0,1.9,0.8,1.9,1.9c0,1-0.8,1.8-1.9,1.8c-1,0-1.8-0.8-1.8-1.8
		C829.4,129.9,830.2,129.1,831.2,129.1z M832.5,137v16.8H830V137H832.5z"/>
	<path class="st4" d="M850.2,144c0-3-1.5-5.1-4.7-5.1c-2.9,0-5,2.3-5,5.3v9.6h-2.5V137h2.4v3.1c1.3-2.3,3.3-3.4,5.8-3.4
		c4.1,0,6.4,2.8,6.4,6.7v10.4h-2.5V144z"/>
	<path class="st4" d="M875.7,154c-3.1,0-5.1-1.6-6.5-3.7v11.8h-2.5V137h2.4v3.7c1.4-2.1,3.3-3.9,6.5-3.9c4.8,0,7.9,4.3,7.9,8.7
		C883.6,149.9,880.5,154,875.7,154z M881.1,145.4c0-3.5-2.2-6.6-5.9-6.6c-3.5,0-6,3.1-6,6.5c0,3.5,2.5,6.6,6,6.6
		C878.9,151.9,881.1,149,881.1,145.4z"/>
	<path class="st4" d="M890.4,128.1v25.7H888v-25.7H890.4z"/>
	<path class="st4" d="M906.1,142.9c0-2.7-1.5-4.1-4.3-4.1c-2.8,0-4.1,1.8-4.4,3.4l-2.4-0.5c0.1-1.4,2-5.1,6.8-5.1
		c3.6,0,5.3,1.6,6.1,3.5c0.4,0.9,0.5,2.2,0.5,2.8v10.9h-2.4v-3h0c-1.3,2.1-3.2,3.2-5.7,3.2c-3.4,0-5.6-2.1-5.6-4.9v-0.2
		c0-3.7,3.7-4.9,6.6-4.9h4.7V142.9z M901.4,146.1c-1.8,0-4.2,0.6-4.2,2.8c0,1.9,1.6,3,3.6,3c3,0,5.2-2.1,5.2-5.2v-0.6H901.4z"/>
	<path class="st4" d="M921.3,151.9c3.7,0,5.1-2.8,5.6-4l2.3,0.8c-0.8,2.5-3.5,5.5-7.9,5.5c-4.9,0-8.6-3.6-8.6-8.6
		c0-5.1,3.9-8.8,8.7-8.8c3.9,0,7,2.5,7.7,5.4l-2.3,0.7c-0.4-1.3-2-3.9-5.5-3.9c-3.6,0-6.1,2.9-6.1,6.4
		C915.2,148.8,917.5,151.9,921.3,151.9z"/>
	<path class="st4" d="M934.5,146.1c0.2,3.3,2.7,5.8,6,5.8c2.5,0,4.4-1.2,5.2-3.6l2.2,0.7c-1,3.2-4,5.1-7.4,5.1
		c-4.9,0-8.5-3.9-8.5-8.7c0-4.6,3.5-8.7,8.2-8.7c5.2,0,7.9,3.7,7.9,8.6c0,0.3,0,0.6,0,0.8H934.5z M945.7,144
		c-0.3-3.1-2.2-5.2-5.5-5.2c-2.9,0-5.3,2.4-5.7,5.2H945.7z"/>
	<path class="st4" d="M971.3,142.9c0-2.7-1.5-4.1-4.3-4.1c-2.8,0-4.1,1.8-4.4,3.4l-2.4-0.5c0.1-1.4,2-5.1,6.8-5.1
		c3.6,0,5.3,1.6,6.1,3.5c0.4,0.9,0.5,2.2,0.5,2.8v10.9h-2.4v-3h0c-1.3,2.1-3.2,3.2-5.7,3.2c-3.4,0-5.6-2.1-5.6-4.9v-0.2
		c0-3.7,3.7-4.9,6.6-4.9h4.7V142.9z M966.6,146.1c-1.8,0-4.2,0.6-4.2,2.8c0,1.9,1.6,3,3.6,3c3,0,5.2-2.1,5.2-5.2v-0.6H966.6z"/>
	<path class="st4" d="M991.2,144c0-3-1.5-5.1-4.7-5.1c-2.9,0-5,2.3-5,5.3v9.6h-2.5v-25.7h2.5V140c1.3-2.2,3.3-3.3,5.8-3.3
		c4.1,0,6.4,2.8,6.4,6.7v10.4h-2.5V144z"/>
	<path class="st4" d="M1000.3,146.1c0.2,3.3,2.7,5.8,6,5.8c2.5,0,4.4-1.2,5.2-3.6l2.2,0.7c-1,3.2-4,5.1-7.4,5.1
		c-4.9,0-8.5-3.9-8.5-8.7c0-4.6,3.5-8.7,8.2-8.7c5.2,0,7.9,3.7,7.9,8.6c0,0.3,0,0.6,0,0.8H1000.3z M1011.4,144
		c-0.3-3.1-2.2-5.2-5.5-5.2c-2.9,0-5.3,2.4-5.7,5.2H1011.4z"/>
	<path class="st4" d="M1028.3,142.9c0-2.7-1.5-4.1-4.3-4.1c-2.8,0-4.1,1.8-4.4,3.4l-2.4-0.5c0.1-1.4,2-5.1,6.8-5.1
		c3.6,0,5.3,1.6,6.1,3.5c0.4,0.9,0.5,2.2,0.5,2.8v10.9h-2.4v-3h0c-1.3,2.1-3.2,3.2-5.7,3.2c-3.4,0-5.6-2.1-5.6-4.9v-0.2
		c0-3.7,3.7-4.9,6.6-4.9h4.7V142.9z M1023.6,146.1c-1.8,0-4.2,0.6-4.2,2.8c0,1.9,1.6,3,3.6,3c3,0,5.2-2.1,5.2-5.2v-0.6H1023.6z"/>
	<path class="st4" d="M1042.7,136.7c3.2,0,5.2,1.8,6.5,3.8v-12.4h2.4v25.7h-2.4v-3.6c-1.3,2.1-3.3,3.8-6.6,3.8
		c-4.8,0-7.9-4.1-7.9-8.7C1034.8,141,1037.9,136.7,1042.7,136.7z M1049.2,145.3c0-3.3-2.6-6.5-6.1-6.5c-3.7,0-5.9,2.9-5.9,6.6
		c0,3.5,2.2,6.5,5.9,6.5C1046.8,151.9,1049.2,148.8,1049.2,145.3z"/>
	<path class="st4" d="M1064.8,145.4c0-5,3.8-8.8,8.7-8.8c4.9,0,8.7,3.8,8.7,8.6c0,5-3.8,8.8-8.7,8.8
		C1068.6,154.1,1064.8,150.2,1064.8,145.4z M1079.7,145.4c0-3.5-2.6-6.6-6.2-6.6c-3.7,0-6.1,3-6.1,6.5c0,3.5,2.5,6.6,6.2,6.6
		C1077.1,151.9,1079.7,148.9,1079.7,145.4z"/>
	<path class="st4" d="M1089.9,133.8v3.2h4.4v2.1h-4.4v14.7h-2.5v-14.7h-3.2V137h3.2v-3.1c0-3.9,2.2-5.8,5.2-5.8
		c0.4,0,1.2,0.1,1.9,0.3v2.1c-0.7-0.2-1.4-0.2-1.8-0.2C1091.4,130.2,1089.9,130.9,1089.9,133.8z"/>
	<path class="st4" d="M1106.8,149.4v-10.3h-3.1V137h3.1v-4.9h2.4v4.9h4.3v2.2h-4.3v10.2c0,1.5,0.9,2.4,2.7,2.4c0.5,0,1.1,0,1.5-0.1
		v2c-0.5,0.2-1.5,0.3-1.9,0.3C1107.9,153.9,1106.8,151.9,1106.8,149.4z"/>
	<path class="st4" d="M1129.7,144c0-3-1.5-5.1-4.7-5.1c-2.9,0-5,2.3-5,5.3v9.6h-2.5v-25.7h2.5V140c1.3-2.2,3.3-3.3,5.8-3.3
		c4.1,0,6.4,2.8,6.4,6.7v10.4h-2.5V144z"/>
	<path class="st4" d="M1138.8,146.1c0.2,3.3,2.7,5.8,6,5.8c2.5,0,4.4-1.2,5.2-3.6l2.2,0.7c-1,3.2-4,5.1-7.4,5.1
		c-4.9,0-8.5-3.9-8.5-8.7c0-4.6,3.5-8.7,8.2-8.7c5.2,0,7.9,3.7,7.9,8.6c0,0.3,0,0.6,0,0.8H1138.8z M1149.9,144
		c-0.3-3.1-2.2-5.2-5.5-5.2c-2.9,0-5.3,2.4-5.7,5.2H1149.9z"/>
	<path class="st4" d="M1166.7,129.1c1,0,1.9,0.8,1.9,1.9c0,1-0.8,1.8-1.9,1.8c-1,0-1.8-0.8-1.8-1.8
		C1164.8,129.9,1165.7,129.1,1166.7,129.1z M1167.9,137v16.8h-2.5V137H1167.9z"/>
	<path class="st4" d="M1185.6,144c0-3-1.5-5.1-4.7-5.1c-2.9,0-5,2.3-5,5.3v9.6h-2.5V137h2.4v3.1c1.3-2.3,3.3-3.4,5.8-3.4
		c4.1,0,6.4,2.8,6.4,6.7v10.4h-2.5V144z"/>
	<path class="st4" d="M1194.4,149.4v-10.3h-3.1V137h3.1v-4.9h2.4v4.9h4.3v2.2h-4.3v10.2c0,1.5,0.9,2.4,2.7,2.4c0.5,0,1.1,0,1.5-0.1
		v2c-0.5,0.2-1.5,0.3-1.9,0.3C1195.5,153.9,1194.4,151.9,1194.4,149.4z"/>
	<path class="st4" d="M1207.6,140.3c1.3-2.6,3.5-3.6,5.4-3.6c0.2,0,0.6,0,0.8,0v2.6c-0.3,0-0.6-0.1-0.9-0.1c-4,0-5.3,3.3-5.3,6.3
		v8.2h-2.5V137h2.4V140.3z"/>
	<path class="st4" d="M1215.4,145.4c0-5,3.7-8.8,8.7-8.8c4.9,0,8.7,3.8,8.7,8.6c0,5-3.8,8.8-8.7,8.8
		C1219.1,154.1,1215.4,150.2,1215.4,145.4z M1230.2,145.4c0-3.5-2.6-6.6-6.2-6.6c-3.7,0-6.1,3-6.1,6.5c0,3.5,2.5,6.6,6.2,6.6
		C1227.7,151.9,1230.2,148.9,1230.2,145.4z"/>
	<path class="st4" d="M1243.7,136.7c3.2,0,5.2,1.8,6.5,3.8v-12.4h2.4v25.7h-2.4v-3.6c-1.3,2.1-3.3,3.8-6.6,3.8
		c-4.8,0-7.9-4.1-7.9-8.7C1235.9,141,1239,136.7,1243.7,136.7z M1250.3,145.3c0-3.3-2.6-6.5-6.1-6.5c-3.7,0-5.9,2.9-5.9,6.6
		c0,3.5,2.2,6.5,5.9,6.5C1247.8,151.9,1250.3,148.8,1250.3,145.3z"/>
	<path class="st4" d="M1260.5,146.8c0,3,1.5,5.1,4.7,5.1c2.9,0,5-2.3,5-5.3V137h2.4v16.8h-2.4v-3.1c-1.3,2.3-3.3,3.4-5.8,3.4
		c-4.1,0-6.4-2.8-6.4-6.7V137h2.4V146.8z"/>
	<path class="st4" d="M1285.6,151.9c3.7,0,5.1-2.8,5.6-4l2.3,0.8c-0.8,2.5-3.5,5.5-7.9,5.5c-4.9,0-8.6-3.6-8.6-8.6
		c0-5.1,3.9-8.8,8.7-8.8c3.9,0,7,2.5,7.7,5.4l-2.3,0.7c-0.4-1.3-2-3.9-5.5-3.9c-3.6,0-6.1,2.9-6.1,6.4
		C1279.5,148.8,1281.7,151.9,1285.6,151.9z"/>
	<path class="st4" d="M1298.5,149.4v-10.3h-3.1V137h3.1v-4.9h2.4v4.9h4.3v2.2h-4.3v10.2c0,1.5,0.9,2.4,2.7,2.4c0.5,0,1.1,0,1.5-0.1
		v2c-0.5,0.2-1.5,0.3-1.9,0.3C1299.6,153.9,1298.5,151.9,1298.5,149.4z"/>
	<path class="st4" d="M1310.6,129.1c1,0,1.9,0.8,1.9,1.9c0,1-0.8,1.8-1.9,1.8c-1,0-1.8-0.8-1.8-1.8
		C1308.7,129.9,1309.6,129.1,1310.6,129.1z M1311.8,137v16.8h-2.5V137H1311.8z"/>
	<path class="st4" d="M1316.1,145.4c0-5,3.8-8.8,8.7-8.8c4.9,0,8.7,3.8,8.7,8.6c0,5-3.8,8.8-8.7,8.8
		C1319.9,154.1,1316.1,150.2,1316.1,145.4z M1331,145.4c0-3.5-2.6-6.6-6.2-6.6c-3.7,0-6.1,3-6.1,6.5c0,3.5,2.5,6.6,6.2,6.6
		C1328.5,151.9,1331,148.9,1331,145.4z"/>
	<path class="st4" d="M1350,144c0-3-1.5-5.1-4.7-5.1c-2.9,0-5,2.3-5,5.3v9.6h-2.5V137h2.4v3.1c1.3-2.3,3.3-3.4,5.8-3.4
		c4.1,0,6.4,2.8,6.4,6.7v10.4h-2.5V144z"/>
	<path class="st4" d="M828.8,183.2c0-5,3.7-8.8,8.7-8.8c4.9,0,8.7,3.8,8.7,8.6c0,5-3.8,8.8-8.7,8.8
		C832.6,191.9,828.8,188,828.8,183.2z M843.7,183.2c0-3.5-2.6-6.6-6.2-6.6c-3.7,0-6.1,3-6.1,6.5c0,3.5,2.5,6.6,6.2,6.6
		C841.1,189.7,843.7,186.7,843.7,183.2z"/>
	<path class="st4" d="M853.9,171.6v3.2h4.4v2.1h-4.4v14.7h-2.5v-14.7h-3.2v-2.1h3.2v-3.1c0-3.9,2.2-5.8,5.2-5.8
		c0.4,0,1.2,0.1,1.9,0.3v2.1c-0.7-0.2-1.4-0.2-1.8-0.2C855.4,168,853.9,168.7,853.9,171.6z"/>
	<path class="st4" d="M870.8,187.2v-10.3h-3.1v-2.2h3.1v-4.9h2.4v4.9h4.3v2.2h-4.3v10.2c0,1.5,0.9,2.4,2.7,2.4c0.5,0,1.1,0,1.5-0.1
		v2c-0.5,0.2-1.5,0.3-1.9,0.3C871.9,191.7,870.8,189.7,870.8,187.2z"/>
	<path class="st4" d="M893.8,181.8c0-3-1.5-5.1-4.7-5.1c-2.9,0-5,2.3-5,5.3v9.6h-2.5v-25.7h2.5v11.8c1.3-2.2,3.3-3.3,5.8-3.3
		c4.1,0,6.4,2.8,6.4,6.7v10.4h-2.5V181.8z"/>
	<path class="st4" d="M902.8,183.9c0.2,3.3,2.7,5.8,6,5.8c2.5,0,4.4-1.2,5.2-3.6l2.2,0.7c-1,3.2-4,5.1-7.4,5.1
		c-4.9,0-8.5-3.9-8.5-8.7c0-4.6,3.5-8.7,8.2-8.7c5.2,0,7.9,3.7,7.9,8.6c0,0.3,0,0.6,0,0.8H902.8z M914,181.9
		c-0.3-3.1-2.2-5.2-5.5-5.2c-2.9,0-5.3,2.4-5.7,5.2H914z"/>
	<path class="st4" d="M949.2,174.9c-0.6-2-3-5.8-8.5-5.8c-5.6,0-9.6,4.7-9.6,10.1c0,5.6,3.7,10.2,9.7,10.2c4.4,0,8.4-2.7,8.7-7.4
		h-10.3v-2.4h13.1v0.9c0,6.2-4.3,11.3-11.5,11.3c-7.5,0-12.3-5.5-12.3-12.5c0-7.1,5.3-12.7,12.4-12.7c6,0,9.6,3.5,10.9,7.3
		L949.2,174.9z"/>
	<path class="st4" d="M964.5,166.9c7.7,0,13,5.3,13,12.3c0,7.3-5.8,12.4-13,12.4h-7.3v-24.7H964.5z M964.4,189.2
		c6.2,0,10.4-4.1,10.4-9.9c0-5.7-4-9.9-10.5-9.9h-4.6v19.8H964.4z"/>
	<path class="st4" d="M985.2,191.6h-2.6v-24.7h8.3c6,0,8.7,3.6,8.7,7.4c0,4.2-3.1,7.6-9.1,7.6h-5.2V191.6z M985.2,179.6h5.3
		c4.5,0,6.4-2.6,6.4-5.1c0-2.4-1.4-5.1-6.2-5.1h-5.5V179.6z"/>
	<path class="st4" d="M1011.7,181.6h-5v10h-2.6v-24.7h8.5c6,0,8.7,3.3,8.7,7.2c0,4.2-3.1,6.6-6.8,7.1l7.6,10.4h-3.2L1011.7,181.6z
		 M1012.4,179.2c4.5,0,6.3-2.6,6.3-5c0-2.4-1.5-4.9-6.2-4.9h-5.8v9.9H1012.4z"/>
	<path class="st4" d="M1036.1,166.9c1,0,1.9,0.8,1.9,1.9c0,1-0.8,1.8-1.9,1.8c-1,0-1.8-0.8-1.8-1.8
		C1034.3,167.7,1035.1,166.9,1036.1,166.9z M1037.4,174.8v16.8h-2.5v-16.8H1037.4z"/>
	<path class="st4" d="M1055,181.8c0-3-1.5-5.1-4.7-5.1c-2.9,0-5,2.3-5,5.3v9.6h-2.5v-16.8h2.4v3.1c1.3-2.3,3.3-3.4,5.8-3.4
		c4.1,0,6.4,2.8,6.4,6.7v10.4h-2.5V181.8z"/>
	<path class="st4" d="M1098,191.6h-2.6v-21.1h0l-9.2,21.1h-2.3l-9.1-21v21h-2.6v-24.7h3.7l9.2,21.1l9.1-21.1h3.7V191.6z"/>
	<path class="st4" d="M1114.4,180.8c0-2.7-1.5-4.1-4.3-4.1c-2.8,0-4.1,1.8-4.4,3.4l-2.4-0.5c0.1-1.4,2-5.1,6.8-5.1
		c3.6,0,5.3,1.6,6.1,3.5c0.4,0.9,0.5,2.2,0.5,2.8v10.9h-2.4v-3h0c-1.3,2.1-3.2,3.2-5.7,3.2c-3.4,0-5.6-2.1-5.6-4.9v-0.2
		c0-3.7,3.7-4.9,6.6-4.9h4.7V180.8z M1109.7,183.9c-1.8,0-4.2,0.6-4.2,2.8c0,1.9,1.6,3,3.6,3c3,0,5.2-2.1,5.2-5.2v-0.6H1109.7z"/>
	<path class="st4" d="M1127.1,190.5l-7.7-15.7h2.8l6.2,13l5.8-13h2.6l-11.5,25.1h-2.6L1127.1,190.5z"/>
	<path class="st4" d="M1147.4,190.8c0-2.9,1.3-6,5.7-8.7l3.7-2.3c2.4-1.4,4.3-3,4.3-5.9c0-2.5-2.2-4.9-5.4-4.9
		c-2.7,0-4.4,1.6-5.1,3.2c-0.4,1-0.5,2-0.5,2.4l-2.6-0.4c0-3.5,3-7.6,8.2-7.6c4.6,0,8,3.5,8,7.3c0,3.5-2,5.6-5.2,7.6l-3.9,2.4
		c-2.1,1.3-4.1,3.1-4.3,5.3h13.6v2.4h-16.7V190.8z"/>
	<path class="st4" d="M1167.7,179.3c0-6.1,3.5-12.7,10.3-12.7c6.8,0,10.2,6.4,10.2,12.5c0,6.1-3.5,12.6-10.3,12.6
		C1171.1,191.8,1167.7,185.5,1167.7,179.3z M1170.4,179.2c0,4.4,2.2,10.3,7.6,10.3c5.3,0,7.6-5.7,7.6-10.1s-2.3-10.3-7.6-10.3
		S1170.4,174.8,1170.4,179.2z"/>
	<path class="st4" d="M1197.6,169.7l-5.9,3.5l-1.2-2l7.2-4.3h2.5v24.7h-2.6V169.7z"/>
	<path class="st4" d="M1205.5,184.9c0-2.6,1.8-4.9,5.2-6c-3.1-0.9-4.6-3.5-4.6-5.6c0-4.3,4.4-6.6,8.1-6.6c3.7,0,8.1,2.2,8.1,6.6
		c0,2.3-1.7,4.8-4.6,5.6c3.4,1,5.2,3.4,5.2,6c0,4.5-4.4,7-8.7,7C1209.9,191.8,1205.5,189.5,1205.5,184.9z M1220.2,184.9
		c0-3.2-3.4-4.8-6-4.8c-2.6,0-6.1,1.5-6.1,4.7c0,3.3,3.4,4.7,6.1,4.7C1216.7,189.5,1220.2,188.1,1220.2,184.9z M1208.6,173.3
		c0,3.1,3.4,4.5,5.5,4.5c2.1,0,5.5-1.5,5.5-4.5c0-2.9-3.1-4.3-5.5-4.3C1211.8,169,1208.6,170.5,1208.6,173.3z"/>
	<path class="st4" d="M1231.6,184.4c0-0.2,0-0.4,0-0.6c0-2.9,1.8-4.3,3.2-5.8c1.4-1.5,3.1-2.8,3.1-5c0-2-1.4-4-4.6-4
		c-3.2,0-4.9,2.3-4.7,5.4l-2.5-0.1c0-0.3,0-0.5,0-0.7c0-4.1,3.4-6.9,7.3-6.9c4.4,0,7.2,3.1,7.2,6.5c0,2.5-1.5,4-3.7,6.2
		c-1.6,1.6-2.7,2.6-2.8,5.1H1231.6z M1232.7,191.9c1,0,1.8-0.8,1.8-1.9c0-1-0.8-1.8-1.8-1.8c-1,0-1.9,0.8-1.9,1.8
		C1230.8,191.1,1231.7,191.9,1232.7,191.9z"/>
</g>
</svg>
