<?xml version="1.0" encoding="utf-8"?>
<!-- Generator: Adobe Illustrator 21.1.0, SVG Export Plug-In . SVG Version: 6.00 Build 0)  -->
<svg version="1.1" id="graphNineCyber" xmlns="http://www.w3.org/2000/svg" xmlns:xlink="http://www.w3.org/1999/xlink" x="0px"
	 y="0px" viewBox="0 0 1500 1053" style="enable-background:new 0 0 1500 1053;" xml:space="preserve">
<style type="text/css">
	.st0{fill:#F6F6F8;}
	.st1{opacity:0.9;}
	.st2{fill:#FF8F4E;}
	.st3{fill:#8EFFDE;}
	.st4{fill:none;stroke:#000000;stroke-miterlimit:10;}
	.st5{fill:#FFFFFF;}
	.st6{fill:none;stroke:#FF8F4E;stroke-miterlimit:10;}
</style>
<rect x="-26.1" y="-18.3" class="st0" width="1552.1" height="1089.6"/>
<g class="st1">
	<rect x="1647.9" y="-18.3" class="st2" width="1552.1" height="1089.6"/>
</g>
<rect x="-26.1" y="1150.2" class="st0" width="1552.1" height="1089.6"/>
<g>
	<g>
		<path d="M831.2,122.5l-3.2,1.9l-0.6-1.1l3.9-2.3h1.4v13.4h-1.4V122.5z"/>
		<path d="M843.6,127.8c-0.9,1.4-2.7,2-3.8,2c-2.8,0-4.4-2.1-4.4-4.3c0-3.1,2.4-4.6,4.7-4.6c1.5,0,3.1,0.8,3.9,2.3
			c0.6,1.2,0.9,2.2,0.9,3.8c0,4.3-2.1,7.6-6.2,7.6c-0.7,0-2.2-0.2-3.1-0.8l0.5-1.3c0.9,0.5,2,0.7,2.5,0.7
			C841.7,133.2,843.4,130.9,843.6,127.8z M842.3,127.7c0.7-0.5,1.1-1.4,1.1-2.4c0-2-1.6-3.2-3.3-3.2c-1.7,0-3.3,1.1-3.3,3.2
			c0,1.6,1.2,3.1,3.3,3.1C840.9,128.6,841.7,128.2,842.3,127.7z"/>
		<path d="M855.3,133.7v10.5h-2.4v-22.9h2.4v10.1h13v-10.1h2.4v22.9h-2.4v-10.5H855.3z"/>
		<path d="M886,134.1c0-2.5-1.4-3.8-4-3.8c-2.6,0-3.8,1.7-4.1,3.2l-2.2-0.5c0.1-1.3,1.9-4.7,6.3-4.7c3.3,0,4.9,1.5,5.7,3.2
			c0.4,0.8,0.5,2.1,0.5,2.6v10.1H886v-2.7h0c-1.2,1.9-2.9,3-5.3,3c-3.2,0-5.2-2-5.2-4.6v-0.2c0-3.4,3.4-4.5,6.2-4.5h4.3V134.1z
			 M881.6,137c-1.7,0-3.9,0.5-3.9,2.6c0,1.8,1.5,2.7,3.4,2.7c2.8,0,4.9-2,4.9-4.8V137H881.6z"/>
		<path d="M890.8,128.5h2.5l5.4,13.1l5.4-13.1h2.4l-6.7,15.6h-2.4L890.8,128.5z"/>
		<path d="M910.4,137c0.2,3,2.5,5.4,5.6,5.4c2.3,0,4.1-1.1,4.8-3.3l2,0.6c-0.9,3-3.7,4.7-6.8,4.7c-4.5,0-7.9-3.6-7.9-8.1
			c0-4.2,3.2-8,7.6-8c4.8,0,7.4,3.5,7.4,8c0,0.3,0,0.5,0,0.8H910.4z M920.8,135.1c-0.3-2.8-2.1-4.9-5.1-4.9c-2.7,0-4.9,2.3-5.3,4.9
			H920.8z"/>
		<path d="M939.7,143.1l-7.1-14.6h2.6l5.7,12.1l5.4-12.1h2.5l-10.7,23.3h-2.5L939.7,143.1z"/>
		<path d="M950.2,136.4c0-4.6,3.5-8.1,8.1-8.1c4.5,0,8,3.5,8,8c0,4.6-3.5,8.1-8.1,8.1C953.7,144.4,950.2,140.8,950.2,136.4z
			 M964,136.4c0-3.3-2.4-6.1-5.8-6.1c-3.4,0-5.7,2.8-5.7,6c0,3.3,2.3,6.1,5.8,6.1C961.6,142.4,964,139.6,964,136.4z"/>
		<path d="M972.4,137.6c0,2.8,1.4,4.7,4.3,4.7c2.7,0,4.7-2.1,4.7-4.9v-8.9h2.3v15.6h-2.2v-2.9c-1.2,2.1-3.1,3.2-5.4,3.2
			c-3.8,0-5.9-2.6-5.9-6.3v-9.7h2.3V137.6z"/>
		<path d="M1005.3,144.4c-2.9,0-4.8-1.5-6-3.5v10.9H997v-23.3h2.3v3.4c1.3-2,3.1-3.7,6.1-3.7c4.4,0,7.3,4,7.3,8
			C1012.6,140.5,1009.7,144.4,1005.3,144.4z M1010.3,136.4c0-3.2-2-6.1-5.5-6.1c-3.2,0-5.6,2.9-5.6,6c0,3.2,2.3,6.1,5.6,6.1
			C1008.3,142.4,1010.3,139.7,1010.3,136.4z"/>
		<path d="M1018.7,137.6c0,2.8,1.4,4.7,4.3,4.7c2.7,0,4.7-2.1,4.7-4.9v-8.9h2.3v15.6h-2.2v-2.9c-1.2,2.1-3.1,3.2-5.4,3.2
			c-3.8,0-5.9-2.6-5.9-6.3v-9.7h2.3V137.6z"/>
		<path d="M1036.2,140.1v-9.6h-2.9v-2h2.9V124h2.3v4.5h3.9v2h-3.9v9.5c0,1.4,0.8,2.2,2.5,2.2c0.5,0,1.1,0,1.4-0.1v1.9
			c-0.5,0.1-1.4,0.2-1.8,0.2C1037.2,144.3,1036.2,142.4,1036.2,140.1z"/>
		<path d="M1063.8,134.1c0-2.5-1.4-3.8-4-3.8c-2.6,0-3.8,1.7-4.1,3.2l-2.2-0.5c0.1-1.3,1.9-4.7,6.3-4.7c3.3,0,4.9,1.5,5.7,3.2
			c0.3,0.8,0.5,2.1,0.5,2.6v10.1h-2.2v-2.7h0c-1.2,1.9-2.9,3-5.3,3c-3.2,0-5.2-2-5.2-4.6v-0.2c0-3.4,3.4-4.5,6.2-4.5h4.3V134.1z
			 M1059.5,137c-1.7,0-3.9,0.5-3.9,2.6c0,1.8,1.5,2.7,3.4,2.7c2.8,0,4.9-2,4.9-4.8V137H1059.5z"/>
		<path d="M1082.3,135c0-2.8-1.4-4.7-4.3-4.7c-2.7,0-4.7,2.2-4.7,4.9v8.9h-2.3v-15.6h2.3v2.9c1.2-2.1,3.1-3.2,5.4-3.2
			c3.8,0,5.9,2.6,5.9,6.3v9.7h-2.3V135z"/>
		<path d="M1094.1,143.1l-7.1-14.6h2.6l5.7,12.1l5.4-12.1h2.5l-10.7,23.3h-2.5L1094.1,143.1z"/>
		<path d="M1123.4,134.1c0-2.5-1.4-3.8-4-3.8c-2.6,0-3.8,1.7-4.1,3.2l-2.2-0.5c0.1-1.3,1.9-4.7,6.3-4.7c3.3,0,4.9,1.5,5.7,3.2
			c0.3,0.8,0.5,2.1,0.5,2.6v10.1h-2.2v-2.7h0c-1.2,1.9-2.9,3-5.3,3c-3.2,0-5.2-2-5.2-4.6v-0.2c0-3.4,3.4-4.5,6.2-4.5h4.3V134.1z
			 M1119,137c-1.7,0-3.9,0.5-3.9,2.6c0,1.8,1.5,2.7,3.4,2.7c2.8,0,4.9-2,4.9-4.8V137H1119z"/>
		<path d="M1136.8,128.3c3,0,4.8,1.7,6.1,3.5v-11.5h2.3v23.8h-2.2v-3.3c-1.2,2-3.1,3.6-6.1,3.6c-4.5,0-7.3-3.8-7.3-8.1
			C1129.4,132.2,1132.3,128.3,1136.8,128.3z M1142.8,136.3c0-3.1-2.4-6-5.6-6c-3.4,0-5.5,2.7-5.5,6.1c0,3.2,2,6,5.5,6
			C1140.5,142.4,1142.8,139.5,1142.8,136.3z"/>
		<path d="M1156.4,128.3c3,0,4.8,1.7,6.1,3.5v-11.5h2.3v23.8h-2.2v-3.3c-1.2,2-3.1,3.6-6.1,3.6c-4.5,0-7.3-3.8-7.3-8.1
			C1149.1,132.2,1152,128.3,1156.4,128.3z M1162.5,136.3c0-3.1-2.4-6-5.6-6c-3.4,0-5.5,2.7-5.5,6.1c0,3.2,2,6,5.5,6
			C1160.2,142.4,1162.5,139.5,1162.5,136.3z"/>
		<path d="M1171.1,121.2c1,0,1.7,0.8,1.7,1.7c0,0.9-0.8,1.7-1.7,1.7c-0.9,0-1.7-0.8-1.7-1.7C1169.4,122,1170.1,121.2,1171.1,121.2z
			 M1172.2,128.5v15.6h-2.3v-15.6H1172.2z"/>
		<path d="M1178.4,140.1v-9.6h-2.9v-2h2.9V124h2.3v4.5h3.9v2h-3.9v9.5c0,1.4,0.8,2.2,2.5,2.2c0.5,0,1.1,0,1.4-0.1v1.9
			c-0.5,0.1-1.4,0.2-1.8,0.2C1179.5,144.3,1178.4,142.4,1178.4,140.1z"/>
		<path d="M1189.6,121.2c1,0,1.7,0.8,1.7,1.7c0,0.9-0.8,1.7-1.7,1.7c-0.9,0-1.7-0.8-1.7-1.7C1187.9,122,1188.7,121.2,1189.6,121.2z
			 M1190.8,128.5v15.6h-2.3v-15.6H1190.8z"/>
		<path d="M1194.8,136.4c0-4.6,3.5-8.1,8.1-8.1c4.5,0,8,3.5,8,8c0,4.6-3.5,8.1-8.1,8.1C1198.3,144.4,1194.8,140.8,1194.8,136.4z
			 M1208.6,136.4c0-3.3-2.4-6.1-5.8-6.1c-3.4,0-5.7,2.8-5.7,6c0,3.3,2.3,6.1,5.8,6.1C1206.2,142.4,1208.6,139.6,1208.6,136.4z"/>
		<path d="M1226.2,135c0-2.8-1.4-4.7-4.3-4.7c-2.7,0-4.7,2.2-4.7,4.9v8.9h-2.3v-15.6h2.3v2.9c1.2-2.1,3.1-3.2,5.4-3.2
			c3.8,0,5.9,2.6,5.9,6.3v9.7h-2.3V135z"/>
		<path d="M1242.9,134.1c0-2.5-1.4-3.8-4-3.8c-2.6,0-3.8,1.7-4.1,3.2l-2.2-0.5c0.1-1.3,1.9-4.7,6.3-4.7c3.3,0,4.9,1.5,5.7,3.2
			c0.4,0.8,0.5,2.1,0.5,2.6v10.1h-2.2v-2.7h0c-1.2,1.9-2.9,3-5.3,3c-3.2,0-5.2-2-5.2-4.6v-0.2c0-3.4,3.4-4.5,6.2-4.5h4.3V134.1z
			 M1238.5,137c-1.7,0-3.9,0.5-3.9,2.6c0,1.8,1.5,2.7,3.4,2.7c2.8,0,4.9-2,4.9-4.8V137H1238.5z"/>
		<path d="M1252.4,120.3v23.8h-2.3v-23.8H1252.4z"/>
		<path d="M1276.3,135c0-2.6-1.2-4.7-4-4.7c-2.7,0-4.3,2.4-4.3,4.9v8.9h-2.3v-15.6h2.3v2.7c1.3-1.9,2.7-3,5-3c2.3,0,4.1,1.1,5,3.1
			c1.3-2,3-3.1,5.5-3.1c3.8,0,5.8,2.6,5.8,6.2v9.7h-2.3V135c0-2.6-1.2-4.7-4-4.7c-2.7,0-4.3,2.2-4.3,4.8v9h-2.3V135z"/>
		<path d="M1295.4,137c0.2,3,2.5,5.4,5.6,5.4c2.3,0,4.1-1.1,4.8-3.3l2,0.6c-0.9,3-3.7,4.7-6.8,4.7c-4.5,0-7.9-3.6-7.9-8.1
			c0-4.2,3.2-8,7.6-8c4.8,0,7.4,3.5,7.4,8c0,0.3,0,0.5,0,0.8H1295.4z M1305.7,135.1c-0.3-2.8-2.1-4.9-5.1-4.9
			c-2.7,0-4.9,2.3-5.3,4.9H1305.7z"/>
		<path d="M1321.4,134.1c0-2.5-1.4-3.8-4-3.8c-2.6,0-3.8,1.7-4.1,3.2l-2.2-0.5c0.1-1.3,1.9-4.7,6.3-4.7c3.3,0,4.9,1.5,5.7,3.2
			c0.4,0.8,0.5,2.1,0.5,2.6v10.1h-2.2v-2.7h0c-1.2,1.9-2.9,3-5.3,3c-3.2,0-5.2-2-5.2-4.6v-0.2c0-3.4,3.4-4.5,6.2-4.5h4.3V134.1z
			 M1317,137c-1.7,0-3.9,0.5-3.9,2.6c0,1.8,1.5,2.7,3.4,2.7c2.8,0,4.9-2,4.9-4.8V137H1317z"/>
		<path d="M1333.3,144.4c-4.2,0-5.6-2.9-5.9-4.6l2.1-0.5c0.3,1.4,1.4,3.1,3.8,3.1c1.7,0,3.2-0.9,3.2-2.5c0-1.9-2-2.3-3.7-2.6
			c-2.6-0.4-5.1-1.3-5.1-4.4c0-2.9,2.7-4.7,5.2-4.7c4.1,0,5.4,2.7,5.7,4.2l-2.1,0.5c-0.3-1.1-1.1-2.8-3.6-2.8c-1.7,0-3,1.1-3,2.5
			c0,2,2.1,2.3,3.7,2.5c2.5,0.3,5.1,1.7,5.1,4.5C1338.8,142.6,1336.3,144.4,1333.3,144.4z"/>
		<path d="M1345,137.6c0,2.8,1.4,4.7,4.3,4.7c2.7,0,4.7-2.1,4.7-4.9v-8.9h2.3v15.6h-2.2v-2.9c-1.2,2.1-3.1,3.2-5.4,3.2
			c-3.8,0-5.9-2.6-5.9-6.3v-9.7h2.3V137.6z"/>
		<path d="M1363.6,131.6c1.2-2.4,3.2-3.3,5-3.3c0.1,0,0.6,0,0.8,0v2.4c-0.3,0-0.6-0.1-0.9-0.1c-3.7,0-4.9,3-4.9,5.8v7.6h-2.3v-15.6
			h2.3V131.6z"/>
		<path d="M1373.1,137c0.2,3,2.5,5.4,5.6,5.4c2.3,0,4.1-1.1,4.8-3.3l2,0.6c-0.9,3-3.7,4.7-6.8,4.7c-4.5,0-7.9-3.6-7.9-8.1
			c0-4.2,3.2-8,7.6-8c4.8,0,7.4,3.5,7.4,8c0,0.3,0,0.5,0,0.8H1373.1z M1383.5,135.1c-0.3-2.8-2.1-4.9-5.1-4.9
			c-2.7,0-4.9,2.3-5.3,4.9H1383.5z"/>
		<path d="M1394.5,144.4c-4.2,0-5.6-2.9-5.9-4.6l2.1-0.5c0.3,1.4,1.4,3.1,3.8,3.1c1.7,0,3.2-0.9,3.2-2.5c0-1.9-2-2.3-3.7-2.6
			c-2.6-0.4-5.1-1.3-5.1-4.4c0-2.9,2.7-4.7,5.2-4.7c4.1,0,5.4,2.7,5.7,4.2l-2.1,0.5c-0.3-1.1-1.1-2.8-3.6-2.8c-1.7,0-3,1.1-3,2.5
			c0,2,2.1,2.3,3.7,2.5c2.5,0.3,5.1,1.7,5.1,4.5C1400,142.6,1397.5,144.4,1394.5,144.4z"/>
		<path d="M857.7,156.3c1,0,1.7,0.8,1.7,1.7c0,0.9-0.8,1.7-1.7,1.7c-0.9,0-1.7-0.8-1.7-1.7C856,157.1,856.8,156.3,857.7,156.3z
			 M858.9,163.6v15.6h-2.3v-15.6H858.9z"/>
		<path d="M875.3,170.1c0-2.8-1.4-4.7-4.3-4.7c-2.7,0-4.7,2.2-4.7,4.9v8.9H864v-15.6h2.3v2.9c1.2-2.1,3.1-3.2,5.4-3.2
			c3.8,0,5.9,2.6,5.9,6.3v9.7h-2.3V170.1z"/>
		<path d="M899,179.5c-2.9,0-4.8-1.5-6-3.5v10.9h-2.3v-23.3h2.3v3.4c1.3-2,3.1-3.7,6.1-3.7c4.4,0,7.3,4,7.3,8
			C906.3,175.6,903.4,179.5,899,179.5z M904,171.5c0-3.2-2-6.1-5.5-6.1c-3.2,0-5.6,2.9-5.6,6c0,3.2,2.3,6.1,5.6,6.1
			C902,177.5,904,174.8,904,171.5z"/>
		<path d="M912.7,155.4v23.8h-2.3v-23.8H912.7z"/>
		<path d="M927.2,169.2c0-2.5-1.4-3.8-4-3.8c-2.6,0-3.8,1.7-4.1,3.2l-2.2-0.5c0.1-1.3,1.9-4.7,6.3-4.7c3.3,0,4.9,1.5,5.7,3.2
			c0.4,0.8,0.5,2.1,0.5,2.6v10.1h-2.2v-2.7h0c-1.2,1.9-2.9,3-5.3,3c-3.2,0-5.2-2-5.2-4.6v-0.2c0-3.4,3.4-4.5,6.2-4.5h4.3V169.2z
			 M922.9,172.1c-1.7,0-3.9,0.5-3.9,2.6c0,1.8,1.5,2.7,3.4,2.7c2.8,0,4.9-2,4.9-4.8v-0.6H922.9z"/>
		<path d="M941.3,177.5c3.5,0,4.8-2.6,5.2-3.7l2.1,0.7c-0.7,2.3-3.3,5.1-7.4,5.1c-4.5,0-8-3.3-8-8c0-4.7,3.7-8.1,8.1-8.1
			c3.6,0,6.5,2.3,7.2,5l-2.1,0.7c-0.4-1.2-1.9-3.6-5.1-3.6c-3.3,0-5.6,2.7-5.6,6C935.6,174.6,937.7,177.5,941.3,177.5z"/>
		<path d="M953.6,172.1c0.2,3,2.5,5.4,5.6,5.4c2.3,0,4.1-1.1,4.8-3.3l2,0.6c-0.9,3-3.7,4.7-6.8,4.7c-4.5,0-7.9-3.6-7.9-8.1
			c0-4.2,3.2-8,7.6-8c4.8,0,7.4,3.5,7.4,8c0,0.3,0,0.5,0,0.8H953.6z M963.9,170.2c-0.3-2.8-2.1-4.9-5.1-4.9c-2.7,0-4.9,2.3-5.3,4.9
			H963.9z"/>
		<path d="M987.7,169.2c0-2.5-1.4-3.8-4-3.8c-2.6,0-3.8,1.7-4.1,3.2l-2.2-0.5c0.1-1.3,1.9-4.7,6.3-4.7c3.3,0,4.9,1.5,5.7,3.2
			c0.4,0.8,0.5,2.1,0.5,2.6v10.1h-2.2v-2.7h0c-1.2,1.9-2.9,3-5.3,3c-3.2,0-5.2-2-5.2-4.6v-0.2c0-3.4,3.4-4.5,6.2-4.5h4.3V169.2z
			 M983.4,172.1c-1.7,0-3.9,0.5-3.9,2.6c0,1.8,1.5,2.7,3.4,2.7c2.8,0,4.9-2,4.9-4.8v-0.6H983.4z"/>
		<path d="M1006.2,170.1c0-2.8-1.4-4.7-4.3-4.7c-2.7,0-4.7,2.2-4.7,4.9v8.9h-2.3v-23.8h2.3v11c1.2-2,3-3.1,5.4-3.1
			c3.8,0,5.9,2.6,5.9,6.3v9.7h-2.3V170.1z"/>
		<path d="M1014.6,172.1c0.2,3,2.5,5.4,5.6,5.4c2.3,0,4.1-1.1,4.8-3.3l2,0.6c-0.9,3-3.7,4.7-6.8,4.7c-4.5,0-7.9-3.6-7.9-8.1
			c0-4.2,3.2-8,7.6-8c4.8,0,7.4,3.5,7.4,8c0,0.3,0,0.5,0,0.8H1014.6z M1024.9,170.2c-0.3-2.8-2.1-4.9-5.1-4.9
			c-2.7,0-4.9,2.3-5.3,4.9H1024.9z"/>
		<path d="M1040.6,169.2c0-2.5-1.4-3.8-4-3.8c-2.6,0-3.8,1.7-4.1,3.2l-2.2-0.5c0.1-1.3,1.9-4.7,6.3-4.7c3.3,0,4.9,1.5,5.7,3.2
			c0.4,0.8,0.5,2.1,0.5,2.6v10.1h-2.2v-2.7h0c-1.2,1.9-2.9,3-5.3,3c-3.2,0-5.2-2-5.2-4.6v-0.2c0-3.4,3.4-4.5,6.2-4.5h4.3V169.2z
			 M1036.2,172.1c-1.7,0-3.9,0.5-3.9,2.6c0,1.8,1.5,2.7,3.4,2.7c2.8,0,4.9-2,4.9-4.8v-0.6H1036.2z"/>
		<path d="M1054,163.4c3,0,4.8,1.7,6.1,3.5v-11.5h2.3v23.8h-2.2v-3.3c-1.2,2-3.1,3.6-6.1,3.6c-4.5,0-7.3-3.8-7.3-8.1
			C1046.7,167.3,1049.6,163.4,1054,163.4z M1060.1,171.4c0-3.1-2.4-6-5.6-6c-3.4,0-5.5,2.7-5.5,6.1c0,3.2,2,6,5.5,6
			C1057.7,177.5,1060.1,174.6,1060.1,171.4z"/>
		<path d="M1074.5,171.5c0-4.6,3.5-8.1,8.1-8.1c4.5,0,8,3.5,8,8c0,4.6-3.5,8.1-8.1,8.1C1078,179.5,1074.5,175.9,1074.5,171.5z
			 M1088.3,171.5c0-3.3-2.4-6.1-5.8-6.1c-3.4,0-5.7,2.8-5.7,6c0,3.3,2.3,6.1,5.8,6.1C1085.9,177.5,1088.3,174.7,1088.3,171.5z"/>
		<path d="M1097.8,160.7v3h4.1v2h-4.1v13.6h-2.3v-13.6h-3v-2h3v-2.9c0-3.6,2-5.4,4.8-5.4c0.4,0,1.1,0.1,1.7,0.3v1.9
			c-0.6-0.2-1.3-0.2-1.6-0.2C1099.2,157.4,1097.8,158,1097.8,160.7z"/>
		<path d="M1113.5,175.2v-9.6h-2.9v-2h2.9v-4.5h2.3v4.5h3.9v2h-3.9v9.5c0,1.4,0.8,2.2,2.5,2.2c0.5,0,1.1,0,1.4-0.1v1.9
			c-0.5,0.1-1.4,0.2-1.8,0.2C1114.5,179.4,1113.5,177.5,1113.5,175.2z"/>
		<path d="M1134.8,170.1c0-2.8-1.4-4.7-4.3-4.7c-2.7,0-4.7,2.2-4.7,4.9v8.9h-2.3v-23.8h2.3v11c1.2-2,3-3.1,5.4-3.1
			c3.8,0,5.9,2.6,5.9,6.3v9.7h-2.3V170.1z"/>
		<path d="M1143.2,172.1c0.2,3,2.5,5.4,5.6,5.4c2.3,0,4.1-1.1,4.8-3.3l2,0.6c-0.9,3-3.7,4.7-6.8,4.7c-4.5,0-7.9-3.6-7.9-8.1
			c0-4.2,3.2-8,7.6-8c4.8,0,7.4,3.5,7.4,8c0,0.3,0,0.5,0,0.8H1143.2z M1153.5,170.2c-0.3-2.8-2.1-4.9-5.1-4.9
			c-2.7,0-4.9,2.3-5.3,4.9H1153.5z"/>
		<path d="M1169.1,156.3c1,0,1.7,0.8,1.7,1.7c0,0.9-0.8,1.7-1.7,1.7c-0.9,0-1.7-0.8-1.7-1.7C1167.4,157.1,1168.1,156.3,1169.1,156.3
			z M1170.2,163.6v15.6h-2.3v-15.6H1170.2z"/>
		<path d="M1186.6,170.1c0-2.8-1.4-4.7-4.3-4.7c-2.7,0-4.7,2.2-4.7,4.9v8.9h-2.3v-15.6h2.3v2.9c1.2-2.1,3.1-3.2,5.4-3.2
			c3.8,0,5.9,2.6,5.9,6.3v9.7h-2.3V170.1z"/>
		<path d="M1194.8,175.2v-9.6h-2.9v-2h2.9v-4.5h2.3v4.5h3.9v2h-3.9v9.5c0,1.4,0.8,2.2,2.5,2.2c0.5,0,1.1,0,1.4-0.1v1.9
			c-0.5,0.1-1.4,0.2-1.8,0.2C1195.8,179.4,1194.8,177.5,1194.8,175.2z"/>
		<path d="M1207.1,166.7c1.2-2.4,3.2-3.3,5-3.3c0.1,0,0.6,0,0.8,0v2.4c-0.3,0-0.6-0.1-0.9-0.1c-3.7,0-4.9,3-4.9,5.8v7.6h-2.3v-15.6
			h2.3V166.7z"/>
		<path d="M1214.2,171.5c0-4.6,3.5-8.1,8.1-8.1c4.5,0,8,3.5,8,8c0,4.6-3.5,8.1-8.1,8.1C1217.8,179.5,1214.2,175.9,1214.2,171.5z
			 M1228.1,171.5c0-3.3-2.4-6.1-5.8-6.1c-3.4,0-5.7,2.8-5.7,6c0,3.3,2.3,6.1,5.8,6.1C1225.7,177.5,1228.1,174.7,1228.1,171.5z"/>
		<path d="M1240.6,163.4c3,0,4.8,1.7,6.1,3.5v-11.5h2.3v23.8h-2.2v-3.3c-1.2,2-3.1,3.6-6.1,3.6c-4.5,0-7.3-3.8-7.3-8.1
			C1233.3,167.3,1236.2,163.4,1240.6,163.4z M1246.7,171.4c0-3.1-2.4-6-5.6-6c-3.4,0-5.5,2.7-5.5,6.1c0,3.2,2,6,5.5,6
			C1244.4,177.5,1246.7,174.6,1246.7,171.4z"/>
		<path d="M1256.2,172.7c0,2.8,1.4,4.7,4.3,4.7c2.7,0,4.7-2.1,4.7-4.9v-8.9h2.3v15.6h-2.2v-2.9c-1.2,2.1-3.1,3.2-5.4,3.2
			c-3.8,0-5.9-2.6-5.9-6.3v-9.7h2.3V172.7z"/>
		<path d="M1279.4,177.5c3.5,0,4.8-2.6,5.2-3.7l2.1,0.7c-0.7,2.3-3.3,5.1-7.4,5.1c-4.5,0-8-3.3-8-8c0-4.7,3.7-8.1,8.1-8.1
			c3.6,0,6.5,2.3,7.2,5l-2.1,0.7c-0.4-1.2-1.9-3.6-5.1-3.6c-3.3,0-5.6,2.7-5.6,6C1273.8,174.6,1275.9,177.5,1279.4,177.5z"/>
		<path d="M1291.4,175.2v-9.6h-2.9v-2h2.9v-4.5h2.3v4.5h3.9v2h-3.9v9.5c0,1.4,0.8,2.2,2.5,2.2c0.5,0,1.1,0,1.4-0.1v1.9
			c-0.5,0.1-1.4,0.2-1.8,0.2C1292.5,179.4,1291.4,177.5,1291.4,175.2z"/>
		<path d="M1302.6,156.3c1,0,1.7,0.8,1.7,1.7c0,0.9-0.8,1.7-1.7,1.7c-0.9,0-1.7-0.8-1.7-1.7C1300.9,157.1,1301.7,156.3,1302.6,156.3
			z M1303.8,163.6v15.6h-2.3v-15.6H1303.8z"/>
		<path d="M1307.8,171.5c0-4.6,3.5-8.1,8.1-8.1c4.5,0,8,3.5,8,8c0,4.6-3.5,8.1-8.1,8.1C1311.3,179.5,1307.8,175.9,1307.8,171.5z
			 M1321.6,171.5c0-3.3-2.4-6.1-5.8-6.1c-3.4,0-5.7,2.8-5.7,6c0,3.3,2.3,6.1,5.8,6.1C1319.2,177.5,1321.6,174.7,1321.6,171.5z"/>
		<path d="M1339.2,170.1c0-2.8-1.4-4.7-4.3-4.7c-2.7,0-4.7,2.2-4.7,4.9v8.9h-2.3v-15.6h2.3v2.9c1.2-2.1,3.1-3.2,5.4-3.2
			c3.8,0,5.9,2.6,5.9,6.3v9.7h-2.3V170.1z"/>
		<path d="M855.4,206.6c0-4.6,3.5-8.1,8.1-8.1c4.5,0,8,3.5,8,8c0,4.6-3.5,8.1-8.1,8.1C858.9,214.6,855.4,211,855.4,206.6z
			 M869.2,206.6c0-3.3-2.4-6.1-5.8-6.1s-5.7,2.8-5.7,6c0,3.3,2.3,6.1,5.8,6.1C866.9,212.6,869.2,209.8,869.2,206.6z"/>
		<path d="M878.7,195.8v3h4.1v2h-4.1v13.6h-2.3v-13.6h-3v-2h3v-2.9c0-3.6,2-5.4,4.8-5.4c0.4,0,1.1,0.1,1.7,0.3v1.9
			c-0.6-0.2-1.3-0.2-1.6-0.2C880.2,192.5,878.7,193.1,878.7,195.8z"/>
		<path d="M894.4,210.3v-9.6h-2.9v-2h2.9v-4.5h2.3v4.5h3.9v2h-3.9v9.5c0,1.4,0.8,2.2,2.5,2.2c0.5,0,1.1,0,1.4-0.1v1.9
			c-0.5,0.1-1.4,0.2-1.8,0.2C895.4,214.4,894.4,212.6,894.4,210.3z"/>
		<path d="M915.7,205.2c0-2.8-1.4-4.7-4.3-4.7c-2.7,0-4.7,2.2-4.7,4.9v8.9h-2.3v-23.8h2.3v11c1.2-2,3-3.1,5.4-3.1
			c3.8,0,5.9,2.6,5.9,6.3v9.7h-2.3V205.2z"/>
		<path d="M924.1,207.2c0.2,3,2.5,5.4,5.6,5.4c2.3,0,4.1-1.1,4.8-3.3l2,0.6c-0.9,3-3.7,4.7-6.8,4.7c-4.5,0-7.9-3.6-7.9-8.1
			c0-4.2,3.2-8,7.6-8c4.8,0,7.4,3.5,7.4,8c0,0.3,0,0.5,0,0.8H924.1z M934.5,205.3c-0.3-2.8-2.1-4.9-5.1-4.9c-2.7,0-4.9,2.3-5.3,4.9
			H934.5z"/>
		<path d="M967.2,198.8c-0.6-1.9-2.7-5.4-7.9-5.4c-5.2,0-9,4.4-9,9.4c0,5.2,3.4,9.5,9,9.5c4.1,0,7.8-2.5,8.1-6.8h-9.6v-2.2H970v0.9
			c0,5.8-4,10.4-10.7,10.4c-6.9,0-11.4-5.1-11.4-11.6c0-6.6,4.9-11.8,11.5-11.8c5.6,0,8.9,3.2,10.1,6.8L967.2,198.8z"/>
		<path d="M981.4,191.4c7.1,0,12.1,4.9,12.1,11.4c0,6.8-5.4,11.5-12.1,11.5h-6.8v-22.9H981.4z M981.3,212.1c5.8,0,9.7-3.8,9.7-9.2
			c0-5.3-3.7-9.2-9.7-9.2h-4.3v18.4H981.3z"/>
		<path d="M1000.6,214.3h-2.4v-22.9h7.7c5.6,0,8,3.3,8,6.9c0,3.9-2.9,7.1-8.5,7.1h-4.9V214.3z M1000.6,203.2h4.9
			c4.2,0,5.9-2.5,5.9-4.8c0-2.3-1.3-4.7-5.8-4.7h-5.1V203.2z"/>
		<path d="M1025.2,205.1h-4.7v9.3h-2.4v-22.9h7.9c5.6,0,8,3.1,8,6.7c0,3.9-2.9,6.1-6.3,6.6l7.1,9.7h-2.9L1025.2,205.1z
			 M1025.8,202.9c4.2,0,5.8-2.4,5.8-4.7c0-2.3-1.4-4.5-5.8-4.5h-5.4v9.2H1025.8z"/>
		<path d="M1047.9,191.4c1,0,1.7,0.8,1.7,1.7c0,0.9-0.8,1.7-1.7,1.7c-0.9,0-1.7-0.8-1.7-1.7C1046.2,192.2,1046.9,191.4,1047.9,191.4
			z M1049,198.7v15.6h-2.3v-15.6H1049z"/>
		<path d="M1065.4,205.2c0-2.8-1.4-4.7-4.3-4.7c-2.7,0-4.7,2.2-4.7,4.9v8.9h-2.3v-15.6h2.3v2.9c1.2-2.1,3.1-3.2,5.4-3.2
			c3.8,0,5.9,2.6,5.9,6.3v9.7h-2.3V205.2z"/>
		<path d="M1105.3,214.3h-2.4v-19.6h0l-8.5,19.6h-2.2l-8.5-19.5v19.5h-2.4v-22.9h3.4l8.6,19.6l8.5-19.6h3.5V214.3z"/>
		<path d="M1120.5,204.3c0-2.5-1.4-3.8-4-3.8c-2.6,0-3.8,1.7-4.1,3.2l-2.2-0.5c0.1-1.3,1.9-4.7,6.3-4.7c3.3,0,4.9,1.5,5.7,3.2
			c0.4,0.8,0.5,2.1,0.5,2.6v10.1h-2.2v-2.7h0c-1.2,1.9-2.9,3-5.3,3c-3.2,0-5.2-2-5.2-4.6v-0.2c0-3.4,3.4-4.5,6.2-4.5h4.3V204.3z
			 M1116.2,207.2c-1.7,0-3.9,0.5-3.9,2.6c0,1.8,1.5,2.7,3.4,2.7c2.8,0,4.9-2,4.9-4.8v-0.6H1116.2z"/>
		<path d="M1132.4,213.3l-7.1-14.6h2.6l5.7,12.1l5.4-12.1h2.5l-10.7,23.3h-2.5L1132.4,213.3z"/>
		<path d="M1151.2,213.6c0-2.7,1.2-5.6,5.3-8l3.5-2.2c2.2-1.3,4-2.7,4-5.4c0-2.3-2.1-4.6-5-4.6c-2.5,0-4.1,1.5-4.7,2.9
			c-0.4,1-0.4,1.9-0.5,2.3l-2.4-0.4c0-3.2,2.7-7.1,7.6-7.1c4.2,0,7.5,3.2,7.5,6.8c0,3.2-1.8,5.2-4.8,7l-3.6,2.3
			c-2,1.2-3.8,2.8-3.9,4.9h12.6v2.2h-15.5V213.6z"/>
		<path d="M1170,203c0-5.7,3.2-11.8,9.6-11.8c6.3,0,9.4,6,9.4,11.6c0,5.7-3.2,11.7-9.6,11.7C1173.2,214.6,1170,208.6,1170,203z
			 M1172.5,202.8c0,4.1,2.1,9.5,7,9.5c4.9,0,7-5.3,7-9.4c0-4.1-2.1-9.5-7.1-9.5C1174.6,193.4,1172.5,198.7,1172.5,202.8z"/>
		<path d="M1197.7,194l-5.5,3.3l-1.1-1.8l6.6-4h2.3v22.9h-2.4V194z"/>
		<path d="M1205.1,208.1c0-2.4,1.7-4.6,4.8-5.6c-2.8-0.8-4.2-3.3-4.2-5.2c0-4,4.1-6.1,7.5-6.1c3.5,0,7.5,2,7.5,6.1
			c0,2.2-1.5,4.4-4.3,5.2c3.2,0.9,4.8,3.2,4.8,5.6c0,4.2-4.1,6.5-8,6.5C1209.2,214.6,1205.1,212.4,1205.1,208.1z M1218.7,208.1
			c0-3-3.2-4.4-5.6-4.4c-2.4,0-5.6,1.4-5.6,4.4c0,3.1,3.1,4.4,5.6,4.4C1215.5,212.4,1218.7,211.1,1218.7,208.1z M1208,197.4
			c0,2.9,3.2,4.2,5.1,4.2c2,0,5.1-1.3,5.1-4.2c0-2.7-2.9-4-5.1-4C1210.9,193.4,1208,194.7,1208,197.4z"/>
		<path d="M1229.3,207.7c0-0.2,0-0.4,0-0.5c0-2.7,1.7-4,2.9-5.4c1.3-1.4,2.9-2.6,2.9-4.7c0-1.9-1.3-3.7-4.3-3.7c-3,0-4.6,2.2-4.4,5
			l-2.3-0.1c0-0.2,0-0.4,0-0.7c0-3.8,3.1-6.4,6.8-6.4c4.1,0,6.7,2.8,6.7,6c0,2.3-1.4,3.7-3.4,5.8c-1.5,1.5-2.5,2.4-2.6,4.7H1229.3z
			 M1230.3,214.6c1,0,1.7-0.8,1.7-1.7c0-0.9-0.7-1.7-1.7-1.7c-0.9,0-1.7,0.8-1.7,1.7C1228.6,213.8,1229.4,214.6,1230.3,214.6z"/>
	</g>
	<g>
		<g>
			<g>
				<g>
					<circle class="st3" cx="835.7" cy="607.1" r="214.5"/>
				</g>
				<g>
					<path d="M804.4,622.8c-6.7,0-12.4-4-13.2-10.4l3.8-0.8c0.7,4.4,4,7.6,9.3,7.6c5.1,0,9.2-2.8,9.2-7.2c0-4.3-3.3-7.1-9.2-7.1
						h-3.8v-3.7h3.7c5.2,0,8.5-3.2,8.5-6.9c0-3.9-2.9-6.8-8.4-6.8c-5.2,0-8.2,3.1-8.9,7.2l-3.8-0.8c0.7-5.3,5.7-10,12.8-10
						c8.3,0,12.4,5.1,12.4,10.1c0,4.3-2.4,7.1-6.1,8.8v0c4.3,1.2,7,4.6,7,9.1C817.6,617.8,812.4,622.8,804.4,622.8z"/>
					<path d="M823.3,603.5c0-9.5,5.4-19.6,16-19.6c10.5,0,15.7,9.9,15.7,19.4c0,9.5-5.4,19.5-15.9,19.5
						C828.6,622.8,823.3,612.9,823.3,603.5z M827.4,603.3c0,6.9,3.5,15.9,11.7,15.9c8.2,0,11.7-8.9,11.7-15.7
						c0-6.8-3.6-15.9-11.8-15.9S827.4,596.4,827.4,603.3z"/>
					<path d="M864,609.2c-2.8,0-5-2.2-5-5c0-2.8,2.2-5,5-5c2.8,0,5,2.2,5,5C869,606.9,866.8,609.2,864,609.2z M864,601
						c-1.7,0-3.2,1.4-3.2,3.2c0,1.7,1.4,3.1,3.2,3.1c1.7,0,3.2-1.4,3.2-3.1C867.2,602.4,865.7,601,864,601z M876.3,599.3h2.3
						L864,621.6h-2.2L876.3,599.3z M876.3,621.8c-2.8,0-5-2.2-5-5c0-2.8,2.2-5,5-5c2.8,0,5,2.2,5,5
						C881.4,619.5,879.1,621.8,876.3,621.8z M876.3,613.6c-1.7,0-3.1,1.4-3.1,3.2c0,1.7,1.4,3.1,3.1,3.1c1.7,0,3.2-1.4,3.2-3.1
						C879.5,615,878.1,613.6,876.3,613.6z"/>
				</g>
			</g>
			<g>
				<path d="M986.6,954.5v11.4h-1.3l-6.9-9.7v9.7h-1.2v-11.4h1.4l6.8,9.6v-9.6H986.6z"/>
				<path d="M989.7,962c0-2.3,1.7-4.1,4-4.1c2.3,0,4,1.8,4,4c0,2.3-1.8,4.1-4,4.1C991.4,966,989.7,964.3,989.7,962z M996.6,962
					c0-1.6-1.2-3.1-2.9-3.1c-1.7,0-2.9,1.4-2.9,3c0,1.6,1.2,3.1,2.9,3.1C995.4,965,996.6,963.7,996.6,962z"/>
				<path d="M1000.2,967.6c0.7-0.5,1.2-1.1,1.3-1.8c-0.1,0-0.2,0.1-0.4,0.1c-0.6,0-1-0.4-1-1c0-0.6,0.5-1,1-1c0.7,0,1.2,0.6,1.2,1.4
					v0.1c0,1-0.5,2-1.6,2.7L1000.2,967.6z"/>
				<path d="M1014,960.9c0-1.3-0.7-1.9-2-1.9c-1.3,0-1.9,0.8-2,1.6l-1.1-0.2c0.1-0.7,0.9-2.4,3.2-2.4c1.7,0,2.5,0.7,2.9,1.6
					c0.2,0.4,0.2,1,0.2,1.3v5h-1.1v-1.4h0c-0.6,1-1.5,1.5-2.6,1.5c-1.6,0-2.6-1-2.6-2.3v-0.1c0-1.7,1.7-2.3,3.1-2.3h2.2V960.9z
					 M1011.8,962.3c-0.8,0-1.9,0.3-1.9,1.3c0,0.9,0.7,1.4,1.7,1.4c1.4,0,2.4-1,2.4-2.4v-0.3H1011.8z"/>
				<path d="M1023.9,961.4c0-1.4-0.7-2.4-2.2-2.4c-1.4,0-2.3,1.1-2.3,2.5v4.4h-1.1v-7.8h1.1v1.4c0.6-1.1,1.5-1.6,2.7-1.6
					c1.9,0,3,1.3,3,3.1v4.8h-1.1V961.4z"/>
				<path d="M1031.4,958c1.5,0,2.4,0.8,3,1.8V954h1.1v11.9h-1.1v-1.7c-0.6,1-1.5,1.8-3,1.8c-2.2,0-3.7-1.9-3.7-4
					C1027.7,960,1029.2,958,1031.4,958z M1034.4,962c0-1.5-1.2-3-2.8-3c-1.7,0-2.7,1.4-2.7,3c0,1.6,1,3,2.7,3
					C1033.2,965,1034.4,963.6,1034.4,962z"/>
				<path d="M1045.3,965.9l-2.6-7.8h1.2l2,6.5h0l2.1-6.5h1.1l2.1,6.5h0l2.1-6.5h1.2l-2.6,7.8h-1.3l-2.1-6.3h0l-2.1,6.3H1045.3z"/>
				<path d="M1057.5,962.4c0.1,1.5,1.3,2.7,2.8,2.7c1.2,0,2-0.6,2.4-1.7l1,0.3c-0.5,1.5-1.9,2.4-3.4,2.4c-2.3,0-4-1.8-4-4
					c0-2.1,1.6-4,3.8-4c2.4,0,3.7,1.7,3.7,4c0,0.1,0,0.3,0,0.4H1057.5z M1062.6,961.4c-0.1-1.4-1-2.4-2.5-2.4
					c-1.4,0-2.4,1.1-2.6,2.4H1062.6z"/>
				<path d="M1076,960.9c0-1.3-0.7-1.9-2-1.9c-1.3,0-1.9,0.8-2,1.6l-1.1-0.2c0.1-0.7,0.9-2.4,3.2-2.4c1.7,0,2.5,0.7,2.9,1.6
					c0.2,0.4,0.2,1,0.2,1.3v5h-1.1v-1.4h0c-0.6,1-1.5,1.5-2.6,1.5c-1.6,0-2.6-1-2.6-2.3v-0.1c0-1.7,1.7-2.3,3.1-2.3h2.2V960.9z
					 M1073.8,962.3c-0.8,0-1.9,0.3-1.9,1.3c0,0.9,0.7,1.4,1.7,1.4c1.4,0,2.4-1,2.4-2.4v-0.3H1073.8z"/>
				<path d="M1081.5,959.7c0.6-1.2,1.6-1.7,2.5-1.7c0.1,0,0.3,0,0.4,0v1.2c-0.1,0-0.3,0-0.4,0c-1.8,0-2.4,1.5-2.4,2.9v3.8h-1.1v-7.8
					h1.1V959.7z"/>
				<path d="M1086.9,962.4c0.1,1.5,1.3,2.7,2.8,2.7c1.2,0,2-0.6,2.4-1.7l1,0.3c-0.5,1.5-1.9,2.4-3.4,2.4c-2.3,0-4-1.8-4-4
					c0-2.1,1.6-4,3.8-4c2.4,0,3.7,1.7,3.7,4c0,0.1,0,0.3,0,0.4H1086.9z M1092.1,961.4c-0.1-1.4-1-2.4-2.5-2.4
					c-1.4,0-2.4,1.1-2.6,2.4H1092.1z"/>
				<path d="M1101.6,961.4c0-1.4-0.7-2.4-2.2-2.4c-1.4,0-2.3,1.1-2.3,2.5v4.4h-1.1v-7.8h1.1v1.4c0.6-1.1,1.5-1.6,2.7-1.6
					c1.9,0,3,1.3,3,3.1v4.8h-1.1V961.4z"/>
				<path d="M1105.3,958.1c0.7-0.5,1.2-1.1,1.3-1.8c-0.1,0-0.2,0.1-0.4,0.1c-0.6,0-1-0.4-1-1c0-0.6,0.5-1,1-1c0.7,0,1.2,0.6,1.2,1.4
					v0.1c0,1-0.5,2-1.6,2.7L1105.3,958.1z"/>
				<path d="M1110.8,963.9v-4.8h-1.4v-1h1.4v-2.3h1.1v2.3h2v1h-2v4.8c0,0.7,0.4,1.1,1.3,1.1c0.2,0,0.5,0,0.7-0.1v0.9
					c-0.2,0.1-0.7,0.1-0.9,0.1C1111.3,966,1110.8,965,1110.8,963.9z"/>
				<path d="M1125.5,966c-1.4,0-2.4-0.7-3-1.7v5.5h-1.1v-11.6h1.1v1.7c0.6-1,1.5-1.8,3-1.8c2.2,0,3.7,2,3.7,4
					C1129.2,964.1,1127.7,966,1125.5,966z M1128,962c0-1.6-1-3-2.7-3c-1.6,0-2.8,1.4-2.8,3c0,1.6,1.1,3,2.8,3
					C1127,965,1128,963.7,1128,962z"/>
				<path d="M1133.1,954v11.9h-1.2V954H1133.1z"/>
				<path d="M1141.1,960.9c0-1.3-0.7-1.9-2-1.9c-1.3,0-1.9,0.8-2,1.6l-1.1-0.2c0.1-0.7,0.9-2.4,3.2-2.4c1.7,0,2.5,0.7,2.9,1.6
					c0.2,0.4,0.2,1,0.2,1.3v5h-1.1v-1.4h0c-0.6,1-1.5,1.5-2.6,1.5c-1.6,0-2.6-1-2.6-2.3v-0.1c0-1.7,1.7-2.3,3.1-2.3h2.2V960.9z
					 M1138.9,962.3c-0.8,0-1.9,0.3-1.9,1.3c0,0.9,0.7,1.4,1.7,1.4c1.4,0,2.4-1,2.4-2.4v-0.3H1138.9z"/>
				<path d="M1151,961.4c0-1.4-0.7-2.4-2.2-2.4c-1.4,0-2.3,1.1-2.3,2.5v4.4h-1.1v-7.8h1.1v1.4c0.6-1.1,1.5-1.6,2.7-1.6
					c1.9,0,3,1.3,3,3.1v4.8h-1.1V961.4z"/>
				<path d="M1161,961.4c0-1.4-0.7-2.4-2.2-2.4c-1.4,0-2.3,1.1-2.3,2.5v4.4h-1.1v-7.8h1.1v1.4c0.6-1.1,1.5-1.6,2.7-1.6
					c1.9,0,3,1.3,3,3.1v4.8h-1.1V961.4z"/>
				<path d="M1165.9,954.5c0.5,0,0.9,0.4,0.9,0.9c0,0.5-0.4,0.8-0.9,0.8c-0.5,0-0.8-0.4-0.8-0.8
					C1165.1,954.8,1165.5,954.5,1165.9,954.5z M1166.5,958.1v7.8h-1.2v-7.8H1166.5z"/>
				<path d="M1175.5,961.4c0-1.4-0.7-2.4-2.2-2.4c-1.4,0-2.3,1.1-2.3,2.5v4.4h-1.1v-7.8h1.1v1.4c0.6-1.1,1.5-1.6,2.7-1.6
					c1.9,0,3,1.3,3,3.1v4.8h-1.1V961.4z"/>
				<path d="M1185.9,964.2c-0.6,1-1.5,1.8-3,1.8c-2.2,0-3.7-1.8-3.7-4c0-2,1.4-4,3.7-4c1.5,0,2.4,0.8,3,1.8v-1.6h1.1v7.8
					c0,2.5-1.5,3.9-3.9,3.9c-2,0-3.5-1-3.9-2.7l1.1-0.4c0.2,0.9,1,2,2.8,2c1.5,0,2.8-0.8,2.8-2.8V964.2z M1185.9,962
					c0-1.5-1.2-3-2.8-3c-1.7,0-2.7,1.3-2.7,3c0,1.6,1,3,2.7,3C1184.8,964.9,1185.9,963.5,1185.9,962z"/>
				<path d="M977.5,981.4v-4.8h-1.4v-1h1.4v-2.3h1.1v2.3h2v1h-2v4.8c0,0.7,0.4,1.1,1.3,1.1c0.2,0,0.5,0,0.7-0.1v0.9
					c-0.2,0.1-0.7,0.1-0.9,0.1C978,983.5,977.5,982.6,977.5,981.4z"/>
				<path d="M982.6,979.6c0-2.3,1.7-4.1,4-4.1c2.3,0,4,1.8,4,4c0,2.3-1.8,4.1-4,4.1C984.3,983.6,982.6,981.8,982.6,979.6z
					 M989.5,979.6c0-1.6-1.2-3.1-2.9-3.1c-1.7,0-2.8,1.4-2.8,3c0,1.6,1.2,3.1,2.9,3.1C988.3,982.6,989.5,981.2,989.5,979.6z"/>
				<path d="M997.6,979.6c0-2.3,1.7-4.1,4-4.1c2.3,0,4,1.8,4,4c0,2.3-1.8,4.1-4,4.1C999.4,983.6,997.6,981.8,997.6,979.6z
					 M1004.5,979.6c0-1.6-1.2-3.1-2.9-3.1c-1.7,0-2.9,1.4-2.9,3c0,1.6,1.2,3.1,2.9,3.1C1003.3,982.6,1004.5,981.2,1004.5,979.6z"/>
				<path d="M1007.2,975.7h1.3l2.7,6.5l2.7-6.5h1.2l-3.3,7.8h-1.2L1007.2,975.7z"/>
				<path d="M1017.7,979.9c0.1,1.5,1.3,2.7,2.8,2.7c1.2,0,2-0.6,2.4-1.7l1,0.3c-0.5,1.5-1.9,2.4-3.4,2.4c-2.3,0-4-1.8-4-4
					c0-2.1,1.6-4,3.8-4c2.4,0,3.7,1.7,3.7,4c0,0.1,0,0.3,0,0.4H1017.7z M1022.9,978.9c-0.1-1.4-1-2.4-2.5-2.4
					c-1.4,0-2.4,1.1-2.6,2.4H1022.9z"/>
				<path d="M1027.9,977.2c0.6-1.2,1.6-1.7,2.5-1.7c0.1,0,0.3,0,0.4,0v1.2c-0.1,0-0.3,0-0.4,0c-1.8,0-2.4,1.5-2.4,2.9v3.8h-1.1v-7.8
					h1.1V977.2z"/>
				<path d="M1037.9,981.4v-4.8h-1.4v-1h1.4v-2.3h1.1v2.3h2v1h-2v4.8c0,0.7,0.4,1.1,1.3,1.1c0.2,0,0.5,0,0.7-0.1v0.9
					c-0.2,0.1-0.7,0.1-0.9,0.1C1038.4,983.5,1037.9,982.6,1037.9,981.4z"/>
				<path d="M1049.3,978.9c0-1.4-0.7-2.4-2.2-2.4c-1.4,0-2.3,1.1-2.3,2.5v4.4h-1.1v-11.9h1.1v5.5c0.6-1,1.5-1.5,2.7-1.5
					c1.9,0,3,1.3,3,3.1v4.8h-1.1V978.9z"/>
				<path d="M1054.2,979.9c0.1,1.5,1.3,2.7,2.8,2.7c1.2,0,2-0.6,2.4-1.7l1,0.3c-0.5,1.5-1.9,2.4-3.4,2.4c-2.3,0-4-1.8-4-4
					c0-2.1,1.6-4,3.8-4c2.4,0,3.7,1.7,3.7,4c0,0.1,0,0.3,0,0.4H1054.2z M1059.4,978.9c-0.1-1.4-1-2.4-2.5-2.4
					c-1.4,0-2.4,1.1-2.6,2.4H1059.4z"/>
				<path d="M1073.7,978.9c0-1.4-0.7-2.4-2.2-2.4c-1.4,0-2.3,1.1-2.3,2.5v4.4h-1.1v-7.8h1.1v1.4c0.6-1.1,1.5-1.6,2.7-1.6
					c1.9,0,3,1.3,3,3.1v4.8h-1.1V978.9z"/>
				<path d="M1078.6,979.9c0.1,1.5,1.3,2.7,2.8,2.7c1.2,0,2-0.6,2.4-1.7l1,0.3c-0.5,1.5-1.9,2.4-3.4,2.4c-2.3,0-4-1.8-4-4
					c0-2.1,1.6-4,3.8-4c2.4,0,3.7,1.7,3.7,4c0,0.1,0,0.3,0,0.4H1078.6z M1083.8,978.9c-0.1-1.4-1-2.4-2.5-2.4
					c-1.4,0-2.4,1.1-2.6,2.4H1083.8z"/>
				<path d="M1087.7,983.5h-1.3l3.1-4l-3-3.8h1.3l2.3,3l2.3-3h1.3l-3,3.8l3.1,4h-1.4l-2.4-3.2L1087.7,983.5z"/>
				<path d="M1096.7,981.4v-4.8h-1.4v-1h1.4v-2.3h1.1v2.3h2v1h-2v4.8c0,0.7,0.4,1.1,1.3,1.1c0.2,0,0.5,0,0.7-0.1v0.9
					c-0.2,0.1-0.7,0.1-0.9,0.1C1097.3,983.5,1096.7,982.6,1096.7,981.4z"/>
				<path d="M1109.5,973.3l-2.7,1.6l-0.5-0.9l3.3-2h1.2v11.4h-1.2V973.3z"/>
				<path d="M1113.8,983.1c0-1.3,0.6-2.8,2.6-4l1.7-1.1c1.1-0.7,2-1.4,2-2.7c0-1.2-1-2.3-2.5-2.3c-1.3,0-2,0.7-2.4,1.5
					c-0.2,0.5-0.2,0.9-0.2,1.1l-1.2-0.2c0-1.6,1.4-3.5,3.8-3.5c2.1,0,3.7,1.6,3.7,3.4c0,1.6-0.9,2.6-2.4,3.5l-1.8,1.1
					c-1,0.6-1.9,1.4-2,2.4h6.3v1.1h-7.7V983.1z"/>
				<path d="M1134.5,978.9c0-1.3-0.6-2.3-2-2.3c-1.4,0-2.2,1.2-2.2,2.5v4.4h-1.1v-7.8h1.1v1.4c0.6-0.9,1.3-1.5,2.5-1.5
					c1.1,0,2,0.5,2.5,1.6c0.7-1,1.5-1.5,2.7-1.5c1.9,0,2.9,1.3,2.9,3.1v4.8h-1.1v-4.5c0-1.3-0.6-2.4-2-2.4c-1.4,0-2.2,1.1-2.2,2.4
					v4.5h-1.1V978.9z"/>
				<path d="M1143.6,979.6c0-2.3,1.7-4.1,4-4.1c2.3,0,4,1.8,4,4c0,2.3-1.8,4.1-4,4.1C1145.4,983.6,1143.6,981.8,1143.6,979.6z
					 M1150.5,979.6c0-1.6-1.2-3.1-2.9-3.1c-1.7,0-2.8,1.4-2.8,3c0,1.6,1.2,3.1,2.9,3.1C1149.4,982.6,1150.5,981.2,1150.5,979.6z"/>
				<path d="M1160.1,978.9c0-1.4-0.7-2.4-2.2-2.4c-1.4,0-2.3,1.1-2.3,2.5v4.4h-1.1v-7.8h1.1v1.4c0.6-1.1,1.5-1.6,2.7-1.6
					c1.9,0,3,1.3,3,3.1v4.8h-1.1V978.9z"/>
				<path d="M1164.9,981.4v-4.8h-1.4v-1h1.4v-2.3h1.1v2.3h2v1h-2v4.8c0,0.7,0.4,1.1,1.3,1.1c0.2,0,0.5,0,0.7-0.1v0.9
					c-0.2,0.1-0.7,0.1-0.9,0.1C1165.4,983.5,1164.9,982.6,1164.9,981.4z"/>
				<path d="M1176.3,978.9c0-1.4-0.7-2.4-2.2-2.4c-1.4,0-2.3,1.1-2.3,2.5v4.4h-1.1v-11.9h1.1v5.5c0.6-1,1.5-1.5,2.7-1.5
					c1.9,0,3,1.3,3,3.1v4.8h-1.1V978.9z"/>
				<path d="M1183,983.6c-2.1,0-2.8-1.4-3-2.3l1.1-0.2c0.2,0.7,0.7,1.5,1.9,1.5c0.8,0,1.6-0.5,1.6-1.3c0-1-1-1.2-1.8-1.3
					c-1.3-0.2-2.6-0.7-2.6-2.2c0-1.5,1.3-2.3,2.6-2.3c2.1,0,2.7,1.4,2.8,2.1l-1,0.2c-0.1-0.5-0.6-1.4-1.8-1.4
					c-0.8,0-1.5,0.6-1.5,1.2c0,1,1.1,1.1,1.9,1.2c1.3,0.2,2.6,0.8,2.6,2.3C1185.8,982.7,1184.5,983.6,1183,983.6z"/>
			</g>
			<g>
				<g>
					<path class="st4" d="M835.7,840.1c0,70,55.4,127.1,124.7,129.9"/>
					<g>
						<polygon points="959.7,963.8 959.4,976 965.7,970.1 						"/>
					</g>
				</g>
			</g>
		</g>
		<g>
			<g>
				<g class="st1">
					<circle cx="499.3" cy="557.2" r="214.5"/>
				</g>
				<g>
					<path class="st5" d="M468,572.3c-6.7,0-12.4-4-13.2-10.4l3.9-0.8c0.7,4.4,4,7.6,9.3,7.6c5.1,0,9.2-2.8,9.2-7.2
						c0-4.3-3.3-7.1-9.2-7.1h-3.8v-3.7h3.7c5.2,0,8.5-3.2,8.5-6.9c0-3.9-2.9-6.8-8.4-6.8c-5.2,0-8.2,3.1-8.9,7.2l-3.8-0.8
						c0.7-5.3,5.7-10,12.8-10c8.3,0,12.4,5.1,12.4,10.1c0,4.3-2.4,7.1-6.1,8.8v0c4.3,1.2,7,4.6,7,9.1
						C481.2,567.3,476,572.3,468,572.3z"/>
					<path class="st5" d="M487,553c0-9.5,5.4-19.6,16-19.6c10.5,0,15.7,9.9,15.7,19.4c0,9.5-5.4,19.5-15.9,19.5
						C492.3,572.3,487,562.4,487,553z M491.1,552.8c0,6.9,3.5,15.9,11.7,15.9c8.2,0,11.7-8.9,11.7-15.7c0-6.8-3.6-15.9-11.8-15.9
						S491.1,545.9,491.1,552.8z"/>
					<path class="st5" d="M527.7,558.7c-2.8,0-5-2.2-5-5c0-2.8,2.2-5,5-5c2.8,0,5,2.2,5,5C532.7,556.4,530.5,558.7,527.7,558.7z
						 M527.7,550.5c-1.7,0-3.2,1.4-3.2,3.2c0,1.7,1.4,3.1,3.2,3.1c1.7,0,3.2-1.4,3.2-3.1C530.8,551.9,529.4,550.5,527.7,550.5z
						 M539.9,548.8h2.3l-14.5,22.2h-2.2L539.9,548.8z M540,571.3c-2.8,0-5-2.2-5-5c0-2.8,2.2-5,5-5c2.8,0,5,2.2,5,5
						C545,569,542.8,571.3,540,571.3z M540,563.1c-1.7,0-3.1,1.4-3.1,3.2c0,1.7,1.4,3.1,3.1,3.1c1.7,0,3.2-1.4,3.2-3.1
						C543.2,564.5,541.7,563.1,540,563.1z"/>
				</g>
			</g>
			<g>
				<g>
					<path d="M108.1,191.6V203h-1.3l-6.9-9.7v9.7h-1.2v-11.4h1.4l6.8,9.6v-9.6H108.1z"/>
					<path d="M111.2,199.1c0-2.3,1.7-4.1,4-4.1c2.3,0,4,1.8,4,4c0,2.3-1.8,4.1-4,4.1C112.9,203.1,111.2,201.4,111.2,199.1z
						 M118.1,199.1c0-1.6-1.2-3.1-2.9-3.1c-1.7,0-2.8,1.4-2.8,3c0,1.6,1.2,3.1,2.9,3.1C116.9,202.1,118.1,200.8,118.1,199.1z"/>
					<path d="M121.7,204.7c0.7-0.5,1.2-1.1,1.3-1.8c-0.1,0-0.2,0.1-0.4,0.1c-0.6,0-1-0.4-1-1c0-0.6,0.5-1,1-1c0.7,0,1.2,0.6,1.2,1.4
						v0.1c0,1-0.5,2-1.6,2.7L121.7,204.7z"/>
					<path d="M134.9,203.1c-1.5,0-2.4-0.7-3-1.8v1.6h-1.1v-11.9h1.1v5.8c0.6-1,1.5-1.8,3-1.8c2.2,0,3.7,2,3.7,4
						C138.6,201.2,137.1,203.1,134.9,203.1z M137.4,199.1c0-1.6-1-3-2.7-3c-1.6,0-2.8,1.4-2.8,3c0,1.6,1.1,3,2.8,3
						C136.4,202.1,137.4,200.8,137.4,199.1z"/>
					<path d="M142.3,199.7c0,1.4,0.7,2.4,2.2,2.4c1.4,0,2.3-1.1,2.3-2.5v-4.5h1.1v7.8h-1.1v-1.4c-0.6,1.1-1.5,1.6-2.7,1.6
						c-1.9,0-3-1.3-3-3.1v-4.8h1.1V199.7z"/>
					<path d="M151.8,201v-4.8h-1.4v-1h1.4V193h1.1v2.3h2v1h-2v4.8c0,0.7,0.4,1.1,1.3,1.1c0.2,0,0.5,0,0.7-0.1v0.9
						c-0.2,0.1-0.7,0.1-0.9,0.1C152.3,203.1,151.8,202.1,151.8,201z"/>
					<path d="M164.1,203l-2.6-7.8h1.2l2,6.5h0l2.1-6.5h1.1l2.1,6.5h0l2.1-6.5h1.2l-2.6,7.8h-1.3l-2.1-6.3h0l-2.1,6.3H164.1z"/>
					<path d="M176.2,199.5c0.1,1.5,1.3,2.7,2.8,2.7c1.2,0,2-0.6,2.4-1.7l1,0.3c-0.5,1.5-1.9,2.4-3.4,2.4c-2.3,0-4-1.8-4-4
						c0-2.1,1.6-4,3.8-4c2.4,0,3.7,1.7,3.7,4c0,0.1,0,0.3,0,0.4H176.2z M181.4,198.5c-0.1-1.4-1-2.4-2.5-2.4c-1.4,0-2.4,1.1-2.6,2.4
						H181.4z"/>
					<path d="M184.5,195.2c0.7-0.5,1.2-1.1,1.3-1.8c-0.1,0-0.2,0.1-0.4,0.1c-0.6,0-1-0.4-1-1c0-0.6,0.5-1,1-1c0.7,0,1.2,0.6,1.2,1.4
						v0.1c0,1-0.5,2-1.6,2.7L184.5,195.2z"/>
					<path d="M190.3,196.8c0.6-1.2,1.6-1.7,2.5-1.7c0.1,0,0.3,0,0.4,0v1.2c-0.1,0-0.3,0-0.4,0c-1.8,0-2.4,1.5-2.4,2.9v3.8h-1.1v-7.8
						h1.1V196.8z"/>
					<path d="M195.8,199.5c0.1,1.5,1.3,2.7,2.8,2.7c1.2,0,2-0.6,2.4-1.7l1,0.3c-0.5,1.5-1.9,2.4-3.4,2.4c-2.3,0-4-1.8-4-4
						c0-2.1,1.6-4,3.8-4c2.4,0,3.7,1.7,3.7,4c0,0.1,0,0.3,0,0.4H195.8z M201,198.5c-0.1-1.4-1-2.4-2.5-2.4c-1.4,0-2.4,1.1-2.6,2.4
						H201z"/>
					<path d="M213.8,203.1c-1.4,0-2.4-0.7-3-1.7v5.5h-1.1v-11.6h1.1v1.7c0.6-1,1.5-1.8,3-1.8c2.2,0,3.7,2,3.7,4
						C217.4,201.2,216,203.1,213.8,203.1z M216.3,199.1c0-1.6-1-3-2.7-3c-1.6,0-2.8,1.4-2.8,3c0,1.6,1.1,3,2.8,3
						C215.3,202.1,216.3,200.8,216.3,199.1z"/>
					<path d="M221.3,191.1V203h-1.2v-11.9H221.3z"/>
					<path d="M229.4,198c0-1.3-0.7-1.9-2-1.9c-1.3,0-1.9,0.8-2,1.6l-1.1-0.2c0.1-0.7,0.9-2.4,3.2-2.4c1.7,0,2.5,0.7,2.9,1.6
						c0.2,0.4,0.2,1,0.2,1.3v5h-1.1v-1.4h0c-0.6,1-1.5,1.5-2.6,1.5c-1.6,0-2.6-1-2.6-2.3v-0.1c0-1.7,1.7-2.3,3.1-2.3h2.2V198z
						 M227.2,199.4c-0.8,0-1.9,0.3-1.9,1.3c0,0.9,0.7,1.4,1.7,1.4c1.4,0,2.4-1,2.4-2.4v-0.3H227.2z"/>
					<path d="M239.3,198.5c0-1.4-0.7-2.4-2.2-2.4c-1.4,0-2.3,1.1-2.3,2.5v4.4h-1.1v-7.8h1.1v1.4c0.6-1.1,1.5-1.6,2.7-1.6
						c1.9,0,3,1.3,3,3.1v4.8h-1.1V198.5z"/>
					<path d="M249.3,198.5c0-1.4-0.7-2.4-2.2-2.4c-1.4,0-2.3,1.1-2.3,2.5v4.4h-1.1v-7.8h1.1v1.4c0.6-1.1,1.5-1.6,2.7-1.6
						c1.9,0,3,1.3,3,3.1v4.8h-1.1V198.5z"/>
					<path d="M254.2,191.5c0.5,0,0.9,0.4,0.9,0.9c0,0.5-0.4,0.8-0.9,0.8c-0.5,0-0.8-0.4-0.8-0.8
						C253.4,191.9,253.7,191.5,254.2,191.5z M254.8,195.2v7.8h-1.2v-7.8H254.8z"/>
					<path d="M263.7,198.5c0-1.4-0.7-2.4-2.2-2.4c-1.4,0-2.3,1.1-2.3,2.5v4.4h-1.1v-7.8h1.1v1.4c0.6-1.1,1.5-1.6,2.7-1.6
						c1.9,0,3,1.3,3,3.1v4.8h-1.1V198.5z"/>
					<path d="M274.2,201.3c-0.6,1-1.5,1.8-3,1.8c-2.2,0-3.7-1.8-3.7-4c0-2,1.4-4,3.7-4c1.5,0,2.4,0.8,3,1.8v-1.6h1.1v7.8
						c0,2.5-1.5,3.9-3.9,3.9c-2,0-3.5-1-3.9-2.7l1.1-0.4c0.2,0.9,1,2,2.8,2c1.5,0,2.8-0.8,2.8-2.8V201.3z M274.2,199
						c0-1.5-1.2-3-2.8-3c-1.7,0-2.7,1.3-2.7,3c0,1.6,1,3,2.7,3C273,202,274.2,200.6,274.2,199z"/>
					<path d="M284,201v-4.8h-1.4v-1h1.4V193h1.1v2.3h2v1h-2v4.8c0,0.7,0.4,1.1,1.3,1.1c0.2,0,0.5,0,0.7-0.1v0.9
						c-0.2,0.1-0.7,0.1-0.9,0.1C284.5,203.1,284,202.1,284,201z"/>
					<path d="M289,199.1c0-2.3,1.7-4.1,4-4.1c2.3,0,4,1.8,4,4c0,2.3-1.8,4.1-4,4.1C290.8,203.1,289,201.4,289,199.1z M295.9,199.1
						c0-1.6-1.2-3.1-2.9-3.1c-1.7,0-2.8,1.4-2.8,3c0,1.6,1.2,3.1,2.9,3.1C294.7,202.1,295.9,200.8,295.9,199.1z"/>
					<path d="M108.9,216.7c0-2.3,1.7-4.1,4-4.1c2.3,0,4,1.8,4,4c0,2.3-1.8,4.1-4,4.1C110.7,220.7,108.9,218.9,108.9,216.7z
						 M115.8,216.7c0-1.6-1.2-3.1-2.9-3.1c-1.7,0-2.8,1.4-2.8,3c0,1.6,1.2,3.1,2.9,3.1C114.6,219.7,115.8,218.3,115.8,216.7z"/>
					<path d="M118.5,212.8h1.3l2.7,6.5l2.7-6.5h1.2l-3.3,7.8h-1.2L118.5,212.8z"/>
					<path d="M129,217c0.1,1.5,1.3,2.7,2.8,2.7c1.2,0,2-0.6,2.4-1.7l1,0.3c-0.5,1.5-1.9,2.4-3.4,2.4c-2.3,0-4-1.8-4-4
						c0-2.1,1.6-4,3.8-4c2.4,0,3.7,1.7,3.7,4c0,0.1,0,0.3,0,0.4H129z M134.2,216c-0.1-1.4-1-2.4-2.5-2.4c-1.4,0-2.4,1.1-2.6,2.4
						H134.2z"/>
					<path d="M139.2,214.3c0.6-1.2,1.6-1.7,2.5-1.7c0.1,0,0.3,0,0.4,0v1.2c-0.1,0-0.3,0-0.4,0c-1.8,0-2.4,1.5-2.4,2.9v3.8H138v-7.8
						h1.1V214.3z"/>
					<path d="M149.2,218.5v-4.8h-1.4v-1h1.4v-2.3h1.1v2.3h2v1h-2v4.8c0,0.7,0.4,1.1,1.3,1.1c0.2,0,0.5,0,0.7-0.1v0.9
						c-0.2,0.1-0.7,0.1-0.9,0.1C149.7,220.6,149.2,219.7,149.2,218.5z"/>
					<path d="M160.6,216c0-1.4-0.7-2.4-2.2-2.4c-1.4,0-2.3,1.1-2.3,2.5v4.4H155v-11.9h1.1v5.5c0.6-1,1.5-1.5,2.7-1.5
						c1.9,0,3,1.3,3,3.1v4.8h-1.1V216z"/>
					<path d="M165.5,217c0.1,1.5,1.3,2.7,2.8,2.7c1.2,0,2-0.6,2.4-1.7l1,0.3c-0.5,1.5-1.9,2.4-3.4,2.4c-2.3,0-4-1.8-4-4
						c0-2.1,1.6-4,3.8-4c2.4,0,3.7,1.7,3.7,4c0,0.1,0,0.3,0,0.4H165.5z M170.7,216c-0.1-1.4-1-2.4-2.5-2.4c-1.4,0-2.4,1.1-2.6,2.4
						H170.7z"/>
					<path d="M185,216c0-1.4-0.7-2.4-2.2-2.4c-1.4,0-2.3,1.1-2.3,2.5v4.4h-1.1v-7.8h1.1v1.4c0.6-1.1,1.5-1.6,2.7-1.6
						c1.9,0,3,1.3,3,3.1v4.8H185V216z"/>
					<path d="M189.9,217c0.1,1.5,1.3,2.7,2.8,2.7c1.2,0,2-0.6,2.4-1.7l1,0.3c-0.5,1.5-1.9,2.4-3.4,2.4c-2.3,0-4-1.8-4-4
						c0-2.1,1.6-4,3.8-4c2.4,0,3.7,1.7,3.7,4c0,0.1,0,0.3,0,0.4H189.9z M195.1,216c-0.1-1.4-1-2.4-2.5-2.4c-1.4,0-2.4,1.1-2.6,2.4
						H195.1z"/>
					<path d="M199,220.6h-1.3l3.1-4l-3-3.8h1.3l2.3,3l2.3-3h1.3l-3,3.8l3.1,4h-1.4l-2.4-3.2L199,220.6z"/>
					<path d="M208,218.5v-4.8h-1.4v-1h1.4v-2.3h1.1v2.3h2v1h-2v4.8c0,0.7,0.4,1.1,1.3,1.1c0.2,0,0.5,0,0.7-0.1v0.9
						c-0.2,0.1-0.7,0.1-0.9,0.1C208.5,220.6,208,219.7,208,218.5z"/>
					<path d="M220.8,210.4L218,212l-0.5-0.9l3.3-2h1.2v11.4h-1.2V210.4z"/>
					<path d="M225.1,220.2c0-1.3,0.6-2.8,2.6-4l1.7-1.1c1.1-0.7,2-1.4,2-2.7c0-1.2-1-2.3-2.5-2.3c-1.3,0-2,0.7-2.4,1.5
						c-0.2,0.5-0.2,0.9-0.2,1.1l-1.2-0.2c0-1.6,1.4-3.5,3.8-3.5c2.1,0,3.7,1.6,3.7,3.4c0,1.6-0.9,2.6-2.4,3.5l-1.8,1.1
						c-1,0.6-1.9,1.4-2,2.4h6.3v1.1h-7.7V220.2z"/>
					<path d="M245.8,216c0-1.3-0.6-2.3-2-2.3c-1.4,0-2.2,1.2-2.2,2.5v4.4h-1.1v-7.8h1.1v1.4c0.6-0.9,1.3-1.5,2.5-1.5
						c1.1,0,2,0.5,2.5,1.6c0.7-1,1.5-1.5,2.7-1.5c1.9,0,2.9,1.3,2.9,3.1v4.8h-1.1V216c0-1.3-0.6-2.4-2-2.4c-1.4,0-2.2,1.1-2.2,2.4
						v4.5h-1.1V216z"/>
					<path d="M254.9,216.7c0-2.3,1.7-4.1,4-4.1c2.3,0,4,1.8,4,4c0,2.3-1.8,4.1-4,4.1C256.7,220.7,254.9,218.9,254.9,216.7z
						 M261.8,216.7c0-1.6-1.2-3.1-2.9-3.1c-1.7,0-2.8,1.4-2.8,3c0,1.6,1.2,3.1,2.9,3.1C260.6,219.7,261.8,218.3,261.8,216.7z"/>
					<path d="M271.4,216c0-1.4-0.7-2.4-2.2-2.4c-1.4,0-2.3,1.1-2.3,2.5v4.4h-1.1v-7.8h1.1v1.4c0.6-1.1,1.5-1.6,2.7-1.6
						c1.9,0,3,1.3,3,3.1v4.8h-1.1V216z"/>
					<path d="M276.2,218.5v-4.8h-1.4v-1h1.4v-2.3h1.1v2.3h2v1h-2v4.8c0,0.7,0.4,1.1,1.3,1.1c0.2,0,0.5,0,0.7-0.1v0.9
						c-0.2,0.1-0.7,0.1-0.9,0.1C276.7,220.6,276.2,219.7,276.2,218.5z"/>
					<path d="M287.6,216c0-1.4-0.7-2.4-2.2-2.4c-1.4,0-2.3,1.1-2.3,2.5v4.4h-1.1v-11.9h1.1v5.5c0.6-1,1.5-1.5,2.7-1.5
						c1.9,0,3,1.3,3,3.1v4.8h-1.1V216z"/>
					<path d="M294.3,220.7c-2.1,0-2.8-1.4-3-2.3l1.1-0.2c0.2,0.7,0.7,1.5,1.9,1.5c0.8,0,1.6-0.5,1.6-1.3c0-1-1-1.2-1.8-1.3
						c-1.3-0.2-2.6-0.7-2.6-2.2c0-1.5,1.3-2.3,2.6-2.3c2.1,0,2.7,1.4,2.8,2.1l-1,0.2c-0.1-0.5-0.6-1.4-1.8-1.4
						c-0.8,0-1.5,0.6-1.5,1.2c0,1,1.1,1.1,1.9,1.2c1.3,0.2,2.6,0.8,2.6,2.3C297,219.8,295.8,220.7,294.3,220.7z"/>
				</g>
				<g>
					<g>
						<path class="st4" d="M440.9,335.8c0-70-55.4-127.1-124.7-129.9"/>
						<g>
							<polygon points="316.8,212 317.1,199.9 310.9,205.8 							"/>
						</g>
					</g>
				</g>
			</g>
		</g>
		<g>
			<g>
				<circle class="st2" cx="688.2" cy="353.7" r="128.7"/>
			</g>
			<g>
				<path class="st5" d="M661.3,334.5l-9.2,5.5l-1.8-3l11.1-6.7h3.9v38.2h-4V334.5z"/>
				<path class="st5" d="M686.1,368.8c-6.7,0-12.4-4-13.2-10.4l3.8-0.8c0.7,4.4,4,7.6,9.3,7.6c5.1,0,9.2-2.8,9.2-7.2
					c0-4.3-3.3-7.1-9.2-7.1h-3.8v-3.7h3.7c5.2,0,8.5-3.2,8.5-6.9c0-3.9-2.9-6.8-8.4-6.8c-5.2,0-8.2,3.1-8.9,7.2l-3.8-0.8
					c0.7-5.3,5.7-10,12.8-10c8.3,0,12.4,5.1,12.4,10.1c0,4.3-2.4,7.1-6.1,8.8v0c4.3,1.2,7,4.6,7,9.1
					C699.3,363.8,694.1,368.8,686.1,368.8z"/>
				<path class="st5" d="M708.3,355.1c-2.8,0-5-2.2-5-5c0-2.8,2.2-5,5-5c2.8,0,5,2.2,5,5C713.3,352.9,711.1,355.1,708.3,355.1z
					 M708.3,347c-1.7,0-3.2,1.4-3.2,3.2c0,1.7,1.4,3.1,3.2,3.1c1.7,0,3.2-1.4,3.2-3.1C711.4,348.4,710,347,708.3,347z M720.6,345.3
					h2.3l-14.5,22.2h-2.2L720.6,345.3z M720.6,367.8c-2.8,0-5-2.2-5-5c0-2.8,2.2-5,5-5c2.8,0,5,2.2,5,5
					C725.7,365.5,723.4,367.8,720.6,367.8z M720.6,359.6c-1.7,0-3.1,1.4-3.1,3.2c0,1.7,1.4,3.1,3.1,3.1s3.2-1.4,3.2-3.1
					C723.8,361,722.4,359.6,720.6,359.6z"/>
			</g>
			<g>
				<path class="st2" d="M363,67.3l-4.4,6.6v4.8h-1.2v-4.8l-4.4-6.6h1.4l3.6,5.5l3.7-5.5H363z"/>
				<path class="st2" d="M364.3,75.2c0.1,1.5,1.3,2.7,2.8,2.7c1.2,0,2-0.6,2.4-1.7l1,0.3c-0.5,1.5-1.9,2.4-3.4,2.4c-2.3,0-4-1.8-4-4
					c0-2.1,1.6-4,3.8-4c2.4,0,3.7,1.7,3.7,4c0,0.1,0,0.3,0,0.4H364.3z M369.5,74.2c-0.1-1.4-1-2.4-2.5-2.4c-1.4,0-2.4,1.1-2.6,2.4
					H369.5z"/>
				<path class="st2" d="M375.7,78.8c-2.1,0-2.8-1.4-3-2.3l1.1-0.2c0.2,0.7,0.7,1.5,1.9,1.5c0.8,0,1.6-0.5,1.6-1.3
					c0-1-1-1.2-1.8-1.3c-1.3-0.2-2.6-0.7-2.6-2.2c0-1.5,1.3-2.3,2.6-2.3c2.1,0,2.7,1.4,2.8,2.1l-1,0.2c-0.1-0.5-0.6-1.4-1.8-1.4
					c-0.8,0-1.5,0.6-1.5,1.2c0,1,1.1,1.1,1.9,1.2c1.3,0.2,2.6,0.8,2.6,2.3C378.4,77.9,377.2,78.8,375.7,78.8z"/>
				<path class="st2" d="M381,80.4c0.7-0.5,1.2-1.1,1.3-1.8c-0.1,0-0.2,0.1-0.4,0.1c-0.6,0-1-0.4-1-1c0-0.6,0.5-1,1-1
					c0.7,0,1.2,0.6,1.2,1.4v0.1c0,1-0.5,2-1.6,2.7L381,80.4z"/>
				<path class="st2" d="M391.7,78.7l-2.6-7.8h1.2l2,6.5h0l2.1-6.5h1.1l2.1,6.5h0l2.1-6.5h1.2l-2.6,7.8h-1.3l-2.1-6.3h0l-2.1,6.3
					H391.7z"/>
				<path class="st2" d="M403.8,75.2c0.1,1.5,1.3,2.7,2.8,2.7c1.2,0,2-0.6,2.4-1.7l1,0.3c-0.5,1.5-1.9,2.4-3.4,2.4c-2.3,0-4-1.8-4-4
					c0-2.1,1.6-4,3.8-4c2.4,0,3.7,1.7,3.7,4c0,0.1,0,0.3,0,0.4H403.8z M409,74.2c-0.1-1.4-1-2.4-2.5-2.4c-1.4,0-2.4,1.1-2.6,2.4H409
					z"/>
				<path class="st2" d="M423.3,74.2c0-1.4-0.7-2.4-2.2-2.4c-1.4,0-2.3,1.1-2.3,2.5v4.4h-1.1V66.8h1.1v5.5c0.6-1,1.5-1.5,2.7-1.5
					c1.9,0,3,1.3,3,3.1v4.8h-1.1V74.2z"/>
				<path class="st2" d="M432.3,73.7c0-1.3-0.7-1.9-2-1.9c-1.3,0-1.9,0.8-2,1.6l-1.1-0.2c0.1-0.7,0.9-2.4,3.2-2.4
					c1.7,0,2.5,0.7,2.9,1.6c0.2,0.4,0.2,1,0.2,1.3v5h-1.1v-1.4h0c-0.6,1-1.5,1.5-2.6,1.5c-1.6,0-2.6-1-2.6-2.3v-0.1
					c0-1.7,1.7-2.3,3.1-2.3h2.2V73.7z M430.1,75.1c-0.8,0-1.9,0.3-1.9,1.3c0,0.9,0.7,1.4,1.7,1.4c1.4,0,2.4-1,2.4-2.4v-0.3H430.1z"
					/>
				<path class="st2" d="M435.5,70.9h1.3l2.7,6.5l2.7-6.5h1.2l-3.3,7.8h-1.2L435.5,70.9z"/>
				<path class="st2" d="M446,75.2c0.1,1.5,1.3,2.7,2.8,2.7c1.2,0,2-0.6,2.4-1.7l1,0.3c-0.5,1.5-1.9,2.4-3.4,2.4c-2.3,0-4-1.8-4-4
					c0-2.1,1.6-4,3.8-4c2.4,0,3.7,1.7,3.7,4c0,0.1,0,0.3,0,0.4H446z M451.2,74.2c-0.1-1.4-1-2.4-2.5-2.4c-1.4,0-2.4,1.1-2.6,2.4
					H451.2z"/>
				<path class="st2" d="M460.4,67.3c0.5,0,0.9,0.4,0.9,0.9c0,0.5-0.4,0.8-0.9,0.8c-0.5,0-0.8-0.4-0.8-0.8
					C459.6,67.6,459.9,67.3,460.4,67.3z M461,70.9v7.8h-1.2v-7.8H461z"/>
				<path class="st2" d="M469.9,74.2c0-1.4-0.7-2.4-2.2-2.4c-1.4,0-2.3,1.1-2.3,2.5v4.4h-1.1v-7.8h1.1v1.4c0.6-1.1,1.5-1.6,2.7-1.6
					c1.9,0,3,1.3,3,3.1v4.8h-1.1V74.2z"/>
				<path class="st2" d="M474.7,76.7v-4.8h-1.4v-1h1.4v-2.3h1.1v2.3h2v1h-2v4.8c0,0.7,0.4,1.1,1.3,1.1c0.2,0,0.5,0,0.7-0.1v0.9
					c-0.2,0.1-0.7,0.1-0.9,0.1C475.2,78.8,474.7,77.8,474.7,76.7z"/>
				<path class="st2" d="M481.6,72.5c0.6-1.2,1.6-1.7,2.5-1.7c0.1,0,0.3,0,0.4,0V72c-0.1,0-0.3,0-0.4,0c-1.8,0-2.4,1.5-2.4,2.9v3.8
					h-1.1v-7.8h1.1V72.5z"/>
				<path class="st2" d="M485.9,74.8c0-2.3,1.7-4.1,4-4.1c2.3,0,4,1.8,4,4c0,2.3-1.8,4.1-4,4.1C487.7,78.8,485.9,77.1,485.9,74.8z
					 M492.8,74.8c0-1.6-1.2-3.1-2.9-3.1c-1.7,0-2.8,1.4-2.8,3c0,1.6,1.2,3.1,2.9,3.1C491.6,77.8,492.8,76.5,492.8,74.8z"/>
				<path class="st2" d="M499.8,70.8c1.5,0,2.4,0.8,3,1.8v-5.7h1.1v11.9h-1.1V77c-0.6,1-1.5,1.8-3,1.8c-2.2,0-3.7-1.9-3.7-4
					C496.2,72.8,497.6,70.8,499.8,70.8z M502.9,74.8c0-1.5-1.2-3-2.8-3c-1.7,0-2.7,1.4-2.7,3c0,1.6,1,3,2.7,3
					C501.7,77.8,502.9,76.4,502.9,74.8z"/>
				<path class="st2" d="M508.3,75.4c0,1.4,0.7,2.4,2.2,2.4c1.4,0,2.3-1.1,2.3-2.5v-4.5h1.1v7.8h-1.1v-1.4c-0.6,1.1-1.5,1.6-2.7,1.6
					c-1.9,0-3-1.3-3-3.1v-4.8h1.1V75.4z"/>
				<path class="st2" d="M520.7,77.8c1.7,0,2.4-1.3,2.6-1.9l1.1,0.4c-0.4,1.2-1.6,2.5-3.7,2.5c-2.3,0-4-1.7-4-4c0-2.4,1.8-4.1,4-4.1
					c1.8,0,3.3,1.2,3.6,2.5l-1.1,0.3c-0.2-0.6-0.9-1.8-2.6-1.8c-1.7,0-2.8,1.4-2.8,3C517.9,76.4,518.9,77.8,520.7,77.8z"/>
				<path class="st2" d="M527.6,75.2c0.1,1.5,1.3,2.7,2.8,2.7c1.2,0,2-0.6,2.4-1.7l1,0.3c-0.5,1.5-1.9,2.4-3.4,2.4c-2.3,0-4-1.8-4-4
					c0-2.1,1.6-4,3.8-4c2.4,0,3.7,1.7,3.7,4c0,0.1,0,0.3,0,0.4H527.6z M532.8,74.2c-0.1-1.4-1-2.4-2.5-2.4c-1.4,0-2.4,1.1-2.6,2.4
					H532.8z"/>
				<path class="st2" d="M539.7,70.8c1.5,0,2.4,0.8,3,1.8v-5.7h1.1v11.9h-1.1V77c-0.6,1-1.5,1.8-3,1.8c-2.2,0-3.7-1.9-3.7-4
					C536.1,72.8,537.5,70.8,539.7,70.8z M542.8,74.8c0-1.5-1.2-3-2.8-3c-1.7,0-2.7,1.4-2.7,3c0,1.6,1,3,2.7,3
					C541.6,77.8,542.8,76.4,542.8,74.8z"/>
				<path class="st2" d="M440.2,91.7c0-1.4-0.7-2.4-2.2-2.4c-1.4,0-2.3,1.1-2.3,2.5v4.4h-1.1v-7.8h1.1v1.4c0.6-1.1,1.5-1.6,2.7-1.6
					c1.9,0,3,1.3,3,3.1v4.8h-1.1V91.7z"/>
				<path class="st2" d="M445.1,92.7c0.1,1.5,1.3,2.7,2.8,2.7c1.2,0,2-0.6,2.4-1.7l1,0.3c-0.5,1.5-1.9,2.4-3.4,2.4c-2.3,0-4-1.8-4-4
					c0-2.1,1.6-4,3.8-4c2.4,0,3.7,1.7,3.7,4c0,0.1,0,0.3,0,0.4H445.1z M450.3,91.7c-0.1-1.4-1-2.4-2.5-2.4c-1.4,0-2.4,1.1-2.6,2.4
					H450.3z"/>
				<path class="st2" d="M455.6,96.3l-2.6-7.8h1.2l2,6.5h0l2.1-6.5h1.1l2.1,6.5h0l2.1-6.5h1.2l-2.6,7.8H461l-2.1-6.3h0l-2.1,6.3
					H455.6z"/>
				<path class="st2" d="M477.5,91.7c0-1.3-0.6-2.3-2-2.3c-1.4,0-2.2,1.2-2.2,2.5v4.4h-1.1v-7.8h1.1v1.4c0.6-0.9,1.3-1.5,2.5-1.5
					c1.1,0,2,0.5,2.5,1.6c0.7-1,1.5-1.5,2.7-1.5c1.9,0,2.9,1.3,2.9,3.1v4.8h-1.1v-4.5c0-1.3-0.6-2.4-2-2.4c-1.4,0-2.2,1.1-2.2,2.4
					v4.5h-1.1V91.7z"/>
				<path class="st2" d="M487.7,92.7c0.1,1.5,1.3,2.7,2.8,2.7c1.2,0,2-0.6,2.4-1.7l1,0.3c-0.5,1.5-1.9,2.4-3.4,2.4c-2.3,0-4-1.8-4-4
					c0-2.1,1.6-4,3.8-4c2.4,0,3.7,1.7,3.7,4c0,0.1,0,0.3,0,0.4H487.7z M492.9,91.7c-0.1-1.4-1-2.4-2.5-2.4c-1.4,0-2.4,1.1-2.6,2.4
					H492.9z"/>
				<path class="st2" d="M501.4,91.2c0-1.3-0.7-1.9-2-1.9c-1.3,0-1.9,0.8-2,1.6l-1.1-0.2c0.1-0.7,0.9-2.4,3.2-2.4
					c1.7,0,2.5,0.7,2.9,1.6c0.2,0.4,0.2,1,0.2,1.3v5h-1.1v-1.4h0c-0.6,1-1.5,1.5-2.6,1.5c-1.6,0-2.6-1-2.6-2.3V94
					c0-1.7,1.7-2.3,3.1-2.3h2.2V91.2z M499.3,92.7c-0.8,0-1.9,0.3-1.9,1.3c0,0.9,0.7,1.4,1.7,1.4c1.4,0,2.4-1,2.4-2.4v-0.3H499.3z"
					/>
				<path class="st2" d="M508.2,96.4c-2.1,0-2.8-1.4-3-2.3l1.1-0.2c0.2,0.7,0.7,1.5,1.9,1.5c0.8,0,1.6-0.5,1.6-1.3
					c0-1-1-1.2-1.8-1.3c-1.3-0.2-2.6-0.7-2.6-2.2c0-1.5,1.3-2.3,2.6-2.3c2.1,0,2.7,1.4,2.8,2.1l-1,0.2c-0.1-0.5-0.6-1.4-1.8-1.4
					c-0.8,0-1.5,0.6-1.5,1.2c0,1,1.1,1.1,1.9,1.2c1.3,0.2,2.6,0.8,2.6,2.3C510.9,95.5,509.7,96.4,508.2,96.4z"/>
				<path class="st2" d="M514.7,93c0,1.4,0.7,2.4,2.2,2.4c1.4,0,2.3-1.1,2.3-2.5v-4.5h1.1v7.8h-1.1v-1.4c-0.6,1.1-1.5,1.6-2.7,1.6
					c-1.9,0-3-1.3-3-3.1v-4.8h1.1V93z"/>
				<path class="st2" d="M524.8,90c0.6-1.2,1.6-1.7,2.5-1.7c0.1,0,0.3,0,0.4,0v1.2c-0.1,0-0.3,0-0.4,0c-1.8,0-2.4,1.5-2.4,2.9v3.8
					h-1.1v-7.8h1.1V90z"/>
				<path class="st2" d="M530.3,92.7c0.1,1.5,1.3,2.7,2.8,2.7c1.2,0,2-0.6,2.4-1.7l1,0.3c-0.5,1.5-1.9,2.4-3.4,2.4c-2.3,0-4-1.8-4-4
					c0-2.1,1.6-4,3.8-4c2.4,0,3.7,1.7,3.7,4c0,0.1,0,0.3,0,0.4H530.3z M535.4,91.7c-0.1-1.4-1-2.4-2.5-2.4c-1.4,0-2.4,1.1-2.6,2.4
					H535.4z"/>
				<path class="st2" d="M541.7,96.4c-2.1,0-2.8-1.4-3-2.3l1.1-0.2c0.2,0.7,0.7,1.5,1.9,1.5c0.8,0,1.6-0.5,1.6-1.3
					c0-1-1-1.2-1.8-1.3c-1.3-0.2-2.6-0.7-2.6-2.2c0-1.5,1.3-2.3,2.6-2.3c2.1,0,2.7,1.4,2.8,2.1l-1,0.2c-0.1-0.5-0.6-1.4-1.8-1.4
					c-0.8,0-1.5,0.6-1.5,1.2c0,1,1.1,1.1,1.9,1.2c1.3,0.2,2.6,0.8,2.6,2.3C544.4,95.5,543.2,96.4,541.7,96.4z"/>
			</g>
			<g>
				<g>
					<path class="st6" d="M689.5,212.7c0-70-55.4-127.1-124.7-129.9"/>
					<g>
						<polygon class="st2" points="565.4,88.9 565.7,76.8 559.5,82.7 						"/>
					</g>
				</g>
			</g>
		</g>
	</g>
</g>
</svg>
