<?xml version="1.0" encoding="utf-8"?>
<!-- Generator: Adobe Illustrator 21.1.0, SVG Export Plug-In . SVG Version: 6.00 Build 0)  -->
<svg version="1.1" id="Layer_1" xmlns="http://www.w3.org/2000/svg" xmlns:xlink="http://www.w3.org/1999/xlink" x="0px" y="0px"
	 viewBox="0 0 1500 1053" style="enable-background:new 0 0 1500 1053;" xml:space="preserve">
<style type="text/css">
	.st0{fill:#FFFFFF;}
</style>
<g>
	<path class="st0" d="M501.1,536.8h-12.9v26.9h-11.4v-72.6h25.6c18.2,0,25.4,11.3,25.4,22.5C527.9,526.3,518.6,536.8,501.1,536.8z
		 M501.4,501.6h-13.3v24.7h13.3c11,0,14.8-6.7,14.8-12.4C516.3,508.4,513.4,501.6,501.4,501.6z"/>
	<path class="st0" d="M538.3,563.8v-75.5h11v75.5H538.3z"/>
	<path class="st0" d="M592.3,563.8v-6.8c-3.6,6-9.9,7.6-14.6,7.6c-9.6,0-16.7-6-16.7-14.6v-0.6c0-11.5,12-15.1,20.6-15.1h6.1
		c3.3,0,4.6-1.8,4.6-4.2c0-3.9-3.2-7.5-9.7-7.5c-6,0-10,3.4-10.9,8.2l-10-2.2c0.5-4.2,4.3-10.5,11.1-13.5c2.9-1.3,6.4-1.9,10-1.9
		c8.4,0,15.3,3,18.6,10.1c1.2,2.7,1.7,5.6,1.7,8.9v31.5L592.3,563.8L592.3,563.8z M592.3,542.1h-10.7c-4.2,0-9.6,2.2-9.6,6.9
		c0,4.1,3.2,6.8,7.9,6.8c7.5,0,12.3-4.6,12.3-12.1v-1.6H592.3z"/>
	<path class="st0" d="M614.1,538.8c0-14.1,11.2-25.7,26-25.7c12.2,0,20.8,7.6,22.9,16l-10,3.3c-1.1-3.9-4.7-9.3-13-9.3
		c-8.1,0-14.6,6.1-14.6,15.5c0,9.3,6.2,15.9,14.7,15.9s11.6-5.7,13.1-9.5l10.1,3.2c-2.2,7.6-9.9,16.2-23.4,16.2
		C625.3,564.6,614.1,553.4,614.1,538.8z"/>
	<path class="st0" d="M681.9,542.2c0.2,7.6,7.2,12.9,14.5,12.9c6,0,11.1-2.3,13.2-8.3l9.2,3.2c-2.8,9.3-12.3,14.8-22.2,14.8
		c-14.7,0-26-11-26-25.8c0-14,10.6-25.7,25-25.7c15.4,0,24.1,10.7,24.1,25.6c0,1.1,0,2.2-0.2,3.4L681.9,542.2L681.9,542.2z
		 M682.4,533.8h26c-0.4-7.1-6-11.2-12.9-11.2C688.8,522.7,683.5,527.1,682.4,533.8z"/>
	<path class="st0" d="M753.4,523.7c-7,0-11.4,5-11.4,12.5v27.6h-11v-75.5h11v32.3c4.7-6,10.9-7.3,14.8-7.3c12.6,0,18.6,8.8,18.6,20
		v30.5h-11V536C764.4,528.9,761,523.7,753.4,523.7z"/>
	<path class="st0" d="M812.5,513.2c14.2,0,26,10.9,26,25.5c0,14.7-11.5,25.9-26.1,25.9c-14.3,0-26.2-11-26.2-25.7
		C786.2,524.2,798.1,513.2,812.5,513.2z M812.5,554.6c9,0,14.8-7.1,14.8-15.7c0-8.6-5.8-15.7-14.8-15.7c-8.9,0-14.8,7-14.8,15.5
		C797.6,547.2,803.5,554.6,812.5,554.6z"/>
	<path class="st0" d="M850,563.8v-75.5h11v75.5H850z"/>
	<path class="st0" d="M897,513.3c4.4,0,12.3,2.1,16.1,8v-33h11v75.5h-10.7V556c-3.9,6.4-12.6,8.4-16.6,8.4
		c-14.3,0-24.4-12.2-24.4-25.6C872.4,526.4,881.6,513.3,897,513.3z M898.4,523.2c-9,0-14.8,7.1-14.8,15.7c0,8.6,5.9,15.6,14.8,15.6
		c8.9,0,14.8-7.1,14.8-15.6S907.3,523.2,898.4,523.2z"/>
	<path class="st0" d="M947,542.2c0.2,7.6,7.2,12.9,14.5,12.9c6,0,11.1-2.3,13.2-8.3l9.2,3.2c-2.8,9.3-12.3,14.8-22.2,14.8
		c-14.7,0-26-11-26-25.8c0-14,10.6-25.7,25-25.7c15.4,0,24.1,10.7,24.1,25.6c0,1.1,0,2.2-0.2,3.4L947,542.2L947,542.2z M947.5,533.8
		h26c-0.4-7.1-6-11.2-12.9-11.2C953.8,522.7,948.5,527.1,947.5,533.8z"/>
	<path class="st0" d="M1020,525.1c-8.4,0-12.9,5-12.9,13.5v25.1h-11v-49.5h10.8v7.6c3.1-5.4,8.4-8.1,13.6-8.1c0.4,0,1.9,0.1,2.7,0.3
		v11.3C1022.2,525.2,1020.2,525.1,1020,525.1z"/>
</g>
</svg>
