<?xml version="1.0" encoding="utf-8"?>
<!-- Generator: Adobe Illustrator 21.1.0, SVG Export Plug-In . SVG Version: 6.00 Build 0)  -->
<svg version="1.1" id="graphOneCyber" xmlns="http://www.w3.org/2000/svg" xmlns:xlink="http://www.w3.org/1999/xlink" x="0px"
	 y="0px" viewBox="0 0 1500 1053" style="enable-background:new 0 0 1500 1053;" xml:space="preserve">
<style type="text/css">
	.st0-C1{fill:none;}
	.st1-C1{fill:none;stroke:#000000;stroke-width:2;stroke-linecap:round;stroke-miterlimit:10;}
	.st2-c1{fill:none;stroke:#000000;stroke-width:2;stroke-linecap:round;stroke-miterlimit:10;stroke-dasharray:0,10;}
	.st3-c1{opacity:0.9;}
	.st4-c1{fill:none;stroke:#000000;stroke-width:0.75;stroke-miterlimit:10;}
	.st5-c1{fill:#FF8F4E;}
	.st6-c1{fill:url(#SVGID-6-c1);}
	.st7-c1{fill:url(#SVGID-7-c1);}
	.st8-c1{fill:url(#SVGID-8-c1);}
	.st9-c1{fill:url(#SVGID-9-c1);}
	.st10-c1{fill:#8EFFDE;}
	.st11-c1{fill:url(#SVGID-10-c1);}
</style>
<pattern  y="1053" width="240" height="240" patternUnits="userSpaceOnUse" id="SVGID_1_" viewBox="1 -241 240 240" style="overflow:visible;">
	<g>
		<rect x="1" y="-241" class="st0-C1" width="240" height="240"/>
		<g>
			<rect x="1" y="-241" class="st0-C1" width="240" height="240"/>
			<g>
				<g>
					<line class="st1-C1" x1="241" y1="-241" x2="241" y2="-241"/>
				</g>
			</g>
			<g>
				<g>
					<line class="st1-C1" x1="1" y1="-241" x2="1" y2="-241"/>
					<line class="st2-c1" x1="11" y1="-241" x2="236" y2="-241"/>
					<line class="st1-C1" x1="241" y1="-241" x2="241" y2="-241"/>
				</g>
			</g>
			<g>
				<g>
					<line class="st1-C1" x1="1" y1="-241" x2="1" y2="-241"/>
				</g>
			</g>
			<g>
				<g>
					<line class="st1-C1" x1="241" y1="-1" x2="241" y2="-1"/>
				</g>
				<g>
					<line class="st1-C1" x1="241" y1="-11" x2="241" y2="-11"/>
				</g>
				<g>
					<line class="st1-C1" x1="241" y1="-21" x2="241" y2="-21"/>
				</g>
				<g>
					<line class="st1-C1" x1="241" y1="-31" x2="241" y2="-31"/>
				</g>
				<g>
					<line class="st1-C1" x1="241" y1="-41" x2="241" y2="-41"/>
				</g>
				<g>
					<line class="st1-C1" x1="241" y1="-51" x2="241" y2="-51"/>
				</g>
				<g>
					<line class="st1-C1" x1="241" y1="-61" x2="241" y2="-61"/>
				</g>
				<g>
					<line class="st1-C1" x1="241" y1="-71" x2="241" y2="-71"/>
				</g>
				<g>
					<line class="st1-C1" x1="241" y1="-81" x2="241" y2="-81"/>
				</g>
				<g>
					<line class="st1-C1" x1="241" y1="-91" x2="241" y2="-91"/>
				</g>
				<g>
					<line class="st1-C1" x1="241" y1="-101" x2="241" y2="-101"/>
				</g>
				<g>
					<line class="st1-C1" x1="241" y1="-111" x2="241" y2="-111"/>
				</g>
				<g>
					<line class="st1-C1" x1="241" y1="-121" x2="241" y2="-121"/>
				</g>
				<g>
					<line class="st1-C1" x1="241" y1="-131" x2="241" y2="-131"/>
				</g>
				<g>
					<line class="st1-C1" x1="241" y1="-141" x2="241" y2="-141"/>
				</g>
				<g>
					<line class="st1-C1" x1="241" y1="-151" x2="241" y2="-151"/>
				</g>
				<g>
					<line class="st1-C1" x1="241" y1="-161" x2="241" y2="-161"/>
				</g>
				<g>
					<line class="st1-C1" x1="241" y1="-171" x2="241" y2="-171"/>
				</g>
				<g>
					<line class="st1-C1" x1="241" y1="-181" x2="241" y2="-181"/>
				</g>
				<g>
					<line class="st1-C1" x1="241" y1="-191" x2="241" y2="-191"/>
				</g>
				<g>
					<line class="st1-C1" x1="241" y1="-201" x2="241" y2="-201"/>
				</g>
				<g>
					<line class="st1-C1" x1="241" y1="-211" x2="241" y2="-211"/>
				</g>
				<g>
					<line class="st1-C1" x1="241" y1="-221" x2="241" y2="-221"/>
				</g>
				<g>
					<line class="st1-C1" x1="241" y1="-231" x2="241" y2="-231"/>
				</g>
				<g>
					<line class="st1-C1" x1="241" y1="-241" x2="241" y2="-241"/>
				</g>
			</g>
			<g>
				<g>
					<line class="st1-C1" x1="1" y1="-1" x2="1" y2="-1"/>
					<line class="st2-c1" x1="11" y1="-1" x2="236" y2="-1"/>
					<line class="st1-C1" x1="241" y1="-1" x2="241" y2="-1"/>
				</g>
				<g>
					<line class="st1-C1" x1="1" y1="-11" x2="1" y2="-11"/>
					<line class="st2-c1" x1="11" y1="-11" x2="236" y2="-11"/>
					<line class="st1-C1" x1="241" y1="-11" x2="241" y2="-11"/>
				</g>
				<g>
					<line class="st1-C1" x1="1" y1="-21" x2="1" y2="-21"/>
					<line class="st2-c1" x1="11" y1="-21" x2="236" y2="-21"/>
					<line class="st1-C1" x1="241" y1="-21" x2="241" y2="-21"/>
				</g>
				<g>
					<line class="st1-C1" x1="1" y1="-31" x2="1" y2="-31"/>
					<line class="st2-c1" x1="11" y1="-31" x2="236" y2="-31"/>
					<line class="st1-C1" x1="241" y1="-31" x2="241" y2="-31"/>
				</g>
				<g>
					<line class="st1-C1" x1="1" y1="-41" x2="1" y2="-41"/>
					<line class="st2-c1" x1="11" y1="-41" x2="236" y2="-41"/>
					<line class="st1-C1" x1="241" y1="-41" x2="241" y2="-41"/>
				</g>
				<g>
					<line class="st1-C1" x1="1" y1="-51" x2="1" y2="-51"/>
					<line class="st2-c1" x1="11" y1="-51" x2="236" y2="-51"/>
					<line class="st1-C1" x1="241" y1="-51" x2="241" y2="-51"/>
				</g>
				<g>
					<line class="st1-C1" x1="1" y1="-61" x2="1" y2="-61"/>
					<line class="st2-c1" x1="11" y1="-61" x2="236" y2="-61"/>
					<line class="st1-C1" x1="241" y1="-61" x2="241" y2="-61"/>
				</g>
				<g>
					<line class="st1-C1" x1="1" y1="-71" x2="1" y2="-71"/>
					<line class="st2-c1" x1="11" y1="-71" x2="236" y2="-71"/>
					<line class="st1-C1" x1="241" y1="-71" x2="241" y2="-71"/>
				</g>
				<g>
					<line class="st1-C1" x1="1" y1="-81" x2="1" y2="-81"/>
					<line class="st2-c1" x1="11" y1="-81" x2="236" y2="-81"/>
					<line class="st1-C1" x1="241" y1="-81" x2="241" y2="-81"/>
				</g>
				<g>
					<line class="st1-C1" x1="1" y1="-91" x2="1" y2="-91"/>
					<line class="st2-c1" x1="11" y1="-91" x2="236" y2="-91"/>
					<line class="st1-C1" x1="241" y1="-91" x2="241" y2="-91"/>
				</g>
				<g>
					<line class="st1-C1" x1="1" y1="-101" x2="1" y2="-101"/>
					<line class="st2-c1" x1="11" y1="-101" x2="236" y2="-101"/>
					<line class="st1-C1" x1="241" y1="-101" x2="241" y2="-101"/>
				</g>
				<g>
					<line class="st1-C1" x1="1" y1="-111" x2="1" y2="-111"/>
					<line class="st2-c1" x1="11" y1="-111" x2="236" y2="-111"/>
					<line class="st1-C1" x1="241" y1="-111" x2="241" y2="-111"/>
				</g>
				<g>
					<line class="st1-C1" x1="1" y1="-121" x2="1" y2="-121"/>
					<line class="st2-c1" x1="11" y1="-121" x2="236" y2="-121"/>
					<line class="st1-C1" x1="241" y1="-121" x2="241" y2="-121"/>
				</g>
				<g>
					<line class="st1-C1" x1="1" y1="-131" x2="1" y2="-131"/>
					<line class="st2-c1" x1="11" y1="-131" x2="236" y2="-131"/>
					<line class="st1-C1" x1="241" y1="-131" x2="241" y2="-131"/>
				</g>
				<g>
					<line class="st1-C1" x1="1" y1="-141" x2="1" y2="-141"/>
					<line class="st2-c1" x1="11" y1="-141" x2="236" y2="-141"/>
					<line class="st1-C1" x1="241" y1="-141" x2="241" y2="-141"/>
				</g>
				<g>
					<line class="st1-C1" x1="1" y1="-151" x2="1" y2="-151"/>
					<line class="st2-c1" x1="11" y1="-151" x2="236" y2="-151"/>
					<line class="st1-C1" x1="241" y1="-151" x2="241" y2="-151"/>
				</g>
				<g>
					<line class="st1-C1" x1="1" y1="-161" x2="1" y2="-161"/>
					<line class="st2-c1" x1="11" y1="-161" x2="236" y2="-161"/>
					<line class="st1-C1" x1="241" y1="-161" x2="241" y2="-161"/>
				</g>
				<g>
					<line class="st1-C1" x1="1" y1="-171" x2="1" y2="-171"/>
					<line class="st2-c1" x1="11" y1="-171" x2="236" y2="-171"/>
					<line class="st1-C1" x1="241" y1="-171" x2="241" y2="-171"/>
				</g>
				<g>
					<line class="st1-C1" x1="1" y1="-181" x2="1" y2="-181"/>
					<line class="st2-c1" x1="11" y1="-181" x2="236" y2="-181"/>
					<line class="st1-C1" x1="241" y1="-181" x2="241" y2="-181"/>
				</g>
				<g>
					<line class="st1-C1" x1="1" y1="-191" x2="1" y2="-191"/>
					<line class="st2-c1" x1="11" y1="-191" x2="236" y2="-191"/>
					<line class="st1-C1" x1="241" y1="-191" x2="241" y2="-191"/>
				</g>
				<g>
					<line class="st1-C1" x1="1" y1="-201" x2="1" y2="-201"/>
					<line class="st2-c1" x1="11" y1="-201" x2="236" y2="-201"/>
					<line class="st1-C1" x1="241" y1="-201" x2="241" y2="-201"/>
				</g>
				<g>
					<line class="st1-C1" x1="1" y1="-211" x2="1" y2="-211"/>
					<line class="st2-c1" x1="11" y1="-211" x2="236" y2="-211"/>
					<line class="st1-C1" x1="241" y1="-211" x2="241" y2="-211"/>
				</g>
				<g>
					<line class="st1-C1" x1="1" y1="-221" x2="1" y2="-221"/>
					<line class="st2-c1" x1="11" y1="-221" x2="236" y2="-221"/>
					<line class="st1-C1" x1="241" y1="-221" x2="241" y2="-221"/>
				</g>
				<g>
					<line class="st1-C1" x1="1" y1="-231" x2="1" y2="-231"/>
					<line class="st2-c1" x1="11" y1="-231" x2="236" y2="-231"/>
					<line class="st1-C1" x1="241" y1="-231" x2="241" y2="-231"/>
				</g>
				<g>
					<line class="st1-C1" x1="1" y1="-241" x2="1" y2="-241"/>
					<line class="st2-c1" x1="11" y1="-241" x2="236" y2="-241"/>
					<line class="st1-C1" x1="241" y1="-241" x2="241" y2="-241"/>
				</g>
			</g>
			<g>
				<g>
					<line class="st1-C1" x1="1" y1="-1" x2="1" y2="-1"/>
				</g>
				<g>
					<line class="st1-C1" x1="1" y1="-11" x2="1" y2="-11"/>
				</g>
				<g>
					<line class="st1-C1" x1="1" y1="-21" x2="1" y2="-21"/>
				</g>
				<g>
					<line class="st1-C1" x1="1" y1="-31" x2="1" y2="-31"/>
				</g>
				<g>
					<line class="st1-C1" x1="1" y1="-41" x2="1" y2="-41"/>
				</g>
				<g>
					<line class="st1-C1" x1="1" y1="-51" x2="1" y2="-51"/>
				</g>
				<g>
					<line class="st1-C1" x1="1" y1="-61" x2="1" y2="-61"/>
				</g>
				<g>
					<line class="st1-C1" x1="1" y1="-71" x2="1" y2="-71"/>
				</g>
				<g>
					<line class="st1-C1" x1="1" y1="-81" x2="1" y2="-81"/>
				</g>
				<g>
					<line class="st1-C1" x1="1" y1="-91" x2="1" y2="-91"/>
				</g>
				<g>
					<line class="st1-C1" x1="1" y1="-101" x2="1" y2="-101"/>
				</g>
				<g>
					<line class="st1-C1" x1="1" y1="-111" x2="1" y2="-111"/>
				</g>
				<g>
					<line class="st1-C1" x1="1" y1="-121" x2="1" y2="-121"/>
				</g>
				<g>
					<line class="st1-C1" x1="1" y1="-131" x2="1" y2="-131"/>
				</g>
				<g>
					<line class="st1-C1" x1="1" y1="-141" x2="1" y2="-141"/>
				</g>
				<g>
					<line class="st1-C1" x1="1" y1="-151" x2="1" y2="-151"/>
				</g>
				<g>
					<line class="st1-C1" x1="1" y1="-161" x2="1" y2="-161"/>
				</g>
				<g>
					<line class="st1-C1" x1="1" y1="-171" x2="1" y2="-171"/>
				</g>
				<g>
					<line class="st1-C1" x1="1" y1="-181" x2="1" y2="-181"/>
				</g>
				<g>
					<line class="st1-C1" x1="1" y1="-191" x2="1" y2="-191"/>
				</g>
				<g>
					<line class="st1-C1" x1="1" y1="-201" x2="1" y2="-201"/>
				</g>
				<g>
					<line class="st1-C1" x1="1" y1="-211" x2="1" y2="-211"/>
				</g>
				<g>
					<line class="st1-C1" x1="1" y1="-221" x2="1" y2="-221"/>
				</g>
				<g>
					<line class="st1-C1" x1="1" y1="-231" x2="1" y2="-231"/>
				</g>
				<g>
					<line class="st1-C1" x1="1" y1="-241" x2="1" y2="-241"/>
				</g>
			</g>
			<g>
				<g>
					<line class="st1-C1" x1="241" y1="-1" x2="241" y2="-1"/>
				</g>
			</g>
			<g>
				<g>
					<line class="st1-C1" x1="1" y1="-1" x2="1" y2="-1"/>
					<line class="st2-c1" x1="11" y1="-1" x2="236" y2="-1"/>
					<line class="st1-C1" x1="241" y1="-1" x2="241" y2="-1"/>
				</g>
			</g>
			<g>
				<g>
					<line class="st1-C1" x1="1" y1="-1" x2="1" y2="-1"/>
				</g>
			</g>
		</g>
	</g>
</pattern>
<pattern  y="1053" width="240" height="240" patternUnits="userSpaceOnUse" id="SVGID_2_" viewBox="1 -241 240 240" style="overflow:visible;">
	<g>
		<rect x="1" y="-241" class="st0-C1" width="240" height="240"/>
		<g>
			<rect x="1" y="-241" class="st0-C1" width="240" height="240"/>
			<g>
				<g>
					<line class="st1-C1" x1="241" y1="-241" x2="241" y2="-241"/>
				</g>
			</g>
			<g>
				<g>
					<line class="st1-C1" x1="1" y1="-241" x2="1" y2="-241"/>
					<line class="st2-c1" x1="11" y1="-241" x2="236" y2="-241"/>
					<line class="st1-C1" x1="241" y1="-241" x2="241" y2="-241"/>
				</g>
			</g>
			<g>
				<g>
					<line class="st1-C1" x1="1" y1="-241" x2="1" y2="-241"/>
				</g>
			</g>
			<g>
				<g>
					<line class="st1-C1" x1="241" y1="-1" x2="241" y2="-1"/>
				</g>
				<g>
					<line class="st1-C1" x1="241" y1="-11" x2="241" y2="-11"/>
				</g>
				<g>
					<line class="st1-C1" x1="241" y1="-21" x2="241" y2="-21"/>
				</g>
				<g>
					<line class="st1-C1" x1="241" y1="-31" x2="241" y2="-31"/>
				</g>
				<g>
					<line class="st1-C1" x1="241" y1="-41" x2="241" y2="-41"/>
				</g>
				<g>
					<line class="st1-C1" x1="241" y1="-51" x2="241" y2="-51"/>
				</g>
				<g>
					<line class="st1-C1" x1="241" y1="-61" x2="241" y2="-61"/>
				</g>
				<g>
					<line class="st1-C1" x1="241" y1="-71" x2="241" y2="-71"/>
				</g>
				<g>
					<line class="st1-C1" x1="241" y1="-81" x2="241" y2="-81"/>
				</g>
				<g>
					<line class="st1-C1" x1="241" y1="-91" x2="241" y2="-91"/>
				</g>
				<g>
					<line class="st1-C1" x1="241" y1="-101" x2="241" y2="-101"/>
				</g>
				<g>
					<line class="st1-C1" x1="241" y1="-111" x2="241" y2="-111"/>
				</g>
				<g>
					<line class="st1-C1" x1="241" y1="-121" x2="241" y2="-121"/>
				</g>
				<g>
					<line class="st1-C1" x1="241" y1="-131" x2="241" y2="-131"/>
				</g>
				<g>
					<line class="st1-C1" x1="241" y1="-141" x2="241" y2="-141"/>
				</g>
				<g>
					<line class="st1-C1" x1="241" y1="-151" x2="241" y2="-151"/>
				</g>
				<g>
					<line class="st1-C1" x1="241" y1="-161" x2="241" y2="-161"/>
				</g>
				<g>
					<line class="st1-C1" x1="241" y1="-171" x2="241" y2="-171"/>
				</g>
				<g>
					<line class="st1-C1" x1="241" y1="-181" x2="241" y2="-181"/>
				</g>
				<g>
					<line class="st1-C1" x1="241" y1="-191" x2="241" y2="-191"/>
				</g>
				<g>
					<line class="st1-C1" x1="241" y1="-201" x2="241" y2="-201"/>
				</g>
				<g>
					<line class="st1-C1" x1="241" y1="-211" x2="241" y2="-211"/>
				</g>
				<g>
					<line class="st1-C1" x1="241" y1="-221" x2="241" y2="-221"/>
				</g>
				<g>
					<line class="st1-C1" x1="241" y1="-231" x2="241" y2="-231"/>
				</g>
				<g>
					<line class="st1-C1" x1="241" y1="-241" x2="241" y2="-241"/>
				</g>
			</g>
			<g>
				<g>
					<line class="st1-C1" x1="1" y1="-1" x2="1" y2="-1"/>
					<line class="st2-c1" x1="11" y1="-1" x2="236" y2="-1"/>
					<line class="st1-C1" x1="241" y1="-1" x2="241" y2="-1"/>
				</g>
				<g>
					<line class="st1-C1" x1="1" y1="-11" x2="1" y2="-11"/>
					<line class="st2-c1" x1="11" y1="-11" x2="236" y2="-11"/>
					<line class="st1-C1" x1="241" y1="-11" x2="241" y2="-11"/>
				</g>
				<g>
					<line class="st1-C1" x1="1" y1="-21" x2="1" y2="-21"/>
					<line class="st2-c1" x1="11" y1="-21" x2="236" y2="-21"/>
					<line class="st1-C1" x1="241" y1="-21" x2="241" y2="-21"/>
				</g>
				<g>
					<line class="st1-C1" x1="1" y1="-31" x2="1" y2="-31"/>
					<line class="st2-c1" x1="11" y1="-31" x2="236" y2="-31"/>
					<line class="st1-C1" x1="241" y1="-31" x2="241" y2="-31"/>
				</g>
				<g>
					<line class="st1-C1" x1="1" y1="-41" x2="1" y2="-41"/>
					<line class="st2-c1" x1="11" y1="-41" x2="236" y2="-41"/>
					<line class="st1-C1" x1="241" y1="-41" x2="241" y2="-41"/>
				</g>
				<g>
					<line class="st1-C1" x1="1" y1="-51" x2="1" y2="-51"/>
					<line class="st2-c1" x1="11" y1="-51" x2="236" y2="-51"/>
					<line class="st1-C1" x1="241" y1="-51" x2="241" y2="-51"/>
				</g>
				<g>
					<line class="st1-C1" x1="1" y1="-61" x2="1" y2="-61"/>
					<line class="st2-c1" x1="11" y1="-61" x2="236" y2="-61"/>
					<line class="st1-C1" x1="241" y1="-61" x2="241" y2="-61"/>
				</g>
				<g>
					<line class="st1-C1" x1="1" y1="-71" x2="1" y2="-71"/>
					<line class="st2-c1" x1="11" y1="-71" x2="236" y2="-71"/>
					<line class="st1-C1" x1="241" y1="-71" x2="241" y2="-71"/>
				</g>
				<g>
					<line class="st1-C1" x1="1" y1="-81" x2="1" y2="-81"/>
					<line class="st2-c1" x1="11" y1="-81" x2="236" y2="-81"/>
					<line class="st1-C1" x1="241" y1="-81" x2="241" y2="-81"/>
				</g>
				<g>
					<line class="st1-C1" x1="1" y1="-91" x2="1" y2="-91"/>
					<line class="st2-c1" x1="11" y1="-91" x2="236" y2="-91"/>
					<line class="st1-C1" x1="241" y1="-91" x2="241" y2="-91"/>
				</g>
				<g>
					<line class="st1-C1" x1="1" y1="-101" x2="1" y2="-101"/>
					<line class="st2-c1" x1="11" y1="-101" x2="236" y2="-101"/>
					<line class="st1-C1" x1="241" y1="-101" x2="241" y2="-101"/>
				</g>
				<g>
					<line class="st1-C1" x1="1" y1="-111" x2="1" y2="-111"/>
					<line class="st2-c1" x1="11" y1="-111" x2="236" y2="-111"/>
					<line class="st1-C1" x1="241" y1="-111" x2="241" y2="-111"/>
				</g>
				<g>
					<line class="st1-C1" x1="1" y1="-121" x2="1" y2="-121"/>
					<line class="st2-c1" x1="11" y1="-121" x2="236" y2="-121"/>
					<line class="st1-C1" x1="241" y1="-121" x2="241" y2="-121"/>
				</g>
				<g>
					<line class="st1-C1" x1="1" y1="-131" x2="1" y2="-131"/>
					<line class="st2-c1" x1="11" y1="-131" x2="236" y2="-131"/>
					<line class="st1-C1" x1="241" y1="-131" x2="241" y2="-131"/>
				</g>
				<g>
					<line class="st1-C1" x1="1" y1="-141" x2="1" y2="-141"/>
					<line class="st2-c1" x1="11" y1="-141" x2="236" y2="-141"/>
					<line class="st1-C1" x1="241" y1="-141" x2="241" y2="-141"/>
				</g>
				<g>
					<line class="st1-C1" x1="1" y1="-151" x2="1" y2="-151"/>
					<line class="st2-c1" x1="11" y1="-151" x2="236" y2="-151"/>
					<line class="st1-C1" x1="241" y1="-151" x2="241" y2="-151"/>
				</g>
				<g>
					<line class="st1-C1" x1="1" y1="-161" x2="1" y2="-161"/>
					<line class="st2-c1" x1="11" y1="-161" x2="236" y2="-161"/>
					<line class="st1-C1" x1="241" y1="-161" x2="241" y2="-161"/>
				</g>
				<g>
					<line class="st1-C1" x1="1" y1="-171" x2="1" y2="-171"/>
					<line class="st2-c1" x1="11" y1="-171" x2="236" y2="-171"/>
					<line class="st1-C1" x1="241" y1="-171" x2="241" y2="-171"/>
				</g>
				<g>
					<line class="st1-C1" x1="1" y1="-181" x2="1" y2="-181"/>
					<line class="st2-c1" x1="11" y1="-181" x2="236" y2="-181"/>
					<line class="st1-C1" x1="241" y1="-181" x2="241" y2="-181"/>
				</g>
				<g>
					<line class="st1-C1" x1="1" y1="-191" x2="1" y2="-191"/>
					<line class="st2-c1" x1="11" y1="-191" x2="236" y2="-191"/>
					<line class="st1-C1" x1="241" y1="-191" x2="241" y2="-191"/>
				</g>
				<g>
					<line class="st1-C1" x1="1" y1="-201" x2="1" y2="-201"/>
					<line class="st2-c1" x1="11" y1="-201" x2="236" y2="-201"/>
					<line class="st1-C1" x1="241" y1="-201" x2="241" y2="-201"/>
				</g>
				<g>
					<line class="st1-C1" x1="1" y1="-211" x2="1" y2="-211"/>
					<line class="st2-c1" x1="11" y1="-211" x2="236" y2="-211"/>
					<line class="st1-C1" x1="241" y1="-211" x2="241" y2="-211"/>
				</g>
				<g>
					<line class="st1-C1" x1="1" y1="-221" x2="1" y2="-221"/>
					<line class="st2-c1" x1="11" y1="-221" x2="236" y2="-221"/>
					<line class="st1-C1" x1="241" y1="-221" x2="241" y2="-221"/>
				</g>
				<g>
					<line class="st1-C1" x1="1" y1="-231" x2="1" y2="-231"/>
					<line class="st2-c1" x1="11" y1="-231" x2="236" y2="-231"/>
					<line class="st1-C1" x1="241" y1="-231" x2="241" y2="-231"/>
				</g>
				<g>
					<line class="st1-C1" x1="1" y1="-241" x2="1" y2="-241"/>
					<line class="st2-c1" x1="11" y1="-241" x2="236" y2="-241"/>
					<line class="st1-C1" x1="241" y1="-241" x2="241" y2="-241"/>
				</g>
			</g>
			<g>
				<g>
					<line class="st1-C1" x1="1" y1="-1" x2="1" y2="-1"/>
				</g>
				<g>
					<line class="st1-C1" x1="1" y1="-11" x2="1" y2="-11"/>
				</g>
				<g>
					<line class="st1-C1" x1="1" y1="-21" x2="1" y2="-21"/>
				</g>
				<g>
					<line class="st1-C1" x1="1" y1="-31" x2="1" y2="-31"/>
				</g>
				<g>
					<line class="st1-C1" x1="1" y1="-41" x2="1" y2="-41"/>
				</g>
				<g>
					<line class="st1-C1" x1="1" y1="-51" x2="1" y2="-51"/>
				</g>
				<g>
					<line class="st1-C1" x1="1" y1="-61" x2="1" y2="-61"/>
				</g>
				<g>
					<line class="st1-C1" x1="1" y1="-71" x2="1" y2="-71"/>
				</g>
				<g>
					<line class="st1-C1" x1="1" y1="-81" x2="1" y2="-81"/>
				</g>
				<g>
					<line class="st1-C1" x1="1" y1="-91" x2="1" y2="-91"/>
				</g>
				<g>
					<line class="st1-C1" x1="1" y1="-101" x2="1" y2="-101"/>
				</g>
				<g>
					<line class="st1-C1" x1="1" y1="-111" x2="1" y2="-111"/>
				</g>
				<g>
					<line class="st1-C1" x1="1" y1="-121" x2="1" y2="-121"/>
				</g>
				<g>
					<line class="st1-C1" x1="1" y1="-131" x2="1" y2="-131"/>
				</g>
				<g>
					<line class="st1-C1" x1="1" y1="-141" x2="1" y2="-141"/>
				</g>
				<g>
					<line class="st1-C1" x1="1" y1="-151" x2="1" y2="-151"/>
				</g>
				<g>
					<line class="st1-C1" x1="1" y1="-161" x2="1" y2="-161"/>
				</g>
				<g>
					<line class="st1-C1" x1="1" y1="-171" x2="1" y2="-171"/>
				</g>
				<g>
					<line class="st1-C1" x1="1" y1="-181" x2="1" y2="-181"/>
				</g>
				<g>
					<line class="st1-C1" x1="1" y1="-191" x2="1" y2="-191"/>
				</g>
				<g>
					<line class="st1-C1" x1="1" y1="-201" x2="1" y2="-201"/>
				</g>
				<g>
					<line class="st1-C1" x1="1" y1="-211" x2="1" y2="-211"/>
				</g>
				<g>
					<line class="st1-C1" x1="1" y1="-221" x2="1" y2="-221"/>
				</g>
				<g>
					<line class="st1-C1" x1="1" y1="-231" x2="1" y2="-231"/>
				</g>
				<g>
					<line class="st1-C1" x1="1" y1="-241" x2="1" y2="-241"/>
				</g>
			</g>
			<g>
				<g>
					<line class="st1-C1" x1="241" y1="-1" x2="241" y2="-1"/>
				</g>
			</g>
			<g>
				<g>
					<line class="st1-C1" x1="1" y1="-1" x2="1" y2="-1"/>
					<line class="st2-c1" x1="11" y1="-1" x2="236" y2="-1"/>
					<line class="st1-C1" x1="241" y1="-1" x2="241" y2="-1"/>
				</g>
			</g>
			<g>
				<g>
					<line class="st1-C1" x1="1" y1="-1" x2="1" y2="-1"/>
				</g>
			</g>
		</g>
	</g>
</pattern>
<pattern  y="1053" width="240" height="240" patternUnits="userSpaceOnUse" id="SVGID_3_" viewBox="1 -241 240 240" style="overflow:visible;">
	<g>
		<rect x="1" y="-241" class="st0-C1" width="240" height="240"/>
		<g>
			<rect x="1" y="-241" class="st0-C1" width="240" height="240"/>
			<g>
				<g>
					<line class="st1-C1" x1="241" y1="-241" x2="241" y2="-241"/>
				</g>
			</g>
			<g>
				<g>
					<line class="st1-C1" x1="1" y1="-241" x2="1" y2="-241"/>
					<line class="st2-c1" x1="11" y1="-241" x2="236" y2="-241"/>
					<line class="st1-C1" x1="241" y1="-241" x2="241" y2="-241"/>
				</g>
			</g>
			<g>
				<g>
					<line class="st1-C1" x1="1" y1="-241" x2="1" y2="-241"/>
				</g>
			</g>
			<g>
				<g>
					<line class="st1-C1" x1="241" y1="-1" x2="241" y2="-1"/>
				</g>
				<g>
					<line class="st1-C1" x1="241" y1="-11" x2="241" y2="-11"/>
				</g>
				<g>
					<line class="st1-C1" x1="241" y1="-21" x2="241" y2="-21"/>
				</g>
				<g>
					<line class="st1-C1" x1="241" y1="-31" x2="241" y2="-31"/>
				</g>
				<g>
					<line class="st1-C1" x1="241" y1="-41" x2="241" y2="-41"/>
				</g>
				<g>
					<line class="st1-C1" x1="241" y1="-51" x2="241" y2="-51"/>
				</g>
				<g>
					<line class="st1-C1" x1="241" y1="-61" x2="241" y2="-61"/>
				</g>
				<g>
					<line class="st1-C1" x1="241" y1="-71" x2="241" y2="-71"/>
				</g>
				<g>
					<line class="st1-C1" x1="241" y1="-81" x2="241" y2="-81"/>
				</g>
				<g>
					<line class="st1-C1" x1="241" y1="-91" x2="241" y2="-91"/>
				</g>
				<g>
					<line class="st1-C1" x1="241" y1="-101" x2="241" y2="-101"/>
				</g>
				<g>
					<line class="st1-C1" x1="241" y1="-111" x2="241" y2="-111"/>
				</g>
				<g>
					<line class="st1-C1" x1="241" y1="-121" x2="241" y2="-121"/>
				</g>
				<g>
					<line class="st1-C1" x1="241" y1="-131" x2="241" y2="-131"/>
				</g>
				<g>
					<line class="st1-C1" x1="241" y1="-141" x2="241" y2="-141"/>
				</g>
				<g>
					<line class="st1-C1" x1="241" y1="-151" x2="241" y2="-151"/>
				</g>
				<g>
					<line class="st1-C1" x1="241" y1="-161" x2="241" y2="-161"/>
				</g>
				<g>
					<line class="st1-C1" x1="241" y1="-171" x2="241" y2="-171"/>
				</g>
				<g>
					<line class="st1-C1" x1="241" y1="-181" x2="241" y2="-181"/>
				</g>
				<g>
					<line class="st1-C1" x1="241" y1="-191" x2="241" y2="-191"/>
				</g>
				<g>
					<line class="st1-C1" x1="241" y1="-201" x2="241" y2="-201"/>
				</g>
				<g>
					<line class="st1-C1" x1="241" y1="-211" x2="241" y2="-211"/>
				</g>
				<g>
					<line class="st1-C1" x1="241" y1="-221" x2="241" y2="-221"/>
				</g>
				<g>
					<line class="st1-C1" x1="241" y1="-231" x2="241" y2="-231"/>
				</g>
				<g>
					<line class="st1-C1" x1="241" y1="-241" x2="241" y2="-241"/>
				</g>
			</g>
			<g>
				<g>
					<line class="st1-C1" x1="1" y1="-1" x2="1" y2="-1"/>
					<line class="st2-c1" x1="11" y1="-1" x2="236" y2="-1"/>
					<line class="st1-C1" x1="241" y1="-1" x2="241" y2="-1"/>
				</g>
				<g>
					<line class="st1-C1" x1="1" y1="-11" x2="1" y2="-11"/>
					<line class="st2-c1" x1="11" y1="-11" x2="236" y2="-11"/>
					<line class="st1-C1" x1="241" y1="-11" x2="241" y2="-11"/>
				</g>
				<g>
					<line class="st1-C1" x1="1" y1="-21" x2="1" y2="-21"/>
					<line class="st2-c1" x1="11" y1="-21" x2="236" y2="-21"/>
					<line class="st1-C1" x1="241" y1="-21" x2="241" y2="-21"/>
				</g>
				<g>
					<line class="st1-C1" x1="1" y1="-31" x2="1" y2="-31"/>
					<line class="st2-c1" x1="11" y1="-31" x2="236" y2="-31"/>
					<line class="st1-C1" x1="241" y1="-31" x2="241" y2="-31"/>
				</g>
				<g>
					<line class="st1-C1" x1="1" y1="-41" x2="1" y2="-41"/>
					<line class="st2-c1" x1="11" y1="-41" x2="236" y2="-41"/>
					<line class="st1-C1" x1="241" y1="-41" x2="241" y2="-41"/>
				</g>
				<g>
					<line class="st1-C1" x1="1" y1="-51" x2="1" y2="-51"/>
					<line class="st2-c1" x1="11" y1="-51" x2="236" y2="-51"/>
					<line class="st1-C1" x1="241" y1="-51" x2="241" y2="-51"/>
				</g>
				<g>
					<line class="st1-C1" x1="1" y1="-61" x2="1" y2="-61"/>
					<line class="st2-c1" x1="11" y1="-61" x2="236" y2="-61"/>
					<line class="st1-C1" x1="241" y1="-61" x2="241" y2="-61"/>
				</g>
				<g>
					<line class="st1-C1" x1="1" y1="-71" x2="1" y2="-71"/>
					<line class="st2-c1" x1="11" y1="-71" x2="236" y2="-71"/>
					<line class="st1-C1" x1="241" y1="-71" x2="241" y2="-71"/>
				</g>
				<g>
					<line class="st1-C1" x1="1" y1="-81" x2="1" y2="-81"/>
					<line class="st2-c1" x1="11" y1="-81" x2="236" y2="-81"/>
					<line class="st1-C1" x1="241" y1="-81" x2="241" y2="-81"/>
				</g>
				<g>
					<line class="st1-C1" x1="1" y1="-91" x2="1" y2="-91"/>
					<line class="st2-c1" x1="11" y1="-91" x2="236" y2="-91"/>
					<line class="st1-C1" x1="241" y1="-91" x2="241" y2="-91"/>
				</g>
				<g>
					<line class="st1-C1" x1="1" y1="-101" x2="1" y2="-101"/>
					<line class="st2-c1" x1="11" y1="-101" x2="236" y2="-101"/>
					<line class="st1-C1" x1="241" y1="-101" x2="241" y2="-101"/>
				</g>
				<g>
					<line class="st1-C1" x1="1" y1="-111" x2="1" y2="-111"/>
					<line class="st2-c1" x1="11" y1="-111" x2="236" y2="-111"/>
					<line class="st1-C1" x1="241" y1="-111" x2="241" y2="-111"/>
				</g>
				<g>
					<line class="st1-C1" x1="1" y1="-121" x2="1" y2="-121"/>
					<line class="st2-c1" x1="11" y1="-121" x2="236" y2="-121"/>
					<line class="st1-C1" x1="241" y1="-121" x2="241" y2="-121"/>
				</g>
				<g>
					<line class="st1-C1" x1="1" y1="-131" x2="1" y2="-131"/>
					<line class="st2-c1" x1="11" y1="-131" x2="236" y2="-131"/>
					<line class="st1-C1" x1="241" y1="-131" x2="241" y2="-131"/>
				</g>
				<g>
					<line class="st1-C1" x1="1" y1="-141" x2="1" y2="-141"/>
					<line class="st2-c1" x1="11" y1="-141" x2="236" y2="-141"/>
					<line class="st1-C1" x1="241" y1="-141" x2="241" y2="-141"/>
				</g>
				<g>
					<line class="st1-C1" x1="1" y1="-151" x2="1" y2="-151"/>
					<line class="st2-c1" x1="11" y1="-151" x2="236" y2="-151"/>
					<line class="st1-C1" x1="241" y1="-151" x2="241" y2="-151"/>
				</g>
				<g>
					<line class="st1-C1" x1="1" y1="-161" x2="1" y2="-161"/>
					<line class="st2-c1" x1="11" y1="-161" x2="236" y2="-161"/>
					<line class="st1-C1" x1="241" y1="-161" x2="241" y2="-161"/>
				</g>
				<g>
					<line class="st1-C1" x1="1" y1="-171" x2="1" y2="-171"/>
					<line class="st2-c1" x1="11" y1="-171" x2="236" y2="-171"/>
					<line class="st1-C1" x1="241" y1="-171" x2="241" y2="-171"/>
				</g>
				<g>
					<line class="st1-C1" x1="1" y1="-181" x2="1" y2="-181"/>
					<line class="st2-c1" x1="11" y1="-181" x2="236" y2="-181"/>
					<line class="st1-C1" x1="241" y1="-181" x2="241" y2="-181"/>
				</g>
				<g>
					<line class="st1-C1" x1="1" y1="-191" x2="1" y2="-191"/>
					<line class="st2-c1" x1="11" y1="-191" x2="236" y2="-191"/>
					<line class="st1-C1" x1="241" y1="-191" x2="241" y2="-191"/>
				</g>
				<g>
					<line class="st1-C1" x1="1" y1="-201" x2="1" y2="-201"/>
					<line class="st2-c1" x1="11" y1="-201" x2="236" y2="-201"/>
					<line class="st1-C1" x1="241" y1="-201" x2="241" y2="-201"/>
				</g>
				<g>
					<line class="st1-C1" x1="1" y1="-211" x2="1" y2="-211"/>
					<line class="st2-c1" x1="11" y1="-211" x2="236" y2="-211"/>
					<line class="st1-C1" x1="241" y1="-211" x2="241" y2="-211"/>
				</g>
				<g>
					<line class="st1-C1" x1="1" y1="-221" x2="1" y2="-221"/>
					<line class="st2-c1" x1="11" y1="-221" x2="236" y2="-221"/>
					<line class="st1-C1" x1="241" y1="-221" x2="241" y2="-221"/>
				</g>
				<g>
					<line class="st1-C1" x1="1" y1="-231" x2="1" y2="-231"/>
					<line class="st2-c1" x1="11" y1="-231" x2="236" y2="-231"/>
					<line class="st1-C1" x1="241" y1="-231" x2="241" y2="-231"/>
				</g>
				<g>
					<line class="st1-C1" x1="1" y1="-241" x2="1" y2="-241"/>
					<line class="st2-c1" x1="11" y1="-241" x2="236" y2="-241"/>
					<line class="st1-C1" x1="241" y1="-241" x2="241" y2="-241"/>
				</g>
			</g>
			<g>
				<g>
					<line class="st1-C1" x1="1" y1="-1" x2="1" y2="-1"/>
				</g>
				<g>
					<line class="st1-C1" x1="1" y1="-11" x2="1" y2="-11"/>
				</g>
				<g>
					<line class="st1-C1" x1="1" y1="-21" x2="1" y2="-21"/>
				</g>
				<g>
					<line class="st1-C1" x1="1" y1="-31" x2="1" y2="-31"/>
				</g>
				<g>
					<line class="st1-C1" x1="1" y1="-41" x2="1" y2="-41"/>
				</g>
				<g>
					<line class="st1-C1" x1="1" y1="-51" x2="1" y2="-51"/>
				</g>
				<g>
					<line class="st1-C1" x1="1" y1="-61" x2="1" y2="-61"/>
				</g>
				<g>
					<line class="st1-C1" x1="1" y1="-71" x2="1" y2="-71"/>
				</g>
				<g>
					<line class="st1-C1" x1="1" y1="-81" x2="1" y2="-81"/>
				</g>
				<g>
					<line class="st1-C1" x1="1" y1="-91" x2="1" y2="-91"/>
				</g>
				<g>
					<line class="st1-C1" x1="1" y1="-101" x2="1" y2="-101"/>
				</g>
				<g>
					<line class="st1-C1" x1="1" y1="-111" x2="1" y2="-111"/>
				</g>
				<g>
					<line class="st1-C1" x1="1" y1="-121" x2="1" y2="-121"/>
				</g>
				<g>
					<line class="st1-C1" x1="1" y1="-131" x2="1" y2="-131"/>
				</g>
				<g>
					<line class="st1-C1" x1="1" y1="-141" x2="1" y2="-141"/>
				</g>
				<g>
					<line class="st1-C1" x1="1" y1="-151" x2="1" y2="-151"/>
				</g>
				<g>
					<line class="st1-C1" x1="1" y1="-161" x2="1" y2="-161"/>
				</g>
				<g>
					<line class="st1-C1" x1="1" y1="-171" x2="1" y2="-171"/>
				</g>
				<g>
					<line class="st1-C1" x1="1" y1="-181" x2="1" y2="-181"/>
				</g>
				<g>
					<line class="st1-C1" x1="1" y1="-191" x2="1" y2="-191"/>
				</g>
				<g>
					<line class="st1-C1" x1="1" y1="-201" x2="1" y2="-201"/>
				</g>
				<g>
					<line class="st1-C1" x1="1" y1="-211" x2="1" y2="-211"/>
				</g>
				<g>
					<line class="st1-C1" x1="1" y1="-221" x2="1" y2="-221"/>
				</g>
				<g>
					<line class="st1-C1" x1="1" y1="-231" x2="1" y2="-231"/>
				</g>
				<g>
					<line class="st1-C1" x1="1" y1="-241" x2="1" y2="-241"/>
				</g>
			</g>
			<g>
				<g>
					<line class="st1-C1" x1="241" y1="-1" x2="241" y2="-1"/>
				</g>
			</g>
			<g>
				<g>
					<line class="st1-C1" x1="1" y1="-1" x2="1" y2="-1"/>
					<line class="st2-c1" x1="11" y1="-1" x2="236" y2="-1"/>
					<line class="st1-C1" x1="241" y1="-1" x2="241" y2="-1"/>
				</g>
			</g>
			<g>
				<g>
					<line class="st1-C1" x1="1" y1="-1" x2="1" y2="-1"/>
				</g>
			</g>
		</g>
	</g>
</pattern>
<pattern  y="1053" width="240" height="240" patternUnits="userSpaceOnUse" id="SVGID_4_" viewBox="1 -241 240 240" style="overflow:visible;">
	<g>
		<rect x="1" y="-241" class="st0-C1" width="240" height="240"/>
		<g>
			<rect x="1" y="-241" class="st0-C1" width="240" height="240"/>
			<g>
				<g>
					<line class="st1-C1" x1="241" y1="-241" x2="241" y2="-241"/>
				</g>
			</g>
			<g>
				<g>
					<line class="st1-C1" x1="1" y1="-241" x2="1" y2="-241"/>
					<line class="st2-c1" x1="11" y1="-241" x2="236" y2="-241"/>
					<line class="st1-C1" x1="241" y1="-241" x2="241" y2="-241"/>
				</g>
			</g>
			<g>
				<g>
					<line class="st1-C1" x1="1" y1="-241" x2="1" y2="-241"/>
				</g>
			</g>
			<g>
				<g>
					<line class="st1-C1" x1="241" y1="-1" x2="241" y2="-1"/>
				</g>
				<g>
					<line class="st1-C1" x1="241" y1="-11" x2="241" y2="-11"/>
				</g>
				<g>
					<line class="st1-C1" x1="241" y1="-21" x2="241" y2="-21"/>
				</g>
				<g>
					<line class="st1-C1" x1="241" y1="-31" x2="241" y2="-31"/>
				</g>
				<g>
					<line class="st1-C1" x1="241" y1="-41" x2="241" y2="-41"/>
				</g>
				<g>
					<line class="st1-C1" x1="241" y1="-51" x2="241" y2="-51"/>
				</g>
				<g>
					<line class="st1-C1" x1="241" y1="-61" x2="241" y2="-61"/>
				</g>
				<g>
					<line class="st1-C1" x1="241" y1="-71" x2="241" y2="-71"/>
				</g>
				<g>
					<line class="st1-C1" x1="241" y1="-81" x2="241" y2="-81"/>
				</g>
				<g>
					<line class="st1-C1" x1="241" y1="-91" x2="241" y2="-91"/>
				</g>
				<g>
					<line class="st1-C1" x1="241" y1="-101" x2="241" y2="-101"/>
				</g>
				<g>
					<line class="st1-C1" x1="241" y1="-111" x2="241" y2="-111"/>
				</g>
				<g>
					<line class="st1-C1" x1="241" y1="-121" x2="241" y2="-121"/>
				</g>
				<g>
					<line class="st1-C1" x1="241" y1="-131" x2="241" y2="-131"/>
				</g>
				<g>
					<line class="st1-C1" x1="241" y1="-141" x2="241" y2="-141"/>
				</g>
				<g>
					<line class="st1-C1" x1="241" y1="-151" x2="241" y2="-151"/>
				</g>
				<g>
					<line class="st1-C1" x1="241" y1="-161" x2="241" y2="-161"/>
				</g>
				<g>
					<line class="st1-C1" x1="241" y1="-171" x2="241" y2="-171"/>
				</g>
				<g>
					<line class="st1-C1" x1="241" y1="-181" x2="241" y2="-181"/>
				</g>
				<g>
					<line class="st1-C1" x1="241" y1="-191" x2="241" y2="-191"/>
				</g>
				<g>
					<line class="st1-C1" x1="241" y1="-201" x2="241" y2="-201"/>
				</g>
				<g>
					<line class="st1-C1" x1="241" y1="-211" x2="241" y2="-211"/>
				</g>
				<g>
					<line class="st1-C1" x1="241" y1="-221" x2="241" y2="-221"/>
				</g>
				<g>
					<line class="st1-C1" x1="241" y1="-231" x2="241" y2="-231"/>
				</g>
				<g>
					<line class="st1-C1" x1="241" y1="-241" x2="241" y2="-241"/>
				</g>
			</g>
			<g>
				<g>
					<line class="st1-C1" x1="1" y1="-1" x2="1" y2="-1"/>
					<line class="st2-c1" x1="11" y1="-1" x2="236" y2="-1"/>
					<line class="st1-C1" x1="241" y1="-1" x2="241" y2="-1"/>
				</g>
				<g>
					<line class="st1-C1" x1="1" y1="-11" x2="1" y2="-11"/>
					<line class="st2-c1" x1="11" y1="-11" x2="236" y2="-11"/>
					<line class="st1-C1" x1="241" y1="-11" x2="241" y2="-11"/>
				</g>
				<g>
					<line class="st1-C1" x1="1" y1="-21" x2="1" y2="-21"/>
					<line class="st2-c1" x1="11" y1="-21" x2="236" y2="-21"/>
					<line class="st1-C1" x1="241" y1="-21" x2="241" y2="-21"/>
				</g>
				<g>
					<line class="st1-C1" x1="1" y1="-31" x2="1" y2="-31"/>
					<line class="st2-c1" x1="11" y1="-31" x2="236" y2="-31"/>
					<line class="st1-C1" x1="241" y1="-31" x2="241" y2="-31"/>
				</g>
				<g>
					<line class="st1-C1" x1="1" y1="-41" x2="1" y2="-41"/>
					<line class="st2-c1" x1="11" y1="-41" x2="236" y2="-41"/>
					<line class="st1-C1" x1="241" y1="-41" x2="241" y2="-41"/>
				</g>
				<g>
					<line class="st1-C1" x1="1" y1="-51" x2="1" y2="-51"/>
					<line class="st2-c1" x1="11" y1="-51" x2="236" y2="-51"/>
					<line class="st1-C1" x1="241" y1="-51" x2="241" y2="-51"/>
				</g>
				<g>
					<line class="st1-C1" x1="1" y1="-61" x2="1" y2="-61"/>
					<line class="st2-c1" x1="11" y1="-61" x2="236" y2="-61"/>
					<line class="st1-C1" x1="241" y1="-61" x2="241" y2="-61"/>
				</g>
				<g>
					<line class="st1-C1" x1="1" y1="-71" x2="1" y2="-71"/>
					<line class="st2-c1" x1="11" y1="-71" x2="236" y2="-71"/>
					<line class="st1-C1" x1="241" y1="-71" x2="241" y2="-71"/>
				</g>
				<g>
					<line class="st1-C1" x1="1" y1="-81" x2="1" y2="-81"/>
					<line class="st2-c1" x1="11" y1="-81" x2="236" y2="-81"/>
					<line class="st1-C1" x1="241" y1="-81" x2="241" y2="-81"/>
				</g>
				<g>
					<line class="st1-C1" x1="1" y1="-91" x2="1" y2="-91"/>
					<line class="st2-c1" x1="11" y1="-91" x2="236" y2="-91"/>
					<line class="st1-C1" x1="241" y1="-91" x2="241" y2="-91"/>
				</g>
				<g>
					<line class="st1-C1" x1="1" y1="-101" x2="1" y2="-101"/>
					<line class="st2-c1" x1="11" y1="-101" x2="236" y2="-101"/>
					<line class="st1-C1" x1="241" y1="-101" x2="241" y2="-101"/>
				</g>
				<g>
					<line class="st1-C1" x1="1" y1="-111" x2="1" y2="-111"/>
					<line class="st2-c1" x1="11" y1="-111" x2="236" y2="-111"/>
					<line class="st1-C1" x1="241" y1="-111" x2="241" y2="-111"/>
				</g>
				<g>
					<line class="st1-C1" x1="1" y1="-121" x2="1" y2="-121"/>
					<line class="st2-c1" x1="11" y1="-121" x2="236" y2="-121"/>
					<line class="st1-C1" x1="241" y1="-121" x2="241" y2="-121"/>
				</g>
				<g>
					<line class="st1-C1" x1="1" y1="-131" x2="1" y2="-131"/>
					<line class="st2-c1" x1="11" y1="-131" x2="236" y2="-131"/>
					<line class="st1-C1" x1="241" y1="-131" x2="241" y2="-131"/>
				</g>
				<g>
					<line class="st1-C1" x1="1" y1="-141" x2="1" y2="-141"/>
					<line class="st2-c1" x1="11" y1="-141" x2="236" y2="-141"/>
					<line class="st1-C1" x1="241" y1="-141" x2="241" y2="-141"/>
				</g>
				<g>
					<line class="st1-C1" x1="1" y1="-151" x2="1" y2="-151"/>
					<line class="st2-c1" x1="11" y1="-151" x2="236" y2="-151"/>
					<line class="st1-C1" x1="241" y1="-151" x2="241" y2="-151"/>
				</g>
				<g>
					<line class="st1-C1" x1="1" y1="-161" x2="1" y2="-161"/>
					<line class="st2-c1" x1="11" y1="-161" x2="236" y2="-161"/>
					<line class="st1-C1" x1="241" y1="-161" x2="241" y2="-161"/>
				</g>
				<g>
					<line class="st1-C1" x1="1" y1="-171" x2="1" y2="-171"/>
					<line class="st2-c1" x1="11" y1="-171" x2="236" y2="-171"/>
					<line class="st1-C1" x1="241" y1="-171" x2="241" y2="-171"/>
				</g>
				<g>
					<line class="st1-C1" x1="1" y1="-181" x2="1" y2="-181"/>
					<line class="st2-c1" x1="11" y1="-181" x2="236" y2="-181"/>
					<line class="st1-C1" x1="241" y1="-181" x2="241" y2="-181"/>
				</g>
				<g>
					<line class="st1-C1" x1="1" y1="-191" x2="1" y2="-191"/>
					<line class="st2-c1" x1="11" y1="-191" x2="236" y2="-191"/>
					<line class="st1-C1" x1="241" y1="-191" x2="241" y2="-191"/>
				</g>
				<g>
					<line class="st1-C1" x1="1" y1="-201" x2="1" y2="-201"/>
					<line class="st2-c1" x1="11" y1="-201" x2="236" y2="-201"/>
					<line class="st1-C1" x1="241" y1="-201" x2="241" y2="-201"/>
				</g>
				<g>
					<line class="st1-C1" x1="1" y1="-211" x2="1" y2="-211"/>
					<line class="st2-c1" x1="11" y1="-211" x2="236" y2="-211"/>
					<line class="st1-C1" x1="241" y1="-211" x2="241" y2="-211"/>
				</g>
				<g>
					<line class="st1-C1" x1="1" y1="-221" x2="1" y2="-221"/>
					<line class="st2-c1" x1="11" y1="-221" x2="236" y2="-221"/>
					<line class="st1-C1" x1="241" y1="-221" x2="241" y2="-221"/>
				</g>
				<g>
					<line class="st1-C1" x1="1" y1="-231" x2="1" y2="-231"/>
					<line class="st2-c1" x1="11" y1="-231" x2="236" y2="-231"/>
					<line class="st1-C1" x1="241" y1="-231" x2="241" y2="-231"/>
				</g>
				<g>
					<line class="st1-C1" x1="1" y1="-241" x2="1" y2="-241"/>
					<line class="st2-c1" x1="11" y1="-241" x2="236" y2="-241"/>
					<line class="st1-C1" x1="241" y1="-241" x2="241" y2="-241"/>
				</g>
			</g>
			<g>
				<g>
					<line class="st1-C1" x1="1" y1="-1" x2="1" y2="-1"/>
				</g>
				<g>
					<line class="st1-C1" x1="1" y1="-11" x2="1" y2="-11"/>
				</g>
				<g>
					<line class="st1-C1" x1="1" y1="-21" x2="1" y2="-21"/>
				</g>
				<g>
					<line class="st1-C1" x1="1" y1="-31" x2="1" y2="-31"/>
				</g>
				<g>
					<line class="st1-C1" x1="1" y1="-41" x2="1" y2="-41"/>
				</g>
				<g>
					<line class="st1-C1" x1="1" y1="-51" x2="1" y2="-51"/>
				</g>
				<g>
					<line class="st1-C1" x1="1" y1="-61" x2="1" y2="-61"/>
				</g>
				<g>
					<line class="st1-C1" x1="1" y1="-71" x2="1" y2="-71"/>
				</g>
				<g>
					<line class="st1-C1" x1="1" y1="-81" x2="1" y2="-81"/>
				</g>
				<g>
					<line class="st1-C1" x1="1" y1="-91" x2="1" y2="-91"/>
				</g>
				<g>
					<line class="st1-C1" x1="1" y1="-101" x2="1" y2="-101"/>
				</g>
				<g>
					<line class="st1-C1" x1="1" y1="-111" x2="1" y2="-111"/>
				</g>
				<g>
					<line class="st1-C1" x1="1" y1="-121" x2="1" y2="-121"/>
				</g>
				<g>
					<line class="st1-C1" x1="1" y1="-131" x2="1" y2="-131"/>
				</g>
				<g>
					<line class="st1-C1" x1="1" y1="-141" x2="1" y2="-141"/>
				</g>
				<g>
					<line class="st1-C1" x1="1" y1="-151" x2="1" y2="-151"/>
				</g>
				<g>
					<line class="st1-C1" x1="1" y1="-161" x2="1" y2="-161"/>
				</g>
				<g>
					<line class="st1-C1" x1="1" y1="-171" x2="1" y2="-171"/>
				</g>
				<g>
					<line class="st1-C1" x1="1" y1="-181" x2="1" y2="-181"/>
				</g>
				<g>
					<line class="st1-C1" x1="1" y1="-191" x2="1" y2="-191"/>
				</g>
				<g>
					<line class="st1-C1" x1="1" y1="-201" x2="1" y2="-201"/>
				</g>
				<g>
					<line class="st1-C1" x1="1" y1="-211" x2="1" y2="-211"/>
				</g>
				<g>
					<line class="st1-C1" x1="1" y1="-221" x2="1" y2="-221"/>
				</g>
				<g>
					<line class="st1-C1" x1="1" y1="-231" x2="1" y2="-231"/>
				</g>
				<g>
					<line class="st1-C1" x1="1" y1="-241" x2="1" y2="-241"/>
				</g>
			</g>
			<g>
				<g>
					<line class="st1-C1" x1="241" y1="-1" x2="241" y2="-1"/>
				</g>
			</g>
			<g>
				<g>
					<line class="st1-C1" x1="1" y1="-1" x2="1" y2="-1"/>
					<line class="st2-c1" x1="11" y1="-1" x2="236" y2="-1"/>
					<line class="st1-C1" x1="241" y1="-1" x2="241" y2="-1"/>
				</g>
			</g>
			<g>
				<g>
					<line class="st1-C1" x1="1" y1="-1" x2="1" y2="-1"/>
				</g>
			</g>
		</g>
	</g>
</pattern>
<pattern  y="1053" width="240" height="240" patternUnits="userSpaceOnUse" id="SVGID_5_" viewBox="1 -241 240 240" style="overflow:visible;">
	<g>
		<rect x="1" y="-241" class="st0-C1" width="240" height="240"/>
		<g>
			<rect x="1" y="-241" class="st0-C1" width="240" height="240"/>
			<g>
				<g>
					<line class="st1-C1" x1="241" y1="-241" x2="241" y2="-241"/>
				</g>
			</g>
			<g>
				<g>
					<line class="st1-C1" x1="1" y1="-241" x2="1" y2="-241"/>
					<line class="st2-c1" x1="11" y1="-241" x2="236" y2="-241"/>
					<line class="st1-C1" x1="241" y1="-241" x2="241" y2="-241"/>
				</g>
			</g>
			<g>
				<g>
					<line class="st1-C1" x1="1" y1="-241" x2="1" y2="-241"/>
				</g>
			</g>
			<g>
				<g>
					<line class="st1-C1" x1="241" y1="-1" x2="241" y2="-1"/>
				</g>
				<g>
					<line class="st1-C1" x1="241" y1="-11" x2="241" y2="-11"/>
				</g>
				<g>
					<line class="st1-C1" x1="241" y1="-21" x2="241" y2="-21"/>
				</g>
				<g>
					<line class="st1-C1" x1="241" y1="-31" x2="241" y2="-31"/>
				</g>
				<g>
					<line class="st1-C1" x1="241" y1="-41" x2="241" y2="-41"/>
				</g>
				<g>
					<line class="st1-C1" x1="241" y1="-51" x2="241" y2="-51"/>
				</g>
				<g>
					<line class="st1-C1" x1="241" y1="-61" x2="241" y2="-61"/>
				</g>
				<g>
					<line class="st1-C1" x1="241" y1="-71" x2="241" y2="-71"/>
				</g>
				<g>
					<line class="st1-C1" x1="241" y1="-81" x2="241" y2="-81"/>
				</g>
				<g>
					<line class="st1-C1" x1="241" y1="-91" x2="241" y2="-91"/>
				</g>
				<g>
					<line class="st1-C1" x1="241" y1="-101" x2="241" y2="-101"/>
				</g>
				<g>
					<line class="st1-C1" x1="241" y1="-111" x2="241" y2="-111"/>
				</g>
				<g>
					<line class="st1-C1" x1="241" y1="-121" x2="241" y2="-121"/>
				</g>
				<g>
					<line class="st1-C1" x1="241" y1="-131" x2="241" y2="-131"/>
				</g>
				<g>
					<line class="st1-C1" x1="241" y1="-141" x2="241" y2="-141"/>
				</g>
				<g>
					<line class="st1-C1" x1="241" y1="-151" x2="241" y2="-151"/>
				</g>
				<g>
					<line class="st1-C1" x1="241" y1="-161" x2="241" y2="-161"/>
				</g>
				<g>
					<line class="st1-C1" x1="241" y1="-171" x2="241" y2="-171"/>
				</g>
				<g>
					<line class="st1-C1" x1="241" y1="-181" x2="241" y2="-181"/>
				</g>
				<g>
					<line class="st1-C1" x1="241" y1="-191" x2="241" y2="-191"/>
				</g>
				<g>
					<line class="st1-C1" x1="241" y1="-201" x2="241" y2="-201"/>
				</g>
				<g>
					<line class="st1-C1" x1="241" y1="-211" x2="241" y2="-211"/>
				</g>
				<g>
					<line class="st1-C1" x1="241" y1="-221" x2="241" y2="-221"/>
				</g>
				<g>
					<line class="st1-C1" x1="241" y1="-231" x2="241" y2="-231"/>
				</g>
				<g>
					<line class="st1-C1" x1="241" y1="-241" x2="241" y2="-241"/>
				</g>
			</g>
			<g>
				<g>
					<line class="st1-C1" x1="1" y1="-1" x2="1" y2="-1"/>
					<line class="st2-c1" x1="11" y1="-1" x2="236" y2="-1"/>
					<line class="st1-C1" x1="241" y1="-1" x2="241" y2="-1"/>
				</g>
				<g>
					<line class="st1-C1" x1="1" y1="-11" x2="1" y2="-11"/>
					<line class="st2-c1" x1="11" y1="-11" x2="236" y2="-11"/>
					<line class="st1-C1" x1="241" y1="-11" x2="241" y2="-11"/>
				</g>
				<g>
					<line class="st1-C1" x1="1" y1="-21" x2="1" y2="-21"/>
					<line class="st2-c1" x1="11" y1="-21" x2="236" y2="-21"/>
					<line class="st1-C1" x1="241" y1="-21" x2="241" y2="-21"/>
				</g>
				<g>
					<line class="st1-C1" x1="1" y1="-31" x2="1" y2="-31"/>
					<line class="st2-c1" x1="11" y1="-31" x2="236" y2="-31"/>
					<line class="st1-C1" x1="241" y1="-31" x2="241" y2="-31"/>
				</g>
				<g>
					<line class="st1-C1" x1="1" y1="-41" x2="1" y2="-41"/>
					<line class="st2-c1" x1="11" y1="-41" x2="236" y2="-41"/>
					<line class="st1-C1" x1="241" y1="-41" x2="241" y2="-41"/>
				</g>
				<g>
					<line class="st1-C1" x1="1" y1="-51" x2="1" y2="-51"/>
					<line class="st2-c1" x1="11" y1="-51" x2="236" y2="-51"/>
					<line class="st1-C1" x1="241" y1="-51" x2="241" y2="-51"/>
				</g>
				<g>
					<line class="st1-C1" x1="1" y1="-61" x2="1" y2="-61"/>
					<line class="st2-c1" x1="11" y1="-61" x2="236" y2="-61"/>
					<line class="st1-C1" x1="241" y1="-61" x2="241" y2="-61"/>
				</g>
				<g>
					<line class="st1-C1" x1="1" y1="-71" x2="1" y2="-71"/>
					<line class="st2-c1" x1="11" y1="-71" x2="236" y2="-71"/>
					<line class="st1-C1" x1="241" y1="-71" x2="241" y2="-71"/>
				</g>
				<g>
					<line class="st1-C1" x1="1" y1="-81" x2="1" y2="-81"/>
					<line class="st2-c1" x1="11" y1="-81" x2="236" y2="-81"/>
					<line class="st1-C1" x1="241" y1="-81" x2="241" y2="-81"/>
				</g>
				<g>
					<line class="st1-C1" x1="1" y1="-91" x2="1" y2="-91"/>
					<line class="st2-c1" x1="11" y1="-91" x2="236" y2="-91"/>
					<line class="st1-C1" x1="241" y1="-91" x2="241" y2="-91"/>
				</g>
				<g>
					<line class="st1-C1" x1="1" y1="-101" x2="1" y2="-101"/>
					<line class="st2-c1" x1="11" y1="-101" x2="236" y2="-101"/>
					<line class="st1-C1" x1="241" y1="-101" x2="241" y2="-101"/>
				</g>
				<g>
					<line class="st1-C1" x1="1" y1="-111" x2="1" y2="-111"/>
					<line class="st2-c1" x1="11" y1="-111" x2="236" y2="-111"/>
					<line class="st1-C1" x1="241" y1="-111" x2="241" y2="-111"/>
				</g>
				<g>
					<line class="st1-C1" x1="1" y1="-121" x2="1" y2="-121"/>
					<line class="st2-c1" x1="11" y1="-121" x2="236" y2="-121"/>
					<line class="st1-C1" x1="241" y1="-121" x2="241" y2="-121"/>
				</g>
				<g>
					<line class="st1-C1" x1="1" y1="-131" x2="1" y2="-131"/>
					<line class="st2-c1" x1="11" y1="-131" x2="236" y2="-131"/>
					<line class="st1-C1" x1="241" y1="-131" x2="241" y2="-131"/>
				</g>
				<g>
					<line class="st1-C1" x1="1" y1="-141" x2="1" y2="-141"/>
					<line class="st2-c1" x1="11" y1="-141" x2="236" y2="-141"/>
					<line class="st1-C1" x1="241" y1="-141" x2="241" y2="-141"/>
				</g>
				<g>
					<line class="st1-C1" x1="1" y1="-151" x2="1" y2="-151"/>
					<line class="st2-c1" x1="11" y1="-151" x2="236" y2="-151"/>
					<line class="st1-C1" x1="241" y1="-151" x2="241" y2="-151"/>
				</g>
				<g>
					<line class="st1-C1" x1="1" y1="-161" x2="1" y2="-161"/>
					<line class="st2-c1" x1="11" y1="-161" x2="236" y2="-161"/>
					<line class="st1-C1" x1="241" y1="-161" x2="241" y2="-161"/>
				</g>
				<g>
					<line class="st1-C1" x1="1" y1="-171" x2="1" y2="-171"/>
					<line class="st2-c1" x1="11" y1="-171" x2="236" y2="-171"/>
					<line class="st1-C1" x1="241" y1="-171" x2="241" y2="-171"/>
				</g>
				<g>
					<line class="st1-C1" x1="1" y1="-181" x2="1" y2="-181"/>
					<line class="st2-c1" x1="11" y1="-181" x2="236" y2="-181"/>
					<line class="st1-C1" x1="241" y1="-181" x2="241" y2="-181"/>
				</g>
				<g>
					<line class="st1-C1" x1="1" y1="-191" x2="1" y2="-191"/>
					<line class="st2-c1" x1="11" y1="-191" x2="236" y2="-191"/>
					<line class="st1-C1" x1="241" y1="-191" x2="241" y2="-191"/>
				</g>
				<g>
					<line class="st1-C1" x1="1" y1="-201" x2="1" y2="-201"/>
					<line class="st2-c1" x1="11" y1="-201" x2="236" y2="-201"/>
					<line class="st1-C1" x1="241" y1="-201" x2="241" y2="-201"/>
				</g>
				<g>
					<line class="st1-C1" x1="1" y1="-211" x2="1" y2="-211"/>
					<line class="st2-c1" x1="11" y1="-211" x2="236" y2="-211"/>
					<line class="st1-C1" x1="241" y1="-211" x2="241" y2="-211"/>
				</g>
				<g>
					<line class="st1-C1" x1="1" y1="-221" x2="1" y2="-221"/>
					<line class="st2-c1" x1="11" y1="-221" x2="236" y2="-221"/>
					<line class="st1-C1" x1="241" y1="-221" x2="241" y2="-221"/>
				</g>
				<g>
					<line class="st1-C1" x1="1" y1="-231" x2="1" y2="-231"/>
					<line class="st2-c1" x1="11" y1="-231" x2="236" y2="-231"/>
					<line class="st1-C1" x1="241" y1="-231" x2="241" y2="-231"/>
				</g>
				<g>
					<line class="st1-C1" x1="1" y1="-241" x2="1" y2="-241"/>
					<line class="st2-c1" x1="11" y1="-241" x2="236" y2="-241"/>
					<line class="st1-C1" x1="241" y1="-241" x2="241" y2="-241"/>
				</g>
			</g>
			<g>
				<g>
					<line class="st1-C1" x1="1" y1="-1" x2="1" y2="-1"/>
				</g>
				<g>
					<line class="st1-C1" x1="1" y1="-11" x2="1" y2="-11"/>
				</g>
				<g>
					<line class="st1-C1" x1="1" y1="-21" x2="1" y2="-21"/>
				</g>
				<g>
					<line class="st1-C1" x1="1" y1="-31" x2="1" y2="-31"/>
				</g>
				<g>
					<line class="st1-C1" x1="1" y1="-41" x2="1" y2="-41"/>
				</g>
				<g>
					<line class="st1-C1" x1="1" y1="-51" x2="1" y2="-51"/>
				</g>
				<g>
					<line class="st1-C1" x1="1" y1="-61" x2="1" y2="-61"/>
				</g>
				<g>
					<line class="st1-C1" x1="1" y1="-71" x2="1" y2="-71"/>
				</g>
				<g>
					<line class="st1-C1" x1="1" y1="-81" x2="1" y2="-81"/>
				</g>
				<g>
					<line class="st1-C1" x1="1" y1="-91" x2="1" y2="-91"/>
				</g>
				<g>
					<line class="st1-C1" x1="1" y1="-101" x2="1" y2="-101"/>
				</g>
				<g>
					<line class="st1-C1" x1="1" y1="-111" x2="1" y2="-111"/>
				</g>
				<g>
					<line class="st1-C1" x1="1" y1="-121" x2="1" y2="-121"/>
				</g>
				<g>
					<line class="st1-C1" x1="1" y1="-131" x2="1" y2="-131"/>
				</g>
				<g>
					<line class="st1-C1" x1="1" y1="-141" x2="1" y2="-141"/>
				</g>
				<g>
					<line class="st1-C1" x1="1" y1="-151" x2="1" y2="-151"/>
				</g>
				<g>
					<line class="st1-C1" x1="1" y1="-161" x2="1" y2="-161"/>
				</g>
				<g>
					<line class="st1-C1" x1="1" y1="-171" x2="1" y2="-171"/>
				</g>
				<g>
					<line class="st1-C1" x1="1" y1="-181" x2="1" y2="-181"/>
				</g>
				<g>
					<line class="st1-C1" x1="1" y1="-191" x2="1" y2="-191"/>
				</g>
				<g>
					<line class="st1-C1" x1="1" y1="-201" x2="1" y2="-201"/>
				</g>
				<g>
					<line class="st1-C1" x1="1" y1="-211" x2="1" y2="-211"/>
				</g>
				<g>
					<line class="st1-C1" x1="1" y1="-221" x2="1" y2="-221"/>
				</g>
				<g>
					<line class="st1-C1" x1="1" y1="-231" x2="1" y2="-231"/>
				</g>
				<g>
					<line class="st1-C1" x1="1" y1="-241" x2="1" y2="-241"/>
				</g>
			</g>
			<g>
				<g>
					<line class="st1-C1" x1="241" y1="-1" x2="241" y2="-1"/>
				</g>
			</g>
			<g>
				<g>
					<line class="st1-C1" x1="1" y1="-1" x2="1" y2="-1"/>
					<line class="st2-c1" x1="11" y1="-1" x2="236" y2="-1"/>
					<line class="st1-C1" x1="241" y1="-1" x2="241" y2="-1"/>
				</g>
			</g>
			<g>
				<g>
					<line class="st1-C1" x1="1" y1="-1" x2="1" y2="-1"/>
				</g>
			</g>
		</g>
	</g>
</pattern>
<g id="chartTitlesC1">
	<g>
		<g>
			<path d="M221.1,261.9l-5.1,7.5v5.5h-1.4v-5.5l-5.1-7.6h1.7l4.1,6.2l4.2-6.2h1.6V261.9z"/>
			<path d="M222.5,270.9c0.1,1.7,1.5,3.1,3.2,3.1c1.3,0,2.3-0.7,2.8-1.9l1.2,0.4c-0.5,1.7-2.1,2.7-3.9,2.7c-2.6,0-4.5-2.1-4.5-4.6
				c0-2.4,1.8-4.6,4.3-4.6c2.8,0,4.2,2,4.2,4.6c0,0.1,0,0.3,0,0.4h-7.3V270.9z M228.4,269.8c-0.2-1.6-1.2-2.8-2.9-2.8
				c-1.6,0-2.8,1.3-3,2.8H228.4z"/>
			<path d="M235.5,275.1c-2.4,0-3.2-1.6-3.4-2.6l1.2-0.3c0.2,0.8,0.8,1.8,2.2,1.8c1,0,1.9-0.5,1.9-1.5c0-1.1-1.2-1.3-2.1-1.5
				c-1.5-0.2-2.9-0.8-2.9-2.5s1.5-2.7,3-2.7c2.4,0,3.1,1.6,3.2,2.4l-1.2,0.3c-0.2-0.6-0.6-1.6-2.1-1.6c-1,0-1.7,0.7-1.7,1.4
				c0,1.1,1.2,1.3,2.1,1.4c1.5,0.2,2.9,1,2.9,2.6C238.7,274,237.3,275.1,235.5,275.1z"/>
			<path d="M241.6,276.9c0.8-0.6,1.3-1.2,1.5-2c-0.1,0.1-0.3,0.1-0.4,0.1c-0.6,0-1.1-0.4-1.1-1.1s0.5-1.2,1.2-1.2
				c0.8,0,1.3,0.6,1.3,1.6v0.1c0,1.2-0.6,2.3-1.8,3.1L241.6,276.9z"/>
			<path d="M251.2,270.5c0-2.6,2-4.6,4.6-4.6c2.6,0,4.6,2,4.6,4.6s-2,4.6-4.6,4.6C253.2,275.1,251.2,273.1,251.2,270.5z
				 M259.1,270.5c0-1.9-1.4-3.5-3.3-3.5c-1.9,0-3.3,1.6-3.3,3.4s1.3,3.5,3.3,3.5C257.7,273.9,259.1,272.4,259.1,270.5z"/>
			<path d="M270,269.8c0-1.6-0.8-2.7-2.5-2.7c-1.6,0-2.7,1.2-2.7,2.8v5.1h-1.3v-9h1.3v1.6c0.7-1.2,1.8-1.8,3.1-1.8
				c2.2,0,3.4,1.5,3.4,3.6v5.5H270V269.8z"/>
			<path d="M278.8,273.9c2,0,2.7-1.5,3-2.1l1.2,0.4c-0.4,1.3-1.9,2.9-4.2,2.9c-2.6,0-4.5-1.9-4.5-4.6s2.1-4.6,4.6-4.6
				c2.1,0,3.7,1.3,4.1,2.8l-1.2,0.4c-0.2-0.7-1.1-2.1-2.9-2.1c-1.9,0-3.2,1.6-3.2,3.4C275.6,272.3,276.8,273.9,278.8,273.9z"/>
			<path d="M286.7,270.9c0.1,1.7,1.5,3.1,3.2,3.1c1.3,0,2.3-0.7,2.8-1.9l1.2,0.4c-0.5,1.7-2.1,2.7-3.9,2.7c-2.6,0-4.5-2.1-4.5-4.6
				c0-2.4,1.8-4.6,4.3-4.6c2.8,0,4.2,2,4.2,4.6c0,0.1,0,0.3,0,0.4h-7.3V270.9z M292.6,269.8c-0.2-1.6-1.2-2.8-2.9-2.8
				c-1.6,0-2.8,1.3-3,2.8H292.6z"/>
		</g>
	</g>
	<g>
		<g>
			<path d="M224.6,321h-1.4v-11.2l0,0l-4.9,11.2h-1.2l-4.8-11.1V321H211v-13h1.9l4.9,11.2l4.8-11.2h2L224.6,321L224.6,321z"/>
			<path d="M229.9,317.3c0,1.6,0.8,2.7,2.5,2.7c1.6,0,2.7-1.2,2.7-2.8v-5.1h1.3v8.9h-1.3v-1.6c-0.7,1.2-1.8,1.8-3.1,1.8
				c-2.2,0-3.4-1.5-3.4-3.6v-5.5h1.3V317.3z"/>
			<path d="M241.4,307.4V321h-1.3v-13.6H241.4z"/>
			<path d="M245.8,318.7v-5.5h-1.7V312h1.7v-2.6h1.3v2.6h2.3v1.2h-2.3v5.4c0,0.8,0.5,1.3,1.5,1.3c0.3,0,0.6,0,0.8-0.1v1.1
				c-0.3,0.1-0.8,0.1-1,0.1C246.4,321.1,245.8,320,245.8,318.7z"/>
			<path d="M253,308c0.6,0,1,0.4,1,1c0,0.5-0.4,1-1,1c-0.5,0-1-0.4-1-1C252.1,308.4,252.5,308,253,308z M253.7,312.1v8.9h-1.3v-8.9
				H253.7z"/>
			<path d="M262.2,321.2c-1.7,0-2.7-0.8-3.4-2v6.2h-1.3v-13.3h1.3v1.9c0.7-1.1,1.8-2.1,3.5-2.1c2.5,0,4.2,2.3,4.2,4.6
				C266.4,319,264.7,321.2,262.2,321.2z M265.1,316.6c0-1.9-1.2-3.5-3.1-3.5c-1.8,0-3.2,1.6-3.2,3.4s1.3,3.5,3.2,3.5
				C263.9,320,265.1,318.5,265.1,316.6z"/>
			<path d="M270.9,307.4V321h-1.3v-13.6H270.9z"/>
			<path d="M275.3,317c0.1,1.7,1.5,3.1,3.2,3.1c1.3,0,2.3-0.7,2.8-1.9l1.2,0.4c-0.5,1.7-2.1,2.7-3.9,2.7c-2.6,0-4.5-2.1-4.5-4.6
				c0-2.4,1.8-4.6,4.3-4.6c2.8,0,4.2,2,4.2,4.6c0,0.1,0,0.3,0,0.4h-7.3V317z M281.2,315.9c-0.2-1.6-1.2-2.8-2.9-2.8
				c-1.6,0-2.8,1.3-3,2.8H281.2z"/>
			<path d="M291.7,318.7v-5.5H290V312h1.7v-2.6h1.3v2.6h2.3v1.2H293v5.4c0,0.8,0.5,1.3,1.5,1.3c0.3,0,0.6,0,0.8-0.1v1.1
				c-0.3,0.1-0.8,0.1-1,0.1C292.3,321.1,291.7,320,291.7,318.7z"/>
			<path d="M298.9,308c0.6,0,1,0.4,1,1c0,0.5-0.4,1-1,1c-0.5,0-1-0.4-1-1S298.4,308,298.9,308z M299.6,312.1v8.9h-1.3v-8.9H299.6z"
				/>
			<path d="M309.4,315.8c0-1.5-0.7-2.7-2.3-2.7c-1.6,0-2.5,1.4-2.5,2.8v5.1h-1.3v-8.9h1.3v1.6c0.7-1.1,1.5-1.7,2.9-1.7
				c1.3,0,2.3,0.6,2.9,1.8c0.8-1.2,1.7-1.8,3.1-1.8c2.2,0,3.3,1.5,3.3,3.6v5.5h-1.3v-5.2c0-1.5-0.7-2.7-2.3-2.7
				c-1.6,0-2.5,1.3-2.5,2.8v5.1h-1.3L309.4,315.8L309.4,315.8z"/>
			<path d="M321.1,317c0.1,1.7,1.5,3.1,3.2,3.1c1.3,0,2.3-0.7,2.8-1.9l1.2,0.4c-0.5,1.7-2.1,2.7-3.9,2.7c-2.6,0-4.5-2.1-4.5-4.6
				c0-2.4,1.8-4.6,4.3-4.6c2.8,0,4.2,2,4.2,4.6c0,0.1,0,0.3,0,0.4h-7.3V317z M327,315.9c-0.2-1.6-1.2-2.8-2.9-2.8
				c-1.6,0-2.8,1.3-3,2.8H327z"/>
			<path d="M334.1,321.2c-2.4,0-3.2-1.6-3.4-2.6l1.2-0.3c0.2,0.8,0.8,1.8,2.2,1.8c1,0,1.9-0.5,1.9-1.5c0-1.1-1.2-1.3-2.1-1.5
				c-1.5-0.2-2.9-0.8-2.9-2.5s1.5-2.7,3-2.7c2.4,0,3.1,1.6,3.2,2.4l-1.2,0.3c-0.2-0.6-0.6-1.6-2.1-1.6c-1,0-1.7,0.7-1.7,1.4
				c0,1.1,1.2,1.3,2.1,1.4c1.5,0.2,2.9,1,2.9,2.6C337.3,320.1,335.9,321.2,334.1,321.2z"/>
		</g>
	</g>
	<g>
		<g>
			<path d="M221.6,354.1v13.1h-1.5l-7.8-11.1v11.1H211v-13.1h1.6l7.7,10.9v-10.9H221.6z"/>
			<path d="M225.1,362.7c0-2.6,2-4.6,4.6-4.6s4.6,2,4.6,4.6s-2,4.6-4.6,4.6C227.1,367.3,225.1,365.3,225.1,362.7z M233,362.7
				c0-1.9-1.4-3.5-3.3-3.5s-3.3,1.6-3.3,3.4s1.3,3.5,3.3,3.5C231.6,366.1,233,364.6,233,362.7z"/>
		</g>
	</g>
	<g>
		<g>
			<path d="M167.7,78.6l-3.1,1.9l-0.6-1l3.8-2.3h1.3v13.1h-1.4V78.6z"/>
			<path d="M174.9,78.6l-3.1,1.9l-0.6-1l3.8-2.3h1.3v13.1h-1.4V78.6z"/>
			<path d="M188.2,89.5v10.2h-2.3V77.3h2.3v9.9H201v-9.9h2.3v22.4H201V89.5H188.2z"/>
			<path d="M218.1,89.9c0-2.5-1.3-3.7-3.9-3.7c-2.6,0-3.7,1.7-4,3.1l-2.1-0.5c0.1-1.3,1.8-4.6,6.2-4.6c3.2,0,4.8,1.5,5.6,3.1
				c0.3,0.8,0.5,2,0.5,2.5v9.9h-2.2V97l0,0c-1.2,1.9-2.9,2.9-5.1,2.9c-3.1,0-5.1-1.9-5.1-4.5v-0.2c0-3.3,3.3-4.4,6-4.4h4.2
				L218.1,89.9L218.1,89.9z M213.9,92.8c-1.6,0-3.8,0.5-3.8,2.6c0,1.7,1.5,2.7,3.3,2.7c2.7,0,4.7-1.9,4.7-4.7v-0.5L213.9,92.8
				L213.9,92.8z"/>
			<path d="M222.9,84.5h2.5l5.2,12.8l5.3-12.8h2.4l-6.5,15.3h-2.4L222.9,84.5z"/>
			<path d="M242.1,92.8c0.2,3,2.5,5.2,5.5,5.2c2.3,0,4-1.1,4.7-3.3l2,0.6c-0.9,2.9-3.7,4.6-6.7,4.6c-4.4,0-7.8-3.5-7.8-7.9
				c0-4.1,3.1-7.9,7.4-7.9c4.7,0,7.2,3.4,7.2,7.8c0,0.3,0,0.5,0,0.7h-12.3V92.8z M252.2,90.9c-0.3-2.8-2-4.7-4.9-4.7
				c-2.7,0-4.8,2.2-5.1,4.7H252.2z"/>
			<path d="M270.7,98.7l-7-14.2h2.6l5.6,11.8l5.3-11.8h2.4l-10.5,22.8h-2.4L270.7,98.7z"/>
			<path d="M281,92.2c0-4.5,3.4-8,7.9-8c4.4,0,7.9,3.5,7.9,7.8c0,4.5-3.5,8-7.9,8C284.4,100,281,96.5,281,92.2z M294.5,92.2
				c0-3.2-2.3-6-5.6-6s-5.6,2.7-5.6,5.9c0,3.2,2.3,6,5.6,6C292.2,98,294.5,95.3,294.5,92.2z"/>
			<path d="M302.7,93.4c0,2.7,1.4,4.6,4.2,4.6c2.7,0,4.5-2.1,4.5-4.8v-8.7h2.2v15.3h-2.2V97c-1.2,2.1-3,3.1-5.2,3.1
				c-3.7,0-5.8-2.5-5.8-6.1v-9.4h2.2L302.7,93.4L302.7,93.4z"/>
			<path d="M334.9,100c-2.9,0-4.7-1.4-5.9-3.4v3.2h-2.2V76.5h2.2v11.3c1.3-1.9,3-3.5,5.9-3.5c4.3,0,7.2,3.9,7.2,7.9
				C342.1,96.2,339.2,100,334.9,100z M339.8,92.1c0-3.2-2-6-5.4-6c-3.1,0-5.5,2.8-5.5,5.9s2.2,6,5.5,6
				C337.8,98,339.8,95.4,339.8,92.1z"/>
			<path d="M347.2,92.8c0.2,3,2.5,5.2,5.5,5.2c2.3,0,4-1.1,4.7-3.3l2,0.6c-0.9,2.9-3.7,4.6-6.7,4.6c-4.4,0-7.8-3.5-7.8-7.9
				c0-4.1,3.1-7.9,7.4-7.9c4.7,0,7.2,3.4,7.2,7.8c0,0.3,0,0.5,0,0.7h-12.3V92.8z M357.3,90.9c-0.3-2.8-2-4.7-4.9-4.7
				c-2.7,0-4.8,2.2-5.1,4.7H357.3z"/>
			<path d="M364.5,92.8c0.2,3,2.5,5.2,5.5,5.2c2.3,0,4-1.1,4.7-3.3l2,0.6c-0.9,2.9-3.7,4.6-6.7,4.6c-4.4,0-7.8-3.5-7.8-7.9
				c0-4.1,3.1-7.9,7.4-7.9c4.7,0,7.2,3.4,7.2,7.8c0,0.3,0,0.5,0,0.7h-12.3V92.8z M374.7,90.9c-0.3-2.8-2-4.7-4.9-4.7
				c-2.7,0-4.8,2.2-5.1,4.7H374.7z"/>
			<path d="M391.8,90.8c0-2.7-1.4-4.6-4.2-4.6c-2.7,0-4.5,2.1-4.5,4.8v8.7h-2.2V84.5h2.2v2.8c1.2-2.1,3-3.1,5.3-3.1
				c3.7,0,5.8,2.5,5.8,6.1v9.4H392v-8.9H391.8z"/>
			<path d="M407.9,77.3c0.9,0,1.7,0.7,1.7,1.7c0,0.9-0.7,1.7-1.7,1.7c-0.9,0-1.7-0.7-1.7-1.7C406.3,78.1,407,77.3,407.9,77.3z
				 M409.1,84.5v15.3h-2.3V84.5H409.1z"/>
			<path d="M424.5,90.8c0-2.5-1.2-4.6-3.9-4.6c-2.7,0-4.2,2.3-4.2,4.8v8.7h-2.2V84.5h2.2v2.7c1.2-1.9,2.6-2.9,4.9-2.9
				c2.2,0,4,1.1,4.9,3.1c1.3-2,3-3,5.4-3c3.7,0,5.6,2.5,5.6,6.1v9.4H435V91c0-2.5-1.1-4.6-3.9-4.6c-2.7,0-4.2,2.2-4.2,4.7v8.8h-2.2
				v-9.1H424.5z"/>
			<path d="M450.1,100c-2.8,0-4.7-1.4-5.9-3.4v10.7H442V84.5h2.2v3.3c1.2-1.9,3-3.6,5.9-3.6c4.3,0,7.2,3.9,7.2,7.9
				C457.3,96.2,454.5,100,450.1,100z M455,92.1c0-3.2-2-6-5.4-6c-3.1,0-5.5,2.8-5.5,5.9s2.2,6,5.5,6C453.1,98,455,95.4,455,92.1z"/>
			<path d="M470.5,89.9c0-2.5-1.3-3.7-3.9-3.7s-3.7,1.7-4,3.1l-2.1-0.5c0.1-1.3,1.8-4.6,6.2-4.6c3.2,0,4.8,1.5,5.6,3.1
				c0.3,0.8,0.5,2,0.5,2.5v9.9h-2.2V97l0,0c-1.2,1.9-2.9,2.9-5.1,2.9c-3.1,0-5.1-1.9-5.1-4.5v-0.2c0-3.3,3.3-4.4,6-4.4h4.2v-0.9
				H470.5z M466.2,92.8c-1.6,0-3.8,0.5-3.8,2.6c0,1.7,1.5,2.7,3.3,2.7c2.7,0,4.7-1.9,4.7-4.7v-0.5L466.2,92.8L466.2,92.8z"/>
			<path d="M484.2,98c3.4,0,4.7-2.5,5.1-3.7l2.1,0.7c-0.7,2.3-3.2,4.9-7.2,4.9c-4.4,0-7.8-3.3-7.8-7.8c0-4.6,3.6-8,7.9-8
				c3.5,0,6.4,2.3,7,4.9l-2.1,0.7c-0.3-1.2-1.9-3.5-5-3.5c-3.3,0-5.5,2.7-5.5,5.8S480.8,98,484.2,98z"/>
			<path d="M496,95.8v-9.4h-2.8v-2h2.8V80h2.2v4.4h3.9v2h-3.9v9.3c0,1.4,0.8,2.1,2.5,2.1c0.5,0,1,0,1.4-0.1v1.9
				c-0.5,0.1-1.3,0.2-1.7,0.2C497,99.9,496,98,496,95.8z"/>
			<path d="M506.7,92.8c0.2,3,2.5,5.2,5.5,5.2c2.3,0,4-1.1,4.7-3.3l2,0.6c-0.9,2.9-3.7,4.6-6.7,4.6c-4.4,0-7.8-3.5-7.8-7.9
				c0-4.1,3.1-7.9,7.4-7.9c4.7,0,7.2,3.4,7.2,7.8c0,0.3,0,0.5,0,0.7h-12.3V92.8z M516.8,90.9c-0.3-2.8-2-4.7-4.9-4.7
				c-2.7,0-4.8,2.2-5.1,4.7H516.8z"/>
			<path d="M528.9,84.2c2.9,0,4.7,1.7,5.9,3.5V76.5h2.2v23.3h-2.2v-3.3c-1.2,1.9-3,3.5-6,3.5c-4.4,0-7.2-3.7-7.2-7.9
				C521.8,88.1,524.6,84.2,528.9,84.2z M534.9,92c0-3-2.3-5.9-5.5-5.9c-3.3,0-5.4,2.7-5.4,6c0,3.1,2,5.9,5.4,5.9
				C532.6,98,534.9,95.2,534.9,92z"/>
			<path d="M558.2,100c-2.9,0-4.7-1.4-5.9-3.4v3.2h-2.2V76.5h2.2v11.3c1.3-1.9,3-3.5,5.9-3.5c4.3,0,7.2,3.9,7.2,7.9
				C565.4,96.2,562.6,100,558.2,100z M563.1,92.1c0-3.2-2-6-5.4-6c-3.1,0-5.5,2.8-5.5,5.9s2.2,6,5.5,6
				C561.2,98,563.1,95.4,563.1,92.1z"/>
			<path d="M573.8,98.7l-7-14.2h2.6l5.6,11.8l5.3-11.8h2.4l-10.5,22.8h-2.4L573.8,98.7z"/>
			<path d="M602.4,89.9c0-2.5-1.3-3.7-3.9-3.7c-2.6,0-3.7,1.7-4,3.1l-2.1-0.5c0.1-1.3,1.8-4.6,6.2-4.6c3.2,0,4.8,1.5,5.6,3.1
				c0.3,0.8,0.5,2,0.5,2.5v9.9h-2.2V97l0,0c-1.2,1.9-2.9,2.9-5.1,2.9c-3.1,0-5.1-1.9-5.1-4.5v-0.2c0-3.3,3.3-4.4,6-4.4h4.2v-0.9
				H602.4z M598.1,92.8c-1.6,0-3.8,0.5-3.8,2.6c0,1.7,1.5,2.7,3.3,2.7c2.7,0,4.7-1.9,4.7-4.7v-0.5L598.1,92.8L598.1,92.8z"/>
			<path d="M620.4,90.8c0-2.7-1.4-4.6-4.2-4.6c-2.7,0-4.5,2.1-4.5,4.8v8.7h-2.2V84.5h2.2v2.8c1.2-2.1,3-3.1,5.3-3.1
				c3.7,0,5.8,2.5,5.8,6.1v9.4h-2.2v-8.9H620.4z"/>
			<path d="M632,98.7l-7-14.2h2.6l5.6,11.8l5.3-11.8h2.4l-10.5,22.8H628L632,98.7z"/>
			<path d="M196.8,132.4c3.4,0,4.7-2.5,5.1-3.7l2.1,0.7c-0.7,2.3-3.2,4.9-7.2,4.9c-4.4,0-7.8-3.3-7.8-7.8c0-4.6,3.6-8,7.9-8
				c3.5,0,6.4,2.3,7,4.9l-2.1,0.7c-0.3-1.2-1.9-3.5-5-3.5c-3.3,0-5.5,2.7-5.5,5.8C191.3,129.5,193.4,132.4,196.8,132.4z"/>
			<path d="M212.2,133.1l-7-14.2h2.6l5.6,11.8l5.3-11.8h2.4l-10.5,22.8h-2.4L212.2,133.1z"/>
			<path d="M232.3,134.3c-2.9,0-4.7-1.4-5.9-3.4v3.2h-2.2v-23.3h2.2v11.3c1.3-1.9,3-3.5,5.9-3.5c4.3,0,7.2,3.9,7.2,7.9
				C239.5,130.5,236.6,134.3,232.3,134.3z M237.2,126.5c0-3.2-2-6-5.4-6c-3.1,0-5.5,2.8-5.5,5.9s2.2,6,5.5,6
				C235.2,132.3,237.2,129.7,237.2,126.5z"/>
			<path d="M244.6,127.1c0.2,3,2.5,5.2,5.5,5.2c2.3,0,4-1.1,4.7-3.3l2,0.6c-0.9,2.9-3.7,4.6-6.7,4.6c-4.4,0-7.8-3.5-7.8-7.9
				c0-4.1,3.1-7.9,7.4-7.9c4.7,0,7.2,3.4,7.2,7.8c0,0.3,0,0.5,0,0.7h-12.3V127.1z M254.7,125.2c-0.3-2.8-2-4.7-4.9-4.7
				c-2.7,0-4.8,2.2-5.1,4.7H254.7z"/>
			<path d="M263,121.8c1.1-2.4,3.2-3.3,4.9-3.3c0.1,0,0.6,0,0.7,0v2.4c-0.3,0-0.6-0.1-0.9-0.1c-3.6,0-4.8,3-4.8,5.7v7.5h-2.2v-15.3
				h2.2L263,121.8L263,121.8z"/>
			<path d="M279.8,130.1v-9.4H277v-2h2.8v-4.4h2.2v4.4h3.9v2H282v9.3c0,1.4,0.8,2.1,2.5,2.1c0.5,0,1,0,1.4-0.1v1.9
				c-0.5,0.1-1.3,0.2-1.7,0.2C280.8,134.2,279.8,132.4,279.8,130.1z"/>
			<path d="M300.7,125.2c0-2.7-1.4-4.6-4.2-4.6c-2.7,0-4.5,2.1-4.5,4.8v8.7h-2.2v-23.3h2.2v10.8c1.2-2,3-3,5.2-3
				c3.7,0,5.8,2.5,5.8,6.1v9.4h-2.2L300.7,125.2L300.7,125.2z"/>
			<path d="M309.9,121.8c1.1-2.4,3.2-3.3,4.9-3.3c0.1,0,0.6,0,0.7,0v2.4c-0.3,0-0.6-0.1-0.9-0.1c-3.6,0-4.8,3-4.8,5.7v7.5h-2.2
				v-15.3h2.2L309.9,121.8L309.9,121.8z"/>
			<path d="M319.2,127.1c0.2,3,2.5,5.2,5.5,5.2c2.3,0,4-1.1,4.7-3.3l2,0.6c-0.9,2.9-3.7,4.6-6.7,4.6c-4.4,0-7.8-3.5-7.8-7.9
				c0-4.1,3.1-7.9,7.4-7.9c4.7,0,7.2,3.4,7.2,7.8c0,0.3,0,0.5,0,0.7h-12.3V127.1z M329.3,125.2c-0.3-2.8-2-4.7-4.9-4.7
				c-2.7,0-4.8,2.2-5.1,4.7H329.3z"/>
			<path d="M344.7,124.2c0-2.5-1.3-3.7-3.9-3.7s-3.7,1.7-4,3.1l-2.1-0.5c0.1-1.3,1.8-4.6,6.2-4.6c3.2,0,4.8,1.5,5.6,3.1
				c0.3,0.8,0.5,2,0.5,2.5v9.9h-2.2v-2.7l0,0c-1.2,1.9-2.9,2.9-5.1,2.9c-3.1,0-5.1-1.9-5.1-4.5v-0.2c0-3.3,3.3-4.4,6-4.4h4.2v-0.9
				H344.7z M340.4,127.1c-1.6,0-3.8,0.5-3.8,2.6c0,1.7,1.5,2.7,3.3,2.7c2.7,0,4.7-1.9,4.7-4.7v-0.5L340.4,127.1L340.4,127.1z"/>
			<path d="M352.6,130.1v-9.4h-2.8v-2h2.8v-4.4h2.2v4.4h3.9v2h-3.9v9.3c0,1.4,0.8,2.1,2.5,2.1c0.5,0,1,0,1.4-0.1v1.9
				c-0.5,0.1-1.3,0.2-1.7,0.2C353.6,134.2,352.6,132.4,352.6,130.1z"/>
			<path d="M367.1,134.3c-4.1,0-5.5-2.8-5.8-4.5l2.1-0.5c0.3,1.4,1.3,3,3.7,3c1.7,0,3.2-0.9,3.2-2.5c0-1.9-2-2.3-3.6-2.5
				c-2.5-0.4-5-1.3-5-4.3c0-2.9,2.6-4.5,5.1-4.5c4,0,5.3,2.7,5.6,4.1l-2,0.5c-0.3-1-1.1-2.7-3.5-2.7c-1.7,0-2.9,1.1-2.9,2.4
				c0,1.9,2.1,2.2,3.6,2.4c2.5,0.3,5,1.6,5,4.4C372.5,132.5,370,134.3,367.1,134.3z"/>
			<path d="M385.6,111.7c0.9,0,1.7,0.7,1.7,1.7c0,0.9-0.7,1.7-1.7,1.7c-0.9,0-1.7-0.7-1.7-1.7C383.9,112.4,384.7,111.7,385.6,111.7z
				 M386.7,118.8v15.3h-2.3v-15.3H386.7z"/>
			<path d="M402.8,125.2c0-2.7-1.4-4.6-4.2-4.6c-2.7,0-4.5,2.1-4.5,4.8v8.7h-2.2v-15.3h2.2v2.8c1.2-2.1,3-3.1,5.3-3.1
				c3.7,0,5.8,2.5,5.8,6.1v9.4H403v-8.8H402.8z"/>
			<path d="M418.9,130.1v-9.4H416v-2h2.8v-4.4h2.2v4.4h3.9v2H421v9.3c0,1.4,0.8,2.1,2.5,2.1c0.5,0,1,0,1.4-0.1v1.9
				c-0.5,0.1-1.3,0.2-1.7,0.2C419.9,134.2,418.9,132.4,418.9,130.1z"/>
			<path d="M439.7,125.2c0-2.7-1.4-4.6-4.2-4.6c-2.7,0-4.5,2.1-4.5,4.8v8.7h-2.2v-23.3h2.2v10.8c1.2-2,3-3,5.2-3
				c3.7,0,5.8,2.5,5.8,6.1v9.4h-2.2L439.7,125.2L439.7,125.2z"/>
			<path d="M447.9,127.1c0.2,3,2.5,5.2,5.5,5.2c2.3,0,4-1.1,4.7-3.3l2,0.6c-0.9,2.9-3.7,4.6-6.7,4.6c-4.4,0-7.8-3.5-7.8-7.9
				c0-4.1,3.1-7.9,7.4-7.9c4.7,0,7.2,3.4,7.2,7.8c0,0.3,0,0.5,0,0.7h-12.3V127.1z M458,125.2c-0.3-2.8-2-4.7-4.9-4.7
				c-2.7,0-4.8,2.2-5.1,4.7H458z"/>
			<path d="M474.4,110.8v23.3h-2.3v-23.3H474.4z"/>
			<path d="M488.6,124.2c0-2.5-1.3-3.7-3.9-3.7s-3.7,1.7-4,3.1l-2.1-0.5c0.1-1.3,1.8-4.6,6.2-4.6c3.2,0,4.8,1.5,5.6,3.1
				c0.3,0.8,0.5,2,0.5,2.5v9.9h-2.2v-2.7l0,0c-1.2,1.9-2.9,2.9-5.1,2.9c-3.1,0-5.1-1.9-5.1-4.5v-0.2c0-3.3,3.3-4.4,6-4.4h4.2v-0.9
				H488.6z M484.4,127.1c-1.6,0-3.8,0.5-3.8,2.6c0,1.7,1.5,2.7,3.3,2.7c2.7,0,4.7-1.9,4.7-4.7v-0.5L484.4,127.1L484.4,127.1z"/>
			<path d="M500.3,134.3c-4.1,0-5.5-2.8-5.8-4.5l2.1-0.5c0.3,1.4,1.3,3,3.7,3c1.7,0,3.2-0.9,3.2-2.5c0-1.9-2-2.3-3.6-2.5
				c-2.5-0.4-5-1.3-5-4.3c0-2.9,2.6-4.5,5.1-4.5c4,0,5.3,2.7,5.6,4.1l-2,0.5c-0.3-1-1.1-2.7-3.5-2.7c-1.7,0-2.9,1.1-2.9,2.4
				c0,1.9,2.1,2.2,3.6,2.4c2.5,0.3,5,1.6,5,4.4C505.7,132.5,503.3,134.3,500.3,134.3z"/>
			<path d="M510.6,130.1v-9.4h-2.8v-2h2.8v-4.4h2.2v4.4h3.9v2h-3.9v9.3c0,1.4,0.8,2.1,2.5,2.1c0.5,0,1,0,1.4-0.1v1.9
				c-0.5,0.1-1.3,0.2-1.7,0.2C511.6,134.2,510.6,132.4,510.6,130.1z"/>
			<path d="M532.7,114.2l-5.4,3.2l-1.1-1.8l6.5-3.9h2.3v22.4h-2.3V114.2z"/>
			<path d="M539.7,133.4c0-2.6,1.2-5.4,5.2-7.9l3.4-2.1c2.1-1.3,3.9-2.7,3.9-5.3c0-2.3-2-4.5-4.9-4.5c-2.5,0-4,1.5-4.6,2.9
				c-0.4,0.9-0.4,1.9-0.5,2.2l-2.3-0.3c0-3.2,2.7-6.9,7.5-6.9c4.1,0,7.3,3.1,7.3,6.6c0,3.2-1.8,5.1-4.7,6.9l-3.5,2.2
				c-1.9,1.2-3.7,2.8-3.9,4.8h12.3v2.2h-15.1v-0.8H539.7z"/>
			<path d="M577.4,125.1c0-2.5-1.2-4.6-3.9-4.6s-4.2,2.3-4.2,4.8v8.7H567v-15.3h2.2v2.7c1.2-1.9,2.6-2.9,4.9-2.9
				c2.2,0,4,1.1,4.9,3.1c1.3-2,3-3,5.4-3c3.7,0,5.6,2.5,5.6,6.1v9.4h-2.2v-8.9c0-2.5-1.1-4.6-3.9-4.6c-2.7,0-4.2,2.2-4.2,4.7v8.8
				h-2.2L577.4,125.1L577.4,125.1z"/>
			<path d="M593.7,126.5c0-4.5,3.4-8,7.9-8c4.4,0,7.9,3.5,7.9,7.8c0,4.5-3.5,8-7.9,8S593.7,130.8,593.7,126.5z M607.2,126.5
				c0-3.2-2.3-6-5.6-6s-5.6,2.7-5.6,5.9s2.3,6,5.6,6S607.2,129.7,607.2,126.5z"/>
			<path d="M624.5,125.2c0-2.7-1.4-4.6-4.2-4.6c-2.7,0-4.5,2.1-4.5,4.8v8.7h-2.2v-15.3h2.2v2.8c1.2-2.1,3-3.1,5.3-3.1
				c3.7,0,5.8,2.5,5.8,6.1v9.4h-2.2v-8.8H624.5z"/>
			<path d="M632.4,130.1v-9.4h-2.8v-2h2.8v-4.4h2.2v4.4h3.9v2h-3.9v9.3c0,1.4,0.8,2.1,2.5,2.1c0.5,0,1,0,1.4-0.1v1.9
				c-0.5,0.1-1.3,0.2-1.7,0.2C633.4,134.2,632.4,132.4,632.4,130.1z"/>
			<path d="M653.3,125.2c0-2.7-1.4-4.6-4.2-4.6c-2.7,0-4.5,2.1-4.5,4.8v8.7h-2.2v-23.3h2.2v10.8c1.2-2,3-3,5.2-3
				c3.7,0,5.8,2.5,5.8,6.1v9.4h-2.2L653.3,125.2L653.3,125.2z"/>
			<path d="M665,134.3c-4.1,0-5.5-2.8-5.8-4.5l2.1-0.5c0.3,1.4,1.3,3,3.7,3c1.7,0,3.2-0.9,3.2-2.5c0-1.9-2-2.3-3.6-2.5
				c-2.5-0.4-5-1.3-5-4.3c0-2.9,2.6-4.5,5.1-4.5c4,0,5.3,2.7,5.6,4.1l-2,0.5c-0.3-1-1.1-2.7-3.5-2.7c-1.7,0-2.9,1.1-2.9,2.4
				c0,1.9,2.1,2.2,3.6,2.4c2.5,0.3,5,1.6,5,4.4C670.4,132.5,668,134.3,665,134.3z"/>
			<path d="M678.1,127.6c0-0.2,0-0.3,0-0.5c0-2.7,1.6-3.9,2.9-5.2c1.3-1.4,2.8-2.6,2.8-4.5s-1.3-3.7-4.2-3.7s-4.5,2.1-4.3,4.9
				l-2.3-0.1c0-0.2,0-0.4,0-0.7c0-3.7,3.1-6.3,6.6-6.3c4,0,6.6,2.8,6.6,5.9c0,2.2-1.3,3.7-3.3,5.7c-1.5,1.5-2.5,2.4-2.5,4.6h-2.3
				V127.6z M679.1,134.3c0.9,0,1.7-0.7,1.7-1.7c0-0.9-0.7-1.7-1.7-1.7c-0.9,0-1.7,0.7-1.7,1.7C677.5,133.6,678.2,134.3,679.1,134.3z
				"/>
		</g>
	</g>
	<g class="st3-c1">
		<path d="M626.3,337.8l-1.9,3.4l-1.5-0.2l7.5-13.3l1.7,0.2l4.6,14.6l-1.5-0.2l-1.1-3.7L626.3,337.8z M627,336.5l6.5,0.7l-2.5-7.9
			L627,336.5z"/>
		<path d="M642.8,329.1l-3.1,14.2l-1.4-0.3l3.1-14.2L642.8,329.1z"/>
		<path d="M648.4,330.5l-3.9,14l-1.4-0.4l3.9-14L648.4,330.5z"/>
		<path d="M657.3,349.5c-1.6-0.8-2.3-2-2.5-3.5l-0.8,1.8l-1.3-0.6l6.1-13.2l1.3,0.6l-2.9,6.4c1.2-0.8,2.6-1.2,4.3-0.5
			c2.5,1.1,3.1,4.1,2,6.3C662.4,349.2,659.8,350.6,657.3,349.5z M662.2,346.3c0.8-1.8,0.4-3.9-1.5-4.8c-1.8-0.8-3.8,0.2-4.6,1.9
			c-0.8,1.8-0.3,4,1.6,4.8C659.5,349.2,661.3,348.2,662.2,346.3z"/>
		<path d="M666.9,349.9c-0.9,1.4-0.8,2.9,0.7,3.9c1.4,0.9,3.1,0.4,4-1l2.9-4.6l1.2,0.7l-5.1,8.1l-1.1-0.7l0.9-1.5
			c-1.3,0.7-2.6,0.6-3.8-0.1c-2-1.3-2.2-3.3-1-5.2l3.2-5l1.2,0.7L666.9,349.9z"/>
		<path d="M675.4,360.9c-2-1.6-1.6-3.5-1-4.5l1.2,0.6c-0.4,0.8-0.5,2,0.6,2.9c0.8,0.7,1.9,0.8,2.5,0c0.7-0.9-0.1-1.9-0.7-2.6
			c-1.1-1.2-1.9-2.6-0.8-4.1c1.1-1.4,3.1-1.2,4.3-0.2c2,1.6,1.5,3.4,1.1,4.2l-1.2-0.6c0.3-0.6,0.5-1.7-0.6-2.7
			c-0.8-0.7-1.8-0.6-2.4,0c-0.8,0.9,0.1,1.9,0.8,2.6c1.1,1.1,1.8,2.8,0.7,4.1C678.7,362.2,676.8,362.1,675.4,360.9z"/>
		<path d="M687.7,358.9l-6.6,6.9l-1-1l6.6-6.9L687.7,358.9z M690.3,355.2c0.4,0.4,0.4,1.1,0,1.5s-1.1,0.4-1.5,0s-0.4-1.1,0-1.5
			C689.2,354.8,689.9,354.8,690.3,355.2z"/>
		<path d="M692.3,369.7c1.3-1.1,1.6-2.6,0.5-3.9s-2.9-1.3-4.1-0.2l-4.1,3.6l-0.9-1.1l7.2-6.3l0.9,1l-1.3,1.1
			c1.5-0.3,2.7,0.2,3.6,1.2c1.5,1.8,1.2,3.8-0.5,5.2l-4.5,3.9l-0.9-1.1L692.3,369.7z"/>
		<path d="M694.9,375.1c-1.5,1.1-1.9,3.1-0.8,4.7c0.8,1.2,2,1.7,3.3,1.3l0.4,1.3c-1.9,0.5-3.7-0.3-4.7-1.9c-1.5-2.3-0.8-5.3,1.5-6.8
			c2.2-1.4,5.2-1.1,6.7,1.2c1.6,2.5,0.7,4.9-1.6,6.5c-0.1,0.1-0.3,0.2-0.4,0.2L694.9,375.1z M699.4,379.7c1.3-1.1,1.8-2.7,0.8-4.2
			c-0.9-1.4-2.8-1.7-4.3-1L699.4,379.7z"/>
		<path d="M698,388.9c-1.2-2.3,0-3.9,0.9-4.5l0.9,1c-0.7,0.6-1.3,1.6-0.6,2.9c0.5,0.9,1.4,1.5,2.3,1.1c1-0.5,0.7-1.8,0.4-2.7
			c-0.5-1.5-0.7-3.2,0.9-4c1.6-0.8,3.3,0.2,4,1.6c1.1,2.2,0,3.7-0.7,4.3l-0.8-1c0.5-0.4,1.2-1.4,0.5-2.7c-0.5-0.9-1.4-1.3-2.2-0.9
			c-1.1,0.5-0.6,1.8-0.3,2.7c0.5,1.5,0.5,3.3-1,4C700.5,391.4,698.8,390.6,698,388.9z"/>
		<path d="M701.6,397.1c-0.9-2.4,0.4-3.9,1.3-4.4l0.7,1.1c-0.7,0.5-1.5,1.5-0.9,2.8c0.4,1,1.2,1.7,2.2,1.3c1.1-0.4,0.9-1.7,0.7-2.7
			c-0.4-1.6-0.4-3.2,1.4-3.9c1.7-0.6,3.2,0.5,3.8,2c0.9,2.4-0.4,3.7-1.2,4.2l-0.7-1.1c0.5-0.4,1.3-1.2,0.8-2.7
			c-0.4-1-1.3-1.4-2.1-1.1c-1.1,0.4-0.8,1.7-0.6,2.7c0.4,1.5,0.2,3.3-1.5,3.9C703.9,399.9,702.2,398.8,701.6,397.1z"/>
		<path d="M705.6,410.8c-0.5-2.5,1-3.7,2-4.1l0.6,1.2c-0.8,0.4-1.7,1.2-1.4,2.7c0.2,1,0.9,1.8,1.9,1.6c1.1-0.2,1.2-1.5,1.1-2.5
			c-0.1-1.6,0.2-3.2,2-3.6s3.1,1,3.4,2.6c0.5,2.5-1,3.6-1.9,3.9l-0.6-1.2c0.6-0.3,1.5-1,1.2-2.5c-0.2-1-1-1.6-1.8-1.5
			c-1.2,0.2-1.1,1.5-1,2.5c0.1,1.6-0.4,3.3-2.1,3.6C707.3,413.9,705.9,412.6,705.6,410.8z"/>
		<path d="M716.4,417.1l-9.5,1.1l-0.2-1.4l9.5-1.1L716.4,417.1z M720.7,415.9c0.1,0.6-0.3,1.1-0.9,1.2c-0.6,0.1-1.1-0.3-1.2-0.9
			c-0.1-0.6,0.3-1.1,0.9-1.2C720.1,414.9,720.6,415.3,720.7,415.9z"/>
		<path d="M707.5,428.5l-0.3-7.6h1.2l7.4,5.7l-0.2-5.8h1.2l0.3,7.5h-1.2l-7.4-5.7l0.2,6L707.5,428.5z"/>
		<path d="M711.7,431.9c-1.9,0-3.4,1.3-3.5,3.2c-0.1,1.4,0.5,2.5,1.8,3.1l-0.5,1.2c-1.8-0.7-2.7-2.5-2.6-4.4
			c0.2-2.8,2.6-4.7,5.3-4.5c2.6,0.2,4.8,2.3,4.6,5c-0.2,2.9-2.4,4.3-5.2,4.1c-0.2,0-0.3,0-0.5-0.1L711.7,431.9z M712.4,438.3
			c1.7,0,3.1-1,3.2-2.9c0.1-1.7-1.1-3.1-2.7-3.4L712.4,438.3z"/>
		<path d="M705.7,444.6c0.5-2.5,2.4-3.1,3.5-3l0.1,1.3c-0.9,0-2,0.5-2.3,1.9c-0.2,1,0.2,2.1,1.2,2.2c1.1,0.2,1.6-1,2-1.9
			c0.5-1.5,1.4-2.9,3.2-2.6s2.5,2.1,2.2,3.7c-0.5,2.5-2.3,2.9-3.2,2.9l-0.1-1.3c0.7,0,1.8-0.3,2.1-1.8c0.2-1-0.3-1.9-1.1-2.1
			c-1.2-0.2-1.6,1-1.9,1.9c-0.5,1.5-1.6,2.9-3.3,2.6C706.1,448.2,705.3,446.5,705.7,444.6z"/>
	</g>
	<g>
		<g>
			<path class="st4-c1" d="M703.3,460.5c-1.9,4.8-4.3,9.6-7.1,14.2c-25.8,42-80.7,55.1-122.6,29.3c-42-25.8-55.1-80.7-29.3-122.6
				c14.9-24.3,39.7-39,66-41.9"/>
			<g>
				<polygon points="609.2,335 610.1,344 614.2,339.1 				"/>
			</g>
		</g>
	</g>
	<g class="st3-c1">
		<path d="M1196.7,337.4l1.4-0.3c0.2,1.6,1.6,3.1,3.3,3.3c1.6,0.1,3.2-0.5,3.4-2.3c0.1-1.7-1.3-2.4-2.3-2.7l-1.8-0.5
			c-0.6-0.2-1.6-0.6-2.2-1.4c-0.5-0.6-0.9-1.4-0.8-2.5c0.2-2.4,2.5-3.7,4.8-3.5c3,0.3,4.2,2.2,4.3,3.8l-1.4,0.3
			c-0.2-1-0.9-2.5-3.1-2.7c-1.5-0.1-3,0.7-3.1,2.2c-0.1,1,0.5,2,1.8,2.4l1.7,0.5c0.9,0.3,1.9,0.7,2.6,1.5c0.9,1,1,2.1,1,2.7
			c-0.2,2.5-2.4,3.9-5,3.7C1198.6,341.5,1196.8,339.4,1196.7,337.4z"/>
		<path d="M1216.3,338.5c0.4-1.5,0-3-1.7-3.4c-1.6-0.4-2.9,0.7-3.3,2.3l-1.4,5.3l-1.3-0.4l2.4-9.2l1.3,0.4l-0.4,1.6
			c1-0.9,2.1-1.4,3.4-1s2.2,1.3,2.5,2.6c1.1-1,2.3-1.4,3.7-1c2.2,0.6,3,2.4,2.4,4.6l-1.5,5.7l-1.3-0.4l1.4-5.4c0.4-1.5,0-3-1.7-3.4
			c-1.6-0.4-2.9,0.6-3.3,2.2l-1.4,5.3l-1.3-0.4L1216.3,338.5z"/>
		<path d="M1233.1,344c0.6-1.4,0.2-2.5-1.3-3.1c-1.5-0.7-2.6,0-3.1,0.8l-1.1-0.8c0.4-0.7,2.2-2.2,4.7-1.1c1.8,0.8,2.4,2.1,2.4,3.2
			c0,0.6-0.3,1.3-0.4,1.6l-2.5,5.6l-1.2-0.6l0.7-1.5l0,0c-1.2,0.8-2.4,1-3.7,0.4c-1.8-0.8-2.4-2.4-1.8-3.9v-0.1c0.8-1.9,3-1.7,4.6-1
			l2.4,1.1L1233.1,344z M1229.9,344.5c-0.9-0.4-2.3-0.7-2.8,0.5c-0.4,1,0.2,1.9,1.2,2.4c1.6,0.7,3.2,0.1,3.9-1.5l0.1-0.3
			L1229.9,344.5z"/>
		<path d="M1243,339.7l-7.1,12.7l-1.2-0.7l7.1-12.7L1243,339.7z"/>
		<path d="M1247.9,342.6l-7.8,12.3l-1.2-0.8l7.8-12.3L1247.9,342.6z"/>
	</g>
	<g>
		<g>
			<path class="st4-c1" d="M1248.6,358.4c34.7,27.7,44.1,77.5,20.3,116.3c-25.8,42-80.7,55.1-122.6,29.3c-42-25.8-55.1-80.7-29.3-122.6
				c14.9-24.3,39.7-39,66-41.9"/>
			<g>
				<polygon points="1181.8,335 1182.7,344 1186.8,339.1 				"/>
			</g>
		</g>
	</g>
	<g class="st3-c1">
		<path d="M358.7,730l-1.4-0.2l1.6-11.9l0,0l-6.7,11.2l-1.3-0.2l-3.6-12.5l-1.5,11.8l-1.4-0.2l1.8-13.9l2.1,0.3l3.6,12.6l6.7-11.2
			l2.1,0.3L358.7,730z"/>
		<path d="M364.1,727.1c-0.4,1.8,0.5,3.6,2.3,4.1c1.4,0.4,2.6,0.1,3.4-1.1l1.1,0.7c-1.1,1.6-3,2.1-4.8,1.5c-2.6-0.8-4-3.5-3.2-6.2
			c0.8-2.5,3.3-4.1,5.9-3.3c2.8,0.9,3.7,3.3,2.9,6c0,0.2-0.1,0.3-0.2,0.4L364.1,727.1z M370.5,727.8c0.3-1.7-0.3-3.2-2.1-3.7
			c-1.6-0.5-3.3,0.4-4,1.9L370.5,727.8z"/>
		<path d="M380.1,727.2c1.7,0.8,2.2,2.2,2.4,3.5l2.9-6.4l1.2,0.6l-6.1,13.2l-1.2-0.6l0.9-1.9c-1.2,0.8-2.6,1.2-4.3,0.4
			c-2.5-1.2-3.1-4-2-6.4C375,727.6,377.7,726.1,380.1,727.2z M381.4,733.2c0.8-1.7,0.2-3.9-1.6-4.8c-1.9-0.9-3.7,0.1-4.6,2
			c-0.8,1.8-0.4,3.9,1.5,4.7C378.6,736,380.6,735,381.4,733.2z"/>
		<path d="M389.6,732.4l-4.9,8.2l-1.2-0.7l4.9-8.2L389.6,732.4z M391.3,728.2c0.5,0.3,0.7,0.9,0.4,1.4c-0.3,0.5-0.9,0.7-1.4,0.4
			s-0.7-0.9-0.4-1.4C390.1,728.1,390.8,727.9,391.3,728.2z"/>
		<path d="M391,739.9c-1,1.4-1,2.9,0.4,3.9c1.3,1,3.1,0.6,4.1-0.8l3.2-4.4l1.1,0.8l-5.6,7.7l-1.1-0.8l1-1.4
			c-1.4,0.6-2.7,0.5-3.8-0.4c-1.9-1.4-2-3.4-0.7-5.2l3.5-4.8l1.1,0.8L391,739.9z"/>
		<path d="M405.4,749.7c1.1-1.1,1.5-2.5,0.3-3.8c-1.2-1.2-2.9-0.9-4,0.2l-3.9,3.8l-1-1l6.8-6.7l1,1l-1.2,1.2
			c1.4-0.3,2.5-0.1,3.5,0.9s1.3,2.2,0.8,3.5c1.4-0.3,2.7,0,3.7,1.1c1.6,1.6,1.3,3.6-0.2,5.2l-4.2,4.1l-1-1l4-3.9
			c1.1-1.1,1.5-2.5,0.3-3.8c-1.2-1.2-2.8-0.9-4,0.2l-3.9,3.9l-1-1L405.4,749.7z"/>
	</g>
	<g>
		<g>
			<path class="st4-c1" d="M414,765.7c18.6,28,20.5,65.4,1.7,96c-25.8,42-80.7,55.1-122.6,29.3c-42-25.8-55.1-80.7-29.3-122.6
				c14.9-24.3,39.7-39,66-41.9"/>
			<g>
				<polygon points="328.7,722 329.6,731.1 333.7,726.1 				"/>
			</g>
		</g>
	</g>
	<g class="st3-c1">
		<path d="M919.9,714.5l-1.1,12.6l6.6,0.6l-0.1,1.4l-8.1-0.7l1.2-14L919.9,714.5z"/>
		<path d="M934.3,724.6c0.3-1.5-0.3-2.4-1.9-2.8c-1.6-0.3-2.5,0.5-2.8,1.4l-1.3-0.6c0.2-0.8,1.7-2.6,4.4-2c2,0.4,2.8,1.5,3,2.6
			c0.1,0.6,0,1.3,0,1.6l-1.3,6l-1.3-0.3l0.3-1.6l0,0c-1,1-2.1,1.4-3.5,1.1c-1.9-0.4-2.9-1.8-2.6-3.4v-0.1c0.4-2,2.6-2.3,4.3-1.9
			l2.6,0.5L934.3,724.6z M931.3,725.8c-1-0.2-2.4-0.2-2.6,1.1c-0.2,1,0.5,1.8,1.7,2.1c1.7,0.3,3.2-0.6,3.5-2.3l0.1-0.3L931.3,725.8z
			"/>
		<path d="M941.1,724.9c1.1-1.2,2.5-1.3,3.5-1c0.1,0,0.3,0.1,0.4,0.2l-0.4,1.4c-0.2-0.1-0.3-0.1-0.5-0.2c-2.1-0.7-3.4,0.9-3.9,2.5
			l-1.4,4.5l-1.3-0.4l2.9-9.1l1.3,0.4L941.1,724.9z"/>
		<path d="M951.6,734.9c-1.2,0.8-2.6,1.2-4.3,0.5c-2.5-1.1-3.2-3.9-2.1-6.3c1-2.3,3.6-3.8,6.1-2.7c1.7,0.7,2.3,2.1,2.5,3.5l0.8-1.8
			l1.3,0.6l-3.9,8.8c-1.2,2.8-3.6,3.6-6.3,2.4c-2.3-1-3.4-2.8-3-4.9l1.4,0.1c-0.2,1.1,0.1,2.8,2.1,3.7c1.7,0.7,3.5,0.5,4.5-1.8
			L951.6,734.9z M952.7,732.4c0.8-1.7,0.1-3.9-1.7-4.7c-1.9-0.8-3.7,0.1-4.5,2c-0.8,1.8-0.3,3.8,1.6,4.6
			C949.9,735.2,951.9,734.2,952.7,732.4z"/>
		<path d="M957.8,735.6c-0.9,1.6-0.4,3.6,1.2,4.6c1.2,0.7,2.5,0.7,3.6-0.2l0.9,1c-1.4,1.3-3.5,1.3-5.1,0.3c-2.4-1.4-3-4.4-1.6-6.8
			c1.3-2.2,4.2-3.2,6.5-1.8c2.5,1.5,2.7,4.1,1.3,6.5c-0.1,0.1-0.2,0.3-0.3,0.4L957.8,735.6z M963.8,737.9c0.8-1.6,0.5-3.2-1.1-4.1
			c-1.4-0.9-3.3-0.4-4.3,0.9L963.8,737.9z"/>
	</g>
	<g>
		<g>
			<path class="st4-c1" d="M970.4,747.1c33,28,41.6,76.6,18.3,114.6c-25.8,42-80.7,55.1-122.6,29.3c-42-25.8-55.1-80.7-29.3-122.6
				c14.9-24.3,39.7-39,66-41.9"/>
			<g>
				<polygon points="901.6,722 902.5,731.1 906.6,726.1 				"/>
			</g>
		</g>
	</g>
</g>
<g id="orangeChartC1">
	<g class="st3-c1">
		<path class="st5-c1" d="M422.1,513.1c1-1.6,2.9-2.2,4.1-2.2c3.1,0,5,2.2,5,4.8c0,3.4-2.7,5.1-5.3,5.1c-1.6,0-3.6-1-4.5-2.5
			c-0.7-1.3-0.9-2.3-0.9-4.1c0-4.7,2.5-8.6,7.3-8.6c0.8,0,2.1,0.1,3.1,0.7l-0.6,1.4c-0.8-0.5-1.9-0.6-2.5-0.6
			C424.4,507.1,422.4,509.8,422.1,513.1z M423.5,513.2c-0.7,0.6-1.2,1.6-1.2,2.6c0,2.2,1.9,3.5,3.7,3.5c1.9,0,3.7-1.2,3.7-3.6
			c0-1.8-1.4-3.5-3.7-3.5C425.1,512.3,424.1,512.7,423.5,513.2z"/>
		<path class="st5-c1" d="M442.5,513.3c-1,1.6-3,2.3-4.2,2.3c-3.2,0-5-2.4-5-4.8c0-3.4,2.6-5.1,5.3-5.1c1.6,0,3.5,0.9,4.4,2.5
			c0.7,1.3,1,2.5,1,4.2c0,4.9-2.4,8.5-7,8.5c-0.8,0-2.5-0.2-3.5-0.9l0.6-1.4c1,0.6,2.2,0.8,2.8,0.8
			C440.3,519.3,442.2,516.7,442.5,513.3z M441,513.2c0.7-0.6,1.2-1.6,1.2-2.7c0-2.2-1.8-3.5-3.7-3.5c-1.9,0-3.7,1.2-3.7,3.6
			c0,1.8,1.3,3.5,3.6,3.5C439.4,514.1,440.3,513.8,441,513.2z"/>
		<path class="st5-c1" d="M447.5,515c-1.1,0-2-0.9-2-2c0-1.1,0.9-2,2-2s2,0.9,2,2C449.5,514.1,448.6,515,447.5,515z M447.5,511.8
			c-0.7,0-1.2,0.5-1.2,1.2s0.6,1.2,1.2,1.2s1.2-0.5,1.2-1.2C448.8,512.4,448.2,511.8,447.5,511.8z M452.3,511.2h0.9l-5.7,8.7h-0.9
			L452.3,511.2z M452.3,519.9c-1.1,0-2-0.9-2-2s0.9-2,2-2s2,0.9,2,2C454.3,519.1,453.4,519.9,452.3,519.9z M452.3,516.8
			c-0.7,0-1.2,0.5-1.2,1.2s0.5,1.2,1.2,1.2s1.2-0.5,1.2-1.2C453.6,517.3,453,516.8,452.3,516.8z"/>
	</g>
	<g class="st3-c1">
		<path class="st5-c1" d="M982.5,516.6c0-1.6,1.1-3,3.1-3.6c-1.9-0.5-2.8-2.1-2.8-3.4c0-2.6,2.7-4,4.9-4c2.3,0,4.9,1.3,4.9,4
			c0,1.4-1,2.9-2.8,3.4c2.1,0.6,3.1,2.1,3.1,3.6c0,2.7-2.7,4.2-5.2,4.2C985.1,520.8,982.5,519.4,982.5,516.6z M991.4,516.6
			c0-2-2.1-2.9-3.7-2.9c-1.6,0-3.7,0.9-3.7,2.9s2,2.9,3.7,2.9C989.3,519.4,991.4,518.6,991.4,516.6z M984.4,509.6
			c0,1.9,2.1,2.7,3.3,2.7s3.4-0.9,3.4-2.7c0-1.7-1.9-2.6-3.4-2.6C986.3,507,984.4,507.9,984.4,509.6z"/>
		<path class="st5-c1" d="M1002.4,520.7v-3.6h-7.8v-1.7l7.3-9.6h2v10h2.5v1.4h-2.5v3.6h-1.5V520.7z M1002.4,515.7v-8.4l-6.4,8.4H1002.4
			z"/>
		<path class="st5-c1" d="M1009.5,515c-1.1,0-2-0.9-2-2c0-1.1,0.9-2,2-2s2,0.9,2,2C1011.4,514.1,1010.6,515,1009.5,515z M1009.5,511.8
			c-0.7,0-1.2,0.5-1.2,1.2s0.6,1.2,1.2,1.2s1.2-0.5,1.2-1.2C1010.7,512.4,1010.1,511.8,1009.5,511.8z M1014.3,511.2h0.9l-5.7,8.7
			h-0.9L1014.3,511.2z M1014.3,519.9c-1.1,0-2-0.9-2-2s0.9-2,2-2s2,0.9,2,2C1016.3,519.1,1015.4,519.9,1014.3,519.9z M1014.3,516.8
			c-0.7,0-1.2,0.5-1.2,1.2s0.5,1.2,1.2,1.2s1.2-0.5,1.2-1.2S1015,516.8,1014.3,516.8z"/>
	</g>
	<g class="st3-c1">
		<path class="st5-c1" d="M620.3,539c-61.2,0-110.9-49.6-110.9-110.9c0-61.1,49.5-110.7,110.6-110.9V255
			c-72.7,0-135.6,43.2-161.6,111.1c-34.3,89.3,10.3,189.4,99.6,223.7s189.4-10.3,223.7-99.6L723.9,468
			C707.8,509.5,667.5,539,620.3,539z"/>
	</g>
	<g class="st3-c1">
		<path class="st5-c1" d="M1338.1,333.8l-52.2,33.9c11.3,17.4,17.9,38.1,17.9,60.4c0,61.2-49.6,110.9-110.9,110.9
			S1082,489.3,1082,428.1s49.6-110.9,110.9-110.9V255c-34.4,0-65.4,9.2-94.3,27.9c-80.2,52.1-103,159.3-50.9,239.5
			s159.3,103,239.5,50.9C1367.3,521.2,1390.1,414,1338.1,333.8z"/>
	</g>
	<g class="st3-c1">
		<path class="st5-c1" d="M339.7,926c-61.2,0-110.9-49.6-110.9-110.9s49.6-110.9,110.9-110.9l0,0V642c-38.2,0-70.8,10.6-101.8,33.1
			c-77.3,56.2-94.5,164.5-38.3,241.8s164.5,94.5,241.8,38.3l-36.6-50.4C386.6,918.2,364.1,926,339.7,926z"/>
	</g>
	<g class="st3-c1">
		<path class="st5-c1" d="M136.7,897.7c1-1.6,2.9-2.2,4.1-2.2c3.1,0,5,2.2,5,4.8c0,3.4-2.7,5.1-5.3,5.1c-1.6,0-3.6-1-4.5-2.5
			c-0.7-1.3-0.9-2.3-0.9-4.1c0-4.7,2.5-8.6,7.3-8.6c0.8,0,2.1,0.1,3.1,0.7l-0.6,1.4c-0.8-0.5-1.9-0.6-2.5-0.6
			C139,891.6,137,894.3,136.7,897.7z M138.1,897.8c-0.7,0.6-1.2,1.6-1.2,2.6c0,2.2,1.9,3.5,3.7,3.5c1.9,0,3.7-1.2,3.7-3.6
			c0-1.8-1.4-3.5-3.7-3.5C139.7,896.9,138.8,897.2,138.1,897.8z"/>
		<path class="st5-c1" d="M148,897.8c0-3.7,2.1-7.7,6.3-7.7c4.1,0,6.2,3.9,6.2,7.6s-2.1,7.6-6.2,7.6C150,905.4,148,901.5,148,897.8z
			 M149.6,897.7c0,2.7,1.4,6.2,4.6,6.2c3.2,0,4.6-3.5,4.6-6.1c0-2.7-1.4-6.2-4.6-6.2S149.6,895,149.6,897.7z"/>
		<path class="st5-c1" d="M163.9,899.5c-1.1,0-2-0.9-2-2s0.9-2,2-2s2,0.9,2,2C165.9,898.7,165,899.5,163.9,899.5z M163.9,896.4
			c-0.7,0-1.2,0.5-1.2,1.2s0.6,1.2,1.2,1.2s1.2-0.5,1.2-1.2C165.1,896.9,164.6,896.4,163.9,896.4z M168.7,895.7h0.9l-5.7,8.7H163
			L168.7,895.7z M168.7,904.5c-1.1,0-2-0.9-2-2s0.9-2,2-2s2,0.9,2,2S169.8,904.5,168.7,904.5z M168.7,901.3c-0.7,0-1.2,0.5-1.2,1.2
			s0.5,1.2,1.2,1.2s1.2-0.5,1.2-1.2C170,901.8,169.4,901.3,168.7,901.3z"/>
	</g>
	<g class="st3-c1">
		<path class="st5-c1" d="M711.4,897.7c1-1.6,2.9-2.2,4.1-2.2c3.1,0,5,2.2,5,4.8c0,3.4-2.7,5.1-5.3,5.1c-1.6,0-3.6-1-4.5-2.5
			c-0.7-1.3-0.9-2.3-0.9-4.1c0-4.7,2.5-8.6,7.3-8.6c0.8,0,2.1,0.1,3.1,0.7l-0.6,1.4c-0.8-0.5-1.9-0.6-2.5-0.6
			C713.6,891.6,711.7,894.3,711.4,897.7z M712.7,897.8c-0.7,0.6-1.2,1.6-1.2,2.6c0,2.2,1.9,3.5,3.7,3.5c1.9,0,3.7-1.2,3.7-3.6
			c0-1.8-1.4-3.5-3.7-3.5C714.3,896.9,713.4,897.2,712.7,897.8z"/>
		<path class="st5-c1" d="M722.6,897.8c0-3.7,2.1-7.7,6.3-7.7c4.1,0,6.2,3.9,6.2,7.6s-2.1,7.6-6.2,7.6
			C724.7,905.4,722.6,901.5,722.6,897.8z M724.2,897.7c0,2.7,1.4,6.2,4.6,6.2c3.2,0,4.6-3.5,4.6-6.1c0-2.7-1.4-6.2-4.6-6.2
			S724.2,895,724.2,897.7z"/>
		<path class="st5-c1" d="M738.6,899.5c-1.1,0-2-0.9-2-2s0.9-2,2-2s2,0.9,2,2C740.5,898.7,739.6,899.5,738.6,899.5z M738.6,896.4
			c-0.7,0-1.2,0.5-1.2,1.2s0.6,1.2,1.2,1.2s1.2-0.5,1.2-1.2S739.2,896.4,738.6,896.4z M743.4,895.7h0.9l-5.7,8.7h-0.9L743.4,895.7z
			 M743.4,904.5c-1.1,0-2-0.9-2-2s0.9-2,2-2s2,0.9,2,2S744.5,904.5,743.4,904.5z M743.4,901.3c-0.7,0-1.2,0.5-1.2,1.2
			s0.5,1.2,1.2,1.2s1.2-0.5,1.2-1.2C744.6,901.8,744.1,901.3,743.4,901.3z"/>
	</g>
	<g class="st3-c1">
		<path class="st5-c1" d="M912.7,926c-61.2,0-110.9-49.6-110.9-110.9c0-61.2,49.6-110.9,110.8-110.9V642c-38.2,0-70.8,10.6-101.8,33.1
			c-77.3,56.2-94.5,164.5-38.3,241.8s164.5,94.5,241.8,38.3l-36.6-50.3C959.5,918.2,937,926,912.7,926z"/>
	</g>
</g>
<g id="spottyChartC1">
	<g class="st3-c1">
		<path d="M823.6,428.7l-3.6,2.1l-0.7-1.2l4.3-2.6h1.5v15h-1.6L823.6,428.7L823.6,428.7z"/>
		<path d="M831.8,428.7l-3.6,2.1l-0.7-1.2l4.3-2.6h1.5v15h-1.6L831.8,428.7L831.8,428.7z"/>
		<path d="M837.9,436.3c-1.1,0-2-0.9-2-2s0.9-2,2-2s2,0.9,2,2C839.8,435.4,838.9,436.3,837.9,436.3z M837.9,433.1
			c-0.7,0-1.2,0.5-1.2,1.2s0.6,1.2,1.2,1.2s1.2-0.5,1.2-1.2C839.1,433.7,838.5,433.1,837.9,433.1z M842.7,432.5h0.9l-5.7,8.7H837
			L842.7,432.5z M842.7,441.3c-1.1,0-2-0.9-2-2s0.9-2,2-2s2,0.9,2,2S843.8,441.3,842.7,441.3z M842.7,438.1c-0.7,0-1.2,0.5-1.2,1.2
			s0.5,1.2,1.2,1.2s1.2-0.5,1.2-1.2S843.4,438.1,842.7,438.1z"/>
	</g>
	<g class="st3-c1">
		<path d="M1350.5,312.4v-3.6h-7.8v-1.7l7.3-9.6h2v10h2.5v1.4h-2.5v3.6L1350.5,312.4L1350.5,312.4z M1350.5,307.5v-8.4l-6.4,8.4
			H1350.5z"/>
		<path d="M1357.6,306.8c-1.1,0-2-0.9-2-2s0.9-2,2-2s2,0.9,2,2C1359.5,305.9,1358.7,306.8,1357.6,306.8z M1357.6,303.6
			c-0.7,0-1.2,0.5-1.2,1.2s0.6,1.2,1.2,1.2s1.2-0.5,1.2-1.2C1358.8,304.1,1358.2,303.6,1357.6,303.6z M1362.4,302.9h0.9l-5.7,8.7
			h-0.9L1362.4,302.9z M1362.4,311.7c-1.1,0-2-0.9-2-2s0.9-2,2-2s2,0.9,2,2C1364.4,310.8,1363.5,311.7,1362.4,311.7z M1362.4,308.5
			c-0.7,0-1.2,0.5-1.2,1.2s0.5,1.2,1.2,1.2s1.2-0.5,1.2-1.2C1363.6,309.1,1363.1,308.5,1362.4,308.5z"/>
	</g>
	<g>
		<pattern  id="SVGID-6-c1" xlink:href="#SVGID_2_" patternTransform="matrix(0 1.1922 1.1445 0 -19560.1172 -1355.5453)">
		</pattern>
		<path class="st6-c1" d="M784.6,374.6l-58.9,19.1c3.5,10.8,5.4,22.4,5.4,34.4c0,14-2.6,27.5-7.4,39.8l57.8,22.2
			C796.7,450.9,797.6,414.6,784.6,374.6z"/>
	</g>
	<g>
		<pattern  id="SVGID-7-c1" xlink:href="#SVGID_3_" patternTransform="matrix(0 1.1922 1.1445 0 -19560.1172 -1355.5453)">
		</pattern>
		<path class="st7-c1" d="M1285.9,367.7l52.2-33.9c-8.3-12.8-15.9-21.9-27.1-32.3l-42.5,45.5C1275.1,353.2,1280.9,360.1,1285.9,367.7z"
			/>
	</g>
	<g>
		<pattern  id="SVGID-8-c1" xlink:href="#SVGID_4_" patternTransform="matrix(0 1.1922 1.1445 0 -19560.1172 -1355.5453)">
		</pattern>
		<path class="st8-c1" d="M404.9,904.9l36.6,50.4c30.9-22.5,51.1-50.2,62.9-86.6l-59.2-19.2C437.9,871.9,423.6,891.2,404.9,904.9z"/>
	</g>
	<g class="st3-c1">
		<path d="M497,923.7l-3.6,2.1l-0.7-1.2l4.3-2.6h1.5v15H497V923.7z"/>
		<path d="M501.7,929.6c0-3.7,2.1-7.7,6.3-7.7c4.1,0,6.2,3.9,6.2,7.6s-2.1,7.6-6.2,7.6C503.8,937.2,501.7,933.3,501.7,929.6z
			 M503.3,929.5c0,2.7,1.4,6.2,4.6,6.2s4.6-3.5,4.6-6.1c0-2.7-1.4-6.2-4.6-6.2S503.3,926.8,503.3,929.5z"/>
		<path d="M517.6,931.3c-1.1,0-2-0.9-2-2s0.9-2,2-2s2,0.9,2,2C519.6,930.5,518.7,931.3,517.6,931.3z M517.6,928.1
			c-0.7,0-1.2,0.5-1.2,1.2s0.6,1.2,1.2,1.2s1.2-0.5,1.2-1.2C518.9,928.7,518.3,928.1,517.6,928.1z M522.4,927.5h0.9l-5.7,8.7h-0.9
			L522.4,927.5z M522.5,936.3c-1.1,0-2-0.9-2-2s0.9-2,2-2s2,0.9,2,2C524.4,935.4,523.6,936.3,522.5,936.3z M522.5,933.1
			c-0.7,0-1.2,0.5-1.2,1.2s0.5,1.2,1.2,1.2s1.2-0.5,1.2-1.2S523.1,933.1,522.5,933.1z"/>
	</g>
	<g class="st3-c1">
		<path d="M1088.4,897.5l-3.6,2.1l-0.7-1.2l4.3-2.6h1.5v14.9h-1.6L1088.4,897.5L1088.4,897.5z"/>
		<path d="M1092.6,897.3v-1.4h10.2v1.4l-6.9,13.5h-1.7l6.9-13.5H1092.6z"/>
		<path d="M1105.7,905.1c-1.1,0-2-0.9-2-2s0.9-2,2-2s2,0.9,2,2C1107.7,904.2,1106.8,905.1,1105.7,905.1z M1105.7,901.9
			c-0.7,0-1.2,0.5-1.2,1.2s0.6,1.2,1.2,1.2s1.2-0.5,1.2-1.2C1106.9,902.5,1106.4,901.9,1105.7,901.9z M1110.5,901.3h0.9l-5.7,8.7
			h-0.9L1110.5,901.3z M1110.5,910c-1.1,0-2-0.9-2-2s0.9-2,2-2s2,0.9,2,2C1112.5,909.2,1111.6,910,1110.5,910z M1110.5,906.9
			c-0.7,0-1.2,0.5-1.2,1.2s0.5,1.2,1.2,1.2s1.2-0.5,1.2-1.2C1111.8,907.4,1111.2,906.9,1110.5,906.9z"/>
	</g>
	<g>
		<pattern  id="SVGID-9-c1" xlink:href="#SVGID_5_" patternTransform="matrix(0 1.1922 1.1445 0 -19560.1172 -1355.5453)">
		</pattern>
		<path class="st9-c1" d="M1084,791.1l-61.6,8.7c0.7,5,1.1,10.2,1.1,15.4c0,36.9-18,69.6-45.7,89.7l36.6,50.3
			C1067,917,1093.1,855.5,1084,791.1z"/>
	</g>
</g>
<g id="greenChartC1">
	<g>
		<path d="M733.8,271.4c0-1.7,0.8-3.6,3.5-5.2l2.3-1.4c1.4-0.9,2.6-1.8,2.6-3.5c0-1.5-1.4-3-3.3-3c-1.6,0-2.7,1-3.1,1.9
			c-0.3,0.6-0.3,1.2-0.3,1.5l-1.6-0.2c0-2.1,1.8-4.6,5-4.6c2.8,0,4.9,2.1,4.9,4.4c0,2.1-1.2,3.4-3.1,4.6l-2.3,1.5
			c-1.3,0.8-2.5,1.9-2.6,3.2h8.2v1.4h-10.1v-0.6H733.8z"/>
		<path d="M746.1,264.5c0-3.7,2.1-7.7,6.3-7.7c4.1,0,6.2,3.9,6.2,7.6s-2.1,7.6-6.2,7.6C748.2,272.1,746.1,268.2,746.1,264.5z
			 M747.7,264.4c0,2.7,1.4,6.2,4.6,6.2c3.2,0,4.6-3.5,4.6-6.1c0-2.7-1.4-6.2-4.6-6.2S747.7,261.7,747.7,264.4z"/>
		<path d="M762,266.2c-1.1,0-2-0.9-2-2s0.9-2,2-2s2,0.9,2,2C764,265.3,763.1,266.2,762,266.2z M762,263c-0.7,0-1.2,0.5-1.2,1.2
			s0.6,1.2,1.2,1.2s1.2-0.5,1.2-1.2C763.3,263.6,762.7,263,762,263z M766.8,262.4h0.9l-5.7,8.7h-0.9L766.8,262.4z M766.9,271.2
			c-1.1,0-2-0.9-2-2s0.9-2,2-2s2,0.9,2,2C768.8,270.3,767.9,271.2,766.9,271.2z M766.9,268c-0.7,0-1.2,0.5-1.2,1.2s0.5,1.2,1.2,1.2
			s1.2-0.5,1.2-1.2C768.1,268.5,767.5,268,766.9,268z"/>
	</g>
	<g>
		<path d="M1264.3,238l-3.6,2.1l-0.7-1.2l4.3-2.6h1.5v14.9h-1.6L1264.3,238L1264.3,238z"/>
		<path d="M1269,250.8c0-1.7,0.8-3.6,3.5-5.2l2.3-1.4c1.4-0.9,2.6-1.8,2.6-3.5c0-1.5-1.4-3-3.3-3c-1.6,0-2.7,1-3.1,1.9
			c-0.3,0.6-0.3,1.2-0.3,1.5l-1.6-0.2c0-2.1,1.8-4.6,5-4.6c2.8,0,4.9,2.1,4.9,4.4c0,2.1-1.2,3.4-3.1,4.6l-2.3,1.5
			c-1.3,0.8-2.5,1.9-2.6,3.2h8.2v1.4H1269V250.8z"/>
		<path d="M1282.6,245.6c-1.1,0-2-0.9-2-2s0.9-2,2-2s2,0.9,2,2C1284.6,244.7,1283.7,245.6,1282.6,245.6z M1282.6,242.4
			c-0.7,0-1.2,0.5-1.2,1.2s0.6,1.2,1.2,1.2s1.2-0.5,1.2-1.2C1283.8,242.9,1283.3,242.4,1282.6,242.4z M1287.4,241.7h0.9l-5.7,8.7
			h-0.9L1287.4,241.7z M1287.4,250.5c-1.1,0-2-0.9-2-2s0.9-2,2-2s2,0.9,2,2S1288.5,250.5,1287.4,250.5z M1287.4,247.3
			c-0.7,0-1.2,0.5-1.2,1.2s0.5,1.2,1.2,1.2s1.2-0.5,1.2-1.2C1288.6,247.9,1288.1,247.3,1287.4,247.3z"/>
	</g>
	<g>
		<path class="st10-c1" d="M620.3,317.2c49.2,0,91,32.1,105.4,76.5l58.9-19.1C761,301.8,696.5,255,620,255v62.3
			C620.1,317.2,620.2,317.2,620.3,317.2z"/>
	</g>
	<g>
		<path class="st10-c1" d="M1268.5,347l42.5-45.5c-33.6-31.3-72.2-46.5-118.1-46.5v62.3C1222.1,317.2,1248.7,328.5,1268.5,347z"/>
	</g>
	<g>
		<path class="st10-c1" d="M339.8,642.1v62.2c61.2,0,110.9,49.6,110.9,110.9c0,12-1.9,23.5-5.4,34.3l59.2,19.2
			c5.9-18.2,8.5-34.4,8.5-53.5C512.9,719.6,435.4,642.1,339.8,642.1z"/>
	</g>
	<g>
		<path d="M497.2,700.3c-2.6,0-4.8-1.6-5.1-4.1l1.5-0.3c0.3,1.7,1.6,3,3.6,3s3.6-1.1,3.6-2.8s-1.3-2.8-3.6-2.8h-1.5v-1.5h1.4
			c2,0,3.3-1.3,3.3-2.7c0-1.5-1.1-2.7-3.3-2.7c-2,0-3.2,1.2-3.5,2.8l-1.5-0.3c0.3-2.1,2.2-3.9,5-3.9c3.2,0,4.8,2,4.8,3.9
			c0,1.7-1,2.8-2.4,3.4l0,0c1.7,0.5,2.7,1.8,2.7,3.6C502.4,698.3,500.3,700.3,497.2,700.3z"/>
		<path d="M504.6,692.7c0-3.7,2.1-7.7,6.3-7.7c4.1,0,6.2,3.9,6.2,7.6s-2.1,7.6-6.2,7.6C506.7,700.3,504.6,696.4,504.6,692.7z
			 M506.2,692.7c0,2.7,1.4,6.2,4.6,6.2c3.2,0,4.6-3.5,4.6-6.1c0-2.7-1.4-6.2-4.6-6.2C507.6,686.5,506.2,690,506.2,692.7z"/>
		<path d="M520.5,694.5c-1.1,0-2-0.9-2-2s0.9-2,2-2s2,0.9,2,2S521.6,694.5,520.5,694.5z M520.5,691.3c-0.7,0-1.2,0.5-1.2,1.2
			s0.6,1.2,1.2,1.2s1.2-0.5,1.2-1.2C521.8,691.8,521.2,691.3,520.5,691.3z M525.3,690.6h0.9l-5.7,8.7h-0.9L525.3,690.6z
			 M525.4,699.4c-1.1,0-2-0.9-2-2s0.9-2,2-2s2,0.9,2,2C527.3,698.5,526.4,699.4,525.4,699.4z M525.4,696.2c-0.7,0-1.2,0.5-1.2,1.2
			s0.5,1.2,1.2,1.2s1.2-0.5,1.2-1.2C526.6,696.8,526,696.2,525.4,696.2z"/>
	</g>
	<g>
		<path d="M1035.4,670.3c0-1.7,0.8-3.6,3.5-5.2l2.3-1.4c1.4-0.9,2.6-1.8,2.6-3.5c0-1.5-1.4-3-3.3-3c-1.6,0-2.7,1-3.1,1.9
			c-0.3,0.6-0.3,1.2-0.3,1.5l-1.6-0.2c0-2.1,1.8-4.6,5-4.6c2.8,0,4.9,2.1,4.9,4.4c0,2.1-1.2,3.4-3.1,4.6l-2.3,1.5
			c-1.3,0.8-2.5,1.8-2.6,3.2h8.2v1.4h-10.1L1035.4,670.3L1035.4,670.3z"/>
		<path d="M1052.7,670.9c-2.6,0-4.8-1.6-5.2-4.1l1.5-0.3c0.3,1.7,1.6,3,3.6,3s3.6-1.1,3.6-2.8s-1.3-2.8-3.6-2.8h-1.5v-1.5h1.5
			c2,0,3.3-1.3,3.3-2.7c0-1.5-1.1-2.7-3.3-2.7c-2,0-3.2,1.2-3.5,2.8l-1.5-0.3c0.3-2.1,2.2-3.9,5-3.9c3.2,0,4.8,2,4.8,3.9
			c0,1.7-1,2.8-2.4,3.4l0,0c1.7,0.5,2.7,1.8,2.7,3.6C1057.9,668.9,1055.8,670.9,1052.7,670.9z"/>
		<path d="M1061.4,665.1c-1.1,0-2-0.9-2-2s0.9-2,2-2s2,0.9,2,2C1063.3,664.2,1062.5,665.1,1061.4,665.1z M1061.4,661.9
			c-0.7,0-1.2,0.5-1.2,1.2s0.6,1.2,1.2,1.2s1.2-0.5,1.2-1.2S1062.1,661.9,1061.4,661.9z M1066.2,661.2h0.9l-5.7,8.7h-0.9
			L1066.2,661.2z M1066.2,670c-1.1,0-2-0.9-2-2s0.9-2,2-2s2,0.9,2,2S1067.3,670,1066.2,670z M1066.2,666.8c-0.7,0-1.2,0.5-1.2,1.2
			s0.5,1.2,1.2,1.2s1.2-0.5,1.2-1.2C1067.4,667.4,1066.9,666.8,1066.2,666.8z"/>
	</g>
	<g>
		<path class="st10-c1" d="M912.7,704.3c56,0,102.3,41.5,109.8,95.4l61.6-8.7c-12.2-87.1-83.5-149-171.4-149L912.7,704.3
			C912.6,704.3,912.6,704.3,912.7,704.3z"/>
	</g>
</g>
<g id="greenCircleC1">
	<circle class="st10-c1" cx="179.7" cy="270.5" r="15.9"/>
</g>
<g id="spottyCircleC1">
	<pattern  id="SVGID-10-c1" xlink:href="#SVGID_1_" patternTransform="matrix(0 1.1922 1.1445 0 -19560.1172 -1355.5453)">
	</pattern>
	<circle class="st11-c1" cx="179.7" cy="316.6" r="15.9"/>
</g>
<g id="orangeCircleC1" class="st3-c1">
	<circle class="st5-c1" cx="179.7" cy="362.7" r="15.9"/>
</g>
</svg>
