<?xml version="1.0" encoding="utf-8"?>
<!-- Generator: Adobe Illustrator 21.1.0, SVG Export Plug-In . SVG Version: 6.00 Build 0)  -->
<svg version="1.1" id="graphFiveDR" xmlns="http://www.w3.org/2000/svg" xmlns:xlink="http://www.w3.org/1999/xlink" x="0px" y="0px"
	 viewBox="0 0 1500 1053" style="enable-background:new 0 0 1500 1053;" xml:space="preserve">
<style type="text/css">
	.st0-dr5{fill:#ABABAC;}
	.st1-dr5{fill:#FFC940;}
	.st2-dr5{opacity:0.9;}
	.st3-dr5{fill:#1A1A1A;}
	.st4-dr5{fill:#37C0AA;}
</style>
<g id="greyChartDR5">
	<g>
		<rect x="861.4" y="953.4" class="st0-dr5" width="74.3" height="44.8"/>
	</g>
	<g>
		<g>
			<path class="st0-dr5" d="M875.9,930.9c0-1.7,1.2-3.3,3.5-4c-2.1-0.6-3.1-2.4-3.1-3.8c0-2.9,3-4.4,5.4-4.4c2.5,0,5.4,1.5,5.4,4.4
				c0,1.6-1.1,3.2-3.1,3.8c2.3,0.7,3.5,2.3,3.5,4c0,3-2.9,4.7-5.8,4.7C878.9,935.6,875.9,934,875.9,930.9z M885.8,930.9
				c0-2.2-2.3-3.2-4.1-3.2c-1.7,0-4.1,1-4.1,3.2c0,2.2,2.3,3.2,4.1,3.2C883.5,934,885.8,933.1,885.8,930.9z M878,923.2
				c0,2.1,2.3,3,3.7,3s3.7-1,3.7-3c0-1.9-2.1-2.9-3.7-2.9C880.2,920.3,878,921.2,878,923.2z"/>
		</g>
		<g>
			<path class="st0-dr5" d="M891.5,927.8c-1.2,0-2.2-1-2.2-2.2c0-1.2,1-2.2,2.2-2.2c1.2,0,2.2,1,2.2,2.2
				C893.6,926.8,892.7,927.8,891.5,927.8z M891.5,924.3c-0.8,0-1.4,0.6-1.4,1.4c0,0.8,0.6,1.4,1.4,1.4s1.4-0.6,1.4-1.4
				C892.8,924.9,892.2,924.3,891.5,924.3z M896.8,923.6h1l-6.3,9.6h-1L896.8,923.6z M896.8,933.3c-1.2,0-2.2-1-2.2-2.2
				c0-1.2,1-2.2,2.2-2.2c1.2,0,2.2,1,2.2,2.2C899,932.3,898,933.3,896.8,933.3z M896.8,929.8c-0.8,0-1.4,0.6-1.4,1.4
				c0,0.8,0.6,1.4,1.4,1.4c0.8,0,1.4-0.6,1.4-1.4C898.2,930.4,897.6,929.8,896.8,929.8z"/>
		</g>
	</g>
	<g>
		<rect x="861.4" y="391.1" class="st0-dr5" width="74.3" height="212.8"/>
	</g>
	<g>
		<g>
			<path class="st0-dr5" d="M881.4,373.3c-2.9,0-5.4-1.8-5.7-4.5l1.7-0.4c0.3,1.9,1.8,3.3,4,3.3c2.2,0,4-1.2,4-3.1c0-1.9-1.4-3.1-4-3.1
				h-1.6v-1.6h1.6c2.3,0,3.7-1.4,3.7-3c0-1.7-1.3-2.9-3.7-2.9c-2.3,0-3.6,1.4-3.9,3.1l-1.7-0.4c0.3-2.3,2.5-4.3,5.5-4.3
				c3.6,0,5.4,2.2,5.4,4.4c0,1.9-1.1,3.1-2.6,3.8v0c1.9,0.5,3,2,3,4C887.1,371.1,884.8,373.3,881.4,373.3z"/>
		</g>
		<g>
			<path class="st0-dr5" d="M889.6,368.6c0-1.7,1.2-3.3,3.5-4c-2-0.6-3.1-2.4-3.1-3.8c0-2.9,3-4.4,5.4-4.4c2.5,0,5.4,1.5,5.4,4.4
				c0,1.6-1.1,3.2-3.1,3.8c2.3,0.7,3.5,2.3,3.5,4c0,3-2.9,4.7-5.8,4.7C892.6,373.3,889.6,371.8,889.6,368.6z M899.5,368.6
				c0-2.2-2.3-3.2-4.1-3.2c-1.7,0-4.1,1-4.1,3.2c0,2.2,2.3,3.2,4.1,3.2C897.2,371.8,899.5,370.8,899.5,368.6z M891.7,360.9
				c0,2.1,2.3,3,3.7,3s3.7-1,3.7-3c0-1.9-2.1-2.9-3.7-2.9C893.9,358,891.7,359,891.7,360.9z"/>
		</g>
		<g>
			<path class="st0-dr5" d="M905.1,365.6c-1.2,0-2.2-1-2.2-2.2c0-1.2,1-2.2,2.2-2.2c1.2,0,2.2,1,2.2,2.2
				C907.3,364.6,906.4,365.6,905.1,365.6z M905.1,362c-0.8,0-1.4,0.6-1.4,1.4c0,0.8,0.6,1.4,1.4,1.4s1.4-0.6,1.4-1.4
				C906.5,362.6,905.9,362,905.1,362z M910.5,361.3h1l-6.3,9.6h-1L910.5,361.3z M910.5,371c-1.2,0-2.2-1-2.2-2.2
				c0-1.2,1-2.2,2.2-2.2c1.2,0,2.2,1,2.2,2.2C912.7,370,911.7,371,910.5,371z M910.5,367.5c-0.8,0-1.4,0.6-1.4,1.4
				c0,0.8,0.6,1.4,1.4,1.4c0.8,0,1.4-0.6,1.4-1.4C911.9,368.1,911.2,367.5,910.5,367.5z"/>
		</g>
	</g>
	<g>
		<rect x="376.7" y="559.1" class="st0-dr5" width="74.3" height="44.8"/>
	</g>
	<g>
		<g>
			<path class="st0-dr5" d="M391.2,536.6c0-1.7,1.2-3.3,3.5-4c-2-0.6-3.1-2.4-3.1-3.8c0-2.9,3-4.4,5.4-4.4c2.5,0,5.4,1.5,5.4,4.4
				c0,1.6-1.1,3.2-3.1,3.8c2.3,0.7,3.5,2.3,3.5,4c0,3-2.9,4.7-5.8,4.7C394.1,541.3,391.2,539.8,391.2,536.6z M401,536.6
				c0-2.2-2.3-3.2-4.1-3.2c-1.7,0-4.1,1-4.1,3.2c0,2.2,2.3,3.2,4.1,3.2C398.7,539.8,401,538.8,401,536.6z M393.3,528.9
				c0,2.1,2.3,3,3.7,3s3.7-1,3.7-3c0-1.9-2.1-2.9-3.7-2.9C395.4,526,393.3,527,393.3,528.9z"/>
		</g>
		<g>
			<path class="st0-dr5" d="M406.7,533.6c-1.2,0-2.2-1-2.2-2.2c0-1.2,1-2.2,2.2-2.2c1.2,0,2.2,1,2.2,2.2
				C408.9,532.6,407.9,533.6,406.7,533.6z M406.7,530c-0.8,0-1.4,0.6-1.4,1.4c0,0.8,0.6,1.4,1.4,1.4s1.4-0.6,1.4-1.4
				C408.1,530.6,407.5,530,406.7,530z M412,529.3h1l-6.3,9.6h-1L412,529.3z M412.1,539c-1.2,0-2.2-1-2.2-2.2c0-1.2,1-2.2,2.2-2.2
				s2.2,1,2.2,2.2C414.2,538.1,413.3,539,412.1,539z M412.1,535.5c-0.8,0-1.4,0.6-1.4,1.4c0,0.8,0.6,1.4,1.4,1.4s1.4-0.6,1.4-1.4
				C413.4,536.1,412.8,535.5,412.1,535.5z"/>
		</g>
	</g>
	<g>
		<rect x="376.7" y="830.2" class="st0-dr5" width="74.3" height="168"/>
	</g>
	<g>
		<g>
			<path class="st0-dr5" d="M396.6,812.4c-2.9,0-5.4-1.8-5.7-4.5l1.7-0.4c0.3,1.9,1.8,3.3,4,3.3c2.2,0,4-1.2,4-3.1s-1.4-3.1-4-3.1H395
				V803h1.6c2.3,0,3.7-1.4,3.7-3c0-1.7-1.3-2.9-3.7-2.9c-2.3,0-3.6,1.4-3.9,3.1l-1.7-0.4c0.3-2.3,2.5-4.3,5.5-4.3
				c3.6,0,5.4,2.2,5.4,4.4c0,1.9-1.1,3.1-2.6,3.8v0c1.9,0.5,3,2,3,4C402.3,810.2,400.1,812.4,396.6,812.4z"/>
		</g>
		<g>
			<path class="st0-dr5" d="M404.8,804c0-4.1,2.3-8.5,6.9-8.5c4.5,0,6.8,4.3,6.8,8.4c0,4.1-2.3,8.5-6.9,8.5
				C407.1,812.4,404.8,808.1,404.8,804z M406.6,803.9c0,3,1.5,6.9,5.1,6.9c3.6,0,5.1-3.8,5.1-6.8c0-3-1.5-6.9-5.1-6.9
				C408.1,797.1,406.6,800.9,406.6,803.9z"/>
		</g>
		<g>
			<path class="st0-dr5" d="M422.5,804.6c-1.2,0-2.2-1-2.2-2.2c0-1.2,1-2.2,2.2-2.2c1.2,0,2.2,1,2.2,2.2
				C424.7,803.6,423.7,804.6,422.5,804.6z M422.5,801.1c-0.8,0-1.4,0.6-1.4,1.4c0,0.8,0.6,1.4,1.4,1.4s1.4-0.6,1.4-1.4
				C423.8,801.7,423.2,801.1,422.5,801.1z M427.8,800.4h1l-6.3,9.6h-1L427.8,800.4z M427.8,810.1c-1.2,0-2.2-1-2.2-2.2
				c0-1.2,1-2.2,2.2-2.2s2.2,1,2.2,2.2C430,809.1,429,810.1,427.8,810.1z M427.8,806.5c-0.8,0-1.4,0.6-1.4,1.4
				c0,0.8,0.6,1.4,1.4,1.4s1.4-0.6,1.4-1.4C429.2,807.2,428.6,806.5,427.8,806.5z"/>
		</g>
	</g>
</g>
<g id="greyCircleDR5">
	<g>
		<g>
			<path d="M430.2,246.7l-1.6,3.7H427l6.3-14.5h1.7l6.3,14.5h-1.6l-1.6-3.7H430.2z M430.8,245.4h6.7l-3.4-7.8L430.8,245.4z"/>
			<path d="M445.3,235.4v15.1h-1.5v-15.1H445.3z"/>
			<path d="M451,235.4v15.1h-1.5v-15.1H451z"/>
			<path d="M466.5,250.6c-1.9,0-3-0.9-3.8-2.2v2.1h-1.4v-15.1h1.4v7.3c0.8-1.3,2-2.3,3.8-2.3c2.8,0,4.6,2.5,4.6,5.1
				C471.1,248.1,469.3,250.6,466.5,250.6z M469.6,245.5c0-2.1-1.3-3.8-3.5-3.8c-2,0-3.5,1.8-3.5,3.8c0,2,1.4,3.8,3.5,3.8
				C468.4,249.3,469.6,247.6,469.6,245.5z"/>
			<path d="M475.9,246.3c0,1.8,0.9,3,2.7,3c1.7,0,2.9-1.4,2.9-3.1v-5.6h1.4v9.9h-1.4v-1.8c-0.8,1.4-1.9,2-3.4,2
				c-2.4,0-3.7-1.6-3.7-4v-6.1h1.4V246.3z"/>
			<path d="M490.2,250.6c-2.7,0-3.6-1.8-3.8-2.9l1.3-0.3c0.2,0.9,0.9,2,2.4,2c1.1,0,2.1-0.6,2.1-1.6c0-1.2-1.3-1.5-2.3-1.6
				c-1.6-0.2-3.3-0.8-3.3-2.8c0-1.8,1.7-2.9,3.3-2.9c2.6,0,3.4,1.7,3.6,2.7l-1.3,0.3c-0.2-0.7-0.7-1.7-2.3-1.7
				c-1.1,0-1.9,0.7-1.9,1.6c0,1.2,1.3,1.4,2.3,1.6c1.6,0.2,3.2,1.1,3.2,2.8C493.7,249.4,492.1,250.6,490.2,250.6z"/>
			<path d="M497.9,235.9c0.6,0,1.1,0.5,1.1,1.1c0,0.6-0.5,1.1-1.1,1.1c-0.6,0-1.1-0.5-1.1-1.1C496.9,236.4,497.3,235.9,497.9,235.9z
				 M498.7,240.6v9.9h-1.5v-9.9H498.7z"/>
			<path d="M510,244.7c0-1.8-0.9-3-2.7-3c-1.7,0-2.9,1.4-2.9,3.1v5.6h-1.4v-9.9h1.4v1.8c0.8-1.3,1.9-2,3.4-2c2.4,0,3.7,1.6,3.7,4
				v6.1H510V244.7z"/>
			<path d="M516.2,245.9c0.1,1.9,1.6,3.4,3.5,3.4c1.5,0,2.6-0.7,3.1-2.1l1.3,0.4c-0.6,1.9-2.4,3-4.3,3c-2.9,0-5-2.3-5-5.1
				c0-2.7,2-5.1,4.8-5.1c3.1,0,4.7,2.2,4.7,5.1c0,0.2,0,0.3,0,0.5H516.2z M522.8,244.7c-0.2-1.8-1.3-3.1-3.2-3.1
				c-1.7,0-3.1,1.4-3.3,3.1H522.8z"/>
			<path d="M530.6,250.6c-2.7,0-3.6-1.8-3.8-2.9l1.3-0.3c0.2,0.9,0.9,2,2.4,2c1.1,0,2.1-0.6,2.1-1.6c0-1.2-1.3-1.5-2.3-1.6
				c-1.6-0.2-3.3-0.8-3.3-2.8c0-1.8,1.7-2.9,3.3-2.9c2.6,0,3.4,1.7,3.6,2.7l-1.3,0.3c-0.2-0.7-0.7-1.7-2.3-1.7
				c-1.1,0-1.9,0.7-1.9,1.6c0,1.2,1.3,1.4,2.3,1.6c1.6,0.2,3.2,1.1,3.2,2.8C534.1,249.4,532.5,250.6,530.6,250.6z"/>
			<path d="M540.6,250.6c-2.7,0-3.6-1.8-3.8-2.9l1.3-0.3c0.2,0.9,0.9,2,2.4,2c1.1,0,2.1-0.6,2.1-1.6c0-1.2-1.3-1.5-2.3-1.6
				c-1.6-0.2-3.3-0.8-3.3-2.8c0-1.8,1.7-2.9,3.3-2.9c2.6,0,3.4,1.7,3.6,2.7l-1.3,0.3c-0.2-0.7-0.7-1.7-2.3-1.7
				c-1.1,0-1.9,0.7-1.9,1.6c0,1.2,1.3,1.4,2.3,1.6c1.6,0.2,3.2,1.1,3.2,2.8C544.1,249.4,542.5,250.6,540.6,250.6z"/>
			<path d="M556.7,250.6c-2.7,0-3.6-1.8-3.8-2.9l1.3-0.3c0.2,0.9,0.9,2,2.4,2c1.1,0,2.1-0.6,2.1-1.6c0-1.2-1.3-1.5-2.3-1.6
				c-1.6-0.2-3.3-0.8-3.3-2.8c0-1.8,1.7-2.9,3.3-2.9c2.6,0,3.4,1.7,3.6,2.7l-1.3,0.3c-0.2-0.7-0.7-1.7-2.3-1.7
				c-1.1,0-1.9,0.7-1.9,1.6c0,1.2,1.3,1.4,2.3,1.6c1.6,0.2,3.2,1.1,3.2,2.8C560.2,249.4,558.6,250.6,556.7,250.6z"/>
			<path d="M564.4,235.9c0.6,0,1.1,0.5,1.1,1.1c0,0.6-0.5,1.1-1.1,1.1c-0.6,0-1.1-0.5-1.1-1.1C563.4,236.4,563.8,235.9,564.4,235.9z
				 M565.2,240.6v9.9h-1.5v-9.9H565.2z"/>
			<path d="M576.4,250.4h-7.9v-1.2l6.2-7.4h-6v-1.2h7.7v1.2l-6.2,7.4h6.2V250.4z"/>
			<path d="M580.3,245.9c0.1,1.9,1.6,3.4,3.5,3.4c1.5,0,2.6-0.7,3.1-2.1l1.3,0.4c-0.6,1.9-2.4,3-4.3,3c-2.9,0-5-2.3-5-5.1
				c0-2.7,2-5.1,4.8-5.1c3.1,0,4.7,2.2,4.7,5.1c0,0.2,0,0.3,0,0.5H580.3z M586.9,244.7c-0.2-1.8-1.3-3.1-3.2-3.1
				c-1.7,0-3.1,1.4-3.3,3.1H586.9z"/>
			<path d="M594.8,250.6c-2.7,0-3.6-1.8-3.8-2.9l1.3-0.3c0.2,0.9,0.9,2,2.4,2c1.1,0,2.1-0.6,2.1-1.6c0-1.2-1.3-1.5-2.3-1.6
				c-1.6-0.2-3.3-0.8-3.3-2.8c0-1.8,1.7-2.9,3.3-2.9c2.6,0,3.4,1.7,3.6,2.7l-1.3,0.3c-0.2-0.7-0.7-1.7-2.3-1.7
				c-1.1,0-1.9,0.7-1.9,1.6c0,1.2,1.3,1.4,2.3,1.6c1.6,0.2,3.2,1.1,3.2,2.8C598.3,249.4,596.7,250.6,594.8,250.6z"/>
		</g>
	</g>
	<g>
		<circle class="st0-dr5" cx="394.3" cy="245.5" r="17.6"/>
	</g>
</g>
<g id="yellowCircleDR5">
	<circle class="st1-dr5" cx="394.3" cy="296.6" r="17.6"/>
	<g>
		<g>
			<path d="M427.9,297.6l1.4-0.4c0.3,1.7,1.9,3.1,3.7,3.1c1.6,0,3.3-0.9,3.3-2.6c0-1.7-1.5-2.4-2.6-2.6l-1.9-0.4
				c-0.6-0.1-1.7-0.5-2.4-1.2c-0.6-0.6-1-1.4-1-2.5c0-2.5,2.2-4.1,4.6-4.1c3.1,0,4.5,1.9,4.8,3.5l-1.4,0.4c-0.3-1-1.2-2.5-3.4-2.5
				c-1.6,0-3,1-3,2.6c0,1.1,0.6,2,2.1,2.3l1.8,0.4c1,0.2,2,0.5,2.8,1.3c1,0.9,1.2,2.1,1.2,2.7c0,2.6-2.1,4.3-4.8,4.3
				C430.2,301.7,428.1,299.6,427.9,297.6z"/>
			<path d="M448.1,295.7c0-1.6-0.8-3-2.6-3c-1.7,0-2.7,1.5-2.7,3.1v5.6h-1.4v-9.9h1.4v1.7c0.8-1.2,1.7-1.9,3.2-1.9
				c1.4,0,2.6,0.7,3.2,2c0.8-1.3,1.9-2,3.5-2c2.4,0,3.6,1.6,3.6,3.9v6.1h-1.4v-5.8c0-1.6-0.7-3-2.6-3c-1.7,0-2.7,1.4-2.7,3.1v5.7
				h-1.4V295.7z"/>
			<path d="M466.3,295.2c0-1.6-0.9-2.4-2.5-2.4c-1.7,0-2.4,1.1-2.6,2l-1.4-0.3c0.1-0.8,1.2-3,4-3c2.1,0,3.1,0.9,3.6,2
				c0.2,0.5,0.3,1.3,0.3,1.6v6.4h-1.4v-1.7h0c-0.8,1.2-1.8,1.9-3.3,1.9c-2,0-3.3-1.2-3.3-2.9v-0.1c0-2.1,2.1-2.8,3.9-2.8h2.7V295.2z
				 M463.5,297c-1.1,0-2.4,0.3-2.4,1.7c0,1.1,0.9,1.7,2.1,1.7c1.8,0,3.1-1.2,3.1-3.1V297H463.5z"/>
			<path d="M473.2,286.4v15.1h-1.5v-15.1H473.2z"/>
			<path d="M478.9,286.4v15.1h-1.5v-15.1H478.9z"/>
		</g>
	</g>
</g>
<g id="blackCircleDR5">
	<g class="st2-dr5">
		<circle class="st3-dr5" cx="638.2" cy="245.5" r="17.6"/>
	</g>
	<g>
		<g>
			<path d="M688,250.4h-1.5V238h0l-5.4,12.4h-1.4l-5.3-12.3v12.3h-1.5V236h2.1l5.4,12.4l5.4-12.4h2.2V250.4z"/>
			<path d="M693.3,245.9c0.1,1.9,1.6,3.4,3.5,3.4c1.5,0,2.6-0.7,3.1-2.1l1.3,0.4c-0.6,1.9-2.4,3-4.3,3c-2.9,0-5-2.3-5-5.1
				c0-2.7,2-5.1,4.8-5.1c3.1,0,4.7,2.2,4.7,5.1c0,0.2,0,0.3,0,0.5H693.3z M699.9,244.7c-0.2-1.8-1.3-3.1-3.2-3.1
				c-1.7,0-3.1,1.4-3.3,3.1H699.9z"/>
			<path d="M708.7,240.4c1.9,0,3,1.1,3.8,2.2v-7.2h1.4v15.1h-1.4v-2.1c-0.8,1.3-1.9,2.3-3.8,2.3c-2.8,0-4.6-2.4-4.6-5.1
				C704,242.9,705.9,240.4,708.7,240.4z M712.5,245.5c0-2-1.5-3.8-3.6-3.8c-2.2,0-3.5,1.7-3.5,3.8c0,2,1.3,3.8,3.5,3.8
				C711,249.3,712.5,247.5,712.5,245.5z"/>
			<path d="M718.8,235.9c0.6,0,1.1,0.5,1.1,1.1c0,0.6-0.5,1.1-1.1,1.1c-0.6,0-1.1-0.5-1.1-1.1C717.8,236.4,718.2,235.9,718.8,235.9z
				 M719.6,240.6v9.9h-1.5v-9.9H719.6z"/>
			<path d="M725.1,246.3c0,1.8,0.9,3,2.7,3c1.7,0,2.9-1.4,2.9-3.1v-5.6h1.4v9.9h-1.4v-1.8c-0.8,1.4-1.9,2-3.4,2
				c-2.4,0-3.7-1.6-3.7-4v-6.1h1.4V246.3z"/>
			<path d="M743.1,244.7c0-1.6-0.8-3-2.6-3c-1.7,0-2.7,1.5-2.7,3.1v5.6h-1.4v-9.9h1.4v1.7c0.8-1.2,1.7-1.9,3.2-1.9
				c1.4,0,2.6,0.7,3.2,2c0.8-1.3,1.9-2,3.5-2c2.4,0,3.6,1.6,3.6,3.9v6.1h-1.4v-5.8c0-1.6-0.7-3-2.6-3c-1.7,0-2.7,1.4-2.7,3.1v5.7
				h-1.4V244.7z"/>
		</g>
	</g>
</g>
<g id="greenCircleDR5">
	<g>
		<g>
			<path d="M674.4,287v13.1h6.9v1.4h-8.4V287H674.4z"/>
			<path d="M690.2,295.2c0-1.6-0.9-2.4-2.5-2.4c-1.7,0-2.4,1.1-2.6,2l-1.4-0.3c0.1-0.8,1.2-3,4-3c2.1,0,3.1,0.9,3.6,2
				c0.2,0.5,0.3,1.3,0.3,1.6v6.4h-1.4v-1.7h0c-0.8,1.2-1.8,1.9-3.3,1.9c-2,0-3.3-1.2-3.3-2.9v-0.1c0-2.1,2.1-2.8,3.9-2.8h2.7V295.2z
				 M687.4,297c-1.1,0-2.4,0.3-2.4,1.7c0,1.1,0.9,1.7,2.1,1.7c1.8,0,3.1-1.2,3.1-3.1V297H687.4z"/>
			<path d="M697.1,293.6c0.7-1.5,2.1-2.1,3.2-2.1c0.1,0,0.4,0,0.5,0v1.5c-0.2,0-0.4,0-0.6,0c-2.3,0-3.1,1.9-3.1,3.7v4.8h-1.4v-9.9
				h1.4V293.6z"/>
			<path d="M711,299.3c-0.8,1.3-2,2.2-3.8,2.2c-2.8,0-4.6-2.3-4.6-5c0-2.6,1.8-5,4.6-5c1.9,0,3.1,1.1,3.8,2.2v-2.1h1.4v9.9
				c0,3.2-2,4.9-5,4.9c-2.6,0-4.4-1.3-4.9-3.4l1.3-0.4c0.3,1.1,1.3,2.6,3.6,2.6c1.9,0,3.5-1,3.5-3.6V299.3z M711,296.5
				c0-1.9-1.5-3.8-3.6-3.8c-2.2,0-3.4,1.7-3.4,3.8c0,2,1.3,3.7,3.4,3.7C709.6,300.3,711,298.5,711,296.5z"/>
			<path d="M717.4,297c0.1,1.9,1.6,3.4,3.5,3.4c1.5,0,2.6-0.7,3.1-2.1l1.3,0.4c-0.6,1.9-2.4,3-4.3,3c-2.9,0-5-2.3-5-5.1
				c0-2.7,2-5.1,4.8-5.1c3.1,0,4.7,2.2,4.7,5.1c0,0.2,0,0.3,0,0.5H717.4z M723.9,295.8c-0.2-1.8-1.3-3.1-3.2-3.1
				c-1.7,0-3.1,1.4-3.3,3.1H723.9z"/>
		</g>
	</g>
	<g>
		<circle class="st4-dr5" cx="638.2" cy="296.6" r="17.6"/>
	</g>
</g>
<g id="Title">
	<g>
		<path d="M377.8,79.1c0-1.5,1.1-2.9,3-3.5c-1.8-0.5-2.7-2.1-2.7-3.3c0-2.5,2.6-3.8,4.7-3.8c2.2,0,4.7,1.3,4.7,3.8
			c0,1.4-1,2.8-2.7,3.3c2,0.6,3,2,3,3.5c0,2.7-2.6,4.1-5.1,4.1C380.4,83.2,377.8,81.8,377.8,79.1z M386.4,79.1c0-1.9-2-2.8-3.5-2.8
			c-1.5,0-3.5,0.9-3.5,2.8c0,2,2,2.8,3.5,2.8C384.4,81.8,386.4,81,386.4,79.1z M379.6,72.3c0,1.8,2,2.7,3.2,2.7
			c1.2,0,3.3-0.9,3.3-2.6c0-1.7-1.8-2.5-3.3-2.5C381.5,69.8,379.6,70.7,379.6,72.3z"/>
		<path d="M391.4,68.8h2.7l6.5,21.1h0.1l6.6-21.1h2.9l6.6,21.2h0.1l6.5-21.2h2.6l-7.8,24.8h-2.9l-6.6-21.3L402,93.6h-2.9L391.4,68.8
			z"/>
		<path d="M441.9,83.7c0-3-1.6-5.1-4.7-5.1c-2.9,0-5,2.3-5,5.4v9.6h-2.5V67.8h2.5v11.9c1.3-2.2,3.3-3.4,5.8-3.4
			c4.2,0,6.4,2.8,6.4,6.8v10.5h-2.5V83.7z"/>
		<path d="M459.9,82.7c0-2.7-1.5-4.1-4.3-4.1c-2.9,0-4.2,1.8-4.4,3.5l-2.4-0.5c0.1-1.4,2-5.1,6.9-5.1c3.6,0,5.4,1.6,6.2,3.5
			c0.4,0.9,0.5,2.3,0.5,2.8v10.9H460v-3h0c-1.3,2.1-3.2,3.3-5.7,3.3c-3.4,0-5.7-2.1-5.7-5v-0.2c0-3.7,3.7-4.9,6.7-4.9h4.7V82.7z
			 M455.2,85.9c-1.8,0-4.2,0.6-4.2,2.9c0,1.9,1.6,3,3.6,3c3,0,5.3-2.1,5.3-5.2v-0.6H455.2z"/>
		<path d="M468.7,89.2V78.9h-3.1v-2.2h3.1v-4.9h2.4v4.9h4.3v2.2h-4.3v10.3c0,1.5,0.9,2.4,2.8,2.4c0.5,0,1.1,0,1.5-0.1v2.1
			c-0.5,0.2-1.5,0.3-1.9,0.3C469.8,93.7,468.7,91.7,468.7,89.2z"/>
		<path d="M489.7,68.7c1,0,1.9,0.8,1.9,1.9c0,1-0.8,1.8-1.9,1.8c-1,0-1.8-0.8-1.8-1.8C487.9,69.6,488.7,68.7,489.7,68.7z M491,76.7
			v16.9h-2.5V76.7H491z"/>
		<path d="M501.7,93.9c-4.6,0-6.1-3.1-6.4-5l2.3-0.5c0.3,1.5,1.5,3.4,4.1,3.4c1.8,0,3.5-1,3.5-2.8c0-2.1-2.2-2.5-4-2.8
			c-2.8-0.4-5.6-1.4-5.6-4.7c0-3.2,2.9-5,5.7-5c4.5,0,5.9,3,6.2,4.6l-2.3,0.5c-0.3-1.1-1.2-3-3.9-3c-1.8,0-3.2,1.2-3.2,2.7
			c0,2.1,2.3,2.4,4,2.7c2.8,0.3,5.5,1.8,5.5,4.9C507.7,91.9,505,93.9,501.7,93.9z"/>
		<path d="M525.8,92.5l-7.7-15.8h2.9l6.2,13.1l5.9-13.1h2.7l-11.6,25.3h-2.7L525.8,92.5z"/>
		<path d="M537.2,85.2c0-5,3.8-8.8,8.8-8.8c4.9,0,8.7,3.8,8.7,8.7c0,5-3.8,8.8-8.8,8.8C541,93.9,537.2,90,537.2,85.2z M552.2,85.2
			c0-3.6-2.6-6.7-6.2-6.7c-3.7,0-6.2,3-6.2,6.5s2.5,6.6,6.2,6.6C549.6,91.7,552.2,88.7,552.2,85.2z"/>
		<path d="M561.3,86.5c0,3,1.6,5.1,4.7,5.1c2.9,0,5-2.3,5-5.3v-9.7h2.4v16.9h-2.4v-3.1c-1.3,2.3-3.3,3.4-5.8,3.4
			c-4.2,0-6.4-2.8-6.4-6.8V76.7h2.4V86.5z"/>
		<path d="M581.5,80c1.3-2.6,3.5-3.6,5.5-3.6c0.2,0,0.6,0,0.8,0v2.6c-0.3,0-0.6-0.1-1-0.1c-4,0-5.3,3.3-5.3,6.3v8.3h-2.5V76.7h2.4
			V80z"/>
		<path d="M625.6,93.6H623V72.3h0l-9.2,21.3h-2.3l-9.2-21.1v21.1h-2.6V68.8h3.7l9.3,21.3l9.2-21.3h3.7V93.6z"/>
		<path d="M642,82.7c0-2.7-1.5-4.1-4.3-4.1c-2.9,0-4.2,1.8-4.4,3.5l-2.4-0.5c0.1-1.4,2-5.1,6.9-5.1c3.6,0,5.4,1.6,6.2,3.5
			c0.4,0.9,0.5,2.3,0.5,2.8v10.9h-2.4v-3h0c-1.3,2.1-3.2,3.3-5.7,3.3c-3.4,0-5.7-2.1-5.7-5v-0.2c0-3.7,3.7-4.9,6.7-4.9h4.7V82.7z
			 M637.3,85.9c-1.8,0-4.2,0.6-4.2,2.9c0,1.9,1.6,3,3.6,3c3,0,5.3-2.1,5.3-5.2v-0.6H637.3z"/>
		<path d="M650.5,93.6h-2.9l6.7-8.6l-6.4-8.3h2.9l5,6.6l5-6.6h2.9l-6.4,8.3l6.7,8.6H661l-5.2-6.9L650.5,93.6z"/>
		<path d="M668.5,68.7c1,0,1.9,0.8,1.9,1.9c0,1-0.8,1.8-1.9,1.8c-1,0-1.8-0.8-1.8-1.8C666.7,69.6,667.5,68.7,668.5,68.7z
			 M669.8,76.7v16.9h-2.5V76.7H669.8z"/>
		<path d="M686.9,83.7c0-2.8-1.3-5.1-4.4-5.1c-2.9,0-4.7,2.6-4.7,5.4v9.6h-2.5V76.7h2.4v2.9c1.4-2.1,2.9-3.3,5.5-3.3
			c2.5,0,4.4,1.2,5.4,3.4c1.4-2.2,3.3-3.4,6-3.4c4.1,0,6.2,2.8,6.2,6.8v10.5h-2.5v-9.9c0-2.8-1.3-5.1-4.4-5.1c-3,0-4.7,2.4-4.7,5.2
			v9.7h-2.4V83.7z"/>
		<path d="M708.5,86.5c0,3,1.6,5.1,4.7,5.1c2.9,0,5-2.3,5-5.3v-9.7h2.4v16.9h-2.4v-3.1c-1.3,2.3-3.3,3.4-5.8,3.4
			c-4.2,0-6.4-2.8-6.4-6.8V76.7h2.4V86.5z"/>
		<path d="M737.9,83.7c0-2.8-1.3-5.1-4.4-5.1c-2.9,0-4.7,2.6-4.7,5.4v9.6h-2.5V76.7h2.4v2.9c1.4-2.1,2.9-3.3,5.5-3.3
			c2.5,0,4.4,1.2,5.4,3.4c1.4-2.2,3.3-3.4,6-3.4c4.1,0,6.2,2.8,6.2,6.8v10.5h-2.5v-9.9c0-2.8-1.3-5.1-4.4-5.1c-3,0-4.7,2.4-4.7,5.2
			v9.7h-2.4V83.7z"/>
		<path d="M771.1,93.6V71.2h-8.3v-2.4H782v2.4h-8.3v22.4H771.1z"/>
		<path d="M781,85.2c0-5,3.8-8.8,8.8-8.8c4.9,0,8.7,3.8,8.7,8.7c0,5-3.8,8.8-8.8,8.8C784.8,93.9,781,90,781,85.2z M796,85.2
			c0-3.6-2.6-6.7-6.2-6.7c-3.7,0-6.2,3-6.2,6.5s2.5,6.6,6.2,6.6C793.4,91.7,796,88.7,796,85.2z"/>
		<path d="M805.4,67.8v25.8h-2.5V67.8H805.4z"/>
		<path d="M812.2,85.9c0.2,3.3,2.8,5.8,6.1,5.8c2.5,0,4.4-1.2,5.2-3.6l2.2,0.7c-1,3.3-4.1,5.1-7.4,5.1c-4.9,0-8.6-3.9-8.6-8.8
			c0-4.6,3.5-8.7,8.2-8.7c5.2,0,8,3.7,8,8.7c0,0.3,0,0.6,0,0.8H812.2z M823.4,83.8c-0.3-3.1-2.3-5.3-5.5-5.3c-2.9,0-5.3,2.4-5.7,5.3
			H823.4z"/>
		<path d="M832.6,80c1.3-2.6,3.5-3.6,5.5-3.6c0.2,0,0.6,0,0.8,0v2.6c-0.3,0-0.6-0.1-1-0.1c-4,0-5.3,3.3-5.3,6.3v8.3h-2.5V76.7h2.4
			V80z"/>
		<path d="M852,82.7c0-2.7-1.5-4.1-4.3-4.1c-2.9,0-4.2,1.8-4.4,3.5l-2.4-0.5c0.1-1.4,2-5.1,6.9-5.1c3.6,0,5.4,1.6,6.2,3.5
			c0.4,0.9,0.5,2.3,0.5,2.8v10.9h-2.4v-3h0c-1.3,2.1-3.2,3.3-5.7,3.3c-3.4,0-5.7-2.1-5.7-5v-0.2c0-3.7,3.7-4.9,6.7-4.9h4.7V82.7z
			 M847.3,85.9c-1.8,0-4.2,0.6-4.2,2.9c0,1.9,1.6,3,3.6,3c3,0,5.3-2.1,5.3-5.2v-0.6H847.3z"/>
		<path d="M868.8,93.9c-3.2,0-5.2-1.6-6.6-3.8v3.6h-2.4V67.8h2.5v12.5c1.4-2.2,3.4-3.9,6.5-3.9c4.8,0,8,4.3,8,8.7
			C876.8,89.7,873.6,93.9,868.8,93.9z M874.2,85.2c0-3.5-2.2-6.6-5.9-6.6c-3.5,0-6.1,3.1-6.1,6.5c0,3.5,2.5,6.6,6.1,6.6
			C872.1,91.7,874.2,88.8,874.2,85.2z"/>
		<path d="M883.7,67.8v25.8h-2.5V67.8H883.7z"/>
		<path d="M890.5,85.9c0.2,3.3,2.8,5.8,6.1,5.8c2.5,0,4.4-1.2,5.2-3.6l2.2,0.7c-1,3.3-4.1,5.1-7.4,5.1c-4.9,0-8.6-3.9-8.6-8.8
			c0-4.6,3.5-8.7,8.2-8.7c5.2,0,8,3.7,8,8.7c0,0.3,0,0.6,0,0.8H890.5z M901.7,83.8c-0.3-3.1-2.3-5.3-5.5-5.3c-2.9,0-5.3,2.4-5.7,5.3
			H901.7z"/>
		<path d="M397.3,131.6h-2.6v-24.8h8.3c6.1,0,8.7,3.6,8.7,7.5c0,4.2-3.1,7.7-9.2,7.7h-5.3V131.6z M397.3,119.5h5.4
			c4.6,0,6.4-2.7,6.4-5.2c0-2.4-1.4-5.1-6.3-5.1h-5.5V119.5z"/>
		<path d="M416.3,123.9c0.2,3.3,2.8,5.8,6.1,5.8c2.5,0,4.4-1.2,5.2-3.6l2.2,0.7c-1,3.3-4.1,5.1-7.4,5.1c-4.9,0-8.6-3.9-8.6-8.8
			c0-4.6,3.5-8.7,8.2-8.7c5.2,0,8,3.7,8,8.7c0,0.3,0,0.6,0,0.8H416.3z M427.5,121.8c-0.3-3.1-2.3-5.3-5.5-5.3
			c-2.9,0-5.3,2.4-5.7,5.3H427.5z"/>
		<path d="M436.7,118.1c1.3-2.6,3.5-3.6,5.5-3.6c0.2,0,0.6,0,0.8,0v2.6c-0.3,0-0.6-0.1-1-0.1c-4,0-5.3,3.3-5.3,6.3v8.3h-2.5v-16.9
			h2.4V118.1z"/>
		<path d="M447.5,106.8c1,0,1.9,0.8,1.9,1.9c0,1-0.8,1.8-1.9,1.8c-1,0-1.8-0.8-1.8-1.8C445.7,107.6,446.5,106.8,447.5,106.8z
			 M448.8,114.7v16.9h-2.5v-16.9H448.8z"/>
		<path d="M453.1,123.2c0-5,3.8-8.8,8.8-8.8c4.9,0,8.7,3.8,8.7,8.7c0,5-3.8,8.8-8.8,8.8C456.9,131.9,453.1,128.1,453.1,123.2z
			 M468.1,123.2c0-3.6-2.6-6.7-6.2-6.7c-3.7,0-6.2,3-6.2,6.5s2.5,6.6,6.2,6.6C465.5,129.7,468.1,126.8,468.1,123.2z"/>
		<path d="M481.7,114.4c3.3,0,5.2,1.8,6.6,3.8v-12.4h2.4v25.8h-2.4V128c-1.3,2.2-3.3,3.9-6.6,3.9c-4.9,0-7.9-4.1-7.9-8.8
			C473.8,118.7,476.9,114.4,481.7,114.4z M488.3,123.1c0-3.4-2.6-6.5-6.1-6.5c-3.7,0-5.9,2.9-5.9,6.6c0,3.5,2.2,6.5,5.9,6.5
			C485.8,129.7,488.3,126.6,488.3,123.1z"/>
		<path d="M503.9,123.2c0-5,3.8-8.8,8.8-8.8c4.9,0,8.7,3.8,8.7,8.7c0,5-3.8,8.8-8.8,8.8C507.7,131.9,503.9,128.1,503.9,123.2z
			 M518.9,123.2c0-3.6-2.6-6.7-6.2-6.7s-6.2,3-6.2,6.5s2.5,6.6,6.2,6.6C516.3,129.7,518.9,126.8,518.9,123.2z"/>
		<path d="M529.1,111.5v3.2h4.4v2.2h-4.4v14.8h-2.5v-14.8h-3.2v-2.2h3.2v-3.1c0-3.9,2.2-5.8,5.2-5.8c0.4,0,1.2,0.1,1.9,0.3v2.1
			c-0.7-0.2-1.4-0.2-1.8-0.2C530.7,107.9,529.1,108.6,529.1,111.5z"/>
		<path d="M553.1,106.8c7.7,0,13.1,5.4,13.1,12.4c0,7.4-5.8,12.5-13.1,12.5h-7.4v-24.8H553.1z M553,129.2c6.3,0,10.5-4.2,10.5-10
			c0-5.7-4.1-10-10.5-10h-4.7v19.9H553z"/>
		<path d="M571.9,106.8c1,0,1.9,0.8,1.9,1.9c0,1-0.8,1.8-1.9,1.8c-1,0-1.8-0.8-1.8-1.8C570.1,107.6,570.9,106.8,571.9,106.8z
			 M573.2,114.7v16.9h-2.5v-16.9H573.2z"/>
		<path d="M583.9,131.9c-4.6,0-6.1-3.1-6.4-5l2.3-0.5c0.3,1.5,1.5,3.4,4.1,3.4c1.8,0,3.5-1,3.5-2.8c0-2.1-2.2-2.5-4-2.8
			c-2.8-0.4-5.6-1.4-5.6-4.7c0-3.2,2.9-5,5.7-5c4.5,0,5.9,3,6.2,4.6l-2.3,0.5c-0.3-1.1-1.2-3-3.9-3c-1.8,0-3.2,1.2-3.2,2.7
			c0,2.1,2.3,2.4,4,2.7c2.8,0.3,5.5,1.8,5.5,4.9C589.9,129.9,587.2,131.9,583.9,131.9z"/>
		<path d="M596.8,118.1c1.3-2.6,3.5-3.6,5.5-3.6c0.2,0,0.6,0,0.8,0v2.6c-0.3,0-0.6-0.1-1-0.1c-4,0-5.3,3.3-5.3,6.3v8.3h-2.5v-16.9
			h2.4V118.1z"/>
		<path d="M608.6,124.6c0,3,1.6,5.1,4.7,5.1c2.9,0,5-2.3,5-5.3v-9.7h2.4v16.9h-2.4v-3.1c-1.3,2.3-3.3,3.4-5.8,3.4
			c-4.2,0-6.4-2.8-6.4-6.8v-10.5h2.4V124.6z"/>
		<path d="M635.4,131.9c-3.1,0-5.2-1.6-6.5-3.7V140h-2.5v-25.3h2.4v3.7c1.4-2.1,3.4-4,6.6-4c4.8,0,8,4.3,8,8.7
			C643.4,127.7,640.2,131.9,635.4,131.9z M640.8,123.2c0-3.5-2.2-6.6-5.9-6.6c-3.5,0-6.1,3.1-6.1,6.5c0,3.5,2.5,6.6,6.1,6.6
			C638.6,129.7,640.8,126.8,640.8,123.2z"/>
		<path d="M648.6,127.3v-10.4h-3.1v-2.2h3.1v-4.9h2.4v4.9h4.3v2.2h-4.3v10.3c0,1.5,0.9,2.4,2.8,2.4c0.5,0,1.1,0,1.5-0.1v2.1
			c-0.5,0.2-1.5,0.3-1.9,0.3C649.7,131.8,648.6,129.7,648.6,127.3z"/>
		<path d="M660.8,106.8c1,0,1.9,0.8,1.9,1.9c0,1-0.8,1.8-1.9,1.8c-1,0-1.8-0.8-1.8-1.8C658.9,107.6,659.7,106.8,660.8,106.8z
			 M662,114.7v16.9h-2.5v-16.9H662z"/>
		<path d="M666.4,123.2c0-5,3.8-8.8,8.8-8.8c4.9,0,8.7,3.8,8.7,8.7c0,5-3.8,8.8-8.8,8.8C670.2,131.9,666.4,128.1,666.4,123.2z
			 M681.3,123.2c0-3.6-2.6-6.7-6.2-6.7s-6.2,3-6.2,6.5s2.5,6.6,6.2,6.6C678.8,129.7,681.3,126.8,681.3,123.2z"/>
		<path d="M700.4,121.8c0-3-1.6-5.1-4.7-5.1c-2.9,0-5,2.3-5,5.4v9.6h-2.5v-16.9h2.4v3.1c1.3-2.3,3.3-3.4,5.8-3.4
			c4.2,0,6.4,2.8,6.4,6.8v10.5h-2.5V121.8z"/>
		<path d="M711.6,124.4c0-0.2,0-0.4,0-0.6c0-2.9,1.8-4.4,3.2-5.8c1.4-1.5,3.1-2.9,3.1-5c0-2.1-1.4-4.1-4.6-4.1
			c-3.2,0-4.9,2.3-4.8,5.4l-2.5-0.1c0-0.3,0-0.5,0-0.7c0-4.1,3.4-7,7.3-7c4.4,0,7.3,3.1,7.3,6.5c0,2.5-1.5,4.1-3.7,6.3
			c-1.6,1.6-2.8,2.6-2.8,5.1H711.6z M712.8,131.9c1,0,1.8-0.8,1.8-1.9c0-1-0.8-1.8-1.8-1.8c-1,0-1.9,0.8-1.9,1.8
			C710.9,131.1,711.7,131.9,712.8,131.9z"/>
	</g>
</g>
<g id="yellowChartDR5">
	<rect x="450.9" y="553.5" class="st1-dr5" width="74.3" height="50.4"/>
	<g>
		<path class="st1-dr5" d="M475.5,527.3c-1.1,1.8-3.3,2.5-4.7,2.5c-3.5,0-5.5-2.6-5.5-5.3c0-3.8,2.9-5.7,5.9-5.7c1.8,0,3.9,1,4.9,2.8
			c0.8,1.4,1.1,2.8,1.1,4.7c0,5.4-2.6,9.4-7.7,9.4c-0.9,0-2.7-0.3-3.8-1l0.6-1.6c1.1,0.7,2.4,0.9,3.1,0.9
			C473.1,534,475.2,531.2,475.5,527.3z M473.9,527.3c0.8-0.7,1.3-1.8,1.3-2.9c0-2.5-2-3.9-4.1-3.9c-2.1,0-4.1,1.4-4.1,4
			c0,2,1.5,3.9,4,3.9C472.1,528.3,473.1,527.9,473.9,527.3z"/>
		<path class="st1-dr5" d="M481.1,527.9c-1.2,0-2.2-1-2.2-2.2c0-1.2,1-2.2,2.2-2.2c1.2,0,2.2,1,2.2,2.2
			C483.3,527,482.3,527.9,481.1,527.9z M481.1,524.4c-0.8,0-1.4,0.6-1.4,1.4c0,0.8,0.6,1.4,1.4,1.4s1.4-0.6,1.4-1.4
			C482.4,525,481.8,524.4,481.1,524.4z M486.4,523.7h1l-6.3,9.6h-1L486.4,523.7z M486.4,533.4c-1.2,0-2.2-1-2.2-2.2
			c0-1.2,1-2.2,2.2-2.2s2.2,1,2.2,2.2C488.6,532.4,487.6,533.4,486.4,533.4z M486.4,529.9c-0.8,0-1.4,0.6-1.4,1.4
			c0,0.8,0.6,1.4,1.4,1.4s1.4-0.6,1.4-1.4C487.8,530.5,487.2,529.9,486.4,529.9z"/>
	</g>
	<rect x="935.7" y="447.1" class="st1-dr5" width="74.3" height="156.8"/>
	<g>
		<path class="st1-dr5" d="M950,428.6c0-1.9,0.9-4,3.8-5.8l2.5-1.6c1.6-1,2.9-2,2.9-3.9c0-1.7-1.5-3.3-3.6-3.3c-1.8,0-3,1.1-3.4,2.1
			c-0.3,0.7-0.3,1.4-0.3,1.6l-1.7-0.3c0-2.3,2-5.1,5.5-5.1c3.1,0,5.4,2.3,5.4,4.9c0,2.3-1.3,3.7-3.5,5.1L955,424
			c-1.4,0.9-2.7,2-2.9,3.5h9.1v1.6H950V428.6z"/>
		<path class="st1-dr5" d="M963.7,424.6c0-1.7,1.2-3.3,3.5-4c-2.1-0.6-3.1-2.4-3.1-3.8c0-2.9,3-4.4,5.4-4.4c2.5,0,5.4,1.5,5.4,4.4
			c0,1.6-1.1,3.2-3.1,3.8c2.3,0.7,3.5,2.3,3.5,4c0,3-2.9,4.7-5.8,4.7C966.7,429.3,963.7,427.8,963.7,424.6z M973.5,424.6
			c0-2.2-2.3-3.2-4.1-3.2c-1.7,0-4.1,1-4.1,3.2c0,2.2,2.3,3.2,4.1,3.2C971.2,427.7,973.5,426.8,973.5,424.6z M965.8,416.9
			c0,2.1,2.3,3,3.7,3s3.7-1,3.7-3c0-1.9-2.1-2.9-3.7-2.9C967.9,414,965.8,415,965.8,416.9z"/>
		<path class="st1-dr5" d="M979.2,421.5c-1.2,0-2.2-1-2.2-2.2c0-1.2,1-2.2,2.2-2.2c1.2,0,2.2,1,2.2,2.2
			C981.4,420.6,980.4,421.5,979.2,421.5z M979.2,418c-0.8,0-1.4,0.6-1.4,1.4c0,0.8,0.6,1.4,1.4,1.4s1.4-0.6,1.4-1.4
			C980.6,418.6,980,418,979.2,418z M984.5,417.3h1l-6.3,9.6h-1L984.5,417.3z M984.6,427c-1.2,0-2.2-1-2.2-2.2c0-1.2,1-2.2,2.2-2.2
			c1.2,0,2.2,1,2.2,2.2C986.7,426,985.8,427,984.6,427z M984.6,423.5c-0.8,0-1.4,0.6-1.4,1.4c0,0.8,0.6,1.4,1.4,1.4
			c0.8,0,1.4-0.6,1.4-1.4C985.9,424.1,985.3,423.5,984.6,423.5z"/>
	</g>
	<rect x="935.7" y="914.2" class="st1-dr5" width="74.3" height="84"/>
	<g>
		<path class="st1-dr5" d="M953.9,881.5l-4,2.4l-0.8-1.3l4.8-2.9h1.7v16.5h-1.7V881.5z"/>
		<path class="st1-dr5" d="M962.2,881.3l-1,5.6c1-1,2.8-1.3,3.6-1.3c3.1,0,5.4,2.1,5.4,5.3c0,3.6-3,5.4-5.8,5.4c-2.7,0-5.3-1.8-5.7-4.5
			l1.7-0.4c0.3,1.9,1.9,3.3,4,3.3c1.6,0,4-1.1,4-3.8s-2-3.8-4-3.8c-1.2,0-2.6,0.6-3.5,1.7l-1.6-0.6l1.4-8.5h8.7v1.6H962.2z"/>
		<path class="st1-dr5" d="M974,888.6c-1.2,0-2.2-1-2.2-2.2c0-1.2,1-2.2,2.2-2.2c1.2,0,2.2,1,2.2,2.2C976.2,887.6,975.2,888.6,974,888.6
			z M974,885.1c-0.8,0-1.4,0.6-1.4,1.4c0,0.8,0.6,1.4,1.4,1.4s1.4-0.6,1.4-1.4C975.4,885.7,974.8,885.1,974,885.1z M979.3,884.4h1
			L974,894h-1L979.3,884.4z M979.4,894.1c-1.2,0-2.2-1-2.2-2.2c0-1.2,1-2.2,2.2-2.2c1.2,0,2.2,1,2.2,2.2
			C981.5,893.1,980.6,894.1,979.4,894.1z M979.4,890.5c-0.8,0-1.4,0.6-1.4,1.4c0,0.8,0.6,1.4,1.4,1.4c0.8,0,1.4-0.6,1.4-1.4
			C980.7,891.1,980.1,890.5,979.4,890.5z"/>
	</g>
	<rect x="450.9" y="813.4" class="st1-dr5" width="74.3" height="184.8"/>
	<g>
		<path class="st1-dr5" d="M470.9,795.5c-2.9,0-5.4-1.8-5.7-4.5l1.7-0.4c0.3,1.9,1.8,3.3,4,3.3c2.2,0,4-1.2,4-3.1s-1.4-3.1-4-3.1h-1.6
			v-1.6h1.6c2.3,0,3.7-1.4,3.7-3c0-1.7-1.3-2.9-3.7-2.9c-2.3,0-3.6,1.4-3.9,3.1l-1.7-0.4c0.3-2.3,2.5-4.3,5.5-4.3
			c3.6,0,5.4,2.2,5.4,4.4c0,1.9-1.1,3.1-2.6,3.8v0c1.9,0.5,3,2,3,4C476.6,793.4,474.3,795.5,470.9,795.5z"/>
		<path class="st1-dr5" d="M484.6,795.5c-2.9,0-5.4-1.8-5.7-4.5l1.7-0.4c0.3,1.9,1.8,3.3,4,3.3c2.2,0,4-1.2,4-3.1s-1.4-3.1-4-3.1h-1.6
			v-1.6h1.6c2.3,0,3.7-1.4,3.7-3c0-1.7-1.3-2.9-3.7-2.9c-2.3,0-3.6,1.4-3.9,3.1L479,783c0.3-2.3,2.5-4.3,5.5-4.3
			c3.6,0,5.4,2.2,5.4,4.4c0,1.9-1.1,3.1-2.6,3.8v0c1.9,0.5,3,2,3,4C490.3,793.4,488,795.5,484.6,795.5z"/>
		<path class="st1-dr5" d="M494.2,787.8c-1.2,0-2.2-1-2.2-2.2c0-1.2,1-2.2,2.2-2.2c1.2,0,2.2,1,2.2,2.2
			C496.4,786.8,495.4,787.8,494.2,787.8z M494.2,784.3c-0.8,0-1.4,0.6-1.4,1.4c0,0.8,0.6,1.4,1.4,1.4s1.4-0.6,1.4-1.4
			C495.5,784.9,494.9,784.3,494.2,784.3z M499.5,783.6h1l-6.3,9.6h-1L499.5,783.6z M499.5,793.3c-1.2,0-2.2-1-2.2-2.2
			c0-1.2,1-2.2,2.2-2.2s2.2,1,2.2,2.2C501.7,792.3,500.7,793.3,499.5,793.3z M499.5,789.7c-0.8,0-1.4,0.6-1.4,1.4
			c0,0.8,0.6,1.4,1.4,1.4s1.4-0.6,1.4-1.4C500.9,790.3,500.3,789.7,499.5,789.7z"/>
	</g>
</g>
<g id="blackChartDR5">
	<g class="st2-dr5">
		<path class="st3-dr5" d="M539.8,536.6c0-1.7,1.2-3.3,3.5-4c-2-0.6-3.1-2.4-3.1-3.8c0-2.9,3-4.4,5.4-4.4c2.5,0,5.4,1.5,5.4,4.4
			c0,1.6-1.1,3.2-3.1,3.8c2.3,0.7,3.5,2.3,3.5,4c0,3-2.9,4.7-5.8,4.7C542.7,541.3,539.8,539.8,539.8,536.6z M549.6,536.6
			c0-2.2-2.3-3.2-4.1-3.2c-1.7,0-4.1,1-4.1,3.2c0,2.2,2.3,3.2,4.1,3.2C547.3,539.8,549.6,538.8,549.6,536.6z M541.9,528.9
			c0,2.1,2.3,3,3.7,3s3.7-1,3.7-3c0-1.9-2.1-2.9-3.7-2.9C544,526,541.9,527,541.9,528.9z"/>
		<path class="st3-dr5" d="M555.3,533.6c-1.2,0-2.2-1-2.2-2.2c0-1.2,1-2.2,2.2-2.2c1.2,0,2.2,1,2.2,2.2
			C557.5,532.6,556.5,533.6,555.3,533.6z M555.3,530c-0.8,0-1.4,0.6-1.4,1.4c0,0.8,0.6,1.4,1.4,1.4s1.4-0.6,1.4-1.4
			C556.7,530.6,556.1,530,555.3,530z M560.6,529.3h1l-6.3,9.6h-1L560.6,529.3z M560.6,539c-1.2,0-2.2-1-2.2-2.2c0-1.2,1-2.2,2.2-2.2
			s2.2,1,2.2,2.2C562.8,538.1,561.9,539,560.6,539z M560.6,535.5c-0.8,0-1.4,0.6-1.4,1.4c0,0.8,0.6,1.4,1.4,1.4s1.4-0.6,1.4-1.4
			C562,536.1,561.4,535.5,560.6,535.5z"/>
	</g>
	<g class="st2-dr5">
		<rect x="525.3" y="559.1" class="st3-dr5" width="74.3" height="44.8"/>
	</g>
	<g class="st2-dr5">
		<rect x="1010" y="307.1" class="st3-dr5" width="74.3" height="296.8"/>
	</g>
	<g class="st2-dr5">
		<path class="st3-dr5" d="M1027.5,274.2l-1,5.6c1-1,2.8-1.3,3.6-1.3c3.1,0,5.4,2,5.4,5.3c0,3.6-3,5.4-5.8,5.4c-2.7,0-5.3-1.8-5.7-4.5
			l1.7-0.4c0.3,1.9,1.9,3.3,4,3.3c1.6,0,4-1.1,4-3.8s-2-3.8-4-3.8c-1.2,0-2.6,0.6-3.5,1.7l-1.6-0.6l1.4-8.5h8.7v1.6H1027.5z"/>
		<path class="st3-dr5" d="M1043.4,289.3c-2.9,0-5.4-1.8-5.7-4.5l1.7-0.4c0.3,1.9,1.8,3.3,4,3.3c2.2,0,4-1.2,4-3.1s-1.4-3.1-4-3.1h-1.6
			v-1.6h1.6c2.3,0,3.7-1.4,3.7-3c0-1.7-1.3-2.9-3.7-2.9c-2.3,0-3.6,1.4-3.9,3.1l-1.7-0.4c0.3-2.3,2.5-4.3,5.5-4.3
			c3.6,0,5.4,2.2,5.4,4.4c0,1.9-1.1,3.1-2.6,3.8v0c1.9,0.5,3,2,3,4C1049.1,287.1,1046.8,289.3,1043.4,289.3z"/>
		<path class="st3-dr5" d="M1053,281.5c-1.2,0-2.2-1-2.2-2.2c0-1.2,1-2.2,2.2-2.2c1.2,0,2.2,1,2.2,2.2
			C1055.2,280.6,1054.2,281.5,1053,281.5z M1053,278c-0.8,0-1.4,0.6-1.4,1.4c0,0.8,0.6,1.4,1.4,1.4s1.4-0.6,1.4-1.4
			C1054.4,278.6,1053.8,278,1053,278z M1058.3,277.3h1l-6.3,9.6h-1L1058.3,277.3z M1058.3,287c-1.2,0-2.2-1-2.2-2.2
			c0-1.2,1-2.2,2.2-2.2c1.2,0,2.2,1,2.2,2.2C1060.5,286,1059.6,287,1058.3,287z M1058.3,283.5c-0.8,0-1.4,0.6-1.4,1.4
			c0,0.8,0.6,1.4,1.4,1.4c0.8,0,1.4-0.6,1.4-1.4C1059.7,284.1,1059.1,283.5,1058.3,283.5z"/>
	</g>
	<g class="st2-dr5">
		<rect x="1010" y="970.2" class="st3-dr5" width="74.3" height="28"/>
	</g>
	<g class="st2-dr5">
		<path class="st3-dr5" d="M1027.5,937.3l-1,5.6c1-1,2.8-1.3,3.6-1.3c3.1,0,5.4,2.1,5.4,5.3c0,3.6-3,5.4-5.8,5.4c-2.7,0-5.3-1.8-5.7-4.5
			l1.7-0.4c0.3,1.9,1.9,3.3,4,3.3c1.6,0,4-1.1,4-3.8s-2-3.8-4-3.8c-1.2,0-2.6,0.6-3.5,1.7l-1.6-0.6l1.4-8.5h8.7v1.6H1027.5z"/>
		<path class="st3-dr5" d="M1039.3,944.6c-1.2,0-2.2-1-2.2-2.2c0-1.2,1-2.2,2.2-2.2c1.2,0,2.2,1,2.2,2.2
			C1041.5,943.7,1040.5,944.6,1039.3,944.6z M1039.3,941.1c-0.8,0-1.4,0.6-1.4,1.4c0,0.8,0.6,1.4,1.4,1.4s1.4-0.6,1.4-1.4
			C1040.7,941.7,1040.1,941.1,1039.3,941.1z M1044.6,940.4h1l-6.3,9.6h-1L1044.6,940.4z M1044.7,950.1c-1.2,0-2.2-1-2.2-2.2
			c0-1.2,1-2.2,2.2-2.2c1.2,0,2.2,1,2.2,2.2C1046.8,949.1,1045.9,950.1,1044.7,950.1z M1044.7,946.6c-0.8,0-1.4,0.6-1.4,1.4
			c0,0.8,0.6,1.4,1.4,1.4c0.8,0,1.4-0.6,1.4-1.4C1046,947.2,1045.4,946.6,1044.7,946.6z"/>
	</g>
	<g class="st2-dr5">
		<rect x="525.3" y="875" class="st3-dr5" width="74.3" height="123.2"/>
	</g>
	<g class="st2-dr5">
		<path class="st3-dr5" d="M539.6,856.5c0-1.9,0.9-4,3.8-5.8l2.5-1.6c1.6-1,2.9-2,2.9-3.9c0-1.7-1.5-3.3-3.6-3.3c-1.8,0-3,1.1-3.4,2.1
			c-0.3,0.7-0.3,1.4-0.3,1.6l-1.7-0.3c0-2.3,2-5.1,5.5-5.1c3.1,0,5.4,2.3,5.4,4.9c0,2.3-1.3,3.7-3.5,5.1l-2.6,1.6
			c-1.4,0.9-2.7,2-2.9,3.5h9.1v1.6h-11.2V856.5z"/>
		<path class="st3-dr5" d="M553.2,856.5c0-1.9,0.9-4,3.8-5.8l2.5-1.6c1.6-1,2.9-2,2.9-3.9c0-1.7-1.5-3.3-3.6-3.3c-1.8,0-3,1.1-3.4,2.1
			c-0.3,0.7-0.3,1.4-0.3,1.6l-1.7-0.3c0-2.3,2-5.1,5.5-5.1c3.1,0,5.4,2.3,5.4,4.9c0,2.3-1.3,3.7-3.5,5.1l-2.6,1.6
			c-1.4,0.9-2.7,2-2.9,3.5h9.1v1.6h-11.2V856.5z"/>
		<path class="st3-dr5" d="M568.2,849.4c-1.2,0-2.2-1-2.2-2.2c0-1.2,1-2.2,2.2-2.2c1.2,0,2.2,1,2.2,2.2
			C570.4,848.4,569.4,849.4,568.2,849.4z M568.2,845.9c-0.8,0-1.4,0.6-1.4,1.4c0,0.8,0.6,1.4,1.4,1.4s1.4-0.6,1.4-1.4
			C569.6,846.5,568.9,845.9,568.2,845.9z M573.5,845.2h1l-6.3,9.6h-1L573.5,845.2z M573.5,854.9c-1.2,0-2.2-1-2.2-2.2
			c0-1.2,1-2.2,2.2-2.2s2.2,1,2.2,2.2C575.7,853.9,574.7,854.9,573.5,854.9z M573.5,851.4c-0.8,0-1.4,0.6-1.4,1.4
			c0,0.8,0.6,1.4,1.4,1.4s1.4-0.6,1.4-1.4C574.9,852,574.3,851.4,573.5,851.4z"/>
	</g>
</g>
<g id="chartTitles">
	<g>
		<g>
			<path d="M343.4,600.4h13.1v-6.9h1.4v8.4h-14.5V600.4z"/>
			<path d="M353.4,589.7c1.9-0.1,3.4-1.6,3.4-3.5c0-1.5-0.7-2.6-2.1-3.1l0.4-1.3c1.9,0.6,3,2.4,3,4.3c0,2.9-2.3,5-5.1,5
				c-2.7,0-5.1-2-5.1-4.8c0-3.1,2.2-4.7,5.1-4.7c0.2,0,0.3,0,0.5,0V589.7z M352.2,583.2c-1.8,0.2-3.1,1.3-3.1,3.2
				c0,1.7,1.4,3.1,3.1,3.3V583.2z"/>
			<path d="M358.1,574.9c0,2.7-1.8,3.6-2.9,3.8l-0.3-1.3c0.9-0.2,2-0.9,2-2.4c0-1.1-0.6-2.1-1.6-2.1c-1.2,0-1.5,1.3-1.6,2.3
				c-0.2,1.6-0.8,3.3-2.8,3.3c-1.8,0-2.9-1.7-2.9-3.3c0-2.6,1.7-3.4,2.7-3.6l0.3,1.3c-0.7,0.2-1.7,0.7-1.7,2.3
				c0,1.1,0.7,1.9,1.6,1.9c1.2,0,1.4-1.3,1.6-2.3c0.2-1.6,1.1-3.2,2.8-3.2C356.9,571.4,358.1,573,358.1,574.9z"/>
			<path d="M358.1,564.5c0,2.7-1.8,3.6-2.9,3.8l-0.3-1.3c0.9-0.2,2-0.9,2-2.4c0-1.1-0.6-2.1-1.6-2.1c-1.2,0-1.5,1.3-1.6,2.3
				c-0.2,1.6-0.8,3.3-2.8,3.3c-1.8,0-2.9-1.7-2.9-3.3c0-2.6,1.7-3.4,2.7-3.6l0.3,1.3c-0.7,0.2-1.7,0.7-1.7,2.3
				c0,1.1,0.7,1.9,1.6,1.9c1.2,0,1.4-1.3,1.6-2.3c0.2-1.6,1.1-3.2,2.8-3.2C356.9,561.1,358.1,562.6,358.1,564.5z"/>
			<path d="M355.4,550.1h-6v1.8H348v-1.8h-2.8v-1.4h2.8v-2.5h1.3v2.5h6c0.9,0,1.4-0.5,1.4-1.6c0-0.3,0-0.7-0.1-0.9h1.2
				c0.1,0.3,0.1,0.9,0.1,1.1C358,549.4,356.8,550.1,355.4,550.1z"/>
			<path d="M352.2,535.3c-1.8,0-3,0.9-3,2.7c0,1.7,1.4,2.9,3.1,2.9h5.6v1.4h-15.1V541h7c-1.3-0.8-2-1.9-2-3.4c0-2.4,1.6-3.7,4-3.7
				h6.1v1.4H352.2z"/>
			<path d="M351.6,523.5c-1.6,0-2.4,0.9-2.4,2.5c0,1.7,1.1,2.4,2,2.6l-0.3,1.4c-0.8-0.1-3-1.2-3-4c0-2.1,0.9-3.1,2-3.6
				c0.5-0.2,1.3-0.3,1.6-0.3h6.4v1.4h-1.7v0c1.2,0.8,1.9,1.8,1.9,3.3c0,2-1.2,3.3-2.9,3.3h-0.1c-2.1,0-2.8-2.1-2.8-3.9v-2.7H351.6z
				 M353.4,526.2c0,1.1,0.3,2.4,1.7,2.4c1.1,0,1.7-0.9,1.7-2.1c0-1.8-1.2-3.1-3.1-3.1h-0.4V526.2z"/>
			<path d="M352.2,510.5c-1.8,0-3,0.9-3,2.7c0,1.7,1.4,2.9,3.1,2.9h5.6v1.4H348v-1.4h1.8c-1.3-0.8-2-1.9-2-3.4c0-2.4,1.6-3.7,4-3.7
				h6.1v1.4H352.2z"/>
			<path d="M345,495.4l2.1,3.5l-1.1,0.7l-2.5-4.2v-1.5h14.5v1.5H345z"/>
			<path d="M352.2,475.4c-1.8,0-3,0.9-3,2.7c0,1.7,1.4,2.9,3.1,2.9h5.6v1.4h-15.1v-1.4h7c-1.3-0.8-2-1.9-2-3.4c0-2.4,1.6-3.7,4-3.7
				h6.1v1.4H352.2z"/>
			<path d="M353,470.3c-2.9,0-5.1-2.2-5.1-5.1c0-2.8,2.2-5.1,5.1-5.1c2.9,0,5.1,2.2,5.1,5.1C358.1,468,355.8,470.3,353,470.3z
				 M353,461.5c-2.1,0-3.9,1.5-3.9,3.6c0,2.1,1.7,3.6,3.8,3.6s3.9-1.5,3.9-3.6C356.8,463,355.1,461.5,353,461.5z"/>
			<path d="M353.8,454.9c1.8,0,3-0.9,3-2.7c0-1.7-1.4-2.9-3.1-2.9H348v-1.4h9.9v1.4h-1.8c1.4,0.8,2,1.9,2,3.4c0,2.4-1.6,3.7-4,3.7
				H348v-1.4H353.8z"/>
			<path d="M350,441.8c-1.5-0.7-2.1-2.1-2.1-3.2c0-0.1,0-0.4,0-0.5h1.5c0,0.2,0,0.4,0,0.6c0,2.3,1.9,3.1,3.7,3.1h4.8v1.4H348v-1.4
				H350z"/>
		</g>
	</g>
	<g>
		<g>
			<path d="M828.2,600.4h13.1v-6.9h1.4v8.4h-14.5V600.4z"/>
			<path d="M838.2,589.7c1.9-0.1,3.4-1.6,3.4-3.5c0-1.5-0.7-2.6-2.1-3.1l0.4-1.3c1.9,0.6,3,2.4,3,4.3c0,2.9-2.3,5-5.1,5
				c-2.7,0-5.1-2-5.1-4.8c0-3.1,2.2-4.7,5.1-4.7c0.2,0,0.3,0,0.5,0V589.7z M836.9,583.2c-1.8,0.2-3.1,1.3-3.1,3.2
				c0,1.7,1.4,3.1,3.1,3.3V583.2z"/>
			<path d="M842.8,574.9c0,2.7-1.8,3.6-2.9,3.8l-0.3-1.3c0.9-0.2,2-0.9,2-2.4c0-1.1-0.6-2.1-1.6-2.1c-1.2,0-1.5,1.3-1.6,2.3
				c-0.2,1.6-0.8,3.3-2.8,3.3c-1.8,0-2.9-1.7-2.9-3.3c0-2.6,1.7-3.4,2.7-3.6l0.3,1.3c-0.7,0.2-1.7,0.7-1.7,2.3
				c0,1.1,0.7,1.9,1.6,1.9c1.2,0,1.4-1.3,1.6-2.3c0.2-1.6,1.1-3.2,2.8-3.2C841.7,571.4,842.8,573,842.8,574.9z"/>
			<path d="M842.8,564.5c0,2.7-1.8,3.6-2.9,3.8l-0.3-1.3c0.9-0.2,2-0.9,2-2.4c0-1.1-0.6-2.1-1.6-2.1c-1.2,0-1.5,1.3-1.6,2.3
				c-0.2,1.6-0.8,3.3-2.8,3.3c-1.8,0-2.9-1.7-2.9-3.3c0-2.6,1.7-3.4,2.7-3.6l0.3,1.3c-0.7,0.2-1.7,0.7-1.7,2.3
				c0,1.1,0.7,1.9,1.6,1.9c1.2,0,1.4-1.3,1.6-2.3c0.2-1.6,1.1-3.2,2.8-3.2C841.7,561.1,842.8,562.6,842.8,564.5z"/>
			<path d="M840.1,550.1h-6v1.8h-1.3v-1.8h-2.8v-1.4h2.8v-2.5h1.3v2.5h6c0.9,0,1.4-0.5,1.4-1.6c0-0.3,0-0.7-0.1-0.9h1.2
				c0.1,0.3,0.1,0.9,0.1,1.1C842.7,549.4,841.6,550.1,840.1,550.1z"/>
			<path d="M836.9,535.3c-1.8,0-3,0.9-3,2.7c0,1.7,1.4,2.9,3.1,2.9h5.6v1.4h-15.1V541h7c-1.3-0.8-2-1.9-2-3.4c0-2.4,1.6-3.7,4-3.7
				h6.1v1.4H836.9z"/>
			<path d="M836.3,523.5c-1.6,0-2.4,0.9-2.4,2.5c0,1.7,1.1,2.4,2,2.6l-0.3,1.4c-0.8-0.1-3-1.2-3-4c0-2.1,0.9-3.1,2-3.6
				c0.5-0.2,1.3-0.3,1.6-0.3h6.4v1.4h-1.7v0c1.2,0.8,1.9,1.8,1.9,3.3c0,2-1.2,3.3-2.9,3.3h-0.1c-2.1,0-2.8-2.1-2.8-3.9v-2.7H836.3z
				 M838.2,526.2c0,1.1,0.3,2.4,1.7,2.4c1.1,0,1.7-0.9,1.7-2.1c0-1.8-1.2-3.1-3.1-3.1h-0.4V526.2z"/>
			<path d="M836.9,510.5c-1.8,0-3,0.9-3,2.7c0,1.7,1.4,2.9,3.1,2.9h5.6v1.4h-9.9v-1.4h1.8c-1.3-0.8-2-1.9-2-3.4c0-2.4,1.6-3.7,4-3.7
				h6.1v1.4H836.9z"/>
			<path d="M829.8,495.4l2.1,3.5l-1.1,0.7l-2.5-4.2v-1.5h14.5v1.5H829.8z"/>
			<path d="M832.6,478.6c0-1.9,1.1-3,2.2-3.8h-7.2v-1.4h15.1v1.4h-2.1c1.3,0.8,2.3,1.9,2.3,3.8c0,2.8-2.4,4.6-5.1,4.6
				C835.1,483.2,832.6,481.4,832.6,478.6z M837.7,474.8c-2,0-3.8,1.5-3.8,3.6c0,2.2,1.7,3.5,3.8,3.5c2,0,3.8-1.3,3.8-3.5
				C841.5,476.2,839.7,474.8,837.7,474.8z"/>
			<path d="M836.3,462.8c-1.6,0-2.4,0.9-2.4,2.5c0,1.7,1.1,2.4,2,2.6l-0.3,1.4c-0.8-0.1-3-1.2-3-4c0-2.1,0.9-3.1,2-3.6
				c0.5-0.2,1.3-0.3,1.6-0.3h6.4v1.4h-1.7v0c1.2,0.8,1.9,1.8,1.9,3.3c0,2-1.2,3.3-2.9,3.3h-0.1c-2.1,0-2.8-2.1-2.8-3.9v-2.7H836.3z
				 M838.2,465.6c0,1.1,0.3,2.4,1.7,2.4c1.1,0,1.7-0.9,1.7-2.1c0-1.8-1.2-3.1-3.1-3.1h-0.4V465.6z"/>
			<path d="M842,454l-9.2,4.5v-1.7l7.6-3.6l-7.6-3.4v-1.6l14.7,6.8v1.6L842,454z"/>
		</g>
	</g>
	<g>
		<g>
			<path d="M828.2,994.7h13.1v-6.9h1.4v8.4h-14.5V994.7z"/>
			<path d="M838.2,984c1.9-0.1,3.4-1.6,3.4-3.5c0-1.5-0.7-2.6-2.1-3.1l0.4-1.3c1.9,0.6,3,2.4,3,4.3c0,2.9-2.3,5-5.1,5
				c-2.7,0-5.1-2-5.1-4.8c0-3.1,2.2-4.7,5.1-4.7c0.2,0,0.3,0,0.5,0V984z M836.9,977.4c-1.8,0.2-3.1,1.3-3.1,3.2
				c0,1.7,1.4,3.1,3.1,3.3V977.4z"/>
			<path d="M842.8,969.2c0,2.7-1.8,3.6-2.9,3.8l-0.3-1.3c0.9-0.2,2-0.9,2-2.4c0-1.1-0.6-2.1-1.6-2.1c-1.2,0-1.5,1.3-1.6,2.3
				c-0.2,1.6-0.8,3.3-2.8,3.3c-1.8,0-2.9-1.7-2.9-3.3c0-2.6,1.7-3.4,2.7-3.6l0.3,1.3c-0.7,0.2-1.7,0.7-1.7,2.3
				c0,1.1,0.7,1.9,1.6,1.9c1.2,0,1.4-1.3,1.6-2.3c0.2-1.6,1.1-3.2,2.8-3.2C841.7,965.7,842.8,967.3,842.8,969.2z"/>
			<path d="M842.8,958.8c0,2.7-1.8,3.6-2.9,3.8l-0.3-1.3c0.9-0.2,2-0.9,2-2.4c0-1.1-0.6-2.1-1.6-2.1c-1.2,0-1.5,1.3-1.6,2.3
				c-0.2,1.6-0.8,3.3-2.8,3.3c-1.8,0-2.9-1.7-2.9-3.3c0-2.6,1.7-3.4,2.7-3.6l0.3,1.3c-0.7,0.2-1.7,0.7-1.7,2.3
				c0,1.1,0.7,1.9,1.6,1.9c1.2,0,1.4-1.3,1.6-2.3c0.2-1.6,1.1-3.2,2.8-3.2C841.7,955.3,842.8,956.9,842.8,958.8z"/>
			<path d="M840.1,944.3h-6v1.8h-1.3v-1.8h-2.8v-1.4h2.8v-2.5h1.3v2.5h6c0.9,0,1.4-0.5,1.4-1.6c0-0.3,0-0.7-0.1-0.9h1.2
				c0.1,0.3,0.1,0.9,0.1,1.1C842.7,943.7,841.6,944.3,840.1,944.3z"/>
			<path d="M836.9,929.6c-1.8,0-3,0.9-3,2.7c0,1.7,1.4,2.9,3.1,2.9h5.6v1.4h-15.1v-1.4h7c-1.3-0.8-2-1.9-2-3.4c0-2.4,1.6-3.7,4-3.7
				h6.1v1.4H836.9z"/>
			<path d="M836.3,917.8c-1.6,0-2.4,0.9-2.4,2.5c0,1.7,1.1,2.4,2,2.6l-0.3,1.4c-0.8-0.1-3-1.2-3-4c0-2.1,0.9-3.1,2-3.6
				c0.5-0.2,1.3-0.3,1.6-0.3h6.4v1.4h-1.7v0c1.2,0.8,1.9,1.8,1.9,3.3c0,2-1.2,3.3-2.9,3.3h-0.1c-2.1,0-2.8-2.1-2.8-3.9v-2.7H836.3z
				 M838.2,920.5c0,1.1,0.3,2.4,1.7,2.4c1.1,0,1.7-0.9,1.7-2.1c0-1.8-1.2-3.1-3.1-3.1h-0.4V920.5z"/>
			<path d="M836.9,904.8c-1.8,0-3,0.9-3,2.7c0,1.7,1.4,2.9,3.1,2.9h5.6v1.4h-9.9v-1.4h1.8c-1.3-0.8-2-1.9-2-3.4c0-2.4,1.6-3.7,4-3.7
				h6.1v1.4H836.9z"/>
			<path d="M829.8,889.7l2.1,3.5l-1.1,0.7l-2.5-4.2v-1.5h14.5v1.5H829.8z"/>
			<path d="M836.9,870.1c-1.6,0-3,0.8-3,2.6c0,1.7,1.5,2.7,3.1,2.7h5.6v1.4h-9.9v-1.4h1.7c-1.2-0.8-1.9-1.7-1.9-3.2
				c0-1.4,0.7-2.6,2-3.2c-1.3-0.8-2-1.9-2-3.5c0-2.4,1.6-3.6,3.9-3.6h6.1v1.4h-5.8c-1.6,0-3,0.7-3,2.6c0,1.7,1.4,2.7,3.1,2.7h5.7
				v1.4H836.9z"/>
			<path d="M837.8,858.2c-2.9,0-5.1-2.2-5.1-5.1c0-2.8,2.2-5.1,5.1-5.1c2.9,0,5.1,2.2,5.1,5.1C842.8,856,840.6,858.2,837.8,858.2z
				 M837.8,849.5c-2.1,0-3.9,1.5-3.9,3.6s1.7,3.6,3.8,3.6s3.9-1.5,3.9-3.6C841.6,851,839.8,849.5,837.8,849.5z"/>
			<path d="M836.9,837c-1.8,0-3,0.9-3,2.7c0,1.7,1.4,2.9,3.1,2.9h5.6v1.4h-9.9v-1.4h1.8c-1.3-0.8-2-1.9-2-3.4c0-2.4,1.6-3.7,4-3.7
				h6.1v1.4H836.9z"/>
			<path d="M840.1,830.6h-6v1.8h-1.3v-1.8h-2.8v-1.4h2.8v-2.5h1.3v2.5h6c0.9,0,1.4-0.5,1.4-1.6c0-0.3,0-0.7-0.1-0.9h1.2
				c0.1,0.3,0.1,0.9,0.1,1.1C842.7,830,841.6,830.6,840.1,830.6z"/>
			<path d="M836.9,815.8c-1.8,0-3,0.9-3,2.7c0,1.7,1.4,2.9,3.1,2.9h5.6v1.4h-15.1v-1.4h7c-1.3-0.8-2-1.9-2-3.4c0-2.4,1.6-3.7,4-3.7
				h6.1v1.4H836.9z"/>
		</g>
	</g>
	<g>
		<g>
			<path d="M343.4,994.7h13.1v-6.9h1.4v8.4h-14.5V994.7z"/>
			<path d="M353.4,984c1.9-0.1,3.4-1.6,3.4-3.5c0-1.5-0.7-2.6-2.1-3.1l0.4-1.3c1.9,0.6,3,2.4,3,4.3c0,2.9-2.3,5-5.1,5
				c-2.7,0-5.1-2-5.1-4.8c0-3.1,2.2-4.7,5.1-4.7c0.2,0,0.3,0,0.5,0V984z M352.2,977.4c-1.8,0.2-3.1,1.3-3.1,3.2
				c0,1.7,1.4,3.1,3.1,3.3V977.4z"/>
			<path d="M358.1,969.2c0,2.7-1.8,3.6-2.9,3.8l-0.3-1.3c0.9-0.2,2-0.9,2-2.4c0-1.1-0.6-2.1-1.6-2.1c-1.2,0-1.5,1.3-1.6,2.3
				c-0.2,1.6-0.8,3.3-2.8,3.3c-1.8,0-2.9-1.7-2.9-3.3c0-2.6,1.7-3.4,2.7-3.6l0.3,1.3c-0.7,0.2-1.7,0.7-1.7,2.3
				c0,1.1,0.7,1.9,1.6,1.9c1.2,0,1.4-1.3,1.6-2.3c0.2-1.6,1.1-3.2,2.8-3.2C356.9,965.7,358.1,967.3,358.1,969.2z"/>
			<path d="M358.1,958.8c0,2.7-1.8,3.6-2.9,3.8l-0.3-1.3c0.9-0.2,2-0.9,2-2.4c0-1.1-0.6-2.1-1.6-2.1c-1.2,0-1.5,1.3-1.6,2.3
				c-0.2,1.6-0.8,3.3-2.8,3.3c-1.8,0-2.9-1.7-2.9-3.3c0-2.6,1.7-3.4,2.7-3.6l0.3,1.3c-0.7,0.2-1.7,0.7-1.7,2.3
				c0,1.1,0.7,1.9,1.6,1.9c1.2,0,1.4-1.3,1.6-2.3c0.2-1.6,1.1-3.2,2.8-3.2C356.9,955.3,358.1,956.9,358.1,958.8z"/>
			<path d="M355.4,944.3h-6v1.8H348v-1.8h-2.8v-1.4h2.8v-2.5h1.3v2.5h6c0.9,0,1.4-0.5,1.4-1.6c0-0.3,0-0.7-0.1-0.9h1.2
				c0.1,0.3,0.1,0.9,0.1,1.1C358,943.7,356.8,944.3,355.4,944.3z"/>
			<path d="M352.2,929.6c-1.8,0-3,0.9-3,2.7c0,1.7,1.4,2.9,3.1,2.9h5.6v1.4h-15.1v-1.4h7c-1.3-0.8-2-1.9-2-3.4c0-2.4,1.6-3.7,4-3.7
				h6.1v1.4H352.2z"/>
			<path d="M351.6,917.8c-1.6,0-2.4,0.9-2.4,2.5c0,1.7,1.1,2.4,2,2.6l-0.3,1.4c-0.8-0.1-3-1.2-3-4c0-2.1,0.9-3.1,2-3.6
				c0.5-0.2,1.3-0.3,1.6-0.3h6.4v1.4h-1.7v0c1.2,0.8,1.9,1.8,1.9,3.3c0,2-1.2,3.3-2.9,3.3h-0.1c-2.1,0-2.8-2.1-2.8-3.9v-2.7H351.6z
				 M353.4,920.5c0,1.1,0.3,2.4,1.7,2.4c1.1,0,1.7-0.9,1.7-2.1c0-1.8-1.2-3.1-3.1-3.1h-0.4V920.5z"/>
			<path d="M352.2,904.8c-1.8,0-3,0.9-3,2.7c0,1.7,1.4,2.9,3.1,2.9h5.6v1.4H348v-1.4h1.8c-1.3-0.8-2-1.9-2-3.4c0-2.4,1.6-3.7,4-3.7
				h6.1v1.4H352.2z"/>
			<path d="M345,889.7l2.1,3.5l-1.1,0.7l-2.5-4.2v-1.5h14.5v1.5H345z"/>
			<path d="M357.9,874.6L348,878v-1.5l8.2-2.6v0l-8.2-2.7v-1.4l8.2-2.7v0l-8.2-2.6v-1.5l9.9,3.3v1.6l-8,2.6v0l8,2.6V874.6z"/>
			<path d="M353.4,859c1.9-0.1,3.4-1.6,3.4-3.5c0-1.5-0.7-2.6-2.1-3.1l0.4-1.3c1.9,0.6,3,2.4,3,4.3c0,2.9-2.3,5-5.1,5
				c-2.7,0-5.1-2-5.1-4.8c0-3.1,2.2-4.7,5.1-4.7c0.2,0,0.3,0,0.5,0V859z M352.2,852.4c-1.8,0.2-3.1,1.3-3.1,3.2
				c0,1.7,1.4,3.1,3.1,3.3V852.4z"/>
			<path d="M353.4,846.4c1.9-0.1,3.4-1.6,3.4-3.5c0-1.5-0.7-2.6-2.1-3.1l0.4-1.3c1.9,0.6,3,2.4,3,4.3c0,2.9-2.3,5-5.1,5
				c-2.7,0-5.1-2-5.1-4.8c0-3.1,2.2-4.7,5.1-4.7c0.2,0,0.3,0,0.5,0V846.4z M352.2,839.9c-1.8,0.2-3.1,1.3-3.1,3.2
				c0,1.7,1.4,3.1,3.1,3.3V839.9z"/>
			<path d="M357.9,833.2v1.4h-15.1v-1.4h9.2l-4-4.7v-2.1l4.4,5.2l5.4-5.4v2l-4.9,4.9v0.1H357.9z"/>
		</g>
	</g>
</g>
<g id="greenChartDR5">
	<g>
		<path class="st4-dr5" d="M614,536.6c0-1.7,1.2-3.3,3.5-4c-2-0.6-3.1-2.4-3.1-3.8c0-2.9,3-4.4,5.4-4.4c2.5,0,5.4,1.5,5.4,4.4
			c0,1.6-1.1,3.2-3.1,3.8c2.3,0.7,3.5,2.3,3.5,4c0,3-2.9,4.7-5.8,4.7C617,541.3,614,539.8,614,536.6z M623.9,536.6
			c0-2.2-2.3-3.2-4.1-3.2c-1.7,0-4.1,1-4.1,3.2c0,2.2,2.3,3.2,4.1,3.2C621.5,539.8,623.9,538.8,623.9,536.6z M616.1,528.9
			c0,2.1,2.3,3,3.7,3s3.7-1,3.7-3c0-1.9-2.1-2.9-3.7-2.9C618.2,526,616.1,527,616.1,528.9z"/>
		<path class="st4-dr5" d="M629.5,533.6c-1.2,0-2.2-1-2.2-2.2c0-1.2,1-2.2,2.2-2.2c1.2,0,2.2,1,2.2,2.2
			C631.7,532.6,630.7,533.6,629.5,533.6z M629.5,530c-0.8,0-1.4,0.6-1.4,1.4c0,0.8,0.6,1.4,1.4,1.4s1.4-0.6,1.4-1.4
			C630.9,530.6,630.3,530,629.5,530z M634.9,529.3h1l-6.3,9.6h-1L634.9,529.3z M634.9,539c-1.2,0-2.2-1-2.2-2.2c0-1.2,1-2.2,2.2-2.2
			s2.2,1,2.2,2.2C637.1,538.1,636.1,539,634.9,539z M634.9,535.5c-0.8,0-1.4,0.6-1.4,1.4c0,0.8,0.6,1.4,1.4,1.4s1.4-0.6,1.4-1.4
			C636.3,536.1,635.6,535.5,634.9,535.5z"/>
	</g>
	<g>
		<rect x="599.5" y="559.1" class="st4-dr5" width="74.3" height="44.8"/>
	</g>
	<g>
		<rect x="1084.3" y="363.1" class="st4-dr5" width="74.3" height="240.8"/>
	</g>
	<g>
		<path class="st4-dr5" d="M1106.7,345.2v-4h-8.6v-1.9l8.1-10.7h2.2v11.1h2.8v1.5h-2.8v4H1106.7z M1106.7,339.7v-9.3l-7.1,9.3H1106.7z"
			/>
		<path class="st4-dr5" d="M1118.6,345.3c-2.9,0-5.4-1.8-5.7-4.5l1.7-0.4c0.3,1.9,1.8,3.3,4,3.3c2.2,0,4-1.2,4-3.1c0-1.9-1.4-3.1-4-3.1
			h-1.6v-1.6h1.6c2.3,0,3.7-1.4,3.7-3c0-1.7-1.3-2.9-3.7-2.9c-2.3,0-3.6,1.4-3.9,3.1l-1.7-0.4c0.3-2.3,2.5-4.3,5.5-4.3
			c3.6,0,5.4,2.2,5.4,4.4c0,1.9-1.1,3.1-2.6,3.8v0c1.9,0.5,3,2,3,4C1124.3,343.1,1122.1,345.3,1118.6,345.3z"/>
		<path class="st4-dr5" d="M1128.2,337.5c-1.2,0-2.2-1-2.2-2.2c0-1.2,1-2.2,2.2-2.2c1.2,0,2.2,1,2.2,2.2
			C1130.4,336.6,1129.4,337.5,1128.2,337.5z M1128.2,334c-0.8,0-1.4,0.6-1.4,1.4c0,0.8,0.6,1.4,1.4,1.4s1.4-0.6,1.4-1.4
			C1129.6,334.6,1129,334,1128.2,334z M1133.5,333.3h1l-6.3,9.6h-1L1133.5,333.3z M1133.6,343c-1.2,0-2.2-1-2.2-2.2
			c0-1.2,1-2.2,2.2-2.2c1.2,0,2.2,1,2.2,2.2C1135.7,342,1134.8,343,1133.6,343z M1133.6,339.5c-0.8,0-1.4,0.6-1.4,1.4
			c0,0.8,0.6,1.4,1.4,1.4c0.8,0,1.4-0.6,1.4-1.4C1134.9,340.1,1134.3,339.5,1133.6,339.5z"/>
	</g>
	<g>
		<rect x="1084.3" y="964.6" class="st4-dr5" width="74.3" height="33.6"/>
	</g>
	<g>
		<path class="st4-dr5" d="M1100.5,938.3c1.1-1.8,3.2-2.4,4.6-2.4c3.5,0,5.6,2.5,5.6,5.3c0,3.8-3,5.6-5.9,5.6c-1.8,0-4-1.1-4.9-2.8
			c-0.8-1.4-1-2.5-1-4.6c0-5.2,2.8-9.5,8.1-9.5c0.9,0,2.3,0.1,3.4,0.8l-0.6,1.6c-0.9-0.5-2-0.7-2.7-0.7
			C1103,931.6,1100.8,934.6,1100.5,938.3z M1102,938.4c-0.8,0.7-1.3,1.7-1.3,2.9c0,2.5,2.1,3.9,4.1,3.9c2.1,0,4.1-1.4,4.1-4
			c0-2-1.5-3.8-4.1-3.8C1103.8,937.4,1102.8,937.8,1102,938.4z"/>
		<path class="st4-dr5" d="M1114.4,939c-1.2,0-2.2-1-2.2-2.2c0-1.2,1-2.2,2.2-2.2c1.2,0,2.2,1,2.2,2.2C1116.6,938,1115.6,939,1114.4,939
			z M1114.4,935.5c-0.8,0-1.4,0.6-1.4,1.4c0,0.8,0.6,1.4,1.4,1.4s1.4-0.6,1.4-1.4C1115.7,936.1,1115.1,935.5,1114.4,935.5z
			 M1119.7,934.8h1l-6.3,9.6h-1L1119.7,934.8z M1119.7,944.5c-1.2,0-2.2-1-2.2-2.2c0-1.2,1-2.2,2.2-2.2c1.2,0,2.2,1,2.2,2.2
			C1121.9,943.5,1120.9,944.5,1119.7,944.5z M1119.7,941c-0.8,0-1.4,0.6-1.4,1.4c0,0.8,0.6,1.4,1.4,1.4c0.8,0,1.4-0.6,1.4-1.4
			C1121.1,941.6,1120.5,941,1119.7,941z"/>
	</g>
	<g>
		<rect x="599.5" y="824.6" class="st4-dr5" width="74.3" height="173.6"/>
	</g>
	<g>
		<path class="st4-dr5" d="M619.5,806.8c-2.9,0-5.4-1.8-5.7-4.5l1.7-0.4c0.3,1.9,1.8,3.3,4,3.3c2.2,0,4-1.2,4-3.1s-1.4-3.1-4-3.1h-1.6
			v-1.6h1.6c2.3,0,3.7-1.4,3.7-3c0-1.7-1.3-2.9-3.7-2.9c-2.3,0-3.6,1.4-3.9,3.1l-1.7-0.4c0.3-2.3,2.5-4.3,5.5-4.3
			c3.6,0,5.4,2.2,5.4,4.4c0,1.9-1.1,3.1-2.6,3.8v0c1.9,0.5,3,2,3,4C625.2,804.6,622.9,806.8,619.5,806.8z"/>
		<path class="st4-dr5" d="M631.5,791.9l-4,2.4l-0.8-1.3l4.8-2.9h1.7v16.5h-1.7V791.9z"/>
		<path class="st4-dr5" d="M638.1,799c-1.2,0-2.2-1-2.2-2.2c0-1.2,1-2.2,2.2-2.2c1.2,0,2.2,1,2.2,2.2C640.3,798,639.3,799,638.1,799z
			 M638.1,795.5c-0.8,0-1.4,0.6-1.4,1.4c0,0.8,0.6,1.4,1.4,1.4s1.4-0.6,1.4-1.4C639.5,796.1,638.9,795.5,638.1,795.5z M643.5,794.8
			h1l-6.3,9.6h-1L643.5,794.8z M643.5,804.5c-1.2,0-2.2-1-2.2-2.2c0-1.2,1-2.2,2.2-2.2s2.2,1,2.2,2.2
			C645.7,803.5,644.7,804.5,643.5,804.5z M643.5,800.9c-0.8,0-1.4,0.6-1.4,1.4c0,0.8,0.6,1.4,1.4,1.4s1.4-0.6,1.4-1.4
			C644.9,801.6,644.2,800.9,643.5,800.9z"/>
	</g>
</g>
</svg>
