<?xml version="1.0" encoding="utf-8"?>
<!-- Generator: Adobe Illustrator 21.1.0, SVG Export Plug-In . SVG Version: 6.00 Build 0)  -->
<svg version="1.1" id="Layer_1" xmlns="http://www.w3.org/2000/svg" xmlns:xlink="http://www.w3.org/1999/xlink" x="0px" y="0px"
	 viewBox="0 0 184 195.6" style="enable-background:new 0 0 184 195.6;" xml:space="preserve">
<style type="text/css">
	.st0{enable-background:new    ;}
	.st1{fill:#37C0AA;stroke:#37C0AA;stroke-width:3;stroke-miterlimit:10;}
</style>
<g class="st0">
	<path class="st1" d="M32.9,86.1h-25V7.8h24.8c30.1,0,41.8,22.9,41.8,39.2C74.5,65,61.8,86.1,32.9,86.1z M32.5,19.2H20.2v55.5h12.2
		C53,74.7,61.6,60.1,61.6,47C61.6,34.8,53.1,19.2,32.5,19.2z"/>
</g>
<g class="st0">
	<path class="st1" d="M105.2,86.1V7.8h12.3v32.8h38.7V7.8h12.3v78.3h-12.3V52.3h-38.7v33.8H105.2z"/>
</g>
<g class="st0">
	<path class="st1" d="M98.9,147.2c0-23.6,18.6-40.5,39.9-40.5c22,0,33.5,14.9,36.2,25.6l-12.1,4.1c-1.1-4.8-6.6-18.2-24.3-18.2
		c-13.7,0-26.7,11.1-26.7,28.6c0,17.4,12.8,28.7,26.7,28.7c16.2,0,22.8-12.8,24.5-18.6l12.1,4.2c-2.5,9.6-13.9,25.9-36.9,25.9
		C118.6,187,98.9,172.5,98.9,147.2z"/>
</g>
</svg>
